<?xml version="1.0" encoding="UTF-8" standalone="no"?>
<!-- Created with Inkscape (http://www.inkscape.org/) -->

<svg
   xmlns:dc="http://purl.org/dc/elements/1.1/"
   xmlns:cc="http://creativecommons.org/ns#"
   xmlns:rdf="http://www.w3.org/1999/02/22-rdf-syntax-ns#"
   xmlns:svg="http://www.w3.org/2000/svg"
   xmlns="http://www.w3.org/2000/svg"
   xmlns:sodipodi="http://sodipodi.sourceforge.net/DTD/sodipodi-0.dtd"
   xmlns:inkscape="http://www.inkscape.org/namespaces/inkscape"
   width="157.33058mm"
   height="26.000021mm"
   viewBox="0 0 157.33058 26.000021"
   version="1.1"
   id="svg8"
   inkscape:version="0.92.1 r15371"
   sodipodi:docname="icons.svg">
  <defs
     id="defs2" />
  <sodipodi:namedview
     id="base"
     pagecolor="#ffffff"
     bordercolor="#666666"
     borderopacity="1.0"
     inkscape:pageopacity="0.0"
     inkscape:pageshadow="2"
     inkscape:zoom="0.98994949"
     inkscape:cx="365.33558"
     inkscape:cy="-266.3153"
     inkscape:document-units="mm"
     inkscape:current-layer="layer1"
     showgrid="false"
     inkscape:window-width="2560"
     inkscape:window-height="1545"
     inkscape:window-x="0"
     inkscape:window-y="25"
     inkscape:window-maximized="1"
     fit-margin-top="1"
     fit-margin-left="1"
     fit-margin-right="1"
     fit-margin-bottom="1" />
  <metadata
     id="metadata5">
    <rdf:RDF>
      <cc:Work
         rdf:about="">
        <dc:format>image/svg+xml</dc:format>
        <dc:type
           rdf:resource="http://purl.org/dc/dcmitype/StillImage" />
        <dc:title></dc:title>
      </cc:Work>
    </rdf:RDF>
  </metadata>
  <g
     inkscape:label="Layer 1"
     inkscape:groupmode="layer"
     id="layer1"
     transform="translate(-29.859717,-18.547533)">
    <g
       id="g4613"
       transform="matrix(0.10580798,0,0,0.10580798,30.859717,19.547552)">
      <path
         id="path4599"
         d="m 135.715,122.244 c -2.614,-1.31 -8.437,-3.074 -15.368,-3.533 -6.934,-0.458 -15.828,0 -15.828,0 v 30.02 c 0,0 9.287,0.198 15.503,-0.26 6.21,-0.458 12.621,-2.027 15.826,-3.795 3.203,-1.766 7.063,-4.513 7.063,-11.379 0,-6.869 -4.579,-9.745 -7.196,-11.053 z M 116.16,104.779 c 5.104,-0.197 10.532,-1.373 14.453,-3.532 3.925,-2.158 6.148,-5.557 6.02,-10.66 -0.134,-5.102 -3.532,-9.418 -9.287,-11.186 -5.757,-1.766 -9.613,-1.897 -13.998,-1.962 -4.382,-0.064 -8.83,0.328 -8.83,0.328 v 27.012 c 0.001,0 6.541,0.197 11.642,0 z"
         inkscape:connector-curvature="0" />
      <path
         id="path4601"
         d="M 113.413,0 C 50.777,0 0,50.776 0,113.413 c 0,62.636 50.777,113.413 113.413,113.413 62.636,0 113.411,-50.777 113.411,-113.413 C 226.824,50.776 176.049,0 113.413,0 Z m 46.178,156.777 c -8.44,5.887 -17.465,6.935 -21.455,7.456 -1.969,0.259 -5.342,0.532 -8.959,0.744 v 22.738 h -13.998 v -22.37 h -10.66 v 22.37 H 90.522 v -22.37 H 62.987 l 2.877,-16.812 h 8.371 c 2.814,0 3.989,-0.261 5.166,-1.372 1.177,-1.113 1.439,-2.812 1.439,-4.188 V 85.057 c 0,-3.628 -0.295,-4.61 -1.963,-6.473 -1.668,-1.867 -5.591,-2.112 -7.8,-2.112 H 62.986 V 61.939 H 90.521 V 39.505 h 13.996 v 22.434 h 10.66 V 39.505 h 13.998 v 22.703 c 10.435,0.647 18.203,2.635 24.983,7.645 8.766,6.475 8.306,17.724 8.11,20.406 -0.195,2.682 -1.372,7.85 -3.729,11.183 -2.352,3.337 -8.108,6.673 -8.108,6.673 0,0 6.801,1.438 11.578,5.036 4.771,3.598 8.307,9.941 8.106,19.229 -0.192,9.288 -2.088,18.511 -10.524,24.397 z"
         inkscape:connector-curvature="0" />
    </g>
    <path
       id="path4690"
       d="m 115.98202,19.547555 c -6.62742,0 -12,5.372583 -12,12.000003 0,6.6274 5.37258,11.99999 12,11.99999 6.6274,0 11.99998,-5.37259 11.99998,-11.99999 0,-6.62742 -5.37258,-12.000003 -11.99998,-12.000003 z m -0.15557,19.950333 -4.74227,-6.70822 4.74227,2.77652 z m 0,-4.91489 -4.77435,-2.79664 4.77435,-2.09133 z m 0,-5.224 -4.62058,2.02378 4.62058,-7.76321 z m 0.30774,-5.74176 4.6855,7.79434 -4.68549,-2.05258 z m 0,15.88065 v -3.9317 l 4.74226,-2.77652 z m 0,-4.91479 v -4.88797 l 4.77785,2.09282 z"
       inkscape:connector-curvature="0"
       style="stroke-width:0.10590134" />
    <path
       id="path4774"
       d="m 79.449218,19.547557 c -0.988626,-0.002 -1.99354,0.12 -2.995713,0.3756 v -5.1e-4 c -6.413129,1.63731 -10.283978,8.157751 -8.645296,14.564021 1.638854,6.40628 8.166329,10.27284 14.579802,8.6357 6.413475,-1.6368 10.283981,-8.15724 8.645474,-14.56352 -1.382915,-5.40513 -6.245817,-9.002371 -11.584267,-9.011291 z m -19.485566,0.0549 v 23.945091 h 11.06244 c -3.771425,-2.6436 -6.237077,-7.0205 -6.237077,-11.97255 0,-4.95188 2.465481,-9.32878 6.237077,-11.972541 z m 27.851781,0 c 3.77142,2.643761 6.237071,7.020661 6.237071,11.972541 0,4.95205 -2.465477,9.32895 -6.237071,11.97255 H 98.877868 V 19.602457 Z m -8.714043,3.949181 0.593998,2.322 c 1.085139,-0.20657 1.932512,-0.20606 2.757765,0.12925 1.066974,0.43303 1.314174,1.59566 1.364569,1.87509 0.04989,0.27942 0.06466,0.83896 -0.08931,1.24114 -0.153602,0.40286 -0.655546,0.89468 -0.655546,0.89468 0,0 0.733542,-0.0307 1.317083,0.21257 0.582342,0.24343 1.110687,0.79955 1.333369,1.75475 0.223377,0.95468 0.269832,1.94759 -0.43954,2.7701 -0.692398,0.80211 -1.562228,1.1484 -1.971083,1.31126 l -0.03071,0.012 c -0.194739,0.078 -0.532799,0.19422 -0.897771,0.31028 l 0.594685,2.32543 -1.432967,0.36599 -0.585427,-2.28788 -1.091488,0.27857 0.585257,2.28788 -1.432967,0.366 -0.585258,-2.28822 -2.819479,0.71948 -0.14503,-1.79468 0.857144,-0.21857 c 0.287999,-0.0739 0.401482,-0.13097 0.492858,-0.27514 0.09137,-0.14469 0.07371,-0.32554 0.03771,-0.46646 l -1.514917,-5.92336 c -0.09497,-0.37114 -0.150854,-0.46371 -0.370285,-0.6108 -0.219767,-0.14726 -0.627942,-0.0701 -0.854227,-0.0119 l -0.828337,0.21103 -0.380399,-1.48663 2.819647,-0.71948 -0.58748,-2.29422 1.433136,-0.36566 0.5868,2.29457 1.091482,-0.27857 -0.586968,-2.29457 z m 0.628454,4.12234 c -0.508285,-0.002 -0.862282,0.0766 -1.256572,0.17108 -0.450342,0.108 -0.895707,0.26452 -0.895707,0.26452 l 0.70645,2.76273 c 0,0 0.675085,-0.15103 1.192286,-0.30445 0.517369,-0.1536 1.042629,-0.4152 1.387542,-0.73851 0.345424,-0.32349 0.484111,-0.7296 0.337539,-1.248 -0.147427,-0.5184 -0.608052,-0.87086 -1.243536,-0.90137 a 5.3334759,5.3334759 0 0 0 -0.228002,-0.006 z m 1.530168,4.11462 a 5.6451324,5.6451324 0 0 0 -0.990342,0.0951 c -0.722228,0.1344 -1.621026,0.41349 -1.621026,0.41349 l 0.785484,3.07028 c 0,0 0.956398,-0.22217 1.580401,-0.43166 0.624171,-0.20914 1.239253,-0.53709 1.521427,-0.8016 0.281657,-0.26434 0.60497,-0.64645 0.425313,-1.34862 -0.179661,-0.70252 -0.723601,-0.87703 -1.02566,-0.94251 -0.151023,-0.0327 -0.387079,-0.0562 -0.675597,-0.0545 z"
       inkscape:connector-curvature="0"
       style="stroke-width:0.17142825" />
    <path
       id="path4844"
       d="m 145.08605,19.547549 c -6.62739,0 -11.9999,5.372609 -11.9999,12.000099 0,6.62761 5.37251,11.9999 11.9999,11.9999 6.62759,0 12.0001,-5.37229 12.0001,-11.9999 1.1e-4,-6.62749 -5.3724,-12.000099 -12.0001,-12.000099 z m 4.65817,17.851799 h -9.37621 l 0.78806,-3.7622 -1.53234,1.05072 0.37224,-2.05882 1.60269,-1.10329 1.57212,-7.50399 h 2.92706 l -1.08235,5.15258 3.81086,-2.62273 -0.4466,2.13329 -3.81023,2.61204 -0.7538,3.58915 h 6.44926 z"
       inkscape:connector-curvature="0"
       style="stroke-width:0.10578093" />
    <path
       id="path4972"
       d="m 174.1903,19.547553 c -6.6274,0 -12,5.372595 -12,11.999995 0,6.6274 5.3726,12 12,12 6.6274,0 12,-5.37271 12,-12 0,-6.6274 -5.3726,-11.999995 -12,-11.999995 z m 5.02244,17.346645 c -0.78007,1.34048 -2.53193,1.81319 -3.91265,1.05599 -1.38083,-0.7572 -1.86784,-2.45779 -1.08755,-3.79837 0.32495,-0.55839 0.12212,-1.26676 -0.45332,-1.5825 -0.56729,-0.31107 -1.28498,-0.12349 -1.61639,0.41742 h -2.1e-4 v -0.002 c -0.005,0.008 -0.009,0.0164 -0.0136,0.0246 -0.78008,1.34047 -2.53182,1.81328 -3.91255,1.05598 -1.38094,-0.75719 -1.86794,-2.458 -1.08787,-3.79816 0.78029,-1.34058 2.53193,-1.81328 3.91298,-1.05588 0.46147,0.25315 0.82244,0.6121 1.07049,1.02739 v -0.002 l 2.1e-4,-2.1e-4 c 0.34402,0.53297 1.06499,0.70477 1.62487,0.38162 0.56792,-0.32781 0.75465,-1.04053 0.41688,-1.59193 -0.81036,-1.32332 -0.36223,-3.03397 1.00102,-3.82061 1.36304,-0.78675 3.12516,-0.35175 3.93574,0.97147 0.81037,1.32342 0.36245,3.03397 -1.00101,3.82071 a 2.9245609,2.9245609 0 0 1 -1.45074,0.39126 l 0.001,4e-4 v 2.1e-4 c -0.65403,0.0219 -1.17366,0.54664 -1.16582,1.18531 0.008,0.64715 0.55489,1.16593 1.22153,1.1583 l -0.004,0.002 a 2.9261496,2.9261496 0 0 1 1.43337,0.36023 c 1.38051,0.7574 1.86751,2.45789 1.08744,3.79815 z"
       inkscape:connector-curvature="0"
       style="stroke-width:0.1059163" />
  </g>
</svg>
