<?xml version="1.0" encoding="UTF-8" standalone="no"?>
<!-- Created with Inkscape (http://www.inkscape.org/) -->

<svg
   xmlns:dc="http://purl.org/dc/elements/1.1/"
   xmlns:cc="http://creativecommons.org/ns#"
   xmlns:rdf="http://www.w3.org/1999/02/22-rdf-syntax-ns#"
   xmlns:svg="http://www.w3.org/2000/svg"
   xmlns="http://www.w3.org/2000/svg"
   xmlns:sodipodi="http://sodipodi.sourceforge.net/DTD/sodipodi-0.dtd"
   xmlns:inkscape="http://www.inkscape.org/namespaces/inkscape"
   width="121.24709"
   height="24.673002"
   viewBox="0 0 32.079959 6.5280653"
   version="1.1"
   id="svg8"
   inkscape:version="0.92.1 r15371"
   sodipodi:docname="icons.svg">
  <defs
     id="defs2" />
  <sodipodi:namedview
     id="base"
     pagecolor="#ffffff"
     bordercolor="#666666"
     borderopacity="1.0"
     inkscape:pageopacity="0.0"
     inkscape:pageshadow="2"
     inkscape:zoom="5.6"
     inkscape:cx="96.714673"
     inkscape:cy="-19.200203"
     inkscape:document-units="mm"
     inkscape:current-layer="layer1"
     showgrid="false"
     inkscape:window-width="2560"
     inkscape:window-height="1545"
     inkscape:window-x="0"
     inkscape:window-y="25"
     inkscape:window-maximized="1"
     fit-margin-top="1"
     fit-margin-left="1"
     fit-margin-right="1"
     fit-margin-bottom="1"
     units="px" />
  <metadata
     id="metadata5">
    <rdf:RDF>
      <cc:Work
         rdf:about="">
        <dc:format>image/svg+xml</dc:format>
        <dc:type
           rdf:resource="http://purl.org/dc/dcmitype/StillImage" />
        <dc:title></dc:title>
      </cc:Work>
    </rdf:RDF>
  </metadata>
  <g
     inkscape:label="Layer 1"
     inkscape:groupmode="layer"
     id="layer1"
     transform="translate(-30.595134,-37.284072)">
    <g
       id="g4613"
       transform="matrix(0.02644712,0,0,0.02644712,30.859717,37.548659)">
      <path
         id="path4599"
         d="m 135.715,122.244 c -2.614,-1.31 -8.437,-3.074 -15.368,-3.533 -6.934,-0.458 -15.828,0 -15.828,0 v 30.02 c 0,0 9.287,0.198 15.503,-0.26 6.21,-0.458 12.621,-2.027 15.826,-3.795 3.203,-1.766 7.063,-4.513 7.063,-11.379 0,-6.869 -4.579,-9.745 -7.196,-11.053 z M 116.16,104.779 c 5.104,-0.197 10.532,-1.373 14.453,-3.532 3.925,-2.158 6.148,-5.557 6.02,-10.66 -0.134,-5.102 -3.532,-9.418 -9.287,-11.186 -5.757,-1.766 -9.613,-1.897 -13.998,-1.962 -4.382,-0.064 -8.83,0.328 -8.83,0.328 v 27.012 c 0.001,0 6.541,0.197 11.642,0 z"
         inkscape:connector-curvature="0" />
      <path
         id="path4601"
         d="M 113.413,0 C 50.777,0 0,50.776 0,113.413 c 0,62.636 50.777,113.413 113.413,113.413 62.636,0 113.411,-50.777 113.411,-113.413 C 226.824,50.776 176.049,0 113.413,0 Z m 46.178,156.777 c -8.44,5.887 -17.465,6.935 -21.455,7.456 -1.969,0.259 -5.342,0.532 -8.959,0.744 v 22.738 h -13.998 v -22.37 h -10.66 v 22.37 H 90.522 v -22.37 H 62.987 l 2.877,-16.812 h 8.371 c 2.814,0 3.989,-0.261 5.166,-1.372 1.177,-1.113 1.439,-2.812 1.439,-4.188 V 85.057 c 0,-3.628 -0.295,-4.61 -1.963,-6.473 -1.668,-1.867 -5.591,-2.112 -7.8,-2.112 H 62.986 V 61.939 H 90.521 V 39.505 h 13.996 v 22.434 h 10.66 V 39.505 h 13.998 v 22.703 c 10.435,0.647 18.203,2.635 24.983,7.645 8.766,6.475 8.306,17.724 8.11,20.406 -0.195,2.682 -1.372,7.85 -3.729,11.183 -2.352,3.337 -8.108,6.673 -8.108,6.673 0,0 6.801,1.438 11.578,5.036 4.771,3.598 8.307,9.941 8.106,19.229 -0.192,9.288 -2.088,18.511 -10.524,24.397 z"
         inkscape:connector-curvature="0" />
    </g>
    <path
       id="path4690"
       d="m 52.13637,37.54866 c -1.656549,0 -2.999447,1.342899 -2.999447,2.999448 0,1.656545 1.342898,2.999444 2.999447,2.999444 1.656545,0 2.999442,-1.342899 2.999442,-2.999444 0,-1.656549 -1.342897,-2.999448 -2.999442,-2.999448 z m -0.03888,4.986664 -1.185349,-1.676746 1.185349,0.694002 z m 0,-1.228496 -1.193368,-0.699031 1.193368,-0.522736 z m 0,-1.305759 -1.154933,0.505851 1.154933,-1.940445 z m 0.07692,-1.435176 1.171158,1.948226 -1.171156,-0.51305 z m 0,3.969431 V 41.55258 l 1.185346,-0.694002 z m 0,-1.228472 v -1.221766 l 1.194241,0.523108 z"
       inkscape:connector-curvature="0"
       style="stroke-width:0.02647046" />
    <path
       id="path4774"
       d="m 43.004854,37.548661 c -0.247112,-4.93e-4 -0.498295,0.02999 -0.748791,0.09388 v -1.28e-4 c -1.602987,0.409253 -2.57052,2.039063 -2.160925,3.640335 0.409637,1.601275 2.041206,2.567735 3.644278,2.158527 1.603074,-0.409125 2.57052,-2.038935 2.160969,-3.640209 -0.345664,-1.351033 -1.561165,-2.250178 -2.895531,-2.252407 z m -4.870494,0.01372 v 5.985171 h 2.7651 c -0.942683,-0.660779 -1.558982,-1.754801 -1.558982,-2.992585 0,-1.237742 0.616257,-2.331765 1.558982,-2.992584 z m 6.961661,0 c 0.942682,0.660819 1.55898,1.754843 1.55898,2.992585 0,1.237784 -0.616256,2.331806 -1.55898,2.992585 h 2.765098 v -5.985168 z m -2.178108,0.987114 0.148471,0.580393 c 0.271235,-0.05164 0.483039,-0.05151 0.689314,0.0323 0.266694,0.10824 0.328484,0.398841 0.341079,0.468685 0.01247,0.06984 0.01617,0.209701 -0.02232,0.310229 -0.03839,0.100698 -0.163856,0.223628 -0.163856,0.223628 0,0 0.183353,-0.0077 0.329211,0.05314 0.145558,0.06084 0.27762,0.199849 0.333281,0.438606 0.05582,0.238626 0.06744,0.486808 -0.109866,0.692397 -0.173067,0.20049 -0.390484,0.287047 -0.492679,0.327755 l -0.0077,0.0031 c -0.04868,0.0195 -0.133175,0.04855 -0.224401,0.07756 l 0.148644,0.58125 -0.358176,0.09148 -0.14633,-0.571866 -0.272822,0.06963 0.146287,0.571864 -0.358175,0.09148 -0.146288,-0.57195 -0.70474,0.179837 -0.03625,-0.448587 0.214247,-0.05463 c 0.07198,-0.01847 0.100348,-0.03274 0.123192,-0.06877 0.02284,-0.03616 0.01842,-0.08137 0.0094,-0.116594 l -0.378659,-1.480566 c -0.02373,-0.09277 -0.03771,-0.115907 -0.09255,-0.152673 -0.05494,-0.03681 -0.156956,-0.01752 -0.213517,-0.003 l -0.207046,0.05274 -0.09508,-0.371588 0.704781,-0.179838 -0.146843,-0.573449 0.358218,-0.09139 0.146673,0.573538 0.272821,-0.06963 -0.146716,-0.573537 z m 0.157084,1.030395 c -0.127048,-4.93e-4 -0.215531,0.01915 -0.314085,0.04276 -0.112565,0.02699 -0.223886,0.06611 -0.223886,0.06611 l 0.17658,0.690555 c 0,0 0.16874,-0.03775 0.298016,-0.0761 0.129319,-0.03839 0.26061,-0.10378 0.346822,-0.184592 0.08635,-0.08086 0.121005,-0.182367 0.08437,-0.311943 -0.03686,-0.129576 -0.151985,-0.217675 -0.310826,-0.225302 a 1.3331231,1.3331231 0 0 0 -0.057,-0.0014 z m 0.382471,1.028465 a 1.4110229,1.4110229 0 0 0 -0.247541,0.02378 c -0.180522,0.03359 -0.40518,0.103354 -0.40518,0.103354 l 0.196334,0.767428 c 0,0 0.239055,-0.05553 0.395028,-0.10789 0.156014,-0.05227 0.309755,-0.134248 0.380286,-0.200364 0.0704,-0.06608 0.151214,-0.161582 0.106306,-0.337092 -0.04491,-0.175599 -0.180867,-0.219218 -0.256369,-0.235585 -0.03775,-0.0082 -0.09675,-0.01405 -0.168867,-0.01362 z"
       inkscape:connector-curvature="0"
       style="stroke-width:0.04284916" />
    <path
       id="path4844"
       d="m 59.411036,37.548659 c -1.656542,0 -2.999422,1.342904 -2.999422,2.999472 0,1.656596 1.34288,2.999421 2.999422,2.999421 1.656591,0 2.999473,-1.342825 2.999473,-2.999421 2.6e-5,-1.656568 -1.342853,-2.999472 -2.999473,-2.999472 z m 1.164328,4.462127 h -2.34362 l 0.196978,-0.940377 -0.383014,0.262632 0.09305,-0.51461 0.400599,-0.275773 0.392956,-1.875651 h 0.731631 l -0.270538,1.287908 0.95254,-0.655562 -0.111629,0.533224 -0.952383,0.65289 -0.188414,0.897122 h 1.612017 z"
       inkscape:connector-curvature="0"
       style="stroke-width:0.02644035" />
  </g>
</svg>
