<?xml version="1.0" encoding="UTF-8"?>
<!-- Generator: Adobe Illustrator 22.0.1, SVG Export Plug-In . SVG Version: 6.00 Build 0)  -->
<svg version="1.1" id="Layer_1" xmlns="http://www.w3.org/2000/svg" xmlns:xlink="http://www.w3.org/1999/xlink" x="0px" y="0px" viewBox="0 0 32 32" style="enable-background:new 0 0 32 32;" xml:space="preserve">
<style type="text/css">
	.st0{fill:#FFFFFF;}
	.st1{fill:#4C1515;}
	.st2{fill:#C4C3C3;}
</style>
<g>
	<polygon class="st0" points="12.417,7.958 23.563,7.958 22.771,11.229 16.688,11.229 15.792,14.729 18.958,14.729 18.292,17.542    15.083,17.542 14.25,20.917 20.771,20.917 19.958,24.104 8.438,24.104 10.083,17.5 7.021,17.458 7.688,14.708 10.667,14.729    12.333,8.167  "/>
	<g>
		<g>
			<path class="st1" d="M15.141,0.204c0.597,0,1.195,0,1.792,0c0.086,0.042,0.181,0.036,0.272,0.043     c0.724,0.057,1.441,0.165,2.152,0.316c1.263,0.267,2.476,0.682,3.635,1.248c1.164,0.568,2.241,1.272,3.232,2.107     c1.443,1.215,2.629,2.643,3.565,4.279c0.401,0.702,0.74,1.432,1.027,2.188c0.483,1.272,0.791,2.584,0.948,3.934     c0.031,0.27,0.025,0.545,0.093,0.811c0,0.597,0,1.195,0,1.792c-0.033,0.056-0.03,0.12-0.035,0.18     c-0.059,0.755-0.167,1.503-0.324,2.245c-0.26,1.223-0.657,2.398-1.195,3.525c-0.572,1.198-1.288,2.304-2.142,3.321     c-1.363,1.624-2.988,2.922-4.87,3.896c-1.179,0.61-2.419,1.053-3.714,1.35c-0.911,0.209-1.832,0.347-2.763,0.394     c-1.379,0.069-2.745-0.052-4.097-0.344c-1.268-0.273-2.486-0.686-3.65-1.255c-1.155-0.564-2.223-1.263-3.207-2.09     c-1.615-1.358-2.907-2.974-3.879-4.846c-0.511-0.984-0.903-2.014-1.196-3.085C0.485,19.115,0.296,18,0.233,16.867     c-0.101-1.831,0.128-3.628,0.651-5.385c0.389-1.306,0.935-2.543,1.65-3.707c0.568-0.924,1.217-1.783,1.958-2.573     c0.823-0.878,1.735-1.651,2.736-2.322c1.059-0.71,2.186-1.284,3.384-1.718c1.259-0.456,2.556-0.745,3.887-0.885     C14.714,0.255,14.932,0.267,15.141,0.204z M14.186,24.163c1.849,0,3.697-0.002,5.546,0.003c0.142,0,0.196-0.048,0.228-0.183     c0.228-0.951,0.464-1.901,0.697-2.85c0.047-0.191,0.029-0.216-0.169-0.216c-2.034,0-4.068-0.001-6.102,0.003     c-0.142,0-0.161-0.037-0.128-0.168c0.264-1.038,0.523-2.077,0.778-3.117c0.027-0.111,0.078-0.133,0.181-0.133     c0.947,0.004,1.895,0.002,2.842,0.002c0.233,0,0.239-0.01,0.29-0.24c0.17-0.764,0.343-1.527,0.518-2.289     c0.047-0.204,0.039-0.218-0.178-0.218c-0.911,0-1.823,0-2.734,0c-0.084,0-0.167,0.02-0.132-0.125     c0.262-1.091,0.519-2.184,0.774-3.276c0.023-0.101,0.068-0.129,0.169-0.129c1.936,0.003,3.872,0.001,5.809,0.007     c0.153,0,0.217-0.046,0.252-0.195c0.227-0.967,0.463-1.932,0.697-2.898c0.04-0.164,0.02-0.19-0.15-0.19     c-3.594,0-7.189,0-10.783-0.002c-0.111,0-0.167,0.032-0.195,0.145c-0.175,0.72-0.356,1.439-0.533,2.159     c-0.359,1.454-0.719,2.909-1.075,4.364c-0.024,0.1-0.068,0.129-0.169,0.129c-0.922-0.004-1.844,0-2.765-0.005     c-0.128-0.001-0.182,0.041-0.21,0.164c-0.183,0.798-0.373,1.594-0.56,2.39c-0.041,0.172-0.022,0.197,0.16,0.197     c0.891,0.001,1.782,0.002,2.673-0.002c0.109,0,0.146,0.014,0.116,0.136c-0.523,2.109-1.041,4.219-1.561,6.328     c-0.049,0.198-0.04,0.211,0.168,0.211C10.489,24.163,12.338,24.163,14.186,24.163z"/>
			<path class="st2" d="M14.186,24.163c-1.849,0-3.697,0-5.546,0c-0.208,0-0.217-0.013-0.168-0.211     c0.52-2.109,1.038-4.219,1.561-6.328c0.03-0.123-0.007-0.137-0.116-0.136c-0.891,0.004-1.782,0.003-2.673,0.002     c-0.183,0-0.201-0.025-0.16-0.197c0.188-0.797,0.377-1.593,0.56-2.39c0.028-0.123,0.082-0.165,0.21-0.164     c0.922,0.005,1.844,0.001,2.765,0.005c0.101,0,0.145-0.029,0.169-0.129c0.356-1.455,0.715-2.91,1.075-4.364     c0.178-0.72,0.359-1.439,0.533-2.159c0.027-0.113,0.083-0.145,0.195-0.145c3.594,0.002,7.189,0.002,10.783,0.002     c0.17,0,0.189,0.026,0.15,0.19c-0.233,0.966-0.47,1.931-0.697,2.898c-0.035,0.149-0.099,0.196-0.252,0.195     c-1.936-0.006-3.872-0.003-5.809-0.007c-0.101,0-0.145,0.028-0.169,0.129c-0.255,1.093-0.512,2.185-0.774,3.276     c-0.035,0.145,0.048,0.125,0.132,0.125c0.911,0,1.823,0,2.734,0c0.216,0,0.224,0.014,0.178,0.218     c-0.174,0.763-0.347,1.526-0.518,2.289c-0.051,0.23-0.058,0.24-0.29,0.24c-0.947,0-1.895,0.001-2.842-0.002     c-0.103,0-0.154,0.022-0.181,0.133c-0.255,1.04-0.514,2.079-0.778,3.117c-0.033,0.131-0.014,0.168,0.128,0.168     c2.034-0.004,4.068-0.003,6.102-0.003c0.198,0,0.216,0.025,0.169,0.216c-0.234,0.95-0.47,1.899-0.697,2.85     c-0.032,0.135-0.086,0.183-0.228,0.183C17.884,24.161,16.035,24.163,14.186,24.163z M14.214,24.026     c1.797,0,3.594-0.001,5.391,0.002c0.12,0,0.2-0.014,0.234-0.156c0.205-0.866,0.418-1.729,0.631-2.593     c0.053-0.216,0.056-0.216-0.162-0.216c-2.018,0-4.037,0-6.055,0c-0.193,0-0.212-0.019-0.167-0.203     c0.272-1.098,0.552-2.193,0.817-3.293c0.042-0.175,0.115-0.217,0.283-0.216c0.942,0.008,1.885,0.004,2.827,0.004     c0.089,0,0.164,0.007,0.192-0.12c0.159-0.733,0.326-1.465,0.498-2.196c0.029-0.122-0.002-0.134-0.115-0.133     c-0.922,0.005-1.843,0.004-2.765,0.003c-0.165,0-0.203-0.045-0.168-0.19c0.271-1.146,0.546-2.291,0.811-3.438     c0.036-0.157,0.104-0.203,0.261-0.203c1.9,0.005,3.8,0.003,5.7,0.003c0.041,0,0.082-0.002,0.124,0     c0.079,0.004,0.121-0.028,0.138-0.11c0.029-0.141,0.069-0.279,0.103-0.419c0.185-0.77,0.37-1.539,0.554-2.31     c0.034-0.143,0.014-0.162-0.134-0.144c-0.066,0.008-0.133,0.012-0.2,0.012c-3.373,0.001-6.745,0.001-10.118,0     c-0.057,0-0.116,0.007-0.169-0.008c-0.135-0.037-0.183,0.024-0.213,0.146c-0.157,0.644-0.321,1.286-0.48,1.93     c-0.371,1.502-0.744,3.004-1.108,4.508c-0.039,0.159-0.111,0.201-0.266,0.2c-0.896-0.006-1.792-0.001-2.688-0.006     c-0.117-0.001-0.179,0.031-0.206,0.151c-0.16,0.707-0.326,1.412-0.489,2.119c-0.046,0.199-0.045,0.199,0.168,0.199     c0.87,0,1.74-0.001,2.611,0c0.167,0,0.192,0.029,0.156,0.175c-0.247,1.009-0.495,2.018-0.743,3.026     c-0.269,1.093-0.54,2.186-0.81,3.28c-0.048,0.196-0.046,0.196,0.152,0.196C10.61,24.026,12.412,24.026,14.214,24.026z"/>
		</g>
	</g>
</g>
</svg>