<svg id="Layer_1" data-name="Layer 1" xmlns="http://www.w3.org/2000/svg" viewBox="0 0 30.416 31.47"><defs><style>.cls-1{fill:#ecf3ff;}.cls-2{fill:#fff;}.cls-3{fill:#94a6c4;}.cls-4{fill:#1c324f;}.cls-5{fill:#ffd925;}.cls-6{fill:#d82423;}</style></defs><path class="cls-1" d="M16,31.728A15.083,15.083,0,1,0,.792,16.646,15.147,15.147,0,0,0,16,31.728Z" transform="translate(-0.792 -0.258)"/><path class="cls-2" d="M11.892,7.448,6.569,5.337v.756l4.561,4.07-.3,4.221L9.461,20.117,7.634,22.681,8.087,26.3l2.281.3,1.827-.3,1.827.3,3.194-1.96.611-3.168,3.8-3.617,1.669,1.2,1.67,2.413V26.3l2.281-.6,2.28-4.977.611-6.332L21.928,2.471l-1.367-.3Z" transform="translate(-0.792 -0.258)"/><path class="cls-3" d="M3.835,16.167a7.956,7.956,0,0,1,.245-1.506,13.275,13.275,0,0,1,2.464-5.43,9.077,9.077,0,0,1,.636-.756L5.813,7.208c-.246.359-.485.725-.7,1.084A14.4,14.4,0,0,0,3.23,14.535a13.675,13.675,0,0,0-.032,1.6,9.747,9.747,0,0,0,.152,1.6,14.473,14.473,0,0,0,.793,3.049,15.209,15.209,0,0,1-.4-3.106A7.609,7.609,0,0,1,3.835,16.167Z" transform="translate(-0.792 -0.258)"/><path class="cls-3" d="M10.072,6.4c-.763-.359-1.827-.845-2.583-1.2a11.491,11.491,0,0,1,3.043-1.808C9.763,3.983,9.763,5.249,10.072,6.4Z" transform="translate(-0.792 -0.258)"/><path class="cls-3" d="M7,11.518A11.388,11.388,0,0,0,6.2,14.775a3.509,3.509,0,0,0-.032.812A6.907,6.907,0,0,0,6.2,16.4l.031.428a1.714,1.714,0,0,0,.063.391l.12.813.031-.813a1.614,1.614,0,0,1,.032-.391l.063-.39c.031-.271.088-.542.119-.781a5.569,5.569,0,0,1,.183-.756,10.3,10.3,0,0,1,1.279-2.835A10.8,10.8,0,0,1,9.372,10.5L8.188,9.382A9.1,9.1,0,0,0,7,11.518Z" transform="translate(-0.792 -0.258)"/><path class="cls-3" d="M24.606,6.364a4.264,4.264,0,0,0-2.249-.39s-1,2.683-4.839,2.866C17.55,8.865,20.99,10.856,24.606,6.364Z" transform="translate(-0.792 -0.258)"/><path class="cls-3" d="M25.7,11.7a4.226,4.226,0,0,1-4.744,4.316,7.815,7.815,0,0,0-2.709.359l-2.035,3.5-.668.24L16.7,18s-2.734,1-2.948,1.084a11.268,11.268,0,0,0-1.764,2.621,3.743,3.743,0,0,0-.731-1.569c0,.151.3,2.866-.031,3.616-.334.781-1.827,1.3-1.827,1.3l2.192.813.151.063,1.645-1.538L14,22.1l.762-.542s1.884-.214,1.613,1.481c-.12.813-1.033.756-2.067,1.386a10.535,10.535,0,0,0-1.795,1.329l1.1.781a7.9,7.9,0,0,0,3.163-1.656,2.448,2.448,0,0,0,.945-3.138l3.074-3.648,2.01.152a7.01,7.01,0,0,1,4.592,4.132A10.544,10.544,0,0,0,25.7,11.7Z" transform="translate(-0.792 -0.258)"/><path class="cls-4" d="M29.23,9.111a5.806,5.806,0,0,1,1.367.932,10.9,10.9,0,0,0-11.8-8.3A4.229,4.229,0,0,1,20.53.631a8.607,8.607,0,0,0-7.207,1.027A3.713,3.713,0,0,1,14.053.3C9.309,2.32,9.007,4.732,9.921,6.181,9.158,5.822,8.4,5.488,7.64,5.123,5.3,4.008,3.293,3.069,3.167,3.044c-.214-.063-.3.032-.3.032s-.1.088.088.27c2.765,2.747,4.529,4.4,7.478,7.088-.485,1.084-.548,1.632-.3,2.2a2.314,2.314,0,0,1,.183,1.688c-.151.51-1.367,5.065-1.581,5.582-.214.542-1.827,2.35-1.852,2.955s.453,3.257,1.127,3.647a9.747,9.747,0,0,0,2.678.964,1.008,1.008,0,0,0,.762-.088c.611-.391.762-.454,1.153-.422l.088.031a5.705,5.705,0,0,0,.58.12,2.549,2.549,0,0,0,1.732-.3c.794-.605,2.13-1.355,2.583-1.752a3.02,3.02,0,0,0,.914-2.142,3,3,0,0,1,1.1-1.959c.548-.542,1.915-1.871,2.463-2.444,1.4.485,1.915,2.475,1.915,3.559a8.157,8.157,0,0,1-8.12,7.749c-.214,0-.429.032-.668.032C7.823,29.851,1.8,23.4,1.8,15.827A16.216,16.216,0,0,1,5.447,5.778,14.777,14.777,0,0,0,.792,16.646a15.209,15.209,0,0,0,30.416,0A15.036,15.036,0,0,0,29.23,9.111ZM8.459,7.177c-.428-.359-.851-.725-1.279-1.084.58.3,1.153.605,1.67.876,1.581.813,2.891,1.537,3.131,1.72l.063.063a.665.665,0,0,1,.031.876c-.151.214-.334.151-.611-.032C11.225,9.439,9.921,8.412,8.459,7.177ZM17.31,22.858a1.965,1.965,0,0,1-.548,1.3,12.158,12.158,0,0,1-1.184.813c-.429.3-.882.573-1.248.844a1.179,1.179,0,0,1-.793.088l-.945-.119a17.094,17.094,0,0,1,2.677-2.054c.611-.3.97-.636.7-1.329-.245-.725-1.184-.693-1.184-.693a3.182,3.182,0,0,1,1.033-.089,2.1,2.1,0,0,0-1.764.089c-.428.3-.548,1.537-.819,2.293-.271.781-.882,1.115-1.795,1.751a1.735,1.735,0,0,1-1.1.391,9.927,9.927,0,0,1-1.55-.636,8.971,8.971,0,0,1-.58-2.445,11.418,11.418,0,0,1,.851-1.266,5.978,5.978,0,0,0,.882-1.418c.214-.51,1.1-3.742,1.43-5.1.334.573.794,1.537.579,2.079a2.661,2.661,0,0,0,.366-3.05,3.372,3.372,0,0,1,.031-2.62c.454-1.027,2.035-3.8,2.035-3.8s.271.724.851.661c.548-.063,5.808-5.909,5.808-5.909s.819,2.715-.7,4.372a5.34,5.34,0,0,1-2.8,1.84,4.955,4.955,0,0,0,3.465-.359c.453,1.631.85,3.32.85,3.528-.119.214-1.827,3.049-1.978,3.225a2.482,2.482,0,0,1-.85.12A4,4,0,0,0,18,15.581a37.253,37.253,0,0,0-2.312,4.038,2.588,2.588,0,0,0-1.7.876,5,5,0,0,1,1.462-.12,2.813,2.813,0,0,1,1.852,2.35C17.31,22.832,17.31,22.832,17.31,22.858Zm-3.559,1.266a2.87,2.87,0,0,0,.454-1.266c.063-.215.182-.605.453-.637s.851.151.794.605c-.063.422-.517.454-.882.662C14.331,23.645,13.808,24.067,13.751,24.124Zm13.23.4a7.772,7.772,0,0,0-4.227-6.275c1.367-.151,4.895-1.2,2.948-6.546.063.24.611,2.9-.945,4.284-1.581,1.418-3.893.813-4.164.813-.246-.032-1.4,1.084-2.98,3.226a3.4,3.4,0,0,0-1.582-.3c.794-1.48,1.979-3.591,2.161-3.767a3.59,3.59,0,0,1,.882-.151c.611-.063.914-.12,1.034-.24.063-.088.485-.756.913-1.48a8.657,8.657,0,0,0,1.1.063,14.568,14.568,0,0,0,.914-1.689c.031-.119-.548-2.381-.914-3.83C29.627,12.154,30.811,19.934,26.981,24.521Z" transform="translate(-0.792 -0.258)"/><path class="cls-4" d="M19.742,6.572a2.679,2.679,0,0,0,.731-2.054l-2.551,2.8A2.355,2.355,0,0,0,19.742,6.572Z" transform="translate(-0.792 -0.258)"/><path class="cls-4" d="M10.191,22.53l.429-1.2s-1.311,1.657-1.43,1.9c-.12.271-.063.781.365.813a1.256,1.256,0,0,0,1.065-.932A.446.446,0,0,0,10.191,22.53Z" transform="translate(-0.792 -0.258)"/><path class="cls-4" d="M14.205,15.228a8.005,8.005,0,0,0,3.257-1.386,1.386,1.386,0,0,0-.517-2.324c.365-.605.97-1.872.97-1.872S13.99,14.2,13.688,14.258s-.429-1.084-.429-1.084C12.352,15.379,13.9,15.921,14.205,15.228Z" transform="translate(-0.792 -0.258)"/><path class="cls-5" d="M14.538,14.655l2.035-2.564s.882.605.3,1.3A5.937,5.937,0,0,1,14.538,14.655Z" transform="translate(-0.792 -0.258)"/><path class="cls-6" d="M19.956,3.227l-1.4,1.505A7.87,7.87,0,0,0,15.3,6.66C15.3,6.093,16.977,3.586,19.956,3.227Z" transform="translate(-0.792 -0.258)"/><path class="cls-6" d="M21.72,4.525a5.762,5.762,0,0,0-.063-1.267c1.827.24,3.982,1.3,6.445,3.679A18.533,18.533,0,0,0,21.72,4.525Z" transform="translate(-0.792 -0.258)"/><path class="cls-6" d="M22.269,6.484A14.967,14.967,0,0,1,30.3,17.736C30.477,6.937,22.754,6.4,22.269,6.484Z" transform="translate(-0.792 -0.258)"/><path class="cls-6" d="M12.384,1.721c-.088.239-3.925,4.316.85,5.909C10.62,5.306,12.352,1.746,12.384,1.721Z" transform="translate(-0.792 -0.258)"/><path class="cls-6" d="M14.419,6.994s.4-4.611,3.194-5.853C17.4,1.2,11.716,2.924,14.419,6.994Z" transform="translate(-0.792 -0.258)"/></svg>