<svg id="Layer_1" data-name="Layer 1" xmlns="http://www.w3.org/2000/svg" xmlns:xlink="http://www.w3.org/1999/xlink" viewBox="0 0 31.595 31.595"><defs><style>.cls-1{fill:url(#linear-gradient);}.cls-2{fill:#fff;}</style><linearGradient id="linear-gradient" x1="-1539.242" y1="956.797" x2="-1539.29" y2="956.756" gradientTransform="matrix(485, 0, 0, -485, 746559.923, 464052.423)" gradientUnits="userSpaceOnUse"><stop offset="0" stop-color="#b6509e"/><stop offset="1" stop-color="#2ebac6"/></linearGradient></defs><circle class="cls-1" cx="15.798" cy="15.798" r="15.798"/><path class="cls-2" d="M22.911,22.294,17.567,9.382a1.434,1.434,0,0,0-1.338-.994h-.471a1.43,1.43,0,0,0-1.338.994L12.1,15.006H10.337a.963.963,0,0,0-.955.956v.013a.966.966,0,0,0,.955.955h.943L9.063,22.294A1.223,1.223,0,0,0,9,22.663a1.038,1.038,0,0,0,.262.72.9.9,0,0,0,.707.274.947.947,0,0,0,.547-.185,1.209,1.209,0,0,0,.383-.484l2.446-6.058h1.694a.963.963,0,0,0,.956-.955v-.026a.968.968,0,0,0-.956-.955h-.9L16,10.35l5.083,12.638a1.167,1.167,0,0,0,.382.484.968.968,0,0,0,.548.185.915.915,0,0,0,.707-.274,1.011,1.011,0,0,0,.262-.72A.906.906,0,0,0,22.911,22.294Z" transform="translate(-0.202 -0.202)"/></svg>