<?xml version="1.0" encoding="utf-8"?>
<!-- Generator: Adobe Illustrator 22.0.1, SVG Export Plug-In . SVG Version: 6.00 Build 0)  -->
<svg version="1.1" id="Layer_1" xmlns="http://www.w3.org/2000/svg" xmlns:xlink="http://www.w3.org/1999/xlink" x="0px" y="0px"
	 viewBox="0 0 32 32" style="enable-background:new 0 0 32 32;" xml:space="preserve">
<style type="text/css">
	.st0{fill:#FF6600;}
	.st1{fill:#FFFFFF;}
</style>
<g>
	<circle class="st0" cx="16" cy="16" r="15.841"/>
	<g>
		<path class="st1" d="M8.603,21.863v-0.547c0.921-0.155,1.035-0.351,0.836-1.093c-0.185-0.761-0.468-1.736-0.766-2.966H5.611
			c-0.227,0.878-0.439,1.639-0.638,2.439c-0.312,1.269-0.113,1.425,1.049,1.619v0.547H2.748v-0.547
			c0.893-0.155,1.12-0.292,1.616-2.049L7.298,9.022l0.454-0.117c0.893,3.337,1.871,7.026,2.764,10.402
			c0.454,1.698,0.581,1.854,1.588,2.01v0.547H8.603z M7.185,11.461c-0.454,1.678-0.936,3.454-1.361,4.996h2.651L7.185,11.461z"/>
		<path class="st1" d="M17.52,14.994c1.36,0.312,2.466,1.21,2.466,3.103c0,1.327-0.538,2.381-1.375,3.006
			c-0.737,0.565-1.46,0.761-2.452,0.761h-3.487v-0.547c1.205-0.155,1.276-0.331,1.276-1.873v-7.826c0-1.62-0.127-1.756-1.276-1.893
			V9.178h3.714c1.063,0,1.729,0.254,2.183,0.683c0.496,0.468,0.836,1.19,0.836,2.186C19.404,13.881,18.313,14.72,17.52,14.994z
			 M15.889,14.759c1.56,0,2.197-0.858,2.197-2.459c0-1.366-0.609-2.42-1.97-2.42c-0.397,0-0.652,0.059-0.794,0.195
			c-0.113,0.117-0.156,0.332-0.156,0.956v3.728H15.889z M15.166,19.404c0,1.405,0.241,1.757,1.248,1.757
			c1.106,0,2.183-0.82,2.183-2.869c0-1.991-1.021-2.85-2.75-2.85h-0.68V19.404z"/>
		<path class="st1" d="M29.214,9.724c-0.992,0.156-1.162,0.371-1.729,1.62c-0.638,1.425-1.162,2.771-1.856,4.508
			c-0.171,0.449-0.213,0.683-0.213,1.151v2.4c0,1.62,0.128,1.737,1.446,1.912v0.547h-4.068v-0.547
			c1.289-0.233,1.389-0.272,1.389-1.912v-2.518c0-0.39-0.057-0.566-0.283-1.132c-0.496-1.269-0.979-2.498-1.744-4.333
			c-0.553-1.327-0.694-1.562-1.658-1.698V9.178h3.487v0.546c-1.021,0.195-0.964,0.449-0.709,1.113
			c0.596,1.502,1.262,3.259,1.857,4.723c0.51-1.308,1.318-3.435,1.715-4.508c0.326-0.976,0.283-1.171-0.836-1.327V9.178h3.203V9.724
			z"/>
	</g>
</g>
</svg>
