<?xml version="1.0" encoding="utf-8"?>
<!-- Generator: Adobe Illustrator 22.0.1, SVG Export Plug-In . SVG Version: 6.00 Build 0)  -->
<svg version="1.1" id="Layer_1" xmlns="http://www.w3.org/2000/svg" xmlns:xlink="http://www.w3.org/1999/xlink" x="0px" y="0px"
	 viewBox="0 0 32 32" style="enable-background:new 0 0 32 32;" xml:space="preserve">
<style type="text/css">
	.st0{fill:#024574;}
</style>
<path class="st0" d="M15.995,0c-8.837,0-16,7.163-16,16s7.163,16,16,16s16-7.163,16-16S24.832,0,15.995,0z M26.093,7.497
	c0.536-0.444,0.529-0.455,0.951,0.107c1.178,1.567,1.984,3.308,2.453,5.211c0.065,0.263,0.014,0.36-0.25,0.378
	c-0.16,0.011-0.318,0.06-0.534,0.103c-0.136,0.037-0.112-0.121-0.136-0.221c-0.301-1.282-0.78-2.492-1.446-3.629
	c-0.317-0.541-0.662-1.063-1.066-1.543C25.928,7.74,25.908,7.65,26.093,7.497z M19.915,3.36c0.063-0.148,0.111-0.304,0.152-0.46
	c0.025-0.094,0.062-0.146,0.231-0.117c0.338,0.132,0.741,0.278,1.135,0.445c1.577,0.67,2.977,1.606,4.216,2.789
	C25.84,6.2,25.836,6.296,25.646,6.47c-0.453,0.413-0.447,0.426-0.885,0.023c-1.36-1.253-2.915-2.176-4.669-2.759
	C19.862,3.657,19.83,3.56,19.915,3.36z M12.466,2.537l-0.016-0.001c0,0,0.031-0.009,0.076-0.022
	c0.022-0.006,0.041-0.016,0.065-0.018c0.62-0.169,3.212-0.786,5.878-0.154c0.034,0.007,0.069,0.011,0.103,0.019
	c0.132,0.028,0.22,0.052,0.287,0.079c0.01,0.003,0.019,0.004,0.029,0.007l-0.005,0.009c0.135,0.07,0.129,0.176,0.047,0.472
	c-0.124,0.446-0.12,0.424-0.589,0.341c-1.341-0.238-2.69-0.282-4.043-0.093c-0.515,0.072-1.03,0.142-1.527,0.305
	c-0.124,0.041-0.225,0.027-0.26-0.131c-0.048-0.214-0.166-0.43-0.148-0.637C12.369,2.614,12.412,2.568,12.466,2.537z M5.792,6.564
	c1.473-1.58,3.216-2.76,5.23-3.542c0.143-0.056,0.213-0.054,0.284,0.111C11.593,3.8,11.6,3.798,10.933,4.084
	C9.247,4.809,7.771,5.833,6.518,7.177c-0.052,0.056-0.08,0.145-0.205,0.142C6.115,7.132,5.898,6.94,5.701,6.73
	C5.651,6.677,5.747,6.612,5.792,6.564z M2.413,13.093c0.407-1.908,1.191-3.648,2.318-5.239c0.146-0.206,0.243-0.272,0.471-0.085
	C5.672,8.156,5.684,8.141,5.344,8.64c-1.032,1.515-1.733,3.167-2.069,4.972c-0.053,0.286-0.055,0.286-0.243,0.277
	C2.28,13.854,2.258,13.821,2.413,13.093z M2.992,20.855c-0.052-0.139-0.082-0.284-0.129-0.424l0.013,0.102
	c0,0-0.186-0.494-0.374-1.288c-0.014-0.059-0.026-0.118-0.04-0.177c-0.091-0.405-0.179-0.876-0.244-1.395
	c-0.01-0.076-0.031-0.148-0.039-0.224c-0.003-0.027-0.005-0.102-0.006-0.19c-0.066-0.686-0.087-1.435-0.018-2.206
	c-0.013-0.092-0.001-0.168,0.117-0.16c0.22,0.016,0.44,0.035,0.66,0.053c0.241,0.019,0.145,0.203,0.139,0.317
	c-0.07,1.367,0.062,2.713,0.418,4.035c0.147,0.548,0.315,1.091,0.55,1.608c0.091,0.2,0.041,0.266-0.15,0.348
	C3.238,21.531,3.246,21.538,2.992,20.855z M8.708,26.853c-0.37,0.67-0.43,0.689-1.037,0.238c-1.269-0.943-2.339-2.075-3.217-3.39
	c-0.031-0.047-0.235-0.41-0.342-0.524c-0.032-0.061-0.065-0.121-0.097-0.182c-0.252-0.47-0.247-0.46,0.234-0.74
	c0.237-0.138,0.362-0.126,0.51,0.135c0.968,1.71,2.279,3.113,3.888,4.237C8.76,26.706,8.777,26.727,8.708,26.853z M15.69,29.926
	c-0.06,0.04-0.658-0.022-1.05-0.07c-1.022-0.178-2.037-0.365-3.019-0.699c-0.747-0.254-1.469-0.566-2.169-0.928
	c-0.164-0.085-0.213-0.152-0.11-0.339c0.332-0.608,0.321-0.61,0.952-0.303c1.623,0.789,3.331,1.252,5.14,1.3
	c0.233,0.006,0.341,0.054,0.308,0.31C15.708,29.461,15.786,29.905,15.69,29.926z M16.017,12.957c-0.132-0.014-0.11,0.124-0.144,0.2
	c-0.83,1.847-1.658,3.695-2.486,5.543c-0.4,0.893-0.807,1.784-1.197,2.681c-0.139,0.32-0.363,0.458-0.703,0.453
	c-0.488-0.007-0.975-0.001-1.463-0.005c-0.484-0.005-0.612-0.198-0.415-0.623c0.708-1.527,1.42-3.053,2.126-4.581
	c1.154-2.499,2.305-5,3.457-7.5c0.128-0.278,0.26-0.556,0.378-0.838c0.097-0.232,0.253-0.327,0.51-0.326
	c0.257,0.001,0.377,0.139,0.468,0.341c0.505,1.125,1.001,2.253,1.515,3.374c0.725,1.582,1.464,3.157,2.194,4.736
	c0.726,1.571,1.448,3.144,2.17,4.717c0.219,0.478,0.076,0.7-0.446,0.701c-0.232,0-0.464,0-0.697,0c-0.023,0-0.046,0-0.07,0
	c-1.344,0.002-1.08,0.108-1.637-1.091c-0.841-1.808-1.636-3.637-2.452-5.456c-0.316-0.705-0.635-1.408-0.954-2.111
	C16.134,13.089,16.123,12.969,16.017,12.957z M22.68,28.137c-1.463,0.8-3.022,1.298-4.657,1.559
	c0.029,0.004,0.049,0.006,0.049,0.006c-0.464,0.081-1.093,0.281-1.168,0.179c-0.043-0.044-0.067-0.312-0.07-0.325h0.001
	c-0.113-0.64-0.038-0.649,0.739-0.746c1.76-0.22,3.411-0.773,4.937-1.679c0.209-0.124,0.297-0.105,0.42,0.102
	C23.278,27.815,23.286,27.806,22.68,28.137z M28.228,22.502c-0.937,1.755-2.19,3.243-3.762,4.462
	c-0.073,0.057-0.148,0.112-0.21,0.159c-0.087,0.017-0.11-0.04-0.15-0.081c-0.517-0.544-0.512-0.588,0.06-1.056
	c1.403-1.146,2.516-2.528,3.331-4.146c0.11-0.218,0.19-0.308,0.451-0.173C28.517,21.963,28.525,21.945,28.228,22.502z
	 M28.693,20.816c-0.584-0.214-0.606-0.204-0.396-0.867c0.538-1.701,0.698-3.44,0.564-5.213c-0.01-0.132-0.113-0.345,0.097-0.388
	c0.243-0.051,0.491-0.161,0.748-0.079c0.072,0.023,0.062,0.116,0.068,0.185c0.024,0.3,0.048,0.599,0.072,0.899
	c0.001,0.42,0.001,0.839,0.002,1.259c-0.072,1.381-0.329,2.725-0.797,4.03C28.975,20.852,28.916,20.898,28.693,20.816z"/>
</svg>
