<svg id="Layer_1" data-name="Layer 1" xmlns="http://www.w3.org/2000/svg" viewBox="0 0 219.544 220.511"><defs><style>.cls-1{fill:#bebdbf;}.cls-2{fill:#ccaf3c;}.cls-3{fill:#f5d24c;}</style></defs><title>ACTIV</title><ellipse class="cls-1" cx="109.772" cy="110.256" rx="109.772" ry="110.256"/><ellipse class="cls-2" cx="111.251" cy="112.432" rx="87.239" ry="88.367" transform="translate(-7.738 215.903) rotate(-87.321)"/><path class="cls-3" d="M111.12,20.956a91.988,91.988,0,1,0,91.988,91.988A91.987,91.987,0,0,0,111.12,20.956Zm-.078,172.26A80.557,80.557,0,1,1,191.6,112.659,80.558,80.558,0,0,1,111.042,193.216Z" transform="translate(-1.479 -2.403)"/><polygon class="cls-3" points="69.813 124.837 96.685 88.445 73.333 98.645 69.813 124.837"/><polygon class="cls-3" points="96.688 86.366 76.097 96.206 89.965 81.812 96.688 86.366"/><polygon class="cls-3" points="73.029 96.132 49.931 71.773 87.836 80.993 73.029 96.132"/><polygon class="cls-3" points="68.886 122.928 71.293 99.106 49.581 74.566 68.886 122.928"/><path class="cls-3" d="M138.2,103.117a25.193,25.193,0,0,0-11.824-9.455,21.264,21.264,0,0,0,12.875-20.033,23.792,23.792,0,0,0-7.361-17.918q-7.362-7.074-20.683-7.075-13.449,0-20.747,7.075a23.9,23.9,0,0,0-7.3,17.918,23.387,23.387,0,0,0,.57,5.193l.426.746L91.1,81.389l11.3,7.84L80.809,118.138c0,.04,0,.08,0,.12q0,14.282,10.007,22.48,8.477,6.942,21.224,6.942,13.7,0,21.958-8.4t8.254-21.819A25.711,25.711,0,0,0,138.2,103.117ZM103.179,66.554a10.888,10.888,0,0,1,8.222-3.173,10.605,10.605,0,0,1,8,3.14,11.545,11.545,0,0,1,3.028,8.364q0,5.553-3.06,8.694a10.867,10.867,0,0,1-8.158,3.141,10.738,10.738,0,0,1-8.063-3.108q-3.027-3.106-3.027-8.661A11.589,11.589,0,0,1,103.179,66.554ZM120.9,128.6a11.7,11.7,0,0,1-9.178,4.133,12.1,12.1,0,0,1-9.465-4.3q-3.793-4.3-3.793-11.967a17.648,17.648,0,0,1,3.219-10.182q3.217-4.695,9.784-4.695a12.025,12.025,0,0,1,9.369,4.133q3.7,4.132,3.7,10.942Q124.531,124.474,120.9,128.6Z" transform="translate(-1.479 -2.403)"/><path class="cls-3" d="M67.024,162.091q-1.267-.948-2.5-1.954.309-1.344.652-2.671-2.141-1.812-4.152-3.812-1.295.454-2.612.869-1.1-1.129-2.151-2.313A80.152,80.152,0,0,0,67.8,148.554q.967.923,1.969,1.8A97.871,97.871,0,0,0,67.024,162.091Zm-1.32-6.585q.626-2.126,1.335-4.205-2.015.883-4.1,1.669Q64.292,154.281,65.7,155.506Z" transform="translate(-1.479 -2.403)"/><path class="cls-3" d="M78,164.37q1,.921,2.037,1.808a4.627,4.627,0,0,1-3.094,1.386,6.857,6.857,0,0,1-3.733-1.108,6.448,6.448,0,0,1-3.1-3.742,4.727,4.727,0,0,1,.943-4.284,5.742,5.742,0,0,1,3.831-2.451,6.515,6.515,0,0,1,4.351,1,5.934,5.934,0,0,1,2.619,2.792,4.33,4.33,0,0,1,.222,2.349q-1.26-.332-2.516-.716a2.3,2.3,0,0,0-.167-1.612,3.059,3.059,0,0,0-1.241-1.279,3.29,3.29,0,0,0-2.4-.469,3.938,3.938,0,0,0-2.322,1.836,3.756,3.756,0,0,0-.871,2.936,3.287,3.287,0,0,0,1.62,2.035,3.206,3.206,0,0,0,1.954.489A3.048,3.048,0,0,0,78,164.37Z" transform="translate(-1.479 -2.403)"/><path class="cls-3" d="M83.685,171.431q1.761-4.151,3.492-8.306-1.716-.687-3.4-1.471.4-.826.8-1.651a64.14,64.14,0,0,0,8.992,3.4q-.268.875-.539,1.75-1.764-.521-3.5-1.139-1.569,4.218-3.166,8.43Q85.016,171.964,83.685,171.431Z" transform="translate(-1.479 -2.403)"/><path class="cls-3" d="M92.045,174.223q1.5-5.2,2.968-10.412,1.177.318,2.364.591-1.264,5.259-2.559,10.515Q93.426,174.6,92.045,174.223Z" transform="translate(-1.479 -2.403)"/><path class="cls-3" d="M101.04,176.081a94.951,94.951,0,0,1-2.6-11.445q1.291.274,2.592.5.8,4.2,1.984,8.377,2.174-3.763,3.969-7.64,1.285.1,2.576.15a91.767,91.767,0,0,1-5.493,10.438Q102.55,176.3,101.04,176.081Z" transform="translate(-1.479 -2.403)"/><path class="cls-3" d="M116.06,176.773q-.3-5.4-.588-10.792a65.6,65.6,0,0,0,8.863-1.063l.357,1.795q-3.288.624-6.625.919.111,1.192.223,2.386,3.215-.285,6.4-.866.173.9.346,1.79-3.264.6-6.573.889l.276,2.928a74.8,74.8,0,0,0,7.626-1.072l.369,1.786A77.212,77.212,0,0,1,116.06,176.773Z" transform="translate(-1.479 -2.403)"/><path class="cls-3" d="M129.018,174.993q-1.267-5.261-2.507-10.526,1.188-.268,2.366-.58,1.441,5.216,2.916,10.426Q130.412,174.679,129.018,174.993Z" transform="translate(-1.479 -2.403)"/><path class="cls-3" d="M139.072,167.7q-.356-.841-.71-1.682,2.639-1.064,5.192-2.346,1,1.915,2.014,3.827a7.349,7.349,0,0,1-1.8,2.168,10.339,10.339,0,0,1-2.966,1.834,8.661,8.661,0,0,1-3.889.7,4.98,4.98,0,0,1-2.98-1.171,5.4,5.4,0,0,1-1.631-2.52,5.629,5.629,0,0,1-.11-3.108,5.544,5.544,0,0,1,1.592-2.649,7.678,7.678,0,0,1,2.52-1.522,7.109,7.109,0,0,1,3.6-.638,4.1,4.1,0,0,1,2.565,1.36q-1.05.752-2.131,1.465a2.464,2.464,0,0,0-1.448-.739,3.562,3.562,0,0,0-1.862.278,3.875,3.875,0,0,0-2.129,1.778,3.514,3.514,0,0,0-.023,2.864,3.657,3.657,0,0,0,2,2.369,4,4,0,0,0,3.029-.116,5.506,5.506,0,0,0,1.517-.924,5.874,5.874,0,0,0,1.1-1.2q-.3-.621-.593-1.243Q140.512,167.123,139.072,167.7Z" transform="translate(-1.479 -2.403)"/><path class="cls-3" d="M148.625,167.584q-2.718-4.707-5.38-9.429,1.078-.593,2.138-1.227,1.117,1.818,2.245,3.632,2.211-1.327,4.326-2.833-1.26-1.724-2.512-3.453,1.012-.719,2-1.481,3.345,4.266,6.754,8.5-1.15.894-2.332,1.736-1.417-1.909-2.824-3.824-2.169,1.545-4.441,2.909,1.257,2.016,2.525,4.026Q149.887,166.89,148.625,167.584Z" transform="translate(-1.479 -2.403)"/><path class="cls-3" d="M162.994,157.231q-3.114-3.273-6.184-6.568-1.4,1.29-2.868,2.487l-1.171-1.413a63.056,63.056,0,0,0,7.189-6.883q.682.609,1.368,1.215-1.285,1.445-2.64,2.794,3.192,3.173,6.431,6.32Q164.074,156.232,162.994,157.231Z" transform="translate(-1.479 -2.403)"/></svg>