<svg id="Layer_1" data-name="Layer 1" xmlns="http://www.w3.org/2000/svg" viewBox="0 0 31.334 31.334"><defs><style>.cls-1{fill:#e4f3f8;}.cls-2{fill:#f2f9fb;}.cls-3{fill:#4f606a;}.cls-4{fill:#75868f;}.cls-5{fill:#0090c2;}.cls-6{fill:#53b8db;}.cls-7{fill:#59bbdd;}</style></defs><title>adult</title><path class="cls-1" d="M17.1,31.667H14.9c-.216-.215-.489-.087-.735-.121a13.615,13.615,0,0,1-4.288-1.118,15.575,15.575,0,0,1-7.359-6.452A14.694,14.694,0,0,1,.454,17.837c-.034-.246.094-.519-.121-.735V14.9c.215-.216.087-.489.121-.735A13.615,13.615,0,0,1,1.572,9.875,15.575,15.575,0,0,1,8.024,2.516,14.694,14.694,0,0,1,14.163.454c.246-.034.519.094.735-.121h2.2c.216.215.489.087.735.121A14.6,14.6,0,0,1,24.9,3.1,15.616,15.616,0,0,1,31.4,13.056a7.773,7.773,0,0,0,.264,1.475v3.06c-.129.1-.106.251-.124.391a15.221,15.221,0,0,1-2.766,7.078,15.531,15.531,0,0,1-6.49,5.294,14.514,14.514,0,0,1-4.45,1.192C17.591,31.58,17.318,31.452,17.1,31.667Zm-.867-27.29a.552.552,0,0,0-.246-.358c-.245.079-.294.323-.405.506Q12.91,8.91,10.248,13.3q-.577.948-1.151,1.9c1.16-.487,2.236-1.053,3.324-1.6a1.548,1.548,0,0,0,.684-.66q1.207-2.127,2.447-4.235c.106-.181.142-.445.427-.471a1.045,1.045,0,0,1,.428.5Q17.6,10.8,18.785,12.859a1.475,1.475,0,0,0,.592.672c1.147.58,2.285,1.178,3.557,1.836-.584-.967-1.092-1.817-1.608-2.662Q18.784,8.54,16.235,4.377ZM16,22.125,8.995,17.986c1.463,2.246,2.982,4.419,4.5,6.591.747,1.068,1.489,2.139,2.245,3.2.072.1.15.492.379.095.449-.617.91-1.227,1.346-1.853q2.571-3.69,5.122-7.392c.081-.118.417-.178.184-.413-.161-.161-.3.046-.423.119Q19.172,20.222,16,22.125Zm-.009-1.246a21.782,21.782,0,0,0,2.22-1.274c1.631-.958,3.251-1.934,4.877-2.9-.047-.074-.06-.123-.091-.139-2.325-1.221-4.637-2.468-7.008-3.6a2.114,2.114,0,0,0-.338.108q-3.306,1.7-6.61,3.415c-.085.044-.185.075-.184.221q3.444,2.055,6.907,4.116A.821.821,0,0,0,15.993,20.879Z" transform="translate(-0.333 -0.333)"/><path class="cls-2" d="M14.163.454c0-.04,0-.081,0-.121H14.9C14.682.548,14.409.42,14.163.454Z" transform="translate(-0.333 -0.333)"/><path class="cls-2" d="M17.836.333c0,.04,0,.081,0,.121C17.591.42,17.318.548,17.1.333Z" transform="translate(-0.333 -0.333)"/><path class="cls-2" d="M.333,14.164H.454c-.034.246.094.519-.121.735Z" transform="translate(-0.333 -0.333)"/><path class="cls-2" d="M.454,17.837H.333V17.1C.548,17.318.42,17.591.454,17.837Z" transform="translate(-0.333 -0.333)"/><path class="cls-2" d="M14.164,31.667c0-.04,0-.081,0-.121.246.034.519-.094.735.121Z" transform="translate(-0.333 -0.333)"/><path class="cls-2" d="M17.837,31.546c0,.04,0,.081,0,.121H17.1C17.318,31.452,17.591,31.58,17.837,31.546Z" transform="translate(-0.333 -0.333)"/><path class="cls-3" d="M15.993,20.879a.821.821,0,0,1-.227-.056q-3.461-2.058-6.907-4.116c0-.146.1-.177.184-.221q3.3-1.709,6.61-3.415a2.114,2.114,0,0,1,.338-.108Z" transform="translate(-0.333 -0.333)"/><path class="cls-4" d="M15.993,20.879l0-7.916c2.371,1.131,4.683,2.378,7.008,3.6.031.016.044.065.091.139-1.626.97-3.246,1.946-4.877,2.9A21.782,21.782,0,0,1,15.993,20.879Z" transform="translate(-0.333 -0.333)"/><path class="cls-5" d="M15.979,8.237c-.285.026-.321.29-.427.471q-1.235,2.111-2.447,4.235a1.548,1.548,0,0,1-.684.66c-1.088.544-2.164,1.11-3.324,1.6q.575-.949,1.151-1.9,2.666-4.39,5.336-8.777c.111-.183.16-.427.405-.506q0,2.077,0,4.157A.05.05,0,0,0,15.979,8.237Z" transform="translate(-0.333 -0.333)"/><path class="cls-4" d="M16.12,27.871c-.229.4-.307.005-.379-.095-.756-1.06-1.5-2.131-2.245-3.2-1.519-2.172-3.038-4.345-4.5-6.591L16,22.125C16,23.85,16,25.576,16,27.3,16,27.5,15.931,27.713,16.12,27.871Z" transform="translate(-0.333 -0.333)"/><path class="cls-3" d="M16.12,27.871C15.931,27.713,16,27.5,16,27.3c0-1.725,0-3.451,0-5.176q3.173-1.9,6.347-3.793c.124-.073.262-.28.423-.119.233.235-.1.295-.184.413q-2.549,3.7-5.122,7.392C17.03,26.644,16.569,27.254,16.12,27.871Z" transform="translate(-0.333 -0.333)"/><path class="cls-6" d="M15.979,8.237a.052.052,0,0,1,.008-.062c.275-.448.088-.94.132-1.41a11.034,11.034,0,0,1,.116-2.388q2.545,4.164,5.091,8.328c.516.845,1.024,1.7,1.608,2.662-1.272-.658-2.41-1.256-3.557-1.836a1.475,1.475,0,0,1-.592-.672Q17.6,10.8,16.407,8.737A1.045,1.045,0,0,0,15.979,8.237Z" transform="translate(-0.333 -0.333)"/><path class="cls-7" d="M16.235,4.377a11.034,11.034,0,0,0-.116,2.388c-.044.47.143.962-.132,1.41q0-2.078,0-4.156A.552.552,0,0,1,16.235,4.377Z" transform="translate(-0.333 -0.333)"/></svg>