<?xml version="1.0" encoding="UTF-8"?>
<svg id="Layer_1" xmlns="http://www.w3.org/2000/svg" version="1.1" viewBox="0 0 32 32">
  <!-- Generator: Adobe Illustrator 29.0.1, SVG Export Plug-In . SVG Version: 2.1.0 Build 192)  -->
  <defs>
    <style>
      .st0 {
        fill: #09f8c2;
      }

      .st1 {
        fill: #242021;
      }
    </style>
  </defs>
  <circle class="st1" cx="16" cy="16" r="16"/>
  <path class="st0" d="M25.138,16.895c-.009-.082-.014-.162-.026-.241-.009-.079-.021-.156-.032-.235-.013-.079-.027-.159-.042-.237-.006-.043-.015-.075-.021-.108l-.024-.098-.01-.05-.006-.025-.004-.011c-.004-.023.007.033-.009-.053l-.034-.114c-.023-.075-.046-.151-.068-.224-.027-.072-.053-.146-.081-.217l-.04-.106-.047-.103c-.032-.068-.063-.136-.092-.204-.034-.066-.068-.129-.102-.194l-.051-.096-.054-.092c-.038-.062-.073-.122-.11-.182-.151-.234-.308-.451-.471-.648-.164-.198-.326-.379-.484-.546-.032-.034-.064-.067-.096-.1.016-.036.032-.073.048-.115.043-.114.061-.294.07-.325.062-.226.229-1.268-1.595-2.203-.021-.009-.039-.024-.055-.04-.138-.141-.841-.826-1.361-.629-.013.006-.027,0-.033-.01l-.442-.667c-.05-.075-.09-.155-.12-.24-.073-.205-.121-.419-.138-.636-.01.152-.005.306.015.456.017.13.04.26.077.386h0s0,.001,0,.001c-.106-.077-.218-.144-.335-.205-.135-.069-.277-.127-.424-.17.198.092.382.208.55.348.069.058.131.124.185.196l.475.643c.008.01.008.025-.001.034-.364.422.04,1.318.126,1.494.009.021.017.045.02.068.254,2.032,1.291,2.232,1.524,2.251.032.002.207.047.33.046.058-.001.111-.006.16-.01.032.05.064.1.097.151.115.184.227.369.331.561.102.192.197.386.281.587.021.05.039.101.059.151l.027.076.026.076c.016.052.033.103.05.155.012.052.025.106.039.16l.02.078.016.081c.011.053.021.106.032.16.007.054.015.11.021.164l.012.08c-.014-.077-.003-.013-.006-.028v.011s.003.026.003.026l.003.05.006.101c.002.034.006.069.006.094.002.055.002.113.003.168,0,.058,0,.118-.002.177,0,.06-.006.117-.008.175-.007.115-.02.228-.036.336-.006.055-.02.106-.03.159-.003.027-.011.051-.018.077l-.008.037-.005.019-.003.01c0-.007-.005.025.001-.011-.019.069-.038.139-.058.208-.009.038-.019.061-.029.086l-.025.077c-.016.047-.04.107-.061.161-.02.055-.044.109-.069.162-.095.214-.208.412-.336.59-.032.044-.068.086-.1.129-.036.041-.07.083-.107.119-.038.038-.074.079-.113.113-.037.037-.078.07-.118.104-.082.066-.165.127-.256.18-.088.057-.181.105-.28.149-.098.045-.201.082-.306.114-.105.03-.214.058-.327.077-.111.02-.226.034-.342.042-.057.003-.115.005-.174.006h-.087s-.042-.001-.042-.001h-.023s-.009-.001-.009-.001c-.031,0,.03,0,.017,0l-.122-.007-.031-.002h-.016s-.007-.002-.007-.002l-.029-.004-.029-.004c-.008-.003-.018-.004-.033-.007l-.076-.014c-.1-.021-.199-.045-.291-.08-.092-.034-.183-.073-.269-.121-.086-.049-.169-.102-.249-.164-.08-.062-.158-.13-.234-.207-.075-.077-.145-.161-.215-.252-.068-.093-.134-.191-.196-.295-.06-.105-.121-.213-.174-.331-.108-.23-.197-.485-.274-.751-.02-.064-.035-.133-.053-.201-.015-.068-.032-.137-.045-.206-.031-.16-.061-.317-.092-.475-.065-.338-.128-.676-.192-1.014-.066-.338-.133-.675-.199-1.013l-.048-.254-.013-.062-.017-.084-.028-.127-.007-.03-.01-.04-.019-.078-.039-.158c-.028-.099-.052-.197-.084-.296-.002-.004-.002-.008-.004-.012,0-.002-.001-.005-.002-.008-.186-.652-.463-1.31-.882-1.928-.211-.308-.456-.603-.744-.874-.144-.132-.295-.262-.461-.378-.079-.059-.165-.112-.249-.169-.087-.051-.172-.106-.262-.151-.18-.098-.367-.18-.557-.251-.191-.068-.385-.126-.581-.168-.195-.044-.39-.07-.587-.089l-.164-.009c-.053-.004-.119-.007-.145-.006h-.178s-.017-.001-.017-.001l-.069.002c-.371.014-.733.064-1.089.15-.355.088-.705.21-1.038.376-.332.164-.649.367-.932.606-.285.237-.535.509-.75.795-.213.288-.384.593-.522.9-.138.307-.239.616-.314.918-.04.146-.074.321-.102.473-.009.062-.018.126-.027.189l-.006.046c.003-.017-.008.035-.007.037v.014s-.005.031-.005.031l-.014.123c-.031.329-.023.637.003.928.012.147.033.287.052.426.012.071.025.143.039.215.006.035.011.073.019.104l.02.087.019.087.011.042.005.023c-.006-.04.011.063.011.058l.003.013c.021.069.041.137.061.205.038.136.094.264.142.394.023.063.053.126.08.189.029.06.057.123.084.183.063.118.121.237.188.346.067.112.131.221.203.323.035.051.069.104.104.153.036.049.072.098.108.146.07.097.147.185.219.277.073.086.146.174.221.253.132.149.263.283.389.41-.003.008-.006.015-.008.024-.044.113-.062.294-.07.325-.063.226-.23,1.268,1.593,2.202.022.009.04.024.057.041.137.141.841.826,1.361.629.012-.006.024,0,.033.01l.442.666c.048.074.089.156.12.24.074.205.121.419.139.636.008-.152.004-.306-.016-.456-.017-.13-.042-.26-.078-.386h.001s0-.001,0-.001c.108.077.22.144.337.205.136.07.278.127.424.17-.198-.092-.384-.208-.55-.348-.069-.058-.131-.125-.185-.196l-.476-.642c-.007-.011-.007-.025.001-.034.364-.422-.038-1.317-.124-1.494-.011-.021-.017-.045-.019-.068-.254-2.032-1.291-2.232-1.525-2.251-.033-.002-.206-.048-.329-.046-.02,0-.039,0-.058.001-.205-.331-.405-.657-.566-1-.163-.343-.298-.697-.371-1.065-.016-.092-.037-.182-.046-.277-.006-.047-.011-.092-.019-.139v-.008c-.003-.013.014.08.007.037v-.023s-.005-.043-.005-.043l-.006-.089-.006-.091c-.001-.027,0-.05-.001-.074,0-.049-.001-.098-.001-.144.001-.102.001-.205.008-.304.013-.199.037-.389.079-.559l.017-.061.004-.016.002-.009c.001-.006-.007.038-.002.013l.013-.045c.017-.062.034-.124.051-.184.033-.096.056-.169.096-.269.075-.189.16-.366.255-.531.098-.163.207-.311.326-.441.12-.132.253-.245.395-.343.142-.1.297-.181.464-.247.166-.069.346-.116.533-.149.188-.032.382-.05.573-.046.372.006.681.091.965.251.28.16.539.404.76.732.224.325.402.728.539,1.163,0,.001,0,.002.001.003.001.004.002.01.003.014.021.066.035.133.053.198l.022.094.01.045.007.025.006.032.046.232.047.254c.065.338.129.675.194,1.014.067.339.131.676.198,1.013l.05.253.029.137.033.146c.022.099.046.197.071.294.027.099.053.197.084.295.119.391.265.783.458,1.164.19.381.425.755.711,1.102.143.173.299.34.467.497.17.156.351.304.545.437.195.13.4.248.612.349.215.1.437.181.661.246.224.065.452.106.677.136l.169.017c.025.002.057.005.089.007l.096.005.094.004h.023s.015,0,.015,0h.154s.068,0,.048-.001h.02s.041-.002.041-.002l.079-.003.158-.011c.107-.01.211-.022.315-.037.208-.031.413-.073.615-.126.202-.055.402-.12.596-.2.194-.081.385-.171.568-.276.366-.206.702-.467.992-.762.288-.296.532-.623.72-.961.19-.34.332-.687.435-1.031.027-.086.052-.171.072-.257.022-.086.044-.167.061-.26l.026-.136c.009-.045.019-.094.023-.127.009-.071.02-.143.029-.214.009-.045.005-.022.007-.036l.002-.017.003-.034.008-.069c.004-.046.01-.093.011-.136.005-.089.012-.181.011-.267.001-.173-.006-.341-.02-.504Z"/>
</svg>