<?xml version="1.0" encoding="utf-8"?>
<!-- Generator: Adobe Illustrator 26.2.1, SVG Export Plug-In . SVG Version: 6.00 Build 0)  -->
<svg version="1.1" id="Layer_1" xmlns="http://www.w3.org/2000/svg" xmlns:xlink="http://www.w3.org/1999/xlink" x="0px" y="0px"
	 viewBox="0 0 32 32" style="enable-background:new 0 0 32 32;" xml:space="preserve">
<style type="text/css">
	.st0{fill:#FFFFFF;}
</style>
<g>
	<circle cx="16.056" cy="16.083" r="15.806"/>
	<g>
		<polygon class="st0" points="22.401,15.593 22.401,19.664 16.055,23.328 9.71,19.664 9.71,18.036 16.055,21.699 17.466,20.885 
			13.235,18.443 14.645,17.628 18.876,20.071 20.286,19.256 16.055,16.815 17.466,16 20.991,18.036 20.991,16.407 18.876,15.185 
			20.286,14.372 		"/>
		<polygon class="st0" points="17.466,9.487 9.71,13.964 9.71,12.336 16.055,8.672 		"/>
		<polygon class="st0" points="8.299,11.523 8.299,20.479 6.889,19.664 6.889,12.336 		"/>
		<polygon class="st0" points="25.222,12.336 25.222,19.664 23.811,20.479 23.811,14.779 18.876,11.929 14.645,14.372 
			13.235,13.557 18.876,10.301 23.811,13.151 23.811,11.523 		"/>
	</g>
</g>
</svg>
