<?xml version="1.0" encoding="utf-8"?>
<!-- Generator: Adobe Illustrator 25.2.3, SVG Export Plug-In . SVG Version: 6.00 Build 0)  -->
<svg version="1.1" id="Layer_1" xmlns="http://www.w3.org/2000/svg" xmlns:xlink="http://www.w3.org/1999/xlink" x="0px" y="0px"
	 viewBox="0 0 32 32" style="enable-background:new 0 0 32 32;" xml:space="preserve">
<style type="text/css">
	.st0{fill:#002291;}
	.st1{fill:#FCFCFD;}
</style>
<g>
	<path class="st0" d="M0.308,17.083c0-0.816,0-1.631,0-2.447c0.099-0.032,0.057-0.118,0.065-0.181
		c0.064-0.535,0.133-1.069,0.234-1.6c1.232-6.471,6.546-11.543,13.08-12.49c0.353-0.051,0.72-0.03,1.06-0.167
		c0.816,0,1.631,0,2.447,0c0.029,0.078,0.099,0.055,0.155,0.06c0.558,0.048,1.111,0.127,1.661,0.235
		c6.832,1.354,11.941,7.006,12.579,13.903c0.024,0.262-0.03,0.541,0.105,0.79c0,0.469,0,0.938,0,1.407
		c-0.084,0.024-0.057,0.095-0.061,0.15c-0.039,0.661-0.105,1.319-0.238,1.967c-1.089,5.321-4.1,9.14-9.003,11.456
		c-1.852,0.875-3.827,1.282-5.87,1.369c-0.367-0.001-0.734-0.002-1.102-0.003c-0.814-0.039-1.623-0.119-2.423-0.276
		c-6.563-1.29-11.545-6.526-12.522-13.145C0.423,17.769,0.452,17.412,0.308,17.083z M11.391,17.031
		c0.161-0.066,0.283-0.114,0.402-0.166c0.878-0.377,1.761-0.745,2.633-1.136c0.267-0.12,0.309-0.035,0.291,0.208
		c-0.013,0.183-0.02,0.369,0.002,0.55c0.027,0.226-0.077,0.32-0.27,0.401c-0.928,0.388-1.847,0.798-2.778,1.179
		c-0.228,0.093-0.291,0.213-0.286,0.449c0.017,0.703,0.006,1.407,0.006,2.11c0,0.352,0,0.352,0.311,0.218
		c0.925-0.397,1.852-0.79,2.774-1.195c0.189-0.083,0.247-0.061,0.242,0.155c-0.011,0.54,0.009,1.081-0.006,1.621
		c-0.032,1.139-0.743,1.887-1.874,1.968c-0.406,0.029-0.815,0.021-1.222,0.017c-0.167-0.002-0.231,0.043-0.228,0.223
		c0.01,0.703,0.008,1.407,0.001,2.11c-0.001,0.153,0.032,0.213,0.2,0.213c2.926-0.005,5.852-0.005,8.779,0
		c0.162,0,0.206-0.046,0.204-0.206c-0.008-0.703-0.011-1.407,0.001-2.11c0.004-0.203-0.076-0.236-0.251-0.23
		c-0.326,0.011-0.652,0.007-0.979,0.003c-1.296-0.017-2.087-0.817-2.089-2.111c-0.001-0.846,0.014-1.693-0.009-2.539
		c-0.007-0.254,0.091-0.349,0.3-0.436c0.929-0.387,1.852-0.787,2.776-1.186c0.114-0.049,0.251-0.064,0.249-0.255
		c-0.009-0.865-0.004-1.73-0.004-2.631c-1.117,0.478-2.203,0.943-3.314,1.418c0-0.33,0.014-0.616-0.005-0.9
		c-0.013-0.194,0.055-0.284,0.234-0.358c0.956-0.4,1.906-0.813,2.858-1.224c0.105-0.045,0.232-0.059,0.23-0.234
		c-0.007-0.865-0.003-1.729-0.003-2.639c-0.127,0.053-0.219,0.089-0.309,0.128c-0.906,0.389-1.816,0.771-2.716,1.174
		c-0.247,0.11-0.295,0.073-0.294-0.193c0.01-1.794,0.002-3.589,0.01-5.383c0.001-0.207-0.044-0.28-0.265-0.275
		c-0.673,0.015-1.346,0.015-2.019,0c-0.226-0.005-0.27,0.077-0.266,0.281c0.007,0.346-0.01,0.692-0.028,1.038
		c-0.067,1.341-0.613,1.976-1.927,2.244c-0.37,0.076-0.745,0.113-1.123,0.102c-0.177-0.005-0.256,0.048-0.245,0.244
		c0.017,0.305,0.022,0.613-0.001,0.917c-0.018,0.242,0.076,0.285,0.294,0.283c0.918-0.011,1.835,0.003,2.753-0.01
		c0.233-0.003,0.295,0.066,0.287,0.292c-0.017,0.468-0.017,0.938,0.001,1.407c0.008,0.214-0.079,0.297-0.263,0.373
		c-0.947,0.396-1.888,0.808-2.832,1.213c-0.133,0.057-0.243,0.102-0.24,0.295C11.398,15.295,11.391,16.142,11.391,17.031z"/>
	<path class="st1" d="M15.419,31.582c0-0.016,0-0.032,0-0.048c0.367,0.001,0.734,0.002,1.102,0.003c0,0.015,0,0.03,0,0.045
		C16.153,31.582,15.786,31.582,15.419,31.582z"/>
	<path class="st1" d="M11.391,17.031c0-0.889,0.007-1.736-0.006-2.581c-0.003-0.194,0.106-0.238,0.24-0.295
		c0.944-0.405,1.885-0.817,2.832-1.213c0.184-0.077,0.271-0.16,0.263-0.373c-0.018-0.468-0.017-0.938-0.001-1.407
		c0.008-0.226-0.055-0.296-0.287-0.292c-0.917,0.013-1.835-0.001-2.753,0.01c-0.218,0.003-0.312-0.041-0.294-0.283
		c0.023-0.304,0.018-0.612,0.001-0.917c-0.011-0.196,0.068-0.249,0.245-0.244c0.378,0.011,0.753-0.027,1.123-0.102
		c1.314-0.268,1.86-0.903,1.927-2.244c0.017-0.346,0.035-0.692,0.028-1.038c-0.004-0.203,0.039-0.286,0.266-0.281
		c0.673,0.015,1.346,0.015,2.019,0c0.221-0.005,0.266,0.067,0.265,0.275c-0.008,1.794,0,3.589-0.01,5.383
		c-0.001,0.266,0.047,0.303,0.294,0.193c0.9-0.403,1.81-0.785,2.716-1.174c0.091-0.039,0.182-0.076,0.309-0.128
		c0,0.91-0.004,1.774,0.003,2.639c0.002,0.175-0.126,0.189-0.23,0.234c-0.951,0.411-1.902,0.824-2.858,1.224
		c-0.178,0.074-0.246,0.164-0.234,0.358c0.019,0.284,0.005,0.57,0.005,0.9c1.111-0.475,2.197-0.94,3.314-1.418
		c0,0.901-0.005,1.766,0.004,2.631c0.002,0.191-0.136,0.206-0.249,0.255c-0.924,0.399-1.848,0.799-2.776,1.186
		c-0.209,0.087-0.307,0.183-0.3,0.436c0.022,0.846,0.008,1.692,0.009,2.539c0.002,1.294,0.793,2.094,2.089,2.111
		c0.326,0.004,0.653,0.009,0.979-0.003c0.174-0.006,0.254,0.027,0.251,0.23c-0.013,0.703-0.009,1.407-0.001,2.11
		c0.002,0.159-0.043,0.206-0.204,0.206c-2.926-0.005-5.852-0.005-8.779,0c-0.169,0-0.202-0.06-0.2-0.213
		c0.007-0.703,0.009-1.407-0.001-2.11c-0.002-0.179,0.061-0.225,0.228-0.223c0.407,0.004,0.816,0.012,1.222-0.017
		c1.131-0.081,1.843-0.829,1.874-1.968c0.015-0.54-0.005-1.081,0.006-1.621c0.004-0.216-0.053-0.238-0.242-0.155
		c-0.922,0.405-1.849,0.798-2.774,1.195c-0.311,0.133-0.311,0.133-0.311-0.218c0-0.704,0.011-1.407-0.006-2.11
		c-0.006-0.236,0.057-0.356,0.286-0.449c0.931-0.381,1.85-0.791,2.778-1.179c0.193-0.081,0.298-0.176,0.27-0.401
		c-0.022-0.181-0.015-0.367-0.002-0.55c0.018-0.243-0.024-0.328-0.291-0.208c-0.872,0.391-1.754,0.759-2.633,1.136
		C11.674,16.917,11.552,16.965,11.391,17.031z"/>
</g>
</svg>
