<?xml version="1.0" encoding="utf-8"?>
<!-- Generator: Adobe Illustrator 25.2.3, SVG Export Plug-In . SVG Version: 6.00 Build 0)  -->
<svg version="1.1" id="Layer_1" xmlns="http://www.w3.org/2000/svg" xmlns:xlink="http://www.w3.org/1999/xlink" x="0px" y="0px"
	 viewBox="0 0 32 32" style="enable-background:new 0 0 32 32;" xml:space="preserve">
<style type="text/css">
	.st0{fill-rule:evenodd;clip-rule:evenodd;fill:#FEF1DF;}
	.st1{fill:#AC582D;}
	.st2{fill:#FABE68;}
</style>
<g>
	<circle class="st0" cx="16" cy="16" r="16"/>
	<path class="st1" d="M19.518,13.141c1.679,1.332,3.55,1.793,5.646,1.259c0.401-0.102,0.803-0.095,1.185,0.091
		c0.408,0.199,0.648,0.51,0.686,0.98c0.465,5.711-3.969,11.113-9.662,11.742c-3.965,0.438-7.257-0.888-9.86-3.892
		C3.693,18.912,4.18,11.782,8.531,7.873c2.003-1.8,4.327-2.801,7.024-2.901c1.113-0.042,1.755,0.523,1.884,1.642
		c0.031,0.271,0.037,0.554-0.003,0.823c-0.277,1.851,0.193,3.493,1.345,4.952c-0.002,0.074-0.004,0.148-0.077,0.193
		c-0.02-0.013-0.04-0.025-0.061-0.036l-0.008-0.036l-0.037-0.001c-0.37-0.257-0.754-0.495-1.185-0.631
		c-1.665-0.525-3.184-0.239-4.455,0.958c-1.261,1.187-1.716,2.68-1.304,4.377c0.798,3.289,4.686,4.525,7.25,2.322
		c1.843-1.583,2.031-4.259,0.444-6.325C19.405,13.186,19.461,13.164,19.518,13.141z M10.354,7.551
		C6.881,10.099,5.249,13.5,5.919,17.738c0.645,4.081,3.021,6.947,6.994,8.231c3.609,1.167,6.894,0.332,9.838-2.052
		c-1.047-0.857-1.163-1.367-0.718-2.649c0.159-0.458,0.473-0.834,0.582-1.32c0.186-0.83-0.256-1.299-0.762-1.551
		c-0.448-0.223-1.031,0.065-1.39,0.616c-1.881,2.891-5.757,3.33-8.227,0.905c-2.104-2.066-2.143-5.79,0.355-7.898
		c0.278-0.235,0.262-0.308-0.057-0.469c-0.666-0.336-1.239-0.769-1.61-1.467C10.5,9.288,10.358,8.455,10.354,7.551z"/>
	<path class="st1" d="M19.518,13.141c-0.056,0.022-0.113,0.045-0.169,0.067c-0.252-0.17-0.454-0.393-0.645-0.627
		c0.074-0.045,0.075-0.12,0.077-0.193C19.069,12.598,19.329,12.834,19.518,13.141z"/>
	<path class="st2" d="M10.354,7.551c0.004,0.904,0.146,1.737,0.569,2.534c0.371,0.698,0.944,1.131,1.61,1.467
		c0.319,0.161,0.335,0.234,0.057,0.469c-2.498,2.108-2.458,5.833-0.355,7.898c2.47,2.425,6.345,1.986,8.227-0.905
		c0.359-0.552,0.942-0.84,1.39-0.616c0.506,0.252,0.948,0.721,0.762,1.551c-0.109,0.485-0.422,0.862-0.582,1.32
		c-0.445,1.281-0.33,1.791,0.718,2.649c-2.944,2.384-6.229,3.219-9.838,2.052c-3.973-1.284-6.348-4.15-6.994-8.231
		C5.249,13.5,6.881,10.099,10.354,7.551z M13.439,23.877c0.009-0.563-0.333-0.924-0.877-0.927c-0.518-0.002-0.966,0.456-0.973,0.994
		c-0.006,0.452,0.508,0.912,1.043,0.932C12.959,24.89,13.433,24.302,13.439,23.877z M15.984,23.927
		c0.295-0.053,0.536-0.195,0.541-0.542c0.005-0.356-0.205-0.587-0.558-0.589c-0.354-0.002-0.562,0.232-0.562,0.586
		C15.405,23.73,15.642,23.878,15.984,23.927z M8.482,13.631c-0.045-0.386-0.433-0.662-0.797-0.563
		c-0.294,0.08-0.371,0.359-0.34,0.62c0.043,0.354,0.295,0.543,0.644,0.504C8.318,14.154,8.481,13.923,8.482,13.631z"/>
	<path class="st2" d="M18.642,12.545c-0.029,0.003-0.044-0.009-0.045-0.038c0,0,0.037,0.001,0.037,0.001L18.642,12.545z"/>
	<path class="st1" d="M13.439,23.877c-0.007,0.425-0.481,1.013-0.807,1c-0.535-0.021-1.049-0.481-1.043-0.932
		c0.007-0.539,0.456-0.996,0.973-0.994C13.106,22.953,13.448,23.314,13.439,23.877z"/>
	<path class="st1" d="M15.984,23.927c-0.342-0.049-0.579-0.196-0.579-0.545c0-0.354,0.208-0.587,0.562-0.586
		c0.353,0.002,0.563,0.232,0.558,0.589C16.52,23.731,16.278,23.874,15.984,23.927z"/>
	<path class="st1" d="M8.482,13.631c-0.001,0.293-0.164,0.524-0.493,0.561c-0.349,0.039-0.601-0.151-0.644-0.504
		c-0.031-0.26,0.046-0.54,0.34-0.62C8.049,12.968,8.437,13.244,8.482,13.631z"/>
</g>
</svg>
