<?xml version="1.0" encoding="UTF-8"?>
<svg id="Layer_1" data-name="Layer 1" xmlns="http://www.w3.org/2000/svg" version="1.1" viewBox="0 0 32 32">
  <defs>
    <style>
      .cls-1 {
        fill: #000;
      }

      .cls-1, .cls-2 {
        stroke-width: 0px;
      }

      .cls-2 {
        fill: #e8e8e8;
      }
    </style>
  </defs>
  <circle class="cls-1" cx="16" cy="16" r="16"/>
  <g>
    <path class="cls-2" d="M16.743,14.535c.401-1.758.659-3.542.532-5.358-.091.201-.103.427-.132.652-.141,1.118-.571,2.131-1.164,3.079-.596.955-1.336,1.804-1.993,2.715-.815,1.129-1.343,2.375-1.458,3.768-.077.937.238,1.77.831,2.495.225.275.47.533.691.812-1.298-.527-2.126-1.458-2.448-2.831-.311-1.328-.077-2.578.531-3.773.607-1.194,1.233-2.377,1.839-3.571.698-1.373,1.328-2.774,1.703-4.276.398-1.594.301-3.168-.178-4.729-.03-.099-.181-.215-.067-.292.062-.041.196.104.284.186.941.875,1.74,1.858,2.285,3.03.771,1.66.851,3.346.18,5.063-.258.659-.524,1.315-.858,1.938-.197.368-.321.776-.579,1.094Z"/>
    <path class="cls-2" d="M21.164,8.691c-.321.62-.671,1.225-.899,1.889-.378,1.098-.589,2.222-.477,3.385.108,1.12.571,2.111,1.199,3.029.407.595.86,1.164,1.094,1.883.126-1.079.467-2.063,1.19-2.897-.413,1.082-.389,2.219-.46,3.347-.111,1.763-1.02,3.091-2.369,4.156-.632.499-1.333.895-2,1.342-.046.03-.115.105-.172.036-.061-.073.032-.113.071-.158.44-.518.97-.947,1.442-1.434.462-.476.85-1.003,1.01-1.664.183-.754.032-1.451-.369-2.102-.353-.574-.861-1.011-1.315-1.496-.633-.678-1.17-1.415-1.361-2.344-.228-1.111-.032-2.168.469-3.173.66-1.323,1.598-2.444,2.595-3.52.101-.109.175-.254.347-.273l.004-.005Z"/>
    <path class="cls-2" d="M15.564,14.983c-.298,1.829.011,3.457,1.547,4.686-.668-1.148-.56-2.356-.316-3.575.041.656.215,1.271.523,1.849.207.39.469.745.706,1.116.55.86.908,1.774.806,2.821-.059.601-.325,1.111-.678,1.583-.436.583-.882,1.158-1.325,1.736-.018.024-.005.099-.072.051-.049-.034-.046-.074-.02-.128.096-.199.161-.411.234-.619.43-1.233.271-2.371-.514-3.421-.328-.439-.649-.884-.908-1.369-.032-.06-.057-.171-.153-.118-.066.036.007.116.012.175.065.742.298,1.442.525,2.144.067.208.207.388.238.609.003.024.055.046.01.072-.029.017-.057.019-.081-.016-.22-.321-.545-.535-.824-.795-.959-.892-1.198-2.012-1.064-3.258.108-1.002.514-1.904.931-2.802.115-.247.234-.493.351-.739.024,0,.048-.001.071-.002Z"/>
    <path class="cls-2" d="M11.881,11.734c.26.241.418.543.539.858.306.796.287,1.592-.04,2.383-.281.679-.693,1.288-1.035,1.934-.38.72-.645,1.474-.724,2.29-.162,1.665.514,2.94,1.809,3.931.651.498,1.334.947,2.054,1.339.092.05.179.111.261.182-.434-.066-.852-.181-1.263-.32-.904-.307-1.751-.718-2.463-1.373-.974-.896-1.457-2.019-1.561-3.323-.124-1.563.353-2.927,1.31-4.156.51-.656.973-1.347,1.182-2.177.135-.535.126-1.048-.069-1.568Z"/>
    <path class="cls-2" d="M15.906,27.75c-.645-1.487-1.774-2.49-3.173-3.268.342-.025.6.142.868.255.589.25,1.162.535,1.612,1.008.532.559.74,1.235.693,2.004Z"/>
    <path class="cls-2" d="M21.16,8.696c.012-.014.025-.028.037-.042-.006-.004-.013-.011-.018-.01-.025.008-.035.023-.016.047,0,0-.004.005-.004.005Z"/>
  </g>
</svg>