<?xml version="1.0" encoding="UTF-8"?><svg id="Layer_1" xmlns="http://www.w3.org/2000/svg" viewBox="0 0 31.611 31.611"><defs><style>.cls-1{fill:#fff;}.cls-1,.cls-2{stroke-width:0px;}.cls-2{fill:#26a17b;fill-rule:evenodd;}</style></defs><ellipse class="cls-1" cx="15.139" cy="16.25" rx="13.333" ry="12.944"/><path class="cls-2" d="M17.704,13.897v2.611c-.112.01-.709.059-1.902.059-.994,0-1.713-.042-1.964-.06v-2.612c-3.841.172-6.707.841-6.707,1.64s2.867,1.469,6.707,1.638v-.003c.247.012.949.042,1.947.042,1.25,0,1.81-.034,1.918-.042v.002c3.833-.17,6.693-.837,6.693-1.637s-2.86-1.467-6.693-1.638Z"/><path class="cls-2" d="M15.806,0C7.076,0,0,7.076,0,15.806s7.076,15.806,15.806,15.806,15.806-7.076,15.806-15.806S24.535,0,15.806,0ZM17.704,17.807v7.492h-3.865v-7.49c-4.347-.201-7.615-1.061-7.615-2.092s3.269-1.893,7.615-2.092v-2.336h-5.348v-3.564h14.562v3.564h-5.348v2.337c4.34.201,7.601,1.061,7.601,2.091s-3.261,1.891-7.601,2.09Z"/></svg>