<?xml version="1.0" encoding="UTF-8"?><svg id="Layer_1" xmlns="http://www.w3.org/2000/svg" viewBox="0 0 32 32"><defs><style>.cls-1{fill:#090707;}.cls-1,.cls-2{stroke-width:0px;}.cls-2{fill:#d23b78;}</style></defs><circle class="cls-2" cx="16" cy="16" r="16"/><path class="cls-1" d="M9.028,18.354c-1.482.972-3.105,1.119-4.778,1.025l-.051-.078c.476-.424.952-.848,1.447-1.29-.46-.365-.907-.72-1.375-1.091.446-.327.879-.646,1.33-.977-.464-.327-.911-.641-1.385-.974.484-.399.956-.789,1.452-1.199-.294-.244-.58-.48-.866-.717-.109-.09-.211-.192-.33-.266-.21-.13-.294-.302-.219-.582,1.445-.196,2.871-.127,4.221.541.37-.41.378-.928.454-1.424.048-.312.103-.624.132-.939.015-.163.08-.24.23-.303.605-.252,1.205-.519,1.803-.788.102-.046.2-.118.277-.2.422-.449.845-.898,1.251-1.362.142-.162.282-.189.481-.147.488.103.986.161,1.469.283.436.11.842-.012,1.258-.074.419-.063.833-.16,1.252-.216.114-.015.267.03.355.104.597.494,1.18,1.004,1.769,1.506.806.687,1.606,1.383,2.427,2.053.254.208.565.347.854.511.347.197.701.381,1.046.583.102.06.181.159.289.256,1.549-.473,3.013-.611,3.897-.359.057.233-.015.398-.214.548-.41.31-.799.649-1.216.993.479.414.942.813,1.423,1.228-.464.327-.909.642-1.377.971.451.331.878.644,1.33.975-.46.366-.908.721-1.374,1.092.492.439.976.871,1.513,1.351-1.359.106-2.612.009-3.867-.453-.038.14-.094.268-.104.4-.041.523-.061,1.048-.108,1.57-.008.092-.09.209-.171.257-.387.228-.774.459-1.182.644-.599.272-1.075.677-1.479,1.188-.222.28-.481.531-.707.808-.109.134-.225.174-.388.152-.792-.107-1.582-.24-2.377-.299-.396-.03-.803.072-1.204.125-.255.034-.513.069-.76.139-.265.076-.45.009-.639-.186-.319-.329-.689-.608-.994-.948-.477-.533-1.106-.81-1.723-1.114-.298-.146-.607-.271-.896-.43-.108-.06-.179-.19-.263-.291-.026-.031-.033-.076-.057-.109-.615-.828-1.232-1.655-1.853-2.489ZM19.728,23.38c.029-.018.118-.053.177-.116.288-.313.581-.622.846-.953.282-.352.62-.615,1.023-.812.418-.205.818-.445,1.231-.66.123-.064.183-.134.185-.282.002-.291.038-.582.048-.873.014-.411.094-.798.285-1.172.261-.51.476-1.043.723-1.56.065-.135.061-.237-.007-.368-.215-.412-.418-.831-.62-1.251-.046-.095-.08-.201-.095-.305-.092-.642-.191-1.284-.258-1.929-.026-.249-.145-.363-.347-.481-.636-.372-1.339-.636-1.889-1.152-.358-.336-.76-.632-1.086-.996-.35-.39-.719-.453-1.212-.345-.653.144-1.316.272-1.999.127-.454-.097-.923-.123-1.382-.2-.184-.031-.309.014-.441.142-.956.933-1.95,1.81-3.296,2.144-.072.018-.139.058-.21.077-.159.042-.219.13-.216.303.008.566,0,1.133-.013,1.7-.002.111-.031.231-.078.332-.276.587-.558,1.171-.847,1.751-.07.14-.073.251.005.393.334.613.657,1.231.978,1.851.048.093.079.202.091.306.055.496.111.993.145,1.492.011.166.071.245.217.313,1.028.485,2.087.924,2.841,1.834.032.038.08.064.108.104.388.55.887.633,1.515.444.589-.178,1.201-.217,1.824-.091.553.112,1.121.152,1.756.233ZM5.135,14.932c.48.338.942.663,1.422,1.001-.461.339-.905.666-1.364,1.003.447.356.876.697,1.32,1.05-.305.275-.6.54-.894.805,1.05-.039,2.042-.214,2.916-.793.687-.455,1.067-1.093,1.112-1.947-.058.022-.096.033-.13.051-.452.229-.906.455-1.353.692-.18.096-.327.085-.421-.096-.101-.192.004-.307.18-.389.218-.102.438-.204.641-.332.115-.073.268-.197.272-.302.003-.1-.149-.232-.262-.304-.162-.103-.308-.203-.211-.41.093-.198.266-.19.449-.113.246.103.497.196.775.305-.147-.738-.489-1.308-1.077-1.715-.975-.674-2.088-.776-3.297-.777.478.397.902.749,1.335,1.108-.476.392-.931.767-1.41,1.162ZM26.744,12.669c-.215,0-.347-.005-.478,0-.776.037-1.541.131-2.255.463-.069.032-.157.137-.151.199.051.486.122.97.177,1.38.159.109.325.163.359.263.038.11-.045.261-.076.394-.009.106.043.219.101.329.137.258.207.555.532.683.154.06.119.227.046.369-.281.551-.556,1.106-.839,1.671.719.272,1.423.399,2.209.439-.345-.308-.64-.57-.948-.845.445-.355.871-.694,1.319-1.051-.461-.34-.904-.667-1.362-1.005.493-.347.953-.671,1.427-1.005-.473-.407-.923-.795-1.383-1.191.437-.362.851-.704,1.322-1.095ZM18.768,9.549c-.56-.479-1.072-.922-1.593-1.355-.051-.042-.158-.039-.234-.026-.435.071-.869.144-1.301.23-.428.085-.849.101-1.279-.002-.387-.093-.781-.16-1.175-.223-.083-.013-.205.017-.262.074-.415.418-.817.847-1.219,1.267.455.53.896,1.045,1.35,1.574.099-.083.183-.15.263-.221.485-.431.965-.867,1.457-1.289.083-.071.224-.119.332-.108.471.047.944.095,1.408.189.743.151,1.466.071,2.254-.11ZM9.537,11.015c-.026.177-.042.274-.055.372-.073.524-.095,1.064-.427,1.512-.101.137-.055.215.052.309.55.483.882,1.09,1.02,1.806.011.056.049.107.11.234.162-.374.388-.634.387-.996-.002-.474-.007-.948.015-1.421.013-.273-.049-.491-.232-.703-.291-.337-.551-.7-.87-1.113ZM12.556,11.368c-.43-.504-.828-.977-1.236-1.442-.035-.039-.142-.054-.196-.031-.433.182-.861.376-1.309.574.381.489.74.953,1.107,1.411.032.04.123.073.167.057.478-.178.953-.367,1.468-.568ZM10.816,19.816c.002-.6-.037-.758-.275-1.202-.176-.329-.351-.658-.528-.986-.041-.076-.088-.148-.144-.241-.042.058-.062.084-.08.111-.106.157-.298.316-.293.47.005.168.185.336.302.495.323.438.654.871,1.018,1.354Z"/><path class="cls-1" d="M14.49,17.069c-.064.44-.128.881-.193,1.331h-1.001c-.109-1.001-.218-2.006-.33-3.027h.775c.047.566.094,1.135.141,1.704.013,0,.025.002.038.003.067-.566.134-1.131.202-1.708h.836c.046.556.091,1.107.136,1.658.012.001.025.003.037.004.069-.553.138-1.105.208-1.665h.78c-.118,1.01-.236,2.012-.355,3.029h-1.006c-.073-.447-.145-.89-.217-1.333-.017.001-.034.003-.051.004Z"/><path class="cls-1" d="M20.391,18.402h-.785v-3.032h.793v1.069h.254v-1.064h.764v3.022h-.779v-1.224c-.089-.01-.158-.017-.246-.027v1.256Z"/><path class="cls-1" d="M17.084,16.549h.468v.563h-.472v.658h.54v.598h-1.346v-2.99h1.301v.582h-.491v.589Z"/><path class="cls-1" d="M17.696,15.974v-.599h1.728v.582h-.438v2.441h-.811v-2.423h-.479Z"/><path class="cls-1" d="M15.108,11.444c.077.091.193.171.223.276.047.162-.075.241-.226.298-.456.172-.929.319-1.352.554-.343.19-.629.486-.928.748-.126.111-.244.149-.376.047-.145-.112-.148-.268-.035-.395.698-.783,1.565-1.276,2.595-1.48.016-.003.033-.004.049-.006.016-.014.032-.028.048-.041Z"/></svg>