<?xml version="1.0" encoding="utf-8"?>
<!-- Generator: Adobe Illustrator 25.0.1, SVG Export Plug-In . SVG Version: 6.00 Build 0)  -->
<svg version="1.1" id="Layer_1" xmlns="http://www.w3.org/2000/svg" xmlns:xlink="http://www.w3.org/1999/xlink" x="0px" y="0px"
	 viewBox="0 0 32 32" style="enable-background:new 0 0 32 32;" xml:space="preserve">
<style type="text/css">
	.st0{fill:#2775CA;}
	.st1{fill:#FFFFFF;}
</style>
<g>
	<path class="st0" d="M16.056,31.722c8.744,0,15.778-7.034,15.778-15.778S24.799,0.167,16.056,0.167S0.278,7.201,0.278,15.944
		S7.312,31.722,16.056,31.722z"/>
	<path class="st1" d="M20.394,18.443c0-2.301-1.381-3.09-4.142-3.418c-1.972-0.263-2.367-0.789-2.367-1.709s0.657-1.512,1.972-1.512
		c1.183,0,1.841,0.394,2.169,1.381c0.066,0.197,0.263,0.329,0.46,0.329h1.052c0.263,0,0.46-0.197,0.46-0.46v-0.066
		c-0.263-1.446-1.446-2.564-2.958-2.695V8.713c0-0.263-0.197-0.46-0.526-0.526H15.53c-0.263,0-0.46,0.197-0.526,0.526v1.512
		c-1.972,0.263-3.221,1.578-3.221,3.221c0,2.169,1.315,3.024,4.076,3.353c1.841,0.329,2.432,0.723,2.432,1.775
		s-0.92,1.775-2.169,1.775c-1.709,0-2.301-0.723-2.498-1.709c-0.066-0.263-0.263-0.394-0.46-0.394h-1.118
		c-0.263,0-0.46,0.197-0.46,0.46v0.066c0.263,1.643,1.315,2.827,3.484,3.156v1.578c0,0.263,0.197,0.46,0.526,0.526h0.986
		c0.263,0,0.46-0.197,0.526-0.526v-1.578C19.08,21.598,20.394,20.218,20.394,18.443L20.394,18.443z"/>
	<path class="st1" d="M12.703,25.345c-5.128-1.841-7.757-7.56-5.851-12.622c0.986-2.761,3.156-4.865,5.851-5.851
		c0.263-0.131,0.394-0.329,0.394-0.657v-0.92c0-0.263-0.131-0.46-0.394-0.526c-0.066,0-0.197,0-0.263,0.066
		c-6.245,1.972-9.664,8.612-7.692,14.857c1.183,3.681,4.01,6.508,7.692,7.692c0.263,0.131,0.526,0,0.592-0.263
		c0.066-0.066,0.066-0.131,0.066-0.263v-0.92C13.097,25.74,12.9,25.477,12.703,25.345z M19.671,4.834
		c-0.263-0.131-0.526,0-0.592,0.263c-0.066,0.066-0.066,0.131-0.066,0.263v0.92c0,0.263,0.197,0.526,0.394,0.657
		c5.128,1.841,7.757,7.56,5.851,12.622c-0.986,2.761-3.156,4.865-5.851,5.851c-0.263,0.131-0.394,0.329-0.394,0.657v0.92
		c0,0.263,0.131,0.46,0.394,0.526c0.066,0,0.197,0,0.263-0.066c6.245-1.972,9.664-8.612,7.692-14.857
		C26.18,8.844,23.287,6.018,19.671,4.834L19.671,4.834z"/>
</g>
</svg>
