<?xml version="1.0" encoding="utf-8"?>
<!-- Generator: Adobe Illustrator 22.0.1, SVG Export Plug-In . SVG Version: 6.00 Build 0)  -->
<svg version="1.1" id="Layer_1" xmlns="http://www.w3.org/2000/svg" xmlns:xlink="http://www.w3.org/1999/xlink" x="0px" y="0px"
	 viewBox="0 0 32 32" style="enable-background:new 0 0 32 32;" xml:space="preserve">
<style type="text/css">
	.st0{fill:#FFFFFF;}
</style>
<g>
	<ellipse class="st0" cx="16.125" cy="15.969" rx="15" ry="15.156"/>
	<g>
		<path d="M31.77,16.173l-0.008-0.127c-0.01-0.157-0.021-0.314-0.032-0.471c-0.025-0.349-0.049-0.699-0.061-1.048
			c-0.017-0.523-0.096-1.086-0.247-1.771c-0.298-1.342-0.707-2.527-1.25-3.622c-0.413-0.83-0.88-1.612-1.389-2.323
			c-0.379-0.529-0.807-1.049-1.271-1.547c-0.617-0.659-1.315-1.288-2.076-1.867c-0.557-0.424-1.14-0.805-1.732-1.132
			C22.728,1.726,21.8,1.32,20.866,1.021c-0.725-0.232-1.471-0.389-2.169-0.525c-0.792-0.155-1.597-0.201-2.406-0.247
			c-0.218-0.011-0.436,0.005-0.648,0.021c-0.185,0.015-0.376,0.03-0.559,0.023c-0.637-0.021-1.261,0.095-1.864,0.206l-0.268,0.049
			c-0.799,0.143-1.443,0.316-2.028,0.545c-0.132,0.051-0.265,0.099-0.399,0.145c-0.133,0.047-0.266,0.094-0.397,0.145
			c-0.639,0.248-1.256,0.544-1.836,0.88C7.688,2.614,7.095,3.005,6.48,3.458C5.989,3.82,5.539,4.236,5.104,4.638
			C4.989,4.745,4.873,4.852,4.757,4.957c-0.161,0.146-0.3,0.315-0.435,0.478l-0.075,0.09C3.952,5.881,3.659,6.237,3.372,6.6
			c-0.347,0.438-0.64,0.918-0.925,1.382L2.384,8.085c-0.448,0.73-0.787,1.512-1.061,2.18c-0.485,1.186-0.816,2.525-1.012,4.092
			c-0.058,0.458-0.066,0.927-0.073,1.38l-0.007,0.37c-0.002,0.107,0.013,0.212,0.027,0.313c0.015,0.099,0.028,0.192,0.024,0.282
			c-0.019,0.482,0.044,0.958,0.105,1.42c0.021,0.157,0.042,0.312,0.059,0.468l0.009,0.088c0.019,0.173,0.038,0.352,0.089,0.525
			c0.072,0.245,0.138,0.49,0.205,0.735c0.119,0.44,0.243,0.893,0.397,1.334c0.418,1.19,0.982,2.326,1.676,3.379
			c0.308,0.465,0.663,0.908,1.007,1.335l0.223,0.278c0.516,0.647,1.159,1.281,1.968,1.939c0.568,0.463,1.101,0.843,1.626,1.162
			c0.886,0.538,1.641,0.927,2.377,1.225c0.414,0.167,0.873,0.332,1.403,0.501c0.737,0.235,1.483,0.376,2.179,0.493l0.18,0.032
			c0.278,0.049,0.565,0.1,0.853,0.105c0.213,0.004,0.427,0.009,0.64,0.014c0.364,0.009,0.728,0.017,1.092,0.02
			c0.019,0,0.038,0,0.057,0c0.714,0,1.478-0.079,2.395-0.249c0.806-0.151,1.592-0.311,2.336-0.623
			c0.114-0.047,0.231-0.088,0.347-0.129c0.14-0.048,0.28-0.097,0.416-0.157c0.132-0.059,0.266-0.116,0.398-0.174
			c0.426-0.183,0.867-0.373,1.274-0.61c0.767-0.445,1.338-0.817,1.852-1.206c0.426-0.323,0.828-0.679,1.218-1.023l0.25-0.22
			c0.156-0.135,0.292-0.291,0.424-0.442c0.094-0.106,0.188-0.213,0.288-0.312c0.552-0.548,1.003-1.184,1.382-1.737
			c0.461-0.67,0.874-1.387,1.226-2.131c0.369-0.784,0.651-1.524,0.859-2.261l0.082-0.283c0.149-0.511,0.303-1.041,0.349-1.594
			c0.02-0.256,0.059-0.516,0.097-0.768c0.035-0.24,0.072-0.488,0.094-0.735c0.022-0.244,0.016-0.49,0.012-0.728
			c-0.002-0.066-0.003-0.132-0.004-0.199L31.77,16.173z M30.537,16.022c0.003,4.003-1.446,7.472-4.308,10.312
			c-2.816,2.796-6.249,4.213-10.204,4.213c-0.013,0-0.027,0-0.04,0c-3.995-0.009-7.446-1.441-10.259-4.258
			c-2.785-2.79-4.224-6.183-4.28-10.085c0.048-4.254,1.46-7.697,4.314-10.523c2.817-2.79,6.253-4.204,10.213-4.204
			c0.011,0,0.023,0,0.034,0c3.971,0.008,7.417,1.431,10.238,4.231C29.092,8.532,30.535,12.002,30.537,16.022z"/>
		<path d="M23.168,15.873c0.001-0.057,0.001-0.114,0-0.171v-0.617c-0.001-0.535-0.001-1.07,0.002-1.605
			c0.001-0.191-0.052-0.336-0.175-0.469c-0.344-0.372-0.682-0.751-1.02-1.129l-0.423-0.474c-0.169-0.187-0.337-0.375-0.503-0.565
			l-0.781-0.899c-0.33-0.379-0.659-0.759-0.991-1.137c-0.427-0.489-0.858-0.975-1.29-1.462l-0.294-0.332
			c-0.071-0.081-0.145-0.164-0.237-0.233c-0.182-0.139-0.325-0.129-0.413-0.095c-0.088,0.033-0.203,0.12-0.251,0.348
			c-0.013,0.064-0.011,0.127-0.009,0.183l0.001,0.055l0,1.106l0,0.995c0,0.774,0,1.549-0.001,2.323c0,0.033,0,0.135-0.003,0.149
			c-0.023,0.012-0.125,0.012-0.159,0.013c-0.428,0.004-0.855,0.003-1.282,0c-0.034,0-0.076,0-0.103-0.003
			c-0.003-0.029-0.004-0.077-0.005-0.121c-0.001-0.05-0.001-0.1,0-0.15v-1.001c0-1.043,0-2.087-0.002-3.13
			c0-0.137-0.019-0.28-0.054-0.413c-0.056-0.212-0.151-0.337-0.284-0.371c-0.13-0.035-0.27,0.028-0.416,0.181
			c-0.282,0.297-0.557,0.6-0.832,0.904l-0.205,0.226c-0.128,0.141-0.252,0.284-0.377,0.427l-0.755,0.866
			c-0.402,0.461-0.804,0.922-1.208,1.381c-0.289,0.327-0.581,0.652-0.872,0.976l-0.648,0.725c-0.131,0.149-0.261,0.298-0.398,0.442
			c-0.288,0.302-0.408,0.603-0.393,0.976c0.021,0.507,0.015,1.023,0.011,1.524l-0.004,0.505c0,0.017,0,0.043-0.001,0.064
			c-0.017,0.001-0.038,0.002-0.056,0.003c-0.053,0.003-0.109,0.003-0.163,0.001H5.567L5.492,15.87
			c-0.063-0.002-0.125-0.003-0.188,0.003c-0.289,0.031-0.466,0.206-0.498,0.494c-0.008,0.063-0.006,0.128-0.005,0.192l0.002,3.935
			c0,0.686,0.001,1.374-0.001,2.06c-0.001,0.301,0.051,0.487,0.169,0.605c0.134,0.133,0.33,0.15,0.537,0.15c0.012,0,0.023,0,0.034,0
			c1.218-0.006,2.435-0.006,3.654-0.005l1.364,0.001c0.042,0.002,0.084,0.002,0.123,0c0.346-0.007,0.554-0.22,0.557-0.57v-2.035
			l-0.001-0.073c-0.002-0.055-0.004-0.107,0.003-0.141c0.002-0.004,0.008-0.012,0.014-0.016c0.514-0.008,1.028-0.008,1.535,0.005
			c0.01,0.043,0.008,0.095,0.006,0.151l-0.002,0.66c0,0.493,0,0.986,0.001,1.48c0.001,0.303,0.157,0.488,0.449,0.534
			c0.065,0.011,0.132,0.011,0.2,0.008l5.065-0.002l0.057,0.001c0.044,0.003,0.089,0.003,0.132-0.001
			c0.334-0.028,0.467-0.166,0.477-0.495c0.004-0.104,0.003-0.21,0.002-0.315l-0.001-0.653c0-0.416-0.001-0.831,0.002-1.247
			c0-0.092,0.007-0.12,0.002-0.12c0.007-0.004,0.032-0.01,0.117-0.011c0.476-0.004,0.95-0.004,1.426,0c0.014,0,0.034,0,0.052,0.001
			c0.001,0.02,0.002,0.045,0.002,0.064c0.003,0.165,0.002,0.332,0.002,0.498l-0.002,0.685c0,0.366-0.001,0.733,0.002,1.1
			c0.002,0.307,0.134,0.454,0.442,0.491c0.028,0.003,0.058,0.002,0.089,0.002l1.53-0.001c1.247,0,2.497,0,3.746-0.001
			c0.415,0,0.565-0.147,0.573-0.561v-6.212l0.001-0.053c0.001-0.045,0.001-0.091-0.002-0.135c-0.02-0.271-0.122-0.388-0.388-0.447
			c-0.113-0.025-0.227-0.026-0.344-0.026l-1.873-0.001L23.168,15.873z M23.166,17.848l0.002-0.982
			c0.001-0.045,0.002-0.092,0.005-0.12c0.031-0.003,0.087-0.003,0.134-0.004c0.341-0.002,0.683-0.001,1.023-0.001l0.439,0l0.417,0
			c0.312,0,0.625,0,0.938,0.001l0.119,0c0.042,0,0.082,0,0.109,0c0.002,0.028,0.001,0.071,0,0.112l-0.001,0.133
			c0.001,0.651,0.001,1.301,0.001,1.952v3.386c0,0.043,0.001,0.087-0.001,0.115c-0.03,0.002-0.076,0.002-0.116,0.002l-4.529-0.001
			v0.124l-0.032-0.124c-0.029-0.001-0.061-0.002-0.083-0.004c-0.001-0.021-0.002-0.048-0.002-0.07
			c-0.003-0.182-0.002-0.364-0.002-0.546l0.001-0.236l-0.001-0.311c0-0.241-0.001-0.48,0.002-0.722c0-0.026,0.001-0.06,0.002-0.085
			c0.027-0.002,0.067-0.003,0.1-0.003l0.183-0.003c0.218-0.003,0.446-0.007,0.665,0.006c0.182,0.009,0.367,0.002,0.493-0.118
			c0.131-0.127,0.145-0.337,0.142-0.528C23.162,19.164,23.164,18.506,23.166,17.848z M20.777,18.003l0.001,1.394
			c0.001,0.099,0.002,0.21-0.01,0.231c-0.021,0.014-0.11,0.017-0.2,0.017c-0.163-0.001-0.294-0.003-0.436-0.003
			c-0.089,0-0.178,0-0.268,0.001c-0.179,0.001-0.362,0.002-0.543-0.001c-0.091-0.001-0.122-0.021-0.132-0.005
			c-0.005-0.01-0.012-0.042-0.012-0.138c-0.003-0.432-0.002-0.864-0.002-1.297l0.001-5.672c0-0.055,0-0.109-0.001-0.163
			c-0.008-0.427-0.084-0.502-0.511-0.505c-0.134-0.002-0.264-0.001-0.395,0c-0.175,0-0.353,0.001-0.531-0.001
			c-0.089-0.001-0.123-0.007-0.131-0.007c0,0-0.001,0-0.001,0c-0.004-0.008-0.012-0.037-0.012-0.139
			c-0.001-0.9-0.001-1.8-0.001-2.701V8.145l1.121,1.287c0.188,0.215,0.376,0.429,0.567,0.64c0.122,0.134,0.245,0.267,0.367,0.4
			c0.198,0.215,0.396,0.43,0.59,0.649c0.198,0.225,0.392,0.453,0.586,0.681c0.173,0.204,0.346,0.408,0.523,0.61
			c0.267,0.305,0.557,0.631,0.866,0.95c0.143,0.148,0.202,0.291,0.198,0.48c-0.009,0.391-0.007,0.783-0.006,1.174
			c0.001,0.203,0.002,0.407,0.001,0.611c0,0.098,0,0.21-0.008,0.228c-0.025,0.015-0.14,0.015-0.252,0.015l-0.386,0l-0.339-0.002
			c-0.047-0.002-0.101-0.006-0.158,0.008l-0.067,0.015c-0.247,0.056-0.423,0.126-0.422,0.535
			C20.778,16.952,20.777,17.478,20.777,18.003z M21.586,17.773c0-0.324-0.001-0.648,0.002-0.972c0-0.015,0-0.037,0.001-0.057
			c0.019-0.001,0.042-0.001,0.057-0.001c0.236-0.005,0.472-0.006,0.708,0c0.012,0,0.034,0.001,0.053,0.002
			c0.001,0.022,0.001,0.05,0.001,0.065c0.002,0.676,0.001,1.353,0,2.03l0.001,0.225c0.001,0.161,0.003,0.322-0.002,0.482
			c-0.002,0.063-0.009,0.082-0.006,0.082c-0.005,0.003-0.024,0.009-0.086,0.011c-0.224,0.005-0.45,0.004-0.67,0.001
			c-0.014,0-0.037-0.001-0.056-0.002c-0.001-0.021-0.001-0.046-0.001-0.062c-0.003-0.324-0.002-0.648-0.002-0.972l0.001-0.417
			L21.586,17.773z M17.593,12.801c-0.001-0.044-0.001-0.093,0.001-0.123c0.033-0.003,0.097-0.001,0.157,0l0.076,0.001
			c0.14,0.002,0.279,0.013,0.42,0.023l0.094,0.007l0.004,0.091c0.007,0.131,0.014,0.262,0.014,0.394
			c0.002,0.713,0.002,1.426,0.001,2.14V19.4c0,0.026,0.001,0.052,0.002,0.078c0.002,0.053,0.004,0.103-0.003,0.139
			c-0.002,0.005-0.007,0.013-0.013,0.018c-0.196,0.008-0.392,0.008-0.59,0.006l-0.158,0.015c0-0.001-0.004-0.009-0.004-0.031V12.92
			L17.593,12.801z M13.602,22.349v-0.486c0-0.432-0.001-0.864,0.001-1.297c0-0.03,0-0.07,0.002-0.098
			c0.025-0.001,0.06-0.002,0.086-0.002c0.165-0.002,0.33,0,0.491-0.001c0.181,0,0.363,0.001,0.544-0.002
			c0.329-0.004,0.384-0.051,0.454-0.396c0.034-0.171,0.05-0.311,0.05-0.444c0.002-1.712,0.002-3.424,0.002-5.136v-1.284l0-0.394
			c0-0.049,0-0.1,0.002-0.129c0.034-0.004,0.098-0.002,0.165-0.003c0.406,0.002,0.81,0.001,1.214,0h0.045
			c0.047-0.001,0.096,0,0.126,0.001c0.003,0.032,0.002,0.09,0.002,0.158c-0.001,0.442-0.001,0.884,0,1.326v5.596l0,0.063
			c0,0.051,0,0.102,0.001,0.155c0.011,0.344,0.146,0.481,0.481,0.487c0.189,0.002,0.376,0.001,0.563,0.002
			c0.16,0,0.314-0.001,0.473,0.001c0.014,0,0.036,0,0.055,0.001c0.001,0.02,0.001,0.044,0.001,0.061
			c0.003,0.618,0.003,1.236,0,1.853c0,0.014,0,0.039-0.001,0.059c-0.02,0.001-0.044,0.001-0.057,0.001
			c-0.349,0.001-0.695,0-1.043,0.001h-3.415l-0.075,0.002c-0.054,0.002-0.105,0.004-0.135-0.001c0,0-0.016-0.011-0.032-0.051
			C13.601,22.377,13.602,22.362,13.602,22.349z M13.602,12.81c0.001-0.049,0.002-0.099,0.005-0.128
			c0.029-0.003,0.08-0.004,0.126-0.004c0.087-0.001,0.175,0,0.265,0c0.113,0,0.228,0,0.342-0.001
			c0.058-0.003,0.073,0.007,0.075,0.071c0.002,0.05,0.001,0.1,0.001,0.15v6.473l0,0.059c0,0.038,0.001,0.074,0,0.111
			c-0.006,0.08-0.011,0.095-0.007,0.093c-0.003,0.001-0.018,0.008-0.08,0.009c-0.131,0.003-0.261,0.003-0.392,0.002
			c-0.106,0-0.213-0.001-0.333,0.012c0,0-0.003-0.01-0.002-0.036c0.002-0.059,0.002-0.118,0.001-0.177L13.602,12.81z M11.239,16.452
			c0-0.18-0.052-0.324-0.156-0.426c-0.102-0.102-0.249-0.155-0.425-0.155c-0.101-0.001-0.197,0.001-0.296,0.001
			c-0.139,0-0.279-0.001-0.42-0.001c-0.098,0-0.209,0-0.294,0.001c-0.021,0-0.031-0.002-0.037-0.001
			c-0.001-0.006-0.003-0.018-0.003-0.041c0.002-0.335,0.002-0.67,0.002-1.005c0-0.39,0-0.78,0.003-1.17
			c0-0.048,0.022-0.11,0.051-0.144c0.262-0.312,0.531-0.618,0.799-0.925l0.081-0.092c0.499-0.569,1-1.138,1.5-1.706
			c0.203-0.231,0.407-0.461,0.613-0.689l0.623-0.69c0.285-0.315,0.569-0.63,0.854-0.946c0.082-0.091,0.16-0.186,0.239-0.28
			L14.41,8.14c0.004,0.047,0.004,0.097,0.005,0.148c0.001,0.419,0.001,0.837,0.001,1.256v0.898c0,0.399,0,0.798,0,1.196
			c0,0.091,0,0.195-0.002,0.21c-0.023,0.011-0.12,0.012-0.205,0.012H13.82c-0.167,0-0.336-0.001-0.505,0.001
			c-0.394,0.004-0.521,0.131-0.521,0.52c-0.002,0.666-0.001,1.332-0.001,1.997v5.133c-0.001,0.046-0.002,0.098-0.005,0.127
			c-0.03,0.004-0.083,0.004-0.128,0.004c-0.297,0.001-0.593,0.002-0.89,0.001l-0.439,0.001c-0.03,0.001-0.065,0-0.087,0
			c-0.006-0.042-0.005-0.123-0.005-0.161c0.002-0.56,0.001-1.12,0.001-1.681L11.239,16.452z M9.61,18.84
			c0-0.676,0-1.352,0.001-2.029c0-0.015,0-0.044,0.001-0.066c0.018-0.001,0.038-0.001,0.05-0.001
			c0.143-0.002,0.285-0.001,0.424-0.001c0.107,0,0.215,0,0.335-0.01c0,0,0.004,0.01,0.004,0.039
			c-0.002,0.332-0.001,0.662-0.001,0.993l0.001,0.802c0,0.316,0.001,0.63-0.001,0.946c-0.001,0.087-0.006,0.117-0.001,0.117
			c-0.009,0.005-0.037,0.011-0.121,0.013c-0.2,0.006-0.399,0.007-0.599-0.001c-0.044-0.001-0.066-0.005-0.073-0.005
			c-0.003,0-0.004,0.001-0.004,0.002c-0.003-0.008-0.009-0.031-0.014-0.122V18.84z M10.423,20.553c0.002,0.605,0.003,1.211,0,1.816
			c0,0.019,0,0.047-0.001,0.07c-0.026,0.002-0.06,0.002-0.082,0.002c-0.794,0.002-1.588,0.001-2.38,0.001H6.76
			c-0.136,0-0.271,0.001-0.407,0.001c-0.224,0-0.436,0.01-0.684-0.003c-0.001-0.024-0.001-0.055-0.001-0.076
			c-0.001-0.651-0.001-1.301-0.001-1.952v-1.516c0-0.685,0-1.372,0.001-2.058c0-0.029,0-0.067,0.002-0.093
			c0.026-0.002,0.064-0.002,0.09-0.002c0.986-0.002,1.973-0.001,2.959,0c0.02,0,0.051,0,0.075,0.001
			c0.001,0.023,0.001,0.054,0.001,0.075l0.001,1.367c0,0.508,0,1.014,0.001,1.522c0,0.113,0.005,0.247,0.036,0.377
			c0.063,0.272,0.182,0.37,0.455,0.376c0.125,0.003,0.249,0.004,0.374,0.004c0.161,0,0.324-0.002,0.485-0.002
			c0.088,0,0.194-0.003,0.276,0.004C10.423,20.493,10.423,20.528,10.423,20.553z"/>
	</g>
</g>
</svg>
