<?xml version="1.0" encoding="utf-8"?>
<!-- Generator: Adobe Illustrator 22.0.1, SVG Export Plug-In . SVG Version: 6.00 Build 0)  -->
<svg version="1.1" id="Layer_1" xmlns="http://www.w3.org/2000/svg" xmlns:xlink="http://www.w3.org/1999/xlink" x="0px" y="0px"
	 viewBox="0 0 32 32" style="enable-background:new 0 0 32 32;" xml:space="preserve">
<style type="text/css">
	.st0{fill:#FFFFFF;}
</style>
<g>
	<circle class="st0" cx="15.917" cy="16" r="14.917"/>
	<g>
		<path d="M15.998,31.71C7.322,31.704,0.272,24.646,0.286,15.98C0.3,7.297,7.335,0.285,16.028,0.29
			c8.68,0.005,15.695,7.043,15.686,15.738C31.705,24.685,24.658,31.716,15.998,31.71z M16.003,2.28
			C8.422,2.285,2.295,8.425,2.297,16.014C2.3,23.575,8.439,29.708,16.004,29.708c7.581,0,13.714-6.144,13.706-13.731
			C29.701,8.412,23.56,2.275,16.003,2.28z"/>
		<path d="M20.89,11.8c1.062-0.804,2.104-1.593,3.163-2.395c0.839,1.001,1.424,2.12,1.853,3.341c0.765,0,1.515,0,2.325,0
			c0.126,0.706,0.25,1.403,0.382,2.148c-0.765,0-1.473,0-2.202,0c0,0.529,0,1.018,0,1.551c0.734,0,1.443,0,2.242,0
			c-0.093,0.697-0.171,1.34-0.277,1.978c-0.012,0.072-0.188,0.163-0.291,0.167c-0.521,0.017-1.044,0.029-1.564,0
			c-0.323-0.018-0.438,0.096-0.559,0.396c-0.357,0.883-0.776,1.742-1.177,2.607c-0.055,0.118-0.147,0.218-0.233,0.342
			c-0.685-0.52-1.349-1.023-2.038-1.545c1.398-2.228,1.703-4.573,0.842-7.116c-0.146,0.103-0.251,0.176-0.354,0.251
			c-2.208,1.603-4.419,3.201-6.619,4.816c-0.274,0.201-0.451,0.227-0.743,0.012c-2.187-1.611-4.39-3.2-6.588-4.796
			c-0.116-0.084-0.236-0.164-0.402-0.279c-0.844,2.523-0.565,4.867,0.846,7.111c-0.675,0.513-1.347,1.023-2.04,1.548
			c-0.651-0.92-1.122-1.896-1.422-2.95c-0.083-0.292-0.197-0.413-0.515-0.396c-0.52,0.029-1.043,0.002-1.564,0.01
			c-0.209,0.003-0.336-0.035-0.363-0.283c-0.063-0.601-0.153-1.199-0.239-1.847c0.767,0,1.475,0,2.234,0c0-0.53,0-1.019,0-1.551
			c-0.675,0-1.385,0-2.186,0c0.127-0.749,0.244-1.443,0.367-2.17c0.705,0,1.369-0.01,2.033,0.005
			c0.233,0.005,0.337-0.07,0.415-0.292c0.388-1.108,0.963-2.113,1.736-3.06c1.053,0.798,2.1,1.591,3.168,2.4
			c1.318-1.453,2.941-2.23,4.887-2.23C17.956,9.571,19.576,10.357,20.89,11.8z M18.919,13.291c-1.543-1.839-4.593-1.615-5.815,0.011
			c0.656,0.496,1.312,0.993,1.97,1.487c0.299,0.224,0.607,0.617,0.907,0.613c0.318-0.004,0.637-0.379,0.944-0.608
			C17.593,14.298,18.254,13.793,18.919,13.291z"/>
		<path d="M9.696,15.03c0.757,0.542,1.508,1.073,2.248,1.618c0.084,0.062,0.126,0.198,0.158,0.308
			c0.502,1.737,1.638,2.795,3.43,3.019c1.701,0.213,3.012-0.505,3.941-1.938c0.059-0.092,0.164-0.217,0.25-0.219
			c0.797-0.017,1.595-0.01,2.463-0.01c-0.696,2.089-1.996,3.547-4.026,4.238c-2.548,0.867-4.833,0.321-6.76-1.566
			C9.925,19.039,9.29,16.768,9.696,15.03z"/>
	</g>
</g>
</svg>
