<?xml version="1.0" encoding="utf-8"?>
<!-- Generator: Adobe Illustrator 25.3.1, SVG Export Plug-In . SVG Version: 6.00 Build 0)  -->
<svg version="1.1" id="Layer_1" xmlns="http://www.w3.org/2000/svg" xmlns:xlink="http://www.w3.org/1999/xlink" x="0px" y="0px"
	 viewBox="0 0 32 32" style="enable-background:new 0 0 32 32;" xml:space="preserve">
<style type="text/css">
	.st0{fill:#508BE0;}
	.st1{fill:#461B00;}
	.st2{fill:#6699FF;}
	.st3{fill:#2F9D1E;}
	.st4{fill:#3AC125;}
	.st5{fill:#7ED732;}
	.st6{fill:#E6E6E6;}
	.st7{fill:#C2C2C2;}
	.st8{fill:#CCCCCC;}
	.st9{fill:#FFFFFF;}
	.st10{fill:#CF8F5B;}
	.st11{fill:#FFB170;}
	.st12{fill:#6E2D1D;}
	.st13{fill:#873824;}
	.st14{fill:#FFDEC2;}
</style>
<g id="Layer_x0020_1">
	<g id="_530459392">
		<path class="st0" d="M15.978,0.14c8.776,0,15.86,7.083,15.86,15.86c0,5.613-2.896,10.514-7.262,13.365
			C9.073,33.82,1.232,21.792,1.232,21.792C0.519,20.01,0.163,18.049,0.163,16C0.118,7.224,7.246,0.14,15.978,0.14z"/>
		<path class="st1" d="M1.232,21.792c1.381-1.916,2.673-2.851,3.119-5.168c0.624-3.297,0.535-7.752,4.054-10.692
			c1.916-1.648,4.722-2.272,7.262-2.272c5.212,0,9.311,2.183,10.514,7.217c0.089,0.356,0.178,0.757,0.223,1.158
			c0.846,2.361,0.668,4.455,0.445,5.97c-0.223,1.337-0.356,2.317-0.49,3.653c-0.312,2.628-0.757,5.301-1.782,7.707
			c-0.535,0.312-1.025,0.624-1.559,0.891l0,0c-6.549,2.138-13.632,0.178-13.632,0.178l0,0c-0.223-0.089-0.445-0.223-0.668-0.312l0,0
			c-3.163-2.361-7.083-7.44-7.083-7.44l0,0C1.499,22.415,1.321,22.103,1.232,21.792z"/>
		<path class="st2" d="M6.177,20.188L6.177,20.188L6.177,20.188z"/>
		<path class="st3" d="M9.429,28.118c0.401-2.584-0.713-5.257-1.47-6.237c-0.846-1.069-1.515-1.559-1.782-1.737l0,0l-0.089-0.089
			v0.045c1.381,2.94,1.069,5.702-0.045,8.242c0.802,0.624,1.693,1.203,2.584,1.693C9.028,29.543,9.295,28.92,9.429,28.118z"/>
		<path class="st4" d="M25.289,11.411c-0.045-0.134-0.089-0.312-0.134-0.49c-1.247-4.99-8.464-6.772-13.41-4.5
			C4.885,9.585,7.558,16.579,5.33,19.787c-1.158,0.891-2.361,2.272-3.341,3.742c1.114,2.005,2.628,3.787,4.5,5.123
			c1.336-2.762,1.604-5.792-0.356-8.509c1.827,0.535,2.985,2.495,3.074,2.673c1.025-1.47,1.827-5.168,2.227-7.262
			C13.171,6.199,24.175,7.224,25.289,11.411z"/>
		<path class="st5" d="M25.155,10.921c-1.158-4.41-8.331-6.638-13.231-4.41C9.34,7.714,7.558,10.119,6.89,13.728
			c-0.401,2.183-0.445,4.277-1.292,5.613c-1.114,1.871-2.406,2.673-3.564,4.321c-0.178-0.312-0.312-0.624-0.49-0.98
			c1.203-1.827,2.495-2.896,2.94-3.653c0.802-1.47,1.069-4.856,1.337-6.237c0.356-2.094,1.336-5.702,5.569-7.306
			s9.177-0.624,11.449,1.648C24.353,8.471,24.932,9.941,25.155,10.921z"/>
		<path class="st6" d="M25.333,11.857c-0.223-4.41-11.227-6.014-13.766,0.936c-0.936,2.584-0.668,6.549-2.361,10.024
			c0.134,0.223,0.223,0.446,0.312,0.668c0.312,0.757,0.579,1.559,0.668,2.361c0.356,2.272,3.787,4.9,7.039,4.856
			c6.593-0.089,7.173-3.831,7.173-3.876c0.356-1.203,0.579-2.495,0.713-3.876c0.134-1.337,0.624-3.92,0.312-5.079
			c-0.267-1.025-0.713-1.025-1.737-1.203c0,0-0.089,0.579,0.089,1.025c0.223-0.089,0.356-0.134,0.535-0.223
			c1.158-0.668,0.802,4.767-3.43,4.455c-3.341-0.267-3.787-5.034-3.163-7.574c0.49-2.094,1.737-3.519,3.965-3.742
			C23.061,10.476,24.442,10.921,25.333,11.857z"/>
		<path class="st7" d="M15.978,31.86c2.539,0,4.901-0.579,7.039-1.604c0.579-1.025,1.069-2.138,1.426-3.386
			c-1.604,3.965-10.38,5.569-14.211-0.891l-0.045-0.134c0.223,1.515,0.045,2.985-0.713,4.321c-0.045,0.089-0.089,0.178-0.134,0.223
			C11.478,31.37,13.706,31.86,15.978,31.86z"/>
		<path class="st1" d="M13.617,8.961c1.381,0,2.45,1.114,2.45,2.45c0,1.381-1.069,2.45-2.45,2.45c-1.337,0-2.45-1.069-2.45-2.45
			c0-0.356,0.089-0.713,0.223-1.025c-0.446,0.089-1.069,0.045-1.203-0.579c-0.045-0.223,0-0.312,0.089-0.267
			c0.223,0.045,0.178,0.312,0.668,0.356c0.713,0.089,1.025-0.356,1.559-0.624C12.815,9.05,13.216,8.961,13.617,8.961z"/>
		<path class="st8" d="M15.443,11.055c0.045,0.134,0.045,0.223,0.045,0.312c0,1.025-0.846,1.871-1.827,1.871
			c-0.401,0-0.757-0.134-1.069-0.356c0.223,0.089,0.535,0.178,0.802,0.178C14.463,13.06,15.354,12.169,15.443,11.055z"/>
		<path class="st9" d="M12.681,10.209c0.267,0,0.535,0.223,0.535,0.535s-0.223,0.535-0.535,0.535c-0.312,0-0.49-0.223-0.49-0.535
			S12.369,10.209,12.681,10.209z"/>
		<path class="st10" d="M18.473,14.352c-0.045,0.624,0.089,1.515,1.069,1.693c0.713,0.134,5.212-0.579,6.282,0.891
			c-0.846-2.628-4.277-1.782-5.613-1.693C19.586,15.287,18.918,15.154,18.473,14.352z"/>
		<path class="st10" d="M24.086,18.183c0.178,0.178-0.045,2.718-2.539,2.94c-2.272,0.223-3.43-2.138-3.341-4.544
			C19.408,18.317,22.259,19.698,24.086,18.183z"/>
		<path class="st11" d="M18.25,15.911c0,0,1.47,2.138,3.252,2.45c1.381,0.267,2.495-0.178,2.539-0.178l0.045,0.045
			c-0.267,0.401-0.891,0.846-2.227,0.802c-1.292-0.045-3.029-1.114-3.609-2.406C18.205,16.356,18.205,16.134,18.25,15.911z"/>
		<path class="st12" d="M19.141,16.401c0.178,0.089,0.624,0.267,1.47,0.134c0.223-0.045,0.49-0.045,0.713-0.045
			c0.223,0.445,0.445,1.025,0.624,1.337C20.477,17.648,19.497,16.757,19.141,16.401z"/>
		<path class="st11" d="M18.473,14.084c0,0.089-0.045,0.178-0.045,0.267c0.134,0.446,0.356,0.936,1.025,1.025
			c1.203,0.223,5.524-0.98,6.371,1.559c0,0,0.757-4.455-2.718-5.391c-1.381-0.356-2.628,0-3.074,0.356
			c-0.668,0.579-0.401,0.891-0.668,1.158C18.963,13.639,18.606,13.461,18.473,14.084z"/>
		<path class="st13" d="M21.324,16.49c0.891-0.045,1.604,0.089,1.604,0.089s-0.089,0.49,0.045,0.936
			c0.045,0.134,0.089,0.223,0.089,0.267c-0.446,0.089-0.846,0.089-1.203,0.045C21.502,17.381,21.368,16.846,21.324,16.49z"/>
		<path class="st14" d="M19.943,12.703c0,0,0.312-1.025,2.272-0.98c1.559,0.045,3.252,1.515,3.341,3.43
			C25.556,15.154,23.774,10.966,19.943,12.703z"/>
	</g>
</g>
</svg>
