<?xml version="1.0" encoding="utf-8"?>
<!-- Generator: Adobe Illustrator 25.3.1, SVG Export Plug-In . SVG Version: 6.00 Build 0)  -->
<svg version="1.1" id="Layer_1" xmlns="http://www.w3.org/2000/svg" xmlns:xlink="http://www.w3.org/1999/xlink" x="0px" y="0px"
	 viewBox="0 0 32 32" style="enable-background:new 0 0 32 32;" xml:space="preserve">
<style type="text/css">
	.st0{fill:#E37F24;}
	.st1{fill:#2E2B29;}
</style>
<g>
	<circle class="st0" cx="16" cy="16.016" r="16"/>
	<g>
		<path class="st0" d="M13.099,0.32c1.934,0,3.868,0,5.802,0c0.051,0.156,0.188,0.149,0.315,0.177
			c2.242,0.492,4.321,1.372,6.162,2.746c3.217,2.401,5.26,5.577,6.131,9.5c0.026,0.118,0.036,0.232,0.171,0.278
			c0,1.986,0,3.972,0,5.958c-0.153,0.107-0.163,0.281-0.199,0.44c-0.266,1.174-0.647,2.31-1.167,3.395
			c-1.005,2.094-2.387,3.9-4.179,5.385c-1.709,1.416-3.635,2.417-5.766,3.037c-0.465,0.135-0.981,0.128-1.389,0.444
			c-2.012,0-4.025,0-6.037,0c-0.066-0.189-0.245-0.172-0.39-0.206c-2.92-0.687-5.477-2.04-7.62-4.151
			c-2.159-2.127-3.597-4.665-4.305-7.614c-0.053-0.222-0.12-0.428-0.308-0.573c0-2.012,0-4.025,0-6.037
			c0.147-0.109,0.172-0.278,0.214-0.438c0.148-0.567,0.26-1.147,0.452-1.699c1.33-3.831,3.748-6.766,7.277-8.781
			c1.405-0.802,2.913-1.321,4.485-1.669C12.882,0.483,13.043,0.495,13.099,0.32z M16.046,3.491C9.06,3.493,3.478,9.057,3.483,16.014
			c0.004,6.914,5.626,12.526,12.548,12.527c6.869,0.001,12.51-5.625,12.507-12.481C28.535,9.059,22.946,3.54,16.046,3.491z"/>
		<path class="st1" d="M16.046,3.491c6.9,0.049,12.489,5.568,12.492,12.569c0.003,6.857-5.638,12.482-12.507,12.481
			C9.109,28.541,3.487,22.929,3.483,16.014C3.478,9.057,9.06,3.493,16.046,3.491z M16.981,24.581
			c1.261-0.126,2.814,0.233,4.326-0.262c0.674-0.221,1.318-0.48,1.862-0.943c0.892-0.758,1.341-1.747,1.439-2.895
			c0.119-1.387,0.035-2.756-0.789-3.941c-0.31-0.446-0.362-0.715-0.018-1.193c0.851-1.181,0.925-2.57,0.807-3.971
			c-0.073-0.872-0.367-1.671-0.924-2.354c-0.888-1.086-2.146-1.605-3.446-1.684c-2.33-0.142-4.675-0.048-7.014-0.042
			c-0.336,0.001-0.529,0.197-0.529,0.546c-0.001,0.928,0.003,1.855-0.002,2.783c-0.001,0.248,0.099,0.353,0.35,0.352
			c1.058-0.007,2.117-0.004,3.175-0.007c0.115,0,0.276,0.024,0.311-0.108c0.102-0.388,0.28-0.219,0.468-0.088
			c0.778,0.543,1.558,1.085,2.337,1.627c0.142,0.099,0.152,0.173-0.006,0.285c-0.849,0.603-1.691,1.217-2.534,1.828
			c-0.067,0.049-0.16,0.101-0.19-0.005c-0.107-0.389-0.424-0.289-0.677-0.29c-1.633-0.011-3.266-0.009-4.899-0.011
			c-0.221,0-0.458,0.043-0.463-0.307c-0.003-0.182-0.138-0.212-0.277-0.123c-0.197,0.126-0.384,0.268-0.574,0.405
			c-0.708,0.512-1.415,1.024-2.122,1.537c-0.186,0.135-0.23,0.267-0.01,0.419c0.192,0.133,0.372,0.283,0.561,0.422
			c0.663,0.485,1.323,0.973,1.993,1.446c0.121,0.086,0.36,0.32,0.414-0.003c0.062-0.372,0.272-0.346,0.524-0.345
			c1.672,0.002,3.345,0.003,5.017-0.003c0.169-0.001,0.414,0.078,0.477-0.154c0.072-0.267,0.165-0.189,0.312-0.082
			c0.789,0.575,1.58,1.149,2.376,1.715c0.162,0.115,0.188,0.211,0.024,0.328c-0.805,0.577-1.611,1.153-2.419,1.725
			c-0.079,0.056-0.202,0.144-0.255-0.014c-0.097-0.292-0.337-0.258-0.549-0.259c-0.98-0.006-1.96,0.009-2.94-0.001
			c-0.325-0.003-0.433,0.124-0.427,0.443c0.015,0.862,0.003,1.725,0.007,2.587c0.003,0.541,0.096,0.633,0.647,0.635
			C14.467,24.583,15.591,24.581,16.981,24.581z"/>
		<path class="st0" d="M16.981,24.581c-1.39,0-2.514,0.003-3.637-0.001c-0.551-0.002-0.644-0.095-0.647-0.635
			c-0.004-0.862,0.008-1.725-0.007-2.587c-0.006-0.318,0.102-0.446,0.427-0.443c0.98,0.01,1.96-0.004,2.94,0.001
			c0.212,0.001,0.452-0.033,0.549,0.259c0.052,0.158,0.175,0.07,0.255,0.014c0.808-0.572,1.614-1.148,2.419-1.725
			c0.164-0.118,0.138-0.213-0.024-0.328c-0.796-0.566-1.586-1.14-2.376-1.715c-0.147-0.107-0.24-0.185-0.312,0.082
			c-0.063,0.232-0.307,0.154-0.477,0.154c-1.672,0.006-3.345,0.005-5.017,0.003c-0.253,0-0.462-0.027-0.524,0.345
			c-0.054,0.322-0.292,0.088-0.414,0.003c-0.671-0.473-1.331-0.961-1.993-1.446c-0.189-0.138-0.369-0.289-0.561-0.422
			c-0.22-0.152-0.176-0.284,0.01-0.419c0.707-0.512,1.414-1.025,2.122-1.537c0.19-0.137,0.377-0.279,0.574-0.405
			c0.139-0.089,0.275-0.059,0.277,0.123c0.005,0.35,0.242,0.307,0.463,0.307c1.633,0.002,3.266,0.001,4.899,0.011
			c0.254,0.002,0.57-0.099,0.677,0.29c0.029,0.106,0.122,0.054,0.19,0.005c0.844-0.611,1.685-1.225,2.534-1.828
			c0.158-0.112,0.148-0.186,0.006-0.285c-0.779-0.542-1.559-1.084-2.337-1.627c-0.188-0.131-0.366-0.3-0.468,0.088
			c-0.035,0.132-0.196,0.108-0.311,0.108c-1.058,0.003-2.117,0-3.175,0.007c-0.251,0.002-0.351-0.104-0.35-0.352
			c0.005-0.928,0.001-1.855,0.002-2.783c0.001-0.35,0.193-0.545,0.529-0.546c2.339-0.005,4.683-0.099,7.014,0.042
			c1.3,0.079,2.559,0.597,3.446,1.684c0.557,0.682,0.85,1.482,0.924,2.354c0.118,1.401,0.044,2.789-0.807,3.971
			c-0.344,0.478-0.292,0.747,0.018,1.193c0.824,1.185,0.908,2.554,0.789,3.941c-0.099,1.148-0.548,2.137-1.439,2.895
			c-0.544,0.462-1.188,0.722-1.862,0.943C19.795,24.814,18.242,24.455,16.981,24.581z"/>
	</g>
</g>
</svg>
