<svg id="Layer_1" data-name="Layer 1" xmlns="http://www.w3.org/2000/svg" viewBox="0 0 32 32"><defs><style>.cls-1{fill:#ba8344;}.cls-2{fill:#4f2b5d;}.cls-3{fill:#b39dac;}</style></defs><circle class="cls-1" cx="16" cy="16" r="16"/><circle class="cls-2" cx="16" cy="16" r="13.611"/><path class="cls-3" d="M19.334,12.316c0,.57-.006,1.14,0,1.71a1.952,1.952,0,0,1-1.14,1.837c-.142.077-.261.123-.264.31a.391.391,0,0,0,.233.39,2.321,2.321,0,0,1,1.247,2.224c-.015.975.017,1.95.015,2.925a2.574,2.574,0,0,1-2.56,2.634c-1.185.028-2.37.011-3.555.038-.34.008-.43-.105-.432-.436-.011-2.069-.019-4.139-.075-6.207-.068-2.459-.026-4.919-.091-7.377a9.15,9.15,0,0,0-.122-2.009c-.071-.282.057-.4.357-.4,1.259-.011,2.518-.054,3.777-.061a2.593,2.593,0,0,1,2.579,2.488c.023.644,0,1.29,0,1.935Zm-2.167.2h-.021c0-.553.011-1.107,0-1.66a.906.906,0,0,0-.911-.966c-.282-.024-.57.012-.852-.012-.367-.032-.5.1-.483.477.044,1.27.057,2.541.076,3.811.015,1.062.01,1.062,1.081,1.019a1.071,1.071,0,0,0,1.112-1.144C17.174,13.533,17.167,13.024,17.167,12.516ZM14.994,19.8h.073c0,.749,0,1.5,0,2.247,0,.183.018.331.258.319a8.6,8.6,0,0,0,1.211-.047.79.79,0,0,0,.71-.8c.018-1.064,0-2.128-.011-3.192a1.187,1.187,0,0,0-1.181-1.1,2.6,2.6,0,0,1-.629,0c-.328-.035-.45.074-.438.422C15.012,18.358,14.994,19.078,14.994,19.8Z"/></svg>