<?xml version="1.0" encoding="utf-8"?>
<!-- Generator: Adobe Illustrator 26.2.1, SVG Export Plug-In . SVG Version: 6.00 Build 0)  -->
<svg version="1.1" id="Layer_1" xmlns="http://www.w3.org/2000/svg" xmlns:xlink="http://www.w3.org/1999/xlink" x="0px" y="0px"
	 viewBox="0 0 32 32" style="enable-background:new 0 0 32 32;" xml:space="preserve">
<style type="text/css">
	.st0{fill:#212738;}
</style>
<path class="st0" d="M20.979,19.822c0.284-0.316,0.506-0.683,0.653-1.082c0.147-0.393,0.222-0.808,0.223-1.228
	c0.002-0.462-0.09-0.92-0.272-1.346c-0.35-0.831-1.01-1.494-1.839-1.847c-0.427-0.183-0.888-0.276-1.352-0.272h-4.965
	c0,1.275,1.033,2.309,2.308,2.309h2.654c0.638,0,1.155,0.517,1.155,1.155l0,0c0.005,0.313-0.122,0.615-0.35,0.829
	c-0.219,0.21-0.51,0.327-0.814,0.325h-5.764v-2.309l0,0c0-1.275-1.034-2.309-2.309-2.309h0l0,0v11.547l0,0
	c1.275,0,2.309-1.034,2.309-2.309l0,0l0,0v-2.31h5.775c0.638,0.003,1.152,0.522,1.149,1.16c-0.003,0.638-0.522,1.152-1.16,1.149
	h-2.645c-1.275,0.001-2.308,1.034-2.308,2.31h4.964c0.465,0.004,0.925-0.089,1.352-0.272c0.83-0.354,1.489-1.016,1.839-1.847
	c0.182-0.424,0.274-0.882,0.272-1.343c0-0.42-0.075-0.836-0.222-1.229C21.484,20.505,21.263,20.138,20.979,19.822z"/>
<path class="st0" d="M26.509,15.188c-0.597-1.414-1.463-2.699-2.55-3.783c-0.412-0.412-0.853-0.793-1.32-1.141V8.859l0.988-3.097
	c0.535-0.029,0.945-0.487,0.916-1.022c-0.029-0.535-0.487-0.945-1.022-0.916c-0.535,0.029-0.945,0.487-0.916,1.022
	c0.01,0.183,0.072,0.359,0.177,0.508c-0.195,0.332-0.391,0.612-0.57,0.814c-0.437,0.491-0.822,0.741-1.143,0.741
	c-0.112,0-0.221-0.03-0.317-0.087c-0.382-0.217-0.367-0.734-0.314-1.059c0.535-0.027,0.948-0.482,0.921-1.018
	c-0.027-0.535-0.482-0.948-1.018-0.921c-0.517,0.026-0.922,0.452-0.922,0.969c-0.001,0.199,0.061,0.393,0.175,0.556
	c-0.229,0.25-0.598,0.563-1.019,0.563c-0.063,0-0.126-0.007-0.188-0.02c-0.831-0.182-1.464-1.189-2.169-3.464
	c0.527-0.388,0.639-1.13,0.251-1.656c-0.388-0.527-1.13-0.639-1.656-0.251s-0.639,1.13-0.251,1.656
	c0.079,0.107,0.175,0.2,0.285,0.275c-0.704,2.259-1.334,3.257-2.163,3.438c-0.062,0.013-0.125,0.02-0.188,0.02
	c-0.438,0-0.817-0.332-1.051-0.597c0.322-0.428,0.235-1.037-0.193-1.358c-0.428-0.322-1.037-0.235-1.358,0.193
	c-0.322,0.428-0.235,1.037,0.193,1.358c0.155,0.116,0.341,0.184,0.534,0.193c0.055,0.46-0.024,0.968-0.298,1.119
	c-0.109,0.063-0.233,0.096-0.359,0.098c-0.34,0-0.71-0.25-1.099-0.742C8.662,5.911,8.476,5.636,8.308,5.35
	c0.308-0.439,0.202-1.044-0.237-1.352C7.632,3.69,7.027,3.797,6.719,4.235C6.411,4.674,6.517,5.279,6.956,5.587
	c0.144,0.101,0.312,0.161,0.486,0.173l0.992,3.104v1.411c-0.462,0.345-0.898,0.722-1.306,1.129
	C2.485,16.055,2.49,23.588,7.139,28.232s12.183,4.638,16.826-0.011C27.383,24.798,28.389,19.646,26.509,15.188L26.509,15.188z
	 M15.544,29.558c-5.378,0-9.737-4.359-9.737-9.737s4.359-9.737,9.737-9.737s9.737,4.36,9.737,9.737S20.922,29.558,15.544,29.558
	L15.544,29.558z"/>
</svg>
