<?xml version="1.0" encoding="utf-8"?>
<!-- Generator: Adobe Illustrator 22.0.1, SVG Export Plug-In . SVG Version: 6.00 Build 0)  -->
<svg version="1.1" id="Layer_1" xmlns="http://www.w3.org/2000/svg" xmlns:xlink="http://www.w3.org/1999/xlink" x="0px" y="0px"
	 viewBox="0 0 32 32" style="enable-background:new 0 0 32 32;" xml:space="preserve">
<style type="text/css">
	.st0{fill:#1857A4;}
	.st1{fill:#FEDC00;}
	.st2{fill:#FDDC00;}
</style>
<circle class="st0" cx="16" cy="16" r="15.84"/>
<g>
	<g>
		<path class="st1" d="M16.612,13.566c2.039,0,4.077,0.021,6.116-0.007c1.458-0.02,2.405,0.788,3.224,1.847
			c0.154,0.199,0.201,0.44,0.151,0.688c-0.335,1.663-1.179,2.901-2.861,3.455c-0.844,0.278-1.709,0.382-2.59,0.383
			c-2.959,0.004-5.919-0.009-8.878,0.013c-0.458,0.003-0.675-0.123-0.758-0.577c-0.09-0.494-0.214-0.987-0.377-1.462
			c-0.191-0.553,0.008-0.665,0.535-0.662c3.529,0.02,7.058,0.006,10.587,0.027c0.495,0.003,0.751-0.128,0.881-0.635
			c0.111-0.431,0.036-0.527-0.397-0.522c-1.644,0.02-3.288,0.008-4.932,0.009c-2.148,0.001-4.297-0.01-6.444,0.016
			c-0.506,0.006-0.791-0.135-0.85-0.656c-0.022-0.194-0.092-0.383-0.14-0.574c-0.338-1.343-0.338-1.343,1.079-1.343
			C12.842,13.566,14.727,13.566,16.612,13.566z"/>
		<path class="st1" d="M25.434,9.848c2.104,0.834,2.391,1.495,1.548,3.6c-0.08,0.199-0.199,0.393-0.34,0.554
			c-0.339,0.39-0.668,0.667-1.145,0.098c-0.336-0.401-0.84-0.625-1.332-0.822c-0.164-0.066-0.384-0.121-0.303-0.346
			c0.235-0.655-0.255-0.474-0.544-0.474c-4.45-0.004-8.899,0-13.349,0.003c-0.303,0-0.623,0.056-0.834-0.249
			c-0.088-0.231-0.265-0.421-0.307-0.674c0.002-0.113,0.037-0.214,0.106-0.304c0.125-0.129,0.283-0.189,0.459-0.21
			c0.561-0.067,0.983-0.285,1.075-0.917c0.028-0.191,0.153-0.357,0.375-0.4c4.628,0.164,9.256,0.029,13.884,0.076
			C24.964,9.785,25.209,9.72,25.434,9.848z"/>
		<path class="st2" d="M4.554,10.508C4.256,9.82,4.175,9.075,3.977,8.361C3.899,8.079,4,7.953,4.298,7.959
			c1.684,0.035,3.37-0.07,5.054,0.056c0.16,0.143,0.245,0.339,0.359,0.515c0.076,0.438,0.369,0.816,0.358,1.28
			c0.132,0.82-0.159,1.204-0.899,1.074c-1.173-0.207-2.352-0.179-3.531-0.182C5.265,10.7,4.893,10.699,4.554,10.508z"/>
		<path class="st2" d="M14.034,20.905c1.041,0.006,1.872,0.829,1.88,1.863c0.008,1.049-0.867,1.922-1.916,1.913
			c-1.037-0.009-1.859-0.84-1.863-1.883C12.131,21.712,12.946,20.899,14.034,20.905z"/>
		<path class="st2" d="M17.916,22.807c-0.007-1.091,0.759-1.891,1.82-1.903c1.105-0.012,1.917,0.79,1.913,1.888
			c-0.004,1.056-0.82,1.882-1.866,1.889C18.734,24.687,17.923,23.873,17.916,22.807z"/>
		<path class="st2" d="M9.779,9.713c0.287,0.175,0.619,0.015,0.915,0.123c0.028,1.196-0.265,1.446-1.706,1.458
			c-0.131,0.039-0.221-0.029-0.302-0.117c-0.126-0.27-0.339-0.355-0.633-0.349c-0.695,0.014-1.391-0.005-2.086,0.008
			c-0.438,0.008-0.866-0.027-1.283-0.163c-0.043-0.055-0.087-0.11-0.13-0.165c1.568,0.053,3.138-0.094,4.706,0.099
			C9.932,10.69,9.979,10.572,9.779,9.713z"/>
	</g>
	<polygon class="st2" points="11.344,9.723 7.624,9.706 9.236,12.322 11.344,9.813 	"/>
</g>
</svg>
