<svg id="Layer_1" data-name="Layer 1" xmlns="http://www.w3.org/2000/svg" xmlns:xlink="http://www.w3.org/1999/xlink" viewBox="0 0 24.712 30.136"><defs><style>.cls-1{fill:url(#linear-gradient);}.cls-2{fill:url(#linear-gradient-2);}.cls-3{fill:url(#linear-gradient-3);}.cls-4{fill:url(#linear-gradient-4);}.cls-5{fill:url(#linear-gradient-5);}.cls-6{fill:url(#linear-gradient-6);}</style><linearGradient id="linear-gradient" x1="16.002" y1="32.874" x2="16.002" y2="3.126" gradientTransform="matrix(1, 0, 0, -1, -3.644, 33.068)" gradientUnits="userSpaceOnUse"><stop offset="0" stop-color="#fcc215"/><stop offset="0.713" stop-color="#f3903f"/><stop offset="1" stop-color="#ed683c"/></linearGradient><linearGradient id="linear-gradient-2" x1="16.003" y1="33.068" x2="16.003" y2="2.932" gradientTransform="matrix(1, 0, 0, -1, 0, 34)" xlink:href="#linear-gradient"/><linearGradient id="linear-gradient-3" x1="25.414" y1="20.762" x2="25.414" y2="15.264" gradientTransform="matrix(1, 0, 0, -1, -3.644, 33.068)" gradientUnits="userSpaceOnUse"><stop offset="0" stop-color="#fcc215"/><stop offset="1" stop-color="#f3903f"/></linearGradient><linearGradient id="linear-gradient-4" x1="25.414" y1="20.953" x2="25.414" y2="15.07" gradientTransform="matrix(1, 0, 0, -1, 0, 34)" xlink:href="#linear-gradient-3"/><linearGradient id="linear-gradient-5" x1="6.586" y1="20.764" x2="6.586" y2="15.266" xlink:href="#linear-gradient-3"/><linearGradient id="linear-gradient-6" x1="6.586" y1="20.954" x2="6.586" y2="15.072" gradientTransform="matrix(1, 0, 0, -1, 0, 34)" xlink:href="#linear-gradient-3"/></defs><polygon class="cls-1" points="12.356 8.389 17.083 13.115 19.832 10.366 14.3 4.835 14.3 0.194 10.413 0.194 10.413 4.835 4.884 10.364 14.298 19.778 12.356 21.72 7.632 16.995 4.884 19.744 10.413 25.273 10.413 29.942 14.3 29.942 14.3 25.273 19.833 19.741 10.419 10.326 12.356 8.389"/><path class="cls-2" d="M17.944,31.068H14.056a.193.193,0,0,1-.193-.194V26.285L8.391,20.813a.193.193,0,0,1,0-.274l2.748-2.748a.193.193,0,0,1,.274,0L16,22.378l1.668-1.668L8.391,11.433a.193.193,0,0,1,0-.274l5.472-5.473V1.126a.194.194,0,0,1,.194-.194h3.888a.194.194,0,0,1,.194.194V5.687l5.475,5.475a.2.2,0,0,1,0,.274l-2.749,2.749a.193.193,0,0,1-.274,0L16,9.6,14.338,11.26l9.277,9.277a.192.192,0,0,1,0,.273l-5.476,5.477v4.589A.2.2,0,0,1,17.944,31.068ZM14.25,30.68h3.5V26.205a.2.2,0,0,1,.057-.138l5.4-5.395L13.926,11.4a.194.194,0,0,1,0-.273l1.938-1.938a.2.2,0,0,1,.274,0l4.589,4.589L23.2,11.3,17.808,5.9a.191.191,0,0,1-.057-.137V1.32h-3.5V5.767a.194.194,0,0,1-.057.138L8.8,11.3l9.277,9.277a.192.192,0,0,1,0,.273l-1.941,1.942a.2.2,0,0,1-.273,0L11.277,18.2,8.8,20.676,14.2,26.068a.2.2,0,0,1,.057.137V30.68Z" transform="translate(-3.644 -0.932)"/><polygon class="cls-3" points="21.771 12.307 19.022 15.056 21.77 17.804 24.519 15.055 21.771 12.307"/><path class="cls-4" d="M25.414,18.93a.2.2,0,0,1-.137-.057l-2.749-2.749a.193.193,0,0,1,0-.274L25.277,13.1a.2.2,0,0,1,.273,0L28.3,15.85a.193.193,0,0,1,0,.274L25.55,18.873A.19.19,0,0,1,25.414,18.93Zm-2.475-2.943,2.476,2.476,2.475-2.476-2.475-2.475Z" transform="translate(-3.644 -0.932)"/><polygon class="cls-5" points="2.943 12.305 0.194 15.054 2.942 17.802 5.691 15.054 2.943 12.305"/><path class="cls-6" d="M6.586,18.928a.192.192,0,0,1-.137-.057L3.7,16.123a.192.192,0,0,1,0-.273L6.45,13.1a.2.2,0,0,1,.273,0L9.472,15.85a.193.193,0,0,1,0,.274L6.723,18.873A.2.2,0,0,1,6.586,18.928ZM4.112,15.986,6.586,18.46l2.475-2.475L6.586,13.51Z" transform="translate(-3.644 -0.932)"/></svg>