<?xml version="1.0" encoding="UTF-8"?><svg id="Layer_1" xmlns="http://www.w3.org/2000/svg" viewBox="0 0 31.5 31.522"><defs><style>.cls-1{fill:#eccab5;}.cls-1,.cls-2,.cls-3,.cls-4,.cls-5,.cls-6,.cls-7,.cls-8,.cls-9,.cls-10,.cls-11,.cls-12,.cls-13,.cls-14,.cls-15,.cls-16,.cls-17,.cls-18,.cls-19,.cls-20,.cls-21,.cls-22,.cls-23,.cls-24,.cls-25,.cls-26,.cls-27,.cls-28,.cls-29,.cls-30,.cls-31,.cls-32,.cls-33,.cls-34,.cls-35,.cls-36,.cls-37,.cls-38,.cls-39,.cls-40,.cls-41,.cls-42,.cls-43,.cls-44,.cls-45,.cls-46,.cls-47,.cls-48,.cls-49,.cls-50,.cls-51,.cls-52,.cls-53,.cls-54,.cls-55,.cls-56,.cls-57,.cls-58,.cls-59,.cls-60,.cls-61,.cls-62,.cls-63,.cls-64,.cls-65,.cls-66,.cls-67,.cls-68,.cls-69,.cls-70,.cls-71,.cls-72,.cls-73,.cls-74,.cls-75,.cls-76,.cls-77,.cls-78,.cls-79,.cls-80,.cls-81,.cls-82,.cls-83,.cls-84,.cls-85,.cls-86,.cls-87,.cls-88,.cls-89,.cls-90,.cls-91,.cls-92,.cls-93,.cls-94,.cls-95,.cls-96,.cls-97,.cls-98,.cls-99,.cls-100,.cls-101,.cls-102,.cls-103,.cls-104,.cls-105,.cls-106,.cls-107,.cls-108,.cls-109,.cls-110,.cls-111,.cls-112,.cls-113,.cls-114,.cls-115,.cls-116,.cls-117,.cls-118,.cls-119,.cls-120,.cls-121,.cls-122,.cls-123,.cls-124,.cls-125,.cls-126,.cls-127,.cls-128,.cls-129,.cls-130,.cls-131,.cls-132,.cls-133,.cls-134,.cls-135,.cls-136,.cls-137,.cls-138,.cls-139,.cls-140,.cls-141,.cls-142,.cls-143,.cls-144,.cls-145{stroke-width:0px;}.cls-2{fill:#c8ab99;}.cls-3{fill:#100806;}.cls-4{fill:#f0efef;}.cls-5{fill:#bea18b;}.cls-6{fill:#f8f8f6;}.cls-7{fill:#c3a691;}.cls-8{fill:#eac8b3;}.cls-9{fill:#fefefe;}.cls-10{fill:#0f101a;}.cls-11{fill:#ebc9b4;}.cls-12{fill:#e9405f;}.cls-13{fill:#fdb175;}.cls-14{fill:#0a0b14;}.cls-15{fill:#f2bbc1;}.cls-16{fill:#fd8e4f;}.cls-17{fill:#fdb85a;}.cls-18{fill:#ba3348;}.cls-19{fill:#fd8f4e;}.cls-20{fill:#052c4e;}.cls-21{fill:#554740;}.cls-22{fill:#f3d0ba;}.cls-23{fill:#261f1d;}.cls-24{fill:#f2d3c4;}.cls-25{fill:#201918;}.cls-26{fill:#f60029;}.cls-27{fill:#e7c5b1;}.cls-28{fill:#f8f7f4;}.cls-29{fill:#342203;}.cls-30{fill:#362d29;}.cls-31{fill:#e93e5e;}.cls-32{fill:#f3c1c7;}.cls-33{fill:#3c3726;}.cls-34{fill:#f9f8f6;}.cls-35{fill:#c0a38d;}.cls-36{fill:#050505;}.cls-37{fill:#d91b2c;}.cls-38{fill:#1c1e28;}.cls-40{fill:#f5d0d4;}.cls-41{fill:#aa9083;}.cls-42{fill:#1f3261;}.cls-43{fill:#ea0016;}.cls-44{fill:#b99d88;}.cls-45{fill:#c3a690;}.cls-46{fill:#1d1716;}.cls-47{fill:#b35d67;}.cls-48{fill:#bb9e89;}.cls-49{fill:#fdb177;}.cls-50{fill:#bda08a;}.cls-51{fill:#88857c;}.cls-52{fill:#f5f5f5;}.cls-53{fill:#302825;}.cls-54{fill:#fdb074;}.cls-55{fill:#da5464;}.cls-56{fill:#fb4668;}.cls-57{fill:#c2a590;}.cls-58{fill:#120d0d;}.cls-59{fill:#0c0f19;}.cls-60{fill:#e8c6b1;}.cls-61{fill:#f8f8f7;}.cls-62{fill:#181a25;}.cls-63{fill:#fbaf74;}.cls-64{fill:#6e6d95;}.cls-65{fill:#090403;}.cls-66{fill:#c6a894;}.cls-67{fill:#3a302c;}.cls-68{fill:#b89c88;}.cls-69{fill:#824929;}.cls-70{fill:#f5d2bc;}.cls-71{fill:#2e2622;}.cls-72{fill:#f6f6f6;}.cls-73{fill:#120806;}.cls-74{fill:#edcbb5;}.cls-75{fill:#bc9f8a;}.cls-76{fill:#010003;}.cls-77{fill:#8c6040;}.cls-78{fill:#f1ceba;}.cls-79{fill:#e6c4af;}.cls-80{fill:#a28978;}.cls-81{fill:#151721;}.cls-82{fill:#faaf74;}.cls-83{fill:#e7c6b1;}.cls-84{fill:#fbae72;}.cls-85{fill:#0f0b0b;}.cls-86{fill:#161924;}.cls-87{fill:#03030a;}.cls-88{fill:#c1a48f;}.cls-89{fill:#eb0016;}.cls-90{fill:#181111;}.cls-91{fill:#e9e7e4;}.cls-92{fill:#1c0005;}.cls-93{fill:#bfa38e;}.cls-94{fill:#11121b;}.cls-95{fill:#f9f9f8;}.cls-96{fill:#efcdb8;}.cls-97{fill:#1c1615;}.cls-98{fill:#fdb176;}.cls-99{fill:#bfa28d;}.cls-100{fill:#1e202a;}.cls-101{fill:#f0cbb6;}.cls-102{fill:#f93f61;}.cls-103{fill:#150702;}.cls-104{fill:#030202;}.cls-105{fill:#c0a38e;}.cls-106{fill:#5a4c45;}.cls-107{fill:#fcb175;}.cls-108{fill:#d45b47;}.cls-109{fill:#bfa28e;}.cls-110{fill:#3b312c;}.cls-111{fill:#c1072d;}.cls-112{fill:#fbaf73;}.cls-113{fill:#2a2220;}.cls-114{fill:#e62638;}.cls-115{fill:#f78d4e;}.cls-116{fill:#857065;}.cls-117{fill:#14151f;}.cls-118{fill:#bea18c;}.cls-119{fill:#fc8e4f;}.cls-120{fill:#f4d1bb;}.cls-121{fill:#f7d3bd;}.cls-122{fill:#f1c1c7;}.cls-123{fill:#efccd3;}.cls-124{fill:#11131f;}.cls-125{fill:#e8e8e8;}.cls-126{fill:#f2cfb9;}.cls-127{fill:#fdfdfd;}.cls-128{fill:#413631;}.cls-129{fill:#0d0e17;}.cls-130{fill:#2d2a44;}.cls-131{fill:#fcaf74;}.cls-132{fill:#f4f3f3;}.cls-133{fill:#fcfcfc;}.cls-134{fill:#121521;}.cls-135{fill:#1d2c53;}.cls-136{fill:#040102;}.cls-137{fill:#f68d4e;}.cls-138{fill:#f2d1c0;}.cls-139{fill:#444276;}.cls-140{fill:#010004;}.cls-141{fill:#171110;}.cls-142{fill:#efb3ba;}.cls-143{fill:#040202;}.cls-144{fill:#211a18;}.cls-145{fill:#e4c2ad;}</style></defs><path class="cls-140" d="M31.5,15.787c-.003,8.712-7.152,15.895-16.054,15.732C6.952,31.364-.049,24.396,0,15.656.049,7.128,6.945-.017,15.77,0c8.836.018,15.733,7.158,15.73,15.787Z"/><path class="cls-61" d="M15.756.655c8.241-.012,15.144,6.716,15.072,15.256-.069,8.213-6.739,14.979-15.113,14.982-8.35.003-15.058-6.777-15.104-15.022C.563,7.438,7.39.616,15.756.655Z"/><path class="cls-76" d="M15.781,1.683c7.806.011,13.84,6.27,14.014,13.697.187,7.971-6.211,14.513-14.186,14.422-7.749-.088-14.112-6.325-13.912-14.477C1.882,7.808,8.01,1.647,15.781,1.683Z"/><path class="cls-42" d="M2.522,13.511c-.072-.048-.099-.095-.079-.198.137-.716.318-1.419.563-2.105.035-.098.053-.209.178-.24.112-.023.198.023.271.103.073-.056.061-.143.037-.202-.106-.265,0-.443.198-.614.199-.172.19-.187-.057-.265-.142-.045-.067-.127-.033-.19.176-.33.358-.657.539-.985.046-.082.097-.162.146-.243.154.203.028.42.033.666.354-.337.663-.225.953.067.07-.056.064-.142.039-.202-.116-.278.008-.461.213-.628.056-.045.156-.093.107-.192-.038-.078-.128-.055-.199-.058-.165-.009-.341.036-.429-.183-.089-.219-.128-.404.071-.595.18-.173.334-.375.48-.579.069-.096.172-.105.256-.16.08-.028.1.031.125.084.14.194.167.406.133.641-.023.161.061.17.17.071.059-.101.154-.135.264-.141.158.02.279.118.412.191.119.065.17.023.148-.102-.031-.175-.057-.349-.005-.525.022-.076.08-.113.15-.137.071-.022.138-.048.172-.157-.247-.053-.514-.075-.675-.307-.118-.148-.195-.138-.281.042-.066.139-.161.297-.368.175-.139-.043-.116-.096-.028-.187.507-.528,1.048-1.017,1.642-1.446.051-.037.098-.078.147-.118.072.045.117.109.133.193.055.216.013.434-.011.659.215.002.334-.21.526-.199.19.011.335.16.535.215.017-.26-.143-.527.069-.752.117-.142.065-.191-.1-.216-.16-.024-.343-.053-.302-.296,0-.129.058-.213.176-.275.25-.129.494-.269.737-.41.087-.051.146-.04.192.048.049.14.112.195.259.086.153-.114.327-.125.498-.011.058.038.125.088.194.013.053-.155.019-.312.016-.468.016-.137.155-.168.223-.26.048-.043.078.046.143.006.658-.401,1.415-.483,2.146-.651.141-.032.286-.051.428-.079.083-.017.123.016.129.098.041.403-.294.596-.688.466-.042-.03-.119-.05-.125-.005-.025.207-.189.189-.323.22-.923.214-1.647.704-2.147,1.52-.186.304-.428.574-.583.899-.087.184-.187.365-.162.578.011.09-.058.127-.1.183-.046.123-.146.088-.236.08-.014.129.092.186.166.255.15.14.168.279.057.455-.152.241-.309.482-.394.758-.028.092-.088.127-.184.12-.13-.009-.269.011-.335-.142-.045-.105-.088-.211-.135-.314-.023-.051-.043-.116-.11-.118-.076-.002-.105.067-.139.122-.004.007-.005.015-.008.023-.094.285-.28.437-.591.441-.069,0-.187,0-.215.081-.03.088.069.144.13.188.241.175.287.396.194.668-.025.073-.048.184.013.234.084.069.166-.028.238-.069.319-.181.641-.142.909.113.054.051.034.098.029.155-.034.381-.097.758-.158,1.135-.041.253.02.502.07.75.014.068.054.16-.029.197-.091.041-.157-.042-.197-.108-.071-.118-.113-.253-.186-.37-.069-.11-.152-.122-.208.021-.018.046-.042.089-.056.136-.082.261-.241.392-.529.344-.081-.013-.199-.034-.235.075-.03.092.068.146.128.19.227.165.3.367.21.637-.026.077-.051.193.028.253.084.063.18-.003.244-.059.216-.19.421-.15.639-.006.076.05.175.131.268.061.081-.06-.027-.152-.007-.228.037-.148-.146-.317.054-.459.135.197.113.405.085.62-.066.518-.106,1.03.074,1.545.083.238.054.515.072.775.01.143-.092.131-.183.116-.154-.026-.307-.058-.46-.088-.112-.007-.125-.107-.164-.179-.039-.072-.081-.09-.148-.04-.172.263-.404.417-.752.374.045.173.149.237.281.27.131.113.223.236.099.41-.005.04-.084-.072-.069.037.015.107-.07.254.029.316.088.055.181-.074.271-.123.029-.015.053-.038.081-.054.02-.012.041-.02.063-.026.235-.05.374.182.6.206.038-.107-.024-.213.004-.313-.058-.311.179-.438.379-.624.066.417.133.805.26,1.181.127.376.328.7.675,1.01-.4,0-.741.027-1.077-.006-.701-.069-1.402-.024-2.103-.037-.71-.013-1.421.017-2.13-.015-.807-.036-1.614-.041-2.421-.032-.239.003-.279-.102-.297-.305-.078-.847-.045-1.693.006-2.539.107.054.206.139.333.03.212-.182.432-.144.65-.003.053.034.113.063.176.066.053-.029.044-.074.032-.11-.095-.282-.061-.523.195-.711.093-.068.104-.179-.035-.179-.334-.001-.505-.175-.595-.471-.011-.035-.038-.106-.097-.032-.055.134-.116.265-.191.388-.051.083-.111.167-.224.075Z"/><path class="cls-49" d="M18.795,12.105c-.626.005-1.252,0-1.877.021-.216.007-.248-.081-.221-.254.025-.158.09-.319-.045-.485-.095.15-.085.314-.097.465-.014.176-.04.275-.262.279-.251.004-.225-.144-.242-.298-.04-.379-.013-.759-.017-1.14-.106.286-.1.584-.096.882.002.106,0,.215.024.317.051.216-.056.244-.233.233-.113-.007-.151-.026-.133-.155.037-.267.009-.535-.047-.8-.1,0-.071.076-.077.122-.009.064-.006.13-.004.195.019.651.019.622-.616.625-.425.002-.856.01-1.274-.019-.419-.028-.83.057-1.243.01-.142.049-.203-.003-.184-.151.002-.016.005-.033.012-.047.283-.538.152-1.061-.05-1.585-.16-.414-.27-.844-.278-1.288-.01-.533.052-1.061.264-1.558.098-.23.27-.356.535-.354.231.001.453.027.674.101.732.248,1.498.401,2.259.412.842.011,1.701-.049,2.502-.388.068-.029.136-.057.206-.079.368-.115.595-.023.767.323.226.453.328.944.362,1.442.03.439.006.88-.011,1.321-.021.55-.131,1.106.026,1.655.046.16-.015.232-.184.216-.146-.013-.293.019-.438-.018Z"/><path class="cls-98" d="M11.79,13.565c.066.021.053.078.047.122-.022.163.027.249.208.219.132-.022.151.06.137.162-.02.151.043.194.193.192.588-.008,1.177-.007,1.765,0,.141.002.222-.024.194-.185-.026-.146.048-.183.18-.171.058.005.17.022.153-.066-.065-.336.191-.247.353-.285.135.096.124.239.11.375-.066.649-.279,1.222-.784,1.677-.256.23-.49.497-.639.82-.179.301-.431.551-.595.863-.13.246-.18.502-.115.79-.035-.298-.066-.58.186-.794.023-.003.056.029.063.015.198-.355.524-.614.722-.97.043-.061.104-.102.164-.143.224-.153.279-.145.394.101.084.179.262.203.406.285.262.173.454.403.572.695.056.086.084.188.154.267.089.081.195.203.203-.044.007-.202.128-.288.296-.336.094-.027.19-.046.287-.06.422-.064.661-.322.769-.72.013-.047.019-.096.038-.141.058-.137.14-.153.233-.035.187.236.384.465.534.728.049.085.096.171.183.225.232.208.311.516.492.758.024.127-.02.243-.058.359-.235.724-.512,1.432-.881,2.099-.155.28-.336.543-.608.727-.205.139-.259.128-.375-.086-.055-.103-.129-.14-.238-.127-.13.015-.257.05-.384.078-.105.023-.21.045-.303-.036-.021-.018-.038-.062-.075-.025-.285.283-.589.131-.876.02-.139-.054-.234-.108-.367.014-.099.091-.217.004-.316-.052-.366-.205-.587-.543-.778-.895-.415-.763-.656-1.572-.692-2.452-.025-.614-.057-1.222.064-1.827.021-.103-.046-.15-.119-.191-.44-.244-.713-.639-.963-1.056-.121-.202-.168-.428-.171-.657-.002-.136.017-.298.235-.236Z"/><path class="cls-16" d="M11.79,13.565c-.197.023-.182.156-.172.304.033.495.336.848.627,1.206.145.178.326.319.539.412.131.057.165.131.089.267-.111.198-.082.433-.089.643-.03.92.007,1.838.325,2.719.187.517.435,1.001.785,1.426.096.116.231.205.36.287.106.068.229.186.321-.044.037-.092.156-.07.233,0,.22.199.49.19.76.192.106,0,.147-.044.145-.146,0-.045-.016-.108.048-.122.061-.013.088.04.094.088.019.168.126.135.234.111.142-.032.287-.057.428-.095.184-.049.308-.008.326.201.014.163.091.143.195.081.238-.142.411-.348.547-.58.484-.825.859-1.696,1.069-2.634-.03-.046-.044-.095-.034-.15.148-.5.044-.964-.205-1.406-.04-.071-.09-.136-.129-.207-.107-.196-.053-.31.163-.346.065-.011.13-.005.195,0,.56.041.983-.235,1.164-.763.045-.131.086-.263.175-.373.026-.032.059-.056.105-.037.083.12.017.236-.016.35-.112.392-.282.765-.391,1.159-.09.329-.096.654-.019.968.517-.833.715-1.747.564-2.716-.024.019-.017.109-.101.103-.174-.153-.199-.345-.148-.557.004-.073.013-.146.01-.218-.005-.095.036-.138.128-.125.166.022.242-.039.218-.213-.01-.076,0-.161.106-.146.108.015.075.107.066.175-.032.24-.072.479-.102.719-.007.057-.031.135.063.158-.043.389.024.764.134,1.135.014.06-.026.121-.008.18.139.006.185-.207.342-.12.006.269-.116.47-.348.568-.059.025-.12.044-.173.082-.138.192.032.218.157.292.008-.11-.168-.13-.092-.243.449-.122.594-.483.701-.878.023-.084-.013-.204.122-.23-.006.534-.112,1.049-.294,1.55-.053.148-.15.269-.264.376-.086.08-.186.119-.29.062-.172-.095-.218-.039-.239.14-.067.591-.216,1.168-.354,1.745-.043.179-.095.361-.216.511-.099-.1-.049-.217-.024-.322.11-.465.092-.936.091-1.407,0-.075-.008-.146-.065-.201-.167-.089-.098.072-.104.113-.076.49-.106.986-.246,1.466-.08.273-.181.538-.281.804-.157.415-.524.527-.886.654-.036.013-.088.016-.11-.025-.026-.047,0-.091.034-.132.104-.123.206-.249.308-.374.477-.513.704-1.141.816-1.815.059-.354.036-.711-.082-1.095-.061.105-.014.22-.104.273-.077-.174-.045-.379-.146-.555-.06.049-.046.102-.038.142.179.869-.076,1.662-.429,2.435-.229.501-.463,1.001-.713,1.492-.217.426-.621.563-1.063.644-.023-.174.202-.241.128-.434-.592.424-1.203.448-1.857.061.025.162.128.231.193.322.037.052.046.089-.039.084-.213-.05-.429-.079-.634-.166-.426-.18-.765-.461-1.024-.841-.074-.108-.136-.169-.271-.072-.141.102-.279.043-.401-.058-.164-.136-.293-.303-.428-.465-.042-.068-.083-.138-.127-.204-.063-.094-.054-.337-.268-.107-.072.078-.182-.033-.248-.1-.315-.322-.516-.709-.616-1.146-.092-.404-.184-.81-.204-1.227-.004-.073-.01-.146-.061-.205-.321.188-.372.175-.57-.174-.247-.436-.409-.901-.452-1.403.095-.026.105.058.132.11.075.14.186.247.305.346.079.066.18.102.272.047.096-.058-.008-.148.007-.224.004-.078.007-.156.008-.234-.024-.307.039-.609.053-.913.003-.065.013-.129.072-.171.097.242-.008.515.116.755-.01-.491.042-.976.07-1.464.013-.222.067-.433.112-.648.017-.08.04-.157.155-.147.114.01.095.088.1.159.004.048.009.097.013.145.356-.075.302.485.652.42Z"/><path class="cls-61" d="M20.238,19.41c-.33-.175-.323-.174-.234-.545.087-.364.163-.732.234-1.1.025-.132.068-.184.218-.184,2.803.006,5.606.005,8.409.001.165,0,.23.021.194.212-.103.554-.194,1.109-.367,1.647-.024.023-.051.049-.083.05-.489.017-.979.032-1.468-.009-.088-.007-.176-.026-.266-.027-.098,0-.196,0-.294,0-2.051.017-4.101-.042-6.151-.026-.064,0-.131.013-.193-.02Z"/><path class="cls-20" d="M11.269,23.347c.099.013.073.084.083.135.21,1.061.449,2.116.814,3.135.289.805.47,1.644.796,2.435.074.179-.009.172-.142.143-.717-.153-1.419-.356-2.104-.621-.953-.369-1.851-.844-2.711-1.397-.298-.192-.32-.511-.446-.784-.033-.07.027-.098.086-.118.525-.174.921-.549,1.326-.896.705-.604,1.382-1.24,2.072-1.861.072-.065.155-.117.226-.17Z"/><path class="cls-61" d="M6.443,17.534c1.29,0,2.58.002,3.87-.003.14,0,.201.026.206.184.012.451.11.887.261,1.314.099.279.057.329-.239.328-1.887-.007-3.774-.015-5.662-.024-.645-.003-1.29-.016-1.935-.008-.193.002-.279-.065-.315-.246-.094-.47-.202-.937-.274-1.413-.03-.195.022-.219.191-.219,1.299.005,2.597.003,3.896.003,0,.028,0,.056,0,.084Z"/><path class="cls-20" d="M18.034,29.294c-.126-.03-.037-.127-.016-.193.276-.852.575-1.697.828-2.556.298-1.013.556-2.038.831-3.058.066-.245.089-.258.295-.095.885.703,1.768,1.41,2.651,2.115.319.255.659.481,1.026.66.152.074.189.154.108.304-.109.201-.191.417-.311.61-.147.238-.415.334-.641.469-1.303.781-2.706,1.313-4.189,1.636-.182.04-.367.068-.582.107Z"/><path class="cls-61" d="M25.302,15.769c-1.209,0-2.417-.005-3.626.005-.213.002-.238-.058-.193-.248.078-.333.132-.672.082-1.018-.008-.055.005-.114.012-.17q.054-.417.479-.417c2.239,0,4.478.003,6.717-.005.226,0,.336.038.355.294.037.48.071.96.086,1.442.005.165-.061.214-.214.214-1.233-.003-2.465-.001-3.698-.001v-.095Z"/><path class="cls-61" d="M28.06,10.315c.281.545.453,1.13.636,1.711.044.14-.014.165-.14.163-.702-.01-1.405-.011-2.107-.019-.67-.008-1.339-.022-2.009-.032-.743-.011-1.486-.021-2.229-.035-.068-.001-.17.049-.178-.093-.026-.431-.075-.862-.084-1.294-.01-.451.006-.442.46-.433.49.01.981,0,1.471-.003.085.045.176.026.265.026,1.282-.005,2.563.013,3.845-.009.025,0,.048.01.071.016Z"/><path class="cls-89" d="M20.291,17.231c.403.058.64-.076.823-.456.092-.19.17-.389.23-.592.04-.136.1-.174.241-.174,1.969.006,3.937.006,5.906.004.457,0,.914-.018,1.371-.021.342-.002.357.013.338.362-.015.285-.044.57-.062.855-.01.153-.062.234-.238.231-1.837-.032-3.674-.059-5.511-.085-.931-.013-1.862-.018-2.794-.029-.089-.001-.193.033-.303-.095Z"/><path class="cls-20" d="M25.334,22.64c.613.174,1.192.433,1.774.688.161.071.055.169.008.232-.221.302-.445.603-.684.891-.736.888-1.575,1.669-2.5,2.358-.069.052-.145.095-.258.169.111-.223.202-.4.288-.58.086-.181.052-.303-.155-.38-.529-.196-.952-.558-1.384-.906-.131-.106-.126-.165.015-.27.378-.282.726-.605,1.133-.848.196-.117.163-.247.044-.379-.169-.188-.352-.365-.532-.542-.117-.115-.219-.241-.308-.378.022-.025.048-.05.08-.053.827-.074,1.654-.199,2.481-.002Z"/><path class="cls-16" d="M18.795,12.105c.155-.004.31-.009.465-.01.112-.001.141-.043.103-.153-.201-.582-.062-1.175-.036-1.761.04-.911.04-1.809-.343-2.661-.149-.33-.388-.426-.718-.275-.704.321-1.454.386-2.21.441-1.007.074-1.965-.156-2.915-.444-.482-.146-.839-.073-.971.231-.13.299-.189.619-.236.943-.11.742.068,1.437.326,2.119.177.469.218.93-.036,1.385-.073.131-.019.178.11.184-.412.043-.826.003-1.239.017-.112.004-.134-.057-.133-.153.003-.236.003-.472,0-.708-.001-.086.03-.183-.063-.246-.071-.077-.052-.173-.06-.264-.001-.053-.013-.105-.006-.158.082-.217.082-.451.091-.673.017-.421.13-.819.213-1.224.004-.024.011-.048.019-.071.027-.065.034-.135.05-.202.11-.117-.077-.04-.062-.094-.007-.11.115-.119.152-.194.075-.085.16-.163.223-.256.281-.421.648-.747,1.077-1.013.208-.129.404-.151.62-.036.859.459,1.786.607,2.744.557.79-.041,1.568-.175,2.317-.45.516-.189.529-.181.893.234.193.22.39.436.523.701.084.193.161.389.27.572.202.34.257.726.277,1.107.032.628.031,1.259-.155,1.872-.024.079-.025.161-.018.243.029.335.041.348.376.365.09.005.182,0,.249.078-.632.031-1.264.031-1.896-.001Z"/><path class="cls-89" d="M25.361,12.343c1.061,0,2.123.005,3.184-.005.185-.002.265.059.297.234.06.337.128.672.201,1.006.032.146-.026.195-.162.194-1.028-.011-2.056-.02-3.085-.033-.595-.007-1.191-.023-1.786-.029-.677-.007-1.355-.013-2.032-.009-.156,0-.224-.034-.202-.205.025-.194.012-.388-.014-.584-.04-.295.22-.569.514-.569,1.029,0,2.057,0,3.086,0Z"/><path class="cls-89" d="M6.369,20.92c-.94,0-1.88-.002-2.819.002-.226,0-.364-.082-.429-.31-.078-.274-.181-.541-.281-.809-.066-.177-.032-.247.174-.245,2.018.021,4.036.036,6.054.05.514.004,1.029-.002,1.543.037.068.005.155-.034.194.058.029.07-.017.126-.057.178-.212.28-.42.563-.717.765-.33.225-.69.302-1.087.296-.858-.014-1.716-.004-2.574-.004,0-.006,0-.012,0-.017Z"/><path class="cls-89" d="M27.106,21.11c-1.224-.014-2.449-.068-3.672-.031-1.191.036-2.062-.536-2.865-1.304-.01-.009-.01-.029-.019-.055.072-.048.154-.025.23-.025,2.515-.001,5.03-.001,7.546,0,.294,0,.301.003.2.295-.129.375-.225.763-.45,1.099-.323.03-.648-.011-.971.022Z"/><path class="cls-20" d="M8.506,22.793c-.269.443-.622.815-1.009,1.151-.143.125-.133.195-.012.307.347.323.726.605,1.123.862.165.107.183.174.012.298-.363.263-.698.567-1.131.715-.111.038-.11.122-.118.215-.013.141.089.258.077.428-.335-.197-.593-.457-.872-.689-.814-.676-1.486-1.484-2.129-2.319-.122-.158-.138-.212.093-.311.706-.301,1.435-.532,2.151-.801.54-.023,1.074.113,1.615.07.072-.006.146.01.199.072Z"/><path class="cls-61" d="M24.553,5.573c-.755,0-1.462.001-2.169,0-.53-.001-1.061-.011-1.591-.006-.162.001-.296-.037-.431-.127-.274-.181-.558-.363-.9-.149-.074.047-.084-.021-.103-.052-.26-.418-.616-.688-1.12-.734-.145-.013-.224-.088-.184-.248.01-.039.005-.081.006-.122.012-.6.012-.598.609-.594.873.006,1.747.009,2.62.011.107,0,.21.003.31.05,1.034.493,1.984,1.116,2.856,1.857.024.021.042.048.099.114Z"/><path class="cls-127" d="M18.807,25.918c-.395-.481-.792-.922-1.256-1.294-.465-.373-.948-.717-1.618-.84.245-.161.443-.292.642-.42.811-.523,1.579-1.099,2.263-1.787.443-.445.755-.956.903-1.567.015-.061.039-.121.084-.175.176,2.104-.392,4.082-1.018,6.084Z"/><path class="cls-89" d="M27.964,10.087c-.705,0-1.389.006-2.072-.001-1.256-.014-2.513-.04-3.769-.051-.225-.002-.305-.041-.245-.294.07-.297-.013-.601-.099-.89-.042-.143-.004-.168.127-.168,1.714-.002,3.428-.006,5.142-.011.107,0,.189.031.245.127.241.415.48.831.672,1.289Z"/><path class="cls-127" d="M12.187,26.041c-.455-1.803-.81-3.592-.991-5.472.13.204.217.373.332.518.323.407.753.698,1.153,1.02.726.586,1.507,1.087,2.332,1.522.054.028.129.036.155.117-1.297.344-2.109,1.322-2.982,2.295Z"/><path class="cls-121" d="M13.699,3.914c-.066-.043-.133-.085-.212-.137q.183-.006.485.133c-.172-.238-.451-.259-.708-.333.404-.149.742.025,1.089.242-.089-.151-.125-.174-.293-.268-.109-.061-.253-.051-.395-.209.645.108,1.131.386,1.574.755-.024.075-.091.078-.177.091.17.125.323.246.449.394.046.054.118.119.054.189-.057.062-.119-.01-.17-.042-.075-.048-.15-.098-.21-.183.016.073.05.138-.01.195.147.212.373.345.538.539-.132.149-.187-.05-.3-.065.201.181.418.328.557.552.034.055.08.104.102.166.022.063.045.136-.027.175-.057.031-.11-.018-.148-.059-.17-.187-.292-.415-.502-.578.231.3.537.543.605.937.033.135.065.269.04.476-.143-.478-.331-.864-.677-1.151-.469-.365-.991-.642-1.536-.917.069.075.211.109.157.203-.057.101-.156,0-.238-.021.49.284.956.601,1.341,1.022.102.111.225.219.192.398-.036.047-.063.132-.127.018-.247-.437-.647-.711-1.055-.975-.547-.296-1.151-.402-1.748-.531-.064-.014-.128-.024-.233-.022.153.019.305,0,.373.07.276.286.682.321.986.546.045.033.105.074.07.138-.034.061-.103.036-.155.016-.275-.104-.555-.193-.833-.286-.321-.108-.651-.139-.939-.166.157-.005.351.052.551.061.08.004.183.018.207.13.001.005-.008.013-.014.018-.012.01-.027.009-.043,0-.75-.137-1.423.004-1.994.547.11-.441.362-.78.734-1.029.366-.246.795-.29,1.217-.36-.412-.108-.787.035-1.202.209.122-.179.276-.202.413-.247.146-.048.298-.079.448-.117.28-.131.581-.096.874-.124.034.022.009-.039.01-.007,0,.004-.005.007-.014.005-.228-.04-.447.044-.672.056-.086.005-.176.005-.263.02-.173-.004-.332.066-.557.118.494-.546,1.103-.589,1.715-.641-.376-.138-.736.026-1.156.076.332-.236.653-.304,1.003-.263.279.033.528.154.777.276.17.037.295.153.435.243-.121-.106-.279-.163-.388-.285Z"/><path class="cls-89" d="M20.872,5.873c.073-.062.158-.033.236-.033,1.169-.002,2.337.002,3.506-.005.194-.001.341.053.477.194.312.323.636.635.917.986.048.06.126.105.128.208-.589,0-1.174.004-1.758,0-.809-.006-1.617-.024-2.426-.025-.16,0-.245-.041-.318-.192-.156-.325-.381-.607-.603-.89-.059-.075-.138-.139-.159-.241Z"/><path class="cls-127" d="M14.188,25.587c.444-.004.851.581.667.931-.463.888-.92,1.778-1.262,2.722-.023.064-.067.094-.132.07-.115-.04-.246-.023-.306-.191-.172-.484-.333-.97-.478-1.462-.081-.273-.146-.551-.229-.824-.044-.143-.026-.244.103-.338.264-.192.513-.404.775-.599.269-.199.575-.302.861-.31Z"/><path class="cls-61" d="M8.779,21.259c-1.145.464-2.293.922-3.434,1.394-.304.126-.601.24-.94.208-.118-.011-.197-.034-.253-.143-.238-.461-.481-.92-.722-1.38-.067-.128-.074-.202.115-.2,1.714.018,3.429.029,5.143.043.029,0,.058.012.086.019.002.02.004.039.006.059Z"/><path class="cls-61" d="M27.102,8.493c-.728,0-1.428.004-2.127,0-.979-.007-1.958-.021-2.936-.032-.324-.003-.342-.021-.274-.333.037-.168.076-.341.046-.507-.034-.188.049-.193.192-.192,1.167.004,2.337.047,3.5-.015.648-.035,1.084.137,1.36.72.058.123.152.229.241.36Z"/><path class="cls-20" d="M22.537,22.689c.374.307.642.718,1.003,1.037.097.085.045.136-.038.182-.425.233-.773.569-1.153.862-.144.111-.252.083-.371-.011-.683-.539-1.334-1.12-2.053-1.614-.237-.163-.059-.365-.043-.551.192-.177.432-.135.652-.116.583.052,1.169.062,1.75.137.089.011.179.015.253.075Z"/><path class="cls-13" d="M20.091,14.603c-.121.097-.173.237-.205.378-.111.503-.652.954-1.27.849-.048-.008-.098-.007-.147-.002-.202.02-.24.093-.123.262.27.394.421.822.409,1.304-.003.124-.022.242-.093.347-.024-.005-.053-.012-.063-.032-.232-.453-.569-.842-.795-1.299-.075-.243-.263-.41-.411-.602-.085-.111-.142-.225-.12-.359.062-.382.082-.757-.108-1.114.085-.123.195-.152.329-.084.658.002,1.315.005,1.973.004.063,0,.184.034.165-.077-.057-.327.158-.277.347-.272.055.181.056.377.152.547.04.064.054.121-.039.15Z"/><path class="cls-42" d="M14.009,2.634c.05-.045.018-.088-.004-.131-.063-.12-.012-.158.108-.167.65-.053,1.298-.118,1.952-.098.554.017,1.103.081,1.652.149.126.015.196.083.197.207.003.539,0,1.078.002,1.617,0,.163-.079.123-.17.075-.354-.185-.718-.354-1.061-.558-.464-.276-.979-.338-1.495-.408-.113-.015-.225-.037-.338-.046-.137-.011-.271-.013-.123-.198.025-.031.047-.077.004-.108-.079-.057-.165-.064-.248-.004-.28.074-.468-.057-.476-.33Z"/><path class="cls-108" d="M18.82,21.264c-.277.385-.641.671-.979.983-.597.55-1.268.998-1.956,1.424-.155.096-.316.082-.466.004-1.243-.647-2.409-1.405-3.41-2.399-.453-.451-.624-1.018-.688-1.654.228.183.403.397.568.612.513.666,1.157,1.167,1.884,1.574.543.304,1.067.636,1.472,1.119.147.174.274.365.405.552.077.11.142.122.222.005.587-.867,1.45-1.393,2.342-1.881.203-.111.405-.225.607-.338Z"/><path class="cls-20" d="M11.195,22.644c.016.071.035.142.047.214.027.176.013.313-.165.437-.622.435-1.165.966-1.705,1.496-.334.327-.361.333-.739.074-.302-.207-.595-.427-.894-.637-.065-.046-.142-.083-.045-.159.466-.364.778-.872,1.194-1.282.098-.076.213-.073.327-.071.571.013,1.139-.014,1.702-.117.096-.018.195-.031.278.045Z"/><path class="cls-61" d="M23.198,21.27c1.543,0,3.085.002,4.628-.002.153,0,.188.032.118.177-.231.475-.467.946-.734,1.402-.124.211-.274.129-.42.066-.753-.327-1.504-.66-2.255-.992-.451-.199-.9-.4-1.35-.601.005-.016.009-.033.014-.049Z"/><path class="cls-127" d="M18.667,26.595c-.01.041-.013.075-.025.105-.296.742-.471,1.522-.735,2.274-.008.023-.022.044-.029.067-.041.125-.085.289-.216.298-.146.01-.13-.179-.172-.281-.278-.668-.542-1.342-.819-2.011-.066-.16-.06-.285.046-.427.234-.313.454-.637.676-.959.117-.17.239-.152.392-.046.34.237.552.595.847.875.025.024.025.074.035.105Z"/><path class="cls-19" d="M17.186,14.354c.262.236.249.562.179.839-.088.35.051.57.256.8.111.125.235.249.243.435-.126-.002-.174-.105-.243-.183-.186-.211-.346-.446-.602-.663.038.231.049.418-.063.583-.036.054-.074.122-.15.1-.063-.018-.063-.089-.069-.145-.016-.148.012-.301-.046-.45-.063.188-.096.381-.198.549-.139.227-.29.46-.595.436-.311-.024-.489-.232-.575-.524-.013-.045-.015-.098-.071-.119-.289.302-.513.26-.676-.137-.058-.142-.11-.103-.19-.033-.166.145-.337.283-.491.44-.063.064-.119.163-.24.124.127-.337.371-.599.627-.825.513-.451.715-1.026.794-1.671.016-.126-.023-.241-.055-.359.038-.125-.051-.316.173-.345.105-.014.183-.005.182.143-.002.236-.029.468-.066.7-.009.056-.027.112-.025.167.002.06-.002.145.09.141.07-.002.076-.071.086-.127.033-.191.067-.381.101-.572.12.143.076.311.061.469-.022.219-.044.439-.085.655-.069.366-.053.731.002,1.096.04.27.3.393.524.234.22-.156.353-.363.295-.65-.055-.273-.076-.549-.111-.825-.022-.178-.034-.358.013-.535.164-.061.241-.16.188-.349-.018-.064-.032-.19.115-.18q.137.131.401.056c.062.244.182.471.222.722Z"/><path class="cls-130" d="M22.537,22.689c-.627-.046-1.255-.092-1.882-.136-.259-.018-.517-.016-.773.041.138-.949.183-1.903.141-2.924.268.217.419.454.601.66.638.725,1.176,1.533,1.847,2.232.032.033.045.084.067.127Z"/><path class="cls-120" d="M11.247,8.415c0,.074.02.153-.06.203-.289.018-.546.099-.709.362.006.03.009.06,0,.09.18-.04.412-.191.464-.303-.006-.022-.005-.044.001-.065.059-.092.151-.091.244-.086.043.134-.016.261-.049.38-.122.449-.157.907-.185,1.367-.006.092-.021.176-.082.248-.107.205-.348.296-.428.491.128-.133.21-.355.46-.381-.001.097-.002.194-.003.291-.183.163-.286.386-.46.64.032-.28.204-.427.252-.627-.282.248-.379.612-.597.936-.081-.26.017-.472.082-.688.078-.316.298-.535.489-.725-.215.159-.345.438-.533.669-.093.162-.142.34-.186.563-.082-.401.047-.702.246-.987.191-.272.436-.494.657-.738-.516.327-.856.806-1.151,1.359-.066-.176.064-.292.063-.445-.109.075-.106.195-.164.296-.05-.349.097-.638.222-.932.063-.147.199-.239.277-.375.245-.21.428-.493.743-.621-.29.105-.452.367-.68.547-.181.101-.234.313-.383.442-.192.176-.26.423-.393.713.041-.488.232-.835.512-1.165-.177.074-.178.073-.273.221-.065.102-.126.207-.218.36.023-.211.093-.341.179-.466.046-.22.247-.33.358-.504.022-.035.102-.054.052-.108-.04-.043-.067-.152-.165-.072-.063.051-.125.101-.188.152-.104.002-.066-.064-.047-.11.054-.133.175-.204.279-.29-.066.004-.118.094-.196.037-.005-.003-.007-.013-.007-.019,0-.008.005-.015.007-.023.127-.223.314-.384.599-.52-.248-.017-.366.15-.556.18.173-.252.416-.394.621-.584-.224.056-.38.252-.609.294-.044-.081-.051-.091.027-.148.096-.07.117-.127.015-.203.157-.256.396-.422.639-.584.317-.207.652-.35,1.043-.298.108,0,.193.05.322.155-.449-.024-.819.057-1.159.256-.081.099-.197.148-.294.218.113-.056.208-.164.347-.175.198-.034.39-.188.617-.03-.202.062-.404.079-.605.219.244.055.484-.01.683.165-.231.142-.529.085-.725.32.251-.004.434-.171.656-.182.042.129-.059.137-.138.164-.013.097-.103.091-.164.113-.253.093-.482.233-.714.365.211-.116.423-.233.645-.326.099-.041.205-.118.321-.033Z"/><path class="cls-26" d="M16.433,27.16c.3.693.598,1.387.903,2.078.056.126.041.179-.102.182-.341.008-.68.067-1.023.046-.243.043-.488.005-.731.02-.115.007-.16-.061-.189-.153-.098-.312-.17-.627-.121-.957.097-.505.194-1.01.291-1.515.096-.046.176-.012.251.049.096.328.114.669.154,1.006.01.084-.016.211.112.199.106-.01.068-.13.069-.204.006-.284.006-.568.008-.851.146-.042.263.022.376.101Z"/><path class="cls-26" d="M16.949,24.714c-.23.618-.543,1.196-.86,1.772-.057.104-.134.152-.258.132-.152-.025-.306-.036-.459-.053-.111-.165-.17-.356-.193-.545-.067-.542-.304-.986-.703-1.351-.024-.022-.042-.049-.05-.082.018-.071.075-.102.131-.136.69-.419,1.793-.297,2.392.264Z"/><path class="cls-13" d="M16.311,14.052c-.039.465.035.921.114,1.376.055.319-.09.649-.38.795-.266.134-.531-.052-.585-.34-.125-.673.081-1.32.106-1.98.003-.081-.003-.162-.004-.244.017-.345-.104-.674-.115-1.018-.004-.125.028-.163.144-.152.136.014.318-.061.396.035.065.08.013.254.013.425.127-.123.096-.259.16-.362.053-.084.11-.106.198-.098.122.011.067.105.083.167.047.185-.092.34-.081.518.038.295.051.589-.049.876Z"/><path class="cls-130" d="M11.195,22.644c-.764.123-1.533.18-2.307.143.164-.283.425-.488.608-.755.421-.616.917-1.18,1.287-1.832.02-.036.034-.075.085-.094.095.865.169,1.707.327,2.539Z"/><path class="cls-130" d="M25.334,22.64c-.388.009-.775-.016-1.163-.037-.466-.024-.925.147-1.397.092-.464-.392-.797-.897-1.17-1.367-.109-.138-.215-.278-.296-.455.234.103.474.194.7.312.946.496,1.939.883,2.937,1.258.137.051.275.101.389.196Z"/><path class="cls-111" d="M15.17,28.376c.056.311.096.624.184.929.034.118.078.158.196.155.22-.005.44.003.66.006-.081.057-.174.033-.261.033-.684-.002-1.366-.036-2.045-.127-.109-.015-.168-.024-.108-.155.364-.808.674-1.64,1.126-2.406.118-.039.227-.035.318.062-.055.554-.219,1.086-.332,1.628-.044.211-.049.423-.013.633.012.07.014.19.129.172.098-.016.064-.117.062-.185-.006-.252-.019-.504.084-.743Z"/><path class="cls-5" d="M18.566,4.976c.269.364.275.744.063,1.168-.011-.181-.02-.333-.029-.484-.075.275-.029.572-.209.817-.065-.033.011-.115-.057-.144-.029.149-.17-.025-.217.076-.03.064-.038.144-.124.178.013-.21.115-.405.099-.649-.122.105-.07.249-.164.358-.025-.431-.095-.832-.377-1.165.03.403.203.802.007,1.207-.074-.063.007-.174-.11-.228-.044.151-.087.299-.131.447-.088-.322-.004-.661-.144-.981-.059.281-.041.582-.253.893.042-.481-.065-.865-.22-1.239.019-.104-.059-.183-.071-.28-.007-.056-.036-.124.031-.152.064-.027.103.029.129.082.052.11.112.216.153.36-.031-.193-.19-.319-.152-.505l-.004.003c.172-.068.143.109.214.182-.026-.046-.049-.109-.008-.115.161-.025.126.146.194.214-.024-.057-.05-.117-.081-.174-.035-.064-.095-.145-.01-.192.086-.047.124.045.151.113.076.187.158.373.199.589-.024-.193-.108-.35-.161-.517-.027-.085-.088-.183.015-.239.091-.049.174.033.23.098.245.283.388.613.445.951.022-.089-.051-.195-.071-.309-.015-.085-.027-.175.074-.203.093-.026.12.062.148.129.024.059.042.119.052.151-.013-.095-.073-.204-.124-.317-.021-.046-.015-.1.042-.123.044-.017.076.006.097.048.081.162.281.565.196.773.06-.226-.038-.434-.131-.644-.025-.056-.083-.12-.016-.174.051-.041.118-.004.149.042.107.158.106-.078.176-.045Z"/><path class="cls-98" d="M20.691,12.106c-.163-.004-.326-.006-.488-.012-.061-.002-.157.018-.159-.068-.005-.194-.114-.385-.048-.577.198-.573.181-1.165.182-1.757,0-.369-.082-.725-.195-1.071-.063-.193-.233-.344-.26-.562-.008-.063-.038-.123-.029-.19.596.804.826,1.741.98,2.705.03.029.045.066.053.106-.02.195.073.385.032.581-.176.033.018.14-.039.197-.042.144.058.291-.008.435-.117.06.031.145-.02.211Z"/><path class="cls-107" d="M10.465,15.679c.041.087.178.187.052.265-.107.067-.264.065-.385-.036-.174-.146-.309-.322-.41-.524-.068-.102-.063-.227-.057-.331.035-.669-.244-1.299-.229-1.963.005-.201-.038-.487.14-.558.194-.077.334.184.459.333.357.425.537.921.535,1.479-.021.387-.042.773-.063,1.16-.118-.032-.135-.133-.147-.23-.016-.13-.027-.265.01-.39.147-.488-.026-.917-.239-1.337-.081-.16-.171-.317-.284-.457-.08-.1-.147-.1-.18.038-.023.097-.02.194-.01.292.013.13.064.196.213.212.269.029.336.135.274.401-.042.184-.063.37-.091.556-.067.439.086.799.412,1.091Z"/><path class="cls-130" d="M8.506,22.793c-.579.015-1.155-.006-1.727-.103-.03-.005-.058-.025-.086-.038.975-.401,1.961-.776,2.898-1.283-.015.199-.725,1.122-1.085,1.425Z"/><path class="cls-118" d="M12.32,5.435c-.029-.126-.141-.091-.219-.101-.193-.026-.387-.037-.581-.052-.058-.005-.141-.004-.138-.068.004-.086.085-.066.153-.061.687.049,1.337.238,1.993.46-.171-.085-.339-.176-.513-.255-.184-.083-.373-.154-.582-.239.064-.027.099-.041.152-.063-.183-.043-.35-.08-.525-.078-.048,0-.1-.025-.097-.086.003-.056.059-.055.094-.049.706.12,1.439.154,2.04.619-.047.122-.041.114.064.19.203.148.382.317.455.63-.09-.073-.141-.115-.215-.177.003.209.181.327.174.526-.14-.156-.265-.305-.403-.442-.045-.045-.099-.146-.174-.097-.092.06.019.122.035.185.005.021.006.043.015.123-.489-.545-1.099-.774-1.728-.966Z"/><path class="cls-133" d="M7.969,15.777c.103-.164.047-.284-.102-.38-.097-.004-.127-.091-.174-.151-.063-.079-.025-.152.067-.151.293,0,.467-.165.602-.397.035-.043.069-.086.116-.143.074.135.144.263.215.39.052.147.196.083.294.125.088.038.197.007.286.08-.102.225-.504.314-.317.672.043.11.131.247.034.331-.067.059-.183-.06-.272-.107-.119-.063-.225-.163-.375-.088l.007-.005c-.027.057-.085.072-.134.1-.094.053-.191.195-.29.105-.089-.08-.031-.229.016-.344.006-.015.018-.027.029-.039Z"/><path class="cls-133" d="M7.199,6.848c-.055.012-.09.05-.118.095-.087.149-.019.299-.005.449.007.077.076.177.003.228-.081.056-.168-.031-.236-.076-.11-.073-.219-.135-.352-.147-.082.044-.165.087-.247.131-.194.111-.214.103-.216-.077,0-.019-.124-.641-.13-.654-.014-.046-.044-.075-.088-.09-.024-.212.173-.094.245-.163.173.027.269-.063.335-.211.041-.093.095-.181.144-.272.12.055.124.18.202.247.107.147.228.261.43.263.066,0,.179-.026.191.093.011.107-.067.153-.156.182Z"/><path class="cls-133" d="M2.522,13.511c.102.04.143-.026.179-.102.068-.142.136-.284.204-.426-.004-.036.003-.067.048-.05.05.019.071.07.085.114.093.298.259.49.604.483.128-.003.172.084.068.194-.045.047-.088.097-.138.138-.126.103-.185.22-.114.383.029.067.029.144.029.216,0,.092-.05.135-.145.093-.052-.023-.106-.045-.153-.076-.187-.124-.365-.159-.553.006-.054.047-.139.111-.219.051-.067-.051-.027-.136-.025-.207.004-.129.033-.256.037-.385-.076-.167-.135-.33.092-.432Z"/><path class="cls-43" d="M20.613,3.212c-.782,0-1.564,0-2.346,0-.077,0-.16-.008-.16-.107,0-.179.01-.358.021-.537.006-.092.079-.097.145-.084.803.163,1.595.367,2.339.728Z"/><path class="cls-133" d="M8.996,12.588q-.571-.225-1.025-.036c.094-.377.07-.707-.355-.918.525.094.698-.242.854-.643.066.15.112.251.155.353.062.145.168.23.326.262.145.03.175.2.113.252-.219.183-.119.381-.081.583.007.039.008.08.014.147Z"/><path class="cls-70" d="M20.77,10.181c-.129-.223-.123-.481-.204-.711.064-.035.095.052.147.01-.006-.081-.076-.12-.117-.177-.062-.085-.142-.159-.194-.249-.034-.058-.148-.161.054-.179.099-.009.003-.129.043-.189.08.013.131.061.171.124.139.242.277.485.506.659.05.038.082.099.059.171.11.223.347.372.374.643.015.07.053.162-.025.195-.076.032-.123-.057-.165-.115-.081-.111-.153-.229-.233-.341-.04-.047-.055-.118-.142-.143-.007.112.028.208.065.303.135.247.297.478.407.738.04.094.097.188.069.299.05.221.104.441.149.663.031.154.02.307-.079.498-.077-.313-.145-.588-.212-.863-.126-.087-.131-.238-.184-.361-.144-.334-.29-.667-.487-.974Z"/><path class="cls-127" d="M8.663,4.399c.02.166.135.22.281.24.111.015.221.034.334.051-.007.133-.148.147-.186.243-.179.159-.117.35-.079.543.012.059.041.139-.018.185-.062.047-.121-.017-.177-.042-.067-.029-.135-.058-.196-.098-.124-.082-.239-.076-.361.007-.084.057-.179.161-.28.101-.124-.073-.037-.207-.025-.312.012-.117,0-.226-.041-.334-.03-.065-.134-.089-.101-.188.206-.14.427-.255.615-.422.078-.07.171-.111.234.027Z"/><path class="cls-133" d="M8.95,8.468c-.168.201.045.405-.012.621-.179-.032-.302-.25-.482-.214-.166.034-.314.156-.473.24-.038-.094-.003-.17.013-.247.045-.219.049-.42-.183-.554-.042-.024-.217-.155-.034-.17.375-.032.586-.218.687-.549.088.021.096.08.106.122.066.278.207.45.524.411.12-.015.115.058.064.133-.031.045-.105.048-.123.111-.015.046-.042.081-.089.098Z"/><path class="cls-133" d="M5.271,9.305c-.016,0-.038.008-.046,0-.321-.275-.64-.294-.984.08.007-.32.097-.565.045-.814.168-.248.335-.496.548-.81.083.446.324.615.753.551-.427.262-.454.604-.315.993Z"/><path class="cls-120" d="M20.96,8.027c.163.138.337.267.427.469.022.05.078.167-.076.096-.109-.079-.182-.195-.286-.279.108.106.222.207.279.352.064.12.162.221.195.362-.077.048-.074-.091-.158-.051.107.193.277.367.238.629-.153-.047-.162-.212-.274-.273-.101-.007-.166-.075-.208-.152-.087-.16-.214-.285-.331-.419-.157-.139-.358-.227-.479-.409.078-.059.143.048.214.003-.029-.177-.095-.329-.287-.388.066-.13.177.013.245-.065-.075-.147-.271-.165-.352-.311.062-.034.116-.01.17.006.304.023.509.201.683.43Z"/><path class="cls-138" d="M18.566,4.976c-.027.074-.053.148-.081.227-.098-.039-.1-.191-.252-.203.157.299.314.586.138.933-.008-.342-.079-.65-.266-.925.003.191.155.354.092.584-.041-.122-.07-.222-.109-.317-.02-.048-.033-.129-.107-.107-.077.023-.037.088-.027.144.028.15.095.297.044.481-.206-.416-.224-.923-.708-1.195.011.336.207.599.194.906-.118-.276-.171-.579-.372-.86-.039.207.161.326.108.506-.111-.089-.075-.256-.196-.33-.067.055.053.121-.011.176-.098-.068-.07-.246-.229-.257-.017-.207-.125-.382-.226-.608.553.168,1.008.41,1.28.925.086-.129-.035-.21-.004-.312.223.049.443.097.662.145.048.01.062.047.069.089Z"/><path class="cls-84" d="M21.303,15.041c-.092.297-.135.605-.335.869-.14.184-.296.262-.51.264-.06-.004-.093-.033-.086-.097.02-.047.051-.09.102-.096.332-.042.391-.294.434-.559-.038-.052-.029-.109-.016-.165.081-.365.063-.726-.014-1.092-.071-.335.192-.567.52-.482.037.016.072.034.057.085-.167.411-.064.854-.151,1.275Z"/><path class="cls-35" d="M15.279,6.418c-.303-.597-.866-.909-1.387-1.268-.107-.074-.26-.087-.336-.234.167-.054.264.091.414.101-.061-.131-.24-.111-.281-.245.034-.057.088-.035.125-.018.506.229.986.503,1.437.828.051.037.107.078.113.152-.092.024-.126-.196-.245-.06-.071.056-.118-.004-.173-.034.258.159.41.407.556.661.015.026.004.099.072.049.087.143-.002.277-.012.43-.161-.081-.107-.312-.282-.361Z"/><path class="cls-24" d="M19.391,6.102q-.176.105-.198.018c-.128-.085-.112-.22-.11-.345.002-.176-.038-.331-.185-.444-.08-.14-.159-.281-.238-.422-.002-.004.005-.013.008-.02.376.151.643.537.599.941.232-.261.454-.455.793-.314.293.122.432.383.62.634-.113-.018-.204-.032-.295-.046-.127.019-.253.005-.377-.02-.206-.024-.409.045-.616.017Z"/><path class="cls-138" d="M16.788,4.733c.07.179.139.358.209.538-.014.006-.027.013-.041.019-.086-.158-.171-.316-.268-.494-.057.167.113.294.011.432-.198-.363-.356-.752-.672-1.037-.064-.058-.115-.137-.212-.156-.053.11.088.196.024.321-.324-.219-.647-.437-.991-.67.826-.129,1.469.196,1.829.9.028.055.037.127.112.147Z"/><path class="cls-111" d="M14.442,24.604c.344.17.503.491.643.817.157.364.188.764.286,1.145-.101.021-.189-.003-.209-.112-.126-.689-.647-1.105-1.082-1.582-.016-.017-.026-.04-.039-.06.132-.073.199-.27.401-.208Z"/><path class="cls-37" d="M20.238,19.41c.645,0,1.29,0,1.935.001,1.438.004,2.876.008,4.315.015.735.003,1.47.01,2.205.016-.031.163-.163.104-.253.103-1.092-.01-2.183-.025-3.275-.04-1.572-.02-3.145-.041-4.717-.063-.07,0-.147.028-.209-.033Z"/><path class="cls-99" d="M15.175,4.742c.032-.133-.111-.2-.102-.343.151.122.303.245.505.409-.163-.337-.485-.453-.669-.739.142,0,.228.132.328.03.435.191.755.491.918.957-.073.032-.103-.103-.155-.05-.063.064.016.116.048.166.087.135.177.268.246.418-.325-.197-.586-.465-.863-.714-.071-.064-.122-.188-.259-.133Z"/><path class="cls-131" d="M18.992,17.363c-.002-.097,0-.195-.008-.291-.004-.047.004-.083.048-.097.045-.015.075.017.1.051.055.076.063.166.08.254.185.954-.117,1.789-.635,2.568-.044.066-.093.175-.215.153.547-.798.718-1.687.63-2.637Z"/><path class="cls-82" d="M20.574,15.443c-.12-.388-.305-.771-.106-1.187.177-.534.545-.948.881-1.381.078-.1.098-.018.113.05.03.07-.004.127-.033.186-.252.271-.401.606-.576.925-.135.245-.144.511-.097.781.024.137.041.274.01.41-.023.102-.054.209-.191.215Z"/><path class="cls-118" d="M16.001,6.409c-.163-.31-.363-.594-.612-.842-.054-.054-.166-.121-.098-.194.083-.09.131.045.183.09.155.133.273.3.391.466.045.063.081.139.209.161-.098-.262-.259-.446-.443-.614-.024-.022-.056-.034-.08-.056-.097-.092-.308-.216-.246-.286.113-.128.188.106.301.143.035.011.067.055.105.006.393.304.683.666.694,1.209-.343-.199-.101.124-.176.166-.089-.115-.07-.29-.199-.386-.056.041-.02.094-.03.139Z"/><path class="cls-112" d="M12.269,19.951c.179.092.288.259.43.392.143.135.286.194.443.037.079-.078.136-.076.192.014.38.604.918.972,1.623,1.094.026.005.046.043.069.065-.749.067-1.284-.27-1.676-.883-.063-.098-.115-.348-.261-.038-.05.106-.177.05-.263.001-.275-.154-.454-.389-.558-.684Z"/><path class="cls-52" d="M10.771,3.906c-.012.038.014.114-.069.087-.06-.019-.12-.05-.17-.088-.168-.129-.327-.145-.499-.001-.078.065-.18.103-.29.163.009-.117.017-.211.025-.305.024-.108.074-.175.188-.225.331-.146.653-.313,1.002-.414-.015.117-.145.148-.186.246-.01.179.032.359-.002.539Z"/><path class="cls-112" d="M19.647,17.493c.154-.011.134.098.139.196.028.585-.027,1.162-.14,1.735-.075.187-.215.314-.393.421.255-.767.327-1.559.395-2.352Z"/><path class="cls-50" d="M12.526,6.4h-.533c.04.126.194.065.226.188-.141.043-.307-.077-.426.064-.292.097-.588.158-.897.094-.03-.172-.175.028-.228-.074.133-.164.357-.138.552-.249-.077-.011-.122-.018-.168-.025.022-.114.124-.118.205-.143.397-.124.788-.061,1.176.047.046.013.093.036.092.098Z"/><path class="cls-56" d="M14.442,24.604c-.162.014-.223.224-.401.208-.035-.127.08-.16.145-.214.79-.653,1.883-.667,2.693-.039.05.039.098.08.069.156-.352-.135-.659-.368-1.052-.423-.531-.075-1.009.027-1.455.312Z"/><path class="cls-60" d="M19.984,6.556c-.004-.108-.076-.079-.137-.066-.093.02-.185.042-.295.067.003-.122.096-.171.141-.246.162-.156.36-.119.554-.101.16.015.308.105.476.079.228.115.353.321.474.526-.055.091-.148-.117-.19.034-.082.036-.159.005-.231-.028-.254-.116-.534-.156-.791-.267Z"/><path class="cls-134" d="M2.43,13.944c.094.189-.014.381.012.625.338-.356.664-.242.989.014.066-.213-.064-.379-.029-.551.039-.191.257-.243.328-.412-.007-.012-.013-.036-.021-.036-.358-.012-.623-.145-.709-.526-.008-.034-.023-.104-.096-.074-.03-.022-.046-.057-.018-.08.044-.036.101-.024.128.022.054.09.11.183.14.282.057.183.173.262.36.264.079,0,.159.025.238.044.103.026.104.088.049.163-.019.026-.041.053-.067.071-.251.176-.329.399-.201.688.025.057.039.136-.013.185-.06.057-.12-.007-.178-.027-.023-.008-.045-.02-.065-.034-.228-.157-.453-.199-.683-.001-.154.132-.265.1-.318-.101.016-.182-.03-.383.153-.515Z"/><path class="cls-22" d="M10.415,7.443c-.221.044-.36.228-.574.352.259-.496.652-.748,1.151-.854.215-.071.429-.165.657-.046.083.024.175.028.24.135-.187.023-.362.045-.538.067-.317.102-.639.193-.937.347Z"/><path class="cls-72" d="M14.009,2.634c.058.255.244.326.476.33.059.024.132-.001.19.064-.075.144-.174.218-.341.134-.361-.181-.739-.172-1.123-.106-.137.023-.138.02-.094-.093q.509-.008.688-.466c.189-.133.122.113.204.138Z"/><path class="cls-8" d="M20.96,8.027c-.229-.141-.422-.34-.683-.43.088-.016.098-.057.02-.098-.092-.049-.192-.083-.298-.127.089-.07.179-.084.275-.083.291.024.484.229.703.385.186.155.392.297.413.627-.159-.129-.28-.227-.402-.324-.003-.002-.018.004-.02.01-.005.013-.006.027-.009.041Z"/><path class="cls-78" d="M21.398,11.613c.021.281.201.554.042.868-.087-.109-.071-.225-.096-.328-.179-.316-.22-.677-.333-1.014-.007-.27-.181-.479-.266-.721,0-.047-.023-.113.029-.131.075-.026.12.042.147.096.199.394.416.782.476,1.23Z"/><path class="cls-145" d="M21.01,7.042c.01.209.225.28.301.445-.091.045-.095.05-.136.016-.126-.104-.265-.189-.398-.283-.153-.154-.382-.116-.555-.221-.138-.051-.269.04-.406.022.09-.232.36-.114.491-.261.251-.094.627.057.703.282Z"/><path class="cls-27" d="M20.758,11.262c-.087-.192-.109-.394-.083-.602.034-.022.072-.027.111-.018.2.105.187.318.25.492.103.368.25.726.264,1.116v.415l-.045.007c-.051-.256-.102-.512-.153-.768-.137-.154-.141-.355-.183-.54-.032-.139-.08-.267-.128-.397.05.115.099.229.101.36-.018.036-.042.061-.087.044-.015-.036-.031-.073-.046-.109Z"/><path class="cls-48" d="M21.049,10.184c-.062-.036-.031-.101-.046-.152-.025-.088-.099-.217.001-.256.101-.039.164.088.204.185.076.227.281.383.34.619.104.25.238.493.184.828-.04-.087-.064-.139-.088-.191-.156-.242-.239-.522-.398-.762-.062-.093-.113-.193-.197-.271Z"/><path class="cls-34" d="M12.915,13.18c.065-.001.131.003.195-.004.112-.013.174.022.152.144-.032.175.044.233.211.206.082-.013.153.009.139.113-.012.09.058.217-.054.26-.081.031-.192.035-.282-.014-.015-.008-.024-.044-.02-.064.061-.315-.162-.254-.337-.256-.02-.016-.034-.037-.043-.061-.022-.1-.028-.199.014-.297.009-.009.017-.018.026-.028Z"/><path class="cls-6" d="M17.822,13.566c-.186.004-.395.041-.34-.267.02-.111-.064-.116-.14-.106-.156.021-.219-.033-.211-.199.006-.125.04-.168.168-.166.138.002.232.006.216.19-.024.28.198.114.307.155.093.131.093.262,0,.393Z"/><path class="cls-75" d="M20.767,8.762c.29.087.331.408.54.571-.035.141.179.219.086.383-.051-.024-.105-.051-.159-.077-.138-.152-.282-.3-.414-.458-.087-.105-.161-.224-.151-.372.042.002.094.028.098-.048Z"/><path class="cls-44" d="M18.898,5.331c.183.036.252.154.251.332,0,.153-.021.309.044.456-.13-.016-.125.104-.167.172-.096.154-.169.324-.359.414.195-.443.426-.875.231-1.374Z"/><path class="cls-96" d="M21.01,7.042c-.173-.246-.441-.255-.703-.282-.164-.009-.328-.018-.505-.027.037-.091.115-.128.182-.177.372-.012.688.171,1.021.294.189.144.354.304.399.576-.17-.113-.229-.303-.395-.384Z"/><path class="cls-93" d="M20.721,6.29c-.046.085-.116.068-.191.047-.277-.078-.556-.115-.839-.026-.088-.205-.193.052-.29-.013-.063-.06.123-.139-.011-.196.208-.095.427-.104.649-.076.074.092.204.06.288.131.136.029.272.06.393.133Z"/><path class="cls-103" d="M16.311,14.052c-.012-.294-.029-.587.049-.876.046,0,.093.001.139.002.129.084.237.18.192.355-.015.059-.032.137-.127.082-.149.098-.031.225-.035.338-.002.071.036.159-.046.198-.088.043-.123-.05-.172-.1Z"/><path class="cls-17" d="M17.186,14.354c-.132-.224-.249-.452-.246-.722.04-.102.11-.106.196-.062-.002.193-.025.368.284.353.137-.006.033.216.074.327-.111.01-.219.027-.308.103Z"/><path class="cls-83" d="M12.526,6.4c-.491-.186-.982-.216-1.473-.002-.079.008-.145.076-.233.055.29-.409,1.237-.444,1.86-.069-.048.048-.102.021-.154.017Z"/><path class="cls-1" d="M20.286,7.239c-.03-.069-.111-.045-.155-.082-.085-.07.007-.054.037-.068.249-.106.425.097.636.151.202.087.376.211.5.397.058.101.156.18.17.33-.226-.1-.321-.348-.546-.42-.232-.065-.43-.202-.642-.308Z"/><path class="cls-114" d="M28.06,10.315c-.439.006-.877.016-1.316.017-.871.002-1.742,0-2.612-.005-.085,0-.181.037-.252-.045,1.143-.004,2.285-.007,3.428-.012.212,0,.424-.007.636-.012.051-.001.098,0,.117.058Z"/><path class="cls-66" d="M9.829,9.304c.121-.17.201.136.332.039-.192.215-.384.431-.575.646-.02-.016.018-.136-.06-.043-.136.162-.174.376-.26.582-.059-.081-.03-.148-.005-.208.143-.343.276-.692.602-.917.084-.058.118-.113-.033-.098Z"/><path class="cls-125" d="M3.455,11.071c-.099-.012-.19-.045-.271-.103-.075-.059-.047-.129-.019-.196.074-.179.159-.355.225-.537.066-.182.177-.213.376-.116-.427.223-.451.564-.311.951Z"/><path class="cls-29" d="M17.136,13.571c-.079-.023-.145-.006-.196.061-.015.017-.038.033-.043.053-.017.068-.01.157-.098.173-.086.016-.111-.074-.156-.125-.031-.035-.053-.078-.079-.118.137-.111.116-.228-.008-.321-.05-.037-.096-.046-.056-.115.158,0,.345-.043.297.229-.014.08.043.109.119.115.075.006.164-.04.221.049Z"/><path class="cls-91" d="M18.564,13.519c.073.001.146.008.219.003.189-.013.144.123.156.23.018.161-.08.16-.196.161-.118.001-.206,0-.188-.161.036-.327-.209-.157-.341-.186,0-.013,0-.025,0-.038.015-.022.034-.038.058-.048.103-.028.203-.034.293.039Z"/><path class="cls-74" d="M10.897,6.745c.297-.048.594-.104.897-.094.085.054.207.015.323.151h-.423c-.295.036-.59.071-.887.089-.109.011-.207.088-.338.05.124-.125.282-.146.427-.196Z"/><path class="cls-9" d="M12.918,13.523c-.002.014-.002.028-.001.042-.001.049-.009.098-.003.146.016.136-.014.206-.179.203-.153-.003-.232-.034-.206-.202.007-.047-.002-.097-.004-.146.007-.009.013-.018.02-.027.017-.015.036-.027.056-.037.086-.036.174-.046.265-.021.02.011.038.025.053.041Z"/><path class="cls-126" d="M15.573,6.35c-.008.038-.016.076-.031.143-.185-.38-.422-.687-.771-.945.172-.016.231.123.347.126.188.2.432.363.455.676Z"/><path class="cls-88" d="M10.415,7.443c.265-.244.582-.345.937-.347.005.064.081.047.103.09-.363.046-.697.193-1.043.298,0-.014,0-.028.003-.041Z"/><path class="cls-132" d="M12.188,13.172c.113.003.226.006.339.009.01.01.019.021.029.031.047.125.058.248-.033.361,0,0,.002-.007.002-.007q-.327.008-.354-.371c.006-.008.011-.015.017-.023Z"/><path class="cls-7" d="M9.677,9.051c.14.057.19-.144.339-.12-.037.137-.144.195-.23.27-.078.068-.174.126-.144.255-.064.084-.137.159-.272.229.055-.26.144-.464.307-.635Z"/><path class="cls-28" d="M12.527,13.181c.001-.04.006-.081.002-.121-.012-.141-.007-.235.193-.235.198,0,.206.091.192.234-.004.04,0,.081,0,.121,0,0,.006-.006.006-.006-.133.095-.266.095-.398,0l.004.007Z"/><path class="cls-21" d="M20.752,10.664c-.026-.001-.052-.002-.078-.003,0-.029-.001-.057-.002-.086.122-.109-.04-.288.097-.394.398.357.488.87.672,1.336l-.043.097c-.143-.362-.242-.741-.431-1.084-.035-.064-.074-.125-.117-.184-.015-.021-.048-.063-.073-.03-.019.025-.004.075-.004.114.017.08.071.164-.02.235Z"/><path class="cls-132" d="M12.171,13.195c-.113,0-.254.084-.324-.057-.04-.079-.057-.209.011-.278.068-.07.191-.04.28-.019.11.026.036.138.052.21.008.039,0,.081-.002.122-.006.007-.012.015-.017.023Z"/><path class="cls-127" d="M18.564,13.519c-.11,0-.221-.001-.331-.002-.011-.005-.023-.011-.034-.016-.056-.096-.052-.194-.012-.294.009-.009.018-.018.026-.028.008,0,.016-.001.024-.001q.333-.004.327.34Z"/><path class="cls-9" d="M17.877,12.839q.341-.012.336.34s.005-.006.005-.006c-.111.087-.227.093-.346.018-.034-.118-.045-.236.005-.352Z"/><path class="cls-95" d="M18.213,13.566c0,.008.001.016.001.024q.004.325-.332.309c-.049-.122-.083-.259.022-.352.088-.077.212-.057.31.024v-.005Z"/><path class="cls-135" d="M8.95,8.468c.03-.033.059-.065.089-.098.086.039.196.049.129.202-.067.153.006.341-.1.494-.122-.184-.063-.403-.118-.598Z"/><path class="cls-105" d="M10.808,6.89c.291-.071.577-.2.887-.089-.015.031-.03.062-.045.093-.221-.018-.434.088-.657.046-.044-.079-.121-.039-.184-.05Z"/><path class="cls-85" d="M11.871,4.389c.431-.125.791-.144,1.124-.04-.357-.009-.708.039-1.059.09l-.065-.05Z"/><path class="cls-4" d="M9.441,6.439c.079-.027.158-.054.236-.08.181.112.171.3.215.467-.017.013-.034.026-.051.039-.133-.142-.267-.284-.4-.426Z"/><path class="cls-100" d="M8.341,15.96c.08-.088.166-.074.259-.019.118.069.239.133.366.203.072-.118-.073-.216-.013-.32.011,0,.022,0,.033,0,.097.075.074.197.086.291.02.151-.1.104-.181.074-.186-.071-.331-.239-.551-.23Z"/><path class="cls-105" d="M20.821,7.287c-.234-.013-.412-.211-.654-.198.018-.03.037-.06.055-.09.219-.005.431.014.595.186-.006.034.026.067.004.102Z"/><path class="cls-109" d="M20.286,7.239c.243.043.46.139.642.308.016.042.033.084.049.126-.234-.128-.469-.256-.703-.385l.011-.049Z"/><path class="cls-80" d="M20.804,11.371l.063-.061c.156.167.141.389.187.591.002.081.004.163.007.244,0,0,.003-.003.003-.003-.201-.219-.186-.51-.26-.772Z"/><path class="cls-23" d="M10.133,11.218c.141-.344.386-.605.675-.831-.239.276-.452.57-.631.887-.015-.019-.03-.037-.044-.056Z"/><path class="cls-71" d="M21.049,10.184c.258.182.35.475.485.737.048.093.074.197.11.296-.02,0-.04,0-.06,0-.158-.355-.338-.699-.535-1.034Z"/><path class="cls-68" d="M9.773,8.068c.082.08.139-.057.231-.016.001.188-.254.197-.274.368-.084.055-.161.082-.12-.067.029-.106.071-.211.163-.284Z"/><path class="cls-110" d="M21.054,11.901c-.062-.197-.125-.394-.187-.591-.015-.142-.115-.268-.086-.475.145.382.268.714.32,1.069-.016,0-.032-.001-.047-.003Z"/><path class="cls-12" d="M16.433,27.16c-.137.008-.255-.053-.376-.101-.025-.058-.075-.12-.013-.177.056-.052.103.018.155.031.131.031.213.112.235.248Z"/><path class="cls-106" d="M21.3,12.25c-.094-.377-.189-.754-.283-1.132.014-.019.028-.018.042,0,.121.338.225.68.286,1.034-.015.032-.03.064-.045.097Z"/><path class="cls-105" d="M9.777,10.327c.069-.196.164-.373.356-.478.035.045.022.087-.009.128-.063.152-.157.277-.304.357,0,0-.023.003-.023.003l-.021-.011Z"/><path class="cls-51" d="M18.214,13.571q-.365-.003-.332.328c-.121-.093-.037-.222-.06-.333,0-.131,0-.262,0-.393.017-.112-.056-.238.054-.335-.002.114-.003.228-.005.342.049.177.163.289.339.339l.01-.01.012.007c-.006.018-.012.036-.019.054Z"/><path class="cls-101" d="M20.71,11.894c-.053-.146-.084-.292.008-.435.07.201.116.406.144.637-.092-.057-.111-.137-.152-.202Z"/><path class="cls-77" d="M21.398,13.069c.021-.048.042-.096.063-.143.097.281.139.562-.008.841-.013-.014-.025-.029-.038-.043-.095-.216-.012-.436-.017-.654Z"/><path class="cls-80" d="M21.061,12.146c.079.252.1.51.065.772-.079-.253-.075-.513-.061-.775,0,0-.003.003-.003.003Z"/><path class="cls-67" d="M21.548,10.58c-.121-.202-.296-.375-.34-.619.121.168.242.336.38.527.009-.087.015-.146.021-.206.085.121.045.216-.06.299Z"/><path class="cls-31" d="M15.24,26.872c-.107-.016-.22-.002-.318-.062.008-.105.041-.189.165-.12.069.038.258-.007.154.182Z"/><path class="cls-30" d="M13.699,3.914c.202.105.399.218.566.372-.012.019-.024.038-.036.056-.193-.129-.385-.257-.578-.386.016-.014.031-.028.047-.042Z"/><path class="cls-11" d="M20.785,13.437c-.052-.229-.102-.406-.022-.589.07.176.104.354.022.589Z"/><path class="cls-113" d="M20.821,7.287c0-.034-.09-.064-.004-.102.194.053.287.27.494.302.078.054.004.101-.007.15-.162-.115-.297-.268-.483-.35Z"/><path class="cls-53" d="M21.305,8.665c-.156-.155-.314-.307-.421-.503.17.117.314.258.427.43-.002.024-.004.049-.007.073Z"/><path class="cls-47" d="M27.106,21.11c.322-.065.647-.037.971-.022-.322.075-.647.028-.971.022Z"/><path class="cls-41" d="M10.411,11.644c-.001.205-.078.348-.184.525.001-.214.041-.37.184-.525Z"/><path class="cls-30" d="M10.671,7.641c-.16.099-.321.197-.481.296.108-.162.262-.259.428-.339.018.014.035.028.053.043Z"/><path class="cls-128" d="M20.328,6.157c-.095-.014-.192-.022-.285-.044-.073-.018-.018-.057-.003-.087.11.046.24.004.344.079-.019.017-.037.035-.056.052Z"/><path class="cls-102" d="M15.713,26.91c-.089.009-.172-.009-.251-.049-.018-.099.047-.097.115-.098.102-.002.144.049.137.147Z"/><path class="cls-116" d="M20.978,13.179c-.081-.143-.069-.23-.042-.336.12.085.081.18.042.336Z"/><path class="cls-133" d="M5.795,10.282c-.015-.061-.144-.159.054-.15.102.004.211.028.307-.034.126-.098.191-.238.264-.375.094-.174.167-.186.245-.02.119.255.29.395.575.407.142.006.148.119.063.181-.279.206-.273.477-.212.768.026.123-.05.178-.128.108-.307-.277-.589-.137-.877.022-.11-.048-.1-.149-.075-.228.074-.235.036-.426-.171-.574-.032-.023-.053-.061-.046-.105Z"/><path class="cls-133" d="M5.559,11.81c.029.126-.117.143-.145.233-.15.146-.184.316-.114.514.027.076.04.17-.034.228-.082.064-.156-.006-.22-.05-.2-.138-.392-.182-.597-.003-.054.048-.142.108-.22.037-.064-.058-.024-.133-.006-.206.061-.236-.002-.428-.21-.572-.056-.039-.141-.095-.119-.171.027-.09.141-.098.211-.084.315.062.411-.152.515-.374.032-.069.034-.187.128-.19.092-.003.116.107.14.179.087.267.273.389.543.404.05.003.098.008.129.055Z"/><path class="cls-14" d="M5.559,11.81c-.35-.005-.637-.1-.725-.493-.01-.044-.049-.082-.099-.164-.125.435-.332.74-.86.636.354.257.532.547.358.998.367-.343.699-.215,1.023.03.079-.281-.221-.598.158-.774-.122.21-.102.429-.054.656.037.177-.05.225-.208.145-.036-.018-.074-.036-.106-.061-.188-.149-.373-.182-.566-.004-.046.042-.113.066-.174.088-.111.039-.174.002-.167-.124.001-.024-.003-.051.005-.073.115-.312.017-.55-.242-.742-.053-.039-.145-.087-.114-.169.03-.081.13-.069.197-.056.367.072.541-.127.636-.441.022-.072.047-.158.127-.163.081-.005.121.078.143.147.094.294.274.469.601.463.045,0,.093.028.136.05.036.019.078.055.037.094-.055.053-.051-.071-.105-.045Z"/><path class="cls-129" d="M5.954,14.499c.001-.024-.003-.051.006-.073.118-.292.009-.519-.198-.722-.05-.049-.126-.098-.087-.184.034-.074.115-.049.176-.05.303-.003.463-.179.566-.441.073-.186.191-.185.261-.011.121.299.289.492.643.483.151-.004.225.124.067.21-.344.187-.33.465-.251.772.051.199-.035.194-.173.131-.015-.007-.033-.01-.044-.021-.247-.223-.486-.177-.747-.009-.174.112-.217.08-.219-.085Z"/><path class="cls-117" d="M4.617,16.148c-.061.163-.22.201-.352.272-.067.036-.114-.002-.122-.069-.008-.072-.026-.161.005-.217.171-.308.009-.5-.213-.681-.048-.039-.126-.084-.108-.152.025-.089.121-.069.19-.065.3.015.482-.135.591-.4.031-.075.07-.165.158-.171.11-.007.113.108.131.178.072.277.271.357.526.377.075.006.182-.006.213.089.03.095-.063.152-.124.191-.284.184-.261.436-.176.707.02.063.054.133-.004.182-.061.052-.124-.006-.18-.032-.174-.082-.33-.209-.536-.21.043-.15.147-.126.254-.088.069.025.127.073.192.107.092.048.165.019.123-.082-.11-.263-.025-.452.177-.622.08-.067.025-.121-.054-.128-.245-.02-.407-.136-.496-.369-.037-.096-.103-.061-.139.011-.126.253-.299.428-.635.386.335.226.344.52.233.848.14.015.227-.112.345-.064Z"/><path class="cls-10" d="M6.098,11.181c.013-.01.027-.019.039-.029.256-.201.515-.295.795-.039.027.025.074.029.135.051-.041-.368-.154-.746.301-.976-.427-.016-.689-.201-.78-.591-.235.108-.15.459-.433.502-.097-.006-.193-.013-.289-.019.36.058.448-.217.566-.457.081-.166.185-.17.244.003.107.313.33.434.639.461.183.016.192.123.062.215-.282.201-.323.462-.238.769.055.199-.031.221-.189.151-.045-.02-.095-.035-.13-.067-.182-.169-.356-.157-.539.001-.078.067-.179.153-.284.09-.096-.058-.035-.179-.04-.272.083-.017.061.047.068.088.008.05-.021.122.073.12Z"/><path class="cls-81" d="M7.915,4.982c.121.088.095.209.077.33-.014.096-.021.192-.039.365.372-.367.701-.241,1.019.004.088-.262-.22-.557.121-.749-.123.222-.072.448-.015.674.03.119.002.182-.133.115-.029-.014-.061-.025-.087-.044-.255-.186-.506-.221-.765,0-.051.043-.129.106-.196.059-.064-.045-.045-.141-.022-.205.066-.181.014-.368.039-.55Z"/><path class="cls-62" d="M8.361,14.698c-.092.349-.359.435-.708.428.088.111.151.191.214.271-.196.025-.245-.135-.312-.26-.028-.053.037-.094.083-.09.31.025.547-.078.683-.37.014.007.027.014.041.021Z"/><path class="cls-38" d="M6.49,7.397c.237-.072.359.187.568.193.061-.213-.202-.439.023-.648.017.197.037.394.052.591.011.14-.048.18-.174.112-.156-.083-.312-.166-.467-.248Z"/><path class="cls-94" d="M7.199,6.848c.025-.073.154-.1.112-.192-.033-.074-.129-.042-.198-.049-.19-.02-.34-.086-.379-.297.187.172.411.24.661.254.094.005.087.082.04.141-.06.075-.123.153-.236.143Z"/><path class="cls-59" d="M5.897,6.798c.314.202.167.502.151.766.084.037.13-.044.195-.035-.013.13-.128.134-.203.122-.073-.012-.052-.116-.039-.172.058-.243-.005-.464-.104-.681Z"/><path class="cls-124" d="M6.098,11.181c-.047-.069-.094-.138-.14-.208.078-.204.076-.389-.116-.538-.041-.032-.121-.075-.046-.153.241.185.38.402.252.72-.023.057-.056.146.051.179Z"/><path class="cls-86" d="M7.969,15.777c.006.128-.086.248-.03.394.139-.073.274-.145.409-.216-.07.165-.236.202-.372.278-.049.027-.101.022-.107-.045-.013-.158-.02-.317.064-.462,0-.001.016.002.018.007.007.014.012.03.018.045Z"/><path class="cls-87" d="M10.771,3.906c.017-.179-.106-.359.002-.539.048.18.069.359-.002.539Z"/><path class="cls-104" d="M13.653,16.407c.304-.252.571-.549.902-.782.096.175.024.409.251.493.143.053.286.126.329-.114.012-.065.052-.129.13-.124.089.005.073.096.095.15.027.067.032.144.059.212.158.4.593.479.876.159.178-.201.274-.44.305-.707.007-.059-.053-.168.078-.163.098.004.106.095.109.165.007.171.002.342.002.555.224-.159.194-.354.185-.541-.004-.076-.075-.178.026-.215.089-.033.128.079.179.138.229.265.456.531.684.796.272.434.578.847.8,1.312-.003.047-.006.094-.009.14-.151-.066-.173-.224-.243-.346-.069-.12-.134-.242-.235-.34-.177-.252-.333-.518-.524-.762-.139-.179-.274-.358-.469-.481-.086.735-.588,1.156-1.317,1.088-.173-.016-.19.059-.189.194,0,.103.086.23-.064.303-.113-.042-.082-.174-.151-.244-.02-.036-.031-.079-.032-.117-.001-.245-.132-.389-.349-.475-.052-.021-.097-.06-.151-.079-.235-.07-.467-.142-.494-.447-.009-.102-.079-.053-.121-.028-.109.065-.215.136-.321.205-.284.291-.542.603-.785.928-.224.309-.198.647-.094,1.006-.171-.052-.171-.185-.19-.296-.061-.369.071-.685.283-.976.148-.203.297-.405.446-.608Z"/><path class="cls-143" d="M15.863,19.37c-.514-.069-1.03-.026-1.566-.004.071-.168.257-.17.305-.332-.163-.08-.362-.11-.487-.293,1.243.469,2.449.53,3.58-.304.057.113-.04.142-.067.199-.217.267-.609.506-1.082.661,0,.074.112.14.029.217-.068.063-.155.039-.231.01-.158-.059-.34-.043-.482-.154Z"/><path class="cls-16" d="M15.863,19.37c.234.012.46.067.686.149.045-.138-.087-.166-.146-.289.507-.01.827-.375,1.224-.595.003.154-.087.261-.195.349-.166.134-.187.292-.106.477.095.215.129.433.037.657-.037.091-.076.189-.185.209-.12.022-.141-.09-.18-.165-.18-.346-.47-.508-.848-.573-.099-.017-.364.07-.289-.22Z"/><path class="cls-69" d="M18.022,17.779c-.078-.041-.114.004-.152.049-.303.363-.717.374-1.135.34-.128-.01-.259-.048-.387-.038-.848.067-1.689.025-2.526-.131-.168-.031-.341-.051-.465.119-.024.033-.078.077-.126.035-.058-.052-.015-.103.023-.147.048-.056.093-.114.144-.166.066-.068.111-.232.235-.034.03.048.168.031.256.042.34.041.688.149,1.016.103.312-.043.625.048.901-.013.39-.087.739.018,1.105.042.213.014.422-.004.621-.098.091-.043.177-.086.214-.187.071-.191.194-.13.313-.063.048.027.111.064.08.13-.027.057-.084.03-.119.015Z"/><path class="cls-119" d="M15.613,17.536c.065-.134-.005-.269-.003-.404.002-.157.028-.213.204-.177.515.107.933-.098,1.184-.551.103-.186.126-.38.08-.634.481.429.843.885,1.097,1.425-.085-.026-.128-.093-.167-.167-.171-.323-.419-.59-.65-.901-.099.2-.102.41-.206.583-.194.325-.514.427-.858.482-.232.037-.455.07-.347.403.027.083-.06.123-.117.124-.113.001-.204-.051-.217-.183Z"/><path class="cls-137" d="M13.207,17.28c.167-.39.434-.695.785-.928-.063.264-.298.407-.439.617-.079.118-.174.229-.256.347-.068.098-.08.026-.09-.036Z"/><path class="cls-115" d="M14.93,16.621c.464.048.554.162.532.671-.134-.259-.299-.492-.532-.671Z"/><path class="cls-136" d="M20.091,14.603c.044-.042.038-.097.039-.15.088-.09.014-.225.087-.321.336.416-.078,2.644-.595,3.165-.104-.527-.102-1.032.092-1.535.147-.379.305-.756.377-1.159Z"/><path class="cls-136" d="M10.465,15.679c-.432-.169-.482-.546-.474-.928.006-.273,0-.556.119-.817.028-.061.038-.137-.028-.177-.094-.057-.2-.141-.313-.062-.122.086-.134.019-.144-.078-.02-.194-.063-.387-.002-.582.016-.05-.022-.129.044-.149.077-.023.14.03.184.093.236.333.443.682.566,1.075.08.255.089.506.028.77-.052.227-.096.466.063.68.015.066.025.13-.043.175Z"/><path class="cls-107" d="M12.923,19.989c-.106.111-.195.047-.268-.037-.495-.574-.768-1.227-.644-1.996.034-.209-.029-.473.227-.607.064.065.051.15.062.23.097.737.24,1.462.574,2.136.042.084.108.169.049.274Z"/><path class="cls-136" d="M21.398,13.069c.137.215.013.436.017.654-.018.014-.041.044-.053.041-.097-.028-.179-.138-.292,0-.111.135-.176.255-.12.439.125.407.112.817-.042,1.218q-.22.237-.426.234c-.014-.09.081-.133.092-.212.186-.155.175-.363.123-.561-.089-.337-.045-.642.137-.937.183-.295.289-.64.564-.875Z"/><path class="cls-65" d="M12.923,19.989c-.361-.701-.563-1.449-.663-2.227-.018-.136-.015-.275-.022-.413.133-.052.128.049.139.128.117.843.27,1.675.697,2.429.029.051.068.11.008.153-.078.056-.105-.049-.16-.07Z"/><path class="cls-63" d="M10.706,16.215c.109.101.04.208.006.309-.047.136-.127.261-.291.221-.189-.046-.147-.194-.102-.329.13-.065.232-.185.388-.201Z"/><path class="cls-54" d="M20.393,16.522c.067.121.302-.121.309.123.004.131-.126.18-.252.156-.102-.019-.213-.049-.219-.185-.005-.108.073-.107.162-.095Z"/><path class="cls-73" d="M20.371,16.076c.029.032.057.065.086.097.032.053.086.073.14.091.072.023.158.043.113.144-.04.089-.124.058-.193.034-.121-.041-.223-.106-.25-.243-.016-.081.019-.125.105-.123Z"/><path class="cls-3" d="M10.706,16.215c-.107.111-.212.224-.388.201-.039-.062-.098-.134.036-.148.094-.01.167-.044.219-.125.024-.038.05-.095.108-.061.048.029.023.087.025.133Z"/><path class="cls-55" d="M19.696,27.114c0-.019-.001-.038-.002-.057.322-.152.658-.045.983-.03.326.015.65.094.98.08-.507.026-1.002-.111-1.509-.117-.148-.002-.306.064-.452-.021,0-.037,0-.074-.001-.111.289-.132.602-.089.889-.047.297.043.603.011.819.084-.107-.043-.294-.032-.48-.034-.108,0-.212-.018-.275-.123-.005-.026,0-.051.012-.074.306.005.613-.008.9.031-.286-.073-.601.028-.902-.074-.021-.041-.018-.079.008-.116.334-.105.666-.012.947-.01-.199-.062-.463.003-.717-.046-.079-.015-.162-.009-.23-.062-.029-.041-.029-.083,0-.124.399-.033.791.007,1.179.105.001.313.039.628-.047.936-.065.06-.146.071-.229.065-.599-.048-1.193-.138-1.789-.207-.033-.004-.06-.024-.084-.047Z"/><path class="cls-139" d="M20.671,26.508c0,.032-.002.064-.003.095.027.028.027.055,0,.084v.012c-.324.156-.652.127-.981.018,0-.13.012-.261-.003-.389-.029-.236.1-.299.297-.298.428.002.855.035,1.274.125.194.041.402-.05.581.078-.283.131-.573.023-.86.023-.102,0-.206-.069-.306.006,0,.035-.001.07-.002.105.037.046.042.093.002.141Z"/><path class="cls-32" d="M19.696,27.114c.57-.017,1.122.143,1.688.163.138.005.276.017.414.025,0,.034,0,.067.001.101-.288.085-.578.053-.869.014-.338-.046-.671-.139-1.018-.116-.078.005-.167.019-.224-.063.002-.042.004-.083.007-.125Z"/><path class="cls-123" d="M19.688,26.717c.328.021.655.027.982-.018.063.13.185.107.297.115.271.02.542.042.811.104-.696.026-1.387-.106-2.082-.061,0-.047-.047-.092-.007-.14Z"/><path class="cls-18" d="M19.689,27.239c.709-.018,1.397.233,2.111.165.001.115-.087.101-.156.1-.268-.004-.536.014-.803-.041-.334-.068-.668-.145-1.014-.112-.077.007-.153-.001-.138-.113Z"/><path class="cls-40" d="M19.696,26.968c.696-.037,1.383.057,2.069.161-.694.076-1.377-.175-2.071-.073,0-.029.002-.059.003-.088Z"/><path class="cls-122" d="M20.671,26.262c-.014-.181.124-.093.182-.086.327.043.654.076.984.056.003.045.006.089.009.134-.398.036-.785-.043-1.174-.104Z"/><path class="cls-58" d="M11.247,8.415c-.36.064-.659.263-.973.431-.044.023-.095.104-.142.037-.056-.08.034-.104.087-.137.296-.186.598-.36.939-.451.066.013.158.006.088.119Z"/><path class="cls-144" d="M10.903,10.722c-.241.115-.363.359-.604.568.146-.319.337-.516.572-.679.05.025.042.068.032.11Z"/><path class="cls-141" d="M10.024,10.41c.097-.41.592-.84.981-.85-.406.213-.707.476-.981.85Z"/><path class="cls-58" d="M10.926,9.825c-.281.226-.519.496-.789.756.012-.243.504-.723.789-.756Z"/><path class="cls-90" d="M10.125,9.977c.003-.043.006-.085.009-.128.235-.251.455-.524.843-.557-.337.165-.575.448-.852.685Z"/><path class="cls-97" d="M10.412,9.004c-.047-.019-.067-.059-.029-.092.208-.176.445-.3.712-.359.044-.01.075.023.092.065,0,0,.001-.002.001-.002-.077.036-.153.072-.229.108-.148.161-.339.238-.547.281Z"/><path class="cls-46" d="M10.957,8.778c.039.003.096-.009.113.011.049.061-.021.088-.057.1-.244.085-.458.225-.684.395-.021-.144.082-.174.132-.236.133-.149.312-.214.495-.271Z"/><path class="cls-25" d="M10.203,9.478c.213-.201.445-.373.763-.401-.241.153-.482.307-.723.46l-.039-.059Z"/><path class="cls-2" d="M10.957,8.778c-.165.09-.33.181-.495.271-.017-.015-.033-.03-.05-.044.171-.116.353-.21.547-.281,0,.018,0,.036-.001.054Z"/><path class="cls-92" d="M16.465,27.929c.102.211.127.434.102.665-.123-.208-.142-.432-.102-.665Z"/><path class="cls-79" d="M13.942,5.563c-.219-.095-.438-.19-.657-.284.269-.012.475.124.657.284Z"/><path class="cls-45" d="M20.71,8.274c.118.065.245.125.285.272.013.048-.028.083-.072.062-.127-.058-.222-.157-.282-.282-.018-.037.034-.043.069-.052Z"/><path class="cls-57" d="M21.058,11.119c-.014,0-.028,0-.042,0-.125-.13-.079-.36-.264-.455.007-.078.013-.157.02-.235.153.206.292.419.286.691Z"/><path class="cls-33" d="M12.523,13.174c.133,0,.266,0,.398,0,0,.116-.002.233-.003.349-.017-.003-.034-.006-.052-.009-.016-.017-.03-.036-.04-.058-.026-.053-.019-.139-.102-.141-.088-.002-.079.083-.096.139-.012.038-.028.073-.051.106-.018.004-.036.008-.054.013,0-.133,0-.266,0-.399Z"/><path class="cls-39" d="M12.577,13.56c.025-.109-.076-.255.074-.325.154-.071.217.014.215.279-.096.019-.201-.018-.29.046Z"/><path class="cls-36" d="M18.211,13.52q-.344.007-.339-.339c.115-.003.231-.005.346-.008-.002.116-.005.231-.007.347Z"/><path class="cls-133" d="M7.064,14.566c-.337-.255-.661-.319-1.012.002.104-.413.07-.755-.321-1.004.424.002.688-.179.786-.568.104.039.137.111.158.172.088.264.258.403.542.402.11,0,.144.081.054.132-.375.21-.257.528-.207.865Z"/><path class="cls-133" d="M4.617,16.148c-.128.069-.256.139-.442.239.103-.405.232-.794-.251-1.049.47.03.672-.246.839-.623.09.447.382.607.824.612-.416.25-.456.583-.28.989-.196-.029-.308-.123-.428-.192-.099-.057-.182-.061-.261.025,0,0,0,0,0,0Z"/><path class="cls-142" d="M20.669,26.687c0-.028,0-.056,0-.083.318.006.635.01.953.02.058.002.158-.034.163.053.006.112-.109.079-.169.076-.315-.016-.63-.043-.945-.066Z"/><path class="cls-15" d="M20.671,26.508c0-.047-.001-.094-.002-.14.34.042.686.033,1.021.125-.34.065-.68.009-1.019.016Z"/><path class="cls-64" d="M20.078,26.377c.155-.07.266-.087.401.038-.147.03-.256.042-.401-.038Z"/></svg>