<?xml version="1.0" encoding="UTF-8"?><svg id="Layer_1" xmlns="http://www.w3.org/2000/svg" viewBox="0 0 31.36 31.36"><defs><style>.cls-1{fill:#efb99d;}.cls-2{fill:#fbfbfb;}.cls-3{fill:#e72d36;}.cls-4{fill:#fdde00;}.cls-5{fill:#3c2d0c;}.cls-6{fill:#e78c19;}</style></defs><circle class="cls-4" cx="15.68" cy="15.68" r="15.68"/><path class="cls-5" d="M8.048,11.086s-.808,1.023-.539,5.647c0,0-1.77,4.533-1.17,6.848.6,2.309,2.94,2.193,2.94,2.193,0,0,3.755,3.301,6.633.392,2.885-2.916-2.401-14.204-2.401-14.204l-.662-3.902s-.723.57-.631,4.324-1.47,1.109-1.47,1.109l-2.701-2.407Z"/><path class="cls-6" d="M8.348,15.172l-.992,2.793-.361,1.954s-1.231,4.355,3.846,4.294c0,0,3.963,3.546,6.548,1.17l.692-.753,1.201-1.862,1.984-5.917s-.631-4.055-4.624-5.733c0,0-.331-.178-.931.061,0,0-1.654-3.724-2.701-3.271,0,0-.9.478-.122,4.147l-1.409.631s-1.543-2.928-2.971-2.34c-1.329.533-.159,4.826-.159,4.826Z"/><path class="cls-1" d="M13.481,9.733l.122,1.623s.092.931,1.078.6c.282-.092.527-.288.502-.606-.018-.239-.184-.459-.294-.662-.202-.386-.367-.796-.606-1.17-.122-.19-.374-.613-.649-.563,0,0-.208-.061-.153.778Z"/><path class="cls-1" d="M9.145,11.558c.018-.012.423-.521,1.262.717.839,1.237.753,1.078.753,1.078,0,0,.453.496-.472,1.133-.202.147-.423.269-.655.368-.147.055-.3.086-.453.086-.178-.006-.257-.098-.3-.263-.141-.539-.3-1.078-.38-1.629-.061-.429-.184-1.213.245-1.488Z"/><path class="cls-2" d="M18.896,14.051c0,.294-.429.533-.962.533s-.962-.239-.962-.533.441-.729.968-.729.956.435.956.729Z"/><ellipse class="cls-2" cx="12.763" cy="16.02" rx="1.047" ry=".674" transform="translate(-7.465 19.238) rotate(-60.495)"/><path class="cls-2" d="M14.712,18.785l2.628-1.366s3.271-1.709,4.067-.392,0,3.332,0,3.332c0,0-.343,2.358-2.75,2.566l-1.292.178-1.654.043s-2.658.153-4.612-1.292l-.619-.753s-1.243-1.709-.374-2.94,3.847.674,3.847.674c0,0,.417.227.76-.049Z"/><circle class="cls-3" cx="20.672" cy="11.343" r=".631"/><circle class="cls-3" cx="19.275" cy="9.794" r=".631"/><circle class="cls-3" cx="17.04" cy="9.298" r=".631"/><path class="cls-3" d="M17.536,4.827c.135,1.862-.135,3.546-.588,3.546s-1.054-1.819-1.054-3.546c0-.71.374-.827.827-.827.459,0,.766.116.815.827Z"/><path class="cls-3" d="M21.713,5.984c-.686,1.733-1.66,3.136-2.064,2.94s-.159-2.095.594-3.65c.312-.643.698-.582,1.102-.386.404.202.631.435.368,1.096Z"/><path class="cls-3" d="M24.702,9.365c-1.513,1.096-3.081,1.758-3.32,1.372-.239-.386.992-1.85,2.456-2.762.606-.374.9-.116,1.139.263.233.386.3.704-.276,1.127Z"/><path d="M14.59,16.954c-.055.006-.11.012-.165.018.006.018.012.037.012.061,0,.19-.3.349-.674.361,0,.018-.006.031,0,.049.018.233.423.392.894.355.478-.037.851-.257.833-.49-.025-.233-.423-.392-.9-.355Z"/><path d="M17.909,16.133c-.055.006-.11.012-.165.018.006.018.012.037.012.061,0,.19-.3.349-.674.361,0,.018-.006.031,0,.049.018.233.423.392.894.355.478-.037.851-.257.833-.49-.018-.233-.423-.392-.9-.355Z"/><path d="M19,17.107s-1.317.386-1.237,1.127,1.666,1.127,1.666,1.127c0,0,.429.171.674-.239.245-.404.606-.956.508-1.746,0,0-.031-.588-1.611-.269Z"/></svg>