<?xml version="1.0" encoding="UTF-8"?>
<svg id="Layer_1" data-name="Layer 1" xmlns="http://www.w3.org/2000/svg" version="1.1" viewBox="0 0 32 32">
  <defs>
    <style>
      .cls-1 {
        fill: #fadd5d;
      }

      .cls-1, .cls-2, .cls-3, .cls-4 {
        stroke-width: 0px;
      }

      .cls-2 {
        fill: #bcc8f6;
      }

      .cls-3 {
        fill: #2d9935;
      }

      .cls-4 {
        fill: #181913;
      }
    </style>
  </defs>
  <circle class="cls-3" cx="16" cy="16" r="15.639"/>
  <g>
    <path class="cls-4" d="M6.066,18.708c-.077-1.155.255-2.234.604-3.325.27-.843.615-1.656.892-2.496.162-.49.056-.809-.177-1.237-.387-.711-.71-1.496-.683-2.322.026-.805.373-1.531.941-2.119.607-.628,1.31-1.107,2.192-1.27.583-.108,1.178-.151,1.759-.074.714.094,1.291.457,1.731,1.061.553.759.591,1.657.775,2.519.027.126.042.256.061.384.087.61.115.638.746.64.869.002,1.739.008,2.608-.01.282-.006.556.044.832.068.225.019.366-.111.41-.264.189-.655.689-1.059,1.143-1.504.394-.386.837-.71,1.321-.968.296-.158.618-.277.957-.326.637-.091,1.274-.133,1.881.139.695.31,1.074.861,1.194,1.608.118.733-.24,1.313-.582,1.901-.2.344-.385.698-.605,1.028-.09.136-.075.234-.017.356.151.32.36.596.616.841.326.314.549.686.582,1.148.018.245.167.426.291.616.711,1.094.42,1.551-.289,2.329-.32.351-.611.698-.664,1.194-.022.21.019.368.203.487.185.12.345.273.479.447.323.419.186.908-.308,1.074-.264.089-.536.171-.811.203-.317.036-.393.206-.385.483.013.432-.041.854-.17,1.27-.079.255-.192.492-.38.671-.613.582-1.231,1.135-2.009,1.531-.94.478-1.885.908-2.909,1.153-1.053.253-2.129.345-3.206.273-.954-.064-1.913-.133-2.852-.338-1.475-.322-2.851-.875-3.962-1.927-.725-.687-1.194-1.568-1.611-2.47-.121-.262-.228-.531-.343-.795-.275-.632-.295-1.298-.257-1.977ZM19.832,13.472c.662-.42,1.364-.687,2.168-.682.523.003,1.036.047,1.546.154.086.018.185.069.249-.022.071-.101-.007-.192-.06-.273-.26-.393-.613-.682-1.027-.896-1.08-.559-2.248-.739-3.445-.808-1.688-.098-3.376-.103-5.063-.019-.267.013-.361-.072-.398-.339-.129-.914-.147-1.841-.396-2.745-.164-.597-.455-1.044-.952-1.385-1.085-.743-3.107-.394-4.02.333-.614.488-1.128,1.042-1.298,1.832-.207.963.013,1.887.553,2.658.488.696.426,1.29.105,1.991-.575,1.252-1.034,2.544-1.284,3.911-.285,1.556-.262,3.038.557,4.466.74,1.291,1.605,2.424,2.972,3.102,1.37.68,2.84.916,4.343,1.004,2.298.134,4.525-.164,6.62-1.168.308-.148.591-.371.838-.623-.08-.101-.165-.062-.238-.061-2.326.026-4.649,0-6.961-.293-1.181-.149-2.335-.409-3.453-.823-1.433-.53-2.358-1.543-2.8-2.987-.365-1.193.331-2.083,1.566-2.03.545.024,1.082.114,1.621.221.721.144,1.458.22,2.188.324,1.661.237,3.328.435,4.994.639,1.73.212,3.467.253,5.207.199.132-.004.241-.042.269-.183.03-.148-.045-.233-.179-.303-.126-.066-.37-.006-.372-.159-.002-.174.251-.148.379-.231.008-.005.018-.008.027-.013.096-.049.245-.088.214-.213-.035-.144-.189-.078-.285-.061-.928.162-1.842.064-2.748-.142-.72-.164-1.419-.389-1.958-.932-.695-.7-.621-1.787.152-2.398.605-.479,1.328-.577,2.063-.639.411-.081.825-.061,1.24-.046.609.079,1.174.302,1.739.528.109.044.24.182.35.047.101-.125-.004-.265-.07-.385-.098-.178-.243-.314-.411-.426-.278-.184-.583-.304-.906-.376-1.142-.254-2.257-.136-3.35.258-.094-.017-.19.105-.283-.005ZM9.709,20.109c-.166-.26-.152-.472-.014-.658.161-.217.345-.482.635-.461.609.044,1.215.144,1.819.237,2.161.332,4.328.622,6.5.879,1.666.197,3.329.428,5.009.482.359.012.724.035,1.074-.059.244-.066.508-.186.503-.479-.005-.284-.237-.446-.49-.549-.063-.026-.137-.029-.206-.034-.309-.02-.618-.04-.927-.055-1.346-.063-2.695-.07-4.04-.168-2.015-.147-4.008-.466-6.002-.771-1.251-.191-2.496-.409-3.767-.466-.888-.04-1.435.821-1.259,1.511.252.983.759,1.822,1.589,2.429.666.486,1.456.71,2.222.976.838.291,1.723.332,2.593.45.797.109,1.596.233,2.398.264,1.137.045,2.277.01,3.416.011.43,0,.857-.053,1.285-.085,1.059-.079,1.487-1.01,1.509-1.748.024-.787-.281-1.144-.981-1.161-.266-.006-.312.053-.204.296.138.312.254.627.3.968.023.168-.037.269-.169.37-.376.286-.813.376-1.264.421-1.217.119-2.432.051-3.646-.052-1.492-.127-2.977-.31-4.454-.554-1.134-.187-2.188-.556-3.019-1.401-.044-.045-.154-.072-.088-.151.059-.071.142-.021.209.033.187.149.37.306.569.439.734.489,1.533.804,2.415.915.793.1,1.582.23,2.372.346.1.015.211.028.249-.097.03-.099-.077-.114-.129-.133-.988-.364-1.801-1.008-2.607-1.653-.724-.579-1.552-.909-2.435-1.129-.46-.114-.598-.037-.865.352-.097.141-.057.282-.1.484ZM24.984,9.327c.031-.528-.244-1-.69-1.291-.475-.311-1.051-.431-1.636-.355-.676.088-1.274.353-1.815.777-.587.459-1.132.951-1.52,1.594-.238.394-.14.57.316.593.515.026,1.027.086,1.524.219.82.22,1.628.469,2.27,1.077.142.135.278.069.379-.103.273-.464.56-.92.839-1.382.199-.33.329-.683.333-1.128ZM22.288,14.029c-.876.051-1.631.1-2.318.459-.833.436-1.324,1.514-.3,2.389.267.228.584.377.911.504.601.233,1.234.311,1.867.399.817.113,1.625.054,2.318-.385,1.074-.681,1.246-1.397.38-2.307-.055-.058-.118-.108-.181-.156-.826-.633-1.794-.82-2.677-.901ZM17.098,22.125c1.031-.021,1.745-.124,2.389-.515.296-.18.386-.469.301-.887-.063-.312-.305-.327-.545-.36-1.463-.199-2.927-.395-4.39-.6-.836-.117-1.67-.251-2.507-.368-.071-.01-.188-.051-.229.068-.028.081.033.139.094.168.608.287,1.105.736,1.64,1.128,1.058.777,2.167,1.409,3.246,1.365ZM19.707,22.494c0,.007,0,.015,0,.022.558,0,1.117.026,1.672-.009.385-.025.822-.105,1.023-.459.195-.343-.063-.687-.237-1-.083-.148-.179-.294-.373-.315-.495-.054-.991-.11-1.487-.158-.226-.022-.337.05-.323.321.028.528-.288.919-.796,1.107-.384.142-.786.199-1.181.289-.077.017-.181.016-.165.124.014.1.113.08.192.08.558-.002,1.116,0,1.674,0Z"/>
    <path class="cls-1" d="M21.524,13.877c-.734.061-1.457.159-2.063.639-.773.612-.847,1.699-.152,2.398.539.543,1.239.768,1.958.932.906.206,1.821.304,2.748.142.096-.017.25-.083.285.061.031.125-.118.164-.214.213-.009.005-.019.007-.027.013-.129.083-.382.058-.379.231.002.153.245.093.372.159.134.07.209.155.179.303-.028.141-.137.179-.269.183-1.74.055-3.477.013-5.207-.199-1.666-.204-3.333-.402-4.994-.639-.73-.104-1.467-.18-2.188-.324-.539-.108-1.076-.198-1.621-.221-1.235-.053-1.931.837-1.566,2.03.442,1.444,1.367,2.457,2.8,2.987,1.118.414,2.272.674,3.453.823,2.312.292,4.636.318,6.961.293.074,0,.159-.04.238.061-.248.252-.53.475-.838.623-2.095,1.004-4.322,1.302-6.62,1.168-1.503-.088-2.973-.324-4.343-1.004-1.367-.679-2.231-1.812-2.972-3.102-.819-1.428-.842-2.91-.557-4.466.25-1.367.71-2.658,1.284-3.911.321-.7.383-1.294-.105-1.991-.541-.771-.761-1.695-.553-2.658.17-.791.684-1.344,1.298-1.832.913-.726,2.935-1.076,4.02-.333.497.34.787.788.952,1.385.249.904.267,1.83.396,2.745.038.267.131.352.398.339,1.688-.084,3.376-.078,5.063.019,1.196.069,2.365.25,3.445.808.414.214.768.504,1.027.896.054.081.131.172.06.273-.064.091-.163.04-.249.022-.51-.107-1.023-.151-1.546-.154-.803-.005-1.506.262-2.167.682-.132.06-.292.09-.347.335.254-.133.442-.231.629-.33,1.093-.394,2.208-.512,3.35-.258.323.072.629.192.906.376.168.112.314.248.411.426.066.12.172.26.07.385-.109.135-.24-.004-.35-.047-.565-.226-1.13-.448-1.738-.527-.416-.071-.833-.129-1.24.046ZM10.203,13.45c.579-.371,1.203-.628,1.842-.884.886-.355,1.764-.461,2.692-.292.523.095.964.333,1.315.73.132.149.298.346.199.531-.109.204-.26-.03-.394-.065-.01-.002-.019-.004-.029-.006-.615-.118-1.217-.286-1.838-.39-.964-.161-1.883-.078-2.715.391-1.111.627-1.322,1.456-.766,2.517.344.655.966.936,1.651,1.069.756.147,1.525.207,2.294.236.645.024,1.273-.082,1.879-.314,1.079-.412,1.772-1.803.568-2.849-.212-.184-.332-.402-.371-.69-.072-.536-.397-.902-.865-1.151-.195-.104-.415-.123-.618-.19-.63-.208-1.265-.217-1.912-.135-1.155.147-2.09.73-2.933,1.49ZM12.803,10.549c-.113-.061-.194.021-.279.06-.701.317-1.41.613-2.154.813-.483.13-.973.234-1.478.132-.294-.059-.525-.208-.607-.509-.082-.302.05-.546.267-.748.202-.188.453-.288.71-.374.898-.302,1.795-.606,2.694-.905.208-.069.32-.197.362-.419.073-.385-.174-.963-.554-1.196-.504-.31-1.06-.384-1.642-.359-.58.025-1.045.275-1.435.688-.52.549-.47,1.191-.304,1.851.061.241.062.449-.114.664-.386.473-.233,1.152.317,1.419.325.158.647.234,1.047.16,1.046-.194,2.011-.577,2.944-1.064.089-.046.214-.071.225-.211ZM8.933,13.95c.013-.19-.109-.254-.284-.209-.121.032-.239.086-.346.165-.663.49-.922,1.186-1.025,1.966-.042.319.064.6.271.822.18.194.42.329.581.549.042.057.114.101.178.036.045-.046.022-.118-.016-.165-.094-.116-.202-.222-.21-.384-.038-.841.018-1.654.647-2.308.12-.125.201-.271.203-.472ZM8.902,16.54c.017-.033.031-.05.033-.068.006-.049.013-.1.008-.149-.052-.455.045-.864.35-1.217.057-.066.097-.15.127-.232.031-.083.123-.172.002-.263-.101-.075-.181-.036-.27.024-.44.296-.6.748-.676,1.237-.05.322.069.566.426.667Z"/>
    <path class="cls-1" d="M9.709,20.109c.043-.202.004-.344.1-.484.267-.389.405-.466.865-.352.883.22,1.711.549,2.435,1.129.806.645,1.619,1.289,2.607,1.653.052.019.159.034.129.133-.038.125-.149.112-.249.097-.791-.116-1.58-.246-2.372-.346-.881-.111-1.68-.427-2.415-.915-.199-.132-.382-.289-.569-.439-.067-.054-.15-.104-.209-.033-.066.079.044.107.088.151.831.844,1.885,1.214,3.019,1.401,1.477.244,2.962.427,4.454.554,1.214.103,2.429.171,3.646.052.45-.044.888-.135,1.264-.421.132-.1.192-.201.169-.37-.047-.34-.162-.656-.3-.968-.108-.244-.062-.303.204-.296.699.017,1.004.374.981,1.161-.022.737-.45,1.669-1.509,1.748-.428.032-.854.085-1.285.085-1.139,0-2.279.034-3.416-.011-.802-.032-1.601-.156-2.398-.264-.869-.118-1.755-.16-2.593-.45-.766-.266-1.557-.489-2.222-.976-.83-.607-1.338-1.446-1.589-2.429-.177-.69.371-1.551,1.259-1.511,1.27.057,2.516.275,3.767.466,1.995.304,3.987.624,6.002.771,1.345.098,2.694.105,4.04.168.309.014.618.034.927.055.069.005.143.008.206.034.252.103.485.265.49.549.005.293-.259.413-.503.479-.35.094-.715.071-1.074.059-1.68-.055-3.343-.286-5.009-.482-2.171-.256-4.338-.546-6.5-.879-.604-.093-1.21-.192-1.819-.237-.29-.021-.474.244-.635.461-.138.186-.152.398.014.658Z"/>
    <path class="cls-1" d="M24.984,9.327c-.005.445-.134.798-.333,1.128-.278.461-.565.918-.839,1.382-.101.172-.237.237-.379.103-.641-.607-1.45-.857-2.27-1.077-.497-.133-1.009-.193-1.524-.219-.456-.023-.554-.199-.316-.593.388-.643.933-1.135,1.52-1.594.541-.423,1.139-.689,1.815-.777.585-.076,1.161.044,1.636.355.446.292.72.764.69,1.291Z"/>
    <path class="cls-2" d="M22.288,14.029c.883.082,1.852.269,2.677.901.063.048.126.099.181.156.865.911.694,1.626-.38,2.307-.693.439-1.501.498-2.318.385-.633-.087-1.265-.166-1.867-.399-.327-.127-.644-.275-.911-.504-1.023-.875-.533-1.953.3-2.389.687-.359,1.442-.408,2.318-.459ZM22.383,17.21c.462.016,1.082-.292,1.381-.672.345-.44.306-.925-.106-1.31-.65-.607-2.053-.587-2.677.039-.486.487-.485,1.053.029,1.504.396.347.91.368,1.373.439Z"/>
    <path class="cls-1" d="M17.098,22.125c-1.079.045-2.188-.588-3.246-1.365-.535-.393-1.032-.841-1.64-1.128-.061-.029-.122-.087-.094-.168.041-.119.158-.078.229-.068.836.117,1.67.251,2.507.368,1.463.205,2.926.401,4.39.6.24.033.482.048.545.36.085.418-.005.707-.301.887-.644.391-1.358.495-2.389.515Z"/>
    <path class="cls-1" d="M19.707,22.494c-.558,0-1.116,0-1.674,0-.079,0-.177.021-.192-.08-.016-.108.089-.107.165-.124.395-.089.797-.146,1.181-.289.508-.188.824-.579.796-1.107-.014-.271.097-.342.323-.321.496.048.991.104,1.487.158.193.021.29.167.373.315.175.312.432.657.237,1-.201.354-.638.435-1.023.459-.555.036-1.115.009-1.672.009,0-.007,0-.015,0-.022Z"/>
    <path class="cls-3" d="M20.115,13.477c-.188.098-.375.197-.629.33.055-.245.216-.275.347-.335.092.111.188-.012.282.005Z"/>
    <path class="cls-3" d="M21.524,13.877c.408-.175.824-.117,1.24-.046-.415-.015-.83-.035-1.24.046Z"/>
    <path class="cls-4" d="M10.203,13.45c.844-.76,1.778-1.343,2.933-1.49.646-.082,1.281-.074,1.912.135.203.067.424.087.618.19.468.249.793.615.865,1.151.038.287.158.505.371.69,1.204,1.046.51,2.437-.568,2.849-.607.232-1.234.339-1.879.314-.769-.029-1.538-.09-2.294-.236-.685-.133-1.308-.414-1.651-1.069-.556-1.061-.345-1.89.766-2.517.831-.469,1.75-.552,2.715-.391.621.104,1.223.272,1.838.39.01.002.02.003.029.006.134.035.285.269.394.065.099-.185-.067-.381-.199-.531-.35-.397-.792-.634-1.315-.73-.927-.169-1.805-.063-2.692.292-.638.255-1.263.513-1.842.884ZM14.388,17.063c.88-.031,1.687-.124,2.356-.646.57-.445.72-1.012.412-1.57-.231-.416-.569-.733-.999-.944-1.088-.535-2.243-.717-3.444-.642-.463.029-.917.127-1.309.382-.881.574-1.154,1.208-.696,2.178.259.548.751.78,1.283.944.8.247,1.634.236,2.397.297Z"/>
    <path class="cls-4" d="M12.803,10.549c-.011.14-.136.165-.225.211-.933.487-1.898.87-2.944,1.064-.4.074-.722-.002-1.047-.16-.55-.267-.703-.947-.317-1.419.176-.216.174-.423.114-.664-.166-.66-.216-1.303.304-1.851.391-.413.855-.663,1.435-.688.581-.025,1.138.05,1.642.359.38.233.627.812.554,1.196-.042.223-.154.35-.362.419-.899.299-1.796.603-2.694.905-.257.086-.508.186-.71.374-.217.202-.35.446-.267.748.082.301.313.45.607.509.505.102.995-.002,1.478-.132.744-.2,1.454-.496,2.154-.813.085-.039.166-.121.279-.06ZM10.408,7.183c-.09,0-.181-.011-.269.002-1.239.186-2.103,1.149-1.487,2.486.064.139.133.216.293.159.967-.34,1.937-.671,2.9-1.02.372-.135.438-.346.254-.69-.362-.676-.967-.918-1.691-.937Z"/>
    <path class="cls-2" d="M8.933,13.95c-.001.201-.083.348-.203.472-.63.654-.686,1.468-.647,2.308.007.162.116.268.21.384.038.047.061.119.016.165-.064.065-.136.021-.178-.036-.161-.22-.401-.356-.581-.549-.207-.222-.313-.503-.271-.822.103-.78.362-1.476,1.025-1.966.108-.08.225-.133.346-.165.175-.046.296.019.284.209Z"/>
    <path class="cls-2" d="M8.902,16.54c-.358-.101-.476-.345-.426-.667.076-.49.236-.941.676-1.237.089-.06.169-.099.27-.024.122.091.029.18-.002.263-.03.082-.071.166-.127.232-.305.353-.402.763-.35,1.217.006.049-.002.1-.008.149-.002.018-.016.034-.033.068Z"/>
    <path class="cls-4" d="M22.383,17.21c-.463-.071-.977-.092-1.373-.439-.515-.451-.515-1.017-.029-1.504.625-.626,2.027-.646,2.677-.039.412.385.451.871.106,1.31-.298.38-.918.688-1.381.672ZM22.952,16.214c.304,0,.538-.189.539-.435.002-.227-.264-.436-.556-.439-.327-.003-.558.164-.564.407-.007.272.236.467.581.467Z"/>
    <path class="cls-2" d="M14.388,17.063c-.763-.061-1.597-.05-2.397-.297-.532-.164-1.024-.397-1.283-.944-.458-.97-.185-1.604.696-2.178.392-.255.845-.353,1.309-.382,1.201-.074,2.357.107,3.444.642.429.211.768.527.999.944.309.557.158,1.125-.412,1.57-.669.522-1.476.615-2.356.646ZM13.781,16.566c.535-.064,1.045-.248,1.43-.675.299-.333.317-.751.11-1.068-.479-.73-1.874-1.094-2.715-.406-.496.406-.599,1.073-.198,1.502.361.386.822.586,1.374.648Z"/>
    <path class="cls-2" d="M10.408,7.183c.725.019,1.33.262,1.691.937.184.344.118.555-.254.69-.964.349-1.933.68-2.9,1.02-.16.056-.229-.021-.293-.159-.616-1.337.248-2.3,1.487-2.486.088-.013.179-.002.269-.002Z"/>
    <path class="cls-2" d="M22.952,16.214c-.344,0-.588-.195-.581-.467.006-.243.238-.41.564-.407.292.003.558.212.556.439-.002.247-.235.435-.539.435Z"/>
    <path class="cls-4" d="M13.781,16.566c-.552-.062-1.013-.262-1.374-.648-.401-.429-.298-1.096.198-1.502.84-.688,2.236-.323,2.715.406.208.317.189.735-.11,1.068-.384.428-.895.612-1.43.675ZM14.376,14.495c-.281-.005-.521.182-.531.412-.012.271.227.518.502.521.283.004.56-.201.573-.423.014-.257-.25-.505-.544-.511Z"/>
    <path class="cls-2" d="M14.376,14.495c.294.005.558.254.544.511-.012.222-.29.426-.573.423-.276-.003-.514-.25-.502-.521.01-.231.251-.417.531-.412Z"/>
  </g>
</svg>