<?xml version="1.0" encoding="utf-8"?>
<!-- Generator: Adobe Illustrator 26.0.1, SVG Export Plug-In . SVG Version: 6.00 Build 0)  -->
<svg version="1.1" id="Layer_1" xmlns="http://www.w3.org/2000/svg" xmlns:xlink="http://www.w3.org/1999/xlink" x="0px" y="0px"
	 viewBox="0 0 32 32" style="enable-background:new 0 0 32 32;" xml:space="preserve">
<style type="text/css">
	.st0{fill-rule:evenodd;clip-rule:evenodd;fill:#E499C2;stroke:#000000;stroke-width:0.4896;stroke-miterlimit:10;}
	.st1{fill:#090607;}
	.st2{fill:#E499C2;}
</style>
<circle class="st0" cx="16" cy="16" r="15.667"/>
<path class="st1" d="M15.792,26.96c-0.467,0.034-0.936,0.083-1.393-0.086c-0.609-0.226-1.053-0.636-1.415-1.164
	c-0.587-0.856-1.074-1.761-1.411-2.745c-0.038-0.11-0.115-0.191-0.187-0.274c-1.682-1.938-2.807-4.161-3.389-6.656
	c-0.1-0.428-0.052-0.878-0.026-1.316c0.167-2.787,1.204-5.205,3.096-7.257c0.266-0.289,0.545-0.568,0.852-0.814
	c0.594-0.475,1.28-0.566,2.011-0.462c0.356,0.051,0.65,0.265,0.99,0.355c0.512,0.136,1.027,0.141,1.518-0.055
	c0.166-0.066,0.337-0.145,0.497-0.235c0.706-0.398,2.027-0.329,2.841,0.449c1.463,1.398,2.552,3.022,3.189,4.944
	c0.449,1.357,0.639,2.753,0.548,4.178c-0.032,0.495-0.222,0.969-0.378,1.443c-0.662,2.014-1.684,3.825-3.081,5.422
	c-0.086,0.099-0.146,0.208-0.19,0.332c-0.373,1.066-0.914,2.044-1.589,2.946c-0.395,0.528-0.924,0.872-1.573,0.987
	C16.409,27.003,16.097,26.96,15.792,26.96z M16.202,19.507c-0.134-0.486-0.192-0.973-0.247-1.46
	c-0.019-0.172-0.051-0.347,0.007-0.522c0.135-0.409,0.129-0.831,0.107-1.254c-0.006-0.124-0.035-0.243-0.113-0.346
	c-0.248-0.326-0.407-0.695-0.529-1.085c-0.109-0.346-0.315-0.622-0.623-0.825c-0.535-0.351-1.121-0.47-1.755-0.466
	c-1.18,0.007-2.046,0.51-2.59,1.559c-0.038,0.074-0.08,0.139-0.146,0.194c-0.22,0.18-0.315,0.417-0.295,0.7
	c0.017,0.229,0.039,0.459,0.126,0.672c0.241,0.587,0.299,1.208,0.38,1.829c0.076,0.581,0.236,1.146,0.56,1.652
	c0.251,0.391,0.463,0.803,0.619,1.241c0.366,1.027,0.734,2.053,1.169,3.053c0.585,1.344,1.789,2.275,3.408,2.113
	c0.11-0.011,0.243,0.02,0.276-0.146c0.004-0.021,0.057-0.035,0.089-0.048c0.933-0.356,1.546-1.041,1.941-1.931
	c0.242-0.546,0.445-1.109,0.666-1.664c0.296-0.745,0.493-1.531,0.888-2.236c0.135-0.24,0.302-0.465,0.413-0.715
	c0.295-0.659,0.456-1.352,0.473-2.076c0.002-0.082,0.012-0.161,0.031-0.242c0.095-0.406,0.274-0.786,0.358-1.194
	c0.089-0.433,0.101-0.844-0.305-1.146c-0.039-0.029-0.062-0.084-0.085-0.131c-0.831-1.734-2.825-1.835-4.021-1.303
	c-0.157,0.07-0.302,0.165-0.47,0.258c0-0.092-0.002-0.162,0.001-0.232c0.002-0.066-0.019-0.09-0.092-0.087
	c-0.279,0.011-0.541,0.245-0.553,0.521c-0.026,0.597,0.051,1.171,0.406,1.676c0.046,0.065,0.06,0.135,0.067,0.214
	c0.097,1.14-0.141,2.267-0.119,3.404C16.242,19.487,16.233,19.49,16.202,19.507z M22.804,15.325c0.064-0.115,0.061-0.208,0.063-0.3
	c0.034-1.316-0.171-2.593-0.656-3.819c-0.612-1.547-1.575-2.844-2.832-3.926c-0.27-0.233-0.571-0.452-0.92-0.538
	c-0.624-0.153-1.235-0.058-1.82,0.2c-0.041,0.018-0.101,0.023-0.1,0.084c0.002,0.101-0.077,0.114-0.141,0.153
	c-0.336,0.206-0.689,0.139-1.042,0.074c-0.377-0.07-0.706-0.285-1.082-0.363c-0.652-0.135-1.269-0.128-1.852,0.274
	c-0.538,0.371-0.981,0.829-1.407,1.317c-1.644,1.882-2.429,4.073-2.393,6.565c0.001,0.088,0.012,0.175,0.022,0.263
	c0.002,0.02,0.017,0.047,0.034,0.055c0.034,0.017,0.05-0.015,0.065-0.04c0.064-0.105,0.131-0.209,0.191-0.316
	c0.41-0.737,0.899-1.415,1.501-2.009c0.284-0.28,0.574-0.555,0.85-0.842c0.432-0.449,0.753-0.989,1.162-1.457
	c0.335-0.384,0.645-0.791,1.118-1.029c0.322-0.162,0.655-0.279,1.007-0.355c0.73-0.156,1.462-0.284,2.21-0.14
	c0.674,0.13,1.298,0.365,1.778,0.885c0.291,0.315,0.571,0.638,0.825,0.983c0.393,0.534,0.795,1.061,1.291,1.507
	c0.482,0.433,0.91,0.912,1.291,1.437C22.269,14.407,22.506,14.865,22.804,15.325z M16.908,11.863
	c0.167,0.019,0.321,0.024,0.47-0.015c0.254-0.067,0.492-0.163,0.594-0.439c0.079-0.215,0.142-0.241,0.355-0.142
	c0.169,0.079,0.344,0.111,0.529,0.104c0.109-0.004,0.145-0.046,0.079-0.139c-0.186-0.264-0.397-0.507-0.643-0.719
	c-0.057-0.049-0.111-0.067-0.165,0.001c-0.085,0.107-0.145,0.052-0.177-0.037c-0.043-0.119-0.118-0.169-0.242-0.193
	c-0.327-0.065-0.65-0.145-0.974-0.224c-0.069-0.017-0.177-0.005-0.191-0.091c-0.02-0.116-0.1-0.121-0.164-0.099
	c-0.207,0.071-0.409,0.127-0.624,0.04c-0.009-0.004-0.022,0.005-0.034,0.008c-0.659,0.161-1.317,0.327-1.978,0.48
	c-0.117,0.027-0.187,0.071-0.228,0.182c-0.036,0.098-0.096,0.156-0.187,0.04c-0.056-0.071-0.111-0.041-0.164,0.008
	c-0.231,0.21-0.441,0.438-0.622,0.692c-0.07,0.099-0.07,0.153,0.075,0.159c0.206,0.008,0.394-0.042,0.577-0.129
	c0.123-0.059,0.232-0.032,0.27,0.097c0.102,0.348,0.372,0.474,0.686,0.512c0.367,0.044,0.738,0.008,1.105-0.021
	c0.272-0.022,0.553-0.017,0.798-0.177c0.075-0.049,0.133,0.004,0.179,0.062c0.066,0.084,0.177,0.125,0.25,0.084
	C16.631,11.82,16.777,11.882,16.908,11.863z M22.775,15.863c-0.098,0.123-0.157,0.21-0.23,0.285c-0.08,0.082-0.188,0.08-0.275,0.023
	c-0.098-0.063-0.031-0.144,0.008-0.214c0.025-0.046,0.052-0.092,0.077-0.138c0.027-0.051,0.039-0.107-0.022-0.136
	c-0.055-0.026-0.084,0.025-0.109,0.064c-0.022,0.034-0.041,0.071-0.057,0.109c-0.312,0.744-0.511,1.52-0.6,2.32
	c-0.055,0.488-0.176,0.954-0.36,1.407c-0.183,0.453-0.465,0.854-0.676,1.291c-0.095,0.197-0.208,0.387-0.243,0.611
	C21.396,19.753,22.551,18.044,22.775,15.863z M8.71,15.971c0.131,1.037,0.416,2.018,0.903,2.928c0.482,0.9,0.954,1.81,1.578,2.627
	c-0.091-0.331-0.246-0.631-0.417-0.92c-0.397-0.671-0.742-1.365-0.834-2.147c-0.081-0.689-0.215-1.363-0.432-2.021
	c-0.064-0.195-0.13-0.389-0.226-0.571c-0.028-0.053-0.052-0.144-0.133-0.098c-0.073,0.042-0.023,0.115,0.005,0.172
	c0.023,0.047,0.055,0.09,0.079,0.137c0.06,0.122,0.02,0.188-0.115,0.201c-0.097,0.009-0.168-0.03-0.227-0.106
	C8.84,16.106,8.807,16.02,8.71,15.971z"/>
<path class="st2" d="M16.202,19.507c0.031-0.017,0.04-0.02,0.04-0.023c-0.022-1.137,0.216-2.265,0.119-3.404
	c-0.007-0.079-0.021-0.148-0.067-0.214c-0.354-0.506-0.431-1.08-0.406-1.676c0.012-0.276,0.274-0.51,0.553-0.521
	c0.072-0.003,0.094,0.021,0.092,0.087c-0.002,0.07-0.001,0.14-0.001,0.232c0.168-0.093,0.314-0.188,0.47-0.258
	c1.196-0.533,3.189-0.431,4.021,1.303c0.023,0.047,0.046,0.102,0.085,0.131c0.406,0.303,0.395,0.713,0.305,1.146
	c-0.084,0.409-0.263,0.788-0.358,1.194c-0.019,0.081-0.029,0.16-0.031,0.242c-0.016,0.724-0.178,1.418-0.473,2.076
	c-0.112,0.25-0.279,0.475-0.413,0.715c-0.395,0.706-0.591,1.491-0.888,2.236c-0.221,0.555-0.424,1.118-0.666,1.664
	c-0.394,0.891-1.008,1.575-1.941,1.931c-0.032,0.012-0.085,0.026-0.089,0.048c-0.034,0.166-0.166,0.135-0.276,0.146
	c-1.619,0.162-2.823-0.769-3.408-2.113c-0.435-1-0.803-2.026-1.169-3.053c-0.156-0.438-0.369-0.85-0.619-1.241
	c-0.324-0.505-0.483-1.07-0.56-1.652c-0.082-0.621-0.139-1.242-0.38-1.829c-0.087-0.212-0.11-0.443-0.126-0.672
	c-0.02-0.282,0.075-0.519,0.295-0.7c0.066-0.054,0.108-0.12,0.146-0.194c0.545-1.048,1.41-1.552,2.59-1.559
	c0.634-0.004,1.22,0.115,1.755,0.466c0.308,0.203,0.515,0.479,0.623,0.825c0.122,0.389,0.281,0.758,0.529,1.085
	c0.078,0.103,0.107,0.221,0.113,0.346c0.022,0.423,0.027,0.845-0.107,1.254c-0.058,0.175-0.026,0.35-0.007,0.522
	C16.01,18.534,16.068,19.021,16.202,19.507z"/>
<path class="st2" d="M22.804,15.325c-0.298-0.46-0.535-0.918-0.838-1.336c-0.381-0.524-0.809-1.004-1.291-1.437
	c-0.496-0.446-0.898-0.972-1.291-1.507c-0.254-0.345-0.535-0.669-0.825-0.983c-0.48-0.52-1.103-0.755-1.778-0.885
	c-0.748-0.144-1.48-0.016-2.21,0.14c-0.352,0.075-0.685,0.193-1.007,0.355c-0.473,0.237-0.783,0.645-1.118,1.029
	c-0.409,0.469-0.73,1.008-1.162,1.457c-0.276,0.287-0.566,0.562-0.85,0.842c-0.601,0.594-1.091,1.272-1.501,2.009
	c-0.06,0.107-0.127,0.211-0.191,0.316c-0.015,0.024-0.031,0.057-0.065,0.04c-0.017-0.008-0.031-0.035-0.034-0.055
	c-0.01-0.087-0.021-0.175-0.022-0.263c-0.035-2.492,0.75-4.683,2.393-6.565c0.426-0.488,0.869-0.946,1.407-1.317
	c0.583-0.402,1.2-0.41,1.852-0.274c0.376,0.078,0.704,0.293,1.082,0.363c0.353,0.065,0.706,0.132,1.042-0.074
	c0.064-0.039,0.143-0.052,0.141-0.153c-0.001-0.061,0.059-0.066,0.1-0.084c0.586-0.258,1.197-0.353,1.82-0.2
	c0.35,0.086,0.65,0.305,0.92,0.538c1.256,1.081,2.219,2.379,2.832,3.926c0.485,1.227,0.69,2.503,0.656,3.819
	C22.865,15.117,22.868,15.21,22.804,15.325z"/>
<path class="st2" d="M16.908,11.863c-0.131,0.019-0.278-0.042-0.427,0.042c-0.073,0.041-0.184,0-0.25-0.084
	c-0.046-0.059-0.104-0.111-0.179-0.062c-0.245,0.16-0.526,0.155-0.798,0.177c-0.367,0.03-0.739,0.066-1.105,0.021
	c-0.314-0.038-0.584-0.164-0.686-0.512c-0.038-0.129-0.147-0.156-0.27-0.097c-0.182,0.088-0.371,0.138-0.577,0.129
	c-0.145-0.006-0.146-0.06-0.075-0.159c0.181-0.254,0.391-0.482,0.622-0.692c0.053-0.048,0.108-0.079,0.164-0.008
	c0.091,0.116,0.151,0.058,0.187-0.04c0.041-0.112,0.111-0.155,0.228-0.182c0.661-0.153,1.319-0.319,1.978-0.48
	c0.011-0.003,0.025-0.012,0.034-0.008c0.215,0.087,0.418,0.031,0.624-0.04c0.064-0.022,0.144-0.017,0.164,0.099
	c0.015,0.086,0.122,0.074,0.191,0.091c0.324,0.079,0.647,0.159,0.974,0.224c0.124,0.025,0.199,0.074,0.242,0.193
	c0.032,0.089,0.092,0.144,0.177,0.037c0.053-0.068,0.108-0.05,0.165-0.001c0.246,0.212,0.456,0.455,0.643,0.719
	c0.066,0.094,0.03,0.135-0.079,0.139c-0.185,0.008-0.36-0.025-0.529-0.104c-0.213-0.099-0.276-0.072-0.355,0.142
	c-0.102,0.277-0.34,0.373-0.594,0.439C17.23,11.887,17.076,11.882,16.908,11.863z"/>
<path class="st2" d="M22.775,15.863c-0.224,2.181-1.379,3.891-2.488,5.621c0.035-0.223,0.147-0.414,0.243-0.611
	c0.212-0.438,0.493-0.839,0.676-1.291c0.184-0.453,0.305-0.919,0.36-1.407c0.09-0.8,0.288-1.575,0.6-2.32
	c0.016-0.038,0.035-0.075,0.057-0.109c0.025-0.039,0.055-0.09,0.109-0.064c0.061,0.029,0.049,0.085,0.022,0.136
	c-0.025,0.047-0.051,0.092-0.077,0.138c-0.039,0.071-0.106,0.151-0.008,0.214c0.088,0.057,0.195,0.059,0.275-0.023
	C22.618,16.073,22.677,15.985,22.775,15.863z"/>
<path class="st2" d="M8.71,15.971c0.097,0.048,0.129,0.135,0.182,0.202c0.059,0.076,0.13,0.115,0.227,0.106
	c0.135-0.013,0.174-0.08,0.115-0.201c-0.023-0.047-0.055-0.09-0.079-0.137c-0.028-0.056-0.078-0.13-0.005-0.172
	c0.082-0.047,0.106,0.045,0.133,0.098c0.096,0.182,0.162,0.376,0.226,0.571c0.218,0.658,0.351,1.332,0.432,2.021
	c0.092,0.782,0.436,1.477,0.834,2.147c0.171,0.289,0.326,0.589,0.417,0.92C10.568,20.71,10.096,19.8,9.614,18.9
	C9.126,17.99,8.841,17.008,8.71,15.971z"/>
</svg>
