<?xml version="1.0" encoding="utf-8"?>
<!-- Generator: Adobe Illustrator 22.0.1, SVG Export Plug-In . SVG Version: 6.00 Build 0)  -->
<svg version="1.1" id="Layer_1" xmlns="http://www.w3.org/2000/svg" xmlns:xlink="http://www.w3.org/1999/xlink" x="0px" y="0px"
	 viewBox="0 0 32 32" style="enable-background:new 0 0 32 32;" xml:space="preserve">
<style type="text/css">
	.st0{fill:#FFFFFF;}
</style>
<g>
	<ellipse class="st0" cx="16" cy="15.999" rx="15.84" ry="15.827"/>
	<path d="M27.898,26.469c-3.364,0.453-8.43,0.818-11.77-0.4c-2.275-0.828-3.225-2.34-3.399-2.653c0,0-0.007-0.01-0.007-0.013
		c-0.417-0.726-0.618-1.519-0.618-2.301c0-1.598,0.828-3.152,2.308-4.01c1.068-0.615,2.314-0.779,3.507-0.46
		c1.19,0.319,2.186,1.085,2.804,2.153l1.926-1.026l-0.036-0.066c-0.907-1.574-2.373-2.699-4.129-3.172
		c-1.755-0.47-3.589-0.227-5.164,0.68c-2.179,1.259-3.399,3.55-3.399,5.904c0,1.091,0.273,2.193,0.822,3.211l-0.007,0.007
		c0,0.003,0.02,0.036,0.026,0.049H10.76c0,0,0.013,0.02,0.023,0.036c0.013,0.026,0.046,0.085,0.049,0.089
		c0.342,0.588,1.66,2.571,4.549,3.622c2.81,1.026,6.54,1.081,9.74,0.843c-0.423,0.299-0.861,0.577-1.314,0.834
		c-3.64,0.2-8.034-0.112-11.021-2.164c-3.586-2.465-4.704-6.85-2.656-10.427c0.96-1.673,2.557-2.886,4.503-3.409
		c1.995-0.539,4.06-0.276,5.815,0.736l1.091-1.893c-2.262-1.305-4.918-1.644-7.475-0.953c-2.511,0.677-4.582,2.252-5.831,4.434
		c-2.623,4.586-1.229,10.183,3.313,13.309c1.831,1.259,4.053,1.96,6.329,2.31c-0.329,0.039-0.66,0.068-0.995,0.086v-0.001
		c-5.72,0-10.746-5.036-10.755-10.778c-0.003-2.781,1.062-5.384,3.008-7.334c1.956-1.959,4.579-3.041,7.386-3.041V8.491
		c-3.392,0-6.561,1.308-8.931,3.682c-2.357,2.363-3.652,5.516-3.645,8.882c0.004,2.836,0.973,5.496,2.589,7.658
		C2.665,25.825,0.16,21.211,0.16,16.012c0-8.748,7.092-15.84,15.84-15.84s15.84,7.092,15.84,15.84
		C31.84,20.019,30.352,23.679,27.898,26.469z"/>
</g>
</svg>
