<?xml version="1.0" encoding="utf-8"?>
<!-- Generator: Adobe Illustrator 22.0.1, SVG Export Plug-In . SVG Version: 6.00 Build 0)  -->
<svg version="1.1"
	 id="svg8" inkscape:version="0.92.1 r15371" sodipodi:docname="VIA.svg" xmlns:cc="http://creativecommons.org/ns#" xmlns:dc="http://purl.org/dc/elements/1.1/" xmlns:inkscape="http://www.inkscape.org/namespaces/inkscape" xmlns:rdf="http://www.w3.org/1999/02/22-rdf-syntax-ns#" xmlns:sodipodi="http://sodipodi.sourceforge.net/DTD/sodipodi-0.dtd" xmlns:svg="http://www.w3.org/2000/svg"
	 xmlns="http://www.w3.org/2000/svg" xmlns:xlink="http://www.w3.org/1999/xlink" x="0px" y="0px" viewBox="0 0 283.465 283.465"
	 style="enable-background:new 0 0 283.465 283.465;" xml:space="preserve">
<style type="text/css">
	.st0{fill:#FFFFFF;}
</style>
<sodipodi:namedview  bordercolor="#666666" borderopacity="1.0" id="base" inkscape:current-layer="layer1" inkscape:cx="274.6064" inkscape:cy="156.01504" inkscape:document-units="mm" inkscape:pageopacity="0.0" inkscape:pageshadow="2" inkscape:window-height="1545" inkscape:window-maximized="1" inkscape:window-width="2560" inkscape:window-x="0" inkscape:window-y="25" inkscape:zoom="1.979899" pagecolor="#ffffff" showgrid="false">
	</sodipodi:namedview>
<g>
	<polygon class="st0" points="36,68.151 141.732,9.5 255.261,77.469 255.261,212.05 141.732,274 28.184,208.958 28.184,78.657 	"/>
	<g>
		<path d="M141.046,2.461c0.305,0,0.61,0,0.915,0c0.665,0.474,1.297,1.004,1.999,1.416C182.523,26.47,221.084,49.064,259.681,71.6
			c1.665,0.972,2.228,2.006,2.223,3.932c-0.047,16.386,0.007,32.772,0.087,49.158c0.029,5.933,0.209,11.865,0.32,17.797
			c0,23.185,0,46.37,0,69.555c-37.552,21.392-75.106,42.78-112.65,64.186c-2.756,1.572-5.439,3.272-8.156,4.912
			c-0.305,0-0.61,0-0.915,0c-0.932-0.623-1.831-1.302-2.8-1.861c-38.874-22.419-77.754-44.827-116.634-67.237
			c0-46.523,0-93.045,0-139.568c39.035-22.71,78.071-45.419,117.1-68.138C139.222,3.773,140.117,3.088,141.046,2.461z
			 M33.843,142.166c0,20.13,0.009,40.26-0.019,60.39c-0.002,1.384,0.206,2.342,1.595,3.139
			c34.74,19.958,69.45,39.966,104.142,60.005c1.147,0.662,1.949,0.63,3.079-0.016c35.057-20.015,70.13-40,105.227-59.944
			c1.31-0.745,1.759-1.548,1.752-3.044c-0.171-40.029-0.302-80.059-0.385-120.088c-0.004-1.71-0.438-2.711-1.994-3.618
			c-34.671-20.232-69.31-40.52-103.927-60.845c-1.363-0.8-2.333-0.782-3.684,0.006C105.021,38.337,70.392,58.488,35.736,78.592
			c-1.457,0.845-1.934,1.766-1.929,3.413C33.863,102.059,33.843,122.113,33.843,142.166z M30.005,165.953
			c-0.048-2.247-1.044-3.643-2.629-3.709c-1.171-0.048-2.689,0.814-3.518,1.746c-1.244,1.398-0.477,3.061,0.876,3.931
			c1.252,0.805,1.42,1.703,1.416,2.988c-0.034,11.51,0.027,23.022-0.069,34.531c-0.015,1.794,0.601,2.66,2.103,3.517
			c12.094,6.9,24.141,13.881,36.163,20.905c0.695,0.406,1.337,1.347,1.493,2.139c0.338,1.721,1.251,3.098,2.865,3.029
			c1.196-0.051,2.527-1.064,3.466-1.985c1.22-1.197,0.245-2.432-0.621-3.401c-1.075-1.202-2.371-1.406-3.936-0.766
			c-0.681,0.278-1.76,0.247-2.39-0.113c-12.091-6.905-24.132-13.899-36.219-20.81c-1.307-0.747-1.745-1.596-1.737-3.08
			c0.061-11.205,0.047-22.411,0.016-33.617c-0.004-1.418-0.004-2.618,1.517-3.443C29.474,167.45,29.754,166.367,30.005,165.953z
			 M255.214,94.85c0-5.794-0.079-11.589,0.047-17.381c0.039-1.793-0.609-2.687-2.116-3.546c-12.032-6.86-24.01-13.814-36.009-20.733
			c-0.98-0.565-1.788-1-1.79-2.493c-0.003-1.928-2.214-3.461-3.805-3.029c-1.832,0.497-3.239,2.652-2.692,4.126
			c0.791,2.134,2.738,2.971,4.782,2.238c0.693-0.248,1.719-0.321,2.312,0.018c12.163,6.938,24.276,13.962,36.427,20.921
			c1.205,0.69,1.661,1.488,1.654,2.89c-0.055,11.435-0.004,22.87-0.086,34.305c-0.006,0.857-0.604,1.907-1.253,2.523
			c-1.594,1.512-1.883,3.559-0.461,5.04c1.313,1.368,3.351,1.382,4.689,0.033c1.53-1.544,1.481-3.6-0.445-4.891
			c-1.195-0.802-1.271-1.696-1.266-2.868C255.227,106.285,255.214,100.568,255.214,94.85z"/>
		<path d="M47.395,141.206c0-17.233,0.032-34.467-0.047-51.7c-0.008-1.845,0.574-2.825,2.151-3.732
			C79.807,68.338,110.08,50.84,140.39,33.407c0.593-0.341,1.719-0.357,2.305-0.02c30.439,17.513,60.842,35.091,91.278,52.61
			c1.314,0.756,1.734,1.558,1.732,3.044c-0.045,34.848-0.048,69.696,0.008,104.545c0.003,1.614-0.547,2.418-1.882,3.187
			c-30.235,17.412-60.451,34.858-90.644,52.342c-1.218,0.705-2.06,0.691-3.274-0.012c-30.258-17.524-60.538-35.012-90.846-52.451
			c-1.334-0.768-1.709-1.593-1.704-3.059C47.413,176.13,47.395,158.668,47.395,141.206z M154.958,75.071
			c0.883-5.611-2.212-8.893-6.823-11.036c-7.125-3.312-14.602-3.985-22.243-2.255c-1.902,0.431-3.467,0.354-5.12-0.748
			c-2.151-1.434-4.428-2.684-6.694-3.935c-0.545-0.301-1.431-0.61-1.869-0.375c-2.574,1.387-5.062,2.933-7.968,4.657
			c3.259,1.935,6.085,3.614,9.274,5.507c-1.557,0.961-2.754,1.598-3.836,2.392c-1.553,1.139-2.933,1.191-4.573,0.048
			c-1.868-1.302-3.915-2.351-5.913-3.458c-0.499-0.277-1.276-0.671-1.638-0.476c-2.63,1.417-5.186,2.971-8.117,4.687
			c3.325,1.984,6.138,3.662,9.294,5.546c-2.65,1.603-4.872,2.946-7.094,4.291c0.289,0.447,0.34,0.624,0.456,0.691
			c19.668,11.483,39.336,22.967,59.039,34.39c0.561,0.325,1.774,0.313,2.22-0.075c4.49-3.898,8.826-3.675,13.214,0.146
			c0.436,0.38,1.403,0.669,1.84,0.446c2.596-1.326,5.109-2.815,8.068-4.485c-2.839-1.734-5.184-3.167-7.497-4.579
			c3.54-3.474,7.041-4.41,10.852-0.946c0.607,0.552,1.407,0.908,2.157,1.278c0.384,0.189,0.969,0.426,1.264,0.269
			c2.693-1.44,5.342-2.962,8.408-4.687c-1.851-1.081-3.16-1.832-4.456-2.605c-1.353-0.807-2.694-1.636-4.159-2.528
			c0.771-0.969,1.391-1.719,1.98-2.492c3.887-5.112,3.247-10.023-1.626-14.227c-4.841-4.175-10.574-5.907-16.752-6.129
			C162.876,74.246,159.084,74.803,154.958,75.071z M67.449,185.859c-0.554,2.397,0.569,3.372,1.967,4.172
			c4.298,2.458,8.602,4.905,12.902,7.357c8.203,4.678,16.41,9.35,24.604,14.046c0.986,0.565,1.897,1.076,2.803-0.072
			c2.027-2.569,1.035-7.597-1.824-9.238c-8.858-5.085-17.72-10.164-26.576-15.253c-2.98-1.713-3.047-2.421-0.424-4.551
			c10.826-8.79,21.595-17.651,32.524-26.31c3.127-2.478,4.917-5.199,5.242-9.29c0.22-2.763-0.562-4.274-2.831-5.515
			c-3.782-2.071-7.494-4.27-11.221-6.441c-7.52-4.383-15.029-8.783-22.542-13.177c-1.545-0.903-2.438-0.329-2.804,1.281
			c-0.202,0.888-0.171,1.841-0.456,2.694c-1.041,3.112,0.453,4.714,3.049,6.167c7.913,4.427,15.721,9.044,23.557,13.609
			c2.212,1.288,2.291,2.14,0.348,3.715c-10.831,8.779-21.588,17.653-32.564,26.248C69.443,178.244,66.975,181.471,67.449,185.859z
			 M162.633,218.89c4.496-0.936,8.894-4.133,10.477-7.308c5.437-10.901,10.836-21.82,16.309-32.702
			c0.424-0.843,1.313-1.452,1.985-2.17c0.627,0.693,1.436,1.291,1.852,2.094c2.628,5.077,5.156,10.206,7.743,15.305
			c1.304,2.57,1.909,2.73,4.447,1.3c1.527-0.86,3.052-1.723,4.569-2.601c2.375-1.375,2.58-1.977,1.311-4.371
			c-3.924-7.4-7.819-14.815-11.854-22.154c-1.153-2.097-1.147-3.855-0.064-5.984c6.592-12.959,13.074-25.975,19.59-38.972
			c0.239-0.476,0.742-1.061,0.617-1.422c-0.188-0.546-1.084-1.406-1.223-1.328c-3.192,1.808-6.838,2.906-8.652,6.683
			c-4.646,9.67-9.481,19.249-14.307,28.832c-0.392,0.779-1.284,1.306-1.944,1.95c-0.57-0.646-1.301-1.209-1.683-1.952
			c-2.263-4.406-4.42-8.867-6.666-13.282c-1.119-2.199-1.868-2.405-3.947-1.258c-1.601,0.884-3.194,1.785-4.77,2.713
			c-2.321,1.365-2.55,2.064-1.334,4.398c3.343,6.419,6.587,12.894,10.139,19.195c1.457,2.585,1.331,4.627,0.01,7.197
			c-7.272,14.15-14.385,28.382-21.525,42.6C163.274,216.529,163.079,217.528,162.633,218.89z"/>
		<path d="M132.11,94.047c8.821-4.19,15.764-10.661,24.999-12.536c5.769-1.171,11.417-0.651,16.024,3.547
			c3.227,2.94,2.684,7.049-1.517,9.682c-5.979,3.748-12.192,7.123-18.334,10.607c-0.427,0.242-1.217,0.288-1.625,0.054
			C145.342,101.78,139.061,98.099,132.11,94.047z"/>
		<path d="M107.744,79.84c5.003-2.933,9.66-5.47,14.112-8.329c4.012-2.577,8.224-3.903,12.95-3.15
			c2.934,0.467,5.8,1.231,7.885,3.626c1.849,2.124,1.964,4.207,0.064,6.314c-1.051,1.166-2.318,2.21-3.66,3.027
			c-4.159,2.531-8.372,4.978-12.635,7.327c-0.798,0.44-2.166,0.71-2.867,0.325C118.409,86.128,113.328,83.091,107.744,79.84z"/>
	</g>
</g>
</svg>
