<?xml version="1.0" encoding="utf-8"?>
<!-- Generator: Adobe Illustrator 26.0.1, SVG Export Plug-In . SVG Version: 6.00 Build 0)  -->
<svg version="1.1" id="Layer_1" xmlns="http://www.w3.org/2000/svg" xmlns:xlink="http://www.w3.org/1999/xlink" x="0px" y="0px"
	 viewBox="0 0 32 32" style="enable-background:new 0 0 32 32;" xml:space="preserve">
<style type="text/css">
	.st0{fill-rule:evenodd;clip-rule:evenodd;}
</style>
<g>
	<path class="st0" d="M12.158,25.186c-0.102,0-0.114,0.048-0.114,0.42s0.012,0.42,0.114,0.42c0.138,0,0.186-0.114,0.186-0.42
		c0-0.126-0.018-0.27-0.036-0.324S12.218,25.186,12.158,25.186z"/>
	<path class="st0" d="M23.306,25.228c-0.024,0.018-0.042,0.21-0.042,0.42c0,0.354,0.006,0.378,0.138,0.378
		c0.078,0,0.168-0.03,0.21-0.072c0.096-0.096,0.096-0.6,0-0.696C23.534,25.18,23.366,25.162,23.306,25.228z"/>
	<path class="st0" d="M8.612,25.198L8.444,25.18v0.39c0,0.384,0.006,0.396,0.15,0.396c0.198,0,0.3-0.246,0.228-0.54
		C8.786,25.258,8.744,25.21,8.612,25.198z"/>
	<path class="st0" d="M21.5,26.032c-0.024,0.174-0.06,0.426-0.078,0.546c-0.03,0.216-0.024,0.228,0.132,0.228h0.162l-0.042-0.438
		C21.608,25.744,21.554,25.63,21.5,26.032z"/>
	<path class="st0" d="M15.554,25.126c-0.084,0-0.174,0.048-0.21,0.114c-0.03,0.066-0.06,0.51-0.06,1.02
		c0,0.738,0.018,0.912,0.096,0.99c0.126,0.132,0.24,0.12,0.348-0.036c0.078-0.108,0.096-0.312,0.096-0.996
		c0-0.48-0.03-0.912-0.06-0.978C15.728,25.174,15.638,25.126,15.554,25.126z"/>
	<path class="st0" d="M25.322,25.186h-0.138v1.08c0,1.158,0.018,1.23,0.294,1.08c0.12-0.06,0.126-0.114,0.126-1.038
		c0-0.684-0.024-1.002-0.072-1.05C25.49,25.216,25.4,25.186,25.322,25.186z"/>
	<path class="st0" d="M16,0C7.163,0,0,7.163,0,16s7.163,16,16,16s16-7.163,16-16S24.837,0,16,0z M4.25,23.008
		c-0.144,0.144-0.258,0.324-0.3,0.48c-0.072,0.264-0.21,0.36-0.426,0.288c-0.096-0.03-0.12-0.09-0.12-0.324
		c0-0.318,0.078-0.42,0.42-0.57c0.114-0.048,0.312-0.09,0.438-0.096H4.49L4.25,23.008z M3.536,21.418
		c0.036-0.036,0.144-0.072,0.234-0.072c0.162,0,0.198,0.042,0.378,0.444c0.114,0.24,0.234,0.456,0.27,0.48
		c0.036,0.024,0.066,0.072,0.066,0.108c0,0.078-0.258,0.018-0.588-0.15C3.452,22.012,3.314,21.7,3.536,21.418z M5.264,23.926
		c-0.222,0-0.318-0.132-0.318-0.426c0-0.312,0.174-0.492,0.588-0.618c0.168-0.048,0.378-0.09,0.468-0.09l0.174-0.006l-0.27,0.264
		c-0.15,0.138-0.288,0.324-0.312,0.402C5.486,23.848,5.432,23.926,5.264,23.926z M5.132,21.328c0.108-0.126,0.33-0.132,0.432-0.018
		c0.114,0.144,0.588,1.116,0.54,1.116c-0.108,0-0.474-0.156-0.726-0.312C4.97,21.868,4.892,21.61,5.132,21.328z M7.526,26.866
		c-0.072,0.666-0.312,0.93-0.858,0.924c-0.402-0.006-0.6-0.132-0.756-0.486c-0.108-0.24-0.114-0.372-0.096-1.188
		c0.018-1.032,0.066-1.152,0.474-1.368c0.144-0.078,0.294-0.102,0.492-0.084c0.48,0.042,0.756,0.42,0.762,1.044
		c0,0.198,0,0.198-0.3,0.198h-0.3v-0.234c0-0.366-0.09-0.546-0.27-0.546c-0.222,0-0.27,0.192-0.27,1.128
		c0,0.648,0.018,0.852,0.096,0.96c0.048,0.072,0.126,0.132,0.174,0.132c0.144,0,0.27-0.252,0.27-0.552v-0.288H7.25h0.312
		L7.526,26.866z M7.538,23.104c-0.174,0.168-0.294,0.348-0.348,0.522c-0.102,0.348-0.162,0.42-0.372,0.42s-0.312-0.162-0.306-0.498
		c0.006-0.288,0.174-0.486,0.528-0.612c0.126-0.048,0.354-0.084,0.498-0.09h0.27L7.538,23.104z M7.682,22.39
		c-0.306-0.072-0.654-0.246-0.876-0.444c-0.264-0.228-0.3-0.522-0.102-0.72c0.15-0.15,0.372-0.156,0.492-0.018
		c0.048,0.06,0.18,0.306,0.288,0.546c0.108,0.234,0.234,0.462,0.276,0.498C7.898,22.366,7.856,22.432,7.682,22.39z M9.194,27.766
		H8.876l-0.168-0.69c-0.09-0.378-0.192-0.69-0.216-0.69s-0.048,0.312-0.048,0.69v0.69h-0.3h-0.3v-1.5v-1.5h0.504
		c0.564,0,0.744,0.048,0.93,0.246c0.264,0.282,0.21,0.948-0.096,1.194l-0.15,0.114l0.24,0.726l0.246,0.72H9.194z M9.332,23.008
		c-0.27,0.21-0.456,0.48-0.54,0.774c-0.078,0.306-0.15,0.384-0.348,0.384c-0.228,0-0.378-0.186-0.378-0.474
		c0-0.396,0.264-0.666,0.768-0.792c0.102-0.024,0.3-0.042,0.444-0.048l0.264-0.006L9.332,23.008z M9.2,22.336
		c-0.864-0.264-1.29-0.822-0.924-1.212c0.156-0.162,0.414-0.18,0.54-0.036c0.048,0.06,0.186,0.324,0.312,0.588
		c0.126,0.264,0.282,0.54,0.348,0.612C9.626,22.45,9.596,22.456,9.2,22.336z M10.934,25.876c-0.21,0.762-0.27,1.056-0.27,1.422
		v0.468h-0.27h-0.27v-0.45c0-0.354-0.06-0.666-0.27-1.428c-0.15-0.534-0.288-1.008-0.3-1.05c-0.018-0.048,0.06-0.072,0.264-0.072
		h0.288l0.132,0.612c0.072,0.336,0.138,0.618,0.15,0.63c0.012,0.012,0.084-0.264,0.156-0.612l0.144-0.63h0.288
		c0.204,0,0.276,0.024,0.258,0.072C11.216,24.88,11.084,25.348,10.934,25.876z M9.728,23.356c0.132-0.204,0.312-0.312,0.696-0.414
		c0.18-0.048,0.438-0.09,0.57-0.09c0.222,0,0.228,0.006,0.126,0.084c-0.438,0.33-0.75,0.768-0.756,1.062
		c0,0.264-0.432,0.39-0.624,0.174C9.608,24.028,9.596,23.554,9.728,23.356z M9.854,21.016c0.174-0.174,0.45-0.198,0.588-0.048
		c0.048,0.06,0.162,0.288,0.252,0.51c0.09,0.228,0.24,0.516,0.336,0.648c0.096,0.132,0.174,0.252,0.174,0.264
		c0,0.018-0.144-0.012-0.312-0.06c-0.408-0.12-0.912-0.408-1.068-0.606C9.656,21.508,9.668,21.196,9.854,21.016z M11.204,23.836
		c0-0.42,0.186-0.648,0.66-0.81c0.288-0.102,0.96-0.168,0.96-0.096c0,0.012-0.09,0.084-0.204,0.156
		c-0.264,0.156-0.57,0.612-0.618,0.912c-0.06,0.378-0.432,0.534-0.678,0.288C11.234,24.196,11.204,24.088,11.204,23.836z
		 M11.456,20.866c0.162-0.15,0.408-0.156,0.57-0.006c0.066,0.06,0.198,0.3,0.288,0.522c0.096,0.228,0.264,0.546,0.378,0.708
		l0.204,0.294l-0.228-0.048c-0.336-0.06-0.93-0.348-1.146-0.552C11.21,21.49,11.186,21.118,11.456,20.866z M12.884,25.918
		c-0.09,0.324-0.198,0.45-0.444,0.498c-0.42,0.084-0.396,0.042-0.396,0.726v0.624h-0.3h-0.3v-1.5v-1.5h0.546
		c0.516,0,0.552,0.006,0.708,0.168C12.902,25.138,12.98,25.546,12.884,25.918z M14.504,24.976c0,0.198-0.012,0.21-0.21,0.21h-0.21
		v1.29v1.29h-0.33h-0.33v-1.29v-1.29h-0.21c-0.198,0-0.21-0.012-0.21-0.21v-0.21h0.75h0.75V24.976z M14.276,23.104
		c-0.288,0.186-0.6,0.648-0.654,0.954c-0.036,0.246-0.252,0.468-0.45,0.468c-0.06,0-0.18-0.066-0.258-0.15
		c-0.192-0.186-0.204-0.63-0.036-0.906c0.126-0.21,0.516-0.42,0.912-0.498c0.276-0.054,0.714-0.084,0.714-0.042
		C14.504,22.942,14.402,23.02,14.276,23.104z M14.378,22.336c-0.294-0.06-1.08-0.432-1.242-0.588
		c-0.402-0.372-0.396-0.81,0.018-1.05c0.306-0.174,0.54,0.012,0.81,0.648c0.108,0.246,0.288,0.582,0.408,0.744l0.21,0.288
		L14.378,22.336z M16.316,27.304c-0.156,0.354-0.354,0.48-0.762,0.486c-0.378,0-0.6-0.126-0.762-0.45
		c-0.09-0.168-0.108-0.366-0.108-1.122c0-1.05,0.072-1.296,0.432-1.47c0.396-0.198,0.894-0.078,1.152,0.276
		c0.114,0.15,0.126,0.276,0.144,1.092S16.424,27.064,16.316,27.304z M16.01,23.326c-0.216,0-0.516-0.24-0.57-0.45
		c-0.048-0.198,0.108-0.534,0.282-0.618c0.42-0.204,0.84,0.066,0.84,0.54C16.562,23.038,16.262,23.326,16.01,23.326z M18.404,27.496
		v0.264l-0.252,0.036c-0.144,0.018-0.498,0.03-0.798,0.018l-0.54-0.018l0.018-0.27c0.012-0.222,0.096-0.39,0.468-0.936
		c0.522-0.774,0.618-1.038,0.474-1.26c-0.096-0.15-0.234-0.186-0.3-0.084c-0.018,0.03-0.054,0.174-0.078,0.312l-0.048,0.258h-0.264
		H16.82l0.018-0.3c0.018-0.348,0.162-0.63,0.372-0.732c0.204-0.108,0.624-0.096,0.84,0.018c0.36,0.186,0.456,0.786,0.21,1.314
		c-0.072,0.162-0.276,0.474-0.45,0.69l-0.312,0.39l0.45,0.018l0.456,0.018V27.496z M17.564,22.264c0-0.018,0.066-0.12,0.144-0.228
		c0.078-0.102,0.216-0.36,0.306-0.576c0.09-0.21,0.216-0.474,0.282-0.582c0.096-0.156,0.156-0.192,0.324-0.192
		c0.438,0,0.654,0.51,0.372,0.876c-0.186,0.24-0.27,0.3-0.648,0.474c-0.18,0.084-0.378,0.18-0.432,0.21
		C17.792,22.312,17.564,22.324,17.564,22.264z M18.428,24.058c-0.144-0.42-0.354-0.72-0.63-0.918
		c-0.138-0.096-0.162-0.144-0.108-0.18c0.168-0.102,1.014,0.138,1.266,0.36c0.156,0.138,0.192,0.222,0.216,0.504
		c0.036,0.462-0.084,0.654-0.396,0.63C18.56,24.436,18.548,24.424,18.428,24.058z M20.492,26.848
		c-0.048,0.636-0.318,0.948-0.828,0.948c-0.342,0-0.576-0.144-0.738-0.456c-0.09-0.174-0.102-0.336-0.09-1.176
		c0.018-0.876,0.03-0.984,0.144-1.14c0.066-0.09,0.192-0.204,0.27-0.246c0.234-0.126,0.804-0.066,0.984,0.108
		c0.168,0.156,0.27,0.456,0.27,0.792v0.228h-0.3H19.91l-0.018-0.336c-0.018-0.384-0.138-0.528-0.33-0.408
		c-0.156,0.096-0.186,0.276-0.186,1.074c0,0.798,0.03,0.978,0.186,1.074c0.186,0.114,0.306-0.03,0.366-0.432l0.06-0.372h0.264h0.264
		L20.492,26.848z M20.282,24.256c-0.12-0.048-0.198-0.126-0.198-0.192c0-0.15-0.27-0.714-0.372-0.774
		c-0.042-0.03-0.132-0.114-0.192-0.192c-0.114-0.132-0.114-0.132,0.024-0.132c0.33,0,0.834,0.198,1.014,0.396
		c0.24,0.258,0.264,0.654,0.054,0.846C20.486,24.328,20.456,24.328,20.282,24.256z M19.37,22.282c-0.072-0.048,0.6-1.404,0.714-1.44
		c0.282-0.072,0.384-0.018,0.504,0.276c0.09,0.204,0.084,0.234-0.03,0.45c-0.066,0.126-0.18,0.258-0.252,0.294
		c-0.072,0.036-0.3,0.15-0.504,0.258C19.592,22.228,19.4,22.3,19.37,22.282z M22.178,27.766c-0.27,0-0.288-0.006-0.324-0.198
		c-0.078-0.39-0.09-0.402-0.3-0.402c-0.18,0-0.204,0.024-0.24,0.192c-0.084,0.408-0.084,0.408-0.366,0.408
		c-0.144,0-0.264-0.018-0.264-0.048c0-0.024,0.138-0.696,0.312-1.5l0.312-1.452h0.252h0.252l0.096,0.432
		c0.054,0.24,0.198,0.918,0.324,1.5l0.228,1.068H22.178z M21.356,22.966c0.354,0,0.87,0.294,0.924,0.528
		c0.018,0.09,0.042,0.198,0.06,0.24c0.012,0.042-0.018,0.174-0.066,0.288c-0.066,0.168-0.114,0.204-0.264,0.204
		c-0.198,0-0.312-0.156-0.39-0.522c-0.024-0.102-0.15-0.312-0.282-0.462l-0.246-0.276H21.356z M21.122,22.108
		c0.018-0.036,0.108-0.246,0.198-0.462c0.09-0.216,0.216-0.462,0.288-0.552c0.066-0.09,0.18-0.162,0.252-0.162
		c0.132-0.006,0.36,0.204,0.39,0.354c0.024,0.132-0.162,0.45-0.348,0.6C21.59,22.132,21.044,22.288,21.122,22.108z M24.062,27.754
		c-0.15,0.012-0.282,0.006-0.3-0.012c-0.018-0.012-0.102-0.318-0.192-0.672c-0.222-0.882-0.306-0.882-0.306,0v0.696h-0.3h-0.3
		v-1.458c0-0.804,0.018-1.482,0.042-1.5c0.072-0.078,0.918-0.042,1.122,0.042c0.108,0.042,0.252,0.156,0.324,0.246
		c0.24,0.3,0.138,1.008-0.162,1.164c-0.108,0.06-0.102,0.096,0.114,0.768l0.228,0.708L24.062,27.754z M23.606,21.862
		c-0.216,0.18-0.786,0.468-0.876,0.432c-0.036-0.006,0.018-0.18,0.114-0.39c0.102-0.21,0.18-0.396,0.18-0.42
		c0-0.03,0.054-0.138,0.12-0.246c0.15-0.246,0.414-0.264,0.588-0.048C23.888,21.394,23.84,21.664,23.606,21.862z M23.906,23.638
		c0.024,0.216,0.006,0.282-0.12,0.396c-0.126,0.12-0.162,0.126-0.306,0.066c-0.12-0.054-0.18-0.156-0.246-0.384
		c-0.054-0.186-0.174-0.39-0.294-0.516c-0.114-0.114-0.192-0.222-0.174-0.246c0.084-0.138,0.768,0.06,0.978,0.282
		C23.822,23.32,23.888,23.482,23.906,23.638z M24.404,22.846c0.18,0,0.726,0.168,0.846,0.258c0.234,0.18,0.306,0.576,0.138,0.81
		c-0.18,0.258-0.426,0.126-0.564-0.312c-0.042-0.132-0.186-0.354-0.318-0.498C24.29,22.87,24.278,22.846,24.404,22.846z
		 M24.332,22.312c-0.048-0.042,0.462-1.092,0.57-1.158c0.126-0.078,0.222-0.054,0.372,0.102c0.21,0.204,0.192,0.426-0.054,0.66
		C25.01,22.108,24.404,22.384,24.332,22.312z M25.934,27.58c-0.138,0.144-0.198,0.156-0.75,0.174l-0.6,0.024v-1.512v-1.512
		l0.57,0.024c0.918,0.036,1.038,0.21,1.044,1.458C26.204,27.088,26.144,27.37,25.934,27.58z M26.762,23.926
		c-0.132,0-0.318-0.252-0.318-0.438c0-0.048-0.108-0.21-0.246-0.366l-0.246-0.276h0.174c0.282,0,0.624,0.12,0.774,0.27
		c0.108,0.108,0.144,0.21,0.144,0.408C27.044,23.812,26.966,23.926,26.762,23.926z M26.156,21.868c0.132-0.27,0.27-0.528,0.306-0.57
		c0.156-0.198,0.522,0.018,0.522,0.312c0,0.234-0.21,0.456-0.6,0.63C25.904,22.462,25.88,22.426,26.156,21.868z M26.96,11.806
		C26.9,11.92,25.118,13.75,23,15.874c-2.772,2.784-3.924,3.9-4.128,4.008c-0.354,0.18-0.81,0.192-1.17,0.024
		c-0.138-0.06-0.486-0.342-0.768-0.624l-0.516-0.516l-0.522,0.504c-0.288,0.276-0.636,0.558-0.774,0.63
		c-0.306,0.15-0.822,0.168-1.14,0.036c-0.126-0.054-0.558-0.426-1.008-0.87l-0.786-0.78l-0.294,0.306
		c-0.588,0.6-1.242,0.774-1.83,0.492c-0.192-0.096-0.966-0.834-2.676-2.55c-2.244-2.25-2.418-2.442-2.514-2.742
		c-0.126-0.396-0.096-0.786,0.09-1.158c0.096-0.198,1.212-1.35,4.014-4.146c3.582-3.582,3.9-3.882,4.176-3.966
		c0.354-0.114,0.834-0.09,1.116,0.054c0.114,0.054,0.546,0.444,0.966,0.858l0.762,0.756l0.336-0.318
		c0.408-0.384,0.786-0.564,1.2-0.558c0.474,0.006,0.726,0.144,1.32,0.732l0.54,0.54l0.48-0.486c0.564-0.57,0.924-0.774,1.398-0.774
		c0.174,0,0.414,0.042,0.54,0.09c0.282,0.12,4.938,4.746,5.13,5.1C27.11,10.834,27.122,11.5,26.96,11.806z M26.876,8.284
		c-0.066-0.096-0.222-0.33-0.348-0.528c-0.516-0.81-1.59-2.022-2.394-2.706c-0.228-0.192-0.444-0.39-0.468-0.432
		c-0.024-0.036-0.078-0.072-0.12-0.072s-0.204-0.102-0.372-0.228c-0.324-0.24-0.882-0.552-1.59-0.888
		c-3.57-1.71-7.668-1.692-11.154,0.042C9.194,4.084,8.042,4.9,7.154,5.776c-0.492,0.486-1.71,1.938-1.71,2.034
		c0,0.03-0.264,0.444-0.348,0.546c-0.138,0.174-0.93,1.878-1.116,2.4c-0.516,1.488-0.708,2.676-0.714,4.35
		c0,1.938,0.276,3.336,1.008,5.148c0.096,0.24,0.102,0.27,0.006,0.36c-0.084,0.084-0.108,0.09-0.186,0.006
		c-0.186-0.186-0.798-2.07-0.936-2.904c-0.534-3.162-0.15-5.958,1.17-8.58c0.294-0.594,0.804-1.464,1.008-1.74
		c1.368-1.818,2.85-3.126,4.626-4.074c1.32-0.702,2.958-1.218,4.452-1.41c0.816-0.102,2.52-0.072,3.396,0.054
		c2.13,0.312,3.924,1.062,5.79,2.412c0.102,0.078,0.264,0.192,0.36,0.258c0.54,0.36,1.722,1.53,2.262,2.22
		c2.022,2.61,2.94,5.418,2.844,8.682c-0.048,1.62-0.246,2.712-0.78,4.218c-0.33,0.93-0.48,1.152-0.642,0.96
		c-0.072-0.084-0.036-0.186,0.426-1.338c0.03-0.072,0.12-0.372,0.198-0.66c0.756-2.706,0.642-5.598-0.33-8.22
		C27.698,9.862,27.098,8.602,26.876,8.284z M27.632,22.222c0.066-0.072,0.162-0.246,0.216-0.396c0.06-0.15,0.15-0.318,0.198-0.378
		c0.252-0.276,0.654,0.078,0.474,0.426c-0.09,0.168-0.528,0.444-0.828,0.516C27.494,22.432,27.482,22.39,27.632,22.222z
		 M28.526,23.728c-0.162,0.162-0.39,0.054-0.462-0.228c-0.036-0.132-0.162-0.348-0.282-0.48c-0.21-0.228-0.21-0.234-0.066-0.234
		c0.222,0,0.684,0.174,0.798,0.3C28.64,23.224,28.646,23.608,28.526,23.728z M28.814,20.428c-0.174,0.378-0.222,0.438-0.36,0.438
		c-0.276,0-0.306-0.216-0.096-0.66c0.198-0.438,0.48-1.254,0.66-1.92c1.11-4.152,0.072-8.778-2.712-12.09
		c-0.384-0.456-1.356-1.44-1.662-1.68c-0.15-0.114-0.384-0.318-0.528-0.45c-0.144-0.132-0.282-0.24-0.318-0.24
		c-0.03,0-0.264-0.138-0.516-0.306c-0.246-0.168-0.81-0.48-1.242-0.684c-5.262-2.532-11.412-1.542-15.462,2.49
		C6.194,5.704,5.744,6.19,5.57,6.406C5.396,6.622,5.21,6.85,5.156,6.916C5.102,6.982,4.868,7.33,4.64,7.696
		C3.548,9.412,2.828,11.5,2.624,13.522c-0.09,0.888-0.048,2.646,0.084,3.474c0.168,1.038,0.642,2.64,0.966,3.264
		c0.162,0.324-0.042,0.612-0.312,0.438c-0.288-0.18-0.978-2.448-1.194-3.912c-0.156-1.08-0.144-2.994,0.03-3.99
		c0.24-1.386,0.666-2.778,1.158-3.798c0.192-0.402,0.93-1.728,1.02-1.842c0.03-0.036,0.258-0.342,0.516-0.69
		c0.51-0.696,1.722-1.95,2.394-2.478c2.028-1.602,4.524-2.646,7.02-2.952c0.804-0.096,2.214-0.108,3.03-0.03
		c1.98,0.198,3.87,0.81,5.478,1.77c0.588,0.348,0.666,0.402,0.84,0.552c0.042,0.042,0.102,0.078,0.12,0.078
		c0.024,0,0.204,0.12,0.396,0.27c0.198,0.15,0.384,0.27,0.414,0.27c0.036,0,0.06,0.024,0.06,0.06c0,0.03,0.03,0.06,0.06,0.06
		c0.09,0,0.45,0.324,1.29,1.17c0.81,0.81,1.512,1.686,1.836,2.28c0.072,0.132,0.18,0.312,0.24,0.396
		c0.06,0.09,0.258,0.456,0.438,0.816c0.636,1.272,1.038,2.532,1.296,4.068c0.168,0.996,0.186,3.012,0.036,3.978
		C29.63,18.136,29.246,19.486,28.814,20.428z"/>
</g>
</svg>
