<?xml version="1.0" encoding="utf-8"?>
<!-- Generator: Adobe Illustrator 25.0.1, SVG Export Plug-In . SVG Version: 6.00 Build 0)  -->
<svg version="1.1" id="Layer_1" xmlns="http://www.w3.org/2000/svg" xmlns:xlink="http://www.w3.org/1999/xlink" x="0px" y="0px"
	 viewBox="0 0 32 32" style="enable-background:new 0 0 32 32;" xml:space="preserve">
<style type="text/css">
	.st0{fill-rule:evenodd;clip-rule:evenodd;fill:#41D2DA;}
	.st1{fill:#633001;}
	.st2{fill:#D0874F;}
	.st3{fill:#FDDB8F;}
</style>
<g>
	<circle class="st0" cx="16" cy="16" r="16"/>
	<path class="st1" d="M25.92,17.138c0.042,0.259,0.083,0.519,0.125,0.778c-0.001,0.468-0.02,0.936,0.001,1.403
		c0.034,0.758-0.102,1.482-0.374,2.186c-0.308,0.589-0.685,1.131-1.136,1.62c-1.867,1.788-4.167,2.578-6.673,2.877
		c-2.433,0.291-4.809,0.047-7.103-0.841c-1.113-0.431-2.139-1.013-3.009-1.845c-0.027-0.026-0.066-0.039-0.1-0.058
		c-0.205-0.019-0.3-0.182-0.404-0.323c-0.229-0.311-0.473-0.613-0.664-0.952c-0.224-0.377-0.357-0.793-0.518-1.198
		c-0.078-0.269-0.124-0.545-0.117-0.822c0.017-0.682-0.034-1.366,0.078-2.045c0.038-0.24,0.077-0.481,0.115-0.721
		c0.071-0.407,0.299-0.755,0.436-1.137c0.304-0.499,0.673-0.949,1.065-1.38C8.191,14.2,8.773,13.765,9.4,13.394
		c0.266-0.131,0.531-0.263,0.798-0.391c0.086-0.041,0.149-0.076,0.12-0.197c-0.075-0.316-0.135-0.635-0.201-0.953
		c-0.088-0.436-0.109-0.884-0.242-1.312c-0.055-0.46-0.144-0.914-0.252-1.365C9.509,8.58,9.57,8.002,9.801,7.441
		c0.286-0.569,0.718-0.996,1.269-1.308c0.494-0.194,1.005-0.282,1.536-0.242c0.824,0.036,1.423,0.456,1.889,1.105
		c0.307,0.417,0.461,0.887,0.487,1.402c0.002,0.984-0.005,1.968,0.009,2.951c0.005,0.351,0.023,0.369,0.374,0.371
		c0.467,0.002,0.934-0.01,1.401,0.005c0.195,0.006,0.27-0.058,0.259-0.254c-0.012-0.228-0.006-0.457,0.001-0.686
		c-0.013-0.412-0.008-0.823-0.001-1.235c-0.008-0.363-0.005-0.726,0-1.088c0.003-0.507,0.185-0.959,0.438-1.388
		c0.499-0.639,1.067-1.165,1.945-1.183c0.484-0.034,0.955,0.027,1.413,0.187c0.515,0.241,0.926,0.605,1.253,1.067
		c0.185,0.359,0.33,0.731,0.38,1.135c0.03,0.584-0.105,1.147-0.225,1.711c-0.023,0.109-0.029,0.215-0.03,0.324
		c-0.127,0.531-0.255,1.062-0.299,1.609c-0.102,0.271-0.113,0.561-0.178,0.839c-0.028,0.119,0.022,0.178,0.126,0.23
		c0.373,0.184,0.741,0.376,1.111,0.565c0.58,0.394,1.142,0.811,1.641,1.306c0.329,0.376,0.624,0.778,0.892,1.199
		C25.634,16.42,25.777,16.779,25.92,17.138z"/>
	<path class="st2" d="M6.871,20.075c-0.076-0.107-0.054-0.231-0.053-0.348c0.006-0.716-0.057-1.439,0.088-2.146
		c0.27-1.321,1.111-2.243,2.167-3.001c0.602-0.432,1.252-0.778,1.946-1.036c0.199-0.074,0.241-0.164,0.2-0.373
		c-0.276-1.415-0.542-2.831-0.799-4.25c-0.178-0.985,0.383-1.876,1.331-2.15c0.887-0.256,1.839,0.213,2.208,1.089
		c0.118,0.28,0.15,0.577,0.15,0.877c0.002,1.216,0.009,2.433-0.005,3.649c-0.003,0.274,0.03,0.371,0.346,0.334
		c1.041-0.122,2.088-0.119,3.131-0.006c0.281,0.03,0.376-0.036,0.372-0.339c-0.018-1.256-0.008-2.513-0.007-3.769
		c0.001-1.031,0.738-1.85,1.694-1.887c1.086-0.042,1.932,0.673,2.003,1.737c0.035,0.518-0.144,1.021-0.233,1.529
		c-0.189,1.077-0.393,2.152-0.608,3.224c-0.037,0.184,0.011,0.238,0.169,0.301c1.112,0.44,2.141,1.014,2.984,1.881
		c0.827,0.85,1.3,1.851,1.29,3.053c-0.005,0.525,0.067,1.052-0.041,1.575c-0.185-0.28-0.059-0.575-0.058-0.765
		c-0.162,0.974-1.106,2.037-2.042,2.685c-1.48,1.025-3.133,1.611-4.907,1.851c-2.096,0.284-4.176,0.199-6.215-0.413
		c-1.511-0.454-2.886-1.148-4-2.296c-0.569-0.585-0.963-1.307-1.061-1.927C6.938,19.456,7.04,19.773,6.871,20.075z"/>
	<path class="st3" d="M6.81,20.075c0-0.358,0-0.716,0-1.074c0.219,0.623,0.49,1.205,0.913,1.719
		c0.561,0.681,1.244,1.209,2.008,1.637c1.506,0.845,3.137,1.279,4.851,1.432c2.058,0.183,4.08,0.028,6.037-0.663
		c1.256-0.444,2.425-1.044,3.373-2.008c0.61-0.62,0.917-1.132,1.271-2.114c0,0.338,0,0.677,0,1.015
		c-0.109,1.173-0.729,2.07-1.584,2.823c-1.368,1.205-3.014,1.84-4.779,2.179c-2.381,0.458-4.75,0.38-7.076-0.341
		c-1.603-0.497-3.062-1.242-4.139-2.577C7.209,21.51,6.885,20.844,6.81,20.075z"/>
	<path class="st1" d="M13.471,17.825c0.005,0.503-0.108,0.936-0.448,1.284c-0.352,0.359-0.842,0.34-1.176-0.039
		c-0.535-0.609-0.55-1.789-0.031-2.413c0.402-0.484,0.962-0.466,1.33,0.043C13.395,17.044,13.48,17.436,13.471,17.825z"/>
	<path class="st1" d="M20.531,17.961c0.014,0.274-0.096,0.62-0.289,0.942c-0.363,0.605-1.074,0.614-1.455,0.021
		c-0.417-0.65-0.4-1.614,0.041-2.226c0.37-0.515,0.967-0.522,1.346-0.018C20.436,17.028,20.528,17.427,20.531,17.961z"/>
</g>
</svg>
