<?xml version="1.0" encoding="utf-8"?>
<!-- Generator: Adobe Illustrator 25.3.1, SVG Export Plug-In . SVG Version: 6.00 Build 0)  -->
<svg version="1.1" id="Layer_1" xmlns="http://www.w3.org/2000/svg" xmlns:xlink="http://www.w3.org/1999/xlink" x="0px" y="0px"
	 viewBox="0 0 32 32" style="enable-background:new 0 0 32 32;" xml:space="preserve">
<style type="text/css">
	.st0{fill:#9CABE3;}
	.st1{fill:#FFFFFF;}
</style>
<g>
	<path class="st0" d="M16.042,0.214C7.341,0.191,0.219,7.288,0.214,15.989c-0.006,8.687,7.079,15.786,15.764,15.797
		c8.685,0.012,15.792-7.071,15.807-15.754C31.8,7.344,24.727,0.237,16.042,0.214z"/>
	<path class="st1" d="M6.113,13.28c0.071-0.122,0.056-0.263,0.079-0.395c0.172-0.995,0.582-1.876,1.239-2.644
		c0.505-0.59,1.105-1.055,1.805-1.385c0.364-0.172,0.742-0.302,1.14-0.391c0.445-0.099,0.889-0.16,1.343-0.146
		c0.26,0.008,0.521,0.016,0.775,0.095c0.086,0.027,0.184,0.012,0.276,0.034c0.075,0.018,0.109-0.05,0.149-0.095
		c0.518-0.592,1.141-1.041,1.856-1.362c0.542-0.243,1.107-0.395,1.703-0.449c0.903-0.081,1.765,0.065,2.616,0.358
		c1.382,0.476,2.771,0.932,4.16,1.389c0.349,0.115,0.571,0.392,0.566,0.786c-0.014,1.175-0.012,2.349-0.001,3.524
		c0.003,0.338-0.227,0.629-0.531,0.729c-1.123,0.368-2.243,0.745-3.364,1.118c-0.653,0.217-1.306,0.435-1.959,0.651
		c-0.553,0.183-1.01-0.145-1.011-0.73c-0.002-0.961-0.002-1.922,0.002-2.883c0.001-0.111-0.03-0.163-0.139-0.199
		c-1.08-0.356-2.159-0.715-3.236-1.08c-0.124-0.042-0.182-0.018-0.233,0.102c-0.195,0.453-0.331,0.918-0.351,1.413
		c-0.045,1.116-0.025,2.233-0.013,3.349c0.009,0.829,0.204,1.626,0.552,2.383c0.548,1.193,1.395,2.111,2.523,2.775
		c0.253,0.149,0.519,0.272,0.791,0.385c0.094,0.039,0.1,0.008,0.102-0.074c0.007-0.275-0.026-0.552,0.021-0.825
		c0.046-0.265,0.204-0.449,0.45-0.534c0.789-0.273,1.583-0.535,2.375-0.799c0.724-0.242,1.448-0.484,2.173-0.723
		c0.341-0.112,0.676-0.247,1.027-0.327c0.378-0.087,0.801,0.24,0.816,0.629c0.009,0.236,0.004,0.472,0.004,0.707
		c0,1.593-0.011,3.186,0.006,4.779c0.005,0.474-0.446,0.887-0.964,0.715c-0.683-0.227-1.364-0.457-2.047-0.685
		c-0.715-0.239-1.43-0.479-2.147-0.715c-0.249-0.082-0.25-0.076-0.25,0.191c0,0.663,0.001,1.326-0.001,1.989
		c0,0.146-0.008,0.293-0.021,0.439c-0.027,0.301-0.261,0.55-0.568,0.611c-0.026,0.005-0.054,0.003-0.073,0.025
		c-0.053,0-0.107,0-0.16,0c-0.071-0.022-0.143-0.044-0.213-0.067c-1.685-0.562-3.37-1.125-5.056-1.687
		c-0.83-0.277-1.669-0.527-2.431-0.975c-0.774-0.455-1.451-1.023-2.026-1.71C7.386,21.001,7,20.364,6.71,19.671
		c-0.277-0.662-0.459-1.35-0.545-2.064c-0.017-0.143,0.006-0.291-0.052-0.429C6.113,15.878,6.113,14.579,6.113,13.28z M11.531,9.757
		c-0.031,0-0.062-0.002-0.093,0.001c-0.035,0.004-0.07,0.016-0.105,0.018c-0.569,0.035-1.107,0.181-1.61,0.453
		c-0.702,0.379-1.255,0.908-1.649,1.603c-0.362,0.637-0.516,1.327-0.519,2.053c-0.003,0.854,0.002,1.709-0.001,2.563
		c-0.002,0.405,0.019,0.807,0.078,1.207c0.114,0.78,0.391,1.505,0.77,2.186c0.256,0.459,0.597,0.864,0.976,1.233
		c0.392,0.382,0.816,0.722,1.296,0.985c0.281,0.154,0.566,0.301,0.87,0.405c0.441,0.151,0.885,0.292,1.325,0.446
		c0.863,0.302,1.735,0.577,2.598,0.877c0.448,0.156,0.902,0.297,1.354,0.444c0.098,0.032,0.134,0.023,0.133-0.091
		c-0.004-0.614-0.004-1.228-0.001-1.842c0-0.08-0.025-0.124-0.101-0.147c-0.504-0.153-0.982-0.365-1.442-0.62
		c-0.835-0.462-1.548-1.071-2.155-1.803c-0.465-0.56-0.836-1.181-1.12-1.853c-0.361-0.854-0.575-1.744-0.595-2.669
		c-0.022-1.045-0.005-2.091-0.009-3.137c-0.001-0.312,0.024-0.621,0.069-0.929c0.064-0.437,0.187-0.858,0.356-1.266
		c0.026-0.062,0.033-0.101-0.054-0.099C11.778,9.781,11.654,9.772,11.531,9.757z M14.389,8.941c0.033,0.018,0.048,0.028,0.064,0.034
		c0.559,0.187,1.118,0.373,1.677,0.559c0.586,0.195,1.172,0.39,1.758,0.586c0.319,0.107,0.507,0.367,0.508,0.705
		c0.002,0.627,0.001,1.255,0.001,1.882c0,0.191,0,0.383,0,0.574c0,0.147,0.01,0.153,0.153,0.103
		c0.071-0.025,0.141-0.053,0.213-0.077c1.154-0.385,2.308-0.772,3.465-1.152c0.119-0.039,0.153-0.094,0.152-0.217
		c-0.006-0.756-0.006-1.513-0.001-2.269c0.001-0.107-0.029-0.152-0.133-0.187c-1.173-0.386-2.345-0.776-3.515-1.17
		c-0.455-0.153-0.91-0.308-1.393-0.342c-0.834-0.06-1.617,0.118-2.342,0.537C14.785,8.628,14.584,8.765,14.389,8.941z
		 M22.374,20.758c0-0.516-0.002-1.032,0.002-1.547c0.001-0.11-0.011-0.151-0.137-0.108c-0.903,0.306-1.808,0.606-2.713,0.908
		c-0.333,0.111-0.664,0.226-0.999,0.331c-0.099,0.031-0.132,0.079-0.126,0.18c0.008,0.155,0.009,0.312,0,0.467
		c-0.006,0.111,0.029,0.163,0.139,0.199c0.543,0.173,1.083,0.353,1.623,0.538c0.267,0.092,0.535,0.182,0.801,0.279
		c0.419,0.154,0.851,0.274,1.275,0.414c0.107,0.035,0.14,0.019,0.139-0.099C22.371,21.798,22.374,21.278,22.374,20.758z"/>
</g>
</svg>
