<svg id="Layer_1" data-name="Layer 1" xmlns="http://www.w3.org/2000/svg" viewBox="0 0 27.4 31.13"><defs><style>.cls-1{fill:#fff}.cls-2{fill:#fbb900}.cls-7{fill:#dcdcdc}.cls-10{fill:#ddd}.cls-13{fill:#506a85}.cls-14{fill:#939393}.cls-15{fill:#bfbfbf}.cls-16{fill:#355373}.cls-17{fill:#fccc46}.cls-20{fill:#2b2b2b}.cls-21{fill:#b3b3b3}.cls-28{fill:#acacac}.cls-29{fill:#9f9f9f}.cls-31{fill:#d7d7d7}.cls-33{fill:#9c9c9c}.cls-35{fill:#c3c3c3}.cls-46{fill:#bebebe}.cls-48{fill:#13567b}.cls-51{fill:#c1c1c1}.cls-56{fill:#474e51}.cls-61{fill:#2a2a2a}.cls-63{fill:#505050}.cls-64{fill:#afafaf}</style></defs><path class="cls-1" d="M23.45 10.72l-1.84-1.6-2.71-1.16h-3.34l-2.37.91-2.81 2.69-.97 3.64.07 2.36L11 20.6l1.74 1.76 1.76 1.04 1.58.38a8.43 8.43 0 0 0 7.6-2.96l.77.52-2 2.18-5.52 1.97-3.67-1.03-4.42-3.89-.82-5.03 1.29-6.12 5.05-2.69 7.07-.14 2.94 3.95z" transform="translate(-2.17 -.56)"/><path class="cls-1" d="M19.98 13.32l-.57.31-1.12-.88-1.41-.15-.94.1-.64.42-1.04.91-.29.97-.13 1.05.66 1.36.53.63.55.5.36.14.74.24.13-.02a3.36 3.36 0 0 0 2.85-1.05l.52.27-.31.91-2.6.83-2.61-.48-1.19-1.68-.4-2.47.41-1.6 1.84-1.54 1.95-.13 2.64.74z" transform="translate(-2.17 -.56)"/><path class="cls-2" d="M23.79 10.28a8.06 8.06 0 0 0-2.7-2.31 7.94 7.94 0 0 0-2.74-.82 9.94 9.94 0 0 0-1.34-.06 8.01 8.01 0 0 0-5.38 2.11l-.46.44-.05-.06-4.23-4.22-.06-.06v-.02c.17-.15.33-.33.5-.49L8 4.2A14.6 14.6 0 0 1 9.47 3.1 14.14 14.14 0 0 1 11.57 2a13.32 13.32 0 0 1 2.31-.75l.63-.12a2.82 2.82 0 0 0 .33-.05c.28-.04.57-.08.86-.1s.58-.05.87-.06a17.86 17.86 0 0 1 1.96.05l.4.04.44.05c.03.03.06.01.1.02.47.09.95.17 1.42.3a15.11 15.11 0 0 1 1.51.5 14.44 14.44 0 0 1 1.58.73l.8.46c.36.2.68.48 1.05.65a.1.1 0 0 1 .04.04c.06.09.08.09.17 0 .05-.04.07-.12.15-.14l.45.34a.36.36 0 0 0 .02.03c.3.24.59.5.87.76a14.69 14.69 0 0 1 1.32 1.45 2.42 2.42 0 0 1 .28.38l-.28-.04a.32.32 0 0 0-.28.04c-.34.28-.69.54-1.03.8l-1.4 1.1-1.54 1.19-.8.62z" transform="translate(-2.17 -.56)"/><path d="M11.16 22.02a9.16 9.16 0 0 0 1.69 1.36 7.71 7.71 0 0 0 2.92 1.09 8.96 8.96 0 0 0 4.26-.34 7.55 7.55 0 0 0 2.82-1.7 10.12 10.12 0 0 0 .93-1.03.09.09 0 0 1 .06.01c.1.1.21.18.32.26l1.35 1.04 1.1.86 1.13.86.8.63c.04.03.08.08.14.06a.37.37 0 0 0-.09.07c-.25.32-.5.63-.79.92a15.2 15.2 0 0 1-1.12 1.09c-.3.26-.61.5-.93.74q-.52.37-1.07.7a14.47 14.47 0 0 1-1.77.92 13.97 13.97 0 0 1-1.55.58 12.05 12.05 0 0 1-1.22.31 15.28 15.28 0 0 1-1.62.23c-.32.03-.64.05-.97.06a15.42 15.42 0 0 1-1.57-.04 17.63 17.63 0 0 1-1.77-.23 4.08 4.08 0 0 1-.53-.11.05.05 0 0 0-.03-.02 14.18 14.18 0 0 1-1.38-.41 13.64 13.64 0 0 1-1.8-.8 12.56 12.56 0 0 1-1.12-.67l-.51-.34-.43-.34c-.31-.24-.61-.5-.9-.76l-.29-.27a5.4 5.4 0 0 1-.4-.4l.07-.07 2.51-2.5c.58-.56 1.15-1.14 1.72-1.71a.38.38 0 0 0 .04-.05z" transform="translate(-2.17 -.56)" fill="#1972a4"/><path d="M11.16 22.02l-.04.04-1.72 1.72-2.51 2.5-.07.07a3.24 3.24 0 0 0-.24.24l-.06-.05-.66-.72c-.21-.24-.41-.5-.61-.75a1.97 1.97 0 0 0-.24-.29 4.17 4.17 0 0 1-.3-.42l-.45-.7-.03-.06a14.64 14.64 0 0 1-1.35-3.01 9.56 9.56 0 0 1-.26-.97c.03-.05.09-.05.14-.06.14-.06.16-.07.13-.22-.04-.18-.08-.36-.1-.54l-.14-.86a14.28 14.28 0 0 1-.12-1.75c-.02-.41.01-.82.01-1.23l.06-.77.1-.82q.08-.55.2-1.09a14.83 14.83 0 0 1 .8-2.42c.07-.15.15-.3.2-.45q.27-.56.58-1.1a14.24 14.24 0 0 1 .8-1.2c.22-.31.46-.62.72-.91.14-.16.27-.32.42-.47s.26-.3.41-.43l.07.06 4.22 4.23.05.05-.47.53a8.42 8.42 0 0 0-1.9 4.1 9.56 9.56 0 0 0-.12 1.38 9.32 9.32 0 0 0 .32 2.7 8.35 8.35 0 0 0 1.7 3.17l.46.5z" transform="translate(-2.17 -.56)" fill="#082d53"/><path class="cls-2" d="M14.49 18.42a4.33 4.33 0 0 0 .71.58 3.53 3.53 0 0 0 4.67-.96l.02.02 1.28 1 .84.63v.03c-.15 0-.3.03-.44.05-.03 0-.04.02-.06.04a5.88 5.88 0 0 1-2.05 1.55 5.72 5.72 0 0 1-1.17.4 7.58 7.58 0 0 1-.9.12h-.14a7.7 7.7 0 0 1-1.17-.06 5.31 5.31 0 0 1-1.59-.48.21.21 0 0 0-.08-.05 5.03 5.03 0 0 1-.57-.33 5.81 5.81 0 0 1-.67-.51 2.74 2.74 0 0 1-.36-.35l.06-.05z" transform="translate(-2.17 -.56)"/><path d="M14.49 18.42l-1.63 1.62-.05.06-.25.24a3.22 3.22 0 0 1-.3-.32l-.35-.44c-.02-.03-.03-.07-.07-.07a2.23 2.23 0 0 1-.17-.26l-.35-.64-.13-.31a5.53 5.53 0 0 1-.35-1.2h.27v-.02h-.2v-.02h.17c.03 0 .05 0 .05-.04a1.78 1.78 0 0 0 0-.23 6.92 6.92 0 0 1-.06-.72 6.51 6.51 0 0 1 .02-.88l.07-.5.06-.38.07-.27a6.6 6.6 0 0 1 .55-1.24 5.38 5.38 0 0 1 .65-.9l.32-.36a.22.22 0 0 0 .07.08l1.55 1.55.06.06a3.94 3.94 0 0 0-.74 1.1 3.8 3.8 0 0 0-.3 1.84 3.54 3.54 0 0 0 1.02 2.23.09.09 0 0 1 .02.02z" transform="translate(-2.17 -.56)" fill="#1973a4"/><path d="M14.5 13.22l-.07-.06-1.55-1.54a.22.22 0 0 1-.06-.08 5.9 5.9 0 0 1 .75-.67 5.55 5.55 0 0 1 1.11-.64 5.33 5.33 0 0 1 1-.33c.15-.04.31-.06.47-.09a1.03 1.03 0 0 0 .11 0 6.34 6.34 0 0 1 1.24-.03l.37.05c.14 0 .28.06.43.06a.19.19 0 0 0 .04.02l.52.15c.24.08.47.19.7.28l.5.28a5.34 5.34 0 0 1 .89.65c.1.1.18.1.28 0l.06-.06a.04.04 0 0 1 .05 0v.01c.03.03 0 .05-.01.08l-.13.14c-.01.01-.03.03 0 .05s.04 0 .05-.01a1.87 1.87 0 0 0 .2-.2 5.68 5.68 0 0 1 .57.64c.01.01.03.03 0 .05a1.82 1.82 0 0 0-.4-.07.16.16 0 0 0-.12.04l-.4.3-1.06.82q-.19.14-.36.3h-.02a3.18 3.18 0 0 0-1.24-.93 3.52 3.52 0 0 0-1.26-.26 3.4 3.4 0 0 0-2.64 1.04z" transform="translate(-2.17 -.56)" fill="#082d54"/><path class="cls-7" d="M2.62 19.62c.07.33.16.65.26.97a14.57 14.57 0 0 0 1.35 3.01l.04.06a.12.12 0 0 0 .02.08l.46.76q.34.52.71 1c.18.22.35.44.54.65l.38.43c-.03.03 0 .05.01.08.26.24.5.51.76.75a15.23 15.23 0 0 0 3.21 2.38 13.68 13.68 0 0 0 2.7 1.14c.42.13.83.23 1.25.32a15.17 15.17 0 0 0 1.6.24 21.44 21.44 0 0 0 2.45.05l.46-.04.76-.09c.3-.04.61-.1.92-.16.32-.06.64-.14.96-.23q.64-.17 1.26-.4a14.67 14.67 0 0 0 1.72-.78q.55-.3 1.08-.63a14.5 14.5 0 0 0 1.7-1.26q.39-.34.76-.7c.24-.23.47-.48.69-.73.2-.22.4-.45.58-.7a.6.6 0 0 0 .14-.4.63.63 0 0 0-.26-.45l-1.04-.82-.94-.72-1.54-1.2-1.16-.9a3.67 3.67 0 0 0-.44-.3c-.03 0-.07-.05-.1 0l-.2-.15c-.02-.01-.04-.02-.03-.04s.03-.03.05-.03a.62.62 0 0 1 .3.07 3.32 3.32 0 0 1 .52.37l1.1.85 1.56 1.2.98.76 1.04.8a.8.8 0 0 1 .32.55.64.64 0 0 1-.12.42 6.52 6.52 0 0 1-.44.55c-.24.29-.5.56-.76.82q-.48.49-1.01.93a15.26 15.26 0 0 1-1.6 1.18q-.49.32-1 .59c-.3.17-.62.33-.94.47q-.56.25-1.14.46a14.85 14.85 0 0 1-1.63.48 15.93 15.93 0 0 1-1.89.3c-.16.03-.33.03-.5.05-.54.04-1.1.03-1.65.02-.3 0-.58-.03-.87-.05a16.76 16.76 0 0 1-1.48-.2q-.7-.14-1.38-.34a13.37 13.37 0 0 1-1.36-.47c-.36-.15-.7-.3-1.04-.47q-.63-.33-1.22-.7-.56-.36-1.1-.77-.38-.3-.75-.62l-.63-.58c-.25-.23-.47-.48-.71-.72s-.44-.48-.64-.73a16.36 16.36 0 0 1-1.14-1.54c-.23-.35-.44-.72-.64-1.09a14.41 14.41 0 0 1-.69-1.47 14.61 14.61 0 0 1-.69-2.25 18.47 18.47 0 0 1-.28-1.73q-.05-.42-.07-.84a1.63 1.63 0 0 1 0-.42h.02a8.73 8.73 0 0 0 .06.88c.04.42.1.83.18 1.24a7.96 7.96 0 0 0 .18.8z" transform="translate(-2.17 -.56)"/><path d="M18.97.66a1.31 1.31 0 0 1 .43.03c.26.03.52.06.78.12l.8.17a13.53 13.53 0 0 1 1.48.44c.45.16.88.34 1.3.54a16.9 16.9 0 0 1 2.2 1.23c.34.23.67.47 1 .73q.37.3.72.63c.27.24.53.48.77.74s.49.52.7.8a2.8 2.8 0 0 1 .36.5.63.63 0 0 1-.18.76l-.9.7-.78.6-1.05.82-1.25.96c-.36.29-.73.58-1.1.85a.94.94 0 0 1-.4.18.54.54 0 0 1-.42-.13 3.35 3.35 0 0 1-.45-.5 7.91 7.91 0 0 0-.65-.66 6.9 6.9 0 0 0-.71-.56 6.45 6.45 0 0 0-1.78-.86 6.86 6.86 0 0 0-1.18-.25 13.45 13.45 0 0 0-1.44-.08 7.6 7.6 0 0 0-.84.08 7.07 7.07 0 0 0-1.36.32 6.82 6.82 0 0 0-1.32.64 7.99 7.99 0 0 0-1.65 1.36 8.29 8.29 0 0 0-1.04 1.4 7.32 7.32 0 0 0-.55 1.17 7.5 7.5 0 0 0-.35 1.3l-.09.69a10.62 10.62 0 0 0-.02 1.16 6.9 6.9 0 0 0 .07.83 7.13 7.13 0 0 0 .94 2.73 7.96 7.96 0 0 0 .71 1.01l.3.34.25.27a7.84 7.84 0 0 0 1.5 1.16 6.61 6.61 0 0 0 1.94.78 5.1 5.1 0 0 0 .55.1.1.1 0 0 1 .06.04.43.43 0 0 1-.23-.01 7.08 7.08 0 0 1-1.35-.3 3.73 3.73 0 0 1-.52-.2.19.19 0 0 0-.08-.07l-.39-.22a7.7 7.7 0 0 1-1.46-1.11 8.47 8.47 0 0 1-.53-.57 7.74 7.74 0 0 1-.53-.67 7.44 7.44 0 0 1-.74-1.33 7.14 7.14 0 0 1-.3-.85 7.6 7.6 0 0 1-.25-1.2 6.8 6.8 0 0 1-.05-.73 9.26 9.26 0 0 1 .04-1.33c.02-.18.04-.37.08-.55l.13-.63a.28.28 0 0 1 .01-.07 6.2 6.2 0 0 1 .2-.62 7.23 7.23 0 0 1 .7-1.4 7.9 7.9 0 0 1 .66-.9 3.34 3.34 0 0 1 .38-.41 1.2 1.2 0 0 0 .2-.2 7.96 7.96 0 0 1 .63-.56 6.92 6.92 0 0 1 1.2-.77 6.62 6.62 0 0 1 1.23-.49 6.7 6.7 0 0 1 .86-.19l.44-.06c.05 0 .11.02.16-.02a.85.85 0 0 0 .26-.01H18c.07.03.14 0 .2.01h.02c.05.04.11.01.16.02.13.03.26.03.38.05a8.36 8.36 0 0 1 .85.17 7.16 7.16 0 0 1 1.1.4 6.68 6.68 0 0 1 1.06.6 8.53 8.53 0 0 1 .7.58c.05.05.08.1.15.13l.28.31.19.2a3.7 3.7 0 0 0 .33.37.46.46 0 0 0 .32.16c.07.04.13 0 .2-.02a.86.86 0 0 0 .24-.12c.51-.38 1-.78 1.51-1.17l1.02-.8.9-.68 1.05-.82a7.07 7.07 0 0 0 .61-.5.53.53 0 0 0 .08-.69 3.86 3.86 0 0 0-.3-.4 15.2 15.2 0 0 0-1.34-1.4l-.36-.32c-.21-.2-.44-.37-.66-.55q-.54-.41-1.1-.77a14.5 14.5 0 0 0-1.32-.76 1.45 1.45 0 0 0-.36-.15.27.27 0 0 1-.04-.02 14.92 14.92 0 0 0-2.4-.97 13.13 13.13 0 0 0-1.54-.37C19.9.8 19.86.8 19.83.8l-.05-.01a.2.2 0 0 0-.08-.02h-.02L19.4.72l-.42-.06z" transform="translate(-2.17 -.56)" fill="#dedede"/><path class="cls-7" d="M17.91 9.48a3.7 3.7 0 0 1 .99.15 6.24 6.24 0 0 1 1.07.38 6.9 6.9 0 0 1 1.3.78l.48.41a3.77 3.77 0 0 1 .6.67.6.6 0 0 1 .07.57.77.77 0 0 1-.27.33l-1.07.84c-.31.24-.6.49-.93.7a.62.62 0 0 1-.82-.1 3.68 3.68 0 0 0-.63-.52 2.67 2.67 0 0 0-.9-.33 2.75 2.75 0 0 0-.52-.04 2.64 2.64 0 0 0-1.02.2 2.85 2.85 0 0 0-1.66 2.1 3.06 3.06 0 0 0-.05.62 2.73 2.73 0 0 0 1.48 2.39 2.92 2.92 0 0 0 .78.27.06.06 0 0 1 .03.02 2.6 2.6 0 0 1-1.34-.39c0-.04-.03-.06-.05-.08a4.26 4.26 0 0 1-.35-.34 2.97 2.97 0 0 1-.65-1.27 3.13 3.13 0 0 1-.05-1.15 2.91 2.91 0 0 1 .38-1.08 3.17 3.17 0 0 1 .96-1.03 2.79 2.79 0 0 1 1.57-.45 2.9 2.9 0 0 1 .67.07 2.67 2.67 0 0 1 1.14.57 2.8 2.8 0 0 0 .38.33.45.45 0 0 0 .24.1.6.6 0 0 0 .41-.13c.27-.19.53-.4.78-.6.37-.27.73-.55 1.08-.84a.48.48 0 0 0 .18-.65.42.42 0 0 0-.04-.06 2.58 2.58 0 0 0-.4-.45 3.84 3.84 0 0 0-.4-.37 1.29 1.29 0 0 0-.34-.23l-.29-.22a6.17 6.17 0 0 0-.96-.58 2.28 2.28 0 0 0-.31-.15 5.27 5.27 0 0 0-.96-.32.3.3 0 0 0-.03-.01z" transform="translate(-2.17 -.56)"/><path d="M14.5 1.12l-.62.13a13.32 13.32 0 0 0-2.32.75 14.11 14.11 0 0 0-2.09 1.11 14.48 14.48 0 0 0-1.46 1.08l-.68.61-.5.49-.25-.24a7.93 7.93 0 0 1 .6-.59q.59-.54 1.22-1.03a14.75 14.75 0 0 1 1.94-1.24 13.78 13.78 0 0 1 3.3-1.24 14.12 14.12 0 0 1 1.62-.28.95.95 0 0 1 .16-.01v.18c0 .1-.01.1-.11.11a.17.17 0 0 0-.03.01.43.43 0 0 1-.24.04.03.03 0 0 0-.02 0c-.04.07-.11.04-.17.05a2.36 2.36 0 0 0-.35.07z" transform="translate(-2.17 -.56)" fill="#fccf52"/><path class="cls-10" d="M10.84 17.1a5.53 5.53 0 0 0 .35 1.2l.13.31a.28.28 0 0 0 .03.12 5.3 5.3 0 0 0 .32.65 7.1 7.1 0 0 0 1.96 2.16 5.98 5.98 0 0 0 2.7 1.1 8.23 8.23 0 0 0 .88.07 5.96 5.96 0 0 0 .94-.06 6.18 6.18 0 0 0 1.08-.24 6.44 6.44 0 0 0 2.45-1.45 4.42 4.42 0 0 0 .46-.5.53.53 0 0 0 .05-.7 1.31 1.31 0 0 0-.27-.25l-.97-.75c-.3-.23-.58-.47-.9-.68a.24.24 0 0 0-.18-.04l-.17-.14c-.02-.01-.05-.03-.04-.06s.04-.02.07-.02a.77.77 0 0 1 .43.16l1.3 1 .66.52a1.02 1.02 0 0 1 .24.27.6.6 0 0 1-.06.73 5.5 5.5 0 0 1-.75.76 6.3 6.3 0 0 1-1.44.95 6.09 6.09 0 0 1-1.6.52 7.5 7.5 0 0 1-.86.1l-.38.02a6.56 6.56 0 0 1-.84-.06 6.1 6.1 0 0 1-1.3-.3 5.87 5.87 0 0 1-1.18-.57 7.05 7.05 0 0 1-1.1-.84 7.28 7.28 0 0 1-1.1-1.3 6.18 6.18 0 0 1-.85-1.95 7.2 7.2 0 0 1-.18-1 4.21 4.21 0 0 1 0-.78c0 .14 0 .28.02.42a4.16 4.16 0 0 0 .1.64z" transform="translate(-2.17 -.56)"/><path d="M23.91 21.04c.04-.05.08 0 .1 0a3.67 3.67 0 0 1 .44.3l1.17.9 1.53 1.2.94.72 1.04.82a.63.63 0 0 1 .26.45.6.6 0 0 1-.14.4c-.18.24-.38.47-.58.7-.22.25-.44.5-.69.73l-.77.7a14.5 14.5 0 0 1-1.69 1.26q-.53.34-1.08.63a14.67 14.67 0 0 1-1.71.77q-.63.24-1.27.41a13.75 13.75 0 0 1-1.88.4l-.76.08-.46.04a21.44 21.44 0 0 1-2.45-.05 15.17 15.17 0 0 1-1.6-.24c-.42-.09-.83-.2-1.24-.32a13.68 13.68 0 0 1-2.71-1.13 15.5 15.5 0 0 1-3.21-2.38c-.26-.24-.5-.51-.75-.76-.03-.02-.05-.04-.02-.07s.05 0 .06.02l.16.18c.31.3.62.61.94.9.21.2.42.38.64.56a15 15 0 0 0 2.56 1.68c.25.13.5.25.77.36a13.24 13.24 0 0 0 1.5.56 14.2 14.2 0 0 0 2.35.5q.53.07 1.06.1c.3.03.61.04.92.04h.54a18.94 18.94 0 0 0 1.87-.17 14.02 14.02 0 0 0 2.59-.64 15.3 15.3 0 0 0 1.68-.7c.32-.15.63-.32.94-.5a14.48 14.48 0 0 0 1.7-1.15 13.98 13.98 0 0 0 1.37-1.22c.18-.17.35-.34.51-.53.19-.2.36-.4.53-.62a1.07 1.07 0 0 0 .24-.4.48.48 0 0 0-.2-.48.47.47 0 0 0-.05-.05l-1.5-1.16-3.07-2.4c-.16-.12-.32-.26-.5-.37z" transform="translate(-2.17 -.56)" fill="#d1d1d1"/><path d="M24 21.11c.17.11.33.25.5.38l3.07 2.38 1.5 1.15a.47.47 0 0 1 .05.05l-.02.02c-.02-.03-.05-.01-.08 0l-.33.03c-.06.01-.1-.03-.13-.06l-.81-.63-1.12-.86-1.11-.86-1.35-1.04-.32-.26a.09.09 0 0 0-.06-.02z" transform="translate(-2.17 -.56)" fill="#3181ae"/><path class="cls-13" d="M6.58 5.05l.25.23v.02c-.16.13-.28.29-.42.43s-.28.31-.42.47c-.25.3-.5.6-.72.91q-.43.58-.8 1.2c-.2.36-.4.73-.58 1.1l-.03.05c-.12.24-.22.5-.36.73-.03.05-.05.06-.1.03s-.12-.08-.2-.05a5.99 5.99 0 0 1 .24-.58 15.03 15.03 0 0 1 2.55-3.92c.2-.21.38-.42.6-.62z" transform="translate(-2.17 -.56)"/><path class="cls-14" d="M11.13 10.26a8.18 8.18 0 0 1 .94-.94 7.95 7.95 0 0 1 1.61-1.08 7.58 7.58 0 0 1 2.1-.67 4.34 4.34 0 0 1 .53-.07c.05.02.05.07.05.1v.17c0 .04.01.05.05.05a.65.65 0 0 1-.2.03 7.28 7.28 0 0 0-1.38.3 7.36 7.36 0 0 0-2.75 1.61c-.2.19-.4.38-.58.58-.03-.06-.1-.01-.14-.06a.3.3 0 0 1 .02.08.1.1 0 0 1-.03.08.06.06 0 0 1-.08 0c-.05-.05-.13-.1-.14-.18z" transform="translate(-2.17 -.56)"/><path class="cls-15" d="M12.94 22.58a7.78 7.78 0 0 1-.85-.67 3.6 3.6 0 0 1-.32-.32.4.4 0 0 0-.12-.18 8.22 8.22 0 0 1-.72-.95 7.51 7.51 0 0 1-.78-1.61 8.19 8.19 0 0 1-.34-1.4 8.59 8.59 0 0 1-.09-.99 8.03 8.03 0 0 1 .01-.8c.02-.28.05-.55.09-.82a7.19 7.19 0 0 1 .26-1.17 7.63 7.63 0 0 1 .56-1.34 8.31 8.31 0 0 1 .64-1 9.49 9.49 0 0 1 1.36-1.44 8.69 8.69 0 0 1 1.06-.74 7.3 7.3 0 0 1 1.22-.57 6.9 6.9 0 0 1 1.4-.34 7.32 7.32 0 0 1 .82-.07h.83l.67.06a7.85 7.85 0 0 1 1.06.22 6.96 6.96 0 0 1 1.95.89 1.74 1.74 0 0 0 .28.17.63.63 0 0 1 .14.1c.06.04.1.1.16.12a.29.29 0 0 0 .15.12 3.9 3.9 0 0 0 .38.4.79.79 0 0 0 .15.13l.03.04v.02l.49.57.06.1a.17.17 0 0 1-.04-.03c-.19-.17-.34-.38-.52-.56a7.4 7.4 0 0 0-.79-.75 6.02 6.02 0 0 0-.84-.58 7 7 0 0 0-1.14-.53 7.32 7.32 0 0 0-1.4-.35 8.17 8.17 0 0 0-.99-.09l-.72.01c-.26.02-.52.04-.78.08a7.28 7.28 0 0 0-1.33.33 7.38 7.38 0 0 0-1.24.58 8.38 8.38 0 0 0-1.52 1.18c-.14.13-.26.27-.39.41a7.55 7.55 0 0 0-.68.88 7.45 7.45 0 0 0-1.05 2.3.15.15 0 0 1-.01.05 8.3 8.3 0 0 0-.23 1.4 7.34 7.34 0 0 0-.02.79 7.04 7.04 0 0 0 .12 1.42 7.96 7.96 0 0 0 .33 1.24 7.33 7.33 0 0 0 .7 1.46A8.4 8.4 0 0 0 12.31 22l.61.53c.01.02.04.03.02.06z" transform="translate(-2.17 -.56)"/><path class="cls-16" d="M3.2 10.16c.08-.03.14.02.2.05s.08.03.1-.03c.14-.23.24-.48.36-.73l.03-.04a4.68 4.68 0 0 1-.19.45l-.4 1a14.27 14.27 0 0 0-.4 1.42q-.13.54-.2 1.09l-.1.82-.06.77c-.02 0-.04 0-.04.02.01.04.03.07-.01.1a.04.04 0 0 0 0 .02c.07.08-.03.07-.05.07h-.26c0-.3.03-.59.06-.88a15.4 15.4 0 0 1 .21-1.55 15.27 15.27 0 0 1 .7-2.47l.02-.03c.02 0 .03.02.05 0s0-.02 0-.04l-.01-.04z" transform="translate(-2.17 -.56)"/><path class="cls-17" d="M14.5 1.12a2.34 2.34 0 0 1 .35-.07c.05-.01.13.02.17-.05a.03.03 0 0 1 .02 0 .43.43 0 0 0 .23-.04h.03c.1 0 .1-.02.1-.12V.66a3.35 3.35 0 0 1 .4-.05 16.5 16.5 0 0 1 1.9-.04q.6.01 1.17.08a.65.65 0 0 0 .09 0c.14.04.28.04.43.07l.29.05v.21a.08.08 0 0 1-.1.09.36.36 0 0 0-.21-.01L18.9 1l-.38-.05a17.78 17.78 0 0 0-1.96-.04c-.29 0-.58.03-.87.06l-.86.1a2.89 2.89 0 0 1-.34.04z" transform="translate(-2.17 -.56)"/><path d="M16.15 9.81c-.16.03-.32.05-.47.09a5.33 5.33 0 0 0-1 .33 5.55 5.55 0 0 0-1.1.64 5.9 5.9 0 0 0-.76.67h-.01l-.24-.24a5.39 5.39 0 0 1 .69-.62 5.83 5.83 0 0 1 2.62-1.17 5.01 5.01 0 0 1 .75-.08c-.1 0-.1.06-.1.14a.38.38 0 0 1 0 .04.18.18 0 0 1-.18.17.65.65 0 0 0-.2.03z" transform="translate(-2.17 -.56)" fill="#57708b"/><path d="M2.19 15.17h.25c.02 0 .12.02.05-.07a.04.04 0 0 1 0-.02c.04-.03.03-.06.01-.1l.04-.01c0 .4-.03.81-.02 1.22a29.51 29.51 0 0 0 .13 1.76l.14.85.1.54c.02.15.01.17-.13.22-.05.02-.11.01-.14.06a7.95 7.95 0 0 1-.18-.8c-.08-.4-.13-.81-.18-1.22a8.73 8.73 0 0 1-.06-.89.4.4 0 0 0-.01-.18v-.85c0-.06.01-.08.07-.07a1.57 1.57 0 0 0 .17 0c.03 0 .07 0 .07-.03s-.04-.04-.07-.04h-.19c-.06 0-.05-.02-.05-.06s0-.07.05-.07h.18a.1.1 0 0 0 .1-.05 2.33 2.33 0 0 0-.34-.01v-.08h.26c.03 0 .07 0 .07-.04s-.04-.03-.07-.03H2.2z" transform="translate(-2.17 -.56)" fill="#1f4063"/><path class="cls-20" d="M14.31 17.29a2.4 2.4 0 0 1-.13-.27 3.47 3.47 0 0 1-.2-.97v-.08a3.62 3.62 0 0 1 .06-.89 3.29 3.29 0 0 1 .3-.8.26.26 0 0 0 .03-.04 3.34 3.34 0 0 1 .65-.79 2.83 2.83 0 0 1 1.27-.68l.46-.07a4.63 4.63 0 0 1 .74.03 4.15 4.15 0 0 1 .56.13l.1.04a2.96 2.96 0 0 1 .64.36.21.21 0 0 0 .03.03 2.49 2.49 0 0 1 .48.48.3.3 0 0 1 .08.13v.01l-.09-.08a1.5 1.5 0 0 0-.31-.31 2.38 2.38 0 0 0-.76-.44.16.16 0 0 0-.07-.04A3.22 3.22 0 0 0 17 12.9a2.6 2.6 0 0 0-1.1.24 3.07 3.07 0 0 0-1.8 2.51 3.19 3.19 0 0 0 .2 1.6s.03.03 0 .05z" transform="translate(-2.17 -.56)"/><path class="cls-21" d="M22.23 9.73c-.07-.02-.1-.08-.16-.12a.63.63 0 0 0-.14-.1.35.35 0 0 0-.04-.04 4.97 4.97 0 0 0-.71-.45 7.77 7.77 0 0 0-1.12-.49 7.38 7.38 0 0 0-1.19-.3 9.32 9.32 0 0 0-1.04-.1 8.26 8.26 0 0 0-.86.02 9.14 9.14 0 0 0-1.06.13 6.9 6.9 0 0 0-1.69.56 7.38 7.38 0 0 0-1.1.65 8.1 8.1 0 0 0-.87.72q-.32.3-.6.63a9.04 9.04 0 0 0-.58.73 7.78 7.78 0 0 0-.7 1.24 7.61 7.61 0 0 0-.41 1.17 7.8 7.8 0 0 0-.21 1.16l-.06.87a7.63 7.63 0 0 0 .03.8c.01.24.04.49.08.73a7.5 7.5 0 0 0 .95 2.68 7.91 7.91 0 0 0 .6.88c.02.03.06.05.03.1a6.52 6.52 0 0 1-.59-.76.35.35 0 0 0-.08-.2 7.56 7.56 0 0 1-1-2.92 8.4 8.4 0 0 1-.07-.81 8.53 8.53 0 0 1 .03-1.06l.08-.73a6.91 6.91 0 0 1 .27-1.14 7.68 7.68 0 0 1 .54-1.27c.1-.17.19-.34.3-.5a8.96 8.96 0 0 1 1.7-1.96 8.16 8.16 0 0 1 .9-.66 7.3 7.3 0 0 1 1.39-.68 7.62 7.62 0 0 1 1.41-.35 8.82 8.82 0 0 1 1.08-.09 8.72 8.72 0 0 1 .97.05c.24.02.48.05.72.1a3.29 3.29 0 0 0 .4.06.33.33 0 0 1 .08.01l.5.16a1.2 1.2 0 0 0 .28.09l.06.02a6.76 6.76 0 0 1 1.4.78 3.78 3.78 0 0 1 .48.39z" transform="translate(-2.17 -.56)"/><path d="M12.57 11.3l.24.24-.32.36a5.38 5.38 0 0 0-.64.9 6.6 6.6 0 0 0-.55 1.24l-.07.27a.2.2 0 0 0-.06.1c-.02.12-.1.13-.2.12-.05 0-.1 0-.14.05a5.55 5.55 0 0 1 .3-1.1 6.25 6.25 0 0 1 1.3-2.03 1.11 1.11 0 0 1 .14-.15z" transform="translate(-2.17 -.56)" fill="#5295bb"/><path d="M19.43 8.28a3.29 3.29 0 0 1-.4-.07c-.25-.04-.49-.08-.73-.1a8.72 8.72 0 0 0-.97-.04 8.82 8.82 0 0 0-1.07.08 7.62 7.62 0 0 0-1.41.36 7.31 7.31 0 0 0-1.4.68 8.16 8.16 0 0 0-.9.65 8.94 8.94 0 0 0-.8.8 8.8 8.8 0 0 0-.9 1.17l-.3.5a7.68 7.68 0 0 0-.53 1.27 6.91 6.91 0 0 0-.27 1.14c-.04.25-.06.49-.08.73a8.59 8.59 0 0 0-.03 1.05c.01.27.04.54.08.8a7.56 7.56 0 0 0 .98 2.94.35.35 0 0 1 .09.2 5.76 5.76 0 0 1-.4-.63s-.02-.02-.01-.04a.17.17 0 0 0-.03-.07l-.23-.5a.9.9 0 0 0-.1-.22l-.06-.16c.03-.03 0-.05 0-.08l-.1-.34a10.09 10.09 0 0 1-.22-1.28 13.6 13.6 0 0 1-.07-1l.02-.18.01-.45.07-.63a7.7 7.7 0 0 1 1.2-3.21q.27-.4.58-.77a7.81 7.81 0 0 1 1.02-1.03 8.48 8.48 0 0 1 .76-.59 7.64 7.64 0 0 1 1.5-.77 9.14 9.14 0 0 1 1.6-.43 2.86 2.86 0 0 1 .51-.04 9.8 9.8 0 0 1 2.14.14 2.33 2.33 0 0 1 .45.12z" transform="translate(-2.17 -.56)" fill="#a6a6a6"/><path class="cls-14" d="M16.75 12.7c-.15.02-.3.03-.46.07a2.83 2.83 0 0 0-1.27.68 3.34 3.34 0 0 0-.65.79.26.26 0 0 1-.03.03c-.05-.01-.07.05-.11.05a.17.17 0 0 1-.17-.16l.01-.07a3.72 3.72 0 0 1 .82-.98 3.11 3.11 0 0 1 1.53-.7l.21-.04c.05 0 .07.02.07.07v.2c0 .03 0 .05.05.05z" transform="translate(-2.17 -.56)"/><path class="cls-15" d="M19.3 13.82l.07.09.13.17v.02a2.8 2.8 0 0 1-.38-.33 2.67 2.67 0 0 0-1.15-.57 2.9 2.9 0 0 0-.67-.07 2.79 2.79 0 0 0-1.56.45 3.17 3.17 0 0 0-.97 1.03 2.91 2.91 0 0 0-.37 1.08 3.13 3.13 0 0 0 .05 1.16 2.97 2.97 0 0 0 .64 1.26 4.26 4.26 0 0 0 .35.35c.03.02.06.03.06.07a2.8 2.8 0 0 1-.67-.54c.04-.05-.01-.07-.03-.1a2.96 2.96 0 0 1-.53-1.51 3.27 3.27 0 0 1 .04-.85 3.03 3.03 0 0 1 .38-1 3.26 3.26 0 0 1 .86-.96 2.97 2.97 0 0 1 2.36-.5 2.32 2.32 0 0 1 1.3.67.21.21 0 0 0 .08.08z" transform="translate(-2.17 -.56)"/><path d="M16.41 7.83c-.04 0-.05-.02-.05-.05V7.6c0-.04 0-.09-.05-.1a.72.72 0 0 1 .21-.03 9.84 9.84 0 0 1 1.43.01 8.15 8.15 0 0 1 1.39.23c.01.03.04.05.04.09a.17.17 0 0 1-.2.15h-.01c-.05 0-.07 0-.07.05a9.03 9.03 0 0 0-2.05-.2c-.21-.01-.43 0-.64.02z" transform="translate(-2.17 -.56)" fill="#a2a2a2"/><path d="M10.83 14.58c.03-.05.09-.05.14-.05.1.01.18 0 .2-.12a.2.2 0 0 1 .06-.1 49 49 0 0 0-.13.88 6.7 6.7 0 0 0-.03.88 6.92 6.92 0 0 0 .06.72 1.78 1.78 0 0 1 0 .23c0 .04-.03.04-.05.04h-.18v.02h.2v.03h-.27a4 4 0 0 1-.09-.64l-.03-.42a7.49 7.49 0 0 1 .1-1.38.6.6 0 0 1 .02-.1z" transform="translate(-2.17 -.56)" fill="#3784b0"/><path d="M10.18 19.41a.28.28 0 0 0-.16.06c-.17.08-.15.08-.22-.08a7.72 7.72 0 0 1-.43-1.19 8.96 8.96 0 0 1-.22-1.03 1.83 1.83 0 0 1-.04-.34.38.38 0 0 1 .03.17c0 .04.02.06.06.06h.28a8.41 8.41 0 0 0 .2 1.04 6.78 6.78 0 0 0 .33.93c.04.13.11.26.17.38z" transform="translate(-2.17 -.56)" fill="#e0e0e0"/><path class="cls-10" d="M12.94 22.58c.03-.03 0-.04-.02-.06-.21-.17-.42-.34-.62-.53a8.41 8.41 0 0 1-1.35-1.63 7.33 7.33 0 0 1-.7-1.46 7.96 7.96 0 0 1-.33-1.25 7.82 7.82 0 0 1-.12-1.41 7.34 7.34 0 0 1 .02-.79 8.3 8.3 0 0 1 .23-1.4.48.48 0 0 1 0-.06c.04 0 .05.05.09.03-.05.21-.1.42-.13.63-.04.18-.06.37-.08.56a9.26 9.26 0 0 0-.05 1.32 6.8 6.8 0 0 0 .06.73 7.6 7.6 0 0 0 .25 1.2 7.14 7.14 0 0 0 .3.86 7.44 7.44 0 0 0 .74 1.32 7.74 7.74 0 0 0 .53.67 7.6 7.6 0 0 0 .53.57A7.7 7.7 0 0 0 13.75 23l.39.22a.19.19 0 0 1 .07.07 5.4 5.4 0 0 1-.6-.29 5.35 5.35 0 0 1-.67-.42z" transform="translate(-2.17 -.56)"/><path d="M9.47 17.06H9.2c-.04 0-.07-.01-.06-.06a.38.38 0 0 0-.03-.17 8.58 8.58 0 0 1-.05-1.5 7.69 7.69 0 0 1 .08-.84l.01-.02c.02.03.05.03.08.03h.18c.03 0 .06 0 .06.05v.03h-.3v.03h.24c.04 0 .06.01.06.05v.06a.47.47 0 0 0-.3 0c.07.04.15.02.22.02.05 0 .07.01.07.07v.06a.79.79 0 0 0-.29 0 .45.45 0 0 0 .2.02c.05 0 .08.01.08.07l-.02.25c-.02.32-.02.64-.01.96a8.18 8.18 0 0 0 .05.89z" transform="translate(-2.17 -.56)" fill="#c5c5c5"/><path class="cls-28" d="M9.48 14.55c0-.04-.03-.05-.07-.05h-.18c-.03 0-.06 0-.07-.03a8.46 8.46 0 0 1 .49-1.85 3.63 3.63 0 0 1 .25-.54.22.22 0 0 1-.03.15.07.07 0 0 0 0 .1.07.07 0 0 0 .04.01l.09.04a.06.06 0 0 0 .08-.03c.02-.08.1-.12.12-.2 0 0 .01-.03.03 0l-.13.29a7.34 7.34 0 0 0-.5 1.53l-.12.58z" transform="translate(-2.17 -.56)"/><path class="cls-29" d="M10.23 12.15c-.02-.02-.03 0-.03.01-.02.08-.1.12-.12.2-.01.04-.04.04-.08.03l-.1-.04a.07.07 0 0 1-.05-.1.09.09 0 0 1 .02-.02.22.22 0 0 0 .03-.15 5.66 5.66 0 0 1 .35-.64 9.07 9.07 0 0 1 .82-1.13 1 1 0 0 1 .06-.05c.01.08.09.12.14.18a.06.06 0 0 0 .08 0 .1.1 0 0 0 .03-.08.3.3 0 0 0-.02-.09c.05.05.11 0 .14.07l-.16.18q-.3.35-.56.73a9.96 9.96 0 0 0-.55.9zm1-1.64a.47.47 0 0 0-.13-.15.03.03 0 0 0-.04.01.04.04 0 0 0 0 .05.43.43 0 0 0 .13.12c.02.02.05.01.05-.03zm-.1.13a.67.67 0 0 0-.1-.14c-.02 0-.03-.02-.04 0a.03.03 0 0 0 0 .03.34.34 0 0 0 .15.12z" transform="translate(-2.17 -.56)"/><path d="M19.3 13.82a.21.21 0 0 1-.1-.07 2.32 2.32 0 0 0-1.29-.67 2.97 2.97 0 0 0-2.36.5 3.26 3.26 0 0 0-.86.94 3.03 3.03 0 0 0-.38 1.01 3.27 3.27 0 0 0-.04.85 2.96 2.96 0 0 0 .53 1.52c.01.02.06.05.02.1a2.56 2.56 0 0 1-.35-.44c.03-.02.01-.04 0-.06a3.09 3.09 0 0 1-.28-1.1 3.84 3.84 0 0 1 .02-.8 3.12 3.12 0 0 1 .4-1.12 3.38 3.38 0 0 1 .66-.79 2.9 2.9 0 0 1 .97-.59 3.4 3.4 0 0 1 1.08-.18 3.1 3.1 0 0 1 .5.05c.14.02.26.08.4.1a2.38 2.38 0 0 1 .76.44 1.5 1.5 0 0 1 .31.31z" transform="translate(-2.17 -.56)" fill="#adadad"/><path class="cls-31" d="M22.18 9.14a2.52 2.52 0 0 1 .38.32 8.03 8.03 0 0 1 .88.98.08.08 0 0 0 .07.04c-.04.16-.05.32-.08.48-.03 0-.04-.04-.06-.06a5.55 5.55 0 0 0-.37-.47l-.26-.3a8.13 8.13 0 0 0-.77-.73c.03-.07.08-.1.13-.15s.07-.06.08-.1z" transform="translate(-2.17 -.56)"/><path d="M11.38 21.19c.03-.05-.01-.07-.03-.1a7.91 7.91 0 0 1-.6-.88 7.5 7.5 0 0 1-.95-2.68 8.56 8.56 0 0 1-.08-.73 7.63 7.63 0 0 1-.03-.8c.01-.29.03-.58.06-.86a7.8 7.8 0 0 1 .2-1.17 7.55 7.55 0 0 1 .42-1.16 7.78 7.78 0 0 1 .7-1.25 9.04 9.04 0 0 1 .57-.72q.29-.33.6-.64a8.1 8.1 0 0 1 .87-.71 7.38 7.38 0 0 1 1.11-.66 6.9 6.9 0 0 1 1.7-.56 9.02 9.02 0 0 1 1.05-.13 8.26 8.26 0 0 1 .86 0 9.32 9.32 0 0 1 1.05.1 7.32 7.32 0 0 1 1.18.28 7.77 7.77 0 0 1 1.12.5 4.97 4.97 0 0 1 .71.44.35.35 0 0 1 .04.04 1.74 1.74 0 0 1-.27-.17 6.96 6.96 0 0 0-1.96-.89 7.85 7.85 0 0 0-1.06-.21l-.67-.06c-.28-.02-.55-.01-.83 0a7.32 7.32 0 0 0-.82.07 6.9 6.9 0 0 0-1.4.34 7.3 7.3 0 0 0-1.22.57 8.69 8.69 0 0 0-1.05.74c-.1.07-.18.15-.27.23a10.64 10.64 0 0 0-1.1 1.2 8.31 8.31 0 0 0-.63 1 7.63 7.63 0 0 0-.57 1.34 7.19 7.19 0 0 0-.26 1.18l-.09.81a8.03 8.03 0 0 0 0 .8 8.59 8.59 0 0 0 .08 1 8.19 8.19 0 0 0 .34 1.4 7.51 7.51 0 0 0 .78 1.6 8.22 8.22 0 0 0 .72.96.4.4 0 0 1 .12.17 4.19 4.19 0 0 1-.39-.4z" transform="translate(-2.17 -.56)" fill="#bcbcbc"/><path class="cls-33" d="M18.22 13.07c-.14-.02-.26-.08-.4-.1a3.1 3.1 0 0 0-.5-.05 3.4 3.4 0 0 0-1.08.19 2.9 2.9 0 0 0-.97.58 3.42 3.42 0 0 0-.65.79 3.12 3.12 0 0 0-.4 1.12 3.82 3.82 0 0 0-.03.8 3.09 3.09 0 0 0 .29 1.1c0 .02.02.04 0 .06a1.16 1.16 0 0 1-.17-.27c.03-.02 0-.04 0-.05a3.19 3.19 0 0 1-.2-1.6 3.07 3.07 0 0 1 1.8-2.5 2.6 2.6 0 0 1 1.1-.25 3.22 3.22 0 0 1 1.14.15.16.16 0 0 1 .07.03z" transform="translate(-2.17 -.56)"/><path d="M16.15 9.81a.65.65 0 0 1 .2-.03.18.18 0 0 0 .19-.17.38.38 0 0 0 0-.04c-.02-.08 0-.14.1-.14a5.94 5.94 0 0 1 1.2.04h.07l.54.11a.3.3 0 0 1 .04.01.2.2 0 0 0-.1.22c0 .06-.05.07-.1.08-.15-.01-.29-.06-.43-.07-.13-.01-.25-.04-.37-.04a6.34 6.34 0 0 0-1.23.02.93.93 0 0 1-.1.01z" transform="translate(-2.17 -.56)" fill="#4a6581"/><path class="cls-35" d="M20.66 8.18a3.99 3.99 0 0 1 .54.27 6.74 6.74 0 0 1 .82.56l.08.07c0 .03-.02.05-.04.06a1.22 1.22 0 0 0-.17.2L21.45 9a7.85 7.85 0 0 0-.85-.5 1.17 1.17 0 0 0 .1-.15c.04-.07.04-.13-.04-.18z" transform="translate(-2.17 -.56)"/><path d="M20.66 8.18c.08.05.08.1.04.18a1.17 1.17 0 0 1-.1.16l-.06-.03a6.8 6.8 0 0 0-.77-.3 9.44 9.44 0 0 0-.67-.2c0-.03.02-.05.07-.04a.17.17 0 0 0 .2-.14c.01-.05-.02-.07-.04-.1a5.85 5.85 0 0 1 .75.22 4.63 4.63 0 0 1 .58.25z" transform="translate(-2.17 -.56)" fill="#b2b2b2"/><path d="M16.75 12.7c-.05 0-.06-.03-.06-.07v-.19c0-.06 0-.07-.06-.07a2.36 2.36 0 0 1 .44-.03 3.95 3.95 0 0 1 .97.16l.14.05a1.06 1.06 0 0 1-.13.3 4.15 4.15 0 0 0-.56-.13 4.61 4.61 0 0 0-.74-.03z" transform="translate(-2.17 -.56)" fill="#a3a3a3"/><path d="M13.97 16.05a3.47 3.47 0 0 0 .21.96c-.1.03-.18.1-.29.12-.01-.03.01-.04.02-.06v-.01c-.06 0-.08-.02-.1-.06a4.92 4.92 0 0 1-.18-.9v-.47-.08c.02.05.06.04.08.04h.24v.03h-.26c-.02 0-.04 0-.04.02s.02.03.04.03a1.7 1.7 0 0 0 .17 0c.08-.01.1.01.1.1a.9.9 0 0 0 .01.28z" transform="translate(-2.17 -.56)" fill="#d0d0d0"/><path d="M13.97 16.05a.91.91 0 0 1-.01-.29c0-.08-.02-.1-.1-.1a1.7 1.7 0 0 1-.18 0c-.01 0-.04 0-.04-.02s.03-.03.05-.03h.26v-.02h-.24c-.03 0-.07.01-.08-.04a3.52 3.52 0 0 1 .4-1.42.1.1 0 0 1 .04-.05l-.02.07a.17.17 0 0 0 .16.17h.01c.05 0 .07-.06.12-.04a3.29 3.29 0 0 0-.3.8 3.62 3.62 0 0 0-.07.88v.1z" transform="translate(-2.17 -.56)" fill="#b5b5b5"/><path class="cls-15" d="M18.05 12.85a1.06 1.06 0 0 0 .13-.3 1.84 1.84 0 0 1 .46.2A2.07 2.07 0 0 1 19 13a.1.1 0 0 1-.02.05c-.05.08-.14.13-.19.2a2.96 2.96 0 0 0-.64-.35z" transform="translate(-2.17 -.56)"/><path d="M18.8 13.25c.04-.08.13-.12.18-.2A.1.1 0 0 0 19 13a2.24 2.24 0 0 1 .43.4c.03.03.04.05.08.05a1.1 1.1 0 0 0-.05.25c-.01.07 0 .15-.05.22l-.03-.02a.3.3 0 0 0-.08-.13 2.49 2.49 0 0 0-.48-.48.22.22 0 0 1-.03-.04zm.22-.15a.26.26 0 0 0-.12.13.27.27 0 0 0 .12-.13z" transform="translate(-2.17 -.56)" fill="#d8d8d8"/><path class="cls-14" d="M23.43 10.96c.03-.16.04-.32.08-.48a2.04 2.04 0 0 0 .28-.2h.01c.05.1.14.17.2.27l-.55.4z" transform="translate(-2.17 -.56)"/><path d="M19.41 13.91c.05-.07.04-.15.05-.22a1.1 1.1 0 0 1 .05-.24l.15-.1a.04.04 0 0 1 .01 0l.2.25a.07.07 0 0 1-.02.03l-.4.28a.02.02 0 0 1-.03 0z" transform="translate(-2.17 -.56)" fill="#929292"/><path class="cls-16" d="M2.18 15.35a2.33 2.33 0 0 1 .34 0 .1.1 0 0 1-.1.06h-.18c-.06 0-.05.03-.05.07s0 .06.05.06h.19c.03 0 .07 0 .07.04s-.04.02-.07.03a1.57 1.57 0 0 1-.17 0c-.05 0-.07.01-.07.07v.62a.8.8 0 0 1-.02-.23v-.65a.5.5 0 0 1 .01-.07z" transform="translate(-2.17 -.56)"/><path d="M10.18 19.41c-.06-.13-.13-.25-.17-.38.02-.01.01-.03.01-.05a.9.9 0 0 1 .1.22l.23.5a.17.17 0 0 1 .03.07 3.5 3.5 0 0 1-.2-.36z" transform="translate(-2.17 -.56)" fill="#606060"/><path class="cls-35" d="M22.18 9.14c0 .05-.05.07-.08.1s-.1.1-.13.16l-.04-.04.05-.07a.36.36 0 0 1 .19-.17z" transform="translate(-2.17 -.56)"/><path class="cls-16" d="M2.19 15.2h.25c.03 0 .07 0 .07.03s-.04.03-.07.03h-.26z" transform="translate(-2.17 -.56)"/><path class="cls-31" d="M22.17 9.12a.36.36 0 0 0-.19.17l-.05.07-.04-.03a1.22 1.22 0 0 1 .17-.19c.02-.01.04-.03.04-.06a.17.17 0 0 1 .07.04z" transform="translate(-2.17 -.56)"/><path class="cls-13" d="M3.2 10.16l.02.04c0 .02.02.04 0 .05s-.03 0-.05-.01a.17.17 0 0 1 .04-.08z" transform="translate(-2.17 -.56)"/><path class="cls-16" d="M2.19 16.53a.4.4 0 0 1 .01.18h-.01z" transform="translate(-2.17 -.56)"/><path d="M10.14 14.02c-.05.02-.06-.02-.08-.03a7.45 7.45 0 0 1 1.05-2.3 7.55 7.55 0 0 1 .68-.87c.13-.14.25-.29.39-.42a8.38 8.38 0 0 1 1.52-1.18 7.38 7.38 0 0 1 1.24-.58 7.28 7.28 0 0 1 1.33-.33 8.68 8.68 0 0 1 1.5-.08 8.17 8.17 0 0 1 1 .09 7.32 7.32 0 0 1 1.4.34 7 7 0 0 1 1.13.53 6.02 6.02 0 0 1 .84.58 7.4 7.4 0 0 1 .8.75c.17.19.32.39.5.57a.17.17 0 0 0 .05.02c-.01.04.01.05.04.06a.56.56 0 0 0 .61-.07c.24-.16.46-.34.7-.52l1.57-1.23 1.24-.96 1.4-1.08a.79.79 0 0 0 .27-.3.5.5 0 0 0-.09-.5 5.36 5.36 0 0 0-.5-.62 14.87 14.87 0 0 0-1.78-1.72 1.16 1.16 0 0 0-.32-.21l-.44-.34-.04-.04q-.58-.43-1.2-.81l-1.04-.59a1.45 1.45 0 0 1 .36.16l.56.3.75.45q.57.36 1.1.78c.23.17.45.35.67.54l.35.32.53.5.82.9a3.86 3.86 0 0 1 .3.4.53.53 0 0 1-.08.7 6.92 6.92 0 0 1-.62.5 95.5 95.5 0 0 1-1.94 1.5l-1.02.8c-.5.39-1 .79-1.52 1.16a.85.85 0 0 1-.24.13l-.2.01a.46.46 0 0 1-.32-.15 3.7 3.7 0 0 1-.33-.37l-.18-.2-.29-.32c-.04-.04-.07-.1-.14-.12a8.53 8.53 0 0 0-.71-.58 6.71 6.71 0 0 0-1.07-.62 7.16 7.16 0 0 0-1.09-.39 8.36 8.36 0 0 0-.85-.17l-.37-.05c-.05-.03-.11-.01-.16-.02h-.02c-.07-.03-.14 0-.2-.01h-.02c-.02-.02-.04-.02-.06-.02h-.8a.08.08 0 0 0-.06.02.92.92 0 0 0-.25.01c-.05 0-.11-.01-.16.02l-.45.06a6.7 6.7 0 0 0-.85.19 6.62 6.62 0 0 0-1.23.49 6.92 6.92 0 0 0-1.21.78 7.37 7.37 0 0 0-.58.5.83.83 0 0 0-.05.06.48.48 0 0 0-.2.19 3.34 3.34 0 0 0-.38.41 7.9 7.9 0 0 0-.66.9 7.23 7.23 0 0 0-.7 1.4l-.2.61a.31.31 0 0 1 0 .07z" transform="translate(-2.17 -.56)" fill="#d9d9d8"/><path d="M23.9 2.18c.35.2.7.38 1.04.59q.62.38 1.21.81l.04.03c-.08.03-.1.1-.16.15-.08.08-.1.09-.16 0a.09.09 0 0 0-.04-.04c-.37-.18-.7-.44-1.05-.65l-.8-.46a14.44 14.44 0 0 0-1.58-.73 15.11 15.11 0 0 0-1.5-.5c-.48-.13-.96-.22-1.44-.3-.03 0-.07 0-.09-.02a.37.37 0 0 1 .22.01c.05.02.1-.02.1-.08V.77h.01a.82.82 0 0 1 .01.24c0 .02 0 .06.03.06s.02-.04.02-.06a.69.69 0 0 1 .02-.22l.05.01a.46.46 0 0 0 0 .26.25.25 0 0 0 .01-.1.33.33 0 0 1 .01-.08c.02-.04.05-.04.07-.06a13.02 13.02 0 0 1 1.55.37 14.85 14.85 0 0 1 2.4.97.32.32 0 0 0 .04.02z" transform="translate(-2.17 -.56)" fill="#fcc838"/><path d="M24 10.56c-.05-.1-.14-.18-.2-.28l.8-.61 1.54-1.2 1.4-1.09c.35-.27.7-.53 1.03-.8a.32.32 0 0 1 .28-.05l.28.04v.02l-.4.3-1.56 1.21-1.34 1.04z" transform="translate(-2.17 -.56)" fill="#926c00"/><path class="cls-46" d="M29.12 6.6v-.02a2.42 2.42 0 0 0-.27-.38 14.74 14.74 0 0 0-1.33-1.45c-.27-.26-.56-.52-.86-.76a.36.36 0 0 1-.03-.03 1.16 1.16 0 0 1 .32.22c.33.26.64.55.94.83s.57.58.84.88a5.36 5.36 0 0 1 .5.62.5.5 0 0 1 .09.5.79.79 0 0 1-.27.3l-1.4 1.09c-.4.32-.82.63-1.24.95l-1.58 1.23-.7.52a.56.56 0 0 1-.6.07c-.03-.02-.05-.03-.04-.06.03.05.06.05.1.02l.08-.06c.05-.02.1.01.15 0a.73.73 0 0 0 .3-.13l.83-.64 1.37-1.07 1.26-.97 1.18-.9a2.2 2.2 0 0 0 .34-.3c.07-.09.07-.2.15-.28 0-.01 0-.03-.02-.03z" transform="translate(-2.17 -.56)"/><path d="M28.68 25.12l.34-.04c.02 0 .05-.01.08.01v.02l-.02.03-.58.7-.7.78-.6.58-.58.5a15.84 15.84 0 0 1-1.4 1.01 15.08 15.08 0 0 1-1.63.92 14.14 14.14 0 0 1-1.91.76 16.53 16.53 0 0 1-2.28.53 15.46 15.46 0 0 1-1.95.15h-.95a15.23 15.23 0 0 1-2.63-.34 5.22 5.22 0 0 1-.68-.17c.03 0 .07 0 .04-.06-.03-.07.02-.12.06-.17s.09-.03.13-.01a.5.5 0 0 0 .26.03 4.08 4.08 0 0 0 .54.11 11.13 11.13 0 0 0 1.76.23 15.42 15.42 0 0 0 1.58.04c.32 0 .64-.03.96-.05a15.28 15.28 0 0 0 1.62-.23 12.05 12.05 0 0 0 1.23-.32 13.97 13.97 0 0 0 1.55-.57 14.47 14.47 0 0 0 1.77-.92q.54-.33 1.06-.7c.32-.24.63-.49.93-.75a15.2 15.2 0 0 0 1.13-1.08 11.76 11.76 0 0 0 .78-.92.34.34 0 0 1 .1-.07z" transform="translate(-2.17 -.56)" fill="#0f4462"/><path class="cls-48" d="M13.69 30.36a.5.5 0 0 1-.26-.04c-.05-.02-.1-.03-.13 0s-.1.1-.06.19c.03.05-.01.05-.05.05a.58.58 0 0 1-.17-.04 13.14 13.14 0 0 1-2.18-.82 13.72 13.72 0 0 1-1.99-1.16c-.18-.13-.37-.26-.54-.4.05-.02.06-.07.07-.12.03-.1.1-.12.18-.06a.68.68 0 0 0 .28.16l.51.35a12.56 12.56 0 0 0 1.12.66 13.64 13.64 0 0 0 1.8.8 14.18 14.18 0 0 0 1.38.42.05.05 0 0 1 .04 0z" transform="translate(-2.17 -.56)"/><path d="M8.84 28.11a.68.68 0 0 1-.28-.16c-.08-.05-.15-.03-.18.07 0 .04-.02.1-.07.11a14.32 14.32 0 0 1-1.06-.89c-.22-.2-.45-.42-.67-.65a3.24 3.24 0 0 1 .25-.24 5.4 5.4 0 0 0 .4.4l.28.27a14.57 14.57 0 0 0 1.33 1.1zm-.6-.1h.01l.14-.14a.03.03 0 0 0 0-.04.03.03 0 0 0-.04 0 .63.63 0 0 0-.12.16.02.02 0 0 0 0 .02h.01z" transform="translate(-2.17 -.56)" fill="#15618a"/><path d="M6.58 26.6c.21.23.44.44.67.65q.27.25.56.49c.16.13.32.27.5.4a6.58 6.58 0 0 0 .54.4 13.72 13.72 0 0 0 1.99 1.16 13.14 13.14 0 0 0 2.17.82.58.58 0 0 0 .18.04 5.22 5.22 0 0 0 .68.18 12.33 12.33 0 0 0 1.63.26c.33.04.67.06 1 .07.32.02.63 0 .95 0l.66-.01a15.92 15.92 0 0 0 3.57-.66 14.14 14.14 0 0 0 1.92-.77 15.08 15.08 0 0 0 1.62-.91 15.84 15.84 0 0 0 1.4-1.02c.2-.16.39-.32.57-.5s.41-.37.6-.57c.24-.26.49-.52.72-.79l.57-.7a.15.15 0 0 0 .1.07c0 .03.05.04.05.07a.51.51 0 0 0-.1.13l-.04.04a14.36 14.36 0 0 1-1.8 1.97 15.06 15.06 0 0 1-5.64 3.21 14.55 14.55 0 0 1-3.8.64 15.51 15.51 0 0 1-2.72-.14 14.2 14.2 0 0 1-2.13-.46l-.62-.19-.03-.02a13.95 13.95 0 0 1-1.75-.75c-.16-.08-.3-.17-.46-.24a.22.22 0 0 0-.11-.06.9.9 0 0 0-.24-.14l-.2-.14a15.45 15.45 0 0 1-2.2-1.68 3.24 3.24 0 0 0-.3-.27L7 27.1a17.31 17.31 0 0 1-1.57-1.74 6.23 6.23 0 0 1-.4-.56 1.97 1.97 0 0 1 .23.29l.6.74c.2.24.45.48.67.72a.46.46 0 0 0 .05.06z" transform="translate(-2.17 -.56)" fill="#2b2c2c"/><path class="cls-51" d="M5.01 24.79a6.23 6.23 0 0 0 .41.56A17.38 17.38 0 0 0 7 27.09l.1.09a.38.38 0 0 0 .01.03c.17.18.35.34.54.5l.73.61a12.02 12.02 0 0 0 1.13.83 13.72 13.72 0 0 0 1.7.95q.62.3 1.26.52a13.97 13.97 0 0 0 1.43.42c.42.1.84.18 1.27.24q.49.07.98.1c.3.03.62.05.93.06a14.2 14.2 0 0 0 1.53-.04l.6-.05c.37-.04.73-.1 1.08-.17a14.51 14.51 0 0 0 1.72-.44 15.04 15.04 0 0 0 1.56-.6 15.38 15.38 0 0 0 1.49-.77 13.07 13.07 0 0 0 2.02-1.44c.25-.21.49-.43.72-.65a11.89 11.89 0 0 0 .86-.9l.5-.6a.56.56 0 0 0 .09-.54.06.06 0 0 0-.07-.04l-.08-.1v-.02l.02-.02a.48.48 0 0 1 .2.47 1.07 1.07 0 0 1-.24.41l-.53.63-.5.52a13.98 13.98 0 0 1-1.38 1.22 14.48 14.48 0 0 1-1.7 1.15c-.31.18-.62.35-.94.5a15.3 15.3 0 0 1-1.68.7 13.81 13.81 0 0 1-3.54.75 18.37 18.37 0 0 1-2.38.03l-1.06-.1a14.2 14.2 0 0 1-2.36-.5 13.24 13.24 0 0 1-1.5-.56 14.4 14.4 0 0 1-.76-.36 15 15 0 0 1-2.56-1.69l-.64-.55-.94-.91-.16-.18c-.01-.01-.03-.04-.06-.02-.13-.15-.25-.3-.38-.43-.19-.21-.36-.43-.54-.65q-.37-.49-.7-1c-.17-.25-.32-.5-.47-.77a.12.12 0 0 1-.02-.07l.45.7a4.1 4.1 0 0 0 .3.44z" transform="translate(-2.17 -.56)"/><path d="M17.38 21.88a7.58 7.58 0 0 0 .9-.13 5.72 5.72 0 0 0 1.18-.4 5.88 5.88 0 0 0 2.05-1.55c.01-.02.02-.04.05-.04l.45-.05-.03.06-.06.06a6.26 6.26 0 0 1-4.97 2.4.5.5 0 0 1-.2-.02c.05.01.07-.02.07-.07v-.23a1.2 1.2 0 0 1 .01.25c0 .02 0 .05.03.05s.06 0 .08-.02a.18.18 0 0 0 .02-.11c0-.19 0-.18.18-.19a.6.6 0 0 0 .24-.02z" transform="translate(-2.17 -.56)" fill="#916b00"/><path d="M19.87 18.04a.24.24 0 0 1 .18.05c.31.2.6.45.9.67l.98.76a1.31 1.31 0 0 1 .26.25.53.53 0 0 1-.05.7 4.42 4.42 0 0 1-.46.5 6.44 6.44 0 0 1-2.45 1.44 6.18 6.18 0 0 1-1.08.24 5.96 5.96 0 0 1-.94.06 8.23 8.23 0 0 1-.88-.07 5.98 5.98 0 0 1-2.7-1.1 7.12 7.12 0 0 1-1.96-2.15 5.3 5.3 0 0 1-.32-.65.28.28 0 0 1-.03-.13l.34.64a2.23 2.23 0 0 0 .17.26 2.67 2.67 0 0 0 .24.35.28.28 0 0 0 .12.15.16.16 0 0 0 .1.1l.04.07a.08.08 0 0 0 .02.06l.32.37a7.95 7.95 0 0 0 .67.62 6.13 6.13 0 0 0 1.03.7 5.94 5.94 0 0 0 1.1.45 6.34 6.34 0 0 0 1.54.25 5.55 5.55 0 0 0 .71 0 7.32 7.32 0 0 0 .8-.1 5.95 5.95 0 0 0 1.38-.45 6.46 6.46 0 0 0 1.1-.63 7.07 7.07 0 0 0 .77-.66 3.75 3.75 0 0 0 .3-.34.5.5 0 0 0 .02-.7.5.5 0 0 0-.08-.06l-.83-.64-1.28-.99z" transform="translate(-2.17 -.56)" fill="#d2d2d1"/><path d="M17.38 21.88a.62.62 0 0 1-.25.01c-.18 0-.18 0-.18.19a.18.18 0 0 1-.02.1c-.02.03-.04.03-.07.03s-.04-.03-.04-.06a1.2 1.2 0 0 0-.01-.24v.23c0 .05-.01.08-.07.07a3.73 3.73 0 0 1-.48-.03 5.68 5.68 0 0 1-1.16-.24 5 5 0 0 1-1-.43l.08-.18c.02-.06.06-.07.12-.06a1.52 1.52 0 0 0 .18.06 5.31 5.31 0 0 0 1.59.49 7.7 7.7 0 0 0 1.17.06z" transform="translate(-2.17 -.56)" fill="#a87c00"/><path class="cls-51" d="M22 19.69a.5.5 0 0 1 .13.68.45.45 0 0 1-.06.08 3.75 3.75 0 0 1-.3.34 7.07 7.07 0 0 1-.78.66 6.46 6.46 0 0 1-1.1.63 5.95 5.95 0 0 1-1.37.44 7.32 7.32 0 0 1-.8.1 5.55 5.55 0 0 1-.72 0 6.34 6.34 0 0 1-1.54-.24 5.94 5.94 0 0 1-1.1-.45 6.13 6.13 0 0 1-1.03-.7 7.95 7.95 0 0 1-.66-.62l-.33-.37a.08.08 0 0 1-.01-.06l.03.02c0 .03.04.05.06.08a.16.16 0 0 0 .08.1l.45.44c.03.03.05.07.1.08a.25.25 0 0 0 .13.11l.08.07a.33.33 0 0 0 .16.12c.03.06.09.08.14.12a6.42 6.42 0 0 0 1.44.82 6.52 6.52 0 0 0 2.21.42 5.92 5.92 0 0 0 .92-.06 5.82 5.82 0 0 0 1.07-.24 6.28 6.28 0 0 0 2.4-1.42l.35-.36a.56.56 0 0 0 .17-.56c0-.09-.09-.1-.14-.15l.03-.05z" transform="translate(-2.17 -.56)"/><path d="M14.49 21.33c-.07 0-.12-.05-.19-.06s-.1 0-.11.06-.06.12-.09.18a4.28 4.28 0 0 1-.6-.37 6.08 6.08 0 0 1-.94-.8l.25-.24a2.74 2.74 0 0 0 .35.35 5.81 5.81 0 0 0 .67.51 5.03 5.03 0 0 0 .58.33.2.2 0 0 1 .08.04z" transform="translate(-2.17 -.56)" fill="#ce9800"/><path class="cls-20" d="M12.56 20.34a6.08 6.08 0 0 0 .94.8 4.28 4.28 0 0 0 .6.37 5 5 0 0 0 1 .42 5.68 5.68 0 0 0 1.16.25 3.73 3.73 0 0 0 .49.03.5.5 0 0 0 .2.01 6.26 6.26 0 0 0 4.97-2.4l.06-.06c.04.05.13.06.14.15-.04.02-.04.06-.07.08l-.02.03a5.76 5.76 0 0 1-.92.94 6.17 6.17 0 0 1-4.18 1.44 6.9 6.9 0 0 1-1.31-.17c-.21-.05-.41-.12-.62-.18l-.08-.03a5.55 5.55 0 0 1-1.02-.51l-.48-.32a.5.5 0 0 0-.16-.12l-.08-.07a.33.33 0 0 0-.13-.11l-.07-.08c-.11-.14-.25-.26-.38-.4-.03-.02-.05-.07-.1-.08l-.04-.05a.12.12 0 0 0-.1-.1l-.03-.02-.05-.06c0-.03-.03-.04-.04-.06l.02-.03a3.18 3.18 0 0 0 .3.33z" transform="translate(-2.17 -.56)"/><path class="cls-56" d="M12.26 20.02l-.01.03-.06-.05a.36.36 0 0 0-.12-.14 2.67 2.67 0 0 1-.24-.36c.05 0 .06.05.08.08z" transform="translate(-2.17 -.56)"/><path d="M19.87 13.6l-.2-.25q.18-.16.37-.3l1.06-.82.4-.3a.16.16 0 0 1 .12-.04 1.82 1.82 0 0 1 .4.07H22l-1.13.88-.71.55a1.65 1.65 0 0 1-.29.21z" transform="translate(-2.17 -.56)" fill="#051a31"/><path d="M19.5 14.1v-.02c.06.05.1-.01.14-.03a.29.29 0 0 1 .14-.03.33.33 0 0 0 .2-.05 4.43 4.43 0 0 0 .6-.42l1.12-.87a.86.86 0 0 0 .38-.46l.02-.02c.06-.09.06-.1-.03-.16l-.06-.08c.03-.02.01-.03 0-.05a5.68 5.68 0 0 0-.57-.65c-.13-.14-.28-.26-.42-.39a1.29 1.29 0 0 1 .34.23 3.84 3.84 0 0 1 .4.36 2.58 2.58 0 0 1 .4.46.48.48 0 0 1-.09.68.32.32 0 0 1-.05.03l-1.08.84-.78.6a.6.6 0 0 1-.42.13.45.45 0 0 1-.24-.1z" transform="translate(-2.17 -.56)" fill="#bdbdbd"/><path d="M21.01 10.87c.14.13.3.25.42.4a1.87 1.87 0 0 1-.2.2c-.01.01-.03.03-.05.01s0-.04 0-.05l.13-.14c.03-.02.05-.05.02-.08a.04.04 0 0 0-.05-.01l-.07.06c-.1.1-.17.1-.28 0a5.34 5.34 0 0 0-.88-.65l-.5-.27a.11.11 0 0 0 .1-.08c.02-.07.06-.13.1-.2a6.17 6.17 0 0 1 .96.58l.3.23z" transform="translate(-2.17 -.56)" fill="#29496a"/><path d="M19.75 10.06l-.1.2a.11.11 0 0 1-.1.08l-.7-.29-.52-.14a.19.19 0 0 1-.04-.02c.05 0 .1-.02.1-.07a.2.2 0 0 1 .1-.22 5.27 5.27 0 0 1 .96.32 2.34 2.34 0 0 1 .3.14z" transform="translate(-2.17 -.56)" fill="#3a5877"/><path class="cls-17" d="M19.78.79a.73.73 0 0 0 0 .23c0 .02 0 .05-.04.05s-.02-.03-.02-.05a.82.82 0 0 0-.02-.24.21.21 0 0 1 .08 0z" transform="translate(-2.17 -.56)"/><path class="cls-10" d="M17.06 8.32c.02-.02.04-.01.06-.01h.8a.08.08 0 0 1 .06.01z" transform="translate(-2.17 -.56)"/><path class="cls-17" d="M19.93.82c-.02.02-.06.02-.07.06a.33.33 0 0 0-.01.1.25.25 0 0 1-.01.08.46.46 0 0 1 0-.26c.02 0 .06 0 .09.02z" transform="translate(-2.17 -.56)"/><path class="cls-10" d="M12.09 10.63a.48.48 0 0 1 .19-.2 1.2 1.2 0 0 1-.2.2zM22.47 10.16c.07.02.1.08.15.13-.07-.02-.1-.08-.15-.13zM16.8 8.34a.92.92 0 0 1 .26-.02.85.85 0 0 1-.25.02zM23.74 11.33l.19-.02c-.07.02-.13.06-.2.02zM18 8.32c.06.01.13-.02.2.02-.07-.01-.14.02-.2-.02zM18.22 8.34c.05 0 .1-.02.16.02-.06-.01-.1.01-.16-.02z" transform="translate(-2.17 -.56)"/><path class="cls-10" d="M16.65 8.36c.05-.04.1-.01.16-.02-.05.03-.11 0-.16.02z" transform="translate(-2.17 -.56)"/><path class="cls-61" d="M21.9 9.33l.03.03.04.04a8.13 8.13 0 0 1 .77.74c.1.1.18.2.26.3-.03.02-.04-.03-.06-.02l-.04-.03c-.01-.09-.08-.13-.14-.18l-.09-.08a2.6 2.6 0 0 0-.3-.27.45.45 0 0 0-.14-.13 3.72 3.72 0 0 0-.5-.4 6.76 6.76 0 0 0-1.39-.78l-.06-.02-.07-.03a6.37 6.37 0 0 0-.79-.26 8.7 8.7 0 0 0-2.5-.24 7.9 7.9 0 0 0-1.35.17 7.03 7.03 0 0 0-2.38 1 8.52 8.52 0 0 0-1.66 1.46 8.21 8.21 0 0 0-1.12 1.58 7.86 7.86 0 0 0-.9 3.49 9.48 9.48 0 0 0 .04 1.26 7.99 7.99 0 0 0 .41 1.86l.06.16-.01.05a6.78 6.78 0 0 1-.32-.92 8.41 8.41 0 0 1-.22-1.05 11.37 11.37 0 0 1-.06-1.86l.02-.25a.12.12 0 0 0 .01-.08v-.07a.12.12 0 0 0 .01-.08v-.06a.12.12 0 0 0 .02-.09v-.03l.1-.57a7.34 7.34 0 0 1 .5-1.53l.14-.3a10.15 10.15 0 0 1 .55-.9q.26-.37.56-.73c.05-.06.11-.1.16-.17.19-.2.38-.4.58-.58a7.38 7.38 0 0 1 2.74-1.61 7.28 7.28 0 0 1 1.38-.3.65.65 0 0 0 .2-.03c.22 0 .43-.03.65-.03a9.03 9.03 0 0 1 2.04.2c.23.06.45.12.68.2a6.96 6.96 0 0 1 .76.3l.06.02a7.85 7.85 0 0 1 .85.5c.18.1.33.22.47.32z" transform="translate(-2.17 -.56)"/><path d="M23.67 11.07a1.3 1.3 0 0 0-.08.06c-.04.03-.07.03-.09-.02l-.07-.1.02-.05.55-.4 1.83-1.41 1.34-1.04 1.56-1.22.4-.3.1.15c.01.03-.02.05-.04.06l-.18.15-2.24 1.74-2.4 1.86-.7.52z" transform="translate(-2.17 -.56)" fill="#292929"/><path class="cls-63" d="M23.45 10.96l-.02.05-.49-.57v-.02c.03-.01.04.04.07.01a5.55 5.55 0 0 1 .37.47c.01.02.02.05.05.06z" transform="translate(-2.17 -.56)"/><path class="cls-21" d="M22.38 9.86a2.6 2.6 0 0 1 .3.27l.08.08v.03a3.92 3.92 0 0 1-.38-.38z" transform="translate(-2.17 -.56)"/><path class="cls-63" d="M22.76 10.24v-.03c.06.05.13.09.15.17a.81.81 0 0 1-.15-.14z" transform="translate(-2.17 -.56)"/><path class="cls-21" d="M22.23 9.73a.45.45 0 0 1 .15.13.29.29 0 0 1-.15-.13z" transform="translate(-2.17 -.56)"/><path class="cls-61" d="M22.01 11.96l.06.07c.04.07.07.1-.02.17l-1.96 1.52-.45.33c-.05.02-.08.08-.14.03l-.13-.17.01-.02.03.02a.02.02 0 0 0 .03.01l.4-.29a.1.1 0 0 0 .03-.03 1.63 1.63 0 0 0 .29-.2l.71-.56 1.13-.88z" transform="translate(-2.17 -.56)"/><path class="cls-33" d="M9.96 18.82a7.99 7.99 0 0 1-.4-1.86 9.48 9.48 0 0 1-.04-1.26 7.86 7.86 0 0 1 .9-3.49 8.21 8.21 0 0 1 1.11-1.58 8.52 8.52 0 0 1 1.66-1.45 7.03 7.03 0 0 1 2.38-1A7.9 7.9 0 0 1 16.92 8a8.7 8.7 0 0 1 2.5.24 6.37 6.37 0 0 1 .8.26l.06.03a1.19 1.19 0 0 1-.27-.09l-.51-.15-.07-.01a2.27 2.27 0 0 0-.45-.11 9.8 9.8 0 0 0-2.14-.15 2.86 2.86 0 0 0-.5.05 9.14 9.14 0 0 0-1.61.42 7.66 7.66 0 0 0-1.5.77 8.48 8.48 0 0 0-.76.59 7.32 7.32 0 0 0-1.02 1.04q-.3.37-.57.76a7.7 7.7 0 0 0-1.2 3.22l-.07.62-.01.46-.02.17c.01.34.03.67.06 1a10.09 10.09 0 0 0 .23 1.29l.1.34c0 .02.02.04 0 .07z" transform="translate(-2.17 -.56)"/><path class="cls-28" d="M9.46 14.72a.12.12 0 0 1-.01.08c0-.05-.02-.06-.07-.06a.36.36 0 0 1-.22-.03.47.47 0 0 1 .3.01zM9.48 14.58a.12.12 0 0 1-.01.08c0-.04-.03-.05-.07-.05h-.23v-.03zM9.45 14.87a.12.12 0 0 1-.02.08c0-.05-.02-.07-.07-.07a.45.45 0 0 1-.2-.02.82.82 0 0 1 .29 0z" transform="translate(-2.17 -.56)"/><path class="cls-14" d="M11.24 10.51c0 .04-.03.05-.05.03a.43.43 0 0 1-.13-.12.04.04 0 0 1 0-.05.03.03 0 0 1 .04-.01.47.47 0 0 1 .14.15zM11.14 10.64a.33.33 0 0 1-.15-.11.02.02 0 0 1 0-.04l.04.01a.66.66 0 0 1 .11.14z" transform="translate(-2.17 -.56)"/><path class="cls-15" d="M19.02 13.1a.27.27 0 0 1-.12.12.26.26 0 0 1 .12-.12z" transform="translate(-2.17 -.56)"/><path class="cls-33" d="M23.67 11.07l.7-.52 2.4-1.86 2.24-1.73.18-.15c.02-.02.05-.04.04-.07.02 0 .03.02.02.03-.08.08-.07.2-.14.28a2.2 2.2 0 0 1-.35.3l-1.17.9-1.26.98-1.37 1.06-.83.64a.73.73 0 0 1-.3.14c-.06.02-.11-.02-.16 0z" transform="translate(-2.17 -.56)"/><path class="cls-46" d="M29.1 25.1l.08.1a.15.15 0 0 1-.1-.06z" transform="translate(-2.17 -.56)"/><path class="cls-48" d="M8.24 28.01a.02.02 0 0 1-.02-.02.63.63 0 0 1 .11-.16.03.03 0 0 1 .04 0 .03.03 0 0 1 .01.04l-.13.14z" transform="translate(-2.17 -.56)"/><path class="cls-64" d="M29.13 25.4a.51.51 0 0 1 .1-.12c0 .03-.03.06-.02.1a.42.42 0 0 1-.1.37 10.12 10.12 0 0 1-.86 1q-.31.34-.66.66c-.25.23-.5.45-.76.66a14.05 14.05 0 0 1-1.33.96 15.05 15.05 0 0 1-1.72.96 13.69 13.69 0 0 1-1.32.55 14.65 14.65 0 0 1-2.14.59 16.18 16.18 0 0 1-2.38.26c-.39 0-.77.01-1.15-.01l-.76-.05c-.32-.02-.64-.06-.96-.11q-.62-.1-1.23-.24a13.43 13.43 0 0 1-2.09-.68 12.35 12.35 0 0 1-1.5-.75c-.04-.02-.1-.03-.11-.08.16.07.3.16.45.24a13.95 13.95 0 0 0 1.75.75l.04.02c.01.03.04.03.07.04l.57.18a12.26 12.26 0 0 0 2.46.49l.78.07a5.24 5.24 0 0 0 .6.03c.37 0 .74.03 1.1.01s.72-.03 1.08-.06c.23-.03.47-.05.7-.1.46-.06.92-.16 1.38-.27a14.1 14.1 0 0 0 3.4-1.34c.32-.17.63-.36.94-.56a14.78 14.78 0 0 0 1.45-1.06c.3-.25.58-.5.86-.77a13.74 13.74 0 0 0 1.2-1.32.51.51 0 0 0 .16-.41z" transform="translate(-2.17 -.56)"/><path d="M29.13 25.4a.5.5 0 0 1-.16.42 13.74 13.74 0 0 1-1.2 1.31c-.28.27-.57.53-.86.78a14.78 14.78 0 0 1-1.45 1.06c-.31.2-.63.38-.95.56a14.1 14.1 0 0 1-3.4 1.33 15.04 15.04 0 0 1-3.14.44c-.36.02-.74-.02-1.11-.01a5.24 5.24 0 0 1-.6-.03l-.78-.07a15.7 15.7 0 0 1-2.45-.5c-.2-.05-.39-.12-.58-.18-.03 0-.06 0-.07-.03l.62.19a14.2 14.2 0 0 0 2.13.45 16.47 16.47 0 0 0 2.72.14 14.55 14.55 0 0 0 3.8-.64 15.06 15.06 0 0 0 5.64-3.22 14.36 14.36 0 0 0 1.81-1.96.4.4 0 0 0 .03-.03z" transform="translate(-2.17 -.56)" fill="#9e9e9e"/><path class="cls-46" d="M10.14 29.47c.02.05.07.06.1.08a12.35 12.35 0 0 0 1.51.75 13.43 13.43 0 0 0 2.09.68q.6.15 1.23.24a14.13 14.13 0 0 0 1.72.16c.38.02.76.01 1.14.01a16.5 16.5 0 0 0 2.38-.26 14.65 14.65 0 0 0 2.14-.59 13.69 13.69 0 0 0 1.33-.55 15.05 15.05 0 0 0 1.72-.95 14.05 14.05 0 0 0 1.33-.97c.26-.21.51-.43.76-.66q.34-.31.66-.66a10.12 10.12 0 0 0 .86-1 .42.42 0 0 0 .1-.38c0-.03.02-.06.01-.09l-.04-.07a.06.06 0 0 1 .06.05.56.56 0 0 1-.1.53 14.76 14.76 0 0 1-4.1 3.6 15.38 15.38 0 0 1-1.48.76 15.04 15.04 0 0 1-1.56.6 14.53 14.53 0 0 1-1.72.44c-.36.07-.71.12-1.07.16l-.61.05a14.2 14.2 0 0 1-1.53.04c-.31 0-.62-.02-.93-.04q-.5-.05-.98-.12a14.1 14.1 0 0 1-1.27-.24 13.97 13.97 0 0 1-1.43-.42q-.64-.22-1.25-.5a13.72 13.72 0 0 1-1.71-.97 11.92 11.92 0 0 1-1.13-.82c-.24-.2-.5-.4-.73-.61l-.54-.5-.02-.03a3.24 3.24 0 0 1 .3.27 15.45 15.45 0 0 0 2.2 1.68c.07.04.13.1.2.13a.6.6 0 0 0 .24.14.14.14 0 0 0 .12.07z" transform="translate(-2.17 -.56)"/><path class="cls-64" d="M10.03 29.4a.6.6 0 0 1-.25-.13.9.9 0 0 1 .25.14zM10.14 29.47a.14.14 0 0 1-.12-.06.22.22 0 0 1 .12.06z" transform="translate(-2.17 -.56)"/><path class="cls-51" d="M12.07 19.86a.36.36 0 0 1 .12.14.28.28 0 0 1-.12-.14zM12.19 20l.06.05c0 .03.04.03.03.06a.16.16 0 0 1-.1-.11z" transform="translate(-2.17 -.56)"/><path class="cls-21" d="M13.42 21.2l.47.32a5.55 5.55 0 0 0 1.03.5l.08.04a.05.05 0 0 0 .04.03c.18.07.37.12.56.17a6.57 6.57 0 0 0 .87.15 5.52 5.52 0 0 0 .68.06 7.36 7.36 0 0 0 .77-.03 5.91 5.91 0 0 0 .7-.1 6.17 6.17 0 0 0 1.67-.64 6.3 6.3 0 0 0 1.44-1.1.83.83 0 0 0 .33-.6c.02-.02.03-.06.06-.08a.56.56 0 0 1-.17.56l-.35.36a6.28 6.28 0 0 1-2.4 1.42 5.82 5.82 0 0 1-1.08.24 5.92 5.92 0 0 1-.91.06 6.52 6.52 0 0 1-2.21-.42 6.42 6.42 0 0 1-1.44-.82c-.05-.03-.12-.06-.14-.12z" transform="translate(-2.17 -.56)"/><path class="cls-56" d="M12.5 20.34c.05.01.07.06.1.09.13.13.27.25.38.4h-.03l-.44-.46z" transform="translate(-2.17 -.56)"/><path class="cls-21" d="M13.26 21.08a.5.5 0 0 1 .16.12.33.33 0 0 1-.16-.12z" transform="translate(-2.17 -.56)"/><path class="cls-56" d="M12.36 20.2a.12.12 0 0 1 .1.1l-.03-.01a.23.23 0 0 1-.07-.09z" transform="translate(-2.17 -.56)"/><path class="cls-21" d="M13.05 20.9a.33.33 0 0 1 .13.11.25.25 0 0 1-.13-.11zM12.42 20.28l.03.01.05.05v.03a.16.16 0 0 1-.08-.1zM12.95 20.82h.03l.07.07c-.05 0-.07-.04-.1-.07z" transform="translate(-2.17 -.56)"/><path class="cls-29" d="M22.05 20a.83.83 0 0 1-.33.6 6.3 6.3 0 0 1-1.43 1.1 6.17 6.17 0 0 1-1.67.64 5.91 5.91 0 0 1-.7.1 7.36 7.36 0 0 1-.77.03 5.52 5.52 0 0 1-.68-.06 6.57 6.57 0 0 1-.87-.15 5.37 5.37 0 0 1-.56-.16.05.05 0 0 1-.04-.04c.2.06.4.13.61.18a6.9 6.9 0 0 0 1.31.17 6.17 6.17 0 0 0 4.19-1.44 5.76 5.76 0 0 0 .91-.94.13.13 0 0 0 .03-.03z" transform="translate(-2.17 -.56)"/><path d="M19.64 14.05l.45-.33 1.97-1.52c.08-.06.05-.1.01-.16.1.07.1.07.02.16l-.01.02a.86.86 0 0 1-.39.46l-1.12.87a4.43 4.43 0 0 1-.6.42.33.33 0 0 1-.2.05c-.04 0-.08.03-.13.03z" transform="translate(-2.17 -.56)" fill="#9b9b9b"/></svg>