<?xml version="1.0" encoding="utf-8"?>
<!-- Generator: Adobe Illustrator 22.0.1, SVG Export Plug-In . SVG Version: 6.00 Build 0)  -->
<svg version="1.1" id="Layer_1" xmlns="http://www.w3.org/2000/svg" xmlns:xlink="http://www.w3.org/1999/xlink" x="0px" y="0px"
	 viewBox="0 0 32 32" style="enable-background:new 0 0 32 32;" xml:space="preserve">
<style type="text/css">
	.st0{fill:#FFFFFF;}
</style>
<circle cx="16" cy="16" r="16"/>
<g>
	<path class="st0" d="M13.873,4.201c0.025,0.004,0.05,0.011,0.075,0.011c1.203,0.025,2.348,0.287,3.425,0.831
		c0.651,0.329,1.242,0.743,1.784,1.23c0.032,0.029,0.047,0.058,0.045,0.101c-0.003,0.094-0.002,0.188-0.001,0.281
		c0,0.03-0.005,0.055-0.029,0.077c-0.263,0.238-0.525,0.476-0.787,0.715c-0.002,0.002-0.005,0.002-0.014,0.005
		c-0.02-0.017-0.044-0.036-0.067-0.057c-0.383-0.348-0.793-0.66-1.242-0.919c-0.661-0.382-1.368-0.634-2.121-0.761
		c-0.516-0.087-1.036-0.113-1.558-0.087C11.74,5.71,10.33,6.332,9.147,7.474C8.61,7.991,8.156,8.571,7.809,9.234
		c-0.317,0.605-0.525,1.246-0.633,1.92c-0.088,0.551-0.111,1.104-0.072,1.66c0.11,1.581,0.721,2.939,1.815,4.083
		c0.545,0.57,1.159,1.047,1.865,1.403c0.581,0.293,1.194,0.488,1.837,0.59c0.551,0.088,1.104,0.111,1.66,0.072
		c1.482-0.104,2.775-0.658,3.888-1.638c0.063-0.055,0.125-0.11,0.188-0.165c0.004-0.003,0.009-0.005,0.018-0.01
		c0.014,0.011,0.031,0.022,0.046,0.036c0.241,0.216,0.48,0.432,0.723,0.646c0.041,0.036,0.06,0.074,0.059,0.128
		c-0.003,0.086-0.003,0.172,0,0.258c0.002,0.044-0.015,0.072-0.046,0.101c-0.833,0.747-1.771,1.315-2.837,1.665
		c-0.486,0.16-0.984,0.268-1.492,0.332c-0.488,0.061-0.977,0.076-1.467,0.055c-1.109-0.048-2.169-0.298-3.167-0.792
		c-0.723-0.358-1.371-0.822-1.956-1.375c-0.672-0.635-1.239-1.35-1.671-2.171c-0.378-0.718-0.632-1.478-0.766-2.278
		c-0.058-0.345-0.096-0.691-0.11-1.041c-0.003-0.078-0.009-0.156-0.015-0.234c-0.001-0.012-0.009-0.024-0.013-0.035
		c0-0.099,0-0.198,0-0.297c0.005-0.012,0.012-0.023,0.013-0.035c0.006-0.078,0.012-0.156,0.015-0.234
		c0.014-0.349,0.052-0.696,0.11-1.04c0.134-0.795,0.386-1.549,0.761-2.263c0.423-0.806,0.977-1.513,1.633-2.141
		C8.78,5.87,9.431,5.396,10.159,5.031c1.078-0.541,2.226-0.795,3.428-0.819c0.028-0.001,0.055-0.007,0.083-0.011
		C13.737,4.201,13.805,4.201,13.873,4.201z"/>
	<path class="st0" d="M17.908,26.785c-0.025-0.004-0.05-0.011-0.075-0.013c-1.899-0.087-3.549-0.777-4.964-2.042
		c-0.041-0.036-0.058-0.074-0.056-0.128c0.004-0.088,0.002-0.177,0.001-0.266c0-0.03,0.006-0.054,0.03-0.076
		c0.259-0.235,0.517-0.47,0.775-0.705c0.005-0.005,0.013-0.008,0.026-0.015c0.026,0.023,0.053,0.046,0.08,0.07
		c0.424,0.385,0.883,0.723,1.387,0.996c0.631,0.341,1.302,0.566,2.011,0.679c0.543,0.086,1.089,0.11,1.636,0.072
		c1.488-0.101,2.788-0.65,3.9-1.644c0.561-0.502,1.043-1.071,1.421-1.725c0.387-0.67,0.638-1.389,0.76-2.154
		c0.087-0.551,0.11-1.104,0.071-1.66c-0.11-1.578-0.721-2.934-1.813-4.076c-0.548-0.574-1.167-1.054-1.878-1.411
		c-0.594-0.298-1.22-0.492-1.877-0.593c-0.489-0.075-0.98-0.096-1.473-0.071c-1.491,0.075-2.804,0.602-3.938,1.573
		c-0.095,0.081-0.188,0.165-0.287,0.251c-0.018-0.014-0.037-0.026-0.053-0.041c-0.243-0.217-0.485-0.436-0.728-0.652
		c-0.035-0.031-0.05-0.064-0.049-0.108c0.001-0.086,0.003-0.172-0.001-0.258c-0.003-0.053,0.018-0.086,0.056-0.12
		c0.47-0.42,0.978-0.788,1.53-1.092c0.774-0.427,1.598-0.709,2.47-0.851c0.596-0.097,1.196-0.128,1.8-0.1
		c0.722,0.033,1.429,0.151,2.118,0.372c0.911,0.292,1.736,0.745,2.479,1.346c0.808,0.654,1.49,1.418,2.017,2.316
		c0.454,0.774,0.758,1.603,0.918,2.486c0.079,0.437,0.127,0.876,0.127,1.321c0,0.03,0.007,0.061,0.011,0.091
		c0,0.099,0,0.198,0,0.297c-0.004,0.025-0.011,0.05-0.011,0.075c0,0.447-0.049,0.889-0.129,1.328c-0.133,0.727-0.365,1.421-0.7,2.08
		c-0.452,0.888-1.06,1.656-1.789,2.331c-0.708,0.656-1.502,1.179-2.399,1.542c-0.841,0.341-1.717,0.52-2.622,0.561
		c-0.03,0.001-0.061,0.009-0.091,0.013C18.367,26.785,18.137,26.785,17.908,26.785z"/>
</g>
</svg>
