<svg id="Layer_1" data-name="Layer 1" xmlns="http://www.w3.org/2000/svg" viewBox="0 0 32 32"><defs><style>.cls-1{fill:#cea920;}.cls-2{fill:#fff;}</style></defs><circle class="cls-1" cx="16" cy="16" r="16"/><path class="cls-2" d="M12.1,13.075s-.658-2.578-3.787-1.742c0,0-2.08.409-2.2,3.733,0,0-.125,2.916.835,3.965A2.914,2.914,0,0,0,9.792,20.08a2.532,2.532,0,0,0,2.222-1.832l2.72-.017a6.72,6.72,0,0,1-2.329,3.413,6.967,6.967,0,0,1-5,.409A5.9,5.9,0,0,1,3.8,18.142,10.826,10.826,0,0,1,3.712,13.7a6.714,6.714,0,0,1,2.044-3.555,6.277,6.277,0,0,1,4-1.191,7.265,7.265,0,0,1,2.276.551v-.32l2.151.018.017,3.857Z"/><path class="cls-2" d="M25.454,13h2.062V9.075H25.454v.48s-.889-.782-4.071-.48a6.3,6.3,0,0,0-3.556,1.93,6.023,6.023,0,0,0-1.547,3.706,9.729,9.729,0,0,0,.2,3.04,5.963,5.963,0,0,0,1.316,2.595,6.445,6.445,0,0,0,3.288,1.831s3.414.445,4.925-.533a11.4,11.4,0,0,0,2.2-1.262v-5.1l-5.546-.018-.018,2.2,3.022-.018-.018,1.565a4.163,4.163,0,0,1-3.893,1.049s-2.116-.711-2.578-2.205A7.937,7.937,0,0,1,19,13.911a3.048,3.048,0,0,1,1.263-2.063,4.24,4.24,0,0,1,2.257-.64S24.867,11.226,25.454,13Z"/></svg>