<?xml version="1.0" encoding="utf-8"?>
<!-- Generator: Adobe Illustrator 25.3.1, SVG Export Plug-In . SVG Version: 6.00 Build 0)  -->
<svg version="1.1" id="Layer_1" xmlns="http://www.w3.org/2000/svg" xmlns:xlink="http://www.w3.org/1999/xlink" x="0px" y="0px"
	 viewBox="0 0 32 32" style="enable-background:new 0 0 32 32;" xml:space="preserve">
<style type="text/css">
	.st0{fill:#EC4327;}
	.st1{fill:#F18937;}
	.st2{fill:#F29039;}
	.st3{fill:#EF6630;}
	.st4{fill:#EE632F;}
	.st5{fill:#EE582D;}
	.st6{fill:#EF7131;}
	.st7{fill:#EC502B;}
	.st8{fill:#F18737;}
	.st9{fill:#EB3926;}
	.st10{fill:#F5B540;}
	.st11{fill:#F4A73E;}
	.st12{fill:#F4AC3E;}
	.st13{fill:#EA3D26;}
	.st14{fill:#F5B440;}
	.st15{fill:#F4A83E;}
	.st16{fill:#EC4328;}
	.st17{fill:#EB4628;}
	.st18{fill:#F4A73D;}
	.st19{fill:#ED4A29;}
	.st20{fill:#EC3E27;}
	.st21{fill:#EF6E31;}
	.st22{fill:#EB4127;}
	.st23{fill:#ED4C2A;}
	.st24{fill:#F2973A;}
	.st25{fill:#F3953A;}
	.st26{fill:#F18E38;}
	.st27{fill:#F4AA3E;}
	.st28{fill:#EC522A;}
	.st29{fill:#ED5A2C;}
	.st30{fill:#ED4F2A;}
	.st31{fill:#EF642F;}
	.st32{fill:#F17B34;}
	.st33{fill:#F3A13D;}
	.st34{fill:#EC4E29;}
	.st35{fill:#EC4D2A;}
	.st36{fill:#F4AB40;}
	.st37{fill:#EB4828;}
	.st38{fill:#F07D34;}
	.st39{fill:#EE682F;}
	.st40{fill:#EE562C;}
	.st41{fill:#F6AF93;}
	.st42{fill:#F5B140;}
	.st43{fill:#F18637;}
	.st44{fill:#F5B542;}
	.st45{fill:#F4AA3F;}
	.st46{fill:#F18237;}
</style>
<g>
	<path class="st0" d="M9.727,12.401c0.517-1.036,1.183-1.898,2.44-2.051c0.525-0.064,1.034,0.059,1.541,0.169
		c0.429,0.093,0.858,0.19,1.281,0.306c0.763,0.209,1.517,0.2,2.285,0.009c0.696-0.173,1.388-0.37,2.102-0.473
		c0.941-0.136,1.738,0.123,2.382,0.827c0.353,0.386,0.646,0.811,0.842,1.299c-0.016,0.15-0.096,0.228-0.249,0.228
		c-0.127-0.001-0.254-0.001-0.38-0.001c-0.158-0.246-0.302-0.503-0.477-0.737c-0.553-0.739-1.287-1.038-2.206-0.89
		c-0.593,0.096-1.176,0.237-1.754,0.39c-0.938,0.248-1.864,0.249-2.802-0.003c-0.578-0.155-1.158-0.309-1.752-0.399
		c-0.619-0.093-1.197-0.001-1.7,0.395c-0.379,0.298-0.649,0.689-0.909,1.088c-0.153-0.001-0.307-0.004-0.46-0.002
		C9.8,12.558,9.746,12.502,9.727,12.401z"/>
	<path class="st1" d="M25.067,23.512c0.175-0.233,0.339-0.469,0.58-0.649c0.489-0.365,1.043-0.492,1.623-0.389
		c0.271,0.048,0.359-0.05,0.457-0.237c0.292-0.554,0.562-1.118,0.77-1.71c0.027-0.075,0.048-0.153,0.078-0.226
		c0.146-0.351,0.441-0.504,0.761-0.399c0.295,0.097,0.42,0.387,0.305,0.757c-0.175,0.56-0.399,1.101-0.665,1.623
		c-0.212,0.415-0.449,0.816-0.676,1.223c-0.039,0.07-0.084,0.136-0.124,0.205c-0.02,0.035-0.034,0.074,0.001,0.107
		c0.049,0.047,0.105,0.031,0.138-0.012c0.073-0.094,0.132-0.199,0.201-0.296c0.053-0.073,0.072-0.173,0.168-0.212
		c0.394,0.369,0.497,1.121,0.237,1.721c0.009-0.231-0.151-0.274-0.33-0.299c-0.239-0.034-0.462,0.051-0.693,0.081
		c0.05-0.201,0.016-0.426,0.17-0.6c0.043-0.049,0.086-0.126,0.02-0.174c-0.089-0.066-0.141,0.026-0.186,0.085
		c-0.104,0.136-0.192,0.286-0.304,0.416c-0.203,0.236-0.519,0.286-0.75,0.134c-0.248-0.163-0.319-0.486-0.164-0.772
		c0.05-0.092,0.116-0.176,0.175-0.264c0.042-0.063,0.111-0.122,0.023-0.224c-0.231,0.107-0.471,0.205-0.675,0.373
		c-0.011-0.104-0.068-0.146-0.17-0.181C25.72,23.484,25.392,23.533,25.067,23.512z"/>
	<path class="st1" d="M5.082,25.045c-0.58,0.343-0.754,0.238-1.223,0.128c-0.512-0.12-0.91-0.456-1.188-0.888
		c-0.403-0.626-0.767-1.28-1.024-1.983c-0.271-0.74-0.167-1.435,0.307-2.07c0.055-0.073,0.112-0.151,0.262-0.194
		c0.082,0.529,0.448,0.975,0.381,1.546c-0.02,0.166,0.049,0.314,0.108,0.461c0.22,0.545,0.508,1.055,0.815,1.554
		c0.171,0.278,0.318,0.372,0.728,0.531c0.062-0.171-0.074-0.271-0.139-0.391c-0.181-0.334-0.134-0.622,0.139-0.8
		c0.264-0.173,0.617-0.081,0.827,0.216c0.084,0.119,0.167,0.239,0.251,0.359c0.075,0.25,0.317,0.398,0.398,0.644
		c-0.307-0.074-0.62-0.1-0.934-0.077c-0.247,0.018-0.305,0.124-0.171,0.334C4.76,24.634,4.927,24.836,5.082,25.045z"/>
	<path class="st2" d="M29.017,7.84c0.05,0.208-0.023,0.395-0.104,0.578c-0.155,0.353-0.205,0.361-0.484,0.084
		c0,0.232,0.116,0.408,0.218,0.588c0.381,0.673,0.701,1.373,0.942,2.109c0.029,0.088,0.061,0.176,0.077,0.267
		c0.052,0.293-0.067,0.53-0.305,0.621c-0.267,0.103-0.58-0.007-0.721-0.262c-0.051-0.092-0.081-0.196-0.118-0.295
		c-0.268-0.708-0.575-1.399-0.959-2.053c-0.072-0.122-0.116-0.273-0.278-0.326c-0.098,0.122,0.03,0.22,0.03,0.329
		c-0.236,0.277-1.344-0.036-1.839-0.52c0.303-0.001,0.605-0.001,0.908-0.003c0.49-0.003,0.509-0.033,0.305-0.486
		c0.17-0.115,0.022-0.199-0.027-0.295c-0.169-0.327-0.112-0.695,0.131-0.871c0.267-0.192,0.627-0.12,0.88,0.179
		c0.06,0.071,0.108,0.153,0.17,0.221c0.045,0.049,0.092,0.031,0.121-0.028c0.141,0.044,0.21,0.185,0.353,0.24
		C28.573,8.018,28.791,7.924,29.017,7.84z"/>
	<path class="st3" d="M29.017,7.84c-0.227,0.084-0.444,0.178-0.701,0.079c-0.143-0.055-0.212-0.196-0.353-0.24c0,0,0,0,0,0
		c-0.013-0.135,0.056-0.285-0.074-0.399c-0.391-0.638-0.897-1.18-1.427-1.699c-0.175-0.172-0.387-0.226-0.71-0.233
		c0.074,0.077,0.137,0.143,0.2,0.21c0.238,0.252,0.295,0.537,0.159,0.796c-0.128,0.244-0.378,0.314-0.793,0.221
		C25.237,6.4,25.128,6.26,24.918,6.241c-0.043,0.002-0.076-0.009-0.084-0.057c-0.167-0.328-0.478-0.49-0.773-0.67
		c-0.104-0.058-0.185-0.14-0.251-0.238c0.341,0.191,0.725,0.194,1.098,0.237c0.222,0.025,0.437-0.024,0.647-0.2
		c-0.128-0.121-0.232-0.24-0.356-0.331c-0.107-0.079-0.223-0.14-0.272-0.274c0.083-0.002,0.126-0.019,0.067-0.114
		c-0.15-0.242-0.149-0.254,0.106-0.341c0.732-0.249,1.4-0.088,1.981,0.384c0.632,0.513,1.15,1.14,1.612,1.807
		C28.981,6.858,29.123,7.325,29.017,7.84z"/>
	<path class="st4" d="M27.899,24.8c0.231-0.03,0.454-0.115,0.693-0.081c0.179,0.025,0.339,0.068,0.33,0.299
		c-0.099,0.376-0.34,0.68-0.562,0.978c-0.363,0.489-0.786,0.935-1.246,1.34c-0.535,0.471-1.527,0.733-2.224,0.293
		c-0.036-0.117,0.086-0.151,0.124-0.229c0.045-0.095-0.021-0.11-0.088-0.126c0.192-0.317,0.162-0.381-0.189-0.394
		c-0.093-0.003-0.186,0.004-0.278-0.002c-0.248-0.015-0.506,0.055-0.74-0.082c0.108-0.189,0.338-0.238,0.466-0.404
		c0.236-0.173,0.535-0.274,0.649-0.583c0.14-0.098,0.274-0.205,0.42-0.293c0.267-0.162,0.587-0.123,0.762,0.08
		c0.177,0.206,0.157,0.517-0.044,0.762c-0.079,0.096-0.217,0.154-0.213,0.311c0.28,0.04,0.534-0.014,0.729-0.207
		C27.005,25.948,27.517,25.428,27.899,24.8z"/>
	<path class="st5" d="M24.927,4.708c0.049,0.134,0.165,0.195,0.272,0.274c0.124,0.091,0.228,0.21,0.356,0.331
		c-0.209,0.176-0.425,0.225-0.647,0.2c-0.372-0.043-0.756-0.046-1.098-0.237c-0.201-0.127-0.4-0.256-0.603-0.379
		c-0.11-0.067-0.216-0.165-0.364-0.096c-0.07-0.164-0.199-0.213-0.356-0.211c0.1,0.109,0.214,0.191,0.361,0.205
		c-0.004,0.126,0.142,0.149,0.186,0.291c-0.602,0.401-1.255,0.583-1.959,0.33c-0.57-0.205-1.129-0.442-1.702-0.641
		c-0.022-0.008-0.038-0.036-0.056-0.054c0.237-0.053,0.472-0.015,0.705,0.029c0.488,0.094,0.978,0.05,1.466,0.025
		c0.105-0.005,0.25-0.023,0.344-0.109c-0.066-0.13-0.223-0.081-0.265-0.201c0.256-0.008,0.512-0.03,0.803,0.098
		c-0.09-0.287-0.312-0.311-0.472-0.402c-0.197-0.111-0.341-0.243-0.355-0.486c-0.021-0.384,0.222-0.636,0.607-0.604
		c0.158,0.013,0.31,0.054,0.457,0.125c0.116,0.057,0.215,0.164,0.361,0.147c0.011-0.063-0.051-0.084-0.07-0.13
		c0.185-0.039,0.281,0.131,0.428,0.183c0.23,0.081,0.397,0.012,0.467-0.219c0.023-0.075,0.016-0.158,0.022-0.238
		c0.145,0.2,0.088,0.431,0.096,0.651c0.005,0.138-0.142,0.129-0.239,0.2c0.165,0.232,0.425,0.318,0.629,0.474
		C24.504,4.418,24.718,4.56,24.927,4.708z"/>
	<path class="st6" d="M5.082,25.045c-0.155-0.209-0.322-0.411-0.462-0.63c-0.134-0.21-0.076-0.317,0.171-0.334
		c0.314-0.023,0.627,0.003,0.934,0.077c0.05,0.026,0.101,0.052,0.151,0.079c0.185,0.258,0.384,0.505,0.619,0.719
		c0.098,0.09,0.201,0.183,0.318,0.006c0.062-0.094,0.188-0.097,0.288-0.117c0.63-0.126,1.238-0.097,1.782,0.296
		c0.203,0.147,0.396,0.306,0.594,0.46c-0.411-0.001-0.823,0-1.234-0.002c-0.193-0.001-0.273,0.077-0.205,0.27
		c-0.456-0.064-0.456-0.064-0.861-0.381c0.119,0.253,0.272,0.37,0.391,0.509c0.077,0.09,0.179,0.159,0.254,0.252
		c0.167,0.207,0.168,0.442,0.016,0.661c-0.146,0.21-0.377,0.29-0.63,0.203c-0.123-0.042-0.239-0.108-0.357-0.164
		c-0.312-0.377-0.69-0.689-1.034-1.035C5.577,25.618,5.29,25.365,5.082,25.045z"/>
	<path class="st7" d="M6.753,27.125c0.002,0.244,0.187,0.37,0.345,0.502c0.406,0.339,0.852,0.623,1.296,0.91
		c0.161,0.104,0.356,0.152,0.524,0.156c0.335,0.008,0.608,0.145,0.89,0.287c0.07,0.035,0.162,0.122,0.226-0.018
		c0.132,0.002,0.242,0.05,0.329,0.149c-0.018,0.036-0.185-0.01-0.074,0.073c0.189,0.143,0.131,0.234-0.014,0.331
		c-0.543,0.36-1.129,0.445-1.753,0.254c-0.23-0.07-0.449-0.166-0.653-0.295c-0.473-0.298-0.939-0.607-1.379-0.952
		c-0.605-0.474-0.992-1.067-0.982-1.868c0.003-0.202,0.036-0.394,0.142-0.569C6.041,26.407,6.45,26.71,6.753,27.125z"/>
	<path class="st8" d="M4.444,7.594C4.151,7.89,3.73,8.041,3.507,8.414c-0.28,0.468-0.552,0.941-0.765,1.445
		c-0.1,0.235-0.184,0.47-0.131,0.733c0.01,0.05,0.01,0.109-0.006,0.157c-0.132,0.401-0.269,0.799-0.411,1.219
		c-0.367-0.243-0.509-0.598-0.62-0.965c-0.114-0.378-0.112-0.772,0.02-1.137c0.32-0.892,0.715-1.759,1.349-2.472
		C3.441,6.834,4.1,6.623,4.854,6.79C4.889,6.948,4.74,7.005,4.718,7.121C4.705,7.19,4.678,7.248,4.765,7.281
		c0,0.117-0.054,0.195-0.164,0.235C4.593,7.48,4.596,7.43,4.573,7.411C4.535,7.379,4.501,7.426,4.487,7.453
		C4.464,7.499,4.456,7.552,4.442,7.601L4.444,7.594z"/>
	<path class="st9" d="M17.314,1.591c-0.587-0.145-1.155,0.034-1.68-0.229c-0.144-0.072-0.304-0.092-0.467-0.07
		c-0.552,0.072-1.104,0.138-1.655,0.218c-0.128,0.019-0.277,0.055-0.37,0.136c-0.456,0.397-1.055,0.376-1.62,0.627
		c0.052-0.612,0.321-1.028,0.737-1.364c0.374-0.302,0.817-0.444,1.281-0.507c0.564-0.077,1.129-0.153,1.701-0.176
		C16.164,0.188,17.087,0.76,17.314,1.591z"/>
	<path class="st10" d="M0.287,15.994c0.029-0.398,0.027-0.802,0.095-1.194c0.116-0.674,0.46-1.214,1.066-1.563
		c0.091-0.052,0.195-0.086,0.296-0.115c0.102-0.03,0.168,0.038,0.146,0.126c-0.112,0.447-0.031,0.934-0.288,1.35
		c-0.129,0.208-0.191,0.436-0.189,0.683c0.004,0.48,0.005,0.96,0,1.44c-0.002,0.22,0.037,0.436,0.156,0.611
		c0.287,0.424,0.204,0.925,0.32,1.383c0.045,0.178-0.096,0.189-0.229,0.141c-0.377-0.137-0.672-0.389-0.892-0.712
		c-0.233-0.343-0.395-0.722-0.404-1.152C0.356,16.658,0.28,16.329,0.287,15.994z"/>
	<path class="st11" d="M29.256,9.776c0.35-0.062,0.657,0.043,0.926,0.199c0.485,0.282,0.829,0.702,1.01,1.242
		c0.241,0.719,0.451,1.45,0.513,2.204c0.066,0.794-0.235,1.458-0.911,1.921c-0.041,0.028-0.089,0.064-0.191,0.013
		c0.032-0.511-0.205-1.035,0-1.579c0.06-0.159,0.031-0.342-0.001-0.514c-0.1-0.535-0.233-1.061-0.388-1.582
		c-0.051-0.171-0.116-0.341-0.249-0.446c-0.225-0.178-0.323-0.417-0.403-0.671C29.478,10.3,29.31,10.069,29.256,9.776z"/>
	<path class="st12" d="M1.902,17.32c-0.01-0.415,0.138-0.642,0.44-0.689c0.355-0.055,0.625,0.178,0.667,0.566
		c0.091,0.858,0.249,1.702,0.486,2.532c0.077,0.27,0.23,0.506,0.313,0.772c0.07,0.226,0.139,0.453,0.194,0.683
		c0.066,0.272-0.046,0.499-0.293,0.632c-0.235,0.126-0.441,0.088-0.648-0.111c-0.09-0.087-0.138-0.194-0.182-0.305
		c-0.452-1.138-0.775-2.309-0.919-3.527c-0.011-0.092-0.046-0.181-0.056-0.273C1.894,17.507,1.902,17.413,1.902,17.32z"/>
	<path class="st13" d="M12.761,30.077c0.509,0.505,1.187,0.461,1.82,0.557c0.144,0.022,0.294,0.013,0.436,0.045
		c0.246,0.056,0.486,0.033,0.698-0.081c0.188-0.102,0.377-0.121,0.576-0.109c0.328,0.02,0.654-0.084,1.021-0.035
		c-0.228,0.655-0.695,1.008-1.294,1.215c-0.465,0.161-0.95,0.103-1.423,0.066c-0.461-0.036-0.921-0.112-1.375-0.204
		c-0.891-0.18-1.651-0.907-1.691-1.759c0.188-0.003,0.353,0.067,0.516,0.143c0.116,0.139,0.269,0.068,0.409,0.074
		c0,0-0.007-0.004-0.007-0.004C12.522,30.118,12.65,30.069,12.761,30.077z"/>
	<path class="st14" d="M30.427,15.95c0.04,0.757-0.074,1.455-0.147,2.155c-0.028,0.267-0.157,0.479-0.43,0.572
		c-0.22,0.075-0.389-0.021-0.542-0.162c-0.139-0.127-0.172-0.294-0.156-0.475c0.038-0.437,0.06-0.876,0.115-1.31
		c0.059-0.466,0.059-0.927,0.005-1.393c-0.054-0.462-0.087-0.926-0.117-1.391c-0.022-0.345,0.202-0.621,0.508-0.653
		c0.273-0.028,0.54,0.195,0.604,0.522c0.041,0.208,0.082,0.42,0.085,0.631C30.358,14.964,30.493,15.477,30.427,15.95z"/>
	<path class="st15" d="M30.59,16.53c0.608,0.372,0.941,0.804,1.071,1.397c0.078,0.359,0.059,0.712-0.009,1.066
		c-0.119,0.612-0.255,1.221-0.47,1.807c-0.27,0.734-0.77,1.228-1.547,1.414c-0.118,0.028-0.233,0.049-0.349,0
		c0.074-0.43,0.431-1.202,0.691-1.48c0.093-0.099,0.174-0.205,0.212-0.333c0.173-0.584,0.331-1.173,0.428-1.775
		c0.019-0.116,0.035-0.252-0.006-0.356C30.39,17.714,30.637,17.171,30.59,16.53z"/>
	<path class="st16" d="M16.312,1.698c1.186,0.019,2.353,0.178,3.5,0.481c0.102,0.027,0.208,0.053,0.302,0.101
		c0.272,0.138,0.4,0.455,0.295,0.704C20.301,3.24,20,3.394,19.719,3.323C19.23,3.2,18.739,3.091,18.24,3.009
		c-0.762-0.125-1.529-0.181-2.3-0.191c-0.093-0.001-0.187,0.009-0.28,0.004c-0.348-0.019-0.566-0.227-0.573-0.54
		c-0.007-0.296,0.222-0.541,0.545-0.582c0.026-0.003,0.053-0.002,0.08-0.003C15.913,1.698,16.112,1.698,16.312,1.698z"/>
	<path class="st17" d="M16.288,30.297c-0.187,0-0.373,0.006-0.559-0.001c-0.393-0.016-0.641-0.239-0.641-0.568
		c0-0.342,0.237-0.559,0.638-0.554c1.35,0.017,2.676-0.149,3.979-0.499c0.303-0.081,0.617,0.084,0.712,0.356
		c0.098,0.282-0.046,0.583-0.362,0.706c-0.422,0.164-0.871,0.237-1.313,0.32C17.932,30.208,17.114,30.292,16.288,30.297z"/>
	<path class="st18" d="M1.904,14.639c0.087-0.993,0.281-1.966,0.576-2.918c0.13-0.418,0.286-0.829,0.451-1.235
		c0.106-0.259,0.389-0.42,0.597-0.382c0.246,0.046,0.457,0.267,0.492,0.519c0.022,0.153-0.045,0.286-0.097,0.422
		c-0.26,0.683-0.498,1.373-0.647,2.091c-0.116,0.558-0.212,1.119-0.269,1.687c-0.027,0.267-0.223,0.493-0.458,0.538
		c-0.243,0.047-0.493-0.074-0.602-0.292c-0.018-0.035-0.039-0.073-0.041-0.111C1.9,14.852,1.904,14.746,1.904,14.639z"/>
	<path class="st19" d="M13.867,2.57c-0.008,0.254-0.166,0.45-0.456,0.534c-0.28,0.081-0.568,0.135-0.847,0.217
		c-0.996,0.292-1.962,0.656-2.87,1.166C9.625,4.526,9.553,4.565,9.478,4.587c-0.233,0.067-0.494-0.04-0.622-0.246
		C8.72,4.123,8.749,3.885,8.948,3.69c0.074-0.073,0.166-0.132,0.258-0.183c1.237-0.687,2.537-1.207,3.927-1.493
		C13.537,1.93,13.879,2.189,13.867,2.57z"/>
	<path class="st20" d="M23.815,2.938c-0.007,0.08,0,0.163-0.022,0.238c-0.07,0.231-0.237,0.3-0.467,0.219
		c-0.147-0.052-0.243-0.222-0.428-0.183c-0.162,0.011-0.258-0.108-0.302-0.221c-0.097-0.252-0.3-0.36-0.519-0.463
		c-0.495-0.232-1.013-0.404-1.53-0.579c-0.158-0.053-0.323-0.058-0.473-0.027c-0.298,0.06-0.574,0.002-0.851-0.081
		c-0.24-0.072-0.503-0.049-0.747-0.182c0.138-0.315,0.403-0.49,0.685-0.631c0.534-0.267,1.092-0.301,1.664-0.121
		c0.636,0.201,1.267,0.418,1.862,0.716C23.239,1.899,23.67,2.302,23.815,2.938z"/>
	<path class="st21" d="M4.601,7.516c0.11-0.04,0.164-0.119,0.164-0.235C5.096,6.904,5.427,6.528,5.756,6.15
		c0.082-0.095,0.186-0.203-0.053-0.229C5.626,5.913,5.594,5.858,5.577,5.789c-0.069-0.282-0.136-0.564-0.023-0.85
		c0.051,0.333,0.051,0.332,0.369,0.339C6.053,5.28,6.183,5.285,6.312,5.289C6.284,5.334,6.25,5.377,6.23,5.425
		c-0.013,0.033-0.02,0.084-0.004,0.11c0.033,0.052,0.098,0.051,0.14,0.017C6.501,5.443,6.628,5.326,6.76,5.214
		c0.101-0.086,0.197-0.181,0.308-0.253C7.32,4.798,7.609,4.836,7.79,5.044c0.199,0.229,0.201,0.525-0.029,0.753
		C7.543,6.012,7.337,6.234,7.157,6.481l0.006-0.007c-0.051,0.012-0.117,0.006-0.15,0.037c-0.417,0.38-0.806,0.786-1.134,1.248
		c-0.251,0.24-0.497,0.482-0.625,0.816c0,0,0.005-0.005,0.004-0.005c-0.286-0.004-0.571-0.018-0.856-0.01
		C4.205,8.567,4.11,8.493,4.114,8.295c0.059-0.165,0.17-0.3,0.268-0.441c0.056-0.08,0.095-0.16,0.062-0.26
		c0,0-0.002,0.007-0.002,0.007C4.495,7.573,4.548,7.544,4.601,7.516z"/>
	<path class="st22" d="M23.813,29.058c-0.114,0.544-0.45,0.933-0.916,1.193c-0.768,0.43-1.592,0.737-2.451,0.925
		c-0.637,0.139-1.636-0.17-1.983-0.867c0.528-0.054,1.003-0.319,1.549-0.235c0.234,0.036,0.472,0.007,0.704-0.08
		c0.435-0.163,0.876-0.311,1.303-0.497c0.262-0.114,0.496-0.264,0.633-0.522c0.057-0.106,0.157-0.131,0.24-0.19
		c0.099,0.018,0.171-0.037,0.255-0.078C23.52,28.528,23.731,28.643,23.813,29.058z"/>
	<path class="st23" d="M6.312,5.289C6.183,5.285,6.053,5.28,5.924,5.278C5.606,5.271,5.606,5.271,5.555,4.939
		C5.617,4.44,5.86,4.036,6.226,3.705C6.771,3.212,7.38,2.801,8.017,2.441c0.634-0.359,1.307-0.442,1.989-0.113
		c0.141,0.068,0.296,0.126,0.373,0.281C10.12,2.838,9.335,3.204,9.034,3.228C8.831,3.244,8.64,3.298,8.467,3.404
		C7.979,3.705,7.503,4.023,7.056,4.383C6.908,4.502,6.769,4.636,6.715,4.817C6.648,5.041,6.496,5.175,6.312,5.289z"/>
	<path class="st24" d="M5.875,24.236c-0.05-0.026-0.101-0.052-0.151-0.079c-0.081-0.247-0.323-0.394-0.398-0.644
		c0.113-0.316,0.05-0.626-0.1-0.9c-0.257-0.467-0.505-0.938-0.736-1.418c-0.059-0.122-0.13-0.25-0.252-0.302
		c-0.241-0.104-0.317-0.306-0.373-0.53c-0.059-0.24-0.116-0.481-0.18-0.747c0.443-0.026,0.782,0.163,1.104,0.365
		c0.295,0.185,0.532,0.443,0.68,0.767c0.205,0.449,0.443,0.88,0.688,1.308c0.317,0.554,0.336,1.13,0.141,1.731
		C6.224,24.015,6.117,24.18,5.875,24.236z"/>
	<path class="st25" d="M5.254,8.575c0.128-0.334,0.374-0.576,0.625-0.816c0.245,0.053,0.346,0.227,0.419,0.451
		c0.19,0.585,0.18,1.15-0.123,1.693c-0.253,0.453-0.494,0.911-0.727,1.375c-0.308,0.614-0.854,0.928-1.493,1.097
		c-0.205,0.054-0.287-0.031-0.219-0.231c0.139-0.407,0.191-0.862,0.6-1.133c0.081-0.054,0.132-0.166,0.178-0.26
		c0.212-0.444,0.423-0.888,0.687-1.305c0.166-0.262,0.151-0.558,0.157-0.848C5.359,8.591,5.291,8.583,5.254,8.575z"/>
	<path class="st26" d="M19.009,18.469c-1.41-1.06-2.97-1.062-4.585-0.64c-0.39,0.102-0.732,0.307-1.042,0.565
		c-0.068,0.057-0.117,0.15-0.225,0.147c-0.235-0.231-0.538-0.107-0.808-0.153c0.46-0.51,0.996-0.912,1.645-1.149
		c1.099-0.401,2.226-0.464,3.371-0.254c0.955,0.175,1.778,0.595,2.422,1.338C19.517,18.314,19.244,18.291,19.009,18.469z"/>
	<path class="st27" d="M29.072,15.497c-0.764-0.296-1.258-0.788-1.457-1.551c-0.144-0.552-0.278-1.107-0.395-1.665
		c-0.136-0.646,0.099-1.204,0.479-1.709c0.126-0.168,0.254-0.138,0.305,0.069c0.041,0.169,0.095,0.331,0.165,0.489
		c0.097,0.22,0.168,0.44,0.115,0.691c-0.045,0.213,0.023,0.424,0.087,0.626c0.113,0.356,0.181,0.72,0.251,1.085
		c0.035,0.183,0.065,0.381,0.192,0.518c0.18,0.194,0.218,0.412,0.218,0.66C29.031,14.957,29.125,15.201,29.072,15.497z"/>
	<path class="st28" d="M17.203,28.911c-0.434,0.09-0.793,0.047-1.15,0.057c-0.026,0.001-0.057,0.001-0.078-0.012
		c-0.694-0.421-1.51-0.224-2.244-0.44c-0.059-0.017-0.135-0.001-0.196,0.021c-0.542,0.197-0.996-0.097-1.54-0.236
		c0.567-0.646,1.22-0.954,2.013-0.837c0.513,0.076,1.029,0.119,1.541,0.194C16.307,27.769,16.808,28.216,17.203,28.911z"/>
	<path class="st29" d="M22.856,27.188c-0.389,0.016-0.642,0.406-1.076,0.351c-0.379-0.048-0.698,0.23-1.052,0.338
		c-0.203,0.062-0.401,0.142-0.6,0.214c-0.25,0.091-0.506,0.172-0.682,0.392c-0.024,0.03-0.06,0.059-0.096,0.069
		c-0.365,0.102-0.725,0.239-1.168,0.215c0.203-0.735,0.584-1.288,1.266-1.571c0.527-0.219,1.067-0.41,1.602-0.61
		c0.704-0.262,1.357-0.078,1.966,0.304c0.026,0.156-0.178,0.167-0.168,0.302C22.849,27.194,22.856,27.188,22.856,27.188z"/>
	<path class="st30" d="M12.005,3.71c0.38-0.165,0.719-0.229,1.047-0.327c0.078-0.024,0.157-0.014,0.233,0.02
		c0.256,0.111,0.521,0.07,0.781,0.029c0.405-0.064,0.809-0.139,1.221-0.141c0.149-0.001,0.302-0.031,0.42-0.108
		c0.42-0.272,0.874-0.13,1.316-0.135c0.131-0.001,0.155,0.082,0.092,0.189c-0.339,0.578-0.823,0.977-1.489,1.092
		c-0.547,0.095-1.103,0.135-1.654,0.208C13.199,4.638,12.554,4.337,12.005,3.71z"/>
	<path class="st12" d="M29.117,16.484c-0.116,0.545,0.042,1.062-0.326,1.497c-0.096,0.114-0.137,0.29-0.163,0.444
		c-0.074,0.432-0.186,0.855-0.298,1.277c-0.035,0.131-0.072,0.263-0.048,0.391c0.101,0.546-0.226,0.957-0.39,1.408
		c-0.148,0.017-0.197-0.07-0.247-0.143c-0.407-0.599-0.594-1.232-0.358-1.957c0.127-0.39,0.202-0.797,0.288-1.198
		C27.754,17.366,28.251,16.821,29.117,16.484z"/>
	<path class="st31" d="M7.157,6.481C7.432,6.295,7.729,6.17,8.055,6.1c0.11-0.024,0.208-0.113,0.306-0.181
		C8.655,5.714,8.942,5.496,9.243,5.3c0.269-0.175,0.541-0.339,0.696-0.639c0.028-0.054,0.09-0.099,0.146-0.129
		c0.303-0.161,0.604-0.327,0.96-0.457c0.08,0.539-0.119,0.976-0.378,1.391c-0.142,0.227-0.34,0.404-0.57,0.548
		C9.702,6.262,9.321,6.528,8.948,6.807C8.286,7.301,7.56,7.314,6.802,7.056c0.064-0.26,0.378-0.314,0.362-0.582
		C7.164,6.474,7.157,6.481,7.157,6.481z"/>
	<path class="st10" d="M4.464,16.012c0,0.32,0.01,0.64-0.002,0.959c-0.027,0.665-0.405,1.136-0.887,1.542
		c-0.101,0.085-0.199,0.028-0.206-0.077c-0.028-0.441-0.256-0.88-0.018-1.326c0.07-0.132,0.066-0.281,0.063-0.43
		c-0.008-0.359-0.018-0.719-0.008-1.078c0.009-0.321,0.027-0.638-0.137-0.933c-0.055-0.099-0.034-0.207-0.018-0.313
		c0.032-0.211,0.063-0.421,0.092-0.632c0.014-0.103-0.01-0.233,0.116-0.271c0.125-0.038,0.18,0.09,0.257,0.157
		c0.536,0.465,0.807,1.043,0.752,1.763C4.45,15.585,4.464,15.799,4.464,16.012z"/>
	<path class="st32" d="M24.061,5.513c0.295,0.18,0.606,0.342,0.773,0.67c0.042,0.294,0.15,0.563,0.357,0.774
		c0.42,0.427,0.789,0.899,1.175,1.354c0.057,0.155,0.181,0.176,0.323,0.162l-0.001-0.002c0.205,0.453,0.186,0.483-0.305,0.486
		c-0.303,0.002-0.605,0.002-0.908,0.003c-0.371-0.358-0.65-0.8-1.041-1.139c-0.164-0.142-0.272-0.316-0.378-0.501
		c-0.257-0.449-0.254-0.933-0.243-1.427C23.819,5.692,24.026,5.668,24.061,5.513z"/>
	<path class="st33" d="M9.727,12.401c0.02,0.1,0.073,0.157,0.183,0.155c0.153-0.002,0.307,0.001,0.46,0.002
		c0.019,0.086-0.032,0.152-0.065,0.223c-0.537,1.154-0.836,2.37-0.995,3.63c-0.08,0.636-0.054,1.271-0.075,1.907
		c-0.117-0.197-0.309-0.179-0.49-0.152c-0.192,0.028-0.102,0.213-0.151,0.322c-0.133-0.482-0.087-0.976-0.048-1.46
		c0.098-1.219,0.322-2.418,0.718-3.578C9.387,13.09,9.503,12.721,9.727,12.401z"/>
	<path class="st34" d="M12.761,30.077c-0.111-0.009-0.238,0.041-0.313-0.091c0.051-0.033,0.077-0.096,0.022-0.121
		c-0.165-0.074-0.336-0.133-0.508-0.189c-0.433-0.141-0.872-0.264-1.276-0.482c-0.072-0.098-0.175-0.073-0.273-0.066l-0.029,0.006
		c0,0-0.02-0.022-0.02-0.022c-0.087-0.099-0.198-0.148-0.329-0.149c-0.173,0.012-0.299-0.069-0.399-0.202
		c-0.052-0.323-0.035-0.347,0.261-0.362c0.585-0.029,1.169,0.06,1.754-0.002c0.558,0.164,1.11,0.353,1.681,0.469
		c0.052,0.011,0.104,0.023,0.153,0.042c0.286,0.114,0.434,0.388,0.365,0.67c-0.072,0.292-0.359,0.483-0.672,0.413
		c-0.167-0.037-0.329-0.04-0.524-0.065C12.704,29.997,12.732,30.037,12.761,30.077z"/>
	<path class="st29" d="M23.813,29.058c-0.082-0.414-0.293-0.529-0.664-0.35c-0.084,0.04-0.156,0.096-0.255,0.078
		c0.023-0.031,0.047-0.062,0.114-0.15c-0.271,0.101-0.485,0.19-0.705,0.259c-0.466,0.146-0.843-0.18-0.755-0.646
		c0.034-0.181,0.145-0.305,0.307-0.388c0.223-0.115,0.442-0.237,0.666-0.35c0.146-0.074,0.266-0.17,0.336-0.321
		c0,0-0.008,0.006-0.008,0.006c0.148,0.071,0.249-0.037,0.363-0.097c0.175-0.091,0.309-0.25,0.507-0.303
		c0.234,0.137,0.492,0.067,0.74,0.082c0.092,0.006,0.186-0.002,0.278,0.002c0.351,0.013,0.381,0.077,0.189,0.394
		c-0.411,0.294-0.823,0.588-1.228,0.878c0.004,0.16,0.232,0.091,0.217,0.256C23.894,28.626,23.957,28.857,23.813,29.058z"/>
	<path class="st35" d="M19.009,18.469c0.235-0.178,0.507-0.155,0.777-0.146c0.441,0.338,0.862,0.705,1.353,0.974
		c0.233,0.127,0.469,0.248,0.732,0.301c0.525,0.107,0.807-0.047,0.984-0.55c0.066-0.187,0.105-0.383,0.156-0.574
		c0.095-0.078,0.079-0.189,0.077-0.29c-0.003-0.168,0.04-0.275,0.24-0.267c0.23,0.009,0.297,0.062,0.313,0.299
		c0.01,0.143,0.012,0.286,0.018,0.429c-0.012,0.312-0.109,0.601-0.245,0.878c-0.317,0.643-0.89,0.918-1.587,0.766
		c-0.328-0.071-0.636-0.192-0.927-0.359C20.202,19.53,19.578,19.035,19.009,18.469z"/>
	<path class="st36" d="M23.659,18.644c-0.006-0.143-0.008-0.286-0.018-0.429c-0.016-0.237-0.083-0.29-0.313-0.299
		c-0.2-0.008-0.243,0.099-0.24,0.267c0.002,0.102,0.018,0.212-0.077,0.29c-0.001-0.093-0.006-0.186-0.001-0.279
		c0.071-1.316-0.116-2.6-0.461-3.868c-0.151-0.554-0.386-1.074-0.579-1.611c0.127,0,0.254,0.001,0.38,0.001
		c0.153,0.001,0.233-0.078,0.249-0.228c0.178,0.223,0.251,0.496,0.341,0.757c0.568,1.636,0.879,3.314,0.782,5.053
		C23.717,18.416,23.743,18.54,23.659,18.644z"/>
	<path class="st37" d="M8.593,18.489c0.05-0.109-0.041-0.293,0.151-0.322c0.181-0.027,0.373-0.045,0.49,0.152
		c0.008,0.075,0.016,0.15,0.025,0.225c-0.022,0.091-0.033,0.18,0.054,0.248c0.023,0.062,0.045,0.125,0.069,0.187
		c0.23,0.596,0.538,0.742,1.152,0.542c0.37-0.121,0.702-0.314,1.016-0.54c0.269-0.193,0.532-0.395,0.798-0.593
		c0.27,0.046,0.573-0.079,0.808,0.153c-0.484,0.5-1.025,0.927-1.618,1.289c-0.308,0.188-0.632,0.343-0.983,0.437
		c-0.947,0.253-1.773-0.316-1.887-1.302c0.023-0.09,0.03-0.176-0.053-0.243C8.609,18.644,8.601,18.566,8.593,18.489z"/>
	<path class="st38" d="M24.833,25.807c-0.114,0.309-0.413,0.41-0.649,0.583c-0.008-0.024-0.01-0.054-0.026-0.072
		c-0.081-0.09-0.207,0.072-0.287-0.05c-0.072-0.109-0.047-0.232-0.056-0.349c-0.059-0.722,0.174-1.331,0.704-1.83
		c0.193-0.182,0.366-0.385,0.548-0.578c0.324,0.021,0.653-0.028,0.973,0.081c0.102,0.035,0.159,0.077,0.17,0.181
		c-0.312,0.414-0.66,0.798-1.016,1.175C24.969,25.189,24.799,25.456,24.833,25.807z"/>
	<path class="st39" d="M8.038,25.868c-0.069-0.194,0.012-0.272,0.205-0.27C8.654,25.6,9.065,25.599,9.477,25.6
		c0.249,0.153,0.515,0.282,0.742,0.462c0.584,0.463,0.863,1.075,0.845,1.889c-0.491-0.252-1.011-0.335-1.284-0.828
		c-0.043-0.078-0.121-0.147-0.199-0.193C9.043,26.609,8.555,26.217,8.038,25.868z"/>
	<path class="st40" d="M21.567,4.464c0.041,0.12,0.199,0.071,0.265,0.201c-0.094,0.086-0.238,0.104-0.344,0.109
		c-0.488,0.025-0.978,0.069-1.466-0.025c-0.232-0.045-0.467-0.082-0.705-0.029C18.7,4.418,18.38,3.897,18.166,3.185
		c0.524,0.116,1.015,0.061,1.388,0.433c0.116,0.115,0.267,0.174,0.418,0.226C20.512,4.03,21.046,4.229,21.567,4.464z"/>
	<path class="st7" d="M11.65,28.396c-0.585,0.062-1.169-0.026-1.754,0.002c-0.295,0.014-0.312,0.039-0.261,0.362
		c-0.249-0.093-0.488-0.2-0.67-0.409c-0.231-0.266-0.265-0.521-0.087-0.752c0.181-0.235,0.457-0.296,0.75-0.138
		c0.375,0.201,0.755,0.392,1.145,0.563C11.065,28.151,11.358,28.272,11.65,28.396z"/>
	<path class="st25" d="M4.114,8.295C4.11,8.493,4.205,8.567,4.403,8.561c0.285-0.009,0.571,0.005,0.856,0.01
		c-0.092,0.128-0.173,0.266-0.28,0.381C4.768,9.179,4.42,9.204,4.193,9.023C3.963,8.84,3.938,8.615,4.114,8.295z"/>
	<path class="st41" d="M6.753,27.125c-0.303-0.415-0.712-0.718-1.103-1.04c0.032-0.08,0.146-0.081,0.165-0.173
		c0.344,0.345,0.722,0.658,1.034,1.035C6.781,26.987,6.777,27.061,6.753,27.125z"/>
	<path class="st34" d="M12.454,29.99c-0.14-0.005-0.293,0.065-0.409-0.074C12.177,29.963,12.337,29.856,12.454,29.99z"/>
	<path class="st33" d="M8.616,18.722c0.083,0.067,0.076,0.153,0.053,0.243C8.599,18.895,8.602,18.81,8.616,18.722z"/>
	<path class="st7" d="M10.413,29.128c0.098-0.006,0.2-0.032,0.273,0.066C10.592,29.183,10.488,29.214,10.413,29.128z"/>
	<path class="st32" d="M25.319,6.574c-0.178-0.057-0.284-0.201-0.401-0.333C25.128,6.26,25.237,6.4,25.319,6.574z"/>
	<path class="st2" d="M27.964,7.678c-0.141-0.111-0.062-0.264-0.074-0.399C28.02,7.393,27.951,7.543,27.964,7.678z"/>
	<path class="st2" d="M26.367,8.312c0.123,0.024,0.238,0.064,0.323,0.162C26.548,8.488,26.424,8.467,26.367,8.312z"/>
	<path class="st33" d="M9.26,18.544c0.074,0.07,0.065,0.159,0.054,0.248C9.226,18.724,9.237,18.635,9.26,18.544z"/>
	<path class="st42" d="M14.459,13.658c0.462,0.609,0.247,1.431-0.462,1.693c-0.197,0.073-0.294,0.175-0.369,0.363
		c-0.185,0.466-0.536,0.71-1.048,0.701c-0.474-0.008-0.851-0.266-1.007-0.755c-0.067-0.21-0.206-0.244-0.366-0.306
		c-0.707-0.276-0.925-1.091-0.458-1.697c0.154,0.14,0.341,0.183,0.543,0.181c0.25-0.002,0.5-0.001,0.751-0.001
		c-0.112,0.137-0.27,0.073-0.409,0.091c-0.266,0.033-0.432,0.174-0.439,0.378c-0.008,0.216,0.174,0.377,0.454,0.403
		c0.512,0.047,0.532,0.066,0.564,0.554c0.019,0.284,0.163,0.457,0.387,0.464c0.228,0.007,0.385-0.162,0.41-0.441
		c0.045-0.497,0.075-0.527,0.562-0.565c0.298-0.023,0.455-0.156,0.459-0.389c0.004-0.228-0.166-0.378-0.446-0.406
		c-0.138-0.014-0.297,0.052-0.406-0.092c0.221,0.001,0.443,0.009,0.664,0.002C14.06,13.828,14.28,13.809,14.459,13.658z"/>
	<path class="st43" d="M14.459,13.658c-0.179,0.151-0.398,0.17-0.617,0.178c-0.221,0.008-0.442-0.001-0.664-0.002
		c-0.137-0.072-0.159-0.2-0.165-0.337c-0.004-0.093-0.002-0.188-0.021-0.277c-0.042-0.192-0.175-0.295-0.366-0.31
		c-0.186-0.015-0.362,0.125-0.401,0.319c-0.018,0.09-0.012,0.185-0.012,0.278c-0.001,0.14-0.027,0.265-0.171,0.33
		c-0.25,0-0.5,0-0.751,0.001c-0.202,0.001-0.388-0.041-0.543-0.181c0.103-0.226,0.318-0.308,0.527-0.373
		c0.154-0.048,0.238-0.102,0.291-0.27c0.157-0.497,0.546-0.778,1.028-0.786c0.495-0.009,0.859,0.243,1.056,0.747
		c0.061,0.156,0.121,0.271,0.309,0.316C14.165,13.339,14.344,13.464,14.459,13.658z"/>
	<path class="st44" d="M20.106,15.669c0.002,0.342-0.314,0.655-0.666,0.656c-0.367,0.002-0.663-0.288-0.664-0.649
		c-0.001-0.366,0.285-0.65,0.659-0.652C19.803,15.021,20.104,15.31,20.106,15.669z"/>
	<path class="st45" d="M18.754,14.336c-0.008,0.364-0.303,0.64-0.676,0.635c-0.365-0.005-0.661-0.306-0.653-0.663
		c0.008-0.346,0.327-0.645,0.682-0.639C18.468,13.675,18.762,13.978,18.754,14.336z"/>
	<path class="st45" d="M20.78,14.971c-0.375-0.005-0.655-0.283-0.653-0.652c0.001-0.366,0.288-0.649,0.658-0.65
		c0.376,0,0.646,0.274,0.645,0.654C21.427,14.704,21.155,14.976,20.78,14.971z"/>
	<path class="st46" d="M18.776,12.98c0-0.356,0.301-0.659,0.658-0.662c0.356-0.003,0.669,0.299,0.673,0.65
		c0.004,0.355-0.297,0.652-0.663,0.654C19.074,13.625,18.776,13.338,18.776,12.98z"/>
</g>
</svg>
