<?xml version="1.0" encoding="utf-8"?>
<!-- Generator: Adobe Illustrator 22.0.1, SVG Export Plug-In . SVG Version: 6.00 Build 0)  -->
<svg version="1.1" id="Layer_1" xmlns="http://www.w3.org/2000/svg" xmlns:xlink="http://www.w3.org/1999/xlink" x="0px" y="0px"
	 viewBox="0 0 223.68 223.68" style="enable-background:new 0 0 223.68 223.68;" xml:space="preserve">
<style type="text/css">
	.st0{fill:#12273A;}
	.st1{fill:#E44B2D;}
</style>
<title>ANT</title>
<path class="st0" d="M111.841,0c-0.001,0-0.001,0-0.002,0C50.071,0-0.001,50.072-0.001,111.84s50.072,111.84,111.84,111.84
	s111.84-50.072,111.84-111.84C223.68,50.073,173.608,0.001,111.841,0z"/>
<g>
	<path class="st1" d="M111.839,28.24c-46.098,0-83.601,37.503-83.601,83.601c0,46.097,37.503,83.6,83.601,83.6
		c46.097,0,83.6-37.503,83.6-83.6C195.438,65.743,157.935,28.24,111.839,28.24z M111.839,182.331
		c-38.869,0-70.492-31.623-70.492-70.491c0-38.87,31.623-70.493,70.492-70.493c38.87,0,70.492,31.623,70.492,70.493
		C182.33,150.709,150.708,182.331,111.839,182.331z"/>
	<path class="st1" d="M111.839,74.312c-20.692,0-37.527,16.835-37.527,37.528c0,11.199,4.938,21.263,12.744,28.144
		c3.774-1.968,7.915-3.497,12.32-4.505c-8.478-4.49-14.269-13.398-14.269-23.638c0-14.74,11.993-26.732,26.732-26.732
		c14.74,0,26.732,11.992,26.732,26.732c0,10.241-5.79,19.15-14.269,23.638c4.406,1.009,8.547,2.537,12.32,4.505
		c7.805-6.881,12.745-16.945,12.745-28.144C149.366,91.147,132.531,74.312,111.839,74.312z"/>
	<path class="st1" d="M111.839,50.409c-33.874,0-61.432,27.557-61.432,61.431c0,17.534,7.396,33.363,19.217,44.565
		c1.974-3.55,4.582-6.811,7.716-9.676c-9.004-8.905-14.595-21.255-14.595-34.889c0-27.071,22.024-49.095,49.095-49.095
		s49.093,22.024,49.093,49.095c0,13.634-5.591,25.983-14.596,34.889c3.135,2.865,5.743,6.126,7.718,9.676
		c11.82-11.202,19.215-27.032,19.215-44.565C173.269,77.966,145.711,50.409,111.839,50.409z"/>
</g>
</svg>
