<svg xmlns="http://www.w3.org/2000/svg" xmlns:xlink="http://www.w3.org/1999/xlink" viewBox="0 0 2000 2000"><defs><style>.cls-1{fill:url(#radial-gradient);}.cls-2{fill:#fff;}</style><radialGradient id="radial-gradient" cx="838.04" cy="804.11" r="1295.13" gradientUnits="userSpaceOnUse"><stop offset="0" stop-color="#3eed58"/><stop offset="0.68" stop-color="#26bc34"/><stop offset="1" stop-color="#00aa10"/></radialGradient></defs><g id="Layer_2" data-name="Layer 2"><g id="Layer_1-2" data-name="Layer 1"><circle class="cls-1" cx="1000" cy="1000" r="1000"/><path class="cls-2" d="M1426.62,1043.8c74.51-97.74,63.59-209.49,2.82-287.33-55.48-71-181.14-133.32-227.22-152.3,10.13-6.73,37-21.2,59.43-29.13-164.88-34-322.47,10.39-322.47,10.39,120.1,66.33,197.35,149.82,223.35,180-1.54-25.82-7.11-61.84-7.11-61.84s118.65,39.36,211.09,132c55.81,56,52.59,119.76,34.31,173.66C1232.38,810,855,784.26,855,602.91c0-106.26,102.77-141.1,207.3-141.1,127.17,0,219.49,24.39,306.59,90.58h0c26.87,21.48,99.72,63.07,95.62,143.29,9.7-21.31,33.24-94.77-55.56-179.87h0a43.14,43.14,0,0,0-3.41-3c-81.33-70.38-183.82-138.14-367.64-138.14-310.08,0-475.58,137.62-475.58,334.47,0,72.82,20.14,130.15,53.2,176.82-70,96.4-58.35,205.43,1.28,281.8,55.48,71,181.14,133.32,227.22,152.3-10.13,6.73-37,21.2-59.44,29.14,164.89,34,322.48-10.4,322.48-10.4-120.1-66.33-197.35-149.81-223.35-180,1.54,25.82,7.11,61.84,7.11,61.84s-118.65-39.36-211.09-132c-54-54.15-52.74-115.65-36-168.41,170.42,179.86,549.24,182.25,549.24,399.63,0,75.42-93.72,135.73-253.74,121.88-75.35-6.53-150.68-25.73-217.43-51.56a21.55,21.55,0,0,0-28.06,12.64h0a21.52,21.52,0,0,0,11.4,27,724.34,724.34,0,0,0,97,35.53,15.66,15.66,0,0,1,10.77,19.24h0a15.71,15.71,0,0,1-19.2,11c-70.95-18.87-141.89-54.94-199.27-94.76a17.75,17.75,0,1,0-20.3,29.13c60.9,42.55,141,81,211.21,99.65a15,15,0,0,1,10.77,18.11h0a15,15,0,0,1-18.67,10.85,652.26,652.26,0,0,1-134.81-54.34,18,18,0,0,0-24.87,8.12h0a18,18,0,0,0,7.18,23.18c92,54,212.72,91.65,357.21,91.65,273.5,0,498.23-146.33,498.23-395.44C1480.36,1156,1460,1094.75,1426.62,1043.8Z"/><path class="cls-2" d="M584.21,1468.46c-35-20.53-66.16-46.55-66.69-47a20.16,20.16,0,0,0-25.93,30.88c1.37,1.15,34.08,28.51,72.22,50.89a20.16,20.16,0,1,0,20.4-34.78Z"/><path class="cls-2" d="M529.38,1392.07a20.16,20.16,0,0,0,12.81-35.74c-31.35-25.77-58.05-56.34-58.51-56.86a20.16,20.16,0,1,0-30.45,26.43c1.18,1.35,29.19,33.5,63.36,61.58A20.09,20.09,0,0,0,529.38,1392.07Z"/><path class="cls-2" d="M587.14,1357.48c.73.65,18.49,16,56.8,38.5a20.16,20.16,0,0,0,20.41-34.78c-34.6-20.3-50.58-34-50.73-34.13a20.16,20.16,0,0,0-26.48,30.41Z"/></g></g></svg>