<svg id="Layer_1" data-name="Layer 1" xmlns="http://www.w3.org/2000/svg" viewBox="0 0 31.693 31.653"><defs><style>.cls-1{fill:#fff;}.cls-2{fill:#35b629;}.cls-3{fill:#fef554;}</style></defs><title>cof</title><circle class="cls-1" cx="15.793" cy="15.756" r="15.504"/><path class="cls-2" d="M16,.179C24.473-.055,31.959,7.319,31.845,16.2A16.029,16.029,0,0,1,15.487,31.82,16.038,16.038,0,0,1,.155,15.693C.279,7.272,7.5-.047,16,.179ZM30.685,16.023a14.693,14.693,0,1,0-14.751,14.69A14.7,14.7,0,0,0,30.685,16.023Z" transform="translate(-0.153 -0.173)"/><path class="cls-2" d="M29.859,16.015A13.867,13.867,0,1,1,15.987,2.153,13.9,13.9,0,0,1,29.859,16.015ZM16.337,27.052a4.893,4.893,0,0,0,1.378-.13A9.036,9.036,0,0,0,21.027,25.3a10.136,10.136,0,0,0,2.213-2.345,10.857,10.857,0,0,0,1.089-1.97,12.78,12.78,0,0,0,1.008-4.555,12.048,12.048,0,0,0-.035-1.446,12.186,12.186,0,0,0-1.423-4.946,11.216,11.216,0,0,0-2.3-2.948,8.955,8.955,0,0,0-2.6-1.625,8.041,8.041,0,0,0-2.945-.6,8.692,8.692,0,0,0-1.258.1,7.5,7.5,0,0,0-2.3.7,9.067,9.067,0,0,0-2.819,2.09A11.164,11.164,0,0,0,8.2,9.713,12.514,12.514,0,0,0,6.564,15.4a11.883,11.883,0,0,0,.16,2.651,12.152,12.152,0,0,0,1.227,3.7,10.632,10.632,0,0,0,2.724,3.387,8.751,8.751,0,0,0,2.672,1.513A8.626,8.626,0,0,0,16.337,27.052Z" transform="translate(-0.153 -0.173)"/><path class="cls-3" d="M16.337,27.052a8.626,8.626,0,0,1-2.99-.405,8.751,8.751,0,0,1-2.672-1.513,10.632,10.632,0,0,1-2.724-3.387,12.152,12.152,0,0,1-1.227-3.7,11.883,11.883,0,0,1-.16-2.651A12.514,12.514,0,0,1,8.2,9.713a11.164,11.164,0,0,1,1.455-1.96,9.067,9.067,0,0,1,2.819-2.09,7.5,7.5,0,0,1,2.3-.7,8.692,8.692,0,0,1,1.258-.1,8.041,8.041,0,0,1,2.945.6,8.955,8.955,0,0,1,2.6,1.625,11.216,11.216,0,0,1,2.3,2.948A12.186,12.186,0,0,1,25.3,14.983a12.048,12.048,0,0,1,.035,1.446,12.78,12.78,0,0,1-1.008,4.555,10.857,10.857,0,0,1-1.089,1.97A10.136,10.136,0,0,1,21.027,25.3a9.036,9.036,0,0,1-3.312,1.623A4.893,4.893,0,0,1,16.337,27.052ZM15.765,5.129c.115.147.2.26.291.371a7.521,7.521,0,0,1,1.678,4.142,8.158,8.158,0,0,1-.423,3.341,15.388,15.388,0,0,1-1.73,3.313A14.144,14.144,0,0,0,14.07,19.51a11.947,11.947,0,0,0-.536,2.425,10.263,10.263,0,0,0,.024,2.465,9.826,9.826,0,0,0,.6,2.105.163.163,0,0,0,.147.11,6.71,6.71,0,0,0,1.8.18.945.945,0,0,0-.072-.156A5.509,5.509,0,0,1,14.983,23.6a9.362,9.362,0,0,1,.609-3.857,17.3,17.3,0,0,1,1.646-3.273,12.533,12.533,0,0,0,1.85-4.371,9.211,9.211,0,0,0,.074-3.239A9.281,9.281,0,0,0,18.1,5.835c-.058-.1-.129-.2-.083-.327s-.053-.118-.124-.136A7.462,7.462,0,0,0,15.765,5.129Z" transform="translate(-0.153 -0.173)"/><path class="cls-2" d="M15.765,5.129a7.462,7.462,0,0,1,2.124.243c.071.018.167.016.124.136s.025.222.083.327a9.281,9.281,0,0,1,1.066,3.029,9.211,9.211,0,0,1-.074,3.239,12.533,12.533,0,0,1-1.85,4.371,17.3,17.3,0,0,0-1.646,3.273,9.362,9.362,0,0,0-.609,3.857,5.509,5.509,0,0,0,1.042,3.035.945.945,0,0,1,.072.156,6.71,6.71,0,0,1-1.8-.18.163.163,0,0,1-.147-.11,9.826,9.826,0,0,1-.6-2.105,10.263,10.263,0,0,1-.024-2.465,11.947,11.947,0,0,1,.536-2.425A14.144,14.144,0,0,1,15.581,16.3a15.388,15.388,0,0,0,1.73-3.313,8.158,8.158,0,0,0,.423-3.341A7.521,7.521,0,0,0,16.056,5.5C15.966,5.389,15.88,5.276,15.765,5.129Z" transform="translate(-0.153 -0.173)"/></svg>