<?xml version="1.0" encoding="utf-8"?>
<!-- Generator: Adobe Illustrator 22.0.1, SVG Export Plug-In . SVG Version: 6.00 Build 0)  -->
<svg version="1.1" id="Layer_1" xmlns="http://www.w3.org/2000/svg" xmlns:xlink="http://www.w3.org/1999/xlink" x="0px" y="0px"
	 viewBox="0 0 32 32" style="enable-background:new 0 0 32 32;" xml:space="preserve">
<style type="text/css">
	.st0{fill:url(#SVGID_1_);}
</style>
<circle cx="16" cy="16" r="16"/>
<linearGradient id="SVGID_1_" gradientUnits="userSpaceOnUse" x1="5.1219" y1="22.4917" x2="27.4275" y2="14.3441" gradientTransform="matrix(1 0 0 -1 0 34)">
	<stop  offset="0" style="stop-color:#7CCCC1"/>
	<stop  offset="1" style="stop-color:#61995E"/>
</linearGradient>
<path class="st0" d="M25.2,12.5l-1.6-1.6c-0.5-0.5-1.1-0.7-1.8-0.7h-0.2V9.9c0-0.4-0.1-0.9-0.3-1.2c-0.1-0.2-0.3-0.4-0.4-0.6
	l-1.6-1.6c-0.5-0.5-1.1-0.7-1.8-0.7h-7.2C9.5,5.8,8.9,6,8.4,6.5L6.8,8.1C6.4,8.6,6.1,9.2,6.1,9.9l0,6.8c0,0.7,0.3,1.3,0.7,1.8
	l1.6,1.6c0.5,0.5,1.1,0.7,1.8,0.7h0.3v0.2c0,0.4,0.1,0.9,0.3,1.2c0.1,0.2,0.3,0.4,0.4,0.6l0,0l1.6,1.6c0.5,0.5,1.1,0.7,1.8,0.7h7.2
	c0.7,0,1.3-0.3,1.8-0.7l1.6-1.6c0.5-0.5,0.7-1.1,0.7-1.8v-6.8C25.9,13.6,25.7,13,25.2,12.5z M10.2,18.5c-0.1,0-0.1,0-0.2-0.1
	l-0.8-0.8l-0.8-0.8c0,0,0,0,0,0c0,0,0-0.1,0-0.1c0,0,0,0,0-0.1V9.9c0-0.1,0-0.1,0.1-0.2L10,8.2c0,0,0,0,0.1,0c0,0,0.1,0,0.1,0h7.2
	c0,0,0.1,0,0.1,0c0,0,0,0,0.1,0l1.6,1.6c0,0,0,0,0.1,0.1c0,0,0,0,0,0l0,0c0,0,0,0,0,0c0,0,0,0,0,0.1v0.3c0,0.1-0.1,0.3-0.3,0.3h-1.3
	c-0.1,0-0.1,0-0.2-0.1l-0.7-0.7h-6.1L10.5,10l-0.4,0.4v5.9l0.6,0.6h6.1l0.7-0.7c0,0,0,0,0,0c0,0,0,0,0.1,0c0,0,0.1,0,0.1,0H19
	c0.1,0,0.2,0,0.2,0.1c0,0,0,0.1,0,0.2v0.4c0,0.1,0,0.1-0.1,0.2l-0.8,0.8l-0.8,0.8l0,0c0,0,0,0,0,0c0,0,0,0,0,0c0,0,0,0,0,0
	c0,0,0,0,0,0c0,0,0,0,0,0c0,0,0,0,0,0c0,0,0,0,0,0c0,0,0,0,0,0L10.2,18.5L10.2,18.5z M23.7,21.1c0,0.1,0,0.1-0.1,0.2L22,22.8
	c0,0,0,0-0.1,0c0,0-0.1,0-0.1,0h-7.2c0,0-0.1,0-0.1,0c0,0,0,0-0.1,0l-1.6-1.6c0,0,0,0-0.1-0.1c0,0,0,0,0,0l0,0c0,0,0,0,0,0
	c0,0,0,0,0-0.1v-0.3c0-0.1,0.1-0.3,0.3-0.3h1.3c0.1,0,0.1,0,0.2,0.1l0.7,0.7h6.1l0.3-0.3l0.4-0.4v-5.9l-0.6-0.6h-6.1l-0.7,0.7
	c0,0,0,0,0,0c0,0,0,0-0.1,0c0,0-0.1,0-0.1,0H13c-0.1,0-0.2,0-0.2-0.1c0,0,0-0.1,0-0.2v-0.4c0-0.1,0-0.1,0.1-0.2l0.8-0.8l0.8-0.8l0,0
	c0,0,0,0,0,0c0,0,0,0,0,0c0,0,0,0,0,0c0,0,0,0,0,0c0,0,0,0,0,0c0,0,0,0,0,0c0,0,0,0,0,0c0,0,0,0,0,0h7.2c0.1,0,0.1,0,0.2,0.1
	l0.8,0.8l0.8,0.8c0,0,0,0,0,0c0,0,0,0.1,0,0.1c0,0,0,0,0,0.1C23.7,14.3,23.7,21.1,23.7,21.1z"/>
</svg>
