<?xml version="1.0" encoding="utf-8"?>
<!-- Generator: Adobe Illustrator 25.3.1, SVG Export Plug-In . SVG Version: 6.00 Build 0)  -->
<svg version="1.1" id="Layer_1" xmlns="http://www.w3.org/2000/svg" xmlns:xlink="http://www.w3.org/1999/xlink" x="0px" y="0px"
	 viewBox="0 0 32 32" style="enable-background:new 0 0 32 32;" xml:space="preserve">
<style type="text/css">
	.st0{fill:#070A0E;}
	.st1{fill-rule:evenodd;clip-rule:evenodd;fill:#00D395;}
</style>
<path class="st0" d="M16,31.4c8.505,0,15.4-6.895,15.4-15.4S24.505,0.6,16,0.6S0.6,7.495,0.6,16S7.495,31.4,16,31.4z"/>
<path class="st1" d="M9.497,21.164c-0.46-0.282-0.742-0.782-0.742-1.321v-3.009c0-0.357,0.291-0.647,0.648-0.645
	c0.114,0,0.226,0.031,0.325,0.088l6.79,3.959c0.397,0.231,0.642,0.656,0.642,1.116v3.117c0.002,0.428-0.345,0.776-0.773,0.776
	c-0.143,0-0.285-0.04-0.407-0.114L9.497,21.164z M19.617,15.452c0.397,0.231,0.641,0.658,0.642,1.116v6.326
	c0,0.186-0.1,0.359-0.263,0.45L18.51,24.18c-0.018,0.011-0.038,0.018-0.06,0.025v-3.513c0-0.454-0.239-0.876-0.63-1.11l-5.963-3.567
	V12.05c0-0.357,0.291-0.647,0.648-0.645c0.114,0,0.226,0.031,0.325,0.088L19.617,15.452z M22.59,10.779
	c0.399,0.231,0.644,0.658,0.644,1.118v9.24c-0.002,0.189-0.106,0.363-0.273,0.454l-1.409,0.761V15.92
	c0-0.454-0.239-0.875-0.627-1.109l-6.095-3.656V7.394c0-0.114,0.031-0.226,0.086-0.325c0.18-0.308,0.576-0.413,0.884-0.234
	L22.59,10.779z"/>
</svg>
