<?xml version="1.0" encoding="utf-8"?>
<!-- Generator: Adobe Illustrator 26.2.1, SVG Export Plug-In . SVG Version: 6.00 Build 0)  -->
<svg version="1.1" id="Layer_1" xmlns="http://www.w3.org/2000/svg" xmlns:xlink="http://www.w3.org/1999/xlink" x="0px" y="0px"
	 viewBox="0 0 32 32" style="enable-background:new 0 0 32 32;" xml:space="preserve">
<style type="text/css">
	.st0{fill:#01AD08;}
	.st1{fill:#FBFDFB;}
</style>
<g>
	<circle class="st0" cx="15.986" cy="16.014" r="15.764"/>
	<path class="st1" d="M18.366,20.952c1.415,0,2.648,0.011,3.88-0.007c0.308-0.004,0.4,0.078,0.388,0.388
		c-0.025,0.632-0.018,1.265-0.002,1.898c0.006,0.26-0.074,0.344-0.338,0.339c-2.746-0.055-5.498,0.141-8.237-0.109
		c-2.226-0.203-4.176-1.017-5.367-3.055c-0.916-1.568-1.056-3.302-0.908-5.072c0.073-0.865,0.248-1.709,0.612-2.504
		c0.978-2.136,2.76-3.147,4.978-3.538c1.503-0.265,3.02-0.161,4.533-0.164c1.365-0.002,2.731,0.046,4.096,0.035
		c0.391-0.003,0.474,0.122,0.454,0.481c-0.031,0.548-0.035,1.1,0.001,1.647c0.026,0.394-0.124,0.464-0.482,0.462
		c-2.181-0.013-4.363-0.002-6.544,0.002c-0.534,0.001-1.058,0.073-1.579,0.196c-1.507,0.356-2.453,1.268-2.781,2.787
		c-0.228,1.054-0.242,2.12-0.001,3.17c0.42,1.83,1.708,2.84,3.688,2.984C16.02,20.983,17.285,20.932,18.366,20.952z"/>
</g>
</svg>
