<svg id="Layer_1" data-name="Layer 1" xmlns="http://www.w3.org/2000/svg" viewBox="0 0 32 32"><defs><style>.cls-1{fill:#f9bb0d;}</style></defs><title>cryp</title><circle cx="16" cy="16" r="16"/><path class="cls-1" d="M16.067,29.742a13.824,13.824,0,0,0,11.818-6.891c.092-.157.089-.155-.052-.285a1.6,1.6,0,0,1,.714-2.783,1.6,1.6,0,1,1,.359,3.163.341.341,0,0,0-.326.206,14.573,14.573,0,0,1-5.527,5.494,14.146,14.146,0,0,1-8.437,1.778,14.981,14.981,0,0,1-5.007-1.43.231.231,0,0,0-.283.02,1.524,1.524,0,0,1-1.652.179,1.561,1.561,0,0,1-.923-1.387,1.159,1.159,0,0,1,.048-.423.2.2,0,0,0-.09-.252,13.8,13.8,0,0,1-1.545-1.474,14,14,0,0,1-3.091-5.674,15,15,0,0,1-.524-3.2,14.449,14.449,0,0,1,1.044-6.335A13.787,13.787,0,0,1,5.441,6.091,15.11,15.11,0,0,1,6.774,4.857c.136-.112.134-.113.076-.279A1.6,1.6,0,0,1,9.476,2.893c.158.153.113.143.3.05a14.348,14.348,0,0,1,4.276-1.3,13.4,13.4,0,0,1,3.494-.03,14.834,14.834,0,0,1,7.226,2.919,14.008,14.008,0,0,1,3.707,4.15c.06.1.108.18.259.163a1.6,1.6,0,1,1-1.438,1.9A1.56,1.56,0,0,1,27.747,9.3c.133-.138.167-.1.038-.317A13.539,13.539,0,0,0,23.17,4.345a13.935,13.935,0,0,0-5.073-1.9,13.111,13.111,0,0,0-7.228.835c-.264.107-.52.234-.782.344a.2.2,0,0,0-.146.242,1.506,1.506,0,0,1-.173.909A1.6,1.6,0,0,1,7.58,5.43c-.19-.1-.192-.1-.362.036A13.273,13.273,0,0,0,2.56,13.132,13.571,13.571,0,0,0,2.3,16.789a13.773,13.773,0,0,0,2.248,6.844,13.127,13.127,0,0,0,2.562,2.853c.154.129.126.1.261,0a1.6,1.6,0,0,1,2.549.941,1.537,1.537,0,0,1-.008.678c-.04.175-.039.177.121.254A13.9,13.9,0,0,0,13.1,29.417,13.414,13.414,0,0,0,16.067,29.742ZM28.029,10.424a.842.842,0,1,0,.844-.84A.844.844,0,0,0,28.029,10.424ZM8.339,4.874A.85.85,0,0,0,9.2,4.029a.847.847,0,0,0-1.693-.007A.843.843,0,0,0,8.339,4.874ZM29.712,21.343a.841.841,0,1,0-.83.851A.843.843,0,0,0,29.712,21.343ZM8.364,26.905a.844.844,0,0,0-.854.828.846.846,0,1,0,.854-.828Z"/><path class="cls-1" d="M15.989,5.269A10.881,10.881,0,0,1,23.2,8.09a7.435,7.435,0,0,1,.712.708.225.225,0,0,0,.26.081,1.6,1.6,0,1,1-1.2,1.836A1.569,1.569,0,0,1,23.243,9.5c.126-.177.127-.177-.029-.339a10.173,10.173,0,0,0-2.172-1.72,10.041,10.041,0,0,0-4.085-1.357,9.443,9.443,0,0,0-4.568.642A10.116,10.116,0,0,0,7.573,10.64a9.446,9.446,0,0,0-1.4,3.624c-.031.186-.028.185.141.259A1.558,1.558,0,0,1,7.3,15.754a1.587,1.587,0,0,1-.943,1.722c-.2.089-.2.089-.166.3A9.549,9.549,0,0,0,8.6,22.7a9.957,9.957,0,0,0,5.853,3.155,9.611,9.611,0,0,0,5.4-.677A10.131,10.131,0,0,0,23.263,22.8c.039-.041.079-.082.117-.125.1-.117.1-.117,0-.237a1.6,1.6,0,1,1,1.4.488,1.174,1.174,0,0,1-.446,0,.235.235,0,0,0-.258.1,10.713,10.713,0,0,1-2.748,2.254,10.683,10.683,0,0,1-14.4-3.517,10.41,10.41,0,0,1-1.505-4.013.249.249,0,0,0-.2-.23,1.6,1.6,0,0,1,.008-3.036.236.236,0,0,0,.187-.217,10.44,10.44,0,0,1,5.362-7.63A10.489,10.489,0,0,1,14.67,5.357C15.1,5.3,15.536,5.289,15.989,5.269ZM23.7,21.358a.841.841,0,1,0,.846-.857A.838.838,0,0,0,23.7,21.358Zm0-10.924a.841.841,0,1,0,.831-.85A.84.84,0,0,0,23.7,10.434ZM5.747,15.168a.843.843,0,0,0-.876.826.853.853,0,0,0,.831.855.841.841,0,0,0,.045-1.681Z"/><path class="cls-1" d="M30.38,16c0,.634,0,1.268,0,1.9a.449.449,0,0,1-.123.351.353.353,0,0,1-.251.1h-.941a.442.442,0,0,1-.241-.075c-.2-.117-.4-.226-.589-.348a.288.288,0,0,0-.317-.016c-.253.13-.515.244-.771.37a.7.7,0,0,1-.329.071c-.186,0-.372-.012-.556,0a1.674,1.674,0,0,1-.866-.178c-.212-.1-.435-.18-.648-.278a.337.337,0,0,0-.34.006c-.236.132-.485.241-.726.365a.7.7,0,0,1-.348.083c-.2,0-.4,0-.6,0s-.2,0-.272.193a6.922,6.922,0,0,1-5.415,4.333,6.788,6.788,0,0,1-6.121-2.09,6.7,6.7,0,0,1-1.844-3.8,6.961,6.961,0,0,1,3.76-7.2,6.7,6.7,0,0,1,2.726-.73,6.857,6.857,0,0,1,5.482,2.17,6.654,6.654,0,0,1,1.407,2.226c.091.231.073.2.289.2,2.352,0,4.7.006,7.056,0,.434,0,.592.142.58.58C30.368,14.817,30.38,15.409,30.38,16Zm-.757.018c0-.449,0-.9,0-1.347,0-.292.03-.263-.262-.263H22.433c-.385,0-.451-.048-.574-.4A6.21,6.21,0,0,0,9.81,16.714a6.218,6.218,0,0,0,6.973,5.444,6,6,0,0,0,4.01-2.224,6.071,6.071,0,0,0,1.082-1.976c.095-.284.183-.347.483-.348.257,0,.514,0,.77,0a.746.746,0,0,0,.368-.088c.279-.143.562-.278.842-.418a.483.483,0,0,1,.432-.01c.215.095.441.167.648.276a2.168,2.168,0,0,0,1.238.238h.021a.5.5,0,0,0,.267-.062c.307-.149.618-.292.926-.441a.47.47,0,0,1,.486.023c.193.121.4.222.587.35a.79.79,0,0,0,.524.131c.15-.011.154-.007.155-.16C29.624,16.974,29.623,16.5,29.623,16.019Z"/><path class="cls-1" d="M11.65,16a1.6,1.6,0,1,1,3.2.025A1.6,1.6,0,0,1,11.65,16Zm1.593-.832a.825.825,0,0,0-.834.84.842.842,0,1,0,.834-.84Z"/></svg>