<?xml version="1.0" encoding="utf-8"?>
<!-- Generator: Adobe Illustrator 25.2.3, SVG Export Plug-In . SVG Version: 6.00 Build 0)  -->
<svg version="1.1" id="Layer_1" xmlns="http://www.w3.org/2000/svg" xmlns:xlink="http://www.w3.org/1999/xlink" x="0px" y="0px"
	 viewBox="0 0 32 32" style="enable-background:new 0 0 32 32;" xml:space="preserve">
<style type="text/css">
	.st0{fill-rule:evenodd;clip-rule:evenodd;fill:#840707;}
	.st1{fill:#FFFFFF;}
	.st2{fill:#840707;}
</style>
<g>
	<circle class="st0" cx="16" cy="16" r="16"/>
	<rect x="6.852" y="6.333" class="st1" width="19.667" height="18.741"/>
	<g>
		<polygon class="st2" points="17.167,18.825 18.361,20.361 18.135,17.534 		"/>
		<polygon class="st2" points="18.431,16.287 22.996,14.512 10.878,11.265 		"/>
		<path class="st2" d="M16.512,18.616l1.413-1.884l-8.048-5.351l4.806,9.675l1.82-2.426C16.505,18.625,16.508,18.62,16.512,18.616z"
			/>
		<path class="st2" d="M27.076,4.613H4.924L3.217,25.61h25.567L27.076,4.613z M24.158,14.759l-0.118-0.304L24.158,14.759
			l-5.423,2.108l0.362,4.528l0,0c0.014,0.179-0.12,0.337-0.299,0.351c-0.118,0.009-0.226-0.045-0.291-0.135l-1.746-2.245
			l-1.859,2.479c-0.031,0.05-0.076,0.092-0.132,0.12c-0.161,0.08-0.357,0.014-0.437-0.147l0.292-0.145l-0.292,0.144l-5.57-11.214
			c-0.006-0.01-0.01-0.021-0.014-0.031c-0.002-0.005-0.004-0.009-0.006-0.014c-0.006-0.015-0.01-0.03-0.014-0.046
			c-0.001-0.005-0.002-0.009-0.003-0.014c-0.003-0.015-0.004-0.031-0.005-0.047c0-0.005-0.001-0.011-0.001-0.016
			c0-0.015,0.002-0.029,0.004-0.044c0.001-0.007,0.002-0.014,0.003-0.021c0.001-0.006,0.001-0.011,0.003-0.017
			c0.002-0.009,0.007-0.017,0.01-0.025c0.002-0.006,0.004-0.012,0.007-0.018c0.007-0.015,0.014-0.03,0.023-0.043
			c0.002-0.003,0.003-0.006,0.004-0.008c0.001-0.002,0.003-0.003,0.004-0.005c0.01-0.014,0.02-0.027,0.032-0.039
			c0.003-0.004,0.007-0.007,0.01-0.011c0.012-0.011,0.024-0.021,0.037-0.03c0.004-0.003,0.008-0.006,0.013-0.009
			c0.013-0.009,0.027-0.016,0.042-0.022c0.005-0.002,0.009-0.004,0.014-0.006c0.015-0.006,0.03-0.01,0.046-0.014
			c0.004-0.001,0.009-0.002,0.013-0.003C9,10.115,9.015,10.113,9.031,10.113c0.005,0,0.01-0.001,0.016-0.001
			c0.015,0,0.03,0.002,0.045,0.004c0.007,0.001,0.013,0.002,0.02,0.003c0.006,0.001,0.011,0.001,0.017,0.003l0,0l14.979,4.014
			c0.104,0.022,0.194,0.094,0.236,0.201C24.409,14.504,24.325,14.693,24.158,14.759z"/>
	</g>
</g>
</svg>
