<?xml version="1.0" encoding="utf-8"?>
<!-- Generator: Adobe Illustrator 26.2.1, SVG Export Plug-In . SVG Version: 6.00 Build 0)  -->
<svg version="1.1" id="Layer_1" xmlns="http://www.w3.org/2000/svg" xmlns:xlink="http://www.w3.org/1999/xlink" x="0px" y="0px"
	 viewBox="0 0 32 32" style="enable-background:new 0 0 32 32;" xml:space="preserve">
<style type="text/css">
	.st0{fill-rule:evenodd;clip-rule:evenodd;fill:#CB3524;}
	.st1{fill:#FFFFFF;}
</style>
<g>
	<circle class="st0" cx="16" cy="16" r="16"/>
	<g>
		<path class="st1" d="M26.023,20.841c-0.01-0.248-0.14-0.439-0.304-0.609c-1.263-1.317-2.52-2.64-3.796-3.944
			c-0.658-0.673-1.518-0.946-2.419-1.112c-0.354-0.165-0.743-0.145-1.116-0.186c-0.806-0.087-1.598,0.04-2.378,0.245
			c-0.802,0.186-1.551,0.497-2.245,0.94c-0.53,0.307-0.993,0.694-1.399,1.151c-0.552,0.56-1.008,1.188-1.324,1.912
			c-0.2,0.345-0.325,0.719-0.415,1.106c-0.189,0.732-0.126,1.463,0.105,2.165c0.777,2.361,2.345,4.003,4.651,4.909
			c1.511,0.594,3.081,0.742,4.683,0.401c0.451-0.088,0.896-0.2,1.316-0.395c0.097-0.015,0.058-0.062,0.035-0.119
			c-0.189-0.464-0.429-0.899-0.708-1.316c-0.642-0.959-1.533-1.641-2.474-2.277c-0.639-0.433-1.246-0.909-1.482-1.7
			c0.003-0.204,0.006-0.409,0.008-0.613c0.039-0.241,0.184-0.433,0.299-0.639c0.142-0.156,0.283-0.311,0.425-0.467
			c0.262-0.169,0.526-0.335,0.786-0.507c0.212-0.14,0.319-0.154,0.392,0.157c0.246,1.049,1.378,1.772,2.173,1.704
			c1.009-0.086,1.954,0.07,2.902,0.373c0.296,0.095,0.556,0.299,0.883,0.299c0.054,0.051,0.093-0.001,0.137-0.021
			c0.309-0.116,0.558-0.337,0.846-0.489c0.104-0.036,0.162-0.116,0.205-0.211c0.125-0.106,0.204-0.234,0.196-0.405
			C26.105,21.08,26.108,20.962,26.023,20.841z"/>
		<path class="st1" d="M16.421,12.802c-0.981,0.222-1.898,0.593-2.723,1.177c-0.467,0.291-0.899,0.625-1.261,1.043
			c-0.544,0.567-1.015,1.186-1.332,1.912c-0.271,0.425-0.397,0.906-0.534,1.384c-0.17,0.577-0.202,1.167-0.154,1.772
			c0.24-1.033,0.742-1.927,1.378-2.753c0.331-0.345,0.661-0.689,0.992-1.034c0.554-0.409,1.114-0.808,1.749-1.086
			c0.87-0.397,1.787-0.606,2.736-0.69c0.856-0.005,1.708-0.008,2.547,0.221c0.592,0.162,1.142,0.422,1.711,0.639
			c0-0.001,0-0.002,0-0.003c0.042,0.093,0.086,0.079,0.132,0.002c0.056-0.011,0.083-0.047,0.085-0.103
			c0.164-0.166,0.234-0.379,0.296-0.596c0.067-0.14,0.043-0.288,0.04-0.434c-0.077-0.68-0.6-1.152-1.473-1.326
			c-0.052-0.049-0.113-0.071-0.185-0.056c-0.188-0.047-0.377-0.094-0.566-0.141c-0.787-0.23-1.594-0.148-2.391-0.124
			C17.123,12.617,16.754,12.653,16.421,12.802z"/>
		<path class="st1" d="M8.29,13.786c0.207,0.138,0.323,0.138,0.441-0.115c0.141-0.303,0.332-0.582,0.509-0.867
			c0.14-0.225,0.426-0.461,0.4-0.659c-0.026-0.193-0.364-0.348-0.569-0.513c-0.515-0.416-1.031-0.83-1.552-1.238
			c-0.07-0.055-0.192-0.254-0.248,0.023c-0.121,0.136-0.132,0.319-0.204,0.476c-0.012,0.162-0.031,0.323-0.035,0.485
			C7,12.415,7.428,13.211,8.29,13.786z"/>
		<path class="st1" d="M9.921,11.846c0.443-0.452,0.885-0.905,1.328-1.357c0.096-0.045,0.152-0.085,0.058-0.2
			c-0.71-0.866-1.414-1.737-2.132-2.621C8.999,7.908,8.78,8.089,8.734,8.38c-0.15,0.101-0.123,0.283-0.193,0.421
			C8.529,8.919,8.516,9.038,8.504,9.156c-0.086,0.181-0.077,0.361,0,0.542C8.566,10.685,9.125,11.344,9.921,11.846z"/>
		<path class="st1" d="M7.791,16.214c0.185-0.628,0.331-1.262,0.601-1.852c0.084-0.183-0.054-0.165-0.129-0.202
			c-0.481-0.234-0.96-0.474-1.451-0.685c-0.193-0.083-0.424-0.334-0.588-0.186c-0.156,0.141-0.139,0.451-0.151,0.695
			c-0.002,0.035,0,0.07,0.005,0.105C6.211,15.142,6.738,15.881,7.791,16.214z"/>
		<path class="st1" d="M17.847,8.948c-0.545,0.063-1.103,0.029-1.633,0.211c-0.119,0.045-0.003,0.087,0.001,0.13
			c0,0,0.001,0.003,0.001,0.003c0.024,0.158,0.04,0.318,0.073,0.475c0.133,0.631,0.209,1.275,0.411,1.891
			c0.221,0.05,0.423-0.084,0.64-0.067c0.107-0.01,0.215-0.02,0.322-0.029c0.146-0.03,0.374,0.093,0.373-0.208
			c-0.002-0.73-0.003-1.46,0-2.19C18.037,9.026,18.006,8.93,17.847,8.948z"/>
		<path class="st1" d="M11.943,11.13c-0.352,0.307-0.739,0.576-1.021,0.959c-0.038,0.152-0.415,0.204-0.178,0.419
			c0.499,0.453,1.033,0.868,1.554,1.296c0.031,0.025,0.062,0.009,0.075-0.031c0.114-0.091,0.228-0.182,0.342-0.273
			c0.129-0.097,0.249-0.21,0.389-0.286c0.321-0.175,0.32-0.35,0.075-0.61C12.74,12.136,12.419,11.569,11.943,11.13z"/>
		<path class="st1" d="M10.324,12.807c-0.215,0.331-0.454,0.646-0.664,0.981c-0.282,0.45-0.281,0.47,0.192,0.698
			c0.441,0.212,0.842,0.512,1.333,0.615c0.346-0.323,0.57-0.752,0.931-1.063c0.036-0.031,0.028-0.085-0.03-0.108
			c-0.492-0.39-0.99-0.773-1.474-1.174C10.47,12.638,10.412,12.673,10.324,12.807z"/>
		<path class="st1" d="M10.345,16.577c0.18-0.362,0.377-0.715,0.579-1.066c0.073-0.126,0.045-0.182-0.079-0.232
			c-0.529-0.215-1.016-0.522-1.563-0.697c-0.314,0.503-0.433,1.08-0.622,1.631c-0.028,0.081-0.012,0.171,0.119,0.139
			c0.438,0.103,0.877,0.205,1.315,0.311C10.199,16.687,10.277,16.714,10.345,16.577z"/>
		<path class="st1" d="M10.131,17.156c0.059-0.158,0.035-0.215-0.145-0.246c-0.387-0.067-0.771-0.157-1.151-0.257
			c-0.2-0.053-0.284,0.02-0.307,0.203c-0.036,0.288-0.062,0.577-0.103,0.863c-0.107,0.745-0.11,0.745,0.623,0.748
			c0.672,0.003,0.671,0.003,0.872-0.652C9.988,17.595,10.05,17.372,10.131,17.156z"/>
		<path class="st1" d="M7.286,18.452c0.271,0.098,0.302,0.017,0.252-0.213c0.063-0.532,0.126-1.064,0.189-1.596
			c0.008-0.056,0.028-0.122-0.052-0.139c-0.531-0.116-1.062-0.227-1.592-0.344c-0.121-0.027-0.167,0.011-0.167,0.137
			C5.919,17.183,6.23,18.071,7.286,18.452z"/>
		<path class="st1" d="M11.47,10.016c0.132,0.191,0.227,0.161,0.376,0.042c0.409-0.327,0.853-0.602,1.323-0.828
			c0.199-0.096,0.227-0.167,0.125-0.368c-0.503-0.993-0.985-1.996-1.481-2.992c-0.041-0.083-0.028-0.257-0.213-0.193
			c-0.176,0.089-0.304,0.231-0.427,0.38c-0.203,0.145-0.303,0.365-0.42,0.573c-0.155,0.284-0.273,0.578-0.268,0.909
			c-0.004,0.266-0.018,0.527,0.034,0.796C10.648,9.009,11.102,9.484,11.47,10.016z"/>
		<path class="st1" d="M15.653,9.26c-0.48,0.134-0.947,0.299-1.408,0.487c-0.157,0.064-0.146,0.117-0.085,0.247
			c0.303,0.65,0.594,1.307,0.892,1.959c0.03,0.067,0.053,0.169,0.171,0.111c0.381-0.115,0.762-0.229,1.143-0.344
			c0.016-0.013,0.049-0.031,0.047-0.04c-0.171-0.765-0.344-1.53-0.517-2.295C15.864,9.244,15.807,9.217,15.653,9.26z"/>
		<path class="st1" d="M7.595,19.125c-0.004-0.084,0.044-0.23-0.132-0.227c-0.37,0.001-0.741,0.001-1.111,0.002
			c-0.101,0.008-0.058,0.073-0.047,0.123c0.114,0.521,0.336,0.987,0.73,1.356c0.214,0.2,0.446,0.377,0.77,0.438
			C7.715,20.228,7.618,19.681,7.595,19.125z"/>
		<path class="st1" d="M9.235,22.515c0.056,0.126,0.122,0.216,0.25,0.117c0.132-0.103,0.439-0.037,0.375-0.335
			c-0.102-0.476-0.195-0.951-0.228-1.437c-0.006-0.082-0.013-0.17-0.132-0.137c-0.237,0.049-0.475,0.094-0.711,0.148
			c-0.092,0.021-0.114,0.066-0.08,0.175C8.862,21.544,9.025,22.038,9.235,22.515z"/>
		<path class="st1" d="M8.059,21.617c-0.096-0.417-0.286-0.441-0.608-0.294c-0.02,0.009-0.045,0.009-0.068,0.014
			c-0.151,0.029-0.172,0.088-0.104,0.238c0.26,0.579,0.639,1.04,1.274,1.353C8.37,22.455,8.159,22.049,8.059,21.617z"/>
		<path class="st1" d="M9.602,18.749c-0.4,0.022-0.804-0.073-1.199,0.05c-0.017,0.585,0.139,1.151,0.184,1.73
			c0.008,0.099,0.071,0.103,0.148,0.074c0.181-0.037,0.362-0.104,0.543-0.104c0.291,0.001,0.338-0.145,0.348-0.394
			c0.016-0.382-0.037-0.768,0.071-1.146C9.716,18.893,9.755,18.741,9.602,18.749z"/>
		<path class="st1" d="M10.189,23.207c-0.22-0.466-0.223-0.464-0.721-0.23c0.258,0.488,0.558,0.928,0.87,1.359
			c0.042,0.058,0.048,0.238,0.217,0.14c0.149-0.087,0.127-0.192,0.066-0.321C10.473,23.84,10.338,23.521,10.189,23.207z"/>
		<path class="st1" d="M13.63,10.029c-0.097,0.057-0.195,0.113-0.292,0.17c-0.408,0.143-0.722,0.438-1.078,0.664
			c-0.037,0.024-0.042,0.079,0.014,0.11c0.291,0.39,0.578,0.784,0.873,1.17c0.534,0.699,0.536,0.697,1.313,0.225
			c0.135-0.01,0.25-0.07,0.358-0.147c0.046-0.004,0.055-0.035,0.039-0.068c-0.328-0.684-0.659-1.366-0.984-2.051
			C13.812,9.971,13.738,9.966,13.63,10.029z"/>
		<path class="st1" d="M8.514,23.458c-0.164,0.043-0.056,0.126-0.008,0.2c0.296,0.458,0.691,0.802,1.218,1.011
			c-0.275-0.426-0.54-0.858-0.828-1.275C8.757,23.191,8.639,23.426,8.514,23.458z"/>
		<path class="st1" d="M13.762,8.931c-0.002-0.02-0.002-0.04-0.002-0.06C13.759,8.891,13.76,8.911,13.762,8.931
			c0.611-0.215,1.222-0.43,1.832-0.645l0,0c0.134-0.098,0.032-0.2,0.008-0.302c-0.221-0.945-0.44-1.89-0.66-2.835
			c0.015-0.07-0.005-0.13-0.053-0.183c-0.163-0.743-0.038-0.772-0.706-0.438c-0.263,0.092-0.459,0.271-0.629,0.483
			c-0.127,0.157-0.268,0.304-0.342,0.498c-0.141,0.193-0.188,0.424-0.265,0.644c-0.118,0.749,0.038,1.448,0.413,2.095
			C13.493,8.476,13.483,8.79,13.762,8.931z"/>
		<path class="st1" d="M11.845,25.806c-0.024-0.032-0.047-0.064-0.071-0.096c-0.26-0.328-0.528-0.649-0.775-0.987
			c-0.097-0.132-0.164-0.076-0.255-0.02c-0.07,0.043-0.106,0.088-0.032,0.158c0.325,0.309,0.585,0.69,0.992,0.91c0,0,0,0,0,0
			c0.012,0.02,0.024,0.041,0.035,0.061c0.103,0.134,0.23,0.237,0.455,0.362C12.069,25.986,11.983,25.873,11.845,25.806z"/>
		<path class="st1" d="M15.654,6.543c0.1,0.52,0.2,1.041,0.3,1.561c0.001,0.136,0.097,0.145,0.194,0.136
			c0.6-0.058,1.198-0.123,1.798-0.178c0.143-0.013,0.163-0.091,0.162-0.21c-0.005-1.269-0.006-2.539-0.009-3.808
			c0-0.09,0.014-0.218-0.123-0.201c-0.191,0.023-0.393-0.079-0.574,0.05c-0.249,0.047-0.483,0.131-0.688,0.286
			c-0.215,0.083-0.368,0.242-0.504,0.42c-0.135,0.087-0.199,0.227-0.271,0.361c-0.232,0.31-0.314,0.669-0.343,1.045
			c0.002,0.119,0.003,0.238,0.005,0.357C15.584,6.432,15.612,6.489,15.654,6.543z"/>
	</g>
</g>
</svg>
