<?xml version="1.0" encoding="utf-8"?>
<!-- Generator: Adobe Illustrator 25.4.1, SVG Export Plug-In . SVG Version: 6.00 Build 0)  -->
<svg version="1.1" id="Layer_1" xmlns="http://www.w3.org/2000/svg" xmlns:xlink="http://www.w3.org/1999/xlink" x="0px" y="0px"
	 viewBox="0 0 32 32" style="enable-background:new 0 0 32 32;" xml:space="preserve">
<style type="text/css">
	.st0{fill-rule:evenodd;clip-rule:evenodd;fill:#1B2031;}
	.st1{fill:url(#SVGID_1_);}
</style>
<g>
	<circle class="st0" cx="16" cy="16" r="16"/>
	
		<linearGradient id="SVGID_1_" gradientUnits="userSpaceOnUse" x1="7.9448" y1="9.9448" x2="24.0552" y2="26.0552" gradientTransform="matrix(1 0 0 -1 0 34)">
		<stop  offset="0.01" style="stop-color:#4E9DF7"/>
		<stop  offset="1" style="stop-color:#6DD9FA"/>
	</linearGradient>
	<path class="st1" d="M24.049,7.938c-4.452-4.445-11.665-4.439-16.11,0.013s-4.439,11.665,0.013,16.11s11.665,4.439,16.11-0.013
		c2.133-2.137,3.331-5.032,3.33-8.051C27.389,12.974,26.186,10.076,24.049,7.938z M15.399,26.197
		c-5.634-0.349-9.917-5.2-9.568-10.833c0.319-5.146,4.422-9.249,9.568-9.568v3.866c-3.499,0.317-6.078,3.41-5.762,6.908
		c0.277,3.06,2.702,5.485,5.762,5.762V26.197z M15.989,21.179c-2.865,0.002-5.189-2.319-5.192-5.184
		c-0.002-2.865,2.319-5.189,5.184-5.192c2.865-0.002,5.189,2.319,5.192,5.184c0.001,1.377-0.546,2.699-1.52,3.673
		C18.682,20.633,17.364,21.179,15.989,21.179z M23.416,23.006c-1.788,1.896-4.233,3.037-6.835,3.191v-3.865
		c3.499-0.317,6.078-3.41,5.762-6.908c-0.277-3.06-2.702-5.485-5.762-5.762V5.796c5.634,0.334,9.932,5.172,9.598,10.806
		C26.038,18.995,25.059,21.262,23.416,23.006z"/>
</g>
</svg>
