<?xml version="1.0" encoding="utf-8"?>
<!-- Generator: Adobe Illustrator 24.0.2, SVG Export Plug-In . SVG Version: 6.00 Build 0)  -->
<svg version="1.1" id="Layer_1" xmlns="http://www.w3.org/2000/svg" xmlns:xlink="http://www.w3.org/1999/xlink" x="0px" y="0px"
	 viewBox="0 0 32 32" style="enable-background:new 0 0 32 32;" xml:space="preserve">
<style type="text/css">
	.st0{fill-rule:evenodd;clip-rule:evenodd;fill:#14377F;}
	.st1{fill:#FFFFFF;}
</style>
<g>
	<g>
		<circle class="st0" cx="16" cy="16" r="16"/>
	</g>
	<path class="st1" d="M7.332,18.522c-0.225-0.548-0.451-1.096-0.585-1.674c-0.288-1.24-0.352-2.491-0.194-3.756
		C6.759,11.439,7.376,9.96,8.45,8.692c1.034-1.221,2.352-2.025,3.889-2.463c0.442-0.126,0.888-0.268,1.341-0.313
		c0.376-0.037,0.762-0.045,1.144-0.045c2.985,0.002,5.971,0,8.956-0.001c0.522,0,0.642,0.121,0.644,0.648
		c0.002,0.597,0.007,1.194,0.011,1.79c0,0.05,0,0.1,0,0.15C24.433,8.68,24.431,8.9,24.429,9.121
		c-0.101,0.104-0.202,0.209-0.304,0.313c-0.116,0.004-0.231,0.01-0.347,0.01c-2.957,0-5.915-0.026-8.872,0.007
		c-1.976,0.022-3.465,0.916-4.345,2.716c-0.538,1.1-0.612,2.272-0.424,3.468c0.06,0.382,0.138,0.761,0.341,1.1
		c0.063,0.35,0.256,0.64,0.45,0.923c0.948,1.385,2.272,2.091,3.946,2.106c1.863,0.016,3.726,0.003,5.589,0.003
		c0.249,0,0.499,0.009,0.748,0.01c0.421,0.002,0.607,0.188,0.607,0.611c0,0.811,0.001,1.622,0.001,2.434
		c0,0.309-0.217,0.527-0.527,0.527c-1.346-0.001-2.692-0.002-4.038-0.008c-0.151-0.001-0.233,0.022-0.28,0.193
		c-0.599,2.157-1.976,3.299-4.198,3.484c-0.443,0.037-0.89,0.069-1.333,0.054c-0.644-0.022-1.273-0.168-1.897-0.326
		c-0.095-0.024-0.125-0.063-0.1-0.169c0.19-0.806,0.374-1.614,0.557-2.421c0.019-0.085,0.059-0.121,0.145-0.118
		c0.22,0.008,0.43,0,0.648,0.096c0.656,0.29,1.341,0.389,2.043,0.173c0.44-0.135,0.761-0.406,0.936-0.844
		c0.046-0.117,0.063-0.179-0.09-0.196c-1.217-0.137-2.314-0.591-3.333-1.256c-1.251-0.818-2.198-1.906-2.877-3.233
		C7.43,18.69,7.38,18.607,7.332,18.522z"/>
</g>
</svg>
