<?xml version="1.0" encoding="utf-8"?>
<!-- Generator: Adobe Illustrator 25.2.1, SVG Export Plug-In . SVG Version: 6.00 Build 0)  -->
<svg version="1.1" id="Layer_1" xmlns="http://www.w3.org/2000/svg" xmlns:xlink="http://www.w3.org/1999/xlink" x="0px" y="0px"
	 viewBox="0 0 32 32" style="enable-background:new 0 0 32 32;" xml:space="preserve">
<style type="text/css">
	.st0{fill:url(#path11_1_);}
</style>
<linearGradient id="path11_1_" gradientUnits="userSpaceOnUse" x1="-0.9338" y1="5.368" x2="24.0399" y2="30.3417" gradientTransform="matrix(1 0 0 -1 0 34)">
	<stop  offset="0.2249" style="stop-color:#1A237E"/>
	<stop  offset="0.6482" style="stop-color:#673AB7"/>
	<stop  offset="1" style="stop-color:#E91E63"/>
</linearGradient>
<path id="path11" class="st0" d="M30.118,15.884c0.124,8.64-6.779,15.745-15.419,15.87c-0.069,0.001-0.138,0.002-0.208,0.002H2.19v0
	c0-1.897,1.537-3.434,3.434-3.434c0,0,0,0,0,0h8.867c6.742-0.008,12.202-5.48,12.194-12.222c0-0.069-0.001-0.139-0.002-0.208
	c-0.127-6.676-5.72-11.959-12.397-11.959H5.624c-1.897,0-3.434-1.537-3.434-3.434c0,0,0,0,0,0h12.064
	C22.83,0.498,29.987,7.308,30.118,15.884L30.118,15.884z M24.615,13.062c-1.406-4.481-5.562-7.527-10.259-7.52H3.907v0
	c0,1.897,1.537,3.434,3.434,3.434c0,0,0,0,0,0h7.03c1.749,0,3.441,0.626,4.769,1.765H9.106v6.685h8.149
	c-0.487,1.049-1.526,1.733-2.682,1.765h-3.146c-1.282,0-2.321,1.039-2.321,2.321c0,0,0,0,0,0h3.713v0.019h1.673
	c2.479-0.001,4.637-1.696,5.225-4.105h0l0.001-0.002c0.025-0.103,0.049-0.206,0.068-0.311c0.021-0.112,0.038-0.225,0.052-0.34
	c0.007-0.061,0.012-0.122,0.017-0.184c0.012-0.136,0.02-0.273,0.021-0.412c0-0.011,0.002-0.021,0.002-0.032v0
	c0-0.003,0-0.005,0-0.008c0-0.004,0-0.008,0-0.011c0-0.438-0.054-0.874-0.16-1.299h-8.023v-1.765L24.615,13.062z M3.907,26.711
	h10.584c5.835,0.011,10.574-4.71,10.584-10.545c0.001-0.448-0.027-0.895-0.083-1.339h-3.473c0.072,0.383,0.112,0.771,0.12,1.161
	c0.072,3.953-3.074,7.215-7.026,7.287c-0.041,0.001-0.081,0.001-0.122,0.001h-7.15C5.444,23.276,3.907,24.814,3.907,26.711
	C3.907,26.71,3.907,26.71,3.907,26.711L3.907,26.711z"/>
</svg>
