<?xml version="1.0" encoding="utf-8"?>
<!-- Generator: Adobe Illustrator 26.2.1, SVG Export Plug-In . SVG Version: 6.00 Build 0)  -->
<svg version="1.1" id="Layer_1" xmlns="http://www.w3.org/2000/svg" xmlns:xlink="http://www.w3.org/1999/xlink" x="0px" y="0px"
	 viewBox="0 0 32 32" style="enable-background:new 0 0 32 32;" xml:space="preserve">
<style type="text/css">
	.st0{fill:#184E8F;}
	.st1{fill:#010000;}
</style>
<g>
	<path class="st0" d="M24.861,4.909c0.152,0.489,0.091,0.995,0.055,1.483c-0.043,0.584,0.198,0.691,0.717,0.682
		c1.607-0.028,3.215-0.017,4.823-0.008c1.015,0.006,1.336,0.333,1.348,1.344c0.007,0.582-0.019,1.165,0.003,1.746
		c0.03,0.786-0.371,1.109-1.111,1.109c-1.497,0-2.993-0.004-4.49,0.002c-1.004,0.004-1.285,0.275-1.289,1.282
		c-0.015,3.659-0.018,7.317-0.027,10.976c-0.003,1.187-0.174,1.365-1.329,1.365c-5.044,0.002-10.089,0.001-15.133,0
		c-1.174,0-1.347-0.171-1.35-1.346C7.06,18.528,7.047,13.511,7.036,8.495c-0.003-1.252,0.18-1.429,1.447-1.43
		c3.492-0.001,6.985,0,10.477,0c1.587,0,1.687-0.099,1.728-1.674c0.004-0.162,0.049-0.323,0.075-0.484
		C22.129,5.265,23.495,5.26,24.861,4.909z M15.991,11.267c-1.385,0-2.77,0.012-4.154-0.008c-0.411-0.006-0.588,0.083-0.586,0.543
		c0.011,2.797,0,5.594-0.021,8.391c-0.003,0.44,0.164,0.568,0.586,0.566c2.769-0.013,5.539-0.016,8.308,0.002
		c0.483,0.003,0.614-0.175,0.61-0.631c-0.023-2.769-0.031-5.539-0.023-8.308c0.001-0.432-0.131-0.572-0.566-0.565
		C18.761,11.282,17.376,11.267,15.991,11.267z"/>
	<path class="st1" d="M0.239,27.319C0.223,18.67,0.203,10.022,0.192,1.373C0.191,0.519,0.478,0.245,1.356,0.242
		c2.911-0.008,5.821-0.008,8.732,0c0.919,0.002,1.182,0.274,1.195,1.191c0.01,0.665,0.007,1.331,0,1.996
		c-0.007,0.708-0.348,1.066-1.08,1.06C8.54,4.477,6.876,4.508,5.213,4.473C4.663,4.462,4.457,4.561,4.458,5.18
		c0.016,7.429,0,14.858-0.009,22.286C3.049,27.333,1.636,27.572,0.239,27.319z"/>
	<path class="st1" d="M0.239,27.124c1.396,0.254,2.809,0.014,4.21,0.147c0.218,0.022,0.437,0.062,0.655,0.062
		c7.275,0.003,14.551,0.003,21.826,0.001c0.192,0,0.383-0.032,0.575-0.05c0.455,0.038,0.909,0.097,1.364,0.111
		c0.952,0.029,1.905,0.033,2.858,0.048c0.011,1.052,0.039,2.104,0.026,3.156c-0.008,0.682-0.404,0.979-1.078,0.972
		c-1.22-0.013-2.441-0.003-3.662-0.003c-8.433,0-16.865,0-25.298,0c-1.352,0-1.514-0.159-1.514-1.539
		C0.202,29.06,0.226,28.092,0.239,27.124z"/>
	<path class="st1" d="M31.727,27.638c-0.953-0.015-1.906-0.019-2.858-0.048c-0.455-0.014-0.909-0.073-1.364-0.111
		c-0.007-4.074-0.015-8.149-0.019-12.225c-0.001-1.149,0.214-1.363,1.351-1.369c0.582-0.003,1.164-0.008,1.747,0.001
		c0.924,0.015,1.188,0.269,1.188,1.194c0.001,3.188-0.008,6.376-0.017,9.564C31.752,25.642,31.737,26.64,31.727,27.638z"/>
	<path class="st0" d="M24.861,4.97c-1.366,0.351-2.732,0.356-4.097-0.003c-0.011-1.191-0.039-2.382-0.029-3.573
		c0.008-0.884,0.279-1.149,1.146-1.151c2.909-0.007,5.819-0.009,8.728,0.001c0.838,0.003,1.155,0.327,1.171,1.151
		c0.013,0.692-0.002,1.385,0.002,2.078c0.004,0.73-0.369,1.053-1.082,1.051c-1.718-0.006-3.436,0-5.154-0.004
		C25.211,4.519,24.852,4.457,24.861,4.97z"/>
	<path class="st1" d="M15.987,4.486c-2.315-0.007-2.152,0.254-2.151-2.137c0.001-2.308-0.18-2.111,2.098-2.109
		c2.43,0.003,2.179-0.222,2.186,2.181C18.126,4.721,18.29,4.481,15.987,4.486z"/>
</g>
</svg>
