<?xml version="1.0" encoding="UTF-8"?><svg id="Layer_1" xmlns="http://www.w3.org/2000/svg" viewBox="0 0 31.5 31.5"><defs><style>.cls-1{fill:#4b2895;}.cls-1,.cls-2{stroke-width:0px;}.cls-2{fill:#a26dfc;}</style></defs><path class="cls-2" d="M0,16.931c0-.787,0-1.575,0-2.362.025-.098.06-.195.072-.295.06-.478.07-.967.178-1.433.377-1.625.882-3.206,1.702-4.674,1.57-2.814,3.777-4.974,6.647-6.429.795-.403,1.661-.675,2.512-.957.606-.201,1.241-.309,1.86-.473C13.298.221,13.616.103,13.939,0c.866,0,1.732,0,2.599,0,.679.104,1.355.226,2.037.307.958.114,1.878.351,2.776.705,1.305.514,2.484,1.232,3.64,2.021,1.021.697,1.907,1.531,2.693,2.458.678.799,1.266,1.684,1.819,2.577.788,1.274,1.248,2.692,1.6,4.142.157.649.267,1.31.398,1.965v3.15c-.025.056-.061.11-.073.169-.219,1.013-.371,2.046-.667,3.035-.377,1.261-.942,2.444-1.66,3.565-.812,1.27-1.75,2.425-2.88,3.407-.671.583-1.435,1.064-2.181,1.553-.584.383-1.182.761-1.816,1.048-1.508.682-3.071,1.192-4.749,1.251-.13.005-.258.095-.386.146h-2.756c-.496-.081-.996-.144-1.488-.247-2.48-.517-4.754-1.494-6.754-3.068-3.038-2.39-4.945-5.49-5.76-9.261C.189,18.267.109,17.596,0,16.931ZM15.723,7.961c-1.643.092-3.513.187-5.381.304-.9.056-1.259.44-1.209,1.328.093,1.673.219,3.343.336,5.015.032.457.062.915.134,1.367.021.129.16.296.284.344,1.416.546,2.896.842,4.404.917,2.472.124,4.923-.005,7.289-.854.296-.106.423-.241.437-.543.034-.732.082-1.464.134-2.195.1-1.41.218-2.819.305-4.229.035-.573-.334-1.013-.89-1.127-.243-.05-.492-.082-.739-.094-1.623-.078-3.246-.148-5.102-.232ZM15.944,23.487c.412-.026,1.002-.04,1.587-.104,1.747-.191,3.445-.567,4.935-1.556,1.25-.83,2.208-1.891,2.442-3.452.081-.537-.067-.995-.506-1.321-.436-.324-.86-.18-1.328.016-.68.284-.971.728-.866,1.448.057.39-.121.676-.404.926-.658.581-1.401,1.015-2.23,1.295-2.166.733-4.368.781-6.587.288-1.14-.254-2.19-.716-3.09-1.482-.293-.249-.541-.502-.536-.947.01-1.038-.01-1.035-.92-1.554-.409-.233-.815-.283-1.223-.016-.425.278-.631.703-.553,1.18.083.509.216,1.033.449,1.489.578,1.133,1.513,1.933,2.635,2.504,1.889.963,3.929,1.237,6.194,1.285Z"/><path class="cls-1" d="M15.723,7.961c1.857.083,3.48.154,5.102.232.247.012.496.044.739.094.556.114.925.554.89,1.127-.086,1.411-.205,2.819-.305,4.229-.052.731-.1,1.463-.134,2.195-.014.302-.141.437-.437.543-2.366.849-4.817.978-7.289.854-1.508-.076-2.987-.371-4.404-.917-.124-.048-.263-.215-.284-.344-.072-.451-.102-.91-.134-1.367-.117-1.671-.243-3.342-.336-5.015-.049-.888.309-1.272,1.209-1.328,1.869-.116,3.738-.212,5.381-.304Z"/><path class="cls-1" d="M15.944,23.487c-2.266-.049-4.306-.323-6.194-1.285-1.122-.572-2.057-1.372-2.635-2.504-.233-.456-.366-.98-.449-1.489-.078-.477.128-.902.553-1.18.408-.267.814-.217,1.223.016.91.518.93.515.92,1.554-.004.446.243.698.536.947.899.765,1.95,1.228,3.09,1.482,2.218.494,4.42.445,6.587-.288.829-.28,1.572-.714,2.23-1.295.284-.251.461-.536.404-.926-.105-.72.186-1.163.866-1.448.467-.196.891-.34,1.328-.016.439.326.586.784.506,1.321-.234,1.561-1.192,2.622-2.442,3.452-1.49.989-3.188,1.365-4.935,1.556-.585.064-1.175.078-1.587.104Z"/></svg>