<?xml version="1.0" encoding="utf-8"?>
<!-- Generator: Adobe Illustrator 26.2.1, SVG Export Plug-In . SVG Version: 6.00 Build 0)  -->
<svg version="1.1" id="Layer_1" xmlns="http://www.w3.org/2000/svg" xmlns:xlink="http://www.w3.org/1999/xlink" x="0px" y="0px"
	 viewBox="0 0 32 32" style="enable-background:new 0 0 32 32;" xml:space="preserve">
<style type="text/css">
	.st0{fill:#CE9B39;}
	.st1{fill:#FEFDFD;}
</style>
<g>
	<circle class="st0" cx="15.944" cy="15.944" r="15.722"/>
	<path class="st1" d="M20.339,6.626c0.453,1.985,0.894,3.973,1.367,5.953c0.093,0.391-0.051,0.402-0.359,0.401
		c-2.903-0.009-5.806-0.007-8.709-0.007c-0.173,0-0.345,0.012-0.518,0.019c-0.438-0.005-0.877-0.028-1.314-0.009
		c-0.31,0.014-0.382-0.065-0.307-0.378c0.459-1.939,0.898-3.883,1.343-5.825c0.009-0.039,0.015-0.078,0.022-0.117
		c0,0,0-0.028,0-0.028C14.689,6.632,17.514,6.629,20.339,6.626z"/>
	<path class="st1" d="M11.305,15.787c0.524,0.937,1.038,1.879,1.573,2.809c0.875,1.52,1.756,3.036,2.651,4.544
		c0.186,0.314,0.105,0.404-0.215,0.499c-1.642,0.488-3.277,0.996-4.914,1.5c-0.126,0.039-0.247,0.092-0.37,0.139
		c-0.422,0.197-0.623,0.023-0.846-0.367c-0.837-1.465-1.66-2.939-2.536-4.383c-0.439-0.724-0.847-1.473-1.261-2.216
		c-0.101-0.181-0.058-0.278,0.079-0.405c1.455-1.348,2.908-2.698,4.352-4.058c0.188-0.177,0.263-0.124,0.372,0.063
		C10.556,14.54,10.932,15.162,11.305,15.787z"/>
	<path class="st1" d="M11.551,13.725c0.265,0.009,0.531,0.026,0.796,0.026c1.984,0.002,3.968,0.006,5.951-0.004
		c0.326-0.002,0.402,0.058,0.23,0.37c-0.436,0.793-0.835,1.606-1.27,2.4c-0.126,0.23-0.127,0.403,0.017,0.619
		c0.192,0.287,0.353,0.595,0.522,0.897c0.094,0.168,0.171,0.182,0.271,0.003c0.756-1.36,1.597-2.671,2.291-4.065
		c0.142-0.286,0.27-0.329,0.973-0.222c-1.727,2.963-3.44,5.901-5.191,8.904c-0.56-0.963-1.079-1.859-1.603-2.752
		c-1.017-1.731-2.036-3.461-3.055-5.191c-0.083-0.217-0.236-0.397-0.353-0.592c-0.202-0.337-0.096-0.397,0.228-0.373
		C11.422,13.75,11.487,13.733,11.551,13.725z M16.142,21.34c0.474-0.809,0.899-1.546,1.338-2.275
		c0.104-0.173,0.043-0.295-0.041-0.438c-0.794-1.356-1.589-2.712-2.374-4.074c-0.113-0.197-0.244-0.28-0.475-0.275
		c-0.706,0.014-1.412,0.003-2.118,0.005c-0.443,0.001-0.444,0.004-0.211,0.406c0.81,1.393,1.619,2.787,2.431,4.179
		C15.161,19.671,15.633,20.472,16.142,21.34z M16.745,14.284c-0.291,0-0.583,0.002-0.874-0.001
		c-0.169-0.002-0.221,0.056-0.129,0.213c0.295,0.503,0.589,1.006,0.879,1.512c0.086,0.149,0.154,0.162,0.244,0.002
		c0.281-0.496,0.566-0.989,0.851-1.482c0.094-0.162,0.061-0.246-0.137-0.244C17.302,14.287,17.024,14.286,16.745,14.284z"/>
	<path class="st1" d="M25.212,16.387c0.249,0.272,0.512,0.531,0.808,0.752c0.13,0.122,0.261,0.245,0.391,0.367
		c0.585,0.626,0.572,0.619,0.132,1.377c-0.539,0.928-1.055,1.87-1.581,2.806c-0.673,1.145-1.353,2.286-2.015,3.437
		c-0.138,0.239-0.222,0.303-0.529,0.197c-0.763-0.264-1.556-0.455-2.322-0.704c-1.109-0.361-2.231-0.68-3.333-1.058
		c-0.293-0.1-0.088-0.254-0.025-0.365c0.659-1.156,1.327-2.308,1.99-3.462c1.099-1.913,2.203-3.823,3.289-5.743
		c0.161-0.285,0.261-0.328,0.509-0.09c0.672,0.645,1.365,1.266,2.051,1.897c0.024,0.022,0.047,0.044,0.071,0.066
		C24.814,16.06,24.999,16.238,25.212,16.387z"/>
	<path class="st0" d="M16.142,21.34c-0.509-0.868-0.981-1.669-1.45-2.472c-0.812-1.392-1.621-2.785-2.431-4.179
		c-0.233-0.402-0.233-0.405,0.211-0.406c0.706-0.002,1.412,0.009,2.118-0.005c0.231-0.005,0.362,0.078,0.475,0.275
		c0.785,1.361,1.58,2.717,2.374,4.074c0.084,0.143,0.145,0.265,0.041,0.438C17.041,19.794,16.616,20.531,16.142,21.34z"/>
	<path class="st0" d="M16.745,14.285c0.278,0.001,0.556,0.002,0.835,0c0.198-0.002,0.231,0.082,0.137,0.244
		c-0.285,0.493-0.571,0.986-0.851,1.482c-0.091,0.16-0.159,0.146-0.244-0.002c-0.291-0.505-0.584-1.009-0.879-1.512
		c-0.092-0.157-0.041-0.215,0.129-0.213C16.162,14.286,16.454,14.284,16.745,14.285z"/>
</g>
</svg>
