<?xml version="1.0" encoding="utf-8"?>
<!-- Generator: Adobe Illustrator 25.4.1, SVG Export Plug-In . SVG Version: 6.00 Build 0)  -->
<svg version="1.1" id="Layer_1" xmlns="http://www.w3.org/2000/svg" xmlns:xlink="http://www.w3.org/1999/xlink" x="0px" y="0px"
	 viewBox="0 0 32 32" style="enable-background:new 0 0 32 32;" xml:space="preserve">
<path d="M25.543,2.172c-0.88-0.353-1.791-0.663-2.704-0.919c-2.341-0.657-4.769-0.99-7.219-0.99s-4.879,0.333-7.219,0.99
	C7.487,1.509,6.576,1.817,5.696,2.172C3.9,2.894,2.738,4.609,2.738,6.54v15.919c0,1.526,0.759,2.941,2.025,3.79l6.012,4.016
	c1.469,0.981,3.156,1.472,4.842,1.472s3.37-0.491,4.842-1.472l6.012-4.016c1.269-0.846,2.025-2.264,2.025-3.79V6.543
	C28.502,4.609,27.34,2.894,25.543,2.172z M25.614,22.462c0,0.558-0.276,1.077-0.742,1.39l-6.012,4.016
	c-0.984,0.657-2.112,0.984-3.237,0.984c-1.128,0-2.256-0.327-3.237-0.984l-4.997-3.339c0.784-0.33,1.816-0.778,2.941-1.297
	c0.685-0.316,1.492-0.956,2.29-1.726c0.192-0.02,0.369,0.006,0.578,0.051c0.852,0.195,1.579,0.212,2.29,0.056
	c0.087-0.02,0.178-0.023,0.265-0.011c0.217,0.028,0.479,0.028,0.756,0.025c0.587-0.003,1.252-0.006,1.534,0.307
	c0.124,0.138,0.169,0.327,0.141,0.584c-0.175,0.553-0.392,1.235-0.911,1.653c-0.02,0.014-0.037,0.028-0.056,0.042
	c-0.169,0.121-0.361,0.257-0.364,0.536c-0.22-0.127-0.364-0.045-0.491,0.028c-0.068,0.039-0.133,0.076-0.214,0.09
	c-0.313-0.113-0.491,0.085-0.606,0.268l-0.618,1.444c-0.039,0.09-0.068,0.189-0.076,0.288c-0.008,0.121,0.011,0.209,0.062,0.268
	c0.065,0.073,0.158,0.093,0.274,0.093c0.056,0,0.116-0.006,0.18-0.008c0.048-0.003,0.102-0.008,0.155-0.008
	c0.623-0.02,0.871-0.147,1.337-0.544c0.147-0.068,0.262-0.189,0.375-0.305c0.195-0.206,0.327-0.327,0.527-0.259
	c0.212,0.096,0.403,0.107,0.57,0.034c0.355-0.161,0.516-0.671,0.643-1.083c0.025-0.082,0.051-0.164,0.076-0.237
	c0.068-0.237,0.13-0.479,0.189-0.713c0.169-0.668,0.344-1.359,0.666-1.98c0.144-0.243,0.017-0.86-0.189-1.314
	c-0.093-0.203-0.282-0.553-0.522-0.598c-0.567-0.071-1.046-0.341-1.492-0.615c-0.051-0.031-0.087-0.085-0.093-0.144
	c-0.003-0.059,0.02-0.113,0.068-0.149c0.116-0.09,0.228-0.186,0.338-0.276c0.319-0.268,0.623-0.519,0.962-0.685
	c0.956,0.011,1.387,0.902,1.802,1.768c0.113,0.237,0.223,0.462,0.341,0.666c-0.288,0.034-0.327,0.085-0.448,0.375l-0.008,0.02
	c-0.028,0.056-0.076,0.124-0.13,0.195c-0.127,0.178-0.271,0.378-0.231,0.567l0.003,0.014l0.008,0.011
	c0.062,0.102,0.133,0.251,0.209,0.406c0.24,0.499,0.51,1.066,0.863,1.06c0.195-0.003,0.369-0.175,0.53-0.527
	c0.403-0.572,0.454-1.221,0.505-1.85c0.02-0.254,0.039-0.519,0.082-0.77c0.203-0.829-0.493-1.337-1.007-1.709
	c-0.099-0.116-0.203-0.231-0.305-0.347c-0.274-0.307-0.556-0.626-0.792-0.959c-0.068-0.406-0.462-0.713-0.826-0.835
	c-0.375-0.127-0.73-0.079-0.95,0.133c-0.338,0.22-0.787,0.276-1.221,0.333c-0.13,0.017-0.305-0.209-0.431-0.186
	c-0.135,0.023-0.254-0.226-0.307-0.355c-0.102-0.24-0.259-0.674-0.4-0.928c0.045-0.519,0.09-1.114-0.31-1.636
	c-0.823-1.066-0.468-1.833-0.248-2.036c0.037-0.037,0.087-0.054,0.141-0.051c0.29,0.02,0.823,0.313,0.866,1.52
	c0.062,1.715,0.299,2.603,1.647,2.476c0.902-0.133,1.108-3.517,1.402-4.574c0.293-1.06,0.784-1.613,1.148-1.283
	c0.226,0.203,0.274,0.705,0.197,0.99c-0.008,0.031,0.025,0.059,0.054,0.042c0.161-0.085,0.482-0.491,0.429-1.21
	C21.514,8.76,21.065,8.3,20.019,7.417c-0.33-0.276-0.462-1.057-0.494-1.331c-0.003-0.028-0.037-0.034-0.051-0.011
	c-0.299,0.482-1.128,0.014-1.748-0.513c-0.654-0.556-2.468-0.166-3.201-0.065s-0.964-0.578-1.548-0.395
	c-0.587,0.183-0.744,1.971-1.889,1.791c-0.854-0.135-1.306,0.054-1.48,0.158C9.582,7.068,9.591,7.107,9.622,7.107
	c0.147,0,0.434,0.034,0.744,0.226c0.446,0.276,0.4,0.928-0.589,1.134c-0.801,0.166-1.041-0.415-1.1-0.64
	C8.669,7.798,8.629,7.798,8.621,7.823c-0.367,0.959,1.413,2.439,0.403,2.546c-0.84,0.09-1.943,0.964-2.332,1.294
	c-0.023,0.02-0.003,0.056,0.025,0.045c0.251-0.09,0.75-0.186,1.331,0.186c0.725,0.465-1.201,2.651-2.411,3.909V5.652
	c0-0.166,0.099-0.321,0.251-0.389l0.897-0.409c0.784-0.316,1.596-0.589,2.408-0.818c2.087-0.587,4.253-0.883,6.438-0.883
	c2.188,0,4.354,0.296,6.441,0.883c0.815,0.228,1.624,0.505,2.408,0.818l0.891,0.395c0.155,0.068,0.257,0.223,0.257,0.392v16.821
	H25.614z"/>
</svg>
