<?xml version="1.0" encoding="utf-8"?>
<!-- Generator: Adobe Illustrator 25.3.1, SVG Export Plug-In . SVG Version: 6.00 Build 0)  -->
<svg version="1.1" id="Layer_1" xmlns="http://www.w3.org/2000/svg" xmlns:xlink="http://www.w3.org/1999/xlink" x="0px" y="0px"
	 viewBox="0 0 32 32" style="enable-background:new 0 0 32 32;" xml:space="preserve">
<style type="text/css">
	.st0{display:none;}
	.st1{display:inline;fill:#FFFFFF;}
	.st2{fill:#F05A2B;}
	.st3{fill:#BA4726;}
	.st4{fill:#C84C28;}
	.st5{fill:#E3552A;}
	.st6{fill:#AB4123;}
	.st7{fill:#D35029;}
	.st8{fill:#DB532A;}
	.st9{fill:#F1622F;}
	.st10{fill:#F58D51;}
	.st11{fill:#F37E42;}
	.st12{fill:#F1723C;}
	.st13{fill:#F3783D;}
	.st14{fill:#F26C35;}
	.st15{fill:#F48347;}
	.st16{fill:#F4884B;}
</style>
<g class="st0">
	<path class="st1" d="M24.99,21.736c-0.4,0-0.725-0.324-0.725-0.725v-2.326l-2.522,1.037c-0.389,0.16-0.819,0.161-1.212,0
		l-2.983-1.227c-0.601-0.246-0.989-0.826-0.989-1.476v-3.483c0-0.575,0.311-1.107,0.812-1.39l2.984-1.679
		c0.483-0.272,1.081-0.271,1.563,0l2.983,1.678c0.502,0.283,0.812,0.815,0.812,1.39v7.474C25.715,21.412,25.391,21.736,24.99,21.736
		z M21.137,11.714c-0.024,0-0.049,0.006-0.07,0.019l-2.983,1.678c-0.045,0.025-0.074,0.074-0.074,0.126v3.483
		c0,0.059,0.035,0.112,0.09,0.134l2.983,1.227c0.035,0.016,0.075,0.014,0.11,0l3.073-1.263v-3.58c0-0.052-0.029-0.101-0.075-0.127
		l-2.982-1.678C21.187,11.721,21.162,11.714,21.137,11.714z M10.863,21.661c-0.211,0-0.422-0.041-0.619-0.124L7.26,20.279
		c-0.592-0.249-0.976-0.826-0.976-1.47v-5.759c0-0.4,0.325-0.725,0.725-0.725s0.725,0.325,0.725,0.725v5.759
		c0,0.059,0.035,0.111,0.088,0.134l2.983,1.258c0.035,0.015,0.077,0.017,0.113,0l2.982-1.258c0.054-0.022,0.089-0.075,0.089-0.134
		l0.018-5.763c0.002-0.4,0.294-0.698,0.729-0.721c0.4,0.002,0.723,0.329,0.721,0.729l-0.018,5.754c0,0.644-0.383,1.221-0.976,1.47
		l-2.982,1.258C11.285,21.62,11.074,21.661,10.863,21.661z"/>
</g>
<g>
	<path class="st2" d="M13.098,31.736c-0.23,0.009-0.387-0.154-0.566-0.254c-1.976-1.106-3.948-2.219-5.922-3.327
		c-0.155-0.087-0.319-0.156-0.479-0.233c0-2.809,0-5.619,0-8.428c0.347,0,0.613-0.205,0.891-0.364
		c1.86-1.066,3.715-2.139,5.572-3.21c0.172-0.099,0.35-0.175,0.555-0.15c0.007,0.179,0.021,0.358,0.021,0.537
		c0.005,2.514,0.007,5.028,0.011,7.541c-0.147,0.28-0.118,0.56,0.002,0.839C13.154,27.036,13.126,29.386,13.098,31.736z"/>
	<path class="st2" d="M13.098,31.736c-0.23,0.009-0.387-0.154-0.566-0.254c-1.976-1.106-3.948-2.219-5.922-3.327
		c-0.155-0.087-0.319-0.156-0.479-0.233c0-2.809,0-5.619,0-8.428c0.347,0,0.613-0.205,0.891-0.364
		c1.86-1.066,3.715-2.139,5.572-3.21c0.172-0.099,0.35-0.175,0.555-0.15c0.007,0.179,0.021,0.358,0.021,0.537
		c0.005,2.514,0.007,5.028,0.011,7.541c-0.147,0.28-0.118,0.56,0.002,0.839C13.154,27.036,13.126,29.386,13.098,31.736z"/>
	<path class="st3" d="M6.13,12.34c0-0.947,0-1.895,0-2.842c0.182,0.009,0.335-0.038,0.501-0.135C7.623,8.78,8.641,8.241,9.62,7.638
		c0.385-0.237,0.894-0.323,1.119-0.792c0.569,0.17,0.994,0.624,1.565,0.792c0.291,0.194,0.582,0.389,0.873,0.583
		c-0.01,0.098-0.019,0.197-0.029,0.295c-0.137-0.011-0.255,0.042-0.369,0.108c-1.685,0.972-3.359,1.966-5.062,2.905
		C7.2,11.815,6.753,12.257,6.13,12.34z"/>
	<path class="st3" d="M6.13,12.34c0-0.947,0-1.895,0-2.842c0.182,0.009,0.335-0.038,0.501-0.135C7.623,8.78,8.641,8.241,9.62,7.638
		c0.385-0.237,0.894-0.323,1.119-0.792c0.569,0.17,0.994,0.624,1.565,0.792c0.291,0.194,0.582,0.389,0.873,0.583
		c-0.01,0.098-0.019,0.197-0.029,0.295c-0.137-0.011-0.255,0.042-0.369,0.108c-1.685,0.972-3.359,1.966-5.062,2.905
		C7.2,11.815,6.753,12.257,6.13,12.34z"/>
	<path class="st4" d="M6.13,12.34c0.623-0.083,1.069-0.525,1.587-0.81c1.704-0.939,3.377-1.933,5.062-2.905
		c0.114-0.065,0.232-0.119,0.369-0.108c0,0.719,0,1.438,0,2.156c-0.173-0.015-0.315,0.071-0.455,0.151
		c-1.461,0.836-2.913,1.69-4.384,2.507c-0.719,0.399-1.386,0.901-2.179,1.164C6.13,13.777,6.13,13.058,6.13,12.34z"/>
	<path class="st4" d="M6.13,12.34c0.623-0.083,1.069-0.525,1.587-0.81c1.704-0.939,3.377-1.933,5.062-2.905
		c0.114-0.065,0.232-0.119,0.369-0.108c0,0.719,0,1.438,0,2.156c-0.173-0.015-0.315,0.071-0.455,0.151
		c-1.461,0.836-2.913,1.69-4.384,2.507c-0.719,0.399-1.386,0.901-2.179,1.164C6.13,13.777,6.13,13.058,6.13,12.34z"/>
	<path class="st5" d="M13.149,15.769c-0.205-0.025-0.384,0.051-0.555,0.15c-1.857,1.071-3.712,2.144-5.572,3.21
		c-0.279,0.16-0.545,0.365-0.891,0.364c0-0.621,0-1.241,0-1.862c0.121-0.044,0.251-0.071,0.361-0.134
		c1.463-0.833,2.915-1.686,4.389-2.5c0.746-0.413,1.422-0.964,2.268-1.188C13.149,14.463,13.149,15.116,13.149,15.769z"/>
	<path class="st5" d="M13.149,15.769c-0.205-0.025-0.384,0.051-0.555,0.15c-1.857,1.071-3.712,2.144-5.572,3.21
		c-0.279,0.16-0.545,0.365-0.891,0.364c0-0.621,0-1.241,0-1.862c0.121-0.044,0.251-0.071,0.361-0.134
		c1.463-0.833,2.915-1.686,4.389-2.5c0.746-0.413,1.422-0.964,2.268-1.188C13.149,14.463,13.149,15.116,13.149,15.769z"/>
	<path class="st6" d="M10.739,6.846c-0.225,0.469-0.734,0.555-1.119,0.792C8.641,8.241,7.623,8.78,6.631,9.362
		C6.466,9.459,6.312,9.507,6.13,9.498c0-1.764,0-3.528,0-5.292C6.315,4.307,6.503,4.404,6.685,4.51
		c1.004,0.59,2.007,1.182,3.066,1.67C10.02,6.492,10.464,6.543,10.739,6.846z"/>
	<path class="st6" d="M10.739,6.846c-0.225,0.469-0.734,0.555-1.119,0.792C8.641,8.241,7.623,8.78,6.631,9.362
		C6.466,9.459,6.312,9.507,6.13,9.498c0-1.764,0-3.528,0-5.292C6.315,4.307,6.503,4.404,6.685,4.51
		c1.004,0.59,2.007,1.182,3.066,1.67C10.02,6.492,10.464,6.543,10.739,6.846z"/>
	<path class="st7" d="M6.13,14.496c0.793-0.263,1.459-0.765,2.179-1.164c1.472-0.817,2.923-1.671,4.384-2.507
		c0.14-0.08,0.282-0.166,0.455-0.151c0,0.555,0,1.111,0,1.666c-0.224-0.029-0.414,0.067-0.598,0.174
		c-1.703,0.98-3.397,1.976-5.113,2.931c-0.417,0.232-0.785,0.598-1.306,0.619C6.13,15.541,6.13,15.018,6.13,14.496z"/>
	<path class="st7" d="M6.13,14.496c0.793-0.263,1.459-0.765,2.179-1.164c1.472-0.817,2.923-1.671,4.384-2.507
		c0.14-0.08,0.282-0.166,0.455-0.151c0,0.555,0,1.111,0,1.666c-0.224-0.029-0.414,0.067-0.598,0.174
		c-1.703,0.98-3.397,1.976-5.113,2.931c-0.417,0.232-0.785,0.598-1.306,0.619C6.13,15.541,6.13,15.018,6.13,14.496z"/>
	<path class="st8" d="M6.13,16.064c0.522-0.022,0.889-0.387,1.306-0.619c1.717-0.955,3.411-1.951,5.113-2.931
		c0.185-0.106,0.374-0.202,0.598-0.174c0,0.49,0,0.98,0,1.47c-0.846,0.224-1.522,0.775-2.268,1.188
		c-1.473,0.815-2.925,1.668-4.389,2.5c-0.11,0.063-0.24,0.09-0.361,0.134C6.13,17.109,6.13,16.586,6.13,16.064z"/>
	<path class="st8" d="M6.13,16.064c0.522-0.022,0.889-0.387,1.306-0.619c1.717-0.955,3.411-1.951,5.113-2.931
		c0.185-0.106,0.374-0.202,0.598-0.174c0,0.49,0,0.98,0,1.47c-0.846,0.224-1.522,0.775-2.268,1.188
		c-1.473,0.815-2.925,1.668-4.389,2.5c-0.11,0.063-0.24,0.09-0.361,0.134C6.13,17.109,6.13,16.586,6.13,16.064z"/>
	<path class="st9" d="M9.751,6.181C8.692,5.692,7.689,5.1,6.685,4.51C6.503,4.404,6.315,4.307,6.13,4.206c0-0.033,0-0.065,0-0.098
		c1.055-0.463,2.012-1.106,3.026-1.644c0.199-0.106,0.401-0.205,0.601-0.307C9.756,3.498,9.753,4.839,9.751,6.181z"/>
	<path class="st9" d="M9.751,6.181C8.692,5.692,7.689,5.1,6.685,4.51C6.503,4.404,6.315,4.307,6.13,4.206c0-0.033,0-0.065,0-0.098
		c1.055-0.463,2.012-1.106,3.026-1.644c0.199-0.106,0.401-0.205,0.601-0.307C9.756,3.498,9.753,4.839,9.751,6.181z"/>
	<path class="st2" d="M27.184,14.398c0.005,3.091,0.011,6.182,0.016,9.273c0,0.149,0.012,0.304-0.194,0.332
		c-0.02-0.218-0.214-0.286-0.358-0.367c-2.167-1.224-4.34-2.438-6.511-3.655c0.008-0.652,0.016-1.305,0.024-1.957
		c0.124-0.032,0.26-0.041,0.37-0.101c1.685-0.91,3.363-1.833,5.053-2.735C26.108,14.908,26.587,14.531,27.184,14.398z"/>
	<path class="st2" d="M27.184,14.398c0.005,3.091,0.011,6.182,0.016,9.273c0,0.149,0.012,0.304-0.194,0.332
		c-0.02-0.218-0.214-0.286-0.358-0.367c-2.167-1.224-4.34-2.438-6.511-3.655c0.008-0.652,0.016-1.305,0.024-1.957
		c0.124-0.032,0.26-0.041,0.37-0.101c1.685-0.91,3.363-1.833,5.053-2.735C26.108,14.908,26.587,14.531,27.184,14.398z"/>
	<path class="st6" d="M13.098,31.736c0.028-2.35,0.056-4.7,0.085-7.05c0.2-0.015,0.383,0.031,0.558,0.134
		c1.48,0.873,2.972,1.727,4.439,2.622c0.412,0.251,0.933,0.377,1.178,0.864c-1.994,1.133-3.989,2.265-5.982,3.398
		C13.285,31.756,13.197,31.781,13.098,31.736z"/>
	<path class="st6" d="M13.098,31.736c0.028-2.35,0.056-4.7,0.085-7.05c0.2-0.015,0.383,0.031,0.558,0.134
		c1.48,0.873,2.972,1.727,4.439,2.622c0.412,0.251,0.933,0.377,1.178,0.864c-1.994,1.133-3.989,2.265-5.982,3.398
		C13.285,31.756,13.197,31.781,13.098,31.736z"/>
	<path class="st3" d="M19.358,28.306c-0.245-0.487-0.766-0.612-1.178-0.864c-1.467-0.895-2.959-1.749-4.439-2.622
		c-0.175-0.103-0.358-0.149-0.558-0.134c-0.119-0.279-0.149-0.559-0.002-0.839c0.819-0.438,1.637-0.876,2.456-1.314
		c0.083,0.195,0.265,0.281,0.431,0.379c1.465,0.86,2.938,1.707,4.398,2.576c0.621,0.37,1.286,0.673,1.835,1.159
		C21.343,27.243,20.361,27.793,19.358,28.306z"/>
	<path class="st3" d="M19.358,28.306c-0.245-0.487-0.766-0.612-1.178-0.864c-1.467-0.895-2.959-1.749-4.439-2.622
		c-0.175-0.103-0.358-0.149-0.558-0.134c-0.119-0.279-0.149-0.559-0.002-0.839c0.819-0.438,1.637-0.876,2.456-1.314
		c0.083,0.195,0.265,0.281,0.431,0.379c1.465,0.86,2.938,1.707,4.398,2.576c0.621,0.37,1.286,0.673,1.835,1.159
		C21.343,27.243,20.361,27.793,19.358,28.306z"/>
	<path class="st10" d="M21.418,4.901c1.863,1.039,3.726,2.077,5.589,3.116c0.084,0.047,0.178,0.089,0.177,0.209
		c-1.139,0.513-2.191,1.186-3.286,1.78c-0.725,0.393-1.415,0.85-2.184,1.158c-0.371-0.044-0.293-0.331-0.293-0.561
		C21.417,8.702,21.418,6.801,21.418,4.901z"/>
	<path class="st10" d="M21.418,4.901c1.863,1.039,3.726,2.077,5.589,3.116c0.084,0.047,0.178,0.089,0.177,0.209
		c-1.139,0.513-2.191,1.186-3.286,1.78c-0.725,0.393-1.415,0.85-2.184,1.158c-0.371-0.044-0.293-0.331-0.293-0.561
		C21.417,8.702,21.418,6.801,21.418,4.901z"/>
	<path class="st11" d="M16.223,1.974c0.686,0.388,1.372,0.776,2.059,1.164c0,2.411,0.002,4.822-0.003,7.234
		c0,0.189,0.105,0.449-0.218,0.511c-0.67-0.317-1.314-0.68-1.935-1.086c0.118-0.191,0.1-0.404,0.099-0.615
		C16.224,6.779,16.224,4.377,16.223,1.974z"/>
	<path class="st11" d="M16.223,1.974c0.686,0.388,1.372,0.776,2.059,1.164c0,2.411,0.002,4.822-0.003,7.234
		c0,0.189,0.105,0.449-0.218,0.511c-0.67-0.317-1.314-0.68-1.935-1.086c0.118-0.191,0.1-0.404,0.099-0.615
		C16.224,6.779,16.224,4.377,16.223,1.974z"/>
	<path class="st12" d="M13.177,8.221c-0.291-0.194-0.582-0.389-0.873-0.583c0-2.091,0.003-4.181-0.002-6.272
		c0-0.192,0.096-0.45-0.226-0.509c0.01-0.013,0.018-0.028,0.029-0.039c0.919-0.895,1.693-0.315,2.469,0.243
		c-0.23,0.172-0.211,0.421-0.211,0.667c0.001,2.153,0.002,4.307-0.003,6.46c0,0.185,0.076,0.399-0.127,0.541
		C13.88,8.56,13.529,8.39,13.177,8.221z"/>
	<path class="st12" d="M13.177,8.221c-0.291-0.194-0.582-0.389-0.873-0.583c0-2.091,0.003-4.181-0.002-6.272
		c0-0.192,0.096-0.45-0.226-0.509c0.01-0.013,0.018-0.028,0.029-0.039c0.919-0.895,1.693-0.315,2.469,0.243
		c-0.23,0.172-0.211,0.421-0.211,0.667c0.001,2.153,0.002,4.307-0.003,6.46c0,0.185,0.076,0.399-0.127,0.541
		C13.88,8.56,13.529,8.39,13.177,8.221z"/>
	<path class="st13" d="M21.713,11.164c0.77-0.308,1.46-0.765,2.184-1.158c1.095-0.594,2.147-1.267,3.286-1.78
		c0,0.783,0,1.567,0,2.35c-0.378-0.021-0.619,0.267-0.913,0.423c-1.419,0.753-2.81,1.56-4.24,2.291
		c-0.616,0.315-1.172,0.763-1.87,0.911c-0.012-0.717-0.024-1.434-0.036-2.151C20.713,11.86,21.233,11.548,21.713,11.164z"/>
	<path class="st13" d="M21.713,11.164c0.77-0.308,1.46-0.765,2.184-1.158c1.095-0.594,2.147-1.267,3.286-1.78
		c0,0.783,0,1.567,0,2.35c-0.378-0.021-0.619,0.267-0.913,0.423c-1.419,0.753-2.81,1.56-4.24,2.291
		c-0.616,0.315-1.172,0.763-1.87,0.911c-0.012-0.717-0.024-1.434-0.036-2.151C20.713,11.86,21.233,11.548,21.713,11.164z"/>
	<path class="st4" d="M22.3,26.648c-0.549-0.486-1.214-0.789-1.835-1.159c-1.46-0.869-2.933-1.716-4.398-2.576
		c-0.165-0.097-0.348-0.184-0.431-0.379c0.622-0.407,1.268-0.771,1.939-1.09c0.384,0.356,0.857,0.577,1.3,0.841
		c1.795,1.069,3.597,2.128,5.396,3.191C23.675,25.969,22.987,26.308,22.3,26.648z"/>
	<path class="st4" d="M22.3,26.648c-0.549-0.486-1.214-0.789-1.835-1.159c-1.46-0.869-2.933-1.716-4.398-2.576
		c-0.165-0.097-0.348-0.184-0.431-0.379c0.622-0.407,1.268-0.771,1.939-1.09c0.384,0.356,0.857,0.577,1.3,0.841
		c1.795,1.069,3.597,2.128,5.396,3.191C23.675,25.969,22.987,26.308,22.3,26.648z"/>
	<path class="st14" d="M20.161,14.203c0.698-0.148,1.255-0.596,1.87-0.911c1.43-0.732,2.821-1.538,4.24-2.291
		c0.294-0.156,0.535-0.444,0.913-0.423c0,0.719,0,1.437,0,2.156c-0.065,0.006-0.14-0.008-0.192,0.021
		c-1.554,0.844-3.097,1.708-4.662,2.532c-0.713,0.375-1.362,0.887-2.169,1.074C20.161,15.64,20.161,14.921,20.161,14.203z"/>
	<path class="st14" d="M20.161,14.203c0.698-0.148,1.255-0.596,1.87-0.911c1.43-0.732,2.821-1.538,4.24-2.291
		c0.294-0.156,0.535-0.444,0.913-0.423c0,0.719,0,1.437,0,2.156c-0.065,0.006-0.14-0.008-0.192,0.021
		c-1.554,0.844-3.097,1.708-4.662,2.532c-0.713,0.375-1.362,0.887-2.169,1.074C20.161,15.64,20.161,14.921,20.161,14.203z"/>
	<path class="st13" d="M14.232,8.729c0.203-0.142,0.127-0.356,0.127-0.541c0.005-2.153,0.003-4.307,0.003-6.46
		c0-0.245-0.019-0.495,0.211-0.667c0.581,0.248,1.111,0.588,1.65,0.913c0,2.402,0.001,4.805,0.001,7.207
		c0,0.211,0.018,0.424-0.099,0.615C15.472,9.48,14.839,9.127,14.232,8.729z"/>
	<path class="st13" d="M14.232,8.729c0.203-0.142,0.127-0.356,0.127-0.541c0.005-2.153,0.003-4.307,0.003-6.46
		c0-0.245-0.019-0.495,0.211-0.667c0.581,0.248,1.111,0.588,1.65,0.913c0,2.402,0.001,4.805,0.001,7.207
		c0,0.211,0.018,0.424-0.099,0.615C15.472,9.48,14.839,9.127,14.232,8.729z"/>
	<path class="st14" d="M12.075,0.858c0.322,0.059,0.225,0.316,0.226,0.509c0.005,2.091,0.003,4.181,0.002,6.272
		c-0.57-0.168-0.995-0.622-1.565-0.792c-0.275-0.303-0.719-0.354-0.988-0.665c0.002-1.341,0.005-2.683,0.008-4.025
		C10.512,1.689,11.277,1.244,12.075,0.858z"/>
	<path class="st14" d="M12.075,0.858c0.322,0.059,0.225,0.316,0.226,0.509c0.005,2.091,0.003,4.181,0.002,6.272
		c-0.57-0.168-0.995-0.622-1.565-0.792c-0.275-0.303-0.719-0.354-0.988-0.665c0.002-1.341,0.005-2.683,0.008-4.025
		C10.512,1.689,11.277,1.244,12.075,0.858z"/>
	<path class="st15" d="M18.06,10.882c0.323-0.062,0.218-0.321,0.218-0.511c0.006-2.411,0.004-4.822,0.003-7.234
		c0.605,0.232,1.09,0.678,1.675,0.946c-0.003,2.399-0.004,4.798-0.013,7.197c-0.001,0.2,0.088,0.432-0.132,0.587
		C19.2,11.59,18.621,11.252,18.06,10.882z"/>
	<path class="st15" d="M18.06,10.882c0.323-0.062,0.218-0.321,0.218-0.511c0.006-2.411,0.004-4.822,0.003-7.234
		c0.605,0.232,1.09,0.678,1.675,0.946c-0.003,2.399-0.004,4.798-0.013,7.197c-0.001,0.2,0.088,0.432-0.132,0.587
		C19.2,11.59,18.621,11.252,18.06,10.882z"/>
	<path class="st7" d="M24.271,25.476c-1.799-1.063-3.601-2.121-5.396-3.191c-0.443-0.264-0.915-0.486-1.3-0.841
		c0.504-0.34,1.03-0.639,1.583-0.892c0.108,0.265,0.365,0.368,0.581,0.496c1.728,1.023,3.469,2.023,5.19,3.058
		c0.256,0.154,0.65,0.19,0.709,0.595C25.249,25.078,24.795,25.338,24.271,25.476z"/>
	<path class="st7" d="M24.271,25.476c-1.799-1.063-3.601-2.121-5.396-3.191c-0.443-0.264-0.915-0.486-1.3-0.841
		c0.504-0.34,1.03-0.639,1.583-0.892c0.108,0.265,0.365,0.368,0.581,0.496c1.728,1.023,3.469,2.023,5.19,3.058
		c0.256,0.154,0.65,0.19,0.709,0.595C25.249,25.078,24.795,25.338,24.271,25.476z"/>
	<path class="st9" d="M20.161,16.358c0.807-0.187,1.456-0.699,2.169-1.074c1.565-0.823,3.108-1.688,4.662-2.532
		c0.052-0.028,0.128-0.015,0.192-0.021c0,0.555,0,1.111,0,1.666c-0.597,0.133-1.077,0.51-1.601,0.79
		c-1.689,0.902-3.367,1.826-5.053,2.735c-0.11,0.059-0.246,0.068-0.37,0.101C20.161,17.469,20.161,16.914,20.161,16.358z"/>
	<path class="st9" d="M20.161,16.358c0.807-0.187,1.456-0.699,2.169-1.074c1.565-0.823,3.108-1.688,4.662-2.532
		c0.052-0.028,0.128-0.015,0.192-0.021c0,0.555,0,1.111,0,1.666c-0.597,0.133-1.077,0.51-1.601,0.79
		c-1.689,0.902-3.367,1.826-5.053,2.735c-0.11,0.059-0.246,0.068-0.37,0.101C20.161,17.469,20.161,16.914,20.161,16.358z"/>
	<path class="st16" d="M19.813,11.869c0.22-0.155,0.131-0.388,0.132-0.587c0.009-2.399,0.01-4.798,0.013-7.197
		c0.513,0.225,0.988,0.518,1.46,0.816c0,1.901-0.001,3.802,0.003,5.702c0,0.231-0.078,0.517,0.293,0.561
		c-0.481,0.383-1.001,0.695-1.588,0.887C19.997,12.032,19.899,11.96,19.813,11.869z"/>
	<path class="st16" d="M19.813,11.869c0.22-0.155,0.131-0.388,0.132-0.587c0.009-2.399,0.01-4.798,0.013-7.197
		c0.513,0.225,0.988,0.518,1.46,0.816c0,1.901-0.001,3.802,0.003,5.702c0,0.231-0.078,0.517,0.293,0.561
		c-0.481,0.383-1.001,0.695-1.588,0.887C19.997,12.032,19.899,11.96,19.813,11.869z"/>
	<path class="st8" d="M25.638,24.702c-0.059-0.405-0.453-0.442-0.709-0.595c-1.721-1.035-3.462-2.035-5.19-3.058
		c-0.217-0.128-0.474-0.231-0.581-0.496c0.326-0.191,0.652-0.381,0.979-0.572c2.171,1.217,4.344,2.431,6.511,3.655
		c0.144,0.082,0.339,0.149,0.358,0.367C26.568,24.27,26.166,24.61,25.638,24.702z"/>
	<path class="st8" d="M25.638,24.702c-0.059-0.405-0.453-0.442-0.709-0.595c-1.721-1.035-3.462-2.035-5.19-3.058
		c-0.217-0.128-0.474-0.231-0.581-0.496c0.326-0.191,0.652-0.381,0.979-0.572c2.171,1.217,4.344,2.431,6.511,3.655
		c0.144,0.082,0.339,0.149,0.358,0.367C26.568,24.27,26.166,24.61,25.638,24.702z"/>
</g>
</svg>
