<?xml version="1.0" encoding="utf-8"?>
<!-- Generator: Adobe Illustrator 26.2.1, SVG Export Plug-In . SVG Version: 6.00 Build 0)  -->
<svg version="1.1" id="Layer_1" xmlns="http://www.w3.org/2000/svg" xmlns:xlink="http://www.w3.org/1999/xlink" x="0px" y="0px"
	 viewBox="0 0 32 32" style="enable-background:new 0 0 32 32;" xml:space="preserve">
<style type="text/css">
	.st0{fill:#24246C;}
	.st1{fill-rule:evenodd;clip-rule:evenodd;fill:#FFFFFF;}
</style>
<g>
	<circle class="st0" cx="16.046" cy="16.046" r="15.731"/>
	<path id="path0" class="st1" d="M8.446,15.419v8.845l0.101,0.035c0.195,0.068,2.631,0.047,2.694-0.023
		c0.054-0.059,0.086-17.431,0.033-17.63l-0.019-0.072H9.851H8.446V15.419 M12.926,7.979v1.404l0.1,0.02
		c0.055,0.011,1.131,0.02,2.392,0.021c1.261,0,2.35,0.014,2.42,0.03s0.294,0.045,0.496,0.065c0.202,0.02,0.409,0.057,0.459,0.082
		c0.05,0.025,0.18,0.061,0.288,0.081c0.108,0.019,0.242,0.063,0.296,0.097c0.055,0.034,0.127,0.061,0.16,0.062
		c0.033,0,0.118,0.036,0.188,0.079c0.07,0.043,0.15,0.079,0.178,0.08c0.027,0,0.099,0.037,0.158,0.081
		c0.06,0.044,0.133,0.08,0.164,0.08s0.098,0.036,0.15,0.08c0.052,0.044,0.109,0.08,0.125,0.08c0.025,0,0.304,0.194,0.568,0.396
		c0.25,0.191,0.508,0.427,0.672,0.614c0.106,0.121,0.214,0.244,0.24,0.274c0.143,0.16,0.301,0.364,0.393,0.506
		c0.16,0.248,0.216,0.344,0.27,0.459c0.076,0.162-0.01,0.154,1.657,0.144l1.472-0.009l0.01-0.087
		c0.006-0.049-0.018-0.125-0.054-0.176c-0.035-0.049-0.081-0.154-0.101-0.233s-0.056-0.166-0.08-0.192s-0.057-0.109-0.073-0.183
		c-0.017-0.074-0.053-0.157-0.081-0.185c-0.028-0.028-0.066-0.108-0.085-0.177c-0.019-0.07-0.046-0.127-0.06-0.127
		s-0.053-0.061-0.086-0.136c-0.033-0.075-0.074-0.146-0.09-0.157c-0.029-0.02-0.111-0.168-0.226-0.403
		c-0.028-0.057-0.064-0.104-0.081-0.104s-0.055-0.047-0.084-0.104c-0.029-0.057-0.087-0.147-0.129-0.2
		c-0.041-0.053-0.101-0.13-0.131-0.171c-0.031-0.041-0.092-0.115-0.136-0.165c-0.109-0.122-0.38-0.433-0.532-0.61
		c-0.068-0.08-0.181-0.192-0.25-0.25c-0.207-0.172-0.503-0.432-0.579-0.509c-0.039-0.04-0.087-0.072-0.106-0.072
		s-0.051-0.029-0.069-0.064c-0.019-0.035-0.054-0.064-0.078-0.064c-0.037,0-0.155-0.083-0.372-0.263
		c-0.028-0.023-0.103-0.069-0.168-0.102c-0.065-0.034-0.118-0.072-0.118-0.085c0-0.013-0.042-0.034-0.093-0.045
		c-0.051-0.011-0.118-0.048-0.149-0.083c-0.031-0.034-0.074-0.062-0.095-0.062c-0.021,0-0.089-0.034-0.151-0.076
		c-0.062-0.042-0.163-0.093-0.226-0.114c-0.063-0.021-0.13-0.057-0.15-0.081c-0.02-0.024-0.093-0.053-0.162-0.065
		c-0.069-0.012-0.16-0.048-0.202-0.081s-0.136-0.074-0.21-0.09c-0.073-0.016-0.166-0.052-0.207-0.079
		c-0.041-0.027-0.158-0.064-0.261-0.083c-0.103-0.019-0.22-0.056-0.26-0.082c-0.04-0.026-0.177-0.063-0.305-0.081
		c-0.127-0.018-0.274-0.054-0.327-0.08c-0.052-0.026-0.26-0.062-0.462-0.08c-0.202-0.018-0.469-0.054-0.594-0.08
		c-0.19-0.04-0.642-0.047-2.731-0.048h-2.504V7.979 M13.222,14.404c-0.057,0.023-0.058,2.38-0.002,2.436
		c0.065,0.065,2.597,0.054,2.663-0.012c0.044-0.044,0.05-0.2,0.05-1.228v-1.178l-0.072-0.019
		C15.776,14.38,13.28,14.381,13.222,14.404 M17.076,14.404c-0.027,0.027-0.028,2.355-0.002,2.424
		c0.018,0.046,0.313,0.051,3.02,0.051c2.614,0,3.006,0.006,3.04,0.048c0.047,0.057-0.003,0.4-0.075,0.509
		c-0.025,0.038-0.056,0.118-0.069,0.18c-0.013,0.061-0.058,0.17-0.1,0.242c-0.042,0.072-0.076,0.153-0.076,0.18
		s-0.027,0.083-0.06,0.125c-0.033,0.042-0.071,0.112-0.084,0.156c-0.014,0.044-0.055,0.123-0.092,0.175
		c-0.077,0.109-0.106,0.153-0.196,0.302c-0.188,0.313-1.135,1.347-1.233,1.347c-0.016,0-0.054,0.028-0.086,0.062
		c-0.082,0.088-0.262,0.217-0.384,0.274c-0.057,0.027-0.104,0.061-0.104,0.076c0,0.015-0.046,0.047-0.103,0.07
		c-0.056,0.023-0.128,0.068-0.16,0.1c-0.032,0.032-0.083,0.057-0.114,0.057s-0.109,0.036-0.173,0.079
		c-0.064,0.044-0.175,0.088-0.245,0.1c-0.071,0.011-0.136,0.04-0.145,0.063c-0.009,0.023-0.078,0.059-0.154,0.079
		c-0.076,0.02-0.195,0.063-0.266,0.095c-0.07,0.033-0.214,0.069-0.32,0.082c-0.106,0.012-0.209,0.035-0.229,0.052
		c-0.12,0.095-0.301,0.103-2.987,0.12l-2.736,0.018l-0.008,1.401l-0.008,1.401l0.082,0.031c0.112,0.043,4.3,0.041,4.834-0.002
		c0.227-0.018,0.571-0.046,0.765-0.062c0.194-0.016,0.402-0.05,0.464-0.075c0.062-0.026,0.216-0.063,0.343-0.082
		c0.127-0.02,0.304-0.064,0.393-0.099c0.089-0.035,0.198-0.064,0.242-0.064s0.148-0.036,0.231-0.08
		c0.083-0.044,0.172-0.08,0.199-0.08c0.027,0,0.12-0.036,0.208-0.079c0.088-0.043,0.177-0.079,0.197-0.08
		c0.02-0.001,0.114-0.042,0.208-0.091c0.094-0.05,0.2-0.101,0.235-0.113c0.035-0.013,0.136-0.065,0.224-0.116
		c0.088-0.051,0.209-0.117,0.268-0.145c0.06-0.028,0.146-0.077,0.192-0.108c0.046-0.031,0.148-0.099,0.228-0.15
		c0.123-0.08,0.284-0.197,0.666-0.485c0.346-0.261,1.446-1.374,1.446-1.462c0-0.013,0.063-0.098,0.14-0.188
		c0.077-0.091,0.164-0.212,0.193-0.269c0.029-0.057,0.066-0.104,0.082-0.104c0.016,0,0.039-0.032,0.051-0.072
		c0.012-0.04,0.048-0.101,0.079-0.136c0.031-0.035,0.081-0.114,0.11-0.176c0.029-0.062,0.094-0.184,0.145-0.272
		c0.131-0.227,0.312-0.594,0.338-0.686c0.012-0.043,0.05-0.122,0.082-0.176c0.033-0.054,0.06-0.12,0.06-0.147
		c0-0.027,0.029-0.106,0.065-0.176c0.036-0.07,0.087-0.219,0.113-0.333c0.026-0.113,0.063-0.223,0.08-0.245
		c0.018-0.022,0.047-0.128,0.064-0.236c0.017-0.108,0.052-0.258,0.077-0.331c0.025-0.074,0.067-0.307,0.093-0.519
		c0.026-0.211,0.064-0.456,0.085-0.544c0.112-0.483,0.034-1.878-0.107-1.916C26.003,14.376,17.102,14.378,17.076,14.404"/>
</g>
</svg>
