<?xml version="1.0" encoding="utf-8"?>
<!-- Generator: Adobe Illustrator 24.0.2, SVG Export Plug-In . SVG Version: 6.00 Build 0)  -->
<svg version="1.1" id="Layer_1" xmlns="http://www.w3.org/2000/svg" xmlns:xlink="http://www.w3.org/1999/xlink" x="0px" y="0px"
	 viewBox="0 0 32 32" style="enable-background:new 0 0 32 32;" xml:space="preserve">
<style type="text/css">
	.st0{fill-rule:evenodd;clip-rule:evenodd;fill:#FFFFFF;}
	.st1{fill:#7B32E8;}
	.st2{fill:#1CB7ED;}
</style>
<g>
	<circle class="st0" cx="16" cy="16" r="16"/>
	<path class="st1" d="M14.519,23.229h-4.079V8.76h4.079V0.043C6.294,0.8,0,7.717,0,15.999c0,8.282,6.294,15.199,14.519,15.956
		V23.229z"/>
	<path class="st2" d="M17.456,0.04v8.822c0.587,0.084,1.163,0.234,1.718,0.446c0.902,0.341,1.728,0.857,2.432,1.519
		c0.68,0.644,1.219,1.422,1.584,2.285c0.375,0.899,0.564,1.866,0.556,2.841v0.042c0.008,0.979-0.181,1.949-0.556,2.852
		c-0.362,0.867-0.902,1.649-1.584,2.294c-0.704,0.663-1.53,1.183-2.432,1.53c-0.554,0.217-1.13,0.37-1.718,0.458v8.832
		c8.235-0.746,14.543-7.668,14.543-15.959c0-8.291-6.308-15.213-14.543-15.959V0.04z"/>
</g>
</svg>
