<?xml version="1.0" encoding="utf-8"?>
<!-- Generator: Adobe Illustrator 25.2.3, SVG Export Plug-In . SVG Version: 6.00 Build 0)  -->
<svg version="1.1" id="Layer_1" xmlns="http://www.w3.org/2000/svg" xmlns:xlink="http://www.w3.org/1999/xlink" x="0px" y="0px"
	 viewBox="0 0 32 32" style="enable-background:new 0 0 32 32;" xml:space="preserve">
<style type="text/css">
	.st0{fill:#FFFFFF;}
	.st1{stroke:#000000;stroke-width:0.7;stroke-miterlimit:10;}
</style>
<g>
	<polygon class="st0" points="3.717,7.578 15.992,0.842 29.423,8.424 29.423,23.556 15.989,31.174 2.701,23.868 2.558,8.251 	"/>
	<g>
		<path class="st1" d="M2.558,8.251c1.048-0.609,2.083-1.209,3.116-1.81C7.082,5.622,8.488,4.797,9.9,3.982
			c1.82-1.051,3.644-2.093,5.465-3.141c0.092-0.053,0.17-0.128,0.259-0.186c0.253-0.167,0.479-0.133,0.744,0.025
			c1.24,0.737,2.491,1.456,3.743,2.173c1.224,0.701,2.459,1.383,3.681,2.088c1.127,0.65,2.241,1.321,3.363,1.979
			c0.687,0.403,1.383,0.792,2.066,1.201c0.096,0.058,0.199,0.199,0.202,0.303c0.02,0.888,0.021,1.776,0.022,2.664
			c0.003,4.059,0,8.117,0.014,12.176c0.001,0.389-0.128,0.61-0.468,0.803c-1.961,1.11-3.906,2.247-5.861,3.367
			c-1.183,0.679-2.378,1.337-3.56,2.018c-1.04,0.599-2.081,1.198-3.098,1.835c-0.364,0.228-0.644,0.218-0.995,0.005
			c-0.65-0.393-1.325-0.744-1.984-1.123c-0.806-0.464-1.603-0.942-2.408-1.408c-1.44-0.835-2.884-1.663-4.325-2.498
			c-0.648-0.376-1.29-0.761-1.936-1.14c-0.709-0.417-1.421-0.828-2.124-1.254c-0.078-0.047-0.151-0.176-0.151-0.268
			C2.541,18.552,2.541,13.503,2.541,8.454C2.541,8.392,2.551,8.33,2.558,8.251z M15.992,0.842c-1.455,0.834-2.878,1.652-4.302,2.467
			c-1.464,0.838-2.93,1.671-4.392,2.512c-1.391,0.8-2.776,1.611-4.171,2.404C2.899,8.354,2.813,8.5,2.815,8.761
			c0.011,1.91,0.008,3.819,0.008,5.729c0,2.962-0.003,5.924,0.002,8.886c0,0.104,0.045,0.261,0.12,0.305
			c0.721,0.422,1.453,0.825,2.181,1.233c0.501,0.281,1.004,0.557,1.5,0.845c0.433,0.251,0.854,0.522,1.287,0.771
			c0.667,0.384,1.344,0.752,2.011,1.135c1.018,0.585,2.033,1.176,3.048,1.766c0.57,0.332,1.135,0.671,1.705,1.001
			c0.422,0.244,0.85,0.48,1.312,0.74c0.414-0.237,0.83-0.478,1.25-0.714c0.981-0.552,1.968-1.092,2.943-1.655
			c1.503-0.868,2.994-1.755,4.495-2.626c1.372-0.796,2.749-1.584,4.128-2.368c0.221-0.126,0.318-0.274,0.317-0.54
			c-0.001-1.99,0.019-3.98,0.022-5.97c0.004-2.874,0.001-5.748-0.007-8.622c0-0.091-0.055-0.222-0.127-0.266
			c-0.466-0.289-0.944-0.561-1.419-0.836c-1.418-0.82-2.837-1.637-4.254-2.459c-1.033-0.6-2.061-1.209-3.095-1.808
			c-0.598-0.347-1.203-0.682-1.805-1.023c-0.003,0.006-0.006,0.012-0.009,0.018C17.62,1.819,16.811,1.333,15.992,0.842z"/>
		<path d="M12.079,9.104c-0.737,0.869-1.408,1.66-2.104,2.482c-0.728-0.843-1.437-1.663-2.144-2.482
			C9.216,9.104,10.594,9.104,12.079,9.104z"/>
		<path d="M21.973,11.587c-0.701-0.826-1.376-1.621-2.113-2.49c1.447,0,2.811,0,4.218,0C23.39,9.91,22.695,10.732,21.973,11.587z"/>
		<path d="M16.655,19.123c0.712-0.842,1.381-1.634,2.071-2.45c0.692,0.816,1.366,1.611,2.077,2.45
			C19.404,19.123,18.066,19.123,16.655,19.123z"/>
		<path d="M13.208,16.675c0.697,0.822,1.363,1.609,2.071,2.445c-1.409,0-2.746,0-4.144,0C11.843,18.286,12.513,17.495,13.208,16.675
			z"/>
		<path d="M9.964,20.497c0.695,0.82,1.365,1.611,2.074,2.448c-1.403,0-2.738,0-4.147,0C8.595,22.113,9.264,21.323,9.964,20.497z"/>
		<path d="M24.035,22.94c-1.402,0-2.742,0-4.13,0c0.699-0.824,1.372-1.618,2.065-2.435C22.653,21.31,23.321,22.097,24.035,22.94z"/>
		<path d="M21.227,19.98c-0.71,0.837-1.381,1.628-2.073,2.444c-0.692-0.815-1.366-1.608-2.075-2.444
			C18.485,19.98,19.825,19.98,21.227,19.98z"/>
		<path d="M21.226,12.105c-1.4,0-2.742,0-4.141,0c0.702-0.828,1.373-1.619,2.071-2.442C19.843,10.475,20.517,11.27,21.226,12.105z"
			/>
		<path d="M14.853,19.984c-0.705,0.832-1.373,1.619-2.069,2.439c-0.687-0.809-1.361-1.603-2.071-2.439
			C12.11,19.984,13.445,19.984,14.853,19.984z"/>
		<path d="M14.86,12.107c-1.415,0-2.746,0-4.145,0c0.709-0.835,1.384-1.63,2.076-2.445C13.476,10.472,14.145,11.263,14.86,12.107z"
			/>
		<path d="M11.134,12.976c1.401,0,2.732,0,4.133,0c-0.705,0.832-1.374,1.622-2.063,2.436C12.513,14.599,11.842,13.809,11.134,12.976
			z"/>
		<path d="M20.797,12.98c-0.701,0.827-1.369,1.615-2.064,2.435c-0.686-0.81-1.358-1.604-2.062-2.435
			C18.063,12.98,19.399,12.98,20.797,12.98z"/>
		<path d="M17.825,15.61c-1.266,0-2.45,0-3.711,0c0.637-0.754,1.232-1.458,1.852-2.192C16.585,14.147,17.184,14.854,17.825,15.61z"
			/>
		<path d="M17.824,16.469c-0.639,0.755-1.236,1.461-1.855,2.194c-0.621-0.733-1.221-1.442-1.858-2.194
			C15.367,16.469,16.558,16.469,17.824,16.469z"/>
		<path d="M11.748,8.272c-0.429-0.488-0.807-0.919-1.178-1.341C9.654,7.387,8.767,7.83,7.88,8.272H11.748L11.748,8.272z"/>
		<path d="M10.463,25.181c-0.896-0.459-1.769-0.907-2.726-1.398c1.338,0,2.582,0,3.908,0C11.231,24.272,10.855,24.717,10.463,25.181
			z"/>
		<path d="M23.998,8.272c0.007-0.006,0.012-0.011,0.014-0.012c-0.896-0.462-1.769-0.913-2.667-1.376
			c-0.384,0.45-0.767,0.9-1.178,1.382c0.013,0.002,0.024,0.004,0.034,0.006H23.998L23.998,8.272z"/>
		<path d="M21.551,25.141c-0.394-0.461-0.768-0.898-1.175-1.375c1.254,0,2.461,0,3.773,0C23.231,24.252,22.4,24.691,21.551,25.141z"
			/>
	</g>
</g>
</svg>
