<?xml version="1.0" encoding="utf-8"?>
<!-- Generator: Adobe Illustrator 22.0.1, SVG Export Plug-In . SVG Version: 6.00 Build 0)  -->
<svg version="1.1" id="Layer_1" xmlns="http://www.w3.org/2000/svg" xmlns:xlink="http://www.w3.org/1999/xlink" x="0px" y="0px"
	 viewBox="0 0 32 32" style="enable-background:new 0 0 32 32;" xml:space="preserve">
<style type="text/css">
	.st0{fill:#BD01FE;}
	.st1{fill:#FFFFFF;}
</style>
<circle class="st0" cx="16" cy="16" r="16"/>
<g>
	<path class="st1" d="M4.362,16.159c0-1.674,0.002-3.348-0.003-5.022c-0.001-0.199-0.006-0.308,0.271-0.252
		c0.469,0.094,0.909-0.162,1.151-0.596c0.218-0.391,0.177-0.909-0.134-1.253C5.505,8.88,5.539,8.83,5.7,8.737
		c2.166-1.245,4.329-2.495,6.493-3.745c0.761-0.439,1.523-0.875,2.281-1.319c0.155-0.091,0.23-0.136,0.302,0.098
		c0.134,0.436,0.632,0.759,1.069,0.745c0.496-0.015,0.94-0.334,1.078-0.796c0.044-0.146,0.08-0.164,0.212-0.088
		c2.175,1.26,4.352,2.517,6.529,3.774c0.774,0.447,1.547,0.893,2.322,1.337c0.13,0.074,0.215,0.111,0.061,0.279
		c-0.342,0.371-0.368,0.897-0.109,1.328c0.25,0.417,0.725,0.635,1.206,0.522c0.23-0.054,0.176,0.091,0.176,0.199
		c0.002,1.638,0.001,3.276,0.001,4.913c0,1.744-0.003,3.488,0.004,5.232c0.001,0.184-0.022,0.236-0.229,0.205
		c-0.531-0.08-0.967,0.153-1.196,0.592c-0.23,0.443-0.168,0.904,0.198,1.319c0.111,0.126,0.016,0.145-0.062,0.19
		c-0.773,0.447-1.546,0.895-2.32,1.343c-2.045,1.182-4.09,2.365-6.135,3.547c-0.033,0.019-0.066,0.037-0.099,0.055
		c-0.153,0.084-0.31,0.24-0.456,0.231c-0.152-0.009-0.134-0.266-0.23-0.398c-0.274-0.38-0.637-0.555-1.097-0.501
		c-0.454,0.053-0.781,0.312-0.923,0.738c-0.075,0.225-0.151,0.177-0.288,0.097c-1.015-0.588-2.031-1.175-3.047-1.762
		c-1.758-1.015-3.515-2.029-5.273-3.043c-0.164-0.095-0.322-0.201-0.491-0.284c-0.14-0.069-0.17-0.108-0.053-0.249
		c0.531-0.638,0.317-1.49-0.442-1.821c-0.219-0.095-0.449-0.086-0.671-0.043c-0.143,0.027-0.15-0.024-0.149-0.131
		c0.003-0.296,0.002-0.591,0.002-0.887c0-1.418,0-2.835,0-4.253C4.364,16.159,4.363,16.159,4.362,16.159z M16.436,7.22
		c0-0.538,0.003-1.077-0.001-1.615c-0.003-0.428-0.442-0.683-0.821-0.486c-0.251,0.131-0.308,0.357-0.309,0.611
		c-0.001,1.031-0.003,2.063,0.002,3.094c0.001,0.148-0.028,0.22-0.196,0.219c-0.18,0-0.362,0.027-0.541,0.057
		c-1.871,0.314-3.406,1.206-4.599,2.684c-0.198,0.245-0.193,0.238-0.461,0.082c-0.837-0.488-1.676-0.974-2.518-1.453
		c-0.3-0.171-0.599-0.088-0.765,0.192c-0.155,0.26-0.073,0.554,0.209,0.744c0.069,0.047,0.139,0.092,0.211,0.133
		c0.8,0.46,1.6,0.923,2.403,1.377c0.134,0.076,0.153,0.14,0.087,0.281c-0.509,1.096-0.77,2.244-0.67,3.456
		c0.073,0.885,0.218,1.757,0.607,2.568c0.074,0.154,0.057,0.227-0.099,0.316c-0.824,0.464-1.642,0.941-2.459,1.416
		c-0.357,0.207-0.461,0.521-0.281,0.813c0.172,0.279,0.5,0.329,0.838,0.134c0.806-0.466,1.617-0.924,2.417-1.399
		c0.179-0.106,0.268-0.093,0.39,0.078c0.487,0.688,1.101,1.249,1.806,1.705c1.009,0.653,2.107,1.071,3.31,1.179
		c0.306,0.027,0.308,0.014,0.308,0.314c0,0.963-0.002,1.926,0.001,2.889c0.002,0.395,0.231,0.631,0.591,0.625
		c0.336-0.005,0.539-0.236,0.539-0.617c0.001-0.925,0-1.85,0-2.775c0-0.415,0-0.416,0.414-0.491
		c1.999-0.362,3.587-1.365,4.741-3.041c0.087-0.127,0.152-0.128,0.272-0.057c0.521,0.308,1.047,0.609,1.571,0.912
		c0.406,0.235,0.81,0.474,1.219,0.705c0.258,0.146,0.538,0.118,0.716-0.059c0.168-0.167,0.212-0.42,0.106-0.629
		c-0.075-0.148-0.21-0.233-0.349-0.314c-0.912-0.524-1.822-1.052-2.736-1.573c-0.132-0.075-0.164-0.153-0.097-0.29
		c0.136-0.28,0.157-0.582,0.142-0.888c-0.027-0.558-0.461-1.063-0.99-1.158c-0.548-0.098-1.015,0.158-1.263,0.699
		c-0.132,0.289-0.228,0.598-0.392,0.867c-1.094,1.801-2.696,2.624-4.795,2.381c-1.233-0.143-2.239-0.743-3.029-1.703
		c-0.091-0.111-0.069-0.157,0.042-0.218c0.213-0.116,0.421-0.24,0.631-0.361c1.567-0.903,3.135-1.806,4.702-2.709
		c1.816-1.047,3.632-2.094,5.447-3.142c0.819-0.473,1.638-0.948,2.456-1.422c0.221-0.128,0.314-0.323,0.284-0.572
		c-0.025-0.209-0.21-0.399-0.43-0.449c-0.213-0.049-0.38,0.066-0.551,0.165c-0.91,0.528-1.822,1.053-2.728,1.588
		c-0.144,0.085-0.199,0.062-0.298-0.071c-1.225-1.648-2.854-2.629-4.888-2.926c-0.157-0.023-0.203-0.082-0.201-0.231
		C16.439,8.312,16.436,7.766,16.436,7.22z"/>
	<path class="st1" d="M27.469,22.539c0.004,0.294-0.252,0.553-0.55,0.554c-0.3,0.001-0.56-0.249-0.564-0.54
		c-0.004-0.293,0.248-0.56,0.539-0.572C27.192,21.967,27.465,22.232,27.469,22.539z"/>
	<path class="st1" d="M15.85,29.474c-0.321,0.002-0.562-0.234-0.56-0.55c0.002-0.297,0.249-0.548,0.544-0.552
		c0.306-0.004,0.559,0.251,0.557,0.56C16.39,29.243,16.16,29.473,15.85,29.474z"/>
	<path class="st1" d="M26.921,9.213c0.304,0.003,0.548,0.247,0.548,0.55c0,0.304-0.265,0.556-0.578,0.548
		c-0.293-0.007-0.547-0.276-0.536-0.566C26.366,9.441,26.612,9.21,26.921,9.213z"/>
	<path class="st1" d="M4.781,10.312c-0.315,0.001-0.568-0.246-0.565-0.553C4.219,9.455,4.459,9.213,4.76,9.21
		C5.071,9.206,5.33,9.458,5.327,9.761C5.324,10.058,5.074,10.31,4.781,10.312z"/>
	<path class="st1" d="M4.77,21.979c0.289,0,0.558,0.266,0.557,0.551c-0.001,0.311-0.254,0.563-0.564,0.563
		c-0.303,0-0.536-0.242-0.537-0.557C4.224,22.237,4.477,21.979,4.77,21.979z"/>
	<path class="st1" d="M15.29,3.376c-0.002-0.302,0.239-0.553,0.54-0.561c0.308-0.008,0.563,0.246,0.562,0.56
		c-0.001,0.298-0.253,0.551-0.549,0.552C15.55,3.929,15.292,3.671,15.29,3.376z"/>
	<path class="st1" d="M18.581,12.53c-2.505,1.446-5.002,2.887-7.505,4.331c-0.142-1.983,0.21-3.559,2.133-4.694
		C15.033,11.091,17.196,11.378,18.581,12.53z"/>
</g>
</svg>
