<?xml version="1.0" encoding="utf-8"?>
<!-- Generator: Adobe Illustrator 25.3.1, SVG Export Plug-In . SVG Version: 6.00 Build 0)  -->
<svg version="1.1" id="Layer_1" xmlns="http://www.w3.org/2000/svg" xmlns:xlink="http://www.w3.org/1999/xlink" x="0px" y="0px"
	 viewBox="0 0 32 32" style="enable-background:new 0 0 32 32;" xml:space="preserve">
<style type="text/css">
	.st0{fill-rule:evenodd;clip-rule:evenodd;fill:#496DDA;}
	.st1{fill:#FEFEFE;}
	.st2{fill:#496DDA;}
</style>
<g>
	<circle class="st0" cx="16" cy="16" r="16"/>
	<g>
		<path class="st1" d="M15.857,8.423c2.776,0,5.553,0.003,8.329-0.003c0.506-0.001,0.996,0.087,1.476,0.218
			c0.594,0.163,0.954,0.574,1.055,1.176c0.109,0.653-0.263,1.141-0.948,1.178c-0.936,0.051-1.877,0.052-2.814,0.037
			c-0.474-0.008-0.571,0.1-0.406,0.573c0.277,0.795,0.341,1.641,0.36,2.481c0.008,0.364,0.139,0.492,0.496,0.485
			c0.759-0.013,1.519-0.015,2.277,0.011c0.799,0.028,1.072,0.326,1.082,1.109c0.022,1.562-0.126,1.712-1.687,1.715
			c-0.559,0.001-1.119,0.017-1.678-0.006c-0.382-0.016-0.529,0.109-0.533,0.508c-0.008,0.881-0.12,1.755-0.394,2.595
			c-0.112,0.344-0.003,0.432,0.312,0.431c0.859-0.003,1.718-0.01,2.577,0.005c0.969,0.018,1.333,0.28,1.39,0.958
			c0.065,0.774-0.395,1.336-1.248,1.468c-0.571,0.088-1.149,0.17-1.725,0.18c-5.293,0.091-10.587,0.086-15.881,0.006
			c-0.663-0.01-1.313-0.106-1.951-0.278c-0.748-0.202-1.148-0.962-0.896-1.691c0.148-0.427,0.445-0.637,0.906-0.635
			c0.899,0.004,1.798-0.025,2.697-0.005c0.475,0.01,0.703-0.03,0.498-0.616c-0.27-0.773-0.345-1.602-0.36-2.42
			c-0.008-0.432-0.16-0.543-0.563-0.532c-0.738,0.02-1.479,0.013-2.217-0.016c-0.828-0.033-1.065-0.292-1.079-1.102
			c-0.004-0.2-0.005-0.4,0.001-0.599c0.022-0.774,0.269-1.041,1.054-1.069c0.778-0.028,1.558-0.025,2.337-0.018
			c0.321,0.003,0.454-0.095,0.465-0.443c0.03-0.918,0.13-1.833,0.419-2.712c0.112-0.341-0.002-0.421-0.321-0.419
			C7.966,11,7.047,10.998,6.128,10.986c-0.772-0.01-1.105-0.269-1.188-0.893c-0.083-0.62,0.323-1.246,0.936-1.426
			c0.656-0.192,1.327-0.278,2.01-0.278c2.657,0.002,5.313,0.001,7.97,0.001C15.856,8.401,15.856,8.412,15.857,8.423z"/>
		<path class="st2" d="M15.836,14.564c-1.077,0-2.154-0.011-3.23,0.005c-0.408,0.006-0.602-0.125-0.531-0.557
			c0.064-0.393,0.083-0.794,0.169-1.181c0.188-0.847,0.753-1.336,1.575-1.536c1.38-0.336,2.766-0.352,4.142,0.012
			c1.192,0.315,1.975,1.702,1.729,2.982c-0.063,0.329-0.298,0.272-0.502,0.273C18.07,14.568,16.953,14.564,15.836,14.564z"/>
		<path class="st2" d="M15.86,17.404c1.077,0,2.154,0.016,3.231-0.008c0.458-0.01,0.628,0.151,0.535,0.597
			c-0.02,0.097-0.013,0.199-0.024,0.298c-0.185,1.693-0.651,2.228-2.334,2.52c-1.148,0.199-2.307,0.174-3.442-0.121
			c-1.256-0.326-2.121-1.827-1.791-3.049c0.077-0.284,0.286-0.234,0.474-0.235C13.626,17.402,14.743,17.404,15.86,17.404z"/>
	</g>
</g>
</svg>
