<?xml version="1.0" encoding="utf-8"?>
<!-- Generator: Adobe Illustrator 25.2.1, SVG Export Plug-In . SVG Version: 6.00 Build 0)  -->
<svg version="1.1" id="Layer_1" xmlns="http://www.w3.org/2000/svg" xmlns:xlink="http://www.w3.org/1999/xlink" x="0px" y="0px"
	 viewBox="0 0 32 32" style="enable-background:new 0 0 32 32;" xml:space="preserve">
<style type="text/css">
	.st0{fill-rule:evenodd;clip-rule:evenodd;fill:#0D022B;}
</style>
<g>
	<path class="st0" d="M25.359,6.592c-0.123-0.123-0.196-0.245-0.196-0.417c0-0.172,0.074-0.294,0.196-0.417
		c0.245-0.221,0.637-0.221,0.907,0c0.123,0.123,0.196,0.245,0.196,0.417c0,0.172-0.074,0.294-0.196,0.417
		c-0.123,0.098-0.294,0.172-0.441,0.172C25.653,6.788,25.481,6.739,25.359,6.592z"/>
	<path class="st0" d="M23.79,8.283c-0.098-0.123-0.172-0.245-0.172-0.417s0.074-0.294,0.172-0.417c0.221-0.221,0.613-0.221,0.834,0
		c0.098,0.123,0.172,0.245,0.172,0.417s-0.074,0.294-0.172,0.417c-0.123,0.098-0.245,0.172-0.417,0.172
		C24.035,8.455,23.912,8.382,23.79,8.283z"/>
	<path class="st0" d="M22.074,9.902c-0.098-0.098-0.172-0.245-0.172-0.417c0-0.172,0.074-0.294,0.172-0.417
		c0.221-0.221,0.613-0.221,0.834,0c0.098,0.098,0.172,0.245,0.172,0.417c0,0.172-0.074,0.294-0.172,0.417
		c-0.123,0.123-0.245,0.172-0.417,0.172S22.172,10,22.074,9.902z"/>
	<path class="st0" d="M20.431,11.544c-0.123-0.098-0.196-0.245-0.196-0.417s0.074-0.294,0.196-0.417
		c0.245-0.221,0.637-0.221,0.907,0c0.123,0.098,0.196,0.245,0.196,0.417s-0.074,0.319-0.196,0.417
		c-0.123,0.123-0.294,0.172-0.441,0.172C20.725,11.716,20.578,11.691,20.431,11.544z"/>
	<path class="st0" d="M18.862,13.187c-0.123-0.098-0.172-0.245-0.172-0.417c0-0.172,0.074-0.294,0.172-0.417
		c0.221-0.221,0.613-0.221,0.834,0c0.123,0.098,0.172,0.245,0.172,0.417c0,0.172-0.074,0.319-0.172,0.417
		c-0.098,0.123-0.245,0.172-0.417,0.172C19.131,13.383,18.96,13.334,18.862,13.187z"/>
	<path class="st0" d="M16.974,14.413c0-0.172,0.074-0.294,0.172-0.417c0.221-0.221,0.613-0.221,0.834,0
		c0.123,0.123,0.172,0.245,0.172,0.417s-0.074,0.294-0.172,0.417c-0.098,0.098-0.245,0.172-0.417,0.172s-0.294-0.074-0.417-0.172
		C17.023,14.732,16.974,14.584,16.974,14.413z"/>
	<path class="st0" d="M13.909,18.041c-0.098-0.098-0.172-0.245-0.172-0.417s0.074-0.294,0.172-0.417
		c0.221-0.221,0.613-0.221,0.834,0c0.123,0.123,0.172,0.245,0.172,0.417s-0.074,0.294-0.172,0.417
		c-0.098,0.123-0.245,0.172-0.417,0.172C14.179,18.237,14.032,18.188,13.909,18.041z"/>
	<path class="st0" d="M12.218,19.684c-0.123-0.098-0.196-0.245-0.196-0.417s0.074-0.294,0.196-0.417
		c0.245-0.221,0.637-0.221,0.907,0c0.123,0.123,0.196,0.245,0.196,0.417s-0.074,0.294-0.196,0.417
		c-0.123,0.123-0.294,0.172-0.441,0.172C12.487,19.88,12.34,19.807,12.218,19.684z"/>
	<path class="st0" d="M10.624,21.351c-0.098-0.098-0.172-0.245-0.172-0.417c0-0.172,0.074-0.319,0.172-0.417
		c0.221-0.221,0.613-0.221,0.834,0c0.098,0.098,0.172,0.245,0.172,0.417c0,0.172-0.074,0.294-0.172,0.417
		c-0.123,0.123-0.245,0.172-0.417,0.172S10.771,21.449,10.624,21.351z"/>
	<path class="st0" d="M8.981,22.994c-0.123-0.098-0.172-0.245-0.172-0.417s0.074-0.294,0.172-0.417c0.221-0.221,0.613-0.221,0.834,0
		c0.098,0.123,0.172,0.245,0.172,0.417s-0.074,0.319-0.172,0.417c-0.123,0.123-0.245,0.172-0.417,0.172
		C9.251,23.165,9.079,23.116,8.981,22.994z"/>
	<path class="st0" d="M7.29,24.636c-0.123-0.098-0.196-0.245-0.196-0.417s0.074-0.294,0.196-0.417c0.245-0.221,0.637-0.221,0.858,0
		c0.123,0.123,0.196,0.245,0.196,0.417s-0.074,0.319-0.196,0.417c-0.123,0.098-0.294,0.172-0.441,0.172
		C7.535,24.808,7.388,24.759,7.29,24.636z"/>
	<path class="st0" d="M5.672,26.279C5.549,26.156,5.5,26.034,5.5,25.862s0.074-0.294,0.172-0.417c0.221-0.221,0.613-0.221,0.834,0
		c0.123,0.123,0.172,0.245,0.172,0.417s-0.074,0.294-0.172,0.417c-0.098,0.098-0.245,0.172-0.417,0.172
		C5.966,26.475,5.819,26.402,5.672,26.279z"/>
	<path class="st0" d="M6.505,6.592c0.098-0.123,0.172-0.245,0.172-0.417c0-0.172-0.074-0.294-0.172-0.417
		c-0.221-0.221-0.613-0.221-0.834,0C5.549,5.881,5.5,6.003,5.5,6.175c0,0.172,0.074,0.294,0.172,0.417
		C5.77,6.69,5.917,6.763,6.088,6.763C6.26,6.788,6.407,6.739,6.505,6.592z"/>
	<path class="st0" d="M8.148,8.283C8.27,8.161,8.344,8.038,8.344,7.867S8.27,7.572,8.148,7.45c-0.245-0.221-0.637-0.221-0.907,0
		C7.118,7.572,7.045,7.695,7.045,7.867s0.074,0.294,0.196,0.417c0.123,0.098,0.294,0.172,0.441,0.172
		C7.854,8.431,8.025,8.382,8.148,8.283z"/>
	<path class="st0" d="M9.815,9.902c0.098-0.098,0.172-0.245,0.172-0.417c0-0.172-0.074-0.294-0.172-0.417
		c-0.221-0.221-0.613-0.221-0.834,0C8.883,9.166,8.81,9.313,8.81,9.485c0,0.172,0.074,0.294,0.172,0.417
		c0.123,0.123,0.245,0.172,0.417,0.172C9.545,10.073,9.692,10,9.815,9.902z"/>
	<path class="st0" d="M11.458,11.544c0.098-0.098,0.172-0.245,0.172-0.417s-0.074-0.294-0.172-0.417
		c-0.221-0.221-0.613-0.221-0.834,0c-0.098,0.098-0.172,0.245-0.172,0.417s0.074,0.319,0.172,0.417
		c0.123,0.123,0.245,0.172,0.417,0.172C11.188,11.716,11.335,11.691,11.458,11.544z"/>
	<path class="st0" d="M13.076,13.187c0.123-0.098,0.196-0.245,0.196-0.417c0-0.172-0.074-0.294-0.196-0.417
		c-0.221-0.221-0.637-0.221-0.858,0c-0.123,0.098-0.196,0.245-0.196,0.417c0,0.172,0.074,0.319,0.196,0.417
		c0.123,0.123,0.294,0.172,0.441,0.172C12.806,13.383,12.978,13.334,13.076,13.187z"/>
	<path class="st0" d="M14.915,14.413c0-0.172-0.074-0.294-0.172-0.417c-0.221-0.221-0.613-0.221-0.834,0
		c-0.123,0.123-0.172,0.245-0.172,0.417s0.074,0.294,0.172,0.417c0.098,0.098,0.245,0.172,0.417,0.172s0.294-0.074,0.417-0.172
		C14.865,14.732,14.915,14.584,14.915,14.413z"/>
	<path class="st0" d="M16.386,16.497c0.123-0.123,0.172-0.245,0.172-0.417s-0.074-0.294-0.172-0.417
		c-0.221-0.221-0.613-0.221-0.834,0c-0.123,0.123-0.172,0.245-0.172,0.417c0,0.172,0.074,0.294,0.172,0.417
		c0.098,0.098,0.245,0.172,0.417,0.172C16.14,16.668,16.287,16.595,16.386,16.497z"/>
	<path class="st0" d="M18.028,18.041c0.123-0.098,0.196-0.245,0.196-0.417s-0.074-0.294-0.196-0.417
		c-0.245-0.221-0.637-0.221-0.858,0c-0.123,0.123-0.196,0.245-0.196,0.417s0.074,0.294,0.196,0.417
		c0.123,0.123,0.294,0.172,0.441,0.172C17.734,18.237,17.906,18.188,18.028,18.041z"/>
	<path class="st0" d="M19.695,19.684c0.098-0.098,0.172-0.245,0.172-0.417s-0.074-0.294-0.172-0.417
		c-0.221-0.221-0.613-0.221-0.834,0c-0.098,0.123-0.172,0.245-0.172,0.417s0.074,0.294,0.172,0.417
		c0.123,0.123,0.245,0.172,0.417,0.172C19.401,19.88,19.573,19.807,19.695,19.684z"/>
	<path class="st0" d="M21.338,21.351c0.098-0.098,0.172-0.245,0.172-0.417c0-0.172-0.074-0.319-0.172-0.417
		c-0.221-0.221-0.613-0.221-0.834,0c-0.098,0.098-0.172,0.245-0.172,0.417c0,0.172,0.074,0.294,0.172,0.417
		c0.123,0.123,0.245,0.172,0.417,0.172C21.093,21.523,21.215,21.449,21.338,21.351z"/>
	<path class="st0" d="M22.883,22.994c0.123-0.098,0.172-0.245,0.172-0.417s-0.074-0.294-0.172-0.417
		c-0.221-0.221-0.613-0.221-0.834,0c-0.098,0.123-0.172,0.245-0.172,0.417s0.074,0.319,0.172,0.417
		c0.123,0.123,0.245,0.172,0.417,0.172C22.613,23.165,22.785,23.116,22.883,22.994z"/>
	<path class="st0" d="M24.623,24.636c0.123-0.098,0.172-0.245,0.172-0.417s-0.074-0.294-0.172-0.417
		c-0.221-0.221-0.613-0.221-0.834,0c-0.123,0.123-0.172,0.245-0.172,0.417s0.074,0.319,0.172,0.417
		c0.098,0.098,0.245,0.172,0.417,0.172C24.378,24.808,24.525,24.759,24.623,24.636z"/>
	<path class="st0" d="M26.266,26.279c0.123-0.123,0.196-0.245,0.196-0.417s-0.074-0.294-0.196-0.417
		c-0.245-0.221-0.637-0.221-0.858,0c-0.123,0.123-0.196,0.245-0.196,0.417s0.074,0.294,0.196,0.417
		c0.123,0.098,0.294,0.172,0.441,0.172C25.972,26.475,26.119,26.402,26.266,26.279z"/>
	<path class="st0" d="M10.403,7.058c1.667-1.103,3.506-1.618,5.541-1.643c1.986,0,3.825,0.539,5.541,1.643l3.53-3.53
		c-2.77-2.108-5.762-3.163-9.071-3.163s-6.35,1.054-9.047,3.163L10.403,7.058z"/>
	<path class="st0" d="M6.873,21.547c-1.128-1.716-1.667-3.53-1.667-5.492c0-1.986,0.539-3.825,1.667-5.492L3.367,7.058
		c-2.059,2.697-3.089,5.688-3.089,9.022c0,3.285,1.03,6.301,3.114,9.047L6.873,21.547z"/>
	<path class="st0" d="M21.461,25.053c-1.667,1.128-3.506,1.716-5.492,1.741c-2.035,0-3.898-0.539-5.565-1.716l-3.53,3.506
		c2.721,2.133,5.762,3.187,9.096,3.163c3.31-0.025,6.301-1.103,8.998-3.163L21.461,25.053z"/>
	<path class="st0" d="M24.918,10.515c1.128,1.716,1.716,3.58,1.667,5.59c-0.025,1.961-0.588,3.751-1.667,5.394l3.53,3.506
		c2.084-2.697,3.163-5.688,3.163-8.973c0.025-3.334-1.03-6.374-3.163-9.096L24.918,10.515z"/>
	<path class="st0" d="M28.595,26.156c1.348,0,2.476,1.103,2.476,2.476c0,1.348-1.103,2.476-2.476,2.476
		c-1.348,0-2.476-1.103-2.476-2.476C26.119,27.26,27.222,26.156,28.595,26.156z"/>
	<path class="st0" d="M3.342,26.156c1.348,0,2.452,1.103,2.452,2.476c0,1.348-1.103,2.476-2.452,2.476s-2.452-1.103-2.452-2.476
		C0.891,27.26,1.994,26.156,3.342,26.156z"/>
	<path class="st0" d="M28.644,0.904c1.348,0,2.452,1.103,2.452,2.476s-1.103,2.476-2.452,2.476c-1.348,0-2.452-1.103-2.452-2.476
		S27.296,0.904,28.644,0.904z"/>
	<path class="st0" d="M3.293,0.904c1.348,0,2.476,1.103,2.476,2.452S4.666,5.807,3.293,5.807c-1.348,0-2.476-1.103-2.476-2.452
		C0.817,2.007,1.92,0.904,3.293,0.904z"/>
</g>
</svg>
