<?xml version="1.0" encoding="utf-8"?>
<!-- Generator: Adobe Illustrator 26.2.1, SVG Export Plug-In . SVG Version: 6.00 Build 0)  -->
<svg version="1.1" id="Layer_1" xmlns="http://www.w3.org/2000/svg" xmlns:xlink="http://www.w3.org/1999/xlink" x="0px" y="0px"
	 viewBox="0 0 32 32" style="enable-background:new 0 0 32 32;" xml:space="preserve">
<style type="text/css">
	.st0{fill-rule:evenodd;clip-rule:evenodd;fill:#19E6D7;}
	.st1{fill:#FFFFFF;}
</style>
<g>
	<circle class="st0" cx="16" cy="16" r="16"/>
	<path class="st1" d="M18.336,10.397c1.773,0,3.546,0.006,5.319-0.006c0.301-0.002,0.471,0.082,0.626,0.358
		c0.942,1.683,1.906,3.354,2.87,5.024c0.108,0.188,0.091,0.301-0.029,0.492c-0.4,0.638-0.919,0.837-1.686,0.825
		c-3.279-0.051-6.559-0.027-9.838-0.018c-0.252,0.001-0.405-0.073-0.502-0.293c-0.027-0.061-0.064-0.117-0.088-0.179
		c-0.08-0.209-0.323-0.391-0.253-0.611c0.111-0.351,0.299-0.681,0.473-1.009c0.075-0.14,0.239-0.087,0.367-0.087
		c2.546-0.003,5.093-0.004,7.639-0.005c0.08,0,0.16-0.003,0.24,0.003c0.309,0.023,0.424-0.044,0.222-0.36
		c-0.344-0.537-0.669-1.086-0.982-1.642c-0.127-0.226-0.275-0.304-0.537-0.303c-2.333,0.009-4.667,0.047-6.998-0.028
		c-0.79-0.025-1.207,0.202-1.53,0.899c-0.374,0.806-0.854,1.563-1.306,2.331c-0.132,0.224-0.123,0.396,0.003,0.618
		c0.932,1.654,1.853,3.314,2.774,4.974c0.21,0.378,0.204,0.384-0.213,0.384c-0.613,0.001-1.227-0.01-1.84,0.003
		c-0.228,0.005-0.365-0.067-0.48-0.268c-0.992-1.746-1.991-3.489-2.996-5.227C9.492,16.101,9.49,15.975,9.586,15.8
		c0.948-1.71,1.888-3.425,2.824-5.142c0.121-0.222,0.293-0.264,0.526-0.263c1.8,0.008,3.599,0.004,5.399,0.004
		C18.336,10.399,18.336,10.398,18.336,10.397z"/>
	<path class="st1" d="M25.109,19.713c-0.493,0.863-0.945,1.655-1.398,2.446c-0.621,1.085-1.252,2.165-1.86,3.257
		c-0.142,0.255-0.306,0.348-0.597,0.347c-3.506-0.012-7.013-0.015-10.52-0.008c-0.29,0.001-0.464-0.083-0.6-0.341
		c-0.504-0.962-1.047-1.908-1.607-2.834c-1.239-2.047-2.395-4.142-3.633-6.188c-0.163-0.27-0.154-0.463,0.004-0.722
		c0.36-0.591,0.692-1.2,1.026-1.807c0.093-0.169,0.162-0.245,0.286-0.027c0.834,1.468,1.664,2.939,2.509,4.401
		c0.984,1.702,1.982,3.396,2.971,5.096c0.124,0.213,0.322,0.156,0.498,0.157c1.96,0.003,3.92,0,5.88-0.001
		c0.533,0,1.067-0.004,1.6,0.009c0.212,0.005,0.35-0.066,0.447-0.254c0.202-0.39,0.408-0.777,0.626-1.158
		c0.134-0.234,0.104-0.323-0.186-0.32c-0.906,0.009-1.813-0.009-2.72,0.004c-0.27,0.004-0.44-0.058-0.563-0.322
		c-0.218-0.47-0.472-0.925-0.727-1.378c-0.154-0.273-0.105-0.358,0.216-0.356c2.053,0.009,4.107,0.003,6.16,0.003
		C23.624,19.713,24.326,19.713,25.109,19.713z"/>
	<path class="st1" d="M13.479,8.654c0.439-0.755,0.869-1.487,1.29-2.224c0.086-0.15,0.2-0.189,0.36-0.188
		c2.092,0.003,4.183,0.004,6.275,0.001c0.178,0,0.295,0.054,0.387,0.217c0.377,0.671,0.766,1.336,1.153,2.001
		c0.087,0.149,0.159,0.263-0.115,0.262c-3.09-0.011-6.18-0.017-9.271-0.025C13.548,8.698,13.537,8.686,13.479,8.654z"/>
	<path class="st1" d="M8.353,14.111c-0.453-0.696-0.857-1.319-1.265-1.939C7,12.038,7.038,11.926,7.109,11.803
		c1.033-1.781,2.067-3.561,3.091-5.346c0.106-0.185,0.242-0.215,0.426-0.214c0.599,0.004,1.199,0.011,1.797-0.006
		c0.337-0.01,0.355,0.098,0.205,0.36c-0.873,1.521-1.738,3.046-2.605,4.571C9.478,12.125,8.935,13.084,8.353,14.111z"/>
</g>
</svg>
