<?xml version="1.0" encoding="utf-8"?>
<!-- Generator: Adobe Illustrator 22.0.1, SVG Export Plug-In . SVG Version: 6.00 Build 0)  -->
<svg version="1.1"
	 id="svg8" inkscape:version="0.92.1 r15371" sodipodi:docname="VIA.svg" xmlns:cc="http://creativecommons.org/ns#" xmlns:dc="http://purl.org/dc/elements/1.1/" xmlns:inkscape="http://www.inkscape.org/namespaces/inkscape" xmlns:rdf="http://www.w3.org/1999/02/22-rdf-syntax-ns#" xmlns:sodipodi="http://sodipodi.sourceforge.net/DTD/sodipodi-0.dtd" xmlns:svg="http://www.w3.org/2000/svg"
	 xmlns="http://www.w3.org/2000/svg" xmlns:xlink="http://www.w3.org/1999/xlink" x="0px" y="0px" viewBox="0 0 283.465 283.465"
	 style="enable-background:new 0 0 283.465 283.465;" xml:space="preserve">
<style type="text/css">
	.st0{fill:#FFFFFF;}
	.st1{fill:#18CCEA;}
</style>
<sodipodi:namedview  bordercolor="#666666" borderopacity="1.0" id="base" inkscape:current-layer="layer1" inkscape:cx="274.6064" inkscape:cy="156.01504" inkscape:document-units="mm" inkscape:pageopacity="0.0" inkscape:pageshadow="2" inkscape:window-height="1545" inkscape:window-maximized="1" inkscape:window-width="2560" inkscape:window-x="0" inkscape:window-y="25" inkscape:zoom="1.979899" pagecolor="#ffffff" showgrid="false">
	</sodipodi:namedview>
<g>
	<polygon class="st0" points="35.963,76 141.732,15 141.95,57 178,37.5 178,80 103.51,121 103.51,163.5 178,119.5 178,161 
		215.5,141.66 215.5,184 253.5,163.5 253.5,211 144.731,272 28.5,205.5 28.5,77 	"/>
	<g>
		<path class="st1" d="M147.768,3.585c0,3.938,0,7.212,0,10.486c0,10.4,0.04,20.8-0.03,31.199c-0.016,2.407,0.432,2.752,2.603,1.447
			c11.113-6.68,22.313-13.217,33.459-19.79c0.98,0.618,0.567,1.505,0.568,2.221c0.027,16.9-0.012,33.799,0.066,50.699
			c0.009,1.968-0.633,2.984-2.343,3.966c-23.015,13.223-45.978,26.536-68.952,39.831c-0.93,0.538-1.974,0.919-1.969,2.343
			c0.031,9.384,0.016,18.769,0.016,28.712c23.797-13.819,47.188-27.402,70.999-41.229c0,14.257,0,28.071,0,42.543
			c12.401-7.278,24.292-14.257,36.544-21.447c0.064,1.36,0.155,2.395,0.156,3.429c0.01,12.2-0.003,24.399,0.027,36.599
			c0.002,0.833-0.488,1.987,0.437,2.444c0.871,0.43,1.617-0.531,2.361-0.974c12.17-7.255,24.331-14.525,36.499-21.784
			c0.237-0.141,0.536-0.179,0.85-0.279c0.759,0.904,0.391,1.936,0.392,2.867c0.027,17.8-0.032,35.599,0.082,53.398
			c0.015,2.341-0.74,3.611-2.718,4.712c-12.898,7.181-25.762,14.423-38.599,21.712c-16.599,9.425-33.162,18.916-49.743,28.373
			c-8.213,4.685-16.448,9.331-24.634,14.062c-1.375,0.795-2.439,0.827-3.834,0.005c-20.632-12.154-41.29-24.265-61.954-36.366
			c-16.958-9.931-33.907-19.877-50.928-29.698c-2.117-1.221-2.764-2.581-2.761-4.947c0.07-42.999,0.072-85.998-0.004-128.997
			c-0.004-2.393,0.699-3.747,2.781-4.952c17.418-10.086,34.777-20.274,52.142-30.451c17.558-10.29,35.101-20.606,52.655-30.903
			C137.007,9.845,142.091,6.895,147.768,3.585z M136.082,23.988c-1.015,0.524-1.458,0.728-1.876,0.973
			c-14.718,8.625-29.429,17.262-44.152,25.879C72.839,60.916,55.625,70.995,38.375,81.012c-1.762,1.023-2.424,2.204-2.412,4.279
			c0.092,15.994,0.051,31.989,0.051,47.983c0,22.892,0.002,45.784-0.003,68.676c0,1.491-0.119,2.801,1.598,3.782
			c9.528,5.444,18.982,11.02,28.431,16.602c1.156,0.683,2.049,0.818,3.273,0.093c16.215-9.603,32.454-19.164,48.699-28.716
			c16.902-9.938,33.803-19.876,50.746-29.743c1.596-0.929,2.144-1.953,2.115-3.778c-0.112-6.996-0.018-13.995-0.065-20.992
			c-0.011-1.67,0.759-4.282-0.356-4.802c-1.684-0.785-3.627,0.987-5.225,1.999c-14.634,9.278-29.893,17.489-44.765,26.361
			c-13.19,7.869-26.544,15.464-39.827,23.177c-5.053,2.934-10.111,5.858-15.425,8.936c-0.098-0.991-0.204-1.563-0.204-2.136
			c-0.008-31.189,0.011-62.379-0.056-93.568c-0.004-1.827,0.784-2.695,2.169-3.501c6.809-3.967,13.595-7.973,20.385-11.973
			c15.642-9.215,31.281-18.434,46.92-27.652c0.869-0.512,1.678-0.996,1.674-2.242C136.069,44.027,136.082,34.256,136.082,23.988z
			 M247.66,174.107c-9.75,5.84-18.967,11.377-28.2,16.888c-13.983,8.347-27.976,16.678-41.968,25.011
			c-10.117,6.025-20.306,11.934-30.313,18.137c-2.616,1.622-4.448,1.404-6.865-0.186c-10.17-6.692-20.454-13.21-30.678-19.821
			c-1.094-0.708-1.956-0.974-3.239-0.198c-6.83,4.13-13.774,8.074-20.584,12.236c-2.055,1.256-4.532,1.96-6.165,4.051
			c0.464,0.316,0.778,0.558,1.117,0.756c17.993,10.539,36.005,21.044,53.974,31.623c7.432,4.375,7.32,4.326,14.911-0.038
			c20.326-11.686,40.716-23.262,61.085-34.874c11.612-6.621,23.231-13.23,34.85-19.838c1.147-0.652,2.124-1.233,2.111-2.895
			C247.623,194.867,247.66,184.775,247.66,174.107z M76.961,174.595c7.16-4.126,14.286-8.259,21.444-12.337
			c1.384-0.788,1.063-2.017,1.064-3.164c0.016-12.695,0.072-25.391-0.048-38.085c-0.021-2.233,0.787-3.338,2.641-4.404
			c22.913-13.18,45.765-26.465,68.681-39.64c1.578-0.907,1.958-1.934,1.934-3.575c-0.075-5.097-0.027-10.196-0.027-15.294
			c0-3.535,0-7.069,0-10.965c-0.988,0.496-1.523,0.728-2.022,1.022c-16.662,9.813-33.318,19.638-49.982,29.448
			c-13.84,8.147-27.67,16.311-41.557,24.377c-1.86,1.08-2.597,2.252-2.588,4.458c0.089,21.791,0.05,43.583,0.069,65.374
			C76.571,172.66,76.294,173.57,76.961,174.595z M118.962,206.469c8.205,5.234,15.934,10.121,23.602,15.102
			c1.121,0.728,1.883,0.646,2.951,0.006c20.007-11.99,40.024-23.965,60.08-35.874c1.429-0.849,1.817-1.801,1.804-3.355
			c-0.065-8.192-0.03-16.384-0.03-24.576c0-0.835,0-1.671,0-3.049C177.649,172.119,148.467,189.2,118.962,206.469z"/>
	</g>
</g>
</svg>
