<svg id="Layer_1" data-name="Layer 1" xmlns="http://www.w3.org/2000/svg" xmlns:xlink="http://www.w3.org/1999/xlink" viewBox="0 0 31.645 32.921"><defs><style>.cls-1{fill:none;}.cls-2{fill:url(#radial-gradient);}.cls-3{clip-path:url(#clip-path);}.cls-4{fill:url(#radial-gradient-2);}.cls-5{fill:url(#linear-gradient);}.cls-6{fill:#fff;}.cls-7{fill:url(#linear-gradient-2);}.cls-8{fill:url(#linear-gradient-3);}.cls-9{fill:url(#linear-gradient-4);}.cls-10{fill:url(#linear-gradient-5);}.cls-11{fill:url(#linear-gradient-6);}.cls-12{opacity:0.4;isolation:isolate;fill:url(#linear-gradient-7);}</style><radialGradient id="radial-gradient" cx="6.42" cy="28.743" r="17.578" gradientTransform="matrix(1, 0, 0, -1, 0, 34)" gradientUnits="userSpaceOnUse"><stop offset="0" stop-color="#7ff"/><stop offset="0.394" stop-color="#87e4ff"/><stop offset="0.861" stop-color="#6273ff"/><stop offset="1" stop-color="#9468ff"/></radialGradient><clipPath id="clip-path" transform="translate(-0.173 -0.173)"><circle class="cls-1" cx="16" cy="16" r="15.827"/></clipPath><radialGradient id="radial-gradient-2" cx="-24.436" cy="-36.108" r="12.35" gradientTransform="matrix(0.994, -0.106, -0.122, -1.15, 37.045, -22.634)" gradientUnits="userSpaceOnUse"><stop offset="0.497" stop-color="aqua"/><stop offset="1" stop-color="#00f4ff" stop-opacity="0"/></radialGradient><linearGradient id="linear-gradient" x1="18.557" y1="17.536" x2="27.141" y2="11.919" gradientTransform="matrix(1, 0, 0, -1, 0, 34)" gradientUnits="userSpaceOnUse"><stop offset="0" stop-color="#5a27ed"/><stop offset="1" stop-color="#ab37f4"/></linearGradient><linearGradient id="linear-gradient-2" x1="6.353" y1="11.891" x2="23.109" y2="7.655" gradientTransform="matrix(1, 0, 0, -1, 0, 34)" gradientUnits="userSpaceOnUse"><stop offset="0" stop-color="#7618f4"/><stop offset="0.504" stop-color="#575ff8"/><stop offset="1" stop-color="#09ffff"/></linearGradient><linearGradient id="linear-gradient-3" x1="10.918" y1="23.822" x2="24.911" y2="22.404" gradientTransform="matrix(1, 0, 0, -1, 0, 34)" gradientUnits="userSpaceOnUse"><stop offset="0" stop-color="#7f4cff"/><stop offset="1" stop-color="#3095ff"/></linearGradient><linearGradient id="linear-gradient-4" x1="10.446" y1="19.211" x2="22.645" y2="12.392" gradientTransform="matrix(1, 0, 0, -1, 0, 34)" gradientUnits="userSpaceOnUse"><stop offset="0" stop-color="#7f52ff"/><stop offset="1" stop-color="#3096ff"/></linearGradient><linearGradient id="linear-gradient-5" x1="22.426" y1="13.599" x2="16.981" y2="19.044" gradientTransform="matrix(1, 0, 0, -1, 0, 34)" gradientUnits="userSpaceOnUse"><stop offset="0" stop-color="#fff"/><stop offset="0.157" stop-color="#fbffff"/><stop offset="0.319" stop-color="#efffff"/><stop offset="0.483" stop-color="#daffff"/><stop offset="0.648" stop-color="#bdfffe"/><stop offset="0.814" stop-color="#98fffe"/><stop offset="0.979" stop-color="#6bfffd"/><stop offset="1" stop-color="#65fffd"/></linearGradient><linearGradient id="linear-gradient-6" x1="5.534" y1="12.503" x2="17.465" y2="33.169" gradientTransform="matrix(1, 0, 0, -1, 0, 34)" gradientUnits="userSpaceOnUse"><stop offset="0" stop-color="#fff" stop-opacity="0"/><stop offset="0.515" stop-color="#e6ffff"/><stop offset="1" stop-color="#ceffff" stop-opacity="0.5"/></linearGradient><linearGradient id="linear-gradient-7" x1="0.173" y1="23.712" x2="24.834" y2="23.712" gradientTransform="matrix(1, 0, 0, -1, 0, 34)" gradientUnits="userSpaceOnUse"><stop offset="0" stop-color="#fff"/><stop offset="0.867" stop-color="#fff" stop-opacity="0.306"/><stop offset="1" stop-color="#fff" stop-opacity="0.2"/></linearGradient></defs><g id="图层_1" data-name="图层 1"><path class="cls-2" d="M31.818,16A15.823,15.823,0,1,1,16,.182,15.826,15.826,0,0,1,31.818,16Z" transform="translate(-0.173 -0.173)"/><g class="cls-3"><path class="cls-4" d="M26.377,11.038a13.049,13.049,0,0,1,4.177,7.927c.741,6.967-4.683,13.263-12.113,14.047S4.394,28.792,3.652,21.825s3.462-6.5,10.892-7.29C18.6,14.108,25.06,9.756,26.377,11.038Z" transform="translate(-0.173 -0.173)"/></g><path class="cls-5" d="M27.135,12.4l-.017-.2h-2.59l2.607-2.232-.008-.1a8.515,8.515,0,0,0-1.335-4.308l-.061-.122H11.744a7.866,7.866,0,0,0-5.772,2.52,11.2,11.2,0,0,0-2.564,6.776,10.978,10.978,0,0,0,.837,4.613,13.633,13.633,0,0,0,1.116,2.092,12.649,12.649,0,0,0,4.3,4.927,6.381,6.381,0,0,0,3.392.855h7.936l.043-.026c.026-.009,2.625-1.37,4.962-2.791l.07-.043.026-.07c.009-.026.017-.044.026-.07.017-.044.035-.087.052-.14a22.4,22.4,0,0,0,.646-3.583c.043-.358.078-.593.078-.593l.026-.245h-.008l.017-.2H24.153l2.965-2.25.009-.1A34.823,34.823,0,0,0,27.135,12.4Z" transform="translate(-0.173 -0.173)"/><path class="cls-6" d="M15.485,22.13s-2.6.253-10.263-1.753c3.13,6.1,6.052,6.427,8.232,6.427h7.438s2.468-1.343,4.813-2.764Z" transform="translate(-0.173 -0.173)"/><path class="cls-7" d="M13.454,26.6a6.068,6.068,0,0,1-3.567-.846c-2.276-1.483-3.026-2.651-4.325-5.1,5.842,1.5,8.642,1.665,9.592,1.665.174,0,.279-.009.323-.009l10.089,1.64c-2.067,1.238-4.509,2.5-4.788,2.651Z" transform="translate(-0.173 -0.173)"/><path class="cls-6" d="M10.567,19.749a11.811,11.811,0,0,1-1.691-2.563l14.213,2.563,3.645-2.755c-.009-2.267-.017-4.43-.017-4.43H8.876a5.649,5.649,0,0,1,1.77-2.529l13.019,2.433,3.069-2.625a7.468,7.468,0,0,0-1.308-3.976H11.683A7.283,7.283,0,0,0,6.19,8.2,11.077,11.077,0,0,0,4.472,19.148c1.8,4.351,4.133,4.909,5.45,4.909H25.714a1.12,1.12,0,0,0,.07-.2,34,34,0,0,0,.706-4.1H10.567Z" transform="translate(-0.173 -0.173)"/><path class="cls-8" d="M14.369,7.315s-5.127,1-5.38,1.125a36.065,36.065,0,0,0-1.247,4.63h14.9l3.82-3.235Z" transform="translate(-0.173 -0.173)"/><path class="cls-9" d="M14.465,14.465s-5.127,1-5.38,1.125a36.156,36.156,0,0,0-1.256,4.63H22.182l4.386-3.313Z" transform="translate(-0.173 -0.173)"/><path class="cls-10" d="M26.734,16.985H8.884a11.79,11.79,0,0,0,1.692,2.564H26.5a28.673,28.673,0,0,1-.724,4.3H10.393c-1.962,0-4.072-.654-5.912-4.91A10.928,10.928,0,0,1,6.2,7.986a7.3,7.3,0,0,1,5.493-2.328H25.426a8.246,8.246,0,0,1,1.291,4.177H10.654a5.693,5.693,0,0,0-1.77,2.529H26.725A33.167,33.167,0,0,1,26.734,16.985Z" transform="translate(-0.173 -0.173)"/><path class="cls-11" d="M23.97,4.629s-6.209-2.459-11.807.706C7.245,8.108,1.682,12.547,5.815,21.659,2.074,16.331,2.039,12,4.969,7.454,7.751,3.164,15.913-.743,23.97,4.629Z" transform="translate(-0.173 -0.173)"/><path class="cls-12" d="M15.982.173A15.9,15.9,0,0,0,.775,20.4s-.009-.157-.018-.427c-.052-1.657.166-7.743,3.27-7.211s7.656,1.447,13.037-.035,9.67-6.514,6.906-10.394A15.528,15.528,0,0,0,15.982.173Z" transform="translate(-0.173 -0.173)"/><path class="cls-6" d="M13.4,5.745c.384.985-.933,2.154-2.581,2.511s-3.313-.183-3.6-1.194c-.462-1.605,1.142-2.18,2.79-2.538S12.625,3.774,13.4,5.745Z" transform="translate(-0.173 -0.173)"/></g></svg>