<?xml version="1.0" encoding="utf-8"?>
<!-- Generator: Adobe Illustrator 22.0.1, SVG Export Plug-In . SVG Version: 6.00 Build 0)  -->
<svg version="1.1" id="Layer_1" xmlns="http://www.w3.org/2000/svg" xmlns:xlink="http://www.w3.org/1999/xlink" x="0px" y="0px"
	 viewBox="0 0 32 32" style="enable-background:new 0 0 32 32;" xml:space="preserve">
<style type="text/css">
	.st0{fill:#9368FE;}
	.st1{fill:#FDFDFE;}
</style>
<circle class="st0" cx="16" cy="16" r="16"/>
<path class="st1" d="M10.651,6.89c1.402-0.611,2.848-1.05,4.387-1.128c1.338,0,2.677-0.001,4.015-0.001
	c1.698,0.005,3.396,0.009,5.093,0.013c0.434,0.001,0.434,0,0.466,0.428c-0.004,1.379-0.017,2.759-0.006,4.138
	c0.002,0.287-0.054,0.379-0.364,0.378c-2.923-0.013-5.847-0.029-8.77,0.001c-2.05,0.02-3.594,0.963-4.631,2.733
	c-0.011,0.02-0.063,0.043,0.003,0.059c0.039,0.005,0.078,0.01,0.117,0.016l0.029,0.01l0.029-0.009
	c0.051,0.005,0.102,0.014,0.153,0.014c4.463,0.001,8.925,0.002,13.388,0.003c0.016,0.03,0.032,0.06,0.048,0.089
	c0.001,1.293,0.002,2.586,0.003,3.879c-0.006,0.234-0.024,0.469-0.016,0.703c0.007,0.202-0.076,0.265-0.271,0.264
	c-0.561-0.002-1.123,0.011-1.684,0.018c-1.091-0.005-2.182-0.014-3.274-0.013c-2.76,0.002-5.519,0.009-8.279,0.015
	c-0.08-0.032-0.159-0.041-0.237,0.005c-0.037,0.095,0.037,0.155,0.077,0.219c0.767,1.245,1.853,2.066,3.272,2.427
	c0.968,0.246,1.956,0.151,2.939,0.134c0.164,0.006,0.328,0.017,0.492,0.017c2.21,0.001,4.421,0,6.631,0.003
	c0.122,0,0.276-0.065,0.355,0.102c-0.004,1.398-0.009,2.796-0.012,4.194c-0.001,0.637,0,0.637-0.622,0.637
	c-3.064,0-6.127,0-9.191-0.001c-3.114-0.273-5.669-1.611-7.525-4.13c-2.121-2.878-2.56-6.06-1.472-9.459
	c0.316-0.987,0.842-1.869,1.412-2.719c0.21-0.313,0.455-0.622,0.729-0.895C8.42,8.601,8.884,8.14,9.401,7.737
	c0.329-0.256,0.684-0.469,1.041-0.681C10.517,7.011,10.618,6.99,10.651,6.89z"/>
</svg>
