<?xml version="1.0" encoding="utf-8"?>
<!-- Generator: Adobe Illustrator 22.0.1, SVG Export Plug-In . SVG Version: 6.00 Build 0)  -->
<svg version="1.1"
	 id="svg8" inkscape:version="0.92.1 r15371" sodipodi:docname="VIA.svg" xmlns:cc="http://creativecommons.org/ns#" xmlns:dc="http://purl.org/dc/elements/1.1/" xmlns:inkscape="http://www.inkscape.org/namespaces/inkscape" xmlns:rdf="http://www.w3.org/1999/02/22-rdf-syntax-ns#" xmlns:sodipodi="http://sodipodi.sourceforge.net/DTD/sodipodi-0.dtd" xmlns:svg="http://www.w3.org/2000/svg"
	 xmlns="http://www.w3.org/2000/svg" xmlns:xlink="http://www.w3.org/1999/xlink" x="0px" y="0px" viewBox="0 0 283.465 283.465"
	 style="enable-background:new 0 0 283.465 283.465;" xml:space="preserve">
<style type="text/css">
	.st0{fill:#FFFFFF;}
</style>
<sodipodi:namedview  bordercolor="#666666" borderopacity="1.0" id="base" inkscape:current-layer="layer1" inkscape:cx="274.6064" inkscape:cy="156.01504" inkscape:document-units="mm" inkscape:pageopacity="0.0" inkscape:pageshadow="2" inkscape:window-height="1545" inkscape:window-maximized="1" inkscape:window-width="2560" inkscape:window-x="0" inkscape:window-y="25" inkscape:zoom="1.979899" pagecolor="#ffffff" showgrid="false">
	</sodipodi:namedview>
<g>
	<g id="g4602">
		<circle id="circle4532" cx="141.732" cy="141.732" r="138.685"/>
	</g>
	<path class="st0" d="M142.9,245.572c-0.779,0-1.557-0.195-2.141-0.584l-65.604-41.27c-0.584-0.389-1.168-0.973-1.363-1.557
		c-0.195-0.195-0.195-0.584-0.195-0.779c-0.195-0.584-0.195-0.973,0-1.557v-0.195l21.414-97.724c0-0.389,0.195-0.584,0.389-0.973
		c0-0.195,0.195-0.389,0.389-0.584l44.19-60.348c0.779-0.973,1.947-1.557,3.115-1.557s2.336,0.584,3.115,1.557l44.19,60.348
		c0.389,0.389,0.584,0.973,0.779,1.557l21.414,97.724v1.752c0,0.195-0.195,0.389-0.195,0.779c-0.389,0.584-0.779,1.168-1.363,1.557
		l-65.993,41.27C144.457,245.378,143.678,245.572,142.9,245.572z M90.728,204.302l45.163,28.422l-8.955-28.422H90.728z
		 M158.863,204.302l-8.955,28.422l45.163-28.422H158.863z M135.113,204.302l7.787,24.528l7.787-24.528
		C150.686,204.302,135.113,204.302,135.113,204.302z M161.393,196.516h40.491l-25.891-45.747L161.393,196.516z M132.582,196.516
		h20.635l17.52-55.092L142.9,92.367l-27.838,49.057L132.582,196.516z M83.915,196.516h40.491l-14.6-45.747L83.915,196.516z
		 M179.108,140.645l20.246,35.43l-12.848-58.596C186.506,117.48,179.108,140.645,179.108,140.645z M99.294,117.674l-12.848,58.401
		l20.051-35.43L99.294,117.674z M146.793,83.607l27.254,47.694l8.955-28.032l-36.209-49.252V83.607z M102.992,103.269l8.76,28.032
		l27.254-47.694v-29.59L102.992,103.269z"/>
</g>
</svg>
