<?xml version="1.0" encoding="utf-8"?>
<!-- Generator: Adobe Illustrator 25.2.1, SVG Export Plug-In . SVG Version: 6.00 Build 0)  -->
<svg version="1.1" id="Layer_1" xmlns="http://www.w3.org/2000/svg" xmlns:xlink="http://www.w3.org/1999/xlink" x="0px" y="0px"
	 viewBox="0 0 32 32" style="enable-background:new 0 0 32 32;" xml:space="preserve">
<style type="text/css">
	.st0{fill-rule:evenodd;clip-rule:evenodd;fill:#F25057;}
	.st1{fill:#FFFFFF;}
</style>
<g>
	<circle class="st0" cx="16" cy="16" r="16"/>
	<g>
		<path class="st1" d="M5.267,16.878c0-0.861,0-1.723,0-2.584c0.033-0.088,0.083-0.174,0.097-0.265
			c0.284-1.794,0.964-3.42,2.044-4.882c0.078-0.106,0.093-0.304,0.06-0.439C7.185,7.554,7.544,6.402,8.469,5.725
			c0.996-0.728,2.05-0.759,3.14-0.186c0.139,0.073,0.351,0.073,0.511,0.032c0.66-0.166,1.313-0.362,1.97-0.544
			c0.199-0.056,0.401-0.105,0.601-0.158c0.836,0,1.672,0,2.508,0c0.04,0.024,0.077,0.064,0.119,0.07
			c3.662,0.519,6.372,2.417,8.189,5.624c0.067,0.119,0.232,0.22,0.37,0.256c0.946,0.247,1.619,0.803,2.002,1.704
			c0.067,0.157,0.125,0.319,0.187,0.478c0,0.405,0,0.811,0,1.216c-0.047,0.084-0.089,0.171-0.143,0.251
			c-0.272,0.405-0.496,0.859-0.837,1.194c-0.251,0.247-0.35,0.474-0.38,0.803c-0.335,3.638-2.08,6.416-5.163,8.349
			c-1.37,0.859-2.88,1.337-4.491,1.497c-0.176,0.017-0.432,0.062-0.503,0.181c-0.448,0.755-1.131,1.157-1.936,1.405
			c-0.38,0-0.76,0-1.14,0c-0.038-0.028-0.071-0.069-0.113-0.084c-1.146-0.381-1.838-1.147-2.037-2.355
			c-0.019-0.116-0.163-0.243-0.28-0.307c-2.856-1.566-4.711-3.908-5.499-7.079C5.447,17.676,5.359,17.276,5.267,16.878z
			 M15.17,19.703c0.01,0.036,0.02,0.071,0.031,0.107c0.313,0,0.63,0.036,0.937-0.007c1.115-0.156,2.007-0.733,2.754-1.549
			c0.659-0.719,1.129-1.538,1.102-2.547c-0.056-2.096-1.831-3.787-3.938-3.78c-2.501,0.009-4.758,1.616-5.602,3.99
			c-0.839,2.358-0.079,5.023,1.88,6.613c0.184,0.15,0.324,0.189,0.564,0.07c1.209-0.6,2.683-0.245,3.445,0.864
			c0.228,0.332,0.469,0.362,0.791,0.321c0.087-0.011,0.172-0.043,0.259-0.057c3.605-0.56,6.508-3.665,6.826-7.29
			c0.019-0.214-0.042-0.308-0.225-0.407c-1.555-0.84-1.981-2.735-0.933-4.153c0.134-0.181,0.149-0.305,0.035-0.501
			c-1.923-3.333-6.285-4.902-9.863-3.545c-0.188,0.071-0.273,0.162-0.295,0.374c-0.17,1.64-1.611,2.752-3.236,2.488
			c-0.232-0.038-0.34,0.016-0.462,0.192c-0.55,0.8-0.962,1.663-1.211,2.6c-0.21,0.791-0.319,1.594-0.219,2.419
			c0.059-0.096,0.093-0.198,0.122-0.301c0.567-1.981,1.639-3.638,3.367-4.766c2.526-1.65,5.219-2.051,7.958-0.552
			c2.843,1.557,4.02,5.074,2.715,8.041c-1.027,2.336-2.859,3.653-5.418,3.877c-2.105,0.184-3.76-0.763-4.53-2.533
			c-0.749-1.721-0.293-3.61,1.243-4.978c2.258-2.012,4.997-1.132,6.259,0.755C18.076,16.863,16.623,18.283,15.17,19.703z
			 M25.289,14.928c0.758-0.003,1.373-0.61,1.379-1.361c0.006-0.741-0.664-1.413-1.396-1.401c-0.738,0.012-1.4,0.692-1.385,1.42
			C23.902,14.328,24.533,14.931,25.289,14.928z M10.155,9.305c0.787,0.003,1.366-0.568,1.37-1.353
			c0.004-0.771-0.621-1.409-1.381-1.408c-0.712,0-1.387,0.685-1.381,1.4C8.771,8.685,9.401,9.302,10.155,9.305z M15.467,25.124
			c0.021-0.716-0.504-1.349-1.343-1.399c-0.73-0.044-1.416,0.659-1.409,1.396c0.007,0.746,0.635,1.372,1.381,1.378
			C14.843,26.504,15.463,25.882,15.467,25.124z M16.854,15.904c-0.783-0.617-1.884-0.456-2.661,0.442
			c-0.625,0.722-0.651,1.803-0.006,2.407C15.072,17.808,15.959,16.86,16.854,15.904z"/>
	</g>
</g>
</svg>
