<?xml version="1.0" standalone="no"?>
<!DOCTYPE svg PUBLIC "-//W3C//DTD SVG 20010904//EN"
 "http://www.w3.org/TR/2001/REC-SVG-20010904/DTD/svg10.dtd">
<svg version="1.0" xmlns="http://www.w3.org/2000/svg"
 width="200.000000pt" height="200.000000pt" viewBox="0 0 200.000000 200.000000"
 preserveAspectRatio="xMidYMid meet">

<g transform="translate(0.000000,200.000000) scale(0.100000,-0.100000)"
fill="#000000" stroke="none">
<path d="M835 1984 c-427 -76 -746 -396 -819 -823 -20 -119 -20 -203 0 -322
38 -218 134 -402 291 -555 153 -149 338 -238 560 -270 101 -15 134 -16 223 -6
258 29 451 123 626 304 300 312 366 756 169 1148 -189 376 -634 598 -1050 524z
m-41 -280 c12 -5 16 -20 16 -60 l0 -54 -72 -35 c-226 -112 -358 -321 -358
-565 0 -174 57 -310 184 -436 61 -60 101 -91 161 -121 l80 -40 3 -55 c4 -71
-7 -76 -96 -40 -139 57 -254 154 -341 286 -89 138 -127 279 -117 446 7 118 26
192 76 295 74 152 210 282 366 350 44 19 80 35 81 35 1 0 8 -3 17 -6z m513
-29 c187 -83 333 -247 404 -455 30 -88 33 -105 33 -225 0 -135 -10 -190 -56
-300 -73 -176 -235 -334 -412 -402 -66 -25 -70 -25 -83 -8 -15 22 -17 69 -4
94 6 9 45 35 88 56 108 53 225 170 276 275 49 100 67 176 67 280 0 241 -134
452 -356 563 -39 20 -74 43 -78 52 -11 30 -6 73 10 90 18 17 30 15 111 -20z
m-165 -302 c38 -15 128 -105 128 -127 0 -20 -15 -33 -53 -47 -38 -13 -38 -13
-70 23 -39 45 -65 58 -112 58 -50 0 -90 -23 -125 -72 -46 -64 -43 -67 66 -70
118 -4 132 -15 89 -72 l-27 -36 -89 0 -89 0 0 -30 0 -30 110 0 c121 0 137 -8
107 -54 -34 -51 -45 -56 -123 -56 -41 0 -74 -2 -74 -5 0 -3 9 -23 20 -44 53
-105 170 -119 242 -30 17 21 39 39 48 39 31 0 80 -31 80 -50 0 -30 -74 -113
-122 -138 -65 -32 -176 -31 -237 1 -66 36 -117 92 -147 163 l-27 64 -57 0
c-32 0 -64 6 -75 14 -19 13 -18 15 9 55 26 37 33 41 72 41 42 0 44 1 44 30 0
30 0 30 -59 30 -81 0 -95 17 -54 68 26 31 37 37 75 40 l45 3 27 63 c29 67 87
136 137 162 69 35 163 38 241 7z"/>
</g>
</svg>
