<?xml version="1.0" encoding="utf-8"?>
<!-- Generator: Adobe Illustrator 26.2.1, SVG Export Plug-In . SVG Version: 6.00 Build 0)  -->
<svg version="1.1" id="Layer_1" xmlns="http://www.w3.org/2000/svg" xmlns:xlink="http://www.w3.org/1999/xlink" x="0px" y="0px"
	 viewBox="0 0 32 32" style="enable-background:new 0 0 32 32;" xml:space="preserve">
<style type="text/css">
	
		.st0{clip-path:url(#SVGID_00000150084780658514151600000017431942544950699914_);fill-rule:evenodd;clip-rule:evenodd;fill:#FFFFFF;stroke:#FF0000;stroke-width:0.6696;stroke-linecap:round;stroke-linejoin:round;stroke-miterlimit:10;}
	
		.st1{clip-path:url(#SVGID_00000150084780658514151600000017431942544950699914_);fill-rule:evenodd;clip-rule:evenodd;fill:#00B050;}
</style>
<g>
	<g>
		<defs>
			<rect id="SVGID_1_" x="0.181" y="0.181" width="31.639" height="31.639"/>
		</defs>
		<clipPath id="SVGID_00000008133206737088862280000004663953025378807983_">
			<use xlink:href="#SVGID_1_"  style="overflow:visible;"/>
		</clipPath>
		
			<path style="clip-path:url(#SVGID_00000008133206737088862280000004663953025378807983_);fill-rule:evenodd;clip-rule:evenodd;fill:#FFFFFF;stroke:#FF0000;stroke-width:0.6696;stroke-linecap:round;stroke-linejoin:round;stroke-miterlimit:10;" d="
			M0.767,16c0,8.413,6.82,15.233,15.233,15.233c8.413,0,15.233-6.82,15.233-15.233c0-8.413-6.82-15.233-15.233-15.233
			C7.587,0.767,0.767,7.587,0.767,16z"/>
		
			<path style="clip-path:url(#SVGID_00000008133206737088862280000004663953025378807983_);fill-rule:evenodd;clip-rule:evenodd;fill:#00B050;" d="
			M11.951,24.981c0.18,0.087,0.377,0.132,0.576,0.131c0.738,0,1.337-0.6,1.337-1.34c0-0.517-0.296-0.987-0.76-1.21l-1.263-0.605
			l3.741-2.274v5.737l-5.022,3.051v-4.156L11.951,24.981z"/>
		
			<path style="clip-path:url(#SVGID_00000008133206737088862280000004663953025378807983_);fill-rule:evenodd;clip-rule:evenodd;fill:#00B050;" d="
			M16.251,25.421v-5.738l3.805,2.273l-1.284,0.605c-0.677,0.32-0.963,1.12-0.639,1.787c0.226,0.465,0.701,0.761,1.224,0.762
			c0.203,0,0.403-0.045,0.586-0.132l1.414-0.666v4.159L16.251,25.421z"/>
		
			<path style="clip-path:url(#SVGID_00000008133206737088862280000004663953025378807983_);fill-rule:evenodd;clip-rule:evenodd;fill:#00B050;" d="
			M10.58,13.419l2.323,1.397l-4.049,2.44v-1.509c0-0.741-0.604-1.341-1.35-1.341c-0.745,0-1.35,0.6-1.35,1.341v1.509L5.181,16.67
			l-0.63-0.379l-2.446-1.475l5.399-3.252l2.446,1.475L10.58,13.419z"/>
		
			<path style="clip-path:url(#SVGID_00000008133206737088862280000004663953025378807983_);fill-rule:evenodd;clip-rule:evenodd;fill:#00B050;" d="
			M27.404,13.419l2.323,1.397l-4.049,2.44v-1.509c0-0.741-0.604-1.341-1.35-1.341s-1.35,0.6-1.35,1.341v1.509l-0.973-0.585
			l-0.63-0.379l-2.446-1.475l5.399-3.252l2.446,1.475L27.404,13.419z"/>
		
			<path style="clip-path:url(#SVGID_00000008133206737088862280000004663953025378807983_);fill-rule:evenodd;clip-rule:evenodd;fill:#00B050;" d="
			M18.93,13.533V9.686l0.988,0.604c0.64,0.391,1.476,0.191,1.869-0.446c0.393-0.637,0.192-1.47-0.447-1.861L20.39,7.402l3.645-2.199
			v5.792l-5.106,3.081V13.533z"/>
		
			<path style="clip-path:url(#SVGID_00000008133206737088862280000004663953025378807983_);fill-rule:evenodd;clip-rule:evenodd;fill:#00B050;" d="
			M10.506,8.135c-0.617,0.411-0.787,1.25-0.381,1.874c0.402,0.617,1.218,0.794,1.834,0.397l0.944-0.619v4.288l-5.022-3.079V5.203
			l3.666,2.249L10.506,8.135z"/>
		
			<path style="clip-path:url(#SVGID_00000008133206737088862280000004663953025378807983_);fill-rule:evenodd;clip-rule:evenodd;fill:#00B050;" d="
			M15.942,5.537c-0.13,0-0.257,0.038-0.366,0.109l-4.699,3.07c-0.316,0.199-0.412,0.619-0.215,0.937
			c0.197,0.319,0.613,0.416,0.929,0.217c0.006-0.004,0.012-0.008,0.018-0.012l4.342-2.837l4.378,2.71
			c0.317,0.196,0.733,0.096,0.927-0.224c0.195-0.32,0.095-0.739-0.222-0.935l-4.741-2.934C16.188,5.572,16.066,5.538,15.942,5.537z"
			/>
		
			<path style="clip-path:url(#SVGID_00000008133206737088862280000004663953025378807983_);fill-rule:evenodd;clip-rule:evenodd;fill:#00B050;" d="
			M8.224,15.756v5.19l4.631,2.221c0.336,0.161,0.478,0.565,0.317,0.902c-0.16,0.337-0.563,0.48-0.898,0.319L7.26,21.982
			c-0.234-0.112-0.383-0.35-0.384-0.61v-5.616c0-0.374,0.302-0.676,0.674-0.676l0,0C7.922,15.079,8.224,15.382,8.224,15.756z"/>
		
			<path style="clip-path:url(#SVGID_00000008133206737088862280000004663953025378807983_);fill-rule:evenodd;clip-rule:evenodd;fill:#00B050;" d="
			M25.04,15.756v5.617c-0.001,0.26-0.15,0.497-0.383,0.609l-5.014,2.406c-0.336,0.161-0.738,0.018-0.898-0.319
			c-0.16-0.337-0.018-0.741,0.317-0.902l4.631-2.22v-5.19c0-0.374,0.302-0.677,0.674-0.677C24.738,15.079,25.04,15.382,25.04,15.756
			z"/>
		
			<path style="clip-path:url(#SVGID_00000008133206737088862280000004663953025378807983_);fill-rule:evenodd;clip-rule:evenodd;fill:#00B050;" d="
			M25.96,17.088l-1.507-2.344l-1.507,2.344H25.96z"/>
		
			<path style="clip-path:url(#SVGID_00000008133206737088862280000004663953025378807983_);fill-rule:evenodd;clip-rule:evenodd;fill:#00B050;" d="
			M9.053,17.088l-1.507-2.344L6.04,17.088H9.053z"/>
		
			<path style="clip-path:url(#SVGID_00000008133206737088862280000004663953025378807983_);fill-rule:evenodd;clip-rule:evenodd;fill:#00B050;" d="
			M12.987,9.806L11.48,7.463L9.974,9.806H12.987z"/>
		
			<path style="clip-path:url(#SVGID_00000008133206737088862280000004663953025378807983_);fill-rule:evenodd;clip-rule:evenodd;fill:#00B050;" d="
			M22.026,9.89L20.52,7.546L19.013,9.89H22.026z"/>
		
			<path style="clip-path:url(#SVGID_00000008133206737088862280000004663953025378807983_);fill-rule:evenodd;clip-rule:evenodd;fill:#00B050;" d="
			M21.357,24.37l-1.507-2.344l-1.507,2.344H21.357z"/>
		
			<path style="clip-path:url(#SVGID_00000008133206737088862280000004663953025378807983_);fill-rule:evenodd;clip-rule:evenodd;fill:#00B050;" d="
			M13.573,24.37l-1.507-2.344l-1.507,2.344H13.573z"/>
	</g>
</g>
</svg>
