<?xml version="1.0" encoding="UTF-8"?>
<svg id="Layer_1" data-name="Layer 1" xmlns="http://www.w3.org/2000/svg" version="1.1" viewBox="0 0 32 32">
  <defs>
    <style>
      .cls-1 {
        fill: #202944;
      }

      .cls-1, .cls-2 {
        stroke-width: 0px;
      }

      .cls-2 {
        fill: #fff;
      }
    </style>
  </defs>
  <circle class="cls-1" cx="16" cy="16" r="16"/>
  <rect class="cls-2" x="8.278" y="8.056" width="15.722" height="16.111"/>
  <path class="cls-1" d="M6.851,6.703v18.595h18.297V6.703H6.851ZM13.248,8.86h1.711v1.785h-1.711v-1.785ZM8.934,8.86h1.785v1.785h-1.785v-1.785ZM10.645,13.174v1.785h-1.785v-1.785h1.785ZM10.198,22.992h-.744v-.669h.669v.669h.074ZM10.719,19.421h-1.785v-1.711h1.785v1.711ZM14.512,22.992h-.669v-.669h.669v.669ZM14.512,18.826h-.669v-.669h.669v.669ZM15.033,15.033h-1.785v-1.785h1.785v1.785ZM18.826,22.992h-.669v-.669h.669v.669ZM18.826,18.826h-.669v-.669h.669v.669ZM18.826,14.438h-.669v-.669h.669v.669ZM19.421,10.645h-1.785v-1.785h1.785v1.785ZM23.215,22.992h-.669v-.669h.669v.669ZM23.215,18.826h-.669v-.669h.669v.669ZM23.215,14.438h-.669v-.669h.669v.669ZM23.215,10.124h-.669v-.669h.669v.669Z"/>
</svg>