<?xml version="1.0" encoding="utf-8"?>
<!-- Generator: Adobe Illustrator 26.0.1, SVG Export Plug-In . SVG Version: 6.00 Build 0)  -->
<svg version="1.1" id="Layer_1" xmlns="http://www.w3.org/2000/svg" xmlns:xlink="http://www.w3.org/1999/xlink" x="0px" y="0px"
	 viewBox="0 0 32 32" style="enable-background:new 0 0 32 32;" xml:space="preserve">
<style type="text/css">
	.st0{fill-rule:evenodd;clip-rule:evenodd;fill:#FFFFFF;}
	.st1{fill:#FB5F76;}
</style>
<g>
	<circle class="st0" cx="16" cy="16" r="16"/>
	<g>
		<g>
			<path class="st1" d="M13.76,32c-0.482-0.372-1.09-0.32-1.636-0.476c-6.376-1.828-10.32-5.956-11.82-12.423
				C0.237,18.809,0.297,18.456,0,18.24c0-1.44,0-2.88,0-4.32c0.366-0.687,0.306-1.484,0.575-2.197
				c0.29-0.77,0.545-1.554,0.852-2.317c0.081-0.2,0.09-0.66,0.443-0.488C2.163,9.06,2.517,9.342,2.384,9.807
				c-0.044,0.152-0.121,0.295-0.181,0.443c-2.359,5.738-1.08,12.131,3.346,16.483c2.494,2.453,5.517,3.855,9.002,4.154
				c0.866,0.074,0.595,0.709,0.809,1.114C14.827,32,14.293,32,13.76,32z"/>
			<path class="st1" d="M32,18.24c-0.343,0.381-0.269,0.886-0.392,1.332c-1.864,6.78-6.221,10.879-13.133,12.239
				c-0.149,0.029-0.329-0.013-0.395,0.188c-0.48,0-0.96,0-1.44,0c0.042-0.821,0.444-1.045,1.287-1.157
				c8.208-1.093,13.919-8.473,12.929-16.641c-0.163-1.349-0.484-2.671-1.045-3.922c-0.065-0.146-0.13-0.292-0.186-0.442
				c-0.19-0.505,0.189-0.807,0.509-0.953c0.322-0.147,0.343,0.31,0.441,0.518c0.613,1.31,1.003,2.69,1.245,4.114
				c0.025,0.149-0.017,0.33,0.18,0.403C32,15.36,32,16.8,32,18.24z"/>
			<path class="st1" d="M18.08,0c0.316,0.293,0.739,0.22,1.111,0.309c2.386,0.571,4.578,1.502,6.523,3.053
				c1.169,0.932,2.236,1.932,3.124,3.124c0.148,0.198,0.563,0.475,0.276,0.692c-0.307,0.231-0.787,0.329-1.126-0.138
				c-0.868-1.195-1.921-2.207-3.11-3.081C18.653-0.624,9.999,0.275,4.838,6.042C4.541,6.373,4.22,6.677,3.974,7.061
				c-0.325,0.507-0.782,0.222-1.3,0.127C3.757,5.51,5.076,4.184,6.602,3.054c1.909-1.414,4.044-2.307,6.37-2.771
				C13.236,0.23,13.571,0.293,13.76,0C15.2,0,16.64,0,18.08,0z"/>
			<path class="st1" d="M15.635,29.531c-0.848-5.349-0.487-10.68-0.719-16.168c-1.082,1.255-2.05,2.372-3.012,3.494
				c-0.687,0.802-1.034,0.822-1.737,0.068c-0.473-0.507-0.914-1.044-1.404-1.533c-0.365-0.365-0.279-0.524,0.16-0.717
				c1.726-0.758,3.438-1.546,5.156-2.321c0.146-0.066,0.293-0.129,0.44-0.19c0.215-0.089,0.394-0.228,0.308-0.48
				c-0.104-0.306-0.352-0.153-0.538-0.101c-1.538,0.43-3.073,0.87-4.609,1.306c-0.154,0.044-0.321,0.06-0.46,0.133
				c-1.481,0.775-2.57,0.365-3.592-0.927C4.709,10.932,3.558,9.95,2.514,8.883C2.298,8.662,1.993,8.461,2.193,8.071
				c0.193-0.377,0.538-0.294,0.846-0.249c1.68,0.249,3.363,0.46,5.037,0.772c2.032,0.379,4.104,0.536,6.152,0.829
				c0.998,0.142,1.567,0.794,1.565,1.808c-0.014,5.999-0.051,11.998-0.083,17.996C15.709,29.303,15.674,29.379,15.635,29.531z"/>
			<path class="st1" d="M17.083,13.359c-0.23,5.497,0.128,10.826-0.767,16.098c-0.012-0.236-0.034-0.471-0.036-0.707
				c-0.029-5.702-0.057-11.405-0.081-17.107c-0.006-1.494,0.428-2.062,1.872-2.278c2.235-0.335,4.48-0.6,6.718-0.912
				c1.385-0.193,2.764-0.426,4.148-0.628c0.334-0.049,0.717-0.14,0.892,0.298c0.156,0.392-0.17,0.581-0.384,0.8
				c-1.4,1.426-2.817,2.836-4.204,4.275c-0.304,0.315-0.566,0.368-0.976,0.248c-2.145-0.627-4.298-1.223-6.45-1.825
				c-0.212-0.059-0.495-0.267-0.631,0.036c-0.148,0.332,0.159,0.451,0.41,0.559c1.795,0.771,3.509,1.725,5.348,2.395
				c0.616,0.224,0.657,0.463,0.178,0.91c-0.466,0.435-0.86,0.945-1.296,1.413c-0.681,0.73-1.048,0.719-1.684-0.022
				C19.172,15.781,18.199,14.654,17.083,13.359z"/>
		</g>
	</g>
</g>
</svg>
