<?xml version="1.0" encoding="utf-8"?>
<!-- Generator: Adobe Illustrator 25.3.1, SVG Export Plug-In . SVG Version: 6.00 Build 0)  -->
<svg version="1.1" id="Layer_1" xmlns="http://www.w3.org/2000/svg" xmlns:xlink="http://www.w3.org/1999/xlink" x="0px" y="0px"
	 viewBox="0 0 32 32" style="enable-background:new 0 0 32 32;" xml:space="preserve">
<style type="text/css">
	.st0{fill-rule:evenodd;clip-rule:evenodd;}
	.st1{fill:#FFFFFF;}
</style>
<g>
	<circle class="st0" cx="16" cy="16" r="16"/>
	<path class="st1" d="M23.995,15.034v-4.32c0-0.008-0.003-0.016-0.003-0.024c-0.002-0.073-0.01-0.145-0.028-0.215
		c-0.001-0.002-0.002-0.004-0.002-0.006c-0.019-0.067-0.046-0.13-0.08-0.192c-0.01-0.018-0.021-0.034-0.032-0.052
		c-0.029-0.046-0.062-0.088-0.099-0.129c-0.014-0.015-0.026-0.03-0.041-0.044c-0.052-0.05-0.109-0.096-0.175-0.134l-7.576-4.374
		c-0.284-0.164-0.634-0.164-0.918,0L7.465,9.919c-0.284,0.164-0.459,0.467-0.459,0.795v10.882c0,0.328,0.175,0.631,0.459,0.795
		l3.741,2.16c0.011,0.006,0.023,0.008,0.034,0.014c0.049,0.026,0.1,0.047,0.154,0.064c0.02,0.006,0.039,0.013,0.058,0.018
		c0.066,0.016,0.133,0.026,0.204,0.026c0.003,0,0.006,0.001,0.008,0.001c0.001,0,0.001,0,0.002,0c0.074,0,0.144-0.011,0.213-0.028
		c0.019-0.005,0.037-0.012,0.056-0.017c0.051-0.016,0.1-0.036,0.148-0.06c0.019-0.01,0.038-0.02,0.057-0.031
		c0.054-0.033,0.105-0.071,0.151-0.114c0.007-0.006,0.014-0.011,0.021-0.017c0.052-0.052,0.096-0.111,0.134-0.173
		c0.004-0.007,0.011-0.012,0.015-0.019c0.009-0.015,0.013-0.032,0.021-0.047c0.015-0.03,0.029-0.059,0.041-0.091
		c0.011-0.028,0.019-0.056,0.026-0.085c0.008-0.028,0.015-0.057,0.02-0.086c0.005-0.033,0.008-0.066,0.01-0.099
		c0.001-0.017,0.005-0.034,0.005-0.051V13.404l6.658-3.844l1.998,1.154l-6.199,3.579c-0.284,0.164-0.459,0.467-0.459,0.795v4.32
		c0,0.008,0.003,0.016,0.003,0.024c0.002,0.073,0.01,0.145,0.028,0.215c0.001,0.002,0.002,0.004,0.002,0.006
		c0.019,0.067,0.046,0.13,0.08,0.192c0.01,0.018,0.021,0.034,0.032,0.052c0.029,0.046,0.062,0.088,0.099,0.129
		c0.014,0.015,0.026,0.03,0.041,0.044c0.052,0.05,0.109,0.096,0.175,0.134l7.576,4.374c0.142,0.082,0.301,0.123,0.459,0.123
		s0.317-0.041,0.459-0.123c0.284-0.164,0.459-0.467,0.459-0.795v-4.228c0-0.383-0.206-0.741-0.539-0.933l-2.378-1.373l2.457-1.419
		C23.819,15.665,23.995,15.362,23.995,15.034z M10.747,22.165l-1.905-1.1v-5.501l1.905-1.1V22.165z M8.842,13.444v-2.2L15.5,7.4
		l1.905,1.1L8.842,13.444z M22.158,19.992v2.2l-4.821-2.784l1.905-1.1L22.158,19.992z M22.158,14.504l-5.74,3.314v-2.2l5.74-3.314
		V14.504z"/>
</g>
</svg>
