<?xml version="1.0" encoding="utf-8"?>
<!-- Generator: Adobe Illustrator 26.0.1, SVG Export Plug-In . SVG Version: 6.00 Build 0)  -->
<svg version="1.1" id="Layer_1" xmlns="http://www.w3.org/2000/svg" xmlns:xlink="http://www.w3.org/1999/xlink" x="0px" y="0px"
	 viewBox="0 0 32 32" style="enable-background:new 0 0 32 32;" xml:space="preserve">
<style type="text/css">
	.st0{fill-rule:evenodd;clip-rule:evenodd;fill:#FC5F74;}
	.st1{fill-rule:evenodd;clip-rule:evenodd;fill:#FC9C67;}
	.st2{fill-rule:evenodd;clip-rule:evenodd;fill:#FC846C;}
	.st3{fill-rule:evenodd;clip-rule:evenodd;fill:#FC6C74;}
	.st4{fill-rule:evenodd;clip-rule:evenodd;fill:#FC7473;}
	.st5{fill-rule:evenodd;clip-rule:evenodd;fill:#FC5477;}
	.st6{fill-rule:evenodd;clip-rule:evenodd;fill:#FCAC64;}
	.st7{fill-rule:evenodd;clip-rule:evenodd;fill:#FC5C7C;}
	.st8{fill-rule:evenodd;clip-rule:evenodd;fill:#FC6078;}
</style>
<g id="svgg">
	<path id="path0" class="st0" d="M11.602,0.98c-0.11,0.032-0.237,0.073-0.282,0.089c-0.045,0.017-0.103,0.039-0.129,0.048
		c-0.026,0.01-0.055,0.016-0.064,0.014C11.117,1.13,11.08,1.14,11.044,1.155c-0.036,0.015-0.077,0.029-0.092,0.033
		c-0.078,0.017-0.515,0.187-0.522,0.203c-0.004,0.011-0.017,0.014-0.028,0.007c-0.011-0.007-0.074,0.014-0.139,0.047
		c-0.065,0.033-0.121,0.058-0.124,0.056c-0.012-0.008-0.182,0.06-0.182,0.074c0,0.008-0.024,0.016-0.053,0.018
		C9.875,1.594,9.848,1.607,9.843,1.62C9.839,1.634,9.816,1.645,9.794,1.645c-0.023,0-0.049,0.008-0.059,0.018
		c-0.01,0.01-0.025,0.018-0.033,0.019c-0.019,0.001-0.333,0.15-0.333,0.158c0,0.003,0.657,0.003,1.459-0.001
		c0.983-0.004,1.454,0.002,1.444,0.018C12.264,1.869,12.268,1.88,12.28,1.88c0.013,0,0.026-0.009,0.031-0.021
		c0.004-0.012,0.045-0.027,0.09-0.035c0.045-0.008,0.13-0.025,0.188-0.038c0.058-0.014,0.122-0.028,0.141-0.031
		c0.019-0.003,0.093-0.019,0.165-0.034c0.071-0.015,0.182-0.039,0.247-0.052c0.065-0.013,0.139-0.03,0.164-0.036
		c0.026-0.007,0.1-0.018,0.165-0.025c0.065-0.007,0.124-0.018,0.133-0.023c0.008-0.005,0.072-0.015,0.141-0.023
		c0.069-0.007,0.144-0.019,0.167-0.025c0.051-0.015,0.161-0.031,0.287-0.042c0.135-0.012,0.366-0.038,0.435-0.05
		c0.032-0.005,0.175-0.016,0.317-0.024c0.142-0.008,0.311-0.018,0.376-0.023c0.153-0.011,1.281-0.011,1.434,0
		c0.065,0.005,0.234,0.015,0.376,0.023c0.142,0.008,0.285,0.019,0.317,0.024c0.069,0.012,0.3,0.038,0.435,0.05
		c0.126,0.011,0.237,0.027,0.287,0.042c0.023,0.007,0.098,0.018,0.167,0.025c0.069,0.007,0.133,0.017,0.141,0.023
		c0.008,0.005,0.068,0.016,0.133,0.023c0.065,0.007,0.144,0.02,0.176,0.028c0.032,0.008,0.137,0.029,0.232,0.047
		c0.095,0.018,0.196,0.04,0.223,0.049c0.028,0.009,0.071,0.02,0.097,0.024c0.026,0.004,0.095,0.019,0.153,0.032
		c0.058,0.013,0.143,0.031,0.188,0.038c0.045,0.007,0.086,0.023,0.09,0.035c0.004,0.012,0.018,0.021,0.031,0.021
		c0.013,0,0.016-0.011,0.008-0.024c-0.01-0.016,0.462-0.022,1.444-0.018c0.803,0.003,1.459,0.004,1.459,0.001
		c0-0.008-0.314-0.156-0.333-0.158c-0.009-0.001-0.024-0.009-0.033-0.019c-0.01-0.01-0.036-0.018-0.059-0.018
		c-0.023,0-0.045-0.01-0.049-0.023c-0.004-0.013-0.029-0.026-0.055-0.031c-0.026-0.004-0.079-0.025-0.118-0.045
		C21.969,1.49,21.207,1.2,21.138,1.189c-0.015-0.002-0.04-0.012-0.056-0.022c-0.016-0.01-0.04-0.012-0.053-0.004
		c-0.013,0.008-0.024,0.003-0.024-0.011c0-0.014-0.013-0.024-0.029-0.021c-0.016,0.003-0.051-0.003-0.076-0.013
		c-0.026-0.01-0.084-0.031-0.129-0.048c-0.045-0.017-0.18-0.058-0.298-0.092l-0.216-0.061l-4.227,0.003l-4.227,0.003L11.602,0.98
		 M17.016,9.841c-0.174,0.113-0.406,0.351-0.49,0.502c-0.025,0.045-0.052,0.088-0.059,0.094c-0.023,0.02-0.093,0.181-0.145,0.334
		c-0.048,0.139-0.051,0.199-0.06,1.059l-0.009,0.911l1.124,0c0.618,0,1.151,0.006,1.183,0.012s0.043,0.005,0.024-0.003
		c-0.019-0.008-0.072-0.032-0.118-0.053c-0.045-0.021-0.088-0.039-0.094-0.039c-0.013-0.002-0.208-0.09-0.317-0.144
		c-0.039-0.019-0.09-0.039-0.115-0.044c-0.024-0.005-0.061-0.023-0.082-0.041c-0.021-0.017-0.107-0.062-0.191-0.098
		c-0.084-0.037-0.208-0.091-0.275-0.122c-0.067-0.03-0.132-0.055-0.144-0.055c-0.061,0-0.074-0.07-0.059-0.323
		c0.014-0.249,0.017-0.26,0.064-0.249c0.089,0.02,0.12,0.028,0.12,0.032c0,0.002,0.016,0.007,0.035,0.012
		c0.019,0.004,0.125,0.034,0.235,0.067c0.11,0.032,0.226,0.062,0.259,0.067s0.064,0.015,0.071,0.024
		c0.007,0.009,0.046,0.022,0.087,0.029c0.041,0.007,0.104,0.024,0.14,0.038c0.036,0.014,0.066,0.024,0.066,0.022
		s0.016,0.003,0.035,0.01c0.055,0.02,0.596,0.158,0.629,0.16c0.016,0.001,0.029,0.011,0.029,0.022c0,0.011,0.015,0.02,0.032,0.02
		c0.018,0,0.2,0.048,0.406,0.107c0.205,0.059,0.389,0.11,0.409,0.114c0.019,0.004,0.051,0.014,0.071,0.021
		c0.019,0.007,0.141,0.041,0.27,0.076c0.129,0.034,0.288,0.078,0.353,0.097c0.105,0.031,0.19,0.052,0.259,0.065
		c0.013,0.002,0.034,0.011,0.047,0.019c0.013,0.008,0.065,0.021,0.116,0.029c0.051,0.008,0.106,0.026,0.122,0.04
		c0.017,0.014,0.04,0.019,0.053,0.011c0.013-0.008,0.029-0.005,0.036,0.007c0.007,0.012,0.053,0.029,0.102,0.039
		c0.049,0.01,0.102,0.022,0.118,0.026c0.016,0.004,0.043,0.011,0.059,0.015c0.016,0.004,0.044,0.016,0.062,0.027
		c0.023,0.014,0.028,0.012,0.016-0.007c-0.013-0.02,0.493-0.027,2.047-0.027h2.063l-0.117,0.123
		c-0.174,0.183,1.816-1.807,2.491-2.491l0.586-0.593l-5.715-0.006l-5.715-0.006L17.016,9.841 M4.116,10.372
		c0.322,0.326,0.984,0.993,1.471,1.481l0.886,0.887h2.072c1.56,0,2.068,0.007,2.055,0.027c-0.011,0.019-0.006,0.021,0.016,0.007
		c0.018-0.011,0.046-0.024,0.062-0.027c0.016-0.004,0.043-0.01,0.059-0.015c0.016-0.004,0.069-0.016,0.118-0.026
		c0.049-0.01,0.094-0.028,0.102-0.039c0.007-0.012,0.023-0.015,0.035-0.008c0.012,0.007,0.044,0.001,0.071-0.013
		c0.027-0.015,0.078-0.031,0.112-0.037c0.034-0.006,0.078-0.017,0.098-0.025c0.039-0.016,0.054-0.02,0.141-0.04
		c0.032-0.007,0.112-0.029,0.176-0.048c0.065-0.019,0.223-0.063,0.353-0.097c0.129-0.034,0.251-0.068,0.27-0.076
		c0.019-0.007,0.051-0.017,0.071-0.021c0.019-0.004,0.201-0.055,0.404-0.114c0.203-0.059,0.385-0.107,0.406-0.107
		s0.037-0.009,0.037-0.02c0-0.011,0.013-0.021,0.029-0.022c0.043-0.003,0.329-0.075,0.37-0.092c0.043-0.019,0.038-0.017,0.153-0.04
		c0.052-0.01,0.107-0.03,0.123-0.043c0.016-0.013,0.029-0.017,0.029-0.009c0,0.009,0.019,0.006,0.041-0.007
		c0.023-0.012,0.083-0.029,0.134-0.037c0.051-0.008,0.099-0.022,0.106-0.032c0.007-0.009,0.039-0.021,0.072-0.025
		c0.065-0.009,0.44-0.114,0.468-0.132c0.01-0.006,0.043-0.016,0.074-0.023c0.031-0.006,0.079-0.017,0.107-0.023
		c0.047-0.011,0.05,0,0.064,0.249c0.015,0.255,0.002,0.323-0.061,0.323c-0.013,0-0.078,0.025-0.144,0.057
		c-0.066,0.031-0.189,0.086-0.273,0.122c-0.084,0.036-0.17,0.08-0.192,0.098c-0.021,0.018-0.053,0.036-0.071,0.039
		c-0.048,0.01-0.139,0.049-0.323,0.14c-0.092,0.045-0.175,0.084-0.184,0.087c-0.034,0.008-0.123,0.044-0.123,0.051
		c0,0.004,0.518,0.004,1.152,0l1.152-0.006v-0.833c0-0.938-0.056-1.327-0.211-1.47c-0.007-0.007-0.029-0.042-0.048-0.08
		c-0.076-0.147-0.397-0.468-0.543-0.544c-0.056-0.029-0.854-0.034-5.783-0.034H3.53L4.116,10.372 M1.28,10.719
		c-0.017,0.045-0.032,0.088-0.034,0.094c-0.013,0.059-0.067,0.23-0.087,0.279c-0.014,0.034-0.029,0.072-0.033,0.085
		c-0.004,0.013-0.034,0.103-0.068,0.2c-0.084,0.245-0.183,0.614-0.212,0.788c-0.004,0.026-0.01,0.052-0.013,0.059
		c-0.003,0.007-0.008,0.022-0.011,0.035c-0.003,0.013-0.008,0.029-0.01,0.035C0.81,12.301,0.804,12.322,0.8,12.341
		c-0.005,0.019-0.019,0.069-0.031,0.11c-0.013,0.041-0.018,0.08-0.011,0.086c0.006,0.006,0.001,0.031-0.011,0.055
		c-0.023,0.044-0.107,0.428-0.134,0.619c-0.008,0.058-0.019,0.127-0.024,0.153c-0.03,0.154-0.077,0.14,0.501,0.147
		c0.288,0.003,0.524-0.002,0.526-0.012s0.006-0.039,0.01-0.065c0.021-0.137,0.034-0.202,0.068-0.346
		c0.021-0.087,0.035-0.166,0.033-0.176c-0.002-0.01,0.009-0.065,0.025-0.123c0.016-0.057,0.033-0.131,0.038-0.165
		c0.004-0.033,0.01-0.06,0.011-0.06s0.007-0.016,0.012-0.035c0.005-0.019,0.015-0.056,0.022-0.082
		c0.007-0.026,0.044-0.158,0.081-0.294c0.037-0.136,0.095-0.331,0.128-0.433c0.033-0.103,0.055-0.195,0.048-0.206
		c-0.007-0.011-0.001-0.019,0.012-0.019c0.013,0,0.032-0.04,0.041-0.088c0.01-0.048,0.019-0.093,0.02-0.1
		c0.001-0.006,0.021-0.054,0.044-0.106c0.023-0.052,0.068-0.173,0.101-0.27c0.033-0.097,0.069-0.186,0.081-0.199
		c0.069-0.074,0.023-0.082-0.529-0.089l-0.55-0.007L1.28,10.719 M29.68,10.633c0,0.004,0.038,0.113,0.084,0.241
		c0.105,0.291,0.286,0.849,0.332,1.021c0.019,0.071,0.043,0.135,0.053,0.141c0.01,0.007,0.024,0.049,0.03,0.094
		c0.017,0.114,0.041,0.216,0.056,0.241c0.007,0.011,0.018,0.054,0.025,0.096c0.006,0.041,0.021,0.087,0.033,0.101
		c0.012,0.014,0.015,0.032,0.007,0.04c-0.008,0.008-0.006,0.033,0.004,0.057c0.01,0.023,0.021,0.058,0.025,0.077
		c0.004,0.019,0.029,0.141,0.056,0.27c0.027,0.129,0.055,0.283,0.063,0.341c0.019,0.144,0.004,0.14,0.569,0.141l0.502,0l-0.016-0.1
		c-0.009-0.055-0.02-0.129-0.025-0.165c-0.005-0.036-0.015-0.094-0.023-0.129c-0.007-0.036-0.019-0.107-0.026-0.158
		s-0.022-0.105-0.034-0.12c-0.012-0.014-0.015-0.033-0.007-0.04c0.008-0.008,0.006-0.033-0.004-0.057
		c-0.01-0.023-0.017-0.051-0.014-0.061c0.004-0.02-0.06-0.287-0.083-0.346c-0.014-0.036-0.017-0.05-0.043-0.188
		c-0.008-0.045-0.052-0.209-0.098-0.364c-0.046-0.155-0.105-0.356-0.131-0.447c-0.027-0.09-0.056-0.175-0.066-0.188
		c-0.01-0.013-0.02-0.034-0.023-0.047c-0.009-0.041-0.017-0.067-0.083-0.265l-0.065-0.194h-0.548
		C29.927,10.625,29.68,10.628,29.68,10.633 M6.583,12.858c0.05,0.052,0.097,0.094,0.104,0.094c0.007,0-0.03-0.042-0.08-0.094
		c-0.05-0.052-0.097-0.094-0.104-0.094C6.496,12.764,6.532,12.807,6.583,12.858 M6.993,13.287c0.097,0.104,0.119,0.122,0.119,0.105
		c0-0.004-0.05-0.054-0.112-0.112l-0.112-0.105L6.993,13.287 M25.072,13.293c-0.057,0.058-0.098,0.106-0.092,0.106
		c0.007,0,0.058-0.048,0.116-0.106c0.057-0.058,0.099-0.106,0.092-0.106C25.181,13.187,25.129,13.235,25.072,13.293"/>
	<path id="path1" class="st1" d="M4.937,4.942L4.82,5.065l0.123-0.117c0.115-0.108,0.134-0.13,0.117-0.13
		C5.056,4.819,5.001,4.874,4.937,4.942 M27.129,4.936c0.064,0.065,0.121,0.118,0.128,0.118c0.006,0-0.04-0.053-0.104-0.118
		c-0.064-0.065-0.121-0.118-0.127-0.118C27.019,4.819,27.065,4.871,27.129,4.936 M27.517,5.352c0,0.015,0.013,0.033,0.029,0.039
		c0.016,0.007-0.295,0.01-0.691,0.008c-0.475-0.003-0.716,0.004-0.707,0.019c0.008,0.013,0.169,0.182,0.36,0.376
		c0.328,0.335,0.811,0.873,0.939,1.047c0.032,0.044,0.088,0.11,0.124,0.146l0.065,0.065h0.635c0.502,0,0.632-0.006,0.618-0.029
		c-0.053-0.09-0.373-0.518-0.584-0.782c-0.207-0.258-0.25-0.31-0.424-0.505c-0.065-0.072-0.173-0.195-0.241-0.272
		C27.573,5.387,27.517,5.337,27.517,5.352 M4.43,5.486c-0.044,0.05-0.148,0.167-0.231,0.259C4.015,5.95,3.626,6.43,3.502,6.605
		C3.452,6.676,3.405,6.74,3.398,6.746C3.391,6.753,3.329,6.837,3.26,6.934C3.19,7.031,3.147,7.097,3.164,7.081
		c0.023-0.022,0.19-0.029,0.667-0.029h0.637l0.058-0.067C4.559,6.948,4.611,6.883,4.644,6.84C4.779,6.658,5.26,6.123,5.582,5.794
		c0.19-0.194,0.352-0.363,0.36-0.376c0.009-0.015-0.234-0.024-0.709-0.024H4.511L4.43,5.486 M15.168,24.46
		c0.005,0.026,0.014,0.111,0.019,0.188c0.02,0.293,0.418,4.687,0.449,4.948c0.007,0.058,0.014,0.143,0.016,0.188
		c0.004,0.081,0.006,0.082,0.093,0.074l0.089-0.008v-2.689v-2.689h-0.327c-0.241,0-0.33-0.008-0.337-0.029
		C15.163,24.426,15.163,24.434,15.168,24.46 M16.257,27.163v2.692h0.08c0.044,0,0.085,0.013,0.092,0.029
		c0.006,0.016,0.011-0.008,0.011-0.053c0-0.045,0.006-0.14,0.013-0.212c0.058-0.559,0.435-4.745,0.449-4.99l0.009-0.159h-0.328
		h-0.328V27.163 M4.259,24.765c0.011,0.03-1.064,0.063-1.22,0.038c-0.01-0.002,0.011,0.038,0.047,0.088
		c0.036,0.05,0.078,0.111,0.094,0.135c1.047,1.578,3.071,3.482,4.708,4.426c0.071,0.041,0.145,0.085,0.165,0.097
		c0.121,0.076,0.454,0.258,0.474,0.258c0.013,0,0.062,0.029,0.109,0.065c0.047,0.036,0.076,0.049,0.065,0.029
		c-0.011-0.019,0.006-0.012,0.037,0.017l0.057,0.052l1.304-0.001c1.216-0.001,1.298-0.003,1.222-0.039
		c-0.045-0.021-0.091-0.036-0.101-0.033c-0.01,0.003-0.036-0.012-0.056-0.033c-0.021-0.021-0.057-0.032-0.081-0.026
		c-0.024,0.006-0.039,0.004-0.033-0.006c0.008-0.013-0.135-0.071-0.269-0.108c-0.007-0.002-0.059-0.025-0.118-0.051
		c-0.058-0.026-0.132-0.056-0.165-0.066c-0.068-0.021-0.099-0.035-0.679-0.305c-1.702-0.791-3.474-2.111-4.681-3.486
		c-0.097-0.111-0.192-0.218-0.212-0.239C4.906,25.558,4.8,25.43,4.69,25.294c-0.11-0.136-0.216-0.259-0.235-0.274
		c-0.019-0.015-0.035-0.036-0.035-0.047c0-0.019-0.154-0.243-0.168-0.243C4.248,24.73,4.251,24.746,4.259,24.765 M27.796,24.789
		c-0.001,0.013-0.001,0.031,0,0.041c0.001,0.01-0.011,0.018-0.027,0.018c-0.016,0-0.056,0.04-0.088,0.088
		c-0.032,0.048-0.064,0.093-0.071,0.1c-0.007,0.006-0.081,0.096-0.164,0.2c-1.365,1.698-3.231,3.167-5.162,4.063
		c-0.526,0.244-0.625,0.289-0.692,0.309c-0.032,0.01-0.106,0.04-0.165,0.066c-0.058,0.026-0.111,0.049-0.118,0.051
		c-0.134,0.037-0.277,0.095-0.269,0.108c0.006,0.009-0.009,0.012-0.033,0.006c-0.024-0.006-0.061,0.006-0.082,0.027
		c-0.021,0.021-0.049,0.032-0.061,0.025s-0.029-0.003-0.037,0.011c-0.008,0.013-0.022,0.02-0.031,0.014
		c-0.009-0.006-0.036,0.005-0.061,0.023c-0.039,0.028,0.134,0.034,1.24,0.039c0.707,0.003,1.285-0.002,1.285-0.013
		c0-0.01,0.01-0.013,0.022-0.005c0.012,0.008,0.045-0.01,0.074-0.04c0.029-0.029,0.043-0.038,0.032-0.018
		c-0.011,0.019,0.019,0.006,0.066-0.029c0.047-0.036,0.095-0.065,0.107-0.065s0.072-0.029,0.133-0.065
		c0.061-0.036,0.168-0.096,0.237-0.135c1.55-0.87,3.284-2.369,4.405-3.808c0.222-0.285,0.459-0.603,0.509-0.682
		c0.025-0.039,0.05-0.076,0.057-0.082c0.021-0.02,0.165-0.236,0.165-0.247C29.069,24.766,27.799,24.766,27.796,24.789"/>
	<path id="path2" class="st2" d="M7.327,3.637C6.432,3.644,6.424,3.644,6.36,3.696c-0.036,0.029-0.095,0.074-0.131,0.1
		c-0.343,0.244-1.741,1.557-1.7,1.598c0.006,0.006,0.33,0.012,0.72,0.013l0.709,0.002l0.125-0.117
		C6.518,4.883,7.303,4.26,7.805,3.925C7.909,3.856,7.997,3.791,8.001,3.78c0.004-0.011,0.023-0.019,0.04-0.019
		c0.018,0,0.044-0.021,0.058-0.048c0.014-0.026,0.034-0.042,0.044-0.036c0.01,0.006,0.039-0.004,0.064-0.022
		C8.232,3.636,8.247,3.623,8.24,3.626C8.234,3.629,7.823,3.634,7.327,3.637 M23.888,3.66c0.022,0.016,0.048,0.023,0.058,0.017
		c0.01-0.006,0.03,0.01,0.044,0.036c0.014,0.026,0.04,0.048,0.058,0.048c0.018,0,0.036,0.009,0.04,0.019
		c0.004,0.011,0.092,0.076,0.196,0.145c0.489,0.327,1.127,0.83,1.699,1.341c0.042,0.038,0.077,0.061,0.077,0.051
		c0-0.009,0.013,0.008,0.029,0.039c0.016,0.031,0.037,0.055,0.047,0.053c0.01-0.002,0.338-0.004,0.729-0.005
		c0.391-0.001,0.698-0.007,0.682-0.014c-0.016-0.007-0.029-0.023-0.029-0.038c0-0.099-1.643-1.616-1.751-1.616
		c-0.018,0-0.044-0.019-0.056-0.041c-0.021-0.038-0.098-0.042-0.942-0.053C24.042,3.634,23.857,3.637,23.888,3.66 M15.079,18.753
		c-0.001,0.023-0.006,0.12-0.012,0.217c-0.012,0.224,0.056,4.936,0.074,5.172c0.008,0.097,0.017,0.197,0.021,0.223
		c0.004,0.026,0.008,0.06,0.01,0.076c0.002,0.022,0.086,0.029,0.332,0.029h0.329v-2.88v-2.88h-0.376
		C15.116,18.712,15.081,18.716,15.079,18.753 M16.257,21.592v2.88l0.335-0.007l0.335-0.007l0.004-0.07
		c0.002-0.039,0.01-0.15,0.018-0.247c0.016-0.206,0.087-4.891,0.078-5.213l-0.006-0.217l-0.382,0h-0.382V21.592 M30.346,19.258
		c0.006,0.023,0.003,0.041-0.007,0.041c-0.01,0-0.016,0.024-0.014,0.053c0.002,0.029-0.003,0.063-0.012,0.076
		c-0.013,0.02-0.031,0.083-0.082,0.294c-0.329,1.35-1.168,3.233-1.95,4.375c-0.071,0.104-0.129,0.192-0.129,0.196
		c0,0.019-0.172,0.261-0.196,0.277c-0.015,0.009-0.02,0.017-0.012,0.018c0.008,0-0.015,0.033-0.053,0.073
		c-0.038,0.04-0.068,0.082-0.068,0.094c0,0.012,0.275,0.021,0.629,0.021h0.629l0.043-0.065c0.024-0.036,0.044-0.075,0.044-0.088
		c0.001-0.013,0.021-0.037,0.045-0.054c0.024-0.017,0.044-0.041,0.044-0.054c0-0.013,0.011-0.036,0.024-0.052
		c0.673-0.797,2.054-4.197,2.102-5.177c0.001-0.013,0.012-0.031,0.025-0.04c0.013-0.009-0.223-0.02-0.524-0.024
		C30.371,19.218,30.336,19.22,30.346,19.258 M0.708,19.273c-0.007,0.011,0.002,0.069,0.019,0.128
		c0.018,0.059,0.028,0.112,0.022,0.118c-0.04,0.04,0.385,1.469,0.624,2.1c0.357,0.94,1.144,2.5,1.436,2.845
		c0.013,0.016,0.024,0.039,0.024,0.052c0,0.013,0.024,0.04,0.052,0.06c0.029,0.02,0.044,0.037,0.034,0.037
		c-0.01,0,0.012,0.043,0.048,0.096l0.066,0.096l0.61-0.002c0.335-0.001,0.614-0.006,0.619-0.011c0.021-0.021-0.069-0.155-0.093-0.14
		c-0.016,0.01-0.02,0.005-0.009-0.011c0.009-0.015,0.005-0.027-0.009-0.027c-0.015,0-0.02-0.01-0.013-0.022
		c0.007-0.012,0.002-0.029-0.011-0.037c-0.103-0.063-0.821-1.251-1.152-1.904c-0.49-0.967-1.148-2.752-1.181-3.203
		c-0.001-0.016-0.009-0.029-0.018-0.029s-0.014-0.024-0.011-0.053c0.009-0.107-0.012-0.112-0.543-0.112
		C0.946,19.253,0.715,19.262,0.708,19.273"/>
	<path id="path3" class="st3" d="M9.298,1.869C9.266,1.886,9.107,1.964,8.945,2.043C8.784,2.121,8.588,2.221,8.511,2.265
		C8.266,2.402,8.091,2.504,7.97,2.58L7.852,2.654l1.093,0.007l1.093,0.007l0.306-0.131c0.499-0.214,1.631-0.609,1.745-0.609
		c0.016,0,0.03-0.01,0.03-0.022c0-0.012,0.02-0.018,0.045-0.013c0.025,0.005,0.064-0.006,0.088-0.024
		C12.315,1.82,9.389,1.821,9.298,1.869 M19.818,1.856c0.008,0.013,0.046,0.024,0.084,0.024c0.038,0,0.069,0.011,0.069,0.024
		s0.013,0.024,0.03,0.024c0.114,0,1.246,0.395,1.745,0.609l0.306,0.131l1.093-0.012c0.975-0.01,1.085-0.015,1.023-0.046
		c-0.039-0.019-0.086-0.047-0.106-0.063c-0.019-0.016-0.104-0.068-0.188-0.117c-0.445-0.256-0.979-0.527-1.035-0.527
		c-0.024,0-0.059-0.016-0.078-0.035C22.718,1.826,19.792,1.814,19.818,1.856 M13.483,12.769c-0.023,0.022-0.048,0.034-0.055,0.028
		c-0.014-0.014-0.163,0.059-0.183,0.09c-0.008,0.012-0.037,0.023-0.065,0.025c-0.028,0.002-0.051,0.013-0.051,0.025
		c0,0.012-0.016,0.015-0.035,0.007c-0.019-0.007-0.035-0.006-0.035,0.004c0,0.009-0.029,0.029-0.065,0.043
		c-0.239,0.097-0.343,0.141-0.488,0.209c-0.091,0.042-0.292,0.132-0.447,0.201s-0.372,0.166-0.482,0.216
		c-0.2,0.092-0.283,0.13-0.458,0.206c-0.052,0.023-0.2,0.089-0.329,0.148c-0.129,0.059-0.299,0.135-0.376,0.17
		c-0.487,0.218-1.575,0.709-1.735,0.783l-0.136,0.063l0.2,0.223l0.2,0.223l2.166,0.012l2.166,0.012l0.051-0.066
		c0.028-0.036,0.083-0.101,0.121-0.143c0.039-0.042,0.105-0.118,0.148-0.169c0.043-0.051,0.365-0.428,0.717-0.838l0.64-0.746
		l0.016,0.146c0.009,0.08,0.018,0.474,0.021,0.875c0.004,0.62,0.031,1.252,0.042,1.005l0.003-0.076h0.4h0.4v-1.351v-1.351
		l-1.154-0.006C13.624,12.73,13.522,12.732,13.483,12.769 M17.403,12.735l-1.146,0.006v1.351v1.352h0.4
		c0.302,0,0.4,0.007,0.403,0.029c0.016,0.149,0.038-0.346,0.042-0.946c0.003-0.407,0.012-0.806,0.021-0.887l0.016-0.146l0.64,0.746
		c0.352,0.41,0.674,0.787,0.717,0.838c0.043,0.051,0.109,0.127,0.148,0.169c0.039,0.042,0.091,0.104,0.115,0.137l0.044,0.061h2.159
		h2.159l0.077-0.079c0.227-0.232,0.352-0.371,0.343-0.381c-0.006-0.006-0.237-0.113-0.514-0.237
		c-0.277-0.124-0.662-0.297-0.856-0.385c-0.194-0.088-0.416-0.188-0.494-0.223c-0.078-0.035-0.247-0.111-0.376-0.17
		c-0.129-0.059-0.277-0.125-0.329-0.148c-0.175-0.076-0.258-0.114-0.458-0.206c-0.11-0.051-0.327-0.148-0.482-0.216
		s-0.356-0.159-0.447-0.201c-0.09-0.042-0.249-0.112-0.353-0.155c-0.103-0.043-0.191-0.086-0.195-0.095
		c-0.004-0.009-0.023-0.011-0.041-0.004c-0.019,0.007-0.034,0.001-0.034-0.013c0-0.014-0.026-0.026-0.059-0.026
		c-0.032,0-0.059-0.009-0.059-0.019c0-0.028-0.164-0.102-0.19-0.086c-0.012,0.007-0.022,0.002-0.022-0.011
		c0-0.014-0.022-0.025-0.048-0.025c-0.027,0-0.042-0.011-0.034-0.024c0.008-0.013,0.011-0.021,0.007-0.018
		C18.552,12.726,18.033,12.732,17.403,12.735 M6.605,12.865c0.065,0.068,0.266,0.28,0.447,0.471c0.368,0.39,0.314,0.366,0.612,0.272
		c0.078-0.024,0.311-0.091,0.519-0.149c0.208-0.058,0.425-0.121,0.482-0.14c0.057-0.019,0.13-0.04,0.163-0.046
		s0.138-0.034,0.235-0.062c0.097-0.028,0.255-0.072,0.352-0.098c0.097-0.026,0.195-0.057,0.219-0.07
		c0.048-0.026,0.126-0.047,0.182-0.049c0.019-0.001,0.046-0.009,0.059-0.018c0.028-0.02,0.157-0.056,0.182-0.051
		c0.016,0.003,0.191-0.049,0.277-0.083c0.041-0.016,0.091-0.031,0.141-0.041c0.256-0.05,0.028-0.057-1.917-0.059l-2.07-0.001
		L6.605,12.865 M21.522,12.769c0.032,0.014,0.075,0.028,0.094,0.031c0.019,0.003,0.118,0.033,0.219,0.067
		c0.101,0.033,0.191,0.059,0.2,0.057c0.024-0.005,0.154,0.032,0.181,0.051c0.013,0.009,0.039,0.018,0.059,0.018
		c0.055,0.002,0.134,0.023,0.182,0.049c0.024,0.013,0.122,0.044,0.219,0.07c0.096,0.026,0.255,0.07,0.352,0.098
		c0.097,0.028,0.195,0.056,0.217,0.061c0.069,0.016,0.108,0.027,0.582,0.162c0.252,0.072,0.522,0.15,0.6,0.175
		c0.31,0.097,0.194,0.178,1.044-0.732l0.126-0.135l-2.066,0.001C22.036,12.743,21.48,12.751,21.522,12.769 M30.492,13.54
		c0.008,0.032,0.018,0.09,0.021,0.129c0.003,0.039,0.018,0.15,0.032,0.247c0.014,0.097,0.032,0.229,0.038,0.294
		c0.007,0.065,0.023,0.213,0.035,0.329c0.012,0.116,0.03,0.328,0.038,0.47c0.009,0.142,0.018,0.285,0.022,0.317
		c0.003,0.032,0.009,0.26,0.013,0.505c0.004,0.246,0.011,0.407,0.016,0.359l0.009-0.088h0.507h0.507l-0.014-0.605
		c-0.008-0.333-0.025-0.716-0.039-0.852c-0.03-0.303-0.089-0.767-0.108-0.846c-0.008-0.032-0.014-0.075-0.014-0.094
		c0-0.019-0.006-0.051-0.013-0.071c-0.007-0.019-0.011-0.062-0.009-0.094l0.005-0.059h-0.531h-0.531L30.492,13.54 M0.573,13.534
		c-0.007,0.034-0.015,0.065-0.019,0.076c-0.025,0.065-0.1,0.613-0.143,1.034c-0.014,0.136-0.031,0.524-0.039,0.864l-0.014,0.617
		h0.507h0.507l0.008,0.076c0.004,0.042,0.015-0.204,0.025-0.547c0.016-0.581,0.049-1.031,0.113-1.54
		c0.015-0.116,0.03-0.243,0.034-0.282c0.004-0.039,0.014-0.126,0.023-0.194l0.015-0.123H1.084
		C0.805,13.517,0.575,13.525,0.573,13.534 M18.842,15.473c0,0.007,0.033,0.048,0.072,0.092c0.04,0.044,0.062,0.058,0.049,0.032
		C18.941,15.55,18.842,15.449,18.842,15.473 M13.127,15.591c-0.028,0.053-0.028,0.053,0.023,0.008
		c0.056-0.05,0.061-0.061,0.028-0.061C13.165,15.538,13.143,15.562,13.127,15.591"/>
	<path id="path4" class="st4" d="M7.817,2.677c0,0.012-0.048,0.045-0.106,0.073C7.579,2.814,6.83,3.315,6.746,3.396
		C6.732,3.409,6.682,3.446,6.634,3.479C6.587,3.511,6.548,3.545,6.548,3.555c0,0.01-0.015,0.018-0.033,0.018
		c-0.018,0-0.046,0.016-0.062,0.035C6.405,3.666,8.173,3.66,8.281,3.602C8.323,3.579,8.54,3.456,8.763,3.327
		C8.986,3.199,9.322,3.016,9.51,2.922C9.697,2.827,9.863,2.74,9.877,2.728C9.892,2.715,9.911,2.712,9.919,2.72
		s0.014,0.001,0.014-0.015s0.01-0.023,0.022-0.015c0.012,0.007,0.029,0.003,0.037-0.01c0.01-0.016-0.344-0.024-1.08-0.024
		C8.269,2.656,7.817,2.665,7.817,2.677 M22.133,2.682c0.032,0.013,0.064,0.031,0.07,0.041c0.007,0.01,0.134,0.077,0.283,0.15
		c0.398,0.195,1.046,0.555,1.256,0.696l0.092,0.062l0.923,0.012c0.88,0.011,0.921,0.01,0.879-0.029
		c-0.024-0.023-0.051-0.041-0.06-0.041c-0.008,0-0.049-0.029-0.09-0.065c-0.247-0.213-1.12-0.801-1.169-0.787
		c-0.008,0.002-0.028-0.011-0.044-0.03c-0.024-0.029-0.187-0.034-1.113-0.033C22.421,2.658,22.093,2.666,22.133,2.682
		 M20.971,15.438c-1.968,0.006-2.157,0.009-2.109,0.043c0.029,0.02,0.045,0.048,0.037,0.062c-0.009,0.014-0.005,0.019,0.009,0.01
		c0.014-0.008,0.047,0.022,0.073,0.067c0.027,0.045,0.059,0.082,0.073,0.082c0.013,0,0.024,0.011,0.024,0.024
		c0,0.02,0.063,0.101,0.154,0.197c0.014,0.014,0.072,0.084,0.13,0.155c0.138,0.169,0.176,0.214,0.468,0.551
		c0.136,0.156,0.323,0.375,0.417,0.486c0.267,0.317,0.545,0.43,0.871,0.351c0.231-0.056,0.289-0.109,1.133-1.045
		c0.162-0.179,0.308-0.341,0.326-0.359c0.017-0.018,0.095-0.109,0.173-0.202c0.078-0.093,0.156-0.178,0.174-0.189
		c0.018-0.01,0.033-0.03,0.033-0.043c0-0.029,0.061-0.093,0.087-0.092c0.01,0,0.018-0.009,0.018-0.022
		c0-0.012,0.021-0.038,0.047-0.058c0.026-0.02,0.042-0.033,0.035-0.03C23.138,15.43,22.16,15.435,20.971,15.438 M8.998,15.477
		c0.023,0.017,0.041,0.044,0.041,0.059s0.008,0.023,0.018,0.017c0.01-0.006,0.031,0.004,0.048,0.022
		c0.017,0.018,0.022,0.033,0.012,0.033s0.014,0.03,0.052,0.066c0.038,0.036,0.091,0.093,0.117,0.127
		c0.039,0.05,0.154,0.179,0.447,0.499c0.013,0.014,0.113,0.126,0.223,0.249c0.807,0.902,0.843,0.929,1.211,0.928
		c0.315-0.001,0.43-0.07,0.747-0.444c0.132-0.156,0.32-0.375,0.417-0.486c0.097-0.111,0.219-0.253,0.27-0.315
		c0.052-0.062,0.11-0.13,0.13-0.151c0.02-0.021,0.083-0.096,0.141-0.167c0.058-0.071,0.113-0.133,0.122-0.137
		c0.01-0.004,0.018-0.017,0.018-0.028c0-0.02,0.064-0.097,0.177-0.212c0.032-0.033,0.059-0.067,0.059-0.076
		c0-0.009-0.965-0.016-2.145-0.016C9.314,15.446,8.964,15.451,8.998,15.477 M15.027,15.532c-0.011,0.079,0.005,2.548,0.018,2.721
		c0.003,0.039,0.008,0.182,0.012,0.317c0.004,0.136,0.011,0.223,0.017,0.194c0.01-0.052,0.015-0.053,0.385-0.053h0.374v-1.634
		v-1.634h-0.397h-0.397L15.027,15.532 M16.257,17.078v1.634h0.388h0.388l0.004-0.188c0.002-0.103,0.006-0.217,0.009-0.253
		c0.013-0.169,0.031-2.761,0.019-2.792c-0.011-0.029-0.079-0.035-0.411-0.035h-0.397V17.078 M30.711,16.179
		c-0.002,0.042-0.006,0.103-0.009,0.135c-0.003,0.032-0.012,0.207-0.021,0.388c-0.032,0.652-0.123,1.428-0.239,2.037
		c-0.033,0.173-0.066,0.354-0.073,0.402l-0.014,0.088h0.529h0.529l0.016-0.106c0.009-0.058,0.017-0.114,0.018-0.123
		c0.001-0.01,0.011-0.055,0.022-0.1c0.121-0.516,0.23-1.528,0.245-2.286l0.011-0.511H31.22h-0.506L30.711,16.179 M0.375,16.626
		c0.009,0.503,0.032,0.826,0.097,1.346c0.037,0.3,0.125,0.858,0.138,0.88c0.004,0.007,0.015,0.061,0.023,0.119
		c0.009,0.058,0.023,0.146,0.032,0.195l0.016,0.089l0.534,0.005c0.523,0.005,0.534,0.004,0.524-0.042
		c-0.005-0.026-0.031-0.148-0.057-0.27c-0.11-0.519-0.216-1.346-0.26-2.022c-0.037-0.576-0.044-0.688-0.046-0.746l-0.002-0.053
		H0.871H0.366L0.375,16.626"/>
	<path id="path5" class="st5" d="M15.105,0.366c-0.045,0.005-0.23,0.02-0.411,0.034c-0.386,0.03-1.067,0.119-1.434,0.188
		c-0.142,0.027-0.29,0.054-0.329,0.061c-0.06,0.01-0.269,0.057-0.417,0.093c-0.069,0.017-0.143,0.033-0.224,0.048
		c-0.042,0.008-0.081,0.021-0.086,0.029s1.717,0.012,3.826,0.008c2.147-0.004,3.814-0.016,3.786-0.028
		c-0.027-0.011-0.08-0.026-0.118-0.032c-0.037-0.007-0.089-0.017-0.115-0.024c-0.165-0.04-0.363-0.084-0.423-0.094
		c-0.039-0.007-0.154-0.028-0.255-0.049c-0.267-0.053-0.933-0.147-1.355-0.191C17.209,0.373,15.339,0.34,15.105,0.366 M12.084,0.839
		c-0.026,0.006-0.057,0.021-0.069,0.032c-0.012,0.011,0.013,0.011,0.056-0.002C12.192,0.835,12.202,0.81,12.084,0.839 M19.927,0.833
		c0.008,0.008,0.049,0.024,0.092,0.037c0.043,0.012,0.068,0.013,0.056,0.002C20.05,0.849,19.904,0.811,19.927,0.833 M2.779,7.969
		C2.504,8.052,2.35,8.446,2.489,8.714c0.02,0.039,0.219,0.255,0.441,0.48C3.152,9.419,3.314,9.579,3.291,9.55L3.249,9.497
		l5.252-0.001c3.39,0,5.238-0.009,5.213-0.023C13.693,9.46,13.65,9.45,13.62,9.449c-0.052,0-0.147-0.011-0.278-0.033
		c-0.032-0.005-0.106-0.016-0.165-0.025c-0.058-0.008-0.132-0.02-0.165-0.024c-0.032-0.005-0.106-0.016-0.165-0.024
		c-0.058-0.008-0.132-0.019-0.165-0.023c-0.139-0.021-0.584-0.084-0.67-0.095c-0.052-0.007-0.232-0.033-0.4-0.058
		C10.26,8.964,3.029,7.946,2.948,7.947C2.891,7.948,2.815,7.958,2.779,7.969 M24.896,8.534c-2.237,0.322-4.12,0.592-4.185,0.599
		c-0.065,0.007-0.213,0.028-0.329,0.047c-0.116,0.019-0.254,0.039-0.306,0.046c-0.085,0.011-0.526,0.073-0.67,0.095
		c-0.032,0.005-0.106,0.015-0.165,0.023c-0.058,0.008-0.132,0.019-0.165,0.024c-0.032,0.005-0.106,0.016-0.165,0.024
		c-0.058,0.009-0.132,0.02-0.165,0.025c-0.132,0.021-0.226,0.032-0.278,0.033c-0.03,0-0.073,0.011-0.094,0.023
		c-0.025,0.015,1.822,0.023,5.213,0.023l5.252,0.001L28.799,9.55c-0.023,0.029,0.14-0.131,0.362-0.356
		c0.222-0.225,0.421-0.441,0.441-0.481c0.115-0.223,0.032-0.542-0.18-0.684C29.237,7.905,29.347,7.893,24.896,8.534 M29.668,9.207
		C29.5,9.395,29.337,9.581,29.305,9.62l-0.057,0.071l0.048,0.097c0.026,0.053,0.078,0.166,0.116,0.25
		c0.038,0.084,0.079,0.161,0.092,0.17c0.013,0.009,0.014,0.017,0.003,0.018c-0.011,0-0.006,0.018,0.012,0.039
		c0.018,0.021,0.03,0.042,0.026,0.047c-0.034,0.047,0.047,0.055,0.561,0.055h0.567l-0.016-0.064
		c-0.009-0.035-0.023-0.07-0.032-0.076c-0.009-0.007-0.019-0.03-0.022-0.052c-0.004-0.022-0.022-0.07-0.041-0.106
		s-0.034-0.074-0.035-0.083c0-0.009-0.037-0.096-0.082-0.193s-0.082-0.181-0.082-0.189c0-0.034-0.353-0.741-0.369-0.74
		C29.982,8.864,29.836,9.018,29.668,9.207 M1.892,9.246c-0.094,0.196-0.196,0.42-0.227,0.498c-0.031,0.078-0.07,0.168-0.088,0.2
		c-0.018,0.032-0.035,0.069-0.038,0.082c-0.003,0.013-0.017,0.055-0.031,0.094c-0.014,0.039-0.023,0.078-0.02,0.088
		c0.003,0.01-0.004,0.018-0.016,0.018c-0.011,0-0.026,0.019-0.033,0.041c-0.007,0.023-0.019,0.059-0.028,0.081
		c-0.015,0.037,0.025,0.041,0.549,0.047l0.566,0.007l0.023-0.059c0.013-0.032,0.026-0.075,0.03-0.094
		c0.004-0.019,0.012-0.041,0.019-0.047c0.014-0.014,0.203-0.421,0.215-0.464C2.821,9.71,2.142,8.925,2.09,8.901
		C2.074,8.894,1.995,9.032,1.892,9.246 M14.752,9.675c0,0.016,0.122,0.06,0.134,0.049c0.005-0.005-0.023-0.021-0.062-0.035
		C14.784,9.675,14.752,9.669,14.752,9.675 M3.632,9.902c0.058,0.061,0.108,0.112,0.112,0.112c0.018,0-0.001-0.021-0.105-0.118
		L3.527,9.791L3.632,9.902 M28.434,9.908c-0.057,0.058-0.099,0.106-0.092,0.106c0.006,0,0.058-0.048,0.116-0.106
		c0.057-0.058,0.099-0.106,0.092-0.106C28.543,9.802,28.491,9.85,28.434,9.908 M4.055,10.325c0.058,0.061,0.108,0.112,0.112,0.112
		c0.018,0-0.001-0.021-0.105-0.119L3.95,10.214L4.055,10.325 M28.011,10.331c-0.057,0.058-0.099,0.106-0.092,0.106
		c0.007,0,0.058-0.048,0.116-0.106c0.057-0.058,0.098-0.106,0.092-0.106C28.12,10.225,28.068,10.273,28.011,10.331 M6.359,12.653
		c0.174,0.178,0.32,0.323,0.323,0.323c0.017,0-0.017-0.035-0.317-0.329l-0.323-0.317L6.359,12.653 M25.707,12.664l-0.317,0.323
		l0.323-0.317c0.178-0.174,0.323-0.32,0.323-0.323C26.036,12.331,26.001,12.364,25.707,12.664"/>
	<path id="path6" class="st6" d="M27.611,7.058c0,0.01,0.01,0.018,0.023,0.018c0.013,0,0.039,0.031,0.058,0.068
		c0.019,0.038,0.049,0.083,0.066,0.1c0.017,0.017,0.082,0.104,0.145,0.193c0.111,0.157,0.116,0.161,0.199,0.148
		c0.047-0.007,0.302-0.042,0.567-0.076c0.265-0.035,0.485-0.066,0.49-0.07c0.004-0.003-0.048-0.092-0.116-0.196l-0.124-0.189
		l-0.654-0.007C27.905,7.043,27.611,7.048,27.611,7.058 M3.146,7.105C3.088,7.169,2.922,7.43,2.932,7.441
		C2.937,7.445,3.061,7.465,3.21,7.484c0.148,0.02,0.391,0.052,0.539,0.072c0.148,0.02,0.282,0.036,0.299,0.036
		c0.016,0,0.08-0.071,0.142-0.159C4.251,7.347,4.321,7.255,4.343,7.23c0.023-0.025,0.041-0.054,0.041-0.065
		c0-0.011,0.021-0.04,0.047-0.066l0.047-0.047H3.837C3.2,7.052,3.194,7.052,3.146,7.105 M15.657,29.878
		c0.005,0.045,0.015,0.156,0.023,0.247c0.008,0.091,0.019,0.217,0.025,0.282c0.006,0.065,0.033,0.366,0.059,0.67
		c0.027,0.304,0.052,0.563,0.057,0.576c0.005,0.013,0.009-0.386,0.01-0.887l0.002-0.911h-0.08c-0.044,0-0.086-0.013-0.093-0.029
		C15.654,29.809,15.652,29.833,15.657,29.878 M16.258,30.766c0.001,0.501,0.006,0.9,0.011,0.887
		c0.005-0.013,0.031-0.277,0.057-0.588c0.027-0.31,0.054-0.603,0.059-0.65c0.006-0.047,0.017-0.193,0.026-0.323l0.016-0.237h-0.085
		h-0.085L16.258,30.766 M11.367,29.949c0.023,0.015-0.41,0.021-1.264,0.017c-0.714-0.003-1.299-0.003-1.299,0
		c0,0.043,1.128,0.545,1.758,0.783c1.45,0.547,3.464,0.962,4.673,0.963l0.166,0l-0.01-0.076c-0.005-0.042-0.041-0.27-0.078-0.506
		c-0.037-0.236-0.068-0.434-0.068-0.439s-0.066-0.016-0.147-0.023c-0.687-0.065-0.949-0.094-1.275-0.144
		c-0.207-0.031-0.403-0.062-0.435-0.069c-0.032-0.007-0.122-0.023-0.2-0.037c-0.078-0.014-0.178-0.035-0.223-0.046
		c-0.045-0.012-0.199-0.048-0.341-0.081c-0.4-0.093-0.482-0.115-0.788-0.212c-0.187-0.059-0.325-0.099-0.393-0.114
		c-0.016-0.003-0.036-0.014-0.045-0.023c-0.009-0.009-0.028-0.016-0.042-0.016C11.343,29.926,11.347,29.936,11.367,29.949
		 M20.69,29.946c-0.007,0.011-0.053,0.028-0.101,0.037c-0.075,0.014-0.31,0.082-0.523,0.153c-0.111,0.037-0.318,0.09-0.588,0.152
		c-0.149,0.034-0.307,0.071-0.353,0.083c-0.045,0.012-0.146,0.033-0.223,0.047c-0.078,0.014-0.168,0.03-0.2,0.037
		c-0.032,0.006-0.228,0.038-0.435,0.069c-0.326,0.05-0.567,0.077-1.275,0.144c-0.081,0.008-0.147,0.021-0.147,0.03
		c0,0.016-0.129,0.824-0.152,0.95l-0.012,0.065l0.17,0c1.449-0.001,3.884-0.567,5.416-1.259c0.041-0.018,0.081-0.033,0.09-0.033
		s0.213-0.098,0.455-0.217l0.439-0.217l-1.281-0.012c-0.705-0.006-1.265-0.019-1.246-0.028c0.02-0.009,0.023-0.017,0.007-0.018
		C20.715,29.926,20.697,29.935,20.69,29.946"/>
	<path id="path7" class="st7" d="M16.01,0.822c-2.882,0.009-3.875,0.019-3.932,0.04c-0.042,0.015-0.083,0.028-0.09,0.027
		c-0.007,0-0.019,0.006-0.027,0.013c-0.008,0.008,1.83,0.014,4.085,0.014s4.09-0.008,4.081-0.018
		c-0.01-0.01-0.025-0.018-0.033-0.019c-0.057-0.004-0.206-0.041-0.215-0.054C19.87,0.817,18.13,0.816,16.01,0.822 M8.502,9.491
		L3.25,9.497l0.137,0.141l0.137,0.141h5.723c3.148,0,5.717-0.006,5.71-0.014c-0.007-0.007-0.028-0.016-0.045-0.02
		c-0.017-0.004-0.061-0.019-0.098-0.034c-0.036-0.015-0.076-0.027-0.088-0.027c-0.012,0-0.022-0.009-0.022-0.02
		c0-0.011-0.013-0.021-0.029-0.022c-0.035-0.003-0.123-0.024-0.123-0.029c0-0.005-0.083-0.023-0.176-0.037
		c-0.045-0.007-0.109-0.017-0.141-0.023c-0.057-0.009-0.101-0.015-0.338-0.044c-0.063-0.008-0.121-0.017-0.129-0.02
		C13.76,9.487,11.39,9.488,8.502,9.491 M18.316,9.49c-0.003,0.003-0.058,0.012-0.121,0.02c-0.238,0.029-0.282,0.035-0.34,0.045
		c-0.032,0.005-0.096,0.015-0.141,0.023c-0.094,0.015-0.176,0.032-0.176,0.037c0,0.002-0.016,0.007-0.035,0.011
		c-0.087,0.019-0.107,0.025-0.119,0.041c-0.007,0.009-0.034,0.02-0.059,0.024c-0.025,0.004-0.072,0.025-0.104,0.048
		c-0.055,0.038,0.238,0.041,5.643,0.041h5.701l0.139-0.141l0.139-0.141l-5.261-0.006C20.689,9.488,18.319,9.487,18.316,9.49
		 M29.6,10.425c0.021,0.032,0.032,0.059,0.024,0.059c-0.008,0,0.001,0.025,0.021,0.055c0.02,0.03,0.029,0.062,0.02,0.071
		c-0.009,0.009,0.234,0.016,0.539,0.016h0.554l-0.045-0.123c-0.025-0.068-0.045-0.126-0.045-0.129c0-0.003-0.249-0.006-0.553-0.006
		h-0.553L29.6,10.425 M1.405,10.406c-0.016,0.007-0.024,0.02-0.018,0.031c0.017,0.027-0.035,0.165-0.062,0.165
		c-0.012,0-0.016,0.011-0.008,0.023c0.014,0.023,1.093,0.036,1.093,0.013c0-0.006,0.021-0.064,0.047-0.129l0.047-0.118l-0.535,0.002
		C1.675,10.393,1.421,10.399,1.405,10.406"/>
	<path id="path8" class="st8" d="M3.42,9.691c0.097,0.104,0.119,0.122,0.119,0.105c0-0.004-0.05-0.054-0.112-0.112L3.315,9.579
		L3.42,9.691 M28.645,9.696c-0.057,0.058-0.099,0.106-0.092,0.106c0.007,0,0.058-0.048,0.116-0.106
		c0.057-0.058,0.099-0.106,0.092-0.106C28.755,9.591,28.703,9.638,28.645,9.696 M3.843,10.114c0.058,0.061,0.108,0.112,0.112,0.112
		c0.018,0-0.001-0.021-0.105-0.119l-0.112-0.105L3.843,10.114 M28.222,10.12c-0.057,0.058-0.098,0.106-0.092,0.106
		c0.006,0,0.058-0.048,0.116-0.106c0.057-0.058,0.099-0.106,0.092-0.106C28.331,10.014,28.279,10.062,28.222,10.12 M4.373,10.649
		c0.116,0.116,0.216,0.212,0.222,0.212c0.006,0-0.083-0.095-0.199-0.212c-0.116-0.116-0.216-0.212-0.222-0.212
		C4.168,10.437,4.257,10.532,4.373,10.649 M27.693,10.654l-0.211,0.217l0.217-0.211c0.202-0.196,0.228-0.224,0.211-0.224
		C27.907,10.437,27.809,10.535,27.693,10.654 M5.313,11.589c0.051,0.052,0.097,0.094,0.104,0.094c0.006,0-0.03-0.042-0.08-0.094
		c-0.05-0.052-0.097-0.094-0.104-0.094C5.227,11.495,5.263,11.537,5.313,11.589 M26.752,11.595l-0.093,0.1l0.1-0.093
		c0.055-0.051,0.1-0.096,0.1-0.1C26.859,11.484,26.838,11.502,26.752,11.595 M14.9,12.012c0,0.058,0.005,0.082,0.01,0.053
		c0.006-0.029,0.006-0.077,0-0.106C14.904,11.93,14.9,11.954,14.9,12.012 M17.18,12.012c0,0.058,0.005,0.082,0.01,0.053
		c0.006-0.029,0.006-0.077,0-0.106C17.184,11.93,17.18,11.954,17.18,12.012 M6.171,12.441c0.058,0.061,0.108,0.112,0.112,0.112
		c0.018,0-0.001-0.021-0.105-0.119l-0.112-0.105L6.171,12.441 M25.906,12.441l-0.093,0.1l0.1-0.093c0.055-0.051,0.1-0.096,0.1-0.1
		C26.012,12.33,25.992,12.348,25.906,12.441 M6.782,13.076C6.879,13.18,6.9,13.198,6.9,13.181c0-0.004-0.05-0.054-0.112-0.112
		l-0.112-0.105L6.782,13.076 M25.284,13.082c-0.057,0.058-0.099,0.106-0.092,0.106c0.006,0,0.058-0.048,0.116-0.106
		c0.057-0.058,0.099-0.106,0.092-0.106C25.393,12.976,25.341,13.024,25.284,13.082"/>
</g>
</svg>
