<?xml version="1.0" encoding="utf-8"?>
<!-- Generator: Adobe Illustrator 26.2.1, SVG Export Plug-In . SVG Version: 6.00 Build 0)  -->
<svg version="1.1" id="Layer_1" xmlns="http://www.w3.org/2000/svg" xmlns:xlink="http://www.w3.org/1999/xlink" x="0px" y="0px"
	 viewBox="0 0 32 32" style="enable-background:new 0 0 32 32;" xml:space="preserve">
<style type="text/css">
	.st0{fill-rule:evenodd;clip-rule:evenodd;fill:#010101;}
	.st1{fill-rule:evenodd;clip-rule:evenodd;fill:#EA7419;}
	.st2{fill:#EA7419;}
</style>
<g>
	<circle class="st0" cx="16" cy="16" r="16"/>
	<path class="st1" d="M16,0C7.163,0,0,7.163,0,16s7.163,16,16,16s16-7.163,16-16S24.837,0,16,0z M16,31.361
		C7.516,31.361,0.639,24.484,0.639,16S7.516,0.639,16,0.639S31.361,7.516,31.361,16S24.484,31.361,16,31.361z"/>
	<g>
		<path class="st2" d="M19.78,28.809c-0.278,0.135-0.448-0.099-0.624-0.217c-0.785-0.524-1.363-1.248-1.881-2.028
			c-0.429-0.645-0.761-1.344-1.162-2.107c-0.173,0.875,0.213,1.514,0.592,2.23c-0.731-0.314-1.091-0.898-1.522-1.404
			c-0.071-0.125-0.143-0.25-0.214-0.375c-0.366-0.84-0.612-1.719-0.802-2.74c-0.335,0.76-0.171,1.391-0.067,2.022
			c0.014,0.087,0.16,0.225-0.069,0.25c0,0,0.012,0.024,0.012,0.024c-0.068-0.261-0.202-0.489-0.35-0.71
			c0.012-0.022,0.007-0.037-0.016-0.046c-0.12-0.341-0.24-0.682-0.36-1.024c0,0,0.001-0.013,0.001-0.013
			c-0.175-0.919-0.199-1.839-0.035-2.762c0.005-0.046,0.011-0.093,0.016-0.139c0.146-0.158,0.195-0.352,0.205-0.56
			c0,0,0.007-0.034,0.007-0.034c0.673-1.619,2.116-2.555,3.282-3.802c0.4,2.151,0.928,3.046,1.822,3.106
			c-0.258-0.64-0.698-1.225-0.617-1.986c0.194,0.051,0.235,0.167,0.31,0.254c0.423,0.49,0.834,0.997,1.462,1.245
			c0.152,0.06,0.33,0.146,0.467,0.002c0.131-0.139,0.042-0.313-0.002-0.472c-0.037-0.131-0.19-0.239-0.089-0.403
			c1.864,0.792,2.273,1.077,2.412,1.683c-0.437-0.124-0.794-0.551-1.341-0.377c0.908,1.177,1.127,2.023,0.781,2.995
			c-0.1-0.158-0.195-0.308-0.291-0.459c-0.085-0.253-0.183-0.499-0.404-0.67c-0.398-0.602-0.847-0.78-1.347-0.512
			c-0.526,0.282-0.866,0.694-0.852,1.328c-0.003,0.1-0.006,0.2-0.009,0.3c-0.021,0.245-0.053,0.49,0.077,0.719
			c0.155,0.931,0.622,1.773,0.759,2.713c0.1,0.681,0.103,1.348-0.058,2.016c-0.218-0.26-0.244-0.612-0.421-0.888
			c-0.135-0.21-0.221-0.597-0.518-0.498c-0.239,0.08-0.229,0.458-0.204,0.717c0.084,0.859,0.415,1.625,0.95,2.302
			c0,0,0.017,0.022,0.017,0.022C19.699,28.617,19.827,28.688,19.78,28.809z"/>
		<path class="st2" d="M15.86,9.041c-0.876,0.284-1.139,0.654-0.999,1.481c-0.544-0.274-1.093-0.364-1.529-0.873
			c-0.871-1.017-1.847-1.951-3.015-2.647c-0.085-0.051-0.168-0.105-0.255-0.15c-0.645-0.328-0.853-0.285-1.331,0.27
			C8.72,6.854,8.708,6.584,8.697,6.315c0.076-0.052,0.114-0.12,0.088-0.214L8.768,6.114c0.225-0.008,0.443-0.161,0.667-0.066
			c0.288,0.123,0.516,0.014,0.744-0.138c0.551,0.198,1.119,0.325,1.698,0.409c0.046,0.055,0.101,0.058,0.163,0.033
			c0.469,0.209,0.969,0.292,1.47,0.374c0.311,0.173,0.664,0.248,0.999,0.241c1.312-0.028,2.555,0.255,3.761,0.743
			c0,0,0.009,0.004,0.009,0.004c0.172,0.116,0.344,0.232,0.516,0.348c-0.638-0.187-1.278-0.326-1.916-0.461
			c-0.808-0.171-1.603-0.629-2.429-0.448c-0.917,0.201-1.692-0.068-2.497-0.383c-0.623-0.244-1.26-0.454-1.891-0.68
			c0.01,0.124,0.052,0.175,0.106,0.203c1.128,0.584,2.105,1.382,3.076,2.186c0.725,0.601,1.577,0.704,2.385,0.196
			c0.728-0.458,1.496-0.561,2.225-0.159c0.671,0.37,1.351,0.411,2.069,0.4c0.097-0.001,0.221-0.058,0.302,0.077
			c-0.279,0.194-0.695,0.321-0.636,0.705c0.066,0.434,0.516,0.448,0.866,0.534c0.01,0.003,0.012,0.04,0.026,0.092
			c-0.279-0.034-0.541-0.065-0.803-0.097c-0.061-0.028-0.121-0.055-0.182-0.083c-0.067-0.018-0.134-0.036-0.201-0.054
			c0,0-0.004,0-0.004,0c-0.262-0.138-0.525-0.277-0.787-0.415l0.003,0.003c-0.317-0.23-0.619-0.486-1.008-0.596l-0.021,0.014
			L17.5,9.085c-0.434-0.314-0.906-0.212-1.376-0.127C16.036,8.985,15.948,9.013,15.86,9.041z"/>
		<path class="st2" d="M11.781,17.309c-0.175,0.431,0.096,0.794,0.181,1.185c-0.032,0.028-0.064,0.056-0.097,0.084
			c-0.322,0.101-0.439,0.43-0.724,0.692c-0.358-1.433,0.384-2.519,0.941-3.659c-0.643-0.019-1.147,0.13-1.621,0.466
			c0,0-0.01,0.006-0.01,0.006c-0.212,0.038-0.357,0.18-0.498,0.327l0.034,0.02c0,0,0.019-0.035,0.019-0.033
			c-0.206-0.436,0.218-0.716,0.271-1.089l0.023-0.013c0,0-0.004-0.026-0.004-0.026c0.354-0.421,0.708-0.842,1.062-1.263
			c0,0,0.026-0.01,0.026-0.01c0.077-0.026,0.181-0.096,0.226-0.069c0.136,0.083,0.001,0.159-0.042,0.23
			c-0.154,0.252-0.314,0.501-0.472,0.752c-0.03,0.016-0.042,0.041-0.036,0.074c-0.14,0.134-0.276,0.323-0.159,0.478
			c0.121,0.16,0.338,0.031,0.51-0.023c0.238-0.075,0.474-0.158,0.715-0.222c0.334-0.088,0.447,0.061,0.33,0.367
			c-0.184,0.479-0.39,0.949-0.587,1.424C11.792,17.094,11.753,17.191,11.781,17.309z"/>
		<path class="st2" d="M10.102,10.675c-0.37-0.334-0.852-0.431-1.296-0.608C8.392,9.902,8.041,9.355,8.08,8.925
			c0.015-0.163,0.098-0.311,0.233-0.36c0.18-0.065,0.227,0.153,0.241,0.244c0.114,0.724,0.65,0.912,1.248,1.119
			c0.796,0.276,1.469,0.769,1.949,1.486c0.228,0.341,0.361,0.707,0.304,1.255c-0.385-0.921-0.964-1.523-1.754-1.918
			C10.235,10.725,10.169,10.7,10.102,10.675z"/>
		<path class="st2" d="M9.477,5.308c0.054,0.036,0.108,0.071,0.161,0.107C9.699,5.549,9.74,5.659,9.514,5.671
			c-0.32,0.016-0.553,0.202-0.746,0.443c0,0,0.016-0.013,0.016-0.013c-0.03-0.004-0.06-0.005-0.091-0.002
			C8.691,6.036,8.689,5.972,8.686,5.909c0.049-0.128,0.097-0.256,0.146-0.384c0.027-0.052,0.055-0.104,0.082-0.156
			C9.093,5.273,9.283,5.264,9.477,5.308z"/>
		<path class="st2" d="M19.311,11.275c0.127-0.302,0.395-0.149,0.595-0.165c0.79-0.065,1.552-0.176,2.065-0.88
			c0.067-0.092,0.128-0.193,0.166-0.3c0.043-0.12-0.212-0.306,0.031-0.372c0.442-0.121,0.746-0.536,1.229-0.549
			c0.006,0,0.012,0.029,0.018,0.044c0,0-0.002,0.014-0.002,0.013c-0.497,0.384-0.865,0.869-1.127,1.438c0,0-0.01,0.014-0.01,0.014
			c-0.161,0.125-0.199,0.297-0.187,0.488c-0.008,0.056-0.016,0.111-0.023,0.167c-0.134,0.26-0.122,0.52,0.002,0.78
			c0.007,0.052,0.015,0.104,0.022,0.156c-0.004,0.48,0.412,0.769,0.571,1.221c-0.494-0.044-0.988-0.397-1.452,0.134
			c0.477,0.218,0.866,0.541,1.27,0.842c0,0,0.004,0.003,0.004,0.003c0.323,0.408,0.646,0.817,0.969,1.226
			c0.063,0.16,0.126,0.319,0.221,0.555c-0.244-0.159-0.416-0.27-0.587-0.382l-0.005-0.004c-0.082-0.165-0.239-0.233-0.396-0.3l0,0
			c-0.287-0.256-0.569-0.524-1.041-0.427c0.692,0.531,1.212,1.192,1.629,1.937c0,0,0.001,0.002,0.001,0.002
			c0.228,0.67,0.469,1.338,0.5,2.053c0.004,0.091,0.198,0.334-0.128,0.319c-0.026-0.059-0.051-0.119-0.077-0.178
			c-0.026-0.244-0.12-0.461-0.258-0.661c-0.017-0.047-0.034-0.094-0.051-0.141c-0.265-0.707-0.649-1.342-1.158-1.9
			c-0.432-0.473-0.945-0.783-1.605-0.786c-0.158-0.001-0.271-0.005-0.32-0.212c-0.335-1.413-0.341-1.411-1.362-2.261
			c0.301-0.016,0.555-0.016,0.805-0.046c0.378-0.046,0.262-0.394,0.347-0.635c0.431,0.086,0.782,0.512,1.268,0.281
			c0.028,0.007,0.045-0.004,0.052-0.031c0.43-0.18,0.188-0.392-0.007-0.527c-0.58-0.4-1.2-0.73-1.895-0.892
			C19.363,11.27,19.34,11.263,19.311,11.275z"/>
		<path class="st2" d="M23.03,7.837c-0.988,0.066-1.893,0.448-2.82,0.746c-0.22,0.071-0.436,0.163-0.675,0.145
			c-0.242-0.018-0.415-0.14-0.46-0.378c-0.048-0.254,0.156-0.35,0.345-0.411c0.282-0.092,0.573-0.156,0.86-0.232
			c0.068-0.006,0.135-0.011,0.203-0.017c0.686-0.034,1.38,0.02,2.053-0.171c0.425,0.178,0.899-0.015,1.322,0.171
			c0.013-0.007,0.028-0.013,0.041-0.023c0.058-0.044-0.005-0.1-0.015-0.095C23.615,7.712,23.284,7.651,23.03,7.837z"/>
		<path class="st2" d="M14.067,15.507c0.1-0.422,0.426-0.66,0.737-0.912c0.284-0.23,0.582-0.445,0.841-0.7
			c0.242-0.238,0.328-0.533,0.092-0.881c-0.43,0.386-0.946,0.562-1.47,0.726c-0.572,0.179-0.795,0.668-0.989,1.203
			c-0.234-0.71-0.003-1.226,1.182-2.671c-0.356,0.008-0.652,0.19-0.98,0.161c-0.318-0.028-0.627-0.065-0.953-0.37
			c0.422,0.043,0.549-0.117,0.437-0.44c-0.083-0.24-0.28-0.401-0.497-0.656c0.501,0.107,0.815,0.41,1.199,0.563
			c0.545,0.216,1.097,0.246,1.667,0.213c0.153-0.009,0.364-0.07,0.354,0.205c-0.01,0.291,0.114,0.474,0.396,0.553
			c0.304,0.086,0.512-0.054,0.693-0.275c0.061-0.075,0.131-0.142,0.228-0.246c0.318,0.593,0.18,1.155,0.062,1.716l-0.001,0.001
			c-0.301,0.62-0.859,0.869-1.482,1.026c-0.552,0.139-1.048,0.378-1.437,0.808C14.126,15.499,14.099,15.491,14.067,15.507z"/>
		<path class="st2" d="M8.496,7.918c0.256-0.233,0.497-0.239,0.763,0.005c0.24,0.221,0.51,0.41,0.727,0.706
			c-0.47-0.162-0.941-0.322-1.409-0.489C8.481,8.105,8.504,8.002,8.493,7.924C8.493,7.924,8.496,7.918,8.496,7.918z"/>
		<path class="st2" d="M13.368,17.886c-0.353,0.12-0.707,0.241-1.082,0.368C12.611,17.893,12.801,17.817,13.368,17.886z"/>
		<path class="st2" d="M14.284,7.535c0.399-0.001,0.763,0.08,1.05,0.381c0.079,0.083,0.201,0.16,0.166,0.285
			c-0.041,0.145-0.193,0.099-0.301,0.108c-0.568,0.045-1.081-0.132-1.573-0.397c-0.078-0.042-0.158-0.086-0.157-0.173
			C13.47,7.6,13.598,7.612,13.69,7.6C13.887,7.573,14.086,7.556,14.284,7.535z M15.206,8.064c-0.432-0.375-0.814-0.395-1.362-0.247
			C14.333,8.023,14.695,8.163,15.206,8.064z"/>
	</g>
</g>
</svg>
