<svg id="Layer_1" data-name="Layer 1" xmlns="http://www.w3.org/2000/svg" viewBox="0 0 32 32"><defs><style>.cls-1{fill:#5109ae;}.cls-2{fill:#fbe6cf;}.cls-3{fill:#231f20;}.cls-4{fill:#f9fafa;}.cls-5{fill:#f5a328;}.cls-6{fill:#f6941d;}.cls-7{fill:#939598;}.cls-8{fill:#57585a;}.cls-9{fill:#ac5a00;}.cls-10{fill:#303030;}.cls-11{fill:#58595b;}.cls-12{fill:#fb9c1e;}.cls-13{fill:#01081f;}.cls-14{fill:#030303;}.cls-15{fill:#141615;}.cls-16{fill:#060505;}.cls-17{fill:#060606;}.cls-18{fill:#bababa;}.cls-19{fill:#b9b9b9;}.cls-20{fill:#b8b9b9;}.cls-21{fill:#b5b6b6;}.cls-22{fill:#6a6a6a;}.cls-23{fill:#171717;}.cls-24{fill:#ee2e7b;}.cls-25{fill:#af275d;}.cls-26{fill:#ae275d;}.cls-27{fill:#f0f0f0;}.cls-28{fill:#f5f5f5;}.cls-29{fill:#f4f4f4;}</style></defs><circle class="cls-1" cx="16" cy="16" r="16"/><path class="cls-2" d="M29.135,9.93a13.054,13.054,0,0,1,1.2,4.055c.055.638.093,1.277.139,1.916a13.568,13.568,0,0,1-.917,5.126c-.214.5-.434,1.006-.651,1.51a15.117,15.117,0,0,1-2.781,3.706,14.062,14.062,0,0,1-8.638,4.006A13.977,13.977,0,0,1,7.77,27.62a13.982,13.982,0,0,1-4.739-5.827c-.049-.111-.11-.217-.166-.325a14.405,14.405,0,0,1-.924-7.531c.01-.08.009-.162.014-.243-.188-.3-.043-.592.031-.868A15.8,15.8,0,0,1,4.835,6.993a.973.973,0,0,1,.392-.347A19.324,19.324,0,0,1,7.859,4.27a14.357,14.357,0,0,1,16.532-.009c.056.037.118.065.177.1a3.927,3.927,0,0,1,1.232.912,13.4,13.4,0,0,1,3.206,4.24A.69.69,0,0,1,29.135,9.93Z"/><path class="cls-3" d="M8.936,15.855a6.838,6.838,0,0,1-2.5-1.987,5.551,5.551,0,0,1,.6-7.477c.094-.078.193-.151.292-.224a.635.635,0,0,1,.8-.042.671.671,0,0,1,.279.788,4.374,4.374,0,0,0-.146,1.859A2.53,2.53,0,0,0,8.694,9.9a5.428,5.428,0,0,0,2.529,1.929.652.652,0,0,0,.731-.119,4.64,4.64,0,0,1,2.48-1.062c.231-.027.257-.125.285-.294.1-.558.218-.667.777-.778a3.153,3.153,0,0,1,1.178.011.725.725,0,0,1,.7.716c.013.236.1.318.362.354a4.938,4.938,0,0,1,2.473,1.088c.11.089.189.2.383.166.95-.16,2.954-1.544,3.214-2.931A4.386,4.386,0,0,0,23.717,7a.715.715,0,0,1,.247-.869.687.687,0,0,1,.9.1,4.91,4.91,0,0,1,1.92,3.761,5.731,5.731,0,0,1-3.009,5.531.6.6,0,0,0-.258.708,2.175,2.175,0,0,1-.024,1.276c-.046.122.025.206.068.3a19.81,19.81,0,0,1,.692,1.872,4.193,4.193,0,0,1-1.463,4.823,7.73,7.73,0,0,1-4.209,1.736,14.6,14.6,0,0,1-6.511-.435A6.441,6.441,0,0,1,8.776,23.5a3.914,3.914,0,0,1-.629-3.451,14.8,14.8,0,0,1,.69-2c.035-.083.135-.155.034-.29A1.279,1.279,0,0,1,8.936,15.855Z"/><path class="cls-4" d="M24,20.484a3.212,3.212,0,0,1-.464,2.538,5.628,5.628,0,0,1-3.183,2.368,13.5,13.5,0,0,1-8.252-.011,5.73,5.73,0,0,1-2.987-2.116,3.381,3.381,0,0,1-.633-2.78,1.037,1.037,0,0,1,.932-.162,4.489,4.489,0,0,1,2.171.982c.156.279-.017.559,0,.842a10.953,10.953,0,0,0,.233,1.217,8.2,8.2,0,0,1-.214-1.175,1.285,1.285,0,0,1,.139-.707,3.045,3.045,0,0,0,1.449-.838,4.751,4.751,0,0,1,6.155.085,2.361,2.361,0,0,0,1.343.714,1.39,1.39,0,0,1,.152,1.124,4.527,4.527,0,0,1-.172.7c-.068.174-.045.383-.178.533.126-.125.1-.317.175-.464a7.108,7.108,0,0,0,.229-2.017A3.7,3.7,0,0,1,23.56,20.3.684.684,0,0,1,24,20.484Z"/><path class="cls-5" d="M11.545,21.332a9.567,9.567,0,0,0-1.608-.793,2.8,2.8,0,0,0-1.452-.056,11.828,11.828,0,0,1,.771-2.358c.061-.146.131-.229.3-.145A.492.492,0,0,0,10,17.974a11.155,11.155,0,0,1,4.131-.835l.446-.04a5.8,5.8,0,0,1,1.864-.038c1.026.091,2.06.07,3.083.222a7.673,7.673,0,0,1,2.507.663.805.805,0,0,0,.742-.05c.219-.1.363-.067.464.193a12.139,12.139,0,0,1,.77,2.4,3.382,3.382,0,0,0-2.6.569c-.151.091-.306.175-.46.263-.042,0-.09-.012-.105-.048a5.152,5.152,0,0,0-.9-1.492c-.179-.2,0-.327.2-.356a1.178,1.178,0,0,1,1.086.327,1.5,1.5,0,0,0-1.01-.473c-.321-.022-.346-.25-.351-.494a1.075,1.075,0,0,0-.31-.73.553.553,0,0,0-.9.074,1.3,1.3,0,0,0,.157,1.6.832.832,0,0,0,.691.141A2.171,2.171,0,0,1,20.678,21.2a.252.252,0,0,1-.026.269.853.853,0,0,1-.83-.22c-.291-.224-.563-.473-.858-.692a4.642,4.642,0,0,0-5.524.032c-.292.223-.566.469-.857.694a.824.824,0,0,1-.759.2c-.026-.014-.052-.034-.05-.057a2.148,2.148,0,0,1,1.3-1.57c.514.042.791-.187.945-.782a1.067,1.067,0,0,0-.491-1.186.5.5,0,0,0-.556.141.961.961,0,0,0-.342.752.463.463,0,0,1-.413.513,1.636,1.636,0,0,0-.964.633,1.19,1.19,0,0,1,1.131-.511c.219.02.377.157.2.343a5.181,5.181,0,0,0-.97,1.535C11.6,21.314,11.571,21.323,11.545,21.332Z"/><path class="cls-6" d="M6.653,7.884A4.094,4.094,0,0,1,7.731,6.691c-.059.356-.116.638-.151.922a3.762,3.762,0,0,0,1.084,3.318,5.807,5.807,0,0,0,2.6,1.616c.135.035.226.085.218.24.016.352-.225.237-.383.187a7,7,0,0,1-1.484-.691c.011.523-.038,1.028-.6,1.21-.481.156-.823-.166-1.142-.4a2.472,2.472,0,0,1,.368.414c.032.057.076.123.013.185a.152.152,0,0,1-.19.006,2.2,2.2,0,0,1-.724-.649,5.316,5.316,0,0,1-.769-4.336,1.922,1.922,0,0,0,.074-.483C6.618,8.115,6.669,8,6.653,7.884Z"/><path class="cls-6" d="M20.617,12.786c-.011-.185.12-.209.259-.248a5.8,5.8,0,0,0,2.882-1.975,3.886,3.886,0,0,0,.694-3.4c-.022-.12-.055-.238-.082-.357,0-.011.008-.026.03-.089a3.912,3.912,0,0,1,1.047,1.162c-.062.118.035.232.01.349a7.731,7.731,0,0,1,.188,2.428,4.108,4.108,0,0,1-1.327,2.847c-.121.11-.316.322-.444.176-.158-.178.12-.308.219-.453.054-.078.147-.121.186-.188-.025.023.031-.029.013-.014-.478.4-.954.785-1.57.23a.744.744,0,0,1-.23-.589,1.383,1.383,0,0,0-.013-.377,7.619,7.619,0,0,1-1.48.683C20.841,13.025,20.6,13.138,20.617,12.786Z"/><path class="cls-7" d="M9.822,17.289c-.244,0-.535,0-.626-.248-.124-.336.062-.575.371-.759a10.4,10.4,0,0,1,4.016-1.313,15.953,15.953,0,0,1,7.471.616,8.853,8.853,0,0,1,1.478.7c.312.18.5.423.372.76-.092.249-.383.246-.626.248-.02-.205.3-.194.254-.457a.588.588,0,0,0-.827-.468c-.192.1-.272.079-.278-.152-.008-.275-.17-.268-.315-.116a.829.829,0,0,1-.869.176,20.545,20.545,0,0,0-3.16-.357,21.239,21.239,0,0,0-5.316.375.793.793,0,0,1-.788-.2c-.15-.151-.3-.153-.3.123,0,.229-.088.254-.278.152a.548.548,0,0,0-.727.2c-.144.232-.172.46.126.613C9.831,17.2,9.834,17.247,9.822,17.289Z"/><path class="cls-8" d="M9.822,17.289c-.1-.147-.434-.074-.4-.244.06-.268-.03-.634.394-.766.283-.089.536-.379.734.176.075-.22-.053-.333-.034-.451.022-.134.169-.114.261-.158.123-.059.211.005.26.12.124.291.357.3.615.24a18.282,18.282,0,0,1,4.488-.443,17.973,17.973,0,0,1,4.284.437c.2.049.417.1.557-.117.108-.165.172-.324.436-.206.3.133.039.323.1.513.175-.142.287-.473.583-.2.18.165.524.175.546.482.031.432.009.434-.368.617a12.805,12.805,0,0,0-4.294-.823,23.966,23.966,0,0,0-2.771-.059,18.454,18.454,0,0,0-4.47.557C10.431,17.058,10.128,17.18,9.822,17.289Z"/><path class="cls-9" d="M6.718,8.207c.123.177-.017.333-.048.494a5.229,5.229,0,0,0,.773,4.318,2.081,2.081,0,0,0,.761.629,6.2,6.2,0,0,1-.7-.958c.285.212.486.374.7.517a.772.772,0,0,0,1.305-.725c-.012-.13-.017-.261-.027-.431a5.928,5.928,0,0,0,1.659.829c.13.045.291.161.345-.093a1.931,1.931,0,0,1-1.631,2.272c-.168.046-.343.065-.515.1a5.078,5.078,0,0,1-3.213-4.8A5.312,5.312,0,0,1,6.5,8.485C6.545,8.371,6.583,8.251,6.718,8.207Z"/><path class="cls-9" d="M20.617,12.786c.055.255.216.139.346.094a5.925,5.925,0,0,0,1.657-.827c-.011.507-.193,1.068.4,1.309.663.269,1.028-.317,1.539-.647a3.6,3.6,0,0,1-.672.924,2.443,2.443,0,0,0,1.136-1.2,5.517,5.517,0,0,0,.4-3.738c-.03-.162-.17-.317-.047-.494.135.043.174.163.217.277a4.986,4.986,0,0,1-1.462,5.8,4.972,4.972,0,0,1-1.373.868,3.52,3.52,0,0,1-1.049-.286A1.853,1.853,0,0,1,20.617,12.786Z"/><path class="cls-7" d="M15.22,14.006c-.21.026-.17-.124-.159-.239.1-1.082.214-2.164.315-3.247.016-.18.081-.274.269-.28.108,0,.215-.036.323-.042.641-.035.744.051.8.686.089.933.179,1.867.256,2.8.009.113.134.325-.15.32a3.58,3.58,0,0,1-.22-1.517.727.727,0,0,1-1.2-.019A4.1,4.1,0,0,1,15.22,14.006Z"/><path class="cls-10" d="M14.415,11.567c.021.773-.135,1.533-.165,2.3-.006.147-.058.22-.214.233a13.169,13.169,0,0,0-1.754.288c-.111.024-.258.058-.2-.119a3.465,3.465,0,0,0,.129-1.876c-.006-.027.042-.064.066-.1.261.115.374-.15.562-.222.11-.041.231-.177.33-.081.128.125-.02.243-.093.349a.976.976,0,0,0-.151.241.475.475,0,0,0,.145.586c.194.138.365.017.513-.108a1.282,1.282,0,0,0,.4-1.066C13.989,11.732,14.025,11.464,14.415,11.567Z"/><path class="cls-10" d="M19.818,12.3a.194.194,0,0,1,.07.218,2.656,2.656,0,0,0,.093,1.634c.079.2.086.295-.2.233-.566-.122-1.142-.2-1.715-.281-.153-.022-.209-.085-.215-.232-.03-.77-.185-1.53-.165-2.3.268-.114.37.04.416.267a3.681,3.681,0,0,1,.023.446,1.084,1.084,0,0,0,.357.754c.164.147.357.3.574.111a.488.488,0,0,0,.08-.634,1.518,1.518,0,0,0-.091-.135c-.074-.119-.26-.248-.116-.379.123-.112.263.067.4.121C19.486,12.185,19.589,12.418,19.818,12.3Z"/><path class="cls-11" d="M15.22,14.006a14.628,14.628,0,0,0,.107-1.794c.285.191.386.513.723.507s.441-.283.685-.5l.144,1.791Z"/><path class="cls-11" d="M19.818,12.3c.022.205-.052.248-.222.132l-.651-.44c.008.207.153.263.227.366a.667.667,0,0,1-.057.92c-.335.239-.569-.018-.771-.22a1.232,1.232,0,0,1-.329-1.05c.029-.256-.04-.429-.33-.439-.1-.205-.064-.267.176-.211A4.794,4.794,0,0,1,19.818,12.3Z"/><path class="cls-11" d="M14.415,11.567c-.29.012-.356.183-.331.44a1.248,1.248,0,0,1-.446,1.161c-.188.151-.41.325-.652.107a.637.637,0,0,1-.125-.816c.074-.155.264-.228.3-.475l-.662.447q-.255.174-.222-.133a4.8,4.8,0,0,1,1.957-.941C14.475,11.3,14.52,11.359,14.415,11.567Z"/><path class="cls-12" d="M22.764,15.156c.359-.259.716-.521,1.078-.776a4.932,4.932,0,0,0,1.54-6.172c.012-.11-.035-.232.065-.324a5.132,5.132,0,0,1-2.329,7.231A.559.559,0,0,1,22.764,15.156Z"/><path class="cls-12" d="M6.718,8.207A5.43,5.43,0,0,0,6.44,11.9a5.441,5.441,0,0,0,2.615,3.042c.1.064.238.077.281.215a.509.509,0,0,1-.354-.042,5.149,5.149,0,0,1-2.622-6.7,4.915,4.915,0,0,1,.293-.531C6.753,7.975,6.706,8.1,6.718,8.207Z"/><path class="cls-13" d="M16.438,17.061l-1.864.038c0-.044-.2-.125,0-.128a28.728,28.728,0,0,1,3.019.09Z"/><path class="cls-14" d="M17.188,26.113h-1.93v-.028h1.931Z"/><path class="cls-15" d="M17.454,22.947a5.062,5.062,0,0,1-.3.614,1.016,1.016,0,0,1-1.8,0,4.99,4.99,0,0,1-.3-.614c-.135-.243-.441-.317-.565-.571a4.913,4.913,0,0,1-.2-.473c-.043-.136-.092-.314.1-.373.215-.066.2.152.27.266.418.636.948.6,1.393-.082.065-.228-.134-.194-.242-.232a1.172,1.172,0,0,1-.684-.539c-.148-.272-.087-.491.223-.562a3.977,3.977,0,0,1,1.693-.006c.329.068.4.291.239.582a1.07,1.07,0,0,1-.656.511c-.2.056-.239.151-.154.323a1.361,1.361,0,0,0,.162.177c.47.427.788.38,1.213-.175.056-.126.058-.338.275-.258.189.07.128.248.082.387s-.123.3-.186.447C17.918,22.649,17.58,22.7,17.454,22.947Z"/><path class="cls-16" d="M11.545,21.332a3.313,3.313,0,0,1,1.152-1.77,1.55,1.55,0,0,0-1.617.559A1.593,1.593,0,0,1,12.2,19.2c.3-.047.328-.2.335-.427.213.095.313.348.563.4.046.009.068.092.053.142a.727.727,0,0,0,.027.605c.007.012-.06.035-.1.017a2.284,2.284,0,0,0-1.25,1.552,4.076,4.076,0,0,0,.038,2A3.751,3.751,0,0,1,11.545,21.332Z"/><path class="cls-17" d="M19.974,18.769c-.028.279.072.388.377.409a1.432,1.432,0,0,1,1.156.869,1.481,1.481,0,0,0-1.652-.442,3.4,3.4,0,0,1,1.092,1.711,4.394,4.394,0,0,1-.25,2.1c-.07.019-.11.008-.073-.077a3.161,3.161,0,0,0,.028-1.872,2.513,2.513,0,0,0-1.141-1.543c-.027.015-.071.016-.07.006C19.478,19.482,19.49,19.016,19.974,18.769Z"/><path class="cls-18" d="M16.05,21.714a.716.716,0,0,1-.762.634.569.569,0,0,1-.631-.552A1,1,0,0,0,16.05,21.714Z"/><path class="cls-19" d="M17.844,21.793a.568.568,0,0,1-.634.552.66.66,0,0,1-.741-.554A1.121,1.121,0,0,0,17.844,21.793Z"/><path class="cls-20" d="M17.454,22.947c-.049-.422.413-.348.561-.578C17.992,22.72,17.757,22.867,17.454,22.947Z"/><path class="cls-21" d="M14.49,22.376c.149.23.614.146.565.571A.677.677,0,0,1,14.49,22.376Z"/><path class="cls-22" d="M20.624,23.342l.073.077a1,1,0,0,1-.208.507C20.541,23.68,20.5,23.5,20.624,23.342Z"/><path class="cls-23" d="M19.974,18.769a2.639,2.639,0,0,0-.463,1.158,1.127,1.127,0,0,1-.267.083c-.447.022-.844-.443-.9-1.038-.054-.62.255-1.178.7-1.228a.767.767,0,0,1,.778.484A.915.915,0,0,1,19.974,18.769Z"/><path class="cls-23" d="M13.074,19.928c-.184-.168-.14-.35-.036-.54.048-.089.064-.217-.076-.2-.34.043-.311-.257-.431-.42.057-.62.443-1.071.884-1.032a1.023,1.023,0,0,1,.732,1.165,1.169,1.169,0,0,1-.612,1.039A.405.405,0,0,1,13.074,19.928Z"/><path class="cls-24" d="M17.02,23.028a.872.872,0,0,0-.051.107.739.739,0,0,1-.717.6c-.431-.013-.654-.319-.763-.713a1.318,1.318,0,0,1,.625-.32c.072.168-.037.381.133.545.186-.123.081-.322.135-.472C16.663,22.686,16.824,22.9,17.02,23.028Z"/><path class="cls-25" d="M17.02,23.028c-.254.025-.406-.216-.638-.248-.028-.278.035-.4.31-.188C16.844,22.708,17.272,22.608,17.02,23.028Z"/><path class="cls-26" d="M16.114,22.707c-.193.137-.359.327-.625.32-.1-.173-.147-.32.128-.371a.835.835,0,0,0,.293-.121C16.184,22.355,16.113,22.571,16.114,22.707Z"/><path class="cls-27" d="M16.627,20.6a.669.669,0,0,1-.854.008A1.252,1.252,0,0,1,16.627,20.6Z"/><path class="cls-28" d="M19.2,18.732c-.024.16-.039.366-.248.354s-.26-.221-.262-.4c0-.151.04-.329.225-.334C19.155,18.345,19.168,18.556,19.2,18.732Z"/><path class="cls-29" d="M13.8,18.685c-.027.182-.058.39-.277.386-.2,0-.236-.2-.227-.365s.052-.352.251-.362C13.764,18.333,13.775,18.528,13.8,18.685Z"/></svg>