<?xml version="1.0" encoding="utf-8"?>
<!-- Generator: Adobe Illustrator 28.0.0, SVG Export Plug-In . SVG Version: 6.00 Build 0)  -->
<svg version="1.1" id="Layer_1" xmlns="http://www.w3.org/2000/svg" xmlns:xlink="http://www.w3.org/1999/xlink" x="0px" y="0px"
	 viewBox="0 0 32 32" style="enable-background:new 0 0 32 32;" xml:space="preserve">
<style type="text/css">
	.st0{fill:#2B61D1;}
	.st1{fill:#FFFFFF;}
</style>
<g>
	
		<ellipse id="Ellipse_64_00000092445871628535193410000004275566499869759658_" class="st0" cx="16" cy="16" rx="15.846" ry="15.733"/>
	<g id="Group_179_00000151534493468077715810000014914883398041962139_" transform="translate(86.548,71.501)">
		<path id="Path_73_00000104679424257347002920000014953220924352663980_" class="st1" d="M-68.696-46.373l-1.802,1.041
			l-3.872-2.235l1.758-1.015l0.044-0.026l0.067,0.039L-68.696-46.373z"/>
		<path id="Path_74_00000001647598074562806360000006296658497911332249_" class="st1" d="M-61.778-60.434v2.095l-3.811-2.2
			l-1.034-0.597l-1.034,0.597l-4.844,2.797l-1.034,0.597v1.234l-1.864-1.076l-1.034-0.597l-1.034,0.597l-1.753,1.011v-4.458
			l8.72-5.034L-61.778-60.434z"/>
		<path id="Path_75_00000101823364843330188670000002069458735630597808_" class="st1" d="M-61.778-55.952v5.594l-4.844,2.797
			l-0.006-0.004l-4.838-2.793v-5.594l4.844-2.798L-61.778-55.952z"/>
		<path id="Path_76_00000124129261139022405670000000075797713813857465_" class="st1" d="M-73.645-53.589v3.217l-2.787,1.61
			l-2.786-1.61v-3.217l2.786-1.608L-73.645-53.589z"/>
	</g>
</g>
</svg>
