<?xml version="1.0" encoding="utf-8"?>
<!-- Generator: Adobe Illustrator 25.2.3, SVG Export Plug-In . SVG Version: 6.00 Build 0)  -->
<svg version="1.1" id="Layer_1" xmlns="http://www.w3.org/2000/svg" xmlns:xlink="http://www.w3.org/1999/xlink" x="0px" y="0px"
	 viewBox="0 0 32 32" style="enable-background:new 0 0 32 32;" xml:space="preserve">
<style type="text/css">
	.st0{fill-rule:evenodd;clip-rule:evenodd;fill:#E09622;}
	.st1{fill:#D19255;}
	.st2{fill:#D39353;}
	.st3{fill:#D28836;}
	.st4{fill:#4B0203;}
	.st5{fill:#DC8F4F;}
	.st6{fill:#CC883A;}
	.st7{fill:#DB9450;}
	.st8{fill:#DC954F;}
	.st9{fill:#CB8445;}
	.st10{fill:#DA9054;}
	.st11{fill:#FE8837;}
	.st12{fill:#FEFEFE;}
	.st13{fill:#DF9722;}
	.st14{fill:#B1B1B1;}
	.st15{fill:#E86306;}
	.st16{fill:#FCFBFB;}
	.st17{fill:#FAF8F3;}
	.st18{fill:#FDFDFD;}
	.st19{fill:#F8F6F1;}
	.st20{fill:#460C0C;}
	.st21{fill:#E3922F;}
	.st22{fill:#F9F8F6;}
	.st23{fill:#FAF8F6;}
	.st24{fill:#FAF6F2;}
	.st25{fill:#FAF7F2;}
	.st26{fill:#F9F7F6;}
	.st27{fill:#F9F7F4;}
	.st28{fill:#B2B1B1;}
	.st29{fill:#4A0C08;}
	.st30{fill:#F8F4F2;}
	.st31{fill:#B4AFAF;}
	.st32{fill:#B4B1B1;}
	.st33{fill:#F7F1ED;}
	.st34{fill:#D5933E;}
	.st35{fill:#470F08;}
	.st36{fill:#D99132;}
	.st37{fill:#F48935;}
	.st38{fill:#E19328;}
	.st39{fill:#E1620E;}
	.st40{fill:#D79630;}
	.st41{fill:#DE6316;}
	.st42{fill:#471214;}
	.st43{fill:#D79235;}
	.st44{fill:#5C1007;}
	.st45{fill:#F2863E;}
	.st46{fill:#300B0D;}
	.st47{fill:#631009;}
	.st48{fill:#CB6122;}
	.st49{fill:#F2DFB1;}
	.st50{fill:#D8905B;}
	.st51{fill:#A54F32;}
	.st52{fill:#B87450;}
	.st53{fill:#4B0304;}
	.st54{fill:#4C0305;}
	.st55{fill:#4E110A;}
	.st56{fill:#51110C;}
	.st57{fill:#5D0D07;}
	.st58{fill:#5C0D03;}
	.st59{fill:#D8B1B7;}
	.st60{fill:#A88182;}
	.st61{fill:#541B18;}
	.st62{fill:#522624;}
	.st63{fill:#D79236;}
	.st64{fill:#FDEBDA;}
	.st65{fill:#F4E6E3;}
	.st66{fill:#F9F6F5;}
	.st67{fill:#F7F6F5;}
	.st68{fill:#D99630;}
	.st69{fill:#FCE8BF;}
	.st70{fill:#FBE8C6;}
</style>
<g>
	<circle class="st0" cx="16" cy="16" r="16"/>
	<path class="st1" d="M18.18,0.813c-0.429,0-0.859,0-1.321,0c0.135-0.131,0.269-0.06,0.384-0.09
		C17.56,0.715,17.876,0.707,18.18,0.813z"/>
	<path class="st2" d="M14.038,31.588c0.426,0,0.851,0,1.307,0c-0.126,0.132-0.26,0.055-0.372,0.09
		C14.657,31.685,14.342,31.698,14.038,31.588z"/>
	<path class="st3" d="M8.42,2.712c-0.097,0.249-0.274,0.363-0.543,0.32C8.033,2.883,8.21,2.769,8.42,2.712z"/>
	<path class="st4" d="M23.615,20.129c-0.111,0.051-0.222,0.102-0.333,0.153c-0.274,0.245-0.022,0.492-0.003,0.738
		c0.061,0.39,0.13,0.774-0.046,1.161c-0.095,0.208,0.064,0.279,0.241,0.28c0.282,0.003,0.563-0.009,0.845-0.014
		c0.458-0.052,0.918-0.152,1.36,0.076c0.08,0.119,0.161,0.238,0.241,0.356c0.061,0.052,0.059,0.123,0.059,0.194
		c0,1.157,0.001,2.315,0,3.472c0,0.058-0.011,0.112-0.043,0.16c-0.131,0.652-0.28,0.742-0.898,0.552
		c-3.087-0.95-6.243-1.394-9.474-1.297c-0.169,0.005-0.343-0.018-0.504,0.061c-0.337,0.134-0.698-0.02-1.037,0.085
		c-1.511,0.046-2.977,0.373-4.437,0.724c-0.592,0.143-1.179,0.313-1.76,0.496c-0.375,0.118-0.609,0.039-0.693-0.364
		c-0.18-0.268-0.033-0.553-0.036-0.828c-0.008-1.038-0.005-2.076-0.003-3.113c0.001-0.444,0.124-0.578,0.569-0.619
		c0.17-0.015,0.341-0.01,0.512-0.003c0.512,0.022,0.512,0.024,0.42-0.498c0.002-0.37-0.027-0.742,0.012-1.108
		c0.062-0.574,0.312-1.062,0.879-1.42c-0.421-0.193-0.799-0.336-1.147-0.534c-0.457-0.259-1.018-0.434-1.047-1.116
		c-0.006-0.146-0.2-0.188-0.304-0.281c-0.339-0.3-0.605-0.628-0.359-1.109c0.091-0.177-0.034-0.262-0.11-0.373
		c-0.436-0.637-0.441-0.804,0.032-1.415c0.097-0.125,0.033-0.182-0.032-0.244c-0.613-0.582-0.309-1.339,0.51-1.665
		c0.318-0.127,0.614-0.214,0.531-0.646c-0.005-0.025,0.006-0.066,0.025-0.079c0.485-0.347,0.226-0.794,0.14-1.196
		C7.355,8.973,7.592,7.26,7.94,5.552c0.151-0.738,0.281-1.482,0.567-2.185c0.212-0.521,0.487-0.633,0.989-0.355
		c0.51,0.282,1.008,0.589,1.493,0.912c1.197,0.797,2.371,1.624,3.476,2.547c0.152,0.127,0.297,0.194,0.5,0.172
		c1.939-0.22,3.767,0.134,5.473,1.089c0.15,0.084,0.286,0.074,0.447,0.04c1.225-0.256,2.451-0.504,3.679-0.748
		c0.907-0.18,1.179,0.052,1.131,0.989c-0.064,1.246-0.365,2.444-0.796,3.611c-0.049,0.132-0.097,0.263-0.149,0.402
		c0.922-0.045,1.238,0.098,1.415,0.629c0.189,0.566-0.009,0.959-0.715,1.412c-0.006,0.109,0.099,0.125,0.157,0.176
		c0.575,0.5,0.66,1.018,0.254,1.662c-0.121,0.191-0.274,0.363-0.416,0.54c-0.07,0.088-0.179,0.164-0.09,0.293
		c0.35,0.508,0.085,0.914-0.21,1.318c-0.05,0.069-0.098,0.139-0.146,0.208c-0.257,0.304-0.399,0.626-0.417,1.051
		c-0.02,0.468-0.512,0.572-0.854,0.77C23.697,20.104,23.65,20.105,23.615,20.129z"/>
	<path class="st5" d="M8.595,21.901c0.031,0.079,0.056,0.16,0.093,0.235c0.169,0.343-0.009,0.373-0.295,0.357
		c-1.246-0.069-1.244-0.065-1.246,1.181c-0.002,1.096-0.009,2.192-0.014,3.288c-0.212-0.166-0.328-0.334-0.118-0.6
		c0.065-0.082,0.033-0.246,0.033-0.373c0.002-1.007,0-2.013,0.003-3.02c0.002-0.519,0.094-0.606,0.627-0.614
		c0.156-0.002,0.314-0.018,0.467,0.004C8.513,22.41,8.631,22.236,8.595,21.901z"/>
	<path class="st6" d="M23.615,20.129c0.199-0.135,0.402-0.264,0.596-0.405c0.269-0.196,0.44-0.446,0.362-0.8
		c-0.082-0.37,0.247-0.466,0.429-0.66c-0.007,0.111,0.017,0.238-0.083,0.315c-0.24,0.185-0.266,0.432-0.267,0.712
		C24.649,19.71,24.175,20.077,23.615,20.129z"/>
	<path class="st7" d="M25.936,26.704c-0.005-1.275-0.01-2.55-0.016-3.825c0.123,0.07,0.102,0.19,0.102,0.3
		c0.001,1.071,0.002,2.142,0.001,3.213C26.023,26.503,26.04,26.622,25.936,26.704z"/>
	<path class="st8" d="M25.679,22.523c-0.448-0.125-0.909-0.011-1.36-0.076C24.779,22.344,25.242,22.206,25.679,22.523z"/>
	<path class="st9" d="M23.279,21.02c-0.058-0.109-0.107-0.224-0.177-0.324c-0.17-0.243-0.099-0.371,0.18-0.414
		C23.281,20.527,23.28,20.774,23.279,21.02z"/>
	<path class="st10" d="M14.022,26.105c0.339-0.118,0.689-0.09,1.038-0.085c0.082,0.007,0.163,0.014,0.245,0.022
		c0,0.021,0.001,0.042,0.001,0.064C14.878,26.105,14.45,26.105,14.022,26.105z"/>
	<path class="st11" d="M17.497,7.382c0.404,0.043,0.803,0.105,1.174,0.285c0.408,0.266,0.85,0.467,1.247,0.762
		c0.357,0.265,0.626,0.599,0.937,0.899C21,9.468,21.038,9.675,20.957,9.88c-0.173,0.231-0.526,0.374-0.366,0.767
		c0.152,0.375,0.478,0.369,0.806,0.401c0.334,0.033,0.66,0.127,0.992,0.185c0.155,0.051,0.257,0.162,0.354,0.287
		c0.307,0.395,0.426,0.885,0.666,1.314c0.11,0.198,0.079,0.417-0.175,0.528c-0.201,0.045-0.355-0.072-0.516-0.157
		c-0.722-0.381-1.477-0.355-2.24-0.169c-0.157,0.038-0.364,0.08-0.306,0.323c0.058,0.244,0.248,0.247,0.441,0.191
		c0.8-0.233,1.546-0.146,2.224,0.364c0.297,0.224,0.489-0.138,0.747-0.133c0.196,0.107,0.174,0.288,0.157,0.467
		c-0.219,0.265-0.207,0.513,0.044,0.755c0.058,0.056,0.075,0.148,0.075,0.236c-0.021,0.173-0.078,0.318-0.276,0.353
		c-0.363-0.049-0.614-0.332-0.954-0.445c-0.69-0.229-1.38-0.393-2.112-0.285c-0.218,0.032-0.417-0.03-0.615-0.125
		c-0.869-0.415-1.772-0.544-2.719-0.317c-0.22,0.053-0.451,0.053-0.674-0.02c-0.925-0.3-1.88-0.398-2.846-0.379
		c-0.793,0.016-1.589-0.062-2.38,0.05c-0.115,0.016-0.243,0.01-0.297-0.111c-0.062-0.14,0.061-0.233,0.126-0.337
		c0.129-0.152,0.176-0.278-0.101-0.285c-0.256-0.006-0.513-0.015-0.768,0.008c-0.13,0.012-0.256,0.046-0.349-0.083
		c-0.103-0.487,0.014-0.655,0.479-0.688c0.111-0.008,0.222,0,0.33-0.031c0.176-0.091,0.488,0.014,0.531-0.234
		c0.035-0.204-0.256-0.262-0.387-0.4c-0.16-0.169-0.449-0.191-0.523-0.459c0.168-0.683,0.6-1.213,1.032-1.736
		c0.746-0.904,1.683-1.55,2.76-2.009c0.9-0.384,1.84-0.432,2.793-0.37C17.102,7.347,17.305,7.32,17.497,7.382z"/>
	<path class="st12" d="M18.475,15.336c-0.42-0.055-0.852,0.091-1.265-0.076c-0.576-0.059-1.15-0.094-1.724,0.037
		c-0.169,0.039-0.305,0.103-0.345,0.27c-0.209,0.876-0.281,1.762-0.116,2.652c0.156,0.843,0.61,1.451,1.442,1.743
		c0.092,0.032,0.184,0.079,0.243,0.165c0.384,0.148,0.785,0.079,1.179,0.093c0.118,0.004,0.286-0.046,0.269,0.161
		c-0.015,0.174-0.163,0.114-0.267,0.112c-0.526-0.01-1.044-0.098-1.565-0.155c-0.504-0.055-0.936-0.135-1.22-0.653
		c-0.207-0.377-0.653-0.478-1.08-0.493c-0.269-0.009-0.539,0.005-0.808,0.009c-0.469,0.115-0.841-0.036-1.198-0.355
		c-1.118-0.999-1.868-2.194-2.079-3.697c-0.035-0.251-0.083-0.509,0.103-0.733c0.515-0.419,1.143-0.378,1.744-0.407
		c1.445-0.07,2.893-0.105,4.312,0.247c0.416,0.103,0.811,0.262,1.242,0.111c0.161,0.003,0.329-0.023,0.47,0.088
		c0.114,0.277,0.278,0.51,0.553,0.658C18.433,15.152,18.559,15.203,18.475,15.336z"/>
	<path class="st13" d="M16.442,15.517c1.525,0.23,2.733,0.93,3.52,2.355c-0.286,0.027-0.526,0.017-0.749,0.075
		c-0.698,0.183-1.182,0.791-1.139,1.552c0.028,0.495-0.164,0.584-0.574,0.536c-0.14-0.016-0.283,0-0.425,0.002
		c-1.415-0.165-2.149-1.011-2.165-2.48c-0.006-0.598,0.011-1.19,0.165-1.773c0.038-0.144,0.064-0.275,0.209-0.347
		C15.676,15.379,16.057,15.485,16.442,15.517z"/>
	<path class="st14" d="M10.045,14.5c0.03,1.994,0.998,3.469,2.554,4.622c0.2,0.148,0.418,0.012,0.618,0.08
		c-0.668,0.141-1.33,0.25-2.01,0.031c-0.974-0.314-1.96-0.597-2.848-1.122c-0.14-0.083-0.69-0.181-0.117-0.497
		c0.13-0.072,0.004-0.164-0.083-0.215c-0.232-0.137-0.469-0.267-0.695-0.415c-0.114-0.075-0.277-0.152-0.251-0.314
		c0.028-0.171,0.217-0.152,0.345-0.2c0.075-0.028,0.175,0.011,0.241-0.116c-0.256-0.279-0.588-0.503-0.801-0.837
		c-0.229-0.36-0.183-0.516,0.229-0.505c0.741,0.021,1.372-0.322,2.045-0.529C9.536,14.215,9.793,14.247,10.045,14.5z"/>
	<path class="st15" d="M17.497,7.382c-0.831,0.038-1.669-0.043-2.49,0.179c-1.039,0.281-1.973,0.751-2.785,1.459
		c-0.789,0.688-1.384,1.524-1.852,2.454c-0.135,0.115-0.296,0.064-0.445,0.064c-0.239-0.001-0.368,0.125-0.417,0.338
		c-0.049,0.216,0.033,0.377,0.233,0.487c0.179,0.098,0.366,0.125,0.566,0.129c0.173,0.004,0.374-0.058,0.495,0.141
		c-0.081,0.07-0.181,0.079-0.275,0.063c-0.477-0.083-0.626,0.15-0.578,0.583c-0.254,0.254-0.541,0.488-0.468,0.915
		c0.011,0.065-0.079,0.108-0.151,0.126c-0.02,0-0.04-0.001-0.06-0.001c-0.095,0.023-0.203,0.024-0.284,0.072
		c-0.789,0.463-1.358-0.006-1.918-0.461c-0.297-0.241-0.272-0.427,0.055-0.629c0.358-0.221,0.773-0.264,1.175-0.34
		c0.12-0.023,0.269,0.017,0.287-0.172c-0.133-0.237-0.023-0.397,0.168-0.532c-0.323-1.255-0.617-2.514-0.586-3.825
		C8.173,8.17,8.193,7.94,8.579,7.961c0.002,0.838-0.029,1.679,0.174,2.5c0.066,0.267,0.046,0.646,0.366,0.705
		c0.276,0.05,0.384-0.295,0.51-0.505c0.548-0.919,1.326-1.587,2.244-2.11c0.173-0.098,0.341-0.206,0.511-0.31
		c0.657-0.406,0.657-0.406,0.243-1.004c0.142-0.125,0.277-0.04,0.382,0.043c0.232,0.185,0.484,0.213,0.759,0.154
		c0.212-0.061,0.42-0.14,0.646-0.128c0.668,0.034,1.327-0.135,1.997-0.08C16.777,7.255,17.144,7.269,17.497,7.382z"/>
	<path class="st16" d="M21.253,19.101c-0.271-0.229-0.266-0.451-0.072-0.757c0.362-0.572,0.501-1.227,0.573-1.898
		c0.026-0.241-0.054-0.349-0.281-0.433c-0.923-0.342-1.877-0.543-2.849-0.671c-0.08-0.169,0.077-0.192,0.162-0.234
		c0.206-0.104,0.385-0.232,0.511-0.429c0.049-0.05,0.107-0.08,0.175-0.093c0.803,0.414,1.704,0.106,2.534,0.345
		c0.618,0.178,1.226,0.36,1.664,0.875c0.094,0.267-0.033,0.501-0.124,0.735c-0.367,0.947-0.984,1.715-1.74,2.375
		C21.657,19.043,21.504,19.242,21.253,19.101z"/>
	<path class="st14" d="M21.253,19.101c0.813-0.392,1.31-1.099,1.781-1.821c0.279-0.428,0.473-0.904,0.59-1.405
		c0.29-0.074,0.277,0.17,0.346,0.329c0.143,0.333,0.244,0.68,0.678,0.789c0.278,0.07,0.262,0.287,0.108,0.503
		c-0.259,0.362-0.576,0.668-0.917,0.949c-0.197,0.162-0.309,0.308-0.029,0.488c0.191,0.123,0.106,0.227-0.029,0.317
		c-0.477,0.318-1.001,0.536-1.536,0.733c-0.176,0.065-0.269-0.022-0.363-0.133C21.671,19.601,21.462,19.35,21.253,19.101z"/>
	<path class="st16" d="M10.046,8.348c0.248,0.242-0.029,0.688,0.348,0.888c0.082,0.043-0.002,0.131-0.045,0.172
		c-0.477,0.451-0.783,1.034-1.245,1.643c-0.431-1.703-0.438-3.313-0.09-4.933c0.184-0.033,0.244,0.118,0.314,0.23
		c0.295,0.466,0.539,0.959,0.733,1.475C10.127,7.997,10.169,8.176,10.046,8.348z"/>
	<path class="st17" d="M9.235,24.702c0-0.425-0.01-0.851,0.003-1.275c0.011-0.341,0.203-0.495,0.548-0.512
		c0.986-0.047,1.08,0.035,1.076,1.019c-0.002,0.497,0.003,0.994-0.007,1.491c-0.011,0.525-0.149,0.652-0.638,0.798
		c-1.05,0.312-1.006,0.036-1.013-0.839c-0.002-0.227,0-0.454,0-0.682C9.214,24.702,9.225,24.702,9.235,24.702z"/>
	<path class="st18" d="M14.771,22.366c0.497-0.326,0.696-0.832,0.831-1.377c0.371-0.1,0.717,0.079,1.079,0.099
		c0.462,0.025,0.921,0.109,1.387,0.09c0.188-0.008,0.362,0.038,0.514,0.154c0.172,0.361,0.551,0.625,0.51,1.087
		c-0.193,0.134-0.409,0.187-0.641,0.188c-1.04,0.003-2.08,0.006-3.119-0.003C15.119,22.601,14.881,22.624,14.771,22.366z"/>
	<path class="st19" d="M21.38,23.885c0-0.213,0.012-0.427-0.003-0.639c-0.015-0.222,0.029-0.332,0.293-0.327
		c0.258,0.005,0.303,0.113,0.3,0.337c-0.01,0.782,0.001,1.564-0.014,2.346c-0.002,0.12,0.131,0.358-0.145,0.353
		c-0.196-0.004-0.433,0.03-0.513-0.265c-0.079-0.29-0.203-0.569-0.389-0.831c0,0.207-0.002,0.413,0.001,0.62
		c0.002,0.159,0.03,0.329-0.223,0.305c-0.199-0.019-0.386,0.003-0.376-0.312c0.022-0.753,0.005-1.507,0.007-2.261
		c0-0.119-0.045-0.289,0.157-0.282c0.181,0.006,0.412-0.099,0.51,0.173c0.098,0.272,0.203,0.542,0.305,0.814
		C21.32,23.906,21.35,23.896,21.38,23.885z"/>
	<path class="st20" d="M14.771,22.366c0.037,0.105,0.127,0.096,0.21,0.096c1.315,0,2.631,0,3.946-0.003
		c0.055,0,0.109-0.027,0.164-0.041c-0.201,0.322-0.087,0.446,0.266,0.449c0.172,0.001,0.364-0.068,0.509,0.092
		c-0.208,0.206-0.475,0.137-0.721,0.15c-0.486,0.026-0.551,0.082-0.567,0.579c-0.015,0.451,0.001,0.902-0.008,1.353
		c-0.004,0.171-0.018,0.339-0.146,0.472c-0.177-0.157-0.039-0.381-0.119-0.566c-0.02,0.014-0.048,0.024-0.048,0.035
		c-0.039,0.669-0.17,0.76-0.824,0.549c-0.113-0.037-0.217-0.052-0.33-0.032c-0.057-0.067-0.094-0.145-0.097-0.232
		c-0.009-0.238-0.094-0.574,0.146-0.659c0.267-0.095,0.306,0.259,0.417,0.441c0.072,0.118,0.11,0.295,0.29,0.261
		c0.192-0.036,0.149-0.221,0.151-0.352c0.007-0.511,0.015-1.023-0.005-1.535c-0.004-0.104,0.012-0.257-0.153-0.254
		c-0.132,0.003-0.119,0.138-0.139,0.23c-0.019,0.083-0.022,0.169-0.054,0.25c-0.074,0.19-0.178,0.204-0.307,0.049
		c-0.083-0.1-0.122-0.224-0.189-0.333c-0.075-0.122-0.151-0.259-0.328-0.209c-0.162,0.046-0.142,0.199-0.145,0.321
		c-0.014,0.497-0.001,0.995-0.008,1.492c-0.002,0.183,0.018,0.373-0.113,0.53c-0.105,0.001-0.209,0.002-0.314,0.003
		c-0.134-0.152-0.12-0.34-0.122-0.522c-0.006-0.479,0.006-0.959-0.007-1.438c-0.003-0.13,0.047-0.326-0.135-0.356
		c-0.175-0.028-0.138,0.175-0.189,0.278c-0.032,0.063-0.057,0.128-0.117,0.171c-0.089-0.058-0.177-0.117-0.266-0.175
		c-0.066-0.277-0.239-0.376-0.524-0.371c-0.276,0.005-0.572,0.076-0.825-0.114c0.042-0.034,0.08-0.089,0.127-0.098
		C14.737,22.771,14.737,22.773,14.771,22.366z"/>
	<path class="st21" d="M23.638,14.341c-0.033-0.178,0.049-0.373-0.084-0.535c-0.198-0.109-0.359-0.245-0.372-0.493
		c0.104-0.058,0.231-0.154,0.168-0.26c-0.343-0.575-0.417-1.309-1.017-1.731c-0.098-0.836-0.368-1.129-1.221-1.326
		c-0.084-0.019-0.165-0.042-0.214-0.123c0.014-0.31-0.147-0.5-0.372-0.711c-0.517-0.485-1.05-0.937-1.683-1.262
		c-0.082-0.042-0.16-0.121-0.17-0.232c0.785,0.182,1.447,0.618,2.125,1.023c0.429,0.118,0.727,0.397,0.942,0.775
		c0.948,1.001,1.681,2.125,1.999,3.487c0.01,0.041,0.03,0.08,0.038,0.121c0.109,0.576,0.109,0.577,0.681,0.675
		c0.026,0.187-0.122,0.269-0.227,0.376c-0.104,0.106-0.14,0.191,0.061,0.206C24.077,14.647,23.856,14.426,23.638,14.341z"/>
	<path class="st22" d="M24.079,24.704c0-0.498,0.007-0.996-0.004-1.493c-0.004-0.199,0.053-0.286,0.263-0.274
		c0.241,0.015,0.487,0.031,0.724-0.001c0.412-0.055,0.42,0.176,0.412,0.48c-0.007,0.237-0.072,0.322-0.322,0.309
		c-0.161-0.008-0.434-0.163-0.47,0.163c-0.028,0.25-0.092,0.519,0.329,0.585c0.345,0.054,0.152,0.398,0.17,0.609
		c0.018,0.212-0.16,0.137-0.277,0.113c-0.125-0.026-0.252-0.03-0.226,0.141c0.031,0.201-0.153,0.472,0.166,0.589
		c0.093,0.034,0.191,0.06,0.289,0.07c0.495,0.048,0.355,0.429,0.304,0.68c-0.06,0.294-0.294,0.085-0.44,0.043
		c-0.917-0.266-0.916-0.27-0.92-1.204C24.078,25.245,24.079,24.975,24.079,24.704z"/>
	<path class="st23" d="M16.568,25.498c-0.007-0.781-0.015-1.562-0.022-2.344c-0.001-0.116-0.012-0.244,0.163-0.23
		c0.186,0.014,0.409-0.078,0.511,0.185c0.086,0.22,0.186,0.435,0.372,0.644c0-0.158,0.009-0.316-0.002-0.473
		c-0.016-0.227,0.006-0.37,0.306-0.366c0.309,0.004,0.295,0.17,0.293,0.382c-0.005,0.64,0.004,1.279-0.004,1.919
		c-0.001,0.109,0.063,0.298-0.136,0.296c-0.178-0.002-0.408,0.11-0.516-0.158c-0.098-0.244-0.206-0.484-0.383-0.71
		c-0.016,0.285-0.032,0.571-0.048,0.856C16.924,25.499,16.746,25.498,16.568,25.498z"/>
	<path class="st24" d="M18.424,25.513c0.002-0.668-0.003-1.335,0.008-2.003c0.007-0.463,0.13-0.584,0.585-0.586
		c0.283-0.001,0.567,0.022,0.85,0.034c0.16,0.161,0.215,0.356,0.213,0.582c-0.006,0.626-0.004,1.252,0.003,1.878
		c0.002,0.157,0.011,0.301-0.21,0.257c-0.161-0.032-0.403,0.055-0.391-0.255c0.008-0.213-0.013-0.427,0.002-0.64
		c0.014-0.2-0.092-0.231-0.254-0.244c-0.192-0.015-0.21,0.093-0.207,0.236c0.002,0.099-0.002,0.199-0.002,0.299
		C19.019,25.64,19.019,25.64,18.424,25.513z"/>
	<path class="st25" d="M23.625,22.956c0.179,0.168,0.25,0.377,0.225,0.618c-0.012,0.115,0.072,0.304-0.108,0.317
		c-0.156,0.011-0.399,0.126-0.472-0.126c-0.061-0.21-0.216-0.172-0.337-0.164c-0.194,0.013-0.129,0.189-0.13,0.303
		c-0.007,0.456-0.003,0.911-0.001,1.367c0,0.11-0.027,0.243,0.142,0.258c0.121,0.01,0.234,0.118,0.342-0.1
		c0.106-0.213,0.4-0.109,0.498,0.012c0.153,0.19,0.091,0.462,0.014,0.69c-0.062,0.183-0.233,0.205-0.393,0.161
		c-0.467-0.129-1.071-0.03-1.218-0.71c-0.099-0.744-0.063-1.491-0.02-2.236c0.018-0.314,0.196-0.479,0.535-0.439
		C23.007,22.944,23.321,22.859,23.625,22.956z"/>
	<path class="st26" d="M8.273,22.943c0.114,0,0.228-0.004,0.342,0.001c0.171,0.007,0.392-0.069,0.369,0.249
		c-0.017,0.235,0.06,0.504-0.331,0.485c-0.316-0.016-0.563,0.04-0.484,0.467c0.033,0.179,0.043,0.307,0.268,0.264
		c0.168-0.032,0.29,0.01,0.259,0.214c-0.029,0.189,0.12,0.485-0.204,0.519c-0.308,0.032-0.325,0.196-0.314,0.431
		c0.013,0.284,0.002,0.569,0.01,0.854c0.004,0.153-0.01,0.281-0.185,0.336c-0.246,0.077-0.442,0.164-0.428-0.262
		c0.031-0.953,0.011-1.907,0.008-2.861C7.582,22.945,7.579,22.945,8.273,22.943z"/>
	<path class="st27" d="M11.982,23.563c0.387-0.674,0.387-0.674,0.92-0.572c-0.135,0.316-0.244,0.641-0.406,0.935
		c-0.17,0.308-0.163,0.58,0.017,0.873c0.096,0.156,0.188,0.326,0.228,0.502c0.031,0.14,0.334,0.312,0.031,0.432
		c-0.221,0.087-0.509,0.152-0.609-0.223c-0.022-0.082-0.045-0.196-0.189-0.247c-0.171,0.356-0.244,0.86-0.881,0.671
		c0.108-0.286,0.199-0.609,0.349-0.902c0.212-0.411,0.226-0.784-0.016-1.191c-0.156-0.263-0.243-0.567-0.364-0.859
		C11.635,22.896,11.635,22.896,11.982,23.563z"/>
	<path class="st28" d="M10.046,8.348C9.902,7.512,9.469,6.809,9.014,6.117c0.1-1.224,0.154-1.252,1.139-0.57
		c0.326,0.226,0.646,0.462,1.011,0.725c-0.418,0.105-0.353,0.513-0.571,0.739c-0.187,0.194-0.166,0.519-0.34,0.746
		C10.126,7.927,10.376,8.24,10.046,8.348z"/>
	<path class="st29" d="M23.969,16.203c-0.115-0.11-0.231-0.219-0.346-0.329c-0.768-0.762-1.746-0.965-2.766-0.948
		c-0.507,0.008-0.966-0.042-1.403-0.291c-0.273,0.048-0.516-0.126-0.786-0.104c-0.434,0.075-0.856-0.141-1.291-0.05
		c-0.736,0.255-1.375-0.21-2.069-0.285c-1.451-0.157-2.896-0.154-4.346-0.02c-0.339,0.031-0.598,0.256-0.918,0.323
		c-0.256-0.063-0.514-0.093-0.773-0.017c-0.001-0.055-0.002-0.11-0.003-0.165c0,0-0.001-0.003-0.001-0.003
		c0.26-0.151,0.567-0.08,0.838-0.18c0.241-0.088,0.451-0.223,0.64-0.398c0.121-0.112,0.233-0.252,0.429-0.228
		c0.064,0.029,0.107,0.07,0.079,0.148c-0.068,0.087-0.136,0.174-0.243,0.311c0.813-0.103,1.583-0.09,2.353-0.088
		c1.095,0.004,2.187,0.044,3.232,0.427c0.184,0.067,0.366,0.033,0.546-0.007c0.991-0.22,1.946-0.148,2.848,0.348
		c0.129,0.071,0.257,0.103,0.406,0.088c1.173-0.122,2.254,0.124,3.223,0.812c0.289,0.074,0.516,0.199,0.458,0.558
		C24.04,16.14,24.005,16.171,23.969,16.203z"/>
	<path class="st30" d="M14.069,22.975c0.4-0.109,0.813-0.078,1.21-0.035c0.339,0.037,0.185,0.318,0.138,0.52
		c-0.17-0.002-0.34,0.004-0.51-0.009c-0.212-0.016-0.218,0.125-0.231,0.272c-0.014,0.157,0.04,0.25,0.21,0.237
		c0.192-0.015,0.322,0.009,0.319,0.262c-0.003,0.248-0.131,0.282-0.322,0.269c-0.178-0.011-0.213,0.098-0.209,0.242
		c0.005,0.17-0.005,0.341,0.016,0.509c0.041,0.333-0.193,0.312-0.404,0.337c-0.285,0.034-0.196-0.182-0.198-0.311
		C14.075,24.504,14.074,23.74,14.069,22.975z"/>
	<path class="st31" d="M23.479,11.55c-0.285-0.437-0.468-0.795-0.217-1.282c0.061-0.118,0.09-0.404,0.04-0.638
		c-0.047-0.216,0.024-0.505,0.327-0.577c0.242-0.058,0.543-0.294,0.705-0.148c0.169,0.152-0.022,0.473-0.087,0.712
		C24.068,10.27,23.843,10.908,23.479,11.55z"/>
	<path class="st32" d="M18.581,21.331c-0.824,0.011-1.645-0.024-2.459-0.168c-0.184-0.033-0.361-0.075-0.52-0.175
		c-0.012-0.098-0.013-0.199-0.039-0.293c-0.052-0.188-0.006-0.264,0.201-0.233c0.8,0.12,1.601,0.224,2.408,0.288
		C18.484,20.776,18.454,21.128,18.581,21.331z"/>
	<path class="st33" d="M15.683,23.635c0.007-0.141,0.028-0.282,0.018-0.422c-0.014-0.212,0.049-0.311,0.282-0.302
		c0.216,0.009,0.341,0.045,0.327,0.308c-0.041,0.76,0.056,1.524-0.056,2.282c-0.55-0.009-0.547-0.009-0.551-0.565
		C15.701,24.503,15.69,24.069,15.683,23.635z"/>
	<path class="st34" d="M22.415,21.982c0.047-0.666-0.27-1.186-0.711-1.627c-0.373-0.374-0.722-0.765-1.038-1.185
		c-0.328-0.436-0.688-0.828-1.25-1.034c0.464-0.064,0.72-0.002,1.073,0.386c0.621,0.682,1.209,1.395,1.81,2.094
		c0.347,0.403,0.611,0.919,0.215,1.479C22.421,22.11,22.377,22.083,22.415,21.982z"/>
	<path class="st35" d="M15.261,15.524c-0.28,0.926-0.367,1.865-0.138,2.812c0.218,0.904,0.795,1.449,1.712,1.629
		c0.082,0.016,0.161,0.047,0.241,0.071c-0.124,0.024-0.266-0.024-0.366,0.092c-0.928-0.156-1.574-0.79-1.801-1.796
		c-0.217-0.963-0.105-1.915,0.124-2.861c0.039-0.162,0.126-0.249,0.284-0.26c0.632-0.046,1.265-0.104,1.892,0.049
		c-0.378,0-0.757-0.002-1.135,0.002c-0.135,0.002-0.285-0.039-0.39,0.095C15.617,15.601,15.368,15.38,15.261,15.524z"/>
	<path class="st36" d="M9.205,3.572c1.044,0.608,1.976,1.258,2.91,1.904c0.131,0.091,0.175,0.184,0.068,0.312
		c-0.081,0.098-0.175,0.223-0.316,0.107c-0.873-0.724-1.832-1.344-2.619-2.171C9.232,3.708,9.233,3.674,9.205,3.572z"/>
	<path class="st37" d="M13.797,7.558c-0.487,0.244-0.779-0.222-1.171-0.322c-0.347-0.305-0.694-0.61-1.105-0.973
		c0.312-0.037,0.535-0.109,0.735-0.238c0.153-0.045,0.197,0.085,0.254,0.172c0.136,0.207,0.265,0.365,0.564,0.367
		C13.352,6.566,13.771,7.201,13.797,7.558z"/>
	<path class="st38" d="M13.797,7.558c-0.129-0.307-0.407-0.507-0.57-0.79c-0.026-0.046-0.094-0.117-0.118-0.108
		c-0.607,0.217-0.595-0.39-0.854-0.634c0.123-0.22,0.245-0.302,0.488-0.104c0.56,0.458,1.175,0.848,1.67,1.384
		C14.256,7.506,13.999,7.465,13.797,7.558z"/>
	<path class="st39" d="M20.908,8.576c-0.095-0.197,0.09-0.169,0.17-0.188c0.42-0.102,0.844-0.191,1.267-0.281
		c0.372-0.079,0.241,0.243,0.316,0.402c-0.241,0.407-0.682,0.436-1.07,0.564C21.277,9.026,21.079,8.82,20.908,8.576z"/>
	<path class="st40" d="M25.08,12.698c0.227-0.157,0.374-0.055,0.464,0.161c0.092,0.222,0.001,0.403-0.203,0.494
		c-0.426,0.191-0.869,0.228-1.388,0.089c0.344-0.361,0.652-0.679,1.134-0.747c0.007,0.01,0.012,0.02,0.019,0.03
		C25.075,12.677,25.112,12.745,25.08,12.698z"/>
	<path class="st41" d="M24.076,16.108c-0.065-0.258-0.328-0.353-0.458-0.558c0.059-0.118,0.118-0.236,0.177-0.354
		c0.033-0.028,0.082-0.058,0.112-0.032c0.328,0.275,0.738,0.374,1.124,0.524c0.047,0.093,0.02,0.177-0.028,0.26
		c-0.055,0.062-0.107,0.127-0.166,0.184C24.417,16.539,24.416,16.538,24.076,16.108z"/>
	<path class="st42" d="M19.347,14.75c-0.079,0.396-0.489,0.387-0.724,0.591c-0.049-0.002-0.099-0.004-0.148-0.005
		c-0.182-0.125-0.372-0.241-0.543-0.38c-0.114-0.092-0.258-0.201-0.113-0.381c0.267-0.225,0.584-0.089,0.878-0.125
		C18.926,14.523,19.203,14.492,19.347,14.75z"/>
	<path class="st43" d="M24.572,14.645c0.064,0.031,0.156,0.028,0.16,0.132c0.021,0.267,0.184,0.209,0.347,0.151
		c0.16,0.106,0.071,0.261,0.077,0.396c-0.092,0.315-0.337,0.329-0.576,0.247c-0.384-0.132-0.678-0.405-0.914-0.727
		c-0.131-0.178-0.065-0.355,0.156-0.366C24.077,14.464,24.362,14.416,24.572,14.645z"/>
	<path class="st36" d="M23.831,12.31c-0.459-0.753,0.282-1.224,0.387-1.846C24.665,11.203,24.042,11.712,23.831,12.31z"/>
	<path class="st44" d="M24.572,14.645c-0.291-0.042-0.581-0.115-0.879-0.056c0.233,0.684,1,1.068,1.463,0.735
		c0.005,0.067,0.01,0.134,0.014,0.201c0.019,0.138-0.038,0.197-0.177,0.171c-0.506,0.088-0.835-0.248-1.199-0.501
		c-0.099-0.135-0.193-0.275-0.299-0.403c-0.19-0.229-0.136-0.373,0.142-0.452c0.217-0.041,0.436,0.09,0.652-0.01
		C24.544,14.292,24.66,14.377,24.572,14.645z"/>
	<path class="st45" d="M21.555,9.026c0.368-0.172,0.737-0.344,1.105-0.517c0.237,0.571,0.237,0.569-0.363,0.771
		c-0.147,0.049-0.29,0.105-0.45,0.076C21.691,9.298,21.534,9.24,21.555,9.026z"/>
	<path class="st46" d="M23.625,22.956c-0.268-0.006-0.536-0.017-0.804-0.018c-0.489-0.001-0.607,0.104-0.62,0.612
		c-0.018,0.677-0.011,1.354-0.015,2.032c-0.003,0.014-0.003,0.031-0.011,0.04c-0.015,0.017-0.036,0.028-0.054,0.042
		c-0.009-0.093-0.027-0.187-0.027-0.28c-0.002-0.621-0.002-1.243-0.001-1.864c0.001-0.572,0.082-0.663,0.67-0.648
		C23.05,22.879,23.353,22.776,23.625,22.956z"/>
	<path class="st47" d="M21.555,9.026c0.097,0.11,0.195,0.22,0.292,0.33c-0.036,0.036-0.073,0.073-0.109,0.109
		c-0.314-0.258-0.628-0.517-0.942-0.775c0.037-0.038,0.074-0.076,0.112-0.114C21.161,8.672,21.332,8.886,21.555,9.026z"/>
	<path class="st48" d="M8.753,12.258c-0.039,0.183-0.221,0.32-0.168,0.532c-0.01-0.009-0.023-0.017-0.031-0.029
		c-0.117-0.184-0.408-0.354-0.32-0.546C8.328,12.008,8.56,12.361,8.753,12.258z"/>
	<path class="st49" d="M25.079,14.928c0.003,0.157-0.024,0.301-0.229,0.214c-0.158-0.067-0.306-0.17-0.118-0.364
		C24.836,14.854,25.005,14.782,25.079,14.928z"/>
	<path class="st50" d="M15.261,15.524c0.088-0.192,0.307-0.047,0.424-0.166c0.234,0.14,0.53-0.013,0.758,0.159
		C16.048,15.519,15.655,15.521,15.261,15.524z"/>
	<path class="st51" d="M24.994,15.697c0.059-0.057,0.118-0.114,0.177-0.171c0.093-0.042,0.074-0.191,0.266-0.215
		c-0.081,0.281-0.22,0.48-0.433,0.636C25,15.863,24.997,15.78,24.994,15.697z"/>
	<path class="st52" d="M22.415,21.982c0.033,0.037,0.066,0.075,0.099,0.112c-0.023,0.179-0.117,0.302-0.378,0.41
		C22.255,22.284,22.335,22.133,22.415,21.982z"/>
	<path class="st53" d="M13.888,11.65c1.149-0.016,2.047,0.321,2.906,0.791c0.238,0.13,0.471,0.262,0.262,0.587
		c-0.176,0.274-0.362,0.454-0.729,0.241c-0.855-0.497-1.773-0.776-2.776-0.646c-0.324,0.042-0.651,0.093-0.961,0.188
		c-0.387,0.118-0.507-0.087-0.609-0.393c-0.122-0.363,0.107-0.456,0.372-0.527C12.903,11.742,13.462,11.635,13.888,11.65z"/>
	<path class="st54" d="M23.182,13.313c0.121,0.167,0.347,0.254,0.372,0.493c-0.452,0.462-0.449,0.458-0.949,0.11
		c-0.626-0.436-1.313-0.466-1.997-0.207c-0.4,0.152-0.512-0.07-0.624-0.344c-0.142-0.349,0.156-0.366,0.358-0.435
		C21.351,12.587,22.297,12.728,23.182,13.313z"/>
	<path class="st55" d="M15.25,9.026c0.156,0.028,0.343,0.04,0.516,0.097c0.281,0.093,0.534,0.251,0.514,0.593
		c-0.02,0.347-0.274,0.574-0.582,0.577c-0.621,0.006-1.246-0.04-1.861-0.128c-0.313-0.044-0.244-0.307-0.092-0.491
		C14.125,9.213,14.657,9.084,15.25,9.026z"/>
	<path class="st56" d="M20.897,9.873c0.657-0.011,1.152,0.256,1.457,0.85c0.105,0.206,0.13,0.404-0.022,0.598
		c-0.457-0.067-0.916-0.124-1.371-0.203c-0.314-0.054-0.497-0.27-0.534-0.576C20.384,10.193,20.612,10.007,20.897,9.873z"/>
	<path class="st57" d="M10.802,12.632c-0.256-0.007-0.515,0.01-0.766-0.029c-0.267-0.042-0.528-0.132-0.639-0.428
		c-0.082-0.22-0.045-0.432,0.1-0.602c0.251-0.295,0.571-0.155,0.873-0.1c0.261,0.171,0.527,0.333,0.78,0.516
		c0.134,0.097,0.305,0.211,0.256,0.406c-0.046,0.182-0.251,0.155-0.393,0.203C10.946,12.621,10.872,12.622,10.802,12.632z"/>
	<path class="st58" d="M11.254,13.658c-0.039-0.038-0.079-0.075-0.118-0.113c-0.377-0.067-0.746-0.027-1.109,0.087
		c-0.069,0.032-0.138,0.062-0.2,0.105c-0.162,0.123-0.118,0.227,0.03,0.32c0.114,0.072,0.276,0.052,0.355,0.19
		c-0.305,0.153-0.629,0.04-0.943,0.069c0.039-0.072,0.183-0.082,0.148-0.185c-0.169-0.506,0.147-0.698,0.532-0.852
		c0.371-0.083,0.747-0.12,1.125-0.089C11.453,13.221,11.488,13.319,11.254,13.658z"/>
	<path class="st59" d="M18.758,14.492c-0.317-0.014-0.635-0.037-0.94,0.084c-0.12-0.157-0.301-0.027-0.44-0.093
		c0.452-0.172,0.916-0.067,1.376-0.065c0.022,0.015,0.03,0.031,0.024,0.048C18.772,14.483,18.765,14.492,18.758,14.492z"/>
	<path class="st60" d="M18.758,14.492c-0.001-0.025-0.003-0.049-0.004-0.074c0.251,0.017,0.493,0.064,0.701,0.218
		c-0.036,0.038-0.072,0.076-0.108,0.114C19.151,14.664,18.955,14.578,18.758,14.492z"/>
	<path class="st61" d="M10.273,24.58c0,0.256-0.005,0.512,0.001,0.768c0.006,0.226-0.149,0.245-0.312,0.254
		c-0.216,0.012-0.163-0.155-0.164-0.269c-0.005-0.483,0.003-0.967-0.004-1.45c-0.003-0.189,0.051-0.291,0.258-0.301
		c0.258-0.012,0.216,0.164,0.218,0.316c0.003,0.227,0.001,0.455,0.001,0.683C10.272,24.58,10.273,24.58,10.273,24.58z"/>
	<path class="st62" d="M19.49,23.743c0.024,0.177-0.034,0.254-0.228,0.254c-0.218,0-0.254-0.108-0.256-0.288
		c-0.002-0.176,0.059-0.247,0.244-0.254C19.479,23.447,19.504,23.573,19.49,23.743z"/>
	<path class="st63" d="M9.965,13.544c0.323-0.189,0.679-0.16,1.031-0.158c0.105,0.001,0.155,0.052,0.141,0.158
		c-0.296,0.25-0.56,0.542-0.925,0.702c-0.242,0.023-0.489,0.049-0.607-0.237c-0.068-0.164-0.042-0.301,0.148-0.367
		C9.852,13.672,9.982,13.767,9.965,13.544z"/>
	<path class="st64" d="M25.08,12.698c0.089,0.045,0.252-0.02,0.258,0.145c0.003,0.106-0.109,0.12-0.188,0.125
		c-0.079,0.005-0.209,0.004-0.232-0.038c-0.081-0.154,0.13-0.139,0.167-0.234C25.085,12.696,25.08,12.698,25.08,12.698z"/>
	<path class="st65" d="M18.972,14.788c-0.293,0.105-0.504,0.102-0.741-0.099C18.504,14.604,18.713,14.626,18.972,14.788z"/>
	<path class="st66" d="M13.837,9.948c0.395-0.616,1.461-0.897,2.021-0.566c0.127,0.075,0.233,0.178,0.222,0.334
		c-0.01,0.15-0.106,0.266-0.244,0.32c-0.116,0.045-0.247,0.088-0.367,0.078C14.936,10.07,14.405,10.007,13.837,9.948z"/>
	<path class="st67" d="M22.229,11.093c-0.44-0.067-0.872-0.116-1.297-0.204c-0.222-0.046-0.31-0.241-0.29-0.46
		c0.02-0.218,0.171-0.309,0.377-0.333C21.548,10.036,22.105,10.481,22.229,11.093z"/>
	<path class="st68" d="M10.136,11.678c0.412,0.062,0.701,0.326,1.063,0.639c-0.516,0.155-0.959,0.195-1.399-0.006
		c-0.204-0.093-0.288-0.272-0.208-0.495c0.078-0.215,0.228-0.273,0.435-0.167c-0.003,0.035-0.021,0.083,0.026,0.094
		C10.094,11.753,10.114,11.707,10.136,11.678z"/>
	<path class="st69" d="M10.136,11.678c0.02,0.082,0.248,0.156,0.024,0.244c-0.113,0.045-0.285,0.063-0.346-0.067
		c-0.098-0.21,0.116-0.162,0.214-0.206C10.064,11.659,10.1,11.669,10.136,11.678z"/>
	<path class="st70" d="M9.965,13.544c0.073,0.048,0.242,0.034,0.181,0.173c-0.057,0.13-0.205,0.206-0.353,0.17
		c-0.159-0.039-0.039-0.16-0.041-0.244C9.792,13.542,9.885,13.557,9.965,13.544z"/>
</g>
</svg>
