<?xml version="1.0" encoding="utf-8"?>
<!-- Generator: Adobe Illustrator 22.0.1, SVG Export Plug-In . SVG Version: 6.00 Build 0)  -->
<svg version="1.1" id="Layer_1" xmlns="http://www.w3.org/2000/svg" xmlns:xlink="http://www.w3.org/1999/xlink" x="0px" y="0px"
	 viewBox="0 0 32 32" style="enable-background:new 0 0 32 32;" xml:space="preserve">
<style type="text/css">
	.st0{fill:#FFFFFF;}
	.st1{fill:#F7B930;}
</style>
<g>
	<circle class="st0" cx="16.072" cy="15.956" r="14.458"/>
	<g>
		<path class="st1" d="M12.552,16.311l1.316-1.403c0,0,0.788-0.671-0.084-0.756c0,0-0.848,0.001-0.814-0.752
			c0,0,0.219-0.263-0.353-0.345l-0.148,0.09l-1.892,1.972c0,0-0.32,0.502,0.143,0.93l0.725,0.614
			C11.445,16.663,11.97,17.046,12.552,16.311z"/>
		<path class="st1" d="M14.473,22.263c0.07-0.103,0.106-0.232,0.106-0.387c0-0.174-0.046-0.314-0.139-0.421
			c-0.093-0.107-0.224-0.174-0.393-0.203c-0.085-0.012-0.338-0.018-0.761-0.018h-0.814v1.31h0.771c0.5,0,0.812-0.021,0.937-0.063
			C14.305,22.44,14.403,22.367,14.473,22.263z"/>
		<path class="st1" d="M18.915,9.109c0,0-0.225,0.258,0.344,0.354l0.15-0.086l1.943-1.921c0,0,0.333-0.494-0.118-0.934l-0.708-0.633
			c0,0-0.515-0.397-1.116,0.322l-1.353,1.368c0,0-0.805,0.65,0.064,0.758C18.121,8.336,18.969,8.357,18.915,9.109z"/>
		<path class="st1" d="M15.973,0.213C7.278,0.213,0.23,7.262,0.23,15.956s7.048,15.743,15.743,15.743s15.743-7.048,15.743-15.743
			S24.668,0.213,15.973,0.213z M16.489,9.785l0.462-0.408l-0.311-0.483c0,0-0.301-0.998-0.043-1.535
			c0.258-0.537,0.097-0.182,0.097-0.182l2.201-2.243c0,0,1.17-1.073,2.501,0l0.988,0.998c0,0,0.784,0.88,0.172,1.986
			c0,0-0.172,0.483-0.687,0.902l-1.707,1.642c0,0-0.88,0.601-1.986,0.097l-0.29-0.215l-1.395,1.277V9.785z M18.661,11.789v1.202
			l-0.172-0.086l-1.259-0.572L18.661,11.789z M15.34,7.635l-0.1,2.29l-1.331-1.789L15.34,7.635z M12.704,9.764l2.138,0.567
			l-2.353,0.895L12.704,9.764z M10.567,21.235H8.07v1.222h2.156v0.874H8.07v2.194H7.027v-5.164h3.54V21.235z M9.587,16.669
			c0,0-0.806-0.859-0.224-1.981c0,0,0.159-0.487,0.663-0.919l1.663-1.687c0,0,0.864-0.624,1.983-0.149l0.295,0.207l1.361-1.314
			l0.048,1.835l-0.451,0.42l0.324,0.475c0,0,0.327,0.99,0.083,1.533c-0.243,0.543-0.092,0.185-0.092,0.185l-2.141,2.301
			c0,0-1.141,1.104-2.5,0.066L9.587,16.669z M14.825,25.525l-0.754-1.124c-0.268-0.402-0.451-0.655-0.549-0.759
			c-0.099-0.104-0.203-0.176-0.313-0.215c-0.11-0.039-0.285-0.058-0.525-0.058h-0.211v2.156H11.43v-5.164h2.194
			c0.552,0,0.953,0.046,1.203,0.139c0.25,0.093,0.45,0.258,0.601,0.495c0.15,0.237,0.225,0.508,0.225,0.814
			c0,0.387-0.114,0.707-0.342,0.96c-0.228,0.252-0.568,0.412-1.021,0.477c0.225,0.131,0.412,0.276,0.558,0.433
			c0.147,0.157,0.345,0.437,0.593,0.838l0.631,1.007H14.825z M18.488,13.656l-1.326,1.379l-0.938-2.172L18.488,13.656z
			 M20.563,25.525h-3.927v-5.164h3.829v0.873h-2.786v1.145h2.592v0.87h-2.592v1.405h2.885V25.525z M25.374,25.525h-3.927v-5.164
			h3.829v0.873H22.49v1.145h2.592v0.87H22.49v1.405h2.885V25.525z"/>
	</g>
</g>
</svg>
