<?xml version="1.0" encoding="utf-8"?>
<!-- Generator: Adobe Illustrator 24.0.2, SVG Export Plug-In . SVG Version: 6.00 Build 0)  -->
<svg version="1.1" id="Layer_1" xmlns="http://www.w3.org/2000/svg" xmlns:xlink="http://www.w3.org/1999/xlink" x="0px" y="0px"
	 viewBox="0 0 32 32" style="enable-background:new 0 0 32 32;" xml:space="preserve">
<style type="text/css">
	.st0{fill:#EC6D01;}
	.st1{fill:#FEFDFC;}
</style>
<g>
	<circle class="st0" cx="16" cy="16" r="15.881"/>
	<path class="st1" d="M28.345,9.469c-0.136,0.546-0.264,1.066-0.396,1.585c-0.172,0.675-0.173,0.675-0.836,0.487
		c-2.631-0.745-5.263-1.485-7.891-2.241c-0.272-0.078-0.359-0.02-0.414,0.241c-0.097,0.455-0.211,0.907-0.348,1.352
		c-0.088,0.288-0.044,0.409,0.276,0.496c2.268,0.616,4.529,1.257,6.792,1.89c0.247,0.069,0.49,0.149,0.74,0.206
		c0.156,0.035,0.216,0.088,0.169,0.259c-0.176,0.651-0.346,1.305-0.505,1.961c-0.062,0.253-0.207,0.149-0.346,0.11
		c-1.624-0.456-3.249-0.911-4.873-1.368c-0.851-0.239-1.706-0.466-2.55-0.73c-0.312-0.098-0.407-0.021-0.483,0.281
		c-0.619,2.472-1.254,4.94-1.885,7.409c-0.325,1.274-0.662,2.546-0.97,3.824c-0.071,0.295-0.169,0.324-0.445,0.246
		c-3.435-0.979-6.873-1.949-10.314-2.907c-0.333-0.093-0.459-0.186-0.331-0.556c0.178-0.515,0.305-1.051,0.418-1.585
		c0.061-0.287,0.168-0.305,0.427-0.23c2.708,0.772,5.422,1.523,8.128,2.301c0.336,0.097,0.434,0.025,0.495-0.297
		c0.087-0.456,0.216-0.906,0.344-1.353c0.065-0.228,0.009-0.313-0.228-0.379c-2.443-0.683-4.882-1.381-7.322-2.074
		c-0.474-0.135-0.476-0.133-0.352-0.621c0.133-0.519,0.288-1.032,0.397-1.555c0.053-0.253,0.134-0.281,0.369-0.214
		c2.427,0.696,4.858,1.379,7.288,2.067c0.504,0.143,0.504,0.146,0.63-0.344c0.951-3.709,1.906-7.416,2.846-11.128
		c0.073-0.29,0.164-0.33,0.441-0.251c3.48,0.992,6.963,1.971,10.445,2.959C28.164,9.337,28.332,9.308,28.345,9.469z"/>
</g>
</svg>
