<?xml version="1.0" encoding="UTF-8"?> <!-- Creator: CorelDRAW 2020 (64 Bit) --> <svg xmlns="http://www.w3.org/2000/svg" xmlns:xlink="http://www.w3.org/1999/xlink" xmlns:xodm="http://www.corel.com/coreldraw/odm/2003" xml:space="preserve" width="79.375mm" height="66.1458mm" version="1.1" style="shape-rendering:geometricPrecision; text-rendering:geometricPrecision; image-rendering:optimizeQuality; fill-rule:evenodd; clip-rule:evenodd" viewBox="0 0 7937.5 6614.58"> <defs> <style type="text/css"> <![CDATA[ .str0 {stroke:#AABDE5;stroke-width:20;stroke-miterlimit:22.9256} .str1 {stroke:#EAC012;stroke-width:20;stroke-miterlimit:22.9256} .str2 {stroke:white;stroke-width:20;stroke-miterlimit:22.9256} .fil0 {fill:#004AAD} .fil2 {fill:#AABDE5} .fil3 {fill:#EAC012} .fil4 {fill:white} .fil1 {fill:white} ]]> </style> </defs> <g id="Camada_x0020_1"> <metadata id="CorelCorpID_0Corel-Layer"></metadata> <circle class="fil0" cx="4172.23" cy="3278.02" r="2146.08"></circle> <path class="fil1" d="M4958.27 1108.43c958.95,0 1736.34,750.24 1736.34,1675.7 0,925.46 -777.39,1675.7 -1736.34,1675.7 -958.94,0 -1736.33,-750.24 -1736.33,-1675.7 0,-925.46 777.39,-1675.7 1736.33,-1675.7z"></path> <circle class="fil2 str0" cx="2637.65" cy="2096.21" r="114.65"></circle> <circle class="fil2 str0" cx="2373.06" cy="2695.93" r="114.65"></circle> <circle class="fil2 str0" cx="2796.4" cy="2908.57" r="124.44"></circle> <path class="fil3 str1" d="M3844.05 4363.46l-416.46 -397.53c-283.74,291.28 -406.78,549.98 -369.12,776.12 384.33,-44.57 646.19,-170.76 785.58,-378.59z"></path> <path class="fil3 str1" d="M3588.64 3386.73l810.54 866.45 0 754.63c607.99,-197.06 862.63,-597.68 763.94,-1201.83 639.07,-337.53 1002.42,-1101.47 1090.03,-2291.86 -1102.94,51.85 -1857.58,412.08 -2263.91,1080.72 -590.24,-90.88 -978.43,176.19 -1164.56,801.21l763.96 -9.32z"></path> <circle class="fil4 str2" cx="4979.06" cy="2727.38" r="287.46"></circle> </g> </svg> 