<?xml version="1.0" encoding="utf-8"?>
<!-- Generator: Adobe Illustrator 26.0.1, SVG Export Plug-In . SVG Version: 6.00 Build 0)  -->
<svg version="1.1" id="Layer_1" xmlns="http://www.w3.org/2000/svg" xmlns:xlink="http://www.w3.org/1999/xlink" x="0px" y="0px"
	 viewBox="0 0 32 32" style="enable-background:new 0 0 32 32;" xml:space="preserve">
<style type="text/css">
	.st0{fill-rule:evenodd;clip-rule:evenodd;fill:#1969FF;}
	.st1{fill:#FFFFFF;}
</style>
<g>
	<circle class="st0" cx="16" cy="16" r="16"/>
	<path id="Shape" class="st1" d="M15.007,5.08c0.517-0.273,1.305-0.273,1.822,0l5.28,2.784c0.312,0.164,0.483,0.409,0.513,0.662
		h0.005v13.993c-0.007,0.276-0.18,0.55-0.519,0.728l-5.28,2.784c-0.517,0.273-1.305,0.273-1.822,0l-5.28-2.784
		c-0.337-0.178-0.499-0.454-0.507-0.728c-0.001-0.028-0.001-0.051,0-0.07l0-13.828c-0.001-0.019-0.001-0.039,0-0.058l0-0.036h0.002
		C9.245,8.27,9.408,8.032,9.727,7.864L15.007,5.08z M21.789,16.306l-4.961,2.624c-0.517,0.273-1.303,0.273-1.82,0l-4.95-2.618v6.164
		l4.95,2.604c0.293,0.156,0.597,0.309,0.893,0.316l0.017,0c0.296,0.001,0.583-0.149,0.874-0.292l4.997-2.651V16.306z M8.391,22.216
		c0,0.536,0.062,0.889,0.184,1.137c0.102,0.206,0.254,0.363,0.533,0.555l0.016,0.011c0.061,0.042,0.128,0.085,0.21,0.136l0.097,0.06
		l0.297,0.181l-0.426,0.71L8.97,24.803l-0.056-0.035c-0.096-0.06-0.176-0.111-0.25-0.162c-0.794-0.54-1.09-1.129-1.096-2.354
		l0-0.037H8.391z M15.519,12.586c-0.038,0.013-0.074,0.029-0.107,0.046l-5.272,2.793c-0.006,0.003-0.011,0.006-0.016,0.009
		l-0.004,0.003l0.008,0.005l0.012,0.007l5.272,2.793c0.033,0.017,0.069,0.033,0.107,0.046V12.586z M16.359,12.586v5.7
		c0.038-0.013,0.074-0.029,0.107-0.046l5.272-2.793c0.006-0.003,0.011-0.006,0.016-0.009l0.004-0.003l-0.008-0.005l-0.012-0.007
		l-5.272-2.793C16.433,12.614,16.397,12.599,16.359,12.586z M21.789,9.526l-4.74,2.49l4.74,2.49V9.526z M10.059,9.526v4.98
		l4.74-2.49L10.059,9.526z M16.461,5.824c-0.274-0.145-0.771-0.145-1.045,0l-5.277,2.79c-0.006,0.003-0.011,0.006-0.016,0.009
		l-0.004,0.003l0.008,0.005l0.012,0.007l5.277,2.79c0.274,0.145,0.771,0.145,1.045,0l5.277-2.79
		c0.006-0.003,0.011-0.006,0.016-0.009l0.004-0.003L21.75,8.621l-0.012-0.007L16.461,5.824z M22.574,6.106l0.332,0.202l0.056,0.035
		c0.096,0.06,0.176,0.111,0.25,0.162c0.794,0.54,1.09,1.129,1.096,2.354l0,0.037h-0.823c0-0.536-0.062-0.889-0.184-1.137
		c-0.102-0.206-0.254-0.363-0.533-0.555l-0.016-0.011c-0.061-0.042-0.128-0.085-0.21-0.136l-0.097-0.06l-0.297-0.181L22.574,6.106z"
		/>
</g>
</svg>
