<?xml version="1.0" encoding="utf-8"?>
<!-- Generator: Adobe Illustrator 25.2.3, SVG Export Plug-In . SVG Version: 6.00 Build 0)  -->
<svg version="1.1" id="Layer_1" xmlns="http://www.w3.org/2000/svg" xmlns:xlink="http://www.w3.org/1999/xlink" x="0px" y="0px"
	 viewBox="0 0 32 32" style="enable-background:new 0 0 32 32;" xml:space="preserve">
<style type="text/css">
	.st0{fill-rule:evenodd;clip-rule:evenodd;fill:#05B1FD;}
	.st1{fill:#F8FCFC;}
</style>
<g>
	<circle class="st0" cx="16" cy="16" r="16"/>
	<path class="st1" d="M24.952,7.379c-1.525,1.535-3,3.019-4.51,4.539c-1.381-1.352-3.079-1.854-4.991-1.618
		c-1.12,0.138-2.121,0.604-2.966,1.357c-2.067,1.841-2.623,4.65-1.424,7.097c1.083,2.209,3.735,3.573,6.07,3.195
		c2.955-0.479,4.631-2.845,4.861-4.516c-2.287,0-4.567,0-6.939,0c0.929-0.885,1.778-1.693,2.751-2.62c2.142,0,4.507,0,6.869,0
		c0.613,2.895-0.692,6.393-3.619,8.369c-2.737,1.847-7.207,2.314-10.745-1.011c-0.39,0.264-0.673,0.65-1.019,0.966
		c-0.138,0.126-0.263,0.238-0.461,0.238c-1.064-0.002-2.129-0.001-3.193-0.005c-0.054,0-0.108-0.032-0.229-0.07
		c1.144-1.117,2.252-2.2,3.335-3.257c-1.886-3.968-0.689-7.805,1.693-10.079c2.473-2.361,6.216-3.152,9.719-1.466
		c0.351-0.235,0.621-0.576,0.924-0.88c0.12-0.12,0.226-0.24,0.409-0.24C22.623,7.378,23.759,7.379,24.952,7.379z"/>
</g>
</svg>
