<?xml version="1.0" encoding="utf-8"?>
<!-- Generator: Adobe Illustrator 25.2.3, SVG Export Plug-In . SVG Version: 6.00 Build 0)  -->
<svg version="1.1" id="Layer_1" xmlns="http://www.w3.org/2000/svg" xmlns:xlink="http://www.w3.org/1999/xlink" x="0px" y="0px"
	 viewBox="0 0 32 32" style="enable-background:new 0 0 32 32;" xml:space="preserve">
<style type="text/css">
	.st0{fill:#FEFEFE;}
	.st1{fill-rule:evenodd;clip-rule:evenodd;fill:#F1B31E;}
	.st2{fill:#FFFFFF;}
</style>
<g>
	<path class="st0" d="M512.31,401.059c21.868,0,42.645,0.028,63.422-0.045c2.009-0.007,2.988,1.15,4.059,2.401
		c23.175,27.057,46.466,54.016,69.468,81.219c13.323,15.756,13.37,36.881,0.068,52.635c-22.983,27.219-46.285,54.17-69.447,81.238
		c-1.205,1.408-2.364,2.498-4.531,2.489c-20.635-0.089-41.271-0.053-61.973-0.053c-0.195-2.201,1.512-3.042,2.507-4.206
		c24.117-28.225,48.278-56.412,72.433-84.603c12.816-14.957,12.839-27.286,0.076-42.18c-24.265-28.317-48.528-56.635-72.789-84.955
		C514.751,404.005,513.922,402.99,512.31,401.059z"/>
	<path class="st0" d="M643.266,445.857c12.184-14.797,23.815-28.897,35.399-43.036c1.051-1.283,2.197-1.792,3.84-1.79
		c25.946,0.036,51.892,0.026,78.305,0.026c-0.658,2.038-2.212,2.75-3.38,3.703c-17.66,14.415-35.417,28.713-52.995,43.227
		c-8.36,6.903-17.49,8.969-27.947,6.194C665.745,451.33,654.926,448.765,643.266,445.857z"/>
	<path class="st0" d="M760.48,620.946c-3.763,0-7.527,0-11.29,0c-21.638,0-43.276-0.018-64.914,0.025
		c-2.394,0.005-4.388-0.152-6.131-2.305c-11.102-13.702-22.351-27.287-33.536-40.922c-0.298-0.363-0.421-0.87-0.801-1.688
		c13.037-3.114,25.691-7.181,38.8-9.271c7.031-1.121,13.652,0.828,19.198,5.292c19.697,15.854,39.277,31.855,58.901,47.8
		C760.631,620.233,760.556,620.589,760.48,620.946z"/>
</g>
<g>
	<circle class="st1" cx="16" cy="16" r="16"/>
	<g>
		<path class="st2" d="M9.713,16.714H7.808v-1.301h3.459v4.285c-0.127,0.046-0.289,0.095-0.486,0.146
			c-0.196,0.051-0.417,0.097-0.66,0.137c-0.243,0.04-0.494,0.073-0.752,0.099s-0.514,0.037-0.768,0.037
			c-0.762,0-1.427-0.103-1.997-0.308c-0.569-0.205-1.043-0.494-1.422-0.866c-0.378-0.372-0.662-0.815-0.851-1.33
			C4.145,17.098,4.05,16.53,4.05,15.908c0-0.44,0.05-0.86,0.149-1.26c0.099-0.4,0.245-0.771,0.438-1.111
			c0.193-0.341,0.427-0.648,0.702-0.923c0.275-0.275,0.589-0.511,0.943-0.705c0.353-0.194,0.74-0.344,1.161-0.447
			c0.421-0.104,0.873-0.156,1.355-0.156c0.427,0,0.833,0.031,1.219,0.093s0.7,0.136,0.946,0.226v1.32
			c-0.33-0.106-0.664-0.187-1-0.242c-0.337-0.055-0.676-0.082-1.019-0.082c-0.461,0-0.893,0.068-1.295,0.206
			c-0.402,0.138-0.75,0.341-1.044,0.609c-0.294,0.269-0.525,0.601-0.695,0.993c-0.169,0.395-0.254,0.849-0.254,1.365
			c0.004,1.003,0.267,1.754,0.787,2.256c0.521,0.501,1.259,0.752,2.215,0.752c0.178,0,0.362-0.01,0.552-0.028
			c0.19-0.02,0.357-0.044,0.501-0.073V16.714z"/>
		<path class="st2" d="M19.322,13.725c0,0.368-0.082,0.706-0.247,1.013s-0.438,0.562-0.819,0.765v0.025
			c0.212,0.072,0.405,0.164,0.581,0.276s0.326,0.245,0.451,0.399s0.222,0.329,0.292,0.524c0.069,0.194,0.104,0.412,0.104,0.653
			c0,0.207-0.033,0.43-0.099,0.667c-0.065,0.236-0.181,0.466-0.346,0.688c-0.165,0.222-0.385,0.426-0.66,0.612
			s-0.622,0.334-1.041,0.444c-0.105,0.025-0.221,0.049-0.346,0.069c-0.125,0.021-0.263,0.04-0.416,0.055s-0.321,0.025-0.508,0.031
			c-0.187,0.007-0.396,0.01-0.628,0.01h-2.47v-8.493h2.952c0.63,0,1.137,0.063,1.522,0.19c0.288,0.093,0.538,0.215,0.75,0.365
			c0.211,0.15,0.386,0.317,0.523,0.501c0.138,0.185,0.239,0.379,0.305,0.584S19.322,13.518,19.322,13.725z M16.13,14.962
			c0.423,0,0.738-0.042,0.946-0.127c0.232-0.097,0.398-0.231,0.498-0.402c0.1-0.172,0.148-0.365,0.148-0.581
			c0-0.225-0.057-0.424-0.171-0.6s-0.309-0.306-0.583-0.391c-0.114-0.034-0.247-0.059-0.399-0.073s-0.341-0.021-0.565-0.021h-1.276
			v2.195H16.13z M14.727,16.264v2.393h1.016c0.271,0,0.503-0.008,0.698-0.022c0.194-0.015,0.361-0.039,0.501-0.073
			c0.216-0.047,0.395-0.109,0.54-0.188c0.144-0.078,0.26-0.167,0.349-0.267s0.152-0.209,0.19-0.33
			c0.038-0.12,0.057-0.248,0.057-0.384c0-0.237-0.065-0.444-0.196-0.622s-0.337-0.312-0.616-0.399
			c-0.122-0.039-0.265-0.066-0.431-0.083c-0.164-0.017-0.376-0.025-0.635-0.025H14.727z"/>
		<path class="st2" d="M25.404,12.62c-0.424,0-0.814,0.07-1.172,0.209c-0.357,0.141-0.664,0.344-0.92,0.609
			c-0.256,0.268-0.456,0.596-0.6,0.987c-0.145,0.392-0.217,0.839-0.217,1.343c0,0.499,0.066,0.938,0.197,1.317
			c0.131,0.379,0.319,0.694,0.564,0.948c0.246,0.254,0.545,0.446,0.898,0.575s0.755,0.193,1.203,0.193
			c0.321,0,0.649-0.025,0.984-0.076c0.334-0.051,0.646-0.125,0.939-0.222v1.339c-0.297,0.085-0.616,0.151-0.959,0.2
			s-0.698,0.072-1.066,0.072c-0.72,0-1.352-0.103-1.898-0.308c-0.545-0.205-1.001-0.495-1.367-0.869
			c-0.366-0.375-0.642-0.823-0.825-1.346c-0.185-0.522-0.276-1.099-0.276-1.729c0-0.648,0.099-1.249,0.295-1.803
			c0.197-0.555,0.48-1.035,0.851-1.441s0.834-0.726,1.391-0.959c0.557-0.232,1.186-0.351,1.888-0.355
			c0.36,0,0.701,0.024,1.022,0.073s0.611,0.118,0.87,0.206v1.32c-0.339-0.105-0.654-0.18-0.946-0.222S25.683,12.62,25.404,12.62z"/>
	</g>
</g>
</svg>
