<?xml version="1.0" encoding="UTF-8"?>
<svg id="Layer_1" data-name="Layer 1" xmlns="http://www.w3.org/2000/svg" version="1.1" viewBox="0 0 32 32">
  <defs>
    <style>
      .cls-1 {
        fill: #ca6130;
      }

      .cls-1, .cls-2, .cls-3, .cls-4, .cls-5, .cls-6, .cls-7, .cls-8, .cls-9, .cls-10, .cls-11, .cls-12, .cls-13, .cls-14, .cls-15, .cls-16, .cls-17, .cls-18, .cls-19, .cls-20, .cls-21, .cls-22, .cls-23, .cls-24, .cls-25 {
        stroke-width: 0px;
      }

      .cls-2 {
        fill: #fcc593;
      }

      .cls-3 {
        fill: #070103;
      }

      .cls-4 {
        fill: #ac2412;
      }

      .cls-5 {
        fill: #fcc694;
      }

      .cls-6 {
        fill: #ca3516;
      }

      .cls-7 {
        fill: #050103;
      }

      .cls-8 {
        fill: #c53215;
      }

      .cls-9 {
        fill: #fccca0;
      }

      .cls-10 {
        fill: #fdca9a;
      }

      .cls-11 {
        fill: #f8b614;
      }

      .cls-12 {
        fill: #fcc28f;
      }

      .cls-13 {
        fill: #fccda0;
      }

      .cls-14 {
        fill: #ca5f2f;
      }

      .cls-15 {
        fill: #170505;
      }

      .cls-16 {
        fill: #5f9cca;
      }

      .cls-17 {
        fill: #090103;
      }

      .cls-18 {
        fill: #c93516;
      }

      .cls-19 {
        fill: #7a80d6;
      }

      .cls-20 {
        fill: #390f09;
      }

      .cls-21 {
        fill: #fecfa0;
      }

      .cls-22 {
        fill: #f5ae17;
      }

      .cls-23 {
        fill: #150404;
      }

      .cls-24 {
        fill: #f7a162;
      }

      .cls-25 {
        fill: #c93416;
      }
    </style>
  </defs>
  <circle class="cls-19" cx="16" cy="16" r="16"/>
  <path class="cls-3" d="M16.021,5.535l.888.023.654.093.608.14.444.14.608.257.608.327.444.28.327.234.374.304.234.21.187.164.234.21.654.701.257.327.234.327.234.397.187.327.234.421.187.374.327.678.257.654.07.234.327-.187.304-.093.14-.023.421.023.351.117.304.164.234.21.187.187.21.257.164.234.187.304.187.467.14.444.14.631.093.608.047.514v1.379l-.07.911-.14,1.192-.117.678-.164.654-.234.678-.234.561-.21.397-.234.397-.257.351-.21.234-.023.047h-.047l-.047.093-.117.117h-.047v.047l-.187.164-.234.21-.397.304-.304.187-.491.21-.257.07-.164.023h-.421l-.304-.093-.234-.164-.234-.21-.21-.28-.117.023-.14.257-.164.21-.21.187-.327.164-.327.093-.164.023h-.444l-.397-.07-.327-.117-.327-.187-.234-.21-.14-.164-.14-.234-.117-.327-.093-.421-.07-.608-.023-.257-.07-1.542-.117-1.005-.164-1.075-.21-1.379-.07-.748v-.421l.047-.584.093-.514.117-.421.234-.561.21-.374.234-.327.304-.304.28-.164.234-.07h.327l-.234-.608-.21-.467-.234-.421-.234-.327-.187-.21v-.047h-.047l-.164-.187-.234-.21-.374-.28-.421-.257-.351-.187-.561-.21-.304-.07-.234-.023h-.584l-.327.047-.608.187-.444.21-.327.234-.304.28-.07.07h-.047l-.047.093-.187.21-.234.327-.21.351-.21.374-.257.631-.164.444v.07l.187-.047h.327l.234.07.257.14.257.21.21.234.21.304.164.351.117.304.117.421.07.444.023.304v1.028l-.047.724-.093.771-.234,1.659-.07.678-.023.374-.047,1.309-.093,1.098-.093.444-.14.374-.164.257-.234.21-.257.164-.327.14-.327.093-.164.023h-.351l-.397-.047-.351-.117-.327-.187-.234-.21-.187-.304-.047-.117-.187-.047-.257.327-.164.164-.304.187-.187.07h-.374l-.491-.117-.374-.164-.327-.21-.327-.28-.584-.584v-.047l-.07-.023-.257-.327-.234-.304-.164-.257-.257-.444-.28-.561-.304-.771-.234-.748-.187-.818-.14-.888-.093-.865-.023-.351v-1.075l.07-.561.117-.561.234-.701.257-.608.21-.351.187-.28.187-.234.21-.234.21-.21.327-.234.304-.187.257-.093.351-.023.304.07.304.14.023-.14.304-.654.351-.654.327-.538.421-.631.304-.421.234-.304.304-.374.257-.304.327-.351.421-.421.327-.257.351-.257.491-.28.351-.187.631-.257.678-.234.584-.164.538-.117.748-.07.374-.023ZM16.045,5.722l-.888.07-.351.047-.584.14-.561.164-.584.21-.561.234-.491.257-.444.28-.421.327-.374.351-.304.304-.164.187v.047h-.047l-.257.327-.234.28-.21.28-.327.444-.07.117v.047h-.047l-.467.748-.28.491-.234.444-.21.444-.257.678-.164.584-.117.631-.07.561-.07,1.122v2.01l.047.795.093.841.093.584.117.538.21.678.21.584.28.654.187.374.14.257.21.327.164.234.257.304.187.164.234.164.28.14.257.07h.467l.467-.093.28-.14.28-.187.187-.187.14-.234.093-.234.047-.21v-.538l-.117-.584-.187-.701-.117-.374-.117-.327-.093-.327-.093-.397-.047-.21-.14-.795-.093-.841-.023-.421v-.701l.023-.678.047-.631.093-.608.164-.701.117-.374.164-.491.304-.795.117-.257.093-.234.304-.538.257-.374.187-.234.21-.234.187-.187.257-.21.234-.164.374-.187.444-.164.327-.093.304-.047h.748l.421.07.467.164.304.14.234.117.374.234.421.304.234.21.14.117.023.047h.047l.047.093.21.234.257.374.21.374.21.444.21.538.093.257.093.304.093.257.164.584.117.538.093.584.093,1.122v1.028l-.047.631-.093.608-.117.444-.117.491-.351,1.075-.164.584-.07.28-.023.187v.654l.047.28.093.28.14.257.21.234.21.187.21.117.187.093.374.117.187.023h.561l.374-.117.327-.187.234-.21.164-.21.28-.514.234-.514.257-.678.187-.608.164-.584.21-.911.187-1.028.07-.608v-2.127l-.07-1.239-.07-.631-.14-.818-.164-.678-.234-.654-.21-.491-.304-.654-.28-.514-.28-.491-.234-.397-.21-.28-.187-.234-.257-.304-.21-.21-.164-.187-.351-.351-.187-.164-.304-.257-.304-.234-.374-.257-.304-.187-.421-.234-.538-.257-.351-.14-.584-.164-.491-.093-.514-.07-.818-.023Z"/>
  <path class="cls-6" d="M16.045,5.722l.818.023.678.093.584.14.444.14.444.187.514.257.351.21.257.164.327.234.327.257.304.257.351.327.28.28.164.187.164.164.21.257.28.374.164.257.234.397.467.841.304.654.14.327.234.608.14.467.164.795.093.584.07.865.047.865v2.127l-.07.608-.21,1.145-.257,1.075-.28.911-.304.795-.304.631-.257.421-.234.234-.14.093-.14.047-.14.023-.164-.093-.187-.257-.164-.397-.117-.374-.047-.28.351-.07.234-.164.117-.047.023-.07.164-.14.187-.28.187-.421.093-.397v-.608l-.07-.327-.14-.397-.14-.351-.023-.093v-.21l.07-.234.21-.327.257-.304.21-.327.117-.234.117-.374.023-.14v-.491l-.093-.444-.14-.351-.14-.257-.07-.093v-.047l-.07-.023-.164-.187-.14-.117-.164-.257-.023-.07v-.304l.187-.584.023-.164v-.444l-.093-.28-.14-.21-.14-.164-.234-.187-.047-.093v-.187l.07-.164.28-.257.164-.234.023-.093v-.164l-.023-.07-.093-.047h-.164l-.374.164-.28.117h-.187l-.14-.047-.117-.07-.093-.164v-.234l.093-.21.14-.21.21-.187.257-.164.093-.117v-.21l-.117-.117-.14-.047h-.28l-.257.093-.164.093-.117-.023-.117-.117-.093-.257-.093-.234-.164-.257-.28-.327-.374-.374-.351-.257-.631-.327-.164-.047h-.234l-.047.047v.187l.187.257.234.21.257.21.257.234v.07l-.467.023-.28.093h-.257l-.818-.257-.888-.28-.047-.093.304-.093.654-.14.304-.117.07-.023.047-.093.023-.14-.07-.14-.164-.14-.28-.14-.374-.117-.374-.07-.748-.023-.14.093-.023.023.023.164.28.117.467.117.047.023v.047l-.374.164-.187.164-.164.21-.07.047h-.164l-.07-.21-.07-.28-.14-.28-.093-.07-.117-.023-.117.047-.093.117-.07.187-.023.093-.023.514-.047.047-.14-.023-.164-.047h-.21l-.234.07-.257.14-.327.21-.093.047h-.164l-.093-.093-.07-.21-.07-.584-.047-.304-.093-.257-.14-.187-.117-.093-.07-.023h-.187l-.093.023-.07.14v.351l.07.304.117.561.187.724-.023.07-.07.023-.07-.023h-.327l-.234.117-.257.21-.21.187h-.047v.047l-.07.07h-.047l-.047.093-.234.28-.14.28-.023.187.047.14.117.07.21-.047.21-.164.397-.397.164-.14.023.07-.14.257-.21.257-.257.234-.187.14-.304.117h-.304l-.187-.093-.14-.164-.047-.14v-.257l.164-.327.164-.164.304-.234.14-.117.164-.187.14-.234.047-.117v-.351l-.07-.14-.07-.07-.07-.023h-.21l-.28.093-.257.164-.257.257-.234.351-.21.444-.093.304-.07.374v.654l.07.327.117.28.117.21v.07l-.374.187-.07.07h-.047l-.023.07-.14.117-.187.28-.093.327v.257l.093.234.187.234.234.21.14.187.07.187v.28l-.164.327-.187.187-.164.187-.28.304-.21.327-.14.28-.093.374v.467l.093.257.164.257.234.21.234.164.327.234.21.234.14.234.117.257.047.21v.467l-.07.234-.14.234-.21.234-.164.164-.21.304-.117.28-.047.187v.304l.07.14.117.093.07.023h.28l.234-.093.28-.21.257-.257.07-.093.047.023-.07.164h-.047l-.047.14-.234.351-.117.14-.187.164-.234.164-.234.117-.187.047h-.374l-.093-.07-.257-.561-.304-.771-.21-.654-.14-.538-.117-.631-.093-.748-.047-.561-.023-.514v-2.01l.07-1.122.093-.724.14-.654.164-.514.21-.561.374-.771.351-.608.257-.421.21-.327h.047l.047-.117.28-.397.21-.28.304-.374.187-.234.07-.093h.047l.047-.093.327-.351.304-.304.187-.164.304-.234.351-.234.444-.257.444-.21.654-.257.584-.187.631-.164.327-.07.444-.047.678-.047Z"/>
  <path class="cls-11" d="M12.306,7.195h.14l.117.093.117.21.047.093.07.654.093.421.093.187.093.07v.047l.351-.047.234-.117.21-.14.187-.117.14-.047h.28l.164.047.164-.023.117-.07.023-.047h.047v-.561l.07-.234.047-.047.093.023.07.093.093.234.047.327.07.117.21.07.164-.023.164-.117.164-.234.21-.14.327-.117.07-.023.023-.14-.07-.117-.047-.023v-.047l-.117-.023-.491-.117-.117-.047v-.023h.608l.374.07.351.093.327.164.117.093.023.093-.14.093-.257.093-.701.14-.257.093-.093.093.023.164.093.093.374.14.374.093.257.093.584.164.234.07h.28l.304-.07h.514l.14-.07v-.164l-.14-.187-.257-.257-.327-.257-.164-.14-.07-.117v-.047l.187.023.397.21.28.14.28.21.28.28v.047h.047l.164.187.093.117v.047h.047l.117.187.164.467.07.14.164.14.047.023h.28v-.047l.21-.117.093-.023h.257l.093.047-.023.117-.14.117-.257.187-.21.234-.117.234-.047.187v.164l.07.234.117.14.187.093.117.023h.257l.374-.164.257-.117h.093l-.023.14-.164.21-.257.257-.07.187v.304l.093.187.234.21.117.117.117.164.07.21v.444l-.07.28-.117.351-.023.093v.351l.14.351h.047l.164.187.21.21v.047l.07.023.21.397.093.28.047.257.023.421-.047.327-.14.374-.164.28-.21.257-.234.304-.187.374-.023.093v.327l.164.467.117.28.07.28.023.14v.491l-.07.327-.117.327-.14.257-.21.257-.257.187-.21.093h-.257l-.234-.07-.117-.117v-.257l.093-.257.093-.14.164-.187.21-.164.14-.164.117-.117.047-.07h.047l.023-.093h.047l.07-.21.07-.234v-.304l-.07-.234-.14-.234-.164-.14-.047-.023v-.047l-.093-.047-.07-.117-.023-.21.047-.187.187-.304.07-.023v-.047l.117-.117.327-.257.187-.21h.047l.023-.093h.047v-.07h.047l.023-.117.07-.257v-.374l-.093-.327-.234-.467-.07-.023-.07-.093v-.047h-.047v-.047l-.117-.047-.187-.164-.07-.047v-.047l-.093-.047-.117-.21-.023-.21.117-.304.14-.257h.047l.047-.14.093-.187.07-.304v-.374l-.093-.421-.187-.374-.164-.187-.187-.164-.047-.023v-.047l-.257-.047-.257.093-.093.023h-.257l-.21-.093-.234-.21-.14-.28v-.164l.07-.117.047-.047h.164l.234.467.14.117.093.023h.21l.234-.093.047-.093-.023-.164-.304-.351-.14-.21-.07-.14-.07-.28v-.234l.023-.07v-.164l-.093-.21-.14-.21-.187-.21-.257-.187-.631-.28-.421-.117h-.28l-.093.07v.164l.093.164.093.117.187.164.327.28.491.491.164.234v.047l-.117-.023-.327-.164-.234-.164-.07-.023-.093-.093-.093-.047-.117-.117-.234-.187-.164-.234-.14-.234-.164-.14v-.047l-.117-.047-.187-.117-.327-.117-.678-.117-.421-.117-.257-.117-.093-.093-.07-.023v-.047l-.117-.023-.093-.023h-.187l-.187.07-.117.117-.07.257-.117.117-.14-.023-.023-.047-.023-.21-.047-.07-.093-.047-.21.023-.14.093-.117.117-.397.187-.397.28-.234.21-.21.117h-.187l-.093-.047v-.047h-.234l-.14.093-.07.14-.023.327-.093.374-.234.491-.28.374-.21.234-.28.234-.257.164-.234.117-.374.07-.351.093-.234.14-.21.21-.117.234-.023.07v.234l.093.234.257.327.117.28.07.304v.491l-.093.351-.14.28-.187.234-.304.304-.164.234-.093.234-.023.093v.327l.117.304.023.07h.047l.117.164.28.21.187.164.117.117.117.14.047.023v.07h.047l.187.374.117.374.047.234v.701l-.07.444-.164.467-.164.304-.164.21-.117.14-.257.21-.28.14h-.234l-.117-.117v-.28l.093-.304.07-.14h.047l.023-.093.023-.047h.047l.047-.093.257-.257.023-.047h.047l.023-.093.047-.023.023-.07h.047l.07-.21.07-.257.023-.14v-.257l-.093-.421-.187-.374-.21-.257-.023-.07-.117-.047-.023-.047-.07-.023v-.047l-.093-.047-.327-.21v-.047l-.093-.047-.117-.117-.14-.21-.093-.234v-.327l.117-.444.187-.351h.047v-.07h.047l.023-.093.117-.117.117-.14.234-.234.164-.21.047-.023.023-.07h.047l.07-.257.023-.093v-.21l-.07-.257-.164-.234-.21-.21-.117-.093-.14-.187-.047-.117v-.304l.093-.21.117-.21h.047l.047-.093.234-.21.234-.14.21-.047.023-.187-.14-.187-.164-.374-.047-.327v-.421l.047-.374.14-.467.187-.351.047-.093h.047l.047-.14.164-.164.117-.14.257-.164.21-.07h.164l.07.07v.257l-.14.327-.28.28-.28.21-.21.187-.14.234-.07.21-.023.21.047.187.117.234.164.14.257.093h.234l.21-.047.327-.187.117-.047v-.047l.164-.117.047-.07h.047l.047-.093.117-.117.093-.164.14-.21.047-.164v-.14l-.023-.047-.21-.023-.234.164-.093.093h-.047l-.047.093-.351.351-.117.07h-.07v-.164l.14-.257.28-.327.187-.164.117-.093.117-.117.21-.164.117-.047h.187l.21.023.14-.07.047-.047.023-.164-.164-.608-.14-.584-.093-.467.023-.234.023-.023Z"/>
  <path class="cls-13" d="M12.095,13.411h.421l.257.093.257.187.14.117.21.257.187.304.187.444.14.491.07.421.023.304v.958l-.07.982-.187,1.355-.14,1.052-.047.538-.023.397-.023.865-.047.724-.07.771-.093.397-.117.327-.164.234-.304.257-.374.164-.304.093-.14.023h-.397l-.351-.047-.28-.093-.28-.14-.21-.187-.164-.234v-.047h.374l.561-.093.351-.14.28-.187.21-.187.164-.234.117-.257.07-.304.023-.397-.07-.561-.21-.841-.187-.584-.164-.538-.164-.701-.093-.514-.117-1.005-.023-.327v-.982l.047-.841.07-.608.117-.584.117-.467.187-.561.047-.047.187-.047Z"/>
  <path class="cls-17" d="M12.282,7.008h.187l.164.093.14.164.093.187.07.234.07.654.07.28.07.117.023.023h.164l.257-.14.327-.21.234-.093.093-.023h.21l.21.07.117-.023.023-.514.07-.234.093-.14.07-.07.14-.023.14.07.14.21.093.257.07.327h.164l.117-.093.164-.21.187-.14.28-.117h.047v-.047l-.421-.093-.351-.117-.07-.093v-.117l.14-.117.047-.023.748.023.444.093.374.117.28.164.164.187.023.14-.093.164-.234.117-.444.117-.538.117-.117.023.047.07.958.304.514.164.234.07h.257l.28-.093h.467l-.07-.117-.257-.234-.257-.21-.234-.21-.14-.21v-.187l.07-.07h.234l.257.093.538.28.28.21.234.21.327.327.234.304.14.234.07.187.093.257.117.117.14-.023.28-.14.093-.023h.28l.187.07.093.117v.21l-.14.164-.327.21-.187.21-.117.234-.023.07v.234l.093.164.117.07.117.023h.187l.28-.117.374-.164h.164l.117.07.023.07v.164l-.07.164-.187.234-.234.21-.047.14v.187l.07.117.257.21.21.28.093.234.023.093v.444l-.07.327-.14.421v.304l.117.234.351.351.164.21.187.351.117.351.07.351v.491l-.093.374-.117.304-.21.327-.21.257-.21.28-.14.28-.023.117v.21l.14.397.14.374.07.257.023.14v.608l-.093.397-.14.327-.164.28-.21.234-.21.164-.234.117-.07.023-.374.023-.257-.093-.187-.164-.047-.117v-.304l.117-.304.187-.257.164-.164.257-.21.257-.304.117-.257.023-.093v-.351l-.14-.28-.374-.351-.093-.21v-.21l.047-.187.164-.28.21-.234.351-.304.164-.14.187-.257.07-.234v-.374l-.117-.374-.14-.234-.21-.234-.304-.257-.187-.164-.117-.187-.047-.304.047-.187.117-.28.21-.351.117-.304.023-.093v-.397l-.093-.374-.117-.257-.14-.187-.234-.21-.117-.023-.397.117h-.304l-.234-.093-.21-.164-.164-.187-.117-.28v-.257l.093-.187.14-.117.07-.023h.187l.164.14.093.187.093.21v.047l.21.047.164-.047-.023-.093-.28-.28-.14-.234-.117-.351-.023-.117v-.28l.023-.187-.14-.28-.164-.187-.327-.234-.561-.234-.28-.093-.257-.047.093.164.164.164.257.21.234.234.047.023v.047l.07.023v.047l.07.023v.047h.047l.21.257v.047h.047l.14.234.023.14-.093.117-.257-.023-.491-.234-.421-.304-.327-.28-.21-.21-.117-.187-.117-.21-.234-.164-.304-.14-.561-.093-.421-.093-.28-.093-.257-.14-.187-.117-.21-.047-.14.07-.093.28-.14.164-.14.07h-.187l-.093-.047-.093-.164-.023-.234-.14.093-.14.117-.374.187-.257.164-.234.187-.304.234-.21.07h-.21l-.14-.07h-.14l-.047.234-.07.397-.14.374-.187.374-.234.304-.047.07h-.047l-.047.093-.234.234-.187.14h-.047v.047l-.28.164-.351.117-.234.047-.257.023-.28.164-.164.14-.117.234v.234l.14.234.21.28.14.397.047.164.023.234v.21l-.047.304-.14.374-.164.28-.28.304-.21.21-.14.234-.047.187v.187l.047.187.14.234.234.21.234.187.187.164.257.327.164.327.14.421.047.28v.748l-.07.397-.117.397-.187.397-.14.187-.21.234-.164.164-.327.21-.14.047h-.28l-.14-.07-.117-.14-.023-.07v-.304l.117-.374.164-.28.28-.304.093-.117.117-.117.14-.257.047-.187v-.467l-.07-.257-.187-.374-.187-.234-.257-.21-.257-.164-.304-.257-.164-.21-.117-.257-.023-.093v-.467l.093-.374.187-.374.21-.28.327-.351.257-.28.164-.327v-.28l-.093-.234-.257-.28-.164-.14-.14-.21-.07-.187v-.257l.093-.327.21-.304.14-.117.117-.117.327-.187h.07l-.187-.374-.117-.351-.023-.164v-.654l.093-.467.14-.374.21-.397.21-.28.257-.257.28-.164.234-.07h.21l.117.07.093.117.023.07v.351l-.164.327-.28.28-.234.21-.21.164-.14.187-.093.21v.257l.093.21.14.117.117.047h.304l.304-.117.374-.304.187-.21.187-.28v-.093l-.21.164-.164.187-.234.234-.21.117-.14.023-.117-.07-.047-.047-.023-.164.047-.187.164-.304.234-.257.023-.047h.047l.023-.07h.047v-.047l.257-.21.28-.234.21-.093h.327l.093.023.047-.023-.093-.421-.164-.654-.093-.514-.023-.047v-.351l.093-.14.093-.047ZM12.306,7.195l-.047.117.023.257.117.538.187.771.07.28-.047.14-.093.07-.187.023-.093-.023h-.187l-.14.07-.28.21-.28.28-.164.14-.047.093-.117.117-.14.257v.164l.117-.023.234-.21.234-.234v-.047l.093-.047.164-.14.117-.07.21.023.023.047-.023.21-.07.187-.164.21-.07.117-.117.117v.047l-.07.023-.117.117-.07.047v.047l-.117.047-.234.14-.093.047-.21.047h-.234l-.257-.093-.187-.164-.117-.257-.023-.257.07-.257.117-.21.187-.21.397-.304.234-.234.14-.327v-.257l-.07-.07h-.164l-.21.07-.257.164-.164.187-.14.164-.023.093h-.047l-.257.514-.117.397-.047.374v.421l.047.327.187.421.117.14v.117l-.023.07-.257.07-.234.164-.234.21v.047h-.047l-.14.234-.07.187v.304l.093.187.164.187.187.164.14.164.117.187.047.21v.21l-.093.304v.047h-.047l-.023.07-.117.117-.093.117-.234.234-.164.187-.093.117v.047h-.047v.07h-.047l-.187.351-.117.444v.327l.093.234.164.257.14.117h.047l.023.07.327.21.07.023v.047l.07.023.093.093h.047l.047.093.187.234.187.374.093.421v.257l-.07.351-.093.21v.047h-.047l-.023.07-.07.07v.047h-.047l-.164.187-.164.164v.047h-.047l-.047.07v.07h-.047l-.14.327-.023.117v.28l.117.117h.234l.28-.14.257-.21.164-.187.21-.327.14-.327.117-.374.047-.351v-.701l-.093-.397-.14-.374-.117-.21h-.047v-.07l-.117-.117-.117-.14-.14-.093-.093-.093-.28-.21-.117-.164h-.047l-.047-.14-.093-.234v-.327l.07-.234.14-.234.257-.28.187-.187.21-.327.117-.351.023-.117v-.491l-.07-.304-.117-.28-.257-.327-.093-.234v-.234l.093-.234.21-.234.187-.14.234-.093.584-.117.327-.164.28-.21.28-.257.28-.351.187-.327.164-.374.07-.304.023-.327.117-.187.093-.047h.234v.047l.093.047h.187l.234-.14.234-.21.421-.28.397-.187.117-.14.164-.07h.14l.117.07.023.047.023.21.07.07.14-.023.093-.14.047-.21.164-.14.14-.047h.187l.117.047h.093v.047l.14.07.07.07.28.117.584.14.444.07.421.164.164.117h.047v.047l.187.164.187.327.14.164.28.21.07.07.117.07.023.047.164.093.257.164.257.117h.07l-.047-.117-.187-.234-.514-.514-.257-.21-.164-.14-.164-.21-.023-.07v-.164l.093-.07h.28l.467.14.28.117.327.164.28.21.164.187.164.257.047.14v.164l-.023.07v.234l.07.28.14.257.28.327.117.164v.117l-.047.093-.234.093h-.21l-.164-.07-.093-.093-.187-.421-.023-.023h-.164l-.093.093-.023.07v.164l.14.28.164.164.14.093.14.047h.257l.257-.07.093-.047.257.047v.047l.21.164.164.164.187.374.07.21.047.257v.374l-.07.304-.14.28v.047h-.047l-.164.327-.093.234.023.21.117.21.093.047.023.07.187.14.117.093h.047v.047h.047l.047.093.047.07h.047l.234.467.093.327v.374l-.093.304v.07h-.047v.07h-.047l-.023.093-.093.047-.187.21-.28.21-.117.117v.047l-.093.047-.187.327-.023.257.07.187.07.07h.047v.047l.187.14.14.21.07.164.023.117v.304l-.093.28-.047.164h-.047l-.023.093h-.047l-.117.164-.164.14-.117.117-.187.164-.14.164-.117.257-.023.093v.257l.117.117.234.07h.257l.327-.164.21-.187.21-.304.14-.304.093-.351.023-.14v-.491l-.047-.28-.14-.397-.117-.28-.07-.21v-.327l.093-.257.164-.28.257-.304.257-.374.14-.327.07-.234.023-.397-.047-.374-.07-.304-.21-.444-.07-.093h-.047l-.047-.093-.304-.304-.023-.047h-.047l-.14-.351v-.351l.117-.374.07-.21.023-.14v-.444l-.093-.257-.164-.21-.257-.21-.093-.14-.023-.07v-.304l.093-.21.304-.304.117-.21v-.07l-.164.023-.444.21-.117.047h-.257l-.234-.07-.14-.117-.093-.187-.023-.117v-.164l.093-.304.187-.257.234-.21.21-.14.07-.07v-.093l-.093-.047h-.257l-.234.093-.07.047v.047h-.28l-.117-.07-.093-.093-.117-.257-.14-.397-.093-.14h-.047l-.047-.117-.14-.164-.07-.07h-.047l-.047-.093-.164-.164-.164-.14-.304-.21-.538-.257-.14-.047h-.07l.047.117.117.117.234.21.234.187.257.257.07.117v.164l-.14.07h-.514l-.304.07h-.28l-.654-.187-.374-.117-.327-.093-.304-.093-.234-.117-.047-.093.023-.164.187-.093.374-.093.467-.093.257-.093.14-.093-.023-.093-.187-.14-.257-.117-.421-.117-.304-.047h-.608l.047.047.421.117.164.047h.093v.047l.093.07.023.117-.023.093-.21.07-.28.117-.14.117-.187.257-.117.07-.164.023-.21-.07-.07-.117-.047-.327-.117-.28-.07-.07-.093.023-.07.164-.023.093v.561h-.047l-.07.093-.14.047-.187-.023-.07-.023h-.28l-.234.093-.234.164-.234.14-.164.047-.257.023v-.047l-.117-.093-.093-.234-.07-.351-.07-.654-.117-.234-.117-.14-.047-.023h-.14Z"/>
  <path class="cls-13" d="M19.62,13.411h.187l.093.047.257.818.14.608.117.701.07.795.023.374v.888l-.047.654-.093.584-.21.865-.421,1.332-.164.584-.047.327v.654l.093.467.14.327.21.28.21.21.327.21.421.164.327.07.514.047-.07.14-.187.234-.234.164-.351.14-.257.047h-.374l-.351-.047-.304-.093-.28-.14-.234-.187-.187-.21-.187-.374-.117-.514-.07-.584-.047-.818-.047-1.005-.07-.678-.117-.818-.257-1.683-.093-.748v-.982l.047-.397.14-.631.187-.491.28-.538.234-.327.234-.234.28-.164.28-.07Z"/>
  <path class="cls-24" d="M25.323,12.266l.327.07.327.164.28.257.164.187.117.117.28.397.187.374.187.514.117.491.07.304.093.678.047.444v.865l-.023.748-.047.608-.047.374-.164,1.262-.117.514-.14.491-.164.491-.234.561-.28.514-.257.421-.21.257-.257.28-.351.351-.257.21-.327.257-.351.21-.444.187-.304.07h-.21l.047-.093.187-.257.187-.304.28-.467.234-.444.304-.654.28-.608.187-.491.187-.561.117-.327.14-.491.14-.538.07-.327.07-.374.093-.397.07-.538.07-.514.023-.351.023-.07.023-.374v-1.309l-.07-.795-.093-.561-.07-.257-.14-.631-.164-.491-.187-.374-.023-.07Z"/>
  <path class="cls-24" d="M6.72,12.173l.047.023-.21.374-.117.234-.164.374-.187.491-.117.491-.07.28-.093.701-.023.491v.935l.023.28.023.584.093.701.093.608.07.397.187.865.07.21.093.374.187.608.257.795.07.187.093.234.117.28.304.654.187.327.14.257.164.234.257.327.234.257.117.117.07.093-.187-.023-.491-.164-.234-.117-.257-.164-.327-.28-.187-.164v-.047h-.047l-.164-.187-.257-.257-.21-.257-.304-.397-.257-.421-.234-.421-.21-.444-.187-.467-.07-.234-.093-.234-.164-.561-.164-.748-.093-.491-.07-.631-.023-.093-.047-.608-.023-.491v-.678l.023-.421.093-.538.117-.397.093-.327.164-.444.164-.351.164-.28.07-.093.117-.21h.047l.047-.093.257-.327.234-.234.351-.257.21-.14.234-.093Z"/>
  <path class="cls-9" d="M6.977,12.126l.327.07.28.14-.047.21-.164.561-.117.584-.093.748-.07,1.075v2.057l.047.795.093.865.14.795.164.631.304.888.28.654.28.584.187.327.187.28.257.327.187.187.28.21.117.07-.047.117-.187.257-.234.187-.28.14h-.117l-.21-.234-.257-.304-.28-.374-.21-.351-.304-.584-.304-.724-.21-.584-.21-.631-.21-.724-.187-.701-.164-.865-.164-1.052-.047-.444-.047-1.192.047-1.145.117-.701.14-.561.21-.561.187-.421.164-.28.164-.327Z"/>
  <path class="cls-9" d="M24.949,12.266h.117l.164.21.117.234.187.561.21.911.093.584.047.444v1.753l-.093.888-.117.771-.234,1.098-.187.701-.374,1.145-.304.771-.327.678-.257.538-.28.491-.234.374-.234.327-.14.164-.164-.023-.257-.164-.164-.14-.21-.28.07-.07.351-.21.234-.21.234-.327.304-.584.257-.608.234-.631.21-.701.21-.841.164-.795.14-.841.047-.421v-2.15l-.07-1.168-.07-.701-.117-.678-.14-.654-.023-.164.327-.187.187-.07.093-.023Z"/>
  <path class="cls-1" d="M27.122,20.352h.047l-.023.21-.164.561-.164.491-.234.561-.28.514-.257.421-.21.257-.257.28-.351.351-.257.21-.327.257-.351.21-.444.187-.304.07h-.21l.047-.093.187-.257.187-.304.28-.467.234-.444.304-.654.093-.21.047.023.187-.07h.07l.023-.14.047-.164.093-.023.023.023.023.187.234-.164.304-.21.304-.257.304-.28.14-.187h.047l.07-.14h.047l.047-.093.234-.304.21-.351Z"/>
  <path class="cls-18" d="M10.903,12.36h.117v.047h-.047l-.047.14-.14.304-.07.234-.093.304-.14.748-.117.935-.07,1.075v1.169l.023.374v.351h-.047l-.21-.257-.257-.21-.304-.257-.14-.187-.07-.14-.023-.14v-.187l.047-.187.14-.234.397-.397.21-.304.117-.257.07-.21.047-.304v-.21l-.047-.327-.14-.421-.21-.304-.14-.21-.023-.047v-.234l.117-.234.257-.21.21-.117.374-.047.21-.047Z"/>
  <path class="cls-14" d="M5.084,21.1l.117.117.187.234.117.117.28.257.327.257.304.21.421.257.351.187.28.608.187.327.14.257.164.234.257.327.234.257.117.117.07.093-.187-.023-.491-.164-.234-.117-.257-.164-.327-.28-.187-.164v-.047h-.047l-.164-.187-.257-.257-.21-.257-.304-.397-.257-.421-.234-.421-.21-.444-.187-.467v-.047Z"/>
  <path class="cls-6" d="M21.56,15.421h.047l.093.187.164.187.327.257.21.21.187.304.117.374v.374l-.07.234-.14.187-.093.117-.187.164-.327.28-.164.187-.117.187h-.047l.023-.421.023-.444v-1.402l-.047-.678v-.304Z"/>
  <path class="cls-6" d="M21.373,12.5l.117.023.327.304.117.21.117.304.047.234v.397l-.117.351-.187.327-.14.28-.047.117-.047.164h-.023l-.14-.982-.093-.584-.117-.561-.117-.421v-.07l.304-.093Z"/>
  <path class="cls-8" d="M18.873,9.298l.257.023.467.164.421.187.327.257.187.234.093.21-.023.187v.28l.093.351.14.28.21.234.047.093.07.023.023.093-.07.047-.164.023-.164-.07-.117-.257-.093-.187-.164-.14-.164-.28v-.164l-.117-.234-.023-.07h-.047l-.164-.21-.047-.093h-.047l-.093-.117-.047-.023v-.047l-.093-.047-.21-.21-.257-.21-.187-.187-.047-.07v-.07Z"/>
  <path class="cls-5" d="M16.115,6.026h.561l.865.093.28.047.14.117.023.093.187-.023.21-.023.117.093.023.187.21-.093h.14l.07.07v.164l-.023.093.14.023.584.28.351.21.234.164.397.28.21.187.023.117-.14-.023-.351-.21-.07-.023v-.047l-.117-.047-.234-.164-.351-.21-.561-.28-.28-.093-.047-.07v-.164l-.117.047h-.187l-.07-.07-.023-.047v-.164l-.14.047h-.257l-.117-.14-.047-.07-.888-.117-.748-.047-.093-.047v-.093l.093-.047Z"/>
  <path class="cls-10" d="M23.57,12.36l.117.023.117.093.164.374.164.467.14.584.047.28v.467l-.07.257-.093.14-.047.023h-.14l-.093-.093-.023-.047-.023-.982-.07-.467-.14-.421-.117-.304-.023-.304.093-.093Z"/>
  <path class="cls-25" d="M21.537,19.347l.117.07.351.327.117.257v.351l-.093.257-.14.21-.234.257-.187.117h-.047v-.327l.047-.841.047-.608.023-.07Z"/>
  <path class="cls-3" d="M14.923,6.096h.234l.14.093.14.164.093.234v.234l-.093.187-.187.117-.07.023h-.257l-.14-.093-.093-.117-.047-.117v-.444l.07-.14.21-.14Z"/>
  <path class="cls-22" d="M14.946,6.26h.164l.14.093v.07h.047l.07.164v.21l-.093.117-.07.047h-.304l-.093-.117v-.444l.093-.117.047-.023Z"/>
  <path class="cls-21" d="M22.799,15.701l.117.047.14.164.187.374.07.28-.023.304-.117.397-.093.117-.07-.023v-.234l.07-.304v-.351l-.164-.397-.164-.234v-.117l.047-.023Z"/>
  <path class="cls-7" d="M25.089,22.128l.07.023-.023.257-.117.374-.117.304-.304.631-.164.327-.164.234-.093.047.047-.14.421-.935.257-.631.093-.304.047-.164.047-.023Z"/>
  <path class="cls-23" d="M25.626,12.5h.117l.21.397.164.444.14.678.047.374v.21l-.047.023-.093-.304-.07-.374-.164-.561-.14-.397-.14-.304-.023-.047v-.14Z"/>
  <path class="cls-21" d="M8.753,16.216l.117.023-.023.164-.07.164-.023.117v.374l.14.234.07.07.07.14v.14l-.117-.047-.21-.21-.14-.234-.023-.07v-.397l.047-.21.117-.21.047-.047Z"/>
  <path class="cls-2" d="M11.675,7.499l.117.023-.023.117-.164.14-.28.164-.257.21-.14.117-.117-.023-.023-.093.164-.187.257-.21.397-.234.07-.023Z"/>
  <path class="cls-21" d="M22.472,20.796l.117.023.023.047v.187l-.117.374-.234.374-.047.047h-.117l-.023-.07.187-.374.117-.257.047-.28.047-.07Z"/>
  <path class="cls-21" d="M10.74,8.877l.117.023.023.093-.093.093-.21.117-.234.21-.14.164-.117-.023.023-.14.164-.234h.047v-.047h.047v-.047l.28-.187.093-.023Z"/>
  <path class="cls-15" d="M4.734,14.977l.093.023v.164l-.07.257-.07.444-.047.374-.047.093-.047-.117v-.514l.093-.584.093-.14Z"/>
  <path class="cls-21" d="M19.574,8.457l.117.023.234.234.21.257.047.07v.117l-.117.023-.164-.164-.164-.187-.023-.07h-.047l-.14-.164.023-.117.023-.023Z"/>
  <path class="cls-7" d="M7.001,23.016l.117.023.187.421.28.514.07.14-.023.047-.164-.187-.304-.491-.187-.351.023-.117Z"/>
  <path class="cls-12" d="M21.35,8.363l.164.07.28.28.047.093v.093l-.14-.023-.164-.117v-.047l-.093-.047-.14-.164.023-.117.023-.023Z"/>
  <path class="cls-5" d="M23.266,11.635h.164l.07.07.023.14-.07.14-.164.023-.093-.093-.023-.164.093-.117Z"/>
  <path class="cls-21" d="M9.618,20.516h.093l.023.117-.14.234-.14.117-.117-.023v-.117l.117-.164h.047l.047-.093.07-.07Z"/>
  <path class="cls-21" d="M16.956,7.405h.21l.21.117.047.047-.023.117-.164-.023-.28-.117-.023-.117.023-.023Z"/>
  <path class="cls-21" d="M15.017,6.33l.117.023.093.117.023.21-.047.07-.117-.023-.093-.234-.023-.117.047-.047Z"/>
  <path class="cls-20" d="M4.523,16.589l.117.023-.023.397h-.07l-.047-.14v-.257l.023-.023Z"/>
  <path class="cls-21" d="M9.151,17.711l.093.047.093.093-.023.117-.117-.023-.093-.093.023-.117.023-.023Z"/>
  <path class="cls-16" d="M17.938,18.763l.047.047.093.631v.234h-.023l-.047-.187-.047-.421-.023-.304Z"/>
  <path class="cls-4" d="M11.838,10.139l.023.07-.07.14h-.047v-.047l-.187.164h-.07l.14-.164.21-.164Z"/>
  <path class="cls-21" d="M9.898,9.742l.117.023-.023.117h-.093l-.023-.093.023-.047Z"/>
</svg>