<?xml version="1.0" encoding="utf-8"?>
<!-- Generator: Adobe Illustrator 25.2.3, SVG Export Plug-In . SVG Version: 6.00 Build 0)  -->
<svg version="1.1" id="Layer_1" xmlns="http://www.w3.org/2000/svg" xmlns:xlink="http://www.w3.org/1999/xlink" x="0px" y="0px"
	 viewBox="0 0 32 32" style="enable-background:new 0 0 32 32;" xml:space="preserve">
<style type="text/css">
	.st0{fill-rule:evenodd;clip-rule:evenodd;fill:#9484C6;}
	.st1{fill:#362751;}
	.st2{fill:#483674;}
	.st3{fill:#FAC24B;}
	.st4{fill:#FC5454;}
	.st5{fill:#BBD4FF;}
</style>
<g>
	<circle class="st0" cx="16" cy="16" r="16"/>
	<g>
		<path class="st1" d="M9.458,16.134c0-3.138,0-6.277,0-9.415c0-0.088-0.003-0.175,0.019-0.262C9.542,6.204,9.754,6.03,10.014,6.02
			c0.044-0.002,0.088-0.001,0.132-0.001c3.907,0,7.814,0,11.721,0c0.088,0,0.175-0.005,0.262,0.02
			c0.245,0.07,0.414,0.281,0.424,0.536c0.001,0.028,0.001,0.056,0.001,0.084c0,5.613,0.005,11.226-0.004,16.84
			c-0.002,1.123-0.542,1.949-1.537,2.469c-0.363,0.19-0.758,0.277-1.168,0.277c-3.255,0.001-6.51,0-9.765,0.001
			c-0.251,0-0.44-0.098-0.559-0.322c-0.04-0.075-0.06-0.157-0.061-0.242c-0.001-0.06-0.001-0.12-0.001-0.18
			C9.458,22.378,9.458,19.256,9.458,16.134z"/>
		<path class="st2" d="M10.271,16.133c0-2.906,0-5.813-0.001-8.719c0-0.172,0.043-0.323,0.169-0.445
			c0.084-0.081,0.185-0.125,0.301-0.132c0.056-0.003,0.112-0.002,0.168-0.002c3.399,0,6.797,0,10.196,0c0.044,0,0.088,0,0.132,0.001
			c0.273,0.005,0.485,0.207,0.504,0.48c0.003,0.04,0.001,0.08,0.001,0.12c0,5.309,0,10.618-0.001,15.927
			c0,0.489-0.161,0.923-0.47,1.303c-0.364,0.449-0.842,0.686-1.408,0.759c-0.043,0.006-0.088,0.003-0.132,0.003
			c-2.963,0-5.926,0-8.889,0.001c-0.306,0-0.473-0.152-0.551-0.388c-0.022-0.066-0.019-0.134-0.019-0.202c0-2.051,0-4.102,0-6.152
			C10.271,17.836,10.271,16.985,10.271,16.133z"/>
		<path class="st1" d="M16.08,8.085c1.411,0,2.823,0.001,4.234-0.001c0.122,0,0.228,0.02,0.312,0.119
			c0.046,0.054,0.075,0.113,0.081,0.182c0.003,0.04,0.002,0.08,0.002,0.12c0,2.079,0,4.157,0,6.236c0,0.056,0.006,0.112-0.01,0.167
			c-0.039,0.139-0.164,0.239-0.317,0.252c-0.04,0.003-0.08,0.002-0.12,0.002c-2.791,0-5.581,0-8.372,0
			c-0.072,0-0.143,0.002-0.213-0.023c-0.134-0.048-0.222-0.164-0.229-0.307c-0.001-0.02-0.001-0.04-0.001-0.06
			c0-2.099,0-4.197-0.001-6.296c0-0.117,0.019-0.22,0.112-0.303c0.06-0.054,0.125-0.085,0.204-0.088
			c0.04-0.002,0.08-0.001,0.12-0.001C13.281,8.085,14.68,8.085,16.08,8.085z"/>
		<path class="st3" d="M11.444,18.94c0-0.128-0.001-0.256,0-0.384c0.001-0.106,0.002-0.107,0.104-0.107
			c0.22-0.001,0.44,0.001,0.659-0.001c0.173-0.001,0.156,0.024,0.157-0.163c0.001-0.22,0-0.439,0.001-0.659
			c0.001-0.104,0.002-0.105,0.109-0.106c0.256-0.001,0.512-0.001,0.767,0c0.102,0,0.104,0.002,0.104,0.109
			c0.001,0.24,0,0.479,0.001,0.719c0,0.098,0.002,0.099,0.1,0.1c0.244,0.001,0.488,0,0.731,0.001c0.093,0,0.095,0.002,0.096,0.092
			c0.001,0.264,0.001,0.527,0,0.791c0,0.092-0.002,0.094-0.094,0.095c-0.24,0.001-0.48,0-0.719,0.001
			c-0.112,0-0.113,0.001-0.114,0.111c-0.001,0.236,0,0.471-0.001,0.707c0,0.103-0.002,0.105-0.107,0.105
			c-0.256,0.001-0.512,0.001-0.767,0c-0.104,0-0.105-0.002-0.106-0.108c-0.001-0.236,0-0.471-0.001-0.707
			c0-0.106-0.002-0.107-0.105-0.107c-0.236-0.001-0.472,0-0.707-0.001c-0.107,0-0.108-0.002-0.109-0.104
			C11.443,19.196,11.444,19.068,11.444,18.94z"/>
		<path class="st4" d="M18.717,19.794c0,0.096,0.003,0.192-0.001,0.288c-0.006,0.168-0.119,0.288-0.287,0.293
			c-0.2,0.006-0.4,0.007-0.599,0c-0.174-0.006-0.286-0.127-0.289-0.303c-0.003-0.188-0.003-0.375,0-0.563
			c0.003-0.179,0.12-0.302,0.3-0.308c0.192-0.006,0.384-0.006,0.575,0c0.186,0.006,0.298,0.129,0.302,0.318
			C18.718,19.611,18.717,19.702,18.717,19.794C18.717,19.794,18.717,19.794,18.717,19.794z"/>
		<path class="st4" d="M19.892,18.61c0.001,0.329-0.254,0.587-0.582,0.59c-0.333,0.003-0.596-0.258-0.595-0.591
			c0.001-0.324,0.265-0.587,0.589-0.587C19.63,18.023,19.892,18.285,19.892,18.61z"/>
		<path class="st5" d="M13.815,14.347c-0.396,0-0.792-0.008-1.187,0.003c-0.197,0.005-0.389-0.147-0.371-0.374
			c0.008-0.103,0.004-0.208,0-0.312c-0.002-0.052,0.013-0.093,0.054-0.125c0.012-0.01,0.023-0.023,0.034-0.034
			c1.507-1.507,3.014-3.013,4.519-4.521c0.064-0.064,0.128-0.092,0.219-0.091c0.796,0.003,1.591,0.002,2.387,0.002
			c0.04,0,0.08-0.001,0.12,0.002c0.169,0.013,0.298,0.143,0.305,0.312c0.004,0.104,0,0.208,0.002,0.312
			c0.001,0.038-0.009,0.07-0.039,0.096c-0.018,0.016-0.034,0.034-0.051,0.051c-1.532,1.532-3.065,3.064-4.595,4.597
			c-0.062,0.062-0.123,0.086-0.209,0.085C14.607,14.344,14.211,14.347,13.815,14.347z"/>
		<path class="st5" d="M19.876,11.724c0.026,0.037,0.016,0.069,0.016,0.1c0.001,0.511-0.001,1.023,0.002,1.534
			c0,0.069-0.017,0.119-0.067,0.168c-0.257,0.252-0.511,0.507-0.763,0.763c-0.043,0.043-0.086,0.061-0.147,0.061
			c-0.527-0.002-1.055-0.001-1.582-0.001c-0.019,0-0.039-0.002-0.06-0.004C17.319,14.262,19.64,11.925,19.876,11.724z"/>
	</g>
</g>
</svg>
