<?xml version="1.0" encoding="utf-8"?>
<!-- Generator: Adobe Illustrator 26.0.1, SVG Export Plug-In . SVG Version: 6.00 Build 0)  -->
<svg version="1.1" id="Layer_1" xmlns="http://www.w3.org/2000/svg" xmlns:xlink="http://www.w3.org/1999/xlink" x="0px" y="0px"
	 viewBox="0 0 32 32" style="enable-background:new 0 0 32 32;" xml:space="preserve">
<style type="text/css">
	.st0{fill-rule:evenodd;clip-rule:evenodd;fill:#061937;}
	.st1{enable-background:new    ;}
	.st2{fill:#FFFFFF;}
	.st3{fill:#FFF200;}
</style>
<g>
	<circle class="st0" cx="16" cy="16" r="16"/>
	<g class="st1">
		<path class="st2" d="M22.379,16.372l0.97,0.245c-0.203,0.796-0.568,1.403-1.097,1.821s-1.174,0.627-1.937,0.627
			c-0.79,0-1.432-0.16-1.927-0.482c-0.495-0.321-0.871-0.787-1.13-1.396c-0.258-0.609-0.387-1.264-0.387-1.964
			c0-0.763,0.146-1.428,0.438-1.997c0.291-0.568,0.706-1,1.244-1.294s1.13-0.442,1.776-0.442c0.733,0,1.35,0.187,1.85,0.56
			c0.499,0.373,0.848,0.898,1.044,1.574l-0.954,0.225c-0.17-0.533-0.417-0.921-0.74-1.164s-0.729-0.365-1.219-0.365
			c-0.563,0-1.034,0.135-1.412,0.405c-0.378,0.27-0.644,0.632-0.797,1.087c-0.153,0.455-0.23,0.923-0.23,1.407
			c0,0.623,0.091,1.167,0.272,1.632c0.182,0.464,0.464,0.812,0.848,1.042c0.383,0.229,0.798,0.345,1.244,0.345
			c0.543,0,1.003-0.157,1.379-0.47C21.991,17.453,22.246,16.989,22.379,16.372z"/>
	</g>
	<g class="st1">
		<path class="st2" d="M23.593,18.94l2.814-7.326h1.044l2.999,7.326h-1.104l-0.854-2.218h-3.063l-0.805,2.218H23.593z
			 M25.707,15.932h2.484l-0.765-2.029c-0.233-0.616-0.407-1.123-0.521-1.52c-0.093,0.47-0.225,0.937-0.395,1.399L25.707,15.932z"/>
	</g>
	<g class="st1">
		<path class="st3" d="M5.407,16.229v-0.802l2.896-0.005v2.537c-0.444,0.354-0.903,0.621-1.375,0.8s-0.958,0.269-1.455,0.269
			c-0.671,0-1.282-0.145-1.83-0.432c-0.549-0.287-0.963-0.703-1.243-1.247s-0.42-1.152-0.42-1.824c0-0.665,0.139-1.286,0.417-1.863
			c0.278-0.577,0.678-1.005,1.201-1.285s1.124-0.42,1.805-0.42c0.494,0,0.941,0.08,1.341,0.24s0.712,0.383,0.939,0.669
			s0.399,0.659,0.518,1.119L7.384,14.21c-0.103-0.348-0.23-0.622-0.382-0.821c-0.152-0.199-0.37-0.358-0.653-0.478
			c-0.283-0.12-0.597-0.179-0.942-0.179c-0.414,0-0.771,0.063-1.073,0.189c-0.302,0.125-0.545,0.291-0.73,0.497
			c-0.185,0.205-0.329,0.431-0.431,0.676c-0.174,0.423-0.261,0.881-0.261,1.376c0,0.609,0.105,1.119,0.315,1.529
			c0.209,0.411,0.515,0.715,0.916,0.914c0.401,0.199,0.827,0.299,1.278,0.299c0.392,0,0.774-0.075,1.147-0.227
			c0.373-0.15,0.656-0.312,0.849-0.482v-1.272H5.407z"/>
	</g>
	<path class="st3" d="M12.538,19.313c-2.089,0-3.789-1.7-3.789-3.789s1.7-3.789,3.789-3.789c2.089,0,3.789,1.7,3.789,3.789
		S14.627,19.313,12.538,19.313z M12.538,12.216c-1.825,0-3.309,1.484-3.309,3.308s1.484,3.309,3.309,3.309
		c1.824,0,3.308-1.484,3.308-3.309S14.362,12.216,12.538,12.216z"/>
	<path class="st2" d="M9.479,15.814c0-0.062-0.013-0.117,0.067-0.133c0.134-0.035,0.253-0.113,0.339-0.222
		c0.04-0.04,0.074-0.085,0.11-0.126c0.31-0.35,0.64-0.36,0.973-0.027c0.09,0.105,0.19,0.201,0.296,0.29
		c0.149,0.138,0.382,0.13,0.52-0.019c0.002-0.002,0.003-0.003,0.005-0.005c0.072-0.071,0.141-0.147,0.205-0.226
		c0.344-0.384,0.733-0.382,1.069,0c0.402,0.462,0.613,0.461,1.016,0c0.32-0.362,0.622-0.378,0.968-0.046
		c0.16,0.16,0.29,0.339,0.526,0.402c0.078,0.021,0.038,0.136,0.03,0.205s-0.066,0.021-0.099,0.016
		c-0.173-0.03-0.327-0.125-0.432-0.266c-0.074-0.092-0.157-0.176-0.25-0.25c-0.139-0.136-0.362-0.134-0.498,0.004
		c-0.004,0.004-0.007,0.008-0.011,0.012c-0.07,0.067-0.135,0.139-0.194,0.216c-0.339,0.403-0.8,0.402-1.133,0
		c-0.047-0.061-0.097-0.118-0.15-0.173c-0.208-0.208-0.397-0.211-0.61,0c-0.082,0.077-0.147,0.17-0.224,0.25
		c-0.207,0.264-0.589,0.31-0.854,0.103c-0.028-0.022-0.054-0.046-0.078-0.073c-0.082-0.077-0.15-0.16-0.23-0.245
		c-0.253-0.254-0.466-0.248-0.696,0.027c-0.094,0.126-0.21,0.234-0.342,0.32c-0.062,0.035-0.128,0.062-0.197,0.08
		C9.504,15.952,9.453,15.923,9.479,15.814z"/>
</g>
</svg>
