<?xml version="1.0" encoding="UTF-8"?>
<svg id="Layer_1" data-name="Layer 1" xmlns="http://www.w3.org/2000/svg" version="1.1" viewBox="0 0 28 28">
  <defs>
    <style>
      .cls-1 {
        fill: #fff;
      }

      .cls-1, .cls-2 {
        stroke-width: 0px;
      }

      .cls-2 {
        fill: #24a12f;
      }
    </style>
  </defs>
  <g id="Group_12186" data-name="Group 12186">
    <circle id="Ellipse_19" data-name="Ellipse 19" class="cls-2" cx="14" cy="14" r="14"/>
    <path id="Grow_-_Icon_-_White" data-name="Grow - Icon - White" class="cls-1" d="M14.324,20.766h-1.189v-2.3c.014-.103-.043-.202-.139-.241l-.686-.392-.013-.007c-.8-.459-1.636-.934-2.444-1.419-1.121-.622-1.805-1.813-1.779-3.094-.013-.97-.01-1.957-.007-2.91v-1.446l.053.027h0l.072.038.852.491c.673.387,1.369.787,2.052,1.19.188.111.382.219.57.323h.006c.489.254.957.546,1.4.875h.025c.003-.012.006-.024.008-.036.077-1.188.75-2.256,1.788-2.838,1.056-.62,2.148-1.247,3.112-1.8l.236-.135,1-.575c.02-.011.041-.022.062-.031h.007l.034-.016v1.44c0,.941.006,1.915-.006,2.872.03,1.311-.673,2.53-1.823,3.161-.841.5-1.7.989-2.534,1.466l-.245.14-.3.171c-.082.037-.131.123-.121.213v4.835l.009-.002ZM9.296,11.074h0v2.216c-.021.859.439,1.659,1.193,2.072.57.337,1.154.673,1.719,1l.019.011.735.423.064.034.051.026v-.03h0c.001-.017.001-.034,0-.051v-.652h0v-1.461c.015-.894-.478-1.719-1.272-2.129-.415-.237-.837-.481-1.209-.7l-.137-.079-.5-.286-.678-.389.015-.005ZM18.111,8.593h0l-.034.015-.041.02-.707.4c-.618.353-1.258.717-1.882,1.1-.708.407-1.139,1.168-1.124,1.985-.01.5-.007,1,0,1.487v.652c-.001.022-.001.045,0,.067h0v.038l.024-.011h.007l.028-.013c.271-.156.547-.314.784-.449.59-.337,1.2-.686,1.795-1.044.716-.409,1.154-1.175,1.141-2,.006-.279,0-.559,0-.83v-1.418h.009Z"/>
  </g>
</svg>