<?xml version="1.0" encoding="utf-8"?>
<!-- Generator: Adobe Illustrator 25.4.1, SVG Export Plug-In . SVG Version: 6.00 Build 0)  -->
<svg version="1.1" id="Layer_1" xmlns="http://www.w3.org/2000/svg" xmlns:xlink="http://www.w3.org/1999/xlink" x="0px" y="0px"
	 viewBox="0 0 32 32" style="enable-background:new 0 0 32 32;" xml:space="preserve">
<style type="text/css">
	.st0{fill:#0696A6;}
	.st1{fill:#FFFFFF;}
	.st2{fill:none;}
</style>
<g>
	<circle class="st0" cx="16.214" cy="17.174" r="13.88"/>
	<g>
		<ellipse class="st1" cx="12.036" cy="23.899" rx="1.481" ry="1.454"/>
		<ellipse class="st1" cx="19.156" cy="23.896" rx="1.481" ry="1.454"/>
		<g>
			<path class="st1" d="M19.91,17.664h-8.508c-0.113,0-0.205-0.092-0.205-0.205v-2.256c0-0.113,0.092-0.205,0.205-0.205h8.508
				c0.113,0,0.205,0.092,0.205,0.205v2.256C20.115,17.572,20.023,17.664,19.91,17.664z"/>
			<g>
				<path class="st1" d="M23.335,13.621H11.184c-0.113,0-0.205-0.092-0.205-0.205v-2.256c0-0.113,0.092-0.205,0.205-0.205h12.151
					c0.113,0,0.205,0.092,0.205,0.205v2.256C23.54,13.529,23.448,13.621,23.335,13.621z"/>
				<path class="st1" d="M19.738,21.719h-9.523c-0.113,0-0.205-0.092-0.205-0.205v-2.256c0-0.113,0.092-0.205,0.205-0.205h9.523
					c0.113,0,0.205,0.092,0.205,0.205v2.256C19.942,21.627,19.849,21.719,19.738,21.719z"/>
				<path class="st1" d="M13.308,14.995c-0.378,0-0.689-0.31-0.689-0.689c0-0.378,0.31-0.689,0.689-0.689h2.346
					c-0.326-1.52-1.701-2.661-3.346-2.661c-1.889,0-3.421,1.502-3.421,3.355c0,1.854,1.531,3.355,3.421,3.355
					c1.65,0,3.027-1.147,3.349-2.673H13.308z"/>
				<path class="st1" d="M18.713,15c-1.649,0-3.024,1.143-3.348,2.664h2.916c0.378,0,0.689,0.31,0.689,0.689
					c0,0.378-0.31,0.689-0.689,0.689h-2.916c0.325,1.521,1.699,2.662,3.348,2.662c1.889,0,3.421-1.5,3.421-3.352
					C22.133,16.5,20.602,15,18.713,15z"/>
			</g>
			<path class="st1" d="M25.333,10.155l-2.686,3.815c-0.064,0.091-0.19,0.113-0.28,0.049l-1.815-1.278
				c-0.091-0.064-0.113-0.19-0.049-0.28l2.686-3.815c0.064-0.091,0.19-0.113,0.28-0.049l1.815,1.278
				C25.374,9.936,25.395,10.064,25.333,10.155z"/>
		</g>
	</g>
	<circle class="st0" cx="16" cy="16" r="15.698"/>
	<g>
		<g>
			<path class="st1" d="M25.959,9.079l-1.598,2.269c-0.47,0.669-1.404,0.831-2.072,0.359l0,0c-0.669-0.47-0.831-1.404-0.359-2.072
				l1.598-2.269c0.47-0.669,1.404-0.831,2.072-0.359l0,0C26.268,7.477,26.43,8.409,25.959,9.079z"/>
		</g>
		<line class="st2" x1="22.439" y1="9.129" x2="22.466" y2="8.871"/>
		<path class="st1" d="M26.03,8.957c0,0,0.398-0.463,0.35-1.393c-0.046-0.88-0.508-1.681-1.183-2.247
			c-0.847-0.711-2.337-1.808-4.128-2.477c-2.818-1.054-5.244-0.926-5.244-0.926S11.46,1.841,7.746,4.601
			c0,0-3.231,2.164-4.847,6.236c0,0-2.035,4.494-0.148,9.943c0,0,1.781,5.607,7.729,8.201c0,0,5.713,2.83,12.081-0.485
			c0,0,6.047-2.787,7.34-10.036c0,0,0.932-3.51-0.761-7.588c0,0-0.283-0.785-1.209-0.693c0,0-0.696,0.053-0.948,0.865
			c0,0-0.076,0.355,0.08,0.746c0,0,0.445,0.746,0.665,2.625c0,0,1.134,4.804-2.787,9.321c0,0-4.741,6.123-12.994,3.36
			c0,0-5.638-1.569-7.467-8.514c0,0-1.531-6.123,3.024-10.79c0,0,3.514-3.725,8.408-3.59c0,0,4.081-0.184,7.316,2.466l0.34,0.288
			c0,0,0.166,0.172-0.039,0.411L26.03,8.957z"/>
	</g>
	<g>
		<path class="st1" d="M22.596,12.713H9.665c-0.956,0-1.738-0.782-1.738-1.738l0,0c0-0.956,0.782-1.738,1.738-1.738h12.932
			c0.956,0,1.738,0.782,1.738,1.738l0,0C24.336,11.931,23.552,12.713,22.596,12.713z"/>
		<path class="st1" d="M22.65,23.319H9.781c-0.956,0-1.738-0.782-1.738-1.738l0,0c0-0.956,0.782-1.738,1.738-1.738H22.65
			c0.956,0,1.738,0.782,1.738,1.738l0,0C24.388,22.537,23.605,23.319,22.65,23.319z"/>
		<path class="st1" d="M22.697,17.934h-6.625c-0.939,0-1.708-0.769-1.708-1.708l0,0c0-0.939,0.769-1.708,1.708-1.708h6.625
			c0.939,0,1.708,0.769,1.708,1.708l0,0C24.405,17.165,23.637,17.934,22.697,17.934z"/>
		<path class="st1" d="M7.902,21.574V10.986c0-0.956,0.782-1.738,1.738-1.738l0,0c0.956,0,1.738,0.782,1.738,1.738v10.588
			c0,0.956-0.782,1.738-1.738,1.738l0,0C8.684,23.312,7.902,22.53,7.902,21.574z"/>
		<path class="st1" d="M13.593,6.988h-0.708c-0.025,0-0.045,0.021-0.045,0.045v1.711c0,0.025,0.021,0.045,0.045,0.045h0.708
			c0.025,0,0.045-0.021,0.045-0.045v-1.71C13.637,7.008,13.618,6.988,13.593,6.988z"/>
		<path class="st1" d="M19.41,7.004h-0.693c-0.024,0-0.045,0.019-0.045,0.045v1.713c0,0.024,0.019,0.045,0.045,0.045h0.693
			c0.024,0,0.045-0.019,0.045-0.045V7.049C19.455,7.023,19.434,7.004,19.41,7.004z"/>
		<path class="st1" d="M19.45,7.638V6.905c0-0.025-0.021-0.046-0.046-0.046h-6.513c-0.025,0-0.046,0.021-0.046,0.046v0.733
			c0,0.025,0.021,0.046,0.046,0.046h6.513C19.43,7.684,19.45,7.663,19.45,7.638z"/>
		<path class="st1" d="M22.688,14.543L22.688,14.543c0.938,0,1.705,0.767,1.705,1.705v5.365c0,0.938-0.767,1.705-1.705,1.705l0,0
			c-0.938,0-1.705-0.767-1.705-1.705v-5.365C20.982,15.31,21.749,14.543,22.688,14.543z"/>
	</g>
	<polygon class="st1" points="24.054,11.974 24.983,10.466 24.088,10.08 	"/>
</g>
</svg>
