<?xml version="1.0" encoding="utf-8"?>
<!-- Generator: Adobe Illustrator 25.2.3, SVG Export Plug-In . SVG Version: 6.00 Build 0)  -->
<svg version="1.1" id="Layer_1" xmlns="http://www.w3.org/2000/svg" xmlns:xlink="http://www.w3.org/1999/xlink" x="0px" y="0px"
	 viewBox="0 0 32 32" style="enable-background:new 0 0 32 32;" xml:space="preserve">
<style type="text/css">
	.st0{fill-rule:evenodd;clip-rule:evenodd;fill:#14ACAA;}
	.st1{fill:#FBFDFD;}
</style>
<g>
	<circle class="st0" cx="16" cy="16" r="16"/>
	<path class="st1" d="M15.714,25.269c-2.498-0.072-5.364-0.837-7.965-2.521c-0.393-0.255-0.496-0.467-0.258-0.915
		c0.632-1.189,1.21-2.406,1.798-3.618c0.122-0.25,0.206-0.343,0.479-0.137c1.614,1.213,3.416,2.029,5.388,2.459
		c0.6,0.131,1.21,0.208,1.827,0.074c0.393-0.085,0.713-0.257,0.793-0.685c0.08-0.423-0.132-0.721-0.476-0.936
		c-0.646-0.405-1.384-0.555-2.107-0.741c-1.392-0.357-2.789-0.688-4.09-1.328C7.329,15.06,7.865,10.063,10.72,8.18
		c1.287-0.849,2.705-1.285,4.216-1.399c3.074-0.232,5.988,0.354,8.711,1.832c0.32,0.174,0.414,0.306,0.228,0.675
		c-0.627,1.242-1.21,2.506-1.797,3.768c-0.13,0.28-0.228,0.368-0.554,0.201c-1.035-0.531-2.093-1.002-3.217-1.349
		c-0.757-0.233-1.501-0.477-2.287-0.565c-0.265-0.029-0.54-0.011-0.806,0.024c-0.298,0.04-0.547,0.19-0.622,0.507
		c-0.077,0.323,0.048,0.595,0.295,0.799c0.329,0.27,0.722,0.421,1.123,0.549c1.382,0.441,2.819,0.698,4.169,1.246
		c1.197,0.486,2.286,1.121,3.01,2.241c1.281,1.982,1.138,5.857-2.08,7.49C19.589,24.97,18.152,25.273,15.714,25.269z"/>
</g>
</svg>
