<?xml version="1.0" encoding="utf-8"?>
<!-- Generator: Adobe Illustrator 25.3.1, SVG Export Plug-In . SVG Version: 6.00 Build 0)  -->
<svg version="1.1" id="Layer_1" xmlns="http://www.w3.org/2000/svg" xmlns:xlink="http://www.w3.org/1999/xlink" x="0px" y="0px"
	 viewBox="0 0 32 32" style="enable-background:new 0 0 32 32;" xml:space="preserve">
<style type="text/css">
	.st0{fill:#DE5959;}
</style>
<path class="st0" d="M12.652,15.754l-0.27-0.27c-0.204-0.204-0.552-0.061-0.552,0.226v3.847c0,0.177,0.144,0.32,0.326,0.32h3.847
	c0.287,0,0.431-0.348,0.226-0.552c-0.127-0.127-0.127-0.331,0-0.453l4.096-4.107c0.127-0.127,0.127-0.331,0-0.453l-0.375-0.37
	c-0.204-0.204-0.061-0.552,0.226-0.552h3.847c0.177,0,0.326,0.144,0.326,0.32v3.847c0,0.287-0.348,0.431-0.552,0.226l-0.259-0.259
	c-0.127-0.127-0.331-0.127-0.453,0l-6.906,6.9c-0.127,0.127-0.331,0.127-0.458,0l-8.446-8.446c-0.127-0.127-0.127-0.331,0-0.458
	l11.702-11.68c0.127-0.127,0.127-0.331,0-0.458l-2.749-2.749c-0.127-0.127-0.331-0.127-0.458,0L0.635,15.771
	c-0.127,0.127-0.127,0.331,0,0.458l15.136,15.136c0.127,0.127,0.331,0.127,0.458,0l15.136-15.136c0.127-0.127,0.127-0.331,0-0.458
	l-8.909-8.898c-0.127-0.127-0.331-0.127-0.458,0L13.11,15.76C12.983,15.881,12.779,15.881,12.652,15.754L12.652,15.754z"/>
</svg>
