<svg id="Layer_1" data-name="Layer 1" xmlns="http://www.w3.org/2000/svg" viewBox="0 0 31.05 31.05"><defs><style>.cls-1{fill:#03e2ab;}.cls-2{fill:#0e0634;}</style></defs><path class="cls-1" d="M31.525,15.034v1.587c-.052.421-.068.845-.117,1.267a15.455,15.455,0,0,1-2.494,6.733,15.6,15.6,0,0,1-9.24,6.472,13.045,13.045,0,0,1-2.326.37c-.039,0-.113-.029-.106.062H14.758c0-.107-.081-.061-.122-.061a6.3,6.3,0,0,1-.856-.095,15.572,15.572,0,0,1-3.345-.872A15.463,15.463,0,0,1,4.1,25.96a16.031,16.031,0,0,1-1.7-2.492,16.256,16.256,0,0,1-.974-2.147,14.4,14.4,0,0,1-.582-1.988,12.42,12.42,0,0,1-.3-2.164c0-.049,0-.107-.056-.134v-2a.336.336,0,0,0,.054-.213c.013-.247.037-.492.066-.737a14.65,14.65,0,0,1,.379-2.029,15.121,15.121,0,0,1,.967-2.672A15.588,15.588,0,0,1,7.325,3.116a15.405,15.405,0,0,1,3.4-1.729A14.1,14.1,0,0,1,13.64.655c.239-.032.478-.068.716-.1.073-.011.073-.012.057-.077h.1c-.04.038-.013.065.022.059.052-.008.141.059.15-.059h2.346c.031.069.1.053.15.056a14.423,14.423,0,0,1,3.319.614A15.569,15.569,0,0,1,30.2,9.721a15.122,15.122,0,0,1,.968,2.958,12.7,12.7,0,0,1,.306,2.18A.225.225,0,0,0,31.525,15.034Zm-12.986,9.94q1.674,0,3.346,0c.25,0,.383-.119.383-.362,0-1.046,0-2.093,0-3.139a.412.412,0,0,0-.185-.364c-.3-.217-.591-.453-.889-.676-.1-.071-.113-.124-.039-.236a6.873,6.873,0,0,0,1.081-2.8,6.73,6.73,0,0,0-.254-3.081,6.344,6.344,0,0,0-.947-1.841c-.076-.1-.083-.167.017-.258.355-.325.7-.658,1.053-.989a.356.356,0,0,0,.041-.547,8.8,8.8,0,0,0-2.1-1.7,8.432,8.432,0,0,0-3.728-1.1c-.105-.007-.134-.037-.132-.142.006-.374,0-.748,0-1.121a.514.514,0,0,0-.1-.324.573.573,0,0,0-.617-.2.5.5,0,0,0-.392.516c0,.38,0,.759,0,1.139,0,.1-.019.174-.149.18a5.506,5.506,0,0,0-1.165.219c-.162.044-.184-.006-.183-.149.006-.46,0-.92,0-1.38a.532.532,0,0,0-.089-.342.6.6,0,0,0-.634-.2.516.516,0,0,0-.386.526c0,.609,0,1.219,0,1.828a.221.221,0,0,1-.147.235,4.821,4.821,0,0,0-.489.254,8.566,8.566,0,0,0-3.35,3.5,8.718,8.718,0,0,0-.978,3.609A8.3,8.3,0,0,0,7.99,19.25,8.713,8.713,0,0,0,9.9,22.361a8.384,8.384,0,0,0,5.433,2.549C16.4,24.974,17.471,24.947,18.539,24.974Z" transform="translate(-0.475 -0.475)"/><path class="cls-2" d="M18.539,24.974c-1.068-.027-2.138,0-3.206-.064A8.384,8.384,0,0,1,9.9,22.361,8.713,8.713,0,0,1,7.99,19.25a8.3,8.3,0,0,1-.473-3.218,8.718,8.718,0,0,1,.978-3.609,8.566,8.566,0,0,1,3.35-3.5,4.821,4.821,0,0,1,.489-.254.221.221,0,0,0,.147-.235c-.007-.609,0-1.219,0-1.828a.516.516,0,0,1,.386-.526.6.6,0,0,1,.634.2.532.532,0,0,1,.089.342c0,.46,0,.92,0,1.38,0,.143.021.193.183.149a5.506,5.506,0,0,1,1.165-.219c.13-.006.149-.077.149-.18,0-.38,0-.759,0-1.139a.5.5,0,0,1,.392-.516.573.573,0,0,1,.617.2.514.514,0,0,1,.1.324c0,.373,0,.747,0,1.121,0,.1.027.135.132.142a8.432,8.432,0,0,1,3.728,1.1,8.8,8.8,0,0,1,2.1,1.705.356.356,0,0,1-.041.547c-.349.331-.7.664-1.053.989-.1.091-.093.156-.017.258a6.344,6.344,0,0,1,.947,1.841,6.73,6.73,0,0,1,.254,3.081,6.873,6.873,0,0,1-1.081,2.8c-.074.112-.056.165.039.236.3.223.586.459.889.676a.412.412,0,0,1,.185.364c0,1.046,0,2.093,0,3.139,0,.243-.133.361-.383.362Q20.213,24.976,18.539,24.974Zm-.572-1.58v.023h2.518c.212,0,.256-.041.258-.231,0-.334,0-.667,0-1a.288.288,0,0,0-.127-.248q-1.957-1.5-3.911-3.007a.3.3,0,0,0-.283-.062,2.27,2.27,0,0,1-1.027.019,2.523,2.523,0,0,1-1.743-3.554A2.445,2.445,0,0,1,16.517,14a.528.528,0,0,0,.594-.156c.966-.906,1.948-1.795,2.924-2.691.161-.148.15-.237-.027-.371a6.587,6.587,0,0,0-3.37-1.314,6.747,6.747,0,0,0-2.81.277.223.223,0,0,0-.188.252c.008.9,0,1.805,0,2.708a.69.69,0,0,1-.023.239.57.57,0,0,1-.631.364.494.494,0,0,1-.453-.535c-.005-.742,0-1.484,0-2.225,0-.2-.015-.207-.186-.1a6.785,6.785,0,0,0-2.778,3.249A6.863,6.863,0,0,0,9.114,17.7a6.883,6.883,0,0,0,6.7,5.686C16.529,23.409,17.248,23.394,17.967,23.394Zm2.72-7.011a5.2,5.2,0,0,0-.826-2.8c-.07-.108-.121-.124-.222-.031-.486.453-.976.9-1.472,1.346a.245.245,0,0,0-.062.354,2.4,2.4,0,0,1-.112,2.533c-.067.1-.048.15.03.21.546.417,1.093.833,1.636,1.255.1.074.143.077.211-.031A5.208,5.208,0,0,0,20.687,16.383Zm-4.75,1.011a.981.981,0,0,0-.035-1.961.981.981,0,0,0,.035,1.961Z" transform="translate(-0.475 -0.475)"/><path class="cls-1" d="M17.967,23.394c-.719,0-1.438.015-2.156,0a6.945,6.945,0,0,1-6.242-9.7,6.785,6.785,0,0,1,2.778-3.249c.171-.1.186-.1.186.1,0,.741,0,1.483,0,2.225a.494.494,0,0,0,.453.535.57.57,0,0,0,.631-.364.69.69,0,0,0,.023-.239c0-.9,0-1.806,0-2.708a.223.223,0,0,1,.188-.252,6.747,6.747,0,0,1,2.81-.277,6.587,6.587,0,0,1,3.37,1.314c.177.134.188.223.027.371-.976.9-1.958,1.785-2.924,2.691a.528.528,0,0,1-.594.156,2.445,2.445,0,0,0-2.865,1.335A2.523,2.523,0,0,0,15.4,18.887a2.27,2.27,0,0,0,1.027-.019.3.3,0,0,1,.283.062q1.953,1.508,3.911,3.007a.288.288,0,0,1,.127.248c0,.334,0,.667,0,1,0,.19-.046.23-.258.231H17.967Z" transform="translate(-0.475 -0.475)"/><path class="cls-1" d="M20.687,16.383a5.208,5.208,0,0,1-.817,2.831c-.068.108-.116.105-.211.031-.543-.422-1.09-.838-1.636-1.255-.078-.06-.1-.11-.03-.21a2.4,2.4,0,0,0,.112-2.533.245.245,0,0,1,.062-.354c.5-.442.986-.893,1.472-1.346.1-.093.152-.077.222.031A5.2,5.2,0,0,1,20.687,16.383Z" transform="translate(-0.475 -0.475)"/><path class="cls-1" d="M15.937,17.394a.981.981,0,1,1,.953-1A.986.986,0,0,1,15.937,17.394Z" transform="translate(-0.475 -0.475)"/></svg>