<?xml version="1.0" encoding="utf-8"?>
<!-- Generator: Adobe Illustrator 22.0.1, SVG Export Plug-In . SVG Version: 6.00 Build 0)  -->
<svg version="1.1" id="Layer_1" xmlns="http://www.w3.org/2000/svg" xmlns:xlink="http://www.w3.org/1999/xlink" x="0px" y="0px"
	 viewBox="0 0 32 32" style="enable-background:new 0 0 32 32;" xml:space="preserve">
<style type="text/css">
	.st0{fill:#2BDDF8;}
	.st1{fill:#FFFFFF;}
</style>
<g>
	<circle class="st0" cx="16" cy="15.99" r="16"/>
</g>
<path class="st1" d="M10.118,22.941c0.024,0.022,0.047,0.045,0.071,0.067l0.002-0.002c-0.043,0.019-0.074,0-0.101-0.032
	C10.099,22.963,10.108,22.952,10.118,22.941z"/>
<path class="st1" d="M26.901,10.563c0.008,0.005,0.016,0.01,0.025,0.015c-0.005,0-0.011,0.002-0.014,0
	c-0.004-0.005-0.006-0.011-0.009-0.017C26.903,10.561,26.901,10.563,26.901,10.563z"/>
<path class="st1" d="M10.189,23.008c0.006,0.003,0.013,0.005,0.018,0.009c0.002,0.002,0,0.009,0,0.014
	c-0.005-0.008-0.01-0.017-0.015-0.025C10.191,23.006,10.189,23.008,10.189,23.008z"/>
<g>
	<path class="st1" d="M5.253,18.943c0.001-3.577,2.514-6.632,6.022-7.297c0.411-0.078,0.575-0.224,0.656-0.675
		c0.603-3.35,3.445-5.818,6.843-6.063c3.824-0.275,7.388,2.525,7.891,6.615c0.46,3.745-2.239,7.411-6.043,8.107
		c-0.457,0.084-0.561,0.312-0.637,0.699c-0.594,3.044-2.912,5.357-5.923,5.933C9.467,27.141,5.252,23.638,5.253,18.943z
		 M19.251,11.476c0-0.007,0-0.015,0-0.022c1.749,0,3.498-0.007,5.247,0.006c0.329,0.002,0.407-0.055,0.331-0.408
		c-0.541-2.529-2.866-4.416-5.525-4.454c-2.631-0.037-5.061,1.838-5.629,4.332c-0.089,0.393-0.027,0.561,0.434,0.554
		C15.823,11.462,17.538,11.476,19.251,11.476z M12.674,19.806c0,0.007,0,0.015,0,0.022c-1.573,0-3.147,0-4.72,0
		c-1.025,0-1.025,0-0.696,0.974c0.827,2.447,3.124,3.979,5.798,3.868c2.402-0.1,4.594-1.939,5.187-4.336
		c0.088-0.357,0.087-0.543-0.376-0.537C16.135,19.819,14.405,19.806,12.674,19.806z M13.529,15.591c0.007,0,0.015,0,0.022,0
		c0,0.699,0.012,1.399-0.006,2.098c-0.008,0.3,0.096,0.389,0.391,0.386c1.364-0.012,2.729-0.013,4.093,0
		c0.302,0.003,0.388-0.1,0.384-0.392c-0.017-1.364-0.023-2.728-0.013-4.092c0.002-0.302-0.097-0.386-0.39-0.383
		c-1.364,0.013-2.729,0.012-4.093,0.001c-0.294-0.003-0.401,0.09-0.393,0.389C13.541,14.261,13.529,14.926,13.529,15.591z
		 M20.09,15.186c-0.059,0.669,0.075,1.522,0.049,2.376c-0.01,0.327,0.082,0.432,0.422,0.358c2.039-0.445,3.885-2.332,4.281-4.368
		c0.057-0.292-0.001-0.367-0.287-0.366c-1.362,0.009-2.724,0.011-4.086-0.001c-0.304-0.003-0.395,0.111-0.385,0.4
		C20.103,14.056,20.09,14.528,20.09,15.186z M11.814,15.745c-0.007,0-0.015,0-0.022,0c0-0.682-0.016-1.365,0.007-2.046
		c0.012-0.358-0.12-0.42-0.433-0.333c-2.225,0.621-3.643,2.044-4.27,4.265C7,17.973,7.075,18.102,7.452,18.098
		c1.312-0.017,2.624-0.018,3.936,0.001c0.364,0.005,0.442-0.141,0.432-0.465C11.801,17.005,11.814,16.375,11.814,15.745z"/>
</g>
</svg>
