<svg id="Layer_1" data-name="Layer 1" xmlns="http://www.w3.org/2000/svg" viewBox="0 0 32 32"><defs><style>.cls-1{fill:#16b9ad;}.cls-2{fill:#fff;}</style></defs><circle class="cls-1" cx="16" cy="16" r="16"/><path class="cls-2" d="M26,12.776a9.917,9.917,0,0,1-10,9.807,9.917,9.917,0,0,1-10-9.8,9.529,9.529,0,0,1,.074-1.193h1.8a7.946,7.946,0,0,0-.09,1.193,8.23,8.23,0,0,0,16.421.607H11.48a4.513,4.513,0,0,0,3.777,3.807,4.586,4.586,0,0,0,4.822-2.42H22a6.36,6.36,0,0,1-12.347-2,6.21,6.21,0,0,1,.117-1.193H25.926A9.517,9.517,0,0,1,26,12.776Z"/></svg>