<?xml version="1.0" encoding="utf-8"?>
<!-- Generator: Adobe Illustrator 22.0.1, SVG Export Plug-In . SVG Version: 6.00 Build 0)  -->
<svg version="1.1"
	 id="svg8" inkscape:version="0.92.1 r15371" sodipodi:docname="VIA.svg" xmlns:cc="http://creativecommons.org/ns#" xmlns:dc="http://purl.org/dc/elements/1.1/" xmlns:inkscape="http://www.inkscape.org/namespaces/inkscape" xmlns:rdf="http://www.w3.org/1999/02/22-rdf-syntax-ns#" xmlns:sodipodi="http://sodipodi.sourceforge.net/DTD/sodipodi-0.dtd" xmlns:svg="http://www.w3.org/2000/svg"
	 xmlns="http://www.w3.org/2000/svg" xmlns:xlink="http://www.w3.org/1999/xlink" x="0px" y="0px" viewBox="0 0 283.465 283.465"
	 style="enable-background:new 0 0 283.465 283.465;" xml:space="preserve">
<style type="text/css">
	.st0{fill:#FFFFFF;}
	.st1{fill:#FF0701;}
</style>
<sodipodi:namedview  bordercolor="#666666" borderopacity="1.0" id="base" inkscape:current-layer="layer1" inkscape:cx="274.6064" inkscape:cy="156.01504" inkscape:document-units="mm" inkscape:pageopacity="0.0" inkscape:pageshadow="2" inkscape:window-height="1545" inkscape:window-maximized="1" inkscape:window-width="2560" inkscape:window-x="0" inkscape:window-y="25" inkscape:zoom="1.979899" pagecolor="#ffffff" showgrid="false">
	</sodipodi:namedview>
<g>
	<ellipse class="st0" cx="140.5" cy="141.25" rx="129.5" ry="131.25"/>
	<path class="st1" d="M141.732,3.047C65.138,3.047,3.047,65.138,3.047,141.732s62.091,138.685,138.685,138.685
		s138.685-62.091,138.685-138.685S218.326,3.047,141.732,3.047z M126.032,48.781h35.618l1.42,65.32h-38.34L126.032,48.781z
		 M84.734,197.645h-1.065c-25.797-0.118-32.778-25.323-32.778-25.323l8.52-74.787c3.432-20.117,35.5-24.495,35.5-24.495
		L84.734,197.645z M122.009,234.683l1.42-90.643h41.062l1.183,90.643H122.009z M203.422,197.112h-1.065L192.181,72.507
		c0,0,32.068,4.378,35.5,24.495l8.52,74.787C236.201,171.789,229.219,196.994,203.422,197.112z"/>
</g>
</svg>
