<?xml version="1.0" encoding="utf-8"?>
<!-- Generator: Adobe Illustrator 22.0.1, SVG Export Plug-In . SVG Version: 6.00 Build 0)  -->
<svg version="1.1" id="Layer_1" xmlns="http://www.w3.org/2000/svg" xmlns:xlink="http://www.w3.org/1999/xlink" x="0px" y="0px"
	 viewBox="0 0 32 32" style="enable-background:new 0 0 32 32;" xml:space="preserve">
<style type="text/css">
	.st0{fill:#60AC04;}
	.st1{fill:#FFFFFF;}
</style>
<g>
	<circle class="st0" cx="16" cy="16" r="16"/>
	<g>
		<path class="st1" d="M20.849,13.465c-0.944,1.345-1.418,2.887-1.878,4.438c-0.257,0.868-0.494,1.743-0.817,2.591
			c-0.526,1.377-1.61,2.015-2.981,2.273c-0.669,0.126-1.347,0.175-2.03,0.138c-0.245-0.013-0.38-0.065-0.253-0.351
			c0.305-0.687,0.52-1.416,1.006-2.016c0.12-0.148,0.143-0.36,0.247-0.534c1.033-1.732,2.33-3.245,3.793-4.625
			c0.087-0.082,0.348-0.148,0.156-0.362c-0.165-0.184-0.272,0.025-0.364,0.092c-1.143,0.833-2.162,1.783-3.03,2.917
			c-1.075,1.403-1.946,2.909-2.619,4.536c-0.261-0.065-0.078-0.39-0.286-0.485c-0.219-1.488-0.126-2.96,0.48-4.338
			c0.558-1.271,1.469-2.293,2.617-3.089c1.691-1.171,3.602-1.781,5.589-2.199c0.148-0.031,0.357,0.134,0.434-0.13
			c0.079-0.15,0.046-0.313,0.046-0.47c0.003-1.786,0.008-3.572-0.005-5.358c-0.003-0.35,0.119-0.468,0.465-0.461
			c0.839,0.017,1.68,0.018,2.519-0.003c0.385-0.01,0.506,0.133,0.505,0.511c-0.009,2.038,0.018,4.077,0.036,6.115
			c0.036,4.038,0.008,8.077,0.009,12.115c0,0.399,0.013,0.799,0.02,1.198c-1.179,0.062-2.358,0.041-3.538,0.011
			c-0.002-3.941-0.004-7.881-0.01-11.822c0-0.169,0.047-0.346-0.046-0.507c-0.018-0.062-0.037-0.123-0.055-0.185
			c0,0-0.007-0.014-0.007-0.014L20.849,13.465z"/>
		<path class="st1" d="M7.719,6.028c1.116-0.085,2.233-0.013,3.35-0.04c0.184-0.004,0.221,0.091,0.218,0.248
			c-0.006,0.266,0,0.533,0,0.799c0.002,5.286-0.002,10.573,0.012,15.859c0.002,0.726-0.41,1.309-0.565,1.976
			c-0.084,0.36-0.339,0.702-0.139,1.099c-0.033,0.007-0.067,0.014-0.1,0.021c-0.056,0.001-0.113,0.002-0.169,0.004
			c-0.153-0.042-0.307-0.039-0.46,0.002c-0.06-0.001-0.119-0.001-0.179-0.002c-0.587-0.043-1.174-0.042-1.761-0.001
			c-0.049,0-0.097,0.001-0.146,0.001c-0.016-0.019-0.035-0.024-0.058-0.015c-0.017,0-0.027-0.008-0.03-0.025
			c0.005-0.958,0.015-1.916,0.015-2.875C7.713,17.395,7.716,11.711,7.719,6.028z"/>
		<path class="st1" d="M24.507,25.967c-0.007-0.399-0.02-0.799-0.02-1.198c-0.001-4.038,0.027-8.077-0.009-12.115
			c-0.018-2.038-0.044-4.077-0.036-6.115c0.002-0.377-0.12-0.52-0.505-0.511c-0.839,0.021-1.679,0.02-2.519,0.003
			c-0.346-0.007-0.468,0.111-0.465,0.461c0.013,1.786,0.008,3.572,0.005,5.358c0,0.157,0.033,0.32-0.046,0.47
			c-0.004-2.025-0.006-4.05-0.016-6.074c-0.001-0.218,0.085-0.268,0.283-0.267c1.026,0.006,2.052,0.012,3.077-0.003
			c0.318-0.005,0.294,0.181,0.294,0.387c0.001,1.958,0.003,3.917,0.004,5.875c0.001,4.463,0.002,8.926,0,13.389
			C24.555,25.74,24.608,25.866,24.507,25.967z"/>
		<path class="st1" d="M7.719,6.028c-0.004,5.683-0.007,11.367-0.011,17.05c-0.001,0.958-0.01,1.917-0.015,2.875
			c-0.111-0.229-0.044-0.472-0.044-0.707C7.644,19,7.648,12.754,7.644,6.508c0-0.186,0.108-0.445-0.204-0.523
			c-0.001,0-0.009,0.004-0.009,0.004C7.517,6.074,7.616,6.064,7.719,6.028z"/>
		<path class="st1" d="M20.913,13.648c0.093,0.162,0.046,0.339,0.046,0.507c0.006,3.941,0.007,7.881,0.01,11.822
			c-0.127-0.068-0.072-0.189-0.072-0.284c-0.002-3.989-0.001-7.978,0.001-11.968C20.898,13.7,20.908,13.674,20.913,13.648z"/>
		<path class="st1" d="M11.628,23.748c-0.161,0.599-0.322,1.198-0.484,1.797c-0.033,0.12-0.089,0.252-0.232,0.214
			c-0.168-0.045-0.096-0.199-0.064-0.302c0.198-0.642,0.405-1.281,0.689-1.891C11.567,23.627,11.597,23.687,11.628,23.748z"/>
		<path class="st1" d="M11.628,23.748c-0.03-0.061-0.061-0.121-0.091-0.182c0.158-0.484,0.404-0.953,0.255-1.489
			c0.208,0.096,0.026,0.421,0.286,0.486C11.928,22.958,11.778,23.353,11.628,23.748z"/>
		<path class="st1" d="M7.927,25.992c0.587-0.041,1.174-0.043,1.761,0.001C9.1,25.992,8.513,25.992,7.927,25.992z"/>
		<path class="st1" d="M9.866,25.994c0.153-0.041,0.307-0.044,0.46-0.002C10.173,25.993,10.019,25.994,9.866,25.994z"/>
		<path class="st1" d="M10.495,25.989c0.033-0.007,0.066-0.014,0.1-0.021C10.578,26.052,10.532,26,10.495,25.989z"/>
		<polygon class="st1" points="20.849,13.465 20.851,13.45 20.858,13.464 		"/>
		<path class="st1" d="M7.723,25.978c0.023-0.008,0.042-0.003,0.058,0.015C7.754,26.016,7.732,26.02,7.723,25.978z"/>
	</g>
</g>
</svg>
