<?xml version="1.0" encoding="utf-8"?>
<!-- Generator: Adobe Illustrator 26.0.1, SVG Export Plug-In . SVG Version: 6.00 Build 0)  -->
<svg version="1.1" id="Layer_1" xmlns="http://www.w3.org/2000/svg" xmlns:xlink="http://www.w3.org/1999/xlink" x="0px" y="0px"
	 viewBox="0 0 32 32" style="enable-background:new 0 0 32 32;" xml:space="preserve">
<style type="text/css">
	.st0{fill:#FEFE99;}
	.st1{fill:#FECB33;}
</style>
<g>
	<path class="st0" d="M26.592,4.405c0.905,0.618,1.674,1.36,2.175,2.353c0.123,0.244,0.045,0.368-0.181,0.497
		c-0.454,0.258-0.905,0.529-1.329,0.833c-0.969,0.695-1.954,0.703-3.012,0.201c-1.692-0.803-3.202-1.901-4.786-2.879
		c-0.552-0.34-1.124-0.648-1.672-0.995C17.18,4.03,16.831,3.48,16.874,2.738c0.048-0.829-0.153-1.672,0.134-2.488
		c0.252,0,0.504,0,0.756,0c0.793,0.166,1.586,0.329,2.378,0.5c0.094,0.02,0.18,0.077,0.27,0.117
		c-0.092,0.836,0.282,1.372,1.029,1.734c0.749,0.363,1.448,0.83,2.198,1.192C24.565,4.24,25.452,4.961,26.592,4.405z"/>
	<path class="st0" d="M14.614,0.25c0.263,1.032,0.205,2.081,0.044,3.107c-0.086,0.545-0.627,0.886-1.055,1.21
		C11.658,6.036,9.522,7.2,7.374,8.333C6.299,8.901,4.207,8.445,3.38,7.568C3.145,7.319,3.057,7.044,3.25,6.712
		c0.508-0.874,1.218-1.559,1.998-2.182C6.188,5.039,6.925,4.584,7.62,4.01c0.6-0.496,1.245-0.924,1.976-1.175
		c0.915-0.315,1.457-0.916,1.658-1.847c0.703-0.4,1.461-0.599,2.269-0.615c0.125-0.002,0.254,0.002,0.335-0.123
		C14.11,0.25,14.362,0.25,14.614,0.25z"/>
	<path class="st0" d="M16.882,31.75c0-0.86,0.014-1.72-0.004-2.579c-0.013-0.625,0.227-1.13,0.745-1.434
		c2.131-1.25,4.125-2.718,6.311-3.881c0.816-0.434,1.607-0.51,2.472-0.21c0.818,0.283,1.623,0.571,2.215,1.246
		c0.119,0.136,0.316,0.272,0.119,0.475c-0.739,0.764-1.25,1.738-2.158,2.346c-0.644-0.452-1.252-0.562-1.991-0.091
		c-1.005,0.64-2.107,1.126-3.132,1.736c-0.646,0.384-1.173,0.907-1.048,1.779c-0.795,0.162-1.59,0.326-2.386,0.484
		c-0.102,0.02-0.203,0.027-0.262,0.128C17.47,31.75,17.176,31.75,16.882,31.75z"/>
	<path class="st0" d="M13.732,31.75c-0.806-0.364-1.727-0.341-2.522-0.744c0.037-0.693-0.245-1.186-0.846-1.558
		c-0.892-0.552-1.788-1.091-2.729-1.553c-0.78-0.384-1.54-0.862-2.475-0.551c-0.934-0.539-1.578-1.336-2.039-2.296
		c-0.088-0.184-0.065-0.273,0.143-0.38c0.483-0.247,0.946-0.535,1.405-0.825c0.976-0.616,1.96-0.604,2.878,0.058
		c1.772,1.279,3.71,2.277,5.62,3.313c1.129,0.613,1.757,1.363,1.591,2.678c-0.078,0.616,0.125,1.256-0.144,1.859
		C14.32,31.75,14.026,31.75,13.732,31.75z"/>
	<path class="st1" d="M31.75,18.142c-0.282,0.46-0.188,1.018-0.391,1.499c-0.904-0.377-1.414-0.986-1.373-2.035
		c0.047-1.208,0.003-2.419,0-3.629c-0.002-0.87,0.493-1.451,1.373-1.621c0.031,0.371,0.208,0.686,0.39,0.998
		C31.75,14.95,31.75,16.546,31.75,18.142z"/>
	<path class="st1" d="M0.603,19.57c-0.177-0.143-0.129-0.432-0.353-0.546c0-1.596,0-3.192,0-4.788
		c0.327-0.59,0.16-1.279,0.378-1.891c0.132,0.131,0.249,0.286,0.4,0.389c0.549,0.376,0.779,0.86,0.749,1.547
		c-0.052,1.194-0.014,2.392-0.015,3.588C1.762,18.863,1.543,19.184,0.603,19.57z"/>
	<path class="st0" d="M24.821,13.531c-0.192,1.377-0.126,2.763-0.105,4.145c0.01,0.686,0.09,1.359,0.016,2.058
		c-0.119,1.123-0.818,1.701-1.683,2.214c-0.913,0.542-1.841,1.059-2.756,1.594c-0.831,0.486-1.665,0.979-2.511,1.446
		c-0.447,0.247-0.899,0.472-1.369,0.649c-0.527,0.198-1.07-0.014-1.507-0.257c-0.695-0.387-1.371-0.81-2.076-1.185
		c-0.79-0.42-1.56-0.882-2.318-1.359c-0.796-0.501-1.683-0.844-2.42-1.449c-0.551-0.452-0.778-1.033-0.782-1.708
		c-0.013-2.491-0.041-4.982,0.005-7.472c0.019-1.031,0.732-1.676,1.591-2.134c0.961-0.513,1.877-1.101,2.819-1.643
		c1.238-0.712,2.438-1.529,3.795-1.998c0.5-0.173,1.118-0.111,1.627,0.186c1.302,0.76,2.596,1.533,3.923,2.252
		c0.82,0.444,1.661,0.88,2.424,1.41c0.698,0.485,1.254,1.164,1.215,2.127C24.693,12.786,24.881,13.146,24.821,13.531z
		 M10.708,15.949c0,0.714,0.025,1.429-0.007,2.141c-0.036,0.809,0.342,1.338,0.999,1.75c1.09,0.683,2.347,1.039,3.422,1.728
		c0.731,0.469,1.349,0.356,2.057,0.03c1.344-0.62,2.507-1.52,3.737-2.319c0.26-0.169,0.331-0.409,0.373-0.688
		c0.189-1.252,0.136-2.512,0.102-3.768c-0.027-1.016-0.068-1.995-1.163-2.621c-1.215-0.695-2.315-1.589-3.667-2.042
		c-0.435-0.146-0.806-0.125-1.253,0.062c-1.37,0.575-2.529,1.474-3.76,2.268c-0.619,0.399-0.958,0.851-0.855,1.634
		C10.771,14.723,10.708,15.34,10.708,15.949z"/>
	<path class="st0" d="M31.36,12.356c-0.88,0.17-1.375,0.752-1.373,1.621c0.002,1.21,0.046,2.421,0,3.629
		c-0.041,1.049,0.47,1.658,1.373,2.035c-0.2,1.004-0.428,1.998-0.92,2.913c-0.223,0.414-0.488,0.463-0.867,0.228
		c-0.747-0.464-1.517-0.892-2.245-1.384c-0.697-0.471-0.766-1.27-0.862-2.008c-0.319-2.464,0.096-4.932,0.003-7.399
		c-0.024-0.641,0.311-1.153,0.847-1.531c0.77-0.544,1.71-0.795,2.426-1.438c0.243-0.218,0.392,0.015,0.528,0.227
		C30.879,10.2,31.196,11.25,31.36,12.356z"/>
	<path class="st0" d="M0.603,19.57c0.94-0.385,1.159-0.707,1.159-1.7c0-1.196-0.038-2.394,0.015-3.588
		c0.03-0.688-0.199-1.171-0.749-1.547c-0.151-0.103-0.267-0.258-0.4-0.389c0.184-1.04,0.697-1.968,1.019-2.96
		C1.74,9.1,1.989,9.163,2.177,9.238c1.224,0.492,2.21,1.323,2.908,2.409c0.307,0.477,0.129,1.187,0.176,1.788
		c0.142,1.817,0.204,3.641,0.164,5.467c-0.04,1.847-1.511,3.621-3.318,3.989c-0.253,0.052-0.351-0.043-0.421-0.242
		C1.324,21.623,0.964,20.596,0.603,19.57z"/>
	<path class="st1" d="M20.411,31.138c-0.125-0.871,0.402-1.395,1.048-1.779c1.026-0.61,2.128-1.096,3.132-1.736
		c0.739-0.471,1.347-0.361,1.991,0.091C24.88,29.495,22.783,30.565,20.411,31.138z"/>
	<path class="st1" d="M26.592,4.405c-1.14,0.557-2.027-0.165-2.953-0.612c-0.75-0.362-1.449-0.829-2.198-1.192
		c-0.747-0.362-1.121-0.898-1.029-1.734c2.202,0.51,4.117,1.575,5.826,3.029C26.39,4.026,26.476,4.233,26.592,4.405z"/>
	<path class="st1" d="M5.159,27.343c0.935-0.311,1.695,0.167,2.475,0.551c0.941,0.463,1.838,1.002,2.729,1.553
		c0.602,0.372,0.884,0.865,0.846,1.558c-2.283-0.589-4.252-1.73-5.926-3.384C5.217,27.555,5.2,27.437,5.159,27.343z"/>
	<path class="st1" d="M11.254,0.987c-0.201,0.931-0.743,1.532-1.658,1.847C8.865,3.086,8.22,3.514,7.62,4.01
		C6.925,4.584,6.188,5.039,5.248,4.531C5.533,3.972,6.03,3.616,6.515,3.265C7.956,2.222,9.472,1.325,11.254,0.987z"/>
	<path class="st1" d="M10.708,15.949c0-0.609,0.063-1.226-0.016-1.825c-0.103-0.783,0.236-1.234,0.855-1.634
		c1.231-0.793,2.391-1.692,3.76-2.268c0.446-0.188,0.817-0.208,1.253-0.062c1.353,0.453,2.452,1.348,3.667,2.042
		c1.095,0.626,1.136,1.605,1.163,2.621c0.034,1.256,0.086,2.516-0.102,3.768c-0.042,0.278-0.113,0.518-0.373,0.688
		c-1.229,0.799-2.393,1.699-3.737,2.319c-0.707,0.326-1.325,0.439-2.057-0.03c-1.075-0.689-2.332-1.046-3.422-1.728
		c-0.657-0.412-1.035-0.941-0.999-1.75C10.733,17.378,10.708,16.663,10.708,15.949z"/>
</g>
</svg>
