<?xml version="1.0" encoding="UTF-8"?><svg id="a" xmlns="http://www.w3.org/2000/svg" viewBox="0 0 32 32"><defs><style>.b{fill:#fff;}.c{fill:#0098ff;}</style></defs><circle class="b" cx="16" cy="16" r="16"/><path class="c" d="M25.999,3.488V26.181h-6.568v-7.117h-5.354v7.117h-1.763v-8.869h8.869v7.109h2.91V2.186C16.451-2.27,6.644,.313,2.189,7.954-2.149,15.394,.172,24.932,7.444,29.545v-8.458h-3.434v-1.76h3.442v-2.525H1.951v-1.76H7.452v-2.636h-3.442v-1.76h3.442V5.553h6.624v7.117h5.354V5.553h1.76V14.422H12.322V7.313h-2.971V30.557c8.051,3.661,17.545,.102,21.206-7.948,3.031-6.666,1.155-14.539-4.558-19.12"/></svg>