<?xml version="1.0" encoding="utf-8"?>
<!-- Generator: Adobe Illustrator 26.2.1, SVG Export Plug-In . SVG Version: 6.00 Build 0)  -->
<svg version="1.1" id="Layer_1" xmlns="http://www.w3.org/2000/svg" xmlns:xlink="http://www.w3.org/1999/xlink" x="0px" y="0px"
	 viewBox="0 0 32 32" style="enable-background:new 0 0 32 32;" xml:space="preserve">
<style type="text/css">
	.st0{fill:#0198FE;}
</style>
<g>
	<path class="st0" d="M14.978,0.278c0.697,0,1.394,0,2.091,0c0.026,0.064,0.083,0.058,0.136,0.061
		c2.264,0.155,4.382,0.803,6.379,1.873c0.263,0.141,0.364,0.292,0.363,0.598c-0.011,4.224-0.008,8.449-0.008,12.674
		c0,2.82-0.003,5.64,0.005,8.46c0.001,0.25-0.056,0.335-0.32,0.328c-0.729-0.019-1.459-0.021-2.188,0.001
		c-0.282,0.008-0.336-0.085-0.334-0.348c0.011-2.112,0.004-4.224,0.009-6.337c0-0.198-0.012-0.319-0.271-0.318
		c-2.733,0.009-5.466,0.008-8.199,0.001c-0.225-0.001-0.274,0.084-0.269,0.288c0.012,0.468,0.004,0.936,0.004,1.404
		c0,2.243,0.004,4.486-0.005,6.729c-0.001,0.249,0.053,0.349,0.322,0.331c0.358-0.024,0.719-0.024,1.077,0
		c0.279,0.019,0.367-0.051,0.365-0.351c-0.015-2.101-0.004-4.203-0.014-6.304c-0.001-0.258,0.042-0.351,0.329-0.348
		c1.535,0.016,3.07,0.015,4.605,0.001c0.269-0.002,0.317,0.086,0.316,0.33c-0.009,2.09,0.004,4.181-0.014,6.271
		c-0.003,0.346,0.102,0.406,0.419,0.403c1.883-0.015,3.767-0.017,5.651,0.001c0.331,0.003,0.406-0.08,0.405-0.407
		c-0.01-7.164-0.008-14.329-0.006-21.493c0-0.121-0.035-0.252,0.044-0.38c0.108,0.088,0.205,0.159,0.294,0.239
		c4.605,4.135,6.423,9.279,5.177,15.324c-1.476,7.162-7.518,11.975-14.503,12.387c-2.441,0.144-4.796-0.291-7.052-1.251
		c-0.218-0.093-0.304-0.195-0.303-0.445c0.012-2.276,0.007-4.551,0.007-6.827c0-5.106,0.003-10.213-0.007-15.319
		C9.481,7.553,9.53,7.442,9.862,7.455c0.717,0.029,1.437,0.026,2.155,0.001c0.312-0.011,0.398,0.068,0.396,0.389
		c-0.016,2.101-0.008,4.203-0.008,6.304c0,0.166-0.027,0.31,0.24,0.309c2.744-0.01,5.488-0.007,8.231-0.003
		c0.178,0,0.246-0.043,0.246-0.235c-0.006-2.744-0.006-5.488,0.001-8.231c0-0.209-0.074-0.259-0.265-0.253
		C20.509,5.748,20.16,5.74,19.812,5.74c-0.445,0-0.445,0-0.445,0.43c0,2.08-0.005,4.159,0.006,6.239
		c0.001,0.257-0.069,0.329-0.326,0.327c-1.535-0.011-3.07-0.012-4.606,0.001c-0.266,0.002-0.32-0.084-0.319-0.332
		c0.009-2.112,0.001-4.225,0.01-6.337c0.001-0.245-0.048-0.336-0.318-0.335c-1.96,0.012-3.92,0.012-5.879,0
		C7.648,5.732,7.599,5.835,7.601,6.091C7.612,7.539,7.6,8.988,7.613,10.436c0.002,0.25-0.07,0.307-0.31,0.303
		c-0.925-0.014-1.851,0.001-2.776-0.011c-0.229-0.003-0.303,0.064-0.293,0.293c0.017,0.38,0.02,0.763-0.001,1.143
		c-0.014,0.262,0.077,0.33,0.332,0.326c0.914-0.014,1.829,0.004,2.744-0.012c0.251-0.004,0.31,0.072,0.304,0.311
		c-0.016,0.631-0.021,1.263,0.001,1.894c0.01,0.293-0.065,0.381-0.371,0.378c-1.579-0.017-3.157-0.004-4.736-0.012
		c-0.225-0.001-0.308,0.061-0.298,0.292c0.016,0.369,0.024,0.742-0.002,1.11c-0.02,0.289,0.071,0.363,0.36,0.36
		c1.589-0.015,3.179-0.004,4.769-0.012c0.208-0.001,0.281,0.05,0.276,0.269c-0.014,0.631-0.018,1.263,0.001,1.894
		c0.008,0.255-0.08,0.308-0.316,0.305c-0.904-0.012-1.808,0.009-2.711-0.013c-0.3-0.007-0.372,0.09-0.354,0.369
		c0.023,0.358,0.019,0.719,0.001,1.077c-0.011,0.228,0.06,0.295,0.29,0.291C5.438,20.981,6.353,21,7.267,20.981
		c0.275-0.006,0.339,0.07,0.337,0.34c-0.011,2.548-0.007,5.096-0.007,7.643c0,0.094,0,0.188,0,0.327
		c-0.082-0.047-0.127-0.07-0.169-0.098c-1.376-0.901-2.59-1.981-3.62-3.265c-1.821-2.269-2.94-4.841-3.35-7.725
		c-0.06-0.422-0.04-0.856-0.181-1.267c0-0.61,0-1.22,0-1.829c0.066-0.023,0.061-0.08,0.063-0.133
		c0.023-0.597,0.099-1.191,0.212-1.775c0.71-3.665,2.456-6.745,5.3-9.172c2.281-1.946,4.923-3.123,7.892-3.568
		C14.156,0.399,14.579,0.414,14.978,0.278z"/>
</g>
</svg>
