<?xml version="1.0" encoding="utf-8"?>
<!-- Generator: Adobe Illustrator 25.2.3, SVG Export Plug-In . SVG Version: 6.00 Build 0)  -->
<svg version="1.1" id="Layer_1" xmlns="http://www.w3.org/2000/svg" xmlns:xlink="http://www.w3.org/1999/xlink" x="0px" y="0px"
	 viewBox="0 0 32 32" style="enable-background:new 0 0 32 32;" xml:space="preserve">
<style type="text/css">
	.st0{fill:#1E1E1C;}
	.st1{fill:#FDFDFD;}
	.st2{fill:#D0D0D0;}
</style>
<g>
	<path class="st0" d="M15.955,31.786C7.27,31.775,0.185,24.676,0.191,15.989C0.196,7.288,7.317,0.191,16.019,0.214
		c8.684,0.023,15.758,7.13,15.743,15.818C31.747,24.715,24.64,31.798,15.955,31.786z M23.981,20.362
		c-0.1,0.402-0.063,0.809,0.002,1.207c0.082,0.504,0.35,0.854,0.87,1.019c0.9,0.285,1.759,0.055,2.442-0.737
		c1.492-1.731,2.07-3.768,1.934-6.018c-0.034-0.567-0.233-1.114-0.548-1.603c-0.946-2.072-2.291-3.852-3.951-5.522
		c-0.098,0.922-0.058,1.73-0.04,2.537c0.048,2.123,0.102,4.245-0.31,6.348C24.201,18.508,24,19.423,23.981,20.362z M14.729,21.458
		c-0.655-1.341-1.452-2.584-2.563-3.595c-0.728-0.663-1.589-1.078-2.57-1.234c-1.692-0.27-2.889,0.499-3.181,2.071
		c-0.145,0.777-0.136,1.558-0.001,2.337c0.019,0.7,0.141,1.385,0.301,2.064c0.171,0.728,0.576,1.282,1.194,1.703
		c2.179,1.485,4.55,2.306,7.215,2.107c1.091-0.082,2.121-0.403,3.171-0.887c-1.272-0.771-2.005-1.943-2.722-3.129
		C15.285,22.42,15.072,21.9,14.729,21.458z M4.553,22.636c0.328,0.838,0.932,1.371,1.843,1.686
		c-0.286-0.913-0.518-1.755-0.649-2.624c-0.16-1.069-0.26-2.132-0.035-3.204c0.175-0.834,0.53-1.55,1.246-2.057
		c0.52-0.368,1.104-0.535,1.726-0.56c0.269-0.011,0.331-0.099,0.3-0.347c-0.044-0.35,0.036-0.693,0.121-1.032
		c0.082-0.056,0.08-0.201,0.209-0.196c0.009,0,0.014,0.122,0.02,0.187c-0.124,0.403-0.056,0.801,0.033,1.198
		c0.03,0.134,0.087,0.212,0.245,0.232c1.899,0.243,3.233,1.359,4.321,2.837c0.705,0.959,1.273,2.004,1.859,3.037
		c0.58,1.021,1.149,2.049,1.97,2.908c0.864,0.903,2.222,1.277,3.3,0.835c1.242-0.509,1.95-1.541,2.509-2.699
		c0.053-0.111,0.043-0.215-0.015-0.32c-0.441-0.79-0.418-1.643-0.303-2.495c0.182-1.343,0.404-2.681,0.597-4.022
		c0.12-0.835,0.106-0.829-0.617-1.252c-0.247-0.144-0.453-0.207-0.645,0.06c-1.444,0.646-2.85,0.627-4.181-0.286
		c-0.818-0.561-1.605-1.167-2.415-1.741c-1.138-0.806-2.393-1.256-3.804-1.23c-0.239,0.004-0.358,0.078-0.466,0.31
		c-0.384,0.825-0.909,1.546-1.745,1.974c-0.674,0.344-1.361,0.187-1.849-0.387c-0.276-0.325-0.466-0.696-0.612-1.092
		c-0.245-0.663-0.325-0.709-1.008-0.511c-0.255,0.074-0.496,0.182-0.725,0.323c-0.908,0.559-1.412,1.413-1.741,2.389
		c-0.548,1.624-0.581,3.301-0.432,4.982C3.709,20.628,3.938,21.696,4.553,22.636z M12.044,5.909c0.069,0,0.137,0.001,0.206,0
		c2.385-0.049,4.746,0.079,7.061,0.744c2.102,0.604,3.455,1.925,4.047,4.018c0.093,0.329,0.258,0.526,0.581,0.69
		c-0.009-0.798-0.112-1.574,0.03-2.32c0.129-0.676-0.167-1.093-0.598-1.497c-0.183-0.172-0.368-0.345-0.567-0.498
		c-2.077-1.596-4.419-2.353-7.041-2.202C14.451,4.919,13.214,5.277,12.044,5.909z M12.516,10.775
		c-0.798-1.388-1.591-2.763-2.38-4.14c-0.062-0.108-0.127-0.173-0.262-0.146C9.12,6.64,8.38,6.831,7.694,7.194
		c-0.189,0.1-0.213,0.204-0.105,0.396c0.438,0.778,0.865,1.561,1.282,2.351c0.107,0.202,0.226,0.282,0.457,0.244
		c0.514-0.086,1.032-0.04,1.545,0.018c0.344,0.039,0.738,0.059,0.95,0.362C12.018,10.841,12.221,10.85,12.516,10.775z M16.447,6.496
		c0.1,0.175,0.163,0.297,0.238,0.412c1.512,2.33,3.027,4.659,4.54,6.99c0.386,0.594,0.439,0.607,1.047,0.222
		c0.024-0.015,0.044-0.035,0.068-0.048c0.199-0.104,0.196-0.226,0.07-0.402c-0.211-0.295-0.4-0.606-0.595-0.912
		c-1.225-1.917-2.448-3.836-3.676-5.751c-0.087-0.135-0.147-0.31-0.347-0.336C17.365,6.616,16.947,6.491,16.447,6.496z
		 M12.958,6.236c-0.138,0-0.208,0-0.278,0c-0.468,0.002-0.468,0.002-0.239,0.43c0.786,1.466,1.571,2.932,2.357,4.399
		c0.086,0.16,0.167,0.312,0.351,0.397c0.545,0.253,1.066,0.55,1.54,0.924c0.059,0.047,0.116,0.144,0.201,0.052
		c0.046-0.05,0.061-0.139,0.004-0.194c-0.251-0.242-0.286-0.593-0.452-0.88c-0.884-1.523-1.766-3.048-2.623-4.587
		C13.602,6.388,13.389,6.095,12.958,6.236z M18.901,14.041c0.013-0.296-0.11-0.451-0.203-0.615c-1.27-2.222-2.552-4.436-3.801-6.669
		c-0.232-0.414-0.484-0.6-0.942-0.465c-0.031,0.101,0.039,0.162,0.08,0.232c1.188,2.058,2.4,4.102,3.549,6.181
		C17.9,13.278,18.382,13.607,18.901,14.041z M8.154,12.736c0.103-0.456-0.066-0.748-0.125-1.052
		c-0.074-0.378,0.075-0.591,0.421-0.694c0.147-0.043,0.298-0.075,0.45-0.097c0.718-0.105,1.435-0.229,2.166-0.109
		c0.107,0.018,0.262,0.041,0.281-0.098c0.019-0.143-0.14-0.151-0.245-0.16c-0.376-0.029-0.753-0.075-1.128-0.066
		c-0.655,0.015-1.313,0.058-1.936,0.287c-0.191,0.07-0.414,0.159-0.382,0.431C7.714,11.69,7.825,12.188,8.154,12.736z"/>
	<path class="st1" d="M9.334,14.489c-0.007-0.065-0.011-0.187-0.02-0.187c-0.129-0.005-0.127,0.14-0.209,0.196
		c-1.177,0.115-2.239,0.484-2.979,1.464c-0.79,1.045-0.969,2.292-1.06,3.548c-0.06,0.836,0.093,1.667,0.191,2.495
		c0.078,0.667-0.044,0.806-0.662,0.632c-0.013-0.004-0.028-0.001-0.042-0.002c-0.615-0.94-0.844-2.008-0.941-3.096
		c-0.15-1.681-0.116-3.358,0.432-4.982c0.329-0.976,0.833-1.83,1.741-2.389c0.229-0.141,0.47-0.249,0.725-0.323
		c0.683-0.198,0.763-0.153,1.008,0.511c0.146,0.396,0.336,0.767,0.612,1.092c0.488,0.574,1.175,0.732,1.849,0.387
		c0.836-0.427,1.361-1.149,1.745-1.974c0.108-0.232,0.226-0.305,0.466-0.31c1.411-0.026,2.666,0.425,3.804,1.23
		c0.81,0.573,1.597,1.18,2.415,1.741c1.33,0.912,2.736,0.932,4.181,0.286c0.39,0.012,0.652,0.303,0.977,0.456
		c0.124,0.058,0.096,0.166,0.083,0.287c-0.166,1.551-0.448,3.084-0.707,4.621c-0.322,1.911-1.989,2.297-3.441,1.954
		c-0.59-0.14-1.03-0.602-1.469-1.01c-1.365-1.269-2.477-2.763-3.692-4.165c-0.476-0.549-0.956-1.118-1.558-1.521
		C11.75,14.739,10.601,14.373,9.334,14.489z"/>
	<path class="st1" d="M6.414,21.037c-0.136-0.779-0.144-1.561,0.001-2.337c0.293-1.572,1.489-2.341,3.181-2.071
		c0.981,0.157,1.842,0.571,2.57,1.234c1.111,1.011,1.909,2.254,2.563,3.595c-0.211,0.098-0.357,0.276-0.479,0.456
		c-0.427,0.632-1.053,1.064-1.726,1.271c-2.16,0.665-4.064,0.327-5.595-1.636C6.784,21.363,6.711,21.079,6.414,21.037z"/>
	<path class="st2" d="M9.334,14.489c1.266-0.116,2.416,0.25,3.448,0.941c0.602,0.403,1.082,0.972,1.558,1.521
		c1.216,1.402,2.328,2.896,3.692,4.165c0.439,0.408,0.879,0.87,1.469,1.01c1.452,0.344,3.119-0.042,3.441-1.954
		c0.259-1.537,0.541-3.07,0.707-4.621c0.013-0.122,0.041-0.229-0.083-0.287c-0.325-0.153-0.586-0.443-0.977-0.456
		c0.193-0.267,0.399-0.205,0.645-0.06c0.722,0.423,0.737,0.417,0.617,1.252c-0.193,1.342-0.415,2.679-0.597,4.022
		c-0.115,0.851-0.138,1.705,0.303,2.495c0.059,0.105,0.068,0.21,0.015,0.32c-0.559,1.158-1.268,2.19-2.509,2.699
		c-1.077,0.442-2.436,0.068-3.3-0.835c-0.822-0.859-1.391-1.887-1.97-2.908c-0.587-1.033-1.154-2.078-1.859-3.037
		c-1.087-1.478-2.421-2.593-4.321-2.837c-0.158-0.02-0.215-0.098-0.245-0.232C9.278,15.29,9.21,14.893,9.334,14.489z"/>
	<path class="st2" d="M6.414,21.037c0.297,0.042,0.371,0.326,0.516,0.512c1.531,1.964,3.435,2.301,5.595,1.636
		c0.673-0.207,1.299-0.64,1.726-1.271c0.122-0.181,0.267-0.359,0.479-0.456c0.343,0.443,0.556,0.962,0.844,1.437
		c0.717,1.186,1.45,2.358,2.722,3.129c-1.049,0.484-2.08,0.805-3.171,0.887c-2.665,0.199-5.037-0.621-7.215-2.107
		c-0.618-0.422-1.023-0.975-1.194-1.703C6.555,22.421,6.432,21.737,6.414,21.037z"/>
	<path class="st1" d="M23.981,20.362c0.018-0.94,0.22-1.855,0.399-2.77c0.412-2.103,0.358-4.225,0.31-6.348
		c-0.018-0.807-0.058-1.615,0.04-2.537c1.66,1.67,3.005,3.451,3.951,5.522c-0.205,0.19-0.078,0.449-0.139,0.673
		c-0.386,1.42-0.881,2.789-1.852,3.928C25.978,19.668,25.162,20.343,23.981,20.362z"/>
	<path class="st2" d="M23.981,20.362c1.18-0.02,1.997-0.694,2.71-1.531c0.971-1.14,1.465-2.508,1.852-3.928
		c0.061-0.223-0.066-0.483,0.139-0.673c0.315,0.489,0.514,1.036,0.548,1.603c0.137,2.25-0.442,4.287-1.934,6.018
		c-0.683,0.793-1.542,1.022-2.442,0.737c-0.52-0.164-0.788-0.515-0.87-1.019C23.919,21.171,23.882,20.765,23.981,20.362z"/>
	<path class="st1" d="M12.044,5.909c1.169-0.632,2.407-0.99,3.719-1.065c2.622-0.152,4.965,0.606,7.041,2.202
		c0.199,0.153,0.383,0.326,0.567,0.498c0.43,0.404,0.726,0.821,0.598,1.497c-0.142,0.746-0.039,1.522-0.03,2.32
		c-0.323-0.164-0.488-0.361-0.581-0.69c-0.592-2.092-1.945-3.413-4.047-4.018c-2.315-0.665-4.676-0.793-7.061-0.744
		C12.181,5.91,12.113,5.909,12.044,5.909z"/>
	<path class="st1" d="M12.516,10.775c-0.295,0.075-0.498,0.066-0.692-0.21c-0.212-0.303-0.606-0.323-0.95-0.362
		c-0.513-0.058-1.031-0.104-1.545-0.018c-0.231,0.039-0.351-0.042-0.457-0.244C8.455,9.152,8.027,8.368,7.589,7.59
		C7.481,7.398,7.505,7.294,7.694,7.194C8.38,6.831,9.12,6.64,9.873,6.489c0.135-0.027,0.2,0.037,0.262,0.146
		C10.925,8.012,11.717,9.388,12.516,10.775z"/>
	<path class="st1" d="M16.447,6.496c0.5-0.005,0.918,0.12,1.345,0.175c0.201,0.026,0.261,0.2,0.347,0.336
		c1.228,1.915,2.451,3.834,3.676,5.751c0.195,0.306,0.384,0.617,0.595,0.912c0.126,0.176,0.128,0.298-0.07,0.402
		c-0.025,0.013-0.045,0.033-0.068,0.048c-0.607,0.386-0.661,0.373-1.047-0.222c-1.513-2.33-3.027-4.659-4.54-6.99
		C16.61,6.793,16.547,6.671,16.447,6.496z"/>
	<path class="st2" d="M4.553,22.636c0.014,0,0.029-0.002,0.042,0.002c0.618,0.173,0.74,0.035,0.662-0.632
		c-0.097-0.828-0.251-1.659-0.191-2.495c0.091-1.256,0.271-2.504,1.06-3.548c0.74-0.98,1.803-1.349,2.979-1.464
		C9.02,14.837,8.94,15.179,8.984,15.53c0.031,0.248-0.031,0.337-0.3,0.347c-0.622,0.025-1.206,0.192-1.726,0.56
		c-0.716,0.507-1.071,1.222-1.246,2.057c-0.225,1.072-0.125,2.136,0.035,3.204c0.131,0.869,0.363,1.712,0.649,2.624
		C5.485,24.007,4.881,23.474,4.553,22.636z"/>
	<path class="st1" d="M12.958,6.236c0.431-0.141,0.643,0.152,0.861,0.542c0.857,1.538,1.739,3.063,2.623,4.587
		c0.166,0.286,0.201,0.637,0.452,0.88c0.056,0.054,0.041,0.144-0.004,0.194c-0.084,0.092-0.141-0.006-0.201-0.052
		c-0.474-0.374-0.994-0.671-1.54-0.924c-0.184-0.085-0.265-0.237-0.351-0.397c-0.785-1.466-1.571-2.932-2.357-4.399
		c-0.229-0.428-0.229-0.428,0.239-0.43C12.75,6.236,12.82,6.236,12.958,6.236z"/>
	<path class="st1" d="M18.901,14.041c-0.519-0.434-1.001-0.763-1.318-1.336c-1.15-2.079-2.362-4.123-3.549-6.181
		c-0.04-0.07-0.111-0.131-0.08-0.232c0.458-0.135,0.71,0.051,0.942,0.465c1.25,2.233,2.532,4.447,3.801,6.669
		C18.792,13.59,18.914,13.746,18.901,14.041z"/>
	<path class="st2" d="M8.154,12.736c-0.328-0.548-0.439-1.046-0.5-1.557c-0.032-0.272,0.191-0.361,0.382-0.431
		c0.624-0.229,1.281-0.271,1.936-0.287c0.375-0.009,0.752,0.036,1.128,0.066c0.105,0.008,0.265,0.016,0.245,0.16
		c-0.019,0.139-0.174,0.115-0.281,0.098c-0.73-0.12-1.448,0.004-2.166,0.109c-0.151,0.022-0.303,0.054-0.45,0.097
		c-0.346,0.103-0.495,0.316-0.421,0.694C8.088,11.988,8.257,12.28,8.154,12.736z"/>
</g>
</svg>
