<?xml version="1.0" encoding="UTF-8"?> <svg xmlns="http://www.w3.org/2000/svg" xmlns:xlink="http://www.w3.org/1999/xlink" id="Layer_1" data-name="Layer 1" viewBox="0 0 491.53 600"><defs><style> .cls-1 { fill: url(#linear-gradient); } .cls-2 { fill: #fff; } </style><linearGradient id="linear-gradient" x1="68.68" y1="224.96" x2="422.85" y2="224.96" gradientUnits="userSpaceOnUse"><stop offset="0" stop-color="#2e3192"></stop><stop offset="1" stop-color="#0071bc"></stop></linearGradient></defs><g><g><rect class="cls-1" x="68.68" y="47.88" width="354.17" height="354.17" rx="66.62"></rect><path class="cls-2" d="M350.79,74.14h-210a45.84,45.84,0,0,0-45.8,45.8V330a45.84,45.84,0,0,0,45.8,45.8h69.83v-93H281v93h69.83a45.84,45.84,0,0,0,45.8-45.8v-210A45.84,45.84,0,0,0,350.79,74.14ZM210.57,96.75H281v70.4H210.57ZM188,260.16v93H140.74A23.21,23.21,0,0,1,117.55,330v-210a23.21,23.21,0,0,1,23.19-23.19H188v93h93v70.39ZM374,330a23.21,23.21,0,0,1-23.19,23.19H303.58V96.75h47.21A23.21,23.21,0,0,1,374,119.94Z"></path></g><path d="M154.75,448.09h19.12v60.76H154.75V485.13H137.6v23.72H118.49V448.09H137.6v20.65h17.15Zm55.41,62.72q-14,0-22.53-8.7T179,478.73q0-14.6,8.61-23.38t22.53-8.71q14,0,22.62,8.71t8.53,23.38q0,14.76-8.53,23.38T210.16,510.81Zm0-15.19a10.41,10.41,0,0,0,9-4.35q3.07-4.26,3.07-12.63,0-8.19-3.11-12.5a11.38,11.38,0,0,0-17.83,0q-3.12,4.31-3.12,12.5,0,8.44,3.16,12.63A10.19,10.19,0,0,0,210.16,495.62Zm75.13,13.23L270.61,485l-5,5.46v18.35H246.46V448.09h19.11v19.2L283,448.09h23.55l-22.7,24.24,25.09,36.52Zm64.12,0L334.73,485l-5,5.46v18.35H310.58V448.09h19.11v19.2l17.41-19.2h23.55L348,472.33,373,508.85ZM162.26,529.08h-14v8h11.59v2.87H148.25v11.59H145V526.2h17.31Zm11.31,22.43V526.2h3.31v25.31Zm33.92-25.31h3.13v25.31h-3.77L193.63,531v20.54H190.5V526.2h3.66l13.33,20.66Zm34.19,25.31L239,544.08H228.28l-2.73,7.43H222l9.81-25.31h3.73l9.77,25.31Zm-12.33-10.3H238l-3.45-9.6-.82-2.63-.85,2.63Zm44.39-15h3.13v25.31H273.1L259.88,531v20.54h-3.13V526.2h3.66l13.33,20.66Zm18.95,22.22a14.32,14.32,0,0,1-3.09-9.56q0-5.91,3.13-9.49a10.32,10.32,0,0,1,8.28-3.63,11.25,11.25,0,0,1,6.93,2.21,8.88,8.88,0,0,1,3.49,5.9h-3.38a6.34,6.34,0,0,0-2.38-3.81,7.37,7.37,0,0,0-4.52-1.35,7.26,7.26,0,0,0-6,2.7q-2.17,2.7-2.17,7.47a11.86,11.86,0,0,0,2.17,7.55,7.19,7.19,0,0,0,6,2.76,7,7,0,0,0,5-1.76,8.26,8.26,0,0,0,2.37-5.1h3.27a11.62,11.62,0,0,1-3.49,7.2,11.28,11.28,0,0,1-15.57-1.09Zm34.55.21h14.93v2.88H323.93V526.2h17.92v2.88H327.24v8h13.47v2.87H327.24Z"></path></g></svg> 