<?xml version="1.0" encoding="utf-8"?>
<!-- Generator: Adobe Illustrator 26.2.1, SVG Export Plug-In . SVG Version: 6.00 Build 0)  -->
<svg version="1.1" id="Layer_1" xmlns="http://www.w3.org/2000/svg" xmlns:xlink="http://www.w3.org/1999/xlink" x="0px" y="0px"
	 viewBox="0 0 32 32" style="enable-background:new 0 0 32 32;" xml:space="preserve">
<style type="text/css">
	.st0{fill:url(#SVGID_1_);}
	.st1{fill:url(#SVGID_00000091015383669536572360000003159466467514338726_);}
	.st2{fill:url(#SVGID_00000028287052815635976360000017744798972100880519_);}
	.st3{fill:url(#SVGID_00000085961915064275022910000007331833348920211378_);}
	.st4{fill:url(#SVGID_00000080168076670688832060000018170569745367095429_);}
	.st5{fill:url(#SVGID_00000147183189455830796990000003397349142683586228_);}
</style>
<g>
	
		<linearGradient id="SVGID_1_" gradientUnits="userSpaceOnUse" x1="-1684.7806" y1="111.8199" x2="-1684.8231" y2="111.8426" gradientTransform="matrix(365.4682 0 0 204.371 615751.5625 -22845.5156)">
		<stop  offset="0" style="stop-color:#F0FBFC"/>
		<stop  offset="1" style="stop-color:#B0E7ED"/>
	</linearGradient>
	<path class="st0" d="M2.451,14.936c-0.308-1.624-0.42-3.29-0.294-4.928C2.213,9.168,2.339,8.314,2.773,7.6
		c0.406-0.672,1.05-1.162,1.736-1.498c3.024-1.484,6.846-1.176,9.8,0.322c2.324,1.176,4.242,3.136,5.362,5.488
		c-2.044-1.638-4.704-2.478-7.322-2.394s-5.194,1.092-7.21,2.758c-0.98,0.812-1.834,1.764-2.688,2.716
		C2.465,14.964,2.451,14.95,2.451,14.936z"/>
	
		<linearGradient id="SVGID_00000163770599110908082070000000615159421912057744_" gradientUnits="userSpaceOnUse" x1="-1685.005" y1="118.8808" x2="-1685.0724" y2="118.8722" gradientTransform="matrix(184.0303 -315.7529 176.57 102.9103 289114.7812 -544269)">
		<stop  offset="0.2306" style="stop-color:#0DF9FF"/>
		<stop  offset="0.314" style="stop-color:#0FE6F2"/>
		<stop  offset="0.4828" style="stop-color:#15B6D0"/>
		<stop  offset="0.719" style="stop-color:#1D699A"/>
		<stop  offset="0.917" style="stop-color:#252369"/>
	</linearGradient>
	<path style="fill:url(#SVGID_00000163770599110908082070000000615159421912057744_);" d="M8.289,27.13
		c-1.554-0.546-3.052-1.302-4.41-2.226c-0.686-0.476-1.372-1.008-1.778-1.736c-0.378-0.686-0.476-1.484-0.42-2.254
		c0.238-3.36,2.436-6.51,5.208-8.316c2.184-1.414,4.844-2.086,7.448-1.876c-2.45,0.938-4.508,2.814-5.754,5.11
		c-1.246,2.296-1.666,5.04-1.246,7.616c0.21,1.26,0.602,2.478,0.994,3.696C8.331,27.144,8.317,27.144,8.289,27.13z"/>
	
		<linearGradient id="SVGID_00000158740947276759988570000015079881719350720146_" gradientUnits="userSpaceOnUse" x1="-1688.5502" y1="122.221" x2="-1688.5927" y2="122.2436" gradientTransform="matrix(-187.2399 -313.8603 175.5116 -104.7051 -337607.875 -517152.7188)">
		<stop  offset="0" style="stop-color:#F0FBFC"/>
		<stop  offset="1" style="stop-color:#B0E7ED"/>
	</linearGradient>
	<path style="fill:url(#SVGID_00000158740947276759988570000015079881719350720146_);" d="M21.785,28.18
		c-1.232,1.106-2.604,2.044-4.088,2.786c-0.742,0.378-1.54,0.714-2.38,0.714c-0.77,0-1.526-0.308-2.184-0.728
		c-2.828-1.848-4.522-5.278-4.746-8.582c-0.182-2.604,0.518-5.25,1.96-7.42c-0.364,2.59,0.28,5.306,1.694,7.504
		s3.598,3.892,6.062,4.774c1.204,0.434,2.464,0.672,3.71,0.91C21.813,28.152,21.799,28.166,21.785,28.18z"/>
	
		<linearGradient id="SVGID_00000109728827470066540820000014372631166234146445_" gradientUnits="userSpaceOnUse" x1="-1691.7928" y1="118.6328" x2="-1691.7114" y2="118.6554" gradientTransform="matrix(-365.4647 -1.9649 1.0988 -204.369 -618384.875 20944.2598)">
		<stop  offset="0.2267" style="stop-color:#0DF9FF"/>
		<stop  offset="0.8813" style="stop-color:#252369"/>
	</linearGradient>
	<path style="fill:url(#SVGID_00000109728827470066540820000014372631166234146445_);" d="M29.625,17.134
		c0.308,1.624,0.392,3.29,0.28,4.928c-0.056,0.84-0.196,1.694-0.63,2.408c-0.406,0.658-1.05,1.148-1.75,1.484
		c-3.038,1.47-6.846,1.134-9.8-0.378c-2.324-1.19-4.228-3.164-5.334-5.516c2.03,1.652,4.69,2.506,7.308,2.436
		s5.194-1.064,7.224-2.73c0.994-0.812,1.848-1.764,2.702-2.702C29.611,17.092,29.611,17.12,29.625,17.134z"/>
	
		<linearGradient id="SVGID_00000098912601336098052950000010151575032888103838_" gradientUnits="userSpaceOnUse" x1="-1691.4777" y1="111.8592" x2="-1691.52" y2="111.8818" gradientTransform="matrix(-180.3899 317.8487 -177.742 -100.8746 -285220.625 548939.5625)">
		<stop  offset="0" style="stop-color:#F0FBFC"/>
		<stop  offset="1" style="stop-color:#B0E7ED"/>
	</linearGradient>
	<path style="fill:url(#SVGID_00000098912601336098052950000010151575032888103838_);" d="M23.647,4.702
		c1.568,0.532,3.066,1.26,4.438,2.17c0.7,0.462,1.386,0.994,1.792,1.722c0.378,0.672,0.49,1.484,0.448,2.254
		c-0.21,3.374-2.352,6.538-5.124,8.372c-2.17,1.442-4.816,2.142-7.42,1.96c2.436-0.966,4.48-2.856,5.698-5.18
		c1.218-2.324,1.61-5.054,1.162-7.63c-0.224-1.26-0.63-2.478-1.036-3.682C23.605,4.688,23.619,4.702,23.647,4.702z"/>
	
		<linearGradient id="SVGID_00000035530972402506071570000001656367520319533956_" gradientUnits="userSpaceOnUse" x1="-1688.0585" y1="109.0045" x2="-1688.114" y2="109.0545" gradientTransform="matrix(183.0091 316.3478 -176.9027 102.3393 328236.0938 522868.9375)">
		<stop  offset="0.09" style="stop-color:#0DF9FF"/>
		<stop  offset="0.2783" style="stop-color:#13C2D9"/>
		<stop  offset="0.5334" style="stop-color:#1B7FA9"/>
		<stop  offset="0.7474" style="stop-color:#204D86"/>
		<stop  offset="0.9093" style="stop-color:#242E71"/>
		<stop  offset="1" style="stop-color:#252369"/>
	</linearGradient>
	<path style="fill:url(#SVGID_00000035530972402506071570000001656367520319533956_);" d="M10.319,3.722
		c1.246-1.078,2.632-2.002,4.116-2.73c0.756-0.364,1.554-0.686,2.394-0.672c0.77,0.014,1.526,0.322,2.17,0.756
		c2.8,1.876,4.438,5.334,4.634,8.652c0.154,2.604-0.588,5.25-2.058,7.392c0.392-2.59-0.21-5.306-1.596-7.532
		c-1.386-2.226-3.542-3.948-5.992-4.858c-1.19-0.448-2.45-0.7-3.696-0.966C10.291,3.75,10.305,3.736,10.319,3.722z"/>
</g>
</svg>
