<?xml version="1.0" encoding="utf-8"?>
<!-- Generator: Adobe Illustrator 22.0.1, SVG Export Plug-In . SVG Version: 6.00 Build 0)  -->
<svg version="1.1" id="Layer_1" xmlns="http://www.w3.org/2000/svg" xmlns:xlink="http://www.w3.org/1999/xlink" x="0px" y="0px"
	 viewBox="0 0 64 32" style="enable-background:new 0 0 64 32;" xml:space="preserve">
<style type="text/css">
	.st0{fill:#E60606;}
	.st1{fill:#FFFFFF;}
</style>
<g>
	<rect x="0.485" y="0.752" class="st0" width="63.031" height="30.375"/>
	<g>
		<rect x="0.938" y="3.063" class="st1" width="62" height="25.313"/>
		<g>
			<path class="st0" d="M0.485,28.956c0-8.84,0-17.609,0-26.411c21.014,0,41.996,0,63.031,0c0,8.782,0,17.571,0,26.411
				C42.537,28.956,21.538,28.956,0.485,28.956z M6.932,25.659c0-2.832,0-5.612,0-8.377c1.982,0,3.885,0,5.841,0
				c0,2.815,0,5.576,0,8.361c1.399,0,2.746,0,4.093,0c0-6.476,0-12.905,0-19.327c-1.394,0-2.738,0-4.14,0c0,2.695,0,5.335,0,7.979
				c-1.965,0-3.871,0-5.832,0c0-2.688,0-5.329,0-7.993c-1.403,0-2.751,0-4.121,0c0,6.47,0,12.897,0,19.356
				C4.143,25.659,5.473,25.659,6.932,25.659z M38.773,19.175c0.862,0,1.638,0.017,2.413-0.003c1.746-0.046,3.394-0.448,4.674-1.706
				c2.052-2.017,2.242-4.516,1.478-7.095c-0.734-2.476-2.628-3.773-5.113-4.012c-1.974-0.19-3.978-0.078-5.968-0.098
				C35.707,6.256,35.157,6.26,34.6,6.26c0,6.525,0,12.95,0,19.372c1.414,0,2.781,0,4.174,0
				C38.773,23.468,38.773,21.36,38.773,19.175z M61.517,25.66c0-0.962,0-1.895,0-2.908c-2.334,0-4.626,0-6.92,0
				c0-1.872,0-3.663,0-5.533c2.325,0,4.621,0,6.922,0c0-0.993,0-1.904,0-2.9c-2.332,0-4.624,0-6.924,0c0-1.753,0-3.422,0-5.173
				c2.321,0,4.615,0,6.928,0c0-0.994,0-1.905,0-2.835c-3.716,0-7.394,0-11.076,0c0,6.479,0,12.91,0,19.35
				C54.155,25.66,57.82,25.66,61.517,25.66z M27.946,25.72c0-2.432-0.004-4.74,0.006-7.047c0.001-0.284,0.027-0.589,0.134-0.847
				c0.493-1.196,1.02-2.377,1.533-3.565c1.057-2.449,2.114-4.898,3.169-7.348c0.081-0.188,0.145-0.383,0.246-0.651
				c-1.17,0-2.238-0.021-3.305,0.019c-0.194,0.007-0.459,0.227-0.552,0.417c-0.372,0.762-0.689,1.55-1.026,2.329
				c-0.75,1.73-1.499,3.46-2.277,5.256c-1.128-2.601-2.211-5.11-3.31-7.611c-0.072-0.164-0.263-0.386-0.404-0.39
				c-1.113-0.032-2.228-0.018-3.358-0.018c0.013,0.135,0.002,0.213,0.028,0.274c1.339,3.156,2.667,6.316,4.03,9.462
				c0.549,1.266,0.999,2.511,0.924,3.947c-0.099,1.886-0.024,3.781-0.024,5.773C25.21,25.72,26.573,25.72,27.946,25.72z"/>
			<path class="st0" d="M38.773,16.263c0-2.389,0-4.711,0-7.049c0.97,0,1.915-0.071,2.844,0.02c0.931,0.091,1.621,0.652,1.941,1.548
				c0.437,1.224,0.474,2.477,0.034,3.711c-0.401,1.121-1.224,1.724-2.418,1.765C40.398,16.285,39.621,16.263,38.773,16.263z"/>
		</g>
	</g>
</g>
</svg>
