<?xml version="1.0" encoding="utf-8"?>
<!-- Generator: Adobe Illustrator 22.0.1, SVG Export Plug-In . SVG Version: 6.00 Build 0)  -->
<svg version="1.1" id="Layer_1" xmlns="http://www.w3.org/2000/svg" xmlns:xlink="http://www.w3.org/1999/xlink" x="0px" y="0px"
	 viewBox="0 0 32 32" style="enable-background:new 0 0 32 32;" xml:space="preserve">
<style type="text/css">
	.st0{fill:none;stroke:#FCEE21;stroke-width:1.3174;stroke-miterlimit:10;}
	.st1{fill:none;stroke:#FCEE21;stroke-width:0.4391;stroke-miterlimit:10;}
	.st2{fill:#FCEE21;}
	.st3{fill:#FCEE21;stroke:#FCEE21;stroke-width:0.2196;stroke-miterlimit:10;}
	.st4{fill:none;stroke:#FCEE21;stroke-width:2.1956;stroke-miterlimit:10;}
	.st5{stroke:#000000;stroke-width:0.2196;stroke-miterlimit:10;}
	.st6{fill:none;stroke:#FCEE21;stroke-width:0.5855;stroke-miterlimit:10;}
	.st7{fill:none;stroke:#FCEE21;stroke-width:0.0732;stroke-miterlimit:10;}
	.st8{fill:#FCEE21;stroke:#FCEE21;stroke-width:0.0732;stroke-miterlimit:10;}
	.st9{fill:#FCEE21;stroke:#FCEE21;stroke-width:0.1464;stroke-miterlimit:10;}
	.st10{font-family:'TimesNewRomanPSMT';}
	.st11{font-size:8.0708px;}
</style>
<g>
	<g id="Layer_2_1_">
		<circle cx="15.1693" cy="9.2328" r="7.575"/>
		<circle cx="8.2896" cy="21.6748" r="7.575"/>
		<circle cx="22.2686" cy="22.0407" r="7.575"/>
	</g>
	<g id="Layer_1_1_">
		<circle class="st0" cx="15.2059" cy="9.3426" r="7.6847"/>
		<circle class="st1" cx="15.2059" cy="9.3426" r="6.1478"/>
		<g>
			<g>
				<path class="st2" d="M8.0554,7.8203c0.1391,0,0.1391-0.2196,0-0.2196C7.9164,7.6007,7.9164,7.8203,8.0554,7.8203L8.0554,7.8203z
					"/>
			</g>
		</g>
		
			<rect x="8.2371" y="6.4852" transform="matrix(0.5 -0.866 0.866 0.5 -2.1649 11.0358)" class="st3" width="0.4757" height="1.815"/>
		<rect x="15.1913" y="1.3651" class="st3" width="0.4757" height="1.8151"/>
		
			<rect x="17.8869" y="3.0609" transform="matrix(0.5 -0.866 0.866 0.5 6.5402 17.9257)" class="st3" width="1.815" height="0.4757"/>
		<rect x="14.9717" y="15.4904" class="st3" width="0.4757" height="1.8151"/>
		<circle class="st4" cx="8.2165" cy="21.8211" r="6.9163"/>
		<path d="M6.2111,28.3129c-1.5809-0.4684-2.9348-1.515-3.8351-3.0227c-1.4345-2.4152-1.2662-5.2769,0.4099-7.3847
			c0.1098-0.1391,0.322-0.1537,0.4684-0.0366l0,0c0.1317,0.1098,0.1537,0.3001,0.0512,0.4391
			c-1.515,1.9102-1.6614,4.4937-0.3659,6.6821c0.988,1.6614,3.0593,3.2715,5.9502,2.9275c0.1757-0.022,0.3367,0.0951,0.3659,0.2635
			l0,0c0.0366,0.1756-0.0878,0.344-0.2708,0.3659C8.0189,28.6496,7.082,28.5691,6.2111,28.3129z"/>
		<circle class="st4" cx="22.049" cy="21.9675" r="6.9163"/>
		<path d="M13.8007,19.5743c-0.6148-1.8224-2.6055-3.6374-5.3574-3.7838c-0.1903-0.0073-0.344-0.1683-0.344-0.3659l0,0
			c0-0.2122,0.1757-0.3733,0.3879-0.3659c3.0739,0.161,5.2988,2.2176,6.0014,4.2815c0.0659,0.2049-0.0512,0.4172-0.2562,0.4684l0,0
			C14.0569,19.8597,13.8666,19.7572,13.8007,19.5743z"/>
		
			<rect x="3.102" y="25.0801" transform="matrix(0.866 -0.5 0.5 0.866 -12.0988 5.0298)" class="st5" width="0.4684" height="0.022"/>
		<path class="st6" d="M3.7154,23.5045"/>
		<g>
			<path class="st2" d="M13.4494,21.6894c-0.0878-2.7153-2.2615-4.9475-4.9768-5.0939c-3.0373-0.161-5.5623,2.2615-5.5623,5.2622
				c0,0.1317,0.0073,0.2562,0.0146,0.3806c0.0073,0.1317,0.1317,0.2196,0.2562,0.1976c0.0073,0,0.0146,0,0.0146,0
				c0.1025-0.0146,0.1757-0.1098,0.1683-0.2122c-0.0073-0.1244-0.0146-0.2488-0.0146-0.3733c0-2.7958,2.3859-5.0427,5.2256-4.8158
				c2.3713,0.1903,4.2669,2.1225,4.4206,4.4937c0.161,2.4518-1.5223,4.545-3.7985,5.0353c-0.1098,0.022-0.183,0.1171-0.183,0.2342
				v0.0073c0,0.1317,0.1171,0.2269,0.2488,0.1976C11.7075,26.4978,13.5299,24.2949,13.4494,21.6894z"/>
		</g>
		<path class="st3" d="M7.4846,17.02L7.4846,17.02c-0.0878-0.2122,0.0439-0.4538,0.2708-0.4977
			c0.6294-0.1171,1.3759-0.0146,1.9248,0.2049c0.2122,0.0805,0.2928,0.344,0.1683,0.5343l0,0
			c-0.0951,0.1464-0.2781,0.2049-0.4464,0.1391c-0.4025-0.1537-1.0173-0.2562-1.5077-0.161
			C7.7188,17.2688,7.5504,17.181,7.4846,17.02z"/>
		<path class="st3" d="M11.305,18.0812L11.305,18.0812c0.0951-0.2122,0.3586-0.2854,0.5489-0.1464
			c0.5123,0.3806,0.9514,0.9954,1.171,1.5443c0.0878,0.2122-0.0512,0.4464-0.2708,0.4904l0,0
			c-0.1757,0.0293-0.344-0.0659-0.4099-0.2269c-0.161-0.4025-0.5123-0.9222-0.9149-1.2149
			C11.2904,18.4325,11.2318,18.2422,11.305,18.0812z"/>
		<path class="st3" d="M13.0322,21.565L13.0322,21.565c0.2196-0.0805,0.4538,0.0585,0.4904,0.2928
			c0.0878,0.6294-0.0439,1.3759-0.2854,1.9175c-0.0951,0.2049-0.3513,0.2781-0.5416,0.1464l0,0
			c-0.1464-0.1025-0.1903-0.2854-0.1244-0.4464c0.1757-0.4025,0.3001-1.01,0.2269-1.5004
			C12.7761,21.7992,12.8712,21.6308,13.0322,21.565z"/>
		<path class="st2" d="M7.3016,17.7958c0.0073-0.0512-0.0366-0.0878-0.0878-0.0805c-0.7904,0.1757-1.5004,0.5782-2.0566,1.1271
			c-0.0366,0.0293-0.022,0.0878,0.022,0.1025l0,0c0.0293,0.0146,0.0659,0.0073,0.0951-0.022
			c0.5343-0.527,1.2149-0.9075,1.9761-1.0759C7.2797,17.8543,7.3016,17.8251,7.3016,17.7958L7.3016,17.7958z"/>
		<path class="st2" d="M10.3975,18.3447L10.3975,18.3447c0.022-0.0366,0.0146-0.0805-0.022-0.1025
			c-0.3659-0.2269-0.7685-0.3952-1.193-0.4977c-0.0512-0.0146-0.0951,0.022-0.1025,0.0732l0,0c0,0.0293,0.0146,0.0585,0.0439,0.0659
			c0.4099,0.1025,0.7977,0.2708,1.1564,0.4904C10.317,18.3959,10.3682,18.3886,10.3975,18.3447z"/>
		<path class="st2" d="M12.3077,21.7699c0.0439,0,0.0805-0.0293,0.0805-0.0732c0-0.022,0-0.0366,0-0.0585
			c-0.022-0.3659-0.0805-0.7246-0.1903-1.0612c-0.0146-0.0366-0.0512-0.0585-0.0878-0.0439h-0.0073
			c-0.0366,0.0146-0.0586,0.0512-0.0439,0.0878c0.1098,0.344,0.1757,0.7026,0.1903,1.0759
			C12.2418,21.7406,12.2711,21.7699,12.3077,21.7699L12.3077,21.7699z"/>
		<path class="st2" d="M11.1586,24.7267c-0.0293-0.022-0.0732-0.022-0.1025,0c-0.183,0.1903-0.3879,0.3586-0.6075,0.5123
			c-0.0293,0.0146-0.0366,0.0512-0.022,0.0805l0,0c0.022,0.0439,0.0732,0.0585,0.1098,0.0293
			c0.2269-0.1537,0.4318-0.3293,0.6221-0.5196C11.1952,24.8072,11.1952,24.756,11.1586,24.7267L11.1586,24.7267z"/>
		<path class="st2" d="M11.5977,24.0753c0.0073,0.0732,0.1098,0.0878,0.1464,0.022c0.2854-0.4611,0.4904-0.9734,0.5855-1.5223
			c0.0073-0.0439-0.0293-0.0805-0.0732-0.0878l0,0c-0.0366,0-0.0659,0.022-0.0732,0.0585
			c-0.0951,0.5489-0.3001,1.0539-0.5855,1.5004C11.5977,24.0607,11.5904,24.068,11.5977,24.0753z"/>
		<path class="st2" d="M11.788,19.867l0.0439-0.0146c0.0293-0.0073,0.0366-0.0439,0.022-0.0659
			c-0.2049-0.3733-0.4684-0.7099-0.7758-1.0027c-0.0293-0.0293-0.0805-0.0293-0.1098,0.0073c0,0,0,0.0073-0.0073,0.0073
			c-0.022,0.0366-0.022,0.0805,0.0073,0.1098c0.2854,0.2708,0.527,0.5855,0.7246,0.9295
			C11.7148,19.867,11.7588,19.8817,11.788,19.867z"/>
		
			<rect x="4.9228" y="18.308" transform="matrix(0.7071 -0.7071 0.7071 0.7071 -11.7519 8.9763)" class="st7" width="0.0732" height="0.7319"/>
		
			<rect x="3.8903" y="19.6825" transform="matrix(0.679 -0.7342 0.7342 0.679 -13.7622 9.5609)" class="st8" width="0.322" height="1.6688"/>
		<circle class="st2" cx="4.5205" cy="20.9795" r="0.3659"/>
		<path class="st2" d="M18.0749,30.0109c-1.5077-0.7904-2.7665-1.998-3.6155-3.4764c-0.0293,0.0732-0.0878,0.1391-0.161,0.1756
			c0.8636,1.4784,2.1371,2.686,3.6521,3.4911C17.9651,30.1207,18.0163,30.0548,18.0749,30.0109z"/>
		<path class="st2" d="M24.4056,30.7647c-0.6953,0.1757-1.4272,0.2635-2.1737,0.2635c-0.8197,0-1.6175-0.1098-2.3713-0.322
			c-0.022,0.0805-0.0659,0.1537-0.1391,0.1976c0.7977,0.2269,1.6394,0.3513,2.5103,0.3513c0.7831,0,1.5443-0.0951,2.2688-0.2854
			C24.4496,30.9257,24.4203,30.8452,24.4056,30.7647z"/>
		<path class="st2" d="M29.441,27.4054c-0.8051,1.0759-1.837,1.9688-3.0373,2.5982c0.0659,0.0439,0.1171,0.1025,0.1537,0.1756
			c1.171-0.6294,2.1956-1.5004,3.0007-2.5469C29.4849,27.5883,29.441,27.5078,29.441,27.4054z"/>
		<path class="st2" d="M25.2034,13.346c-0.9295-0.3147-1.9322-0.4904-2.9641-0.4904c-0.1098,0-0.2269,0-0.3367,0.0073
			c0.0146,0.0805,0.0146,0.161-0.0146,0.2269c0.1171-0.0073,0.2342-0.0073,0.3513-0.0073c1.032,0,2.0273,0.1757,2.9495,0.4977
			C25.1668,13.507,25.1741,13.4192,25.2034,13.346z"/>
		<path class="st2" d="M29.9313,17.02c-0.0293,0.022-0.0659,0.0366-0.1098,0.0512c-0.0146,0.0073-0.022,0.0073-0.0366,0.0146
			c-0.0146,0.0146-0.0366,0.022-0.0585,0.0366c0,0,0,0-0.0073,0c0.6367,0.9588,1.0905,2.0419,1.3174,3.2056
			c0.0585-0.0585,0.1317-0.0878,0.2122-0.1025C31.0218,19.0619,30.5608,17.9788,29.9313,17.02z"/>
		<path class="st2" d="M31.1975,22.4798c-0.0293,0.6514-0.1317,1.2881-0.2928,1.8956c0.0659,0,0.2196,0.0732,0.2196,0.0732
			c0.1683-0.6148,0.2708-1.2588,0.3001-1.9175l0,0C31.3512,22.5384,31.2707,22.5311,31.1975,22.4798L31.1975,22.4798z"/>
		<path class="st2" d="M25.0643,13.9681c-0.0073,0.0732-0.0293,0.1464-0.0732,0.2049c1.7492,0.6441,3.2276,1.859,4.2083,3.4106
			c0.0512-0.0512,0.1171-0.0878,0.183-0.1098C28.3724,15.8709,26.8574,14.6268,25.0643,13.9681z"/>
		<path class="st2" d="M30.268,19.5303c-0.0293,0.022-0.0659,0.0366-0.1098,0.0512c-0.022,0.0073-0.0366,0.0293-0.0293,0.0512
			c0.2269,0.7612,0.3513,1.5735,0.3513,2.4152c0,0.7758-0.1098,1.5223-0.3074,2.2396c-0.0073,0.0146,0.0878,0.0585,0.1025,0.0659
			c0.0366,0.0146,0.0293,0.0146,0.0732,0c0.0366-0.0146,0.344-1.493,0.344-2.3054c0-0.8636-0.1317-1.7053-0.3659-2.4957
			C30.3192,19.523,30.29,19.5084,30.268,19.5303z"/>
		<path class="st2" d="M29.6752,25.7074c-0.4538,0.9075-1.0685,1.7272-1.8151,2.4152c0.0659,0.0366,0.1171,0.0878,0.1464,0.1537
			c0.7758-0.7172,1.4125-1.5735,1.8883-2.5323C29.8216,25.744,29.7484,25.7294,29.6752,25.7074z"/>
		<circle class="st9" cx="17.9431" cy="30.0841" r="0.1976"/>
		
			<rect x="19.1851" y="30.0987" transform="matrix(0.2203 -0.9754 0.9754 0.2203 -13.8957 42.9595)" class="st8" width="1.4784" height="0.1464"/>
		<circle class="st9" cx="24.4569" cy="30.8891" r="0.1976"/>
		
			<rect x="26.9523" y="28.1859" transform="matrix(0.8313 -0.5558 0.5558 0.8313 -11.5179 19.9003)" class="st8" width="0.1464" height="1.4784"/>
		<circle class="st9" cx="26.3598" cy="30.1572" r="0.1976"/>
		<circle class="st9" cx="28.0431" cy="28.108" r="0.1976"/>
		
			<rect x="29.0839" y="24.6709" transform="matrix(0.5 -0.866 0.866 0.5 -7.4337 37.959)" class="st8" width="0.1464" height="1.493"/>
		<circle class="st9" cx="29.58" cy="27.4493" r="0.1976"/>
		<path class="st8" d="M31.0658,24.4998l-0.0366,0.0878c-0.0073,0.0146-0.022,0.022-0.0366,0.0146l-0.7319-0.3074
			c-0.0146-0.0073-0.022-0.022-0.0146-0.0366l0.0366-0.0878c0.0073-0.0146,0.022-0.022,0.0366-0.0146l0.7319,0.3074
			C31.0658,24.4705,31.0731,24.4852,31.0658,24.4998z"/>
		<g>
			<g>
				<path class="st2" d="M31.0145,24.5291c0.1391,0,0.1391-0.2196,0-0.2196C30.8755,24.3095,30.8755,24.5291,31.0145,24.5291
					L31.0145,24.5291z"/>
			</g>
		</g>
		<g>
			<g>
				<path class="st2" d="M31.0145,24.5291c0.1391,0,0.1391-0.2196,0-0.2196C30.8755,24.3095,30.8755,24.5291,31.0145,24.5291
					L31.0145,24.5291z"/>
			</g>
		</g>
		<g>
			<g>
				<path class="st2" d="M31.0145,24.5364c0.1391,0,0.1391-0.2196,0-0.2196C30.8755,24.3168,30.8755,24.5364,31.0145,24.5364
					L31.0145,24.5364z"/>
			</g>
		</g>
		<g>
			<g>
				<path class="st2" d="M31.0145,24.5364c0.1391,0,0.1391-0.2196,0-0.2196C30.8755,24.3168,30.8755,24.5364,31.0145,24.5364
					L31.0145,24.5364z"/>
			</g>
		</g>
		<g>
			<g>
				<path class="st2" d="M31.0218,24.5364c0.1391,0,0.1391-0.2196,0-0.2196C30.8755,24.3168,30.8755,24.5364,31.0218,24.5364
					L31.0218,24.5364z"/>
			</g>
		</g>
		<g>
			<g>
				<path class="st2" d="M30.3339,24.3608c0.1391,0,0.1391-0.2196,0-0.2196C30.1948,24.1412,30.1948,24.3608,30.3339,24.3608
					L30.3339,24.3608z"/>
			</g>
		</g>
		<circle class="st9" cx="31.3365" cy="22.3261" r="0.1976"/>
		<circle class="st9" cx="30.1655" cy="19.3986" r="0.1976"/>
		<rect x="29.0688" y="20.8761" class="st8" width="1.493" height="0.1464"/>
		<circle class="st9" cx="31.1902" cy="20.4964" r="0.1976"/>
		
			<rect x="29.1392" y="17.2506" transform="matrix(0.885 -0.4657 0.4657 0.885 -4.6657 15.7618)" class="st8" width="0.8563" height="0.1464"/>
		
			<rect x="24.7013" y="13.6856" transform="matrix(0.3177 -0.9482 0.9482 0.3177 4.0774 33.184)" class="st8" width="0.7904" height="0.1464"/>
		<path class="st2" d="M29.0604,16.0466c-0.7685-0.9661-1.7419-1.7711-2.847-2.3347c-0.0146,0.0732-0.0512,0.1391-0.0951,0.1903
			c1.0759,0.5489,2.02,1.3247,2.7665,2.2615C28.9287,16.1125,28.9872,16.0686,29.0604,16.0466z"/>
		<circle class="st9" cx="26.1402" cy="13.8363" r="0.1976"/>
		<circle class="st9" cx="28.9945" cy="16.1783" r="0.1976"/>
		<path class="st2" d="M26.5866,18.9741c0.0293-0.0366,0.0659-0.0732,0.1098-0.0951c-0.8197-1.2076-2.1005-2.0712-3.5862-2.342
			c0.0073,0.0512,0.0073,0.1025,0,0.1464C24.552,16.9541,25.7962,17.7958,26.5866,18.9741z"/>
		<path class="st2" d="M27.1209,24.2071c-0.8343,1.8882-2.7299,3.213-4.9256,3.213c-1.0539,0-2.0346-0.3074-2.869-0.8343
			c-0.0366,0.0366-0.0805,0.0732-0.1317,0.0878c0.8636,0.5635,1.8956,0.8856,3.0007,0.8856c2.2908,0,4.2595-1.4052,5.1012-3.3959
			C27.238,24.1997,27.1795,24.2144,27.1209,24.2071z"/>
		<circle class="st9" cx="23.0663" cy="16.6175" r="0.1976"/>
		<circle class="st9" cx="26.6525" cy="18.9595" r="0.1976"/>
		<circle class="st9" cx="27.1648" cy="24.0095" r="0.1976"/>
		<circle class="st9" cx="19.1142" cy="26.4978" r="0.1976"/>
		<path class="st2" d="M23.1322,26.6515c-0.344,0.0805-0.7099,0.1244-1.0832,0.1244c-0.4904,0-0.9661-0.0732-1.4125-0.2122
			c-0.022,0.0439-0.0512,0.0805-0.0878,0.1171c0.4757,0.1464,0.9734,0.2269,1.493,0.2269c0.3952,0,0.7758-0.0439,1.1417-0.1317
			C23.1688,26.7394,23.1468,26.7028,23.1322,26.6515z"/>
		<path class="st2" d="M26.6672,19.9548c-0.7612-1.8004-2.5469-3.0739-4.6182-3.0739c-0.7026,0-1.3686,0.1464-1.9761,0.4025
			c0.0293,0.0366,0.0512,0.0732,0.0732,0.1171c0.5855-0.2488,1.2296-0.3879,1.9029-0.3879c2.02,0,3.7619,1.2369,4.5011,2.9934
			C26.5866,19.9768,26.6232,19.9622,26.6672,19.9548z"/>
		<path class="st2" d="M26.916,21.5723c0.0073,0.1098,0.0146,0.2122,0.0146,0.322c0,0.6733-0.1391,1.3174-0.3879,1.9102
			c0.0439,0.0146,0.0805,0.0293,0.1244,0.0512c0.2562-0.6001,0.4025-1.2662,0.4025-1.9614c0-0.1171-0.0073-0.2342-0.0146-0.3513
			C27.0038,21.5577,26.9599,21.5723,26.916,21.5723z"/>
		<path class="st2" d="M25.8694,25.1c-0.0439,0-0.0878-0.0073-0.1244-0.022c-0.3147,0.3659-0.6806,0.6806-1.0905,0.9441
			c0.0146,0.0439,0.022,0.0951,0.022,0.1464c0.4684-0.2854,0.8783-0.6514,1.2296-1.0685C25.8914,25.1,25.8767,25.1,25.8694,25.1z"/>
		<circle class="st9" cx="20.5047" cy="26.571" r="0.1976"/>
		<circle class="st9" cx="24.6033" cy="26.1319" r="0.1976"/>
		<circle class="st9" cx="25.9206" cy="24.9609" r="0.1976"/>
		<circle class="st9" cx="26.7257" cy="20.2037" r="0.1976"/>
		<circle class="st9" cx="19.9924" cy="17.4225" r="0.1976"/>
		<path class="st2" d="M26.2939,21.8943c0,0.5416-0.1025,1.0612-0.2928,1.5296c0.0293,0.022,0.0585,0.0512,0.0878,0.0805
			c0.2049-0.4977,0.3147-1.0393,0.3147-1.6101c0-1.7419-1.0466-3.2495-2.5469-3.9156c-0.0146,0.0366-0.0293,0.0659-0.0585,0.1025
			C25.2619,18.7253,26.2939,20.1964,26.2939,21.8943z"/>
		<path class="st2" d="M25.6718,24.1924c-0.0073-0.022-0.022-0.0439-0.0366-0.0659c-0.7392,1.1637-2.0419,1.9395-3.5203,1.9395
			c-0.0659,0-0.1391,0-0.2049-0.0073c0,0.0366-0.0073,0.0732-0.022,0.1098c0.0732,0.0073,0.1464,0.0073,0.2269,0.0073
			c1.493,0,2.8104-0.7685,3.5789-1.9395C25.6938,24.2217,25.6791,24.2071,25.6718,24.1924z"/>
		<circle class="st9" cx="21.8221" cy="26.0587" r="0.1976"/>
		<circle class="st9" cx="25.6279" cy="24.229" r="0.1976"/>
		
			<rect x="26.3039" y="23.2778" transform="matrix(0.4256 -0.9049 0.9049 0.4256 -6.2553 37.3961)" class="st8" width="0.0512" height="0.6953"/>
		<circle class="st9" cx="27.0185" cy="21.7406" r="0.1976"/>
		<circle class="st9" cx="23.725" cy="18.008" r="0.1976"/>
		<text transform="matrix(1 0 0 1 11.5676 11.082)" class="st2 st10 st11">M</text>
		<text transform="matrix(1 0 0 1 6.5588 24.9365)" class="st2 st10 st11">I</text>
		<text transform="matrix(1 0 0 1 19.569 24.748)" class="st2 st10 st11">T</text>
	</g>
</g>
</svg>
