<?xml version="1.0" encoding="utf-8"?>
<!-- Generator: Adobe Illustrator 28.0.0, SVG Export Plug-In . SVG Version: 6.00 Build 0)  -->
<svg version="1.1" id="Layer_1" xmlns="http://www.w3.org/2000/svg" xmlns:xlink="http://www.w3.org/1999/xlink" x="0px" y="0px"
	 viewBox="0 0 32 32" style="enable-background:new 0 0 32 32;" xml:space="preserve">
<style type="text/css">
	.st0{fill:#FEFEFE;}
</style>
<g>
	<circle cx="16.052" cy="16" r="15.833"/>
	<g>
		<path class="st0" d="M14.798,12.254c-0.713,0.413-1.381,0.802-2.052,1.189c-1.128,0.65-2.257,1.3-3.387,1.947
			c-0.28,0.16-0.412,0.399-0.413,0.717c0,1.224,0.001,2.448-0.002,3.672c-0.001,0.381,0.194,0.619,0.513,0.801
			c1.748,0.997,3.488,2.007,5.238,3c0.268,0.152,0.384,0.333,0.372,0.64c-0.019,0.477-0.013,0.956-0.002,1.434
			c0.005,0.227-0.052,0.267-0.251,0.151c-1.296-0.755-2.596-1.504-3.895-2.254c-0.956-0.552-1.911-1.107-2.872-1.651
			c-0.645-0.365-0.971-0.889-0.963-1.646c0.017-1.55,0.013-3.101,0.002-4.651c-0.005-0.698,0.293-1.202,0.887-1.545
			c1.389-0.801,2.804-1.56,4.155-2.42c0.625-0.398,1.105-0.431,1.673,0.028C14.084,11.895,14.433,12.043,14.798,12.254z"/>
		<path class="st0" d="M16.972,22.343c0-0.609,0.008-1.204-0.004-1.797c-0.004-0.218,0.087-0.339,0.267-0.443
			c1.726-0.987,3.442-1.992,5.176-2.964c0.461-0.258,0.661-0.571,0.654-1.111c-0.026-2.003-0.01-4.007-0.01-6.072
			c0.535,0.329,1.08,0.564,1.51,0.975c0.252,0.241,0.363,0.565,0.363,0.918c0.002,1.713,0.006,3.426-0.001,5.14
			c-0.002,0.559-0.283,0.979-0.754,1.255c-1.384,0.811-2.775,1.611-4.165,2.414c-0.926,0.535-1.854,1.068-2.781,1.604
			C17.158,22.301,17.098,22.359,16.972,22.343z"/>
		<path class="st0" d="M7.1,13.15c-0.004-0.566-0.104-1.104,0.055-1.642c0.115-0.388,0.329-0.683,0.682-0.886
			c1.48-0.852,2.954-1.716,4.439-2.56c0.444-0.252,0.931-0.248,1.373,0.004c1.645,0.938,3.28,1.894,4.921,2.84
			c0.141,0.081,0.255,0.175,0.257,0.343c0.005,0.625,0.002,1.25,0.002,1.934c-0.526-0.299-1.007-0.569-1.484-0.846
			c-1.297-0.751-2.593-1.503-3.887-2.258c-0.359-0.209-0.685-0.183-1.046,0.029c-1.713,1.006-3.438,1.994-5.159,2.988
			C7.216,13.116,7.171,13.125,7.1,13.15z"/>
		<path class="st0" d="M20.032,17.118c0-0.89,0-1.705,0-2.52c0-1.163-0.013-2.327,0.006-3.49c0.009-0.536-0.189-0.879-0.669-1.146
			c-1.644-0.916-3.267-1.871-4.897-2.812c-0.088-0.051-0.169-0.113-0.302-0.203c0.462-0.255,0.874-0.513,1.313-0.714
			c0.398-0.182,0.818-0.154,1.206,0.069c1.511,0.87,3.024,1.739,4.529,2.62c0.434,0.254,0.636,0.667,0.647,1.163
			c0.039,1.887,0.035,3.775,0.006,5.663c-0.003,0.208-0.056,0.344-0.246,0.449C21.109,16.481,20.604,16.785,20.032,17.118z"/>
		<path class="st0" d="M16.972,25.887c0-0.66,0.004-1.286-0.003-1.913c-0.002-0.171,0.094-0.249,0.22-0.322
			c2.185-1.259,4.37-2.518,6.555-3.777c0.379-0.218,0.76-0.433,1.185-0.675c0,0.492,0.016,0.93-0.004,1.367
			c-0.025,0.556-0.321,0.965-0.79,1.237c-2.333,1.351-4.671,2.693-7.008,4.038C17.098,25.859,17.062,25.862,16.972,25.887z"/>
		<path class="st0" d="M15.061,22.415c-0.799-0.461-1.532-0.883-2.265-1.306c-0.785-0.453-1.568-0.909-2.356-1.356
			c-0.255-0.144-0.324-0.328-0.311-0.628c0.036-0.802,0.029-1.608,0.013-2.411c-0.006-0.295,0.087-0.464,0.357-0.597
			c0.416-0.205,0.813-0.453,1.208-0.697c0.223-0.138,0.307-0.136,0.302,0.165c-0.015,0.804,0.004,1.608-0.01,2.412
			c-0.006,0.354,0.123,0.594,0.433,0.768c0.78,0.437,1.55,0.893,2.329,1.333c0.176,0.1,0.3,0.219,0.3,0.431
			C15.061,21.133,15.061,21.736,15.061,22.415z"/>
	</g>
</g>
</svg>
