<svg id="Layer_1" data-name="Layer 1" xmlns="http://www.w3.org/2000/svg" viewBox="0 0 25.731 31"><defs><style>.cls-1{fill:#35c1c7;}</style></defs><title>inv</title><path class="cls-1" d="M14.141,31.5c-.377-.314-.869-.24-1.3-.383a9.334,9.334,0,0,1-1.21-.456,37.928,37.928,0,0,0,8.277-1.671c.3-.1.378-.029.46.272.376,1.379.368,1.388-.982,1.795a6.975,6.975,0,0,0-1.683.443Z" transform="translate(-3.134 -0.5)"/><path class="cls-1" d="M9.949,5.428a2.482,2.482,0,0,1-2.54-1.9,2.486,2.486,0,0,1,1.4-2.8c.13-.067.31-.058.375-.232h1.085c.1.21.367.1.5.249,0,.107,0,.192.121.062l.276.157-.024.1.107-.032.012.024c-.015.2.12.2.259.205h0c.165.672-.221.42-.531.323a1.754,1.754,0,0,0-2.294.984,1.724,1.724,0,0,0,.781,2.253C9.707,4.976,10.01,5.051,9.949,5.428Z" transform="translate(-3.134 -0.5)"/><path class="cls-1" d="M3.149,19.1A12.6,12.6,0,0,1,7.283,9.081a14.329,14.329,0,0,1,1.142-.922c.14-.109.3-.2.5-.327a8.564,8.564,0,0,1,.511,2.4,24.475,24.475,0,0,1-.468,8.82.9.9,0,0,1-.108.2c-.156-.657-.561-.831-1.226-.794-1.156.065-2.32.049-3.479,0C3.63,18.445,3.29,18.574,3.149,19.1Z" transform="translate(-3.134 -0.5)"/><path class="cls-1" d="M16.94,20.338a1.5,1.5,0,0,0-.04.535c.347,1.106-.415,1.627-1.119,2.18a30.5,30.5,0,0,1-6.429,4.025c-.565-.47-1.236-.091-1.842-.231a31.5,31.5,0,0,0,2.682-6.074c.3-.179.427-.413.222-.745l.06-.3c.077-.06.217-.116.221-.181.063-.988.717-1.092,1.51-1.077,1.311.026,2.624.019,3.935,0,.771-.01,1.23.293,1.265,1.1l-.206.287a.245.245,0,0,0-.226.349l0,.008-.113.03Z" transform="translate(-3.134 -0.5)"/><path class="cls-1" d="M12.761,6.194a1.746,1.746,0,0,1,2.211.333,53.911,53.911,0,0,1,6.434,6.882.825.825,0,0,1,.2.964,1.706,1.706,0,0,0,.071,1.567.8.8,0,0,1-.118,1.029c-.454.561-.872,1.152-1.34,1.7-.448.525-1.019.447-1.249-.174A61.335,61.335,0,0,0,12.761,6.194Z" transform="translate(-3.134 -0.5)"/><path class="cls-1" d="M17.405,19.579c-.035-.811-.494-1.114-1.265-1.1-1.311.016-2.624.023-3.935,0-.793-.015-1.447.089-1.51,1.077,0,.065-.144.121-.221.181a33.477,33.477,0,0,0,.741-6.039,26.368,26.368,0,0,0-.666-6.124c-.068-.294-.239-.564.208-.758.422-.183.556.067.727.329a60.072,60.072,0,0,1,5.94,11.684C17.517,19.069,17.739,19.336,17.405,19.579Z" transform="translate(-3.134 -0.5)"/><path class="cls-1" d="M22.5,18.454a.194.194,0,0,1,.063-.118c.334-.1.59-.259.524-.671l0,.005c.185-.015.2-.143.191-.286l0,0,.169-.132.461,0,.176.124,0,0a.265.265,0,0,0,.247.338l.054.143-.073.093.119.008-.007.016a.148.148,0,0,0,.133.178l0,0a.26.26,0,0,0,.243.341A45.1,45.1,0,0,1,27.2,23.161c.183.4.093.588-.253.807a34.949,34.949,0,0,1-5,2.623c-.406.174-.549.054-.644-.323q-.378-1.5-.782-2.987a.843.843,0,0,1,.177-.857,1.492,1.492,0,0,0,.439-1.279A2.021,2.021,0,0,1,22,19.075a.162.162,0,0,0,.168-.166h0c.1-.007.153-.057.129-.164l.006-.011C22.5,18.737,22.5,18.6,22.5,18.454Z" transform="translate(-3.134 -0.5)"/><path class="cls-1" d="M3.149,19.1c.141-.526.481-.655,1.01-.635,1.159.045,2.323.061,3.479,0,.665-.037,1.07.137,1.226.794a22.931,22.931,0,0,1-3.04,7.237A12.652,12.652,0,0,1,3.149,19.1Z" transform="translate(-3.134 -0.5)"/><path class="cls-1" d="M9.288,28.979a36.131,36.131,0,0,0,8.585-5.629.66.66,0,0,1,1.169.341c.3,1.04.555,2.091.821,3.14.073.289.084.532-.308.656A29.332,29.332,0,0,1,9.288,28.979Z" transform="translate(-3.134 -0.5)"/><path class="cls-1" d="M16.619,5.775a12.219,12.219,0,0,1,8.549,3.772.532.532,0,0,1,.121.684c-.342.751-.667,1.509-1.029,2.25-.237.487-1.045.674-1.342.254a72.011,72.011,0,0,0-6.291-6.969Z" transform="translate(-3.134 -0.5)"/><path class="cls-1" d="M26.978,18.968c-.48-.789-.962-1.577-1.436-2.369-.05-.083-.109-.219-.075-.284.44-.846.106-1.671.068-2.524-.034-.777.626-1.585,1.055-2.546a12.323,12.323,0,0,1,2.265,7.085c-.382,0-.766.016-1.147-.01C27.227,18.286,26.988,18.489,26.978,18.968Z" transform="translate(-3.134 -0.5)"/><path class="cls-1" d="M9.949,5.428c.061-.377-.242-.452-.478-.6A1.724,1.724,0,0,1,8.69,2.572a1.754,1.754,0,0,1,2.294-.984c.31.1.7.349.531-.323a.7.7,0,0,1,.411.5c-.011.017-.036.044-.032.05a.687.687,0,0,0,.078.084A2.372,2.372,0,0,1,9.949,5.428Z" transform="translate(-3.134 -0.5)"/><path class="cls-1" d="M26.048,26.5a10.684,10.684,0,0,1-3.889,3.43.949.949,0,0,1-.11-.174c-.358-1.348-.353-1.338.928-1.9.73-.322,1.44-.69,2.164-1.024C25.383,26.721,25.643,26.648,26.048,26.5Z" transform="translate(-3.134 -0.5)"/><path class="cls-1" d="M26.978,18.968c.01-.479.249-.682.73-.648.381.026.765.008,1.147.01l0,.459c-.02.014-.059.035-.056.043a.74.74,0,0,0,.054.114A10.76,10.76,0,0,1,28.439,22l-1.133-2.414c-.01-.171.083-.393-.209-.426v-.014c.025-.1-.022-.156-.117-.179Z" transform="translate(-3.134 -0.5)"/><path class="cls-1" d="M7.51,26.847c.606.14,1.277-.239,1.842.231-.526.25-1.05.506-1.581.745-.225.1-.5.271-.7.013-.175-.226.072-.418.179-.608C7.33,27.1,7.425,26.974,7.51,26.847Z" transform="translate(-3.134 -0.5)"/><path class="cls-1" d="M23.082,17.665c.066.412-.19.572-.524.671A1.335,1.335,0,0,1,23.082,17.665Z" transform="translate(-3.134 -0.5)"/><path class="cls-1" d="M10.414,20.028c.205.332.083.566-.222.745C10.269,20.526,10.206,20.237,10.414,20.028Z" transform="translate(-3.134 -0.5)"/><path class="cls-1" d="M24.79,18.49a.26.26,0,0,1-.243-.341A.448.448,0,0,1,24.79,18.49Z" transform="translate(-3.134 -0.5)"/><path class="cls-1" d="M24.324,17.716a.265.265,0,0,1-.247-.338A.435.435,0,0,1,24.324,17.716Z" transform="translate(-3.134 -0.5)"/><path class="cls-1" d="M27.1,19.156c.292.033.2.255.209.426A.5.5,0,0,1,27.1,19.156Z" transform="translate(-3.134 -0.5)"/><path class="cls-1" d="M16.973,20.215a.245.245,0,0,1,.226-.349Z" transform="translate(-3.134 -0.5)"/><path class="cls-1" d="M11.516,1.266c-.139,0-.274-.008-.259-.205A.3.3,0,0,1,11.516,1.266Z" transform="translate(-3.134 -0.5)"/><path class="cls-1" d="M23.277,17.384c.008.143-.006.271-.191.286A.338.338,0,0,1,23.277,17.384Z" transform="translate(-3.134 -0.5)"/><path class="cls-1" d="M22.5,18.454c0,.143.007.283-.2.28C22.363,18.64,22.429,18.547,22.5,18.454Z" transform="translate(-3.134 -0.5)"/><path class="cls-1" d="M10.886.811c-.116.13-.124.045-.121-.062A.159.159,0,0,1,10.886.811Z" transform="translate(-3.134 -0.5)"/><path class="cls-1" d="M11.245,1.037l-.107.032.024-.1A.085.085,0,0,1,11.245,1.037Z" transform="translate(-3.134 -0.5)"/><path class="cls-1" d="M11.972,1.894a.687.687,0,0,1-.078-.084c0-.006.021-.033.032-.05A.2.2,0,0,1,11.972,1.894Z" transform="translate(-3.134 -0.5)"/><path class="cls-1" d="M16.627,5.766l-.051-.02.043.029Z" transform="translate(-3.134 -0.5)"/><path class="cls-1" d="M23.443,17.256l-.169.132C23.292,17.3,23.34,17.241,23.443,17.256Z" transform="translate(-3.134 -0.5)"/><path class="cls-1" d="M24.424,17.96l-.119-.008.073-.093A.092.092,0,0,1,24.424,17.96Z" transform="translate(-3.134 -0.5)"/><path class="cls-1" d="M24.55,18.154a.148.148,0,0,1-.133-.178C24.461,18.035,24.506,18.094,24.55,18.154Z" transform="translate(-3.134 -0.5)"/><path class="cls-1" d="M22.292,18.745c.024.107-.025.157-.129.164Z" transform="translate(-3.134 -0.5)"/><path class="cls-1" d="M28.857,18.946a.74.74,0,0,1-.054-.114c0-.008.036-.029.056-.043Z" transform="translate(-3.134 -0.5)"/><path class="cls-1" d="M22.167,18.909a.162.162,0,0,1-.168.166Z" transform="translate(-3.134 -0.5)"/><path class="cls-1" d="M26.981,18.963c.095.023.142.077.117.179Z" transform="translate(-3.134 -0.5)"/><path class="cls-1" d="M16.94,20.338l-.077-.085.113-.03A.118.118,0,0,1,16.94,20.338Z" transform="translate(-3.134 -0.5)"/><path class="cls-1" d="M24.08,17.382l-.176-.124A.144.144,0,0,1,24.08,17.382Z" transform="translate(-3.134 -0.5)"/></svg>