<?xml version="1.0" encoding="utf-8"?>
<!-- Generator: Adobe Illustrator 22.0.1, SVG Export Plug-In . SVG Version: 6.00 Build 0)  -->
<svg version="1.1" id="Layer_1" xmlns="http://www.w3.org/2000/svg" xmlns:xlink="http://www.w3.org/1999/xlink" x="0px" y="0px"
	 viewBox="0 0 32 32" style="enable-background:new 0 0 32 32;" xml:space="preserve">
<style type="text/css">
	.st0{fill:#FFFFFF;}
	.st1{fill:#211566;}
</style>
<g>
	<polygon class="st0" points="2.375,8.438 15.859,1.063 29.313,8.438 29.313,23.688 15.869,31.5 1.813,23.25 	"/>
	<path class="st1" d="M30.28,8.039L15.844,0.127L1.601,8L1.512,23.91l14.389,7.975l14.384-7.891L30.28,8.039z M15.859,9.854
		c0.948,0,1.716,0.768,1.716,1.716s-0.768,1.716-1.716,1.716s-1.716-0.768-1.716-1.716S14.911,9.854,15.859,9.854z M25.468,11
		c-2.016,1.223-4.442,3.894-4.442,3.894C17.551,18.383,16.3,25.497,16.3,25.497l-0.026,0.163l-0.365,5.461l-0.067-0.028
		c0,0-0.092-5.763-1.055-8.562s-1.555-3.961-2.4-5.43s-3.521-4.027-3.521-4.027l-5.447-4.03l3.317,1.82l7.78,4.405
		c1.203,1.061,2.76-0.029,2.76-0.029l4.39-2.509l6.654-3.665L25.468,11z"/>
</g>
</svg>
