<?xml version="1.0" encoding="utf-8"?>
<!-- Generator: Adobe Illustrator 25.2.1, SVG Export Plug-In . SVG Version: 6.00 Build 0)  -->
<svg version="1.1" id="Layer_1" xmlns="http://www.w3.org/2000/svg" xmlns:xlink="http://www.w3.org/1999/xlink" x="0px" y="0px"
	 viewBox="0 0 32 32" style="enable-background:new 0 0 32 32;" xml:space="preserve">
<style type="text/css">
	.st0{fill:#9D1A19;}
	.st1{fill:#AB1D1C;}
	.st2{fill:#A01B1B;}
	.st3{fill:#AB372D;}
	.st4{fill:#F2BB2E;}
	.st5{fill:#A53030;}
	.st6{fill:#B04546;}
	.st7{fill:#F2B92E;}
	.st8{fill:#030304;}
	.st9{fill:#161515;}
	.st10{fill:#A61A19;}
	.st11{fill:#EECA7E;}
	.st12{fill:#151515;}
	.st13{fill:#A11417;}
	.st14{fill:#9D1014;}
	.st15{fill:#F2BA2E;}
	.st16{fill:#1A0507;}
	.st17{fill:#040304;}
	.st18{fill:#981217;}
	.st19{fill:#9F1014;}
	.st20{fill:#FAF9F9;}
	.st21{fill:#AA1A18;}
	.st22{fill:#131515;}
	.st23{fill:#050303;}
	.st24{fill:#F2BC2E;}
	.st25{fill:#050203;}
	.st26{fill:#F3BD2E;}
	.st27{fill:#960E12;}
	.st28{fill:#141515;}
	.st29{fill:#101515;}
	.st30{fill:#F6C830;}
	.st31{fill:#F3C02F;}
	.st32{fill:#C3777D;}
	.st33{fill:#0F0303;}
	.st34{fill:#040303;}
	.st35{fill:#EFCC82;}
	.st36{fill:#8B080A;}
	.st37{fill:#971716;}
	.st38{fill:#B14129;}
	.st39{fill:#B04847;}
	.st40{fill:#9F1917;}
	.st41{fill:#C5734A;}
	.st42{fill:#9C1918;}
</style>
<g>
	<path class="st0" d="M0.469,4.763c-0.133-1.088-0.024-2.18-0.059-3.27C0.395,1.038,0.743,1.178,0.968,1.178
		C4.32,1.172,7.673,1.156,11.026,1.186c2.399,0.021,4.805-0.149,7.197,0.147c2.712,0.336,5.226,1.205,7.408,2.891
		c0.359,0.277,0.546,0.262,0.872-0.045c1.447-1.363,2.95-2.662,4.523-3.898c0.259,0.336-0.007,0.518-0.13,0.719
		c-0.955,1.56-1.99,3.067-3.072,4.541C27.59,5.86,27.549,6.044,27.816,6.38c1.801,2.268,2.66,4.897,2.88,7.757
		c0.02,0.259,0.029,0.485,0.234,0.71c1.15,1.262,1.118,2.679-0.107,3.96c-0.328,0.343-0.507,0.707-0.635,1.15
		c-1.6,5.539-5.488,8.447-10.974,9.5c-2.071,0.398-4.168,0.283-6.258,0.294c-1.165,0.006-2.332,0.04-3.495-0.009
		c-1.739-0.073-3.239,0.371-4.439,1.95c0.101-0.525,0.168-0.875,0.245-1.279c-1.064,0.148-2.005-0.727-3.078-0.243
		C2.105,30.226,2.042,30.208,2,30.117c0.066-0.367,0.361-0.399,0.645-0.426c0.499-0.046,0.99,0.006,1.469,0.163
		c0.484,0.158,0.984,0.081,1.476,0.087c0.07,0.008,0.133,0.036,0.188,0.079c0.066,0.069,0.155,0.132,0.244,0.077
		c1.481-0.91,3.187-0.913,4.825-1.172c0.227-0.036,0.13-0.132,0.162-0.218c0.003,0.095-0.014-0.075,0.067-0.034
		c0.057,0.029,0.089-0.002,0.05-0.01c-0.457-0.091-0.457-0.091-0.29-0.409c0.786,0.131,1.454-0.151,2.077-0.59
		c0.136-0.032,0.264,0.009,0.393,0.041c0.548-0.026,0.748-0.507,1.068-0.825c0.195-0.194,0.283-0.489,0.562-0.608
		c0.203,0.15,0.237-0.233,0.424-0.136c1.893,0.049,3.644-0.493,5.328-1.291c0.178-0.153,0.002-0.242-0.068-0.344
		c-0.389-0.569-0.685-1.185-0.926-1.827c-0.098-0.262-0.201-0.541,0.016-0.805c0.36,0.003,0.369,0.328,0.461,0.543
		c0.214,0.503,0.455,0.987,0.73,1.459c0.278,0.479,0.561,0.552,1.024,0.219c1.659-1.194,2.766-2.763,3.338-4.723
		c0.125-0.427,0.02-0.667-0.391-0.833c-0.288-0.117-0.683-0.1-0.785-0.513c0.218-0.479,0.632-0.108,0.935-0.218
		c0.308-0.003,0.561,0.24,0.91,0.212c-0.313-1.392,0.276-2.383,1.337-3.2c0.889-0.684,0.861-1.013-0.061-1.658
		c-0.636-0.445-1.213-0.965-2.06-1.047c-0.452-0.044-0.776-0.449-0.992-0.858c-0.152-0.288-0.332-0.483-0.658-0.589
		c-0.663-0.216-1.178-0.67-1.435-1.303c-0.284-0.699-0.756-0.906-1.45-0.854c-0.357,0.027-0.706,0.08-1.055,0.153
		c-0.183,0.038-0.423,0.122-0.529-0.063c-0.13-0.226-0.055-0.46,0.215-0.58c0.397,0.21,0.771,0.048,1.015-0.216
		c0.28-0.303-0.04-0.644-0.054-1.068c-0.295,0.328-0.326,0.648-0.477,0.907c-0.104,0.179-0.11,0.497-0.463,0.389
		c-0.23-0.741,0.143-1.339,0.512-1.904C20,5.78,20.417,5.876,20.642,6.259c0.196,0.334,0.198,0.726,0.316,1.084
		c-0.238-0.84-0.318-1.722-0.657-2.597c-0.37,0.175-0.473,0.501-0.598,0.788c-0.255,0.588-0.512,1.176-0.746,1.773
		c-0.094,0.24-0.16,0.504-0.424,0.634c-0.107,0.02-0.205-0.012-0.303-0.05c-0.216-0.101-0.478-0.085-0.665-0.259
		c0.03-0.425,0.486-0.241,0.658-0.464c0.274-0.327,0.331-0.758,0.531-1.119c0.066-0.138,0.18-0.267,0.079-0.437
		c-0.601-0.246-1.237-0.35-1.871-0.355c-1.682-0.013-3.365-0.012-5.047,0c-0.748,0.005-0.818,0.077-0.828,0.811
		c-0.012,0.924,0.019,1.849-0.012,2.772C11.06,9.295,11.222,9.448,11.65,9.36c0.126,0.018,0.228,0.071,0.282,0.194
		c0.019,0.08,0.011,0.157-0.02,0.233c-0.079,0.121-0.196,0.205-0.312,0.286c-1.836,1.279-2.191,3.101-1.857,5.151
		c0.125,0.77,0.423,1.5,0.674,2.24c0.342,1.006,0.682,2.033,0.331,3.117c-0.116,0.357-0.233,0.74-0.717,0.764
		c-0.209-0.258-0.038-0.495,0.051-0.73c0.219-0.575,0.204-1.145,0.07-1.742c-0.335-1.497-1.112-2.883-1.089-4.452
		c-0.341,0.942-0.265,1.888,0.005,2.832c-0.354,0.6-0.799,1.136-1.21,1.697c-0.105,0.143-0.224,0.312-0.455,0.242
		c-0.381-0.28-0.219-0.726-0.332-1.088c-0.059-0.285,0.071-0.54,0.149-0.829c-0.186,0.36-0.383,0.681-0.641,0.957
		c-0.153,0.164-0.287,0.153-0.34-0.097c0.007-4.211-0.008-8.42,0.014-12.629c0.003-0.519-0.11-0.703-0.664-0.688
		c-1.473,0.04-2.948,0.017-4.422,0.01C0.934,4.829,0.691,4.891,0.469,4.763z"/>
	<path class="st1" d="M2.025,30.159c0.055,0.004,0.11,0.008,0.165,0.013c-0.121,0.165-0.227,0.447-0.467,0.312
		c-0.197-0.111-0.12-0.387-0.039-0.581c0.098-0.234,0.231-0.453,0.349-0.679c-1.665-0.891-2.031-1.609-1.621-3.529
		c0.446,1.742,1.653,1.71,2.893,1.608c0.162-0.077,0.097-0.301,0.249-0.384c0.135-0.086,0.245-0.224,0.428-0.211
		c0.219,0.159,0.305,0.356,0.175,0.614c-0.88,0.688-1.861,0.482-2.836,0.316c-0.133-0.023-0.234-0.159-0.389-0.114
		c0.181,1.055,1.577,1.34,2.543,1.108c0.161-0.039,0.309-0.116,0.465-0.169c0.403-0.138,0.539-0.354,0.245-0.73
		c-0.088-0.112-0.129-0.253-0.046-0.396c0.197-0.206,0.094-0.473,0.143-0.71c0.302-1.101,1.108-1.487,2.4-1.12
		c0.477,0.135,0.936,0.334,1.442,0.349c0.149,0.049,0.349,0.075,0.314,0.285c-0.023,0.137-0.178,0.201-0.32,0.224
		c-0.206,0.033-0.412-0.012-0.618-0.004c-0.431,0.006-0.826-0.171-1.242-0.247c-0.401-0.074-0.804-0.088-1.127,0.231
		c-0.434,0.429-0.397,0.981,0.058,1.424c0.308,0.299,0.817,0.419,0.869,0.952c-0.031,0.037-0.087,0.09-0.11,0.074
		c-0.687-0.478-1.207-0.139-1.758,0.294c-0.253,0.199-0.641,0.073-0.963,0.122C2.656,29.297,2.151,29.495,2.025,30.159z"/>
	<path class="st2" d="M4.433,26.698c0.011,0.256,0.117,0.554-0.28,0.627l0.005,0.007c-0.082-0.198-0.163-0.397-0.245-0.595
		c-0.068-0.025-0.156-0.066-0.161-0.126c-0.065-0.733-0.546-1.056-1.177-1.288c-0.337-0.124-0.573-0.413-0.622-0.804
		c0.015-0.11,0.05-0.201,0.187-0.193c0.187,0.339,0.438,0.617,0.789,0.787c0.508,0.247,0.926,0.418,1.267-0.329
		c0.35-0.766,1.052-1.19,1.942-1.195c0.274-0.596-0.039-1.247,0.175-1.848c0.256-0.096,0.406,0.09,0.55,0.233
		c0.936,0.928,2.027,1.054,3.229,0.653c0.179-0.06,0.355-0.142,0.553-0.102c0.078,0.023,0.121,0.076,0.128,0.158
		c-0.287,0.582-0.832,0.665-1.384,0.665c-0.583-0.001-1.111,0.09-1.623,0.405c-0.471,0.29-1.04,0.285-1.586,0.339
		C4.862,24.222,4.106,25.369,4.433,26.698z"/>
	<path class="st3" d="M6.427,21.748c-0.215,0.393-0.052,0.818-0.104,1.224c-0.027,0.215,0.095,0.477-0.185,0.616
		c0.102-0.801,0.156-1.591-0.134-2.379c-0.262-0.71-0.24-1.459-0.017-2.171c0.189-0.602,0.224-1.203,0.223-1.822
		C6.204,13.321,6.195,9.425,6.221,5.529c0.004-0.544-0.148-0.675-0.673-0.662C4.075,4.904,2.602,4.886,1.129,4.874
		C0.91,4.872,0.654,4.995,0.469,4.763C2.201,4.76,3.933,4.777,5.664,4.742c0.553-0.011,0.672,0.195,0.67,0.705
		c-0.017,4.033-0.011,8.067-0.007,12.1c0,0.256-0.069,0.524,0.082,0.765c0.015,0.018,0.047,0.04,0.044,0.053
		C6.178,19.492,6.219,20.619,6.427,21.748z"/>
	<path class="st4" d="M2.024,24.45c0.182,0.52,0.597,0.824,1.082,0.948c0.529,0.136,0.84,0.321,0.703,0.929
		c-0.028,0.122,0.066,0.272,0.103,0.41c0.017,0.213-0.084,0.299-0.291,0.271c-1.212-0.128-1.669-1.011-2.009-2.01
		c-0.001-0.123-0.001-0.246-0.002-0.369C1.7,24.458,1.796,24.3,2.024,24.45z"/>
	<path class="st5" d="M1.612,24.998c0.175,0.073,0.221,0.23,0.267,0.393c0.252,0.892,0.932,1.325,1.742,1.617
		c-0.148,0.053-0.039,0.382-0.317,0.295c0.091-0.265-0.137-0.227-0.269-0.296C2.221,26.579,1.651,25.976,1.612,24.998z"/>
	<path class="st6" d="M2.024,24.45c-0.184-0.049-0.268,0.136-0.413,0.178c-0.041-0.364,0.133-0.66,0.302-1.181
		c0.111,0.429,0.169,0.653,0.227,0.878C2.101,24.367,2.063,24.409,2.024,24.45z"/>
	<path class="st7" d="M19.297,8.043c-0.172,0.126-0.157,0.332-0.231,0.545c0.667-0.139,1.303-0.327,1.97-0.292
		c0.506,0.026,0.845,0.167,1.059,0.727c0.31,0.808,0.854,1.477,1.845,1.512c0.231,0.008,0.17,0.172,0.214,0.287
		c0.298,0.77,0.769,1.311,1.682,1.231c0.19-0.017,0.308,0.072,0.442,0.173c0.511,0.384,1.013,0.783,1.546,1.133
		c0.453,0.298,0.439,0.635,0.166,1.015c-0.136,0.189-0.303,0.374-0.494,0.504c-1.289,0.87-1.836,1.996-1.192,3.58
		c-0.491-0.202-0.9-0.37-1.309-0.538c-1.323-0.306-2.69-0.194-4.022-0.412c-1.131-0.185-2.008-0.694-2.402-1.838
		c-0.031-0.09-0.057-0.183-0.053-0.278c0.002-0.045,0.034-0.075,0.064-0.091c-0.009,0.599,0.074,0.831,0.632,1.427
		c0.246,0.263,0.387,0.508,0.303,0.884c-0.513,2.312-0.226,4.511,0.958,6.581c0.075,0.132,0.207,0.275,0.099,0.458
		c-0.786,0.527-1.665,0.499-2.538,0.374c-0.545-0.078-0.901-0.435-0.917-1.016c-0.016-0.601-0.178-1.165-0.34-1.736
		c-0.197-0.694-0.175-1.364,0.397-1.909c0.288-0.274,0.395-0.638,0.486-1.006c0.164-0.625-0.262-0.049-0.347-0.166
		c-0.72-0.054-1.044-0.341-1.167-1.074c-0.115-0.682,0.042-1.312,0.384-1.913c0.422-0.741,0.984-1.392,1.344-2.177
		c0.227-0.496,0.49-0.484,1.099-0.077c0.722-0.749,0.439-2.352-0.479-2.717c-0.288-0.114-0.602-0.133-0.892-0.235
		c-0.577-0.203-1.005-0.842-0.972-1.434c0.03-0.551,0.439-1.074,1.056-1.181c0.343-0.059,0.516-0.299,0.774-0.443
		c0.48-1.056,0.955-2.113,1.444-3.164c0.075-0.161,0.135-0.41,0.354-0.397c0.219,0.013,0.263,0.256,0.302,0.435
		c0.227,1.05,0.544,2.086,0.548,3.178c-0.377-0.347-0.305-0.844-0.463-1.261c-0.105-0.277-0.104-0.678-0.509-0.672
		c-0.349,0.005-0.401,0.372-0.487,0.628c-0.149,0.445-0.394,0.868-0.355,1.363L19.297,8.043z"/>
	<path class="st7" d="M6.427,21.748c-0.601-1.142-0.477-2.288-0.017-3.435c0.29-0.557,0.61-1.091,1.183-1.592
		c-0.157,0.524-0.277,0.924-0.397,1.324c-0.051,0.542,0.01,1.082,0.018,1.623c0.015,1.075,0.407,1.569,1.476,1.875
		c0.453,0.096,0.869-0.093,1.3-0.17c0.682-0.499,0.74-1.222,0.683-1.97c-0.082-1.076-0.525-2.056-0.85-3.067
		c-0.59-1.836-0.659-3.637,0.503-5.298c0.387-0.553,0.822-1.098,1.549-1.256c0.046,0.059,0.068,0.126,0.068,0.201
		c-0.009,0.527-0.091,1.056,0.065,1.576c0.135,0.329,0.203,0.677,0.299,1.017c0.04,0.286,0.162,0.542,0.3,0.792
		c0.116,0.235,0.199,0.483,0.298,0.726c0.139,0.343,0.102,0.631-0.182,0.903c-0.766,0.734-0.96,1.664-0.843,2.677
		c0.164,1.423,0.277,2.838-0.366,4.19c-0.203,0.309-0.375,0.656-0.805,0.708C8.796,23.377,7.586,23.144,6.427,21.748z"/>
	<path class="st8" d="M18.856,6.055c-0.039,0.447-0.293,0.822-0.421,1.239c-0.325,0.242-0.732,0.151-1.079,0.183
		c-1.68,0.154-3.039,2.264-2.447,3.944c0.046,0.132,0.079,0.272,0.12,0.407c0.043,0.186,0.117,0.364,0.156,0.552
		c0.401,1.825,0.059,3.531-0.859,5.13c-0.127,0.222-0.208,0.708-0.688,0.397c-0.051-0.11-0.088-0.232-0.06-0.346
		c0.354-1.454-0.112-2.768-0.691-4.061c-0.473-1.058-0.707-2.148-0.641-3.32c0.168-2.956,3.211-5.195,6.064-4.428
		C18.517,5.807,18.727,5.859,18.856,6.055z"/>
	<path class="st9" d="M29.06,17.435c0.27,0.566,0.747,0.861,1.376,0.955c-0.724,0.916-2.583,1.075-3.376,0.35
		c-0.868-0.793-0.84-2.159,0.067-3.036c0.517-0.5,1.25-0.819,1.35-1.665c0.017-0.145,0.169-0.13,0.285-0.061
		c0.854,0.506,1.776,0.931,2.333,1.814c0.362,0.574,0.232,1.571-0.223,2.075c-0.179,0.198-0.386,0.164-0.588,0.13
		C29.829,17.921,29.449,17.681,29.06,17.435z"/>
	<path class="st8" d="M12.998,27.725c-0.595,0.529-1.208,0.994-2.069,0.596c1.23-1.153,0.958-2.494,0.489-3.863
		c-0.13-0.38-0.227-0.769-0.318-1.162c-0.119-0.52-0.07-0.974,0.288-1.38c0.234-0.387,0.386-0.807,0.509-1.24
		c0.069-0.242,0.303-0.343,0.397-0.124c0.311,0.731,1.039,1.241,1.095,2.099c-0.315,0.705-0.173,1.389,0.087,2.071
		c0.285,0.747,0.441,1.504,0.146,2.289C13.503,27.328,13.371,27.631,12.998,27.725z"/>
	<path class="st10" d="M13.285,22.57c-0.222-0.752-0.988-1.195-1.107-2.032c-0.248,0.482-0.345,0.987-0.698,1.361
		c-0.054,0.064-0.104,0.06-0.149-0.011c0.6-1.353,0.512-2.762,0.354-4.181c-0.126-1.132,0.05-2.18,1.03-2.923
		c0.203-0.154,0.191-0.283,0.101-0.478c-0.148-0.321-0.277-0.652-0.414-0.978c0.06-0.338-0.118-0.625-0.201-0.933
		c-0.382-0.889-0.295-1.831-0.315-2.761c-0.063-0.06-0.126-0.12-0.189-0.181c0.329-0.159,0.523-0.394,0.663-0.759
		c1.019-2.651,3.662-3.875,6.375-2.981c0.146,0.048,0.268,0.076,0.4-0.008c-0.015,0.179-0.125,0.282-0.28,0.349
		c-1-0.235-1.991-0.386-3.016-0.075c-2.495,0.757-3.994,3.442-3.285,5.983c0.159,0.569,0.368,1.129,0.608,1.67
		c0.608,1.37,1.01,2.758,0.554,4.263c-0.039,0.207,0.178,0.487-0.166,0.605c-0.206,0.07-0.308-0.05-0.368-0.227
		c-0.053-0.622,0.324-1.202,0.197-1.827c-0.071-0.348,0.03-0.919-0.392-0.945c-0.373-0.023-0.535,0.523-0.569,0.884
		c-0.109,1.158-0.162,2.326,0.029,3.479c0.115,0.692,0.469,1.289,0.967,1.794c0.198,0.201,0.427,0.384,0.502,0.679
		c0.015,0.17-0.104,0.263-0.209,0.364c-0.088,0.071-0.186,0.115-0.302,0.106C13.294,22.766,13.214,22.707,13.285,22.57z"/>
	<path class="st11" d="M17.845,19.121c0.01,0.508-0.057,1.01-0.477,1.343c-0.633,0.503-0.601,1.121-0.387,1.786
		c0.188,0.584,0.366,1.16,0.335,1.792c-0.03,0.612,0.419,0.785,0.928,0.841c0.813,0.089,1.593-0.078,2.361-0.323
		c0.196,0.02,0.317,0.106,0.288,0.325c-1.674,1.015-3.527,1.372-5.448,1.475c-0.12,0.006-0.138-0.103-0.155-0.196
		c0.003-0.03,0.006-0.061,0.008-0.092c0.049-0.162,0.177-0.253,0.307-0.343c0.763-1.041,0.796-2.14,0.273-3.287
		c-0.168-0.368-0.431-0.683-0.573-1.065c-0.146-0.393-0.153-0.746,0.254-0.997C16.587,20.442,17.141,19.646,17.845,19.121z"/>
	<path class="st12" d="M17.59,7.598c0.245,0.069,0.545-0.108,0.743,0.169c0.067,0.374-0.156,0.482-0.468,0.567
		c-0.8,0.217-1.269,0.738-1.25,1.34c0.022,0.694,0.516,1.198,1.37,1.395c1.078,0.249,1.54,0.91,1.332,1.895
		c-0.066,0.31-0.219,0.542-0.519,0.277c-0.637-0.563-1.431-0.586-2.194-0.719c-0.493-0.086-0.899-0.286-1.168-0.723
		c-1.176-1.962,0.005-3.822,1.478-4.211C17.146,7.528,17.366,7.43,17.59,7.598z"/>
	<path class="st13" d="M11.331,21.889c0.05,0.004,0.099,0.007,0.149,0.011c-0.498,0.669-0.208,1.362-0.035,2.035
		c0.23,0.892,0.635,1.747,0.571,2.699c-0.051,0.758-0.34,1.374-1.088,1.688c-0.006,0.254-0.006,0.254,0.49,0.313
		c-0.106,0.195-0.302,0.066-0.445,0.126c-0.49,0.25-0.864,0.001-1.216-0.297c-0.125-0.106-0.229-0.257-0.155-0.439
		c0.064-0.158,0.208-0.159,0.36-0.155c0.676,0.02,1.188-0.274,1.396-0.625c-0.178,0.271-0.675,0.53-1.222,0.579
		c-0.524,0.047-1.012,0.223-1.526,0.297c-0.611,0.088-1.076,0.412-1.383,0.999c-0.301,0.577-0.773,1.007-1.469,1.096
		c-0.006-0.046-0.011-0.091-0.017-0.137c-0.007-0.222,0.166-0.324,0.313-0.422c0.312-0.208,0.463-0.448,0.246-0.81
		c0.146-0.159,0.255-0.333,0.286-0.557c0.081-0.579,0.344-1.082,0.713-1.525c0.151-0.182,0.226-0.351,0.113-0.572
		c0.266,0.004,0.556,0.075,0.793-0.006c0.298-0.102,0.034-0.139-0.064-0.175c-0.001-0.181,0.134-0.24,0.271-0.27
		c1.669-0.367,2.131-1.645,2.352-3.107c-0.018-0.022-0.036-0.043-0.055-0.064C10.915,22.343,11.123,22.116,11.331,21.889z"/>
	<path class="st14" d="M15.619,20.484c-0.533,0.479-0.157,0.923,0.101,1.313c0.657,0.992,0.857,2.043,0.492,3.17
		c-0.116,0.358-0.147,0.831-0.653,0.943c-0.07-0.359-0.053-0.715-0.024-0.982c-0.039,0.356,0.002,0.829-0.223,1.245
		c0,0-0.02-0.009-0.02-0.009c-0.115-0.014-0.12,0.343-0.306,0.091c-0.173-0.53,0.003-1.063,0.004-1.593
		c0.001-0.632-0.216-1.077-0.744-1.404C13.99,23.1,13.714,22.95,13.6,22.638c0.045-0.151,0.168-0.177,0.3-0.19
		c0.742-0.06,1.109,0.517,1.544,0.945c0.266,0.261,0.431,0.615,0.533,0.999c0.066-0.885-0.155-1.669-0.693-2.363
		c-0.087-0.112-0.181-0.238-0.199-0.373c-0.107-0.783-0.494-1.361-1.126-1.844c-0.3-0.229-0.403-0.655-0.94-0.365
		c-0.255,0.138-0.416-0.179-0.338-0.443c0.093-0.314,0.221-0.632,0.598-0.726c0.274,0.15,0.274,0.15,0.437-0.382
		c0.616-0.389,0.766-1.071,1.005-1.677c0.496-1.259,0.517-2.57,0.293-3.892c0.052-0.109,0.119-0.195,0.259-0.167
		c0.235,0.128,0.311,0.354,0.332,0.594c0.151,1.784-0.005,3.505-1.022,5.056c-0.664,1.013-0.265,1.905,0.947,2.153
		c0.185,0.038,0.379,0.031,0.553,0.119c0.205,0.194,0.085,0.256-0.116,0.302C15.85,20.411,15.69,20.298,15.619,20.484z"/>
	<path class="st15" d="M13.6,22.638c1.596,0.907,1.924,1.088,1.385,3.618c-0.339,0.589-0.706,1.155-1.292,1.532
		c-0.112,0.072-0.214,0.289-0.395,0.089c0.365-0.918,0.681-1.837,0.285-2.836c-0.164-0.414-0.315-0.838-0.38-1.281
		c-0.055-0.373-0.106-0.758,0.301-0.997C13.535,22.722,13.568,22.68,13.6,22.638z"/>
	<path class="st16" d="M9.989,21.373c-0.327,0.378-0.751,0.429-1.211,0.365c-0.247-0.287,0.009-0.44,0.163-0.621
		c0.292-0.194,0.627-0.331,0.849-0.62c0.295-0.382,0.424-0.783,0.075-1.299c-0.087,0.542,0.206,1.244-0.652,1.295
		c-0.159-0.774-0.27-1.554-0.349-2.339c0.045-0.297,0.257-0.572,0.118-0.895c-0.547-0.754-0.458-2.4,0.235-3.473
		c-0.043,1.408,0.343,2.653,0.799,3.885C10.475,18.906,10.691,20.145,9.989,21.373z"/>
	<path class="st17" d="M5.758,30.214c0.653-0.282,1.13-0.724,1.433-1.388c0.31-0.68,0.981-0.84,1.643-0.951
		c0.947-0.159,1.944-0.161,2.691-0.97c-0.179,0.866-0.613,1.199-1.418,1.124c-0.149-0.014-0.351-0.175-0.42,0.067
		c-0.052,0.184,0.153,0.275,0.287,0.357c0.305,0.186,0.632,0.32,1,0.308c0.074,0.092,0.539,0.186-0.001,0.275
		c-0.769,0.128-1.535,0.282-2.308,0.378c-1.004,0.124-1.941,0.407-2.784,0.98c-0.065,0.044-0.145,0.252-0.251,0.051
		C5.607,30.401,5.712,30.292,5.758,30.214z"/>
	<path class="st18" d="M20.893,24.886c-0.096-0.108-0.192-0.216-0.288-0.325c-1.399-2.176-1.914-4.514-1.24-7.046
		c0.092-0.346-0.078-0.464-0.258-0.646c-0.504-0.508-0.775-1.098-0.618-1.842c0.291,1.572,1.369,2.147,2.811,2.337
		c0.963,0.127,1.948,0.001,2.894,0.275c0.271,0.079,0.535,0.186,0.802,0.28c-0.24,0.326-0.636-0.27-0.861,0.145
		c-1.392-0.273-2.856-0.036-4.207-0.617c-0.371-0.159-0.292,0.213-0.324,0.37c-0.23,1.132-0.203,2.265,0.03,3.395
		c0.043,0.208,0.076,0.419,0.113,0.628c-0.011,1.029,0.569,1.819,1.075,2.637c0.085,0.137,0.259,0.249,0.277,0.388
		C21.118,25.01,20.969,24.894,20.893,24.886z"/>
	<path class="st15" d="M6.288,28.874c0.467,0.255,0.45,0.519,0.019,0.8c-0.194,0.127-0.378,0.269-0.566,0.404
		c-0.658,0.183-1.29,0.091-1.945-0.085c-0.587-0.158-1.233-0.41-1.772,0.167c-0.339-0.226-0.063-0.419,0.059-0.574
		c0.329-0.419,0.782-0.621,1.314-0.568c0.735,0.073,1.247-0.191,1.49-0.946c0.402,0.257,0.77,0.492,1.139,0.728
		C6.131,28.766,6.217,28.794,6.288,28.874z"/>
	<path class="st19" d="M15.181,12.139c-0.056,0.063-0.111,0.125-0.167,0.188c-0.043-0.144-0.086-0.289-0.129-0.433
		c0.113-0.282-0.26-0.705,0.039-0.821c0.316-0.123,0.35,0.408,0.582,0.582c0.035,0.026,0.057,0.073,0.09,0.106
		c0.389,0.596,1.041,0.605,1.633,0.678c0.701,0.087,1.338,0.263,1.841,0.825c0.282-1.321,0.01-1.755-1.244-2.057
		c-0.817-0.197-1.338-0.789-1.342-1.527c-0.004-0.719,0.487-1.31,1.302-1.462c0.307-0.057,0.473-0.167,0.546-0.451
		c0.043,0.057,0.086,0.114,0.129,0.171c-0.09,0.377-0.155,0.624-0.717,0.609c-0.803-0.022-1.194,0.997-0.757,1.736
		c0.178,0.301,0.439,0.492,0.771,0.589c1.69,0.492,2.203,1.538,1.562,3.185c-0.119,0.304-0.119,0.304-0.368,0.128
		c-0.04-0.274-0.214-0.475-0.39-0.665c-0.47-0.509-0.744-0.451-1.004,0.195c-0.047,0.117-0.11,0.208-0.252,0.208
		c-0.15-0.105-0.195-0.271-0.254-0.43c-0.048-0.327-0.19-0.549-0.548-0.635C16.007,12.738,15.606,12.411,15.181,12.139z"/>
	<path class="st20" d="M8.984,17.259c0.573,0.275,0.077,0.557,0.006,0.836c-0.1,0.368-0.303,0.676-0.531,0.98
		c-0.604,0.804-0.435,1.217,0.539,1.377c0.092,0.015,0.181,0.051,0.276,0.04c0.435-0.247,0.571-0.592,0.354-1.06
		c-0.085-0.184-0.238-0.404,0.071-0.518c0.283-0.104,0.362,0.152,0.447,0.333c0.375,0.799-0.067,1.552-1.136,1.952
		c-0.665,0.188-1.178,0.013-1.557-0.608c-0.273-0.446-0.516-0.935,0.014-1.393C8.012,18.584,8.359,17.812,8.984,17.259z"/>
	<path class="st21" d="M15.597,11.76c-0.315-0.098-0.378-0.451-0.637-0.644c-0.09,0.27,0.223,0.558-0.074,0.777
		c-1.028-2.096,0.566-4.952,3.549-4.599c-0.187,0.364-0.628,0.024-0.845,0.304C15.339,8.054,14.622,9.552,15.597,11.76z"/>
	<path class="st22" d="M24.245,6.835c0.164,0.519,0.309,1.036,0.598,1.508c0.36,0.589-0.269,0.813-0.553,1.026
		c-0.319,0.239-0.454-0.221-0.525-0.45C23.301,7.412,23.249,7.62,24.245,6.835z"/>
	<path class="st23" d="M25.348,5.757c0.095,0.321,0.101,0.647,0.263,0.842c0.637,0.762,0.107,1.199-0.383,1.68
		C24.333,7.135,24.351,6.547,25.348,5.757z"/>
	<path class="st24" d="M21.676,6.548c0.522,0.029,1.554,0.664,1.425,0.879c-0.228,0.379-0.54,0.751-0.974,0.875
		c-0.352,0.101-0.757-0.783-0.754-1.502C21.374,6.539,21.496,6.536,21.676,6.548z"/>
	<path class="st25" d="M23.238,7.849c0.077,0.65,0.189,1.27,0.599,1.779c0.101,0.126,0.15,0.221,0.025,0.362
		c-0.13,0.147-0.245,0.171-0.426,0.075c-0.476-0.251-0.812-0.634-1.089-1.08c-0.155-0.249,0.016-0.402,0.178-0.537
		C22.753,8.256,22.907,7.975,23.238,7.849z"/>
	<path class="st26" d="M26.463,4.68c0.107,0.472,0.195,0.817,0.412,1.102c0.143,0.188,0.14,0.355-0.036,0.488
		c-0.253,0.192-0.275,0.751-0.692,0.612c-0.423-0.142-0.61-1.315-0.32-1.623C25.999,5.075,26.199,4.918,26.463,4.68z"/>
	<path class="st14" d="M13.503,22.764c-0.343,0.744-0.036,1.428,0.195,2.12c0.355,1.062,0.396,2.084-0.4,2.993
		c-0.1-0.051-0.2-0.101-0.3-0.152c0.686-0.834,0.728-1.74,0.37-2.729c-0.285-0.788-0.661-1.597-0.083-2.425
		C13.358,22.635,13.43,22.699,13.503,22.764z"/>
	<path class="st27" d="M7.464,19.197c-0.293,1.234,0.215,1.893,1.544,2.002c-0.072,0.182-0.292,0.3-0.231,0.539
		c-0.901-0.093-1.485-0.519-1.673-1.343c-0.178-0.779-0.203-1.577,0.091-2.35C7.448,18.391,7.184,18.857,7.464,19.197z"/>
	<path class="st28" d="M27.614,3.686c0.836,0.882,0.092,1.397-0.363,2C26.459,4.698,26.502,4.482,27.614,3.686z"/>
	<path class="st29" d="M19.296,8.048c0.443-0.471,0.407-1.189,0.866-1.727c0.283,0.456,0.322,0.924,0.414,1.374
		c0.06,0.295-0.146,0.423-0.362,0.391c-0.308-0.046-0.65,0.597-0.916-0.043C19.297,8.043,19.296,8.048,19.296,8.048z"/>
	<path class="st30" d="M24.99,9.336c0.17,0.778-0.142,1.529,0.313,2.246C24.167,11.086,24.045,10.19,24.99,9.336z"/>
	<path class="st31" d="M28.765,2.656c0.505,0.73-0.173,1.059-0.422,1.554C27.741,3.427,27.741,3.427,28.765,2.656z"/>
	<path class="st32" d="M11.885,9.635c0.13-0.047,0.329-0.126,0.26,0.121c-0.259,0.928-0.017,1.815,0.171,2.709
		c0.024,0.145-0.013,0.205-0.16,0.118c-0.095-0.309-0.19-0.618-0.284-0.928c-0.099-0.597-0.108-1.195,0.003-1.792
		c-0.006-0.027-0.006-0.054-0.001-0.081C11.878,9.733,11.882,9.684,11.885,9.635z"/>
	<path class="st33" d="M30.125,1.607c-0.293,0.425-0.57,0.826-0.852,1.235C28.939,2.375,29.137,2.092,30.125,1.607z"/>
	<path class="st9" d="M10.763,22.633c0.288,0.012,0.187,0.199,0.155,0.351c-0.324,1.561-1.05,2.753-2.778,3.026
		c-0.589,0.075-1.094-0.217-1.634-0.362c-1.156-0.311-1.821,0.037-2.073,1.05c-0.103,0.073-0.204,0.139-0.254-0.051
		c-0.338-1.29,0.611-2.651,1.953-2.756c0.735-0.058,1.452-0.081,2.045-0.63c0.254-0.235,0.64-0.078,0.962-0.076
		C9.751,23.188,10.314,23.092,10.763,22.633z"/>
	<path class="st9" d="M6.288,28.874c-0.087-0.025-0.174-0.05-0.261-0.075c-0.156-0.474-0.633-0.611-0.972-0.879
		c-0.423-0.334-0.519-0.715-0.371-1.185c0.162-0.514,0.471-0.849,1.066-0.873c0.587-0.024,1.088,0.325,1.661,0.33
		c0.138,0.117,0.601,0.048,0.2,0.454c-0.502,0.509-0.838,1.133-0.868,1.867C6.729,28.856,6.541,28.882,6.288,28.874z"/>
	<path class="st34" d="M4.153,27.325c0.005,0.023,0.012,0.046,0.015,0.07c0.043,0.336,0.599,0.433,0.445,0.819
		c-0.181,0.455-0.697,0.48-1.083,0.588c-1.258,0.354-2.387-0.138-2.827-1.157c-0.075-0.175-0.157-0.347-0.052-0.592
		c1.109,0.876,2.306,0.608,3.506,0.279C4.157,27.332,4.153,27.325,4.153,27.325z"/>
	<path class="st35" d="M17.311,13.917c0.023-0.04,0.037-0.091,0.07-0.12c0.27-0.233-0.334-0.904,0.398-0.87
		c0.753,0.035,1.187,0.547,1.174,1.258c-0.681-0.626-0.646-0.608-1.083,0.233c-0.336,0.648-0.774,1.243-1.164,1.863
		c-0.299,0.474-0.455,0.988-0.41,1.553c0.061,0.763,0.357,1.36,1.197,1.216c-0.297,0.589-0.753,0.478-1.189,0.227
		c-0.686-0.395-0.807-1.056-0.757-1.782c0.033-0.483,0.16-0.948,0.433-1.334C16.484,15.445,16.784,14.614,17.311,13.917z"/>
	<path class="st36" d="M17.311,13.917c-0.132,0.795-0.638,1.407-1.023,2.076c-0.395,0.687-0.718,1.388-0.552,2.21
		c0.194,0.963,0.943,1.321,1.756,0.847c0.119-0.096,0.27-0.292,0.352-0.266c0.183,0.057-0.023,0.218,0.001,0.338
		c-0.51,0.833-1.127,1.491-2.225,1.363c0.049-0.339,0.444-0.038,0.54-0.291c0.21-0.244,0.465-0.402-0.049-0.69
		c-0.974-0.546-0.947-1.507-0.772-2.456c0.1-0.542,0.339-1.042,0.657-1.49c0.467-0.658,0.669-1.464,1.193-2.086
		C17.327,13.592,17.285,13.764,17.311,13.917z"/>
	<path class="st37" d="M22.029,11.64c0.564,0.288,1.077,0.467,1.586-0.013c0.117-0.11,0.246-0.263,0.408-0.069
		c0.086,0.102,0.139,0.232,0.207,0.35c-0.273-0.073-0.235,0.247-0.391,0.311c-0.179,0.074-1.153-0.037-1.438-0.016
		C21.83,12.244,22.435,11.676,22.029,11.64z"/>
	<path class="st38" d="M11.875,9.863c-0.001,0.597-0.002,1.194-0.003,1.791C11.653,11.057,11.648,10.46,11.875,9.863z"/>
	<path class="st39" d="M12.156,12.582c0.053-0.039,0.107-0.079,0.16-0.118c0.087,0.282,0.488,0.534,0.085,0.865
		C12.237,13.107,12.127,12.868,12.156,12.582z"/>
	<path class="st40" d="M30.023,15.561c0.661,0.06,0.94,0.394,0.846,1.026c-0.029,0.192-0.131,0.457-0.323,0.372
		C29.937,16.688,29.965,16.132,30.023,15.561z"/>
	<path class="st12" d="M13.28,18.278c-0.089,0.139-0.195,0.269-0.264,0.417c-0.092,0.198-0.423,0.394-0.205,0.604
		c0.26,0.25,0.385-0.136,0.543-0.264c0.226-0.182,0.305-0.118,0.395,0.123c0.2,0.535,0.587,0.906,1.093,1.162
		c0.144,0.073,0.329,0.126,0.269,0.352c-0.179,0.666,0.257,1.119,0.561,1.613c0.527,0.856,0.631,1.665,0.264,2.579
		c-0.232-1.243-1.025-1.925-2.034-2.416c-2.071-1.622-1.846-3.894-1.681-6.12c0.039-0.523,0.345-1.248,0.898-1.209
		c0.42,0.03,0.365,0.814,0.443,1.28C13.67,17.049,13.403,17.655,13.28,18.278z"/>
	<path class="st41" d="M15.311,26.173c0.051-0.486,0.198-0.958,0.184-1.455c0.189,0.399,0.083,0.796,0.063,1.192
		C15.476,25.998,15.394,26.085,15.311,26.173z"/>
	<path class="st15" d="M7.208,28.056c0.343-0.922,0.783-1.688,1.852-1.953c1.02-0.253,1.538-1.115,2.01-2.206
		c0.194,0.678,0.383,1.171,0.47,1.682c0.132,0.778-0.513,1.516-1.469,1.718c-0.485,0.103-0.982,0.152-1.473,0.226
		C8.098,27.599,7.651,27.803,7.208,28.056z"/>
	<path class="st15" d="M17.188,13.47c-0.191,0.799-0.628,1.479-1.044,2.169c-0.357,0.592-0.68,1.198-0.728,1.907
		c-0.082,1.213,0.389,1.859,1.567,2.14c-0.186,0.325-0.536,0.367-0.825,0.506c-0.882,0.073-1.573-0.237-2.061-0.995
		c-0.243-0.377-0.287-0.673,0.023-1.079c1.2-1.578,1.523-3.393,1.302-5.328c-0.026-0.231-0.048-0.476-0.241-0.651
		c0.039-0.174,0.106-0.274,0.255-0.081c0.306,0.397,0.754,0.6,1.206,0.658C17.169,12.784,17.242,13.049,17.188,13.47z"/>
	<path class="st42" d="M9.273,20.492c-0.456,0.312-0.847,0.176-1.182-0.194c-0.333-0.368-0.22-0.734,0.049-1.085
		c0.285-0.372,0.567-0.745,0.85-1.117C9.13,18.889,9.333,19.675,9.273,20.492z"/>
</g>
</svg>
