<?xml version="1.0" encoding="utf-8"?>
<!-- Generator: Adobe Illustrator 26.2.1, SVG Export Plug-In . SVG Version: 6.00 Build 0)  -->
<svg version="1.1" id="Layer_1" xmlns="http://www.w3.org/2000/svg" xmlns:xlink="http://www.w3.org/1999/xlink" x="0px" y="0px"
	 viewBox="0 0 32 32" style="enable-background:new 0 0 32 32;" xml:space="preserve">
<style type="text/css">
	.st0{fill-rule:evenodd;clip-rule:evenodd;fill:#25AF91;}
	.st1{fill-rule:evenodd;clip-rule:evenodd;fill:#2FB295;}
</style>
<g>
	<path class="st0" d="M18.881,0.222c0.732,0,1.463,0,2.195,0c3.217,3.125,6.327,6.327,9.33,9.604c0,0.457,0,0.915,0,1.372
		c-0.731,1.691-2.012,2.286-3.842,1.784c-2.237-2.008-4.432-4.066-6.586-6.174c-3.152,3.015-6.262,6.079-9.33,9.192
		c3.068,3.114,6.178,6.178,9.33,9.192c2.146-2.008,4.249-4.066,6.311-6.174c1.944-0.58,3.316,0.014,4.116,1.784
		c0,0.366,0,0.732,0,1.098c-3.018,3.567-6.311,6.86-9.878,9.878c-0.366,0-0.732,0-1.098,0c-1.028-0.702-2.034-1.48-3.018-2.332
		c-3.041-3.316-6.197-6.563-9.467-9.741c-0.014,2.771-0.196,5.515-0.549,8.232c-0.837,0.996-1.889,1.316-3.156,0.96
		c-0.807-0.394-1.356-0.989-1.646-1.784c0-7.5,0-15.001,0-22.501c0.393-0.532,0.85-1.035,1.372-1.509
		c2.177-0.602,3.458,0.176,3.842,2.332c-0.091,2.203,0.001,4.398,0.274,6.586c0.166-0.034,0.258-0.125,0.274-0.274
		C11.304,7.982,15.146,4.14,18.881,0.222z"/>
	<path class="st1" d="M18.881,13.393c3.372-0.153,4.424,1.31,3.156,4.39c-1.372,1.098-2.744,1.098-4.116,0
		C16.861,15.994,17.181,14.531,18.881,13.393z"/>
</g>
</svg>
