<?xml version="1.0" encoding="utf-8"?>
<!-- Generator: Adobe Illustrator 25.3.1, SVG Export Plug-In . SVG Version: 6.00 Build 0)  -->
<svg version="1.1" id="Layer_1" xmlns="http://www.w3.org/2000/svg" xmlns:xlink="http://www.w3.org/1999/xlink" x="0px" y="0px"
	 viewBox="0 0 32 32" style="enable-background:new 0 0 32 32;" xml:space="preserve">
<style type="text/css">
	.st0{fill:#030303;}
</style>
<g>
	<path class="st0" d="M31.722,15.122c0,0.063,0,0.127,0,0.19c-0.033,0.469-0.029,0.937,0,1.406c0,0.089,0,0.177,0,0.266
		c-0.041,0.01-0.037,0.044-0.038,0.075c-0.015,0.781-0.151,1.547-0.318,2.306c-0.716,3.256-2.3,6.019-4.758,8.27
		c-2.414,2.209-5.259,3.512-8.494,3.98c-0.263,0.038-0.533,0.027-0.79,0.109c-0.886,0-1.773,0-2.659,0
		c-0.006-0.03-0.028-0.036-0.055-0.038c-0.651-0.043-1.292-0.155-1.926-0.303c-5.054-1.182-8.701-4.126-10.94-8.798
		c-0.88-1.836-1.336-3.79-1.41-5.829c-0.001-0.469-0.001-0.937-0.002-1.406c0.024-0.638,0.082-1.272,0.193-1.902
		c0.615-3.516,2.211-6.506,4.826-8.933c2.463-2.286,5.382-3.621,8.712-4.063c0.226-0.03,0.46-0.02,0.678-0.106
		c0.722,0,1.444,0,2.165,0c0.023,0.059,0.076,0.034,0.115,0.035c0.64,0.014,1.271,0.103,1.899,0.226
		c3.684,0.719,6.757,2.499,9.163,5.375c2.186,2.612,3.37,5.646,3.601,9.047C31.688,15.062,31.67,15.106,31.722,15.122z
		 M25.136,26.119c0.008-0.016,0.016-0.032,0.024-0.048c0.02-0.024,0.043-0.045,0.06-0.071c0.662-0.969,1.559-1.621,2.669-1.991
		c0.379-0.126,0.776-0.161,1.174-0.258c-1.784-0.135-3.034-1.11-4.055-2.518c0.285-0.004,0.524,0.024,0.761,0.058
		c1.28,0.186,2.304,0.82,3.133,1.796c0.094,0.111,0.179,0.232,0.318,0.318c-0.001-0.136-0.052-0.24-0.091-0.344
		c-0.309-0.831-0.441-1.683-0.331-2.568c0.071-0.571,0.253-1.105,0.534-1.606c0.052-0.093,0.11-0.154,0.169-0.011
		c0.225,0.542,0.456,1.081,0.518,1.674c0.045,0.432,0.007,0.866,0.054,1.301c0.772-1.832,1.108-3.747,1.125-5.729
		c0.017-1.982-0.314-3.893-1.1-5.721c-0.022,0.318-0.013,0.633-0.024,0.948c-0.02,0.593-0.268,1.125-0.474,1.667
		c-0.043,0.114-0.061,0.304-0.174,0.306c-0.103,0.002-0.154-0.182-0.208-0.294c-0.614-1.288-0.615-2.595-0.112-3.915
		c0.054-0.142,0.13-0.278,0.142-0.454c-0.281,0.216-0.45,0.507-0.681,0.738c-0.89,0.89-1.975,1.358-3.22,1.472
		c-0.072,0.007-0.155-0.015-0.239,0.071c1.859,0.102,3.287,0.885,4.223,2.49c-0.841-0.012-1.638-0.178-2.38-0.565
		c-0.74-0.386-1.36-0.909-1.814-1.625c0.501,1.081,0.635,2.192,0.391,3.347c-0.077,0.365-0.253,0.699-0.349,1.058
		c-0.029,0.02-0.04,0.044-0.017,0.075c0.015-0.016,0.03-0.033,0.046-0.049c0.84-1.483,2.973-2.226,4.133-2.092
		c-0.108,0.218-0.229,0.423-0.381,0.61c-0.665,0.823-1.531,1.328-2.524,1.665c-0.649,0.221-1.308,0.077-1.957,0.162
		c-0.006,0.001-0.013-0.001-0.019-0.001c-1.185-0.088-2.172-0.614-3.046-1.386c-0.072-0.064-0.122-0.153-0.254-0.202
		c0.288,1.08,0.325,2.138,0.013,3.204c0.102-0.01,0.133-0.064,0.17-0.103c0.22-0.23,0.467-0.428,0.731-0.602
		c0.997-0.655,2.104-0.883,3.28-0.831c0.987,0.044,1.88,0.355,2.67,0.951c0.465,0.35,0.83,0.797,1.187,1.264
		c0.004-0.029,0.012-0.049,0.008-0.066c-0.008-0.036-0.021-0.072-0.036-0.106c-0.388-0.898-0.503-1.835-0.384-2.802
		c0.07-0.569,0.239-1.11,0.534-1.606c0.028-0.047,0.048-0.122,0.109-0.12c0.073,0.002,0.085,0.085,0.109,0.138
		c0.166,0.368,0.31,0.745,0.424,1.133c0.152,0.514,0.102,1.042,0.105,1.565c0.004,0.707-0.241,1.348-0.554,1.967
		c-0.032,0.063-0.063,0.131-0.155,0.086c-0.012-0.037-0.038-0.039-0.069-0.025c0.012,0.017,0.023,0.035,0.035,0.052
		c0.016,0.051,0.015,0.079-0.056,0.074c-0.391-0.03-0.78-0.067-1.163-0.156c-1.145-0.268-2.051-0.889-2.755-1.822
		c-0.067-0.089-0.118-0.2-0.254-0.264c0.29,0.72,0.476,1.438,0.527,2.185c0.052,0.754-0.165,1.46-0.414,2.163
		c1.009-1.426,2.442-1.946,4.121-2.035c-0.152,0.388-0.483,0.843-0.832,1.162c-0.813,0.746-1.788,1.147-2.863,1.326
		c-0.299,0.05-0.597,0.062-0.815-0.216c-0.008-0.01-0.032-0.006-0.057-0.009c0.023,0.096,0.091,0.167,0.092,0.273
		c-0.314-0.026-0.618-0.051-0.851-0.306c-0.303-0.331-0.623-0.647-0.9-1.002c-0.069-0.089-0.118-0.095-0.196-0.027
		c-0.158,0.136-0.318,0.27-0.477,0.405c-0.204,0.174-0.216,0.175-0.431,0.005c-0.414-0.326-0.78-0.702-1.126-1.098
		c-0.045-0.052-0.077-0.136-0.187-0.101c0.033,0.072,0.066,0.137,0.093,0.204c0.231,0.566,0.366,1.152,0.392,1.766
		c0.006,0.137-0.027,0.226-0.126,0.309c-0.284,0.238-0.617,0.391-0.945,0.554c-0.213,0.106-0.271,0.073-0.286-0.161
		c-0.04-0.609-0.008-1.213,0.132-1.809c0.015-0.062,0.046-0.125-0.007-0.217c-0.324,0.44-0.743,0.724-1.198,0.966
		c-0.692,0.368-1.204,0.559-1.453,0.515c0.234-0.087,0.438-0.166,0.644-0.238c2.011-0.704,3.048-3.139,1.893-5.078
		c-0.162-0.272-0.213-0.564-0.131-0.876c0.011-0.041,0.009-0.086,0.014-0.136c-0.1,0.02-0.15,0.101-0.224,0.146
		c-0.143,0.086-0.284,0.103-0.427,0.008c-0.438-0.29-0.896-0.542-1.389-0.728c-0.167-0.063-0.171-0.12-0.017-0.222
		c0.259-0.171,0.545-0.29,0.832-0.404c0.156-0.061,0.315-0.068,0.459,0.012c0.134,0.075,0.177,0.033,0.224-0.096
		c0.169-0.463,0.396-0.899,0.62-1.349c0.075,0.065,0.14,0.121,0.205,0.177c-0.172-0.491,0.082-0.877,0.298-1.266
		c0.076-0.136,0.088-0.201-0.077-0.278c-0.215-0.099-0.407-0.24-0.378-0.53c0.053-0.532,0.193-1.04,0.416-1.527
		c0.041-0.089,0.077-0.085,0.154-0.045c0.282,0.145,0.466,0.374,0.547,0.672c0.267,0.985,0.271,1.973-0.012,2.955
		c-0.064,0.223-0.157,0.437-0.236,0.655c1.012-1.365,2.399-2.005,4.06-2.142c-0.499-0.069-0.994-0.108-1.471-0.294
		c0.023-0.039,0.037-0.067,0.055-0.091c0.129-0.18,0.253-0.364,0.391-0.536c0.233-0.292,0.238-0.29,0.488-0.026
		c0.134,0.141,0.264,0.287,0.396,0.431c-0.04-0.238-0.117-0.448-0.189-0.661c-0.075-0.221-0.068-0.437,0.062-0.637
		c0.274-0.419,0.57-0.821,0.924-1.176c0.05-0.051,0.107-0.095,0.198-0.176c0.033,1.016-0.07,1.952-0.494,2.835
		c-0.013,0.025-0.025,0.051-0.038,0.076c-0.016,0.021-0.032,0.042-0.049,0.063c-0.056,0.063-0.221-0.002-0.194,0.144
		c0.023,0.126-0.044,0.215-0.077,0.318c-0.006,0.02-0.035,0.042-0.006,0.061c0.031,0.02,0.037-0.011,0.046-0.031
		c0.08-0.043,0.073-0.276,0.26-0.107c-0.035-0.124-0.091-0.242,0.001-0.355c0.018-0.02,0.035-0.04,0.053-0.06
		c0.013-0.02,0.026-0.041,0.039-0.061c0.016-0.019,0.035-0.037,0.049-0.057c0.655-0.928,1.51-1.585,2.595-1.939
		c0.389-0.127,0.79-0.201,1.242-0.305c-0.13-0.024-0.204-0.038-0.278-0.051c-0.529-0.097-1.053-0.213-1.538-0.454
		c-0.175-0.087-0.351-0.174-0.516-0.278c-0.233-0.147-0.435-0.309-0.566-0.583c-0.173-0.359-0.487-0.625-0.794-0.882
		c-0.063-0.053-0.125-0.106-0.187-0.161c-0.029-0.026-0.055-0.063-0.035-0.098c0.012-0.02,0.054-0.03,0.084-0.031
		c0.05-0.003,0.101,0.003,0.151,0.007c0.777,0.063,1.487,0.325,2.156,0.715c0.172,0.1,0.348,0.192,0.538,0.297
		c-0.007-0.109-0.067-0.16-0.11-0.217c-0.272-0.366-0.575-0.707-0.893-1.033c-2.303-2.359-5.06-3.888-8.301-4.525
		c-0.269-0.053-0.54-0.137-0.849-0.071c1.042,0.487,1.912,1.128,2.486,2.142c-0.083,0.004-0.15,0.013-0.217,0.01
		c-0.756-0.036-1.47-0.228-2.138-0.585c-0.596-0.319-1.069-0.782-1.498-1.294c-0.113-0.134-0.229-0.266-0.344-0.399
		c0.013,0.147,0.06,0.269,0.11,0.39c0.173,0.422,0.299,0.858,0.379,1.307c0.011,0.062,0.038,0.121-0.072,0.12
		c-0.403-0.005-0.807-0.002-1.216-0.002c0.045-0.601,0.334-1.126,0.419-1.703c-0.573,0.589-1.082,1.231-1.826,1.614
		c-0.735,0.378-1.515,0.543-2.363,0.573c0.72-1.008,1.533-1.849,2.733-2.237c-0.083-0.076-0.147-0.045-0.205-0.036
		c-1.113,0.168-2.212,0.394-3.274,0.779C8.42,2.549,6.28,3.95,4.522,5.92C4.148,6.34,3.754,6.743,3.477,7.24
		C3.464,7.257,3.445,7.275,3.473,7.292c0.004,0.003,0.022-0.016,0.033-0.025c0.169-0.131,0.34-0.26,0.507-0.395
		C4.9,6.154,5.935,5.851,7.065,5.783C7.046,5.828,7.031,5.862,7.016,5.896l0.005-0.001C6.823,6.147,6.636,6.407,6.421,6.646
		c-0.677,0.756-1.5,1.269-2.487,1.507C3.607,8.233,3.271,8.276,2.938,8.336c0.615,0.018,1.18,0.211,1.743,0.425
		C4.836,8.82,4.866,8.905,4.803,9.052c-0.124,0.29-0.265,0.571-0.404,0.854c-0.069,0.14-0.14,0.147-0.262,0.069
		c-0.515-0.33-0.925-0.761-1.243-1.28C2.841,8.609,2.795,8.516,2.823,8.408c0.02-0.013,0.071-0.003,0.052-0.042
		C2.863,8.34,2.822,8.36,2.795,8.372c-0.081,0.038-0.059,0.1-0.036,0.161c0.04,0.105,0.081,0.211,0.124,0.315
		c0.37,0.888,0.571,1.797,0.387,2.764c-0.108,0.566-0.3,1.103-0.506,1.637c-0.013,0.026-0.026,0.051-0.038,0.077
		c-0.13,0.036-0.14-0.086-0.176-0.15c-0.492-0.866-0.649-1.797-0.516-2.78c0.039-0.288,0.094-0.574,0.15-0.915
		c-0.428,0.649-1.188,3.167-1.351,4.316c-0.213,1.495-0.207,2.985-0.001,4.48c0.165,1.2,1.016,3.965,1.327,4.234
		c0.001-0.012,0.003-0.025,0.002-0.037c-0.005-0.031-0.011-0.062-0.018-0.093c-0.295-1.199-0.135-2.343,0.414-3.439
		c0.027-0.054,0.041-0.139,0.108-0.144c0.07-0.006,0.085,0.08,0.119,0.129c0.025,0.036,0.044,0.076,0.065,0.115
		c0.552,1.041,0.579,2.14,0.361,3.265c-0.081,0.417-0.289,0.793-0.408,1.199c-0.004,0.015-0.014,0.041-0.012,0.042
		c0.025,0.012,0.024-0.01,0.028-0.025c0.078-0.028,0.106-0.104,0.152-0.162c0.508-0.639,1.074-1.21,1.812-1.587
		c0.104-0.053,0.157-0.059,0.213,0.061c0.131,0.282,0.3,0.543,0.502,0.779c0.12,0.14,0.081,0.21-0.05,0.303
		c-0.529,0.372-1.134,0.542-1.753,0.679c-0.248,0.055-0.506,0.069-0.743,0.184c0.454,0.02,0.888,0.122,1.313,0.269
		c1.104,0.38,2.013,1.016,2.641,2.017c0.035,0.055,0.108,0.112,0.061,0.182c-0.043,0.065-0.13,0.041-0.196,0.035
		c-0.428-0.042-0.853-0.107-1.262-0.243c-0.687-0.228-1.292-0.598-1.837-1.072c-0.056-0.049-0.104-0.128-0.249-0.113
		c1.64,2.216,3.652,3.92,6.124,5.082c1.576,0.741,4.288,1.395,4.774,1.277c-0.055-0.027-0.091-0.046-0.127-0.063
		c-0.607-0.289-1.189-0.614-1.68-1.084c-0.303-0.291-0.562-0.615-0.775-0.978c-0.066-0.113-0.049-0.163,0.091-0.14
		c0.175,0.028,0.35,0.052,0.525,0.079c1.201,0.183,2.222,0.692,3.002,1.644c0.146,0.178,0.306,0.346,0.481,0.544
		c0.018-0.216-0.07-0.367-0.13-0.52c-0.31-0.784-0.353-1.598-0.289-2.424c0.019-0.246,0.087-0.312,0.33-0.324
		c0.265-0.013,0.531-0.009,0.797-0.017c0.08-0.003,0.114,0.025,0.121,0.104c0.053,0.58,0.086,1.161-0.007,1.74
		c-0.081,0.505-0.294,0.969-0.484,1.501c0.159-0.112,0.245-0.224,0.328-0.334c0.922-1.21,2.175-1.81,3.658-1.986
		c0.076-0.009,0.182-0.061,0.228,0.016c0.044,0.072-0.033,0.154-0.079,0.22c-0.58,0.829-1.294,1.499-2.242,1.895
		c-0.063,0.026-0.153,0.014-0.19,0.099c0.062,0.048,0.125,0.021,0.184,0.012c0.943-0.15,1.874-0.354,2.777-0.667
		c2.412-0.836,4.519-2.15,6.26-4.029c0.339-0.366,0.697-0.716,0.967-1.141c0.001-0.015,0.002-0.03,0.003-0.045
		c-0.013,0.007-0.026,0.013-0.039,0.02c-0.24,0.084-0.437,0.245-0.657,0.366c-0.661,0.366-1.377,0.542-2.12,0.625
		c-0.086,0.01-0.213,0.039-0.162-0.132C25.107,26.167,25.121,26.143,25.136,26.119z M24.633,20.691
		c0.025,0.022,0.012,0.091,0.049,0.074c0.029-0.013,0.025-0.075-0.014-0.108c-0.6-1.384-0.497-2.765,0.034-4.151
		c-0.44,0.667-1.025,1.143-1.712,1.505c-0.687,0.362-1.428,0.534-2.196,0.618c0.315,0.074,0.631,0.085,0.939,0.156
		C22.935,19.063,23.876,19.736,24.633,20.691z M24.735,11.34c-0.999,1.3-2.312,2.007-3.943,2.162
		c1.656,0.084,2.888,0.92,3.928,2.124C24.239,14.186,24.089,12.768,24.735,11.34z M24.664,10.406
		c-0.003,0.02-0.008,0.036-0.007,0.051c0.001,0.008,0.015,0.014,0.022,0.021c0.006-0.016,0.014-0.031,0.017-0.048
		C24.697,10.424,24.68,10.417,24.664,10.406z M24.757,11.317c0.005-0.005,0.009-0.009,0.014-0.014
		c-0.008-0.004-0.017-0.01-0.026-0.012c-0.003-0.001-0.008,0.008-0.012,0.012C24.741,11.308,24.749,11.313,24.757,11.317z
		 M14.356,31.246c-0.004-0.004-0.009-0.012-0.013-0.012c-0.005,0-0.009,0.007-0.014,0.011c0.004,0.004,0.009,0.012,0.013,0.012
		C14.347,31.256,14.352,31.249,14.356,31.246z"/>
	<path class="st0" d="M16.358,3.389c1.87-0.03,3.648,0.373,5.35,1.132c1.199,0.535,2.27,1.268,3.259,2.125
		c0.309,0.267,0.324,0.419,0.068,0.737c-0.653,0.814-1.316,1.621-1.969,2.435c-0.092,0.114-0.15,0.111-0.251,0.014
		c-0.679-0.657-1.403-1.256-2.227-1.727c-1.089-0.622-2.252-1.041-3.503-1.134c-2.475-0.183-4.654,0.557-6.498,2.224
		c-1.305,1.18-2.17,2.636-2.471,4.375c-0.467,2.701,0.116,5.14,1.991,7.199c1.269,1.394,2.842,2.281,4.699,2.617
		c1.805,0.327,3.546,0.074,5.215-0.689c0.908-0.415,1.748-0.932,2.5-1.592c0.448-0.393,0.453-0.39,0.836,0.064
		c0.518,0.614,1.086,1.183,1.626,1.777c0.361,0.398,0.362,0.475-0.035,0.826c-2.07,1.829-4.453,3.029-7.2,3.373
		c-3.886,0.487-7.332-0.557-10.218-3.241c-1.864-1.732-2.992-3.895-3.448-6.394C3.6,14.873,3.946,12.333,5.136,9.931
		c1.355-2.736,3.531-4.585,6.347-5.708c1.086-0.433,2.216-0.685,3.379-0.807C15.361,3.365,15.86,3.393,16.358,3.389z"/>
	<path class="st0" d="M15.178,17.488c0-0.43-0.005-0.861,0.003-1.291c0.002-0.13-0.028-0.181-0.168-0.209
		c-0.854-0.168-1.613-0.529-2.248-1.138c-1.013-0.97-0.872-3.031,0.389-3.923c0.512-0.362,1.084-0.559,1.692-0.667
		c0.331-0.059,0.332-0.057,0.332-0.389c0-0.481,0.005-0.962-0.003-1.443c-0.002-0.138,0.043-0.169,0.172-0.166
		c0.329,0.009,0.658,0.01,0.987,0c0.145-0.004,0.194,0.03,0.191,0.185c-0.011,0.531,0.001,1.063-0.008,1.595
		c-0.002,0.143,0.036,0.174,0.178,0.178c0.702,0.017,1.343,0.271,1.974,0.548c0.231,0.101,0.451,0.226,0.675,0.343
		c0.132,0.069,0.169,0.164,0.113,0.313c-0.143,0.379-0.314,0.743-0.505,1.099c-0.133,0.248-0.156,0.257-0.412,0.148
		c-0.446-0.191-0.88-0.41-1.339-0.569c-0.185-0.064-0.373-0.117-0.566-0.153c-0.076-0.014-0.116-0.02-0.116,0.079
		c0.003,0.81,0.003,1.62,0,2.43c0,0.078,0.046,0.111,0.098,0.148c0.173,0.122,0.373,0.183,0.57,0.25
		c0.329,0.112,0.651,0.241,0.964,0.389c1.85,0.877,1.824,3.089,0.884,4.199c-0.562,0.665-1.304,0.998-2.14,1.146
		c-0.367,0.065-0.369,0.053-0.369,0.436c0,0.513-0.003,1.025,0.003,1.538c0.001,0.117-0.02,0.163-0.151,0.159
		c-0.348-0.01-0.696-0.009-1.044-0.001c-0.123,0.003-0.16-0.028-0.159-0.155c0.007-0.582,0-1.165,0.006-1.747
		c0.001-0.128-0.017-0.184-0.168-0.196c-1.217-0.092-2.27-0.596-3.235-1.313c-0.065-0.049-0.12-0.112-0.179-0.17
		c-0.075-0.075-0.09-0.157-0.045-0.258c0.18-0.396,0.371-0.787,0.579-1.169c0.088-0.162,0.184-0.161,0.315-0.063
		c0.405,0.302,0.813,0.601,1.269,0.826c0.42,0.208,0.851,0.381,1.315,0.465c0.122,0.022,0.152-0.003,0.15-0.125
		C15.174,18.374,15.178,17.931,15.178,17.488z M16.534,16.455c0,0.787,0,1.544,0.001,2.301c0,0.037,0.009,0.075,0.015,0.112
		c0.008,0.056,0.037,0.069,0.092,0.054c0.294-0.083,0.575-0.191,0.777-0.437c0.275-0.334,0.353-0.716,0.2-1.116
		C17.43,16.878,17.002,16.653,16.534,16.455z M15.166,13.043C15.166,13.043,15.166,13.043,15.166,13.043
		c0.001-0.284,0.009-0.568-0.002-0.851c-0.013-0.349-0.024-0.351-0.347-0.219c-0.559,0.229-0.816,0.681-0.686,1.208
		c0.124,0.502,0.527,0.729,0.94,0.943c0.104,0.054,0.094-0.037,0.094-0.097C15.166,13.699,15.166,13.371,15.166,13.043z"/>
	<path class="st0" d="M10.968,14.396c-0.278,0.233-0.499,0.449-0.748,0.631c-0.405,0.296-0.836,0.542-1.309,0.71
		c-0.246,0.088-0.271,0.07-0.278-0.191c-0.007-0.234,0.009-0.469-0.003-0.702c-0.018-0.342,0.145-0.56,0.437-0.708
		c0.561-0.285,1.147-0.491,1.773-0.573c0.1-0.013,0.2-0.031,0.299-0.049c0.01-0.002,0.018-0.014,0.049-0.04
		c-0.27-0.048-0.525-0.086-0.776-0.14c-0.371-0.08-0.734-0.188-1.075-0.357c-0.312-0.155-0.334-0.207-0.209-0.52
		c0.108-0.269,0.234-0.531,0.342-0.8c0.046-0.115,0.104-0.11,0.199-0.069c0.325,0.139,0.599,0.351,0.853,0.59
		c0.143,0.134,0.274,0.28,0.412,0.419c0.317,0.32,0.509,0.688,0.551,1.151c0.043,0.477,0.27,0.9,0.588,1.249
		c0.385,0.423,0.453,0.914,0.403,1.446c-0.021,0.221-0.066,0.24-0.255,0.112c-0.067-0.046-0.132-0.095-0.206-0.149
		c-0.229,0.749-0.673,1.38-0.995,2.071c-0.045,0.096-0.103,0.11-0.193,0.093c-0.467-0.085-0.919-0.218-1.358-0.399
		c-0.241-0.1-0.379-0.286-0.463-0.521c-0.132-0.37-0.214-0.752-0.274-1.139c-0.03-0.194-0.001-0.216,0.188-0.145
		c0.709,0.266,1.323,0.679,1.865,1.202c0.045,0.043,0.09,0.086,0.155,0.124C10.647,16.609,10.653,15.53,10.968,14.396z"/>
	<path class="st0" d="M25.125,26.039c-0.006,0.018-0.013,0.037-0.019,0.055c-0.016,0.023-0.031,0.046-0.047,0.069
		c-0.077,0.057-0.196,0.054-0.238,0.164c-0.004,0.011-0.057,0.029-0.024,0.036c0.192,0.038,0.032,0.137,0.019,0.172
		c-0.141,0.362-0.405,0.636-0.68,0.899c-0.906,0.864-1.979,1.36-3.232,1.455c-0.05,0.004-0.101,0.003-0.152,0.004
		c-0.105,0.002-0.178-0.021-0.086-0.188c-0.354,0.286-0.71,0.186-1.055,0.133c-0.703-0.109-1.34-0.393-1.942-0.762
		c-0.058-0.035-0.123-0.066-0.155-0.153c0.36-0.102,0.727-0.157,1.091-0.225c0.192-0.035,0.387-0.057,0.581-0.084
		c0.162-0.022,0.293,0.037,0.413,0.144c0.262,0.233,0.458,0.521,0.666,0.799c0.026,0.02,0.013,0.088,0.049,0.071
		c0.028-0.013,0.023-0.074-0.016-0.105c-0.106-0.317-0.206-0.636-0.323-0.948c-0.052-0.137,0-0.194,0.113-0.245
		c0.34-0.152,0.693-0.269,1.046-0.384c0.041,0.185-0.216,1.163-0.399,1.601c1.004-1.274,2.279-2.059,3.919-2.191
		c-0.327-0.043-0.647-0.062-0.959-0.142c-0.153-0.039-0.299-0.098-0.439-0.174c-0.09-0.049-0.11-0.1-0.017-0.165
		c0.253-0.179,0.515-0.342,0.796-0.475c0.097-0.045,0.172-0.012,0.245,0.043c0.125,0.096,0.235,0.206,0.33,0.355
		c0.022-0.147-0.054-0.255-0.083-0.37c-0.063-0.253-0.024-0.451,0.196-0.618c0.252-0.191,0.486-0.404,0.709-0.629
		c0.042-0.043,0.084-0.123,0.152-0.087c0.065,0.034,0.064,0.122,0.052,0.19c-0.037,0.224-0.072,0.45-0.125,0.67
		C25.42,25.329,25.297,25.693,25.125,26.039z"/>
	<path class="st0" d="M2.905,13.925c0.284,0.559,0.308,1.166,0.32,1.773c0.009,0.462,0.001,0.924,0.017,1.386
		c0.007,0.188-0.065,0.344-0.131,0.507c-0.084,0.209-0.176,0.416-0.202,0.652c0.11-0.139,0.22-0.278,0.331-0.417
		c0.081-0.102,0.151-0.138,0.194,0.03c0.044,0.171,0.094,0.34,0.139,0.511c0.03,0.114-0.009,0.184-0.134,0.191
		c-0.139,0.008-0.277,0.019-0.416,0.027c-0.067,0.004-0.137-0.008-0.21,0.053c0.161,0.041,0.308,0.033,0.454,0.037
		c0.149,0.004,0.297,0.024,0.379,0.17c0.236,0.426,0.346,0.899,0.521,1.359c-0.091,0.005-0.135-0.034-0.178-0.067
		c-0.501-0.387-0.897-0.859-1.22-1.408c-0.245-0.417-0.463-0.836-0.58-1.305c-0.295-1.183-0.227-2.342,0.247-3.469
		c0.159-0.377,0.33-0.465,0.731-0.421c0.092,0.01,0.146,0.024,0.121,0.151c-0.033,0.164-0.023,0.337-0.071,0.546
		c-0.095-0.109-0.191-0.218-0.286-0.327c-0.004-0.016-0.006-0.038-0.029-0.025C2.895,13.881,2.903,13.909,2.905,13.925z"/>
	<path class="st0" d="M11.665,28.794c-0.352,0.145-0.705,0.073-1.056,0.003c-1.332-0.268-2.424-0.912-3.2-2.049
		c-0.06-0.089-0.111-0.183-0.166-0.276c-0.016-0.026-0.03-0.054-0.046-0.083c1.431-0.038,3.035,0.568,4.199,2.198
		c-0.168-0.531-0.386-1.049-0.447-1.643c0.345,0.121,0.673,0.235,1,0.353c0.249,0.089,0.252,0.092,0.168,0.337
		c-0.114,0.333-0.213,0.672-0.387,0.982c-0.022,0.039-0.073,0.087-0.032,0.147l0.006-0.006c-0.053-0.026-0.045,0.011-0.043,0.042
		L11.665,28.794z"/>
	<path class="st0" d="M11.377,13.027c-0.18-0.3-0.265-0.595-0.327-0.895c-0.151-0.728-0.204-1.464-0.072-2.2
		c0.083-0.462,0.438-0.699,0.822-0.899c0.075-0.039,0.118-0.011,0.142,0.065c0.159,0.512,0.299,1.03,0.321,1.569
		c0.008,0.194-0.122,0.342-0.229,0.488c-0.297,0.405-0.495,0.847-0.548,1.35C11.469,12.667,11.459,12.831,11.377,13.027z"/>
	<path class="st0" d="M7.343,5.755c0.026,0.061,0.094,0.022,0.133,0.061c-0.015,0.06-0.071,0.082-0.115,0.111
		C7.329,5.949,7.287,5.994,7.249,5.936c-0.025-0.038-0.078-0.091-0.01-0.125c0.078-0.039,0.04-0.047,0.004-0.092
		c-0.045-0.057,0.014-0.117,0.042-0.17c0.323-0.61,0.825-1.051,1.382-1.432c0.851-0.581,1.796-0.879,2.844-0.894
		c-0.033,0.127-0.108,0.205-0.198,0.273c-0.177,0.135-0.378,0.228-0.581,0.316C9.842,4.197,9.02,4.7,8.233,5.266
		C7.957,5.465,7.68,5.666,7.343,5.755z"/>
	<path class="st0" d="M17.182,9.573c0.132-0.149,0.279-0.276,0.443-0.377c0.601-0.37,1.236-0.655,1.946-0.734
		c0.2-0.022,0.386,0.031,0.56,0.134c0.098,0.058,0.114,0.123,0.053,0.216c-0.306,0.466-0.695,0.848-1.163,1.15
		c-0.16,0.103-0.328,0.065-0.493,0.011c-0.377-0.125-0.748-0.267-1.14-0.344C17.323,9.616,17.249,9.63,17.182,9.573z"/>
	<path class="st0" d="M6.419,23.776c0.411,0.349,0.765,0.671,1.082,1.032c0.135,0.154,0.173,0.335,0.098,0.53
		c-0.067,0.175-0.138,0.348-0.209,0.525c0.078,0.031,0.094-0.053,0.133-0.092c0.035-0.036,0.062-0.08,0.092-0.12
		c0.325-0.43,0.367-0.439,0.821-0.132c0.173,0.117,0.34,0.241,0.508,0.364c0.063,0.046,0.087,0.103-0.009,0.132
		c-0.543,0.167-1.091,0.314-1.668,0.283c-0.097-0.005-0.176-0.046-0.218-0.129C6.673,25.436,6.472,24.656,6.419,23.776z"/>
	<path class="st0" d="M12.81,8.516c0.179,0.006,0.351,0.047,0.517,0.11c0.355,0.135,0.703,0.287,0.998,0.531
		c0.248,0.205,0.203,0.441-0.093,0.546c-0.291,0.103-0.586,0.194-0.876,0.301c-0.142,0.053-0.251-0.008-0.351-0.082
		c-0.336-0.25-0.634-0.542-0.91-0.857C12.011,8.97,12,8.879,12.123,8.799C12.334,8.66,12.538,8.506,12.81,8.516z"/>
	<path class="st0" d="M11.699,28.763c0.238-0.331,0.474-0.662,0.763-0.953c0.202-0.204,0.407-0.284,0.696-0.197
		c0.418,0.126,0.857,0.151,1.285,0.235c0.054,0.011,0.127,0.008,0.142,0.067c0.015,0.06-0.05,0.097-0.094,0.131
		c-0.524,0.396-1.115,0.633-1.758,0.751c-0.305,0.056-0.615,0.072-0.921,0.117c-0.121,0.018-0.132-0.037-0.146-0.119
		c0,0-0.002,0.005-0.002,0.005c0.051,0.024,0.042-0.014,0.043-0.042L11.699,28.763z"/>
	<path class="st0" d="M24.775,5.57c-1.369-0.892-2.741-1.76-4.298-2.291c0.938-0.043,1.818,0.137,2.62,0.617
		C23.792,4.312,24.34,4.883,24.775,5.57z"/>
	<path class="st0" d="M14.478,18.012c-0.203-0.005-0.372-0.078-0.536-0.157c-0.401-0.194-0.755-0.458-1.099-0.738
		c-0.094-0.077-0.097-0.131,0.001-0.204c0.274-0.205,0.562-0.386,0.881-0.513c0.139-0.056,0.286-0.059,0.429-0.019
		c0.17,0.047,0.285,0.14,0.302,0.339C14.492,17.148,14.464,17.577,14.478,18.012z"/>
	<path class="st0" d="M17.665,22.719c-0.348,0.002-0.421-0.06-0.462-0.327c-0.048-0.315-0.009-0.632-0.025-0.947
		c-0.007-0.14,0.081-0.101,0.147-0.083c0.275,0.073,0.539,0.177,0.798,0.293c0.323,0.144,0.643,0.293,0.935,0.494
		c0.051,0.035,0.126,0.069,0.119,0.135c-0.006,0.057-0.083,0.071-0.135,0.09C18.571,22.543,18.09,22.666,17.665,22.719z"/>
	<path class="st0" d="M12.297,21.191c-0.007,0.141-0.018,0.261-0.017,0.38c0.001,0.097-0.045,0.112-0.115,0.073
		c-0.427-0.236-0.823-0.514-1.135-0.896c-0.06-0.074-0.09-0.169-0.08-0.266c0.024-0.232,0.073-0.46,0.138-0.684
		c0.028-0.095,0.077-0.111,0.15-0.059c0.289,0.202,0.58,0.402,0.861,0.614c0.121,0.091,0.16,0.239,0.172,0.387
		C12.285,20.897,12.29,21.055,12.297,21.191z"/>
	<path class="st0" d="M10.727,18.688c0.108-0.017,0.13,0.035,0.086,0.118c-0.128,0.242-0.11,0.459,0.095,0.65
		c0.061,0.056,0.031,0.096-0.016,0.138c-0.136,0.122-0.273,0.243-0.407,0.368c-0.098,0.091-0.178,0.07-0.253-0.027
		c-0.2-0.26-0.382-0.532-0.545-0.817c-0.039-0.068-0.06-0.122,0.04-0.159C10.054,18.839,10.385,18.743,10.727,18.688z"/>
	<path class="st0" d="M14.473,22.069c0,0.139,0.001,0.278,0,0.417c-0.001,0.093-0.031,0.137-0.14,0.109
		c-0.373-0.095-0.737-0.214-1.088-0.374c-0.115-0.053-0.131-0.106-0.027-0.184c0.326-0.245,0.692-0.41,1.079-0.532
		c0.107-0.034,0.173,0.012,0.175,0.128C14.476,21.778,14.473,21.923,14.473,22.069C14.473,22.069,14.473,22.069,14.473,22.069z"/>
	<path class="st0" d="M25.462,22.442c-0.49-0.327-0.691-0.852-1.132-1.183c0.475-0.062,0.737,0.05,0.889,0.463
		C25.302,21.945,25.396,22.164,25.462,22.442z"/>
	<path class="st0" d="M2.764,13.359c0.013-0.024,0.027-0.048,0.04-0.072c0.168-0.235,0.319-0.484,0.526-0.689
		c0.026-0.025,0.049-0.069,0.091-0.054c0.056,0.021,0.032,0.076,0.027,0.115c-0.019,0.137-0.04,0.274-0.068,0.41
		c-0.073,0.348-0.239,0.451-0.592,0.382C2.699,13.434,2.753,13.394,2.764,13.359z"/>
	<path class="st0" d="M7.016,5.896c0.157,0.006,0.17,0.081,0.099,0.201C7.058,6.193,6.999,6.287,6.882,6.378
		c0.016-0.168,0.093-0.275,0.147-0.39c0.013-0.027,0.082-0.07-0.007-0.094C7.021,5.895,7.016,5.896,7.016,5.896z"/>
	<path class="st0" d="M11.709,3.289c0.135-0.085,0.233-0.066,0.332-0.019C11.945,3.34,11.846,3.339,11.709,3.289z"/>
	<path class="st0" d="M21.543,9.581c0.129,0.046,0.221,0.137,0.292,0.252C21.714,9.78,21.615,9.698,21.543,9.581z"/>
</g>
</svg>
