<?xml version="1.0" encoding="utf-8"?>
<!-- Generator: Adobe Illustrator 25.2.3, SVG Export Plug-In . SVG Version: 6.00 Build 0)  -->
<svg version="1.1" id="Layer_1" xmlns="http://www.w3.org/2000/svg" xmlns:xlink="http://www.w3.org/1999/xlink" x="0px" y="0px"
	 viewBox="0 0 32 32" style="enable-background:new 0 0 32 32;" xml:space="preserve">
<style type="text/css">
	.st0{fill-rule:evenodd;clip-rule:evenodd;fill:#13CAFE;}
	.st1{fill:#3A0C70;}
	.st2{fill:#F8E9D2;}
	.st3{fill:#FBFAFB;}
	.st4{fill:#D2BBBC;}
	.st5{fill:#F66C72;}
</style>
<g>
	<circle class="st0" cx="16" cy="16" r="16"/>
	<g>
		<path class="st1" d="M15.768,25.529c-1.621,0.033-3.239,0.001-4.844-0.271c-1.264-0.215-2.41-0.678-3.325-1.596
			c-0.812-0.814-1.22-1.835-1.382-2.964c-0.264-1.847,0.021-3.652,0.467-5.432c0.155-0.618,0.117-1.152-0.088-1.747
			c-0.508-1.472-0.767-2.999-0.785-4.56C5.806,8.398,5.883,7.848,6.067,7.31c0.172-0.505,0.519-0.804,1.012-0.935
			C7.954,6.143,8.782,6.4,9.604,6.662c0.843,0.269,1.649,0.631,2.454,0.993c0.156,0.07,0.273,0.068,0.425,0.008
			c1.493-0.589,3.044-0.769,4.632-0.595c0.762,0.084,1.515,0.239,2.238,0.51c0.188,0.07,0.324,0.057,0.509-0.064
			c1.138-0.742,2.34-1.353,3.696-1.592c1.185-0.209,1.703,0.177,1.967,1.486c0.359,1.782,0.013,3.502-0.614,5.166
			c-0.21,0.556-0.236,1.035-0.052,1.596c0.361,1.101,0.602,2.233,0.75,3.387c0.105,0.821,0.193,1.639,0.197,2.466
			c0.007,1.571-0.503,2.914-1.765,3.899c-0.738,0.576-1.594,0.93-2.492,1.195c-1.264,0.373-2.558,0.406-3.858,0.41
			C17.05,25.531,16.409,25.529,15.768,25.529z M25.014,9.714c0.067-0.625,0.082-1.249-0.001-1.873
			c0.003-0.01,0.011-0.022,0.008-0.029c-0.008-0.017-0.021-0.032-0.031-0.048c-0.013-0.104-0.016-0.21-0.039-0.311
			c-0.22-0.961-0.493-1.148-1.453-0.936c-1.115,0.246-2.157,0.698-3.08,1.356c-0.504,0.36-0.86,0.437-1.489,0.206
			c-1.853-0.683-3.789-0.721-5.651-0.052c-0.801,0.288-1.42,0.225-2.14-0.13C10.159,7.414,9.132,7.042,8.04,6.87
			C7.258,6.747,6.703,7.057,6.514,7.823C6.354,8.47,6.317,9.128,6.442,9.788c0.023,0.549,0.08,1.092,0.201,1.63
			c0.207,0.924,0.391,1.854,0.801,2.718c0.058,0.122,0.053,0.243,0.017,0.372c-0.083,0.302-0.161,0.606-0.23,0.912
			c-0.391,1.718-0.697,3.443-0.432,5.215c-0.008,0.056-0.007,0.11,0.042,0.15c0.009,0.066,0.019,0.132,0.028,0.199
			c0.35,1.688,1.308,2.841,2.968,3.378c0.387,0.205,0.816,0.268,1.237,0.328c3.015,0.431,6.042,0.35,9.063,0.116
			c1.194-0.093,2.331-0.475,3.298-1.239c0.103,0.013,0.17-0.04,0.22-0.122l0.006,0.006c0.792-0.597,1.327-1.363,1.47-2.357
			c0.179-1.24,0.09-2.476-0.134-3.704c-0.102-0.393-0.136-0.797-0.208-1.195c-0.178-0.993-0.498-1.95-0.796-2.912
			C24.548,12.154,24.882,10.963,25.014,9.714z"/>
		<path class="st2" d="M24.998,17.39c0.223,1.228,0.313,2.463,0.134,3.704c-0.144,0.994-0.678,1.759-1.47,2.357
			c-0.026-0.107,0.049-0.169,0.101-0.246c0.313-0.46,0.651-0.907,0.8-1.458c0.123-0.453,0.301-0.895,0.256-1.413
			c-0.06,0.042-0.095,0.054-0.11,0.078c-0.439,0.704-1.041,1.242-1.717,1.712c-1.116,0.776-2.356,1.263-3.668,1.567
			c-0.767,0.178-1.537,0.368-2.334,0.364c0.037-0.132,0.151-0.165,0.262-0.203c0.677-0.236,1.231-0.663,1.673-1.206
			c0.457-0.561,0.861-1.154,1.044-1.891c0.139-0.557,0.311-1.091,0.171-1.666c-0.189-0.772-0.596-1.378-1.335-1.725
			c-0.051-0.024-0.101-0.072-0.158-0.024c-0.051,0.044-0.042,0.105-0.015,0.16c0.049,0.1,0.157,0.233,0.037,0.302
			c-0.119,0.068-0.225-0.082-0.319-0.162c-0.106-0.09-0.207-0.19-0.235-0.337c0.062,0.022,0.123,0.093,0.19,0.036
			c0.058-0.049,0.009-0.105-0.022-0.153c-0.043-0.067-0.076-0.144-0.131-0.199c-0.677-0.676-1.502-0.951-2.444-0.85
			c-0.794,0.085-1.425,0.524-2.026,1.011c-0.213,0-0.425,0.078-0.6,0.153c-0.418,0.179-0.811,0.4-1.009,0.885
			c-0.354,0.867-0.128,1.689,0.098,2.518c0.136,0.499,0.436,0.924,0.717,1.343c0.602,0.896,1.292,1.711,2.429,1.955
			c0.078,0.017,0.122,0.061,0.142,0.135c-0.147,0.106-0.318,0.074-0.474,0.061c-0.879-0.072-1.763-0.091-2.632-0.276
			c-1.804-0.383-3.379-1.163-4.58-2.602c-0.217-0.26-0.426-0.525-0.645-0.795c-0.07,0.091-0.041,0.146-0.027,0.201
			c0.374,1.5,1.23,2.637,2.562,3.419c0.076,0.045,0.257,0.036,0.176,0.219c-1.66-0.537-2.618-1.691-2.968-3.378
			c0.053-0.075,0.061-0.144-0.028-0.199c-0.049-0.04-0.05-0.094-0.042-0.15c0.069,0.019,0.116-0.001,0.118-0.078
			c0.003-0.186,0.007-0.373,0-0.559c-0.055-1.429,0.15-2.823,0.549-4.192c0.116-0.397,0.254-0.787,0.361-1.186
			c0.245-0.913,0.735-1.718,1.12-2.569c0.075-0.165,0.243-0.288,0.324-0.452c0.36-0.735,0.995-1.221,1.588-1.733
			c0.381-0.329,0.833-0.61,1.3-0.797c0.631-0.254,1.197-0.744,2.018-0.228c0.826,0.519,1.856,0.361,2.806,0.291
			c0.525-0.038,1.057-0.154,1.515-0.461c0.104-0.07,0.227-0.101,0.334-0.059c0.624,0.249,1.284,0.461,1.786,0.912
			c0.477,0.428,0.959,0.864,1.345,1.394c0.128,0.176,0.217,0.373,0.358,0.544c0.397,0.479,0.685,1.038,0.954,1.592
			c0.317,0.65,0.61,1.318,0.817,2.018c0.14,0.475,0.338,0.931,0.485,1.406c0.131,0.427,0.1,0.893,0.333,1.323
			C25.017,17.665,24.954,17.514,24.998,17.39z M8.936,15.963c0.087,0.072,0.125,0.042,0.165,0.018
			c0.149-0.088,0.299-0.173,0.446-0.263c0.999-0.613,1.56-0.582,2.395,0.142c0.096,0.083,0.174,0.188,0.257,0.285
			c0.046,0.053,0.088,0.122,0.167,0.066c0.056-0.039,0.035-0.106,0.018-0.161c-0.22-0.742-0.784-1.5-1.849-1.318
			C9.787,14.861,9.326,15.362,8.936,15.963z M19.273,16.51c0.344-0.763,0.907-1.087,1.587-1.171c0.687-0.085,1.262,0.24,1.752,0.698
			c0.091-0.102,0.039-0.165,0.009-0.222c-0.594-1.094-1.969-1.376-2.929-0.636C19.284,15.493,19.169,15.912,19.273,16.51z"/>
		<path class="st3" d="M24.998,17.39c-0.044,0.124,0.018,0.275-0.09,0.41c-0.233-0.43-0.202-0.895-0.333-1.323
			c-0.146-0.475-0.344-0.931-0.485-1.406c-0.207-0.7-0.5-1.367-0.817-2.018c-0.27-0.553-0.557-1.113-0.954-1.592
			c-0.141-0.171-0.23-0.368-0.358-0.544c-0.386-0.53-0.868-0.966-1.345-1.394c-0.502-0.45-1.162-0.663-1.786-0.912
			c-0.106-0.042-0.229-0.011-0.334,0.059c-0.458,0.307-0.99,0.422-1.515,0.461c-0.95,0.069-1.98,0.227-2.806-0.291
			c-0.821-0.516-1.387-0.026-2.018,0.228c-0.466,0.187-0.919,0.468-1.3,0.797c-0.592,0.511-1.228,0.998-1.588,1.733
			c-0.08,0.164-0.249,0.286-0.324,0.452c-0.385,0.851-0.875,1.656-1.12,2.569c-0.107,0.399-0.245,0.789-0.361,1.186
			c-0.4,1.369-0.604,2.763-0.549,4.192c0.007,0.186,0.003,0.373,0,0.559c-0.001,0.076-0.049,0.096-0.118,0.078
			c-0.265-1.772,0.041-3.497,0.432-5.215c0.07-0.306,0.147-0.61,0.23-0.912c0.036-0.13,0.041-0.251-0.017-0.372
			c0.141-0.05,0.238-0.167,0.278-0.288c0.083-0.248,0.122-0.51,0.18-0.766c0.024-0.022,0.06-0.04,0.07-0.068
			c0.524-1.453,1.4-2.655,2.582-3.64c0.213-0.119,0.425-0.238,0.637-0.358c0.186-0.105,0.242-0.222,0.02-0.349
			c-0.21-0.12-0.418-0.245-0.637-0.35c-0.499-0.238-1.009-0.45-1.521-0.66C8.529,7.442,7.998,7.301,7.444,7.32
			c-0.29,0.01-0.629,0.083-0.726,0.467C6.62,8.175,6.476,8.548,6.495,8.964C6.508,9.236,6.558,9.52,6.442,9.788
			C6.317,9.128,6.354,8.47,6.514,7.823C6.703,7.057,7.258,6.747,8.04,6.87c1.092,0.172,2.119,0.544,3.097,1.026
			c0.72,0.355,1.339,0.418,2.14,0.13c1.862-0.669,3.798-0.63,5.651,0.052c0.629,0.232,0.985,0.154,1.489-0.206
			c0.923-0.658,1.965-1.109,3.08-1.356c0.96-0.212,1.233-0.026,1.453,0.936c0.023,0.101,0.027,0.207,0.039,0.311
			c-0.085-0.007-0.106-0.064-0.129-0.137c-0.21-0.684-0.458-0.82-1.146-0.728c-0.518,0.069-0.954,0.316-1.403,0.543
			c-0.516,0.262-0.977,0.611-1.451,0.939c-0.142,0.098-0.349,0.164-0.341,0.357c0.01,0.242,0.277,0.085,0.391,0.19
			C20.856,9.006,20.9,9.05,20.962,9.096c0.627,0.471,1.161,1.033,1.634,1.656c0.364,0.478,0.706,0.97,0.915,1.54
			c0.091,0.364,0.393,0.626,0.484,0.991c0.298,0.962,0.617,1.919,0.796,2.912C24.862,16.593,24.897,16.997,24.998,17.39z"/>
		<path class="st4" d="M9.838,24.361c0.081-0.183-0.1-0.174-0.176-0.219c-1.332-0.783-2.188-1.92-2.562-3.419
			c-0.014-0.055-0.042-0.111,0.027-0.201c0.219,0.27,0.429,0.536,0.645,0.795c1.201,1.44,2.776,2.219,4.58,2.602
			c0.869,0.185,1.753,0.204,2.632,0.276c0.157,0.013,0.328,0.045,0.474-0.061c0.369-0.008,0.739-0.015,1.108-0.023
			c0.082,0.022,0.159,0.016,0.222-0.049c0.067-0.003,0.133-0.005,0.2-0.008c0.797,0.004,1.567-0.186,2.334-0.364
			c1.312-0.304,2.553-0.79,3.668-1.567c0.675-0.47,1.277-1.008,1.717-1.712c0.015-0.024,0.05-0.037,0.11-0.078
			c0.045,0.518-0.133,0.96-0.256,1.413c-0.15,0.551-0.487,0.998-0.8,1.458c-0.052,0.077-0.127,0.139-0.101,0.246
			c0,0-0.006-0.006-0.006-0.006c-0.106-0.017-0.188,0.006-0.22,0.122c-0.967,0.764-2.104,1.147-3.298,1.239
			c-3.021,0.234-6.048,0.315-9.063-0.116C10.653,24.629,10.224,24.567,9.838,24.361z"/>
		<path class="st2" d="M6.442,9.788C6.558,9.52,6.508,9.236,6.495,8.964C6.476,8.548,6.62,8.175,6.718,7.787
			C6.815,7.403,7.154,7.33,7.444,7.32c0.554-0.019,1.085,0.122,1.611,0.337c0.512,0.21,1.022,0.422,1.521,0.66
			c0.218,0.104,0.426,0.229,0.637,0.35c0.222,0.127,0.166,0.244-0.02,0.349c-0.212,0.12-0.425,0.239-0.637,0.358
			C9.817,8.667,8.93,8.194,8.007,7.79C7.301,7.48,6.937,7.715,6.91,8.474c-0.056,1.618,0.265,3.157,0.992,4.608
			c-0.057,0.256-0.097,0.518-0.18,0.766c-0.04,0.121-0.138,0.238-0.278,0.288c-0.41-0.864-0.594-1.794-0.801-2.718
			C6.522,10.879,6.465,10.336,6.442,9.788z"/>
		<path class="st2" d="M23.995,13.283c-0.091-0.365-0.393-0.627-0.484-0.991c0.117-0.009,0.139-0.113,0.185-0.189
			c0.414-0.688,0.677-1.421,0.809-2.223c0.117-0.713,0.223-1.415,0.122-2.133c-0.066-0.468-0.255-0.6-0.73-0.621
			c-0.252-0.011-0.449,0.093-0.658,0.19c-0.869,0.402-1.565,1.055-2.327,1.613c-0.114-0.104-0.381,0.052-0.391-0.19
			c-0.008-0.194,0.199-0.259,0.341-0.357c0.474-0.328,0.935-0.677,1.451-0.939c0.448-0.228,0.885-0.474,1.403-0.543
			c0.688-0.092,0.936,0.045,1.146,0.728c0.022,0.073,0.044,0.13,0.129,0.137c0.011,0.016,0.024,0.031,0.031,0.048
			c0.003,0.007-0.005,0.019-0.008,0.029c-0.067,0.624-0.063,1.249,0.001,1.873C24.882,10.963,24.548,12.154,23.995,13.283z"/>
		<path class="st3" d="M25.014,9.714c-0.064-0.624-0.068-1.249-0.001-1.873C25.096,8.465,25.081,9.09,25.014,9.714z"/>
		<path class="st2" d="M23.436,23.566c0.032-0.116,0.114-0.139,0.22-0.122C23.606,23.527,23.54,23.58,23.436,23.566z"/>
		<path class="st3" d="M6.842,20.785c0.089,0.055,0.081,0.124,0.028,0.199C6.861,20.917,6.851,20.851,6.842,20.785z"/>
		<path class="st3" d="M16.567,24.111c-0.369,0.008-0.739,0.015-1.108,0.023c-0.02-0.074-0.064-0.118-0.142-0.135
			c-1.136-0.244-1.826-1.059-2.429-1.955c-0.281-0.419-0.581-0.844-0.717-1.343c-0.226-0.829-0.452-1.651-0.098-2.518
			c0.198-0.485,0.591-0.706,1.009-0.885c0.175-0.075,0.388-0.153,0.6-0.153c-0.05,0.184,0.039,0.112,0.122,0.069
			c0.341-0.177,0.641-0.428,1.022-0.53c0.941-0.253,1.864-0.328,2.732,0.239c0.043,0.024,0.085,0.049,0.128,0.073
			c0.163,0.072,0.302,0.179,0.428,0.302c0.028,0.147,0.129,0.247,0.235,0.337c0.094,0.08,0.2,0.231,0.319,0.162
			c0.12-0.069,0.012-0.202-0.037-0.302c-0.027-0.055-0.036-0.116,0.015-0.16c0.056-0.048,0.106,0,0.158,0.024
			c0.739,0.348,1.147,0.953,1.335,1.725c0.141,0.576-0.032,1.109-0.171,1.666c-0.184,0.737-0.587,1.33-1.044,1.891
			c-0.442,0.543-0.996,0.97-1.673,1.206c-0.111,0.039-0.225,0.071-0.262,0.203c-0.067,0.003-0.133,0.005-0.2,0.008
			C16.693,23.978,16.62,23.997,16.567,24.111z M18.198,18.888c-0.747,0.497-1.505,0.319-1.835-0.429
			c0.235-0.113,0.458-0.237,0.666-0.406c0.464-0.378,0.426-0.852-0.141-1.075c-0.574-0.225-1.165-0.185-1.727,0.061
			c-0.32,0.14-0.38,0.41-0.211,0.723c0.175,0.323,0.451,0.52,0.787,0.646c-0.122,0.445-0.581,0.673-1.125,0.596
			c-0.415-0.059-0.564-0.39-0.766-0.674c-0.424,0.153-0.503,0.513-0.144,0.896c0.52,0.554,0.708,1.242,0.88,1.946
			c0.024,0.099,0.007,0.178-0.028,0.267c-0.114,0.291-0.107,0.593-0.072,0.896c0.064,0.564,0.557,1.102,1.037,1.191
			c1.004,0.187,1.64-0.281,1.712-1.297c0.011-0.15,0.01-0.304-0.008-0.453c-0.098-0.835,0.33-1.459,0.871-1.993
			c0.438-0.432,0.503-0.549,0.175-1.094c-0.009-0.033-0.026-0.069-0.063-0.046c-0.044,0.027-0.035,0.074-0.012,0.116
			C18.195,18.802,18.197,18.845,18.198,18.888z"/>
		<path class="st1" d="M8.936,15.963c0.39-0.601,0.851-1.103,1.6-1.231c1.065-0.182,1.629,0.576,1.849,1.318
			c0.016,0.055,0.038,0.122-0.018,0.161c-0.079,0.056-0.122-0.013-0.167-0.066c-0.083-0.097-0.161-0.202-0.257-0.285
			c-0.835-0.724-1.396-0.755-2.395-0.142c-0.147,0.09-0.298,0.175-0.446,0.263C9.061,16.005,9.023,16.035,8.936,15.963z"/>
		<path class="st1" d="M19.273,16.51c-0.104-0.598,0.012-1.017,0.419-1.331c0.96-0.741,2.335-0.458,2.929,0.636
			c0.031,0.057,0.082,0.12-0.009,0.222c-0.49-0.458-1.065-0.782-1.752-0.698C20.18,15.423,19.616,15.747,19.273,16.51z"/>
		<path class="st1" d="M18.114,17.301c-0.127-0.123-0.265-0.231-0.428-0.302c-0.025-0.055-0.072-0.072-0.128-0.073
			c-0.868-0.567-1.791-0.493-2.732-0.239c-0.381,0.103-0.682,0.354-1.022,0.53c-0.083,0.043-0.172,0.115-0.122-0.069
			c0.601-0.487,1.232-0.926,2.026-1.012c0.942-0.101,1.767,0.173,2.444,0.85c0.055,0.055,0.088,0.132,0.131,0.199
			c0.031,0.048,0.079,0.104,0.022,0.153C18.237,17.394,18.177,17.323,18.114,17.301z"/>
		<path class="st1" d="M7.902,13.082c-0.727-1.451-1.048-2.99-0.992-4.608C6.937,7.715,7.301,7.48,8.007,7.79
			c0.923,0.404,1.81,0.877,2.547,1.584c-1.182,0.986-2.058,2.188-2.582,3.64C7.963,13.042,7.926,13.06,7.902,13.082z M7.607,8.133
			C7.427,8.14,7.373,8.239,7.356,8.536c-0.056,1.001,0.129,1.969,0.39,2.927c0.028,0.104,0.001,0.265,0.154,0.275
			c0.12,0.008,0.197-0.105,0.256-0.208c0.424-0.741,0.94-1.413,1.542-2.018C9.82,9.39,9.832,9.331,9.676,9.233
			C9.094,8.869,8.517,8.498,7.885,8.225C7.789,8.183,7.687,8.159,7.607,8.133z"/>
		<path class="st1" d="M20.913,8.928c0.762-0.558,1.458-1.21,2.327-1.613c0.209-0.097,0.406-0.201,0.658-0.19
			c0.475,0.021,0.665,0.153,0.73,0.621c0.101,0.718-0.005,1.42-0.122,2.133c-0.132,0.802-0.395,1.535-0.809,2.223
			c-0.046,0.076-0.068,0.18-0.185,0.189c-0.21-0.57-0.551-1.062-0.915-1.54c-0.473-0.622-1.007-1.185-1.634-1.656
			C20.9,9.05,20.856,9.006,20.913,8.928z M24.217,8.547c-0.011-0.221-0.009-0.443-0.037-0.662c-0.043-0.338-0.15-0.398-0.47-0.27
			c-0.733,0.293-1.354,0.764-1.968,1.248c-0.136,0.107-0.095,0.177,0.005,0.275c0.199,0.195,0.394,0.395,0.582,0.601
			c0.416,0.456,0.806,0.932,1.131,1.459c0.052,0.084,0.118,0.179,0.195,0.029c0.088-0.17,0.216-0.347,0.248-0.514
			C24.04,9.998,24.233,9.287,24.217,8.547z"/>
		<path class="st2" d="M16.567,24.111c0.052-0.115,0.126-0.133,0.222-0.049C16.726,24.128,16.65,24.133,16.567,24.111z"/>
		<path class="st1" d="M15.737,18.408c-0.335-0.127-0.612-0.324-0.787-0.646c-0.169-0.313-0.11-0.583,0.211-0.723
			c0.562-0.246,1.152-0.286,1.727-0.061c0.567,0.223,0.605,0.697,0.141,1.075c-0.208,0.169-0.43,0.293-0.666,0.406
			c-0.191,0.193-0.202,0.668-0.002,0.764c0.39,0.185,0.802,0.318,1.241,0.291c0.368-0.023,0.559-0.238,0.596-0.625
			c-0.001-0.043-0.003-0.086-0.004-0.129c0.025-0.023,0.05-0.046,0.075-0.07c0.328,0.545,0.263,0.663-0.175,1.094
			c-0.542,0.534-0.969,1.158-0.871,1.993c0.018,0.149,0.018,0.303,0.008,0.453c-0.072,1.016-0.708,1.483-1.712,1.297
			c-0.48-0.089-0.972-0.628-1.037-1.191c-0.035-0.303-0.042-0.606,0.072-0.896c0.035-0.089,0.052-0.168,0.028-0.267
			c-0.172-0.704-0.36-1.391-0.88-1.946c-0.359-0.382-0.28-0.743,0.144-0.896c0,0.576,0.155,0.81,0.637,0.968
			c0.383,0.125,0.755,0.041,1.12-0.074C15.914,19.127,15.983,18.669,15.737,18.408z M16.858,22.082
			c0.005-0.444-0.091-0.668-0.321-0.746c-0.345-0.117-0.44,0.15-0.567,0.369c-0.026,0.045-0.037,0.127-0.115,0.099
			c-0.068-0.024-0.115-0.08-0.107-0.16c0.025-0.259-0.124-0.357-0.351-0.376c-0.263-0.022-0.41,0.125-0.493,0.356
			c-0.312,0.86,0.291,1.635,1.191,1.53C16.575,23.097,16.851,22.71,16.858,22.082z M15.441,17.301
			c0.436,0.236,0.864,0.168,1.288-0.029C16.297,17.123,15.869,17.183,15.441,17.301z"/>
		<path class="st4" d="M15.737,18.408c0.247,0.26,0.177,0.718-0.134,0.816c-0.365,0.114-0.737,0.199-1.12,0.074
			c-0.482-0.157-0.637-0.392-0.637-0.968c0.202,0.284,0.351,0.615,0.766,0.674C15.155,19.082,15.615,18.853,15.737,18.408z"/>
		<path class="st4" d="M18.198,18.888c-0.036,0.387-0.227,0.602-0.596,0.625c-0.439,0.027-0.851-0.105-1.241-0.291
			c-0.201-0.095-0.189-0.571,0.002-0.764C16.693,19.208,17.451,19.385,18.198,18.888z"/>
		<path class="st2" d="M17.558,16.925c0.056,0.002,0.103,0.019,0.128,0.073C17.643,16.974,17.601,16.949,17.558,16.925z"/>
		<path class="st4" d="M18.269,18.689c-0.025,0.023-0.05,0.046-0.075,0.07c-0.023-0.042-0.032-0.089,0.012-0.116
			C18.243,18.62,18.261,18.656,18.269,18.689z"/>
		<path class="st5" d="M7.607,8.133c0.08,0.026,0.182,0.051,0.278,0.092c0.632,0.274,1.21,0.644,1.791,1.008
			C9.832,9.331,9.82,9.39,9.698,9.512c-0.601,0.605-1.117,1.277-1.542,2.018c-0.059,0.104-0.136,0.216-0.256,0.208
			c-0.153-0.01-0.126-0.171-0.154-0.275C7.485,10.506,7.3,9.537,7.356,8.536C7.373,8.239,7.427,8.14,7.607,8.133z"/>
		<path class="st5" d="M24.217,8.547c0.016,0.74-0.177,1.451-0.315,2.166c-0.032,0.166-0.16,0.343-0.248,0.514
			c-0.077,0.15-0.143,0.055-0.195-0.029c-0.325-0.526-0.715-1.003-1.131-1.459c-0.188-0.206-0.383-0.406-0.582-0.601
			c-0.1-0.098-0.14-0.168-0.005-0.275c0.614-0.483,1.235-0.954,1.968-1.248c0.321-0.128,0.427-0.068,0.47,0.27
			C24.209,8.104,24.206,8.326,24.217,8.547z"/>
		<path class="st5" d="M16.858,22.082c-0.006,0.628-0.282,1.016-0.764,1.072c-0.9,0.105-1.503-0.67-1.191-1.53
			c0.084-0.23,0.23-0.378,0.493-0.356c0.227,0.019,0.376,0.117,0.351,0.376c-0.008,0.08,0.039,0.136,0.107,0.16
			c0.078,0.027,0.089-0.054,0.115-0.099c0.127-0.22,0.223-0.486,0.567-0.369C16.767,21.414,16.862,21.638,16.858,22.082z"/>
		<path class="st4" d="M15.441,17.301c0.429-0.118,0.856-0.177,1.288-0.029C16.304,17.469,15.877,17.537,15.441,17.301z"/>
	</g>
</g>
</svg>
