<?xml version="1.0" encoding="utf-8"?>
<!-- Generator: Adobe Illustrator 26.0.1, SVG Export Plug-In . SVG Version: 6.00 Build 0)  -->
<svg version="1.1" id="Layer_1" xmlns="http://www.w3.org/2000/svg" xmlns:xlink="http://www.w3.org/1999/xlink" x="0px" y="0px"
	 viewBox="0 0 32 32" style="enable-background:new 0 0 32 32;" xml:space="preserve">
<style type="text/css">
	.st0{fill:url(#SVGID_1_);}
	.st1{fill:url(#SVGID_00000044148091592307765220000000764668965608303806_);}
	.st2{fill:url(#SVGID_00000121274434827060329570000011822862228456972719_);}
	.st3{fill:url(#SVGID_00000093135553162654748030000009527799651525120652_);}
	.st4{fill:url(#SVGID_00000127743156449283088400000010183317681227205508_);}
	.st5{fill:none;}
	.st6{fill:url(#SVGID_00000038372512238396066450000010761516348220304526_);}
	.st7{fill:url(#SVGID_00000176756840794844567740000011881884173389502103_);}
	.st8{fill:url(#SVGID_00000099641151257024468030000000915920761706532507_);}
	.st9{fill:url(#SVGID_00000125577109275587912320000016121875753105487262_);}
	.st10{fill:url(#SVGID_00000142174626964545265330000005427080463671058820_);}
	.st11{fill:url(#SVGID_00000166650736324302327410000015919129647320357813_);}
	.st12{fill:url(#SVGID_00000101799249806601994170000008220555617759225988_);}
	.st13{fill:url(#SVGID_00000043446509000877953650000008636336026768486068_);}
	.st14{fill:url(#SVGID_00000140700081003590986210000017862621555794716350_);}
	.st15{fill:url(#SVGID_00000173870599863009382160000004320797108916111287_);}
	.st16{fill:url(#SVGID_00000132075743908343970190000015799155543199786380_);}
	.st17{fill:url(#SVGID_00000143614818994515705120000001682358555440052400_);}
	.st18{fill:url(#SVGID_00000083798607921095129700000007332055341882254520_);}
	.st19{fill:url(#SVGID_00000082354759529610186290000008843189491602503564_);}
	.st20{fill:#020202;}
	.st21{fill:#594840;}
	.st22{fill:#3E281F;}
	.st23{fill:#FFFFFF;}
	.st24{fill:#B38280;}
	.st25{fill:#B37982;}
	.st26{fill:url(#SVGID_00000105411422760839883190000002396717563834103427_);}
	.st27{fill:url(#SVGID_00000138545235474649676980000002658248660204749461_);}
	.st28{fill:url(#SVGID_00000092428963147376860940000010542313312723641994_);}
</style>
<g>
	
		<linearGradient id="SVGID_1_" gradientUnits="userSpaceOnUse" x1="24.2138" y1="31.8255" x2="8.2722" y2="4.9333" gradientTransform="matrix(1 0 0 -1 0 34)">
		<stop  offset="0" style="stop-color:#696144"/>
		<stop  offset="0.0287" style="stop-color:#7A7050"/>
		<stop  offset="0.0889" style="stop-color:#998C65"/>
		<stop  offset="0.1504" style="stop-color:#B1A375"/>
		<stop  offset="0.2136" style="stop-color:#C2B280"/>
		<stop  offset="0.2809" style="stop-color:#C9B985"/>
		<stop  offset="0.6685" style="stop-color:#FCF8C5"/>
		<stop  offset="0.8876" style="stop-color:#C2B587"/>
		<stop  offset="1" style="stop-color:#D9CD99"/>
	</linearGradient>
	<path class="st0" d="M16,0.292c-8.691,0-15.738,7.047-15.738,15.738S7.307,31.767,16,31.767s15.738-7.045,15.738-15.738
		S24.691,0.292,16,0.292z M26.208,25.035C23.745,27.744,20.085,29.46,16,29.46c-3.965,0-7.529-1.618-9.987-4.188
		c-3.056-1.594-4.295-4.038-3.317-6.711c-0.083-0.569-0.126-1.149-0.126-1.74C2.569,9.841,8.583,4.183,16,4.183
		s13.431,5.658,13.431,12.639c0,0.738-0.068,1.464-0.197,2.168C29.899,21.367,28.793,23.53,26.208,25.035z"/>
	
		<linearGradient id="SVGID_00000150067498707971413580000000919821882193417366_" gradientUnits="userSpaceOnUse" x1="-323.6258" y1="907.5018" x2="-304.7044" y2="912.4929" gradientTransform="matrix(0.866 0.5 0.5 -0.866 -165.613 961.52)">
		<stop  offset="0" style="stop-color:#F16D8C"/>
		<stop  offset="0.0262" style="stop-color:#F3869D"/>
		<stop  offset="0.0663" style="stop-color:#F6A5B4"/>
		<stop  offset="0.1074" style="stop-color:#F8C0CA"/>
		<stop  offset="0.149" style="stop-color:#FAD5DB"/>
		<stop  offset="0.1913" style="stop-color:#FBE3E9"/>
		<stop  offset="0.2347" style="stop-color:#FCECF2"/>
		<stop  offset="0.2809" style="stop-color:#FCEFF6"/>
		<stop  offset="0.4434" style="stop-color:#F38FBB"/>
		<stop  offset="0.7912" style="stop-color:#F27BA5"/>
		<stop  offset="1" style="stop-color:#8A3C4E"/>
	</linearGradient>
	<circle style="fill:url(#SVGID_00000150067498707971413580000000919821882193417366_);" cx="16.032" cy="16.03" r="13.431"/>
	
		<linearGradient id="SVGID_00000017485183809036243360000013486563460097539462_" gradientUnits="userSpaceOnUse" x1="24.2408" y1="31.8095" x2="8.2992" y2="4.9172" gradientTransform="matrix(1 0 0 -1 0 34)">
		<stop  offset="0" style="stop-color:#696144"/>
		<stop  offset="0.0287" style="stop-color:#7A7050"/>
		<stop  offset="0.0889" style="stop-color:#998C65"/>
		<stop  offset="0.1504" style="stop-color:#B1A375"/>
		<stop  offset="0.2136" style="stop-color:#C2B280"/>
		<stop  offset="0.2809" style="stop-color:#C9B985"/>
		<stop  offset="0.6685" style="stop-color:#FCF8C5"/>
		<stop  offset="0.8876" style="stop-color:#C2B587"/>
		<stop  offset="1" style="stop-color:#D9CD99"/>
	</linearGradient>
	<path style="fill:url(#SVGID_00000017485183809036243360000013486563460097539462_);" d="M11.266,11.957
		c0.546-1.434,2.412-2.491,4.629-2.491s4.081,1.057,4.629,2.491c2.313,0.507,4.984,1.663,7.103,4.173
		c0.817,0.967,1.346,1.928,1.607,2.857c0.128-0.704,0.197-1.43,0.197-2.168C29.431,9.839,23.417,4.18,16,4.18
		S2.569,9.841,2.569,16.821c0,0.591,0.043,1.171,0.126,1.74c0.291-0.794,0.777-1.609,1.468-2.429
		C6.284,13.62,8.955,12.467,11.266,11.957z"/>
	
		<linearGradient id="SVGID_00000160869873890386172850000005038635267690329013_" gradientUnits="userSpaceOnUse" x1="28.2972" y1="29.4049" x2="12.3555" y2="2.5126" gradientTransform="matrix(1 0 0 -1 0 34)">
		<stop  offset="0" style="stop-color:#696144"/>
		<stop  offset="0.0287" style="stop-color:#7A7050"/>
		<stop  offset="0.0889" style="stop-color:#998C65"/>
		<stop  offset="0.1504" style="stop-color:#B1A375"/>
		<stop  offset="0.2136" style="stop-color:#C2B280"/>
		<stop  offset="0.2809" style="stop-color:#C9B985"/>
		<stop  offset="0.6685" style="stop-color:#FCF8C5"/>
		<stop  offset="0.8876" style="stop-color:#C2B587"/>
		<stop  offset="1" style="stop-color:#D9CD99"/>
	</linearGradient>
	<path style="fill:url(#SVGID_00000160869873890386172850000005038635267690329013_);" d="M15.972,27.17c-0.026,0-0.051,0-0.077,0
		c-0.026,0-0.051,0-0.077,0c-4.184,0.021-7.507-0.7-9.805-1.898C8.471,27.845,12.035,29.46,16,29.46
		c4.085,0,7.745-1.716,10.208-4.426C23.903,26.377,20.423,27.192,15.972,27.17z"/>
	
		<linearGradient id="SVGID_00000090994005057443400150000011992356812149448102_" gradientUnits="userSpaceOnUse" x1="6.0611" y1="16.432" x2="0.9914" y2="3.5162" gradientTransform="matrix(1 0 0 -1 0 34)">
		<stop  offset="3.738020e-07" style="stop-color:#3A321A"/>
		<stop  offset="0.1544" style="stop-color:#5A5034"/>
		<stop  offset="0.3146" style="stop-color:#7B6F4E"/>
		<stop  offset="0.4716" style="stop-color:#978B65"/>
		<stop  offset="0.6224" style="stop-color:#ADA076"/>
		<stop  offset="0.7641" style="stop-color:#BBAE81"/>
		<stop  offset="0.8876" style="stop-color:#C2B587"/>
		<stop  offset="1" style="stop-color:#D9CD99"/>
	</linearGradient>
	<path style="fill:url(#SVGID_00000090994005057443400150000011992356812149448102_);" d="M6.013,25.272
		C4.26,23.44,3.07,21.123,2.696,18.561C1.72,21.234,2.957,23.678,6.013,25.272z"/>
	<path class="st5" d="M6.013,25.272C4.26,23.44,3.07,21.123,2.696,18.561C1.72,21.234,2.957,23.678,6.013,25.272z"/>
	
		<linearGradient id="SVGID_00000152947536683966441680000002782547118695307660_" gradientUnits="userSpaceOnUse" x1="35.935" y1="24.8772" x2="19.9934" y2="-2.015" gradientTransform="matrix(1 0 0 -1 0 34)">
		<stop  offset="0" style="stop-color:#696144"/>
		<stop  offset="0.0287" style="stop-color:#7A7050"/>
		<stop  offset="0.0889" style="stop-color:#998C65"/>
		<stop  offset="0.1504" style="stop-color:#B1A375"/>
		<stop  offset="0.2136" style="stop-color:#C2B280"/>
		<stop  offset="0.2809" style="stop-color:#C9B985"/>
		<stop  offset="0.6685" style="stop-color:#FCF8C5"/>
		<stop  offset="0.8876" style="stop-color:#C2B587"/>
		<stop  offset="1" style="stop-color:#D9CD99"/>
	</linearGradient>
	<path style="fill:url(#SVGID_00000152947536683966441680000002782547118695307660_);" d="M26.208,25.035
		c2.587-1.504,3.691-3.668,3.026-6.048C28.814,21.273,27.744,23.346,26.208,25.035z"/>
	
		<linearGradient id="SVGID_00000054987045667357001760000011873247486222004098_" gradientUnits="userSpaceOnUse" x1="26.4011" y1="14.8845" x2="30.4448" y2="6.0124" gradientTransform="matrix(1 0 0 -1 0 34)">
		<stop  offset="3.738020e-07" style="stop-color:#3A321A"/>
		<stop  offset="0.1544" style="stop-color:#5A5034"/>
		<stop  offset="0.3146" style="stop-color:#7B6F4E"/>
		<stop  offset="0.4716" style="stop-color:#978B65"/>
		<stop  offset="0.6224" style="stop-color:#ADA076"/>
		<stop  offset="0.7641" style="stop-color:#BBAE81"/>
		<stop  offset="0.8876" style="stop-color:#C2B587"/>
		<stop  offset="1" style="stop-color:#D9CD99"/>
	</linearGradient>
	<path style="fill:url(#SVGID_00000054987045667357001760000011873247486222004098_);" d="M26.208,25.035
		c2.587-1.504,3.691-3.668,3.026-6.048C28.814,21.273,27.744,23.346,26.208,25.035z"/>
	
		<linearGradient id="SVGID_00000008150682175504086880000008598119065297720997_" gradientUnits="userSpaceOnUse" x1="25.6622" y1="30.9669" x2="9.7205" y2="4.0747" gradientTransform="matrix(1 0 0 -1 0 34)">
		<stop  offset="0" style="stop-color:#696144"/>
		<stop  offset="0.0287" style="stop-color:#7A7050"/>
		<stop  offset="0.0889" style="stop-color:#998C65"/>
		<stop  offset="0.1504" style="stop-color:#B1A375"/>
		<stop  offset="0.2136" style="stop-color:#C2B280"/>
		<stop  offset="0.2809" style="stop-color:#C9B985"/>
		<stop  offset="0.6685" style="stop-color:#FCF8C5"/>
		<stop  offset="0.8876" style="stop-color:#C2B587"/>
		<stop  offset="1" style="stop-color:#D9CD99"/>
	</linearGradient>
	<path style="fill:url(#SVGID_00000008150682175504086880000008598119065297720997_);" d="M27.627,16.13
		c-2.121-2.51-4.791-3.666-7.103-4.173c-0.546-1.434-2.412-2.491-4.629-2.491s-4.081,1.057-4.629,2.491
		c-2.313,0.507-4.984,1.663-7.103,4.173c-0.691,0.82-1.177,1.635-1.468,2.429c0.375,2.562,1.566,4.879,3.317,6.711
		c2.298,1.198,5.622,1.92,9.805,1.898c0.026,0,0.051,0,0.077,0c0.026,0,0.051,0,0.077,0c4.451,0.021,7.931-0.794,10.236-2.134
		c1.537-1.688,2.607-3.762,3.026-6.048C28.975,18.06,28.444,17.1,27.627,16.13z"/>
	
		<radialGradient id="SVGID_00000109738826003495967110000012836357615743012540_" cx="17.1103" cy="17.2426" r="14.6509" gradientTransform="matrix(1 0 0 -1 0 34)" gradientUnits="userSpaceOnUse">
		<stop  offset="0" style="stop-color:#F06FAA"/>
		<stop  offset="0.0112" style="stop-color:#F06CA9"/>
		<stop  offset="0.0974" style="stop-color:#EF5AA0"/>
		<stop  offset="0.1863" style="stop-color:#EE4E9C"/>
		<stop  offset="0.2809" style="stop-color:#EE499A"/>
		<stop  offset="0.7912" style="stop-color:#EF5BA1"/>
		<stop  offset="1" style="stop-color:#5A0735"/>
	</radialGradient>
	<path style="fill:url(#SVGID_00000109738826003495967110000012836357615743012540_);" d="M27.627,16.13
		c-2.121-2.51-4.791-3.666-7.103-4.173c-0.546-1.434-2.412-2.491-4.629-2.491s-4.081,1.057-4.629,2.491
		c-2.313,0.507-4.984,1.663-7.103,4.173c-0.691,0.82-1.177,1.635-1.468,2.429c0.375,2.562,1.566,4.879,3.317,6.711
		c2.298,1.198,5.622,1.92,9.805,1.898c0.026,0,0.051,0,0.077,0c0.026,0,0.051,0,0.077,0c4.451,0.021,7.931-0.794,10.236-2.134
		c1.537-1.688,2.607-3.762,3.026-6.048C28.975,18.06,28.444,17.1,27.627,16.13z"/>
	
		<radialGradient id="SVGID_00000145754924826997858980000002683304792699725188_" cx="16" cy="17.3266" r="13.6794" gradientTransform="matrix(1 0 0 -1 0 34)" gradientUnits="userSpaceOnUse">
		<stop  offset="0" style="stop-color:#F06FAA"/>
		<stop  offset="0.0112" style="stop-color:#F06CA9"/>
		<stop  offset="0.0974" style="stop-color:#EF5AA0"/>
		<stop  offset="0.1863" style="stop-color:#EE4E9C"/>
		<stop  offset="0.2809" style="stop-color:#EE499A"/>
		<stop  offset="0.7912" style="stop-color:#EF5BA1"/>
		<stop  offset="1" style="stop-color:#5A0735"/>
	</radialGradient>
	<path style="fill:url(#SVGID_00000145754924826997858980000002683304792699725188_);" d="M16,4.18
		c-7.417,0-13.431,5.658-13.431,12.639c0,0.591,0.043,1.171,0.126,1.74c0.375,2.562,1.566,4.879,3.317,6.711
		c2.459,2.572,6.022,4.188,9.987,4.188c4.085,0,7.745-1.716,10.208-4.426c1.537-1.688,2.607-3.762,3.026-6.048
		c0.128-0.704,0.197-1.43,0.197-2.168C29.431,9.841,23.417,4.18,16,4.18z"/>
	<g>
		<g>
			
				<linearGradient id="SVGID_00000079447115636609323550000005078271481043763628_" gradientUnits="userSpaceOnUse" x1="8.0454" y1="27.2089" x2="4.065" y2="21.5803" gradientTransform="matrix(1 0 0 -1 0 34)">
				<stop  offset="4.792333e-09" style="stop-color:#FFDE8E"/>
				<stop  offset="0.0187" style="stop-color:#FED786"/>
				<stop  offset="0.0813" style="stop-color:#FBC272"/>
				<stop  offset="0.1453" style="stop-color:#F9B363"/>
				<stop  offset="0.2109" style="stop-color:#F7AB5A"/>
				<stop  offset="0.2809" style="stop-color:#F7A857"/>
				<stop  offset="0.6685" style="stop-color:#CB853A"/>
				<stop  offset="0.8876" style="stop-color:#B4702F"/>
				<stop  offset="1" style="stop-color:#8D5424"/>
			</linearGradient>
			<path style="fill:url(#SVGID_00000079447115636609323550000005078271481043763628_);" d="M11.138,8.212
				c0,0-1.907-0.535-3.826-1.205S4.416,5.955,4.121,6.56c-0.295,0.606-0.265,2.138,0,3.766s0.473,2.393,0.473,2.393
				S7.179,9.661,11.138,8.212z"/>
			
				<linearGradient id="SVGID_00000091721506235147455240000011187233352383714991_" gradientUnits="userSpaceOnUse" x1="7.3511" y1="22.8441" x2="1.7879" y2="27.9437" gradientTransform="matrix(1 0 0 -1 0 34)">
				<stop  offset="4.792333e-09" style="stop-color:#FFDE8E"/>
				<stop  offset="0.0187" style="stop-color:#FED786"/>
				<stop  offset="0.0813" style="stop-color:#FBC272"/>
				<stop  offset="0.1453" style="stop-color:#F9B363"/>
				<stop  offset="0.2109" style="stop-color:#F7AB5A"/>
				<stop  offset="0.2809" style="stop-color:#F7A857"/>
				<stop  offset="0.6685" style="stop-color:#CB853A"/>
				<stop  offset="0.8876" style="stop-color:#B4702F"/>
				<stop  offset="1" style="stop-color:#8D5424"/>
			</linearGradient>
			<path style="fill:url(#SVGID_00000091721506235147455240000011187233352383714991_);" d="M8.822,8.756
				c0,0-1.111-0.912-2.378-1.519C5.178,6.626,4.534,6.28,4.339,6.83s-0.175,1.943,0,3.424s0.312,2.176,0.312,2.176
				S6.209,10.074,8.822,8.756z"/>
			
				<radialGradient id="SVGID_00000018938343364878739480000012334402196688512663_" cx="5.3551" cy="24.8602" r="3.268" gradientTransform="matrix(1 0 0 -1 0 34)" gradientUnits="userSpaceOnUse">
				<stop  offset="0" style="stop-color:#F7A857"/>
				<stop  offset="0.6685" style="stop-color:#CB853A"/>
				<stop  offset="0.8032" style="stop-color:#B4702F"/>
				<stop  offset="1" style="stop-color:#4B2800"/>
			</radialGradient>
			<path style="fill:url(#SVGID_00000018938343364878739480000012334402196688512663_);" d="M8.619,9.216c0,0-1.01-0.88-2.164-1.468
				S4.718,6.823,4.54,7.356c-0.178,0.533-0.161,1.877,0,3.306s0.285,2.101,0.285,2.101S6.244,10.487,8.619,9.216z"/>
		</g>
		<g>
			
				<linearGradient id="SVGID_00000141451063142050165580000011737995646922915206_" gradientUnits="userSpaceOnUse" x1="-3638.8647" y1="27.2091" x2="-3642.8452" y2="21.5805" gradientTransform="matrix(-1 0 0 -1 -3615.1328 34)">
				<stop  offset="4.792333e-09" style="stop-color:#FFDE8E"/>
				<stop  offset="0.0187" style="stop-color:#FED786"/>
				<stop  offset="0.0813" style="stop-color:#FBC272"/>
				<stop  offset="0.1453" style="stop-color:#F9B363"/>
				<stop  offset="0.2109" style="stop-color:#F7AB5A"/>
				<stop  offset="0.2809" style="stop-color:#F7A857"/>
				<stop  offset="0.6685" style="stop-color:#CB853A"/>
				<stop  offset="0.8876" style="stop-color:#B4702F"/>
				<stop  offset="1" style="stop-color:#8D5424"/>
			</linearGradient>
			<path style="fill:url(#SVGID_00000141451063142050165580000011737995646922915206_);" d="M20.64,8.212
				c0,0,1.907-0.535,3.826-1.205s2.895-1.053,3.191-0.447s0.265,2.138,0,3.766c-0.265,1.629-0.473,2.395-0.473,2.395
				S24.599,9.661,20.64,8.212z"/>
			
				<linearGradient id="SVGID_00000124148195274843920340000013096743051771347593_" gradientUnits="userSpaceOnUse" x1="-3639.5596" y1="22.8434" x2="-3645.1228" y2="27.943" gradientTransform="matrix(-1 0 0 -1 -3615.1328 34)">
				<stop  offset="4.792333e-09" style="stop-color:#FFDE8E"/>
				<stop  offset="0.0187" style="stop-color:#FED786"/>
				<stop  offset="0.0813" style="stop-color:#FBC272"/>
				<stop  offset="0.1453" style="stop-color:#F9B363"/>
				<stop  offset="0.2109" style="stop-color:#F7AB5A"/>
				<stop  offset="0.2809" style="stop-color:#F7A857"/>
				<stop  offset="0.6685" style="stop-color:#CB853A"/>
				<stop  offset="0.8876" style="stop-color:#B4702F"/>
				<stop  offset="1" style="stop-color:#8D5424"/>
			</linearGradient>
			<path style="fill:url(#SVGID_00000124148195274843920340000013096743051771347593_);" d="M22.955,8.756
				c0,0,1.111-0.912,2.378-1.519c1.267-0.61,1.911-0.957,2.106-0.407c0.195,0.55,0.175,1.943,0,3.424
				c-0.175,1.481-0.31,2.176-0.31,2.176S25.568,10.074,22.955,8.756z"/>
			
				<radialGradient id="SVGID_00000013877464100434871070000016329005120398047898_" cx="-3641.5549" cy="24.8602" r="3.268" gradientTransform="matrix(-1 0 0 -1 -3615.1328 34)" gradientUnits="userSpaceOnUse">
				<stop  offset="0" style="stop-color:#F7A857"/>
				<stop  offset="0.6685" style="stop-color:#CB853A"/>
				<stop  offset="0.8032" style="stop-color:#B4702F"/>
				<stop  offset="1" style="stop-color:#4B2800"/>
			</radialGradient>
			<path style="fill:url(#SVGID_00000013877464100434871070000016329005120398047898_);" d="M23.156,9.216
				c0,0,1.01-0.88,2.164-1.468c1.153-0.589,1.738-0.924,1.915-0.392c0.178,0.533,0.16,1.877,0,3.306
				c-0.161,1.43-0.285,2.101-0.285,2.101S25.534,10.487,23.156,9.216z"/>
		</g>
		
			<radialGradient id="SVGID_00000132791598842074424830000006585961022504122499_" cx="15.4472" cy="24.2547" r="17.3466" gradientTransform="matrix(1 0 0 -1 0 34)" gradientUnits="userSpaceOnUse">
			<stop  offset="4.792333e-09" style="stop-color:#FFDE8E"/>
			<stop  offset="0.0187" style="stop-color:#FED786"/>
			<stop  offset="0.0813" style="stop-color:#FBC272"/>
			<stop  offset="0.1453" style="stop-color:#F9B363"/>
			<stop  offset="0.2109" style="stop-color:#F7AB5A"/>
			<stop  offset="0.2809" style="stop-color:#F7A857"/>
			<stop  offset="0.8896" style="stop-color:#CB853A"/>
			<stop  offset="1" style="stop-color:#8D5424"/>
		</radialGradient>
		<path style="fill:url(#SVGID_00000132791598842074424830000006585961022504122499_);" d="M4.495,23.62
			c0.381,0.321,0.811,0.623,1.295,0.899c1.868,1.066,4.541,1.774,8.22,1.896c0.529,0.017,1.042,0.026,1.539,0.026
			c0.103,0,0.205,0,0.308-0.002c0.591,0.004,1.207-0.002,1.847-0.024c3.537-0.118,6.144-0.777,8.001-1.774
			c0.576-0.31,1.079-0.651,1.515-1.021c3.216-2.716,2.812-6.88,0.931-10.105c-0.33-0.565-0.704-1.1-1.111-1.594
			c-0.15-0.182-0.304-0.355-0.462-0.524c-0.135-0.143-0.274-0.282-0.413-0.415c-0.768-0.732-1.607-1.314-2.465-1.78
			c-3.507-1.905-7.321-1.845-7.841-1.828c-0.017,0-0.039-0.002-0.062-0.002c-0.728-0.019-4.599-0.015-8.07,1.99
			c-0.758,0.437-1.496,0.969-2.176,1.62c-0.141,0.133-0.278,0.272-0.413,0.415c-0.158,0.167-0.312,0.342-0.462,0.524
			c-0.409,0.494-0.783,1.029-1.111,1.594C1.683,16.74,1.279,20.902,4.495,23.62z"/>
		
			<radialGradient id="SVGID_00000036955844106127147740000018264137306443466665_" cx="15.695" cy="14.8347" r="13.1037" gradientTransform="matrix(1 0 0 -1 0 34)" gradientUnits="userSpaceOnUse">
			<stop  offset="0" style="stop-color:#FDFEFF"/>
			<stop  offset="0.4804" style="stop-color:#FBFAFB"/>
			<stop  offset="0.6535" style="stop-color:#F4F1F2"/>
			<stop  offset="0.7768" style="stop-color:#EAE4E6"/>
			<stop  offset="0.8765" style="stop-color:#DDD3D6"/>
			<stop  offset="0.961" style="stop-color:#CEBEC3"/>
			<stop  offset="1" style="stop-color:#C5B2B8"/>
		</radialGradient>
		<path style="fill:url(#SVGID_00000036955844106127147740000018264137306443466665_);" d="M27.588,15.507
			c-2.121-2.51-4.791-3.666-7.103-4.173c-0.546-1.434-2.412-2.491-4.629-2.491s-4.081,1.057-4.629,2.491
			c-2.313,0.507-4.984,1.663-7.103,4.173c-4.77,5.65,0.255,11.096,11.654,11.038c0.026,0,0.051,0,0.077,0c0.026,0,0.051,0,0.077,0
			C27.331,26.603,32.358,21.157,27.588,15.507z"/>
		
			<radialGradient id="SVGID_00000017510016768261419850000000742125632296929212_" cx="15.1381" cy="16.528" r="13.7902" gradientTransform="matrix(1 0 0 -1 0 34)" gradientUnits="userSpaceOnUse">
			<stop  offset="1.293930e-07" style="stop-color:#E4E2E1"/>
			<stop  offset="0.1914" style="stop-color:#ECE6E3"/>
			<stop  offset="0.4658" style="stop-color:#F0E8E4"/>
			<stop  offset="1" style="stop-color:#C6B6B4"/>
		</radialGradient>
		<path style="fill:url(#SVGID_00000017510016768261419850000000742125632296929212_);" d="M5.908,21.639
			c1.447,2.463,5.337,4.229,9.912,4.239c0.015,0,0.03,0,0.045,0c4.597,0,8.507-1.77,9.957-4.239
			c0.015-0.047,0.088-0.293,0.105-0.368c0.056-0.233,0.105-0.839,0.105-0.901c0-0.535-0.109-1.055-0.315-1.552
			c-0.336-0.813-0.931-1.562-1.727-2.215c-1.855-1.517-4.804-2.497-8.126-2.497c-0.011,0-0.021,0-0.032,0
			c-3.308,0.006-6.242,0.987-8.093,2.497c-0.796,0.651-1.391,1.402-1.727,2.215c-0.205,0.496-0.315,1.017-0.315,1.552
			c0,0.062,0.002,0.126,0.004,0.188c0.011,0.242,0.045,0.479,0.101,0.713c0.017,0.075,0.036,0.15,0.06,0.225
			C5.878,21.542,5.893,21.591,5.908,21.639z"/>
		<path d="M26.418,19.537c0-3.516-4.729-6.366-10.561-6.366S5.296,16.023,5.296,19.537c0,0.745,0.212,1.462,0.603,2.127
			c-0.137-0.411-0.21-0.835-0.21-1.269c0-2.692,2.756-4.986,6.623-5.872c0.312,0.351,1.263,1.391,2.211,2.196
			c1.16,0.984,1.333,1.13,1.333,1.13s0.173-0.146,1.333-1.13c0.948-0.807,1.898-1.847,2.211-2.196
			c3.867,0.886,6.623,3.18,6.623,5.872c0,0.434-0.073,0.86-0.21,1.269C26.206,20.999,26.418,20.284,26.418,19.537z"/>
		<g>
			<path class="st20" d="M8.814,19.449c0.081,0.006,0.163,0.011,0.244,0.009c0.028,0,0.045-0.021,0.041-0.047
				c-0.004-0.026-0.03-0.045-0.058-0.045c-0.629,0.011-1.213-0.231-1.569-0.646c-0.019-0.021-0.051-0.03-0.073-0.015
				c-0.021,0.013-0.024,0.041-0.004,0.062C7.731,19.156,8.247,19.402,8.814,19.449z"/>
			<path class="st20" d="M8.529,19.967c0.169,0.015,0.345,0.002,0.518-0.036c0.026-0.006,0.036-0.03,0.028-0.056
				c-0.011-0.026-0.039-0.041-0.064-0.034c-0.467,0.107-0.942,0-1.278-0.285c-0.021-0.019-0.054-0.019-0.071-0.002
				c-0.017,0.017-0.011,0.047,0.011,0.064C7.913,19.822,8.213,19.939,8.529,19.967z"/>
			<path class="st21" d="M8.859,20.926c0.143,1.263,0.623,1.329,1.207,1.372c0.582,0.043,1.053,0.043,0.997-1.22
				c-0.047-1.263-0.608-2.32-1.26-2.36C9.148,18.675,8.722,19.665,8.859,20.926z"/>
			<path class="st22" d="M9.678,21.739c0.595,0.053,0.993-0.021,0.924-1.284c-0.03-0.601-0.175-1.158-0.389-1.577
				c0.464,0.347,0.813,1.211,0.852,2.2c0.056,1.263-0.415,1.26-0.997,1.22c-0.464-0.034-0.995-0.021-1.194-1.22
				C9.058,21.412,9.238,21.701,9.678,21.739z"/>
			<path class="st20" d="M9.218,22.082c-0.227-0.22-0.366-0.589-0.432-1.16c-0.146-1.32,0.302-2.318,1.01-2.273
				c0.197,0.013,0.387,0.105,0.567,0.272c0.445,0.422,0.736,1.25,0.768,2.164c0.054,1.267-0.407,1.331-1.061,1.284
				c-0.043-0.002-0.086-0.006-0.128-0.011C9.659,22.33,9.419,22.276,9.218,22.082z M9.807,18.786
				c-0.599-0.039-1.006,0.944-0.877,2.146l0,0c0.058,0.526,0.182,0.871,0.377,1.059c0.188,0.184,0.432,0.214,0.755,0.238
				c0.554,0.041,0.989,0.071,0.933-1.156c-0.036-0.865-0.317-1.676-0.73-2.063c-0.146-0.135-0.295-0.21-0.447-0.223
				C9.813,18.786,9.811,18.786,9.807,18.786z"/>
			<path class="st20" d="M9.218,22.082c-0.227-0.22-0.366-0.589-0.432-1.16c-0.146-1.32,0.302-2.318,1.01-2.273
				c0.197,0.013,0.387,0.105,0.567,0.272c0.445,0.422,0.736,1.25,0.768,2.164c0.054,1.267-0.407,1.331-1.061,1.284
				c-0.043-0.002-0.086-0.006-0.128-0.011C9.659,22.33,9.419,22.276,9.218,22.082z M9.807,18.786
				c-0.599-0.039-1.006,0.944-0.877,2.146l0,0c0.058,0.526,0.182,0.871,0.377,1.059c0.188,0.184,0.432,0.214,0.755,0.238
				c0.554,0.041,0.989,0.071,0.933-1.156c-0.036-0.865-0.317-1.676-0.73-2.063c-0.146-0.135-0.295-0.21-0.447-0.223
				C9.813,18.786,9.811,18.786,9.807,18.786z"/>
			<path class="st23" d="M8.944,20.111c0.053,0.475,0.306,0.873,0.561,0.888c0.255,0.015,0.428-0.357,0.387-0.832
				c-0.039-0.475-0.289-0.873-0.556-0.888C9.066,19.261,8.891,19.636,8.944,20.111z"/>
		</g>
		<g>
			<path class="st20" d="M8.814,19.449c0.081,0.006,0.163,0.011,0.244,0.009c0.028,0,0.045-0.021,0.041-0.047
				c-0.004-0.026-0.03-0.045-0.058-0.045c-0.629,0.011-1.213-0.231-1.569-0.646c-0.019-0.021-0.051-0.03-0.073-0.015
				c-0.021,0.013-0.024,0.041-0.004,0.062C7.731,19.156,8.247,19.402,8.814,19.449z"/>
			<path class="st20" d="M8.529,19.967c0.169,0.015,0.345,0.002,0.518-0.036c0.026-0.006,0.036-0.03,0.028-0.056
				c-0.011-0.026-0.039-0.041-0.064-0.034c-0.467,0.107-0.942,0-1.278-0.285c-0.021-0.019-0.054-0.019-0.071-0.002
				c-0.017,0.017-0.011,0.047,0.011,0.064C7.913,19.822,8.213,19.939,8.529,19.967z"/>
			<path class="st21" d="M8.859,20.926c0.143,1.263,0.623,1.329,1.207,1.372c0.582,0.043,1.053,0.043,0.997-1.22
				c-0.047-1.263-0.608-2.32-1.26-2.36C9.148,18.675,8.722,19.665,8.859,20.926z"/>
			<path class="st22" d="M9.678,21.739c0.595,0.053,0.993-0.021,0.924-1.284c-0.03-0.601-0.175-1.158-0.389-1.577
				c0.464,0.347,0.813,1.211,0.852,2.2c0.056,1.263-0.415,1.26-0.997,1.22c-0.464-0.034-0.995-0.021-1.194-1.22
				C9.058,21.412,9.238,21.701,9.678,21.739z"/>
			<path class="st20" d="M9.218,22.082c-0.227-0.22-0.366-0.589-0.432-1.16c-0.146-1.32,0.302-2.318,1.01-2.273
				c0.197,0.013,0.387,0.105,0.567,0.272c0.445,0.422,0.736,1.25,0.768,2.164c0.054,1.267-0.407,1.331-1.061,1.284
				c-0.043-0.002-0.086-0.006-0.128-0.011C9.659,22.33,9.419,22.276,9.218,22.082z M9.807,18.786
				c-0.599-0.039-1.006,0.944-0.877,2.146l0,0c0.058,0.526,0.182,0.871,0.377,1.059c0.188,0.184,0.432,0.214,0.755,0.238
				c0.554,0.041,0.989,0.071,0.933-1.156c-0.036-0.865-0.317-1.676-0.73-2.063c-0.146-0.135-0.295-0.21-0.447-0.223
				C9.813,18.786,9.811,18.786,9.807,18.786z"/>
			<path class="st20" d="M9.218,22.082c-0.227-0.22-0.366-0.589-0.432-1.16c-0.146-1.32,0.302-2.318,1.01-2.273
				c0.197,0.013,0.387,0.105,0.567,0.272c0.445,0.422,0.736,1.25,0.768,2.164c0.054,1.267-0.407,1.331-1.061,1.284
				c-0.043-0.002-0.086-0.006-0.128-0.011C9.659,22.33,9.419,22.276,9.218,22.082z M9.807,18.786
				c-0.599-0.039-1.006,0.944-0.877,2.146l0,0c0.058,0.526,0.182,0.871,0.377,1.059c0.188,0.184,0.432,0.214,0.755,0.238
				c0.554,0.041,0.989,0.071,0.933-1.156c-0.036-0.865-0.317-1.676-0.73-2.063c-0.146-0.135-0.295-0.21-0.447-0.223
				C9.813,18.786,9.811,18.786,9.807,18.786z"/>
			<path class="st23" d="M8.944,20.111c0.053,0.475,0.306,0.873,0.561,0.888c0.255,0.015,0.428-0.357,0.387-0.832
				c-0.039-0.475-0.289-0.873-0.556-0.888C9.066,19.261,8.891,19.636,8.944,20.111z"/>
		</g>
		<g>
			<path class="st20" d="M22.964,19.449c-0.081,0.006-0.163,0.011-0.244,0.009c-0.028,0-0.045-0.021-0.041-0.047
				c0.004-0.026,0.03-0.045,0.058-0.045c0.629,0.011,1.213-0.231,1.569-0.646c0.019-0.021,0.051-0.03,0.073-0.015
				c0.021,0.013,0.024,0.041,0.004,0.062C24.046,19.156,23.531,19.402,22.964,19.449z"/>
			<path class="st20" d="M23.248,19.967c-0.169,0.015-0.345,0.002-0.518-0.036c-0.026-0.006-0.036-0.03-0.028-0.056
				c0.011-0.026,0.039-0.041,0.064-0.034c0.467,0.107,0.942,0,1.278-0.285c0.021-0.019,0.053-0.019,0.071-0.002
				c0.017,0.017,0.011,0.047-0.011,0.064C23.865,19.822,23.565,19.939,23.248,19.967z"/>
			<path class="st21" d="M22.919,20.926c-0.143,1.263-0.623,1.329-1.207,1.372c-0.582,0.043-1.053,0.043-0.997-1.22
				c0.047-1.263,0.608-2.32,1.26-2.36C22.63,18.675,23.056,19.665,22.919,20.926z"/>
			<path class="st22" d="M22.099,21.739c-0.595,0.053-0.993-0.021-0.924-1.284c0.03-0.601,0.175-1.158,0.389-1.577
				c-0.464,0.347-0.813,1.211-0.852,2.2c-0.056,1.263,0.415,1.26,0.997,1.22c0.464-0.034,0.995-0.021,1.194-1.22
				C22.72,21.412,22.54,21.701,22.099,21.739z"/>
			<path class="st20" d="M21.834,22.355c-0.041,0.004-0.083,0.006-0.128,0.011c-0.657,0.047-1.115-0.017-1.061-1.284
				c0.034-0.914,0.323-1.742,0.768-2.164c0.18-0.167,0.372-0.259,0.567-0.272c0.708-0.045,1.156,0.952,1.01,2.273
				c-0.066,0.571-0.203,0.939-0.432,1.16C22.358,22.276,22.118,22.33,21.834,22.355z M21.96,18.786
				c-0.15,0.013-0.302,0.088-0.447,0.223c-0.411,0.389-0.693,1.198-0.73,2.063c-0.056,1.226,0.379,1.196,0.933,1.156
				c0.323-0.024,0.567-0.054,0.755-0.238c0.195-0.188,0.319-0.535,0.377-1.059l0,0c0.128-1.201-0.278-2.185-0.877-2.146
				C21.966,18.786,21.964,18.786,21.96,18.786z"/>
			<path class="st20" d="M21.834,22.355c-0.041,0.004-0.083,0.006-0.128,0.011c-0.657,0.047-1.115-0.017-1.061-1.284
				c0.034-0.914,0.323-1.742,0.768-2.164c0.18-0.167,0.372-0.259,0.567-0.272c0.708-0.045,1.156,0.952,1.01,2.273
				c-0.066,0.571-0.203,0.939-0.432,1.16C22.358,22.276,22.118,22.33,21.834,22.355z M21.96,18.786
				c-0.15,0.013-0.302,0.088-0.447,0.223c-0.411,0.389-0.693,1.198-0.73,2.063c-0.056,1.226,0.379,1.196,0.933,1.156
				c0.323-0.024,0.567-0.054,0.755-0.238c0.195-0.188,0.319-0.535,0.377-1.059l0,0c0.128-1.201-0.278-2.185-0.877-2.146
				C21.966,18.786,21.964,18.786,21.96,18.786z"/>
			<path class="st23" d="M22.833,20.111c-0.054,0.475-0.306,0.873-0.561,0.888c-0.255,0.015-0.428-0.357-0.387-0.832
				c0.039-0.475,0.289-0.873,0.556-0.888C22.711,19.261,22.887,19.636,22.833,20.111z"/>
		</g>
		<ellipse class="st24" cx="16.148" cy="23.184" rx="0.792" ry="0.407"/>
		
			<ellipse transform="matrix(0.4302 -0.9027 0.9027 0.4302 -15.8496 21.2573)" class="st25" cx="8.914" cy="23.184" rx="0.471" ry="1.04"/>
		
			<ellipse transform="matrix(0.9027 -0.4302 0.4302 0.9027 -7.7677 12.0107)" class="st25" cx="22.676" cy="23.183" rx="1.04" ry="0.471"/>
		
			<radialGradient id="SVGID_00000139293895686990256250000010152685785506808194_" cx="9.9849" cy="23.9512" r="1.209" gradientTransform="matrix(1 0 0 -1 0 34)" gradientUnits="userSpaceOnUse">
			<stop  offset="4.792333e-09" style="stop-color:#A3877F"/>
			<stop  offset="0.1612" style="stop-color:#927369"/>
			<stop  offset="0.3613" style="stop-color:#805F53"/>
			<stop  offset="0.5077" style="stop-color:#755044"/>
			<stop  offset="0.7067" style="stop-color:#704A3F"/>
			<stop  offset="1" style="stop-color:#2F160D"/>
		</radialGradient>
		<path style="fill:url(#SVGID_00000139293895686990256250000010152685785506808194_);" d="M10.736,10.01
			c0.169,0.374-0.073,0.85-0.539,1.061c-0.467,0.21-0.982,0.077-1.151-0.297s0.073-0.85,0.539-1.061
			C10.049,9.5,10.564,9.633,10.736,10.01z"/>
		
			<radialGradient id="SVGID_00000028289704854215157140000000788007880171555720_" cx="-2239.3284" cy="23.9512" r="1.209" gradientTransform="matrix(-1 0 0 -1 -2217.4658 34)" gradientUnits="userSpaceOnUse">
			<stop  offset="4.792333e-09" style="stop-color:#A3877F"/>
			<stop  offset="0.1612" style="stop-color:#927369"/>
			<stop  offset="0.3613" style="stop-color:#805F53"/>
			<stop  offset="0.5077" style="stop-color:#755044"/>
			<stop  offset="0.7067" style="stop-color:#704A3F"/>
			<stop  offset="1" style="stop-color:#2F160D"/>
		</radialGradient>
		<path style="fill:url(#SVGID_00000028289704854215157140000000788007880171555720_);" d="M21.112,10.01
			c-0.169,0.374,0.073,0.85,0.539,1.061c0.467,0.21,0.982,0.077,1.151-0.297c0.169-0.374-0.073-0.85-0.539-1.061
			C21.797,9.5,21.282,9.633,21.112,10.01z"/>
		
			<radialGradient id="SVGID_00000031203804209479790770000011545208397222352560_" cx="15.8367" cy="24.2299" r="1.8845" gradientTransform="matrix(1 0 0 -1 0 34)" gradientUnits="userSpaceOnUse">
			<stop  offset="4.792333e-09" style="stop-color:#A3877F"/>
			<stop  offset="0.1612" style="stop-color:#927369"/>
			<stop  offset="0.3613" style="stop-color:#805F53"/>
			<stop  offset="0.5077" style="stop-color:#755044"/>
			<stop  offset="0.7067" style="stop-color:#704A3F"/>
			<stop  offset="1" style="stop-color:#2F160D"/>
		</radialGradient>
		<path style="fill:url(#SVGID_00000031203804209479790770000011545208397222352560_);" d="M17.395,9.693
			c-0.141-0.116-0.31-0.193-0.49-0.227L16.89,9.464c-0.321-0.062-0.646-0.092-0.969-0.092c-0.323,0-0.651,0.03-0.969,0.092
			l-0.015,0.002c-0.18,0.034-0.349,0.111-0.49,0.227c-0.368,0.302-0.428,0.755,0.032,1.014l1.123,0.629
			c0.098,0.056,0.208,0.083,0.317,0.083c0.109,0,0.218-0.028,0.317-0.083l1.123-0.629C17.823,10.449,17.763,9.995,17.395,9.693z"/>
		<circle class="st25" cx="16.18" cy="24.395" r="0.385"/>
	</g>
	<path class="st23" d="M17.787,14.872c0.058-0.058,0.092-0.135,0.092-0.223c0-0.173-0.141-0.321-0.315-0.315
		c-0.308,0.011-0.231,0.218-0.496,0.259l-2.639-0.024c0,0-0.161-0.293-0.419-0.293c-0.186,0-0.336,0.152-0.336,0.336
		c0,0.109,0.051,0.205,0.131,0.265c-0.058,0.058-0.092,0.135-0.092,0.223c0,0.173,0.214,0.289,0.387,0.291
		c0.338,0.006,0.295-0.289,0.646-0.3l2.211,0.011c0,0,0.175,0.006,0.345,0.263c0.124,0.19,0.618,0.113,0.618-0.231
		C17.915,15.03,17.866,14.934,17.787,14.872z"/>
</g>
</svg>
