<?xml version="1.0" encoding="utf-8"?>
<!-- Generator: Adobe Illustrator 22.0.1, SVG Export Plug-In . SVG Version: 6.00 Build 0)  -->
<svg version="1.1" id="Layer_1" xmlns="http://www.w3.org/2000/svg" xmlns:xlink="http://www.w3.org/1999/xlink" x="0px" y="0px"
	 viewBox="0 0 32 32" style="enable-background:new 0 0 32 32;" xml:space="preserve">
<style type="text/css">
	.st0{fill:#FFFFFF;}
</style>
<g>
	<rect x="0.265" y="0.287" class="st0" width="31.469" height="31.414"/>
	<g>
		<path d="M18.208,0.287c4.505,0,9.01,0,13.527,0c0,10.47,0,20.931,0,31.414c-4.482,0-8.958,0-13.504,0
			c0.108-0.114,0.177-0.196,0.255-0.269c1.222-1.139,2.333-2.375,3.295-3.743c1.961-2.787,3.129-5.874,3.477-9.264
			c0.43-4.178-0.216-8.162-2.186-11.899c-1.145-2.171-2.663-4.057-4.437-5.743c-0.155-0.147-0.316-0.288-0.474-0.431
			C18.176,0.331,18.192,0.309,18.208,0.287z"/>
		<path d="M0.281,3.043c0-0.931,0-1.835,0-2.775c0.137,0,0.269,0,0.402,0c2.775-0.001,5.551-0.002,8.326-0.003
			c1.591-0.001,3.181,0.004,4.772-0.006c0.559-0.003,1.042,0.159,1.487,0.498c1.694,1.289,3.253,2.713,4.537,4.422
			c1.946,2.59,3.08,5.492,3.381,8.723c0.272,2.911-0.006,5.758-0.967,8.526c-1.04,2.997-2.844,5.472-5.234,7.529
			c-0.64,0.551-1.319,1.06-2,1.561c-0.172,0.127-0.423,0.206-0.638,0.207c-4.562,0.014-9.125,0.014-13.687,0.016
			c-0.027,0-0.054,0-0.081-0.001c-0.311-0.015-0.311-0.015-0.311-0.323c0-0.657,0-1.313,0-1.97c0-0.073,0-0.146,0-0.257
			c0.151,0.009,0.283,0.007,0.412,0.026c1.037,0.155,2.069,0.367,3.112,0.462c2.901,0.265,5.653-0.262,8.131-1.833
			c2.104-1.333,3.701-3.173,4.914-5.341c0.857-1.533,1.422-3.172,1.661-4.914c0.255-1.856,0.041-3.676-0.553-5.446
			c-0.621-1.849-1.451-3.603-2.777-5.054C12.524,4.194,9.28,2.5,5.306,2.357c-1.46-0.053-2.888,0.167-4.301,0.515
			C0.77,2.93,0.534,2.983,0.281,3.043z"/>
		<path d="M0.291,21.29c0.241,0.149,0.46,0.28,0.675,0.417c1.029,0.652,2.136,1.079,3.362,1.158c3.43,0.22,6.484-2.152,7.108-5.527
			c0.526-2.849-0.43-5.163-2.742-6.818c-2.327-1.666-4.839-1.691-7.359-0.35c-0.351,0.187-0.681,0.414-1.049,0.639
			c-0.007-0.077-0.016-0.133-0.016-0.188C0.268,9.124,0.27,7.628,0.265,6.133c0-0.13,0.032-0.221,0.147-0.283
			c0.089-0.048,0.17-0.115,0.264-0.148c3.642-1.276,7.134-1.003,10.36,1.174c2.657,1.793,4.188,4.353,4.741,7.509
			c0.902,5.147-2.618,10.474-7.013,12.05c-2.444,0.876-4.881,0.94-7.35,0.169c-0.336-0.105-0.67-0.215-1.007-0.317
			c-0.098-0.03-0.142-0.074-0.141-0.184c0.004-1.57,0.003-3.14,0.004-4.711C0.27,21.373,0.277,21.354,0.291,21.29z"/>
	</g>
</g>
</svg>
