<svg id="Layer_1" data-name="Layer 1" xmlns="http://www.w3.org/2000/svg" viewBox="0 0 32 32"><defs><style>.cls-1{fill:#30bded;}.cls-2{fill:#fff;}</style></defs><title>latino</title><circle class="cls-1" cx="16" cy="16" r="16"/><path class="cls-2" d="M17.6289,11.5434a.1563.1563,0,0,0-.2234.0729.3024.3024,0,0,1-.3332.15.4216.4216,0,0,0-.0985,0c-.1874.0125-.26.073-.2944.2662-.0333.1875-.213.2654-.2988.4141-.0256.0443-.0536-.0259-.0746-.0493-.06-.0672-.0885-.152-.1844-.2a.5479.5479,0,0,0-.5332.0492.1716.1716,0,0,1-.2174-.0213.9675.9675,0,0,0-.194-.1388.3749.3749,0,0,1-.1913-.35A1.7631,1.7631,0,0,1,15,11.0522c.0386-.1159-.1547-.3058-.2986-.3084a1.5144,1.5144,0,0,1-.6064-.0972A.2751.2751,0,0,1,13.98,10.25a.3887.3887,0,0,0,.0975-.2839A.641.641,0,0,1,14.17,9.66c.07-.1476-.0053-.27-.1692-.2529-.135.0141-.268.045-.4048.0508-.0876.0038-.1015.0806-.101.1452a.8434.8434,0,0,1-.2163.5017c-.0377.052-.0871.0226-.1267.0074a.3258.3258,0,0,0-.2715.0293.5148.5148,0,0,1-.5764-.0816,1.09,1.09,0,0,1-.3354-.794c-.0017-.2392.0191-.4787.0324-.7179.0037-.0663-.0026-.1256-.0761-.1465a1.1169,1.1169,0,0,1-.603-.5545c-.0716-.11-.1484-.2165-.2263-.3219a.21.21,0,0,0-.2856-.0437.2865.2865,0,0,1-.4276-.0882.79.79,0,0,0-.5408-.4115c-.0779-.0114-.17-.0508-.2223.0559a.0453.0453,0,0,1-.037.0155,2.0461,2.0461,0,0,1-.8043-.0649,3.69,3.69,0,0,0-.801-.2443,2.3617,2.3617,0,0,1-.333-.1094c-.14-.0551-.1482-.1027-.0424-.2121A6.6078,6.6078,0,0,1,8.5,5.6616a12.6513,12.6513,0,0,1,5.2889-2.23,12.5184,12.5184,0,0,1,2.8067-.1691,12.9992,12.9992,0,0,1,1.9647.2559,12.5809,12.5809,0,0,1,4.153,1.6626,12.7181,12.7181,0,0,1,3.04,2.6505,12.94,12.94,0,0,1,1.8489,2.9554,11.9817,11.9817,0,0,1,.73,2.1072,11.8369,11.8369,0,0,1,.38,3.2607,12.6184,12.6184,0,0,1-1.1013,4.7378A12.4284,12.4284,0,0,1,24.72,24.9342a11.6717,11.6717,0,0,1-2.5246,1.8143.405.405,0,0,1-.0525.0191c-.0436-.0047-.1025.0209-.11-.0554a13.73,13.73,0,0,0,1.4263-1.0216,12.6411,12.6411,0,0,0,2.2768-2.4534,12.4724,12.4724,0,0,0,1.3914-2.61,11.7909,11.7909,0,0,0,.6275-2.3013,12.3989,12.3989,0,0,0,.1608-2.5669,14.7985,14.7985,0,0,0-.1343-1.6274,10.9376,10.9376,0,0,0-.4029-1.7374,11.75,11.75,0,0,0-1.0132-2.3111A12.0221,12.0221,0,0,0,20.15,4.7876a12.0975,12.0975,0,0,0-2.7395-.6653A11.7925,11.7925,0,0,0,14.67,4.1015a11.9654,11.9654,0,0,0-2.64.5963A11.1173,11.1173,0,0,0,9.5723,5.8942c-.1949.128-.3727.2821-.5714.4343a.484.484,0,0,0,.4148.0416,1.0593,1.0593,0,0,1,.9416.1324,1.5214,1.5214,0,0,0,.836.3469.4937.4937,0,0,1,.3845.2558c.0679.1012.1433.1973.21.2991a1.23,1.23,0,0,0,.5359.4942.55.55,0,0,1,.3189.5521c-.0048.2535-.0227.5067-.0322.76a.41.41,0,0,0,.0145.1663c.0214.0518.0122.1438.1123.1335a.1643.1643,0,0,0,.1537-.14.6678.6678,0,0,1,.5247-.5275c.1682-.0391.3445-.0417.5161-.0674a.91.91,0,0,1,.73.2644.6149.6149,0,0,1,.1442.7794c-.037.0795-.1223.1574-.0943.2407.0319.0948.1485.0376.2255.0587a.9832.9832,0,0,1,.6751,1.1193.7632.7632,0,0,0,.0019.3021.6588.6588,0,0,1,.4962-.0125c.0409.0193.0587-.0107.0784-.0379a1.0012,1.0012,0,0,1,.6673-.349.3536.3536,0,0,0,.2029-.0831.587.587,0,0,1,.7592-.1135c.2474.1445.5295.18.7821.3056a.6107.6107,0,0,0,.4677.0173.69.69,0,0,1,.6174.0832c.367.2265.72.472,1.0661.7289a1.57,1.57,0,0,0,.6253.2416,2.6982,2.6982,0,0,1,1.0327.6027.4565.4565,0,0,1,.1264.1845,2.4355,2.4355,0,0,0,.1272.2817c.1061.1719.198.3506.4293.4095a2.5608,2.5608,0,0,1,.5273.2288.6744.6744,0,0,0,.2946.0754,1.9951,1.9951,0,0,1,1.0844.3825,1.0511,1.0511,0,0,0,.3727.1872,1.03,1.03,0,0,1,.7329,1.1361,1.2955,1.2955,0,0,1-.2289.6556c-.2149.3186-.42.6438-.6329.964a.4056.4056,0,0,0-.05.215,4.0669,4.0669,0,0,1-.4508,1.684,1.119,1.119,0,0,1-.617.5842,1.5408,1.5408,0,0,1-.5565.0549.4112.4112,0,0,0-.4146.3866,1.0144,1.0144,0,0,1-.2237.68.69.69,0,0,0-.1009.152,7.3557,7.3557,0,0,1-.7775,1.1113,1.4367,1.4367,0,0,1-.5764.46.143.143,0,0,0-.101.12,1.1576,1.1576,0,0,1-.4826.7438.8646.8646,0,0,1-.6234.2786c-.0643-.0042-.1005.0315-.1138.0984a.6337.6337,0,0,1-.2171.3688.0993.0993,0,0,0-.0464.0674,1.0128,1.0128,0,0,1-.25.4683c-.1233.1895-.2118.4078-.3186.6123-.0436.0837.0512.2192.0447.34a1.5028,1.5028,0,0,1-.3686.8785,1.5808,1.5808,0,0,0-.2614.38.5032.5032,0,0,0-.01.3845,2.707,2.707,0,0,0,.1766.4118c.0727.1219.0379.1689-.1041.1643a.6969.6969,0,0,1-.6511-.7051.3648.3648,0,0,0-.1033-.3052c-.072-.0653-.0584-.1426.018-.2045a.9833.9833,0,0,0,.37-.5143.1586.1586,0,0,1,.0851-.0891.4409.4409,0,0,0,.1945-.466c-.0158-.0557-.0618-.0791-.1078-.1032a.31.31,0,0,1-.2042-.2927c.006-.1113.1975-.29.3161-.3133a.25.25,0,0,0,.2059-.3088.1475.1475,0,0,1,.0624-.2024l.0107-.0087a.1815.1815,0,0,1,.2229-.1738c.0333.0022.0258-.0429.02-.07-.0084-.0409-.0319-.0421-.072-.0392-.1588.0115-.2154-.0421-.2275-.2015-.0127-.1686.0448-.2186.2076-.18.0319.0076.0631.02.0954.0243a.2225.2225,0,0,0,.2894-.22c.0144-.1064.0451-.2106.0662-.3162.0133-.0663.0635-.0745.1164-.0787.1451-.0114.29-.0247.4355-.0317a.8633.8633,0,0,0,.5753-.4138.2086.2086,0,0,0-.0621-.266c-.0175-.0117-.0412-.0413-.0369-.0542.0615-.1857-.0919-.2845-.1683-.409a.0345.0345,0,0,1,.0522-.0142c.1549.1242.3447.0875.52.1137.1062.0159.1847-.06.27-.103a.5678.5678,0,0,0,.2388-.2141,11.1447,11.1447,0,0,0,.668-.93,1.6707,1.6707,0,0,1,.2043-.3192.3837.3837,0,0,0,.0946-.3409.5465.5465,0,0,1,.1992-.5888,1.375,1.375,0,0,1,.7016-.4192.3841.3841,0,0,1,.1238.0062.5413.5413,0,0,0,.69-.376,3.9267,3.9267,0,0,0,.3494-1.4682,2.4227,2.4227,0,0,1,.0293-.2941c.0139-.0935.0071-.2057.1573-.1978.04.0022.0522-.05.0719-.0807.179-.2748.3554-.5514.5342-.8264a.6335.6335,0,0,0,.0471-.6308c-.021-.049-.0474-.1028-.0982-.1139a3.4046,3.4046,0,0,1-.9226-.4658,1.4318,1.4318,0,0,0-.67-.1338.6934.6934,0,0,1-.3442-.1076,4.2906,4.2906,0,0,0-.5479-.2546.2109.2109,0,0,0-.1984.04c-.0383.0221-.09.0536-.0941-.0333-.0063-.1357-.09-.1672-.2086-.1628a.46.46,0,0,1-.2445-.0338c.2242-.1435.12-.2746.0431-.4593a1.3646,1.3646,0,0,0-1.0047-.8064,2.6393,2.6393,0,0,1-1.004-.5063,6.4111,6.4111,0,0,0-.7346-.4936c-.0419-.0252-.0831-.056-.13-.0348a1.4505,1.4505,0,0,1-.7894.0141.338.338,0,0,1-.255-.1064.3369.3369,0,0,0-.3567-.0623c-.0437.0159-.0893.0264-.1339.0394-.0237-.0522-.0806-.0934-.0327-.1661C17.7047,11.5707,17.669,11.5418,17.6289,11.5434Z"/><path class="cls-2" d="M5.1722,10.1074c-.1548.3253-.2937.6574-.4269.992a11.5838,11.5838,0,0,0-.534,1.73,12.7278,12.7278,0,0,0-.3053,3.0744,11.4558,11.4558,0,0,0,.2267,2.0253,16.3177,16.3177,0,0,0,.4733,1.866,11.6963,11.6963,0,0,0,1.8719,3.5172,12.0107,12.0107,0,0,0,5.9,4.12,11.6048,11.6048,0,0,0,3.28.5355,5.8818,5.8818,0,0,0,.5909,0c.0813-.0068.1222-.03.0689-.109a1.1276,1.1276,0,0,1-.1439-.717,2.83,2.83,0,0,0-.05-.7418.8831.8831,0,0,1,.029-.4873.3265.3265,0,0,0,.023-.1378,2.0006,2.0006,0,0,1,.16-.9062,2.2349,2.2349,0,0,0,.0238-.53c.0608-.4653.0912-.9346.1561-1.3993a1.7245,1.7245,0,0,1,.1713-.4891,3.1889,3.1889,0,0,0,.2155-.9976,4.701,4.701,0,0,0,.0261-.6755.8647.8647,0,0,1,.0824-.41.8026.8026,0,0,0,.077-.3116,10.2327,10.2327,0,0,0,.1-1.22.4441.4441,0,0,0-.2618-.4322c-.2169-.1071-.4088-.2636-.62-.3833-.2444-.1383-.304-.3891-.4168-.6137-.2142-.4263-.4462-.8435-.6693-1.2653-.027-.0511-.0753-.0665-.12-.0916a.6029.6029,0,0,1-.3358-.5749,2.1019,2.1019,0,0,1,.0969-.6509.1851.1851,0,0,0,.014-.0956.8761.8761,0,0,1,.2151-.7149c.1528-.2128.2772-.4454.4467-.647.0579-.0688.0275-.0976-.047-.1249a5.9988,5.9988,0,0,1-1.3542-.6726.6694.6694,0,0,1-.3167-.4438c-.0144-.0863-.0676-.1092-.139-.1313a3.635,3.635,0,0,1-1.0994-.4535.7355.7355,0,0,0-.5826-.1694.7763.7763,0,0,1-.4-.1182,9.0271,9.0271,0,0,1-1.406-.6718,1.1341,1.1341,0,0,1-.5642-.7831c-.0115-.0629-.0372-.06-.0868-.0442A.6873.6873,0,0,1,8.7553,9.53c-.1142-.13-.2589-.2341-.3677-.3679a3.836,3.836,0,0,0-.573-.662.7665.7665,0,0,1-.1963-.4566.7923.7923,0,0,0-.1832-.3267.7688.7688,0,0,1-.175-.5616c.0046-.0853.0343-.1415.1282-.08.2782.1818.587.3136.852.5162.1776.1359.1807.1743.06.3635-.06.0941-.0069.1529.0657.1961.08.0477.1677.0839.2523.1244a.2387.2387,0,0,1,.1574.256.2316.2316,0,0,0,.0872.2088c.13.1207.2516.2511.3771.377.0256.0258.0491.0608.0931.0239A.0767.0767,0,0,0,9.3492,9.02c-.2087-.2665-.3532-.5731-.5336-.8574a7.3828,7.3828,0,0,0-.5042-.7249.4991.4991,0,0,1-.069-.35c0-.0236.0065-.0448.037-.05a.474.474,0,0,1,.2924.16,1.4909,1.4909,0,0,0,.3949.5721,11.5409,11.5409,0,0,1,1.1,1.2939.8836.8836,0,0,1,.1722.4849.5675.5675,0,0,0,.3285.5157,8.2749,8.2749,0,0,0,.9586.4668,2.2525,2.2525,0,0,1,.2181.097.7176.7176,0,0,0,.5815.0671.402.402,0,0,1,.4552.1706,1.1086,1.1086,0,0,0,.5256.3279c.2843.1071.5761.1944.8657.2873.27.0866.3409.1916.3015.4732-.01.0681.0289.09.0718.12a5.6528,5.6528,0,0,0,1.037.5271c.0684.03.1033.0149.1091-.0678.0036-.0506-.0224-.1231.05-.147a.6617.6617,0,0,1,.2738-.0563.0606.0606,0,0,1,.04.032c.0925.2158.2606.4051.2254.6658-.0182.1347-.0222.2714-.0361.4068a.26.26,0,0,1-.0671.1491,8.9162,8.9162,0,0,0-.5866.8227.1794.1794,0,0,0,.0372.2832c.1549.1317.1586.1519-.0089.254a.5036.5036,0,0,0-.2123.4674c-.005.0764.042.1021.0967.116a.3388.3388,0,0,1,.22.1985c.2226.4223.452.8411.679,1.2612a.2.2,0,0,1,.0264.05,1.0525,1.0525,0,0,0,.6143.6963c.2037.1147.397.2476.597.3691a.2063.2063,0,0,1,.111.18,2.4581,2.4581,0,0,0,.0551.39,3.4892,3.4892,0,0,1-.042,1.0619c-.0108.15-.0318.2985-.0474.4479a.8891.8891,0,0,1-.0862.3515.5715.5715,0,0,0-.06.3134,7.4724,7.4724,0,0,1-.12,1.33,1.9182,1.9182,0,0,1-.2.5668,2.4855,2.4855,0,0,0-.1705.8344c-.0332.3033-.06.6073-.0887.9111a.74.74,0,0,0,.0063.0935l.22-.2941.0246.0066-.1235.7239c-.0594.001-.0565-.1-.1173-.0762-.0532.0207-.0529.086-.069.1327-.04.1148-.0675.2336-.1057.349-.0333.1008-.0509.1893.0723.2452.0538.0244.0512.0675.015.1151a.84.84,0,0,0-.0952.8269,1.0894,1.0894,0,0,1-.004.4757.966.966,0,0,0,.33.8685c.18.1685.2449.4185.4395.603a9.4131,9.4131,0,0,1-1.1994.1762,11.0285,11.0285,0,0,1-2.5387-.1505,12.4169,12.4169,0,0,1-3.5694-1.1559,12.8077,12.8077,0,0,1-6.123-6.5856A10.9144,10.9144,0,0,1,3.443,18.48,12.2522,12.2522,0,0,1,3.3,15.7854a13.2905,13.2905,0,0,1,.2444-1.9248A11.433,11.433,0,0,1,4.11,11.9489a11.8746,11.8746,0,0,1,.958-1.9353.4134.4134,0,0,1,.045-.0518C5.2062,9.98,5.1549,10.0579,5.1722,10.1074Z"/><path class="cls-2" d="M17.0815,9.61c.027-.07.1161-.0743.1592-.156a2.6117,2.6117,0,0,1-.5869-.2242c-.2262-.1114-.4527-.2227-.6829-.3253a.6332.6332,0,0,0-.6756.0254.7911.7911,0,0,1-.11.0617c-.0558.0281-.092-.0113-.12-.0467-.0386-.05.0238-.07.0454-.082a1.2862,1.2862,0,0,1,.585-.2029,2.5862,2.5862,0,0,1,1.0941.2537c.3662.1442.697.3617,1.07.4895.089.03.21.0948.2.183-.0066.0579-.1539.0872-.2476.0874-.2018,0-.4037-.0065-.6054-.0138A.1408.1408,0,0,1,17.0815,9.61Z"/><path class="cls-2" d="M18.6089,9.6863a.8963.8963,0,0,1,.6825.1761c.0934.07.2156.0564.3211.0934.0513.018.1468-.0113.13.083a.1524.1524,0,0,1-.1768.1411,1.9528,1.9528,0,0,0-.4351-.0067.3149.3149,0,0,0-.1883.08c-.07.0656-.1407.1042-.1932-.02-.0241-.0572-.0779-.0455-.1222-.0447-.1781.0033-.3561.012-.5341.0145-.0422.0006-.1111.017-.1137-.0458s.0627-.0745.115-.0773c.1076-.0058.2157-.0046.3232-.0113.0754-.0046.1-.04.0532-.1094-.0446-.0659-.0856-.1342-.1287-.201-.03-.0469-.0139-.0705.0375-.0716C18.4687,9.685,18.5578,9.6863,18.6089,9.6863Z"/><path class="cls-2" d="M22.0329,26.7122c.0075.0763.0664.0507.11.0554a2.2465,2.2465,0,0,1-.49.2575,11.5931,11.5931,0,0,1-1.0859.4679,1.0508,1.0508,0,0,1,.332-.1777C21.2853,27.13,21.6528,26.9092,22.0329,26.7122Z"/><path class="cls-2" d="M5.1722,10.1074c-.0173-.05.034-.127-.0593-.1456a5.2558,5.2558,0,0,1,.5242-.8135c.0641-.09.1395-.1717.21-.2571L5.8453,8.89a1.4832,1.4832,0,0,1-.24.4359c-.1337.2092-.2406.4316-.3537.6512C5.2285,10.0219,5.1989,10.0639,5.1722,10.1074Z"/><path class="cls-2" d="M17.6289,11.5434c.04-.0016.0758.0273.0569.0559-.0479.0727.009.1139.0327.1661a.1281.1281,0,0,0-.0924.1729.5668.5668,0,0,1,.0092.1536c-.0024.0583.0072.14-.0849.1282a.1217.1217,0,0,1-.1013-.1672,3.9783,3.9783,0,0,1,.1414-.3788C17.6078,11.6313,17.6416,11.5947,17.6289,11.5434Z"/><path class="cls-2" d="M16.8575,10.1094a.9688.9688,0,0,1,.56.0785C17.3131,10.356,17.0735,10.2857,16.8575,10.1094Z"/><path class="cls-2" d="M20.215,10.0846c.0664.0214.1889-.032.1958.0729.0067.1023-.1207.0442-.1811.0775a.1256.1256,0,0,1-.0828.0087c-.0462-.0111-.1273.0713-.1326-.024a.12.12,0,0,1,.14-.1355A.4286.4286,0,0,0,20.215,10.0846Z"/><path class="cls-2" d="M5.8469,8.8912,5.87,8.8587c.0152.0286-.0165.02-.0243.0308Z"/></svg>