<?xml version="1.0" encoding="utf-8"?>
<!-- Generator: Adobe Illustrator 26.2.1, SVG Export Plug-In . SVG Version: 6.00 Build 0)  -->
<svg version="1.1" id="Layer_1" xmlns="http://www.w3.org/2000/svg" xmlns:xlink="http://www.w3.org/1999/xlink" x="0px" y="0px"
	 viewBox="0 0 32 32" style="enable-background:new 0 0 32 32;" xml:space="preserve">
<style type="text/css">
	.st0{fill:#373535;}
	.st1{fill:#AC822F;}
	.st2{fill:#262626;}
	.st3{fill:#B58A32;}
	.st4{fill:#BB9034;}
	.st5{fill:#AB802E;}
</style>
<g>
	<g>
		<circle class="st0" cx="16.306" cy="16.083" r="15.472"/>
		<path class="st1" d="M15.657,0.259c-8.473,0-15.343,6.869-15.343,15.343s6.869,15.343,15.343,15.343S31,24.075,31,15.602
			S24.131,0.259,15.657,0.259z M15.626,29.627c-7.763,0-14.056-6.293-14.056-14.056S7.864,1.515,15.626,1.515
			s14.056,6.293,14.056,14.056S23.389,29.627,15.626,29.627z"/>
	</g>
	<path class="st2" d="M13.708,23.732c-0.903,0.706-1.918,1.216-2.948,1.702c-0.322,0.014-0.599,0.242-0.932,0.211
		C9.8,25.52,9.898,25.51,9.956,25.475c1.024-0.618,1.953-1.362,2.86-2.136c0.113-0.097,0.243-0.188,0.295-0.341
		c-0.013-0.029-0.013-0.059-0.001-0.089c0.445-0.461,0.971-0.834,1.416-1.295c0.173-0.179,0.369-0.336,0.519-0.538
		c0.679-0.664,1.272-1.402,1.85-2.154c0.182-0.132,0.287,0.006,0.367,0.128c0.129,0.198,0.276,0.386,0.366,0.607
		c0.041,0.164-0.021,0.295-0.122,0.421c-1.03,1.289-2.141,2.498-3.455,3.507C13.952,23.662,13.86,23.773,13.708,23.732z"/>
	<path class="st2" d="M20.192,19.998c0.262,0.393,0.524,0.786,0.786,1.179c0.019,0.134,0.239,0.241,0.132,0.358
		c-0.091,0.099-0.29,0.045-0.438,0.023c-0.116-0.017-0.228-0.066-0.35-0.053c-0.623,0.257-1.367-0.045-1.53-0.62
		c0.116-0.179,0.29-0.117,0.443-0.093c0.311,0.049,0.627,0.034,1.004,0.12c-0.37-0.561-0.689-1.074-1.028-1.575
		c-0.367-0.542-0.712-1.097-1.087-1.633c-0.159-0.228-0.164-0.437-0.011-0.663c0.25-0.371,0.456-0.768,0.663-1.164
		c0.698-1.374,1.295-2.787,1.683-4.283c0.381-1.469,0.551-2.954,0.361-4.468c-0.035-0.283-0.125-0.553-0.185-0.829
		c-0.027-0.125-0.085-0.252-0.004-0.379c0.192-0.143,0.011-0.298,0.006-0.445c-0.005-0.135-0.065-0.269-0.076-0.42
		c0.302,0.251,0.506,0.578,0.665,0.928c0.154,0.34,0.272,0.697,0.406,1.046c0.262,0.428,0.257,0.915,0.28,1.387
		c0.117,2.389-0.532,4.614-1.48,6.773c-0.369,0.839-0.767,1.664-1.259,2.439c-0.158,0.249-0.171,0.458,0.011,0.715
		c0.309,0.435,0.601,0.883,0.89,1.332C20.137,19.772,20.232,19.861,20.192,19.998z"/>
	<path class="st3" d="M18.183,17.659c-0.137-0.201-0.139-0.356-0.01-0.553c0.245-0.373,0.474-0.756,0.649-1.168c0,0,0,0,0,0
		c0.588-1.035,1.047-2.128,1.41-3.258c0.711-2.217,1.103-4.459,0.4-6.762c-0.076-0.09-0.121-0.193-0.121-0.313
		c-0.233-0.428-0.449-0.868-0.851-1.282c0.167,0.635,0.281,1.195,0.278,1.773c0.075,0.107,0.047,0.23,0.052,0.346
		c0.046,1.015-0.124,2.01-0.269,3.008c-0.102,0.094-0.125,0.22-0.153,0.347c-0.1,0.451-0.198,0.903-0.347,1.342
		c-0.063,0.299-0.171,0.584-0.267,0.873c-0.075,0.307-0.202,0.596-0.304,0.893c-0.077,0.226-0.224,0.43-0.222,0.679
		c-0.103,0.038-0.112,0.159-0.152,0.244c-0.304,0.639-0.577,1.293-0.95,1.897c-0.158,0.407-0.479,0.731-0.605,1.153
		c-0.176,0.074-0.197,0.283-0.311,0.411c-0.254,0.414-0.531,0.814-0.809,1.212c-0.24,0.343-0.524,0.657-0.695,1.045
		c-0.005,0.023-0.01,0.047-0.015,0.07c0,0,0,0,0,0c-0.056,0.065-0.112,0.129-0.168,0.195c-0.571,0.681-1.125,1.378-1.796,1.967
		c-0.023,0.04-0.046,0.08-0.07,0.121c0,0,0,0,0,0c-0.318,0.14-0.508,0.425-0.748,0.654c-0.277,0.265-0.554,0.531-0.888,0.725
		c-0.226,0.264-0.507,0.467-0.778,0.68c-0.581,0.457-1.225,0.819-1.845,1.217c1.021-0.178,1.938-0.621,2.842-1.105
		c0.587-0.314,1.102-0.735,1.672-1.073c0-0.018-0.002-0.037-0.004-0.055c0,0,0,0,0,0c0.719-0.548,1.399-1.139,1.991-1.825
		c0,0,0,0,0,0c0.689-0.654,1.288-1.384,1.83-2.162c0,0,0,0,0,0c0.113-0.104,0.168-0.017,0.223,0.067
		c0.141,0.217,0.281,0.434,0.421,0.652c0.079,0.114,0.161,0.226,0.237,0.342c0.251,0.383,0.418,0.867,1.01,0.839
		c0.506,0.041,1.013,0.083,1.517,0.124c0.022-0.109-0.044-0.16-0.085-0.221C19.563,19.724,18.881,18.686,18.183,17.659z"/>
	<path class="st2" d="M19.019,12.007c-0.29,0.184-0.469,0.502-0.808,0.635c-0.406,0.158-0.809,0.208-1.23,0.091
		c-0.384,0.075-0.859-0.247-0.909-0.615c0.1-0.07,0.207-0.038,0.315-0.025c0.829,0.099,1.657-0.427,1.89-1.225
		c0.108-0.37,0.098-0.751-0.039-1.121c-0.043-0.117-0.142-0.226-0.076-0.367c0.397,0.016,0.616,0.29,0.807,0.582
		c0.238,0.363,0.352,0.766,0.315,1.205C19.256,11.466,19.143,11.738,19.019,12.007z"/>
	<path class="st2" d="M16.331,14.167c0.353,0.529,0.706,1.058,1.06,1.587c-0.15,0.396-0.415,0.729-0.603,1.105
		c-0.11,0.151-0.22,0.303-0.33,0.454c-0.245-0.166-0.315-0.473-0.53-0.663c-0.077-0.136,0.03-0.225,0.088-0.322
		c0.146-0.242,0.29-0.485,0.433-0.729c0.101-0.173,0.095-0.319-0.017-0.482c-0.453-0.664-0.879-1.347-1.362-1.991
		c-0.118-0.157-0.231-0.316-0.319-0.492c-0.114-0.235-0.28-0.437-0.414-0.659c-0.058-0.096-0.167-0.182-0.099-0.319
		c0.251-0.11,0.458-0.073,0.617,0.169c0.45,0.688,0.924,1.36,1.374,2.048C16.286,13.961,16.368,14.045,16.331,14.167z"/>
	<path class="st4" d="M16.065,12.127c-0.715-0.302-1.169-0.811-1.268-1.601c-0.064-0.506,0.133-0.933,0.406-1.336
		c0.739-0.841,2.106-0.98,2.96,0.19c0.561,0.982,0.208,1.921-0.408,2.407C17.252,12.182,16.683,12.284,16.065,12.127z"/>
	<path class="st5" d="M16.537,15.12c-0.581-0.836-1.154-1.679-1.73-2.519c-0.137-0.339-0.403-0.599-0.571-0.92
		c-0.21-0.345-0.426-0.666-0.91-0.647c-0.257,0.01-0.518-0.073-0.776-0.066c-0.277,0.007-0.546-0.13-0.842-0.046
		c0.021,0.055,0.029,0.098,0.052,0.132c0.466,0.692,0.93,1.386,1.403,2.074c0.51,0.741,0.966,1.518,1.522,2.227c0,0,0,0,0,0
		c0.138,0.235,0.276,0.471,0.414,0.706c0.202,0.276,0.404,0.551,0.605,0.825c0.125-0.041,0.143-0.168,0.223-0.237
		c0.207-0.356,0.399-0.722,0.627-1.065C16.674,15.405,16.65,15.282,16.537,15.12z"/>
</g>
</svg>
