<?xml version="1.0" encoding="utf-8"?>
<!-- Generator: Adobe Illustrator 28.0.0, SVG Export Plug-In . SVG Version: 6.00 Build 0)  -->
<svg version="1.1" id="Layer_1" xmlns="http://www.w3.org/2000/svg" xmlns:xlink="http://www.w3.org/1999/xlink" x="0px" y="0px"
	 viewBox="0 0 32 32" style="enable-background:new 0 0 32 32;" xml:space="preserve">
<style type="text/css">
	.st0{fill:#11021E;}
	.st1{fill:#FFFFFF;}
</style>
<g>
	<circle class="st0" cx="16.052" cy="16" r="15.833"/>
	<g>
		<path class="st1" d="M11.034,14.383h0.01l0.151,0.057l0.161,0.056l0.151,0.057l0.161,0.066l0.151,0.057l0.161,0.047l0.152,0.057
			l0.151,0.066l0.304,0.114l0.161,0.048l0.151,0.066l0.161,0.057l0.152,0.056l0.161,0.057l0.151,0.056l0.161,0.057l0.151,0.056
			l0.161,0.057l0.152,0.066l0.161,0.048v-2.211h-3.501l-0.151,0.076l-0.36,0.19l-0.37,0.189l-0.36,0.19l-0.361,0.19l-0.37,0.19
			l-0.369,0.189l-0.361,0.19l-0.36,0.19l-0.37,0.189l-0.36,0.19l-0.332,0.18l-0.038,5.437l0.37,0.256l0.36,0.256l0.37,0.246
			l0.721,0.513l0.369,0.255l0.161,0.124l0.209-0.256l0.361-0.475l0.028-0.047l-0.028-0.029l-0.361-0.256l-0.37-0.265l-0.369-0.256
			l-0.361-0.256l-0.36-0.255l-0.104-0.067l0.028-4.392l0.076-0.038l0.36-0.18l0.361-0.19l0.369-0.171l0.37-0.189l0.361-0.181
			l0.36-0.18l0.37-0.18l0.36-0.18L11.034,14.383z"/>
		<path class="st1" d="M17.314,24.761L17,24.884l-0.341,0.133l-0.341,0.142l-0.341,0.133l-0.151,0.066l-0.18-0.094l-0.342-0.171
			l-0.332-0.171l-0.341-0.17l-0.341-0.171l-0.341-0.17l-0.341-0.171l-0.342-0.18l-0.341-0.161l-0.332-0.18l-0.341-0.171l-0.333-0.16
			l-0.341-0.181l-0.038-0.019v-4.429H10.55v5.037l1.366,0.683l0.333,0.17l0.341,0.181l0.332,0.161l0.341,0.18l0.342,0.17
			l0.341,0.161l0.341,0.18l0.683,0.341l0.332,0.171l0.475,0.237l0.199-0.086l0.341-0.133l0.341-0.133L17,25.937l0.341-0.142
			l0.342-0.123l-0.342-0.854L17.314,24.761z M23.375,18.586l0.02,2.096L23.3,20.749l-0.579,0.408l-0.569,0.418l-0.579,0.408
			L20.994,22.4l-0.588,0.398l-0.569,0.418l-0.579,0.418l-0.341,0.246l-0.237-0.19l-0.569-0.435l-0.579-0.446l-0.579-0.436
			l-0.569-0.445l-0.104-0.067v-2.256l0.104-0.095l0.569-0.608l0.579-0.598l0.579-0.607l0.569-0.598l0.56-0.588h-6.896l0.578,0.607
			l0.57,0.598l0.588,0.598l0.579,0.607l0.569,0.598l0.075,0.086v2.731l0.504,0.389l0.578,0.436l0.569,0.446l0.579,0.435l0.579,0.446
			l0.569,0.436l0.218,0.171l0.361-0.265l0.579-0.409l0.569-0.417l0.588-0.409l0.579-0.408l0.579-0.408l0.569-0.418l0.579-0.408
			l0.578-0.408l0.475-0.351l0.094-2.571l-0.569-0.019L23.375,18.586z M7.59,13.738h0.066l0.01-2.789l0.379-0.237l0.455-0.274
			l0.465-0.275l0.445-0.295l0.465-0.275l0.455-0.284l0.455-0.275l0.455-0.275l0.455-0.285l0.465-0.275l0.01-0.01l0.436,0.257
			l0.465,0.255l0.91,0.531l0.455,0.256l0.465,0.256l0.445,0.265l0.446,0.247l0.02-0.039l0.455-0.815l-0.455-0.266L15.35,8.881
			l-0.446-0.255l-0.465-0.257l-0.455-0.274l-0.455-0.256l-0.455-0.256l-0.465-0.256l-0.445-0.256l-0.02-0.01l-0.445,0.267
			L11.243,7.61l-0.455,0.275l-0.455,0.284L9.877,8.445L9.412,8.72L8.966,9.005L8.501,9.28L8.045,9.565L7.59,9.849l-0.455,0.275
			L6.69,10.399l-0.02,3.33h0.465L7.59,13.738z"/>
		<path class="st1" d="M25.423,11.177l-0.228-0.18l-0.245-0.199l-0.237-0.19l-0.237-0.19l-0.237-0.198L24,10.039l-0.245-0.19
			L23.517,9.65L23.27,9.46L23.1,9.317l-0.066,0.076l-0.237,0.294L22.55,9.991l-0.056,0.085l0.056,0.066l0.247,0.2l0.238,0.189
			l0.237,0.209l0.246,0.2l0.238,0.198l0.246,0.21l0.237,0.199l0.114,0.095l0.01,4.487l-0.124,0.076l-0.237,0.161l-0.247,0.142
			l-0.237,0.161l-0.247,0.142l-0.237,0.161l-0.237,0.142l-0.246,0.161l-0.238,0.142l-0.237,0.161l-0.237,0.142l-0.237,0.161
			l-0.246,0.142l-0.237,0.161l-0.237,0.142l-0.237,0.161l-0.246,0.142l0.247,0.379l0.237,0.389l0.047,0.066l0.19-0.123l0.237-0.152
			l0.246-0.142l0.237-0.152l0.237-0.151l0.237-0.151l0.237-0.142l0.245-0.152l0.237-0.142l0.237-0.152l0.246-0.151l0.238-0.152
			l0.246-0.142l0.237-0.152l0.237-0.142l0.237-0.152l0.237-0.151l0.246-0.152l0.237-0.142L25.423,11.177z M17.608,13.853v1.945
			l0.076-0.03l0.313-0.132l0.323-0.124l0.313-0.133l0.323-0.124l0.323-0.133l0.313-0.133l0.323-0.124l0.323-0.133l0.314-0.124
			l0.322-0.133l0.314-0.123V8.473l-0.36-0.218l-0.37-0.209l-0.361-0.218L19.723,7.61l-0.37-0.209l-0.37-0.218l-0.36-0.219
			l-0.361-0.208l-0.37-0.219l-0.369-0.218l-0.37-0.21l-0.361-0.218l-0.36-0.218l-0.37-0.21l-0.189-0.104l-0.18,0.085l-0.37,0.209
			l-0.361,0.19L14.6,6.045l-0.37,0.209l-0.37,0.19l-0.369,0.199L13.86,6.86l0.37,0.209l0.228,0.134L14.6,7.136l0.36-0.2l0.361-0.189
			l0.37-0.19l0.151-0.076l0.218,0.124l0.37,0.218l0.721,0.418l0.739,0.436l0.37,0.208l0.721,0.437l0.37,0.208l0.739,0.437
			l0.114,0.056v4.335h-2.59"/>
		<path class="st1" d="M17.608,15.797l3.576-1.442l-3.586-0.997 M14.316,15.797v-2.401l-3.274,0.978l3.274,1.413"/>
	</g>
</g>
</svg>
