<?xml version="1.0" encoding="utf-8"?>
<!-- Generator: Adobe Illustrator 26.0.1, SVG Export Plug-In . SVG Version: 6.00 Build 0)  -->
<svg version="1.1" id="Layer_1" xmlns="http://www.w3.org/2000/svg" xmlns:xlink="http://www.w3.org/1999/xlink" x="0px" y="0px"
	 viewBox="0 0 32 32" style="enable-background:new 0 0 32 32;" xml:space="preserve">
<style type="text/css">
	.st0{fill-rule:evenodd;clip-rule:evenodd;fill:#10164C;}
	.st1{fill:none;}
	.st2{fill:#7497E9;}
	.st3{fill:#7FD1DC;}
	.st4{fill:#4558D5;}
</style>
<g>
	<circle class="st0" cx="16" cy="16" r="16"/>
	<g>
		<g>
			<path class="st1" d="M12.296,16.927v-3.337h-1.993v7.635h7.635v-1.971h-3.314C13.341,19.255,12.296,18.211,12.296,16.927z"/>
			<polygon class="st1" points="10.293,9.095 10.293,10.784 12.296,10.784 12.296,9.083 			"/>
			<rect x="15.102" y="13.591" class="st1" width="2.836" height="2.858"/>
			<rect x="20.744" y="19.255" class="st1" width="1.8" height="2.012"/>
			<path class="st2" d="M17.938,13.591v2.858h2.806v-3.25c0-1.331-1.083-2.414-2.414-2.414h-3.227v2.806H17.938z"/>
			<path class="st2" d="M12.112,22.67c0-0.775,0.628-1.403,1.403-1.403h7.229v-2.012h-2.806v1.971h-7.635V13.59h1.993v-2.806h-2.003
				v7.643c0,0.775-0.628,1.403-1.403,1.403c-0.721,0-1.315-0.545-1.394-1.245v3.033c0,1.331,1.083,2.414,2.414,2.414h3.272
				C12.569,23.883,12.112,23.331,12.112,22.67z"/>
			<path class="st3" d="M15.102,16.448v-2.858h-2.806v3.337c0,1.283,1.044,2.328,2.328,2.328h3.314v-2.806H15.102z"/>
			<path class="st3" d="M23.246,16.448h-2.502v2.806h1.8v2.012h-1.8v0.351c0,1.331-1.083,2.414-2.414,2.414h-5.148
				c0.107,0.026,0.218,0.041,0.333,0.041h9.731c1.161,0,2.105-0.944,2.105-2.105v-3.415C25.351,17.393,24.407,16.448,23.246,16.448z
				"/>
			<path class="st3" d="M9.911,10.784h0.383v-1.69l2.003-0.011v1.701h2.806V8.249c0-0.533-0.22-1.051-0.602-1.421
				c-0.377-0.365-0.894-0.566-1.415-0.556L9.437,6.294L9.399,6.294C8.327,6.329,7.487,7.198,7.487,8.271v10.157
				c0,0.053,0.004,0.106,0.009,0.158v-5.387C7.496,11.867,8.579,10.784,9.911,10.784z"/>
			<rect x="12.296" y="10.784" class="st4" width="2.806" height="2.806"/>
			<path class="st4" d="M20.744,21.618v-0.351h-7.229c-0.775,0-1.403,0.628-1.403,1.403c0,0.66,0.456,1.212,1.07,1.362h5.147
				C19.661,24.032,20.744,22.949,20.744,21.618z"/>
			<rect x="17.938" y="16.448" class="st4" width="2.806" height="2.806"/>
			<path class="st4" d="M8.89,19.83c0.775,0,1.403-0.628,1.403-1.403v-7.643H9.911c-1.331,0-2.414,1.083-2.414,2.414v5.386
				C7.575,19.285,8.169,19.83,8.89,19.83z"/>
		</g>
	</g>
</g>
</svg>
