<?xml version="1.0" encoding="utf-8"?>
<!-- Generator: Adobe Illustrator 26.2.1, SVG Export Plug-In . SVG Version: 6.00 Build 0)  -->
<svg version="1.1" id="Layer_1" xmlns="http://www.w3.org/2000/svg" xmlns:xlink="http://www.w3.org/1999/xlink" x="0px" y="0px"
	 viewBox="0 0 32 32" style="enable-background:new 0 0 32 32;" xml:space="preserve">
<style type="text/css">
	.st0{fill:#0C104B;}
	.st1{fill:#FFFFFF;}
</style>
<g>
	<circle class="st0" cx="15.986" cy="16.014" r="15.764"/>
	<path class="st1" d="M8.607,14.319c0.098,0.091,0.186,0.167,0.268,0.249c2.265,2.237,4.534,4.469,6.786,6.719
		c0.269,0.269,0.398,0.233,0.644-0.012c2.039-2.031,4.091-4.048,6.14-6.069c0.235-0.232,0.475-0.458,0.701-0.699
		c0.134-0.143,0.23-0.17,0.382-0.012c0.452,0.47,0.916,0.93,1.383,1.385c0.12,0.117,0.129,0.185,0,0.31
		c-1.411,1.373-2.817,2.75-4.221,4.131c-0.557,0.548-1.103,1.109-1.658,1.66c-0.942,0.935-1.892,1.861-2.825,2.804
		c-0.189,0.191-0.288,0.176-0.468-0.006c-0.795-0.807-1.603-1.6-2.41-2.395c-2.028-2-4.058-3.999-6.087-5.999
		c-0.367-0.361-0.367-0.361,0.013-0.737c0.379-0.375,0.758-0.75,1.137-1.124C8.457,14.459,8.524,14.398,8.607,14.319z"/>
	<path class="st1" d="M20.444,11.416c0.163,0.341,0.493,0.489,0.719,0.742c0.301,0.336,0.626,0.649,0.941,0.972
		c-0.269,0.382-0.634,0.672-0.959,1c-0.718,0.725-1.425,1.463-2.179,2.15c-0.954,0.87-1.807,1.839-2.736,2.734
		c-0.291,0.281-0.435,0.267-0.711-0.013c-1.149-1.166-2.326-2.305-3.493-3.454c-0.698-0.687-1.388-1.382-2.097-2.057
		c-0.207-0.197-0.245-0.309-0.017-0.531c1.957-1.901,3.904-3.814,5.846-5.73c0.161-0.159,0.249-0.166,0.407-0.001
		c0.424,0.443,0.857,0.877,1.306,1.294c0.194,0.18,0.188,0.286,0.001,0.469c-1.37,1.34-2.727,2.694-4.096,4.035
		c-0.162,0.159-0.211,0.242-0.017,0.427c0.78,0.746,1.546,1.507,2.301,2.278c0.177,0.181,0.265,0.166,0.436-0.005
		c1.345-1.35,2.701-2.689,4.054-4.031C20.244,11.602,20.341,11.513,20.444,11.416z"/>
</g>
</svg>
