<svg id="Layer_1" data-name="Layer 1" xmlns="http://www.w3.org/2000/svg" viewBox="0 0 31.55 31.51"><defs><style>.cls-2{fill:#e7cb78}.cls-3{fill:#242021}</style></defs><circle cx="15.81" cy="15.67" r="15.65" fill="#fff"/><path class="cls-2" d="M31.75 16A15.77 15.77 0 1 1 16.1.24 15.75 15.75 0 0 1 31.75 16zM15.98 31.39A15.39 15.39 0 1 0 .62 15.95 15.38 15.38 0 0 0 15.98 31.4z" transform="translate(-.21 -.24)"/><path class="cls-2" d="M2.26 15.99A13.72 13.72 0 1 1 16.32 29.7 13.69 13.69 0 0 1 2.26 16zM16 2.56a13.45 13.45 0 1 0 13.43 13.62A13.44 13.44 0 0 0 15.99 2.56z" transform="translate(-.21 -.24)"/><path class="cls-2" d="M27.3 24.56c.18.15.34.29.52.42.1.08.12.16.04.26l-.31.38a.14.14 0 0 1-.22.03l-.53-.42a.15.15 0 0 1-.03-.23 2.06 2.06 0 0 1 .41-.47c.07-.05.05-.13.1-.19a11.38 11.38 0 0 0 .91-1.39l.05-.07c.03-.06.07-.1.14-.06s.05.1.02.14c-.08.1-.03.14.06.18a2.32 2.32 0 0 1 .25.15c.1.06.2.12.26-.04.02-.05.07-.05.12-.02a.08.08 0 0 1 .03.12l-.13.23c-.04.08-.11.03-.17 0l-.45-.26c-.1-.07-.17-.06-.21.05l-.01.01c-.18.25-.18.25.07.41.06.04.12.07.17.12.08.06.15.08.2-.03a.08.08 0 0 1 .14-.03.1.1 0 0 1 .01.14l-.1.16c-.05.09-.1.08-.18.03l-.45-.3c-.1-.05-.16-.06-.2.05a.48.48 0 0 1-.08.1c-.1.11-.1.21.05.3a1.58 1.58 0 0 1 .2.13c.09.06.17.15.25 0a.08.08 0 0 1 .12-.02.08.08 0 0 1 .02.12l-.15.21c-.05.06-.12.02-.17-.01l-.4-.29c-.1-.09-.18-.1-.26.03l-.09.06zm-.08.2c-.1.04-.14.15-.2.21s-.08.14.01.2a1.42 1.42 0 0 1 .25.2c.1.11.18.1.28-.03.14-.2.14-.2-.05-.35l-.15-.12-.14-.1zM30.55 12.17a.16.16 0 0 1-.14.16l-.63.18c-.11.03-.2 0-.21-.11-.04-.22-.2-.4-.12-.65.02-.05-.1-.03-.11-.1-.03-.11-.09-.21-.12-.32-.06-.25-.18-.47-.26-.7-.02-.06-.07-.13.01-.18s.13.02.15.09.08.07.14.04c.1-.05.21-.1.32-.13s.19-.07.12-.2c-.03-.06 0-.1.06-.12s.09.01.1.06l.01.01c.15.3.15.3-.16.42a3.01 3.01 0 0 0-.3.12c-.06.03-.17.02-.15.11a.66.66 0 0 0 .16.38c.01 0 .07 0 .1-.02l.31-.1c.11-.03.22-.05.13-.2-.04-.06.01-.1.06-.12s.09.01.1.06l.02.01c.13.29.12.3-.18.41-.12.04-.25.1-.38.13-.16.05-.06.15-.06.24.01.13.1.05.14.04l.53-.15c.1-.03.16-.01.19.07l.17.57zm-.4-.42c-.13.03-.26.08-.39.1s-.15.09-.11.21c.1.32.06.25.33.18l.25-.07c.08-.02.1-.06.08-.14l-.06-.21a.09.09 0 0 0-.1-.07zM16.74 1.4a1.29 1.29 0 0 0 0 .15c.01.08-.05.2.04.24a.71.71 0 0 0 .4.04c.05 0 .06-.04.06-.07l.04-.37c0-.13.04-.24-.15-.23a.06.06 0 0 1-.06-.08.07.07 0 0 1 .07-.07 1.92 1.92 0 0 1 .27.04c.06.01.06.06.05.11-.04.18 0 .36-.05.54-.03.11 0 .19.15.18a.5.5 0 0 1 .1.02c.2.04.25 0 .28-.2 0-.1.02-.19.03-.28s.02-.2-.12-.19a.07.07 0 0 1-.08-.1c.02-.05.07-.05.11-.05.29.02.3.03.26.32a2.24 2.24 0 0 1-.05.36c-.05.16.04.2.16.21.32.06.32.07.38-.25l.03-.2c.02-.1.02-.18-.11-.18-.05 0-.1-.03-.08-.09s.06-.07.12-.06c.29.03.3.03.24.33l-.06.36c-.02.1-.03.2.12.21a.07.07 0 0 1 .07.1c-.01.06-.06.07-.1.06l-.4-.08a11.77 11.77 0 0 0-1.63-.2c-.14 0-.28-.02-.41-.03-.05 0-.09-.02-.08-.07s.04-.07.08-.06c.15.02.17-.06.16-.18v-.3c0-.1.02-.21-.15-.2-.04 0-.06-.05-.06-.1s.04-.05.08-.06c.26-.03.3 0 .3.26v.17zM25.78 26.25a5.7 5.7 0 0 0 .41.47c.14.17.14.2-.02.35l-.3.27a.15.15 0 0 1-.25 0c-.14-.18-.3-.34-.44-.5a.15.15 0 0 1 0-.23 1.69 1.69 0 0 1 .5-.4c.09-.02.06-.12.12-.17a9.37 9.37 0 0 0 .74-.78c.04-.04.08-.1.15-.04s.03.11-.02.16-.04.1.02.16l.2.19c.09.07.18.22.3.04.03-.04.08-.02.11 0a.09.09 0 0 1 0 .13l-.17.2c-.07.06-.11 0-.16-.04l-.4-.36c-.08-.07-.12-.07-.2 0-.25.24-.25.24-.01.48l.12.12c.07.08.13.12.2.02.04-.05.09-.08.14-.02a.1.1 0 0 1 0 .14c-.05.04-.1.08-.13.13-.07.09-.14.08-.22 0l-.34-.35c-.09-.1-.16-.14-.26-.02-.02.03-.06.04-.1.05zm.3.64l-.08-.08-.24-.27c-.08-.1-.12-.1-.21-.02-.21.2-.22.2-.04.4a1.46 1.46 0 0 0 .14.16c.05.04.08.14.17.07a1.05 1.05 0 0 0 .25-.26zM2.4 19.96l-.65.17c-.21.05-.24.02-.29-.17l-.1-.4a.15.15 0 0 1 .12-.22l.66-.17a.14.14 0 0 1 .18.1 2 2 0 0 1 .13.61c0 .1.1.16.12.25a8.87 8.87 0 0 0 .33.95c.02.05.08.13-.02.18s-.13-.03-.15-.1-.08-.07-.14-.05l-.3.11c-.1.03-.22.06-.15.23.03.05 0 .09-.06.1s-.08-.01-.1-.06l-.02-.04c-.12-.27-.11-.27.15-.37l.4-.15c.1-.03.1-.06.08-.15-.1-.35-.1-.35-.45-.24l-.17.06c-.08.02-.12.05-.08.14.03.06.02.13-.06.15s-.1-.05-.11-.1c-.1-.28-.1-.28.18-.38l.18-.06.18-.05c.06-.02.15-.03.12-.14a.22.22 0 0 1 .02-.2zm-.35-.56l-.36.09c-.12.02-.15.06-.12.19.08.27.07.27.34.2l.07-.02c.31-.08.32-.1.2-.4-.01-.04-.03-.1-.13-.06zM26.4 5.4l-.07-.08c-.04-.05-.07-.1-.01-.15s.1 0 .15.04l.1.1c.1.08.08.15 0 .22l-.4.4c-.14.13.04.17.07.24.05.1.1 0 .13-.03l.41-.37c.07-.07.14-.09.21-.01l.35.38a.15.15 0 0 1 0 .24l-.5.45a.15.15 0 0 1-.24-.02 1.82 1.82 0 0 1-.39-.5c-.03-.08-.13-.05-.18-.1a8.97 8.97 0 0 0-.75-.73c-.05-.04-.11-.08-.06-.16s.12-.03.16.02.1.05.16-.01a3.77 3.77 0 0 1 .27-.3c.07-.07.1-.12 0-.19-.05-.03-.07-.07-.02-.13a.1.1 0 0 1 .14 0c.05.04.09.1.14.13.07.06.08.12 0 .19l-.37.4c-.08.08-.07.12 0 .2.25.25.24.26.5 0a.68.68 0 0 0 .2-.23zm.78.83a.78.78 0 0 0-.24-.27c-.08-.05-.13.05-.19.1a1.68 1.68 0 0 1-.17.15c-.15.1-.13.19-.01.3a.5.5 0 0 1 .05.06.12.12 0 0 0 .2.02l.31-.29c.02-.02.05-.03.05-.08zM1.97 16.71A10.58 10.58 0 0 0 2.08 18c.01.07.04.14-.06.17s-.1-.06-.11-.12c-.02-.08-.06-.1-.14-.09a2.18 2.18 0 0 1-.25.04c-.13.02-.3-.01-.25.22 0 .04-.04.06-.09.06a.08.08 0 0 1-.08-.06l-.04-.26c-.01-.1.06-.11.13-.12.18-.03.36-.06.54-.07.1 0 .14-.05.12-.15v-.07c-.02-.27-.03-.28-.3-.25a1.28 1.28 0 0 1-.18.02c-.1 0-.2 0-.18.16a.08.08 0 0 1-.07.1.08.08 0 0 1-.1-.09l-.03-.2c-.02-.1.03-.14.12-.15l.52-.04c.11 0 .18-.04.16-.17a.4.4 0 0 1 0-.1c.01-.15-.04-.23-.22-.2a1.22 1.22 0 0 1-.22 0c-.13 0-.24 0-.22.17 0 .05-.03.07-.08.07s-.09 0-.1-.06a2.3 2.3 0 0 1 0-.31c.01-.06.07-.06.12-.06l.55-.02c.1 0 .15-.02.13-.13 0-.07.02-.13.1-.12s.08.07.08.13zM3.88 7.3c-.07-.02-.13-.04-.09-.12a1.84 1.84 0 0 1 .18-.23c.05-.07.1-.02.15.01l.44.34c.07.05.13.08.18-.01.03-.06.08-.1.15-.05s.02.12-.02.17l-.63.87-.34.56c-.03.05-.06.11-.14.07s-.06-.1-.02-.16.03-.12-.05-.17l-.25-.15c-.08-.05-.2-.15-.28.03-.02.04-.08.03-.12 0a.07.07 0 0 1-.02-.1l.13-.22c.05-.07.12-.05.19 0 .14.09.3.17.44.27.09.06.15.05.2-.04a.67.67 0 0 1 .05-.07c.14-.2.14-.2-.07-.35l-.17-.12c-.09-.06-.17-.13-.25.02a.07.07 0 0 1-.12.02.08.08 0 0 1-.02-.12l.11-.18c.06-.09.13-.09.2-.03l.43.3c.1.07.16.07.21-.03l.06-.07c.15-.2.15-.2-.05-.34l-.18-.14c-.08-.06-.16-.14-.24.02l-.06.03zM20.01 2.36c.11.07.14 0 .16-.1a2.53 2.53 0 0 1 .09-.27c.04-.12.1-.24-.1-.28-.04-.01-.04-.06-.02-.1s.05-.04.08-.04c.26.02.32.1.24.36-.05.14-.08.29-.14.43-.03.08 0 .11.08.14.1.02.18.05.28.09.06.02.1.01.12-.05l.17-.48c.04-.1-.04-.08-.09-.1s-.11-.05-.08-.13.1-.05.15-.03c.28.1.28.1.17.38l-.14.36c-.04.1-.02.15.08.19h.02c.3.15.3.15.44-.16.02-.06.04-.13.08-.19.04-.09.03-.15-.07-.19-.05-.02-.1-.05-.07-.11s.08-.05.13-.03h.04c.26.1.26.1.15.36l-.16.38c-.04.08-.06.15.06.18.07.02.1.07.07.14s-.1.03-.14.01c-.34-.16-.7-.29-1.06-.41l-.58-.19c-.05-.02-.1-.04-.08-.1s.07-.06.12-.06zM2.63 11.64l-.07.24a8.97 8.97 0 0 0-.27.98c-.01.06 0 .15-.11.13s-.1-.1-.07-.16-.02-.1-.08-.12l-.39-.09c-.08-.02-.15-.02-.16.09 0 .06-.04.1-.11.09s-.08-.08-.07-.14l.04-.15c.02-.12.08-.16.2-.13l.5.13c.16.05.17-.07.2-.16.04-.13-.08-.09-.12-.1a4 4 0 0 0-.46-.14c-.14-.04-.19-.12-.15-.25l.14-.46a.15.15 0 0 1 .22-.1l.63.19c.07.02.14.05.13.15zm-.74-.14c-.15.02-.12.16-.16.25-.05.1 0 .17.11.2a1.6 1.6 0 0 1 .3.09c.13.05.2 0 .22-.12l.04-.17c.01-.06.01-.08-.04-.1zM3.16 22.1l-.6.27a.16.16 0 0 1-.25-.09 21.6 21.6 0 0 0-.19-.41.17.17 0 0 1 .1-.27c.2-.07.39-.16.58-.24.1-.05.18-.04.23.07.07.2.23.38.2.61 0 .05.04.04.06.05a1.97 1.97 0 0 1 .3.52c.02.04-.01.08-.05.1s-.1.02-.12-.03c-.05-.14-.14-.1-.23-.05l-.22.1c-.1.06-.23.1-.12.25.03.04 0 .08-.03.1a.08.08 0 0 1-.12-.02 2.48 2.48 0 0 1-.14-.26c-.03-.07.03-.1.08-.12.14-.07.28-.15.43-.21.13-.06.22-.12.11-.27a.3.3 0 0 1-.02-.1zm-.65.07a3.21 3.21 0 0 1 .36-.15c.17-.05.18-.13.1-.28-.1-.2-.1-.2-.3-.1l-.1.03c-.31.13-.32.16-.15.44.03.03.04.07.09.06zM29 10.37c-.1 0-.15-.02-.17-.07a1.6 1.6 0 0 1-.24-.62c0-.08-.1-.06-.13-.12a4.47 4.47 0 0 0-.2-.4c-.03-.06-.06-.11.01-.15a.08.08 0 0 1 .13.05c.05.1.12.09.2.04l.26-.14c.1-.04.2-.1.1-.23a.07.07 0 0 1 .02-.1c.05-.02.1-.04.13.01a1.84 1.84 0 0 1 .14.26c.03.06-.03.09-.07.12-.17.09-.32.19-.5.26s-.05.17-.02.25c.03.12.1.03.14.01.16-.06.32-.14.47-.22a.17.17 0 0 1 .26.1l.2.42c.03.07.05.15-.02.2a5.16 5.16 0 0 1-.72.33zm.51-.55a.95.95 0 0 0-.16-.28c-.06-.06-.15.05-.23.07a.53.53 0 0 0-.1.05c-.27.14-.26.05-.12.38.04.1.1.12.2.06s.22-.1.34-.16c.04-.02.08-.03.07-.12zM27.86 8.2l.1-.05.47-.3a.16.16 0 0 1 .25.06l.26.42a.15.15 0 0 1-.06.23l-.55.34c-.1.07-.2.06-.26-.06l-.3-.54a3.96 3.96 0 0 0-.3-.4l-.07-.1c-.04-.05-.05-.1 0-.14a.08.08 0 0 1 .14.03c.06.12.12.1.2.03a2.36 2.36 0 0 1 .24-.17c.1-.06.2-.12.07-.25-.04-.04 0-.08.03-.11s.1-.02.12.02l.1.13c.1.11.07.2-.05.27-.15.09-.29.2-.43.3-.04.02-.09.04-.06.1zm.88.15a1.27 1.27 0 0 0-.2-.27c-.06-.06-.13.04-.2.07a1.71 1.71 0 0 0-.15.09c-.2.12-.19.12-.08.32.08.16.15.18.28.07a2.53 2.53 0 0 1 .28-.18c.03-.02.07-.03.07-.1zM30.45 12.54c-.02-.07-.01-.12.07-.13s.1.05.11.1l.04.15c.02.1 0 .17-.12.19l-.52.11c-.1.02-.13.06-.12.16.07.35.06.35.4.28l.16-.02c.09-.01.14-.05.12-.15-.01-.06 0-.12.07-.13s.1.05.11.11c0 .05.02.1.03.14.03.12 0 .18-.14.2l-.51.08c-.1.02-.16.03-.12.15.02.06.02.12-.06.13s-.1-.04-.12-.1l-.21-1.08c-.02-.06-.02-.12.05-.14s.11.02.12.09c.02.1.07.12.17.1a2.37 2.37 0 0 1 .35-.09c.1-.01.15-.05.12-.15zM30.69 17.19l-.3-.03c-.07 0-.2-.06-.22.02a1.14 1.14 0 0 0-.04.4 1.17 1.17 0 0 0 .62.06.13.13 0 0 0 .02-.06c0-.07.02-.13.11-.12s.07.08.07.14c0 .27-.04.31-.31.28l-.33-.04c-.13-.03-.25-.07-.24.14 0 .04-.04.07-.08.07s-.1-.03-.1-.1a1.25 1.25 0 0 1 .02-.16c.05-.3.07-.61.1-.92 0-.07-.03-.17.08-.17s.1.08.1.15.03.09.1.1c.1 0 .2 0 .3.02s.24.03.25-.15c0-.05.05-.07.1-.06s.07.05.08.1c.03.27-.04.34-.33.33zM5.5 25.53a.13.13 0 0 1 .2.02l.76.78c.04.04.09.08.03.14s-.1.03-.14-.01c-.07-.07-.11-.06-.17 0a2.2 2.2 0 0 1-.22.23c-.08.09-.16.16-.03.27a.07.07 0 0 1 0 .1.08.08 0 0 1-.12.02l-.03-.03c-.25-.19-.25-.2-.03-.42l.28-.29c.08-.07.07-.12 0-.2-.24-.25-.23-.25-.48-.01l-.13.11c-.07.06-.12.12-.02.2.05.04.07.1 0 .15s-.1 0-.14-.03l-.1-.12c-.1-.08-.08-.15 0-.23.13-.1.24-.22.36-.33.08-.06.14-.13.03-.22a.12.12 0 0 1-.04-.12zM2.07 14.1c-.05.33-.08.68-.1 1.04 0 .05-.03.1-.1.1s-.1-.05-.09-.12c.02-.11-.04-.13-.14-.13l-.26-.03c-.1 0-.24-.05-.24.14 0 .06-.05.08-.1.07s-.07-.04-.08-.1c-.04-.26.05-.35.32-.32a2.54 2.54 0 0 0 .28.02c.08 0 .2.06.24-.02a.76.76 0 0 0 .05-.37c0-.06-.05-.06-.09-.06l-.36-.05c-.1-.02-.2-.03-.2.12 0 .06-.04.08-.1.08s-.08-.04-.08-.1l.04-.26c.02-.09.1-.07.16-.06l.55.06c.05.01.12.03.12-.06 0-.07.01-.16.11-.14.12.01.05.11.07.18zM23.78 4.17a.11.11 0 0 1-.18.02 10.37 10.37 0 0 0-.92-.54c-.06-.04-.11-.08-.07-.15s.1-.04.14 0c.08.05.12.03.16-.05l.15-.28c.05-.09.15-.2-.04-.28-.04-.01-.05-.06-.02-.1a.07.07 0 0 1 .1-.03l.2.1c.09.04.1.1.05.18-.1.14-.17.3-.26.43-.06.1-.09.2.06.25l.05.05c.2.12.22.12.35-.08.04-.06.07-.13.12-.19.07-.1.11-.18-.03-.25a.07.07 0 0 1-.02-.12c.04-.05.08-.04.12-.01l.15.08c.1.06.11.13.05.22l-.28.44c-.06.1-.06.15.05.2a.11.11 0 0 1 .06.11zM9.27 3.54a.17.17 0 0 1-.11.18c-.3.15-.59.34-.88.52-.05.04-.11.11-.17.02s.01-.11.06-.15.06-.09.03-.14L8 3.67c-.06-.1-.11-.18-.24-.08-.04.04-.08.02-.11-.03a.08.08 0 0 1 .03-.12l.12-.07c.12-.1.2-.07.28.07l.24.4c.06.09.1.1.2.05.31-.17.32-.17.13-.47a1.54 1.54 0 0 1-.08-.14c-.04-.08-.08-.15-.19-.07-.04.03-.1.04-.13-.03s.01-.09.06-.12c.22-.17.27-.16.4.07l.12.21c.13.25.13.25.4.17a.04.04 0 0 0 .03.03zM23.22 28.18a.17.17 0 0 1 .1-.2c.29-.18.56-.37.84-.56.06-.04.12-.1.18-.02s-.02.12-.06.15-.05.1-.01.15l.18.26c.06.09.12.21.26.09.03-.03.08-.01.1.03a.09.09 0 0 1-.01.1c-.16.2-.3.2-.44-.01l-.25-.36c-.05-.07-.08-.09-.16-.03-.4.25-.32.18-.11.52.07.1.11.28.3.14.03-.03.06 0 .08.04a.1.1 0 0 1-.02.11c-.14.18-.3.17-.42-.02l-.22-.35c-.05-.09-.1-.16-.2-.06-.05.03-.1.02-.14.01zM11.32 2.68c0 .06-.05.07-.1.1l-.97.4c-.06.02-.13.05-.16-.04s.04-.1.08-.12c.08-.03.08-.08.05-.15l-.12-.29c-.05-.11-.08-.25-.25-.14-.04.03-.07 0-.09-.05a.08.08 0 0 1 .04-.1c.2-.15.32-.13.42.1a3.28 3.28 0 0 1 .13.32c.04.15.1.2.26.14.26-.08.29-.1.2-.35a7.62 7.62 0 0 1-.08-.21c-.03-.1-.06-.22-.22-.12-.05.03-.08-.02-.1-.06s.01-.08.05-.1a1.11 1.11 0 0 0 .13-.05c.15-.08.22-.01.26.13s.11.28.15.42c.04.1.08.17.2.11.06-.03.11-.02.12.06zM9.14 28.46c-.1-.01-.11.04-.14.08l-.16.29c-.06.09-.1.18.04.24a.08.08 0 0 1 .03.12c-.03.05-.08.04-.12.02l-.17-.1c-.1-.04-.1-.1-.04-.2.09-.14.16-.3.25-.45.06-.09.07-.16-.05-.2-.04-.02-.08-.05-.05-.1a.09.09 0 0 1 .13-.05l.29.16.67.36c.05.02.12.04.1.12s-.09.07-.14.04c-.1-.05-.14 0-.18.08l-.14.28c-.05.09-.1.19.05.25a.07.07 0 0 1 .03.1c-.02.04-.07.04-.1.02l-.22-.1c-.07-.04-.06-.1-.03-.15l.24-.47c.06-.1.07-.17-.06-.22a1.5 1.5 0 0 1-.23-.12zM11.92 29.62c-.12-.06-.16.01-.19.12a2.45 2.45 0 0 1-.08.26c-.04.12-.1.24.1.27a.06.06 0 0 1 .04.08.08.08 0 0 1-.09.06c-.22.02-.33-.12-.26-.33.04-.14.08-.28.14-.41.03-.1.02-.14-.09-.18-.34-.14-.34-.14-.46.2a1.5 1.5 0 0 1-.07.16c-.04.09-.04.15.07.18.06.01.1.06.07.13s-.09.03-.14.02c-.25-.07-.27-.1-.18-.35l.12-.3c.04-.1.13-.25-.08-.29-.05 0-.06-.06-.04-.1a.07.07 0 0 1 .1-.05 1.11 1.11 0 0 1 .11.04c.31.13.63.23.95.33.06.02.12.04.1.11-.02.06-.06.07-.12.05zM17.29 31.06c-.22 0-.24-.02-.26-.23l-.03-.45c-.01-.12.04-.17.16-.18l.48-.06c.16-.02.23.04.25.25.02.22-.01.27-.19.29l-.36.03c-.06.01-.1.03-.1.1s.06.09.12.08l.42-.05c.06 0 .1 0 .11.07s-.03.1-.1.11zm0-.51l.3-.04c.06 0 .1-.03.1-.09a.09.09 0 0 0-.1-.09c-.1 0-.19.02-.28.03-.07.01-.11.04-.1.11-.01.09.06.08.09.08zM14.89 1c.13-.02.19.04.19.18l.02.5c0 .1.04.13.13.13.05 0 .13-.02.12.07s-.07.08-.13.08a7.35 7.35 0 0 0-1.07.1c-.05.01-.1 0-.1-.06a.07.07 0 0 1 .08-.09c.15 0 .16-.06.13-.19a2.19 2.19 0 0 1-.02-.25c-.02-.12 0-.27-.21-.23-.04 0-.06-.04-.06-.07a.08.08 0 0 1 .06-.08.23.23 0 0 1 .35.2l.03.24c.02.36.1.4.44.3a.1.1 0 0 0 .1-.12l-.04-.46c0-.07-.05-.08-.1-.09s-.14.03-.14-.06.08-.09.14-.1h.08zM3.33 9.92l-.27.54c-.04.08-.11.08-.2.04l-.58-.26a.16.16 0 0 1-.1-.23l.2-.46a.14.14 0 0 1 .22-.08l.63.29a.15.15 0 0 1 .1.16zm-.73-.23c-.07-.02-.08.01-.1.04-.18.28-.17.32.13.45a2.01 2.01 0 0 1 .19.08c.08.05.14.03.17-.06l.09-.19c.02-.04.03-.08-.02-.1l-.46-.22zM30.04 18.08l.67.12a.15.15 0 0 1 .14.18l-.1.52a.14.14 0 0 1-.18.12l-.67-.11a.15.15 0 0 1-.13-.2c.02-.17.06-.33.09-.5a.14.14 0 0 1 .18-.13zm.1.22c-.08 0-.11 0-.13.07-.1.32-.08.34.24.4h.08c.26.05.26.05.3-.2a.47.47 0 0 1 .01-.1c.02-.05-.01-.08-.06-.1l-.44-.07zM30.45 15.7c-.44 0-.44 0-.44-.44-.01-.4-.01-.4.37-.4.14 0 .28 0 .42-.02a.17.17 0 0 1 .2.17c.02.17.02.34.02.51a.13.13 0 0 1-.14.15l-.43.03zm.38-.4c0-.28 0-.28-.26-.26l-.3.03c-.04 0-.07.01-.09.07-.05.3.02.38.3.34a.73.73 0 0 1 .16 0c.15.01.24-.03.2-.18zM7.48 4.8a.16.16 0 0 1-.16-.1l-.37-.51a.16.16 0 0 1 .04-.26l.37-.27a.16.16 0 0 1 .25.04l.39.54c.05.07.06.14-.01.2-.15.12-.3.22-.46.33a.14.14 0 0 1-.05.02zm.33-.47a.27.27 0 0 0-.01-.04l-.19-.27c-.15-.2-.15-.2-.35-.06-.14.09-.14.16-.04.27.07.07.11.16.18.24.03.04.05.14.13.09a.85.85 0 0 0 .28-.23zM5.96 6.01l-.49-.53a.15.15 0 0 1 0-.25l.36-.33a.15.15 0 0 1 .24.01l.46.5c.04.04.07.1.03.15A2.35 2.35 0 0 1 6.1 6a.18.18 0 0 1-.14.01zm.39-.51l-.07-.08-.25-.27c-.08-.09-.12-.09-.2 0-.22.2-.23.2-.01.41a1.09 1.09 0 0 0 .12.13c.05.03.08.14.16.08a.84.84 0 0 0 .25-.27zM2.21 13.23c-.03.17-.05.34-.1.5a.14.14 0 0 1-.19.13c-.21-.05-.43-.08-.65-.12-.1-.02-.17-.08-.15-.2l.1-.5a.14.14 0 0 1 .2-.13l.64.12a.15.15 0 0 1 .15.2zm-.87.2c-.02.07 0 .12.1.13a1.71 1.71 0 0 1 .22.04c.29.05.28.05.34-.23.03-.13-.01-.16-.12-.18-.07 0-.14-.02-.2-.03-.3-.05-.32-.04-.34.27zM3.26 23.9a.15.15 0 0 1-.15-.1q-.13-.2-.25-.43a.14.14 0 0 1 .05-.22c.2-.1.4-.22.59-.34a.15.15 0 0 1 .23.07l.25.43c.04.07.05.14-.02.19l-.66.39a.12.12 0 0 1-.04.01zm.03-.24l.26-.14c.28-.17.28-.17.1-.44-.05-.07-.09-.08-.16-.04-.11.08-.23.14-.34.2-.07.04-.1.09-.06.16.06.08.08.2.2.26z" transform="translate(-.21 -.24)"/><path class="cls-2" d="M23.78 4.17a2.59 2.59 0 0 0 .37-.5c.15-.2.17-.2.38-.06l.3.22a.15.15 0 0 1 .06.24l-.4.55a.14.14 0 0 1-.2.04l-.44-.3a.21.21 0 0 1-.07-.2zm.54.3c.05 0 .08-.04.1-.07l.17-.24c.14-.2.14-.19-.06-.34-.14-.1-.21-.08-.28.06-.04.06-.1.1-.12.17s-.15.12-.1.2c.07.1.2.15.29.22zM2.95 10.78l-.22.54a.13.13 0 0 1-.18.07l-.65-.25a.14.14 0 0 1-.1-.2l.18-.47a.15.15 0 0 1 .22-.1l.62.23a.17.17 0 0 1 .13.18zm-.24.09a.1.1 0 0 0-.07-.13l-.21-.07c-.3-.11-.29-.11-.4.18-.03.08-.04.12.06.15l.39.15c.04.01.1.03.12-.02.05-.09.09-.19.11-.26zM4.5 24.28a5.26 5.26 0 0 0-.55.36c-.17.1-.22.1-.34-.07l-.23-.35a.15.15 0 0 1 .05-.24l.55-.36a.15.15 0 0 1 .22.03l.28.42a.2.2 0 0 1 .02.21zm-.45-.47l-.28.18c-.23.16-.23.16-.07.4.06.09.11.11.2.04l.28-.2c.05-.04.14-.06.1-.14a.57.57 0 0 0-.23-.28zM3.34 9.69a.97.97 0 0 1-.1-.04l-.55-.3a.17.17 0 0 1-.08-.25l.23-.43a.15.15 0 0 1 .23-.06l.58.32c.08.04.12.1.08.18l-.28.52a.13.13 0 0 1-.1.06zm-.33-.89c-.02 0-.04.01-.04.03a.74.74 0 0 0-.16.32c0 .08.12.1.18.13a2.19 2.19 0 0 0 .22.12c.05.02.12.1.16 0 .05-.1.2-.23.13-.32a1.52 1.52 0 0 0-.49-.28zM30.18 21a3.48 3.48 0 0 1-.21.54c-.04.07-.1.06-.17.04l-.63-.24a.15.15 0 0 1-.1-.23l.17-.45a.15.15 0 0 1 .22-.1l.63.24c.06.02.11.06.09.2zm-.21.06a.1.1 0 0 0-.08-.12l-.21-.08c-.3-.1-.3-.1-.4.19-.03.08-.03.12.06.15l.4.14c.03.02.1.04.12-.01l.1-.27zM29.7 19.65l.7.22a.13.13 0 0 1 .09.16l-.16.52c-.04.1-.1.13-.22.1l-.61-.19a.15.15 0 0 1-.13-.2l.15-.51a.14.14 0 0 1 .18-.1zm.4.79c.05.01.06-.01.08-.05.14-.23.1-.35-.15-.42l-.07-.03c-.3-.1-.34-.08-.4.25 0 .05 0 .08.05.1l.5.15zM29.53 22.54a3.3 3.3 0 0 1-.27.53.13.13 0 0 1-.19.03l-.57-.29a.17.17 0 0 1-.09-.26l.2-.4c.06-.12.14-.16.26-.09l.57.3a.14.14 0 0 1 .1.18zm-.22.03c0-.05-.03-.08-.08-.1a3.32 3.32 0 0 1-.3-.15c-.13-.08-.19-.04-.24.08-.14.29-.13.22.11.35l.14.07a.25.25 0 0 0 .37-.25zM30.96 14.5c.03.11-.05.19-.21.2l-.6.07a.14.14 0 0 1-.18-.14l-.07-.5c0-.1.02-.18.14-.2l.67-.07c.13-.02.19.04.2.16l.05.48zm-.44-.42l-.3.04c-.1.01-.13.04-.12.14.04.3.04.3.33.27l.24-.03c.03 0 .08 0 .09-.04a.66.66 0 0 0-.05-.36c-.03-.08-.12 0-.19-.02zM1.14 18.55a.15.15 0 0 1 .14-.17l.65-.12a.16.16 0 0 1 .22.15l.08.46a.15.15 0 0 1-.13.2l-.68.13a.13.13 0 0 1-.17-.11l-.1-.54zm.9.26c0-.3-.06-.36-.36-.3-.03 0-.07 0-.1.02-.25.05-.25.05-.2.3a.55.55 0 0 1 .02.06c0 .08.05.1.12.09l.44-.09c.04 0 .1-.01.08-.08zM7.17 26.99a.15.15 0 0 1-.05.12l-.43.52a.14.14 0 0 1-.23.01l-.39-.32a.14.14 0 0 1-.02-.21l.46-.55a.12.12 0 0 1 .18-.02l.44.37a.22.22 0 0 1 .04.08zm-.23.02l-.02-.05c-.13-.22-.3-.24-.46-.05l-.1.12c-.15.17-.15.17.02.33.12.11.2.13.3-.02a2.35 2.35 0 0 1 .2-.24l.06-.09zM24.98 26.85a.14.14 0 0 1 .11.06l.41.52a.15.15 0 0 1-.02.24l-.37.29a.18.18 0 0 1-.28-.04c-.11-.16-.23-.3-.35-.45a.19.19 0 0 1 .04-.32l.3-.24a.25.25 0 0 1 .16-.06zm.34.69a.27.27 0 0 0-.02-.05l-.31-.4a.06.06 0 0 0-.1 0c-.08.06-.2.12-.25.21s.08.15.13.23a1.8 1.8 0 0 0 .13.16c.04.04.07.14.14.1a.7.7 0 0 0 .28-.25zM28.03 7.02c0 .07-.05.1-.1.14l-.5.4a.15.15 0 0 1-.23-.02l-.31-.4a.14.14 0 0 1 .02-.23l.52-.4a.16.16 0 0 1 .26.04c.1.12.2.23.28.35a.2.2 0 0 1 .06.12zm-.23-.04l-.01-.03c-.12-.26-.24-.29-.47-.11a1.88 1.88 0 0 0-.14.12c-.05.04-.13.07-.08.14.06.1.1.22.23.27A1.94 1.94 0 0 0 27.8 7a.05.05 0 0 0 0-.02zM7.34 27.1a.46.46 0 0 1 .1.04l.4.3a.14.14 0 0 1 .03.23l-.38.52a.17.17 0 0 1-.26.04l-.38-.27c-.08-.06-.11-.14-.04-.23l.42-.57a.14.14 0 0 1 .11-.06zm.05.24c-.06 0-.08.03-.1.06-.07.09-.14.17-.2.27-.03.05-.13.1-.06.18a.7.7 0 0 0 .3.2 1.5 1.5 0 0 0 .35-.5 1.02 1.02 0 0 0-.29-.2zM5.45 6.65a.21.21 0 0 1-.07.14l-.25.3c-.13.15-.18.16-.34.02l-.44-.36a.16.16 0 0 1-.02-.27l.3-.36a.15.15 0 0 1 .24-.03l.5.43a.16.16 0 0 1 .08.13zm-.23.02c0-.02-.01-.03-.03-.04l-.38-.33a.07.07 0 0 0-.1 0 .63.63 0 0 0-.2.27c-.02.1.1.11.15.17a.84.84 0 0 0 .17.15c.05.03.1.14.17.06a.8.8 0 0 0 .22-.28zM8.11 27.66a.81.81 0 0 1 .11.05l.3.2c.2.12.2.17.08.36l-.28.45a.17.17 0 0 1-.28.06c-.12-.09-.26-.16-.39-.25-.07-.05-.11-.12-.05-.2l.38-.6a.13.13 0 0 1 .13-.07zm.36.45l-.04-.05a.96.96 0 0 0-.29-.18c-.09-.02-.1.12-.15.19a1.6 1.6 0 0 0-.14.2c-.03.05-.09.11-.01.16.1.07.21.21.3.15a1.36 1.36 0 0 0 .33-.47zM20.53 30.34c-.1 0-.13-.04-.16-.12l-.21-.62a.14.14 0 0 1 .09-.2l.47-.16a.15.15 0 0 1 .21.12l.21.62a.12.12 0 0 1-.06.17l-.55.2zm.15-.91c-.27 0-.35.12-.27.36l.09.26a.1.1 0 0 0 .13.08c.3-.03.34-.1.25-.38l-.09-.24c-.02-.06-.05-.1-.11-.09zM5.51 25.53c-.15.04-.22.2-.34.27a1.25 1.25 0 0 0-.16.14c-.17.14-.2.14-.35-.03l-.24-.28a.18.18 0 0 1 .03-.3l.46-.4c.07-.06.14-.09.21-.01.13.13.24.27.36.41.05.06.03.14.03.2zm-.68.28a.28.28 0 0 0 .05-.02l.4-.34c.04-.03.02-.07-.01-.1l-.12-.15c-.08-.1-.15-.1-.24-.01l-.25.21c-.04.04-.12.07-.07.14a1.1 1.1 0 0 0 .24.27zM10.15 28.78l.52.24c.06.03.06.1.03.15l-.28.66a.12.12 0 0 1-.18.07l-.48-.2a.13.13 0 0 1-.07-.2l.26-.63c.03-.07.08-.11.2-.09zm.06.93c.07 0 .09-.04.1-.08l.13-.3c.09-.2.09-.2-.12-.29s-.2-.08-.3.13l-.11.27c-.02.04-.05.1.01.14l.29.13zM25.7 4.54a.23.23 0 0 1-.06.17l-.4.48a.15.15 0 0 1-.25.03l-.36-.3a.15.15 0 0 1-.03-.24l.4-.5a.15.15 0 0 1 .25-.03l.38.3a.2.2 0 0 1 .07.1zm-.63.5l.05-.01.35-.43a.05.05 0 0 0 0-.05 3.2 3.2 0 0 0-.28-.23c-.05-.03-.08.03-.1.07-.1.14-.3.25-.3.42 0 .08.17.17.28.23zM7.29 4.88c0 .12-.49.53-.6.5a3.01 3.01 0 0 1-.56-.69.16.16 0 0 1 .08-.13l.38-.32a.13.13 0 0 1 .2 0l.47.57a.28.28 0 0 1 .03.07zm-.22 0l-.2-.24c-.22-.26-.22-.26-.46-.03-.05.05-.07.08-.02.14a1.99 1.99 0 0 1 .22.27c.1.14.17.17.29.03.05-.05.14-.08.17-.17zM23.22 28.18a2.62 2.62 0 0 0 .27.52c.13.24.13.26-.1.39l-.34.18a.14.14 0 0 1-.22-.06l-.3-.56a.16.16 0 0 1 .07-.25l.38-.2a.23.23 0 0 1 .24-.02zm-.18.18a.84.84 0 0 0-.32.19c-.06.07.04.13.07.2a.69.69 0 0 0 .09.16c.04.07.05.19.15.17a.59.59 0 0 0 .31-.17c.05-.05-.23-.55-.3-.55zM22.7 29.3c.02.13-.02.18-.09.2l-.45.22a.13.13 0 0 1-.2-.07l-.28-.6a.16.16 0 0 1 .09-.24l.42-.2c.06-.03.13-.05.16 0a5.34 5.34 0 0 1 .35.7zm-.22-.03l-.21-.43c-.02-.04-.06-.04-.1-.03-.3.07-.35.14-.2.42l.02.05c.14.3.17.3.44.12.03-.02.07-.04.05-.13zM12.13 2.36a.16.16 0 0 1-.13.15l-.46.15c-.09.02-.16.01-.2-.1a17.8 17.8 0 0 0-.2-.64.14.14 0 0 1 .1-.2l.5-.15a.12.12 0 0 1 .16.07l.23.72zm-.2-.06l-.16-.5a.07.07 0 0 0-.09-.04.6.6 0 0 0-.33.13c-.06.06.03.16.05.24l.06.2c.03.13.1.18.22.12a1.37 1.37 0 0 1 .17-.05.1.1 0 0 0 .08-.1zM9.23 3.5a2 2 0 0 0-.26-.57c-.07-.15-.04-.23.1-.29l.37-.19a.17.17 0 0 1 .26.08l.28.58c.03.07.04.15-.04.18-.17.1-.35.19-.52.27-.05.03-.1 0-.15-.02 0-.02-.01-.04-.04-.04zm.56-.38l-.16-.31c-.1-.21-.1-.2-.32-.11-.15.06-.2.14-.1.29a1.58 1.58 0 0 1 .09.16c.13.26.09.25.34.11.06-.02.14-.03.15-.13zM1.45 15.3h.3c.16-.01.21.08.2.2-.02.15 0 .31-.01.47-.01.12-.07.17-.2.17-.2-.01-.43 0-.65-.02-.1-.02-.15-.06-.15-.17v-.5c0-.11.06-.16.18-.16h.33zm0 .62c.32 0 .32 0 .32-.2 0-.23 0-.23-.25-.24h-.14c-.28 0-.24-.04-.26.26 0 .15.05.2.19.18a1.07 1.07 0 0 1 .14 0zM12.56 30.64l-.51-.13a.14.14 0 0 1-.11-.2l.16-.63a.14.14 0 0 1 .19-.12c.15.05.31.08.47.12a.14.14 0 0 1 .12.2l-.17.64c-.02.08-.07.13-.15.12zm-.43-.38c-.01.06-.01.09.03.11.24.15.39.1.45-.16l.02-.09c.08-.3.08-.3-.24-.37-.08-.02-.13 0-.15.09l-.1.42zM22.88 2.73a.42.42 0 0 1-.03.08l-.28.58a.14.14 0 0 1-.23.08 16.4 16.4 0 0 0-.42-.21.15.15 0 0 1-.08-.24c.1-.18.18-.37.27-.56a.16.16 0 0 1 .25-.08l.41.19a.16.16 0 0 1 .1.16zm-.86.33a.07.07 0 0 0 .04.08c.23.19.34.16.48-.1l.04-.1c.12-.23.12-.24-.13-.34-.06-.02-.14-.09-.19 0-.1.15-.16.31-.24.46zM13.35 2.19c-.14.02-.2-.06-.21-.18l-.1-.58c-.02-.12.02-.19.13-.2.15-.04.3-.06.46-.08a.16.16 0 0 1 .21.15l.11.63a.13.13 0 0 1-.11.17l-.5.09zm.41-.33l-.04-.28c-.06-.29-.06-.28-.35-.24-.12.02-.16.09-.14.2a3.08 3.08 0 0 1 .07.34c0 .11.06.15.17.13l.2-.03a.1.1 0 0 0 .1-.12zM12.41 2.4a.15.15 0 0 1-.17-.13l-.15-.62a.17.17 0 0 1 .15-.22l.42-.1c.1-.03.18 0 .2.12l.15.62a.16.16 0 0 1-.13.21l-.47.12zm.42-.36v-.02l-.07-.3c-.05-.22-.07-.24-.28-.19s-.22.07-.17.29l.04.13c.08.32.08.32.4.21.06-.03.08-.06.08-.12zM19.98 1.65l-.18.7c-.03.1-.12.08-.18.07l-.45-.12c-.1-.02-.16-.07-.13-.2l.15-.6a.16.16 0 0 1 .2-.14l.48.12a.14.14 0 0 1 .1.17zm-.2.07c0-.08 0-.1-.07-.13-.27-.13-.35-.1-.42.2l-.01.05c-.08.34-.08.34.26.4.07.01.1 0 .12-.06l.12-.47zM31.03 16.23v.1c0 .3-.06.36-.36.32-.16-.02-.32-.01-.48-.02-.1 0-.16-.03-.16-.14v-.54c0-.1.05-.14.15-.14h.65c.15 0 .2.06.2.2v.2zm-.5.21c.32 0 .32 0 .32-.3 0-.1-.05-.14-.15-.13a1.44 1.44 0 0 1-.3-.01c-.17-.02-.21.06-.2.21 0 .23 0 .23.22.23zM15.43 1.45a2.5 2.5 0 0 0 0-.26c-.02-.16.05-.23.2-.22h.42a.15.15 0 0 1 .17.17v.64c0 .1-.03.16-.14.15h-.52c-.1 0-.14-.04-.14-.14v-.34zm.63.02c0-.34 0-.34-.2-.34-.27 0-.27 0-.27.27v.14c0 .27.05.3.32.25.11-.02.17-.06.15-.18a.8.8 0 0 1 0-.14zM15.18 31.1h-.08c-.5-.03-.4-.02-.38-.45a3.59 3.59 0 0 1 .04-.6c.01-.07.02-.14.12-.12s.08.08.07.14c-.03.23 0 .47-.05.7-.01.08.02.13.12.14l.35.03c.06 0 .15-.02.15.09s-.09.07-.15.07h-.19zM30.68 19.26l-.05.2c-.02.1-.07.12-.16.1l-.54-.13c-.1-.02-.15-.02-.16.09 0 .06-.03.11-.11.1s-.08-.1-.07-.16l.1-.42c.02-.05.05-.1.11-.09s.09.06.07.12c-.03.13.05.16.15.17s.18.04.27.07.2.06.21-.11a.07.07 0 0 1 .1-.06.1.1 0 0 1 .08.12zM5.96 6c.04.12-.02.2-.1.27l-.24.24c-.04.05-.08.07-.13.02s-.06-.09 0-.13c.1-.08.05-.14-.02-.21L5.27 6c-.08-.09-.16-.2-.27-.03-.03.04-.08.02-.1-.01a.08.08 0 0 1-.02-.12l.15-.17a.12.12 0 0 1 .19 0l.38.37c.08.09.14.11.22 0a.14.14 0 0 1 .14-.04zM29.87 21.81l-.13.27c-.03.06-.1.02-.14 0l-.5-.22c-.09-.04-.15-.05-.18.05a.1.1 0 0 1-.15.07c-.07-.04-.03-.1 0-.15l.15-.37c.03-.06.05-.12.13-.09.07.03.07.09.05.15-.05.1 0 .13.08.16a2.94 2.94 0 0 1 .27.12c.1.04.21.13.26-.07 0-.04.05-.06.1-.04s.07.04.06.12z" transform="translate(-.21 -.24)"/><path class="cls-2" d="M4.5 24.28a.15.15 0 0 1 .2.07l.24.32c.03.04.07.1 0 .15s-.1.02-.14-.04c-.05-.08-.1-.08-.18-.02l-.23.18c-.1.07-.23.13-.08.28.04.04 0 .08-.04.1a.07.07 0 0 1-.1 0c0-.02-.02-.04-.03-.05-.19-.23-.19-.23.05-.41l.3-.24c.07-.05.15-.1.04-.2-.04-.03-.04-.1-.03-.14zM21.7 29.73c.05-.01.14-.07.16.04s-.08.1-.14.13c-.2.09-.2.09-.3-.13l-.14-.35c-.04-.12-.09-.22-.24-.14-.05.02-.08 0-.1-.05s0-.08.05-.1l.44-.17c.04-.02.1-.02.12.03.04.06-.01.1-.06.11-.12.04-.1.11-.07.2l.14.35c.03.05.05.11.14.08zM20.26 30.37s0 .03-.02.04a.6.6 0 0 1-.3.09c-.1 0-.08-.11-.1-.18l-.13-.47c-.02-.08-.06-.13-.16-.09-.06.03-.12.01-.13-.06s.04-.08.1-.1l.41-.1c.05-.02.1-.03.12.03s0 .1-.07.11c-.14.02-.12.1-.1.2l.09.28c.02.12.04.23.2.16.06-.03.1.01.1.09zM16.44 30.2v-.24c0-.08 0-.13.1-.14s.1.06.1.13c0 .27.01.53.03.8 0 .1 0 .19.14.18.06 0 .08.04.07.1s-.03.06-.08.06c-.24 0-.34.03-.32-.27 0-.2-.06-.41-.04-.62zM2.74 16a13.24 13.24 0 1 1 13 13.22A13.24 13.24 0 0 1 2.74 16zm8.83 5.21a.18.18 0 0 1 .1-.2c.25-.17.5-.36.75-.5a4.87 4.87 0 0 0 1.72-1.84c.5-.85.9-1.75 1.32-2.64.67-1.47 1.27-2.98 2-4.42A9.53 9.53 0 0 1 19 9.2a2.41 2.41 0 0 1 1.06-.73.82.82 0 0 1 1.1.7 2.73 2.73 0 0 1-.02 1 9.19 9.19 0 0 1-1.18 2.93 5.75 5.75 0 0 1-1.49 1.79c-.09.06-.05.12-.01.18a1.75 1.75 0 0 0 .8.74 2.72 2.72 0 0 0 2.54-.19c.1-.05.06-.1 0-.15a.75.75 0 0 1-.25-.74c.02-.06-.02-.1-.04-.16a.82.82 0 0 1 .09-.8.38.38 0 0 0 .09-.38 2.58 2.58 0 0 1-.09-.73c-.01-.07 0-.12.08-.13.18-.04.35-.09.53-.12.6-.1 1.22-.02 1.81-.18.09-.02.13-.05.14-.14.03-.18.07-.36.09-.55a3.44 3.44 0 0 0-.52-2.35 3.33 3.33 0 0 0-2.21-1.47 6.8 6.8 0 0 0-5 .93 8.94 8.94 0 0 0-2.97 3.23 24.64 24.64 0 0 0-1.59 3.39c-.34.85-.66 1.72-.99 2.58-.22.57-.43 1.15-.7 1.71-.17.37-.3.76-.5 1.12-.05.11-.1.15-.23.1a4.17 4.17 0 0 0-1.94-.17 2.69 2.69 0 0 0-1.87 1.14 1.4 1.4 0 0 0 .36 2.01 2.91 2.91 0 0 0 1.3.55 4.13 4.13 0 0 0 3.06-.74.63.63 0 0 1 .45-.14c.3.03.6.04.9.08a25.06 25.06 0 0 1 2.45.53 13.54 13.54 0 0 0 1.4.28 4.79 4.79 0 0 0 2.68-.33 3.67 3.67 0 0 0 2.07-3.1c0-.06.05-.14-.01-.18s-.1.04-.15.07a4.28 4.28 0 0 1-2.79.53c-.85-.12-1.69-.34-2.54-.48a5.55 5.55 0 0 0-1.95-.05 5.64 5.64 0 0 0-1.4.42zm11-7.73c-.18.06-.34.05-.36.25s.15.17.26.24l-.25.05a.24.24 0 0 0-.22.26.57.57 0 0 0 .29.4c.03.02.07.02.06.08-.03.03-.08.02-.12.02-.16.03-.21.13-.1.24.24.24.33.61.67.79l.38.2a1.69 1.69 0 0 0 .63.25 2.23 2.23 0 0 1 .42.1.68.68 0 0 0 .59-.06 3.6 3.6 0 0 0 .64-.47.72.72 0 0 1 .24-.18 1.47 1.47 0 0 0 .53-.5.28.28 0 0 0 0-.41c-.06-.05-.04-.08.01-.1a.21.21 0 0 0 .12-.29.24.24 0 0 1 .08-.27c.04-.03.07-.13.05-.14-.18-.06-.08-.2-.1-.3-.02-.08-.08-.09-.13-.1s-.12-.07-.07-.13c.13-.16.01-.18-.1-.21a.78.78 0 0 1-.19-.09 1.3 1.3 0 0 0-.48-.17 4.44 4.44 0 0 1-1.04-.18.46.46 0 0 0-.38.02 1.16 1.16 0 0 1-.53.1 9.46 9.46 0 0 0-1.18.06c-.15.02-.17.06-.1.2a.8.8 0 0 0 .37.34zM4.08 20.34a.41.41 0 0 0 .44-.55c-.03-.11.03-.14.08-.19l4.6-4.62 7.98-7.97a.37.37 0 0 1 .28-.13h6.4a.2.2 0 0 1 .22.12.4.4 0 0 0 .48.18.41.41 0 0 0 0-.78.39.39 0 0 0-.47.18.21.21 0 0 1-.23.12h-6.44a.43.43 0 0 0-.34.14l-5.2 5.22-2.49 2.48-1.8 1.8-1.47 1.47-1.54 1.53c-.12.12-.22.27-.43.18a.28.28 0 0 0-.2.03.43.43 0 0 0-.22.47.42.42 0 0 0 .34.32zM3.1 16.7a.4.4 0 0 0 .24.3.38.38 0 0 0 .42-.04.37.37 0 0 0 .15-.42.22.22 0 0 1 .08-.25l11.9-11.91a.38.38 0 0 1 .3-.13l3.37.03a.2.2 0 0 1 .2.12.4.4 0 0 0 .46.19.4.4 0 0 0 .01-.78.38.38 0 0 0-.47.18.22.22 0 0 1-.23.12l-3.43-.03a.37.37 0 0 0-.29.12l-4.59 4.6-1.25 1.25L7.8 12.2l-2.68 2.68-1.26 1.26a.22.22 0 0 1-.26.07c-.26-.07-.5.14-.5.48zm7.32-5.39a.41.41 0 0 0-.43.44.4.4 0 0 0 .46.37.4.4 0 0 0 .34-.5.22.22 0 0 1 .07-.25l5.66-5.66a.38.38 0 0 1 .3-.13h5.36a.24.24 0 0 1 .24.13.39.39 0 0 0 .48.16.42.42 0 0 0 .27-.39.4.4 0 0 0-.29-.37.39.39 0 0 0-.47.17c-.05.12-.13.13-.24.13h-5.41a.41.41 0 0 0-.32.13q-1.73 1.75-3.48 3.48l-1.21 1.22-.86.86c-.14.13-.25.35-.47.21zm11 5.03l.06.06c.51.47.98.97 1.48 1.45a.36.36 0 0 1 .12.29v4.82a.37.37 0 0 1-.12.28l-4.6 4.6a.2.2 0 0 1-.24.08.39.39 0 0 0-.45.2.4.4 0 0 0 .06.46.41.41 0 0 0 .47.09.37.37 0 0 0 .21-.45.23.23 0 0 1 .1-.27l2.92-2.92 1.73-1.73a.32.32 0 0 0 .1-.25v-5a.35.35 0 0 0-.12-.27c-.47-.47-.95-.93-1.41-1.41a.2.2 0 0 0-.3-.03zm2.45.48c.15.15.28.29.43.42a.25.25 0 0 1 .08.2v6.23a.26.26 0 0 1-.08.2l-3.06 3.1a.2.2 0 0 1-.23.07.38.38 0 0 0-.47.24.4.4 0 0 0 .13.47.4.4 0 0 0 .47.02.37.37 0 0 0 .17-.43c-.06-.13 0-.19.08-.27l3.07-3.1a.34.34 0 0 0 .1-.26V17.4a.25.25 0 0 0-.02-.17.85.85 0 0 0-.67-.4zM11.14 6.9l-.12.12c-.6.58-1.18 1.17-1.76 1.75S8.1 9.93 7.53 10.52a.35.35 0 0 1-.27.11H5.23a.22.22 0 0 1-.23-.12.43.43 0 0 0-.65-.1.44.44 0 0 0-.08.47.38.38 0 0 0 .32.25.38.38 0 0 0 .42-.21.17.17 0 0 1 .2-.1h2.11a.34.34 0 0 0 .27-.1l3.78-3.78c.05-.05.1-.1.08-.18s-.12-.05-.18-.05H8.09c-.1 0-.18 0-.24-.12a.39.39 0 0 0-.46-.18.41.41 0 0 0 0 .78.39.39 0 0 0 .46-.18.21.21 0 0 1 .23-.13h2.89a.24.24 0 0 1 .17.03zm14.73 13.77h.02v-2.49c0-.15.05-.18.19-.18h1.67a.18.18 0 0 1 .19.11.35.35 0 0 0 .36.21.41.41 0 0 0 .17-.79.4.4 0 0 0-.52.16.22.22 0 0 1-.22.12h-1.8c-.22 0-.23 0-.23.24v5.08a.17.17 0 0 1-.1.17.4.4 0 0 0-.21.47.41.41 0 0 0 .4.3.41.41 0 0 0 .2-.77c-.06-.03-.11-.04-.11-.13v-2.5zm-7.57 3.88h1.55a.26.26 0 0 0 .19-.1l1.8-1.83a.3.3 0 0 0 .1-.23v-3.72a.3.3 0 0 0-.1-.24l-.93-.85a.21.21 0 0 1-.09-.24.38.38 0 0 0-.2-.44.41.41 0 0 0-.47.07.4.4 0 0 0-.05.52.33.33 0 0 0 .48.15c.08-.05.12 0 .18.04l.9.82a.32.32 0 0 1 .11.27v3.46a.47.47 0 0 1-.15.37l-1.68 1.7a.25.25 0 0 1-.2.08h-.98a.75.75 0 0 0-.46.17zM3.73 18.78a.4.4 0 0 0 .4-.49.24.24 0 0 1 .1-.27l4.8-4.82a.3.3 0 0 1 .33-.12.36.36 0 0 0 .43-.23.45.45 0 0 0-.1-.47.46.46 0 0 0-.48-.04.39.39 0 0 0-.19.44.2.2 0 0 1-.05.23l-2.85 2.83-2.05 2.05a.23.23 0 0 1-.26.09.35.35 0 0 0-.41.15.38.38 0 0 0-.04.42.4.4 0 0 0 .37.23zm2.15-6.65a.48.48 0 0 1-.04.06l-1.9 1.87a.28.28 0 0 1-.29.08.4.4 0 0 0-.49.37.42.42 0 0 0 .41.45.38.38 0 0 0 .4-.43.39.39 0 0 1 .17-.4l.21-.2 1.76-1.73c.06-.06.14-.12.1-.2s-.12-.05-.19-.05l-1.32-.01a.2.2 0 0 1-.2-.11.38.38 0 0 0-.38-.2.41.41 0 1 0 .38.62c.03-.04.02-.11.1-.11h1.28zM7.82 8.2l.03.06-1.04 1.02a.22.22 0 0 1-.18.04h-.78a.2.2 0 0 1-.22-.12.4.4 0 0 0-.76.22.4.4 0 0 0 .76.2.19.19 0 0 1 .2-.1h.86a.3.3 0 0 0 .23-.1L8.1 8.22c.05-.04.1-.1.08-.16C8.15 7.98 8.06 8 8 8H6.82a.18.18 0 0 1-.2-.1.4.4 0 0 0-.47-.2.4.4 0 0 0-.3.38.41.41 0 0 0 .78.21c.03-.04.03-.1.1-.1h1.1zm8.88 6.21a.83.83 0 0 0-.18.48v5.74c0 .04.02.06.06.06s.09.03.1 0a.42.42 0 0 0 .02-.15v-6.13zm1.88 11.78a.7.7 0 0 0 .14-.02.45.45 0 0 0 .24-.53.41.41 0 0 0-.5-.25.39.39 0 0 0-.28.47.23.23 0 0 1-.09.27l-1.84 1.82c-.09.09-.15.14-.3.1a.38.38 0 0 0-.43.2.4.4 0 0 0 .55.54.38.38 0 0 0 .2-.43.23.23 0 0 1 .09-.27l1.7-1.68c.16-.15.28-.37.52-.22zm-.85-1.45a.51.51 0 0 0-.4.15l-2.89 2.93a.24.24 0 0 1-.28.09.37.37 0 0 0-.43.2.4.4 0 0 0 .08.48.41.41 0 0 0 .47.06.38.38 0 0 0 .2-.44.23.23 0 0 1 .07-.26l2.84-2.86c.12-.1.22-.22.35-.35zM11.9 13.98c-.09.1-.15.18-.22.24L8.8 17.1a.36.36 0 0 0-.13.27v2.62c0 .08-.02.16.1.16s.07-.1.07-.15v-2.5a.39.39 0 0 1 .12-.3l2.65-2.64a.9.9 0 0 0 .3-.58zm15.04 6.33v.84c0 .16.03.33-.18.4-.02 0-.04.03-.06.06a.41.41 0 1 0 .67.48.42.42 0 0 0-.1-.58c-.07-.04-.15-.05-.15-.15v-1.92c0-.04 0-.1.05-.1a3.25 3.25 0 0 1 .38 0c.08 0 .07.1.1.14a.42.42 0 1 0 .64-.54.4.4 0 0 0-.6.03.34.34 0 0 1-.38.17h-.21c-.12 0-.17.05-.16.17v1zm-11.17 4.57c-.19-.1-.27-.06-.35.03l-2.56 2.58a.2.2 0 0 1-.23.08.38.38 0 0 0-.46.2.4.4 0 0 0 .55.54.39.39 0 0 0 .2-.46.2.2 0 0 1 .07-.23l2.3-2.31c.13-.14.3-.28.48-.43zm-.75-21.32a.4.4 0 1 0-.8.06.43.43 0 0 1-.42.48H12.2a.19.19 0 0 1-.2-.12.38.38 0 0 0-.46-.2.42.42 0 0 0-.3.4.42.42 0 0 0 .3.4.4.4 0 0 0 .46-.2.17.17 0 0 1 .18-.11c.5 0 1-.02 1.48 0a.66.66 0 0 0 .64-.26.2.2 0 0 1 .24-.07.39.39 0 0 0 .49-.38zM11.46 24.9v-.82c0-.06 0-.12-.1-.13-.1 0-.07.08-.07.14v1.44c0 .13-.04.16-.17.16H8.85a.2.2 0 0 1-.22-.13.39.39 0 0 0-.46-.18.4.4 0 0 0-.3.39.4.4 0 0 0 .3.4.38.38 0 0 0 .46-.19.2.2 0 0 1 .22-.11h2.41c.16 0 .2-.05.2-.2v-.77zm1.26.1h.01v-.7c0-.1-.03-.14-.12-.14-.1 0-.05.09-.05.13l-.01 1.3a.32.32 0 0 1-.1.25l-1.08 1.08a.26.26 0 0 1-.27.09.39.39 0 0 0-.43.22.41.41 0 0 0 .09.47.4.4 0 0 0 .48.06.37.37 0 0 0 .19-.44.23.23 0 0 1 .08-.27l1.06-1.08a.46.46 0 0 0 .16-.38c-.02-.19 0-.39 0-.58zm5.12-10.04v5.84c0 .06.02.08.08.08s.09 0 .09-.07v-.09-5.3a.9.9 0 0 0-.18-.46zM9.19 5.9a.36.36 0 0 0 .35-.19.2.2 0 0 1 .22-.12h2.55a.52.52 0 0 1 .19.02c.05.02.12.05.17-.02a.13.13 0 0 0 0-.14c-.03-.06-.1-.03-.15-.03H9.8c-.13 0-.22 0-.3-.15a.39.39 0 0 0-.5-.13.4.4 0 0 0 .19.77zm17.7 10.83h1a.2.2 0 0 1 .21.11.38.38 0 0 0 .47.18.4.4 0 0 0 .3-.4.4.4 0 0 0-.3-.39.39.39 0 0 0-.47.19.21.21 0 0 1-.22.11h-1.79c-.15 0-.3.03-.4-.13-.03-.05-.08-.03-.12 0s-.08.06-.04.1c.1.1.16.24.34.23h1.02zM6.06 20.28v.33c0 .03-.02.09.02.1s.08-.03.1-.04c.07-.04.06-.09.06-.14v-.49a.23.23 0 0 1 .08-.18l1.15-1.16a.18.18 0 0 1 .2-.06.4.4 0 0 0 .47-.2.42.42 0 0 0-.07-.48.42.42 0 0 0-.52-.05.36.36 0 0 0-.15.46.19.19 0 0 1-.07.22c-.32.31-.63.64-.95.94a.74.74 0 0 0-.32.75zm22.19-8.24a.4.4 0 0 0-.28-.4.38.38 0 0 0-.47.17.24.24 0 0 1-.25.13H24.73c-.06 0-.12 0-.11.1s.05.09.12.08H27.25a.22.22 0 0 1 .24.13.39.39 0 0 0 .46.18.4.4 0 0 0 .3-.39zm-9.32 4.16c.04.05.05.09.07.1.18.05.15.18.15.32v3.95c0 .05-.05.14.06.14s.12-.06.11-.15v-.47-3.57c0-.06.04-.14-.06-.18l-.33-.14zm.2-2.8a.38.38 0 0 0 .19-.37c-.02-.83-.02-1.66-.03-2.5V9.6a.35.35 0 0 0-.18.32l.02 2.1v1.39zm7.9-3.96a.4.4 0 0 0-.76-.24.2.2 0 0 1-.22.12h-1.58c-.04 0-.11-.02-.12.04a.13.13 0 0 0 .1.15.71.71 0 0 0 .14 0h1.44a.23.23 0 0 1 .25.13.38.38 0 0 0 .44.17.4.4 0 0 0 .3-.37zm.28 1.69a.4.4 0 0 0 .4-.3.41.41 0 0 0-.2-.47.36.36 0 0 0-.48.09c-.1.2-.27.18-.44.18h-1.77c-.04 0-.1-.02-.11.04a.15.15 0 0 0 .02.12c.03.04.1.02.14.02h1.88c.1 0 .17.01.22.12a.36.36 0 0 0 .34.2zM23.29 8a.25.25 0 0 0 .28.2h1.48c.12 0 .22 0 .3.13a.39.39 0 0 0 .6.07.4.4 0 0 0 .01-.59.39.39 0 0 0-.6.03A.34.34 0 0 1 25 8h-.33zm5.58 7.3a.4.4 0 0 0-.29-.4.38.38 0 0 0-.45.15.27.27 0 0 1-.3.15h-.94c-.1 0-.2.02-.2.13s.12.06.18.06h.99a.23.23 0 0 1 .25.13.38.38 0 0 0 .47.17.4.4 0 0 0 .29-.39zM15.39 17.3a.67.67 0 0 0-.17.37v2.62c0 .1.02.16.12.15s.05-.1.05-.15v-2.84zm2.62-5.74a.8.8 0 0 0-.18.54v2.42a.34.34 0 0 0 .02.19c.09-.04.16-.07.16-.19v-2.96zm8.73 1.65c.1.13.19.22.31.2.18-.02.36 0 .54 0a.23.23 0 0 1 .25.12.4.4 0 0 0 .47.17.42.42 0 0 0-.02-.8.39.39 0 0 0-.46.2.2.2 0 0 1-.23.12h-.86zm-6.3 6.85c.17-.02.2-.11.19-.23 0-.2-.02-.36.19-.49a.38.38 0 0 0 0-.58.41.41 0 0 0-.57.02.38.38 0 0 0 .03.58c.17.1.17.22.17.37v.33zM9.99 18.93a.94.94 0 0 0 .18-.52c0-.02 0-.07.02-.08.18-.1.17-.3.25-.44a.18.18 0 0 0-.04-.22.39.39 0 0 0-.42-.14.37.37 0 0 0-.3.31.35.35 0 0 0 .18.42c.13.06.14.15.14.26v.41zm4.4 6.17a.35.35 0 0 0-.16-.3c-.09-.05-.15-.1-.14-.22.01-.08-.05-.08-.1-.09s-.08.04-.07.08c.02.12-.05.16-.14.21a.4.4 0 0 0-.16.5.4.4 0 0 0 .45.25.42.42 0 0 0 .33-.43zm-9.93-3.47a.4.4 0 0 0 .43.42c.1-.01.2-.03.22-.14a.99.99 0 0 1 .13-.26.16.16 0 0 0 .02-.16.43.43 0 0 0-.46-.26.4.4 0 0 0-.34.4zM19.37 9.5h1.23c.08 0 .08-.04.08-.1 0-.07-.04-.08-.1-.08h-.9a.32.32 0 0 0-.31.18zm1.4 12.01a.21.21 0 0 0 0 .2.25.25 0 0 1-.12.37c-.03.02-.07.03-.08.08-.01.03-.08.03-.04.08a.08.08 0 0 0 .1.03.49.49 0 0 0 .3-.33.39.39 0 0 0-.16-.43zm-6.7-1.9c-.24.17-.16.38-.17.58 0 .06.06.06.1.06s.07-.03.07-.08v-.56zm-7.6 4.95a.34.34 0 0 0 .29.3.31.31 0 0 0 .35-.09c-.11-.08-.23-.02-.33-.05s-.16-.16-.3-.16zm3.24-.04v.03h.33a.1.1 0 0 0 .12-.09c0-.04.02-.09-.02-.11s-.08.02-.12.03l-.31.14zm-2.59-4.3l.55-.1a.38.38 0 0 0-.55.1z" transform="translate(-.21 -.24)"/><path class="cls-3" d="M11.57 21.21a5.64 5.64 0 0 1 1.4-.4 5.55 5.55 0 0 1 1.94.04c.86.14 1.7.36 2.55.48a4.28 4.28 0 0 0 2.78-.53c.05-.02.1-.1.15-.06s.02.12.01.17a3.67 3.67 0 0 1-2.07 3.1 4.79 4.79 0 0 1-2.67.33 13.54 13.54 0 0 1-1.4-.28 25.06 25.06 0 0 0-2.46-.52l-.9-.09a.63.63 0 0 0-.44.14 4.13 4.13 0 0 1-3.07.75 2.91 2.91 0 0 1-1.3-.55 1.4 1.4 0 0 1-.36-2.01 2.69 2.69 0 0 1 1.88-1.15 4.17 4.17 0 0 1 1.93.18c.14.04.18 0 .24-.1.19-.37.33-.75.5-1.12.26-.56.47-1.14.7-1.72.32-.86.64-1.72.98-2.58a24.64 24.64 0 0 1 1.6-3.39 8.94 8.94 0 0 1 2.96-3.22 6.8 6.8 0 0 1 5-.93 3.33 3.33 0 0 1 2.22 1.45 3.44 3.44 0 0 1 .51 2.34c-.01.19-.05.37-.08.55-.01.1-.06.12-.14.14-.6.16-1.21.07-1.8.18-.19.03-.37.08-.54.12-.08.01-.1.06-.08.13a2.58 2.58 0 0 0 .09.73.38.38 0 0 1-.08.39.82.82 0 0 0-.1.8c.03.05.07.1.05.15a.75.75 0 0 0 .25.74c.06.06.1.1 0 .16a2.72 2.72 0 0 1-2.55.18 1.75 1.75 0 0 1-.8-.74c-.03-.06-.07-.12.02-.18a5.75 5.75 0 0 0 1.5-1.79 9.19 9.19 0 0 0 1.17-2.94 2.73 2.73 0 0 0 .02-1 .82.82 0 0 0-1.1-.69A2.41 2.41 0 0 0 19 9.2a9.53 9.53 0 0 0-1.54 2.4c-.74 1.44-1.33 2.95-2 4.42-.41.9-.83 1.79-1.33 2.64a4.87 4.87 0 0 1-1.72 1.84c-.26.15-.5.34-.74.5a.18.18 0 0 0-.11.21z" transform="translate(-.21 -.24)"/><path class="cls-3" d="M22.56 13.48a.8.8 0 0 1-.36-.34c-.08-.14-.06-.19.1-.2a9.46 9.46 0 0 1 1.17-.07 1.16 1.16 0 0 0 .53-.09.46.46 0 0 1 .37-.02 4.44 4.44 0 0 0 1.04.17 1.3 1.3 0 0 1 .49.18.78.78 0 0 0 .18.09c.12.03.23.04.1.2-.04.06.02.1.07.13s.12.03.13.1c.03.1-.07.25.1.3.03.02 0 .12-.04.15a.24.24 0 0 0-.08.27.21.21 0 0 1-.12.29c-.05.02-.07.05-.02.1a.28.28 0 0 1 0 .4 1.47 1.47 0 0 1-.53.5.72.72 0 0 0-.23.19 3.6 3.6 0 0 1-.64.46.68.68 0 0 1-.59.06 2.23 2.23 0 0 0-.43-.1 1.69 1.69 0 0 1-.62-.24l-.38-.2c-.34-.18-.43-.55-.68-.8-.1-.1-.05-.2.11-.23.04 0 .08.01.11-.03.02-.05-.03-.05-.06-.06a.57.57 0 0 1-.28-.4.24.24 0 0 1 .21-.27l.25-.05c-.1-.07-.26-.05-.25-.24s.18-.19.35-.25zM4.08 20.34a.42.42 0 0 1-.34-.32.43.43 0 0 1 .21-.47.28.28 0 0 1 .2-.03c.21.09.32-.06.44-.18l1.53-1.53 1.48-1.47 1.8-1.8 2.49-2.48 5.2-5.21a.43.43 0 0 1 .34-.14h6.44a.21.21 0 0 0 .23-.12.39.39 0 0 1 .47-.18.41.41 0 0 1 0 .78.4.4 0 0 1-.48-.19.2.2 0 0 0-.21-.12h-6.4a.37.37 0 0 0-.29.13l-7.97 7.97-4.6 4.62c-.06.05-.12.08-.1.18a.41.41 0 0 1-.43.56zm.07-.67a.28.28 0 0 0-.27.25.26.26 0 0 0 .25.26.25.25 0 0 0 .27-.25.26.26 0 0 0-.25-.26zM24.7 6.8a.26.26 0 0 0-.25-.26.27.27 0 0 0-.26.28.26.26 0 0 0 .27.24.25.25 0 0 0 .24-.26z" transform="translate(-.21 -.24)"/><path class="cls-3" d="M3.1 16.7c0-.35.24-.56.5-.49a.22.22 0 0 0 .25-.07q.63-.64 1.27-1.26L7.8 12.2l2.17-2.17 1.25-1.25 4.6-4.6a.37.37 0 0 1 .29-.12l3.42.03a.22.22 0 0 0 .24-.12.38.38 0 0 1 .47-.17.4.4 0 0 1-.02.77.4.4 0 0 1-.46-.18.2.2 0 0 0-.2-.13l-3.37-.02a.38.38 0 0 0-.3.12Q9.95 10.32 4 16.27a.22.22 0 0 0-.07.26.37.37 0 0 1-.15.41.38.38 0 0 1-.43.05.4.4 0 0 1-.24-.3zM20.11 4.44a.26.26 0 0 0 .26-.27.27.27 0 0 0-.26-.26.26.26 0 1 0 0 .53zM3.77 16.6a.26.26 0 0 0-.26-.25.26.26 0 0 0-.24.27.25.25 0 0 0 .5-.02z" transform="translate(-.21 -.24)"/><path class="cls-3" d="M10.42 11.3c.22.14.33-.08.47-.21l.86-.86 1.21-1.22 3.48-3.47a.41.41 0 0 1 .32-.13h5.41c.11 0 .19-.01.25-.13a.39.39 0 0 1 .46-.18.4.4 0 0 1 .29.38.42.42 0 0 1-.27.39.39.39 0 0 1-.47-.16.24.24 0 0 0-.25-.13h-5.36a.38.38 0 0 0-.3.13l-5.66 5.65a.22.22 0 0 0-.07.26.4.4 0 0 1-.34.5.4.4 0 0 1-.46-.38.41.41 0 0 1 .43-.44zm-.03.14a.27.27 0 0 0-.25.28.27.27 0 0 0 .27.25.27.27 0 0 0 .25-.27.28.28 0 0 0-.27-.26zm12.37-6.2a.26.26 0 1 0 0 .5.26.26 0 1 0 0-.5zM21.42 16.33a.2.2 0 0 1 .3.03l1.42 1.42a.35.35 0 0 1 .11.27v5a.32.32 0 0 1-.1.24c-.57.58-1.14 1.17-1.72 1.74-.98.96-1.95 1.95-2.93 2.92a.23.23 0 0 0-.1.26.37.37 0 0 1-.2.45.41.41 0 0 1-.47-.08.4.4 0 0 1-.07-.47.39.39 0 0 1 .46-.2.2.2 0 0 0 .23-.07l4.6-4.6a.37.37 0 0 0 .13-.29q-.01-2.41 0-4.82a.36.36 0 0 0-.13-.29c-.5-.47-.96-.98-1.47-1.44l-.06-.07zM18.3 28.3a.27.27 0 0 0-.26-.28.27.27 0 0 0-.27.27.26.26 0 0 0 .53 0z" transform="translate(-.21 -.24)"/><path class="cls-3" d="M23.87 16.81a.85.85 0 0 1 .67.4.25.25 0 0 1 .03.18v6.31a.34.34 0 0 1-.11.26l-3.07 3.1c-.08.08-.14.14-.08.27a.37.37 0 0 1-.18.43.4.4 0 0 1-.47-.02.4.4 0 0 1-.12-.47.38.38 0 0 1 .47-.24.2.2 0 0 0 .23-.07l3.06-3.1a.26.26 0 0 0 .08-.2v-6.23a.25.25 0 0 0-.08-.2l-.43-.42zM20.92 27.7a.27.27 0 0 0 .26-.28.26.26 0 0 0-.26-.25.27.27 0 0 0-.27.26.28.28 0 0 0 .27.27zM11.14 6.9a.24.24 0 0 0-.17-.02H8.1a.21.21 0 0 0-.24.13.39.39 0 0 1-.46.18.41.41 0 0 1 0-.78.39.39 0 0 1 .47.18c.05.11.13.12.23.12h3.18c.07 0 .15-.03.18.05s-.03.13-.08.18l-3.78 3.78a.34.34 0 0 1-.26.1H5.2a.17.17 0 0 0-.2.1.38.38 0 0 1-.42.2.38.38 0 0 1-.32-.25.44.44 0 0 1 .09-.45.43.43 0 0 1 .64.1.22.22 0 0 0 .22.11h2.04a.35.35 0 0 0 .27-.12l1.73-1.73 1.76-1.75.12-.12zm-3.64.15a.26.26 0 0 0 .27-.26.28.28 0 0 0-.26-.25.27.27 0 0 0-.26.26.26.26 0 0 0 .25.25zm-2.85 3.42a.26.26 0 1 0 .26.25.26.26 0 0 0-.26-.25zM25.87 20.68v2.5c0 .09.06.1.11.13a.41.41 0 0 1-.2.77.41.41 0 0 1-.4-.3.4.4 0 0 1 .21-.47.17.17 0 0 0 .1-.17v-.87l.01-4.21c0-.23 0-.23.24-.23l1.79-.01a.22.22 0 0 0 .22-.12.4.4 0 0 1 .52-.16.41.41 0 0 1-.18.8.35.35 0 0 1-.35-.22.18.18 0 0 0-.2-.1h-1.66c-.14 0-.2.02-.19.17v2.49zm.16 3a.27.27 0 0 0-.25-.26.27.27 0 0 0-.26.25.27.27 0 0 0 .27.26.26.26 0 0 0 .25-.26zm2.27-5.5a.26.26 0 0 0 .24-.26.25.25 0 0 0-.25-.25.26.26 0 0 0-.25.26.27.27 0 0 0 .26.25zM18.3 24.56a.75.75 0 0 1 .46-.17h.97a.25.25 0 0 0 .2-.08l1.69-1.7a.47.47 0 0 0 .15-.37v-3.46a.32.32 0 0 0-.12-.27l-.9-.82c-.05-.05-.1-.09-.18-.05a.33.33 0 0 1-.47-.14.4.4 0 0 1 .05-.53.41.41 0 0 1 .47-.06.38.38 0 0 1 .2.43.21.21 0 0 0 .09.25l.92.84a.3.3 0 0 1 .11.24v3.72a.3.3 0 0 1-.1.24l-1.8 1.83a.26.26 0 0 1-.2.1H18.3zm2.4-7.3a.27.27 0 0 0-.28-.26.26.26 0 0 0 0 .53.27.27 0 0 0 .27-.27zM3.73 18.78a.4.4 0 0 1-.37-.23.38.38 0 0 1 .04-.42.35.35 0 0 1 .4-.15.23.23 0 0 0 .28-.09c.67-.69 1.36-1.37 2.04-2.05L8.97 13a.2.2 0 0 0 .06-.23.39.39 0 0 1 .18-.44.46.46 0 0 1 .49.04.45.45 0 0 1 .09.47.36.36 0 0 1-.43.23.3.3 0 0 0-.34.12l-4.8 4.82a.24.24 0 0 0-.09.27.4.4 0 0 1-.4.5zm0-.66a.26.26 0 0 0-.25.24.27.27 0 0 0 .24.27.25.25 0 0 0 .26-.25.24.24 0 0 0-.24-.26zm5.68-5.7a.26.26 0 0 0-.25.26.25.25 0 0 0 .26.26.26.26 0 0 0 .26-.24.27.27 0 0 0-.27-.27zM5.88 12.13H4.6c-.08 0-.08.07-.1.12a.41.41 0 1 1-.38-.63.38.38 0 0 1 .37.2.2.2 0 0 0 .2.12h1.33c.07 0 .15-.03.19.05s-.04.15-.1.2l-1.76 1.74-.21.2a.39.39 0 0 0-.16.4.38.38 0 0 1-.41.43.42.42 0 0 1-.4-.45.4.4 0 0 1 .48-.37.28.28 0 0 0 .3-.09l1.9-1.86a.48.48 0 0 0 .03-.06zm-2.3 2.67a.26.26 0 0 0 .25-.26.25.25 0 0 0-.25-.24.26.26 0 0 0-.25.25.26.26 0 0 0 .26.25zm.57-3.01a.26.26 0 0 0-.27.24.28.28 0 0 0 .25.27.26.26 0 0 0 .27-.25.25.25 0 0 0-.25-.27z" transform="translate(-.21 -.24)"/><path class="cls-3" d="M7.82 8.2H6.74c-.08 0-.08.05-.11.1a.41.41 0 0 1-.77-.2.4.4 0 0 1 .29-.39.4.4 0 0 1 .47.2.18.18 0 0 0 .2.1H8c.06 0 .15-.02.18.06.02.07-.03.12-.08.17L6.92 9.42a.3.3 0 0 1-.23.1h-.87a.19.19 0 0 0-.2.1.4.4 0 0 1-.75-.2.4.4 0 0 1 .76-.21.2.2 0 0 0 .22.12h.78a.22.22 0 0 0 .18-.05l1.04-1.02zm-1.3-.1a.26.26 0 0 0-.25-.25.27.27 0 0 0-.26.27.27.27 0 0 0 .27.24.26.26 0 0 0 .24-.26zm-.98 1.31a.26.26 0 0 0-.27-.24.25.25 0 0 0-.24.25.26.26 0 0 0 .5 0zM16.7 14.41v6.13a.42.42 0 0 1-.02.15c-.01.04-.06 0-.1 0s-.06-.02-.06-.06v-.13-5.62a.83.83 0 0 1 .18-.47zM18.58 26.19c-.24-.15-.36.07-.5.21l-1.71 1.69a.23.23 0 0 0-.09.26.38.38 0 0 1-.2.44.4.4 0 0 1-.55-.54.38.38 0 0 1 .44-.2c.14.04.2-.01.3-.1l1.84-1.82a.23.23 0 0 0 .08-.27.39.39 0 0 1 .28-.47.41.41 0 0 1 .5.25.45.45 0 0 1-.24.53.7.7 0 0 1-.15.02zm-2.7 1.98a.26.26 0 1 0 .01.53.28.28 0 0 0 .26-.26.27.27 0 0 0-.27-.27zm2.7-2.65a.26.26 0 0 0-.27.26.28.28 0 0 0 .26.27.27.27 0 0 0 .26-.26.25.25 0 0 0-.24-.27zM17.74 24.74l-.34.35-2.84 2.87a.23.23 0 0 0-.08.25.38.38 0 0 1-.19.44.41.41 0 0 1-.47-.06.4.4 0 0 1-.09-.47.37.37 0 0 1 .44-.21.24.24 0 0 0 .28-.1l2.89-2.92a.51.51 0 0 1 .4-.15zm-3.64 3.82a.26.26 0 0 0 .26-.27.27.27 0 0 0-.26-.26.28.28 0 0 0-.27.27.27.27 0 0 0 .27.26zM11.9 13.98a.9.9 0 0 1-.28.57c-.89.87-1.76 1.76-2.65 2.64a.39.39 0 0 0-.12.3v2.5c0 .05.06.15-.07.15s-.1-.08-.1-.16v-2.62a.36.36 0 0 1 .12-.26l2.88-2.88c.07-.06.13-.14.22-.24zM26.94 20.31v-1c0-.13.04-.18.16-.17h.21a.34.34 0 0 0 .39-.18.4.4 0 0 1 .6-.03.42.42 0 1 1-.63.55c-.04-.05-.04-.14-.11-.14a3.25 3.25 0 0 0-.39 0c-.05 0-.04.06-.04.1v1.91c0 .1.08.11.14.15a.42.42 0 0 1 .1.59.41.41 0 1 1-.66-.49c.02-.02.03-.05.06-.06.21-.07.18-.24.18-.4v-.83zm1.07-.83a.25.25 0 1 0-.03-.5.25.25 0 0 0-.23.26.25.25 0 0 0 .26.24zm-.72 2.38a.26.26 0 0 0-.51-.02.24.24 0 0 0 .24.26.25.25 0 0 0 .27-.24zM15.77 24.88l-.5.43-2.29 2.3a.2.2 0 0 0-.07.25.39.39 0 0 1-.2.45.4.4 0 0 1-.54-.54.38.38 0 0 1 .45-.2.2.2 0 0 0 .24-.07l2.56-2.59c.08-.09.16-.12.35-.03zm-2.98 3.08a.26.26 0 0 0-.26-.27.27.27 0 0 0-.26.26.27.27 0 0 0 .25.27.26.26 0 0 0 .27-.26zM15.02 3.56a.39.39 0 0 1-.5.39.2.2 0 0 0-.23.06.66.66 0 0 1-.63.27c-.5-.03-.99 0-1.48-.01a.17.17 0 0 0-.19.1.4.4 0 0 1-.46.2.42.42 0 0 1-.3-.4.42.42 0 0 1 .3-.38.38.38 0 0 1 .46.2.19.19 0 0 0 .2.11h1.62a.43.43 0 0 0 .41-.48.4.4 0 1 1 .8-.06zm-.14.01a.26.26 0 1 0-.52-.02.26.26 0 0 0 .52.02zm-3.25.88a.27.27 0 0 0 .27-.27.27.27 0 0 0-.26-.26.26.26 0 0 0-.26.25.27.27 0 0 0 .25.28zM11.46 24.91v.77c0 .15-.05.2-.2.2H8.84a.2.2 0 0 0-.21.11.38.38 0 0 1-.47.18.4.4 0 0 1-.28-.39.4.4 0 0 1 .29-.39.39.39 0 0 1 .46.19.2.2 0 0 0 .21.12h2.28c.13 0 .17-.03.17-.16V24.1c0-.06-.04-.14.07-.13.1 0 .1.06.1.13v.81zm-3.17.61a.26.26 0 0 0-.26.25.27.27 0 0 0 .26.27.26.26 0 0 0 .26-.27.25.25 0 0 0-.26-.25zM12.72 25.02v.59a.46.46 0 0 1-.16.38l-1.06 1.07a.23.23 0 0 0-.08.27.37.37 0 0 1-.19.44.4.4 0 0 1-.48-.06.41.41 0 0 1-.08-.46.39.39 0 0 1 .42-.23.26.26 0 0 0 .28-.09l1.07-1.08a.32.32 0 0 0 .1-.24l.01-1.3c0-.05-.04-.13.06-.13.08 0 .12.04.12.13v.71zm-1.69 2.14a.26.26 0 1 0 .27.26.26.26 0 0 0-.27-.26zM17.84 14.97a.9.9 0 0 1 .17.45V20.82c0 .06-.04.07-.1.07s-.08-.02-.07-.08v-5.84zM9.2 5.9A.4.4 0 0 1 9 5.12a.39.39 0 0 1 .5.13c.07.14.17.15.3.15h2.7c.06 0 .13-.03.16.03a.13.13 0 0 1 0 .13c-.05.07-.13.05-.18.03a.52.52 0 0 0-.19-.02H9.75a.2.2 0 0 0-.22.12.36.36 0 0 1-.34.2zm.25-.4a.25.25 0 0 0-.25-.26.26.26 0 1 0-.02.5.25.25 0 0 0 .27-.25zM26.9 16.72h-1.03c-.18 0-.24-.14-.34-.23-.04-.04.01-.07.04-.1s.08-.05.12 0c.1.16.25.13.4.13h1.79a.21.21 0 0 0 .22-.12.39.39 0 0 1 .47-.18.4.4 0 0 1 .3.4.4.4 0 0 1-.3.4.38.38 0 0 1-.47-.19.2.2 0 0 0-.22-.11h-1zm1.8-.1a.23.23 0 0 0-.25-.24.24.24 0 0 0-.25.24.26.26 0 0 0 .24.25.24.24 0 0 0 .26-.26zM6.06 20.28a.74.74 0 0 1 .31-.75c.33-.3.64-.63.95-.95a.19.19 0 0 0 .07-.22.36.36 0 0 1 .15-.45.42.42 0 0 1 .53.05.42.42 0 0 1 .07.49.4.4 0 0 1-.47.19.18.18 0 0 0-.2.06l-1.15 1.16a.23.23 0 0 0-.08.18v.49c0 .05 0 .1-.05.14-.03.01-.06.06-.1.04s-.03-.07-.03-.1v-.33zm1.7-1.77a.25.25 0 0 0 .28-.25.26.26 0 0 0-.52-.03.26.26 0 0 0 .24.28zM28.25 12.04a.4.4 0 0 1-.3.4.39.39 0 0 1-.46-.19.22.22 0 0 0-.23-.12h-2.52c-.06 0-.11 0-.12-.09s.05-.09.11-.09H27.25a.24.24 0 0 0 .25-.14.38.38 0 0 1 .47-.16.4.4 0 0 1 .28.4zm-.16 0a.25.25 0 0 0-.25-.25.26.26 0 0 0-.26.25.28.28 0 0 0 .25.26.26.26 0 0 0 .26-.26zM18.93 16.2l.33.14c.1.04.06.12.06.18v4.04c0 .09-.02.16-.11.15s-.06-.1-.06-.14v-3.95c0-.14.03-.27-.15-.33-.02 0-.03-.03-.07-.09zM19.12 13.4v-1.39l-.01-2.1a.35.35 0 0 1 .18-.32v.94c0 .84.01 1.67.03 2.5a.38.38 0 0 1-.2.37zM27.03 9.44a.4.4 0 0 1-.31.38.38.38 0 0 1-.43-.17.23.23 0 0 0-.25-.13h-1.45a.71.71 0 0 1-.14 0 .13.13 0 0 1-.1-.15c0-.06.08-.04.12-.04h1.58a.2.2 0 0 0 .22-.12.4.4 0 0 1 .76.24zm-.42-.27a.24.24 0 0 0-.24.25.24.24 0 0 0 .26.25.26.26 0 0 0 .24-.26.25.25 0 0 0-.26-.24zM27.31 11.13a.36.36 0 0 1-.34-.2c-.05-.1-.12-.12-.22-.11h-1.88c-.05 0-.1.02-.14-.03a.15.15 0 0 1-.02-.11c.01-.07.07-.04.11-.05h1.78c.17 0 .32.03.43-.18a.36.36 0 0 1 .49-.09.41.41 0 0 1 .2.47.4.4 0 0 1-.4.3zm.26-.4a.25.25 0 0 0-.24-.26.26.26 0 1 0 0 .51.25.25 0 0 0 .24-.25zM23.3 8.01H25a.34.34 0 0 0 .37-.16.39.39 0 0 1 .59-.03.4.4 0 0 1-.01.59.39.39 0 0 1-.6-.07c-.09-.14-.18-.14-.3-.14h-1.48a.25.25 0 0 1-.28-.19zm2.38.36a.27.27 0 0 0 .25-.27.26.26 0 1 0-.25.27zM28.87 15.31a.4.4 0 0 1-.3.39.38.38 0 0 1-.46-.17.23.23 0 0 0-.25-.13h-.99c-.06 0-.17.07-.17-.05s.09-.14.2-.14h.93a.27.27 0 0 0 .3-.15.38.38 0 0 1 .46-.15.4.4 0 0 1 .28.4zm-.17 0a.25.25 0 0 0-.25-.25.26.26 0 0 0-.25.25.25.25 0 0 0 .5 0zM15.4 17.3V20.29c0 .05.04.14-.06.15s-.12-.06-.12-.15v-2.62a.67.67 0 0 1 .17-.37zM18 11.56v2.96c0 .12-.06.15-.14.19a.34.34 0 0 1-.03-.2v-2.4a.8.8 0 0 1 .18-.55zM26.74 13.21h.86a.2.2 0 0 0 .23-.12.39.39 0 0 1 .46-.19.42.42 0 0 1 .02.8.4.4 0 0 1-.47-.17.23.23 0 0 0-.25-.13l-.54.01c-.12.02-.2-.07-.31-.2zm1.43-.16a.26.26 0 0 0-.24.26.26.26 0 0 0 .26.25.26.26 0 0 0-.02-.51zM20.45 20.06v-.33c0-.15 0-.27-.17-.37a.38.38 0 0 1-.03-.58.41.41 0 0 1 .57-.02.38.38 0 0 1 0 .58c-.21.13-.2.3-.2.49.01.12 0 .21-.17.23zm.35-1a.25.25 0 0 0-.27-.26.26.26 0 0 0-.25.27.27.27 0 0 0 .26.25.26.26 0 0 0 .26-.26z" transform="translate(-.21 -.24)"/><path class="cls-3" d="M9.98 18.93v-.4c0-.12 0-.2-.13-.27a.35.35 0 0 1-.17-.42.37.37 0 0 1 .29-.3.39.39 0 0 1 .41.13.18.18 0 0 1 .04.22c-.08.15-.06.34-.24.44l-.02.08a.94.94 0 0 1-.18.52zm.09-.74a.27.27 0 0 0 .26-.25.26.26 0 0 0-.26-.28.26.26 0 0 0 0 .53zM14.39 25.1a.42.42 0 0 1-.33.43.4.4 0 0 1-.45-.24.4.4 0 0 1 .16-.5c.1-.06.17-.1.14-.22 0-.04 0-.08.07-.08s.12.02.1.09c-.01.12.05.17.14.22a.35.35 0 0 1 .17.3zm-.41-.23a.27.27 0 0 0-.26.27.28.28 0 0 0 .26.25.26.26 0 1 0 0-.52zM4.45 21.63a.4.4 0 0 1 .34-.4.43.43 0 0 1 .46.26.16.16 0 0 1-.02.16.99.99 0 0 0-.12.26c-.04.11-.13.13-.23.14a.4.4 0 0 1-.43-.42zm.67.02a.26.26 0 0 0-.51-.03.26.26 0 0 0 .24.26.26.26 0 0 0 .27-.23zM19.37 9.51a.32.32 0 0 1 .3-.18h.9c.06 0 .1 0 .1.08 0 .06 0 .1-.08.1h-1.22zM20.77 21.52a.39.39 0 0 1 .17.43.49.49 0 0 1-.3.32.08.08 0 0 1-.1-.03c-.04-.04.02-.05.03-.08.01-.04.05-.05.09-.07a.25.25 0 0 0 .1-.37.21.21 0 0 1 .01-.2zM14.07 19.62v.56c0 .05 0 .09-.06.08s-.1 0-.1-.06c0-.2-.07-.41.16-.58zM6.47 24.57c.15 0 .2.12.31.15s.22-.03.33.06a.31.31 0 0 1-.35.1.34.34 0 0 1-.29-.3zM9.7 24.53l.32-.14c.04-.01.08-.06.13-.03s.01.07 0 .11a.1.1 0 0 1-.1.09H9.7zM7.12 20.23a.38.38 0 0 1 .55-.1z" transform="translate(-.21 -.24)"/><path class="cls-2" d="M4.15 19.67a.26.26 0 0 1 .24.26.25.25 0 0 1-.26.25.26.26 0 0 1-.24-.26.28.28 0 0 1 .26-.25zM24.7 6.8a.25.25 0 0 1-.25.26.26.26 0 0 1-.27-.24.27.27 0 0 1 .26-.28.26.26 0 0 1 .25.26zM20.11 4.45a.26.26 0 1 1 0-.53.27.27 0 0 1 .26.26.26.26 0 0 1-.26.27zM3.77 16.6a.25.25 0 0 1-.5.03.26.26 0 0 1 .24-.27.26.26 0 0 1 .26.25zM10.4 11.44a.28.28 0 0 1 .26.27.27.27 0 0 1-.25.26.27.27 0 0 1-.27-.25.27.27 0 0 1 .25-.28zM22.76 5.24a.26.26 0 1 1 0 .5.26.26 0 1 1 0-.5zM18.29 28.3a.26.26 0 0 1-.53 0 .27.27 0 0 1 .27-.27.27.27 0 0 1 .26.27zM20.92 27.69a.28.28 0 0 1-.27-.27.27.27 0 0 1 .27-.26.26.26 0 0 1 .26.25.27.27 0 0 1-.26.28zM7.5 7.05a.26.26 0 0 1-.25-.25.27.27 0 0 1 .26-.27.28.28 0 0 1 .26.26.26.26 0 0 1-.27.26zM4.65 10.47a.26.26 0 1 1-.25.26.26.26 0 0 1 .25-.26zM26.04 23.67a.26.26 0 0 1-.25.26.27.27 0 0 1-.27-.26.27.27 0 0 1 .26-.25.27.27 0 0 1 .25.25zM28.3 18.18a.27.27 0 0 1-.26-.25.26.26 0 0 1 .24-.26.25.25 0 0 1 .26.25.26.26 0 0 1-.24.26zM20.69 17.27a.27.27 0 0 1-.26.26.26.26 0 0 1-.01-.52.27.27 0 0 1 .27.25zM3.74 18.12a.24.24 0 0 1 .24.26.25.25 0 0 1-.26.25.27.27 0 0 1-.24-.27.26.26 0 0 1 .26-.24zM9.41 12.43a.27.27 0 0 1 .27.27.26.26 0 0 1-.26.24.25.25 0 0 1-.26-.26.26.26 0 0 1 .25-.25zM3.59 14.8a.26.26 0 0 1-.26-.25.26.26 0 0 1 .25-.25.25.25 0 0 1 .25.24.26.26 0 0 1-.24.26zM4.15 11.79a.25.25 0 0 1 .24.26.26.26 0 0 1-.26.24.28.28 0 0 1-.24-.26.26.26 0 0 1 .26-.24zM6.52 8.1a.26.26 0 0 1-.24.26.27.27 0 0 1-.27-.24.27.27 0 0 1 .26-.27.26.26 0 0 1 .25.25zM5.54 9.41a.26.26 0 0 1-.51.01.25.25 0 0 1 .24-.25.26.26 0 0 1 .27.24zM15.88 28.18a.27.27 0 0 1 .27.26.28.28 0 0 1-.25.26.26.26 0 1 1-.02-.52zM18.59 25.52a.25.25 0 0 1 .25.27.27.27 0 0 1-.26.26.28.28 0 0 1-.26-.27.26.26 0 0 1 .27-.26zM14.1 28.56a.27.27 0 0 1-.27-.26.28.28 0 0 1 .27-.27.27.27 0 0 1 .26.26.26.26 0 0 1-.26.27zM28 19.48a.25.25 0 0 1-.25-.24.25.25 0 0 1 .23-.25.25.25 0 1 1 .03.5zM27.3 21.86a.25.25 0 0 1-.28.24.24.24 0 0 1-.24-.26.26.26 0 0 1 .51.02zM12.79 27.96a.26.26 0 0 1-.27.26.27.27 0 0 1-.25-.28.27.27 0 0 1 .26-.25.26.26 0 0 1 .26.27zM14.88 3.57a.26.26 0 0 1-.52-.02.26.26 0 1 1 .52.02zM11.63 4.45a.27.27 0 0 1-.25-.28.26.26 0 0 1 .25-.25.27.27 0 0 1 .27.26.27.27 0 0 1-.27.27zM8.29 25.52a.25.25 0 0 1 .26.25.26.26 0 0 1-.26.27.27.27 0 0 1-.26-.27.26.26 0 0 1 .26-.25zM11.03 27.16a.26.26 0 1 1 0 .53.26.26 0 0 1 0-.53zM9.45 5.5a.25.25 0 0 1-.27.24.26.26 0 1 1 .02-.5.25.25 0 0 1 .25.25zM28.7 16.61a.24.24 0 0 1-.25.26.26.26 0 0 1-.25-.25.24.24 0 0 1 .26-.25.23.23 0 0 1 .24.24zM7.76 18.5a.26.26 0 0 1-.24-.27.26.26 0 0 1 .52.03.25.25 0 0 1-.28.25zM28.09 12.04a.26.26 0 0 1-.26.25.28.28 0 0 1-.25-.26.26.26 0 0 1 .26-.25.25.25 0 0 1 .25.26zM26.61 9.17a.25.25 0 0 1 .26.24.26.26 0 0 1-.24.26.24.24 0 0 1-.26-.25.24.24 0 0 1 .24-.25zM27.57 10.73a.25.25 0 0 1-.25.25.26.26 0 1 1 0-.5.25.25 0 0 1 .25.25zM25.68 8.37a.26.26 0 1 1 .25-.27.27.27 0 0 1-.25.27zM28.7 15.31a.25.25 0 0 1-.5 0 .26.26 0 0 1 .25-.25.25.25 0 0 1 .25.25zM28.17 13.05a.26.26 0 0 1 .02.5.26.26 0 0 1-.26-.24.26.26 0 0 1 .24-.26zM20.8 19.06a.26.26 0 0 1-.26.27.27.27 0 0 1-.26-.25.26.26 0 0 1 .25-.28.25.25 0 0 1 .27.26zM10.07 18.19a.26.26 0 1 1 .26-.25.27.27 0 0 1-.26.25zM13.98 24.86a.26.26 0 1 1 0 .53.28.28 0 0 1-.26-.25.27.27 0 0 1 .26-.28zM5.12 21.65a.26.26 0 0 1-.27.24.26.26 0 0 1-.24-.27.26.26 0 0 1 .5.03z" transform="translate(-.21 -.24)"/></svg>