<?xml version="1.0" encoding="utf-8"?>
<!-- Generator: Adobe Illustrator 22.0.1, SVG Export Plug-In . SVG Version: 6.00 Build 0)  -->
<svg version="1.1" id="Layer_1" xmlns="http://www.w3.org/2000/svg" xmlns:xlink="http://www.w3.org/1999/xlink" x="0px" y="0px"
	 viewBox="0 0 32 32" style="enable-background:new 0 0 32 32;" xml:space="preserve">
<style type="text/css">
	.st0{fill:#2A5AD9;}
	.st1{fill:#FFFFFF;}
</style>
<g>
	<circle class="st0" cx="16" cy="16" r="16"/>
	<g>
		<path class="st1" d="M6.328,21.75c0-3.8,0-7.6,0-11.4C7.309,9.783,8.29,9.216,9.271,8.649c2.236-1.293,4.473-2.583,6.703-3.886
			c0.205-0.12,0.339-0.068,0.511,0.034c1.016,0.605,2.031,1.211,3.055,1.803c0.952,0.55,1.917,1.078,2.871,1.625
			c1.228,0.704,2.452,1.416,3.677,2.125c0,3.8,0,7.6,0,11.4c-0.754,0.424-1.514,0.838-2.261,1.275
			c-2.385,1.395-4.765,2.797-7.144,4.203c-0.302,0.179-0.558,0.18-0.869-0.012c-0.925-0.57-1.865-1.116-2.808-1.657
			C10.783,24.285,8.555,23.019,6.328,21.75z M10.521,19.372c0.482,0.276,0.965,0.55,1.445,0.827c1.3,0.752,2.605,1.495,3.895,2.265
			c0.276,0.165,0.465,0.13,0.725-0.022c1.764-1.033,3.539-2.049,5.31-3.07c0.127-0.146,0.107-0.324,0.107-0.497
			c0.001-1.883,0.001-3.766,0-5.648c0-0.173,0.019-0.351-0.107-0.497c-1.77-1.02-3.544-2.033-5.305-3.069
			c-0.285-0.167-0.481-0.167-0.765,0c-1.761,1.036-3.535,2.049-5.305,3.069c-0.126,0.146-0.107,0.325-0.107,0.498
			c-0.001,1.883-0.001,3.766,0,5.648C10.414,19.047,10.394,19.226,10.521,19.372z"/>
		<path class="st1" d="M10.52,12.729c0,2.214,0,4.429,0.001,6.643c-0.127-0.146-0.107-0.324-0.107-0.497
			c-0.001-1.883-0.001-3.766,0-5.648C10.414,13.053,10.394,12.875,10.52,12.729z"/>
		<path class="st1" d="M21.896,19.372c0-2.214,0-4.429,0-6.643c0.127,0.146,0.107,0.324,0.107,0.497
			c0.001,1.883,0.001,3.766,0,5.648C22.003,19.047,22.023,19.226,21.896,19.372z"/>
	</g>
</g>
</svg>
