<svg id="Layer_1" data-name="Layer 1" xmlns="http://www.w3.org/2000/svg" viewBox="0 0 31.68 31.68"><defs><style>.cls-1{fill:#08839d;}.cls-2{fill:none;}.cls-3{fill:#fff;}</style></defs><title>loom</title><circle class="cls-1" cx="15.84" cy="15.84" r="15.84"/><path class="cls-2" d="M21.1724,23.1709c.8855-.6211,1.7422-1.2169,2.5936-1.82a2.2849,2.2849,0,0,0,.0556-3.7021c-.46-.3439-.926-.6789-1.3892-1.0179-.157.0864-.3225.16-.4695.2611-1.2585.8642-2.5135,1.7333-3.7841,2.611-.3514-.2514-.6919-.4949-1.0483-.75l4.0358-2.9083a3.5771,3.5771,0,0,0-.33-.298q-3.7351-2.632-7.4749-5.2575c-.8414-.5905-1.6892-1.1721-2.5489-1.768-.8443.5931-1.6609,1.1685-2.4794,1.7413A2.2849,2.2849,0,0,0,8.32,14.153c.3991.2908.7782.6092,1.1665.9149h0a4.5082,4.5082,0,0,0,.5547-.2828c1.2521-.8655,2.4982-1.74,3.7462-2.6113l1.0976.7854c-1.221.8552-2.4083,1.6816-3.5883,2.5184a4.5478,4.5478,0,0,0-.4773.45l-.9783.676.9783-.6759Z" transform="translate(-0.16 -0.16)"/><path class="cls-3" d="M25.9138,12.6006q.0389-.295.078-.59v-.456c-.0152-.0009-.0426.0012-.0436-.0029A4.6552,4.6552,0,0,0,23.6045,8.717c-.7264-.458-1.4114-.9819-2.1115-1.4812a2.07,2.07,0,0,1-.2436-.2413h-.0913L17.1289,9.8769l1.0646.7528,2.9882-2.0841c.921.6484,1.8473,1.2519,2.7171,1.9278a2.0825,2.0825,0,0,1,.7587,2.2754c-.3257,1.2944-1.4812,1.74-2.4878,2.3276a1.5247,1.5247,0,0,0-.2093-.2193q-4.42-3.1083-8.8433-6.2131c-.7634-.5376-1.51-1.0991-2.2646-1.6495h-.0912c-.576.43-1.1482.8662-1.7293,1.29-.5745.4188-1.1986.7792-1.73,1.2456a3.4887,3.4887,0,0,0,.3473,5.6465c.2928.2053.5617.4445.8416.6681-.3251.2458-.6463.4969-.9758.7365A3.52,3.52,0,0,0,7.5214,22.36c1.02.7374,2.0579,1.4494,3.0863,2.1751a1.2791,1.2791,0,0,1,.1536.1518h.0912c.6469-.4681,1.2913-.94,1.9414-1.4033.6812-.4859,1.3679-.9642,2.0754-1.4622l-1.08-.7536L10.8048,23.145C9.89,22.5015,8.9782,21.9,8.1109,21.2388a2.13,2.13,0,0,1-.431-3.0355A13.23,13.23,0,0,1,9.841,16.604l.9783-.676a4.5478,4.5478,0,0,1,.4773-.45c1.18-.8368,2.3673-1.6632,3.5883-2.5184l-1.0976-.7854c-1.248.8716-2.4941,1.7458-3.7462,2.6113a4.5082,4.5082,0,0,1-.5547.2828h0c-.3883-.3057-.7674-.6241-1.1665-.9149a2.2849,2.2849,0,0,1,.013-3.8908c.8185-.5728,1.6351-1.1482,2.4794-1.7413.86.5959,1.7075,1.1775,2.5489,1.768q3.74,2.6249,7.4749,5.2575a3.5771,3.5771,0,0,1,.33.298l-4.0358,2.9083c.3564.2551.6969.4986,1.0483.75,1.2706-.8777,2.5256-1.7468,3.7841-2.611.147-.1009.3125-.1747.47-.2611.4632.339.93.674,1.3892,1.0179a2.2849,2.2849,0,0,1-.0556,3.7021c-.8514.6034-1.7081,1.1992-2.5936,1.82L10.8193,15.9281l-.9783.6759c.41.3213.8075.6614,1.2331.9609q4.88,3.4362,9.7679,6.862a1.4114,1.4114,0,0,1,.225.26h.1824c.4861-.37.9661-.7491,1.46-1.1088.5734-.4174,1.16-.8165,1.739-1.2262a3.4957,3.4957,0,0,0,1.4738-2.4013l.0013-.2652-.0109-.479-.0093-.3572A4.3651,4.3651,0,0,0,23.44,15.9306c.3144-.251.6208-.5129.9447-.7508A3.3491,3.3491,0,0,0,25.9138,12.6006Z" transform="translate(-0.16 -0.16)"/></svg>