<?xml version="1.0" encoding="utf-8"?>
<!-- Generator: Adobe Illustrator 26.2.1, SVG Export Plug-In . SVG Version: 6.00 Build 0)  -->
<svg version="1.1" id="Layer_1" xmlns="http://www.w3.org/2000/svg" xmlns:xlink="http://www.w3.org/1999/xlink" x="0px" y="0px"
	 viewBox="0 0 32 32" style="enable-background:new 0 0 32 32;" xml:space="preserve">
<style type="text/css">
	.st0{fill:#126076;}
	.st1{fill:#FFFFFF;}
	.st2{fill:#080504;}
	.st3{fill:#AF8E34;}
	.st4{fill:#270908;}
	.st5{fill:#AE842F;}
	.st6{fill:#B7A375;}
	.st7{fill:#4F0B0D;}
	.st8{fill:#A99603;}
	.st9{fill:#3F0C0A;}
	.st10{fill:#2F1822;}
	.st11{fill:#CFAE13;}
	.st12{fill:#D0A311;}
	.st13{fill:#CF8113;}
	.st14{fill:#D0B311;}
	.st15{fill:#F9FCFB;}
	.st16{fill:#CDBA16;}
	.st17{fill:#580D0B;}
	.st18{fill:#FBFBFB;}
	.st19{fill:#FCFCFC;}
	.st20{fill:#0F0401;}
	.st21{fill:#8F0D0C;}
	.st22{fill:#CF8011;}
	.st23{fill:#D09A10;}
	.st24{fill:#5E674A;}
	.st25{fill:#CF9815;}
	.st26{fill:#AF9004;}
	.st27{fill:#B08A09;}
	.st28{fill:#AC8703;}
	.st29{fill:#A79003;}
	.st30{fill:#A99405;}
	.st31{fill:#A48D03;}
	.st32{fill:#A18B06;}
	.st33{fill:#AA8501;}
	.st34{fill:#9F9203;}
	.st35{fill:#D09210;}
	.st36{fill:#9C6B03;}
	.st37{fill:#9F6B03;}
	.st38{fill:#986D03;}
	.st39{fill:#986604;}
	.st40{fill:#A67C01;}
	.st41{fill:#D09310;}
	.st42{fill:#C58221;}
	.st43{fill:#A15A05;}
	.st44{fill:#A65C0C;}
	.st45{fill:#9A5604;}
	.st46{fill:#A86704;}
	.st47{fill:#8E550B;}
	.st48{fill:#A0620B;}
	.st49{fill:#D0A210;}
	.st50{fill:#CDA618;}
	.st51{fill:#AC9209;}
	.st52{fill:#7B5F03;}
	.st53{fill:#A18F05;}
	.st54{fill:#9B7904;}
	.st55{fill:#FAFDFA;}
	.st56{fill:#760F0C;}
	.st57{fill:#FAFBFA;}
	.st58{fill:#D19E6F;}
	.st59{fill:#AD7C60;}
	.st60{fill:#051017;}
	.st61{fill:#0C1A1E;}
	.st62{fill:#284030;}
	.st63{fill:#9F754B;}
	.st64{fill:#031F2D;}
	.st65{fill:#A56603;}
	.st66{fill:#A85B09;}
	.st67{fill:#A96904;}
	.st68{fill:#A96401;}
	.st69{fill:#9F5602;}
	.st70{fill:#9E5902;}
	.st71{fill:#A16904;}
	.st72{fill:#6E0D0A;}
	.st73{fill:#9D7306;}
	.st74{fill:#AF7904;}
	.st75{fill:#A17706;}
	.st76{fill:#BE9E7D;}
	.st77{fill:#21150E;}
	.st78{fill:#73491E;}
	.st79{fill:#321C11;}
	.st80{fill:#CE8A1A;}
</style>
<g>
	<g>
		<circle class="st0" cx="16.038" cy="16.038" r="15.704"/>
		<path class="st1" d="M16.038,0.948c-8.334,0-15.09,6.756-15.09,15.09s6.756,15.09,15.09,15.09s15.09-6.756,15.09-15.09
			S24.372,0.948,16.038,0.948z M16.02,30.524c-7.985,0-14.458-6.473-14.458-14.458S8.035,1.609,16.02,1.609
			s14.458,6.473,14.458,14.458S24.005,30.524,16.02,30.524z"/>
	</g>
	<g>
		<path class="st2" d="M18.374,28.187c-0.233-0.016-0.334,0.114-0.466,0.301c-0.162,0.231-0.22,0.465-0.268,0.724
			c-0.057,0.309-0.323,0.322-0.561,0.366c-0.144,0.133-0.323,0.107-0.495,0.113c-0.225-0.023-0.444-0.001-0.65,0.103
			c-0.112,0.035-0.227,0.04-0.343,0.041c-0.132,0.008-0.275-0.035-0.38,0.088c-0.152,0.162-0.073,0.441-0.29,0.57
			c-0.092,0.035-0.164-0.004-0.231-0.062c-0.145-0.228-0.217-0.462,0-0.756c-0.434,0.095-0.498-0.117-0.444-0.426
			c0.229-0.025,0.254-0.197,0.272-0.375c-0.039-0.035,0.092-0.135-0.052-0.128c-0.027,0.013-0.051,0.01-0.073-0.007
			c-0.215-0.279-0.665-0.384-0.631-0.848c0.019-0.019,0.044-0.042,0.063-0.036c0.784,0.235,1.588,0.157,2.387,0.152
			c0.064,0,0.123-0.031,0.186-0.045c0.043-0.011,0.086-0.018,0.13-0.021c0.55-0.025,1.1-0.017,1.649,0.011
			C18.295,27.987,18.397,28.036,18.374,28.187z"/>
		<path d="M15.299,30.2c0.045,0.103,0.179,0.158,0.161,0.296c-0.18-0.001-0.359-0.002-0.539-0.003
			c0.14-0.177,0.008-0.457,0.23-0.603C15.263,29.963,15.198,30.121,15.299,30.2z"/>
		<path class="st3" d="M17.089,29.336c-0.018-0.014-0.073-0.036-0.072-0.057c0.008-0.256-0.084-0.352-0.35-0.275
			c-0.054,0.016-0.094-0.124-0.004-0.169c0.216-0.109,0.427-0.221,0.602-0.391c0.04-0.039,0.096-0.038,0.137-0.001
			c0.035,0.032,0.092,0.09,0.035,0.124c-0.26,0.155-0.199,0.412-0.222,0.644C17.209,29.278,17.189,29.337,17.089,29.336z"/>
		<path class="st4" d="M15.299,30.2c-0.201-0.031-0.13-0.191-0.148-0.31c0.055-0.246,0.251-0.126,0.391-0.151
			C15.418,29.869,15.249,29.977,15.299,30.2z"/>
		<path class="st5" d="M16.287,28.507c-0.258-0.021-0.527-0.075-0.816,0.038c0.143,0.156,0.268,0.116,0.375,0.11
			c0.297-0.015,0.248,0.126,0.151,0.3c-0.062,0.042-0.13,0.079-0.186,0.129c-0.057,0.051-0.206,0.048-0.148,0.172
			c0.063,0.136,0.168,0.063,0.255,0.012c0.063-0.038,0.139-0.067,0.143-0.159c0,0,0,0,0,0c0,0,0,0,0,0
			c0.118-0.118,0.209-0.255,0.27-0.41C16.357,28.628,16.385,28.515,16.287,28.507z"/>
		<g>
			<path class="st6" d="M15.22,28.889c-0.133-0.1-0.133,0.119-0.245,0.107c-0.114-0.19,0.088-0.53-0.144-0.529
				c-0.189,0.001-0.06,0.341-0.091,0.528c-0.013,0.074-0.013,0.153-0.005,0.227c0.01,0.086,0.065,0.146,0.156,0.121
				c0.154-0.042,0.263-0.147,0.345-0.282C15.274,29,15.275,28.93,15.22,28.889z"/>
			<path class="st6" d="M14.545,28.452c-0.178-0.004-0.071,0.167-0.094,0.261c0,0,0,0,0,0c-0.019,0.009-0.037,0.018-0.057,0.026
				c0.024,0.191-0.065,0.35-0.148,0.51c0.394,0.151,0.293-0.183,0.353-0.36c0.006-0.062,0.022-0.126,0.016-0.187
				C14.607,28.612,14.677,28.454,14.545,28.452z"/>
		</g>
		<path class="st7" d="M16.543,29.589c-0.198,0.09-0.4,0.164-0.623,0.14C16.096,29.543,16.322,29.577,16.543,29.589z"/>
		<path class="st8" d="M26.995,16.293c0.341,0.06,0.602,0.277,0.883,0.454C27.525,16.712,27.26,16.501,26.995,16.293z"/>
		<g>
			<path d="M14.69,30.431c-1.871-0.127-3.611-0.702-5.258-1.569c-0.975-0.514-1.898-1.113-2.692-1.89
				c0.076-0.312,0.412-0.631,0.685-0.663c0.192-0.022,0.231,0.099,0.265,0.245c0.038,0.164-0.064,0.361,0.112,0.492
				c0.511,0.083,1.023,0.023,1.534,0.031c0.173,0.003,0.281-0.098,0.362-0.243c0.087-0.154,0.138-0.335,0.3-0.438
				c0.338,0.079,0.676,0.056,1.014-0.001c0.121,0.001,0.243,0.002,0.357,0.052c0.387,0.568,0.976,0.671,1.6,0.692
				c0.279,0.249,0.661,0.376,0.859,0.722c0.026,0.227,0.147,0.396,0.323,0.535c0.12,0.095,0.221,0.207,0.284,0.35
				c0.069,0.198-0.032,0.368-0.09,0.545c-0.012,0.076-0.031,0.195,0.029,0.214C14.918,29.67,14.583,30.125,14.69,30.431z"/>
			<path class="st9" d="M7.674,27.185c-0.159-0.19-0.057-0.415-0.074-0.623c-0.016-0.188-0.075-0.215-0.238-0.139
				C7.099,26.546,6.9,26.735,6.74,26.972c-0.346-0.242-0.629-0.551-0.916-0.856c-0.136-0.4-0.033-0.784,0.072-1.169
				c0.139-0.4,0.477-0.621,0.785-0.869c0.069-0.055,0.153-0.09,0.158-0.194c0.031-0.051,0.08-0.079,0.134-0.101
				c0.24-0.112,0.494-0.189,0.741-0.285c0.12-0.032,0.242-0.033,0.365-0.035c0.128-0.006,0.256-0.006,0.385-0.004
				c0.319,0.028,0.664-0.044,0.923,0.227c-0.091,0.174-0.273,0.168-0.401,0.126c-0.477-0.157-0.746,0.267-1.125,0.374
				c-0.028,0.008-0.037,0.064-0.047,0.102c-0.042,0.784-0.004,1.566-0.019,2.348C7.791,26.826,7.818,27.025,7.674,27.185z"/>
			<path class="st10" d="M5.895,24.946c0.047,0.394-0.051,0.779-0.072,1.169c-0.097-0.084-0.193-0.169-0.242-0.293
				C5.609,25.503,5.634,25.183,5.895,24.946z"/>
			<path class="st11" d="M22.457,5.308c0.743,0.351,1.419,0.795,1.957,1.427c0.07,0.148-0.054,0.321,0.061,0.463
				c0.088,0.184,0.184,0.361,0.371,0.467c0.268,0.206,0.324,0.514,0.394,0.816c0.113,0.223,0.101,0.504,0.325,0.674
				c0.118,0.12,0.144,0.268,0.128,0.428c0.01,0.607,0.157,1.202,0.152,1.81c0.013,0.228,0.159,0.498,0.074,0.663
				c-0.085,0.163-0.434-0.031-0.62,0.153c-0.385-0.041-0.656-0.326-0.995-0.472c-0.622-0.268-1.229-0.572-1.863-0.813
				c-0.109-0.041-0.208-0.099-0.288-0.186c-0.177-0.166-0.17-0.382-0.165-0.598c0.127-0.623,0.063-1.244-0.016-1.865
				c-0.027-0.213,0-0.368,0.275-0.302c0.038,0.011,0.075,0.026,0.11,0.046c0.185,0.106,0.248,0.263,0.238,0.479
				c-0.017,0.383-0.003,0.768-0.005,1.152c0.004-0.335,0.004-0.671,0.002-1.006c-0.001-0.198,0.011-0.385-0.093-0.584
				c-0.137-0.263-0.002-0.439,0.25-0.411c-0.097-0.065-0.227-0.093-0.297-0.21c-0.198-0.333-0.262-0.714-0.386-1.073
				c-0.096-0.279-0.021-0.358,0.258-0.33c0.101,0.19,0.188,0.386,0.25,0.594c-0.059-0.211-0.153-0.407-0.239-0.606
				c-0.08-0.113-0.159-0.23-0.179-0.367C22.123,5.434,22.201,5.288,22.457,5.308z"/>
			<path class="st12" d="M22.311,6.072c-0.299-0.079-0.217,0.099-0.169,0.252c0.111,0.353,0.224,0.705,0.335,1.058
				C22.41,7.553,22.5,7.716,22.506,7.884c0.004,0.124,0.03,0.277-0.185,0.191l0.002,0.001c-0.189-0.164-0.477-0.146-0.646-0.347
				c-0.144-0.007-0.255-0.09-0.363-0.148c0.122,0.134,0.346,0.102,0.479,0.247c0.167,0.287,0.186,0.603,0.179,0.921
				c-0.008,0.393,0.04,0.788-0.036,1.178c-0.045,0.104-0.108,0.183-0.239,0.154c-0.393-0.211-0.809-0.363-1.244-0.465
				c-0.036-0.009-0.071-0.022-0.105-0.036c-0.284-0.172-0.657-0.149-0.9-0.412c-0.031-0.094-0.008-0.187,0.001-0.28
				c0.107-0.496,0.359-0.947,0.458-1.446c0.027-0.138,0.128-0.229,0.265-0.273c-0.164-0.092-0.118-0.231-0.081-0.367
				c0.024-0.066,0.056-0.127,0.1-0.181c0.167-0.057-0.046-0.161,0.026-0.231c0.06-0.187,0.088-0.373,0.002-0.561
				c-0.054-0.119-0.066-0.245-0.042-0.375c0.058-0.32-0.04-0.607-0.193-0.879c-0.14-0.25,0.018-0.246,0.191-0.236
				c0.167,0.072,0.371-0.024,0.523,0.116l0.003,0.001c0.131,0.111,0.353-0.007,0.454,0.18c0.126,0.046,0.253,0.092,0.379,0.138
				c0.308,0.178,0.615,0.356,0.923,0.534C22.005,5.499,22.308,5.753,22.4,5.99C22.371,6.018,22.364,6.07,22.311,6.072z"/>
			<path class="st13" d="M8.369,9.684C8.884,9.691,9.4,9.697,9.916,9.704c0.236,0.168,0.516,0.214,0.789,0.266
				c0.489,0.094,0.969,0.215,1.428,0.412c0.189,0.082,0.377,0.164,0.572,0.231c0.107,0.038,0.216,0.07,0.326,0.101
				c0.271,0.133,0.647,0.027,0.831,0.362c-0.061,0.138-0.172,0.218-0.316,0.238c-0.187,0.026-0.34,0.061-0.486,0.224
				c-0.161,0.179-0.341,0.044-0.463-0.126c-0.035-0.169,0.151-0.14,0.206-0.237c-0.358,0.356-0.736,0.358-1.189,0.167
				c-0.645-0.272-1.331-0.444-1.896-0.687c0.66,0.317,1.473,0.481,2.231,0.821c-0.125,0.214-0.33,0.152-0.461,0.281
				c0.545-0.447,1.085-0.131,1.627-0.017c0.116,0.01,0.231,0.02,0.34,0.067c0.108,0.101,0.301,0.095,0.345,0.275
				c-0.094,0.237-0.356,0.188-0.509,0.307c0.431,0.064,0.523,0.201,0.344,0.53c-0.239,0.115-0.461,0.092-0.668-0.075
				c-0.159-0.331-0.364-0.573-0.791-0.466c-0.112,0.028-0.217-0.061-0.306-0.136c-0.191-0.174-0.445-0.169-0.674-0.237
				c-0.035-0.008-0.069-0.018-0.102-0.03c-0.374-0.126-0.744-0.266-1.13-0.355c-0.036-0.009-0.07-0.022-0.104-0.036
				c-0.286-0.122-0.573-0.241-0.89-0.26c-0.058-0.008-0.113-0.026-0.164-0.053c-0.525-0.296-1.124-0.421-1.647-0.721
				c-0.117-0.067-0.278-0.062-0.335-0.219c0.078-0.122,0.201-0.095,0.312-0.086c0.822,0.069,1.644-0.009,2.145,0.035
				c-0.521-0.015-1.363,0.02-2.204-0.037c-0.088-0.006-0.267-0.107-0.266,0.123c0.177,0.211,0.517,0.148,0.668,0.401
				c-0.006,0.067-0.043,0.108-0.105,0.128c-0.141,0.016-0.278-0.019-0.417-0.036c-0.341-0.134-0.693-0.238-1.037-0.365
				c-0.121-0.044-0.242-0.075-0.312-0.196c-0.018-0.197-0.312-0.088-0.323-0.293C5.15,9.8,5.3,9.751,5.447,9.7
				c0.46-0.005,0.92-0.01,1.38-0.015C7.341,9.574,7.855,9.576,8.369,9.684z"/>
			<path class="st14" d="M28.866,17.707c-0.302-0.074-0.596-0.198-0.918-0.15c-0.136,0.095-0.246-0.011-0.355-0.059
				c-0.504-0.221-1.009-0.435-1.554-0.537c-0.328-0.061-0.637-0.184-0.942-0.318c-0.036-0.017-0.069-0.039-0.098-0.067
				c-0.079-0.127-0.13-0.27-0.234-0.384c-0.076-0.083-0.104-0.178,0.037-0.237c0.225-0.036,0.422,0.051,0.628,0.126
				c0.346,0.125,0.703,0.216,1.068,0.274c-0.861-0.167-1.64-0.597-2.499-0.773c-0.188-0.056-0.291-0.198-0.37-0.363
				c-0.086-0.196-0.213-0.378-0.227-0.601c-0.085-0.556-0.085-0.556,0.671-0.556c0.503,0.054,0.959,0.245,1.401,0.477
				c0.1,0.052,0.212,0.068,0.32,0.094c0.55,0.426,1.232,0.674,1.677,1.243c-0.002,0.121,0.099,0.133,0.178,0.169
				c0.512,0.232,0.925,0.581,1.238,1.048C28.88,17.298,28.873,17.502,28.866,17.707z"/>
			<path class="st15" d="M23.709,27.192c-0.007-0.102-0.032-0.207-0.017-0.306c0.111-0.744-0.11-1.38-0.613-1.927
				c-0.244-0.234-0.479-0.472-0.46-0.849c0.265-0.184,0.557-0.094,0.841-0.084c0.231,0.07,0.305,0.291,0.432,0.459
				c0.242,0.32,0.237,0.322,0.459,0.002c0.1-0.144,0.172-0.315,0.356-0.38c0.312,0.033,0.638-0.114,0.936,0.078
				c-0.379,0.512-0.715,1.05-1.011,1.614c-0.083,0.325-0.014,0.656-0.039,0.983c-0.01,0.136,0.045,0.28-0.044,0.407
				C24.269,27.19,23.989,27.191,23.709,27.192z"/>
			<path class="st16" d="M25.79,8.462c0.004,0.051-0.009,0.11,0.013,0.152c0.457,0.878,0.532,1.828,0.532,2.793
				c-0.122,0.287,0.012,0.577-0.005,0.865c-0.044,0.134-0.049,0.286-0.175,0.382c-0.336,0.074-0.511-0.219-0.764-0.336
				c-0.045-0.039-0.08-0.083-0.065-0.148c0.126-0.305,0.342-0.2,0.579-0.108c-0.211-0.185-0.104-0.4-0.114-0.598
				c-0.02-0.645-0.119-1.283-0.152-1.927c-0.048-0.127-0.095-0.255-0.143-0.382c-0.148-0.214-0.18-0.482-0.329-0.696
				c-0.085-0.275-0.159-0.555-0.37-0.769c-0.153-0.142-0.277-0.308-0.393-0.48c-0.172-0.163-0.04-0.318,0.012-0.474
				c0.412,0.213,0.556,0.685,0.914,0.951c0,0,0.003,0.004,0.003,0.004C25.563,7.9,25.702,8.166,25.79,8.462z"/>
			<path class="st17" d="M7.674,24.106c0.229-0.055,0.525-0.126,0.643-0.25c0.348-0.365,0.722-0.02,1.059-0.138
				c0.28-0.19,0.595-0.134,0.885-0.078c0.547,0.106,1.079,0.289,1.646,0.293c0.107,0.001,0.237,0.019,0.25,0.177
				c-0.122,0.123-0.282,0.118-0.432,0.109c-0.309-0.019-0.404,0.133-0.391,0.417c0.024,0.523-0.04,1.048,0.058,1.569
				c0.019,0.099,0.033,0.204-0.04,0.293c-0.121,0-0.241,0-0.362,0c-0.656-0.127-1.311-0.25-1.985-0.205
				c-0.15,0.01-0.304,0.026-0.455-0.009c-0.154-0.118-0.136-0.291-0.14-0.453C8.4,25.437,8.4,25.043,8.407,24.649
				c0.005-0.27-0.065-0.447-0.38-0.429C7.899,24.228,7.774,24.199,7.674,24.106z"/>
			<path class="st18" d="M11.351,26.498c-0.223-0.729-0.092-1.479-0.13-2.218c-0.008-0.166,0.082-0.192,0.215-0.184
				c0.23,0.014,0.46,0.025,0.69,0.037c0.065,0.034,0.091,0.094,0.109,0.161c0.046,0.42,0.011,0.841,0.023,1.262
				c0.004,0.14-0.003,0.282,0.061,0.413c0.079,0.162,0.228,0.201,0.386,0.189c0.18-0.014,0.169-0.166,0.172-0.29
				c0.014-0.497-0.008-0.995,0.011-1.494c0.103-0.35,0.227-0.408,0.699-0.382c0.301,0.017,0.441,0.159,0.447,0.453
				c0.003,0.14,0.018,0.28,0.025,0.421c-0.043,0.564-0.012,1.13-0.031,1.695c-0.025,0.738-0.294,0.909-1.017,0.653
				c-0.177-0.007-0.354-0.017-0.531-0.02C11.967,27.184,11.586,26.96,11.351,26.498z"/>
			<path class="st19" d="M7.674,24.106c0.867-0.03,0.857-0.03,0.871,0.828c0.007,0.442-0.064,0.888,0.045,1.327
				c0.022,0.001,0.044,0.002,0.066,0.003c0.461,0.028,0.925-0.048,1.384,0.042c0.041,0.031,0.051,0.069,0.028,0.115
				c-0.01,0.008-0.027,0.014-0.03,0.023c-0.174,0.689-0.647,0.838-1.288,0.755c-0.353-0.046-0.716-0.013-1.075-0.016
				C7.674,26.159,7.674,25.133,7.674,24.106z"/>
			<path class="st20" d="M10.067,26.422c-0.001-0.031-0.002-0.061-0.003-0.092c-0.482-0.079-0.971,0.028-1.453-0.056
				c0,0-0.021-0.013-0.021-0.013c0.823-0.157,1.627-0.117,2.4,0.236C10.683,26.462,10.35,26.748,10.067,26.422z"/>
			<path d="M14.972,25.064c-0.218,0.113-0.404,0.009-0.604-0.071c-0.12-0.048-0.245-0.131-0.39-0.092
				c-0.18-0.152-0.082-0.356-0.083-0.533c-0.002-0.218-0.07-0.303-0.287-0.275c-0.1,0.013-0.206,0.016-0.305,0
				c-0.255-0.041-0.342,0.076-0.319,0.312c-0.306,0.122-0.58,0.041-0.839-0.134c-0.005-0.046-0.011-0.092-0.016-0.138
				c-0.075-0.162-0.223-0.097-0.338-0.097c-0.478,0.001-0.929-0.137-1.383-0.26c-0.341-0.092-0.687-0.034-1.031-0.058
				c-0.296-0.136-0.611-0.155-0.929-0.155c0.006-0.198,0.181-0.228,0.308-0.289c0.561-0.27,1.109-0.566,1.667-0.841
				c0.586-0.261,1.125-0.606,1.677-0.927c0.436-0.256,0.827-0.554,1.011-1.084c-0.191-0.001-0.335,0.167-0.518,0.111
				c-0.128-0.057-0.142-0.164-0.126-0.285c0.009-0.035,0.024-0.069,0.044-0.1c0.08-0.117,0.248-0.184,0.213-0.367
				c-0.247-0.03-0.393,0.238-0.637,0.214c-0.278-0.071-0.257-0.247-0.132-0.43c0.128-0.186,0.182-0.384,0.177-0.605
				c-0.006-0.109,0.118-0.23-0.082-0.316c-0.353-0.151-0.346-0.166-0.103-0.479c-0.318-0.066-0.626-0.142-0.926-0.242
				c-0.143-0.048-0.317-0.092-0.356-0.257c-0.044-0.189,0.147-0.245,0.261-0.336c0.149-0.12,0.307-0.231,0.428-0.38
				c0.107-0.132,0.187-0.28,0.072-0.452c-0.05-0.047-0.111-0.072-0.175-0.053c-0.393,0.119-0.78,0.004-1.168-0.028
				c-0.268-0.022-0.326-0.154-0.202-0.383c0.03-0.056,0.065-0.109,0.084-0.17c0.112-0.216,0.165-0.461,0.319-0.657
				c0.196-0.301,0.196-0.301-0.219-0.424c-0.019-0.031-0.027-0.065-0.023-0.101c0.036-0.147,0.153-0.254,0.199-0.393
				c0.047-0.139-0.061-0.026-0.091-0.044c-0.131,0.021-0.262,0.018-0.394,0.019c-0.269-0.01-0.541,0.025-0.806-0.023
				c-0.203-0.036-0.416-0.136-0.268-0.384c0.421-0.701,0.853-1.4,1.532-1.896c0.374-0.082,0.704,0.095,1.038,0.201
				c0.377,0.12,0.741,0.267,1.141,0.31c0.228,0.025,0.446,0.114,0.603,0.302c0.192,0.103,0.384,0.21,0.607,0.081
				c0.028,0.018,0.051,0.042,0.071,0.069c0.151,0.193,0.381,0.112,0.573,0.163c0.273,0.05,0.525,0.118,0.741,0.327
				c0.15,0.146,0.37,0.243,0.579,0.29c0.626,0.141,1.227,0.349,1.816,0.597c0.337,0.079,0.678,0.134,1.016,0.204
				c0.379,0.078,0.748,0.161,1.076,0.384c0.252,0.172,0.556,0.205,0.846,0.225c0.5,0.034,0.948,0.204,1.382,0.432
				c0.436,0.229,0.884,0.41,1.391,0.37c0.064-0.005,0.133-0.014,0.187,0.025c0.373,0.27,0.824,0.258,1.246,0.349
				c0.187,0.041,0.384,0.063,0.495,0.253c0.019,0.014,0.039,0.025,0.062,0.032c0.108,0.273,0.303,0.508,0.351,0.808
				c-0.018,0.056-0.055,0.094-0.109,0.117c-0.077,0.013-0.146-0.012-0.214-0.044c-0.102-0.052-0.193-0.122-0.289-0.185
				c-0.114-0.075-0.218-0.233-0.359-0.178c-0.176,0.068-0.008,0.219-0.022,0.333c-0.024,0.202-0.143,0.188-0.269,0.109
				c-0.152-0.095-0.272-0.229-0.377-0.374c-0.058-0.088-0.13-0.2-0.241-0.11c-0.655,0.534-1.407,0.457-2.165,0.368
				c-0.051-0.006-0.102,0-0.153,0.001c-0.126-0.004-0.238,0.039-0.343,0.106c-0.047,0.028-0.096,0.049-0.153,0.045
				c-0.08-0.036-0.092-0.106-0.088-0.182c0.044-0.172-0.084-0.213-0.2-0.27c-0.652-0.324-1.291-0.347-1.915,0.071
				c-0.284-0.141-0.094-0.363-0.088-0.556c-0.215,0.02-0.397,0.1-0.564,0.223c-0.267,0.196-0.361,0.427-0.239,0.761
				c0.218,0.599,0.433,1.197,0.781,1.736c0.323,0.543,0.715,1.024,1.249,1.375c0.201,0.187,0.533,0.197,0.658,0.487
				c-0.053,0.106-0.153,0.118-0.253,0.13c-0.587-0.061-1.151-0.223-1.71-0.405c-0.369-0.12-0.399-0.09-0.498,0.278
				c-0.119,0.442-0.115,0.915-0.325,1.335c-0.617,0.544-1.193,1.135-1.858,1.625c-0.086,0.024-0.174,0.032-0.262,0.031
				c-0.222-0.002-0.311,0.109-0.322,0.325C15.098,24.722,15.161,24.929,14.972,25.064z"/>
			<path class="st21" d="M20.643,29.272c0.009-0.176-0.124-0.24-0.247-0.31c-0.158-0.045-0.266-0.144-0.32-0.301
				c-0.046-0.138-0.167-0.211-0.266-0.303c-0.308-0.313-0.672-0.561-1.003-0.847c-0.15-0.126-0.303-0.246-0.489-0.315
				c-0.003-0.014-0.008-0.027-0.02-0.036c-0.509-0.408-1.011-0.826-1.631-1.064c-0.359-0.083-0.542,0.182-0.757,0.382
				c-0.03,0.059-0.03,0.116,0.011,0.171c0,0,0,0,0.001,0c-0.02,0.015-0.04,0.034-0.063,0.059c-0.063,0.13-0.045,0.305-0.243,0.356
				c-0.312,0.079-0.484-0.041-0.506-0.369c-0.036-0.546,0.079-1.098-0.072-1.639c-0.28-0.104-0.584-0.109-0.863-0.22
				c-0.069-0.028-0.15-0.014-0.198,0.064c-0.144,0.086-0.087,0.228-0.089,0.348c-0.007,0.345-0.001,0.691-0.004,1.036
				c-0.002,0.281,0.09,0.629-0.043,0.824c-0.146,0.215-0.522,0.042-0.793,0.094c-0.013,0.002-0.025,0.007-0.037,0.01
				c0.16,0.327,0.577,0.366,0.752,0.677c0.262,0.19,0.515,0.402,0.868,0.176c0.049-0.032,0.147,0.013,0.222,0.022
				c0.516,0.057,1.032,0.112,1.543-0.039l0.033,0.001l0.033-0.006c0.591-0.005,1.183-0.01,1.774-0.015c0,0,0,0,0,0c0,0,0,0,0,0
				c0.016,0.012,0.033,0.023,0.05,0.034c-0.003,0.006-0.005,0.012-0.008,0.018c-0.375,0.121-0.611,0.44-0.667,0.765
				c-0.067,0.389-0.247,0.587-0.571,0.722c-0.004,0.004-0.007,0.008-0.01,0.013c-0.162,0.003-0.325,0.007-0.487,0.01
				c-0.208,0.048-0.424,0.055-0.623,0.14c-0.126,0.003-0.251,0.006-0.377,0.009c-0.196,0.078-0.364,0.177-0.311,0.433
				c0.026,0.144,0.12,0.239,0.229,0.324c0.787,0.029,1.575,0.055,2.353-0.091c0.075-0.006,0.152-0.022,0.233-0.048
				c1.029-0.078,2.012-0.338,2.957-0.747C20.881,29.498,20.678,29.475,20.643,29.272z"/>
			<path class="st22" d="M11.051,7.757c0.094-0.557,0.458-0.963,0.778-1.393c0.046-0.061,0.107-0.106,0.098-0.192
				c0.365-0.25,0.638-0.602,0.999-0.862c0.592-0.428,1.21-0.801,1.914-0.998c0.206-0.058,0.389-0.203,0.617-0.177
				c0.201-0.083,0.427-0.053,0.629-0.133C16.289,4,16.491,3.998,16.693,3.996c0.08,0.075-0.001,0.137-0.019,0.211
				c0.175,0.032,0.303-0.11,0.464-0.117c0.067-0.003,0.131,0.007,0.165,0.069c0.019,0.034,0.002,0.082-0.029,0.103
				c-0.212,0.141-0.297,0.471-0.677,0.421c0.076,0.063,0.16,0.071,0.177,0.129c0.067,0.227,0.101,0.451,0.316,0.624
				c0.11,0.088,0.031,0.288-0.133,0.374c-0.295-0.019-0.591-0.006-0.884-0.047c-0.292-0.283-0.67-0.008-0.968-0.15
				c0.068,0.167,0.643-0.206,0.374,0.351c-0.079,0.091-0.172,0.16-0.298,0.127c-0.397-0.104-0.804-0.038-1.131-0.06
				c0.173-0.012,0.419,0.003,0.666,0.004c0.167,0.001,0.399-0.055,0.47,0.205c-0.168,0.261-0.393,0.482-0.555,0.815
				c0.171-0.321,0.371-0.552,0.553-0.797c0.185-0.181,0.872-0.222,1.03-0.054c0.135,0.143,0.022,0.28-0.031,0.415
				c-0.016,0.034-0.035,0.067-0.056,0.098c-0.174,0.201-0.243,0.466-0.403,0.676c-0.017,0.022-0.055,0.033-0.042,0.073
				c0.047-0.038,0.09-0.028,0.133,0.008c0.137,0.58,0.479,0.914,1.097,0.925c0.051,0.001,0.085,0.05,0.107,0.098
				c-0.008,0.088-0.077,0.12-0.143,0.154c-0.285-0.008-0.13,0.303-0.284,0.391c-0.055,0.025-0.112,0.031-0.171,0.026
				c-0.995-0.229-1.985-0.48-2.987-0.675c-0.675-0.152-1.361-0.248-2.033-0.413C11.266,7.947,11.078,7.971,11.051,7.757z"/>
			<path class="st23" d="M17.004,5.757c0.088-0.424,0.038-0.476-0.416-0.386c0.063-0.154,0.225-0.241,0.184-0.423
				c-0.053-0.236-0.296-0.093-0.426-0.282c0.427,0.039,0.624-0.287,0.944-0.51c-0.317,0-0.562,0.319-0.86,0.086
				c0.007-0.161,0.288-0.049,0.263-0.246c0.488-0.007,0.977-0.014,1.465-0.021c0.258-0.141,0.489-0.068,0.711,0.086
				c0.423,0.086,0.837,0.22,1.273,0.244c0.061,0.016,0.064,0.04,0.009,0.071c-0.046,0.024-0.198-0.037-0.12,0.084
				c0.222,0.348,0.349,0.7,0.221,1.115c-0.018,0.059,0.023,0.149,0.059,0.212c0.14,0.24,0.116,0.459-0.061,0.667
				c-0.275,0.162-0.517-0.051-0.777-0.066c-0.037-0.008-0.073-0.02-0.108-0.032c-0.257-0.103-0.527-0.156-0.797-0.212
				c-0.038-0.007-0.076-0.017-0.112-0.03c-0.361-0.062-0.716-0.146-1.078-0.199C17.245,5.896,17.099,5.879,17.004,5.757z"/>
			<path class="st24" d="M16.086,4.002c-0.182,0.175-0.407,0.148-0.629,0.133C15.639,3.96,15.862,3.979,16.086,4.002z"/>
			<path class="st25" d="M22.239,10.716c-0.027,0.003-0.055,0.006-0.082,0.009c-0.184,0.025-0.35-0.035-0.52-0.098
				c-0.599-0.22-1.2-0.436-1.819-0.595c-0.96-0.307-1.925-0.592-2.904-0.833c-0.122-0.03-0.254-0.057-0.297-0.207
				c-0.004-0.049,0.006-0.105-0.013-0.147c-0.149-0.325,0.037-0.288,0.245-0.23c0.444-0.144,0.831,0.126,1.248,0.174
				c0.111,0.013,0.219,0.058,0.325,0.097c0.684,0.139,1.314,0.444,1.975,0.655l-0.003-0.002c0.448,0.13,0.882,0.301,1.315,0.472
				c0.054,0.075,0.099-0.002,0.147-0.009c0.12-0.013,0.175,0.072,0.233,0.153C22.084,10.356,22.07,10.56,22.239,10.716z"/>
			<path class="st26" d="M23.286,7.951c0.705,0.037,0.49,0.611,0.561,0.961c0.11,0.546,0.166,1.111,0.022,1.673
				c-0.052,0.203,0.008,0.384,0.259,0.46c-0.244,0.006-0.415-0.12-0.604-0.217c0.073-0.105,0.282,0.06,0.268-0.182
				c-0.039-0.647,0.072-1.303-0.124-1.944c-0.031,0.588,0.139,1.181-0.008,1.765c-0.034,0.002-0.069,0.004-0.103,0.007
				c0-0.163,0.015-0.328-0.003-0.49c-0.047-0.436,0.12-0.89-0.115-1.316c-0.029-0.053,0.071-0.189,0.129-0.274
				c0.063-0.092,0.076-0.11-0.014-0.191C23.469,8.128,23.344,8.1,23.286,7.951z"/>
			<path class="st27" d="M22.089,10.154c-0.078-0.051-0.156-0.102-0.233-0.153c-0.029-0.746,0.11-1.503-0.151-2.233
				c-0.026-0.016-0.035-0.032-0.027-0.049c0.008-0.017,0.017-0.025,0.025-0.025c0.183,0.165,0.484,0.139,0.62,0.381
				c-0.086-0.017-0.171-0.033-0.282-0.055C22.145,8.742,22.256,9.447,22.089,10.154z"/>
			<path class="st28" d="M22.321,8.075c0.319-0.164,0.088-0.417,0.029-0.559c-0.106-0.252,0.079-0.104,0.128-0.135
				c0.155,0.181,0.396,0.249,0.55,0.447c-0.147-0.057-0.294-0.114-0.499-0.194c0.187,0.762,0.07,1.483,0.025,2.204
				c0-0.415-0.013-0.83,0.005-1.244C22.567,8.369,22.515,8.196,22.321,8.075z"/>
			<path class="st29" d="M25.039,8.692c0.424,0.645,0.6,1.7,0.472,2.763C25.489,10.511,25.412,9.578,25.039,8.692z"/>
			<path class="st30" d="M25.638,9.535c0.144,0.635,0.17,1.279,0.152,1.927c-0.158-0.425-0.044-0.878-0.141-1.314
				C25.607,9.959,25.437,9.74,25.638,9.535z"/>
			<path class="st31" d="M24.196,7.681c0.195,0.221,0.254,0.501,0.33,0.773C24.345,8.227,24.262,7.958,24.196,7.681z"/>
			<path class="st32" d="M25.166,8.458c0.223,0.178,0.262,0.444,0.329,0.696C25.255,8.983,25.233,8.709,25.166,8.458z"/>
			<path class="st33" d="M22.311,6.072c0.03-0.027,0.059-0.055,0.089-0.082c0.037,0.239,0.21,0.436,0.167,0.709
				C22.482,6.49,22.396,6.281,22.311,6.072z"/>
			<path class="st34" d="M24.402,7.209c0.177,0.122,0.301,0.288,0.393,0.48C24.545,7.627,24.472,7.42,24.402,7.209z"/>
			<path class="st35" d="M17.003,8.536c-0.142-0.147-0.343-0.094-0.507-0.117c-0.41-0.059-0.607-0.27-0.652-0.664
				c-0.011-0.1-0.049-0.197-0.074-0.296c-0.042-0.315,0.203-0.515,0.309-0.771l-0.001,0.001c0.16-0.419,0.446-0.51,0.878-0.419
				c0.772,0.163,1.546,0.315,2.304,0.538c0.736,0.245,0.729,0.243,0.549,0.986C19.74,8.078,19.63,8.348,19.552,8.63
				c-0.027,0.099-0.077,0.189-0.008,0.288c-0.024,0.077-0.049,0.154-0.073,0.231c-0.357,0.059-0.659-0.162-0.998-0.197
				C17.995,8.768,17.471,8.752,17.003,8.536z"/>
			<path class="st35" d="M20.242,6.625c-0.023,0.047-0.047,0.093-0.07,0.14c-0.122,0.286-0.312,0.343-0.59,0.201
				c-0.118-0.06-0.258-0.086-0.388-0.127c-0.796-0.238-1.606-0.407-2.423-0.552c-0.107-0.019-0.337,0.057-0.305-0.171
				c0.028-0.197,0.152-0.347,0.398-0.324c0.405,0.038,0.806,0.102,1.2,0.192c0.16,0.037,0.332,0.002,0.481,0.087l-0.004-0.002
				c0.279,0.095,0.566,0.161,0.852,0.233L19.39,6.3C19.667,6.428,20.002,6.401,20.242,6.625z"/>
			<path class="st36" d="M19.239,6.84c0.062,0.007,0.133-0.003,0.185,0.024c0.275,0.142,0.529,0.168,0.748-0.098
				c-0.009,0.161-0.147,0.367,0.048,0.39c-0.375,0.511-0.463,1.164-0.676,1.762c-0.142-0.125-0.039-0.255-0.008-0.383
				c0.089-0.368,0.14-0.751,0.277-1.1c0.108-0.274,0.033-0.361-0.213-0.413c-0.123-0.026-0.242-0.071-0.363-0.107
				c-0.023-0.016-0.031-0.033-0.023-0.049C19.223,6.848,19.231,6.84,19.239,6.84z"/>
			<path class="st37" d="M18.468,8.922c0.334,0.075,0.668,0.15,1.003,0.226c0.288,0.18,0.665,0.149,0.925,0.392
				c-0.668-0.183-1.335-0.365-2.003-0.548C18.379,8.926,18.388,8.886,18.468,8.922z"/>
			<path class="st38" d="M21.708,10.011c-0.461-0.094-0.893-0.269-1.315-0.472C20.871,9.585,21.301,9.767,21.708,10.011z"/>
			<path class="st39" d="M20.242,6.625C19.963,6.504,19.65,6.472,19.39,6.3c0.3-0.022,0.563,0.158,0.859,0.154
				C20.227,6.51,20.478,6.579,20.242,6.625z"/>
			<path class="st40" d="M21.702,7.695c0.001,0.025,0.002,0.049,0.002,0.074c-0.249,0.002-0.429-0.169-0.648-0.246
				C21.312,7.446,21.476,7.678,21.702,7.695z"/>
			<path class="st41" d="M17.317,14.379c-0.776-0.381-1.684-0.415-2.413-0.894c-0.221-0.145-0.467-0.191-0.678-0.329
				c-0.225-0.043-0.453-0.078-0.638-0.233c-0.004-0.023,0.001-0.044,0.014-0.064c0.17-0.289-0.035-0.345-0.246-0.387
				c-0.128-0.026-0.278,0.037-0.417-0.128c0.322-0.025,0.568-0.161,0.827-0.261c0.256-0.1,0.447,0.101,0.647,0.118
				c-0.289-0.126-0.65-0.157-0.951-0.346c-0.132-0.002-0.264-0.004-0.397-0.007c-0.213-0.201-0.516-0.179-0.781-0.317
				c0.076-0.129,0.162-0.206,0.321-0.144c0.143-0.035,0.393,0.445,0.437-0.095c0.006-0.08,0.133-0.067,0.203-0.055
				c0.231,0.04,0.417-0.065,0.607-0.163c0.097-0.094,0.212-0.077,0.324-0.048c0.852,0.218,1.682,0.512,2.531,0.741
				c0.539,0.165,1.085,0.309,1.626,0.465c0.133,0.038,0.282,0.047,0.374,0.174c-0.093,0.266-0.393,0.237-0.58,0.417
				c0.097,0.078,0.253,0.09,0.31,0.221c0.089,0.233-0.007,0.455-0.05,0.676c-0.049,0.25-0.248,0.172-0.359,0.132
				c-0.044,0.021-0.036,0.012-0.028,0.014c0.111,0.015,0.231,0.015,0.298,0.128c0.031,0.052,0.009,0.099-0.042,0.125
				c-0.115,0.057-0.234,0.028-0.331-0.03c-0.155-0.093-0.315-0.162-0.49-0.198c-0.429-0.152-0.859-0.304-1.25-0.398
				c0.358,0.109,0.773,0.216,1.169,0.381c0.159,0.057,0.354,0.031,0.46,0.207C17.806,14.446,17.532,14.362,17.317,14.379z"/>
			<path class="st42" d="M8.215,11.322c-0.264-0.19-0.677-0.113-0.846-0.473c0.025-0.026,0.049-0.052,0.074-0.079
				c0.112-0.096,0.21-0.016,0.313,0.024c0.36,0.139,0.74,0.229,1.073,0.437c0.049,0.001,0.098,0.002,0.147,0.002
				c0.311,0.108,0.629,0.195,0.937,0.312l-0.003-0.002c0.411,0.132,0.822,0.267,1.237,0.387l-0.003-0.002
				c0.244,0.125,0.526,0.126,0.773,0.241c0.184,0.283,0.475-0.007,0.703,0.136c0.192,0.121,0.361,0.224,0.375,0.471
				c-0.804-0.253-1.639-0.403-2.422-0.729c-0.107-0.045-0.247-0.011-0.372-0.014c-0.36,0.091-0.638-0.132-0.94-0.251
				C8.906,11.645,8.555,11.495,8.215,11.322z"/>
			<path class="st43" d="M12.605,11.388c-0.088,0.012-0.175,0.027-0.23,0.109c0.212,0.155,0.552,0.054,0.689,0.351
				c-0.549-0.218-1.102-0.373-1.691-0.117c0.163-0.068,0.327-0.136,0.543-0.226c-0.828-0.343-1.663-0.516-2.393-0.957
				c0.693,0.24,1.395,0.46,2.077,0.729c0.388,0.153,0.73,0.171,1.075-0.073c0.069-0.049,0.154-0.075,0.264-0.066
				C12.828,11.223,12.717,11.305,12.605,11.388z"/>
			<path class="st44" d="M6.826,10.388c-0.129-0.015-0.245-0.056-0.388-0.251c1.174,0.134,2.283,0.078,3.391,0.124
				c-0.827,0.165-1.661-0.002-2.49,0.053C7.168,10.325,6.98,10.243,6.826,10.388L6.826,10.388z"/>
			<path class="st44" d="M8.828,11.23c-0.474-0.116-0.897-0.388-1.386-0.46c-0.161-0.198-0.492-0.124-0.616-0.382c0,0,0,0,0,0
				c0.634,0.232,1.268,0.466,1.902,0.697C8.801,11.11,8.822,11.163,8.828,11.23z"/>
			<path class="st45" d="M11.146,11.93c-0.434-0.058-0.852-0.172-1.237-0.387C10.347,11.589,10.751,11.744,11.146,11.93z"/>
			<path class="st46" d="M13.461,11.855c0.336,0.101,0.672,0.202,1.008,0.303c-0.258,0.113-0.463-0.101-0.704-0.075
				C13.703,11.955,13.458,12.07,13.461,11.855z"/>
			<path class="st47" d="M9.911,11.545c-0.337-0.03-0.652-0.126-0.937-0.312C9.314,11.256,9.633,11.338,9.911,11.545z"/>
			<path class="st48" d="M11.916,12.17c-0.279-0.013-0.553-0.04-0.773-0.241C11.418,11.953,11.698,11.962,11.916,12.17z"/>
			<path class="st49" d="M18.392,13.009c-0.167-0.039-0.334-0.079-0.574-0.136c0.326-0.172,0.562-0.367,0.877-0.405
				c0.301-0.006,0.583,0.088,0.87,0.16c0.36,0.043,0.69,0.171,1,0.351c0.463,0.268,1.012,0.242,1.493,0.449
				c0.035,0.015,0.07,0.024,0.096,0.053c0.62,0.324,1.307,0.452,1.963,0.672c-0.05,0.003-0.101,0.016-0.15,0.009
				c-0.363-0.053-0.608,0.014-0.491,0.465c-0.068,0.248,0.124,0.413,0.198,0.615c0.06,0.1,0.065,0.178-0.079,0.196
				c-0.751-0.21-1.49-0.525-2.251-0.626c-0.798-0.105-1.53-0.386-2.295-0.57c-0.04-0.01-0.077-0.024-0.114-0.04
				c-0.512-0.213-0.563-0.304-0.459-0.85c0.021-0.111,0.035-0.224,0.06-0.333c-0.009-0.072,0.119-0.158,0.008-0.205
				c-0.062-0.026-0.094,0.088-0.123,0.153C18.412,12.982,18.402,12.996,18.392,13.009z"/>
			<path class="st50" d="M17.317,14.379c0.151-0.101,0.413-0.027,0.458-0.293c0.331-0.057,0.598,0.177,0.911,0.203
				c0.696,0.242,1.399,0.46,2.11,0.654c0.053,0.001-0.001-0.073,0.008-0.022c0.004,0.019-0.007,0.026-0.032,0.019
				c-0.689-0.196-1.372-0.409-2.049-0.643c-0.024-0.007-0.048-0.012-0.073-0.018c-0.104-0.023-0.268-0.029-0.242-0.162
				c0.029-0.145,0.186-0.067,0.283-0.047c0.107,0.022,0.22,0.037,0.318,0.096l-0.004-0.002c1.234,0.428,2.501,0.744,3.75,1.118
				c0.332,0.099,0.664,0.196,0.988,0.315c0.185,0.006,0.333,0.114,0.496,0.18c0.217-0.001,0.44-0.013,0.548,0.238
				c0.014,0.206,0.349,0.271,0.233,0.534c-0.446-0.207-0.944-0.184-1.407-0.323c-0.879-0.265-1.805-0.381-2.609-0.875
				c-0.133-0.082-0.32-0.088-0.484-0.103c-0.5-0.045-0.962-0.153-1.411-0.423c-0.419-0.252-0.951-0.231-1.431-0.343
				C17.556,14.452,17.433,14.429,17.317,14.379z"/>
			<path class="st51" d="M24.788,16.015c-0.178-0.049-0.331-0.259-0.542-0.082c-0.029-0.175-0.327-0.207-0.237-0.445
				c0.929,0.14,1.717,0.702,2.634,0.884C26,16.373,25.412,16.1,24.788,16.015z"/>
			<path class="st52" d="M24.009,15.487c-0.012,0.197,0.303,0.22,0.237,0.445c-0.157-0.066-0.249-0.257-0.451-0.238
				c-0.048-0.099-0.193-0.146-0.158-0.291c0.099-0.057-0.005-0.106-0.007-0.159c-0.032-0.078,0.004-0.091,0.071-0.073
				C23.788,15.291,23.833,15.453,24.009,15.487z"/>
			<path class="st53" d="M26.121,15.742c-0.146-0.165-0.286-0.342-0.442-0.505C25.826,15.405,25.974,15.573,26.121,15.742z"/>
			<path class="st54" d="M23.7,15.171c-0.024,0.024-0.047,0.049-0.071,0.073c-0.113-0.19-0.302-0.362-0.153-0.617
				C23.551,14.809,23.626,14.99,23.7,15.171z"/>
			<path class="st55" d="M18.861,27.199c-0.026-0.031-0.052-0.063-0.078-0.094c-0.089-0.115-0.127-0.248-0.128-0.391
				c-0.002-0.787,0.015-1.574,0.017-2.361c0-0.09,0.019-0.177,0.074-0.252c0.139-0.122,0.311-0.099,0.475-0.101
				c0.562-0.006,1.124,0.004,1.685-0.006c0.196-0.009,0.393-0.023,0.572,0.084c0.127,0.152,0.111,0.336,0.105,0.513
				c-0.012,0.36-0.105,0.458-0.462,0.467c-0.345,0.009-0.691,0.02-1.03-0.006c0.427,0.092,0.862-0.047,1.279,0.086
				c0.053,0.033,0.077,0.084,0.087,0.144c-0.017,0.28-0.189,0.495-0.306,0.733c-0.037,0.048-0.083,0.078-0.146,0.076
				c-0.344,0.001-0.689,0.019-1.031-0.002c-0.246-0.015-0.292,0.077-0.292,0.304C19.683,27.176,19.674,27.176,18.861,27.199z"/>
			<path class="st56" d="M12.143,24.271c0.28,0.045,0.559,0.09,0.839,0.134c0.004,0.499,0.021,0.999,0.004,1.497
				c-0.005,0.137,0.157,0.394-0.171,0.403c-0.286,0.008-0.587,0.026-0.668-0.35c-0.027-0.124-0.03-0.255-0.028-0.382
				C12.123,25.139,12.134,24.705,12.143,24.271z"/>
			<path class="st57" d="M14.972,25.064c0.011-0.062,0.03-0.124,0.032-0.186c0.023-0.763,0.023-0.763,0.765-0.789
				c0.558-0.193,1.131-0.075,1.698-0.087c0.378,0.144,0.458,0.507,0.218,0.981c-0.445,0.175-0.909,0.039-1.31,0.087
				c0.383,0.073,0.841-0.108,1.264,0.11c0.048,0.089,0.045,0.173-0.025,0.249c-0.046,0.057-0.111,0.107-0.134,0.172
				c-0.133,0.378-0.386,0.563-0.792,0.517c-0.301,0.037-0.631,0.015-0.767,0.382c0,0.05,0,0.1,0,0.15
				c-0.006,0.089-0.025,0.179-0.015,0.267c0.026,0.225-0.074,0.304-0.286,0.276c-0.013-0.002-0.026,0-0.038,0
				c-0.703-0.009-0.561,0.07-0.577-0.555C14.992,26.112,15.039,25.587,14.972,25.064z"/>
			<path class="st17" d="M8.611,26.275c0.485,0.01,0.974-0.101,1.453,0.056C9.581,26.28,9.092,26.372,8.611,26.275z"/>
			<path class="st21" d="M15.921,26.5c-0.081-0.304,0.007-0.46,0.349-0.409c0.138,0.02,0.279,0.019,0.418,0.027
				c-0.003,0.025,0,0.049,0.009,0.072c-0.208,0.007-0.439-0.058-0.532,0.235C16.136,26.514,16.01,26.495,15.921,26.5z"/>
			<path class="st58" d="M24.188,18.401c-0.155-0.404-0.309-0.812-0.32-1.254c-0.044-0.112-0.088-0.225-0.137-0.352
				c-0.135,0.097-0.244,0.183-0.36,0.258c-0.406,0.262-0.84,0.45-1.332,0.333c-0.292-0.069-0.576-0.094-0.87-0.047
				c0.006,0.065,0.024,0.113,0.05,0.149c-0.125-0.03-0.241-0.082-0.369-0.014c-0.027,0.017-0.055,0.034-0.082,0.05c0,0,0,0,0,0
				c-0.02-0.038-0.04-0.076-0.06-0.114c0.088-0.128,0.136-0.242-0.068-0.315c-0.192-0.069-0.372-0.177-0.568-0.227
				c-0.551-0.138-1.091-0.169-1.536,0.285c-0.212-0.222,0.079-0.409,0.058-0.632c-0.374,0.021-0.683,0.146-0.943,0.395
				c-0.136,0.13-0.245,0.269-0.177,0.471c0.237,0.701,0.447,1.413,0.892,2.022c0,0,0,0,0,0c0.311,0.558,0.703,1.042,1.257,1.379
				c0.194,0.194,0.453,0.275,0.689,0.395c0.239,0.251,0.569,0.136,0.851,0.213c0.164-0.02,0.351,0.037,0.466-0.143
				c0.207-0.248,0.23-0.558,0.288-0.856c0.005-0.1,0.01-0.2,0.015-0.301c-0.145-0.139-0.348-0.119-0.516-0.194
				c-0.073-0.033-0.218-0.004-0.18-0.162c0.323,0.102,0.646,0.2,0.992,0.122c0.031-0.048,0.063-0.095,0.094-0.143
				c0.073-0.066,0.142-0.134,0.147-0.241c0.078-0.091,0.223-0.129,0.224-0.281c-0.136-0.102-0.3-0.234-0.228-0.399
				c0.078-0.178,0.273-0.037,0.416-0.034c0.346,0.007,0.691,0.02,1.037,0.021C24.35,18.789,24.337,18.79,24.188,18.401z
				 M21.962,19.405c-0.002-0.009-0.004-0.018-0.007-0.027c-0.029-0.04-0.063-0.068-0.1-0.089c0.023-0.006,0.045-0.017,0.066-0.034
				C21.951,19.303,22.099,19.337,21.962,19.405z"/>
			<path class="st59" d="M15.445,15.976c0.159,0.532,0.727,0.83,0.632,1.441C15.517,17.102,15.272,16.572,15.445,15.976z"/>
			<path class="st60" d="M12.128,19.941c-0.105,0.132-0.242,0.214-0.456,0.298c0.14-0.491,0.28-0.92,0.55-1.298
				c0.037,0.261-0.03,0.493-0.199,0.694C11.887,19.798,11.906,19.904,12.128,19.941z"/>
			<path class="st61" d="M12.62,20.499c-0.146,0.108-0.3,0.183-0.548,0.106c0.167-0.16,0.311-0.296,0.454-0.433
				C12.542,20.286,12.499,20.416,12.62,20.499z"/>
			<path class="st62" d="M20.314,21.186c0.284,0.071,0.568,0.142,0.851,0.213c-0.368,0.021-0.735,0.045-1.079-0.132
				C20.163,21.244,20.261,21.279,20.314,21.186z"/>
			<path class="st13" d="M13.587,12.923c0.249-0.021,0.424,0.157,0.638,0.233c-0.197,0.004-0.392,0.006-0.576-0.082
				C13.577,13.04,13.509,13.014,13.587,12.923z"/>
			<path class="st63" d="M21.628,17.556c-0.278,0.155-0.513-0.107-0.777-0.082c0.092-0.078,0.193-0.135,0.319-0.136
				C21.271,17.519,21.469,17.497,21.628,17.556z"/>
			<path class="st64" d="M25.724,17.859c-0.097-0.161-0.316-0.191-0.396-0.37c0.03-0.029,0.06-0.058,0.09-0.088
				c0.154,0.13,0.33,0.243,0.373,0.463C25.769,17.86,25.746,17.858,25.724,17.859z"/>
			<path class="st61" d="M12.526,20.172c0.102-0.157,0.203-0.314,0.305-0.472C12.868,19.948,12.771,20.108,12.526,20.172z"/>
			<path class="st65" d="M19.239,6.84c0,0.025,0,0.049,0,0.074c-0.861-0.278-1.752-0.427-2.637-0.602
				c-0.312-0.062-0.323,0.287-0.524,0.377c0.023-0.071,0.035-0.147,0.069-0.211c0.087-0.164,0.078-0.266-0.141-0.252
				c-0.284,0.018-0.591-0.218-0.849,0.079l-0.008-0.008c-0.084-0.232-0.282-0.211-0.47-0.212c-0.338,0-0.676,0-1.007,0
				c-0.019-0.161,0.059-0.174,0.112-0.157c0.461,0.15,0.941-0.027,1.401,0.09c0.13,0.033,0.179-0.076,0.271-0.105
				c0.017,0.004,0.035,0.007,0.052,0.011c0.278,0.045,0.554,0.157,0.878,0.054c-0.109-0.181-0.327-0.086-0.397-0.239
				C15.994,5.721,15.997,5.703,16,5.686c0.336,0.007,0.675-0.034,1.004,0.071c0.518,0.087,1.046,0.121,1.543,0.314
				c-0.476,0.012-0.929-0.137-1.393-0.205c-0.307-0.045-0.53-0.03-0.629,0.321C17.435,6.381,18.37,6.476,19.239,6.84z"/>
			<path class="st66" d="M11.961,7.56c0.082-0.897,0.76-1.381,1.34-1.933C12.896,6.3,12.39,6.904,11.961,7.56z"/>
			<path class="st65" d="M15.457,5.913c0.035-0.134,0.06-0.246-0.154-0.234c-0.15,0.008-0.292,0.026-0.428,0.097
				c0.227-0.455,0.824,0.13,1.037-0.418C15.906,5.504,15.874,5.622,16,5.686c0,0,0,0,0,0c-0.167,0.104-0.322,0.235-0.535,0.234
				L15.457,5.913z"/>
			<path class="st67" d="M18.468,8.922c-0.025,0.023-0.05,0.047-0.075,0.07c-0.505-0.166-1.022-0.287-1.546-0.377
				C16.88,8.55,16.94,8.54,17.003,8.536C17.491,8.666,18.001,8.713,18.468,8.922z"/>
			<path class="st68" d="M16.079,6.687c-0.103,0.257-0.206,0.514-0.309,0.771c-0.111,0.048-0.045,0.235-0.258,0.26
				C15.687,7.343,15.784,6.966,16.079,6.687z"/>
			<path class="st69" d="M15.158,6.305c-0.132,0.308-0.372,0.538-0.57,0.798c0.132-0.307,0.269-0.611,0.562-0.806
				C15.149,6.297,15.158,6.305,15.158,6.305z"/>
			<path class="st70" d="M15.749,4.991c-0.032,0.215-0.213,0.259-0.388,0.317C15.49,5.202,15.619,5.097,15.749,4.991z"/>
			<path class="st71" d="M19.394,6.303c-0.308,0.011-0.59-0.074-0.852-0.233C18.842,6.092,19.135,6.135,19.394,6.303z"/>
			<path class="st72" d="M26.095,12.661c-0.24-0.121-0.434-0.322-0.697-0.404c0,0,0,0,0,0c-0.024-0.029-0.049-0.058-0.073-0.088
				c-0.989-0.569-2.038-1.011-3.086-1.453c-0.02-0.036-0.049-0.05-0.09-0.038c-0.033,0-0.065,0.002-0.096,0.007
				c-0.724-0.281-1.451-0.552-2.203-0.749c0,0,0,0,0,0v0c-1.062-0.367-2.156-0.627-3.233-0.943
				c-0.051,0.004-0.102,0.007-0.152,0.011c0,0,0,0,0,0c-0.99-0.287-1.991-0.525-3.009-0.693c0,0,0,0,0,0l0,0
				c-0.098-0.028-0.195-0.057-0.293-0.083c-0.698-0.185-1.431-0.21-2.112-0.47c-0.358,0.312-0.488,0.756-0.677,1.165
				c-0.187,0.225-0.289,0.494-0.39,0.763c0,0,0,0,0,0C9.959,9.687,9.937,9.693,9.916,9.704c-0.004,0.275,0.241,0.238,0.387,0.273
				c0.617,0.146,1.239,0.273,1.837,0.49c0.164,0.115,0.349,0.179,0.543,0.218c0,0,0,0,0,0c0.087,0.084,0.194,0.095,0.307,0.089
				c0,0,0,0,0,0c0.287,0.1,0.575,0.2,0.862,0.301c0.137,0.027,0.274,0.051,0.41,0.082c0.823,0.188,1.599,0.545,2.433,0.694v0
				c0.106,0.11,0.257,0.105,0.388,0.145c0.536,0.161,1.091,0.259,1.612,0.473c0.256,0.172,0.559,0.174,0.846,0.234
				c0.317,0.092,0.635,0.171,0.926,0.342c0.489,0.287,1.042,0.356,1.592,0.425c0.036,0.03,0.073,0.059,0.112,0.086
				c0.599,0.359,1.253,0.542,1.946,0.598c0.48,0.083,0.913,0.304,1.365,0.466c0,0,0,0,0,0c0,0,0,0,0,0
				c0.09,0.108,0.195,0.107,0.309,0.043c-0.081-0.341,0.106-0.638,0.157-0.958c0.131-0.134,0.015-0.34,0.139-0.476
				c0.009-0.099,0.018-0.199,0.027-0.298C26.172,12.836,26.19,12.744,26.095,12.661z"/>
			<path class="st73" d="M18.693,14.322c-0.329,0.01-0.608-0.175-0.919-0.237c-0.134-0.109-0.296-0.138-0.46-0.16
				c-0.016-0.067-0.003-0.105,0.077-0.074c0.288,0.077,0.575,0.154,0.885,0.236c-0.06-0.214-0.279-0.118-0.35-0.286
				c0.33,0.114,0.407-0.042,0.413-0.342c0.003-0.144,0.055-0.297,0.053-0.45c0,0,0,0.001,0,0.001c0.121,0.11,0.12-0.14,0.226-0.076
				c-0.001,0.089,0.02,0.185-0.007,0.266c-0.144,0.44-0.119,0.801,0.398,0.966c-0.174-0.024-0.348-0.048-0.536-0.074
				c0.06,0.155,0.189,0.139,0.3,0.158C18.786,14.317,18.775,14.359,18.693,14.322z"/>
			<path class="st74" d="M17.391,13.852c-0.026,0.025-0.051,0.049-0.077,0.074c-0.454-0.237-0.99-0.262-1.425-0.55
				C16.397,13.514,16.917,13.612,17.391,13.852z"/>
			<path class="st73" d="M23.637,15.404c0.058,0.094,0.274,0.102,0.158,0.291c-0.596-0.174-1.194-0.341-1.788-0.523
				c-0.928-0.284-1.853-0.577-2.778-0.872c-0.081-0.026-0.15-0.09-0.224-0.137c0.568,0.051,1.066,0.405,1.621,0.438
				c0.927,0.056,1.755,0.475,2.652,0.616C23.431,15.242,23.503,15.371,23.637,15.404z"/>
			<path class="st41" d="M18.617,12.934c-0.067,0.049-0.115,0.158-0.226,0.076c-0.172-0.373,0.174-0.272,0.325-0.387
				C18.773,12.782,18.702,12.86,18.617,12.934z"/>
			<path class="st75" d="M18.693,14.322c0.026-0.024,0.053-0.048,0.079-0.073c0.701,0.233,1.403,0.466,2.105,0.698
				C20.135,14.784,19.386,14.647,18.693,14.322z"/>
			<g>
				<path class="st76" d="M19.602,28.063c-0.237-0.296-0.492-0.577-0.741-0.864c0.031-0.058-0.001-0.1-0.037-0.14
					c-0.122-0.082-0.203-0.224-0.35-0.269c0-0.004-0.001-0.008-0.001-0.012c-0.21-0.445-0.495-0.848-0.7-1.296
					c-0.027-0.059-0.084-0.092-0.152-0.1c-0.102,0.008-0.165,0.077-0.201,0.158c-0.142,0.318-0.398,0.479-0.725,0.549
					c-0.025,0.033-0.025,0.067,0,0.1c0.583,0.292,1.102,0.68,1.614,1.078c0.154,0.107,0.307,0.213,0.461,0.32
					c0.339,0.28,0.679,0.56,1.018,0.84C19.789,28.275,19.685,28.167,19.602,28.063z"/>
				<path class="st76" d="M17.459,23.476c-0.003-0.307-0.006-0.613-0.008-0.92c-0.591,0.477-1.159,0.98-1.681,1.532
					c0.561,0.002,1.122,0.005,1.684,0.007C17.394,23.888,17.359,23.681,17.459,23.476z"/>
				<path class="st76" d="M17.611,25.199c0.001-0.078,0.001-0.156,0.002-0.234c-0.488-0.001-0.976-0.004-1.464-0.001
					c-0.094,0.001-0.233-0.025-0.219,0.134c0.011,0.124,0.133,0.099,0.217,0.099C16.634,25.201,17.123,25.199,17.611,25.199z"/>
			</g>
			<path class="st77" d="M21.184,19.727c0.359-0.029,0.706,0.026,1.046,0.139c-0.042,0.151-0.195,0.16-0.297,0.235
				c-0.274-0.034-0.55-0.067-0.798-0.198C20.909,19.784,21.164,19.785,21.184,19.727z"/>
			<path class="st78" d="M20.555,19.113c0.364,0.026,0.732,0.02,1.086,0.126c-0.005,0.049-0.052,0.053-0.081,0.076
				c-0.272-0.023-0.545-0.048-0.817-0.067C20.648,19.242,20.569,19.227,20.555,19.113z"/>
			<path class="st79" d="M21.561,19.315c0.027-0.025,0.054-0.051,0.081-0.076c0.099,0,0.197,0,0.296,0
				c0.122,0.042,0.243,0.084,0.383,0.132c-0.133,0.185-0.268,0.002-0.384,0.045C21.824,19.339,21.69,19.336,21.561,19.315z"/>
			<path class="st80" d="M15.465,5.92c0.164-0.111,0.298-0.29,0.535-0.234c0.086,0.11,0.21,0.066,0.32,0.077
				c0.087,0.009,0.193-0.01,0.204,0.116c0.009,0.101-0.065,0.165-0.138,0.215C16.223,6.208,15.625,6.092,15.465,5.92z"/>
		</g>
	</g>
</g>
</svg>
