<svg id="Layer_1" data-name="Layer 1" xmlns="http://www.w3.org/2000/svg" viewBox="0 0 32 32"><defs><style>.cls-1{fill:#f45954;}.cls-2{fill:#fff;fill-rule:evenodd;}</style></defs><circle class="cls-1" cx="16" cy="16" r="16"/><path id="d" class="cls-2" d="M15.8,5.053a.419.419,0,0,1,.409,0l9.047,5.08a.393.393,0,0,1,0,.69l-7.87,4.438a1.827,1.827,0,0,0-1.071-.594V12.255a1.812,1.812,0,1,0-.627,0V14.67a1.819,1.819,0,0,0-1.055.59L6.757,10.839a.393.393,0,0,1,0-.69L15.8,5.055m9.482,6.4a.417.417,0,0,1,.409,0,.4.4,0,0,1,.2.346l.009,9.864a.4.4,0,0,1-.2.345l-8.762,4.939a.409.409,0,0,1-.613-.345l-.008-8.463a1.817,1.817,0,0,0,1.086-.61l2.189,1.226a1.737,1.737,0,0,0-.041.692,1.8,1.8,0,0,0,2.045,1.5,1.772,1.772,0,0,0,1.539-1.992,1.823,1.823,0,0,0-3.279-.755L17.708,17a1.7,1.7,0,0,0-.029-1.26l7.6-4.284M6.109,11.8a.4.4,0,0,1,.409-.4.412.412,0,0,1,.2.054l7.608,4.288A1.7,1.7,0,0,0,14.3,17L12.16,18.2a1.823,1.823,0,0,0-3.278.755,1.772,1.772,0,0,0,1.539,1.993,1.8,1.8,0,0,0,2.044-1.5,1.713,1.713,0,0,0-.04-.691l2.188-1.227a1.816,1.816,0,0,0,1.075.609L15.68,26.6a.408.408,0,0,1-.613.344L6.3,22.006a.4.4,0,0,1-.2-.345L6.109,11.8"/></svg>