<?xml version="1.0" encoding="utf-8"?>
<!-- Generator: Adobe Illustrator 25.2.1, SVG Export Plug-In . SVG Version: 6.00 Build 0)  -->
<svg version="1.1" id="Layer_1" xmlns="http://www.w3.org/2000/svg" xmlns:xlink="http://www.w3.org/1999/xlink" x="0px" y="0px"
	 viewBox="0 0 32 32" style="enable-background:new 0 0 32 32;" xml:space="preserve">
<style type="text/css">
	.st0{fill:#172852;}
	.st1{fill:#FFD83D;}
	.st2{fill:#FF6F03;}
</style>
<g>
	<circle class="st0" cx="16" cy="16.023" r="15.8"/>
	<g>
		<path class="st1" d="M12.927,7.284c1.85-0.692,3.933-0.694,5.818-0.125c2.454,0.762,4.525,2.613,5.607,4.938
			c0.299,0.662,0.585,1.352,0.613,2.089c-1.379-0.799-2.891-1.318-4.407-1.79c-2.424-0.874-4.961-1.48-7.255-2.681
			c-0.534-0.319-1.215-0.646-1.36-1.311C11.884,7.828,12.492,7.507,12.927,7.284"/>
		<path class="st1" d="M7.342,12.877c0.536-1.454,1.414-2.803,2.607-3.803c0.303,2.495,1.365,4.906,3.119,6.72
			c2.103,2.185,5.099,3.527,8.146,3.476c1.21,0.038,2.394-0.242,3.574-0.468c-1.161,4.196-5.761,6.982-10.022,6.312
			c-2.572-0.329-4.947-1.852-6.38-4.002C6.77,18.736,6.362,15.581,7.342,12.877z"/>
	</g>
	<path class="st2" d="M20.558,12.396c1.515,0.472,3.027,0.991,4.407,1.79l0.093,0.049c0.128,0.962,0.221,1.943,0.051,2.907
		c-0.694-0.294-1.256-0.811-1.844-1.267C22.134,14.933,20.979,13.855,20.558,12.396"/>
</g>
</svg>
