<?xml version="1.0" encoding="utf-8"?>
<!-- Generator: Adobe Illustrator 22.0.1, SVG Export Plug-In . SVG Version: 6.00 Build 0)  -->
<svg version="1.1" id="Layer_1" xmlns="http://www.w3.org/2000/svg" xmlns:xlink="http://www.w3.org/1999/xlink" x="0px" y="0px"
	 viewBox="0 0 32 32" style="enable-background:new 0 0 32 32;" xml:space="preserve">
<style type="text/css">
	.st0{fill:#C8962C;}
	.st1{fill:#FFFFFF;}
</style>
<circle class="st0" cx="16" cy="16" r="16"/>
<g>
	<path class="st1" d="M8.449,20.244c-0.672,0-1.33-0.001-1.988,0.001c-0.117,0-0.116-0.09-0.142-0.16
		c-0.381-1.043-0.761-2.087-1.14-3.131c-0.716-1.968-1.429-3.937-2.15-5.903c-0.056-0.153-0.023-0.198,0.12-0.249
		c1.584-0.567,3.167-1.138,4.748-1.714c0.152-0.056,0.227-0.037,0.317,0.107c2.277,3.626,4.559,7.247,6.84,10.871
		c0.03,0.048,0.08,0.09,0.072,0.179c-0.237,0-0.474,0-0.711,0c-0.473,0-0.946-0.005-1.42,0.003c-0.122,0.002-0.191-0.038-0.255-0.14
		c-1.716-2.696-3.435-5.39-5.154-8.084c-0.1-0.156-0.161-0.383-0.319-0.445c-0.16-0.063-0.347,0.092-0.522,0.15
		c-0.303,0.101-0.599,0.222-0.903,0.319c-0.151,0.048-0.174,0.107-0.122,0.256c0.612,1.759,1.215,3.52,1.822,5.281
		c0.284,0.824,0.568,1.647,0.852,2.471C8.413,20.111,8.428,20.169,8.449,20.244z"/>
	<path class="st1" d="M16.837,20.244c0.634-1.006,1.243-1.974,1.853-2.943c1.703-2.704,3.408-5.407,5.107-8.114
		c0.086-0.137,0.156-0.155,0.3-0.102c1.581,0.576,3.163,1.148,4.748,1.714c0.156,0.056,0.181,0.112,0.125,0.267
		c-1.095,2.998-2.186,5.997-3.272,8.998c-0.052,0.145-0.12,0.187-0.27,0.184c-0.553-0.01-1.106-0.004-1.659-0.004
		c-0.224,0-0.224,0-0.15-0.215c0.886-2.571,1.77-5.144,2.663-7.713c0.061-0.175,0.02-0.223-0.14-0.275
		c-0.411-0.135-0.817-0.284-1.22-0.439c-0.142-0.055-0.219-0.035-0.304,0.099c-1.349,2.124-2.703,4.245-4.057,6.367
		c-0.433,0.679-0.866,1.358-1.301,2.037c-0.041,0.065-0.067,0.142-0.172,0.141C18.35,20.242,17.612,20.244,16.837,20.244z"/>
	<path class="st1" d="M15.994,22.209c3.159,0,6.319,0.001,9.478-0.004c0.176,0,0.24,0.034,0.235,0.226
		c-0.014,0.519-0.008,1.04-0.003,1.559c0.001,0.121-0.035,0.174-0.158,0.158c-0.033-0.004-0.067-0.001-0.1-0.001
		c-6.299,0-12.597-0.001-18.896,0.004c-0.195,0-0.264-0.035-0.256-0.247c0.018-0.493,0.014-0.986,0.001-1.479
		c-0.004-0.176,0.042-0.222,0.22-0.221c1.893,0.007,3.786,0.004,5.679,0.004C13.461,22.209,14.727,22.209,15.994,22.209z"/>
	<path class="st1" d="M19.021,15.105c-0.237-0.727-0.462-1.416-0.686-2.104c-0.413-1.264-0.827-2.528-1.235-3.794
		c-0.041-0.128-0.095-0.175-0.235-0.173c-0.533,0.009-1.066,0.011-1.599,0c-0.167-0.003-0.24,0.046-0.293,0.209
		c-0.619,1.89-1.246,3.776-1.872,5.664c-0.018,0.054-0.039,0.108-0.068,0.189c-0.205-0.299-0.397-0.578-0.588-0.857
		c-0.229-0.335-0.454-0.673-0.689-1.005c-0.067-0.095-0.086-0.175-0.044-0.29c0.692-1.907,1.379-3.815,2.064-5.724
		c0.042-0.117,0.098-0.164,0.228-0.164c1.379,0.005,2.759,0.004,4.138,0.001c0.117,0,0.173,0.03,0.212,0.15
		c0.641,1.987,1.289,3.972,1.934,5.958c0.025,0.078,0.064,0.15-0.004,0.241C19.867,13.958,19.458,14.516,19.021,15.105z"/>
</g>
</svg>
