<?xml version="1.0" encoding="utf-8"?>
<!-- Generator: Adobe Illustrator 22.0.1, SVG Export Plug-In . SVG Version: 6.00 Build 0)  -->
<svg version="1.1" id="Layer_1" xmlns="http://www.w3.org/2000/svg" xmlns:xlink="http://www.w3.org/1999/xlink" x="0px" y="0px"
	 viewBox="0 0 32 32" style="enable-background:new 0 0 32 32;" xml:space="preserve">
<style type="text/css">
	.st0{fill:url(#world_1_);}
	.st1{fill:url(#shadow_2_);}
	.st2{fill:#FFFFFF;}
	.st3{fill:#FF2D55;}
	.st4{fill:#FC9965;}
	.st5{fill:#FFBC5B;}
	.st6{fill:url(#shadow_3_);}
	.st7{fill:#FFC95B;}
</style>
<g id="ui-kit">
	<g id="logo" transform="translate(-128.000000, -128.000000)">
		<g id="color" transform="translate(128.000000, 128.000000)">
			<g id="_x32_88">
				
					<linearGradient id="world_1_" gradientUnits="userSpaceOnUse" x1="-939.6312" y1="555.1674" x2="-939.709" y2="555.0896" gradientTransform="matrix(288 0 0 -288 270641 159893)">
					<stop  offset="0" style="stop-color:#FF2D55"/>
					<stop  offset="1" style="stop-color:#FFBC5B"/>
				</linearGradient>
				<circle id="world" class="st0" cx="16" cy="16" r="15.84"/>
				<g id="big-pyramid" transform="translate(11.520000, 93.600000)">
					
						<linearGradient id="shadow_2_" gradientUnits="userSpaceOnUse" x1="-944.9943" y1="459.3273" x2="-944.9943" y2="459.2173" gradientTransform="matrix(90 0 0 -108 85054.3047 49524.1992)">
						<stop  offset="0" style="stop-color:#A524B3"/>
						<stop  offset="1" style="stop-color:#FF2D55"/>
					</linearGradient>
					<polygon id="shadow" class="st1" points="-0.137,-83.144 -0.137,-71.264 9.763,-71.264 					"/>
					<polygon id="light" class="st2" points="-10.037,-71.264 -0.137,-71.264 -0.137,-83.144 					"/>
				</g>
				<path id="end" class="st3" d="M6.496,28.672C9.141,30.66,12.436,31.84,16,31.84s6.859-1.18,9.504-3.168H6.496z"/>
				<path id="horizon" class="st4" d="M3.328,25.504C4.231,26.7,5.3,27.769,6.496,28.672h19.008
					c1.196-0.903,2.265-1.972,3.168-3.168H3.328z"/>
				<path id="ground" class="st5" d="M21.409,22.336H1.483c0.491,1.133,1.117,2.194,1.845,3.168h18.089v-3.168H21.409z"/>
				<g id="small-pyramid" transform="translate(126.720000, 151.200000)">
					
						<linearGradient id="shadow_3_" gradientUnits="userSpaceOnUse" x1="-1057.9839" y1="400.8935" x2="-1057.9839" y2="400.7835" gradientTransform="matrix(66.024 0 0 -79.2 69750.6406 31616.3594)">
						<stop  offset="0" style="stop-color:#A524B3"/>
						<stop  offset="1" style="stop-color:#FF2D55"/>
					</linearGradient>
					<polygon id="shadow_1_" class="st6" points="-105.311,-134.408 -105.311,-125.696 -98.048,-125.696 					"/>
					<polygon id="light_1_" class="st2" points="-112.565,-125.696 -105.311,-125.696 -105.311,-134.408 					"/>
				</g>
				<circle id="big-moon" class="st7" cx="21.409" cy="10.456" r="3.96"/>
				<circle id="small-moon" class="st7" cx="11.383" cy="6.1" r="1.98"/>
			</g>
		</g>
	</g>
</g>
</svg>
