<?xml version="1.0" encoding="UTF-8"?>
<svg id="Layer_1" data-name="Layer 1" xmlns="http://www.w3.org/2000/svg" version="1.1" viewBox="0 0 32 32">
  <defs>
    <style>
      .cls-1 {
        fill: #edc800;
      }

      .cls-1, .cls-2, .cls-3, .cls-4, .cls-5 {
        stroke-width: 0px;
      }

      .cls-2 {
        fill: #4e2800;
      }

      .cls-3 {
        fill: #a27c00;
      }

      .cls-4 {
        fill: #010000;
      }

      .cls-5 {
        fill: #1d0100;
      }
    </style>
  </defs>
  <path class="cls-3" d="M8.394,2.141c.545-.349,1.139-.6,1.735-.843.96-.391,1.951-.683,2.972-.867.787-.142,1.579-.254,2.382-.259.04,0,.092.021.119-.033h1.079c.032.062.091.033.137.035.782.033,1.558.132,2.324.285,1.749.349,3.391.986,4.931,1.883.56.326,1.096.689,1.608,1.084,1.444,1.113,2.666,2.432,3.657,3.964.684,1.057,1.246,2.175,1.645,3.372-.076.079-.008.159.011.229.105.393.231.78.329,1.174.157.633.29,1.271.349,1.924.044.481.144.958.142,1.442-.003.53-.013,1.059-.051,1.59-.062.866-.19,1.716-.388,2.557-.389,1.65-1.1,3.162-1.984,4.599-.479.778-1.035,1.498-1.647,2.171-.847.932-1.786,1.766-2.832,2.474-1.353.915-2.81,1.609-4.373,2.087-.279.085-.475.052-.669-.157-.239-.257-.515-.369-.891-.296-.797.155-1.605.242-2.416.281-.577.028-1.154-.017-1.73-.043-.265-.012-.537-.029-.795-.081-.428-.087-.861-.148-1.288-.246-1.124-.256-2.208-.624-3.237-1.138-1.056-.528-2.046-1.166-2.952-1.928-.609-.513-1.181-1.065-1.702-1.667-.69-.796-1.289-1.657-1.803-2.578-.445-.797-.808-1.631-1.102-2.491-.324-.949-.54-1.929-.647-2.931-.062-.586-.097-1.175-.091-1.759.005-.469.008-.943.057-1.415.043-.421.093-.843.171-1.256.16-.85.393-1.682.704-2.494.417-1.09.937-2.126,1.591-3.087.62-.911,1.322-1.758,2.134-2.513.607-.565,1.249-1.082,1.93-1.551.596-.411,1.223-.774,1.879-1.08.303-.142.465-.364.49-.695.016-.219.083-.419.234-.585.017-.006.034-.011.052-.017-.004-.005-.01-.015-.011-.014-.016.007-.031.015-.047.024-.079.024-.161.041-.237.073-.519.218-1.034.447-1.536.703-.072.037-.14.096-.232.073ZM21.496,29.683s-.004.002-.004.002c.278-.032.533-.144.777-.266.826-.411,1.64-.84,2.39-1.388.716-.523,1.391-1.086,2.004-1.725.724-.754,1.374-1.564,1.925-2.458.612-.992,1.119-2.029,1.492-3.132.444-1.311.686-2.663.762-4.043.048-.872.004-1.744-.116-2.608-.158-1.137-.427-2.249-.841-3.324-.309-.804-.68-1.577-1.116-2.319-.435-.742-.943-1.432-1.498-2.087-.469-.553-.991-1.057-1.535-1.537-.24-.211-.481-.424-.743-.606-.587-.407-1.155-.84-1.812-1.145-.386-.179-.749-.414-1.14-.59-1.775-.798-3.644-1.189-5.581-1.27-.659-.028-1.321.01-1.976.082-1.109.123-2.193.382-3.24.772-1.098.41-2.161.897-3.145,1.544-.843.554-1.64,1.163-2.357,1.876-.101.1-.109.149-.003.251.772.744,1.502,1.529,2.295,2.251.119.108.136.173.01.301-.301.306-.583.63-.845.97-.699.905-1.243,1.896-1.635,2.97-.396,1.084-.614,2.206-.668,3.356-.042.898.042,1.789.223,2.672.323,1.574.954,3.011,1.895,4.314.338.468.731.89,1.11,1.323-.043.047-.084.096-.129.141-.747.75-1.493,1.502-2.244,2.248-.097.096-.114.151-.005.259.646.637,1.351,1.202,2.106,1.703,1.46.969,3.042,1.665,4.749,2.076.831.2,1.673.329,2.523.382.684.043,1.371.036,2.057-.02,1.006-.082,1.99-.273,2.963-.539.446-.122.862-.327,1.312-.431.012-.002.025-.004.037-.005Z"/>
  <path class="cls-1" d="M30.983,10.763c.229.59.392,1.2.527,1.818.194.888.328,1.784.352,2.695,0,.031-.002.065.035.08v1.541c-.123.204-.088.442-.104.658-.057.754-.184,1.494-.364,2.226-.528,2.156-1.47,4.119-2.82,5.878-1.455,1.895-3.256,3.385-5.383,4.475-1.41.722-2.898,1.212-4.459,1.489-1.205.214-2.419.28-3.636.214-1.242-.067-2.461-.287-3.655-.648-1.878-.568-3.597-1.446-5.146-2.647-1.957-1.518-3.476-3.398-4.564-5.624-.603-1.233-1.03-2.528-1.293-3.873-.28-1.429-.363-2.873-.241-4.324.198-2.368.888-4.586,2.073-6.645.884-1.535,2.002-2.882,3.338-4.046.692-.603,1.435-1.138,2.224-1.61.075-.045.181-.033.229-.125.04-.003.088.014.11-.041,0,0-.003.002-.003.002.025-.002.042-.011.042-.039,0,0-.002.002-.002.002.035.003.072.009.079-.041,0,0-.002.002-.002.002.034.001.071.009.079-.04,0,0-.004.001-.004.001.092.023.16-.036.232-.073.502-.256,1.017-.484,1.536-.703.076-.032.158-.049.237-.073,0,0,.006.007.006.007-.151.166-.217.366-.234.585-.025.331-.187.553-.49.695-.657.306-1.283.67-1.879,1.08-.681.469-1.322.986-1.93,1.551-.812.756-1.514,1.602-2.134,2.513-.655.961-1.174,1.997-1.591,3.087-.311.812-.544,1.644-.704,2.494-.078.412-.127.834-.171,1.256-.049.473-.052.947-.057,1.415-.006.584.029,1.173.091,1.759.107,1.003.323,1.982.647,2.931.293.86.657,1.694,1.102,2.491.514.921,1.113,1.781,1.803,2.578.521.602,1.093,1.154,1.702,1.667.906.762,1.896,1.401,2.952,1.928,1.028.514,2.112.882,3.237,1.138.427.097.86.158,1.288.246.258.053.53.069.795.081.576.026,1.152.071,1.73.043.812-.04,1.62-.126,2.416-.281.376-.073.652.039.891.296.194.209.39.242.669.157,1.563-.478,3.02-1.171,4.373-2.087,1.046-.708,1.985-1.541,2.832-2.474.611-.673,1.168-1.393,1.647-2.171.884-1.437,1.595-2.949,1.984-4.599.199-.841.326-1.691.388-2.557.038-.531.048-1.06.051-1.59.003-.484-.098-.961-.142-1.442-.059-.652-.193-1.29-.349-1.924-.098-.394-.224-.782-.329-1.174-.019-.071-.087-.15-.011-.229Z"/>
  <path class="cls-3" d="M8.204,2.254c-.021.055-.069.038-.11.041.022-.053.065-.048.11-.041Z"/>
  <path class="cls-3" d="M8.397,2.139c-.008.049-.045.042-.079.04.016-.034.046-.04.079-.04Z"/>
  <path class="cls-3" d="M8.321,2.178c-.008.05-.044.043-.079.041.016-.035.046-.041.079-.041Z"/>
  <path class="cls-3" d="M8.244,2.217c0,.028-.017.037-.042.039-.008-.037.02-.034.042-.039Z"/>
  <path class="cls-5" d="M21.459,29.688c-.45.103-.866.309-1.312.431-.973.266-1.957.457-2.963.539-.686.056-1.373.063-2.057.02-.85-.053-1.692-.182-2.523-.382-1.707-.411-3.289-1.107-4.749-2.076-.754-.501-1.459-1.066-2.106-1.703-.109-.108-.092-.163.005-.259.751-.747,1.497-1.498,2.244-2.248.045-.045.086-.094.129-.141.298.262.586.537.897.784,2.424,1.923,5.18,2.717,8.256,2.403.567-.058,1.13-.154,1.675-.332.013,0,.026.004.038.001,1.41-.397,2.694-1.04,3.85-1.942.374-.292.712-.622,1.069-.932.008.084.067.135.123.188.302.285.588.585.894.866.475.437.919.909,1.376,1.365.046.046.089.092.089.163-.212.204-.414.418-.637.609-1.097.943-2.289,1.74-3.614,2.333-.219.098-.448.177-.651.31,0,0,.004-.002.004-.002-.012.002-.025.004-.037.005Z"/>
  <path class="cls-1" d="M18.955,26.723c-.545.178-1.107.274-1.675.332-3.075.315-5.832-.48-8.256-2.403-.311-.246-.598-.522-.897-.784-.38-.433-.772-.854-1.11-1.323-.941-1.303-1.572-2.74-1.895-4.314-.181-.882-.266-1.773-.223-2.672.054-1.15.272-2.273.668-3.356.392-1.073.937-2.064,1.635-2.97.262-.34.545-.664.845-.97.126-.128.109-.193-.01-.301-.793-.722-1.523-1.507-2.295-2.251-.106-.102-.098-.151.003-.251.716-.713,1.513-1.323,2.357-1.876.984-.646,2.047-1.134,3.145-1.544,1.046-.39,2.13-.649,3.24-.772.655-.073,1.317-.11,1.976-.082,1.937.081,3.806.472,5.581,1.27.391.176.754.411,1.14.59.657.305,1.225.738,1.812,1.145.262.182.504.394.743.606.544.48,1.065.984,1.535,1.537.555.655,1.063,1.345,1.498,2.087.436.742.806,1.515,1.116,2.319.414,1.075.683,2.187.841,3.324.12.864.163,1.737.116,2.608-.076,1.38-.318,2.732-.762,4.043-.373,1.102-.88,2.139-1.492,3.132-.552.894-1.201,1.704-1.925,2.458-.613.639-1.288,1.202-2.004,1.725-.75.548-1.564.977-2.39,1.388-.244.121-.499.234-.777.266.203-.132.432-.212.651-.31,1.324-.593,2.517-1.39,3.614-2.333.222-.191.425-.405.637-.609.486-.45.913-.954,1.314-1.478,1.106-1.45,1.924-3.048,2.438-4.8.56-1.907.728-3.847.506-5.82-.139-1.233-.434-2.43-.879-3.59-.735-1.916-1.821-3.604-3.259-5.067-.036-.036-.066-.08-.124-.083-.45-.495-.968-.912-1.497-1.316-1.204-.918-2.528-1.612-3.955-2.111-.762-.266-1.537-.474-2.334-.618-.74-.134-1.486-.193-2.233-.246-.484-.034-.969.022-1.454.058-.559.041-1.113.111-1.661.211-.754.138-1.493.345-2.214.609-.225.082-.314.241-.245.474.065.221.128.443.208.658.437,1.175.878,2.348,1.32,3.521.03.08.056.157.044.242-1.058.442-2.024,1.035-2.858,1.821-2.141,2.02-3.207,4.497-3.129,7.454.032,1.222.297,2.389.789,3.502.9,2.036,2.333,3.595,4.29,4.652,1.852,1.001,3.835,1.336,5.92,1.05.398-.055.791-.148,1.186-.224.014.062.024.124.042.184.115.402.231.804.346,1.206Z"/>
  <path class="cls-1" d="M10.399,1.292c.015-.008.031-.017.047-.024.001,0,.007.009.011.014-.017.006-.035.011-.052.017,0,0-.006-.007-.006-.007Z"/>
  <path class="cls-1" d="M21.459,29.688c.012-.002.025-.004.037-.005-.012.002-.025.004-.037.005Z"/>
  <path class="cls-3" d="M18.955,26.723c-.116-.402-.232-.804-.346-1.206-.017-.061-.028-.123-.042-.184.07-.064.164-.069.248-.096,2.576-.819,4.51-2.418,5.763-4.811.966-1.845,1.279-3.811.966-5.874-.276-1.816-1.03-3.414-2.211-4.811-.917-1.084-2.031-1.915-3.321-2.507-1.612-.739-3.304-.999-5.063-.814-.89.094-1.75.322-2.581.656.011-.086-.014-.163-.044-.242-.442-1.173-.883-2.346-1.32-3.521-.08-.215-.143-.437-.208-.658-.069-.233.02-.391.245-.474.721-.264,1.46-.47,2.214-.609.548-.101,1.102-.17,1.661-.211.485-.036.97-.092,1.454-.058.747.052,1.493.112,2.233.246.796.144,1.572.352,2.334.618,1.427.499,2.751,1.193,3.955,2.111.529.404,1.047.821,1.497,1.316-.026.036-.048.075-.079.106-.486.485-.974.969-1.461,1.453-.296.294-.591.59-.889.882-.063.062-.096.106-.016.186.226.226.424.477.627.724.548.668,1.021,1.386,1.404,2.153,1.095,2.19,1.396,4.505.97,6.911-.309,1.743-1.008,3.319-2.084,4.728-.296.388-.63.743-.948,1.111-.357.31-.696.64-1.069.932-1.156.902-2.44,1.545-3.85,1.942-.012.003-.025,0-.038-.001Z"/>
  <path class="cls-4" d="M23.912,23.85c.319-.368.652-.723.948-1.111,1.076-1.409,1.776-2.985,2.084-4.728.426-2.406.125-4.72-.97-6.911-.384-.767-.857-1.485-1.404-2.153-.203-.247-.401-.498-.627-.724-.08-.08-.047-.124.016-.186.298-.292.593-.587.889-.882.487-.484.975-.968,1.461-1.453.031-.031.053-.07.079-.106.058.002.089.047.124.083,1.438,1.463,2.524,3.151,3.259,5.067.445,1.16.74,2.357.879,3.59.223,1.973.054,3.913-.506,5.82-.514,1.752-1.332,3.35-2.438,4.8-.4.524-.827,1.029-1.314,1.478,0-.071-.042-.117-.089-.163-.457-.457-.901-.928-1.376-1.365-.306-.281-.592-.582-.894-.866-.056-.053-.115-.104-.123-.188Z"/>
  <path class="cls-4" d="M12.368,7.077c.831-.335,1.691-.563,2.581-.656,1.759-.186,3.451.075,5.063.814,1.29.591,2.404,1.422,3.321,2.507,1.181,1.397,1.935,2.996,2.211,4.811.313,2.062,0,4.029-.966,5.874-1.253,2.393-3.187,3.992-5.763,4.811-.084.027-.178.032-.248.096-.395.076-.788.17-1.186.224-2.085.286-4.067-.049-5.92-1.05-1.957-1.057-3.39-2.616-4.29-4.652-.492-1.113-.757-2.281-.789-3.502-.078-2.958.987-5.434,3.129-7.454.834-.787,1.8-1.38,2.858-1.821ZM18.575,14.251c-.081-.07-.149-.05-.209-.047-.506.032-1.012.031-1.518.034-.12,0-.172-.027-.17-.16.008-.385.006-.77.003-1.155,0-.102.028-.157.13-.201,1.151-.504,2.341-.747,3.592-.518.745.136,1.399.471,1.868,1.086.89,1.167,1.143,2.494.914,3.921-.151.936-.553,1.752-1.261,2.403-.228.209-.476.388-.743.541-.059.034-.114.079-.092.151.02.066.092.06.149.057.231-.011.461-.046.674-.134,1.157-.475,1.918-1.348,2.389-2.475.31-.741.396-1.534.31-2.333-.053-.492-.133-.981-.295-1.456-.135-.398-.34-.757-.554-1.112-.371-.616-.861-1.107-1.536-1.394-.786-.335-1.597-.315-2.414-.17-1.042.185-2.018.568-2.969,1.02-.331.158-.325.156-.574-.111-.407-.438-.886-.773-1.455-.972-.835-.292-1.688-.336-2.555-.189-1.496.254-2.758.905-3.701,2.13-.889,1.154-1.341,2.418-1.087,3.886.187,1.084.687,2.029,1.297,2.926.046.068.094.097.168.024.326-.318.654-.633.984-.948.071-.068.066-.12.004-.195-.101-.124-.196-.254-.276-.392-.374-.634-.565-1.323-.641-2.053-.082-.782.011-1.534.339-2.249.638-1.39,2.174-2.382,3.895-2.241.663.054,1.285.223,1.848.581.176.112.392.206.392.472,0,.379.003.757.004,1.136,0,.12-.083.127-.173.124-.294-.01-.589.009-.883-.027-.112-.014-.257-.044-.349.045-.234.224-.453.464-.68.7.058.038.123.017.183.017.571,0,1.143.003,1.714-.007.155-.003.203.047.193.197-.012.179-.003.359-.003.539,0,.421,0,.418-.413.421-.132.001-.292-.058-.393.034-.228.209-.43.445-.674.704.475,0,.896,0,1.318,0,.091,0,.162.003.16.129-.01.755.01,1.51-.028,2.265-.016.322-.003.645-.003,1.024.345-.403.65-.762.961-1.118.06-.069.079-.138.078-.226-.004-.52-.004-1.04-.004-1.56,0-.516,0-.514.522-.518.08,0,.178.04.238-.034.175-.215.341-.438.54-.697-.408,0-.765-.004-1.122.002-.127.002-.187-.025-.182-.168.01-.276.008-.552,0-.828-.003-.126.039-.167.166-.165.34.008.68.003,1.021.003.057,0,.118.013.168-.024.273-.201.488-.459.736-.693Z"/>
  <path class="cls-2" d="M18.575,14.251c-.248.234-.463.492-.736.693-.05.037-.111.024-.168.024-.34,0-.681.005-1.021-.003-.127-.003-.169.039-.166.165.007.276.009.552,0,.828-.005.143.055.171.182.168.357-.007.714-.002,1.122-.002-.199.259-.365.482-.54.697-.06.074-.158.034-.238.034-.522.003-.522.002-.522.518,0,.52,0,1.04.004,1.56,0,.088-.018.157-.078.226-.311.355-.616.715-.961,1.118,0-.379-.013-.702.003-1.024.038-.755.018-1.51.028-2.265.002-.125-.069-.129-.16-.129-.422.002-.844,0-1.318,0,.244-.259.447-.495.674-.704.1-.092.26-.032.393-.034.413-.003.413,0,.413-.421,0-.18-.009-.36.003-.539.01-.151-.038-.2-.193-.197-.571.01-1.143.007-1.714.007-.061,0-.125.02-.183-.017.227-.236.446-.476.68-.7.092-.088.236-.058.349-.045.295.036.589.017.883.027.09.003.173-.005.173-.124,0-.379-.003-.757-.004-1.136,0-.266-.216-.361-.392-.472-.563-.357-1.184-.526-1.848-.581-1.722-.141-3.257.851-3.895,2.241-.328.715-.421,1.466-.339,2.249.076.73.268,1.42.641,2.053.081.137.176.268.276.392.062.076.067.128-.004.195-.329.314-.658.63-.984.948-.075.073-.122.045-.168-.024-.609-.897-1.109-1.842-1.297-2.926-.254-1.468.199-2.733,1.087-3.886.943-1.225,2.205-1.876,3.701-2.13.867-.147,1.72-.103,2.555.189.569.199,1.048.534,1.455.972.249.268.242.269.574.111.951-.452,1.927-.835,2.969-1.02.818-.145,1.628-.165,2.414.17.675.287,1.165.778,1.536,1.394.214.355.418.714.554,1.112.161.475.242.964.295,1.456.086.799,0,1.592-.31,2.333-.472,1.127-1.232,2-2.389,2.475-.214.088-.443.123-.674.134-.058.003-.129.01-.149-.057-.022-.071.033-.117.092-.151.267-.153.516-.332.743-.541.708-.651,1.11-1.466,1.261-2.403.23-1.427-.024-2.754-.914-3.921-.468-.615-1.123-.95-1.868-1.086-1.251-.229-2.441.014-3.592.518-.102.045-.131.1-.13.201.003.385.005.77-.003,1.155-.003.132.049.16.17.16.506-.003,1.012-.001,1.518-.034.06-.004.128-.023.209.047Z"/>
</svg>