<?xml version="1.0" encoding="utf-8"?>
<!-- Generator: Adobe Illustrator 22.0.1, SVG Export Plug-In . SVG Version: 6.00 Build 0)  -->
<svg version="1.1" id="Layer_1" xmlns="http://www.w3.org/2000/svg" xmlns:xlink="http://www.w3.org/1999/xlink" x="0px" y="0px"
	 viewBox="0 0 32 32" style="enable-background:new 0 0 32 32;" xml:space="preserve">
<style type="text/css">
	.st0{fill:#103F68;}
	.st1{fill:#FFFFFF;}
</style>
<g>
	<circle class="st0" cx="16" cy="16" r="16"/>
	<path class="st1" d="M15.98,5.018l9.52,5.483v11L15.991,27l-0.077-0.019L6.5,21.501v-11l9.414-5.483
		C15.914,5.018,15.98,5.018,15.98,5.018z M15.949,6.156L7.5,11.076v9.85l8.448,4.919l1.032-0.597l7.52-4.325v-9.845l-7.52-4.35
		L15.949,6.156z M8.809,16.766l2.501-1.87l2.211,1.412v2.54l1.673,1.612l-0.001,0.756l-1.612,1.51H12.22l-3.41-5.96H8.809z
		 M16.712,21.218l-0.003-0.76l1.667-1.61v-2.54l2.187-1.43l2.496,1.889l-3.393,5.942h-1.344L16.712,21.218z M14.342,16.308
		l-0.814-2.131h4.838l-0.798,2.131l0.236,2.382l-1.867,0.004l-1.845,0.003C14.092,18.697,14.342,16.308,14.342,16.308z
		 M15.937,13.593l-4.598-0.002l0.855-3.82h7.464l0.9,3.825L15.937,13.593z"/>
</g>
</svg>
