<svg id="Layer_1" data-name="Layer 1" xmlns="http://www.w3.org/2000/svg" viewBox="0 0 31.368 31.368"><defs><style>.cls-1{fill:#ef5c2c;}.cls-2{fill:#fcfdff;}</style></defs><title>MCT</title><circle class="cls-1" cx="16" cy="16" r="15.684" transform="matrix(0.198, -0.98, 0.98, 0.198, -3.161, 28.208)"/><path class="cls-2" d="M18.65,26.469a.825.825,0,0,0,.428.113h.027a.845.845,0,0,0,.4-.138.922.922,0,0,0,.294-1.3L19,23.872h0l-.042.075c-.676,1.243-.677,1.246-.677,1.246a.919.919,0,0,0,.376,1.275Zm0,0" transform="translate(-0.316 -0.316)"/><path class="cls-2" d="M13.886,15.373l.214-.446L6.535,19.973l.09.115a3.016,3.016,0,0,0,2.1,1.325A1.625,1.625,0,0,0,9.6,21.15c.9-.561,1.7-1.048,2.366-1.46.54-.331,1-.611,1.365-.842L13.4,18.8l-.014-.088a5.69,5.69,0,0,1,.5-3.34Z" transform="translate(-0.316 -0.316)"/><path class="cls-2" d="M13.886,15.373" transform="translate(-0.316 -0.316)"/><path class="cls-2" d="M26.142,12.43l0-.037L20.6,5.418,6.883,13.875l.085.118a7.121,7.121,0,0,0,.978,1.115l.076.067,6.267-4.088a.279.279,0,0,1,.376.077.273.273,0,0,1-.078.376L5.832,17.252l.092.116a3.7,3.7,0,0,0,1.593,1.239l.063.021,8.164-5.446.052-.026.032-.01.043-.008a.253.253,0,0,1,.05,0,.2.2,0,0,1,.047.006.387.387,0,0,1,.04.015l.055.033.074.087.015.031.018.094,0,.04-.038.107-.024.032-.049.045a5.147,5.147,0,0,0-1.27,7.163l2.5,3.578.114-.1c.552-.486,1.746-1.753.884-3.02-.462-.676-.722-1.063-.871-1.282-.029-.043-.058-.086-.085-.129l0-.006-.494-.708a3.06,3.06,0,0,1-.462-1.2,2.585,2.585,0,0,1,2.2-2.811l.058-.005h.032a2.335,2.335,0,0,1,1.2.252,2.387,2.387,0,0,1,1.459,2.175,3.028,3.028,0,0,1-.269,1.258l-.55,1.14c-.008.027-.016.056-.027.085l0,0c-.032.083-.076.169-.12.257-.1.2-.268.531-.543,1.077l-.154.306c-.688,1.357.665,2.469,1.278,2.885l.122.082,2.639-4.7.017-.05c.111-.187,2.728-4.621,2.417-7.447Z" transform="translate(-0.316 -0.316)"/></svg>