<?xml version="1.0" encoding="utf-8"?>
<!-- Generator: Adobe Illustrator 25.2.1, SVG Export Plug-In . SVG Version: 6.00 Build 0)  -->
<svg version="1.1" id="Layer_1" xmlns="http://www.w3.org/2000/svg" xmlns:xlink="http://www.w3.org/1999/xlink" x="0px" y="0px"
	 viewBox="0 0 32 32" style="enable-background:new 0 0 32 32;" xml:space="preserve">
<style type="text/css">
	.st0{fill:#2F6747;}
	.st1{fill:#FFFFFF;}
</style>
<g>
	<circle class="st0" cx="16" cy="16.023" r="15.8"/>
	<path class="st1" d="M20.694,17.745c1.238-1.344,1.903-3.119,1.853-4.946c0.046-1.819-0.619-3.584-1.853-4.92
		c-1.183-1.334-2.897-2.076-4.68-2.024c-1.778-0.052-3.493,0.665-4.705,1.967c-1.256,1.333-1.924,3.115-1.853,4.946
		c-0.046,1.836,0.636,3.616,1.897,4.952c0.916,1.006,2.143,1.674,3.485,1.897v1.575h-2.77v0.974h2.751v0.5h-2.751v0.968h2.751v2.561
		h2.365v-2.58h2.776v-0.968h-2.776v-0.5h2.776v-0.974h-2.776v-1.543c1.351-0.218,2.588-0.886,3.51-1.897 M16.014,16.398
		c-0.818,0.012-1.594-0.363-2.093-1.012c-0.573-0.759-0.862-1.694-0.816-2.644c-0.041-0.931,0.248-1.847,0.816-2.587
		c0.499-0.649,1.275-1.024,2.093-1.012c0.817-0.007,1.588,0.382,2.068,1.044c0.585,0.73,0.886,1.646,0.847,2.58
		c0.035,0.936-0.243,1.858-0.791,2.618C17.635,16.045,16.844,16.422,16.014,16.398"/>
</g>
</svg>
