<?xml version="1.0" encoding="utf-8"?>
<!-- Generator: Adobe Illustrator 22.0.1, SVG Export Plug-In . SVG Version: 6.00 Build 0)  -->
<svg version="1.1" id="Layer_1" xmlns="http://www.w3.org/2000/svg" xmlns:xlink="http://www.w3.org/1999/xlink" x="0px" y="0px"
	 viewBox="0 0 32 32" style="enable-background:new 0 0 32 32;" xml:space="preserve">
<style type="text/css">
	.st0{fill:#127EBA;}
	.st1{fill:#FFFFFF;}
</style>
<g>
	<circle class="st0" cx="16" cy="16" r="16"/>
	<g>
		<path class="st1" d="M6.1615,6.1677c0.085,0.0044,0.1348,0.062,0.1924,0.1c1.9379,1.2769,3.8748,2.5553,5.812,3.8333
			c2.7602,1.8209,5.5205,3.6417,8.2807,5.4626c0.1879,0.124,0.188,0.1244-0.0016,0.2571c-0.9402,0.658-1.8804,1.3158-2.8206,1.9737
			c-0.4919,0.3442-0.9868,0.6842-1.4732,1.036c-0.1171,0.0847-0.1928,0.0737-0.3045-0.005
			c-1.5213-1.0714-3.0457-2.1383-4.5707-3.2043c-0.0503-0.0352-0.101-0.1153-0.1648-0.0798
			c-0.0601,0.0335-0.026,0.1196-0.0261,0.1817c-0.0022,2.1589-0.0032,4.3179-0.0022,6.4768
			c0.0001,0.1161-0.0137,0.203-0.1246,0.2806c-1.5629,1.0947-3.1216,2.1954-4.6814,3.2945
			c-0.0313,0.0221-0.0643,0.0418-0.1153,0.0749C6.1615,19.2788,6.1615,12.7256,6.1615,6.1677z"/>
		<path class="st1" d="M25.8385,6.1501c0,6.5729,0,13.1063,0,19.6455c-0.0865,0.0168-0.1319-0.0503-0.1856-0.0879
			c-1.1697-0.819-2.3379-1.6402-3.5065-2.4609c-0.3427-0.2407-0.6814-0.4874-1.0306-0.7183
			c-0.1357-0.0897-0.1863-0.1881-0.1859-0.3519c0.0055-2.1254-0.0002-4.2509,0.0093-6.3762
			c0.001-0.2287-0.0615-0.3599-0.2579-0.4871c-1.4172-0.9183-2.8249-1.8514-4.2354-2.7799
			c-0.0382-0.0251-0.0752-0.0519-0.1369-0.0945C19.4838,10.3437,22.6465,8.2565,25.8385,6.1501z"/>
	</g>
</g>
</svg>
