<?xml version="1.0" encoding="utf-8"?>
<!-- Generator: Adobe Illustrator 26.2.1, SVG Export Plug-In . SVG Version: 6.00 Build 0)  -->
<svg version="1.1" id="Layer_1" xmlns="http://www.w3.org/2000/svg" xmlns:xlink="http://www.w3.org/1999/xlink" x="0px" y="0px"
	 viewBox="0 0 32 32" style="enable-background:new 0 0 32 32;" xml:space="preserve">
<style type="text/css">
	.st0{fill:#FFFFFF;}
</style>
<g>
	<circle cx="16" cy="16" r="15.778"/>
	<g>
		<path class="st0" d="M18.491,6.47c-0.007-0.007-0.562,0.533-1.231,1.202c-0.677,0.677-1.253,1.224-1.296,1.224
			s-0.605-0.533-1.26-1.188c-0.655-0.655-1.217-1.188-1.26-1.188c-0.072,0-8.748,8.705-8.748,8.777c0,0.029,0.835,0.878,1.858,1.894
			l1.85,1.858l2.52-2.52l2.52-2.52l1.26,1.26l1.26,1.26l1.26-1.26l1.26-1.26l2.52,2.52l2.52,2.52l1.894-1.894l1.886-1.894
			l-4.392-4.392C20.493,8.457,18.506,6.477,18.491,6.47z M23.502,16.456c-0.036,0-1.174-1.123-2.534-2.498l-2.462-2.491
			l-1.231,1.231c-0.684,0.684-1.274,1.238-1.31,1.238c-0.043,0-0.626-0.554-1.296-1.224l-1.224-1.224l-2.52,2.52l-2.52,2.52
			L7.77,15.902l-0.634-0.626l3.154-3.154l3.154-3.154l1.26,1.26l1.26,1.26l1.26-1.26l1.26-1.26l3.11,3.11
			c1.714,1.714,3.118,3.146,3.118,3.182C24.712,15.355,23.589,16.456,23.502,16.456z"/>
		<path class="st0" d="M18.455,16.528c-0.022,0-0.864,0.85-1.886,1.886l-1.85,1.894l0.619,0.634l0.626,0.626l1.26-1.26l1.26-1.26
			l0.598,0.598c0.324,0.324,0.59,0.626,0.59,0.662c0,0.094-3.614,3.708-3.708,3.708c-0.036,0-0.907-0.835-1.922-1.85l-1.858-1.858
			l1.26-1.26l1.26-1.26l-0.634-0.634l-0.626-0.626l-1.894,1.894l-1.886,1.886l3.118,3.118c1.706,1.706,3.132,3.11,3.168,3.11
			c0.029,0,1.462-1.411,3.19-3.132l3.132-3.125L20.385,18.4C19.341,17.371,18.477,16.528,18.455,16.528z"/>
	</g>
</g>
</svg>
