<?xml version="1.0" encoding="utf-8"?>
<!-- Generator: Adobe Illustrator 25.3.1, SVG Export Plug-In . SVG Version: 6.00 Build 0)  -->
<svg version="1.1" id="Layer_1" xmlns="http://www.w3.org/2000/svg" xmlns:xlink="http://www.w3.org/1999/xlink" x="0px" y="0px"
	 viewBox="0 0 32 32" style="enable-background:new 0 0 32 32;" xml:space="preserve">
<style type="text/css">
	.st0{fill:#1E1E1C;}
	.st1{fill:#FFFFFF;}
</style>
<g>
	<path class="st0" d="M16.042,0.214C7.341,0.191,0.219,7.288,0.214,15.989c-0.006,8.687,7.079,15.786,15.764,15.797
		c8.685,0.012,15.792-7.071,15.807-15.754C31.8,7.344,24.727,0.237,16.042,0.214z"/>
	<g id="Layer_3">
		<g>
			<g>
				<polygon class="st1" points="15.644,16.611 10.612,13.347 10.612,15.335 15.644,18.599 20.676,15.335 20.676,13.347 				"/>
				<polygon class="st1" points="15.644,13.987 10.612,10.723 10.612,12.707 15.644,15.971 20.676,12.707 20.676,10.723 				"/>
				<polygon class="st1" points="16.004,10.671 17.26,10.683 16.268,11.451 16.644,12.647 15.608,11.943 14.584,12.667 
					14.936,11.463 13.928,10.719 15.18,10.679 15.58,9.491 				"/>
				<polygon class="st1" points="18.98,16.955 18.98,17.191 18.98,19.119 18.98,19.355 20.676,20.455 20.676,19.119 20.676,17.191 
					20.676,15.855 				"/>
				<polygon class="st1" points="10.612,15.855 10.612,17.191 10.612,19.119 10.612,20.455 12.308,19.355 12.308,19.119 
					12.308,17.191 12.308,16.955 				"/>
			</g>
			<path class="st1" d="M25.084,9.559c0,0-3.384-3.984-9.44-3.984c-5.96,0-9.44,3.984-9.44,3.984s-0.38,8.108,2.308,12.516
				c2.196,3.604,6.444,4.98,7.132,5.184c0.688-0.204,4.932-1.58,7.132-5.184C25.464,17.667,25.084,9.559,25.084,9.559z
				 M21.38,21.387c-1.548,2.54-4.368,3.868-5.736,4.392c-1.368-0.52-4.188-1.852-5.736-4.392c-1.868-3.06-2.236-8.632-2.224-11.496
				c1.172-1.016,3.948-2.964,7.96-2.964c4.044,0,6.808,1.956,7.956,2.956C23.612,12.743,23.24,18.335,21.38,21.387z"/>
		</g>
	</g>
</g>
</svg>
