<?xml version="1.0" encoding="utf-8"?>
<!-- Generator: Adobe Illustrator 24.0.2, SVG Export Plug-In . SVG Version: 6.00 Build 0)  -->
<svg version="1.1" id="Layer_1" xmlns="http://www.w3.org/2000/svg" xmlns:xlink="http://www.w3.org/1999/xlink" x="0px" y="0px"
	 viewBox="0 0 32 32" style="enable-background:new 0 0 32 32;" xml:space="preserve">
<style type="text/css">
	.st0{fill-rule:evenodd;clip-rule:evenodd;fill:#957955;}
	.st1{fill:#FFFFFF;}
</style>
<g>
	<circle class="st0" cx="16" cy="16" r="16"/>
	<g>
		<polygon class="st1" points="12.575,15.26 19.48,22.111 19.48,18.329 12.575,11.479 10.383,9.67 10.383,6.108 19.48,15.096 
			19.48,3.697 21.617,5.779 21.617,17.343 23.371,19.042 23.371,7.588 25.563,9.561 25.563,24.303 21.782,20.466 21.727,27.317 
			12.575,18.274 12.465,28.303 10.383,26.002 10.383,16 8.739,14.383 8.739,24.577 6.437,22.056 6.437,8.903 10.328,12.739 		"/>
		<polygon class="st1" points="12.52,15.753 12.52,10.766 10.383,8.026 10.383,14.164 		"/>
	</g>
</g>
</svg>
