<?xml version="1.0" encoding="UTF-8"?>
<svg id="Layer_1" xmlns="http://www.w3.org/2000/svg" version="1.1" viewBox="0 0 32 32">
  <!-- Generator: Adobe Illustrator 29.0.1, SVG Export Plug-In . SVG Version: 2.1.0 Build 192)  -->
  <defs>
    <style>
      .st0 {
        fill: #fefdfd;
      }

      .st1 {
        fill: #991e14;
      }
    </style>
  </defs>
  <circle class="st1" cx="16" cy="16" r="16"/>
  <path class="st0" d="M17.211,6.77l-.12.047c.098-.028.155.027.23.046.148.038.283.067.431.097.045.009.1-.009.138,0,.027.007.025.063.051.066.024.003.055-.029.104-.012.009.003.053.083.057.085.017.006.078-.032.124-.02.025.006.024.053.039.061.02.012.059-.018.096-.001.062.028.058.113.193.061-.059.084.044.044.096.063.05.019.139.095.173.112.033.016.208.072.224.085.055.044-.009.096.131.051l-.023.07.846.529.138.192c.077.006.03-.001.036-.048.056.006.107.121.156.156.036.026.077.036.12.036l-.024.047c.116-.013.079.074.119.133.1.147.299.318.405.458.174.23.396.553.541.803.034.058.15.353.183.381.054.045.036-.06.071-.048.004.044.008.183.029.211.015.02.071.01.094.045.025.039-.002.143.023.205.156.374.361.838.429,1.255.128.783.055,1.4,0,2.18-.05.716.092,1.291.242,1.966.069.311.507,1.416.685,1.665.035.049.12.097.124.104.006.01.057.21.056.222-.012.189-.232.333-.388.406-.214.101-.55.203-.78.252-.043.009-.278.024-.299.05-.039.046.046.079.048.088.038.174.109.521.072.686-.004.018-.115.29-.134.327-.025.047-.134.125-.155.156-.081.12.039.189.051.289.036.291.02.61-.146.858-.029.043-.164.131-.169.175-.011.097.036.074.048.102.131.312.225.637.195,1.002-.003.037-.109.353-.128.388-.073.136-.452.397-.612.455-.481.174-1.436.147-1.985.126-.665-.025-1.3-.149-1.946-.237-.339-.046-.898-.159-1.203-.289-.325-.139-.612-.18-.884-.454-.09-.091-.148-.255-.275-.266v-.023c.137-.011-.017-.121-.024-.137-.389-.852-.564-1.829-.717-2.755-.01-.058,0-.119-.003-.177-.055-.054-.522.202-.618.233-.806.261-1.524-.016-1.728-.874-.215-.905.264-2.353.633-3.193.093-.213.249-.439.331-.652.013-.034.063-.177.065-.201.004-.062-.149-.515-.182-.612-.023-.067-.161-.485-.184-.499-.02-.012-.121-.009-.151-.003-.455.09-1.492.466-1.724.892-.18.33.118.644.368.843.169.135.585.3.652.499.079.236-.17.483-.42.419-.068-.017-.475-.273-.557-.331-.953-.666-1.047-1.579-.092-2.296.51-.383,1.139-.544,1.749-.699.029-.039-.053-.313-.06-.374-.065-.597-.097-1.27.125-1.837.475-1.209,1.753-.781,2.532-.124.016.014.109.099.113.105.016.026-.01.059-.005.08.009.036.038.067.039.1,0,.009-.046.169-.052.176-.007.009-.043,0-.057.012-.022.018-.079.1-.089.104-.283.129-.583-.21-.81-.339-.135-.076-.488-.221-.635-.207-.128.012-.307.143-.373.253-.245.406-.163,1.159-.097,1.609.01.065-.005.274.048.311.071.049.326-.03.422-.037.255-.019.513-.004.765-.075.229-.211.406-.469.617-.697.607-.657,1.694-1.672,2.58-1.841,1.411-.268,1.658,1.211,1.474,2.264-.041.235-.237.389-.48.314-.315-.097-.158-.615-.143-.841.013-.195-.007-.474-.055-.663-.07-.272-.286-.437-.575-.398-.802.111-1.915,1.139-2.43,1.744-.014.017-.09.116-.084.12.245.013.513.005.756.024.612.048,1.24.152,1.831.281,1.15.25,2.504.665,3.16,1.71.095.151.097.599.06.777-.085.411-.679.83-1.034,1.005-.077.038-.434.203-.491.207-.093.006-.253-.098-.292-.185-.204-.449.445-.574.732-.768.309-.209.583-.487.325-.864-.332-.485-1.258-.854-1.806-1.024-1.067-.331-2.134-.438-3.251-.492-.101-.005-.477-.019-.548,0-.024.007-.072.119-.09.15-.212.374-.513.76-.729,1.16-.006.012-.036.016-.046.039-.054.13.016.126.05.205.567,1.297,1.792,3.556,3.192,4.291.34.178.774.275.975-.139.435-.894-.149-2.733-.51-3.635-.102-.256-.439-.866-.431-1.099.009-.289.374-.399.56-.205.086.09.334.671.399.824.486,1.156,1.04,3.021.632,4.237-.18.537-.656.902-1.242.833-1.193-.14-2.513-1.818-3.129-2.772-.348-.539-.635-1.109-.922-1.681-.04-.008-.063.019-.081.049-.172.288-.265.748-.434,1.053-.163.607-.41,1.37-.25,2.001.153.602.776.411,1.19.209.136-.066.491-.335.579-.357.053-.013.251-.016.301,0,.01.003.143.13.148.139.018.035.023.116.028.16.075.755.209,1.551.406,2.285.278,1.037.517,1.322,1.565,1.602,1.091.291,2.243.362,3.379.364.284,0,.551.027.837-.049.521-.137.411-.59.238-.978-.103-.231-.39-.493-.126-.732.066-.06.313-.161.332-.224.026-.084.02-.287-.004-.373-.038-.141-.206-.335-.186-.483.032-.242.386-.265.43-.507.027-.15-.075-.435-.126-.59-.063-.192-.226-.339-.017-.536.106-.1.139-.06.247-.089.304-.082.615-.1.91-.193.029-.009.213-.066.212-.078l-.469-1.09c-.159-.517-.336-1.052-.437-1.577-.171-.888.095-1.842.017-2.751-.085-.994-.688-2.288-1.321-3.063-.141-.173-.47-.543-.648-.654-.24-.15-.513-.406-.794-.573-2.794-1.66-6.751-.909-8.671,1.713-1.515,2.067-1.939,3.999-1.267,6.538.371,1.401,1.077,2.601,1.506,3.987.356,1.152.635,2.313.278,3.495-.028.091-.025.16-.08.252-.036.06-.183.15-.248.161-.12.019-.351-.151-.368-.277-.008-.057-.007-.129.003-.185.03-.159.117-.364.135-.536.112-1.017-.133-2.21-.455-3.156-.36-1.058-.99-2.074-1.301-3.213-.093-.342-.244-.787-.299-1.14-.014-.089.013-.241-.01-.303-.013-.035-.059-.033-.066-.042-.008-.011.028-.196.02-.272-.01-.098-.062-.163-.073-.239-.109-.796.089-2.114.318-2.873.344-1.139,1.339-2.821,2.321-3.628.032-.026.09-.033.094-.038.015-.019-.008-.074.007-.09.016-.016.019,0,.075-.068.022-.026.228-.109.278-.142.505-.334.895-.598,1.422-.857.153-.075.265-.162.413-.167.028-.001.058-.018.088-.015l-.024-.048c.127-.007.269-.035.389-.074.02-.007.019-.036.039-.043.161-.058.35-.065.519-.1.075-.015.147-.08.253-.047l-.144-.047c.067-.02.156.02.209.017.174-.008.438-.069.618-.09.702-.083,1.368.033,2.044.089.055.005.136-.034.201-.016ZM18.195,7.106c-.034-.017-.064.015-.048.023.034.017.064-.015.048-.023ZM18.879,7.417v.024c.016-.008.016-.016,0-.024ZM13.491,13.1h-.372c-.007,0-.127.031-.133.035-.069.047.067.318.091.391.024.074-.023.18.12.06l.293-.486Z"/>
</svg>