<?xml version="1.0" encoding="utf-8"?>
<!-- Generator: Adobe Illustrator 26.0.1, SVG Export Plug-In . SVG Version: 6.00 Build 0)  -->
<svg version="1.1" id="Layer_1" xmlns="http://www.w3.org/2000/svg" xmlns:xlink="http://www.w3.org/1999/xlink" x="0px" y="0px"
	 viewBox="0 0 32 32" style="enable-background:new 0 0 32 32;" xml:space="preserve">
<style type="text/css">
	.st0{fill-rule:evenodd;clip-rule:evenodd;fill:#0188FE;}
	.st1{fill:#FFFFFF;}
</style>
<g>
	<circle class="st0" cx="16" cy="16" r="16"/>
	<path class="st1" d="M22.013,20.498h5.558L18.687,8.243l-3.076,4.191l-3.074-4.191L3.7,20.315L3.54,20.498h5.649
		c-2.847-0.866-1.23-2.87-1.23-2.87l4.426-5.846c0.304-0.531,0.516-0.015,0.516-0.015l0.228,0.304l1.458,1.868l-0.319,0.433
		l-2.187,2.893l2.232,3.007l2.414,0.046l2.369-3.052l-2.414-3.371l1.594-2.05c0.364-0.683,0.638,0,0.638,0l1.686,2.323l2.414,3.234
		c0.82,0.683,0.456,1.959,0.456,1.959C23.152,20.088,22.013,20.498,22.013,20.498z M16.899,17.183l-1.288,1.754l-1.366-1.674
		l1.298-1.788L16.899,17.183z"/>
</g>
</svg>
