<svg id="Layer_1" data-name="Layer 1" xmlns="http://www.w3.org/2000/svg" viewBox="0 0 32 32"><defs><style>.cls-1{fill:#facc35;}.cls-2{font-size:2.85px;font-family:Verdana;}</style></defs><circle class="cls-1" cx="16" cy="16" r="16"/><rect x="4.551" y="12.861" width="1.52" height="7.741"/><rect x="8.886" y="13.087" width="1.52" height="7.516"/><rect x="13.502" y="6.219" width="1.661" height="19.563"/><rect x="16.317" y="20.264" width="1.773" height="5.517"/><rect x="23.326" y="12.861" width="1.492" height="7.741"/><rect x="16.317" y="6.219" width="1.576" height="5.461"/><rect x="20.145" y="11.539" width="7.769" height="1.548"/><rect x="14.206" y="15.395" width="3.153" height="1.45"/><polygon points="20.363 12.861 17.893 16.12 21.482 20.602 19.687 20.602 16.204 16 19.751 11.539 20.785 11.539 20.363 12.861"/><path d="M13.65,13.256h-9.1s.1-1.45,1.266-1.717H9.1l.623.774.683-.774h3.476Z"/><text class="cls-2" transform="translate(18.843 23.771)">coin</text></svg>