<?xml version="1.0" encoding="utf-8"?>
<!-- Generator: Adobe Illustrator 25.0.1, SVG Export Plug-In . SVG Version: 6.00 Build 0)  -->
<svg version="1.1" id="Layer_1" xmlns="http://www.w3.org/2000/svg" xmlns:xlink="http://www.w3.org/1999/xlink" x="0px" y="0px"
	 viewBox="0 0 32 32" style="enable-background:new 0 0 32 32;" xml:space="preserve">
<style type="text/css">
	.st0{fill:url(#SVGID_1_);}
	.st1{fill:#231F20;}
	.st2{fill:url(#SVGID_2_);}
	.st3{fill:url(#SVGID_3_);}
</style>
<g>
	<linearGradient id="SVGID_1_" gradientUnits="userSpaceOnUse" x1="4.8172" y1="27.1829" x2="27.1829" y2="4.8172">
		<stop  offset="0" style="stop-color:#ECC35F"/>
		<stop  offset="0.23" style="stop-color:#A7722B"/>
		<stop  offset="0.33" style="stop-color:#E0B656"/>
		<stop  offset="0.46" style="stop-color:#F6F1B7"/>
		<stop  offset="0.58" style="stop-color:#E0B656"/>
		<stop  offset="0.69" style="stop-color:#916228"/>
		<stop  offset="1" style="stop-color:#E0B656"/>
	</linearGradient>
	<path class="st0" d="M31.527,16.358c0.006-0.305,0.292-0.378,0.292-0.378c0-0.217-0.005-0.434-0.014-0.651
		c-0.001,0-0.289-0.061-0.308-0.365c-0.021-0.304,0.257-0.402,0.258-0.403c-0.02-0.216-0.043-0.432-0.072-0.647
		c-0.001,0-0.294-0.035-0.34-0.336c-0.048-0.301,0.22-0.424,0.221-0.424c-0.039-0.213-0.082-0.426-0.13-0.638
		c-0.001,0-0.296-0.008-0.369-0.304c-0.075-0.296,0.181-0.442,0.181-0.442c-0.058-0.209-0.12-0.417-0.187-0.623
		c-0.001,0-0.295,0.018-0.395-0.27c-0.101-0.287,0.141-0.456,0.141-0.457c-0.077-0.203-0.157-0.404-0.242-0.604
		c-0.001,0-0.292,0.045-0.417-0.233c-0.127-0.277,0.099-0.467,0.099-0.468c-0.095-0.195-0.193-0.389-0.296-0.58
		c-0.001,0-0.287,0.071-0.436-0.194c-0.151-0.265,0.056-0.474,0.057-0.475c-0.112-0.186-0.227-0.37-0.346-0.551
		c-0.001,0-0.28,0.097-0.452-0.155c-0.174-0.25,0.014-0.477,0.014-0.478c-0.128-0.175-0.259-0.348-0.394-0.518
		c-0.001,0-0.27,0.121-0.464-0.114C27.733,5.82,27.9,5.577,27.9,5.577c-0.143-0.163-0.289-0.323-0.439-0.48
		c-0.001,0-0.258,0.145-0.473-0.072c-0.216-0.215-0.071-0.472-0.071-0.473c-0.157-0.15-0.317-0.296-0.48-0.439
		c-0.001,0-0.244,0.167-0.477-0.029c-0.234-0.195-0.113-0.464-0.113-0.464c-0.17-0.135-0.342-0.267-0.517-0.395
		c-0.001,0-0.228,0.188-0.478,0.013c-0.251-0.173-0.154-0.452-0.154-0.452c-0.181-0.119-0.365-0.235-0.55-0.347
		c-0.001,0-0.21,0.208-0.475,0.056c-0.265-0.15-0.194-0.436-0.194-0.437c-0.191-0.103-0.384-0.201-0.579-0.296
		c-0.001,0-0.191,0.226-0.468,0.099C22.155,1.734,22.2,1.443,22.2,1.442c-0.199-0.085-0.401-0.166-0.604-0.243
		C21.596,1.2,21.427,1.441,21.14,1.34c-0.288-0.1-0.269-0.394-0.269-0.395c-0.206-0.067-0.414-0.129-0.623-0.187
		c-0.001,0.001-0.147,0.257-0.442,0.181c-0.296-0.073-0.304-0.368-0.304-0.369c-0.211-0.048-0.424-0.091-0.637-0.13
		c-0.001,0.001-0.123,0.269-0.424,0.22c-0.301-0.047-0.336-0.34-0.336-0.34c-0.215-0.029-0.43-0.053-0.647-0.073
		c0,0.001-0.099,0.279-0.403,0.257c-0.304-0.02-0.364-0.308-0.365-0.309c-0.217-0.009-0.433-0.014-0.65-0.015
		c0,0.001-0.074,0.286-0.379,0.292c-0.305,0.007-0.39-0.275-0.39-0.276c-0.217,0.01-0.433,0.024-0.649,0.043
		c0,0.001-0.048,0.292-0.351,0.324c-0.303,0.034-0.413-0.239-0.414-0.24c-0.215,0.029-0.429,0.063-0.643,0.101
		c0,0.001-0.022,0.295-0.32,0.355c-0.299,0.062-0.433-0.201-0.434-0.201c-0.212,0.048-0.422,0.101-0.631,0.158
		c0,0.001,0.005,0.296-0.287,0.382c-0.292,0.088-0.449-0.161-0.45-0.161c-0.206,0.067-0.411,0.139-0.614,0.215
		c0,0.001,0.032,0.294-0.252,0.406c-0.282,0.114-0.462-0.12-0.463-0.12C9.564,1.544,9.366,1.633,9.17,1.727
		c0,0.001,0.058,0.29-0.214,0.427C8.685,2.294,8.485,2.077,8.485,2.077c-0.191,0.103-0.38,0.21-0.566,0.321
		c0,0.001,0.084,0.283-0.175,0.445C7.487,3.006,7.268,2.808,7.268,2.807c-0.181,0.12-0.359,0.244-0.535,0.371
		c0,0.001,0.109,0.275-0.134,0.459C6.357,3.822,6.121,3.645,6.121,3.644c-0.169,0.135-0.336,0.275-0.5,0.417
		c0,0.001,0.133,0.264-0.093,0.469C5.304,4.736,5.054,4.58,5.053,4.58c-0.157,0.15-0.31,0.303-0.46,0.46
		c0,0.001,0.156,0.251-0.051,0.475C4.337,5.74,4.074,5.607,4.073,5.607C3.931,5.77,3.792,5.937,3.656,6.106
		c0,0.001,0.178,0.236-0.008,0.478C3.464,6.826,3.189,6.717,3.189,6.717C3.061,6.893,2.938,7.071,2.818,7.251
		c0,0.001,0.198,0.219,0.035,0.477C2.691,7.986,2.408,7.902,2.407,7.902C2.296,8.089,2.189,8.277,2.085,8.468
		c0,0.001,0.217,0.201,0.077,0.472C2.025,9.211,1.736,9.153,1.735,9.153c-0.094,0.196-0.184,0.393-0.27,0.592
		c0,0.001,0.234,0.18,0.12,0.463c-0.113,0.283-0.406,0.251-0.407,0.251c-0.076,0.203-0.148,0.408-0.215,0.614
		c0.001,0,0.249,0.158,0.161,0.45c-0.087,0.292-0.382,0.287-0.382,0.287c-0.057,0.209-0.11,0.42-0.159,0.631
		c0,0,0.263,0.135,0.201,0.434c-0.06,0.299-0.354,0.32-0.355,0.32c-0.038,0.213-0.072,0.428-0.101,0.643
		c0.001,0,0.274,0.111,0.239,0.414c-0.033,0.303-0.324,0.35-0.325,0.351c-0.019,0.216-0.034,0.432-0.044,0.649
		c0.001,0,0.283,0.086,0.275,0.391c-0.006,0.305-0.292,0.378-0.293,0.378c0,0.217,0.005,0.434,0.014,0.65
		c0.001,0,0.289,0.061,0.308,0.365c0.021,0.304-0.257,0.402-0.258,0.403c0.019,0.216,0.043,0.432,0.072,0.647
		c0.001,0,0.294,0.035,0.34,0.336c0.048,0.301-0.22,0.424-0.221,0.424c0.039,0.213,0.082,0.426,0.129,0.638
		c0.001,0,0.296,0.008,0.369,0.304c0.075,0.295-0.181,0.442-0.181,0.442c0.058,0.209,0.12,0.417,0.187,0.623
		c0.001,0,0.295-0.018,0.395,0.27c0.101,0.287-0.14,0.456-0.141,0.457c0.076,0.203,0.157,0.404,0.242,0.604
		c0.001,0,0.292-0.045,0.417,0.233c0.127,0.277-0.099,0.467-0.099,0.468c0.095,0.195,0.193,0.389,0.296,0.58
		c0.001,0,0.287-0.071,0.437,0.194c0.151,0.265-0.056,0.474-0.057,0.475c0.112,0.186,0.227,0.37,0.346,0.551
		c0.001,0,0.28-0.096,0.452,0.155c0.174,0.25-0.014,0.477-0.014,0.478c0.128,0.175,0.259,0.348,0.394,0.518
		c0.001,0,0.27-0.121,0.464,0.114c0.196,0.233,0.029,0.476,0.029,0.477c0.143,0.163,0.289,0.323,0.439,0.48
		c0.001,0,0.258-0.145,0.473,0.072c0.216,0.215,0.071,0.472,0.071,0.473c0.157,0.15,0.317,0.296,0.48,0.439
		c0.001,0,0.244-0.167,0.477,0.029c0.234,0.195,0.113,0.464,0.113,0.464c0.17,0.135,0.342,0.267,0.517,0.395
		c0.001,0,0.228-0.188,0.478-0.013c0.251,0.173,0.154,0.452,0.154,0.452c0.181,0.119,0.364,0.235,0.55,0.347
		c0.001,0,0.21-0.208,0.475-0.056c0.265,0.15,0.194,0.436,0.194,0.437c0.191,0.103,0.384,0.201,0.579,0.296
		C9.1,30.239,9.29,30.013,9.567,30.14C9.845,30.266,9.8,30.557,9.8,30.558c0.199,0.085,0.401,0.166,0.604,0.243
		c0.001-0.001,0.17-0.242,0.457-0.141c0.288,0.1,0.269,0.394,0.269,0.395c0.207,0.067,0.414,0.129,0.623,0.187
		c0.001-0.001,0.147-0.256,0.442-0.181c0.296,0.073,0.304,0.368,0.304,0.369c0.212,0.048,0.424,0.091,0.637,0.13
		c0.001-0.001,0.123-0.269,0.424-0.22c0.301,0.046,0.336,0.339,0.336,0.34c0.215,0.029,0.431,0.053,0.647,0.072
		c0-0.001,0.099-0.278,0.403-0.257c0.304,0.02,0.365,0.308,0.365,0.309c0.217,0.009,0.434,0.014,0.65,0.015
		c0-0.001,0.074-0.286,0.379-0.292c0.305-0.007,0.39,0.275,0.39,0.275c0.217-0.01,0.433-0.024,0.649-0.043
		c0-0.001,0.048-0.292,0.351-0.324c0.303-0.034,0.413,0.239,0.414,0.24c0.215-0.029,0.429-0.063,0.643-0.101
		c0-0.001,0.022-0.295,0.32-0.355c0.299-0.062,0.433,0.201,0.433,0.201c0.211-0.048,0.422-0.101,0.631-0.158
		c0-0.001-0.005-0.296,0.287-0.382c0.292-0.088,0.449,0.161,0.45,0.161c0.206-0.067,0.411-0.139,0.614-0.215
		c0-0.001-0.032-0.294,0.252-0.407c0.282-0.114,0.462,0.12,0.463,0.12c0.199-0.086,0.397-0.175,0.592-0.269
		c0-0.001-0.058-0.29,0.214-0.427c0.271-0.139,0.471,0.078,0.472,0.078c0.191-0.103,0.379-0.21,0.566-0.321
		c0-0.001-0.084-0.283,0.175-0.445c0.258-0.163,0.476,0.035,0.477,0.035c0.181-0.12,0.359-0.244,0.535-0.371
		c0-0.001-0.109-0.275,0.134-0.459c0.242-0.185,0.477-0.008,0.478-0.007c0.169-0.135,0.336-0.275,0.499-0.417
		c0-0.001-0.133-0.264,0.093-0.469c0.224-0.206,0.475-0.05,0.475-0.05c0.157-0.15,0.31-0.303,0.461-0.46
		c0-0.001-0.156-0.251,0.051-0.475c0.205-0.225,0.468-0.092,0.469-0.092c0.143-0.163,0.282-0.33,0.418-0.499
		c-0.001-0.001-0.178-0.236,0.008-0.478c0.184-0.243,0.458-0.134,0.459-0.134c0.128-0.175,0.251-0.354,0.371-0.534
		c0-0.001-0.198-0.219-0.035-0.477c0.162-0.258,0.445-0.174,0.445-0.174c0.111-0.186,0.218-0.375,0.322-0.565
		c-0.001-0.001-0.217-0.201-0.077-0.472c0.138-0.272,0.427-0.213,0.428-0.213c0.094-0.196,0.184-0.393,0.27-0.592
		c-0.001,0-0.234-0.18-0.12-0.463c0.113-0.283,0.406-0.251,0.407-0.251c0.076-0.203,0.148-0.408,0.215-0.614
		c-0.001-0.001-0.25-0.158-0.161-0.45c0.087-0.292,0.382-0.287,0.382-0.287c0.057-0.209,0.11-0.42,0.159-0.631
		c0,0-0.263-0.135-0.201-0.434c0.06-0.299,0.354-0.32,0.355-0.32c0.038-0.213,0.072-0.428,0.101-0.643
		c-0.001,0-0.274-0.111-0.239-0.414c0.033-0.303,0.324-0.35,0.325-0.351c0.019-0.216,0.034-0.432,0.044-0.649
		C31.801,16.749,31.519,16.663,31.527,16.358z"/>
	<circle class="st1" cx="16" cy="16" r="15.294"/>
	<linearGradient id="SVGID_2_" gradientUnits="userSpaceOnUse" x1="16.5531" y1="27.8158" x2="16.5531" y2="3.8872">
		<stop  offset="0" style="stop-color:#C49533"/>
		<stop  offset="0.015" style="stop-color:#D1AC4D"/>
		<stop  offset="0.0362" style="stop-color:#E0C66A"/>
		<stop  offset="0.0588" style="stop-color:#ECDA80"/>
		<stop  offset="0.0832" style="stop-color:#F4E990"/>
		<stop  offset="0.1105" style="stop-color:#F9F19A"/>
		<stop  offset="0.1471" style="stop-color:#FBF49D"/>
		<stop  offset="0.2876" style="stop-color:#FBDE69"/>
		<stop  offset="0.4792" style="stop-color:#AE842D"/>
		<stop  offset="0.6244" style="stop-color:#835823"/>
		<stop  offset="0.7625" style="stop-color:#AE842D"/>
		<stop  offset="0.9041" style="stop-color:#EAC853"/>
		<stop  offset="0.9612" style="stop-color:#F5E37D"/>
		<stop  offset="1" style="stop-color:#FBF395"/>
	</linearGradient>
	<path class="st2" d="M26.105,14.165h0.325c0.088,0.549,0.134,1.112,0.134,1.686c0,1.589-0.35,3.097-0.977,4.453v-0.832
		c0.423-1.128,0.656-2.348,0.656-3.621C26.244,15.277,26.196,14.714,26.105,14.165z M26.899,15.851c0,1.881-0.475,3.652-1.311,5.201
		v0.646c1.036-1.707,1.632-3.709,1.632-5.847c0-0.573-0.043-1.136-0.126-1.686H26.77C26.855,14.715,26.899,15.278,26.899,15.851z
		 M27.555,15.851c0,2.392-0.725,4.617-1.967,6.469v0.559c1.438-1.975,2.288-4.404,2.288-7.028c0-0.572-0.041-1.135-0.119-1.686
		h-0.324C27.513,14.716,27.555,15.279,27.555,15.851z M24.014,24.647h-0.48c-2.044,1.773-4.71,2.848-7.622,2.848
		c-2.381,0-4.597-0.719-6.443-1.95H8.907c1.97,1.428,4.391,2.271,7.005,2.271C19.034,27.816,21.881,26.613,24.014,24.647z
		 M21.915,24.647h-0.588c-1.576,0.974-3.431,1.537-5.415,1.537c-1.257,0-2.462-0.226-3.577-0.639h-0.84
		c1.346,0.616,2.842,0.96,4.417,0.96C18.137,26.504,20.205,25.818,21.915,24.647z M5.97,10.466h0.368
		c1.887-3.341,5.471-5.602,9.574-5.602c2.12,0,4.101,0.604,5.782,1.649h0.588c-1.815-1.242-4.009-1.97-6.37-1.97
		C11.625,4.543,7.887,6.941,5.97,10.466z M5.23,10.466h0.361c1.947-3.716,5.842-6.258,10.32-6.258c2.601,0,5.005,0.857,6.946,2.304
		h0.524c-2.048-1.642-4.646-2.625-7.469-2.625C11.251,3.887,7.204,6.567,5.23,10.466z M23.011,24.647H22.49
		c-1.835,1.376-4.113,2.192-6.579,2.192c-1.868,0-3.628-0.469-5.17-1.295h-0.649c1.701,1.025,3.692,1.616,5.819,1.616
		C18.599,27.16,21.069,26.218,23.011,24.647z M20.862,6.512h0.169c-1.52-0.837-3.264-1.314-5.119-1.314
		c-3.91,0-7.335,2.118-9.188,5.267h0.374c1.818-2.964,5.089-4.946,8.814-4.946c1.579,0,3.076,0.357,4.416,0.993H20.862z"/>
	<linearGradient id="SVGID_3_" gradientUnits="userSpaceOnUse" x1="4.2984" y1="16.0284" x2="27.6682" y2="16.0284">
		<stop  offset="0" style="stop-color:#ECC35F"/>
		<stop  offset="0.23" style="stop-color:#A7722B"/>
		<stop  offset="0.33" style="stop-color:#E0B656"/>
		<stop  offset="0.46" style="stop-color:#F6F1B7"/>
		<stop  offset="0.58" style="stop-color:#E0B656"/>
		<stop  offset="0.69" style="stop-color:#916228"/>
		<stop  offset="1" style="stop-color:#E0B656"/>
	</linearGradient>
	<path class="st3" d="M27.668,13.178h-3.067v7.345h-1.726v-7.345h-2.818l-2.125,3.15l3.426,4.195H19.13l-2.206-2.701l-4.543,6.735
		h-2.018l-0.044-0.029l7.655-11.35l1.164-1.726l2.661-3.954h2.081l-2.661,3.954h6.447V13.178z M17.926,11.453l2.657-3.939
		L20.56,7.499h-2.049l-2.667,3.954l-1.078,1.599v-0.736c0-0.476-0.386-0.863-0.863-0.863h-3.508c-0.476,0-0.863,0.386-0.863,0.863
		c0-0.476-0.386-0.863-0.863-0.863H5.161c-0.476,0-0.863,0.386-0.863,0.863h0v8.207h1.725v-7.345h2.646v4.657h1.726v-4.657h2.828
		v0.531v1.609l-6.294,9.239h2.087l7.747-11.379L17.926,11.453z M16.319,22.178c-0.222,0.128-0.337,0.347-0.347,0.656v0.825h2.502
		v-0.479h-1.848v-0.338c0-0.071,0.009-0.13,0.027-0.178c0.018-0.048,0.047-0.086,0.087-0.115c0.04-0.029,0.091-0.049,0.153-0.062
		c0.062-0.012,0.138-0.019,0.228-0.019h1.353v-0.484h-1.55C16.744,21.986,16.543,22.05,16.319,22.178z M19.643,21.986h1.547v0.825
		c-0.01,0.309-0.125,0.528-0.347,0.656c-0.224,0.128-0.425,0.192-0.605,0.192h-1.547v-0.825c0.01-0.309,0.125-0.528,0.347-0.656
		C19.262,22.05,19.464,21.986,19.643,21.986z M19.841,22.47c-0.182,0-0.312,0.027-0.393,0.08c-0.073,0.05-0.109,0.148-0.109,0.295
		v0.33h0.702c0.182,0,0.312-0.027,0.393-0.08c0.073-0.05,0.109-0.148,0.109-0.295v-0.33H19.841z M21.411,23.66h0.499v-1.665h-0.499
		V23.66z M24.036,22.854c-0.21-0.237-0.395-0.403-0.553-0.499c-0.168-0.103-0.452-0.225-0.851-0.364h-0.53v1.668h0.567v-0.983
		c0.12,0.032,0.235,0.071,0.345,0.116c0.11,0.045,0.213,0.1,0.308,0.165c0.103,0.067,0.216,0.159,0.338,0.275
		c0.122,0.117,0.254,0.259,0.396,0.427h0.544v-1.668h-0.564V22.854z"/>
</g>
</svg>
