<?xml version="1.0" encoding="utf-8"?>
<!-- Generator: Adobe Illustrator 26.0.1, SVG Export Plug-In . SVG Version: 6.00 Build 0)  -->
<svg version="1.1" id="Layer_1" xmlns="http://www.w3.org/2000/svg" xmlns:xlink="http://www.w3.org/1999/xlink" x="0px" y="0px"
	 viewBox="0 0 32 32" style="enable-background:new 0 0 32 32;" xml:space="preserve">
<style type="text/css">
	.st0{fill:#3C8FA2;}
	.st1{fill:#378DA0;}
</style>
<g>
	<path class="st0" d="M11.041,30.576c0.706,0.306,1.446,0.501,2.197,0.652c1.174,0.236,2.36,0.358,3.557,0.315
		c1.042-0.038,2.062-0.236,3.076-0.467c0.667-0.152,1.326-0.331,1.982-0.526c0.024-0.007,0.048-0.012,0.075-0.009
		c-0.288,0.138-0.593,0.233-0.896,0.328c-1.091,0.344-2.202,0.599-3.338,0.732c-0.698,0.082-1.399,0.055-2.098,0.041
		c-3.931-0.079-7.313-1.521-10.129-4.23c-2.532-2.435-4.119-5.415-4.786-8.873c-0.114-0.591-0.186-1.189-0.227-1.79
		c-0.002-0.033,0.015-0.074-0.03-0.094c0-0.597,0-1.195,0-1.792c0.058-0.036,0.028-0.094,0.032-0.14
		c0.041-0.549,0.104-1.095,0.201-1.637c0.323-1.791,0.986-3.454,1.901-5.021c1.243-2.128,2.895-3.862,4.982-5.178
		c0.043-0.027,0.084-0.071,0.175-0.064C6.488,3.63,5.418,4.575,4.472,5.657c-0.97,1.109-2.34,3.225-2.312,3.558
		c0.062-0.047,0.083-0.118,0.117-0.179c0.815-1.443,1.716-2.817,2.924-3.976c1.43-1.371,3.047-2.445,4.887-3.172
		c1.452-0.573,2.968-0.899,4.52-1.055c1.137-0.114,2.27-0.103,3.4,0.075c1.426,0.225,2.819,0.576,4.173,1.081
		c0.035,0.013,0.069,0.043,0.119-0.007c-0.888-0.444-1.809-0.779-2.765-1.006c-3.677-0.872-7.233-0.528-10.659,1.087
		c0.169-0.096,0.338-0.191,0.512-0.273c1.639-0.77,3.387-1.13,5.169-1.354c0.273-0.034,0.548-0.062,0.822-0.093
		c0.464,0,0.927,0,1.39,0c0.138,0.062,0.288,0.042,0.432,0.056c1.875,0.171,3.676,0.617,5.385,1.419
		c1.344,0.631,2.546,1.472,3.626,2.486c1.947,1.828,3.415,3.986,4.387,6.474c0.417,1.068,0.659,2.182,0.819,3.316
		c0.141,0.997,0.179,1.999,0.148,3.003c-0.056,1.79-0.466,3.502-1.184,5.139c-1.097,2.504-2.728,4.587-4.927,6.22
		c-0.271,0.202-0.545,0.4-0.831,0.583c0.476-0.39,0.966-0.762,1.431-1.164c0.476-0.411,0.931-0.842,1.354-1.307
		c0.42-0.461,0.802-0.953,1.171-1.455c0.368-0.501,0.679-1.034,0.986-1.614c-0.111,0.028-0.122,0.095-0.15,0.143
		c-1.468,2.501-3.469,4.458-6.02,5.836c-1.616,0.873-3.351,1.405-5.167,1.677c-1.264,0.19-2.532,0.207-3.802,0.083
		c-1.093-0.107-2.165-0.326-3.214-0.653c-0.049-0.015-0.099-0.028-0.148-0.042c-0.022-0.007-0.043-0.015-0.065-0.022
		c-0.032-0.01-0.063-0.019-0.095-0.029c-0.025-0.022-0.075-0.026-0.078-0.008c-0.004,0.033,0.041,0.017,0.064,0.026
		c0.028,0.014,0.056,0.027,0.084,0.041C10.998,30.557,11.02,30.566,11.041,30.576z M3.885,7.358c-0.024-0.004-0.031,0.01-0.031,0.03
		c-0.03,0.011-0.043,0.031-0.03,0.062C3.784,7.44,3.777,7.47,3.768,7.497c0,0.001,0.014,0.011,0.018,0.01
		C3.81,7.495,3.822,7.475,3.821,7.448c0.029-0.012,0.039-0.033,0.03-0.063c0.026,0.006,0.031-0.01,0.031-0.031
		C3.89,7.351,3.897,7.347,3.904,7.343C3.899,7.34,3.895,7.336,3.89,7.333C3.889,7.341,3.887,7.349,3.885,7.358z M26.188,5.045
		c0.011,0.008,0.027,0.025,0.031,0.022c0.027-0.017,0.005-0.03-0.006-0.044c-0.012-0.01-0.024-0.02-0.036-0.029
		c-0.03-0.033-0.057-0.072-0.107-0.077c0-0.02-0.012-0.029-0.031-0.032c-0.01-0.011-0.02-0.022-0.03-0.032
		c-0.021-0.009-0.043-0.018-0.064-0.026c-0.002-0.004-0.005-0.007-0.007-0.011c0.003,0.003,0.006,0.006,0.009,0.009
		c0.022,0.009,0.043,0.017,0.065,0.026c-0.001,0.021,0.009,0.032,0.03,0.032c-0.002,0.023,0.008,0.033,0.031,0.031
		c0.005,0.054,0.045,0.077,0.086,0.099C26.167,5.024,26.177,5.034,26.188,5.045z M2.107,9.247C2.095,9.271,2.084,9.295,2.072,9.319
		C2.063,9.335,2.051,9.353,2.073,9.367C2.076,9.368,2.091,9.351,2.1,9.342c0.011-0.02,0.021-0.041,0.032-0.061
		c0.015-0.013,0.027-0.028,0.009-0.045C2.137,9.232,2.119,9.243,2.107,9.247z M3.678,7.675c0.013-0.019,0.026-0.038,0.039-0.057
		c0.015-0.023,0.059-0.051,0.028-0.072C3.717,7.527,3.704,7.573,3.695,7.6C3.681,7.617,3.667,7.634,3.654,7.651
		C3.646,7.664,3.638,7.676,3.629,7.689c-0.013,0.018-0.027,0.036-0.04,0.054C3.582,7.755,3.574,7.768,3.567,7.781
		C3.534,7.803,3.515,7.835,3.503,7.872C3.479,7.909,3.455,7.946,3.43,7.983C3.395,8.029,3.348,8.07,3.356,8.142
		c0.075-0.017,0.083-0.079,0.108-0.125C3.488,7.978,3.511,7.939,3.535,7.9c0.021-0.032,0.042-0.063,0.062-0.095
		C3.604,7.793,3.611,7.781,3.618,7.77c0.013-0.019,0.026-0.038,0.038-0.058C3.664,7.7,3.671,7.687,3.678,7.675z M2.033,9.461
		c0.022-0.014,0.043-0.042,0.02-0.056c-0.032-0.02-0.028,0.022-0.037,0.039C2.013,9.455,2.004,9.475,2.008,9.477
		C2.024,9.488,2.029,9.474,2.033,9.461z M28.749,23.601c-0.059,0.089-0.128,0.173-0.149,0.283c-0.007,0.005-0.015,0.01-0.022,0.015
		c0.005,0.005,0.01,0.01,0.014,0.015c0.004-0.009,0.008-0.017,0.012-0.026c0.077-0.075,0.123-0.17,0.17-0.264
		c0.019-0.032,0.038-0.065,0.057-0.097c0.231-0.353,0.427-0.726,0.619-1.101c0.484-0.946,0.893-1.92,1.118-2.963
		c0.126-0.584,0.169-1.181,0.246-1.772c0.087-0.668,0.169-1.338,0.193-2.011c0.043-1.249-0.148-2.472-0.447-3.68
		c-0.346-1.397-0.98-2.666-1.715-3.895c-0.645-1.078-1.411-2.05-2.37-2.865c-0.039-0.033-0.072-0.085-0.187-0.08
		c1.364,1.413,2.512,2.927,3.22,4.74c0.697,1.785,1.26,3.599,1.285,5.537c-0.031-0.181-0.044-0.366-0.065-0.55
		c-0.148-1.282-0.433-2.533-0.86-3.75c-0.942-2.682-2.463-4.949-4.757-6.671c-2.173-1.632-4.533-2.827-7.255-3.211
		c-1.325-0.187-2.647-0.161-3.966,0.06c-1.259,0.211-2.466,0.594-3.637,1.098C8.256,3.271,6.506,4.478,5.08,6.124
		c-2.365,2.73-3.55,5.935-3.765,9.519c-0.011,0.178-0.021,0.356-0.031,0.534c-0.075-2.871,0.652-5.537,2.1-8.028
		C3.283,8.157,3.272,8.223,3.246,8.265c-0.377,0.621-0.698,1.27-0.97,1.944c-0.555,1.371-0.906,2.794-1.089,4.26
		c-0.152,1.216-0.162,2.433-0.015,3.649c0.181,1.502,0.613,2.932,1.225,4.316c0.879,1.986,2.213,3.613,3.865,4.997
		c0.038,0.032,0.07,0.094,0.144,0.063c-0.007-0.059-0.054-0.088-0.089-0.123c-0.548-0.545-1.074-1.109-1.582-1.691
		c-0.767-0.879-1.474-1.797-1.956-2.872c-0.655-1.459-1.099-2.978-1.33-4.56c-0.052-0.353-0.096-0.708-0.097-1.084
		c0.015,0.025,0.023,0.033,0.024,0.042c0.157,1.46,0.501,2.875,1.025,4.246c0.821,2.146,2.062,4.009,3.767,5.556
		c1.309,1.188,2.805,2.08,4.424,2.776c2.316,0.995,4.711,1.391,7.22,1.002c1.596-0.248,3.136-0.669,4.568-1.435
		c1.876-1.002,3.536-2.281,4.902-3.917c0.791-0.948,1.413-2.01,1.948-3.122c0.628-1.304,1.072-2.668,1.325-4.094
		c0.111-0.626,0.176-1.258,0.227-1.927c0.026,0.299,0.019,0.561,0.003,0.823c-0.08,1.245-0.357,2.45-0.762,3.627
		c-0.328,0.955-0.751,1.869-1.224,2.76C28.783,23.535,28.766,23.568,28.749,23.601z M31.252,15.528
		c-0.03,5.931-2.742,10.338-7.622,13.531c1.694-0.897,3.128-2.121,4.335-3.603C30.318,22.567,31.42,19.254,31.252,15.528z
		 M0.745,16.035c0.217-5.928,3.071-10.25,8.064-13.273C7.426,3.333,4.843,5.194,3.178,7.723C1.521,10.241,0.657,13,0.745,16.035z
		 M29.877,22.823c-0.121,0.219-0.242,0.438-0.363,0.657c0.015,0.007,0.029,0.015,0.044,0.022
		C29.683,23.285,29.806,23.066,29.877,22.823z M28.569,23.964c-0.007-0.006-0.013-0.011-0.019-0.015
		c-0.001-0.001-0.01,0.007-0.009,0.01c0.001,0.008,0.006,0.016,0.009,0.024C28.556,23.977,28.562,23.971,28.569,23.964z
		 M3.939,7.282C3.937,7.279,3.934,7.276,3.932,7.273C3.929,7.276,3.925,7.278,3.924,7.281s0.004,0.006,0.006,0.009
		C3.934,7.288,3.936,7.285,3.939,7.282z M6.488,27.569c-0.002,0.003-0.006,0.007-0.005,0.009c0.004,0.014,0.011,0.014,0.018,0.002
		c0.001-0.002-0.001-0.007-0.004-0.01C6.495,27.568,6.491,27.569,6.488,27.569z"/>
	<path class="st0" d="M24.419,29.156c0.052-0.037,0.104-0.073,0.157-0.11C24.555,29.127,24.486,29.139,24.419,29.156z"/>
	<path class="st0" d="M7.887,2.731c-0.006-0.024-0.01-0.036-0.008-0.036c0.013-0.006,0.026-0.009,0.039-0.014
		C7.92,2.681,7.922,2.679,7.923,2.678C7.913,2.693,7.903,2.708,7.887,2.731z"/>
	<path class="st0" d="M7.807,2.751C7.79,2.785,7.763,2.803,7.724,2.806c0.01-0.05,0.043-0.059,0.086-0.052L7.807,2.751z"/>
	<path class="st0" d="M7.81,2.753C7.812,2.746,7.814,2.738,7.816,2.73C7.821,2.733,7.827,2.737,7.832,2.74
		c-0.008,0.003-0.017,0.007-0.025,0.01C7.807,2.751,7.81,2.753,7.81,2.753z"/>
	<path class="st1" d="M22.024,19.996c0.319-0.095,0.625-0.183,0.928-0.28c0.084-0.027,0.128-0.02,0.166,0.066
		c0.062,0.14,0.218,0.273,0.195,0.407c-0.023,0.136-0.215,0.206-0.336,0.299c-0.482,0.374-0.99,0.704-1.595,0.847
		c-0.36,0.085-0.72,0.121-1.079-0.008c-0.466-0.168-0.752-0.562-0.757-1.056c-0.005-0.475,0.068-0.944,0.142-1.411
		c0.272-1.711,0.665-3.399,0.986-5.101c0.068-0.357,0.17-0.714,0.124-1.083c-0.068-0.552-0.368-0.774-0.916-0.677
		c-0.415,0.073-0.797,0.239-1.154,0.458c-0.324,0.198-0.484,0.511-0.556,0.872c-0.304,1.512-0.673,3.009-1.024,4.51
		c-0.219,0.936-0.341,1.881-0.379,2.839c-0.013,0.316-0.114,0.425-0.423,0.456c-0.548,0.055-1.095,0.11-1.643,0.165
		c-0.276,0.027-0.37-0.064-0.323-0.331c0.19-1.078,0.378-2.157,0.578-3.233c0.287-1.546,0.585-3.09,0.875-4.636
		c0.042-0.225,0.024-0.452-0.037-0.673c-0.08-0.292-0.273-0.44-0.578-0.432c-0.547,0.015-1.021,0.238-1.485,0.508
		c-0.339,0.197-0.512,0.459-0.596,0.853c-0.456,2.151-0.944,4.296-1.415,6.444c-0.056,0.255-0.077,0.518-0.114,0.778
		c-0.014,0.103-0.045,0.2-0.092,0.293c-0.07,0.138-0.172,0.217-0.333,0.238c-0.612,0.076-1.223,0.162-1.835,0.243
		c-0.178,0.024-0.182,0.021-0.148-0.155c0.27-1.371,0.538-2.743,0.814-4.112c0.285-1.41,0.583-2.818,0.865-4.229
		c0.144-0.72,0.044-1.393-0.447-1.975c-0.071-0.084-0.135-0.183-0.079-0.296c0.054-0.109,0.17-0.124,0.279-0.134
		c0.768-0.069,1.537-0.136,2.307-0.178c0.267-0.015,0.458,0.15,0.491,0.418c0.044,0.357,0.044,0.717,0.066,1.09
		c0.092-0.034,0.155-0.094,0.219-0.148c0.724-0.607,1.541-1.037,2.45-1.293c0.25-0.07,0.505-0.101,0.764-0.064
		c0.563,0.081,0.923,0.423,1.157,0.916c0.077,0.162,0.134,0.334,0.19,0.504c0.032,0.096,0.063,0.093,0.136,0.037
		c0.321-0.249,0.647-0.493,0.988-0.715c0.543-0.354,1.119-0.625,1.765-0.74c1.04-0.185,1.958,0.523,2.034,1.578
		c0.058,0.811-0.085,1.6-0.265,2.383c-0.358,1.558-0.663,3.127-0.989,4.691c-0.025,0.121,0.003,0.236,0.012,0.352
		C21.976,19.515,22.001,19.749,22.024,19.996z"/>
</g>
</svg>
