<?xml version="1.0" encoding="utf-8"?>
<!-- Generator: Adobe Illustrator 25.2.3, SVG Export Plug-In . SVG Version: 6.00 Build 0)  -->
<svg version="1.1" id="Layer_1" xmlns="http://www.w3.org/2000/svg" xmlns:xlink="http://www.w3.org/1999/xlink" x="0px" y="0px"
	 viewBox="0 0 32 32" style="enable-background:new 0 0 32 32;" xml:space="preserve">
<style type="text/css">
	.st0{fill:#FBFDFD;}
	.st1{fill:#171A21;}
	.st2{fill:#FFFFFF;}
	.st3{fill:#A4A4A4;}
	.st4{fill:#2C4866;}
	.st5{fill:#2FC8F2;}
	.st6{fill:#1C2C49;}
</style>
<path class="st0" d="M15.714,25.269c-2.498-0.072-5.364-0.837-7.965-2.521c-0.393-0.255-0.496-0.467-0.258-0.915
	c0.632-1.189,1.21-2.406,1.798-3.618c0.122-0.25,0.206-0.343,0.479-0.137c1.614,1.213,3.416,2.029,5.388,2.459
	c0.6,0.131,1.21,0.208,1.827,0.074c0.393-0.085,0.713-0.257,0.793-0.685c0.08-0.423-0.132-0.721-0.476-0.936
	c-0.646-0.405-1.384-0.555-2.107-0.741c-1.392-0.357-2.789-0.688-4.09-1.328C7.329,15.06,7.865,10.063,10.72,8.18
	c1.287-0.849,2.705-1.285,4.216-1.399c3.074-0.232,5.988,0.354,8.711,1.832c0.32,0.174,0.414,0.306,0.228,0.675
	c-0.627,1.242-1.21,2.506-1.797,3.768c-0.13,0.28-0.228,0.368-0.554,0.201c-1.035-0.531-2.093-1.002-3.217-1.349
	c-0.757-0.233-1.501-0.477-2.287-0.565c-0.265-0.029-0.54-0.011-0.806,0.024c-0.298,0.04-0.547,0.19-0.622,0.507
	c-0.077,0.323,0.048,0.595,0.295,0.799c0.329,0.27,0.722,0.421,1.123,0.549c1.382,0.441,2.819,0.698,4.169,1.246
	c1.197,0.486,2.286,1.121,3.01,2.241c1.281,1.982,1.138,5.857-2.08,7.49C19.589,24.97,18.152,25.273,15.714,25.269z"/>
<g id="Layer_2_1_">
	<g id="Layer_1-2">
		<path class="st1" d="M7.068,5.425c0,0-0.887-0.554-1.845-0.225C4.864,5.323,4.476,5.615,4.132,5.933
			C3.381,6.621,2.796,7.47,2.419,8.416C2.245,8.85,2.11,9.316,2.122,9.696c0.033,1.013,0.865,1.645,0.865,1.645l2.041-2.958
			L7.068,5.425z"/>
		<path class="st1" d="M29.71,10.421c-0.196-0.859-0.582-1.664-1.131-2.353c-0.252-0.317-0.545-0.618-0.835-0.772
			c-0.775-0.41-1.608-0.055-1.608-0.055l1.348,2.803l1.348,2.802c0,0,0.797-0.429,0.961-1.291
			C29.853,11.232,29.8,10.816,29.71,10.421z"/>
		<path class="st1" d="M19.325,0.995c-0.397-0.225-0.996-0.379-1.589-0.483c-1.297-0.227-2.624-0.227-3.921,0
			c-0.593,0.104-1.191,0.257-1.589,0.483c-1.059,0.601-1.122,1.647-1.122,1.647h9.342C20.447,2.641,20.385,1.597,19.325,0.995z"/>
		<circle class="st1" cx="15.776" cy="15.041" r="13.375"/>
		<path class="st2" d="M15.776,1.666c0.344,0,0.685,0.013,1.022,0.039c0.975-0.088,1.738-0.213,1.738-0.213
			c-1.527-0.714-4.751-0.346-5.452,0c0.281,0.141,0.683,0.223,1.144,0.264C14.742,1.696,15.259,1.666,15.776,1.666z"/>
		<path class="st2" d="M28.087,9.804l0.075-0.009c0.436-0.053,0.608,0.178,0.608,0.178s-0.109-0.935-0.857-1.573
			C27.65,8.174,27.4,8.085,27.188,8.064C27.53,8.621,27.83,9.203,28.087,9.804z"/>
		<path class="st2" d="M3.908,8.219c0.112,0.008,0.223,0.024,0.333,0.049c0.433-0.737,0.936-1.43,1.502-2.071
			C5.442,6.228,5.092,6.304,4.765,6.474c-0.81,0.421-1.589,2.134-1.589,2.134S3.472,8.188,3.908,8.219z"/>
		<circle class="st2" cx="15.776" cy="15.041" r="12.137"/>
		<path class="st2" d="M19.704,8.036c0.387-0.301,1.035-0.385,1.757-0.283c0.06-0.206,0.09-0.419,0.091-0.634
			c-0.002-0.341-0.077-0.678-0.221-0.987c0.219,0.18,0.407,0.394,0.556,0.635c0,0,0.114-1.928-2.826-2.944
			c0.232,0.197,0.445,0.415,0.635,0.652c-1.031-0.595-2.411-0.958-3.926-0.958c-1.798,0-3.405,0.511-4.465,1.314
			c0.215-0.086,0.434-0.159,0.658-0.22c2.09-0.573,4.073,0.019,4.43,1.321c0.357,1.302-1.422,3.738-3.511,4.311
			c0.85,0.306,1.836,0.482,2.889,0.482c1.24,0,2.389-0.244,3.331-0.659C18.971,9.206,19.164,8.454,19.704,8.036z"/>
		<path class="st2" d="M21.239,7.961c-2.118-0.078-1.706,1.106-1.706,1.106c0.875-1.315,3.435-0.733,4.486,0.413
			C24.019,9.48,23.295,8.037,21.239,7.961z"/>
		<path class="st2" d="M20.169,10.341c0.916,1.939,3.126,1.532,3.126,1.532C22.805,11.815,20.958,11.463,20.169,10.341z"/>
		<path class="st2" d="M10.852,8.545c1.758,1.18,3.564-0.327,3.564-0.327S12.83,9.152,10.852,8.545z"/>
		<path class="st2" d="M14.521,11.125c1.694,1.181,3.283-0.083,3.283-0.083S16.016,11.404,14.521,11.125z"/>
		<path class="st3" d="M9.625,15.02c1.253-1.474,3.022-0.561,2.649,0.392c0,0,0.784-0.351,0.852-1.21
			c0.068-0.859-1.043-1.582-2.201-1.189C9.766,13.406,9.574,14.566,9.625,15.02z"/>
		<path class="st3" d="M10.442,7.037c1.589-1.807,4.097-1.636,4.673-1.137S14.99,7.318,14.99,7.318s0.735-0.056,1.092-0.823
			s-0.425-2.179-2.587-1.888C11.332,4.899,10.584,5.682,10.442,7.037z"/>
		<path class="st3" d="M20.169,9.554c2.075-0.479,3.266,1.256,3.383,1.787c0,0,0.343-1.043-0.716-2.083S20.446,8.833,20.169,9.554z"
			/>
		<path class="st3" d="M15.069,7.723c-3.147,1.916-5.577,0.389-5.546-1.704c-1.184,2.019,0.312,4.509,3.349,3.916
			s3.723-3.131,3.723-3.131c-0.81,1.589-2.695,2.103-2.695,2.103C14.617,8.47,15.069,7.723,15.069,7.723z"/>
		<path class="st3" d="M26.734,9.817c-1.49-1.754-2.96-1.97-2.96-1.97c0.689,0.345,1.227,0.87,1.227,0.87
			c-1.715-1.059-3.295-0.854-3.295-0.854s2.757,0.573,2.979,2.377s-0.783,2.589-3.143,1.771c-2.36-0.818-2.481-2.874-2.481-2.874
			c-1.15,2.36,1.157,4.133,1.157,4.133c-3.489,4.15-9.113,3.68-9.113,3.68c2.181-0.147,2.305-2.05,2.305-2.05
			c-0.249,0.56-2.025,2.181-3.692,1.06s-0.895-2.947-0.895-2.947C8,13.874,8.294,14.901,8.294,14.901
			c-1.091-1.079-1.59-2.262-1.791-3.312c-0.048,0.072-0.116,0.113-0.179,0.096c-0.09-0.023-0.135-0.153-0.1-0.289
			c0.034-0.131,0.128-0.219,0.215-0.207C6.248,9.687,6.63,8.545,6.63,8.545s-1.81,1.549-2.832,4.527
			c-0.106,0.651-0.16,1.309-0.16,1.969c0,6.703,5.434,12.137,12.137,12.137s12.137-5.434,12.137-12.137
			C27.916,13.234,27.513,11.448,26.734,9.817z M6.123,11.511c-0.062,0.239-0.24,0.4-0.399,0.359
			c-0.159-0.041-0.237-0.268-0.176-0.507c0.062-0.239,0.24-0.4,0.399-0.36C6.106,11.045,6.185,11.272,6.123,11.511z M6.171,10.628
			c-0.038,0.146-0.146,0.244-0.243,0.219c-0.097-0.026-0.144-0.163-0.106-0.308c0.038-0.146,0.146-0.244,0.242-0.219
			C6.161,10.345,6.209,10.482,6.171,10.628L6.171,10.628z M18.129,16.256c-0.182,0.105-0.387,0.093-0.457-0.028
			c-0.07-0.121,0.022-0.304,0.204-0.41s0.387-0.093,0.457,0.028C18.403,15.967,18.311,16.151,18.129,16.256L18.129,16.256z
			 M19.829,16.167c-0.432,0.25-0.909,0.236-1.064-0.032c-0.155-0.268,0.071-0.687,0.504-0.937c0.433-0.25,0.909-0.236,1.064,0.032
			C20.487,15.498,20.261,15.917,19.829,16.167L19.829,16.167z M20.761,14.636c-0.286,0.165-0.607,0.145-0.717-0.044
			c-0.11-0.19,0.034-0.478,0.319-0.643s0.607-0.145,0.717,0.044S21.047,14.471,20.761,14.636L20.761,14.636z"/>
		<path class="st1" d="M10.562,7.492c-0.242-0.947,0.791-2.029,2.308-2.418c1.517-0.389,2.943,0.066,3.185,1.013
			c0.033,0.133,0.043,0.272,0.028,0.408c0.178-0.34,0.239-0.695,0.152-1.036c-0.271-1.057-1.862-1.564-3.556-1.131
			S9.832,5.97,10.103,7.027c0.087,0.34,0.311,0.622,0.631,0.836C10.654,7.751,10.596,7.625,10.562,7.492z"/>
		<path class="st1" d="M20.045,9.736c0.326-0.657,1.443-0.766,2.494-0.244c1.051,0.521,1.64,1.478,1.314,2.134
			c-0.046,0.092-0.108,0.175-0.184,0.246c0.268-0.106,0.476-0.278,0.593-0.514c0.364-0.733-0.292-1.8-1.465-2.382
			c-1.173-0.583-2.421-0.46-2.785,0.273c-0.117,0.236-0.128,0.506-0.051,0.783C19.971,9.929,20,9.829,20.045,9.736z"/>
		<path class="st1" d="M16.494,19.069c-0.078-0.498,0.506-1.003,1.304-1.127s1.508,0.178,1.586,0.676
			c0.011,0.07,0.009,0.142-0.006,0.211c0.108-0.166,0.157-0.345,0.129-0.525c-0.087-0.556-0.88-0.894-1.77-0.755
			s-1.543,0.703-1.456,1.259c0.028,0.179,0.129,0.335,0.282,0.46C16.528,19.207,16.505,19.139,16.494,19.069z"/>
		<path class="st1" d="M9.895,15.505c-0.324-0.647,0.117-1.524,0.983-1.959c0.867-0.434,1.834-0.263,2.158,0.384
			c0.043,0.086,0.073,0.178,0.089,0.272c0.058-0.277,0.035-0.554-0.089-0.801c-0.368-0.734-1.465-0.93-2.449-0.436
			s-1.484,1.489-1.116,2.223c0.124,0.247,0.332,0.432,0.589,0.551C9.994,15.669,9.938,15.59,9.895,15.505z"/>
		<path class="st1" d="M10.102,16.311c-0.587-0.198-1.049-0.539-1.277-0.899c0.073,0.485,0.528,0.967,1.181,1.187
			c0.653,0.22,1.306,0.111,1.658-0.231C11.263,16.516,10.688,16.508,10.102,16.311z"/>
		<path class="st1" d="M11.133,8.824c-0.586-0.197-1.049-0.539-1.277-0.899c0.073,0.485,0.528,0.967,1.181,1.187
			c0.652,0.22,1.306,0.111,1.658-0.231C12.294,9.03,11.72,9.022,11.133,8.824z"/>
		<path class="st1" d="M6.837,16.147c0.256,0,0.464-0.208,0.464-0.464c0-0.256-0.208-0.464-0.464-0.464
			c-0.256,0-0.464,0.208-0.464,0.464c0,0,0,0,0,0C6.373,15.939,6.581,16.147,6.837,16.147C6.837,16.147,6.837,16.147,6.837,16.147z"
			/>
		<path class="st1" d="M6.63,14.702c0.135,0,0.244-0.109,0.244-0.244c0-0.135-0.109-0.244-0.244-0.244
			c-0.135,0-0.244,0.109-0.244,0.244l0,0C6.386,14.593,6.496,14.702,6.63,14.702z"/>
		<path class="st1" d="M23.774,15.96c0.123,0,0.222-0.099,0.222-0.222c0-0.123-0.099-0.222-0.222-0.222
			c-0.123,0-0.222,0.099-0.222,0.222c0,0,0,0,0,0C23.552,15.861,23.651,15.96,23.774,15.96z"/>
		<path class="st1" d="M24.685,15.329c0.381,0,0.69-0.308,0.69-0.689c0-0.381-0.308-0.69-0.689-0.69c-0.381,0-0.69,0.308-0.69,0.689
			c0,0,0,0,0,0C23.996,15.021,24.305,15.329,24.685,15.329z"/>
		<path class="st3" d="M28.087,9.804l0.075-0.009c0.436-0.053,0.608,0.178,0.608,0.178s-0.067-0.56-0.444-1.11
			c-0.071-0.017-0.144-0.027-0.218-0.029c-0.146-0.003-0.29,0.053-0.432,0.098C27.823,9.216,27.96,9.507,28.087,9.804z"/>
		<path class="st3" d="M14.228,1.756c0.514-0.06,1.031-0.09,1.548-0.09c0.344,0,0.685,0.013,1.022,0.039
			c0.975-0.088,1.738-0.213,1.738-0.213c-0.286-0.134-0.631-0.229-1.009-0.294c-0.078,0.191-0.85,0.46-1.885,0.294
			c-0.584-0.093-0.957-0.21-1.189-0.31c-0.63,0.079-1.138,0.196-1.37,0.31C13.364,1.632,13.767,1.714,14.228,1.756z"/>
		<path class="st3" d="M3.908,8.219c0.112,0.008,0.223,0.024,0.333,0.049c0.231-0.392,0.482-0.772,0.751-1.138
			C4.682,7.223,4.282,7.291,4.067,7.118c-0.508,0.648-0.89,1.489-0.89,1.489S3.472,8.188,3.908,8.219z"/>
		<path class="st2" d="M18.971,18.302c-0.053-0.12-0.08-0.338-0.089-0.427c-0.925-0.264-2.06-0.43-3.222-0.43
			s-2.297,0.166-3.222,0.43c-0.009,0.088-0.036,0.307-0.089,0.427c-0.067,0.153-1.014,0.444-1.02,0.738
			c-0.007,0.326,0.462,0.758,0.452,0.954c-0.012,0.257-0.283,0.382-0.282,0.599c0.003,0.423,0.733,1.491,0.733,1.491
			c1.385-0.958,1.875,0.344,1.875,0.344c-0.266-0.266-0.461-0.265-0.461-0.265c0.388,0.627,0.26,1.076,0.296,1.363
			c0.037,0.287,0.403,0.541,0.403,0.541c0.019-0.196,0.293-0.492,0.293-0.492s0.413,0.688,0.599,0.7
			c0.119,0.008,0.422-0.44,0.422-0.431c0-0.009,0.303,0.439,0.422,0.431c0.187-0.012,0.599-0.7,0.599-0.7s0.275,0.296,0.293,0.492
			c0,0,0.367-0.254,0.404-0.541c0.037-0.287-0.092-0.737,0.296-1.363c0,0-0.196-0.002-0.462,0.265c0,0,0.491-1.302,1.875-0.344
			c0,0,0.729-1.068,0.733-1.491c0.002-0.217-0.269-0.342-0.282-0.599c-0.009-0.195,0.459-0.628,0.452-0.954
			C19.985,18.746,19.039,18.455,18.971,18.302z M14.124,21.387c0.209-0.136,0.277-0.376,0.277-0.376
			c-1.568,0.225-1.907-0.999-1.907-0.999c-0.229,0.463,0.257,0.944,0.257,0.944c-0.289-0.092-1.312-1.141-0.19-1.66
			c-0.223-0.235-0.59-0.147-0.59-0.147c1.4-0.929,2.265,1.076,2.989,1.027c0.17-0.011,0.35-0.118,0.559-0.284
			C15.176,21.236,14.125,21.387,14.124,21.387L14.124,21.387z M16.324,22.772c-0.094-0.229-0.491-0.434-0.663-0.434
			c-0.172,0-0.57,0.205-0.663,0.434c-0.119-0.666,0.312-1.409,0.364-1.485c0.052-0.076,0.299-0.171,0.299-0.171
			s0.247,0.094,0.299,0.171C16.012,21.364,16.443,22.106,16.324,22.772z M18.57,20.957c0,0,0.486-0.481,0.257-0.944
			c0,0-0.339,1.224-1.907,0.999c0,0,0.067,0.24,0.277,0.376c0,0-1.052-0.15-1.395-1.495c0.21,0.166,0.389,0.273,0.559,0.284
			c0.724,0.049,1.589-1.956,2.989-1.027c0,0-0.367-0.089-0.59,0.147C19.882,19.816,18.859,20.865,18.57,20.957L18.57,20.957z"/>
		<path class="st2" d="M14.418,25.872c0.827,0.275,0.921,0.556,1.243,0.53c0.322,0.026,0.417-0.255,1.243-0.53
			c0.487-0.162,0.698-0.834,1.388-1.354c0,0-0.361-1.18,0.098-2.164c-0.795,0.006-0.55,1.779-0.581,1.944
			c0,0-0.388-0.517-0.642,0.338c0,0-0.287-0.312-0.382-0.312S16.458,25,16.458,25s-0.345-0.419-0.443-0.422
			c-0.098-0.003-0.354,0.59-0.354,0.59s-0.257-0.592-0.354-0.59C15.209,24.581,14.863,25,14.863,25s-0.232-0.675-0.327-0.675
			s-0.382,0.312-0.382,0.312c-0.254-0.856-0.642-0.338-0.642-0.338c-0.031-0.165,0.214-1.938-0.581-1.944
			c0.458,0.984,0.098,2.164,0.098,2.164C13.72,25.037,13.931,25.709,14.418,25.872z"/>
		<path class="st2" d="M20.163,24.768c0,0,0.631,0.244,0.727,0.63c0.147,0.587-3.704,2.843-4.401,1.317
			c-0.166,0.025-0.566,0.39-0.828,0.325c-0.263,0.064-0.662-0.301-0.828-0.325c-0.697,1.525-4.548-0.731-4.401-1.317
			c0.096-0.385,0.727-0.63,0.727-0.63c-0.395-0.919-0.322-1.735-0.322-1.735s-1.469,1.679-1.402,3.018
			c0.101,2.009,5.226,2.518,6.226,4.569c0.999-2.051,6.124-2.561,6.226-4.569c0.067-1.339-1.402-3.018-1.402-3.018
			S20.557,23.849,20.163,24.768z"/>
		<path class="st4" d="M20.056,13.231c-0.514-0.639-1.162-1.024-2.233-1.568c1.141,1.499-1.563,2.751-2.162,2.751
			c-0.599,0-3.304-1.252-2.162-2.751c-1.071,0.545-1.719,0.929-2.233,1.568c-1.192,1.481-1.617,3.86-4.048,4.539
			c0.312,0.568,0.486,1.064,0.939,1.701c0.314,0.441,1.889,1.22,1.889,1.22c-1.136-0.779-1.104-1.893-1.104-1.893
			c1.11,1.407,1.907,1.382,2.063,0.999c0.029-0.072-0.362-0.504-0.371-0.724c-0.007-0.173,0.52-0.623,0.747-0.808
			c-0.808,0.383-1.242,0.856-1.028,1.32c-1.231-0.938,0.685-2.579,5.309-2.579s6.541,1.641,5.309,2.58
			c0.214-0.464-0.219-0.937-1.028-1.32c0.227,0.185,0.754,0.635,0.746,0.808c-0.009,0.22-0.401,0.652-0.371,0.724
			c0.156,0.383,0.954,0.408,2.063-0.999c0,0,0.032,1.114-1.105,1.893c0,0,1.574-0.778,1.889-1.22
			c0.454-0.637,0.628-1.132,0.939-1.701C21.673,17.091,21.248,14.713,20.056,13.231z M15.661,16.665
			c-1.974,0-2.845,0.18-3.626,0.339c0,0,1.363-0.834,3.626-0.834s3.625,0.835,3.625,0.835
			C18.505,16.845,17.635,16.665,15.661,16.665z"/>
		<path class="st5" d="M13.631,26.513c-2.37-2.022-1.866-2.879-1.739-3.25c0.135,0.669,0.501,1.192,0.501,1.192
			c0.046-0.412-0.031-1.382-0.832-2.118c-0.461,0.839,0.208,2.626,0.208,2.626c-0.486,0.165-0.733,0.362-0.733,0.362
			C12.073,26.174,13.631,26.513,13.631,26.513z"/>
		<path class="st5" d="M19.551,24.963c0,0,0.669-1.787,0.208-2.626c-0.8,0.736-0.877,1.707-0.832,2.118c0,0,0.367-0.523,0.501-1.192
			c0.127,0.37,0.631,1.227-1.739,3.25c0,0,1.559-0.339,2.595-1.187C20.285,25.326,20.037,25.128,19.551,24.963z"/>
		<path class="st6" d="M19.377,22.68c0,0,0.073,0.211,0.052,0.584c-0.021,0.373-0.061,0.859-0.483,1.329
			C18.524,25.064,18.918,23.11,19.377,22.68z"/>
		<path class="st6" d="M19.551,24.963c0,0-0.385,0.77-1.861,1.549c0,0,2.466,0.217,2.809-1.184
			C20.499,25.33,19.808,24.895,19.551,24.963z"/>
		<path class="st6" d="M11.944,22.68c0,0-0.073,0.211-0.052,0.584c0.021,0.373,0.061,0.859,0.483,1.329S12.403,23.11,11.944,22.68z"
			/>
		<path class="st6" d="M11.519,25.07c0,0,0.815,0.727,2.563,1.507c0,0-2.917,0.153-3.259-1.247
			C10.822,25.33,11.262,25.003,11.519,25.07z"/>
		<path class="st6" d="M15.661,14.414c-1.747,0.595-3.894-1.05-2.313-2.674l0.207-0.215C13.554,11.525,13.018,12.97,15.661,14.414z"
			/>
		<path class="st6" d="M18.092,12.541c0.072,1.957-2.459,1.993-2.346,2.977c0.075,0.649,2.127,0.312,3.539,1.485
			c0,0-1.684-0.66-3.625-0.339c0,0,2.558,0.284,3.637,0.779s0.299,0.816,0.299,0.816s0.89,0.77,0.559,1.788
			c-0.33,1.018,1.39,0.43,1.39,0.43c0.89-0.528,1.726-1.305,2.05-2.558c-2.965-1.259-2.864-4.502-5.475-6.104
			c0,0-0.213-0.26-0.419-0.292C17.496,11.493,18.092,12.541,18.092,12.541z"/>
		<path class="st6" d="M8.278,19.604c0,0-0.749-1.487,1.536-2.05c0,0-1.085,0.498-0.872,1.242c0.212,0.744,0.577,0.636,0.577,0.636
			s-1.111-1.553,3.136-2.146c0,0-0.817,0.475-0.951,0.891c-0.135,0.416-0.746,0.88-0.746,0.88s0.747,1.724-0.55,1.895
			S8.278,19.604,8.278,19.604z"/>
		<path class="st3" d="M19.991,19.736c0.22-0.733,0.078-1.349-0.798-1.98c-0.876-0.632-5.223-0.641-7.157,0.092l0.333,0.403
			c0,0,2.586-0.678,3.151-0.21c0.565,0.468,0.137,1.634-0.596,1.634s-1.744-1.453-2.771-0.631c0,0,0.915-0.05,1.227,0.354
			s1.716,1.32,2.14,0.495c0,0,0.117-0.113,0.141-0.179c0,0-0.028,0.708,0.094,1.178c0,0,0.474,0.138,0.55,1.269
			c0,0-0.984-0.471-1.308,0.611c0.305-0.194,0.755,0.108,0.758,0.207c0.004,0.132-0.014,0.431-0.014,0.431s0.711,0.888,0.038,1.89
			c0,0,0.055,0.501,0,0.874c0,0,0.813-0.471,1.403-0.468c0.59,0.003,1.316-1.28,1.316-1.28s0.686-2.811,1.788-3.735
			C20.285,20.69,19.771,20.47,19.991,19.736z M16.094,19.553c0.132-0.362,1.311-1.274,2.384-0.935
			c-0.967,0.038-1.589,1.155-2.022,1.242C16.184,19.915,16.021,19.755,16.094,19.553L16.094,19.553z M17.571,24.143
			c-0.079,0.33-0.404,0.492-0.404,0.492c-0.019-0.199-0.276-0.258-0.276-0.258c-0.127,0.604-0.432,0.622-0.432,0.622l0.222-1.424
			c0-0.293,0.336-0.113,0.357,0.361c0,0,0.169-0.29,0.188-0.408c0.016-0.103,0.014-0.793,0.304-1.327l0.211-0.117
			C17.741,22.084,17.65,23.814,17.571,24.143z M16.92,21.011c0,0,1.348,0,1.871-1.1c0,0,0.082,0.04,0.059,0.153
			C18.891,20.608,17.871,21.776,16.92,21.011L16.92,21.011z M18.854,21.626c-0.182,0.059-0.464-0.28-0.464-0.28
			c0.416-0.234,0.827-0.759,0.827-0.759C19.343,20.7,18.977,21.586,18.854,21.626z"/>
		<path class="st3" d="M11.601,20.966c0.21,0.308,0.476,0.574,0.783,0.784c1.066-0.852,1.984,0.034,1.947,0.993
			c-0.059-0.116-0.134-0.222-0.224-0.316c0,0-0.2-0.286-0.54-0.33c-0.339-0.044,0.237,1.261-0.056,2.199
			c-0.241-0.172-0.214-0.969-0.382-1.264C13.185,22.895,12.036,22.478,11.601,20.966z"/>
		<path class="st3" d="M20.623,23.201c0,0,0.214,0.634,0.13,1.954l0.125,0.204c0,0,0.209,0.338,0,0.771
			c-0.209,0.433-2.324,1.849-3.137,1.803c-0.813-0.046-1.244-1.018-1.253-1.22c-0.009-0.202-0.828,0.241-0.828,0.241v2.617
			c-0.996-1.383-5.498-1.871-6.226-3.521c-1.148,1.428,5.238,3.698,6.226,5.22C17.035,29.327,26.08,27.384,20.623,23.201z"/>
		<path class="st3" d="M10.668,23.24c-0.049,0.433-0.019,0.872,0.088,1.295c0,0-0.662,0.084-0.764,0.611
			c-0.126,0.648,0.977,1.386,2.277,1.68c0,0-1.623-1.301-1.445-1.57c0.177-0.269,0.581-0.41,0.581-0.41l-0.562-2.017L10.668,23.24z"
			/>
		<path class="st5" d="M13.498,11.663c-2.025,1.032-2.484,3.186-0.42,2.874c0,0-1.956,0.382-2.907,1.677
			c0,0,1.761-0.679,4.511-0.633c-3.498,0.33-6.336,2.283-6.996,2.402c0,0,0.086,1.005,0.471,1.485c0,0-1.027-0.853-1.137-1.757
			C8.669,16.874,11.776,11.306,13.498,11.663z"/>
		<path class="st1" d="M8.157,19.471c-0.454-0.637-0.628-1.132-0.939-1.701c2.431-0.679,2.855-3.058,4.048-4.539
			c0.514-0.639,1.162-1.024,2.233-1.568c-1.142,1.499,1.563,2.751,2.162,2.751c0.599,0,3.304-1.252,2.162-2.751
			c1.071,0.545,1.719,0.929,2.233,1.568c1.192,1.481,1.617,3.86,4.048,4.539c-0.312,0.568-0.486,1.064-0.939,1.701
			c-0.314,0.441-1.889,1.219-1.889,1.219c1.137-0.779,1.105-1.893,1.105-1.893c-1.108,1.407-1.907,1.382-2.063,0.999
			c-0.029-0.072,0.362-0.504,0.371-0.724c0.007-0.173-0.52-0.623-0.746-0.808c0.808,0.383,1.241,0.856,1.028,1.32
			c1.231-0.938-0.686-2.579-5.31-2.579s-6.541,1.641-5.309,2.58c-0.214-0.464,0.22-0.937,1.028-1.32
			c-0.227,0.185-0.754,0.635-0.747,0.808c0.009,0.22,0.401,0.652,0.371,0.724c-0.156,0.383-0.954,0.408-2.063-0.999
			c0,0-0.032,1.114,1.105,1.893C10.046,20.69,8.471,19.912,8.157,19.471z M11.562,22.337c0.8,0.736,0.877,1.707,0.832,2.118
			c0,0-0.367-0.523-0.501-1.192c-0.127,0.37-0.631,1.227,1.739,3.249c0,0-1.559-0.338-2.595-1.187c0,0,0.247-0.197,0.733-0.362
			C11.77,24.963,11.101,23.176,11.562,22.337z M13.029,24.516c0,0,0.361-1.18-0.098-2.164c0.795,0.006,0.55,1.779,0.581,1.944
			c0,0,0.388-0.516,0.642,0.339c0,0,0.287-0.312,0.382-0.312S14.863,25,14.863,25s0.345-0.419,0.443-0.422
			c0.098-0.003,0.354,0.59,0.354,0.59s0.257-0.593,0.354-0.59C16.113,24.581,16.458,25,16.458,25s0.232-0.676,0.327-0.676
			s0.382,0.312,0.382,0.312c0.254-0.856,0.642-0.339,0.642-0.339c0.03-0.165-0.214-1.938,0.581-1.944
			c-0.459,0.984-0.098,2.164-0.098,2.164c-0.691,0.519-0.902,1.192-1.388,1.354c-0.827,0.275-0.921,0.556-1.243,0.53
			c-0.322,0.026-0.417-0.255-1.243-0.53C13.931,25.709,13.72,25.036,13.029,24.516L13.029,24.516z M19.429,23.263
			c-0.134,0.669-0.501,1.192-0.501,1.192c-0.046-0.412,0.031-1.382,0.832-2.118c0.46,0.839-0.208,2.626-0.208,2.626
			c0.486,0.165,0.734,0.362,0.734,0.362c-1.036,0.848-2.595,1.187-2.595,1.187C20.06,24.491,19.555,23.633,19.429,23.263
			L19.429,23.263z M19.539,19.993c0.012,0.257,0.283,0.382,0.282,0.599c-0.003,0.423-0.733,1.491-0.733,1.491
			c-1.385-0.958-1.875,0.344-1.875,0.344c0.266-0.266,0.462-0.264,0.462-0.264c-0.388,0.627-0.26,1.076-0.296,1.363
			c-0.037,0.287-0.404,0.541-0.404,0.541c-0.019-0.196-0.293-0.492-0.293-0.492s-0.413,0.688-0.599,0.7
			c-0.119,0.008-0.422-0.44-0.422-0.431c0-0.009-0.303,0.439-0.422,0.431c-0.186-0.012-0.599-0.7-0.599-0.7
			s-0.275,0.296-0.293,0.492c0,0-0.367-0.254-0.403-0.541c-0.037-0.287,0.092-0.737-0.296-1.363c0,0,0.196-0.002,0.461,0.264
			c0,0-0.491-1.302-1.875-0.344c0,0-0.729-1.068-0.733-1.491c-0.002-0.217,0.269-0.342,0.282-0.599
			c0.009-0.195-0.459-0.628-0.452-0.954c0.006-0.294,0.953-0.585,1.02-0.738c0.053-0.12,0.08-0.338,0.089-0.427
			c0.925-0.265,2.06-0.43,3.222-0.43s2.298,0.166,3.222,0.431c0.009,0.088,0.036,0.307,0.089,0.427
			c0.067,0.153,1.014,0.444,1.02,0.738C19.998,19.365,19.53,19.798,19.539,19.993L19.539,19.993z M21.886,26.051
			c-0.101,2.009-5.226,2.518-6.226,4.569c-0.999-2.051-6.124-2.561-6.226-4.569c-0.067-1.339,1.402-3.018,1.402-3.018
			s-0.074,0.816,0.321,1.735c0,0-0.631,0.244-0.727,0.63c-0.146,0.588,3.705,2.842,4.402,1.317c0.166,0.025,0.566,0.39,0.828,0.326
			c0.262,0.064,0.662-0.301,0.828-0.326c0.697,1.525,4.548-0.73,4.401-1.317c-0.096-0.385-0.727-0.63-0.727-0.63
			c0.395-0.919,0.322-1.735,0.322-1.735S21.954,24.712,21.886,26.051L21.886,26.051z M8.637,24.608
			c-0.387,0.733-0.441,1.568-0.12,2.384c0.822,2.088,5.966,2.316,7.143,4.871c1.177-2.555,6.32-2.783,7.143-4.871
			c0.321-0.816,0.267-1.651-0.12-2.384l-0.582-0.81c-0.767-0.875-1.703-1.494-2.038-1.702l2.789-1.467c0,0,0.587-0.232,1.106-0.666
			c0.52-0.434,1.057-2.58,1.057-2.58c-2.861-0.831-3.39-4.364-4.254-5.123c-0.763-0.669-2.231-1.262-3.475-1.445
			c-0.349-0.052-0.6,0.332-0.415,0.633c0.728,1.184-0.304,2.205-1.212,2.205s-1.939-1.021-1.211-2.204
			c0.185-0.301-0.065-0.685-0.415-0.633c-1.243,0.183-2.711,0.776-3.474,1.445c-0.864,0.758-1.394,4.291-4.254,5.123
			c0,0,0.538,2.146,1.057,2.58s1.106,0.666,1.106,0.666l2.789,1.467c-0.335,0.208-1.271,0.827-2.038,1.702L8.637,24.608z"/>
		<path class="st1" d="M15.801,19.892c0.21,0.166,0.389,0.273,0.559,0.284c0.724,0.049,1.589-1.956,2.989-1.027
			c0,0-0.367-0.088-0.59,0.147c1.122,0.519,0.099,1.568-0.189,1.66c0,0,0.486-0.481,0.257-0.945c0,0-0.339,1.224-1.907,1
			c0,0,0.067,0.24,0.277,0.376C17.196,21.387,16.145,21.236,15.801,19.892z"/>
		<path class="st1" d="M15.52,19.892c-0.21,0.166-0.389,0.273-0.559,0.284c-0.724,0.049-1.589-1.956-2.989-1.027
			c0,0,0.367-0.088,0.59,0.147c-1.122,0.519-0.099,1.568,0.19,1.66c0,0-0.486-0.481-0.257-0.945c0,0,0.339,1.224,1.907,1
			c0,0-0.067,0.24-0.277,0.376C14.125,21.387,15.176,21.236,15.52,19.892z"/>
		<path class="st1" d="M19.285,17.005c0,0-1.363-0.834-3.625-0.834s-3.626,0.834-3.626,0.834c0.78-0.159,1.65-0.339,3.626-0.339
			S18.505,16.845,19.285,17.005z"/>
		<path class="st1" d="M15.661,21.115c0,0-0.248,0.094-0.299,0.171c-0.052,0.077-0.484,0.819-0.364,1.486
			c0.093-0.229,0.491-0.434,0.663-0.434s0.569,0.204,0.663,0.434c0.119-0.666-0.312-1.409-0.364-1.485S15.661,21.115,15.661,21.115z
			"/>
	</g>
</g>
</svg>
