<?xml version="1.0" encoding="utf-8"?>
<!-- Generator: Adobe Illustrator 24.0.2, SVG Export Plug-In . SVG Version: 6.00 Build 0)  -->
<svg version="1.1" id="Layer_1" xmlns="http://www.w3.org/2000/svg" xmlns:xlink="http://www.w3.org/1999/xlink" x="0px" y="0px"
	 viewBox="0 0 32 32" style="enable-background:new 0 0 32 32;" xml:space="preserve">
<style type="text/css">
	.st0{fill-rule:evenodd;clip-rule:evenodd;}
	.st1{fill:#FFFFFF;}
</style>
<g>
	<circle class="st0" cx="16" cy="16" r="16"/>
	<g>
		<path class="st1" d="M12.924,11.711c0.24-0.382,0.474-0.768,0.72-1.146c1.266-1.943,3.232-2.489,5.366-2.575
			c1.952-0.079,3.909-0.019,5.863-0.038c0.36-0.003,0.481,0.12,0.466,0.472c-0.032,0.723,0.226,1.64-0.125,2.117
			c-0.345,0.469-1.314,0.132-2.007,0.149c-1.113,0.027-2.227-0.001-3.341,0.01c-2.032,0.02-3.214,0.977-3.669,2.955
			c-0.346,1.503-0.378,3.018-0.152,4.538c0.298,2.004,1.374,2.951,3.41,2.978c1.75,0.023,3.501,0.027,5.25-0.004
			c0.516-0.009,0.692,0.139,0.636,0.648c-0.076,0.692,0.297,1.621-0.16,2.017c-0.396,0.343-1.298,0.118-1.976,0.117
			c-1.591-0.003-3.185,0.033-4.772-0.049c-2.384-0.123-4.187-1.233-5.301-3.384c-0.061-0.119-0.148-0.224-0.223-0.336
			c0.767-1.309,1.635-2.552,2.545-3.764c0.289-0.385,0.351-0.69,0.026-1.106C14.575,14.149,13.683,12.976,12.924,11.711z"/>
		<path class="st1" d="M12.924,11.711c0.759,1.266,1.651,2.438,2.557,3.598c0.325,0.416,0.262,0.721-0.026,1.106
			c-0.91,1.212-1.778,2.455-2.545,3.764c-0.728,1.124-1.474,2.236-2.173,3.378c-0.234,0.383-0.493,0.508-0.929,0.495
			c-1.066-0.032-2.134-0.01-3.209-0.01c-0.065-0.311,0.177-0.465,0.307-0.653c1.576-2.279,3.149-4.559,4.756-6.815
			c0.289-0.406,0.267-0.669-0.003-1.063c-1.54-2.248-3.05-4.516-4.57-6.777c-0.123-0.183-0.241-0.371-0.44-0.678
			c1.321,0,2.531-0.002,3.74,0.002c0.254,0.001,0.317,0.235,0.423,0.398C11.52,9.536,12.221,10.624,12.924,11.711z"/>
	</g>
	<polygon class="st1" points="13.125,11.388 11.168,14.792 12.325,16.435 12.909,20.179 15.946,17.353 15.833,15.783 15.946,14.132 
			"/>
</g>
</svg>
