<?xml version="1.0" encoding="utf-8"?>
<!-- Generator: Adobe Illustrator 25.2.1, SVG Export Plug-In . SVG Version: 6.00 Build 0)  -->
<svg version="1.1" id="Layer_1" xmlns="http://www.w3.org/2000/svg" xmlns:xlink="http://www.w3.org/1999/xlink" x="0px" y="0px"
	 viewBox="0 0 32 32" style="enable-background:new 0 0 32 32;" xml:space="preserve">
<style type="text/css">
	.st0{fill:#28605A;}
	.st1{fill:#76FBB1;}
	.st2{fill:#008376;}
</style>
<g>
	<circle class="st0" cx="16" cy="16.023" r="15.8"/>
	<g>
		<path class="st1" d="M18.252,22.113c-0.066,0.004-0.133,0.011-0.199,0.011c-3.382,0-6.764-0.002-10.147-0.001
			c-0.35,0-0.699-0.016-1.042-0.086c-1.307-0.265-2.087-1.423-1.886-2.734c0.086-0.563,0.411-0.995,0.677-1.459
			c1.465-2.556,2.942-5.104,4.415-7.655c0.108-0.187,0.229-0.368,0.335-0.556c0.936-1.672,3.093-1.642,4.106-0.085
			c0.489,0.752,0.924,1.539,1.353,2.329c0.018,0.034,0.055,0.058,0.082,0.087c0.049,0.074-0.009,0.125-0.04,0.179
			c-1.171,2.015-2.317,4.044-3.421,6.097c-0.227,0.422-0.422,0.842-0.484,1.325c-0.12,0.928,0.317,1.808,1.141,2.259
			c0.233,0.127,0.465,0.221,0.735,0.177c0.461-0.012,0.922-0.008,1.383-0.004c0.546-0.004,1.092-0.012,1.638,0.002
			c0.354-0.011,0.708-0.009,1.061-0.002C18.065,21.999,18.199,21.965,18.252,22.113z"/>
		<path class="st2" d="M16.001,11.883c0.468-0.785,0.931-1.573,1.403-2.355c0.93-1.538,2.725-1.365,3.618-0.632
			c0.27,0.222,0.449,0.509,0.626,0.802c1.143,1.893,2.195,3.838,3.314,5.744c0.572,0.975,1.138,1.953,1.692,2.938
			c0.601,1.069,0.518,2.173-0.222,2.962c-0.601,0.641-1.361,0.86-2.221,0.785c-0.992,0.048-1.823-0.335-2.544-0.981
			c-0.302-0.27-0.591-0.558-0.837-0.883c-0.385-0.493-0.688-1.039-1.019-1.567c-0.342-0.602-0.679-1.206-1.045-1.793
			c-0.324-0.42-0.513-0.917-0.775-1.373c-0.074-0.128-0.143-0.259-0.228-0.381c-0.327-0.588-0.663-1.172-1.003-1.753
			c-0.239-0.393-0.468-0.792-0.695-1.193C16.007,12.103,15.945,12.006,16.001,11.883z"/>
		<path class="st1" d="M16.001,11.883c0.095,0.356,0.339,0.635,0.5,0.957c0.092,0.184,0.2,0.36,0.301,0.539
			c0.11,0.266,0.102,0.525,0,0.797c-0.631,1.682-1.219,3.38-1.848,5.063c-0.28,0.748-0.559,1.496-0.813,2.254
			c-0.07,0.21-0.125,0.437-0.331,0.571c-0.481,0.058-0.818-0.23-1.14-0.509c-0.943-0.818-0.942-2.091-0.35-3.158
			c0.375-0.675,0.738-1.355,1.115-2.029c0.624-1.114,1.254-2.225,1.885-3.336c0.204-0.36,0.419-0.713,0.628-1.07
			C15.965,11.937,15.983,11.91,16.001,11.883z"/>
		<path class="st1" d="M18.807,16.87c0.262,0.343,0.436,0.74,0.666,1.104c0.141,0.224,0.254,0.467,0.38,0.701
			c0.103,0.221,0.097,0.432,0.014,0.668c-0.283,0.796-0.585,1.584-0.867,2.38c-0.088,0.249-0.085,0.249,0.183,0.289
			c0.068,0.01,0.157-0.003,0.169,0.104c-0.366-0.001-0.733-0.001-1.099-0.002c-0.347-0.08-0.7-0.022-1.05-0.042
			c-0.098-0.006-0.197-0.004-0.295-0.006c-0.052-0.054-0.021-0.108,0.002-0.16c0.577-1.334,1.003-2.725,1.529-4.079
			c0.105-0.27,0.226-0.536,0.265-0.828C18.711,16.938,18.743,16.889,18.807,16.87z"/>
		<path class="st1" d="M19.352,22.115c-0.122-0.084-0.258-0.034-0.388-0.04c-0.123-0.006-0.161-0.028-0.11-0.161
			c0.291-0.767,0.573-1.538,0.856-2.308c0.11-0.3,0.217-0.603,0.143-0.932c0.233,0.366,0.466,0.733,0.701,1.098
			c0.098,0.152,0.2,0.3,0.301,0.45c0.135,0.152,0.113,0.317,0.045,0.49c-0.133,0.341-0.259,0.684-0.377,1.03
			c-0.088,0.261-0.092,0.26,0.197,0.264c0.083,0.001,0.167-0.005,0.248,0.019c0.047,0.014,0.099,0.03,0.085,0.098
			C20.486,22.12,19.919,22.118,19.352,22.115z"/>
		<path class="st1" d="M21.053,22.123c-0.186-0.105-0.388-0.035-0.582-0.048c-0.141-0.009-0.158-0.022-0.096-0.17
			c0.189-0.449,0.347-0.911,0.516-1.368c0.041-0.111-0.025-0.21-0.037-0.315c0.258,0.268,0.513,0.538,0.774,0.802
			c0.465,0.471,1.034,0.753,1.659,0.956c0.307,0.1,0.624,0.058,0.924,0.148c-0.504,0.055-1.01,0.021-1.516,0.022
			C22.148,22.151,21.6,22.133,21.053,22.123z"/>
		<path class="st1" d="M13.809,22.064c0.412-0.841,0.663-1.743,0.994-2.615c0.342-0.898,0.705-1.789,1.004-2.702
			c0.31-0.944,0.688-1.862,0.998-2.805c0.061-0.187-0.032-0.375-0.003-0.563c0.361,0.566,0.691,1.151,1.001,1.746
			c0.079,0.161,0.007,0.31-0.043,0.457c-0.243,0.717-0.516,1.423-0.778,2.132c-0.483,1.311-0.947,2.628-1.427,3.939
			c-0.06,0.165-0.118,0.332-0.298,0.41C14.775,22.064,14.292,22.064,13.809,22.064z"/>
		<path class="st1" d="M15.258,22.065c0.284-0.362,0.382-0.808,0.527-1.226c0.608-1.744,1.268-3.47,1.891-5.208
			c0.059-0.164,0.111-0.329,0.127-0.504c0.294,0.379,0.458,0.831,0.699,1.24c0.1,0.169,0.203,0.336,0.305,0.504
			c-0.391,1.398-0.982,2.725-1.447,4.097c-0.127,0.375-0.257,0.751-0.453,1.098C16.357,22.065,15.808,22.065,15.258,22.065z"/>
	</g>
</g>
</svg>
