<?xml version="1.0" encoding="utf-8"?>
<!-- Generator: Adobe Illustrator 25.3.1, SVG Export Plug-In . SVG Version: 6.00 Build 0)  -->
<svg version="1.1" id="Layer_1" xmlns="http://www.w3.org/2000/svg" xmlns:xlink="http://www.w3.org/1999/xlink" x="0px" y="0px"
	 viewBox="0 0 32 32" style="enable-background:new 0 0 32 32;" xml:space="preserve">
<style type="text/css">
	.st0{fill:#FFFFFF;}
	.st1{fill:#F60101;}
</style>
<g>
	<circle class="st0" cx="15.861" cy="15.861" r="14.472"/>
	<g>
		<path class="st1" d="M15.068,0.176c0.621,0,1.241,0,1.862,0c0.004,0.041,0.034,0.041,0.063,0.04
			c0.25-0.001,0.497,0.038,0.745,0.06c0.619,0.055,1.229,0.164,1.832,0.305c1.47,0.344,2.866,0.883,4.181,1.629
			c1.15,0.652,2.2,1.439,3.156,2.35c0.397,0.378,0.767,0.783,1.123,1.202c0.8,0.94,1.472,1.964,2.031,3.063
			c0.473,0.93,0.842,1.902,1.12,2.907c0.237,0.857,0.393,1.731,0.485,2.616c0.072,0.693,0.043,1.389,0.052,2.085
			c0.011,0.889-0.097,1.767-0.267,2.634c-0.303,1.553-0.818,3.035-1.567,4.435c-0.668,1.251-1.492,2.387-2.458,3.422
			c-0.518,0.555-1.081,1.065-1.678,1.533c-1.069,0.836-2.221,1.535-3.469,2.076c-1.744,0.757-3.567,1.185-5.463,1.276
			c-0.605,0.029-1.214,0.022-1.822-0.016c-0.76-0.048-1.509-0.15-2.255-0.302c-1.307-0.267-2.554-0.705-3.745-1.298
			c-1.221-0.607-2.341-1.365-3.367-2.267c-0.782-0.688-1.488-1.443-2.121-2.268c-0.823-1.072-1.497-2.232-2.016-3.48
			c-0.468-1.125-0.804-2.29-1-3.494c-0.078-0.477-0.141-0.957-0.211-1.435c0-0.89,0-1.78,0-2.67
			c0.075-0.015,0.058-0.077,0.062-0.126c0.05-0.71,0.173-1.409,0.333-2.101c0.341-1.474,0.881-2.87,1.629-4.186
			c0.814-1.432,1.82-2.708,3.036-3.822c0.737-0.675,1.525-1.277,2.371-1.807C8.647,1.948,9.637,1.47,10.677,1.1
			c1.279-0.455,2.592-0.753,3.949-0.862C14.77,0.227,14.933,0.276,15.068,0.176z M25.423,6.27c-0.045,0.07-0.027,0.124-0.027,0.174
			c0,5.936,0.001,11.872,0.002,17.808c0,0.093-0.018,0.188-0.009,0.28c0.013,0.131-0.045,0.155-0.162,0.155
			c-1.551-0.003-3.103-0.003-4.654,0c-0.089,0-0.132-0.027-0.17-0.107c-0.15-0.323-0.309-0.641-0.465-0.961
			c-0.492-1.012-0.984-2.024-1.476-3.036c-0.451-0.928-0.9-1.857-1.351-2.785c-0.473-0.975-0.948-1.95-1.422-2.925
			c-0.471-0.97-0.942-1.941-1.414-2.911c-0.564-1.157-1.14-2.309-1.689-3.473c-0.263-0.559-0.61-1.087-0.715-1.727
			c1.266,0,2.517,0.001,3.768-0.002c0.079,0,0.113,0.034,0.143,0.099c0.09,0.196,0.183,0.391,0.278,0.585
			c0.557,1.132,1.116,2.263,1.673,3.395c0.497,1.01,0.992,2.021,1.49,3.032c0.423,0.859,0.849,1.716,1.272,2.575
			c0.339,0.688,0.677,1.378,1.018,2.071c0.044-0.039,0.026-0.077,0.026-0.109c0.001-1.639,0-3.278,0.001-4.917
			c0.001-3.214,0.003-6.428,0.006-9.642c0-0.11,0.004-0.202-0.13-0.249c-0.29-0.103-0.574-0.227-0.863-0.332
			c-1.23-0.446-2.503-0.693-3.805-0.764c-0.558-0.03-1.12-0.026-1.681,0.016c-0.585,0.043-1.165,0.112-1.74,0.225
			c-0.886,0.174-1.745,0.438-2.579,0.786C9.782,3.934,8.875,4.441,8.025,5.052c-0.488,0.351-0.944,0.74-1.389,1.142
			C6.44,6.372,6.26,6.569,6.04,6.79c0.113,0,0.175,0,0.237,0c1.522,0,3.044-0.001,4.566,0.001c0.069,0,0.142-0.029,0.191,0.073
			c0.397,0.83,0.803,1.656,1.203,2.486c0.077,0.161,0.137,0.337,0.217,0.49c0.178,0.338,0.342,0.681,0.511,1.023
			c0.251,0.505,0.494,1.013,0.736,1.522c0.217,0.456,0.451,0.904,0.669,1.36c0.471,0.984,0.953,1.963,1.43,2.944
			c0.474,0.976,0.946,1.953,1.422,2.928c0.491,1.006,0.988,2.01,1.479,3.016c0.169,0.346,0.343,0.689,0.489,1.045
			c0.134,0.326,0.392,0.613,0.32,1.007c-1.23,0-2.476-0.001-3.723,0.003c-0.103,0-0.124-0.059-0.158-0.128
			c-0.334-0.687-0.67-1.373-1.006-2.059c-0.523-1.069-1.047-2.138-1.572-3.206c-0.558-1.136-1.116-2.272-1.675-3.407
			c-0.216-0.44-0.431-0.88-0.649-1.319c-0.252-0.509-0.507-1.017-0.76-1.526c-0.011,0.002-0.022,0.005-0.033,0.007
			c0,0.061,0,0.122,0,0.184c0,4.853,0,9.706,0,14.559c0,0.053,0.017,0.114-0.004,0.156c-0.053,0.104,0.013,0.124,0.083,0.16
			c0.803,0.404,1.646,0.703,2.513,0.936c0.898,0.241,1.813,0.389,2.739,0.422c0.977,0.034,1.952,0.007,2.923-0.157
			c0.948-0.16,1.869-0.408,2.764-0.754c1.003-0.389,1.943-0.899,2.827-1.516c1.121-0.783,2.104-1.711,2.942-2.789
			c0.848-1.091,1.517-2.284,2.004-3.58c0.486-1.295,0.765-2.632,0.841-4.01c0.028-0.512,0.02-1.029-0.011-1.543
			c-0.054-0.913-0.204-1.812-0.451-2.69c-0.456-1.623-1.187-3.116-2.199-4.467C26.459,7.361,25.967,6.803,25.423,6.27z M6.07,25.166
			c0-6.13,0-12.239,0-18.365C1.142,11.885,1.227,20.152,6.07,25.166z"/>
	</g>
</g>
</svg>
