<?xml version="1.0" encoding="utf-8"?>
<!-- Generator: Adobe Illustrator 25.3.1, SVG Export Plug-In . SVG Version: 6.00 Build 0)  -->
<svg version="1.1" id="Layer_1" xmlns="http://www.w3.org/2000/svg" xmlns:xlink="http://www.w3.org/1999/xlink" x="0px" y="0px"
	 viewBox="0 0 32 32" style="enable-background:new 0 0 32 32;" xml:space="preserve">
<style type="text/css">
	.st0{fill-rule:evenodd;clip-rule:evenodd;}
	.st1{fill:#FFFFFF;}
</style>
<g>
	<circle class="st0" cx="16" cy="16" r="16"/>
	<path class="st1" d="M23.913,13.258c0,0.5-0.1,1.1-0.2,1.8l-1.6,8.1c0,0.2-0.2,0.3-0.3,0.3h-2c-0.2,0-0.4-0.2-0.3-0.4l1.6-8
		c0.1-0.5,0.1-0.9,0.1-1.2c0-2-1.1-3.1-3.5-3.1c-2.9,0-4.9,1.6-5.5,4.8l-1.5,7.7c0,0.2-0.2,0.3-0.3,0.3h-2c-0.2,0-0.4-0.2-0.3-0.4
		l2.8-14.3c0-0.2,0.2-0.3,0.3-0.3h1.9c0.2,0,0.4,0.2,0.3,0.4l-0.1,0.6c-0.1,0.3,0.3,0.5,0.5,0.3c1.3-1,2.9-1.4,4.7-1.4
		C21.913,8.258,23.913,10.058,23.913,13.258z"/>
</g>
</svg>
