<?xml version="1.0" encoding="utf-8"?>
<!-- Generator: Adobe Illustrator 25.0.1, SVG Export Plug-In . SVG Version: 6.00 Build 0)  -->
<svg version="1.1" id="Layer_1" xmlns="http://www.w3.org/2000/svg" xmlns:xlink="http://www.w3.org/1999/xlink" x="0px" y="0px"
	 viewBox="0 0 32 32" style="enable-background:new 0 0 32 32;" xml:space="preserve">
<style type="text/css">
	.st0{fill:#2853C3;}
	.st1{fill:#3CA9E5;}
	.st2{fill:#1A4199;}
	.st3{fill:#60BEFF;}
</style>
<g>
	<path class="st0" d="M31.5,6.8l-7.5-4.4L16.1,7L8.5,2.7C8.5,2.6,8.3,2.6,8.2,2.6c-0.1,0-0.2,0-0.3,0.1L0.4,7v17.8
		c0,0.1,0,0.2,0.1,0.3c0.1,0.1,0.1,0.2,0.2,0.2l7.5,4.4l7.8-4.5l7.5,4.4c0.1,0.1,0.2,0.1,0.3,0.1c0.1,0,0.2,0,0.3-0.1l7.5-4.4V7.4
		c0-0.1,0-0.2-0.1-0.3C31.6,7,31.6,6.9,31.5,6.8L31.5,6.8z"/>
	<path class="st1" d="M8.5,2.7l15.4,8.9v9.1L0.4,7l7.5-4.4C8,2.6,8.1,2.6,8.2,2.6C8.3,2.6,8.5,2.6,8.5,2.7L8.5,2.7z"/>
	<path class="st0" d="M23.9,2.5L16.1,7l7.8,4.5L23.9,2.5L23.9,2.5z"/>
	<path class="st2" d="M23.9,2.5l7.5,4.4c0.1,0.1,0.2,0.1,0.2,0.2c0.1,0.1,0.1,0.2,0.1,0.3v17.8l-7.8-4.5L23.9,2.5L23.9,2.5z"/>
	<path class="st0" d="M31.8,25.1l-7.5,4.4c-0.1,0.1-0.2,0.1-0.3,0.1c-0.1,0-0.2,0-0.3-0.1L8.2,20.6v-9.1L31.8,25.1z"/>
	<path class="st3" d="M0.4,7v17.8c0,0.1,0,0.2,0.1,0.3c0.1,0.1,0.1,0.2,0.2,0.2l7.5,4.4V11.5L0.4,7z"/>
	<path class="st1" d="M8.2,29.6l7.8-4.5l-7.8-4.5L8.2,29.6L8.2,29.6z"/>
</g>
</svg>
