<?xml version="1.0" encoding="utf-8"?>
<!-- Generator: Adobe Illustrator 22.0.1, SVG Export Plug-In . SVG Version: 6.00 Build 0)  -->
<svg version="1.1" id="Layer_1" xmlns="http://www.w3.org/2000/svg" xmlns:xlink="http://www.w3.org/1999/xlink" x="0px" y="0px"
	 viewBox="0 0 32 32" style="enable-background:new 0 0 32 32;" xml:space="preserve">
<style type="text/css">
	.st0{fill:#FFFFFF;}
	.st1{fill:#4A63C0;}
	.st2{fill:#434EA4;}
	.st3{fill:#5C85E0;}
	.st4{fill:#5E87E1;}
	.st5{fill:#476FC9;}
	.st6{fill:#455CB4;}
	.st7{fill:#678EE3;}
	.st8{fill:#4B62C0;}
	.st9{fill:#4455AD;}
	.st10{fill:#628AE2;}
</style>
<g>
	<polygon class="st0" points="3.75,22.353 4.06,10.127 16.105,2.563 27.39,8.809 28.05,22.385 16.078,29.625 	"/>
	<polygon class="st0" points="5.779,21.228 6.032,11.25 16.169,4.884 25.446,10.019 25.994,21.291 16.065,27.295 	"/>
	<polygon class="st0" points="5.779,21.228 6.032,11.25 16.169,4.884 25.446,10.019 25.994,21.291 16.065,27.295 	"/>
	<polygon class="st0" points="7.809,20.103 8.004,12.373 16.233,7.206 23.503,11.229 23.938,20.196 16.053,24.966 	"/>
	<path class="st1" d="M29.555,20.935c0,0.939,0,1.878,0.003,2.817c0,0.092-0.032,0.14-0.109,0.185
		c-3.28,1.916-6.558,3.834-9.837,5.752c-1.135,0.664-2.271,1.327-3.406,1.991c-0.038,0.022-0.094,0.03-0.096,0.091
		c-0.021,0-0.042,0-0.063,0c-0.004-0.008-0.005-0.017-0.004-0.026c0.052-0.046,0.034-0.107,0.034-0.163
		c0.001-1.055,0.001-2.109,0-3.164c0-0.057,0.01-0.116-0.03-0.167c0.082-0.001,0.151-0.036,0.22-0.076
		c0.583-0.342,1.167-0.684,1.751-1.025c2.783-1.628,5.565-3.258,8.35-4.882c0.162-0.094,0.224-0.209,0.224-0.392
		c-0.004-1.532-0.002-3.065-0.002-4.597c0-0.063,0.004-0.126,0.006-0.188c0.046,0.025,0.023,0.079,0.046,0.111
		c0.055,0.074,0.018,0.196,0.089,0.242c0.087,0.056,0.155-0.056,0.235-0.083c0.301-0.102,0.598-0.22,0.896-0.332
		c0.556-0.21,1.112-0.42,1.669-0.631c0.001,1.451,0.002,2.902,0.004,4.353C29.536,20.812,29.518,20.877,29.555,20.935z"/>
	<path class="st1" d="M29.555,20.935c0,0.939,0,1.878,0.003,2.817c0,0.092-0.032,0.14-0.109,0.185
		c-3.28,1.916-6.558,3.834-9.837,5.752c-1.135,0.664-2.271,1.327-3.406,1.991c-0.038,0.022-0.094,0.03-0.096,0.091
		c-0.021,0-0.042,0-0.063,0c-0.004-0.008-0.005-0.017-0.004-0.026c0.052-0.046,0.034-0.107,0.034-0.163
		c0.001-1.055,0.001-2.109,0-3.164c0-0.057,0.01-0.116-0.03-0.167c0.082-0.001,0.151-0.036,0.22-0.076
		c0.583-0.342,1.167-0.684,1.751-1.025c2.783-1.628,5.565-3.258,8.35-4.882c0.162-0.094,0.224-0.209,0.224-0.392
		c-0.004-1.532-0.002-3.065-0.002-4.597c0-0.063,0.004-0.126,0.006-0.188c0.046,0.025,0.023,0.079,0.046,0.111
		c0.055,0.074,0.018,0.196,0.089,0.242c0.087,0.056,0.155-0.056,0.235-0.083c0.301-0.102,0.598-0.22,0.896-0.332
		c0.556-0.21,1.112-0.42,1.669-0.631c0.001,1.451,0.002,2.902,0.004,4.353C29.536,20.812,29.518,20.877,29.555,20.935z"/>
	<path class="st1" d="M29.555,20.935c0,0.939,0,1.878,0.003,2.817c0,0.092-0.032,0.14-0.109,0.185
		c-3.28,1.916-6.558,3.834-9.837,5.752c-1.135,0.664-2.271,1.327-3.406,1.991c-0.038,0.022-0.094,0.03-0.096,0.091
		c-0.021,0-0.042,0-0.063,0c-0.004-0.008-0.005-0.017-0.004-0.026c0.052-0.046,0.034-0.107,0.034-0.163
		c0.001-1.055,0.001-2.109,0-3.164c0-0.057,0.01-0.116-0.03-0.167c0.082-0.001,0.151-0.036,0.22-0.076
		c0.583-0.342,1.167-0.684,1.751-1.025c2.783-1.628,5.565-3.258,8.35-4.882c0.162-0.094,0.224-0.209,0.224-0.392
		c-0.004-1.532-0.002-3.065-0.002-4.597c0-0.063,0.004-0.126,0.006-0.188c0.046,0.025,0.023,0.079,0.046,0.111
		c0.055,0.074,0.018,0.196,0.089,0.242c0.087,0.056,0.155-0.056,0.235-0.083c0.301-0.102,0.598-0.22,0.896-0.332
		c0.556-0.21,1.112-0.42,1.669-0.631c0.001,1.451,0.002,2.902,0.004,4.353C29.536,20.812,29.518,20.877,29.555,20.935z"/>
	<path class="st1" d="M29.555,20.935c0,0.939,0,1.878,0.003,2.817c0,0.092-0.032,0.14-0.109,0.185
		c-3.28,1.916-6.558,3.834-9.837,5.752c-1.135,0.664-2.271,1.327-3.406,1.991c-0.038,0.022-0.094,0.03-0.096,0.091
		c-0.021,0-0.042,0-0.063,0c-0.004-0.008-0.005-0.017-0.004-0.026c0.052-0.046,0.034-0.107,0.034-0.163
		c0.001-1.055,0.001-2.109,0-3.164c0-0.057,0.01-0.116-0.03-0.167c0.082-0.001,0.151-0.036,0.22-0.076
		c0.583-0.342,1.167-0.684,1.751-1.025c2.783-1.628,5.565-3.258,8.35-4.882c0.162-0.094,0.224-0.209,0.224-0.392
		c-0.004-1.532-0.002-3.065-0.002-4.597c0-0.063,0.004-0.126,0.006-0.188c0.046,0.025,0.023,0.079,0.046,0.111
		c0.055,0.074,0.018,0.196,0.089,0.242c0.087,0.056,0.155-0.056,0.235-0.083c0.301-0.102,0.598-0.22,0.896-0.332
		c0.556-0.21,1.112-0.42,1.669-0.631c0.001,1.451,0.002,2.902,0.004,4.353C29.536,20.812,29.518,20.877,29.555,20.935z"/>
	<path class="st2" d="M16.049,28.252c0.039,0.05,0.029,0.11,0.03,0.167c0,1.055,0.001,2.109,0,3.164
		c0,0.055,0.019,0.117-0.034,0.163c-1.379-0.808-2.758-1.616-4.137-2.423c-3.076-1.799-6.152-3.598-9.228-5.397
		c-0.031-0.018-0.061-0.04-0.091-0.059c0.002-0.068,0.007-0.136,0.007-0.203c0.002-0.847,0.003-1.693,0.004-2.54
		c0.039-0.032,0.052-0.075,0.061-0.123c0.039-0.202,0.063-0.217,0.242-0.132c0.793,0.374,1.585,0.748,2.377,1.125
		c0.21,0.1,0.216,0.099,0.216-0.128c0-0.953,0-1.907,0.002-2.86c0-0.06-0.024-0.127,0.029-0.179c0.001,1.01,0.001,2.02,0.004,3.03
		c0,0.06-0.023,0.126,0.026,0.18c0.03,0.095,0.093,0.16,0.179,0.21c1.44,0.841,2.878,1.683,4.319,2.521
		c0.089,0.052,0.123,0.098,0.111,0.206c-0.04,0.374,0.186,0.726,0.533,0.857c0.349,0.131,0.725,0.02,0.955-0.283
		c0.226-0.297,0.222-0.72-0.011-1.026c-0.253-0.332-0.646-0.409-0.955-0.254c-0.243,0.122-0.391,0.064-0.573-0.054
		c-0.048-0.031-0.096-0.061-0.145-0.09c-1.211-0.706-2.424-1.409-3.632-2.12c-0.091-0.053-0.227-0.073-0.247-0.215
		c0.002-1.385,0.005-2.771,0.007-4.156c0.049,0.054,0.026,0.121,0.026,0.181c0.002,1.123,0.005,2.246,0,3.369
		c-0.001,0.152,0.02,0.229,0.188,0.3c0.562,0.237,1.108,0.513,1.661,0.773c0.459,0.215,0.919,0.425,1.377,0.641
		c0.69,0.327,1.377,0.659,2.068,0.985c0.805,0.38,1.612,0.754,2.417,1.132c0.17,0.08,0.226,0.046,0.227-0.147
		c0.001-0.404,0-0.808,0.002-1.212c0-0.055-0.021-0.117,0.03-0.164c0.007,0.005,0.009,0.011,0.006,0.019
		c-0.001,1.157-0.003,2.314-0.004,3.471c0,0.036-0.003,0.074,0.032,0.099c0.043,0.088,0.115,0.144,0.198,0.192
		c0.464,0.27,0.926,0.543,1.39,0.813C15.824,28.144,15.924,28.223,16.049,28.252z"/>
	<path class="st2" d="M16.049,28.252c0.039,0.05,0.029,0.11,0.03,0.167c0,1.055,0.001,2.109,0,3.164
		c0,0.055,0.019,0.117-0.034,0.163c-1.379-0.808-2.758-1.616-4.137-2.423c-3.076-1.799-6.152-3.598-9.228-5.397
		c-0.031-0.018-0.061-0.04-0.091-0.059c0.002-0.068,0.007-0.136,0.007-0.203c0.002-0.847,0.003-1.693,0.004-2.54
		c0.039-0.032,0.052-0.075,0.061-0.123c0.039-0.202,0.063-0.217,0.242-0.132c0.793,0.374,1.585,0.748,2.377,1.125
		c0.21,0.1,0.216,0.099,0.216-0.128c0-0.953,0-1.907,0.002-2.86c0-0.06-0.024-0.127,0.029-0.179c0.001,1.01,0.001,2.02,0.004,3.03
		c0,0.06-0.023,0.126,0.026,0.18c0.03,0.095,0.093,0.16,0.179,0.21c1.44,0.841,2.878,1.683,4.319,2.521
		c0.089,0.052,0.123,0.098,0.111,0.206c-0.04,0.374,0.186,0.726,0.533,0.857c0.349,0.131,0.725,0.02,0.955-0.283
		c0.226-0.297,0.222-0.72-0.011-1.026c-0.253-0.332-0.646-0.409-0.955-0.254c-0.243,0.122-0.391,0.064-0.573-0.054
		c-0.048-0.031-0.096-0.061-0.145-0.09c-1.211-0.706-2.424-1.409-3.632-2.12c-0.091-0.053-0.227-0.073-0.247-0.215
		c0.002-1.385,0.005-2.771,0.007-4.156c0.049,0.054,0.026,0.121,0.026,0.181c0.002,1.123,0.005,2.246,0,3.369
		c-0.001,0.152,0.02,0.229,0.188,0.3c0.562,0.237,1.108,0.513,1.661,0.773c0.459,0.215,0.919,0.425,1.377,0.641
		c0.69,0.327,1.377,0.659,2.068,0.985c0.805,0.38,1.612,0.754,2.417,1.132c0.17,0.08,0.226,0.046,0.227-0.147
		c0.001-0.404,0-0.808,0.002-1.212c0-0.055-0.021-0.117,0.03-0.164c0.007,0.005,0.009,0.011,0.006,0.019
		c-0.001,1.157-0.003,2.314-0.004,3.471c0,0.036-0.003,0.074,0.032,0.099c0.043,0.088,0.115,0.144,0.198,0.192
		c0.464,0.27,0.926,0.543,1.39,0.813C15.824,28.144,15.924,28.223,16.049,28.252z"/>
	<path class="st2" d="M16.049,28.252c0.039,0.05,0.029,0.11,0.03,0.167c0,1.055,0.001,2.109,0,3.164
		c0,0.055,0.019,0.117-0.034,0.163c-1.379-0.808-2.758-1.616-4.137-2.423c-3.076-1.799-6.152-3.598-9.228-5.397
		c-0.031-0.018-0.061-0.04-0.091-0.059c0.002-0.068,0.007-0.136,0.007-0.203c0.002-0.847,0.003-1.693,0.004-2.54
		c0.039-0.032,0.052-0.075,0.061-0.123c0.039-0.202,0.063-0.217,0.242-0.132c0.793,0.374,1.585,0.748,2.377,1.125
		c0.21,0.1,0.216,0.099,0.216-0.128c0-0.953,0-1.907,0.002-2.86c0-0.06-0.024-0.127,0.029-0.179c0.001,1.01,0.001,2.02,0.004,3.03
		c0,0.06-0.023,0.126,0.026,0.18c0.03,0.095,0.093,0.16,0.179,0.21c1.44,0.841,2.878,1.683,4.319,2.521
		c0.089,0.052,0.123,0.098,0.111,0.206c-0.04,0.374,0.186,0.726,0.533,0.857c0.349,0.131,0.725,0.02,0.955-0.283
		c0.226-0.297,0.222-0.72-0.011-1.026c-0.253-0.332-0.646-0.409-0.955-0.254c-0.243,0.122-0.391,0.064-0.573-0.054
		c-0.048-0.031-0.096-0.061-0.145-0.09c-1.211-0.706-2.424-1.409-3.632-2.12c-0.091-0.053-0.227-0.073-0.247-0.215
		c0.002-1.385,0.005-2.771,0.007-4.156c0.049,0.054,0.026,0.121,0.026,0.181c0.002,1.123,0.005,2.246,0,3.369
		c-0.001,0.152,0.02,0.229,0.188,0.3c0.562,0.237,1.108,0.513,1.661,0.773c0.459,0.215,0.919,0.425,1.377,0.641
		c0.69,0.327,1.377,0.659,2.068,0.985c0.805,0.38,1.612,0.754,2.417,1.132c0.17,0.08,0.226,0.046,0.227-0.147
		c0.001-0.404,0-0.808,0.002-1.212c0-0.055-0.021-0.117,0.03-0.164c0.007,0.005,0.009,0.011,0.006,0.019
		c-0.001,1.157-0.003,2.314-0.004,3.471c0,0.036-0.003,0.074,0.032,0.099c0.043,0.088,0.115,0.144,0.198,0.192
		c0.464,0.27,0.926,0.543,1.39,0.813C15.824,28.144,15.924,28.223,16.049,28.252z"/>
	<path class="st2" d="M16.049,28.252c0.039,0.05,0.029,0.11,0.03,0.167c0,1.055,0.001,2.109,0,3.164
		c0,0.055,0.019,0.117-0.034,0.163c-1.379-0.808-2.758-1.616-4.137-2.423c-3.076-1.799-6.152-3.598-9.228-5.397
		c-0.031-0.018-0.061-0.04-0.091-0.059c0.002-0.068,0.007-0.136,0.007-0.203c0.002-0.847,0.003-1.693,0.004-2.54
		c0.039-0.032,0.052-0.075,0.061-0.123c0.039-0.202,0.063-0.217,0.242-0.132c0.793,0.374,1.585,0.748,2.377,1.125
		c0.21,0.1,0.216,0.099,0.216-0.128c0-0.953,0-1.907,0.002-2.86c0-0.06-0.024-0.127,0.029-0.179c0.001,1.01,0.001,2.02,0.004,3.03
		c0,0.06-0.023,0.126,0.026,0.18c0.03,0.095,0.093,0.16,0.179,0.21c1.44,0.841,2.878,1.683,4.319,2.521
		c0.089,0.052,0.123,0.098,0.111,0.206c-0.04,0.374,0.186,0.726,0.533,0.857c0.349,0.131,0.725,0.02,0.955-0.283
		c0.226-0.297,0.222-0.72-0.011-1.026c-0.253-0.332-0.646-0.409-0.955-0.254c-0.243,0.122-0.391,0.064-0.573-0.054
		c-0.048-0.031-0.096-0.061-0.145-0.09c-1.211-0.706-2.424-1.409-3.632-2.12c-0.091-0.053-0.227-0.073-0.247-0.215
		c0.002-1.385,0.005-2.771,0.007-4.156c0.049,0.054,0.026,0.121,0.026,0.181c0.002,1.123,0.005,2.246,0,3.369
		c-0.001,0.152,0.02,0.229,0.188,0.3c0.562,0.237,1.108,0.513,1.661,0.773c0.459,0.215,0.919,0.425,1.377,0.641
		c0.69,0.327,1.377,0.659,2.068,0.985c0.805,0.38,1.612,0.754,2.417,1.132c0.17,0.08,0.226,0.046,0.227-0.147
		c0.001-0.404,0-0.808,0.002-1.212c0-0.055-0.021-0.117,0.03-0.164c0.007,0.005,0.009,0.011,0.006,0.019
		c-0.001,1.157-0.003,2.314-0.004,3.471c0,0.036-0.003,0.074,0.032,0.099c0.043,0.088,0.115,0.144,0.198,0.192
		c0.464,0.27,0.926,0.543,1.39,0.813C15.824,28.144,15.924,28.223,16.049,28.252z"/>
	<path class="st3" d="M18.693,1.758c0.641,0.373,1.282,0.744,1.921,1.118c0.359,0.211,0.726,0.409,1.071,0.644
		c0.014,0.082,0.066,0.149,0.066,0.239c-0.004,0.791-0.002,1.582-0.002,2.373c0,0.064,0.004,0.128-0.07,0.159
		c-0.046-0.024-0.092-0.049-0.138-0.073c-0.468-0.243-1.013-0.016-1.177,0.484c-0.173,0.529,0.256,1.221,0.967,1.093
		c0.008,0.011,0.071,0.011,0.02,0.031c-0.126,0.05-0.261,0.06-0.398,0.036c-0.144-0.026-0.184,0.034-0.184,0.18
		c0.005,1.617,0.001,3.234,0.006,4.851c0.001,0.177-0.056,0.298-0.2,0.397c-0.054,0.037-0.147,0.053-0.149,0.148
		c-0.047,0.03-0.098,0.055-0.142,0.089c-0.082,0.064-0.2,0.086-0.241,0.199c-0.062-0.16-0.126-0.32-0.186-0.481
		c-0.22-0.587-0.439-1.174-0.658-1.76c0.035-0.027,0.036-0.065,0.023-0.1c-0.151-0.416-0.254-0.848-0.418-1.259
		c-0.052-0.131-0.08-0.268-0.08-0.412c0.002-2.381,0.002-4.761,0.001-7.142C18.724,2.3,18.747,2.028,18.693,1.758z"/>
	<path class="st3" d="M18.693,1.758c0.641,0.373,1.282,0.744,1.921,1.118c0.359,0.211,0.726,0.409,1.071,0.644
		c0.014,0.082,0.066,0.149,0.066,0.239c-0.004,0.791-0.002,1.582-0.002,2.373c0,0.064,0.004,0.128-0.07,0.159
		c-0.046-0.024-0.092-0.049-0.138-0.073c-0.468-0.243-1.013-0.016-1.177,0.484c-0.173,0.529,0.256,1.221,0.967,1.093
		c0.008,0.011,0.071,0.011,0.02,0.031c-0.126,0.05-0.261,0.06-0.398,0.036c-0.144-0.026-0.184,0.034-0.184,0.18
		c0.005,1.617,0.001,3.234,0.006,4.851c0.001,0.177-0.056,0.298-0.2,0.397c-0.054,0.037-0.147,0.053-0.149,0.148
		c-0.047,0.03-0.098,0.055-0.142,0.089c-0.082,0.064-0.2,0.086-0.241,0.199c-0.062-0.16-0.126-0.32-0.186-0.481
		c-0.22-0.587-0.439-1.174-0.658-1.76c0.035-0.027,0.036-0.065,0.023-0.1c-0.151-0.416-0.254-0.848-0.418-1.259
		c-0.052-0.131-0.08-0.268-0.08-0.412c0.002-2.381,0.002-4.761,0.001-7.142C18.724,2.3,18.747,2.028,18.693,1.758z"/>
	<path class="st3" d="M18.693,1.758c0.641,0.373,1.282,0.744,1.921,1.118c0.359,0.211,0.726,0.409,1.071,0.644
		c0.014,0.082,0.066,0.149,0.066,0.239c-0.004,0.791-0.002,1.582-0.002,2.373c0,0.064,0.004,0.128-0.07,0.159
		c-0.046-0.024-0.092-0.049-0.138-0.073c-0.468-0.243-1.013-0.016-1.177,0.484c-0.173,0.529,0.256,1.221,0.967,1.093
		c0.008,0.011,0.071,0.011,0.02,0.031c-0.126,0.05-0.261,0.06-0.398,0.036c-0.144-0.026-0.184,0.034-0.184,0.18
		c0.005,1.617,0.001,3.234,0.006,4.851c0.001,0.177-0.056,0.298-0.2,0.397c-0.054,0.037-0.147,0.053-0.149,0.148
		c-0.047,0.03-0.098,0.055-0.142,0.089c-0.082,0.064-0.2,0.086-0.241,0.199c-0.062-0.16-0.126-0.32-0.186-0.481
		c-0.22-0.587-0.439-1.174-0.658-1.76c0.035-0.027,0.036-0.065,0.023-0.1c-0.151-0.416-0.254-0.848-0.418-1.259
		c-0.052-0.131-0.08-0.268-0.08-0.412c0.002-2.381,0.002-4.761,0.001-7.142C18.724,2.3,18.747,2.028,18.693,1.758z"/>
	<path class="st3" d="M18.693,1.758c0.641,0.373,1.282,0.744,1.921,1.118c0.359,0.211,0.726,0.409,1.071,0.644
		c0.014,0.082,0.066,0.149,0.066,0.239c-0.004,0.791-0.002,1.582-0.002,2.373c0,0.064,0.004,0.128-0.07,0.159
		c-0.046-0.024-0.092-0.049-0.138-0.073c-0.468-0.243-1.013-0.016-1.177,0.484c-0.173,0.529,0.256,1.221,0.967,1.093
		c0.008,0.011,0.071,0.011,0.02,0.031c-0.126,0.05-0.261,0.06-0.398,0.036c-0.144-0.026-0.184,0.034-0.184,0.18
		c0.005,1.617,0.001,3.234,0.006,4.851c0.001,0.177-0.056,0.298-0.2,0.397c-0.054,0.037-0.147,0.053-0.149,0.148
		c-0.047,0.03-0.098,0.055-0.142,0.089c-0.082,0.064-0.2,0.086-0.241,0.199c-0.062-0.16-0.126-0.32-0.186-0.481
		c-0.22-0.587-0.439-1.174-0.658-1.76c0.035-0.027,0.036-0.065,0.023-0.1c-0.151-0.416-0.254-0.848-0.418-1.259
		c-0.052-0.131-0.08-0.268-0.08-0.412c0.002-2.381,0.002-4.761,0.001-7.142C18.724,2.3,18.747,2.028,18.693,1.758z"/>
	<path class="st4" d="M18.693,1.758c0.053,0.27,0.031,0.542,0.031,0.814c0.001,2.381,0.001,4.761-0.001,7.142
		c0,0.145,0.028,0.282,0.08,0.412c0.165,0.411,0.268,0.843,0.418,1.259c0.013,0.035,0.012,0.073-0.023,0.1
		c-0.021-0.042-0.047-0.082-0.063-0.125c-0.261-0.686-0.529-1.37-0.779-2.061c-0.111-0.308-0.259-0.603-0.328-0.925
		c0.001-1.133,0.002-2.267,0.003-3.4c0-0.036,0.004-0.074-0.028-0.102c-0.048-0.071-0.113-0.122-0.187-0.165
		c-0.52-0.303-1.041-0.605-1.56-0.912c-0.133-0.079-0.25-0.076-0.381,0.003c-0.309,0.187-0.622,0.367-0.935,0.548
		C14.295,4.722,13.647,5.097,13,5.473c-0.034-0.023-0.017-0.054,0.005-0.06c0.229-0.067,0.208-0.252,0.208-0.429
		c0-0.89-0.001-1.781,0-2.671c0-0.137-0.035-0.285,0.109-0.386c0.02-0.014,0.012-0.069,0.017-0.104
		c0.89-0.523,1.78-1.046,2.669-1.571c0.047-0.028,0.075-0.031,0.125-0.002C16.986,0.754,17.84,1.256,18.693,1.758z"/>
	<path class="st4" d="M18.693,1.758c0.053,0.27,0.031,0.542,0.031,0.814c0.001,2.381,0.001,4.761-0.001,7.142
		c0,0.145,0.028,0.282,0.08,0.412c0.165,0.411,0.268,0.843,0.418,1.259c0.013,0.035,0.012,0.073-0.023,0.1
		c-0.021-0.042-0.047-0.082-0.063-0.125c-0.261-0.686-0.529-1.37-0.779-2.061c-0.111-0.308-0.259-0.603-0.328-0.925
		c0.001-1.133,0.002-2.267,0.003-3.4c0-0.036,0.004-0.074-0.028-0.102c-0.048-0.071-0.113-0.122-0.187-0.165
		c-0.52-0.303-1.041-0.605-1.56-0.912c-0.133-0.079-0.25-0.076-0.381,0.003c-0.309,0.187-0.622,0.367-0.935,0.548
		C14.295,4.722,13.647,5.097,13,5.473c-0.034-0.023-0.017-0.054,0.005-0.06c0.229-0.067,0.208-0.252,0.208-0.429
		c0-0.89-0.001-1.781,0-2.671c0-0.137-0.035-0.285,0.109-0.386c0.02-0.014,0.012-0.069,0.017-0.104
		c0.89-0.523,1.78-1.046,2.669-1.571c0.047-0.028,0.075-0.031,0.125-0.002C16.986,0.754,17.84,1.256,18.693,1.758z"/>
	<path class="st4" d="M18.693,1.758c0.053,0.27,0.031,0.542,0.031,0.814c0.001,2.381,0.001,4.761-0.001,7.142
		c0,0.145,0.028,0.282,0.08,0.412c0.165,0.411,0.268,0.843,0.418,1.259c0.013,0.035,0.012,0.073-0.023,0.1
		c-0.021-0.042-0.047-0.082-0.063-0.125c-0.261-0.686-0.529-1.37-0.779-2.061c-0.111-0.308-0.259-0.603-0.328-0.925
		c0.001-1.133,0.002-2.267,0.003-3.4c0-0.036,0.004-0.074-0.028-0.102c-0.048-0.071-0.113-0.122-0.187-0.165
		c-0.52-0.303-1.041-0.605-1.56-0.912c-0.133-0.079-0.25-0.076-0.381,0.003c-0.309,0.187-0.622,0.367-0.935,0.548
		C14.295,4.722,13.647,5.097,13,5.473c-0.034-0.023-0.017-0.054,0.005-0.06c0.229-0.067,0.208-0.252,0.208-0.429
		c0-0.89-0.001-1.781,0-2.671c0-0.137-0.035-0.285,0.109-0.386c0.02-0.014,0.012-0.069,0.017-0.104
		c0.89-0.523,1.78-1.046,2.669-1.571c0.047-0.028,0.075-0.031,0.125-0.002C16.986,0.754,17.84,1.256,18.693,1.758z"/>
	<path class="st4" d="M18.693,1.758c0.053,0.27,0.031,0.542,0.031,0.814c0.001,2.381,0.001,4.761-0.001,7.142
		c0,0.145,0.028,0.282,0.08,0.412c0.165,0.411,0.268,0.843,0.418,1.259c0.013,0.035,0.012,0.073-0.023,0.1
		c-0.021-0.042-0.047-0.082-0.063-0.125c-0.261-0.686-0.529-1.37-0.779-2.061c-0.111-0.308-0.259-0.603-0.328-0.925
		c0.001-1.133,0.002-2.267,0.003-3.4c0-0.036,0.004-0.074-0.028-0.102c-0.048-0.071-0.113-0.122-0.187-0.165
		c-0.52-0.303-1.041-0.605-1.56-0.912c-0.133-0.079-0.25-0.076-0.381,0.003c-0.309,0.187-0.622,0.367-0.935,0.548
		C14.295,4.722,13.647,5.097,13,5.473c-0.034-0.023-0.017-0.054,0.005-0.06c0.229-0.067,0.208-0.252,0.208-0.429
		c0-0.89-0.001-1.781,0-2.671c0-0.137-0.035-0.285,0.109-0.386c0.02-0.014,0.012-0.069,0.017-0.104
		c0.89-0.523,1.78-1.046,2.669-1.571c0.047-0.028,0.075-0.031,0.125-0.002C16.986,0.754,17.84,1.256,18.693,1.758z"/>
	<path class="st3" d="M21.679,6.291c0.075-0.03,0.07-0.095,0.07-0.159c0-0.791-0.002-1.582,0.002-2.373
		c0-0.09-0.052-0.158-0.066-0.239c0.317,0.138,0.601,0.335,0.899,0.508c0.878,0.51,1.753,1.028,2.628,1.542
		c0.089,0.215,0.064,0.441,0.064,0.664c0.001,0.828,0.005,1.656-0.004,2.484c-0.002,0.167,0.052,0.28,0.184,0.368
		c0.035,0.024,0.1,0.039,0.038,0.101c-0.019-0.006-0.041-0.01-0.058-0.02c-0.464-0.272-0.928-0.546-1.393-0.818
		c-0.65-0.381-1.302-0.76-1.952-1.142c-0.05-0.029-0.129-0.044-0.115-0.129C22.028,6.759,21.895,6.51,21.679,6.291z"/>
	<path class="st3" d="M21.679,6.291c0.075-0.03,0.07-0.095,0.07-0.159c0-0.791-0.002-1.582,0.002-2.373
		c0-0.09-0.052-0.158-0.066-0.239c0.317,0.138,0.601,0.335,0.899,0.508c0.878,0.51,1.753,1.028,2.628,1.542
		c0.089,0.215,0.064,0.441,0.064,0.664c0.001,0.828,0.005,1.656-0.004,2.484c-0.002,0.167,0.052,0.28,0.184,0.368
		c0.035,0.024,0.1,0.039,0.038,0.101c-0.019-0.006-0.041-0.01-0.058-0.02c-0.464-0.272-0.928-0.546-1.393-0.818
		c-0.65-0.381-1.302-0.76-1.952-1.142c-0.05-0.029-0.129-0.044-0.115-0.129C22.028,6.759,21.895,6.51,21.679,6.291z"/>
	<path class="st3" d="M21.679,6.291c0.075-0.03,0.07-0.095,0.07-0.159c0-0.791-0.002-1.582,0.002-2.373
		c0-0.09-0.052-0.158-0.066-0.239c0.317,0.138,0.601,0.335,0.899,0.508c0.878,0.51,1.753,1.028,2.628,1.542
		c0.089,0.215,0.064,0.441,0.064,0.664c0.001,0.828,0.005,1.656-0.004,2.484c-0.002,0.167,0.052,0.28,0.184,0.368
		c0.035,0.024,0.1,0.039,0.038,0.101c-0.019-0.006-0.041-0.01-0.058-0.02c-0.464-0.272-0.928-0.546-1.393-0.818
		c-0.65-0.381-1.302-0.76-1.952-1.142c-0.05-0.029-0.129-0.044-0.115-0.129C22.028,6.759,21.895,6.51,21.679,6.291z"/>
	<path class="st3" d="M21.679,6.291c0.075-0.03,0.07-0.095,0.07-0.159c0-0.791-0.002-1.582,0.002-2.373
		c0-0.09-0.052-0.158-0.066-0.239c0.317,0.138,0.601,0.335,0.899,0.508c0.878,0.51,1.753,1.028,2.628,1.542
		c0.089,0.215,0.064,0.441,0.064,0.664c0.001,0.828,0.005,1.656-0.004,2.484c-0.002,0.167,0.052,0.28,0.184,0.368
		c0.035,0.024,0.1,0.039,0.038,0.101c-0.019-0.006-0.041-0.01-0.058-0.02c-0.464-0.272-0.928-0.546-1.393-0.818
		c-0.65-0.381-1.302-0.76-1.952-1.142c-0.05-0.029-0.129-0.044-0.115-0.129C22.028,6.759,21.895,6.51,21.679,6.291z"/>
	<path class="st3" d="M2.572,13.503c-0.003-0.063-0.008-0.125-0.008-0.188c0-1.662,0.002-3.324-0.003-4.986
		c0-0.147,0.036-0.229,0.17-0.307c1.557-0.905,3.11-1.819,4.664-2.73C7.43,5.271,7.47,5.256,7.507,5.239
		C7.465,5.345,7.446,5.454,7.446,5.57C7.45,6.52,7.448,7.469,7.45,8.418c0,0.11-0.008,0.206-0.114,0.272
		c-0.033,0.02-0.11,0.052-0.042,0.119c-0.503,0.298-1.005,0.597-1.51,0.893c-0.093,0.054-0.172,0.116-0.22,0.214
		c-0.005-0.09-0.08-0.115-0.143-0.151c-0.374-0.219-0.75-0.437-1.125-0.656c-0.52-0.303-1.04-0.606-1.56-0.911
		C2.64,8.142,2.593,8.135,2.593,8.275c0.004,1.049,0.003,2.097,0.003,3.146c-0.001,0.692-0.002,1.385-0.003,2.077
		C2.587,13.5,2.579,13.501,2.572,13.503z"/>
	<path class="st3" d="M2.572,13.503c-0.003-0.063-0.008-0.125-0.008-0.188c0-1.662,0.002-3.324-0.003-4.986
		c0-0.147,0.036-0.229,0.17-0.307c1.557-0.905,3.11-1.819,4.664-2.73C7.43,5.271,7.47,5.256,7.507,5.239
		C7.465,5.345,7.446,5.454,7.446,5.57C7.45,6.52,7.448,7.469,7.45,8.418c0,0.11-0.008,0.206-0.114,0.272
		c-0.033,0.02-0.11,0.052-0.042,0.119c-0.503,0.298-1.005,0.597-1.51,0.893c-0.093,0.054-0.172,0.116-0.22,0.214
		c-0.005-0.09-0.08-0.115-0.143-0.151c-0.374-0.219-0.75-0.437-1.125-0.656c-0.52-0.303-1.04-0.606-1.56-0.911
		C2.64,8.142,2.593,8.135,2.593,8.275c0.004,1.049,0.003,2.097,0.003,3.146c-0.001,0.692-0.002,1.385-0.003,2.077
		C2.587,13.5,2.579,13.501,2.572,13.503z"/>
	<path class="st3" d="M2.572,13.503c-0.003-0.063-0.008-0.125-0.008-0.188c0-1.662,0.002-3.324-0.003-4.986
		c0-0.147,0.036-0.229,0.17-0.307c1.557-0.905,3.11-1.819,4.664-2.73C7.43,5.271,7.47,5.256,7.507,5.239
		C7.465,5.345,7.446,5.454,7.446,5.57C7.45,6.52,7.448,7.469,7.45,8.418c0,0.11-0.008,0.206-0.114,0.272
		c-0.033,0.02-0.11,0.052-0.042,0.119c-0.503,0.298-1.005,0.597-1.51,0.893c-0.093,0.054-0.172,0.116-0.22,0.214
		c-0.005-0.09-0.08-0.115-0.143-0.151c-0.374-0.219-0.75-0.437-1.125-0.656c-0.52-0.303-1.04-0.606-1.56-0.911
		C2.64,8.142,2.593,8.135,2.593,8.275c0.004,1.049,0.003,2.097,0.003,3.146c-0.001,0.692-0.002,1.385-0.003,2.077
		C2.587,13.5,2.579,13.501,2.572,13.503z"/>
	<path class="st3" d="M2.572,13.503c-0.003-0.063-0.008-0.125-0.008-0.188c0-1.662,0.002-3.324-0.003-4.986
		c0-0.147,0.036-0.229,0.17-0.307c1.557-0.905,3.11-1.819,4.664-2.73C7.43,5.271,7.47,5.256,7.507,5.239
		C7.465,5.345,7.446,5.454,7.446,5.57C7.45,6.52,7.448,7.469,7.45,8.418c0,0.11-0.008,0.206-0.114,0.272
		c-0.033,0.02-0.11,0.052-0.042,0.119c-0.503,0.298-1.005,0.597-1.51,0.893c-0.093,0.054-0.172,0.116-0.22,0.214
		c-0.005-0.09-0.08-0.115-0.143-0.151c-0.374-0.219-0.75-0.437-1.125-0.656c-0.52-0.303-1.04-0.606-1.56-0.911
		C2.64,8.142,2.593,8.135,2.593,8.275c0.004,1.049,0.003,2.097,0.003,3.146c-0.001,0.692-0.002,1.385-0.003,2.077
		C2.587,13.5,2.579,13.501,2.572,13.503z"/>
	<path class="st3" d="M7.294,8.809C7.226,8.742,7.303,8.71,7.335,8.69C7.442,8.624,7.45,8.528,7.45,8.418
		c-0.002-0.949,0-1.898-0.003-2.847c0-0.117,0.018-0.225,0.061-0.332c0.513-0.305,1.025-0.611,1.54-0.913
		c0.442-0.26,0.888-0.515,1.331-0.772c0,1.09-0.001,2.181,0,3.271c0,0.055-0.021,0.118,0.039,0.159
		c-0.034,0.023-0.067,0.049-0.103,0.07C9.308,7.64,8.301,8.224,7.294,8.809z"/>
	<path class="st3" d="M7.294,8.809C7.226,8.742,7.303,8.71,7.335,8.69C7.442,8.624,7.45,8.528,7.45,8.418
		c-0.002-0.949,0-1.898-0.003-2.847c0-0.117,0.018-0.225,0.061-0.332c0.513-0.305,1.025-0.611,1.54-0.913
		c0.442-0.26,0.888-0.515,1.331-0.772c0,1.09-0.001,2.181,0,3.271c0,0.055-0.021,0.118,0.039,0.159
		c-0.034,0.023-0.067,0.049-0.103,0.07C9.308,7.64,8.301,8.224,7.294,8.809z"/>
	<path class="st3" d="M7.294,8.809C7.226,8.742,7.303,8.71,7.335,8.69C7.442,8.624,7.45,8.528,7.45,8.418
		c-0.002-0.949,0-1.898-0.003-2.847c0-0.117,0.018-0.225,0.061-0.332c0.513-0.305,1.025-0.611,1.54-0.913
		c0.442-0.26,0.888-0.515,1.331-0.772c0,1.09-0.001,2.181,0,3.271c0,0.055-0.021,0.118,0.039,0.159
		c-0.034,0.023-0.067,0.049-0.103,0.07C9.308,7.64,8.301,8.224,7.294,8.809z"/>
	<path class="st3" d="M7.294,8.809C7.226,8.742,7.303,8.71,7.335,8.69C7.442,8.624,7.45,8.528,7.45,8.418
		c-0.002-0.949,0-1.898-0.003-2.847c0-0.117,0.018-0.225,0.061-0.332c0.513-0.305,1.025-0.611,1.54-0.913
		c0.442-0.26,0.888-0.515,1.331-0.772c0,1.09-0.001,2.181,0,3.271c0,0.055-0.021,0.118,0.039,0.159
		c-0.034,0.023-0.067,0.049-0.103,0.07C9.308,7.64,8.301,8.224,7.294,8.809z"/>
	<path class="st3" d="M25.495,9.187c0.062-0.061-0.003-0.077-0.038-0.101c-0.132-0.088-0.186-0.201-0.184-0.368
		c0.009-0.828,0.005-1.656,0.004-2.484c0-0.223,0.025-0.449-0.064-0.664c0.557,0.324,1.116,0.646,1.672,0.972
		c0.846,0.495,1.691,0.992,2.539,1.485c0.102,0.059,0.143,0.125,0.143,0.248c-0.004,4.168-0.003,8.336-0.003,12.504
		c0,0.052-0.005,0.104-0.008,0.157c-0.037-0.058-0.02-0.123-0.02-0.184c-0.002-1.451-0.003-2.902-0.004-4.353
		c0.001-2.706,0-5.412,0.004-8.118c0-0.162-0.054-0.127-0.15-0.07c-0.732,0.43-1.467,0.853-2.197,1.284
		c-0.21,0.124-0.437,0.223-0.623,0.387c-0.043-0.068-0.1-0.116-0.17-0.156C26.094,9.548,25.795,9.367,25.495,9.187z"/>
	<path class="st3" d="M25.495,9.187c0.062-0.061-0.003-0.077-0.038-0.101c-0.132-0.088-0.186-0.201-0.184-0.368
		c0.009-0.828,0.005-1.656,0.004-2.484c0-0.223,0.025-0.449-0.064-0.664c0.557,0.324,1.116,0.646,1.672,0.972
		c0.846,0.495,1.691,0.992,2.539,1.485c0.102,0.059,0.143,0.125,0.143,0.248c-0.004,4.168-0.003,8.336-0.003,12.504
		c0,0.052-0.005,0.104-0.008,0.157c-0.037-0.058-0.02-0.123-0.02-0.184c-0.002-1.451-0.003-2.902-0.004-4.353
		c0.001-2.706,0-5.412,0.004-8.118c0-0.162-0.054-0.127-0.15-0.07c-0.732,0.43-1.467,0.853-2.197,1.284
		c-0.21,0.124-0.437,0.223-0.623,0.387c-0.043-0.068-0.1-0.116-0.17-0.156C26.094,9.548,25.795,9.367,25.495,9.187z"/>
	<path class="st3" d="M25.495,9.187c0.062-0.061-0.003-0.077-0.038-0.101c-0.132-0.088-0.186-0.201-0.184-0.368
		c0.009-0.828,0.005-1.656,0.004-2.484c0-0.223,0.025-0.449-0.064-0.664c0.557,0.324,1.116,0.646,1.672,0.972
		c0.846,0.495,1.691,0.992,2.539,1.485c0.102,0.059,0.143,0.125,0.143,0.248c-0.004,4.168-0.003,8.336-0.003,12.504
		c0,0.052-0.005,0.104-0.008,0.157c-0.037-0.058-0.02-0.123-0.02-0.184c-0.002-1.451-0.003-2.902-0.004-4.353
		c0.001-2.706,0-5.412,0.004-8.118c0-0.162-0.054-0.127-0.15-0.07c-0.732,0.43-1.467,0.853-2.197,1.284
		c-0.21,0.124-0.437,0.223-0.623,0.387c-0.043-0.068-0.1-0.116-0.17-0.156C26.094,9.548,25.795,9.367,25.495,9.187z"/>
	<path class="st3" d="M25.495,9.187c0.062-0.061-0.003-0.077-0.038-0.101c-0.132-0.088-0.186-0.201-0.184-0.368
		c0.009-0.828,0.005-1.656,0.004-2.484c0-0.223,0.025-0.449-0.064-0.664c0.557,0.324,1.116,0.646,1.672,0.972
		c0.846,0.495,1.691,0.992,2.539,1.485c0.102,0.059,0.143,0.125,0.143,0.248c-0.004,4.168-0.003,8.336-0.003,12.504
		c0,0.052-0.005,0.104-0.008,0.157c-0.037-0.058-0.02-0.123-0.02-0.184c-0.002-1.451-0.003-2.902-0.004-4.353
		c0.001-2.706,0-5.412,0.004-8.118c0-0.162-0.054-0.127-0.15-0.07c-0.732,0.43-1.467,0.853-2.197,1.284
		c-0.21,0.124-0.437,0.223-0.623,0.387c-0.043-0.068-0.1-0.116-0.17-0.156C26.094,9.548,25.795,9.367,25.495,9.187z"/>
	<path class="st3" d="M10.418,6.984c-0.06-0.041-0.039-0.104-0.039-0.159c-0.001-1.09,0-2.181,0-3.271
		c0.987-0.577,1.974-1.155,2.961-1.732c-0.005,0.036,0.003,0.09-0.017,0.104c-0.144,0.101-0.109,0.249-0.109,0.386
		c-0.001,0.89-0.001,1.781,0,2.671c0,0.177,0.021,0.362-0.208,0.429C12.982,5.419,12.966,5.449,13,5.473
		c-0.061,0.04-0.12,0.082-0.183,0.119C12.017,6.056,11.217,6.52,10.418,6.984z"/>
	<path class="st3" d="M10.418,6.984c-0.06-0.041-0.039-0.104-0.039-0.159c-0.001-1.09,0-2.181,0-3.271
		c0.987-0.577,1.974-1.155,2.961-1.732c-0.005,0.036,0.003,0.09-0.017,0.104c-0.144,0.101-0.109,0.249-0.109,0.386
		c-0.001,0.89-0.001,1.781,0,2.671c0,0.177,0.021,0.362-0.208,0.429C12.982,5.419,12.966,5.449,13,5.473
		c-0.061,0.04-0.12,0.082-0.183,0.119C12.017,6.056,11.217,6.52,10.418,6.984z"/>
	<path class="st3" d="M10.418,6.984c-0.06-0.041-0.039-0.104-0.039-0.159c-0.001-1.09,0-2.181,0-3.271
		c0.987-0.577,1.974-1.155,2.961-1.732c-0.005,0.036,0.003,0.09-0.017,0.104c-0.144,0.101-0.109,0.249-0.109,0.386
		c-0.001,0.89-0.001,1.781,0,2.671c0,0.177,0.021,0.362-0.208,0.429C12.982,5.419,12.966,5.449,13,5.473
		c-0.061,0.04-0.12,0.082-0.183,0.119C12.017,6.056,11.217,6.52,10.418,6.984z"/>
	<path class="st3" d="M10.418,6.984c-0.06-0.041-0.039-0.104-0.039-0.159c-0.001-1.09,0-2.181,0-3.271
		c0.987-0.577,1.974-1.155,2.961-1.732c-0.005,0.036,0.003,0.09-0.017,0.104c-0.144,0.101-0.109,0.249-0.109,0.386
		c-0.001,0.89-0.001,1.781,0,2.671c0,0.177,0.021,0.362-0.208,0.429C12.982,5.419,12.966,5.449,13,5.473
		c-0.061,0.04-0.12,0.082-0.183,0.119C12.017,6.056,11.217,6.52,10.418,6.984z"/>
	<path class="st5" d="M2.572,13.503c0.007-0.001,0.015-0.003,0.023-0.004c0.002,0.893,0.004,1.787,0.005,2.68
		c0,1.648,0,3.297-0.001,4.945c-0.001,0.847-0.002,1.693-0.004,2.54c0,0.068-0.004,0.136-0.007,0.203
		c-0.033-0.029-0.021-0.068-0.021-0.103C2.569,20.343,2.57,16.923,2.572,13.503z"/>
	<path class="st5" d="M2.572,13.503c0.007-0.001,0.015-0.003,0.023-0.004c0.002,0.893,0.004,1.787,0.005,2.68
		c0,1.648,0,3.297-0.001,4.945c-0.001,0.847-0.002,1.693-0.004,2.54c0,0.068-0.004,0.136-0.007,0.203
		c-0.033-0.029-0.021-0.068-0.021-0.103C2.569,20.343,2.57,16.923,2.572,13.503z"/>
	<path class="st5" d="M2.572,13.503c0.007-0.001,0.015-0.003,0.023-0.004c0.002,0.893,0.004,1.787,0.005,2.68
		c0,1.648,0,3.297-0.001,4.945c-0.001,0.847-0.002,1.693-0.004,2.54c0,0.068-0.004,0.136-0.007,0.203
		c-0.033-0.029-0.021-0.068-0.021-0.103C2.569,20.343,2.57,16.923,2.572,13.503z"/>
	<path class="st5" d="M2.572,13.503c0.007-0.001,0.015-0.003,0.023-0.004c0.002,0.893,0.004,1.787,0.005,2.68
		c0,1.648,0,3.297-0.001,4.945c-0.001,0.847-0.002,1.693-0.004,2.54c0,0.068-0.004,0.136-0.007,0.203
		c-0.033-0.029-0.021-0.068-0.021-0.103C2.569,20.343,2.57,16.923,2.572,13.503z"/>
	<path class="st1" d="M26.596,17.091c-0.002-0.057-0.006-0.115-0.006-0.172c0-2.268,0-4.537,0-6.805
		c0-0.079,0.004-0.157-0.025-0.233c0.186-0.165,0.413-0.263,0.623-0.387c0.731-0.431,1.466-0.855,2.197-1.284
		c0.096-0.057,0.15-0.092,0.15,0.07c-0.003,2.706-0.003,5.412-0.004,8.118c-0.556,0.21-1.112,0.421-1.668,0.63
		c-0.298,0.112-0.594,0.23-0.896,0.332c-0.081,0.027-0.149,0.139-0.235,0.083c-0.072-0.046-0.034-0.167-0.089-0.242
		C26.62,17.17,26.642,17.116,26.596,17.091z"/>
	<path class="st1" d="M26.596,17.091c-0.002-0.057-0.006-0.115-0.006-0.172c0-2.268,0-4.537,0-6.805
		c0-0.079,0.004-0.157-0.025-0.233c0.186-0.165,0.413-0.263,0.623-0.387c0.731-0.431,1.466-0.855,2.197-1.284
		c0.096-0.057,0.15-0.092,0.15,0.07c-0.003,2.706-0.003,5.412-0.004,8.118c-0.556,0.21-1.112,0.421-1.668,0.63
		c-0.298,0.112-0.594,0.23-0.896,0.332c-0.081,0.027-0.149,0.139-0.235,0.083c-0.072-0.046-0.034-0.167-0.089-0.242
		C26.62,17.17,26.642,17.116,26.596,17.091z"/>
	<path class="st1" d="M26.596,17.091c-0.002-0.057-0.006-0.115-0.006-0.172c0-2.268,0-4.537,0-6.805
		c0-0.079,0.004-0.157-0.025-0.233c0.186-0.165,0.413-0.263,0.623-0.387c0.731-0.431,1.466-0.855,2.197-1.284
		c0.096-0.057,0.15-0.092,0.15,0.07c-0.003,2.706-0.003,5.412-0.004,8.118c-0.556,0.21-1.112,0.421-1.668,0.63
		c-0.298,0.112-0.594,0.23-0.896,0.332c-0.081,0.027-0.149,0.139-0.235,0.083c-0.072-0.046-0.034-0.167-0.089-0.242
		C26.62,17.17,26.642,17.116,26.596,17.091z"/>
	<path class="st1" d="M26.596,17.091c-0.002-0.057-0.006-0.115-0.006-0.172c0-2.268,0-4.537,0-6.805
		c0-0.079,0.004-0.157-0.025-0.233c0.186-0.165,0.413-0.263,0.623-0.387c0.731-0.431,1.466-0.855,2.197-1.284
		c0.096-0.057,0.15-0.092,0.15,0.07c-0.003,2.706-0.003,5.412-0.004,8.118c-0.556,0.21-1.112,0.421-1.668,0.63
		c-0.298,0.112-0.594,0.23-0.896,0.332c-0.081,0.027-0.149,0.139-0.235,0.083c-0.072-0.046-0.034-0.167-0.089-0.242
		C26.62,17.17,26.642,17.116,26.596,17.091z"/>
	<path class="st2" d="M8.932,15.642c0.002,0.582,0.006,1.165,0.007,1.747c0.001,0.861,0,1.721,0.002,2.582
		c0,0.18,0.105,0.298,0.254,0.299c0.143,0,0.243-0.107,0.259-0.281c0.004-0.042,0.002-0.084,0.002-0.126
		c0-0.719,0.001-1.438,0.001-2.157c0-0.058,0.004-0.115,0.006-0.173c0.057,0.092,0.066,0.194,0.063,0.299
		C9.521,18.057,9.53,18.28,9.587,18.5c0.015,0.057,0.039,0.084,0.093,0.11c0.515,0.241,1.028,0.489,1.542,0.732
		c0.374,0.177,0.751,0.35,1.129,0.527c-0.026-0.162-0.15-0.302-0.085-0.475c0.32,0.718,0.639,1.437,0.962,2.154
		c0.291,0.646,0.595,1.286,0.866,1.942c-0.051,0.047-0.029,0.109-0.03,0.164c-0.002,0.404,0,0.808-0.002,1.212
		c-0.001,0.193-0.057,0.227-0.227,0.147c-0.805-0.378-1.613-0.752-2.417-1.132c-0.691-0.326-1.378-0.659-2.068-0.985
		c-0.458-0.217-0.919-0.426-1.377-0.641c-0.553-0.259-1.099-0.536-1.661-0.773c-0.168-0.071-0.189-0.148-0.188-0.3
		c0.005-1.123,0.002-2.246,0-3.369c0-0.06,0.023-0.127-0.026-0.181c0-1.7-0.001-3.4-0.001-5.1c0-0.011,0.008-0.022,0.028-0.075
		c0,0.096,0,0.148,0,0.199c0,0.892,0,1.784,0.002,2.676c0,0.064-0.02,0.129,0.074,0.166c0.443,0.17,0.866,0.385,1.292,0.592
		c0.399,0.194,0.803,0.375,1.203,0.567c0.081,0.039,0.092,0.013,0.11-0.062c0.046-0.195,0.068-0.39,0.061-0.59
		C8.863,15.879,8.883,15.757,8.932,15.642z"/>
	<path class="st2" d="M10.936,21.437c0.004-0.006,0.008-0.011,0.012-0.016l0.041,0.02c0.004,0.009,0.008,0.018,0.012,0.026
		L10.936,21.437z"/>
	<path class="st2" d="M10.936,21.437c0.004-0.006,0.008-0.011,0.012-0.016l0.041,0.02c0.004,0.009,0.008,0.018,0.012,0.026
		L10.936,21.437z"/>
	<path class="st2" d="M10.936,21.437c0.004-0.006,0.008-0.011,0.012-0.016l0.041,0.02c0.004,0.009,0.008,0.018,0.012,0.026
		L10.936,21.437z"/>
	<path class="st2" d="M8.932,15.642c-0.05,0.116-0.07,0.237-0.065,0.362c0.007,0.2-0.015,0.395-0.061,0.59
		c-0.018,0.075-0.029,0.101-0.11,0.062c-0.4-0.192-0.804-0.373-1.203-0.567c-0.426-0.207-0.849-0.423-1.292-0.592
		c-0.094-0.036-0.074-0.102-0.074-0.166c-0.001-0.892-0.001-1.784-0.002-2.676c0-0.052,0-0.103,0-0.199
		c-0.02,0.054-0.028,0.064-0.028,0.075c0,1.7,0,3.4,0.001,5.1c-0.002,1.386-0.005,2.771-0.007,4.157
		c-0.043-0.05-0.026-0.11-0.026-0.166c0.001-3.755,0.002-7.51,0.004-11.266c0-0.071-0.021-0.15,0.054-0.201
		c0.014,0.037,0.042,0.057,0.075,0.076c0.711,0.413,1.423,0.823,2.131,1.241c0.215,0.127,0.447,0.227,0.636,0.396
		c-0.029,0.075-0.027,0.154-0.027,0.233c0.001,1.118,0.002,2.236,0.002,3.354C8.94,15.516,8.935,15.579,8.932,15.642z"/>
	<path class="st2" d="M8.932,15.642c-0.05,0.116-0.07,0.237-0.065,0.362c0.007,0.2-0.015,0.395-0.061,0.59
		c-0.018,0.075-0.029,0.101-0.11,0.062c-0.4-0.192-0.804-0.373-1.203-0.567c-0.426-0.207-0.849-0.423-1.292-0.592
		c-0.094-0.036-0.074-0.102-0.074-0.166c-0.001-0.892-0.001-1.784-0.002-2.676c0-0.052,0-0.103,0-0.199
		c-0.02,0.054-0.028,0.064-0.028,0.075c0,1.7,0,3.4,0.001,5.1c-0.002,1.386-0.005,2.771-0.007,4.157
		c-0.043-0.05-0.026-0.11-0.026-0.166c0.001-3.755,0.002-7.51,0.004-11.266c0-0.071-0.021-0.15,0.054-0.201
		c0.014,0.037,0.042,0.057,0.075,0.076c0.711,0.413,1.423,0.823,2.131,1.241c0.215,0.127,0.447,0.227,0.636,0.396
		c-0.029,0.075-0.027,0.154-0.027,0.233c0.001,1.118,0.002,2.236,0.002,3.354C8.94,15.516,8.935,15.579,8.932,15.642z"/>
	<path class="st2" d="M8.932,15.642c-0.05,0.116-0.07,0.237-0.065,0.362c0.007,0.2-0.015,0.395-0.061,0.59
		c-0.018,0.075-0.029,0.101-0.11,0.062c-0.4-0.192-0.804-0.373-1.203-0.567c-0.426-0.207-0.849-0.423-1.292-0.592
		c-0.094-0.036-0.074-0.102-0.074-0.166c-0.001-0.892-0.001-1.784-0.002-2.676c0-0.052,0-0.103,0-0.199
		c-0.02,0.054-0.028,0.064-0.028,0.075c0,1.7,0,3.4,0.001,5.1c-0.002,1.386-0.005,2.771-0.007,4.157
		c-0.043-0.05-0.026-0.11-0.026-0.166c0.001-3.755,0.002-7.51,0.004-11.266c0-0.071-0.021-0.15,0.054-0.201
		c0.014,0.037,0.042,0.057,0.075,0.076c0.711,0.413,1.423,0.823,2.131,1.241c0.215,0.127,0.447,0.227,0.636,0.396
		c-0.029,0.075-0.027,0.154-0.027,0.233c0.001,1.118,0.002,2.236,0.002,3.354C8.94,15.516,8.935,15.579,8.932,15.642z"/>
	<path class="st2" d="M8.932,15.642c-0.05,0.116-0.07,0.237-0.065,0.362c0.007,0.2-0.015,0.395-0.061,0.59
		c-0.018,0.075-0.029,0.101-0.11,0.062c-0.4-0.192-0.804-0.373-1.203-0.567c-0.426-0.207-0.849-0.423-1.292-0.592
		c-0.094-0.036-0.074-0.102-0.074-0.166c-0.001-0.892-0.001-1.784-0.002-2.676c0-0.052,0-0.103,0-0.199
		c-0.02,0.054-0.028,0.064-0.028,0.075c0,1.7,0,3.4,0.001,5.1c-0.002,1.386-0.005,2.771-0.007,4.157
		c-0.043-0.05-0.026-0.11-0.026-0.166c0.001-3.755,0.002-7.51,0.004-11.266c0-0.071-0.021-0.15,0.054-0.201
		c0.014,0.037,0.042,0.057,0.075,0.076c0.711,0.413,1.423,0.823,2.131,1.241c0.215,0.127,0.447,0.227,0.636,0.396
		c-0.029,0.075-0.027,0.154-0.027,0.233c0.001,1.118,0.002,2.236,0.002,3.354C8.94,15.516,8.935,15.579,8.932,15.642z"/>
	<path class="st2" d="M2.599,21.124c0-1.648,0-3.297,0.001-4.945c0.047-0.041,0.05-0.099,0.068-0.154
		c0.017-0.053,0.046-0.111,0.125-0.074c0.188,0.088,0.378,0.171,0.565,0.262c0.46,0.224,0.923,0.441,1.39,0.65
		c0.214,0.095,0.419,0.21,0.626,0.319c0.037,0.02,0.038,0.104,0.098,0.077c0.048-0.022,0.023-0.086,0.023-0.13
		c0.002-0.823,0.001-1.647,0.003-2.47c0-0.06-0.024-0.127,0.029-0.179c0,0.483,0.001,0.965,0.001,1.448
		c-0.001,0.966-0.001,1.933-0.002,2.899c-0.052,0.053-0.029,0.119-0.029,0.179c-0.002,0.953-0.002,1.907-0.002,2.86
		c0,0.227-0.006,0.228-0.216,0.128c-0.791-0.376-1.584-0.751-2.377-1.125c-0.179-0.084-0.203-0.07-0.242,0.132
		C2.651,21.048,2.637,21.092,2.599,21.124z"/>
	<path class="st2" d="M2.599,21.124c0-1.648,0-3.297,0.001-4.945c0.047-0.041,0.05-0.099,0.068-0.154
		c0.017-0.053,0.046-0.111,0.125-0.074c0.188,0.088,0.378,0.171,0.565,0.262c0.46,0.224,0.923,0.441,1.39,0.65
		c0.214,0.095,0.419,0.21,0.626,0.319c0.037,0.02,0.038,0.104,0.098,0.077c0.048-0.022,0.023-0.086,0.023-0.13
		c0.002-0.823,0.001-1.647,0.003-2.47c0-0.06-0.024-0.127,0.029-0.179c0,0.483,0.001,0.965,0.001,1.448
		c-0.001,0.966-0.001,1.933-0.002,2.899c-0.052,0.053-0.029,0.119-0.029,0.179c-0.002,0.953-0.002,1.907-0.002,2.86
		c0,0.227-0.006,0.228-0.216,0.128c-0.791-0.376-1.584-0.751-2.377-1.125c-0.179-0.084-0.203-0.07-0.242,0.132
		C2.651,21.048,2.637,21.092,2.599,21.124z"/>
	<path class="st2" d="M2.599,21.124c0-1.648,0-3.297,0.001-4.945c0.047-0.041,0.05-0.099,0.068-0.154
		c0.017-0.053,0.046-0.111,0.125-0.074c0.188,0.088,0.378,0.171,0.565,0.262c0.46,0.224,0.923,0.441,1.39,0.65
		c0.214,0.095,0.419,0.21,0.626,0.319c0.037,0.02,0.038,0.104,0.098,0.077c0.048-0.022,0.023-0.086,0.023-0.13
		c0.002-0.823,0.001-1.647,0.003-2.47c0-0.06-0.024-0.127,0.029-0.179c0,0.483,0.001,0.965,0.001,1.448
		c-0.001,0.966-0.001,1.933-0.002,2.899c-0.052,0.053-0.029,0.119-0.029,0.179c-0.002,0.953-0.002,1.907-0.002,2.86
		c0,0.227-0.006,0.228-0.216,0.128c-0.791-0.376-1.584-0.751-2.377-1.125c-0.179-0.084-0.203-0.07-0.242,0.132
		C2.651,21.048,2.637,21.092,2.599,21.124z"/>
	<path class="st2" d="M2.599,21.124c0-1.648,0-3.297,0.001-4.945c0.047-0.041,0.05-0.099,0.068-0.154
		c0.017-0.053,0.046-0.111,0.125-0.074c0.188,0.088,0.378,0.171,0.565,0.262c0.46,0.224,0.923,0.441,1.39,0.65
		c0.214,0.095,0.419,0.21,0.626,0.319c0.037,0.02,0.038,0.104,0.098,0.077c0.048-0.022,0.023-0.086,0.023-0.13
		c0.002-0.823,0.001-1.647,0.003-2.47c0-0.06-0.024-0.127,0.029-0.179c0,0.483,0.001,0.965,0.001,1.448
		c-0.001,0.966-0.001,1.933-0.002,2.899c-0.052,0.053-0.029,0.119-0.029,0.179c-0.002,0.953-0.002,1.907-0.002,2.86
		c0,0.227-0.006,0.228-0.216,0.128c-0.791-0.376-1.584-0.751-2.377-1.125c-0.179-0.084-0.203-0.07-0.242,0.132
		C2.651,21.048,2.637,21.092,2.599,21.124z"/>
	<path class="st6" d="M5.526,18.826c0.001-0.966,0.001-1.933,0.002-2.899h0.013h0.013C5.556,15.985,5.56,16.042,5.56,16.1
		c0.001,1.921,0.002,3.843,0.002,5.764c0,0.058-0.003,0.115-0.005,0.173c-0.049-0.054-0.026-0.12-0.026-0.18
		C5.527,20.845,5.527,19.835,5.526,18.826z"/>
	<path class="st6" d="M5.526,18.826c0.001-0.966,0.001-1.933,0.002-2.899h0.013h0.013C5.556,15.985,5.56,16.042,5.56,16.1
		c0.001,1.921,0.002,3.843,0.002,5.764c0,0.058-0.003,0.115-0.005,0.173c-0.049-0.054-0.026-0.12-0.026-0.18
		C5.527,20.845,5.527,19.835,5.526,18.826z"/>
	<path class="st6" d="M5.526,18.826c0.001-0.966,0.001-1.933,0.002-2.899h0.013h0.013C5.556,15.985,5.56,16.042,5.56,16.1
		c0.001,1.921,0.002,3.843,0.002,5.764c0,0.058-0.003,0.115-0.005,0.173c-0.049-0.054-0.026-0.12-0.026-0.18
		C5.527,20.845,5.527,19.835,5.526,18.826z"/>
	<path class="st6" d="M5.526,18.826c0.001-0.966,0.001-1.933,0.002-2.899h0.013h0.013C5.556,15.985,5.56,16.042,5.56,16.1
		c0.001,1.921,0.002,3.843,0.002,5.764c0,0.058-0.003,0.115-0.005,0.173c-0.049-0.054-0.026-0.12-0.026-0.18
		C5.527,20.845,5.527,19.835,5.526,18.826z"/>
	<path class="st2" d="M14.1,23.507c0.042,0.05,0.027,0.11,0.027,0.166c0.001,1.135,0.001,2.269,0.001,3.404
		c-0.035-0.025-0.032-0.063-0.032-0.099C14.097,25.82,14.098,24.664,14.1,23.507z"/>
	<path class="st2" d="M14.1,23.507c0.042,0.05,0.027,0.11,0.027,0.166c0.001,1.135,0.001,2.269,0.001,3.404
		c-0.035-0.025-0.032-0.063-0.032-0.099C14.097,25.82,14.098,24.664,14.1,23.507z"/>
	<path class="st2" d="M14.1,23.507c0.042,0.05,0.027,0.11,0.027,0.166c0.001,1.135,0.001,2.269,0.001,3.404
		c-0.035-0.025-0.032-0.063-0.032-0.099C14.097,25.82,14.098,24.664,14.1,23.507z"/>
	<path class="st2" d="M14.1,23.507c0.042,0.05,0.027,0.11,0.027,0.166c0.001,1.135,0.001,2.269,0.001,3.404
		c-0.035-0.025-0.032-0.063-0.032-0.099C14.097,25.82,14.098,24.664,14.1,23.507z"/>
	<path class="st3" d="M23.196,11.897c-0.113-0.25-0.439-0.331-0.592-0.034c-0.097,0.189-0.23,0.359-0.347,0.538
		c-0.013-0.003-0.031-0.014-0.039-0.008c-0.585,0.369-1.196,0.693-1.791,1.046c0.003-0.095,0.095-0.111,0.149-0.148
		c0.144-0.099,0.201-0.22,0.2-0.397c-0.005-1.617-0.001-3.234-0.006-4.851c0-0.146,0.04-0.206,0.184-0.18
		c0.136,0.024,0.271,0.015,0.398-0.036c0.052-0.021-0.012-0.02-0.02-0.031c0.113-0.054,0.238-0.085,0.332-0.172
		c0.038-0.035,0.068-0.031,0.111-0.006c0.605,0.357,1.212,0.713,1.817,1.07c0.021,0.012,0.035,0.037,0.052,0.056
		c-0.191-0.047-0.328-0.198-0.513-0.258c-0.189-0.062-0.215-0.048-0.215,0.155c0,0.9,0.004,1.799-0.004,2.699
		c-0.001,0.155,0.072,0.255,0.168,0.35c0.044,0.043,0.1,0.074,0.15,0.111C23.219,11.833,23.207,11.865,23.196,11.897z"/>
	<path class="st3" d="M23.196,11.897c-0.113-0.25-0.439-0.331-0.592-0.034c-0.097,0.189-0.23,0.359-0.347,0.538
		c-0.013-0.003-0.031-0.014-0.039-0.008c-0.585,0.369-1.196,0.693-1.791,1.046c0.003-0.095,0.095-0.111,0.149-0.148
		c0.144-0.099,0.201-0.22,0.2-0.397c-0.005-1.617-0.001-3.234-0.006-4.851c0-0.146,0.04-0.206,0.184-0.18
		c0.136,0.024,0.271,0.015,0.398-0.036c0.052-0.021-0.012-0.02-0.02-0.031c0.113-0.054,0.238-0.085,0.332-0.172
		c0.038-0.035,0.068-0.031,0.111-0.006c0.605,0.357,1.212,0.713,1.817,1.07c0.021,0.012,0.035,0.037,0.052,0.056
		c-0.191-0.047-0.328-0.198-0.513-0.258c-0.189-0.062-0.215-0.048-0.215,0.155c0,0.9,0.004,1.799-0.004,2.699
		c-0.001,0.155,0.072,0.255,0.168,0.35c0.044,0.043,0.1,0.074,0.15,0.111C23.219,11.833,23.207,11.865,23.196,11.897z"/>
	<path class="st3" d="M23.196,11.897c-0.113-0.25-0.439-0.331-0.592-0.034c-0.097,0.189-0.23,0.359-0.347,0.538
		c-0.013-0.003-0.031-0.014-0.039-0.008c-0.585,0.369-1.196,0.693-1.791,1.046c0.003-0.095,0.095-0.111,0.149-0.148
		c0.144-0.099,0.201-0.22,0.2-0.397c-0.005-1.617-0.001-3.234-0.006-4.851c0-0.146,0.04-0.206,0.184-0.18
		c0.136,0.024,0.271,0.015,0.398-0.036c0.052-0.021-0.012-0.02-0.02-0.031c0.113-0.054,0.238-0.085,0.332-0.172
		c0.038-0.035,0.068-0.031,0.111-0.006c0.605,0.357,1.212,0.713,1.817,1.07c0.021,0.012,0.035,0.037,0.052,0.056
		c-0.191-0.047-0.328-0.198-0.513-0.258c-0.189-0.062-0.215-0.048-0.215,0.155c0,0.9,0.004,1.799-0.004,2.699
		c-0.001,0.155,0.072,0.255,0.168,0.35c0.044,0.043,0.1,0.074,0.15,0.111C23.219,11.833,23.207,11.865,23.196,11.897z"/>
	<path class="st3" d="M23.196,11.897c-0.113-0.25-0.439-0.331-0.592-0.034c-0.097,0.189-0.23,0.359-0.347,0.538
		c-0.013-0.003-0.031-0.014-0.039-0.008c-0.585,0.369-1.196,0.693-1.791,1.046c0.003-0.095,0.095-0.111,0.149-0.148
		c0.144-0.099,0.201-0.22,0.2-0.397c-0.005-1.617-0.001-3.234-0.006-4.851c0-0.146,0.04-0.206,0.184-0.18
		c0.136,0.024,0.271,0.015,0.398-0.036c0.052-0.021-0.012-0.02-0.02-0.031c0.113-0.054,0.238-0.085,0.332-0.172
		c0.038-0.035,0.068-0.031,0.111-0.006c0.605,0.357,1.212,0.713,1.817,1.07c0.021,0.012,0.035,0.037,0.052,0.056
		c-0.191-0.047-0.328-0.198-0.513-0.258c-0.189-0.062-0.215-0.048-0.215,0.155c0,0.9,0.004,1.799-0.004,2.699
		c-0.001,0.155,0.072,0.255,0.168,0.35c0.044,0.043,0.1,0.074,0.15,0.111C23.219,11.833,23.207,11.865,23.196,11.897z"/>
	<path class="st1" d="M20.426,13.438c0.595-0.352,1.206-0.676,1.791-1.046c0.008-0.005,0.026,0.005,0.039,0.008
		c-0.563,0.877-1.126,1.755-1.711,2.666c-0.175-0.467-0.338-0.904-0.502-1.341c0.042-0.113,0.159-0.135,0.241-0.199
		C20.329,13.493,20.379,13.468,20.426,13.438z"/>
	<path class="st1" d="M20.426,13.438c0.595-0.352,1.206-0.676,1.791-1.046c0.008-0.005,0.026,0.005,0.039,0.008
		c-0.563,0.877-1.126,1.755-1.711,2.666c-0.175-0.467-0.338-0.904-0.502-1.341c0.042-0.113,0.159-0.135,0.241-0.199
		C20.329,13.493,20.379,13.468,20.426,13.438z"/>
	<path class="st1" d="M20.426,13.438c0.595-0.352,1.206-0.676,1.791-1.046c0.008-0.005,0.026,0.005,0.039,0.008
		c-0.563,0.877-1.126,1.755-1.711,2.666c-0.175-0.467-0.338-0.904-0.502-1.341c0.042-0.113,0.159-0.135,0.241-0.199
		C20.329,13.493,20.379,13.468,20.426,13.438z"/>
	<path class="st1" d="M20.426,13.438c0.595-0.352,1.206-0.676,1.791-1.046c0.008-0.005,0.026,0.005,0.039,0.008
		c-0.563,0.877-1.126,1.755-1.711,2.666c-0.175-0.467-0.338-0.904-0.502-1.341c0.042-0.113,0.159-0.135,0.241-0.199
		C20.329,13.493,20.379,13.468,20.426,13.438z"/>
	<path class="st7" d="M18.03,8.373c-0.035-0.058-0.019-0.123-0.02-0.185c-0.003-1.106-0.004-2.212-0.005-3.318
		c0.032,0.028,0.028,0.065,0.028,0.102C18.032,6.107,18.031,7.24,18.03,8.373z"/>
	<path class="st7" d="M18.03,8.373c-0.035-0.058-0.019-0.123-0.02-0.185c-0.003-1.106-0.004-2.212-0.005-3.318
		c0.032,0.028,0.028,0.065,0.028,0.102C18.032,6.107,18.031,7.24,18.03,8.373z"/>
	<path class="st7" d="M18.03,8.373c-0.035-0.058-0.019-0.123-0.02-0.185c-0.003-1.106-0.004-2.212-0.005-3.318
		c0.032,0.028,0.028,0.065,0.028,0.102C18.032,6.107,18.031,7.24,18.03,8.373z"/>
	<path class="st7" d="M18.03,8.373c-0.035-0.058-0.019-0.123-0.02-0.185c-0.003-1.106-0.004-2.212-0.005-3.318
		c0.032,0.028,0.028,0.065,0.028,0.102C18.032,6.107,18.031,7.24,18.03,8.373z"/>
	<path class="st2" d="M5.526,14.478c-0.053,0.053-0.029,0.119-0.029,0.179c-0.002,0.823-0.001,1.647-0.003,2.47
		c0,0.044,0.025,0.108-0.023,0.13C5.411,17.285,5.41,17.2,5.373,17.18c-0.208-0.108-0.413-0.223-0.626-0.319
		c-0.467-0.209-0.93-0.426-1.39-0.65C3.17,16.122,2.98,16.038,2.792,15.95c-0.079-0.037-0.108,0.021-0.125,0.074
		c-0.017,0.055-0.02,0.113-0.068,0.154c-0.002-0.893-0.004-1.787-0.005-2.68c0.001-0.692,0.002-1.385,0.003-2.077
		c0.028-0.037,0.069-0.07,0.083-0.112c0.024-0.072,0.055-0.07,0.115-0.043c0.902,0.42,1.805,0.837,2.706,1.285
		c0-0.676,0-1.356,0-2.036c0.009,0,0.017,0,0.026,0C5.526,11.837,5.526,13.157,5.526,14.478z"/>
	<path class="st2" d="M5.526,14.478c-0.053,0.053-0.029,0.119-0.029,0.179c-0.002,0.823-0.001,1.647-0.003,2.47
		c0,0.044,0.025,0.108-0.023,0.13C5.411,17.285,5.41,17.2,5.373,17.18c-0.208-0.108-0.413-0.223-0.626-0.319
		c-0.467-0.209-0.93-0.426-1.39-0.65C3.17,16.122,2.98,16.038,2.792,15.95c-0.079-0.037-0.108,0.021-0.125,0.074
		c-0.017,0.055-0.02,0.113-0.068,0.154c-0.002-0.893-0.004-1.787-0.005-2.68c0.001-0.692,0.002-1.385,0.003-2.077
		c0.028-0.037,0.069-0.07,0.083-0.112c0.024-0.072,0.055-0.07,0.115-0.043c0.902,0.42,1.805,0.837,2.706,1.285
		c0-0.676,0-1.356,0-2.036c0.009,0,0.017,0,0.026,0C5.526,11.837,5.526,13.157,5.526,14.478z"/>
	<path class="st2" d="M5.526,14.478c-0.053,0.053-0.029,0.119-0.029,0.179c-0.002,0.823-0.001,1.647-0.003,2.47
		c0,0.044,0.025,0.108-0.023,0.13C5.411,17.285,5.41,17.2,5.373,17.18c-0.208-0.108-0.413-0.223-0.626-0.319
		c-0.467-0.209-0.93-0.426-1.39-0.65C3.17,16.122,2.98,16.038,2.792,15.95c-0.079-0.037-0.108,0.021-0.125,0.074
		c-0.017,0.055-0.02,0.113-0.068,0.154c-0.002-0.893-0.004-1.787-0.005-2.68c0.001-0.692,0.002-1.385,0.003-2.077
		c0.028-0.037,0.069-0.07,0.083-0.112c0.024-0.072,0.055-0.07,0.115-0.043c0.902,0.42,1.805,0.837,2.706,1.285
		c0-0.676,0-1.356,0-2.036c0.009,0,0.017,0,0.026,0C5.526,11.837,5.526,13.157,5.526,14.478z"/>
	<path class="st2" d="M5.526,14.478c-0.053,0.053-0.029,0.119-0.029,0.179c-0.002,0.823-0.001,1.647-0.003,2.47
		c0,0.044,0.025,0.108-0.023,0.13C5.411,17.285,5.41,17.2,5.373,17.18c-0.208-0.108-0.413-0.223-0.626-0.319
		c-0.467-0.209-0.93-0.426-1.39-0.65C3.17,16.122,2.98,16.038,2.792,15.95c-0.079-0.037-0.108,0.021-0.125,0.074
		c-0.017,0.055-0.02,0.113-0.068,0.154c-0.002-0.893-0.004-1.787-0.005-2.68c0.001-0.692,0.002-1.385,0.003-2.077
		c0.028-0.037,0.069-0.07,0.083-0.112c0.024-0.072,0.055-0.07,0.115-0.043c0.902,0.42,1.805,0.837,2.706,1.285
		c0-0.676,0-1.356,0-2.036c0.009,0,0.017,0,0.026,0C5.526,11.837,5.526,13.157,5.526,14.478z"/>
	<path class="st2" d="M5.526,14.478c0-1.321,0-2.642,0-3.963c-0.009,0-0.017,0-0.026,0c0,0.68,0,1.361,0,2.036
		c-0.901-0.448-1.804-0.865-2.706-1.285c-0.06-0.028-0.091-0.029-0.115,0.043c-0.014,0.042-0.054,0.075-0.083,0.112
		c0-1.049,0.001-2.097-0.003-3.146c0-0.14,0.047-0.133,0.143-0.076c0.519,0.305,1.039,0.607,1.56,0.911
		c0.375,0.219,0.751,0.437,1.126,0.655c0.063,0.036,0.138,0.06,0.143,0.15c-0.002,0.063-0.007,0.126-0.007,0.188
		c0,1.878,0.001,3.756,0.001,5.634c0,0.063-0.004,0.126-0.007,0.188H5.539H5.526C5.527,15.443,5.527,14.961,5.526,14.478z"/>
	<path class="st2" d="M5.526,14.478c0-1.321,0-2.642,0-3.963c-0.009,0-0.017,0-0.026,0c0,0.68,0,1.361,0,2.036
		c-0.901-0.448-1.804-0.865-2.706-1.285c-0.06-0.028-0.091-0.029-0.115,0.043c-0.014,0.042-0.054,0.075-0.083,0.112
		c0-1.049,0.001-2.097-0.003-3.146c0-0.14,0.047-0.133,0.143-0.076c0.519,0.305,1.039,0.607,1.56,0.911
		c0.375,0.219,0.751,0.437,1.126,0.655c0.063,0.036,0.138,0.06,0.143,0.15c-0.002,0.063-0.007,0.126-0.007,0.188
		c0,1.878,0.001,3.756,0.001,5.634c0,0.063-0.004,0.126-0.007,0.188H5.539H5.526C5.527,15.443,5.527,14.961,5.526,14.478z"/>
	<path class="st2" d="M5.526,14.478c0-1.321,0-2.642,0-3.963c-0.009,0-0.017,0-0.026,0c0,0.68,0,1.361,0,2.036
		c-0.901-0.448-1.804-0.865-2.706-1.285c-0.06-0.028-0.091-0.029-0.115,0.043c-0.014,0.042-0.054,0.075-0.083,0.112
		c0-1.049,0.001-2.097-0.003-3.146c0-0.14,0.047-0.133,0.143-0.076c0.519,0.305,1.039,0.607,1.56,0.911
		c0.375,0.219,0.751,0.437,1.126,0.655c0.063,0.036,0.138,0.06,0.143,0.15c-0.002,0.063-0.007,0.126-0.007,0.188
		c0,1.878,0.001,3.756,0.001,5.634c0,0.063-0.004,0.126-0.007,0.188H5.539H5.526C5.527,15.443,5.527,14.961,5.526,14.478z"/>
	<path class="st2" d="M5.526,14.478c0-1.321,0-2.642,0-3.963c-0.009,0-0.017,0-0.026,0c0,0.68,0,1.361,0,2.036
		c-0.901-0.448-1.804-0.865-2.706-1.285c-0.06-0.028-0.091-0.029-0.115,0.043c-0.014,0.042-0.054,0.075-0.083,0.112
		c0-1.049,0.001-2.097-0.003-3.146c0-0.14,0.047-0.133,0.143-0.076c0.02,0.012,0.041,0.024,0.061,0.036
		C3.296,8.528,3.795,8.818,4.296,9.11c0.375,0.219,0.751,0.437,1.126,0.655c0.063,0.036,0.138,0.06,0.143,0.15
		c-0.002,0.063-0.007,0.126-0.007,0.188c0,1.878,0.001,3.756,0.001,5.634c0,0.063-0.004,0.126-0.007,0.188H5.539H5.526
		C5.527,15.443,5.527,14.961,5.526,14.478z"/>
	<path class="st1" d="M22.686,20.019c0.049,0.175,0.15,0.265,0.284,0.25c0.146-0.016,0.225-0.125,0.23-0.315
		c0.001-0.031,0.004-0.062,0.006-0.093c0.049-0.094,0.021-0.195,0.022-0.292c0.004-0.425,0.002-0.849,0.002-1.274
		c0.051,0.204,0.066,0.212,0.266,0.129c0.236-0.098,0.48-0.176,0.717-0.271c0.542-0.216,1.082-0.436,1.634-0.624
		c0.106-0.036,0.166-0.098,0.157-0.22c-0.004-0.054-0.036-0.133,0.061-0.152c0.002,0.105,0.006,0.21,0.006,0.315
		c0.001,1.381-0.002,2.761,0.004,4.142c0.001,0.161-0.052,0.262-0.192,0.343c-3.188,1.862-6.374,3.727-9.561,5.59
		c-0.075,0.044-0.145,0.107-0.243,0.101c0-0.998-0.001-1.995-0.001-2.993c0.001-0.767,0.001-1.533,0.002-2.3
		c0.422-0.147,0.843-0.296,1.254-0.472c0.089-0.038,0.099-0.125,0.101-0.212c0.002-0.07-0.026-0.15,0.057-0.197
		c0.001,0.5,0.002,1.001,0.004,1.501c0,0.055-0.02,0.116,0.026,0.164c0.154,0.225,0.323,0.225,0.482,0
		c0.049-0.054,0.027-0.12,0.028-0.18c0.003-0.968,0.004-1.936,0.005-2.904c0.026,0.068,0.06,0.133,0.078,0.203
		c0.028,0.114,0.082,0.121,0.183,0.078c0.23-0.098,0.466-0.184,0.7-0.273c0.468-0.178,0.936-0.354,1.404-0.532
		c0.663-0.252,1.326-0.506,1.99-0.756c0.163-0.061,0.239-0.16,0.239-0.339c0-0.204,0-0.407,0-0.611
		c0.031,0.052,0.031,0.104,0.031,0.155c0,0.624,0,1.248,0.001,1.873C22.664,19.907,22.646,19.967,22.686,20.019z"/>
	<path class="st1" d="M20.034,21.81l1.132-0.429c0.191,0.251,0.429,0.458,0.698,0.609l-1.829,1.068
		C20.036,23.01,20.034,21.81,20.034,21.81z"/>
	<path class="st1" d="M20.034,21.81l1.132-0.429c0.191,0.251,0.429,0.458,0.698,0.609l-1.829,1.068
		C20.036,23.01,20.034,21.81,20.034,21.81z"/>
	<path class="st1" d="M20.034,21.81l1.132-0.429c0.191,0.251,0.429,0.458,0.698,0.609l-1.829,1.068
		C20.036,23.01,20.034,21.81,20.034,21.81z"/>
	<path class="st3" d="M17.523,23.136c-0.046-0.049-0.026-0.109-0.026-0.164c-0.003-0.5-0.003-1.001-0.004-1.501
		c0.001-0.021,0.003-0.042,0.003-0.063c0-2.043,0-4.087-0.001-6.13c0-0.028,0.016-0.063-0.023-0.085
		c-0.108,0.027-0.196,0.095-0.288,0.152c-0.356,0.218-0.728,0.408-1.073,0.644c-0.295-0.102-0.536-0.301-0.807-0.446
		c-0.21-0.112-0.413-0.238-0.641-0.37c0,0.076,0,0.127,0,0.178c0,0.598,0,1.196-0.002,1.794c0,0.056,0.019,0.116-0.025,0.166
		c-0.002-0.713-0.005-1.426-0.005-2.138c0-2.071,0.001-4.142,0.003-6.213c0-0.147-0.061-0.246-0.204-0.275
		c-0.152-0.031-0.247,0.052-0.304,0.187c-0.051,0.053-0.028,0.12-0.028,0.18c-0.002,1.925-0.002,3.85-0.002,5.775
		c-0.049-0.008-0.093-0.025-0.124-0.066c0.005-0.061-0.012-0.123-0.055-0.158c-0.136-0.111-0.135-0.258-0.135-0.413
		c0.002-2.725,0.001-5.451,0.001-8.176c0-0.042-0.001-0.084,0-0.126c0.004-0.099-0.042-0.119-0.128-0.086
		c-0.06,0.023-0.118,0.082-0.186,0.016c0.468-0.276,0.935-0.553,1.403-0.829c0.339-0.199,0.682-0.392,1.018-0.597
		c0.135-0.082,0.249-0.075,0.38,0.004c0.336,0.203,0.675,0.404,1.018,0.595c0.161,0.089,0.226,0.202,0.226,0.39
		c-0.005,3.174-0.016,6.349,0,9.523C17.525,17.649,17.509,20.392,17.523,23.136z"/>
	<path class="st3" d="M17.523,23.136c-0.046-0.049-0.026-0.109-0.026-0.164c-0.003-0.5-0.003-1.001-0.004-1.501
		c0.001-0.021,0.003-0.042,0.003-0.063c0-2.043,0-4.087-0.001-6.13c0-0.028,0.016-0.063-0.023-0.085
		c-0.108,0.027-0.196,0.095-0.288,0.152c-0.356,0.218-0.728,0.408-1.073,0.644c-0.295-0.102-0.536-0.301-0.807-0.446
		c-0.21-0.112-0.413-0.238-0.641-0.37c0,0.076,0,0.127,0,0.178c0,0.598,0,1.196-0.002,1.794c0,0.056,0.019,0.116-0.025,0.166
		c-0.002-0.713-0.005-1.426-0.005-2.138c0-2.071,0.001-4.142,0.003-6.213c0-0.147-0.061-0.246-0.204-0.275
		c-0.152-0.031-0.247,0.052-0.304,0.187c-0.051,0.053-0.028,0.12-0.028,0.18c-0.002,1.925-0.002,3.85-0.002,5.775
		c-0.049-0.008-0.093-0.025-0.124-0.066c0.005-0.061-0.012-0.123-0.055-0.158c-0.136-0.111-0.135-0.258-0.135-0.413
		c0.002-2.725,0.001-5.451,0.001-8.176c0-0.042-0.001-0.084,0-0.126c0.004-0.099-0.042-0.119-0.128-0.086
		c-0.06,0.023-0.118,0.082-0.186,0.016c0.468-0.276,0.935-0.553,1.403-0.829c0.339-0.199,0.682-0.392,1.018-0.597
		c0.135-0.082,0.249-0.075,0.38,0.004c0.336,0.203,0.675,0.404,1.018,0.595c0.161,0.089,0.226,0.202,0.226,0.39
		c-0.005,3.174-0.016,6.349,0,9.523C17.525,17.649,17.509,20.392,17.523,23.136z"/>
	<path class="st3" d="M17.523,23.136c-0.046-0.049-0.026-0.109-0.026-0.164c-0.003-0.5-0.003-1.001-0.004-1.501
		c0.001-0.021,0.003-0.042,0.003-0.063c0-2.043,0-4.087-0.001-6.13c0-0.028,0.016-0.063-0.023-0.085
		c-0.108,0.027-0.196,0.095-0.288,0.152c-0.356,0.218-0.728,0.408-1.073,0.644c-0.295-0.102-0.536-0.301-0.807-0.446
		c-0.21-0.112-0.413-0.238-0.641-0.37c0,0.076,0,0.127,0,0.178c0,0.598,0,1.196-0.002,1.794c0,0.056,0.019,0.116-0.025,0.166
		c-0.002-0.713-0.005-1.426-0.005-2.138c0-2.071,0.001-4.142,0.003-6.213c0-0.147-0.061-0.246-0.204-0.275
		c-0.152-0.031-0.247,0.052-0.304,0.187c-0.051,0.053-0.028,0.12-0.028,0.18c-0.002,1.925-0.002,3.85-0.002,5.775
		c-0.049-0.008-0.093-0.025-0.124-0.066c0.005-0.061-0.012-0.123-0.055-0.158c-0.136-0.111-0.135-0.258-0.135-0.413
		c0.002-2.725,0.001-5.451,0.001-8.176c0-0.042-0.001-0.084,0-0.126c0.004-0.099-0.042-0.119-0.128-0.086
		c-0.06,0.023-0.118,0.082-0.186,0.016c0.468-0.276,0.935-0.553,1.403-0.829c0.339-0.199,0.682-0.392,1.018-0.597
		c0.135-0.082,0.249-0.075,0.38,0.004c0.336,0.203,0.675,0.404,1.018,0.595c0.161,0.089,0.226,0.202,0.226,0.39
		c-0.005,3.174-0.016,6.349,0,9.523C17.525,17.649,17.509,20.392,17.523,23.136z"/>
	<path class="st3" d="M17.523,23.136c-0.046-0.049-0.026-0.109-0.026-0.164c-0.003-0.5-0.003-1.001-0.004-1.501
		c0.001-0.021,0.003-0.042,0.003-0.063c0-2.043,0-4.087-0.001-6.13c0-0.028,0.016-0.063-0.023-0.085
		c-0.108,0.027-0.196,0.095-0.288,0.152c-0.356,0.218-0.728,0.408-1.073,0.644c-0.295-0.102-0.536-0.301-0.807-0.446
		c-0.21-0.112-0.413-0.238-0.641-0.37c0,0.076,0,0.127,0,0.178c0,0.598,0,1.196-0.002,1.794c0,0.056,0.019,0.116-0.025,0.166
		c-0.002-0.713-0.005-1.426-0.005-2.138c0-2.071,0.001-4.142,0.003-6.213c0-0.147-0.061-0.246-0.204-0.275
		c-0.152-0.031-0.247,0.052-0.304,0.187c-0.051,0.053-0.028,0.12-0.028,0.18c-0.002,1.925-0.002,3.85-0.002,5.775
		c-0.049-0.008-0.093-0.025-0.124-0.066c0.005-0.061-0.012-0.123-0.055-0.158c-0.136-0.111-0.135-0.258-0.135-0.413
		c0.002-2.725,0.001-5.451,0.001-8.176c0-0.042-0.001-0.084,0-0.126c0.004-0.099-0.042-0.119-0.128-0.086
		c-0.06,0.023-0.118,0.082-0.186,0.016c0.468-0.276,0.935-0.553,1.403-0.829c0.339-0.199,0.682-0.392,1.018-0.597
		c0.135-0.082,0.249-0.075,0.38,0.004c0.336,0.203,0.675,0.404,1.018,0.595c0.161,0.089,0.226,0.202,0.226,0.39
		c-0.005,3.174-0.016,6.349,0,9.523C17.525,17.649,17.509,20.392,17.523,23.136z"/>
	<path class="st8" d="M26.065,17.155c-0.097,0.019-0.064,0.099-0.061,0.152c0.009,0.122-0.052,0.184-0.157,0.22
		c-0.552,0.188-1.092,0.409-1.634,0.624c-0.237,0.094-0.481,0.172-0.717,0.271c-0.2,0.083-0.216,0.075-0.266-0.129
		c0,0.425,0.002,0.849-0.002,1.274c-0.001,0.097,0.027,0.198-0.022,0.292c-0.002-0.063-0.007-0.126-0.007-0.188
		c0-2.529,0-5.058,0-7.587c0-0.063-0.002-0.126-0.004-0.189c0.011-0.032,0.023-0.065,0.034-0.097c0.398-0.23,0.796-0.46,1.193-0.692
		c0.538-0.314,1.074-0.631,1.611-0.947c0.046,0.04,0.037,0.095,0.037,0.147c0,2.261,0,4.523,0,6.784
		C26.071,17.114,26.067,17.134,26.065,17.155z"/>
	<path class="st8" d="M26.065,17.155c-0.097,0.019-0.064,0.099-0.061,0.152c0.009,0.122-0.052,0.184-0.157,0.22
		c-0.552,0.188-1.092,0.409-1.634,0.624c-0.237,0.094-0.481,0.172-0.717,0.271c-0.2,0.083-0.216,0.075-0.266-0.129
		c0,0.425,0.002,0.849-0.002,1.274c-0.001,0.097,0.027,0.198-0.022,0.292c-0.002-0.063-0.007-0.126-0.007-0.188
		c0-2.529,0-5.058,0-7.587c0-0.063-0.002-0.126-0.004-0.189c0.011-0.032,0.023-0.065,0.034-0.097c0.398-0.23,0.796-0.46,1.193-0.692
		c0.538-0.314,1.074-0.631,1.611-0.947c0.046,0.04,0.037,0.095,0.037,0.147c0,2.261,0,4.523,0,6.784
		C26.071,17.114,26.067,17.134,26.065,17.155z"/>
	<path class="st8" d="M26.065,17.155c-0.097,0.019-0.064,0.099-0.061,0.152c0.009,0.122-0.052,0.184-0.157,0.22
		c-0.552,0.188-1.092,0.409-1.634,0.624c-0.237,0.094-0.481,0.172-0.717,0.271c-0.2,0.083-0.216,0.075-0.266-0.129
		c0,0.425,0.002,0.849-0.002,1.274c-0.001,0.097,0.027,0.198-0.022,0.292c-0.002-0.063-0.007-0.126-0.007-0.188
		c0-2.529,0-5.058,0-7.587c0-0.063-0.002-0.126-0.004-0.189c0.011-0.032,0.023-0.065,0.034-0.097c0.398-0.23,0.796-0.46,1.193-0.692
		c0.538-0.314,1.074-0.631,1.611-0.947c0.046,0.04,0.037,0.095,0.037,0.147c0,2.261,0,4.523,0,6.784
		C26.071,17.114,26.067,17.134,26.065,17.155z"/>
	<path class="st8" d="M26.065,17.155c-0.097,0.019-0.064,0.099-0.061,0.152c0.009,0.122-0.052,0.184-0.157,0.22
		c-0.552,0.188-1.092,0.409-1.634,0.624c-0.237,0.094-0.481,0.172-0.717,0.271c-0.2,0.083-0.216,0.075-0.266-0.129
		c0,0.425,0.002,0.849-0.002,1.274c-0.001,0.097,0.027,0.198-0.022,0.292c-0.002-0.063-0.007-0.126-0.007-0.188
		c0-2.529,0-5.058,0-7.587c0-0.063-0.002-0.126-0.004-0.189c0.011-0.032,0.023-0.065,0.034-0.097c0.398-0.23,0.796-0.46,1.193-0.692
		c0.538-0.314,1.074-0.631,1.611-0.947c0.046,0.04,0.037,0.095,0.037,0.147c0,2.261,0,4.523,0,6.784
		C26.071,17.114,26.067,17.134,26.065,17.155z"/>
	<path class="st2" d="M13.969,14.761c0.031,0.041,0.076,0.057,0.124,0.066c0.001,0.427,0.002,0.854,0.005,1.281
		c0,0.055-0.018,0.115,0.025,0.165c0.002,1.837,0.004,3.674,0.005,5.512c0,0.073-0.004,0.147-0.007,0.22
		c-0.046-0.055-0.025-0.121-0.025-0.182c-0.002-1.626-0.002-3.253-0.003-4.879c0-0.054,0.016-0.111-0.03-0.191
		c0,0.521,0,1.013,0,1.505c0,0.236-0.066,0.278-0.274,0.179c-0.416-0.198-0.833-0.394-1.248-0.593
		c-0.179-0.086-0.352-0.18-0.461-0.361c-0.03-0.049-0.025,0.014-0.036,0.026c-0.225-0.495-0.451-0.99-0.673-1.486
		c-0.554-1.238-1.105-2.476-1.658-3.715c0.027-0.031,0.044-0.003,0.065,0.009c0.41,0.238,0.82,0.475,1.229,0.713
		c0.319,0.188,0.637,0.378,0.957,0.564C12.633,13.983,13.301,14.372,13.969,14.761z"/>
	<path class="st2" d="M13.969,14.761c0.031,0.041,0.076,0.057,0.124,0.066c0.001,0.427,0.002,0.854,0.005,1.281
		c0,0.055-0.018,0.115,0.025,0.165c0.002,1.837,0.004,3.674,0.005,5.512c0,0.073-0.004,0.147-0.007,0.22
		c-0.046-0.055-0.025-0.121-0.025-0.182c-0.002-1.626-0.002-3.253-0.003-4.879c0-0.054,0.016-0.111-0.03-0.191
		c0,0.521,0,1.013,0,1.505c0,0.236-0.066,0.278-0.274,0.179c-0.416-0.198-0.833-0.394-1.248-0.593
		c-0.179-0.086-0.352-0.18-0.461-0.361c-0.03-0.049-0.025,0.014-0.036,0.026c-0.225-0.495-0.451-0.99-0.673-1.486
		c-0.554-1.238-1.105-2.476-1.658-3.715c0.027-0.031,0.044-0.003,0.065,0.009c0.41,0.238,0.82,0.475,1.229,0.713
		c0.319,0.188,0.637,0.378,0.957,0.564C12.633,13.983,13.301,14.372,13.969,14.761z"/>
	<path class="st2" d="M13.969,14.761c0.031,0.041,0.076,0.057,0.124,0.066c0.001,0.427,0.002,0.854,0.005,1.281
		c0,0.055-0.018,0.115,0.025,0.165c0.002,1.837,0.004,3.674,0.005,5.512c0,0.073-0.004,0.147-0.007,0.22
		c-0.046-0.055-0.025-0.121-0.025-0.182c-0.002-1.626-0.002-3.253-0.003-4.879c0-0.054,0.016-0.111-0.03-0.191
		c0,0.521,0,1.013,0,1.505c0,0.236-0.066,0.278-0.274,0.179c-0.416-0.198-0.833-0.394-1.248-0.593
		c-0.179-0.086-0.352-0.18-0.461-0.361c-0.03-0.049-0.025,0.014-0.036,0.026c-0.225-0.495-0.451-0.99-0.673-1.486
		c-0.554-1.238-1.105-2.476-1.658-3.715c0.027-0.031,0.044-0.003,0.065,0.009c0.41,0.238,0.82,0.475,1.229,0.713
		c0.319,0.188,0.637,0.378,0.957,0.564C12.633,13.983,13.301,14.372,13.969,14.761z"/>
	<path class="st2" d="M13.969,14.761c0.031,0.041,0.076,0.057,0.124,0.066c0.001,0.427,0.002,0.854,0.005,1.281
		c0,0.055-0.018,0.115,0.025,0.165c0.002,1.837,0.004,3.674,0.005,5.512c0,0.073-0.004,0.147-0.007,0.22
		c-0.046-0.055-0.025-0.121-0.025-0.182c-0.002-1.626-0.002-3.253-0.003-4.879c0-0.054,0.016-0.111-0.03-0.191
		c0,0.521,0,1.013,0,1.505c0,0.236-0.066,0.278-0.274,0.179c-0.416-0.198-0.833-0.394-1.248-0.593
		c-0.179-0.086-0.352-0.18-0.461-0.361c-0.03-0.049-0.025,0.014-0.036,0.026c-0.225-0.495-0.451-0.99-0.673-1.486
		c-0.554-1.238-1.105-2.476-1.658-3.715c0.027-0.031,0.044-0.003,0.065,0.009c0.41,0.238,0.82,0.475,1.229,0.713
		c0.319,0.188,0.637,0.378,0.957,0.564C12.633,13.983,13.301,14.372,13.969,14.761z"/>
	<path class="st3" d="M11.008,13.029c-0.41-0.238-0.82-0.475-1.229-0.713c-0.021-0.012-0.038-0.04-0.065-0.009
		c-0.018-0.044-0.036-0.087-0.054-0.131c0.009-0.179-0.097-0.31-0.19-0.446c-0.016-0.023-0.044-0.023-0.065,0.002
		c-0.223-0.067-0.31-0.04-0.439,0.136c-0.189-0.169-0.421-0.269-0.636-0.396c-0.708-0.418-1.42-0.829-2.131-1.241
		c-0.033-0.019-0.062-0.039-0.075-0.076c0.013-0.066,0.071-0.086,0.12-0.115c0.939-0.554,1.878-1.11,2.823-1.654
		C9.335,8.231,9.611,8.09,9.872,7.923c0.071,0.033,0.114-0.027,0.164-0.053c0.139-0.072,0.261-0.179,0.416-0.214
		c0.104-0.023,0.194-0.054,0.24-0.169c0.049,0.075,0.03,0.139,0.03,0.198c0.001,1.609,0.003,3.218-0.002,4.828
		c-0.001,0.175,0.047,0.305,0.2,0.394C10.967,12.934,11.007,12.968,11.008,13.029z"/>
	<path class="st3" d="M11.008,13.029c-0.41-0.238-0.82-0.475-1.229-0.713c-0.021-0.012-0.038-0.04-0.065-0.009
		c-0.018-0.044-0.036-0.087-0.054-0.131c0.009-0.179-0.097-0.31-0.19-0.446c-0.016-0.023-0.044-0.023-0.065,0.002
		c-0.223-0.067-0.31-0.04-0.439,0.136c-0.189-0.169-0.421-0.269-0.636-0.396c-0.708-0.418-1.42-0.829-2.131-1.241
		c-0.033-0.019-0.062-0.039-0.075-0.076c0.013-0.066,0.071-0.086,0.12-0.115c0.939-0.554,1.878-1.11,2.823-1.654
		C9.335,8.231,9.611,8.09,9.872,7.923c0.071,0.033,0.114-0.027,0.164-0.053c0.139-0.072,0.261-0.179,0.416-0.214
		c0.104-0.023,0.194-0.054,0.24-0.169c0.049,0.075,0.03,0.139,0.03,0.198c0.001,1.609,0.003,3.218-0.002,4.828
		c-0.001,0.175,0.047,0.305,0.2,0.394C10.967,12.934,11.007,12.968,11.008,13.029z"/>
	<path class="st3" d="M11.008,13.029c-0.41-0.238-0.82-0.475-1.229-0.713c-0.021-0.012-0.038-0.04-0.065-0.009
		c-0.018-0.044-0.036-0.087-0.054-0.131c0.009-0.179-0.097-0.31-0.19-0.446c-0.016-0.023-0.044-0.023-0.065,0.002
		c-0.223-0.067-0.31-0.04-0.439,0.136c-0.189-0.169-0.421-0.269-0.636-0.396c-0.708-0.418-1.42-0.829-2.131-1.241
		c-0.033-0.019-0.062-0.039-0.075-0.076c0.013-0.066,0.071-0.086,0.12-0.115c0.939-0.554,1.878-1.11,2.823-1.654
		C9.335,8.231,9.611,8.09,9.872,7.923c0.071,0.033,0.114-0.027,0.164-0.053c0.139-0.072,0.261-0.179,0.416-0.214
		c0.104-0.023,0.194-0.054,0.24-0.169c0.049,0.075,0.03,0.139,0.03,0.198c0.001,1.609,0.003,3.218-0.002,4.828
		c-0.001,0.175,0.047,0.305,0.2,0.394C10.967,12.934,11.007,12.968,11.008,13.029z"/>
	<path class="st3" d="M11.008,13.029c-0.41-0.238-0.82-0.475-1.229-0.713c-0.021-0.012-0.038-0.04-0.065-0.009
		c-0.018-0.044-0.036-0.087-0.054-0.131c0.009-0.179-0.097-0.31-0.19-0.446c-0.016-0.023-0.044-0.023-0.065,0.002
		c-0.223-0.067-0.31-0.04-0.439,0.136c-0.189-0.169-0.421-0.269-0.636-0.396c-0.708-0.418-1.42-0.829-2.131-1.241
		c-0.033-0.019-0.062-0.039-0.075-0.076c0.013-0.066,0.071-0.086,0.12-0.115c0.939-0.554,1.878-1.11,2.823-1.654
		C9.335,8.231,9.611,8.09,9.872,7.923c0.071,0.033,0.114-0.027,0.164-0.053c0.139-0.072,0.261-0.179,0.416-0.214
		c0.104-0.023,0.194-0.054,0.24-0.169c0.049,0.075,0.03,0.139,0.03,0.198c0.001,1.609,0.003,3.218-0.002,4.828
		c-0.001,0.175,0.047,0.305,0.2,0.394C10.967,12.934,11.007,12.968,11.008,13.029z"/>
	<path class="st2" d="M12.266,19.392c-0.066,0.174,0.059,0.313,0.085,0.475c-0.378-0.176-0.754-0.35-1.129-0.527
		c-0.514-0.243-1.027-0.49-1.542-0.732c-0.054-0.025-0.079-0.052-0.093-0.11c-0.057-0.22-0.066-0.443-0.06-0.667
		c0.003-0.105-0.006-0.207-0.063-0.299c-0.002-0.168-0.007-0.336-0.007-0.503c-0.001-1.291,0-2.582,0-3.894
		c0.076,0.056,0.082,0.132,0.109,0.191c0.898,2.006,1.795,4.012,2.691,6.019C12.263,19.36,12.263,19.377,12.266,19.392z"/>
	<path class="st2" d="M12.266,19.392c-0.066,0.174,0.059,0.313,0.085,0.475c-0.378-0.176-0.754-0.35-1.129-0.527
		c-0.514-0.243-1.027-0.49-1.542-0.732c-0.054-0.025-0.079-0.052-0.093-0.11c-0.057-0.22-0.066-0.443-0.06-0.667
		c0.003-0.105-0.006-0.207-0.063-0.299c-0.002-0.168-0.007-0.336-0.007-0.503c-0.001-1.291,0-2.582,0-3.894
		c0.076,0.056,0.082,0.132,0.109,0.191c0.898,2.006,1.795,4.012,2.691,6.019C12.263,19.36,12.263,19.377,12.266,19.392z"/>
	<path class="st2" d="M12.266,19.392c-0.066,0.174,0.059,0.313,0.085,0.475c-0.378-0.176-0.754-0.35-1.129-0.527
		c-0.514-0.243-1.027-0.49-1.542-0.732c-0.054-0.025-0.079-0.052-0.093-0.11c-0.057-0.22-0.066-0.443-0.06-0.667
		c0.003-0.105-0.006-0.207-0.063-0.299c-0.002-0.168-0.007-0.336-0.007-0.503c-0.001-1.291,0-2.582,0-3.894
		c0.076,0.056,0.082,0.132,0.109,0.191c0.898,2.006,1.795,4.012,2.691,6.019C12.263,19.36,12.263,19.377,12.266,19.392z"/>
	<path class="st2" d="M12.266,19.392c-0.066,0.174,0.059,0.313,0.085,0.475c-0.378-0.176-0.754-0.35-1.129-0.527
		c-0.514-0.243-1.027-0.49-1.542-0.732c-0.054-0.025-0.079-0.052-0.093-0.11c-0.057-0.22-0.066-0.443-0.06-0.667
		c0.003-0.105-0.006-0.207-0.063-0.299c-0.002-0.168-0.007-0.336-0.007-0.503c-0.001-1.291,0-2.582,0-3.894
		c0.076,0.056,0.082,0.132,0.109,0.191c0.898,2.006,1.795,4.012,2.691,6.019C12.263,19.36,12.263,19.377,12.266,19.392z"/>
	<path class="st3" d="M26.034,10.162c-0.537,0.316-1.073,0.632-1.611,0.947c-0.397,0.232-0.795,0.461-1.193,0.692
		c-0.051-0.037-0.107-0.068-0.15-0.111c-0.097-0.095-0.17-0.195-0.168-0.35c0.008-0.9,0.004-1.799,0.004-2.699
		c0-0.203,0.026-0.217,0.215-0.155c0.185,0.061,0.323,0.212,0.513,0.258c0.226,0.073,0.415,0.216,0.617,0.333
		c0.544,0.313,1.084,0.634,1.626,0.951C25.945,10.062,26.005,10.095,26.034,10.162z"/>
	<path class="st3" d="M26.034,10.162c-0.537,0.316-1.073,0.632-1.611,0.947c-0.397,0.232-0.795,0.461-1.193,0.692
		c-0.051-0.037-0.107-0.068-0.15-0.111c-0.097-0.095-0.17-0.195-0.168-0.35c0.008-0.9,0.004-1.799,0.004-2.699
		c0-0.203,0.026-0.217,0.215-0.155c0.185,0.061,0.323,0.212,0.513,0.258c0.226,0.073,0.415,0.216,0.617,0.333
		c0.544,0.313,1.084,0.634,1.626,0.951C25.945,10.062,26.005,10.095,26.034,10.162z"/>
	<path class="st3" d="M26.034,10.162c-0.537,0.316-1.073,0.632-1.611,0.947c-0.397,0.232-0.795,0.461-1.193,0.692
		c-0.051-0.037-0.107-0.068-0.15-0.111c-0.097-0.095-0.17-0.195-0.168-0.35c0.008-0.9,0.004-1.799,0.004-2.699
		c0-0.203,0.026-0.217,0.215-0.155c0.185,0.061,0.323,0.212,0.513,0.258c0.226,0.073,0.415,0.216,0.617,0.333
		c0.544,0.313,1.084,0.634,1.626,0.951C25.945,10.062,26.005,10.095,26.034,10.162z"/>
	<path class="st3" d="M26.034,10.162c-0.537,0.316-1.073,0.632-1.611,0.947c-0.397,0.232-0.795,0.461-1.193,0.692
		c-0.051-0.037-0.107-0.068-0.15-0.111c-0.097-0.095-0.17-0.195-0.168-0.35c0.008-0.9,0.004-1.799,0.004-2.699
		c0-0.203,0.026-0.217,0.215-0.155c0.185,0.061,0.323,0.212,0.513,0.258c0.226,0.073,0.415,0.216,0.617,0.333
		c0.544,0.313,1.084,0.634,1.626,0.951C25.945,10.062,26.005,10.095,26.034,10.162z"/>
	<path class="st2" d="M16.078,24.653c0,0.998,0.001,1.995,0.001,2.993c-0.075,0.017-0.131-0.028-0.189-0.061
		c-0.367-0.213-0.732-0.427-1.098-0.641c-0.059-0.035-0.115-0.073-0.134-0.145c0.001-1.408,0.002-2.817,0.003-4.225
		c0-0.063,0-0.126,0.001-0.189c0.044,0.036,0.03,0.086,0.03,0.132c0.001,0.22-0.01,0.441,0.004,0.661
		c0.012,0.18,0.026,0.37,0.233,0.46c0.287,0.125,0.57,0.261,0.857,0.385c0.258,0.112,0.258,0.109,0.262,0.402
		C16.051,24.501,16.02,24.583,16.078,24.653z"/>
	<path class="st2" d="M16.078,24.653c0,0.998,0.001,1.995,0.001,2.993c-0.075,0.017-0.131-0.028-0.189-0.061
		c-0.367-0.213-0.732-0.427-1.098-0.641c-0.059-0.035-0.115-0.073-0.134-0.145c0.001-1.408,0.002-2.817,0.003-4.225
		c0-0.063,0-0.126,0.001-0.189c0.044,0.036,0.03,0.086,0.03,0.132c0.001,0.22-0.01,0.441,0.004,0.661
		c0.012,0.18,0.026,0.37,0.233,0.46c0.287,0.125,0.57,0.261,0.857,0.385c0.258,0.112,0.258,0.109,0.262,0.402
		C16.051,24.501,16.02,24.583,16.078,24.653z"/>
	<path class="st2" d="M16.078,24.653c0,0.998,0.001,1.995,0.001,2.993c-0.075,0.017-0.131-0.028-0.189-0.061
		c-0.367-0.213-0.732-0.427-1.098-0.641c-0.059-0.035-0.115-0.073-0.134-0.145c0.001-1.408,0.002-2.817,0.003-4.225
		c0-0.063,0-0.126,0.001-0.189c0.044,0.036,0.03,0.086,0.03,0.132c0.001,0.22-0.01,0.441,0.004,0.661
		c0.012,0.18,0.026,0.37,0.233,0.46c0.287,0.125,0.57,0.261,0.857,0.385c0.258,0.112,0.258,0.109,0.262,0.402
		C16.051,24.501,16.02,24.583,16.078,24.653z"/>
	<path class="st2" d="M16.078,24.653c0,0.998,0.001,1.995,0.001,2.993c-0.075,0.017-0.131-0.028-0.189-0.061
		c-0.367-0.213-0.732-0.427-1.098-0.641c-0.059-0.035-0.115-0.073-0.134-0.145c0.001-1.408,0.002-2.817,0.003-4.225
		c0-0.063,0-0.126,0.001-0.189c0.044,0.036,0.03,0.086,0.03,0.132c0.001,0.22-0.01,0.441,0.004,0.661
		c0.012,0.18,0.026,0.37,0.233,0.46c0.287,0.125,0.57,0.261,0.857,0.385c0.258,0.112,0.258,0.109,0.262,0.402
		C16.051,24.501,16.02,24.583,16.078,24.653z"/>
	<path class="st2" d="M14.662,22.385c0,0.063,0,0.126-0.001,0.189c-0.009,0-0.017,0-0.026-0.001
		c-0.002-0.042-0.007-0.083-0.007-0.125c0-1.675,0.001-3.351,0.001-5.026c0-0.037,0.003-0.073,0.004-0.11
		c0.044-0.05,0.025-0.11,0.025-0.166c0.002-0.598,0.001-1.196,0.002-1.794c0-0.051,0-0.101,0-0.178
		c0.228,0.132,0.431,0.258,0.641,0.37c0.271,0.145,0.513,0.344,0.807,0.446c0.077,0.07,0.072,0.156,0.051,0.246
		c-0.018,0.076-0.048,0.153-0.047,0.229c0.007,0.414-0.042,0.826-0.039,1.24c0.002,0.302-0.018,0.606-0.034,0.909
		c-0.007,0.131,0.004,0.273-0.055,0.4c-0.341-0.17-0.681-0.341-1.033-0.486c-0.133-0.055-0.208-0.146-0.233-0.302
		c-0.033-0.207-0.011-0.416-0.057-0.621C14.662,19.198,14.662,20.791,14.662,22.385z"/>
	<path class="st2" d="M14.662,22.385c0,0.063,0,0.126-0.001,0.189c-0.009,0-0.017,0-0.026-0.001
		c-0.002-0.042-0.007-0.083-0.007-0.125c0-1.675,0.001-3.351,0.001-5.026c0-0.037,0.003-0.073,0.004-0.11
		c0.044-0.05,0.025-0.11,0.025-0.166c0.002-0.598,0.001-1.196,0.002-1.794c0-0.051,0-0.101,0-0.178
		c0.228,0.132,0.431,0.258,0.641,0.37c0.271,0.145,0.513,0.344,0.807,0.446c0.077,0.07,0.072,0.156,0.051,0.246
		c-0.018,0.076-0.048,0.153-0.047,0.229c0.007,0.414-0.042,0.826-0.039,1.24c0.002,0.302-0.018,0.606-0.034,0.909
		c-0.007,0.131,0.004,0.273-0.055,0.4c-0.341-0.17-0.681-0.341-1.033-0.486c-0.133-0.055-0.208-0.146-0.233-0.302
		c-0.033-0.207-0.011-0.416-0.057-0.621C14.662,19.198,14.662,20.791,14.662,22.385z"/>
	<path class="st2" d="M14.662,22.385c0,0.063,0,0.126-0.001,0.189c-0.009,0-0.017,0-0.026-0.001
		c-0.002-0.042-0.007-0.083-0.007-0.125c0-1.675,0.001-3.351,0.001-5.026c0-0.037,0.003-0.073,0.004-0.11
		c0.044-0.05,0.025-0.11,0.025-0.166c0.002-0.598,0.001-1.196,0.002-1.794c0-0.051,0-0.101,0-0.178
		c0.228,0.132,0.431,0.258,0.641,0.37c0.271,0.145,0.513,0.344,0.807,0.446c0.077,0.07,0.072,0.156,0.051,0.246
		c-0.018,0.076-0.048,0.153-0.047,0.229c0.007,0.414-0.042,0.826-0.039,1.24c0.002,0.302-0.018,0.606-0.034,0.909
		c-0.007,0.131,0.004,0.273-0.055,0.4c-0.341-0.17-0.681-0.341-1.033-0.486c-0.133-0.055-0.208-0.146-0.233-0.302
		c-0.033-0.207-0.011-0.416-0.057-0.621C14.662,19.198,14.662,20.791,14.662,22.385z"/>
	<path class="st2" d="M14.662,22.385c0,0.063,0,0.126-0.001,0.189c-0.009,0-0.017,0-0.026-0.001
		c-0.002-0.042-0.007-0.083-0.007-0.125c0-1.675,0.001-3.351,0.001-5.026c0-0.037,0.003-0.073,0.004-0.11
		c0.044-0.05,0.025-0.11,0.025-0.166c0.002-0.598,0.001-1.196,0.002-1.794c0-0.051,0-0.101,0-0.178
		c0.228,0.132,0.431,0.258,0.641,0.37c0.271,0.145,0.513,0.344,0.807,0.446c0.077,0.07,0.072,0.156,0.051,0.246
		c-0.018,0.076-0.048,0.153-0.047,0.229c0.007,0.414-0.042,0.826-0.039,1.24c0.002,0.302-0.018,0.606-0.034,0.909
		c-0.007,0.131,0.004,0.273-0.055,0.4c-0.341-0.17-0.681-0.341-1.033-0.486c-0.133-0.055-0.208-0.146-0.233-0.302
		c-0.033-0.207-0.011-0.416-0.057-0.621C14.662,19.198,14.662,20.791,14.662,22.385z"/>
	<path class="st2" d="M12.044,17.508c0.011-0.012,0.006-0.075,0.036-0.026c0.109,0.181,0.281,0.275,0.461,0.361
		c0.416,0.199,0.833,0.395,1.248,0.593c0.208,0.099,0.273,0.057,0.274-0.179c0.001-0.492,0-0.984,0-1.505
		c0.046,0.081,0.03,0.138,0.03,0.191c0.002,1.626,0.002,3.253,0.003,4.879c0,0.061-0.021,0.126,0.025,0.182
		c0.007,0.036,0.016,0.072-0.002,0.109c-0.05-0.012-0.05-0.059-0.066-0.094c-0.513-1.142-1.027-2.284-1.537-3.427
		C12.356,18.232,12.178,17.879,12.044,17.508z"/>
	<path class="st2" d="M12.044,17.508c0.011-0.012,0.006-0.075,0.036-0.026c0.109,0.181,0.281,0.275,0.461,0.361
		c0.416,0.199,0.833,0.395,1.248,0.593c0.208,0.099,0.273,0.057,0.274-0.179c0.001-0.492,0-0.984,0-1.505
		c0.046,0.081,0.03,0.138,0.03,0.191c0.002,1.626,0.002,3.253,0.003,4.879c0,0.061-0.021,0.126,0.025,0.182
		c0.007,0.036,0.016,0.072-0.002,0.109c-0.05-0.012-0.05-0.059-0.066-0.094c-0.513-1.142-1.027-2.284-1.537-3.427
		C12.356,18.232,12.178,17.879,12.044,17.508z"/>
	<path class="st2" d="M12.044,17.508c0.011-0.012,0.006-0.075,0.036-0.026c0.109,0.181,0.281,0.275,0.461,0.361
		c0.416,0.199,0.833,0.395,1.248,0.593c0.208,0.099,0.273,0.057,0.274-0.179c0.001-0.492,0-0.984,0-1.505
		c0.046,0.081,0.03,0.138,0.03,0.191c0.002,1.626,0.002,3.253,0.003,4.879c0,0.061-0.021,0.126,0.025,0.182
		c0.007,0.036,0.016,0.072-0.002,0.109c-0.05-0.012-0.05-0.059-0.066-0.094c-0.513-1.142-1.027-2.284-1.537-3.427
		C12.356,18.232,12.178,17.879,12.044,17.508z"/>
	<path class="st2" d="M12.044,17.508c0.011-0.012,0.006-0.075,0.036-0.026c0.109,0.181,0.281,0.275,0.461,0.361
		c0.416,0.199,0.833,0.395,1.248,0.593c0.208,0.099,0.273,0.057,0.274-0.179c0.001-0.492,0-0.984,0-1.505
		c0.046,0.081,0.03,0.138,0.03,0.191c0.002,1.626,0.002,3.253,0.003,4.879c0,0.061-0.021,0.126,0.025,0.182
		c0.007,0.036,0.016,0.072-0.002,0.109c-0.05-0.012-0.05-0.059-0.066-0.094c-0.513-1.142-1.027-2.284-1.537-3.427
		C12.356,18.232,12.178,17.879,12.044,17.508z"/>
	<path class="st7" d="M14.123,16.272c-0.043-0.05-0.024-0.11-0.025-0.165c-0.003-0.427-0.003-0.854-0.005-1.281
		c0-1.925,0.001-3.85,0.002-5.775c0-0.06-0.023-0.127,0.028-0.18c0.001,1.139,0.002,2.278,0.003,3.417
		c0.001,1.265,0.002,2.53,0.003,3.795C14.13,16.147,14.125,16.21,14.123,16.272z"/>
	<path class="st7" d="M14.123,16.272c-0.043-0.05-0.024-0.11-0.025-0.165c-0.003-0.427-0.003-0.854-0.005-1.281
		c0-1.925,0.001-3.85,0.002-5.775c0-0.06-0.023-0.127,0.028-0.18c0.001,1.139,0.002,2.278,0.003,3.417
		c0.001,1.265,0.002,2.53,0.003,3.795C14.13,16.147,14.125,16.21,14.123,16.272z"/>
	<path class="st7" d="M14.123,16.272c-0.043-0.05-0.024-0.11-0.025-0.165c-0.003-0.427-0.003-0.854-0.005-1.281
		c0-1.925,0.001-3.85,0.002-5.775c0-0.06-0.023-0.127,0.028-0.18c0.001,1.139,0.002,2.278,0.003,3.417
		c0.001,1.265,0.002,2.53,0.003,3.795C14.13,16.147,14.125,16.21,14.123,16.272z"/>
	<path class="st7" d="M14.123,16.272c-0.043-0.05-0.024-0.11-0.025-0.165c-0.003-0.427-0.003-0.854-0.005-1.281
		c0-1.925,0.001-3.85,0.002-5.775c0-0.06-0.023-0.127,0.028-0.18c0.001,1.139,0.002,2.278,0.003,3.417
		c0.001,1.265,0.002,2.53,0.003,3.795C14.13,16.147,14.125,16.21,14.123,16.272z"/>
	<path class="st9" d="M14.636,22.572c0.009,0.001,0.017,0.001,0.026,0.001c-0.001,1.408-0.002,2.817-0.003,4.225
		c-0.038-0.045-0.03-0.099-0.03-0.15c0-1.338,0.001-2.675,0.001-4.013C14.63,22.614,14.634,22.593,14.636,22.572z"/>
	<path class="st9" d="M14.636,22.572c0.009,0.001,0.017,0.001,0.026,0.001c-0.001,1.408-0.002,2.817-0.003,4.225
		c-0.038-0.045-0.03-0.099-0.03-0.15c0-1.338,0.001-2.675,0.001-4.013C14.63,22.614,14.634,22.593,14.636,22.572z"/>
	<path class="st9" d="M14.636,22.572c0.009,0.001,0.017,0.001,0.026,0.001c-0.001,1.408-0.002,2.817-0.003,4.225
		c-0.038-0.045-0.03-0.099-0.03-0.15c0-1.338,0.001-2.675,0.001-4.013C14.63,22.614,14.634,22.593,14.636,22.572z"/>
	<path class="st9" d="M14.636,22.572c0.009,0.001,0.017,0.001,0.026,0.001c-0.001,1.408-0.002,2.817-0.003,4.225
		c-0.038-0.045-0.03-0.099-0.03-0.15c0-1.338,0.001-2.675,0.001-4.013C14.63,22.614,14.634,22.593,14.636,22.572z"/>
	<path class="st7" d="M9.404,11.731c0.021-0.025,0.05-0.024,0.065-0.002c0.093,0.136,0.2,0.266,0.19,0.446
		C9.566,12.032,9.549,11.845,9.404,11.731z"/>
	<path class="st7" d="M9.404,11.731c0.021-0.025,0.05-0.024,0.065-0.002c0.093,0.136,0.2,0.266,0.19,0.446
		C9.566,12.032,9.549,11.845,9.404,11.731z"/>
	<path class="st7" d="M9.404,11.731c0.021-0.025,0.05-0.024,0.065-0.002c0.093,0.136,0.2,0.266,0.19,0.446
		C9.566,12.032,9.549,11.845,9.404,11.731z"/>
	<path class="st7" d="M9.404,11.731c0.021-0.025,0.05-0.024,0.065-0.002c0.093,0.136,0.2,0.266,0.19,0.446
		C9.566,12.032,9.549,11.845,9.404,11.731z"/>
	<path class="st1" d="M22.686,20.019c-0.04-0.051-0.022-0.111-0.022-0.167c-0.002-0.624-0.001-1.248-0.001-1.873
		c0-0.052,0-0.103-0.031-0.155c0,0.204,0,0.407,0,0.611c0,0.179-0.077,0.277-0.239,0.339c-0.664,0.25-1.327,0.504-1.99,0.756
		c-0.468,0.178-0.936,0.354-1.404,0.532c-0.234,0.089-0.469,0.175-0.7,0.273c-0.101,0.043-0.155,0.036-0.183-0.078
		c-0.017-0.07-0.051-0.136-0.078-0.203c-0.001-1.7-0.002-3.401-0.004-5.101c0-0.077,0.022-0.122,0.093-0.161
		c0.224-0.124,0.439-0.266,0.665-0.386c0.263-0.14,0.501-0.324,0.782-0.43c0.216,0.551,0.433,1.102,0.649,1.653
		c0.035,0.088,0.065,0.179,0.157,0.228c0.126,0.067,0.259,0.021,0.357-0.129c0.545-0.828,1.088-1.656,1.632-2.484
		c0.097-0.148,0.194-0.297,0.289-0.442c0.037,0.003,0.035,0.024,0.035,0.045c0,2.37-0.001,4.741-0.002,7.111
		C22.69,19.977,22.687,19.998,22.686,20.019z"/>
	<path class="st1" d="M22.686,20.019c-0.04-0.051-0.022-0.111-0.022-0.167c-0.002-0.624-0.001-1.248-0.001-1.873
		c0-0.052,0-0.103-0.031-0.155c0,0.204,0,0.407,0,0.611c0,0.179-0.077,0.277-0.239,0.339c-0.664,0.25-1.327,0.504-1.99,0.756
		c-0.468,0.178-0.936,0.354-1.404,0.532c-0.234,0.089-0.469,0.175-0.7,0.273c-0.101,0.043-0.155,0.036-0.183-0.078
		c-0.017-0.07-0.051-0.136-0.078-0.203c-0.001-1.7-0.002-3.401-0.004-5.101c0-0.077,0.022-0.122,0.093-0.161
		c0.224-0.124,0.439-0.266,0.665-0.386c0.263-0.14,0.501-0.324,0.782-0.43c0.216,0.551,0.433,1.102,0.649,1.653
		c0.035,0.088,0.065,0.179,0.157,0.228c0.126,0.067,0.259,0.021,0.357-0.129c0.545-0.828,1.088-1.656,1.632-2.484
		c0.097-0.148,0.194-0.297,0.289-0.442c0.037,0.003,0.035,0.024,0.035,0.045c0,2.37-0.001,4.741-0.002,7.111
		C22.69,19.977,22.687,19.998,22.686,20.019z"/>
	<path class="st1" d="M22.686,20.019c-0.04-0.051-0.022-0.111-0.022-0.167c-0.002-0.624-0.001-1.248-0.001-1.873
		c0-0.052,0-0.103-0.031-0.155c0,0.204,0,0.407,0,0.611c0,0.179-0.077,0.277-0.239,0.339c-0.664,0.25-1.327,0.504-1.99,0.756
		c-0.468,0.178-0.936,0.354-1.404,0.532c-0.234,0.089-0.469,0.175-0.7,0.273c-0.101,0.043-0.155,0.036-0.183-0.078
		c-0.017-0.07-0.051-0.136-0.078-0.203c-0.001-1.7-0.002-3.401-0.004-5.101c0-0.077,0.022-0.122,0.093-0.161
		c0.224-0.124,0.439-0.266,0.665-0.386c0.263-0.14,0.501-0.324,0.782-0.43c0.216,0.551,0.433,1.102,0.649,1.653
		c0.035,0.088,0.065,0.179,0.157,0.228c0.126,0.067,0.259,0.021,0.357-0.129c0.545-0.828,1.088-1.656,1.632-2.484
		c0.097-0.148,0.194-0.297,0.289-0.442c0.037,0.003,0.035,0.024,0.035,0.045c0,2.37-0.001,4.741-0.002,7.111
		C22.69,19.977,22.687,19.998,22.686,20.019z"/>
	<path class="st1" d="M22.686,20.019c-0.04-0.051-0.022-0.111-0.022-0.167c-0.002-0.624-0.001-1.248-0.001-1.873
		c0-0.052,0-0.103-0.031-0.155c0,0.204,0,0.407,0,0.611c0,0.179-0.077,0.277-0.239,0.339c-0.664,0.25-1.327,0.504-1.99,0.756
		c-0.468,0.178-0.936,0.354-1.404,0.532c-0.234,0.089-0.469,0.175-0.7,0.273c-0.101,0.043-0.155,0.036-0.183-0.078
		c-0.017-0.07-0.051-0.136-0.078-0.203c-0.001-1.7-0.002-3.401-0.004-5.101c0-0.077,0.022-0.122,0.093-0.161
		c0.224-0.124,0.439-0.266,0.665-0.386c0.263-0.14,0.501-0.324,0.782-0.43c0.216,0.551,0.433,1.102,0.649,1.653
		c0.035,0.088,0.065,0.179,0.157,0.228c0.126,0.067,0.259,0.021,0.357-0.129c0.545-0.828,1.088-1.656,1.632-2.484
		c0.097-0.148,0.194-0.297,0.289-0.442c0.037,0.003,0.035,0.024,0.035,0.045c0,2.37-0.001,4.741-0.002,7.111
		C22.69,19.977,22.687,19.998,22.686,20.019z"/>
	<path class="st3" d="M11.008,13.029c-0.001-0.06-0.04-0.095-0.087-0.122c-0.152-0.089-0.2-0.219-0.2-0.394
		c0.005-1.609,0.003-3.218,0.002-4.828c0-0.06,0.019-0.124-0.03-0.198c-0.046,0.116-0.137,0.146-0.24,0.169
		c-0.155,0.035-0.278,0.142-0.416,0.214C9.986,7.896,9.943,7.956,9.872,7.923c0.758-0.447,1.515-0.896,2.275-1.341
		c0.438-0.257,0.879-0.51,1.319-0.764c0.068,0.065,0.126,0.007,0.186-0.016c0.086-0.033,0.132-0.013,0.128,0.086
		c-0.002,0.042,0,0.084,0,0.126c0,2.725,0.001,5.451-0.001,8.176c0,0.155-0.001,0.302,0.135,0.413
		c0.044,0.036,0.06,0.097,0.055,0.158c-0.668-0.389-1.336-0.778-2.004-1.168C11.645,13.406,11.327,13.217,11.008,13.029z"/>
	<path class="st3" d="M11.008,13.029c-0.001-0.06-0.04-0.095-0.087-0.122c-0.152-0.089-0.2-0.219-0.2-0.394
		c0.005-1.609,0.003-3.218,0.002-4.828c0-0.06,0.019-0.124-0.03-0.198c-0.046,0.116-0.137,0.146-0.24,0.169
		c-0.155,0.035-0.278,0.142-0.416,0.214C9.986,7.896,9.943,7.956,9.872,7.923c0.758-0.447,1.515-0.896,2.275-1.341
		c0.438-0.257,0.879-0.51,1.319-0.764c0.068,0.065,0.126,0.007,0.186-0.016c0.086-0.033,0.132-0.013,0.128,0.086
		c-0.002,0.042,0,0.084,0,0.126c0,2.725,0.001,5.451-0.001,8.176c0,0.155-0.001,0.302,0.135,0.413
		c0.044,0.036,0.06,0.097,0.055,0.158c-0.668-0.389-1.336-0.778-2.004-1.168C11.645,13.406,11.327,13.217,11.008,13.029z"/>
	<path class="st3" d="M11.008,13.029c-0.001-0.06-0.04-0.095-0.087-0.122c-0.152-0.089-0.2-0.219-0.2-0.394
		c0.005-1.609,0.003-3.218,0.002-4.828c0-0.06,0.019-0.124-0.03-0.198c-0.046,0.116-0.137,0.146-0.24,0.169
		c-0.155,0.035-0.278,0.142-0.416,0.214C9.986,7.896,9.943,7.956,9.872,7.923c0.758-0.447,1.515-0.896,2.275-1.341
		c0.438-0.257,0.879-0.51,1.319-0.764c0.068,0.065,0.126,0.007,0.186-0.016c0.086-0.033,0.132-0.013,0.128,0.086
		c-0.002,0.042,0,0.084,0,0.126c0,2.725,0.001,5.451-0.001,8.176c0,0.155-0.001,0.302,0.135,0.413
		c0.044,0.036,0.06,0.097,0.055,0.158c-0.668-0.389-1.336-0.778-2.004-1.168C11.645,13.406,11.327,13.217,11.008,13.029z"/>
	<path class="st3" d="M11.008,13.029c-0.001-0.06-0.04-0.095-0.087-0.122c-0.152-0.089-0.2-0.219-0.2-0.394
		c0.005-1.609,0.003-3.218,0.002-4.828c0-0.06,0.019-0.124-0.03-0.198c-0.046,0.116-0.137,0.146-0.24,0.169
		c-0.155,0.035-0.278,0.142-0.416,0.214C9.986,7.896,9.943,7.956,9.872,7.923c0.758-0.447,1.515-0.896,2.275-1.341
		c0.438-0.257,0.879-0.51,1.319-0.764c0.068,0.065,0.126,0.007,0.186-0.016c0.086-0.033,0.132-0.013,0.128,0.086
		c-0.002,0.042,0,0.084,0,0.126c0,2.725,0.001,5.451-0.001,8.176c0,0.155-0.001,0.302,0.135,0.413
		c0.044,0.036,0.06,0.097,0.055,0.158c-0.668-0.389-1.336-0.778-2.004-1.168C11.645,13.406,11.327,13.217,11.008,13.029z"/>
	<path class="st10" d="M19.572,13.974c-0.281,0.107-0.519,0.29-0.782,0.43c-0.226,0.12-0.441,0.262-0.665,0.386
		c-0.071,0.039-0.093,0.084-0.093,0.161c0.003,1.7,0.003,3.401,0.004,5.101c-0.001,0.968-0.002,1.936-0.005,2.904
		c0,0.06,0.022,0.126-0.028,0.18c0.001-2.373,0.002-4.745,0.003-7.118c0-1.984,0-3.968,0-5.952c0.059-0.011,0.059,0.038,0.07,0.067
		C18.576,11.413,19.074,12.694,19.572,13.974z"/>
	<path class="st10" d="M19.572,13.974c-0.281,0.107-0.519,0.29-0.782,0.43c-0.226,0.12-0.441,0.262-0.665,0.386
		c-0.071,0.039-0.093,0.084-0.093,0.161c0.003,1.7,0.003,3.401,0.004,5.101c-0.001,0.968-0.002,1.936-0.005,2.904
		c0,0.06,0.022,0.126-0.028,0.18c0.001-2.373,0.002-4.745,0.003-7.118c0-1.984,0-3.968,0-5.952c0.059-0.011,0.059,0.038,0.07,0.067
		C18.576,11.413,19.074,12.694,19.572,13.974z"/>
	<path class="st10" d="M19.572,13.974c-0.281,0.107-0.519,0.29-0.782,0.43c-0.226,0.12-0.441,0.262-0.665,0.386
		c-0.071,0.039-0.093,0.084-0.093,0.161c0.003,1.7,0.003,3.401,0.004,5.101c-0.001,0.968-0.002,1.936-0.005,2.904
		c0,0.06,0.022,0.126-0.028,0.18c0.001-2.373,0.002-4.745,0.003-7.118c0-1.984,0-3.968,0-5.952c0.059-0.011,0.059,0.038,0.07,0.067
		C18.576,11.413,19.074,12.694,19.572,13.974z"/>
	<path class="st10" d="M19.572,13.974c-0.281,0.107-0.519,0.29-0.782,0.43c-0.226,0.12-0.441,0.262-0.665,0.386
		c-0.071,0.039-0.093,0.084-0.093,0.161c0.003,1.7,0.003,3.401,0.004,5.101c-0.001,0.968-0.002,1.936-0.005,2.904
		c0,0.06,0.022,0.126-0.028,0.18c0.001-2.373,0.002-4.745,0.003-7.118c0-1.984,0-3.968,0-5.952c0.059-0.011,0.059,0.038,0.07,0.067
		C18.576,11.413,19.074,12.694,19.572,13.974z"/>
	<path class="st1" d="M15.985,19.013c0.059-0.127,0.048-0.269,0.055-0.4c0.016-0.302,0.036-0.606,0.034-0.909
		c-0.002-0.414,0.046-0.826,0.039-1.24c-0.001-0.076,0.029-0.153,0.047-0.229c0.022-0.091,0.026-0.177-0.051-0.246
		c0.345-0.236,0.717-0.426,1.073-0.644c0.092-0.057,0.18-0.125,0.288-0.152c0.039,0.022,0.023,0.057,0.023,0.085
		c0.001,2.043,0.001,4.087,0.001,6.13c0,0.021-0.002,0.042-0.003,0.063c-0.083,0.047-0.056,0.127-0.057,0.197
		c-0.002,0.087-0.012,0.174-0.101,0.212c-0.411,0.176-0.832,0.325-1.254,0.472c0-0.908,0.001-1.816-0.002-2.724
		C16.077,19.421,16.029,19.217,15.985,19.013z"/>
	<path class="st1" d="M15.985,19.013c0.059-0.127,0.048-0.269,0.055-0.4c0.016-0.302,0.036-0.606,0.034-0.909
		c-0.002-0.414,0.046-0.826,0.039-1.24c-0.001-0.076,0.029-0.153,0.047-0.229c0.022-0.091,0.026-0.177-0.051-0.246
		c0.345-0.236,0.717-0.426,1.073-0.644c0.092-0.057,0.18-0.125,0.288-0.152c0.039,0.022,0.023,0.057,0.023,0.085
		c0.001,2.043,0.001,4.087,0.001,6.13c0,0.021-0.002,0.042-0.003,0.063c-0.083,0.047-0.056,0.127-0.057,0.197
		c-0.002,0.087-0.012,0.174-0.101,0.212c-0.411,0.176-0.832,0.325-1.254,0.472c0-0.908,0.001-1.816-0.002-2.724
		C16.077,19.421,16.029,19.217,15.985,19.013z"/>
	<path class="st1" d="M15.985,19.013c0.059-0.127,0.048-0.269,0.055-0.4c0.016-0.302,0.036-0.606,0.034-0.909
		c-0.002-0.414,0.046-0.826,0.039-1.24c-0.001-0.076,0.029-0.153,0.047-0.229c0.022-0.091,0.026-0.177-0.051-0.246
		c0.345-0.236,0.717-0.426,1.073-0.644c0.092-0.057,0.18-0.125,0.288-0.152c0.039,0.022,0.023,0.057,0.023,0.085
		c0.001,2.043,0.001,4.087,0.001,6.13c0,0.021-0.002,0.042-0.003,0.063c-0.083,0.047-0.056,0.127-0.057,0.197
		c-0.002,0.087-0.012,0.174-0.101,0.212c-0.411,0.176-0.832,0.325-1.254,0.472c0-0.908,0.001-1.816-0.002-2.724
		C16.077,19.421,16.029,19.217,15.985,19.013z"/>
	<path class="st1" d="M15.985,19.013c0.059-0.127,0.048-0.269,0.055-0.4c0.016-0.302,0.036-0.606,0.034-0.909
		c-0.002-0.414,0.046-0.826,0.039-1.24c-0.001-0.076,0.029-0.153,0.047-0.229c0.022-0.091,0.026-0.177-0.051-0.246
		c0.345-0.236,0.717-0.426,1.073-0.644c0.092-0.057,0.18-0.125,0.288-0.152c0.039,0.022,0.023,0.057,0.023,0.085
		c0.001,2.043,0.001,4.087,0.001,6.13c0,0.021-0.002,0.042-0.003,0.063c-0.083,0.047-0.056,0.127-0.057,0.197
		c-0.002,0.087-0.012,0.174-0.101,0.212c-0.411,0.176-0.832,0.325-1.254,0.472c0-0.908,0.001-1.816-0.002-2.724
		C16.077,19.421,16.029,19.217,15.985,19.013z"/>
	<path class="st2" d="M15.985,19.013c0.044,0.203,0.092,0.407,0.093,0.616c0.003,0.908,0.002,1.816,0.002,2.724
		c-0.001,0.767-0.001,1.533-0.002,2.3c-0.058-0.069-0.028-0.151-0.029-0.227c-0.004-0.293-0.004-0.291-0.262-0.402
		c-0.287-0.124-0.57-0.26-0.857-0.385c-0.207-0.091-0.221-0.28-0.233-0.46c-0.014-0.219-0.003-0.441-0.004-0.661
		c0-0.046,0.013-0.096-0.03-0.132c0-1.593,0-3.187,0-4.78c0.046,0.205,0.024,0.414,0.057,0.621c0.025,0.156,0.099,0.247,0.233,0.302
		C15.304,18.673,15.644,18.844,15.985,19.013z"/>
	<path class="st2" d="M15.985,19.013c0.044,0.203,0.092,0.407,0.093,0.616c0.003,0.908,0.002,1.816,0.002,2.724
		c-0.001,0.767-0.001,1.533-0.002,2.3c-0.058-0.069-0.028-0.151-0.029-0.227c-0.004-0.293-0.004-0.291-0.262-0.402
		c-0.287-0.124-0.57-0.26-0.857-0.385c-0.207-0.091-0.221-0.28-0.233-0.46c-0.014-0.219-0.003-0.441-0.004-0.661
		c0-0.046,0.013-0.096-0.03-0.132c0-1.593,0-3.187,0-4.78c0.046,0.205,0.024,0.414,0.057,0.621c0.025,0.156,0.099,0.247,0.233,0.302
		C15.304,18.673,15.644,18.844,15.985,19.013z"/>
	<path class="st2" d="M15.985,19.013c0.044,0.203,0.092,0.407,0.093,0.616c0.003,0.908,0.002,1.816,0.002,2.724
		c-0.001,0.767-0.001,1.533-0.002,2.3c-0.058-0.069-0.028-0.151-0.029-0.227c-0.004-0.293-0.004-0.291-0.262-0.402
		c-0.287-0.124-0.57-0.26-0.857-0.385c-0.207-0.091-0.221-0.28-0.233-0.46c-0.014-0.219-0.003-0.441-0.004-0.661
		c0-0.046,0.013-0.096-0.03-0.132c0-1.593,0-3.187,0-4.78c0.046,0.205,0.024,0.414,0.057,0.621c0.025,0.156,0.099,0.247,0.233,0.302
		C15.304,18.673,15.644,18.844,15.985,19.013z"/>
	<path class="st2" d="M15.985,19.013c0.044,0.203,0.092,0.407,0.093,0.616c0.003,0.908,0.002,1.816,0.002,2.724
		c-0.001,0.767-0.001,1.533-0.002,2.3c-0.058-0.069-0.028-0.151-0.029-0.227c-0.004-0.293-0.004-0.291-0.262-0.402
		c-0.287-0.124-0.57-0.26-0.857-0.385c-0.207-0.091-0.221-0.28-0.233-0.46c-0.014-0.219-0.003-0.441-0.004-0.661
		c0-0.046,0.013-0.096-0.03-0.132c0-1.593,0-3.187,0-4.78c0.046,0.205,0.024,0.414,0.057,0.621c0.025,0.156,0.099,0.247,0.233,0.302
		C15.304,18.673,15.644,18.844,15.985,19.013z"/>
	<polygon class="st2" points="9.482,19.212 9.482,17.149 11.306,17.267 12.537,20.137 9.482,19.816 	"/>
	<polygon class="st2" points="14.035,25.624 14.059,23.582 6.124,21.182 6.124,21.694 13.624,25.141 	"/>
	<polygon class="st2" points="8.847,16.941 8.847,15.066 6.106,14.882 6.124,16.188 	"/>
	<polygon class="st2" points="2.6,15.824 2.6,16.647 5.471,17.633 5.544,16.501 	"/>
	<polygon class="st2" points="5.544,14.376 5.544,22.843 5.18,22.725 5.18,13.424 	"/>
	<path class="st2" d="M5.184,10.337c0.008,0.012,0.343,0.137,0.343,0.137l-0.001,3.118l-0.346-0.58L5.184,10.337z"/>
	<polygon class="st2" points="6.097,13.141 6.098,16.122 6.306,16.122 6.306,12.682 	"/>
	<polygon class="st2" points="16.043,25.196 16.043,22.741 14.645,17.525 14.658,24.412 	"/>
	<polygon class="st2" points="14.109,20.2 14.09,16.537 13.58,16.6 14.09,20.239 	"/>
	<polygon class="st1" points="16.082,22.574 16.079,20.716 17.494,20.804 17.494,22.804 	"/>
	<polygon class="st1" points="18.034,20.716 18.034,18.306 22.692,16.501 22.693,20.359 	"/>
	<polygon class="st1" points="26.071,18.035 26.07,15.788 23.199,16.965 23.195,19.235 	"/>
	<polygon class="st1" points="26.59,17.606 26.59,16.318 29.531,16.182 29.531,19.029 26.59,18.824 	"/>
	<polygon class="st1" points="29.558,23.752 29.535,8.106 29.312,8.253 29.265,23.865 29.547,23.724 	"/>
	<polygon class="st3" points="10.452,12.706 14.093,14.826 13.928,5.547 9.098,8.368 	"/>
	<polygon class="st3" points="20.222,13.565 22.035,12.482 21.421,7.779 21.203,7.838 20.938,7.815 20.579,7.803 	"/>
	<polygon class="st3" points="18.929,10.672 18.373,8.553 18.551,1.675 19.185,2.044 19.651,12.571 	"/>
	<polygon class="st3" points="7.209,5.401 7.89,5.012 7.775,8.53 7.162,8.887 	"/>
	<polygon class="st3" points="25.695,9.307 24.121,8.395 24.947,5.414 26.327,6.216 	"/>
	<polygon class="st10" points="18.006,14.882 19.572,13.974 19.413,13.565 18.034,14.224 	"/>
	<polygon class="st2" points="16.043,20.531 16.113,16.6 15.372,16.875 15.496,20.984 	"/>
	<polygon class="st1" points="18.003,23.136 18.006,14.882 18.579,14.55 18.291,23.403 	"/>
	<polygon class="st1" points="17.523,23.136 17.515,15.174 16.109,15.989 16.113,17.11 16.078,23.267 17.557,23.447 	"/>
	<polygon class="st2" points="14.631,15.141 16.109,15.989 16.098,17.459 14.631,17.4 	"/>
	<polygon class="st2" points="14.123,16.3 14.129,14.843 13.435,14.443 	"/>
	<polygon class="st2" points="9.69,12.25 14.128,14.816 14.128,15.113 9.791,12.482 	"/>
	<polygon class="st2" points="8.965,11.847 6.124,10.155 6.124,10.353 8.831,11.878 	"/>
	<polygon class="st3" points="9.683,12.231 9.504,11.848 9.448,11.772 9.404,11.731 9.345,11.608 9.769,11.712 	"/>
	<polygon class="st2" points="2.593,8.156 2.587,8.175 2.561,8.259 2.561,8.557 2.565,23.847 2.653,23.909 2.653,8.208 2.653,8.163 
		2.703,8.18 	"/>
	<polygon class="st2" points="2.6,20.773 2.851,20.773 2.78,21.239 2.632,21.106 	"/>
	<polygon class="st3" points="25.828,9.993 21.87,7.674 21.526,8.584 	"/>
</g>
</svg>
