<?xml version="1.0" encoding="utf-8"?>
<!-- Generator: Adobe Illustrator 22.0.1, SVG Export Plug-In . SVG Version: 6.00 Build 0)  -->
<svg version="1.1" id="Layer_1" xmlns="http://www.w3.org/2000/svg" xmlns:xlink="http://www.w3.org/1999/xlink" x="0px" y="0px"
	 viewBox="0 0 32 32" style="enable-background:new 0 0 32 32;" xml:space="preserve">
<style type="text/css">
	.st0{fill:#221E22;}
	.st1{fill:#EFCD26;}
</style>
<circle class="st0" cx="16" cy="16" r="15.84"/>
<g>
	<g>
		<path class="st1" d="M16.9038,18.4763c0.4888-0.5067,1.021-1.0585,1.4924-1.5473c2.0773,2.0736,4.1337,4.1263,6.22,6.2089
			c-0.4946,0.4568-1.0709,0.989-1.583,1.462C21.032,22.6006,18.9763,20.5468,16.9038,18.4763z"/>
		<path class="st1" d="M7.5119,9.2053c0.5531-0.5208,1.1117-1.0467,1.584-1.4914c1.9944,1.9954,4.0336,4.0356,6.0916,6.0945
			c-0.4395,0.4009-1.0385,0.9472-1.6112,1.4695C11.6331,13.3321,9.6061,11.3024,7.5119,9.2053z"/>
		<path class="st1" d="M24.4995,9.2261c-1.9529,1.9558-3.9764,3.9823-6.0438,6.0529c-0.4709-0.5345-0.9753-1.1071-1.4319-1.6254
			c1.9321-1.934,3.9682-3.972,6.0495-6.0553C23.5174,8.1051,24.0206,8.6794,24.4995,9.2261z"/>
		<path class="st1" d="M9.0893,24.5666c-0.472-0.4426-1.0296-0.9656-1.5363-1.4407c2.0689-2.0648,4.1108-4.1028,6.1039-6.092
			c0.475,0.4442,1.0336,0.9665,1.5412,1.4412C13.1281,20.5392,11.0856,22.5759,9.0893,24.5666z"/>
		<path class="st1" d="M14.6315,16.0817c0.4473-0.4616,0.9427-0.9728,1.4564-1.5029c0.5182,0.5544,1.0046,1.0749,1.5112,1.6169
			c-0.4719,0.4531-0.9857,0.9464-1.5539,1.492C15.6069,17.1897,15.1356,16.6543,14.6315,16.0817z"/>
	</g>
</g>
</svg>
