<?xml version="1.0" encoding="utf-8"?>
<!-- Generator: Adobe Illustrator 26.2.1, SVG Export Plug-In . SVG Version: 6.00 Build 0)  -->
<svg version="1.1" id="Layer_1" xmlns="http://www.w3.org/2000/svg" xmlns:xlink="http://www.w3.org/1999/xlink" x="0px" y="0px"
	 viewBox="0 0 32 32" style="enable-background:new 0 0 32 32;" xml:space="preserve">
<style type="text/css">
	.st0{fill:#6503E3;}
	.st1{fill:#8902C8;}
	.st2{fill:#8202C8;}
	.st3{fill:#9201AD;}
	.st4{fill:#9102E1;}
	.st5{fill:#7E02C9;}
	.st6{fill:#8D01C8;}
	.st7{fill:#8602C8;}
	.st8{fill:#7A02C9;}
	.st9{fill:#8502C8;}
	.st10{fill:#9101C8;}
	.st11{fill:#7502C9;}
	.st12{fill:#9501C7;}
	.st13{fill:#7202C9;}
	.st14{fill:#8302C8;}
	.st15{fill:#8C02E1;}
	.st16{fill:#9901C7;}
	.st17{fill:#6E02C9;}
	.st18{fill:#9401AD;}
	.st19{fill:#8902E1;}
	.st20{fill:#6A02C9;}
	.st21{fill:#9D01C7;}
	.st22{fill:#A101C7;}
	.st23{fill:#6602C9;}
	.st24{fill:#6A01BC;}
	.st25{fill:#6204E3;}
	.st26{fill:#6D01BC;}
	.st27{fill:#6401BD;}
	.st28{fill:#6202C9;}
	.st29{fill:#6701BD;}
	.st30{fill:#A601C6;}
	.st31{fill:#6101BD;}
	.st32{fill:#5A02BD;}
	.st33{fill:#5E02BD;}
	.st34{fill:#5E02CA;}
	.st35{fill:#5503BE;}
	.st36{fill:#8604E1;}
	.st37{fill:#AA03C7;}
	.st38{fill:#A603C7;}
	.st39{fill:#6A03E2;}
	.st40{fill:#5D02C4;}
	.st41{fill:#7001A5;}
	.st42{fill:#7C02C3;}
	.st43{fill:#9001AE;}
	.st44{fill:#8901A5;}
	.st45{fill:#8701A5;}
	.st46{fill:#7601BC;}
	.st47{fill:#7502C3;}
	.st48{fill:#7901A5;}
	.st49{fill:#7A01A5;}
	.st50{fill:#6D02C3;}
	.st51{fill:#8001A5;}
	.st52{fill:#7301BC;}
	.st53{fill:#6502C3;}
	.st54{fill:#7001BC;}
	.st55{fill:#7F02E1;}
	.st56{fill:#7B02E2;}
	.st57{fill:#8402E1;}
	.st58{fill:#7702E2;}
	.st59{fill:#7203E2;}
	.st60{fill:#6E03E2;}
	.st61{fill:#7D01AE;}
	.st62{fill:#7901AE;}
	.st63{fill:#7601AE;}
	.st64{fill:#8F02E1;}
	.st65{fill:#8D01AE;}
	.st66{fill:#8901AE;}
	.st67{fill:#8802E1;}
	.st68{fill:#8401AE;}
	.st69{fill:#8001AE;}
	.st70{fill:#8701AE;}
</style>
<g>
	<path class="st0" d="M0.417,13.378c-0.133-0.07-0.048-0.14,0.003-0.206c1.045-1.366,2.091-2.731,3.136-4.096
		C3.679,9.03,3.747,8.919,3.834,8.831C4.905,7.76,5.896,6.613,6.962,5.538C7.208,5.289,7.405,4.994,7.669,4.76
		C7.771,4.67,7.857,4.555,8.01,4.545c0.368,0.194,0.663,0.454,0.793,0.866c-0.035,0.209-0.169,0.362-0.31,0.502
		C7.473,6.927,6.51,7.996,5.53,9.047c-1.278,1.372-2.593,2.71-3.828,4.121c-0.065,0.074-0.117,0.165-0.217,0.203
		c-0.336,0.064-0.673,0.045-1.01,0.016C0.456,13.385,0.437,13.382,0.417,13.378z"/>
	<path class="st1" d="M25.602,5.02c0.283,0.303,0.526,0.636,0.75,0.984c0.051,0.135-0.05,0.209-0.122,0.29
		c-0.603,0.685-1.238,1.34-1.862,2.005c-1.513,1.613-3.04,3.213-4.529,4.848c-0.083,0.091-0.148,0.205-0.28,0.24
		c-0.483,0.04-0.965,0.04-1.447,0.002c-0.121-0.036-0.155-0.112-0.102-0.228c0.058-0.127,0.14-0.238,0.238-0.335
		c0.973-0.973,1.895-1.995,2.832-3.001c1.243-1.336,2.514-2.647,3.732-4.006C25.062,5.54,25.322,5.269,25.602,5.02z"/>
	<path class="st2" d="M8.888,21.433c-0.287-0.234-0.565-0.477-0.805-0.76c0.178-0.368,0.499-0.622,0.765-0.913
		c0.744-0.811,1.497-1.614,2.253-2.414c1.195-1.263,2.388-2.528,3.565-3.808c0.084-0.091,0.149-0.205,0.283-0.237
		c0.39-0.014,0.781-0.083,1.164,0.046c0.149,0.164,0.112,0.357,0.086,0.548c-0.347,0.439-0.761,0.819-1.146,1.223
		c-0.955,1.003-1.892,2.022-2.841,3.031c-0.897,0.953-1.81,1.893-2.681,2.872C9.365,21.208,9.24,21.515,8.888,21.433z"/>
	<path class="st3" d="M23.344,21.442c-1.132,1.09-2.263,2.182-3.398,3.268c-1.199,1.148-2.403,2.292-3.605,3.437
		c-0.044,0.042-0.099,0.074-0.148,0.111c-0.013-0.014-0.026-0.028-0.039-0.042c-0.06-0.13-0.055-0.259,0.001-0.389
		c1.403-1.461,2.786-2.94,4.158-4.43c0.398-0.432,0.8-0.862,1.208-1.285c1.373-1.422,2.7-2.887,4.066-4.316
		c1.097-1.148,2.157-2.332,3.26-3.476c0.32-0.332,0.584-0.716,0.949-1.006c0.255-0.048,0.509-0.052,0.764,0.001
		c0.224,0.146,0.079,0.285-0.027,0.396c-0.243,0.252-0.456,0.532-0.702,0.779c-1.003,1.011-1.958,2.068-2.931,3.106
		c-0.964,1.029-1.957,2.033-2.859,3.12C23.825,20.975,23.501,21.129,23.344,21.442z"/>
	<path class="st4" d="M22.045,5.108c0.84-0.411,1.701-0.775,2.572-1.117c0,0.267-0.2,0.42-0.357,0.586
		c-1.631,1.723-3.215,3.49-4.83,5.229c-0.986,1.061-1.977,2.117-2.933,3.206c-0.1,0.114-0.195,0.275-0.398,0.222
		c-0.026-0.031-0.045-0.066-0.057-0.105c-0.05-0.481-0.044-0.962-0.005-1.443c0.101-0.269,0.345-0.425,0.529-0.62
		c0.836-0.88,1.651-1.779,2.491-2.654c0.91-0.948,1.773-1.939,2.703-2.868C21.884,5.42,21.99,5.278,22.045,5.108z"/>
	<path class="st5" d="M14.844,13.384c-0.183,0.391-0.512,0.667-0.796,0.973c-0.985,1.063-2.005,2.094-2.989,3.157
		c-0.704,0.761-1.399,1.529-2.122,2.272c-0.286,0.294-0.517,0.641-0.854,0.887c-0.28-0.224-0.539-0.47-0.773-0.742
		c0.011-0.133,0.087-0.232,0.173-0.325c0.714-0.771,1.432-1.539,2.152-2.305c1.191-1.267,2.386-2.531,3.557-3.816
		c0.059-0.065,0.112-0.135,0.198-0.168c0.06-0.022,0.121-0.03,0.184-0.034c0.297-0.007,0.593-0.006,0.89-0.002
		C14.598,13.283,14.739,13.269,14.844,13.384z"/>
	<path class="st6" d="M19.655,13.306c0.112-0.333,0.406-0.528,0.615-0.784c0.322-0.396,0.7-0.746,1.046-1.123
		c0.997-1.086,2.033-2.136,3.043-3.211c0.674-0.718,1.329-1.455,1.993-2.183c0.254,0.277,0.484,0.574,0.679,0.896
		c0.053,0.204-0.119,0.288-0.225,0.396c-1.352,1.382-2.642,2.822-3.972,4.225c-0.522,0.551-1.091,1.064-1.541,1.682
		c-0.059,0.081-0.126,0.156-0.23,0.184c-0.388,0.049-0.777,0.019-1.165,0.021C19.805,13.401,19.717,13.385,19.655,13.306z"/>
	<path class="st7" d="M8.888,21.433c0.287-0.051,0.442-0.289,0.594-0.486c0.435-0.566,0.974-1.032,1.447-1.562
		c0.954-1.069,1.969-2.083,2.953-3.125c0.641-0.679,1.27-1.37,1.907-2.052c0.091-0.098,0.171-0.222,0.331-0.223
		c0.215,0.421,0.072,0.868,0.092,1.302c-0.02,0.117-0.096,0.2-0.177,0.28c-0.639,0.635-1.244,1.302-1.857,1.961
		c-1.319,1.419-2.666,2.811-3.968,4.246c-0.151,0.166-0.266,0.406-0.549,0.401C9.381,21.952,9.122,21.706,8.888,21.433z"/>
	<path class="st8" d="M13.34,13.384c-0.218,0.465-0.639,0.764-0.968,1.133c-0.956,1.071-1.973,2.087-2.957,3.134
		c-0.709,0.753-1.404,1.52-2.105,2.281c-0.317-0.255-0.613-0.533-0.887-0.834c0.076-0.219,0.233-0.387,0.388-0.543
		c0.997-0.999,1.93-2.057,2.904-3.077c0.612-0.64,1.227-1.278,1.804-1.952c0.081-0.094,0.153-0.201,0.288-0.228
		c0.409-0.037,0.818-0.015,1.226-0.015C13.145,13.282,13.258,13.289,13.34,13.384z"/>
	<path class="st9" d="M25.602,5.02c-0.005,0.107-0.063,0.184-0.134,0.259c-0.814,0.862-1.626,1.725-2.439,2.588
		c-1.232,1.308-2.487,2.595-3.686,3.933c-0.448,0.5-0.994,0.916-1.342,1.505c-0.326,0.2-0.678,0.086-1.021,0.084
		c-0.271-0.13-0.125-0.286-0.008-0.41c0.231-0.246,0.44-0.514,0.677-0.752c0.97-0.976,1.889-2,2.828-3.004
		c1.272-1.36,2.569-2.697,3.809-4.087c0.183-0.205,0.382-0.397,0.582-0.586c0.078-0.073,0.152-0.177,0.288-0.119
		C25.335,4.606,25.487,4.799,25.602,5.02z"/>
	<path class="st1" d="M9.661,22.176c0.549-0.563,1.132-1.096,1.635-1.697c0.434-0.519,0.925-0.979,1.374-1.481
		c1.055-1.183,2.167-2.316,3.259-3.466c0.05-0.052,0.126-0.079,0.19-0.118c0.166,0.177,0.1,0.397,0.104,0.6
		c0.007,0.308,0.018,0.617-0.011,0.924c-0.214,0.384-0.56,0.661-0.856,0.969c-1.357,1.41-2.649,2.881-4.025,4.272
		c-0.184,0.186-0.318,0.417-0.52,0.588c-0.099,0.084-0.174,0.225-0.344,0.171C10.18,22.704,9.902,22.46,9.661,22.176z"/>
	<path class="st10" d="M21.158,13.306c0.06-0.256,0.267-0.419,0.426-0.598c0.488-0.55,1.009-1.07,1.515-1.605
		c1.285-1.359,2.568-2.718,3.85-4.079c0.033-0.035,0.054-0.083,0.081-0.125c0.284,0.306,0.529,0.641,0.754,0.991
		c-0.013,0.093-0.075,0.156-0.137,0.218c-0.964,0.962-1.864,1.985-2.805,2.969c-0.656,0.685-1.302,1.382-1.937,2.087
		c-0.083,0.092-0.153,0.201-0.288,0.229c-0.384,0.038-0.769,0.015-1.153,0.016C21.353,13.41,21.239,13.403,21.158,13.306z"/>
	<path class="st6" d="M10.467,22.937c0.625-0.523,1.142-1.154,1.687-1.752c0.428-0.469,0.882-0.917,1.304-1.393
		c0.737-0.831,1.53-1.612,2.268-2.444c0.11-0.124,0.241-0.218,0.393-0.282c0.134,0.126,0.095,0.292,0.107,0.447
		c-0.01,0.342,0.019,0.685-0.019,1.026c-0.027,0.128-0.11,0.222-0.201,0.31c-1.08,1.044-2.059,2.184-3.098,3.267
		c-0.45,0.468-0.905,0.934-1.34,1.417c-0.084,0.094-0.148,0.257-0.328,0.146C10.96,23.456,10.701,23.21,10.467,22.937z"/>
	<path class="st11" d="M11.686,13.384c-0.175,0.381-0.495,0.65-0.77,0.946c-0.967,1.045-1.977,2.052-2.932,3.108
		c-0.51,0.564-1.061,1.088-1.562,1.659c-0.246-0.2-0.478-0.416-0.682-0.66c-0.097-0.199,0.067-0.293,0.165-0.415
		c0.445-0.558,0.967-1.044,1.453-1.564c0.979-1.048,1.945-2.109,2.949-3.136c0.1-0.039,0.205-0.039,0.31-0.042
		C10.973,13.319,11.346,13.182,11.686,13.384z"/>
	<path class="st10" d="M11.241,23.68c0.234-0.01,0.266-0.244,0.392-0.369c0.362-0.36,0.715-0.73,1.061-1.107
		c1.08-1.177,2.199-2.317,3.304-3.471c0.034-0.035,0.08-0.059,0.121-0.087c0.153,0.152,0.103,0.347,0.105,0.526
		c0.003,0.358,0.018,0.716-0.012,1.072c-0.165,0.343-0.469,0.573-0.722,0.839c-1.039,1.091-2.061,2.196-3.089,3.297
		c-0.075,0.08-0.139,0.185-0.278,0.135C11.811,24.257,11.507,23.988,11.241,23.68z"/>
	<path class="st12" d="M22.737,13.306c0.21-0.433,0.59-0.728,0.903-1.072c0.963-1.058,1.977-2.069,2.944-3.123
		c0.387-0.422,0.758-0.854,1.201-1.22c0.257,0.278,0.486,0.577,0.685,0.9c-0.859,0.902-1.711,1.811-2.555,2.727
		c-0.523,0.568-1.111,1.078-1.564,1.71c-0.044,0.061-0.094,0.116-0.168,0.145c-0.121,0.043-0.248,0.036-0.373,0.04
		C23.453,13.372,23.077,13.513,22.737,13.306z"/>
	<path class="st13" d="M10.258,13.384c-0.173,0.398-0.518,0.664-0.798,0.97c-0.995,1.087-2.039,2.128-3.031,3.217
		c-0.244,0.268-0.566,0.494-0.688,0.866c-0.346-0.283-0.674-0.585-0.972-0.919c0.749-0.818,1.516-1.619,2.268-2.434
		c0.507-0.549,1.046-1.07,1.502-1.665c0.047-0.062,0.109-0.102,0.185-0.121c0.409-0.039,0.818-0.015,1.227-0.016
		C10.062,13.282,10.176,13.289,10.258,13.384z"/>
	<path class="st14" d="M25.158,4.432c-0.752,0.607-1.344,1.372-2.001,2.07c-0.443,0.47-0.897,0.934-1.329,1.418
		c-0.955,1.071-1.972,2.086-2.957,3.13c-0.633,0.671-1.255,1.353-1.882,2.029c-0.061,0.066-0.116,0.131-0.116,0.227
		c-0.231,0.161-0.472,0.128-0.716,0.037c-0.048-0.026-0.059-0.063-0.034-0.111c0.424-0.438,0.881-0.85,1.263-1.322
		c0.331-0.408,0.706-0.773,1.053-1.162c1.045-1.172,2.156-2.285,3.2-3.458c0.985-1.107,2.049-2.142,2.978-3.299
		c0.14-0.14,0.214-0.031,0.288,0.077C24.989,4.189,25.074,4.31,25.158,4.432z"/>
	<path class="st15" d="M22.045,5.108c0.156,0.232-0.08,0.339-0.179,0.45c-0.374,0.417-0.77,0.814-1.15,1.228
		c-0.97,1.056-1.996,2.06-2.947,3.131c-0.438,0.493-0.957,0.912-1.341,1.455c-0.066,0.094-0.201,0.14-0.304,0.208
		c-0.157-0.169-0.1-0.378-0.108-0.574c0-0.207-0.017-0.414,0.031-0.619c0.186-0.265,0.417-0.496,0.641-0.724
		c0.998-1.017,1.927-2.098,2.937-3.102c0.187-0.186,0.344-0.394,0.485-0.616C20.739,5.63,21.385,5.353,22.045,5.108z"/>
	<path class="st16" d="M24.24,13.306c0.057-0.227,0.219-0.389,0.368-0.547c1.015-1.078,2.039-2.149,3.063-3.218
		c0.252-0.264,0.4-0.64,0.798-0.749c0.257,0.277,0.48,0.58,0.685,0.896c-0.171,0.325-0.453,0.563-0.695,0.824
		c-0.858,0.92-1.736,1.821-2.568,2.765c-0.051,0.058-0.113,0.097-0.188,0.117c-0.385,0.039-0.77,0.016-1.155,0.016
		C24.435,13.41,24.321,13.403,24.24,13.306z"/>
	<path class="st12" d="M12.124,24.515c0.397-0.408,0.801-0.811,1.191-1.225c0.673-0.714,1.325-1.447,2.012-2.146
		c0.257-0.261,0.405-0.641,0.792-0.769c0.19,0.245,0.08,0.53,0.105,0.797c0.013,0.136,0.003,0.275,0.002,0.412
		c-0.002,0.104-0.002,0.209-0.037,0.309c-0.701,0.775-1.43,1.525-2.139,2.294c-0.245,0.266-0.515,0.507-0.737,0.796
		c-0.1,0.13-0.198,0.3-0.412,0.273C12.612,25.039,12.359,24.786,12.124,24.515z"/>
	<path class="st17" d="M8.604,13.384c-0.017,0.157-0.097,0.279-0.203,0.391c-0.911,0.959-1.821,1.918-2.729,2.881
		c-0.205,0.217-0.395,0.448-0.597,0.668c-0.083,0.09-0.162,0.196-0.306,0.195c-0.229-0.218-0.457-0.435-0.686-0.653
		c-0.053-0.134,0.045-0.209,0.116-0.291c0.619-0.715,1.28-1.392,1.934-2.074c0.37-0.386,0.696-0.811,1.088-1.177
		c0.079-0.034,0.162-0.04,0.247-0.043C7.845,13.323,8.241,13.177,8.604,13.384z"/>
	<path class="st18" d="M23.344,21.442c-0.017-0.164,0.114-0.239,0.204-0.338c1.331-1.465,2.669-2.924,4.039-4.353
		c0.715-0.745,1.41-1.511,2.113-2.268c0.325-0.349,0.713-0.655,0.93-1.1c0.374-0.182,0.759-0.114,1.144-0.051
		c0.017,0.015,0.035,0.031,0.052,0.047c-1.763,1.684-3.524,3.371-5.291,5.052C25.476,19.439,24.408,20.439,23.344,21.442z"/>
	<path class="st19" d="M20.109,5.944c0.08,0.27-0.163,0.389-0.289,0.531c-0.514,0.576-1.063,1.121-1.591,1.685
		c-0.587,0.627-1.163,1.263-1.748,1.892c-0.099,0.106-0.183,0.245-0.356,0.251c-0.201-0.27-0.091-0.579-0.11-0.872
		c0.001-0.257-0.024-0.515,0.031-0.77c0.522-0.514,1.033-1.038,1.499-1.604C18.386,6.655,19.238,6.277,20.109,5.944z"/>
	<path class="st20" d="M7.176,13.384c-0.073,0.264-0.279,0.441-0.45,0.627c-0.617,0.671-1.263,1.315-1.888,1.979
		c-0.264,0.28-0.504,0.583-0.755,0.876c-0.299-0.283-0.598-0.566-0.897-0.848c0.244-0.426,0.631-0.731,0.95-1.091
		c0.437-0.492,0.912-0.953,1.341-1.455c0.066-0.077,0.133-0.149,0.237-0.173c0.385-0.039,0.77-0.015,1.154-0.016
		C6.98,13.282,7.094,13.289,7.176,13.384z"/>
	<path class="st16" d="M12.9,25.255c0.523-0.55,1.058-1.09,1.565-1.655c0.475-0.529,1.022-0.99,1.456-1.557
		c0.048-0.063,0.119-0.088,0.198-0.091c0.137,0.128,0.106,0.298,0.105,0.456c-0.002,0.385,0.023,0.77-0.016,1.154
		c-0.015,0.061-0.04,0.119-0.087,0.162c-0.751,0.681-1.395,1.465-2.095,2.194c-0.089,0.093-0.181,0.18-0.324,0.098
		C13.416,25.783,13.136,25.543,12.9,25.255z"/>
	<path class="st21" d="M25.819,13.306c0.104-0.322,0.379-0.522,0.589-0.757c0.607-0.681,1.256-1.324,1.889-1.981
		c0.284-0.295,0.493-0.664,0.858-0.88c0.22,0.231,0.405,0.489,0.576,0.758c0.1,0.161-0.026,0.258-0.111,0.357
		c-0.625,0.731-1.296,1.419-1.965,2.108c-0.162,0.167-0.278,0.39-0.515,0.48C26.698,13.382,26.247,13.521,25.819,13.306z"/>
	<path class="st22" d="M27.247,13.306c0.004-0.174,0.147-0.255,0.25-0.358c0.724-0.725,1.414-1.481,2.095-2.246
		c0.068-0.076,0.138-0.146,0.138-0.256c0.311,0.355,0.592,0.732,0.855,1.124c-0.476,0.609-1.1,1.085-1.549,1.719
		c-0.037,0.052-0.094,0.08-0.156,0.1c-0.485,0.046-0.97,0.026-1.456,0.014C27.355,13.39,27.292,13.365,27.247,13.306z"/>
	<path class="st23" d="M5.597,13.384c-0.043,0.288-0.299,0.432-0.471,0.609c-0.651,0.671-1.213,1.428-1.941,2.024
		c-0.257-0.248-0.513-0.496-0.77-0.743c0.016-0.048,0.031-0.098,0.068-0.133c0.609-0.576,1.12-1.245,1.731-1.819
		c0.059-0.025,0.12-0.035,0.183-0.039C4.797,13.324,5.213,13.171,5.597,13.384z"/>
	<path class="st24" d="M14.542,7.005c0.338,0.036,0.598,0.259,0.903,0.372c0.094,0.126,0.004,0.219-0.072,0.293
		c-0.779,0.759-1.459,1.615-2.271,2.342c-0.008,0.008-0.024,0.008-0.035,0.012c-0.291-0.119-0.45-0.388-0.669-0.59
		c-0.042-0.061-0.075-0.124-0.046-0.201c0.52-0.588,1.095-1.123,1.604-1.721C14.123,7.317,14.279,7.096,14.542,7.005z"/>
	<path class="st25" d="M8.005,4.589C7.315,5.17,6.761,5.884,6.137,6.53C5.321,7.374,4.546,8.258,3.703,9.076
		C3.656,9.121,3.605,9.161,3.556,9.077c0.504-0.782,1.109-1.489,1.669-2.23C5.919,5.929,6.617,5.014,7.316,4.1
		c0.075-0.098,0.13-0.283,0.308-0.113C7.772,4.175,8.022,4.297,8.005,4.589z"/>
	<path class="st21" d="M13.702,26.017c0.193-0.01,0.249-0.177,0.358-0.294c0.613-0.657,1.239-1.302,1.86-1.952
		c0.055-0.057,0.12-0.088,0.199-0.09c0.206,0.341,0.066,0.716,0.108,1.073c-0.005,0.147,0.008,0.297-0.036,0.441
		c-0.457,0.498-0.967,0.946-1.396,1.472c-0.071,0.086-0.171,0.197-0.315,0.092C14.191,26.543,13.937,26.29,13.702,26.017z"/>
	<path class="st26" d="M13.042,10.001c0.717-0.756,1.436-1.511,2.151-2.268c0.1-0.105,0.244-0.183,0.251-0.355
		c0.202,0.083,0.404,0.167,0.606,0.25c0.2,0.082,0.155,0.24,0.124,0.394c-0.761,0.781-1.497,1.588-2.247,2.381
		c-0.085,0.09-0.168,0.184-0.285,0.237c-0.181,0.042-0.259-0.093-0.351-0.204C13.214,10.288,12.998,10.219,13.042,10.001z"/>
	<path class="st27" d="M12.812,6.254c0.334,0.044,0.6,0.255,0.903,0.373c0.112,0.222-0.055,0.355-0.179,0.476
		c-0.558,0.547-1.04,1.165-1.606,1.703c-0.059,0.023-0.106-0.001-0.15-0.037c-0.177-0.243-0.493-0.382-0.542-0.722
		c0.028-0.306,0.293-0.451,0.461-0.656C12.036,6.981,12.401,6.593,12.812,6.254z"/>
	<path class="st28" d="M4.169,13.384c-0.112,0.38-0.481,0.55-0.701,0.846c-0.294,0.395-0.655,0.743-1.052,1.044
		c-0.311-0.26-0.617-0.526-0.88-0.837c0.379-0.364,0.698-0.785,1.09-1.137c0.411-0.042,0.823-0.016,1.234-0.018
		C3.972,13.282,4.086,13.289,4.169,13.384z"/>
	<path class="st29" d="M11.911,8.8c-0.002-0.111,0.069-0.18,0.138-0.253c0.47-0.493,0.937-0.989,1.408-1.481
		c0.122-0.128,0.235-0.256,0.258-0.44c0.29,0.094,0.572,0.205,0.826,0.378c-0.633,0.693-1.266,1.386-1.9,2.077
		c-0.075,0.082-0.15,0.169-0.277,0.167C12.098,9.216,11.962,9.051,11.911,8.8z"/>
	<path class="st22" d="M14.48,26.76c0.248-0.062,0.361-0.279,0.518-0.448c0.349-0.377,0.65-0.806,1.122-1.051
		c0.085,0.07,0.103,0.168,0.102,0.268c-0.002,0.532,0.034,1.064-0.02,1.595c-0.218,0.236-0.356,0.585-0.769,0.547
		C15.101,27.382,14.767,27.095,14.48,26.76z"/>
	<path class="st30" d="M28.976,13.306c0.061-0.238,0.226-0.404,0.388-0.575c0.306-0.323,0.659-0.603,0.911-0.979
		c0.069-0.104,0.173-0.179,0.31-0.183c0.246,0.264,0.452,0.558,0.645,0.862c0.017,0.02,0.039,0.047,0.03,0.064
		c-0.193,0.362-0.431,0.681-0.824,0.85c-0.298,0.011-0.594-0.014-0.892,0.051C29.36,13.437,29.144,13.465,28.976,13.306z"/>
	<path class="st31" d="M12.812,6.254c-0.356,0.553-0.901,0.941-1.29,1.465c-0.079,0.106-0.214,0.175-0.214,0.331
		c-0.173,0.039-0.241-0.113-0.349-0.192c-0.137-0.192-0.41-0.288-0.415-0.575c0.492-0.434,0.852-0.997,1.367-1.41
		C12.265,5.875,12.496,6.166,12.812,6.254z"/>
	<path class="st32" d="M9.506,4.824c0.503,0.138,0.965,0.372,1.43,0.6c0.077,0.038,0.127,0.112,0.071,0.177
		c-0.328,0.373-0.56,0.841-1.042,1.063C9.703,6.618,9.599,6.393,9.451,6.216c-0.165-0.26-0.507-0.382-0.567-0.725
		C9.063,5.243,9.267,5.017,9.506,4.824z"/>
	<path class="st33" d="M9.956,6.619c0.407-0.268,0.634-0.707,0.986-1.027c0.057-0.052,0.016-0.113-0.006-0.168
		c0.34,0.118,0.679,0.238,0.976,0.45c-0.404,0.517-0.78,1.062-1.351,1.421c-0.163,0.048-0.198-0.104-0.282-0.18
		C10.181,6.944,9.932,6.869,9.956,6.619z"/>
	<path class="st34" d="M2.515,13.384c-0.181,0.486-0.553,0.795-0.979,1.053c-0.373-0.353-0.746-0.705-1.119-1.058
		c0,0,0.02-0.007,0.02-0.007c0.553-0.029,1.108-0.038,1.66-0.089C2.241,13.269,2.398,13.26,2.515,13.384z"/>
	<path class="st35" d="M9.506,4.824C9.382,5.115,9.153,5.312,8.904,5.492C8.82,5.531,8.789,5.469,8.757,5.413
		c-0.171-0.347-0.467-0.58-0.752-0.824C7.911,4.367,7.656,4.248,7.624,3.987C8.264,4.239,8.905,4.485,9.506,4.824z"/>
	<path class="st36" d="M16.119,8.048c-0.003-0.143,0.032-0.292-0.068-0.42c0.531-0.105,0.976-0.431,1.493-0.572
		c-0.141,0.399-1.08,1.402-1.421,1.517C15.967,8.399,16.02,8.224,16.119,8.048z"/>
	<path class="st37" d="M30.555,13.306c0.121-0.372,0.541-0.513,0.675-0.874c0.206,0.258,0.412,0.516,0.619,0.773
		c0.055,0.069,0.071,0.128-0.023,0.175c0,0-0.024-0.008-0.024-0.008C31.39,13.288,30.966,13.409,30.555,13.306z"/>
	<path class="st38" d="M15.433,27.67c0.312-0.026,0.379-0.422,0.686-0.456c0.146,0.155,0.117,0.341,0.075,0.518
		c-0.041,0.17-0.054,0.335-0.01,0.503c0,0,0.008,0.023,0.008,0.023c-0.084,0.132-0.143,0.023-0.195-0.027
		C15.806,28.048,15.621,27.858,15.433,27.67z"/>
	<path class="st39" d="M8.757,5.413c0.049,0.026,0.098,0.053,0.147,0.079c0.2,0.226,0.4,0.451,0.6,0.677
		C8.82,6.962,8.078,7.703,7.368,8.472c-1.304,1.411-2.635,2.797-3.933,4.215c-0.22,0.24-0.394,0.548-0.737,0.658
		c-0.387-0.022-0.775,0.044-1.159-0.038c0.077-0.293,0.325-0.467,0.506-0.676c0.472-0.546,0.989-1.053,1.486-1.578
		c1.275-1.348,2.572-2.677,3.81-4.058C7.812,6.469,8.391,6.034,8.757,5.413z"/>
	<path class="st40" d="M1.538,13.307c0.426,0,0.852,0,1.278,0c0.483-0.198,0.974-0.137,1.466-0.044
		c0.047,0.03,0.06,0.07,0.037,0.121c-0.05,0-0.1,0-0.15,0c-0.551,0-1.103,0-1.654,0c-0.693-0.004-1.386-0.008-2.078-0.013
		C0.798,13.236,1.172,13.345,1.538,13.307z"/>
	<path class="st41" d="M16.121,13.307c0.251,0,0.501,0,0.752,0c0.376,0,0.752,0,1.128,0c0.551,0,1.102,0,1.654,0
		c0.075,0.001,0.15,0.003,0.225,0.004c0.005,0.022,0.01,0.045,0.015,0.067c-0.029,0.037-0.065,0.063-0.109,0.08
		c-0.451,0.074-0.905,0.027-1.357,0.034c-0.563,0.02-1.125,0.002-1.688,0.01c-0.393,0.006-0.42,0.034-0.426,0.434
		c-0.008,0.613,0.01,1.225-0.01,1.838c0.008,0.506,0.018,1.011-0.007,1.516c-0.006,0.069-0.02,0.136-0.058,0.196
		c-0.03,0.043-0.069,0.053-0.117,0.031c-0.001-0.15-0.003-0.3-0.004-0.451c0-0.551,0-1.102,0-1.654c0-0.476,0-0.952,0-1.428
		c0-0.2-0.001-0.4-0.001-0.601c-0.017-0.018-0.023-0.036-0.016-0.053C16.109,13.315,16.115,13.307,16.121,13.307z"/>
	<path class="st42" d="M16.121,13.307c-0.001,0.026-0.002,0.052-0.003,0.078c-0.425,0-0.85-0.001-1.275-0.001
		c-0.451,0-0.902,0-1.353,0c-0.023-0.048-0.012-0.087,0.032-0.117c0.307-0.123,0.628-0.054,0.942-0.066
		c0.511-0.01,1.021,0,1.532-0.007c0.046,0,0.088,0.013,0.125,0.039c0,0,0.001-0.001,0.001-0.001
		C16.122,13.257,16.122,13.282,16.121,13.307z"/>
	<path class="st43" d="M29.728,13.384c-0.193,0.415-0.553,0.697-0.85,1.022c-0.959,1.05-1.965,2.057-2.929,3.102
		c-0.718,0.78-1.441,1.554-2.173,2.321c-1.145,1.2-2.281,2.408-3.403,3.629c-0.717,0.781-1.433,1.561-2.172,2.322
		c-0.573,0.59-1.114,1.21-1.672,1.813c-0.091,0.098-0.172,0.222-0.332,0.222c-0.08-0.31-0.016-0.625-0.037-0.936
		c-0.004-0.093,0.033-0.167,0.1-0.232c1.288-1.26,2.476-2.615,3.718-3.919c1.5-1.576,2.975-3.177,4.466-4.763
		c1.122-1.194,2.231-2.4,3.363-3.586c0.258-0.271,0.498-0.561,0.75-0.839c0.085-0.093,0.155-0.201,0.302-0.194
		C29.148,13.369,29.441,13.303,29.728,13.384z"/>
	<path class="st44" d="M29.728,13.384c-0.326,0-0.652,0-0.977,0c-0.432,0.19-0.872,0.14-1.315,0.047
		c-0.047-0.029-0.06-0.069-0.039-0.119c0.526-0.002,1.053-0.003,1.579-0.005c0.526,0,1.052,0,1.579,0
		c0.415,0.04,0.838-0.073,1.247,0.065c-0.391,0.004-0.782,0.008-1.172,0.012C30.329,13.384,30.029,13.384,29.728,13.384z"/>
	<path class="st45" d="M16.197,26.763c0,0.351,0,0.702,0,1.052c-0.004,0.14-0.008,0.281-0.012,0.421
		c-0.143-0.333-0.023-0.683-0.065-1.022c0-0.651,0-1.303,0-1.954c0.002-0.15,0.003-0.301,0.005-0.451
		c0.048-0.022,0.086-0.011,0.116,0.033c0.038,0.06,0.051,0.128,0.061,0.197c0.022,0.421,0.007,0.843,0.011,1.264
		C16.314,26.466,16.292,26.624,16.197,26.763z"/>
	<path class="st46" d="M16.122,13.233c-0.026,0-0.051,0-0.077,0.001c-0.136,0.04-0.205-0.056-0.268-0.143
		c-0.174-0.241-0.403-0.426-0.614-0.629c-0.09-0.147-0.283-0.234-0.26-0.447c0.256-0.355,0.585-0.642,0.895-0.946
		c0.083-0.082,0.177-0.192,0.321-0.091c0.002,0.201,0.003,0.401,0.005,0.602C16.123,12.131,16.123,12.682,16.122,13.233z"/>
	<path class="st47" d="M13.49,13.31c0,0.024,0,0.049,0,0.073c-0.05,0-0.1,0-0.15,0c-0.551,0-1.103,0-1.654,0
		c-0.376,0-0.752,0-1.128,0c-0.024-0.046-0.015-0.084,0.026-0.114c0.058-0.038,0.123-0.053,0.191-0.06
		c0.405-0.023,0.811-0.015,1.216-0.009c0.461,0.005,0.924-0.043,1.384,0.029C13.422,13.246,13.46,13.273,13.49,13.31z"/>
	<path class="st48" d="M19.88,13.384c0-0.024,0-0.049,0-0.073c0.426-0.002,0.852-0.003,1.278-0.005c0.526,0,1.052,0,1.579,0
		c0.376,0.002,0.751,0.003,1.127,0.005c0.022,0.049,0.01,0.088-0.035,0.117c-0.29,0.117-0.593,0.054-0.891,0.064
		c-0.471,0.014-0.942,0.016-1.413,0.002c-0.397,0.017-0.794,0.011-1.191,0.007C20.175,13.499,20.008,13.514,19.88,13.384z"/>
	<path class="st49" d="M16.124,17.518c0.024,0,0.048,0,0.073,0c0.19,0.24,0.101,0.523,0.116,0.789
		c0.013,0.235,0.005,0.471-0.006,0.706c0.014,0.521,0.014,1.042-0.001,1.562c-0.012,0.347,0.061,0.7-0.063,1.041
		c-0.029,0.046-0.068,0.058-0.118,0.037c-0.002-0.426-0.003-0.852-0.005-1.277c0-0.576,0-1.152,0-1.729
		C16.121,18.27,16.122,17.894,16.124,17.518z"/>
	<path class="st50" d="M10.558,13.31c0,0.024,0,0.049,0,0.073c-0.1,0-0.2,0-0.301,0c-0.551,0-1.102,0-1.654,0
		c-0.401,0-0.802,0-1.203,0C7.378,13.338,7.387,13.3,7.428,13.27c0.079-0.051,0.169-0.059,0.26-0.064
		c0.413-0.018,0.825-0.014,1.238-0.005c0.406-0.02,0.813-0.011,1.219-0.007C10.291,13.194,10.444,13.189,10.558,13.31z"/>
	<path class="st51" d="M23.864,13.384c0-0.024,0-0.048,0-0.073c0.125-0.002,0.251-0.003,0.376-0.005c0.526,0,1.052,0,1.579,0
		c0.476,0,0.952,0,1.428,0c0.05,0.002,0.1,0.003,0.15,0.005c0,0.024,0,0.048,0,0.073C27.287,13.5,27.141,13.488,27,13.49
		c-0.443,0.014-0.885,0.015-1.328,0.003c-0.374,0.008-0.748,0.015-1.123,0C24.318,13.478,24.07,13.559,23.864,13.384z"/>
	<path class="st52" d="M16.119,10.978c-0.429,0.197-0.669,0.605-1.004,0.907c-0.062,0.056-0.093,0.147-0.197,0.146
		c-0.11,0.042-0.16-0.041-0.22-0.104c-0.131-0.242-0.454-0.346-0.478-0.665c0.247-0.391,0.577-0.709,0.904-1.03
		c0.204-0.2,0.392-0.412,0.576-0.631c0.1-0.12,0.195-0.312,0.419-0.201c0.002,0.301,0.003,0.601,0.005,0.902
		C16.122,10.527,16.121,10.753,16.119,10.978z"/>
	<path class="st51" d="M16.124,21.652c0.024,0,0.048,0,0.073,0c0.175,0.206,0.094,0.452,0.109,0.684
		c0.015,0.4,0.009,0.801,0.001,1.201c-0.031,0.425,0.118,0.865-0.11,1.272c-0.024,0-0.048,0-0.073,0
		c-0.002-0.376-0.003-0.751-0.005-1.127c0-0.576,0-1.153,0-1.729C16.121,21.853,16.122,21.752,16.124,21.652z"/>
	<path class="st53" d="M7.401,13.31c0,0.024,0,0.049,0,0.073c-0.075,0-0.15,0-0.226,0c-0.526,0-1.052,0-1.579,0
		c-0.426,0-0.852,0-1.278,0c0-0.025,0-0.049,0-0.074c0.068-0.078,0.159-0.098,0.256-0.103c0.421-0.023,0.842-0.017,1.263-0.008
		c0.383-0.017,0.766-0.011,1.149-0.007C7.133,13.195,7.287,13.189,7.401,13.31z"/>
	<path class="st54" d="M16.119,9.4c-0.173,0.005-0.271,0.136-0.353,0.251c-0.399,0.561-0.983,0.952-1.378,1.515
		c-0.034,0.048-0.097,0.076-0.146,0.113c-0.179,0.044-0.243-0.105-0.34-0.2c-0.068-0.168-0.291-0.252-0.262-0.475
		c0.546-0.595,1.069-1.21,1.653-1.769c0.275-0.263,0.438-0.644,0.826-0.788c0.002,0.175,0.003,0.35,0.005,0.526
		C16.123,8.849,16.121,9.124,16.119,9.4z"/>
	<path class="st55" d="M10.558,13.31c-0.551-0.001-1.102-0.002-1.653-0.003c-0.112-0.24,0.073-0.372,0.202-0.51
		c0.351-0.374,0.7-0.748,1.053-1.119c0.69-0.724,1.358-1.468,2.06-2.18c0.06-0.061,0.113-0.14,0.22-0.1
		c0.23,0.172,0.427,0.376,0.602,0.602c0.1,0.125,0.2,0.25,0.3,0.375c0,0.106-0.044,0.196-0.116,0.268
		c-0.864,0.864-1.665,1.787-2.517,2.663C10.659,13.308,10.609,13.309,10.558,13.31z"/>
	<path class="st56" d="M12.44,9.399c-1.111,1.173-2.221,2.346-3.332,3.519c-0.106,0.111-0.185,0.234-0.203,0.39
		c-0.426,0-0.852,0-1.278,0c-0.104-0.183,0.048-0.276,0.143-0.377c1.275-1.357,2.531-2.73,3.821-4.073
		c0.067-0.07,0.117-0.171,0.243-0.133C11.86,8.75,11.886,8.775,11.911,8.8c0.151,0.15,0.302,0.299,0.453,0.449
		C12.389,9.299,12.415,9.349,12.44,9.399z"/>
	<path class="st57" d="M10.709,13.307c0.141-0.325,0.399-0.562,0.632-0.814c0.66-0.712,1.333-1.412,2.001-2.117
		c0.099,0.076,0.13,0.241,0.298,0.229c0.069,0.17,0.292,0.236,0.304,0.445c0.042,0.099-0.02,0.168-0.076,0.233
		c-0.604,0.696-1.267,1.337-1.881,2.024C11.561,13.307,11.135,13.307,10.709,13.307z"/>
	<path class="st58" d="M11.834,8.724C10.722,9.9,9.59,11.059,8.509,12.263c-0.301,0.336-0.702,0.602-0.882,1.044
		c-0.075,0.001-0.151,0.002-0.226,0.003c-0.526-0.001-1.052-0.002-1.578-0.003c-0.11-0.185,0.047-0.279,0.143-0.377
		c0.92-0.934,1.792-1.913,2.695-2.864c0.644-0.678,1.283-1.363,1.92-2.049c0.106-0.114,0.206-0.31,0.429-0.196
		c0.1,0.076,0.199,0.153,0.299,0.229C11.378,8.358,11.709,8.461,11.834,8.724z"/>
	<path class="st59" d="M11.01,7.821c-0.361,0.127-0.582,0.434-0.799,0.706c-0.446,0.557-0.978,1.029-1.449,1.56
		c-0.901,1.016-1.861,1.98-2.797,2.966c-0.069,0.073-0.144,0.141-0.141,0.253c-0.426,0-0.852,0-1.277,0
		c-0.064-0.211,0.092-0.325,0.21-0.444c0.986-0.99,1.917-2.034,2.877-3.048c0.815-0.86,1.631-1.719,2.425-2.599
		c0.073-0.081,0.134-0.189,0.274-0.146c0.076,0.075,0.152,0.15,0.229,0.224C10.71,7.47,10.86,7.646,11.01,7.821z"/>
	<path class="st60" d="M10.332,7.071C9.525,7.933,8.711,8.788,7.914,9.66c-0.42,0.46-0.873,0.887-1.283,1.359
		c-0.58,0.668-1.216,1.286-1.833,1.921c-0.107,0.11-0.192,0.229-0.252,0.367c-0.075,0.001-0.151,0.002-0.226,0.003
		c-0.501-0.001-1.002-0.002-1.503-0.003c0.218-0.443,0.607-0.747,0.929-1.1c0.957-1.049,1.962-2.054,2.925-3.098
		C7.396,8.321,8.106,7.519,8.872,6.77c0.208-0.203,0.295-0.536,0.633-0.601C9.654,6.32,9.762,6.513,9.956,6.619
		C10.081,6.77,10.207,6.92,10.332,7.071z"/>
	<path class="st61" d="M16.197,19.021c0-0.501,0-1.002,0-1.503c0-0.05,0-0.1,0-0.15c0.404-0.592,0.963-1.046,1.436-1.576
		c0.731-0.818,1.503-1.6,2.247-2.408c0,0,0,0,0,0c0.551,0,1.103,0,1.654,0c0.107,0.164-0.027,0.259-0.116,0.35
		c-0.815,0.825-1.577,1.7-2.381,2.535c-0.813,0.844-1.586,1.725-2.411,2.558C16.516,18.937,16.42,19.135,16.197,19.021z"/>
	<path class="st62" d="M19.88,13.384c-0.037,0.193-0.16,0.337-0.287,0.472c-0.988,1.043-1.975,2.087-2.976,3.118
		c-0.132,0.136-0.174,0.379-0.421,0.394c0-0.526,0-1.052,0-1.579c0.743-0.81,1.486-1.62,2.255-2.405
		C18.928,13.384,19.404,13.384,19.88,13.384z"/>
	<path class="st63" d="M18.452,13.384c-0.107,0.348-0.42,0.541-0.636,0.801c-0.41,0.493-0.91,0.909-1.316,1.411
		c-0.076,0.094-0.16,0.195-0.303,0.193c0-0.696,0.008-1.393-0.005-2.088c-0.004-0.243,0.075-0.326,0.32-0.321
		C17.159,13.393,17.805,13.384,18.452,13.384z"/>
	<path class="st15" d="M14.764,11.881c0.051,0.05,0.103,0.1,0.154,0.15c0.099,0.126,0.199,0.251,0.298,0.377
		c-0.113,0.413-0.488,0.609-0.749,0.899c-0.326,0.001-0.652,0.002-0.978,0.003c-0.025-0.001-0.05-0.002-0.075-0.003
		c-0.061-0.156,0.038-0.263,0.129-0.359c0.295-0.314,0.604-0.615,0.877-0.951C14.5,11.901,14.602,11.777,14.764,11.881z"/>
	<path class="st64" d="M14.468,13.307c0.141-0.39,0.541-0.564,0.749-0.899c0.33,0.222,0.54,0.563,0.828,0.826
		c-0.38,0.168-0.779,0.035-1.168,0.073C14.742,13.32,14.604,13.307,14.468,13.307z"/>
	<path class="st65" d="M27.022,13.384c0.125,0,0.251,0,0.376,0c0.451,0,0.902,0,1.353,0c-0.174,0.402-0.536,0.654-0.808,0.974
		c-0.435,0.512-0.925,0.979-1.384,1.472c-1.3,1.398-2.628,2.769-3.927,4.168c-0.704,0.759-1.404,1.521-2.12,2.269
		c-1.164,1.216-2.314,2.447-3.456,3.684c-0.27,0.292-0.484,0.637-0.86,0.814c0-0.601,0-1.203,0-1.804
		c0.911-0.909,1.789-1.849,2.652-2.803c0.411-0.454,0.839-0.893,1.263-1.333c0.971-1.008,1.925-2.033,2.873-3.06
		C24.33,16.303,25.751,14.912,27.022,13.384z"/>
	<path class="st66" d="M27.022,13.384c-0.089,0.373-0.374,0.613-0.617,0.872c-0.999,1.066-2.023,2.109-3.015,3.18
		c-0.704,0.76-1.412,1.515-2.119,2.271c-1.142,1.221-2.291,2.437-3.425,3.664c-0.439,0.475-0.941,0.895-1.319,1.429
		c-0.073,0.103-0.2,0.146-0.329,0.159c0-0.05,0-0.1,0-0.151c0-0.426,0-0.852,0-1.278c0.775-0.867,1.585-1.702,2.379-2.552
		c1.511-1.618,3.032-3.226,4.539-4.847c0.851-0.916,1.729-1.807,2.553-2.748C26.12,13.384,26.571,13.384,27.022,13.384z"/>
	<path class="st67" d="M14.764,11.881c-0.32,0.063-0.41,0.369-0.598,0.569c-0.26,0.277-0.592,0.491-0.75,0.857
		c-0.476,0-0.952,0-1.429,0c0.093-0.263,0.273-0.465,0.468-0.652c0.528-0.506,1.006-1.057,1.488-1.605
		c0.099,0.076,0.199,0.153,0.298,0.229C14.416,11.48,14.59,11.68,14.764,11.881z"/>
	<path class="st68" d="M16.197,22.329c0-0.226,0-0.451,0-0.677c0-0.351,0-0.701,0-1.052c0.869-0.914,1.731-1.837,2.587-2.763
		c1.255-1.357,2.55-2.677,3.778-4.059c0.125-0.14,0.259-0.271,0.401-0.394c0.301,0,0.601,0,0.902,0c0.226,0,0.451,0,0.677,0
		c0.116,0.206-0.037,0.335-0.15,0.455c-0.746,0.791-1.483,1.59-2.227,2.383c-1.412,1.503-2.831,2.999-4.226,4.518
		c-0.439,0.479-0.903,0.935-1.338,1.419C16.502,22.268,16.4,22.437,16.197,22.329z"/>
	<path class="st69" d="M22.962,13.384c-0.1,0.324-0.378,0.519-0.585,0.755c-0.567,0.645-1.185,1.245-1.775,1.87
		c-1.188,1.258-2.376,2.517-3.554,3.785c-0.268,0.288-0.466,0.644-0.851,0.806c0-0.526,0-1.052,0-1.579
		c0.387-0.155,0.634-0.486,0.877-0.785c0.449-0.552,0.975-1.029,1.447-1.558c0.928-1.04,1.912-2.03,2.873-3.04
		c0.069-0.073,0.143-0.142,0.14-0.253C22.01,13.384,22.486,13.384,22.962,13.384z"/>
	<path class="st70" d="M16.197,22.329c0.272-0.052,0.422-0.278,0.564-0.467c0.415-0.552,0.941-0.998,1.397-1.511
		c0.954-1.072,1.973-2.086,2.958-3.131c1.078-1.144,2.148-2.297,3.222-3.445c0.105-0.112,0.186-0.235,0.203-0.391
		c0.376,0,0.752,0,1.128,0c-0.017,0.157-0.096,0.28-0.203,0.391c-0.562,0.586-1.126,1.17-1.684,1.76
		c-1.217,1.289-2.441,2.571-3.642,3.875c-0.676,0.734-1.376,1.448-2.036,2.196c-0.504,0.571-1.089,1.065-1.55,1.675
		c-0.086,0.114-0.182,0.247-0.356,0.251C16.197,23.13,16.197,22.729,16.197,22.329z"/>
</g>
</svg>
