<?xml version="1.0" encoding="utf-8"?>
<!-- Generator: Adobe Illustrator 25.2.3, SVG Export Plug-In . SVG Version: 6.00 Build 0)  -->
<svg version="1.1" id="Layer_1" xmlns="http://www.w3.org/2000/svg" xmlns:xlink="http://www.w3.org/1999/xlink" x="0px" y="0px"
	 viewBox="0 0 32 32" style="enable-background:new 0 0 32 32;" xml:space="preserve">
<style type="text/css">
	.st0{fill:#FA14A4;}
	.st1{fill:#060004;}
</style>
<path class="st0" d="M1.694,19.188c-0.201,0.127-0.433,0.059-0.649,0.101c-0.137,0.027-0.141-0.118-0.15-0.212
	c-0.116-1.185-0.229-2.37-0.344-3.555c-0.041-0.421-0.085-0.841-0.134-1.261c-0.02-0.169,0.036-0.227,0.214-0.244
	c1.943-0.193,3.886-0.395,5.829-0.596c2.065-0.214,4.129-0.431,6.194-0.643c1.854-0.191,3.709-0.374,5.563-0.565
	c1.632-0.167,3.263-0.34,4.895-0.509c0.133-0.014,0.267-0.012,0.4-0.018c-0.347,0.135-0.633,0.415-1.031,0.43
	c-0.659,0.025-1.3,0.266-1.97,0.162c-0.047-0.007-0.08,0.003-0.11,0.048c-0.123,0.187-0.277,0.145-0.452,0.074
	c-0.132-0.054-0.359-0.136-0.407-0.083c-0.136,0.15-0.064,0.362,0.019,0.533c0.066,0.136,0.147,0.276,0.321,0.32
	c0.073,0.018,0.166,0.05,0.18,0.133c0.051,0.293-0.071,0.562-0.224,0.78c-0.092,0.131-0.346,0.142-0.518,0.058
	c-0.089-0.044-0.101-0.042-0.175,0.019c-0.229,0.191-0.285,0.426-0.076,0.636c0.17,0.171,0.199,0.361,0.197,0.576
	c-0.004,0.525-0.074,1.045-0.164,1.56c-0.035,0.2,0.019,0.294,0.199,0.348c0.084,0.025,0.164,0.063,0.246,0.095
	c-0.975,0.109-1.95,0.222-2.925,0.325c-1.309,0.139-2.619,0.271-3.928,0.403c-0.144,0.015-0.289,0.01-0.434,0.014
	c0.324-0.189,0.446-0.489,0.518-0.845c0.061-0.302,0.175-0.595,0.316-0.878c0.428-0.859,0.973-1.649,1.432-2.49
	c0.049-0.089,0.066-0.217,0.213-0.248c0.055,0.081,0.052,0.173,0.028,0.253c-0.159,0.546-0.245,1.103-0.288,1.668
	c-0.037,0.485-0.107,0.969,0.019,1.454c0.079,0.303,0.27,0.362,0.533,0.276c0.395-0.128,0.663-0.396,0.824-0.777
	c0.039-0.092,0.12-0.201,0.013-0.268c-0.104-0.065-0.13,0.083-0.192,0.135c-0.069,0.058-0.098,0.204-0.219,0.146
	c-0.08-0.039-0.077-0.15-0.071-0.244c0.055-0.847,0.161-1.682,0.518-2.467c0.108-0.237,0.103-0.5,0.094-0.758
	c-0.009-0.278-0.155-0.366-0.418-0.334c-0.408,0.05-0.734,0.229-0.991,0.555c-0.368,0.466-0.685,0.963-0.961,1.488
	c-0.074,0.141-0.139,0.297-0.346,0.405c0.045-0.367,0.076-0.685,0.126-1c0.049-0.305-0.081-0.544-0.358-0.616
	c-0.368-0.095-0.727,0.057-0.813,0.33c-0.206,0.653-0.195,1.349-0.408,2.003c-0.188,0.579-0.221,1.19-0.195,1.848
	c-0.086-0.059-0.125-0.078-0.153-0.107c-0.555-0.558-0.84-1.282-1.197-1.961c-0.049-0.093-0.033-0.2,0.053-0.277
	c0.305-0.275,0.496-0.655,0.851-0.892c0.23-0.153,0.425-0.362,0.621-0.56c0.193-0.196,0.135-0.465-0.136-0.723
	c-0.256-0.244-0.45-0.263-0.655-0.039c-0.362,0.395-0.722,0.793-1.067,1.202c-0.323,0.383-0.395,0.404-0.61-0.053
	c-0.216-0.46-0.648-0.642-1.005-0.921c-0.163-0.127-0.329-0.077-0.469,0.085c-0.386,0.448-0.789,0.882-1.168,1.336
	c-0.165,0.197-0.284,0.178-0.417-0.012c-0.044-0.064-0.097-0.127-0.123-0.199c-0.17-0.476-0.638-0.625-0.99-0.897
	C5,13.611,4.834,13.685,4.698,13.843c-0.379,0.44-0.773,0.866-1.144,1.313c-0.175,0.21-0.301,0.192-0.439-0.016
	c-0.142-0.213-0.245-0.452-0.429-0.637c-0.06-0.06-0.103-0.191-0.201-0.137c-0.117,0.064-0.024,0.18,0.003,0.266
	c0.106,0.333,0.317,0.612,0.487,0.912c0.071,0.126,0.11,0.24,0.042,0.376c-0.354,0.703-0.846,1.323-1.15,2.065
	c-0.128,0.313-0.286,0.603-0.314,0.946C1.544,19.044,1.549,19.155,1.694,19.188z M18.364,12.372c-0.378,0.244-1.11,0.101-1.365,0.84
	c-0.072,0.209-0.022,0.258,0.135,0.248c0.356-0.022,0.311,0.181,0.305,0.427c-0.02,0.778-0.312,1.5-0.431,2.256
	c-0.037,0.232-0.151,0.351-0.354,0.435c-0.194,0.08-0.409,0.149-0.525,0.337c-0.07,0.113-0.217,0.246-0.106,0.388
	c0.114,0.146,0.289,0.081,0.434,0.021c0.268-0.11,0.529-0.238,0.798-0.347c0.19-0.077,0.367-0.165,0.588-0.003
	c0.136,0.1,0.374,0.132,0.396-0.181c0.006-0.087,0.061-0.169,0.076-0.256c0.039-0.228,0.016-0.416-0.294-0.365
	c-0.248,0.041-0.346-0.071-0.278-0.301c0.217-0.731,0.294-1.487,0.397-2.237c0.043-0.313,0.181-0.508,0.505-0.572
	c0.14-0.027,0.328-0.055,0.25-0.299C18.827,12.553,18.821,12.298,18.364,12.372z"/>
<path class="st1" d="M1.694,19.188c-0.145-0.033-0.15-0.144-0.14-0.258c0.028-0.343,0.186-0.632,0.314-0.946
	c0.304-0.742,0.795-1.362,1.15-2.065c0.069-0.136,0.03-0.25-0.042-0.376c-0.17-0.3-0.382-0.579-0.487-0.912
	c-0.027-0.086-0.12-0.202-0.003-0.266c0.098-0.053,0.141,0.078,0.201,0.137c0.184,0.184,0.287,0.424,0.429,0.637
	c0.138,0.208,0.265,0.227,0.439,0.016c0.371-0.447,0.765-0.873,1.144-1.313C4.834,13.685,5,13.611,5.166,13.739
	c0.352,0.272,0.82,0.421,0.99,0.897c0.026,0.072,0.078,0.135,0.123,0.199c0.132,0.191,0.252,0.21,0.417,0.012
	c0.379-0.454,0.782-0.888,1.168-1.336c0.14-0.162,0.305-0.213,0.469-0.085c0.358,0.279,0.789,0.461,1.005,0.921
	c0.214,0.457,0.287,0.435,0.61,0.053c0.345-0.41,0.705-0.808,1.067-1.202c0.205-0.224,0.399-0.205,0.655,0.039
	c0.271,0.259,0.329,0.528,0.136,0.723c-0.196,0.199-0.391,0.407-0.621,0.56c-0.355,0.237-0.545,0.616-0.851,0.892
	c-0.086,0.077-0.102,0.183-0.053,0.277c0.358,0.679,0.642,1.403,1.197,1.961c0.029,0.029,0.067,0.047,0.153,0.107
	c-0.027-0.658,0.006-1.268,0.195-1.848c0.213-0.655,0.201-1.35,0.408-2.003c0.086-0.273,0.445-0.425,0.813-0.33
	c0.277,0.072,0.407,0.311,0.358,0.616c-0.051,0.315-0.081,0.633-0.126,1c0.208-0.109,0.272-0.264,0.346-0.405
	c0.276-0.525,0.593-1.022,0.961-1.488c0.257-0.325,0.582-0.504,0.991-0.555c0.263-0.032,0.409,0.056,0.418,0.334
	c0.008,0.258,0.014,0.52-0.094,0.758c-0.357,0.785-0.464,1.62-0.518,2.467c-0.006,0.093-0.009,0.205,0.071,0.244
	c0.121,0.058,0.15-0.088,0.219-0.146c0.062-0.052,0.088-0.2,0.192-0.135c0.107,0.067,0.026,0.176-0.013,0.268
	c-0.161,0.381-0.429,0.649-0.824,0.777c-0.264,0.085-0.455,0.026-0.533-0.276c-0.126-0.485-0.056-0.969-0.019-1.454
	c0.043-0.565,0.129-1.122,0.288-1.668c0.023-0.08,0.027-0.172-0.028-0.253c-0.147,0.032-0.164,0.159-0.213,0.248
	c-0.459,0.841-1.004,1.631-1.432,2.49c-0.141,0.283-0.254,0.576-0.316,0.878c-0.072,0.356-0.194,0.656-0.518,0.845
	c-0.236,0.13-0.49,0.074-0.739,0.07c-0.112-0.01-0.224-0.019-0.299-0.119c-0.281-0.37-0.633-0.688-0.802-1.139
	c-0.074-0.197-0.159-0.393-0.263-0.575c-0.147-0.258-0.308-0.281-0.441-0.027c-0.243,0.464-0.595,0.851-0.849,1.306
	c-0.167,0.299-0.213,0.678-0.535,0.884c0,0,0.009-0.001,0.009-0.001c-0.264-0.005-0.57,0.044-0.5-0.39
	c0.003-0.016-0.02-0.04-0.036-0.055c-0.392-0.374-0.538-0.888-0.773-1.352c-0.164-0.324-0.343-0.337-0.516-0.008
	c-0.182,0.347-0.438,0.639-0.64,0.968c-0.156,0.255-0.337,0.514-0.412,0.796c-0.099,0.372-0.381,0.335-0.624,0.349
	c-0.241,0.014-0.088-0.215-0.135-0.326c-0.013-0.03-0.019-0.068-0.041-0.089c-0.41-0.389-0.553-0.931-0.81-1.408
	c-0.152-0.282-0.31-0.302-0.453-0.02c-0.244,0.477-0.63,0.855-0.856,1.342c-0.178,0.383-0.396,0.748-0.852,0.867L1.694,19.188z
	 M6.239,15.431c-0.171-0.295-0.345-0.603-0.528-0.906c-0.034-0.056-0.1-0.028-0.143,0.015c-0.509,0.511-1.118,0.92-1.547,1.513
	c-0.076,0.105-0.084,0.211-0.03,0.314c0.239,0.453,0.482,0.903,0.733,1.35c0.111,0.197,0.227,0.191,0.321-0.022
	c0.179-0.404,0.295-0.834,0.576-1.193c0.184-0.236,0.324-0.506,0.478-0.764C6.148,15.652,6.182,15.557,6.239,15.431z M9.371,15.138
	c-0.032-0.188-0.151-0.327-0.239-0.48c-0.305-0.529-0.3-0.519-0.749-0.122c-0.4,0.354-0.812,0.69-1.137,1.12
	C7.151,15.781,7.06,15.89,7.14,16.043c0.239,0.453,0.482,0.904,0.732,1.35c0.115,0.206,0.263,0.199,0.323-0.028
	c0.175-0.662,0.61-1.178,0.942-1.752c0.056-0.096,0.111-0.193,0.161-0.293C9.328,15.261,9.348,15.197,9.371,15.138z"/>
<path class="st0" d="M26.566,11.348c0.712-0.066,1.424-0.132,2.136-0.198c-0.107,0.305-0.207,0.612-0.322,0.914
	c-0.279,0.73-0.612,1.434-1.027,2.097c-0.053,0.085-0.101,0.241-0.228,0.193c-0.109-0.041-0.04-0.179-0.028-0.274
	c0.054-0.442,0.103-0.884,0.173-1.324c0.043-0.273-0.008-0.484-0.268-0.618c-0.25-0.128-0.684-0.103-0.85,0.075
	c-0.375,0.404-0.618,0.887-0.856,1.479c0.164-0.116,0.249-0.183,0.341-0.241c0.061-0.038,0.12-0.128,0.201-0.062
	c0.057,0.046,0.024,0.127,0.01,0.19c-0.071,0.306-0.088,0.617-0.086,0.93c0.002,0.365,0.293,0.742,0.6,0.768
	c0.384,0.033,1.006-0.31,1.019-0.613c0.012-0.274,0.163-0.44,0.303-0.646c0.101,0.472-0.062,0.911-0.08,1.359
	c-0.01,0.24-0.101,0.374-0.309,0.494c-0.597,0.347-1.22,0.638-1.849,0.919c-1.758,0.177-3.517,0.354-5.275,0.53
	c-0.076,0.008-0.154,0-0.231,0c0.073-0.056,0.123-0.118,0.131-0.22c0.053-0.65,0.305-1.255,0.433-1.887
	c0.09-0.445,0.324-0.709,0.739-0.856c0.336-0.119,0.673-0.242,0.989-0.402c0.165-0.084,0.435-0.214,0.36-0.412
	c-0.055-0.146-0.342-0.069-0.515-0.008c-0.299,0.105-0.612,0.107-0.918,0.16c-0.235,0.041-0.316-0.068-0.258-0.317
	c0.061-0.266,0.194-0.39,0.465-0.436c0.29-0.048,0.582-0.085,0.858-0.24c0.166-0.093,0.398-0.19,0.605-0.126
	c0.185,0.057,0.369-0.026,0.425-0.113c0.173-0.265,0.392-0.139,0.561-0.086c0.208,0.064,0.165,0.295,0.143,0.469
	c-0.024,0.187-0.063,0.375-0.124,0.553c-0.23,0.668-0.378,1.354-0.449,2.054c-0.042,0.417-0.109,0.845,0.085,1.252
	c0.086,0.18,0.174,0.24,0.35,0.09c0.236-0.201,0.411-0.426,0.492-0.734c0.078-0.295,0.091-0.595,0.131-0.893
	c0.127-0.946,0.52-1.817,0.752-2.733c0.066-0.26,0.231-0.405,0.5-0.48C26.05,11.86,26.391,11.713,26.566,11.348z"/>
<path class="st1" d="M26.566,11.348c-0.175,0.365-0.516,0.512-0.869,0.611c-0.268,0.075-0.434,0.22-0.5,0.48
	c-0.232,0.916-0.626,1.787-0.752,2.733c-0.04,0.298-0.053,0.598-0.131,0.893c-0.082,0.308-0.257,0.534-0.492,0.734
	c-0.176,0.15-0.264,0.09-0.35-0.09c-0.194-0.407-0.127-0.835-0.085-1.252c0.071-0.7,0.219-1.386,0.449-2.054
	c0.061-0.178,0.099-0.366,0.124-0.553c0.023-0.174,0.065-0.404-0.143-0.469c-0.169-0.052-0.389-0.179-0.561,0.086
	c-0.057,0.087-0.24,0.17-0.425,0.113c-0.208-0.064-0.439,0.033-0.605,0.126c-0.276,0.154-0.568,0.191-0.858,0.24
	c-0.271,0.045-0.404,0.17-0.465,0.436c-0.058,0.249,0.023,0.358,0.258,0.317c0.306-0.053,0.619-0.055,0.918-0.16
	c0.173-0.061,0.46-0.137,0.515,0.008c0.075,0.198-0.195,0.328-0.36,0.412c-0.316,0.161-0.654,0.283-0.989,0.402
	c-0.415,0.147-0.649,0.411-0.739,0.856c-0.128,0.632-0.379,1.237-0.433,1.887c-0.008,0.101-0.058,0.163-0.131,0.22
	c-0.132,0.018-0.264,0.035-0.395,0.052c-0.082-0.032-0.162-0.069-0.246-0.095c-0.179-0.054-0.234-0.148-0.199-0.348
	c0.09-0.515,0.159-1.035,0.164-1.56c0.002-0.215-0.027-0.405-0.197-0.576c-0.208-0.21-0.153-0.446,0.076-0.636
	c0.074-0.061,0.086-0.063,0.175-0.019c0.172,0.085,0.426,0.074,0.518-0.058c0.153-0.218,0.275-0.488,0.224-0.78
	c-0.014-0.083-0.107-0.115-0.18-0.133c-0.173-0.044-0.254-0.183-0.321-0.32c-0.083-0.171-0.155-0.384-0.019-0.533
	c0.049-0.054,0.276,0.029,0.407,0.083c0.175,0.072,0.329,0.113,0.452-0.074c0.03-0.045,0.063-0.055,0.11-0.048
	c0.67,0.104,1.311-0.137,1.97-0.162c0.398-0.015,0.684-0.294,1.031-0.43c0.911-0.353,1.866-0.54,2.818-0.731
	C26.666,10.888,26.495,11.209,26.566,11.348z"/>
<path class="st0" d="M29.003,11.105c0.62-0.064,1.241-0.123,1.86-0.194c0.139-0.016,0.196,0.001,0.211,0.158
	c0.13,1.381,0.265,2.762,0.407,4.141c0.032,0.314,0.207,0.724,0.025,0.914c-0.164,0.172-0.588,0.097-0.898,0.128
	c-0.709,0.071-1.418,0.14-2.127,0.21c0.197-0.503,0.026-1.154,0.681-1.484c-0.45-0.109-0.532-0.27-0.356-0.624
	c0.219-0.442,0.143-0.918,0.143-1.373c0-0.49-0.077-0.979,0.119-1.446C29.138,11.366,29.107,11.236,29.003,11.105z"/>
<path class="st1" d="M29.003,11.105c0.104,0.131,0.135,0.261,0.064,0.431c-0.196,0.467-0.119,0.956-0.119,1.446
	c0,0.455,0.077,0.931-0.143,1.373c-0.176,0.354-0.093,0.514,0.356,0.624c-0.655,0.33-0.483,0.981-0.681,1.484
	c-0.126,0.297-0.426,0.367-0.665,0.521c-0.569,0.368-1.194,0.493-1.858,0.462c-0.374-0.017-0.624-0.347-0.512-0.653
	c0.629-0.282,1.252-0.572,1.849-0.919c0.208-0.121,0.3-0.254,0.309-0.494c0.018-0.448,0.182-0.887,0.08-1.359
	c-0.14,0.205-0.292,0.371-0.303,0.646c-0.013,0.302-0.635,0.645-1.019,0.613c-0.307-0.026-0.598-0.404-0.6-0.768
	c-0.002-0.313,0.016-0.624,0.086-0.93c0.015-0.064,0.048-0.144-0.01-0.19c-0.082-0.066-0.141,0.024-0.201,0.062
	c-0.092,0.057-0.177,0.124-0.341,0.241c0.238-0.592,0.481-1.074,0.856-1.479c0.166-0.179,0.6-0.204,0.85-0.075
	c0.261,0.134,0.311,0.345,0.268,0.618c-0.069,0.439-0.118,0.882-0.173,1.324c-0.012,0.095-0.081,0.232,0.028,0.274
	c0.127,0.048,0.174-0.108,0.228-0.193c0.414-0.663,0.748-1.368,1.027-2.097c0.115-0.302,0.215-0.609,0.322-0.914
	C28.795,11.084,28.892,11.053,29.003,11.105z M27.246,16.619c0.033-0.043,0.081-0.081,0.097-0.13
	c0.037-0.106,0.172-0.226,0.039-0.325c-0.102-0.076-0.207,0.039-0.29,0.104c-0.247,0.194-0.54,0.298-0.818,0.431
	c-0.109,0.032-0.264,0.019-0.239,0.2c0.026,0.183,0.352,0.365,0.519,0.272C26.813,17.026,27.085,16.889,27.246,16.619z"/>
<path class="st0" d="M1.691,19.19c0.456-0.119,0.674-0.484,0.852-0.867c0.226-0.487,0.612-0.865,0.856-1.342
	c0.144-0.282,0.301-0.262,0.453,0.02c0.257,0.477,0.4,1.019,0.81,1.408c0.022,0.021,0.028,0.059,0.041,0.089
	c0.047,0.111-0.106,0.34,0.135,0.326c0.242-0.014,0.525,0.023,0.624-0.349c0.075-0.282,0.255-0.541,0.412-0.796
	c0.202-0.329,0.457-0.621,0.64-0.968c0.173-0.329,0.352-0.316,0.516,0.008c0.235,0.464,0.381,0.978,0.773,1.352
	c0.016,0.015,0.038,0.039,0.036,0.055c-0.07,0.435,0.236,0.385,0.5,0.39c-0.656,0.136-1.325,0.159-1.988,0.231
	c-1.442,0.156-2.885,0.298-4.328,0.443C1.913,19.202,1.801,19.191,1.691,19.19z"/>
<path class="st0" d="M8.329,18.519c0.322-0.206,0.367-0.585,0.535-0.884c0.255-0.455,0.606-0.842,0.849-1.306
	c0.133-0.254,0.294-0.231,0.441,0.027c0.104,0.183,0.189,0.378,0.263,0.575c0.169,0.451,0.522,0.769,0.802,1.139
	c0.076,0.1,0.188,0.109,0.299,0.119c-0.737,0.149-1.489,0.173-2.233,0.257C8.968,18.482,8.652,18.555,8.329,18.519z"/>
<path class="st1" d="M18.364,12.372c0.457-0.074,0.463,0.182,0.531,0.393c0.078,0.244-0.109,0.271-0.25,0.299
	c-0.324,0.063-0.462,0.258-0.505,0.572c-0.104,0.75-0.18,1.506-0.397,2.237c-0.068,0.23,0.03,0.342,0.278,0.301
	c0.31-0.051,0.333,0.137,0.294,0.365c-0.015,0.087-0.07,0.169-0.076,0.256c-0.022,0.313-0.26,0.28-0.396,0.181
	c-0.221-0.162-0.398-0.073-0.588,0.003c-0.269,0.108-0.53,0.236-0.798,0.347c-0.145,0.06-0.32,0.124-0.434-0.021
	c-0.111-0.142,0.036-0.275,0.106-0.388c0.116-0.189,0.331-0.258,0.525-0.337c0.203-0.084,0.318-0.202,0.354-0.435
	c0.119-0.756,0.411-1.478,0.431-2.256c0.006-0.246,0.052-0.449-0.305-0.427c-0.157,0.01-0.207-0.039-0.135-0.248
	C17.254,12.473,17.986,12.616,18.364,12.372z"/>
<path class="st0" d="M6.239,15.431c-0.057,0.125-0.091,0.221-0.141,0.306c-0.154,0.258-0.294,0.529-0.478,0.764
	c-0.28,0.359-0.397,0.789-0.576,1.193c-0.094,0.213-0.211,0.219-0.321,0.022c-0.25-0.447-0.493-0.897-0.733-1.35
	c-0.054-0.102-0.046-0.209,0.03-0.314c0.43-0.593,1.038-1.002,1.547-1.513c0.043-0.043,0.109-0.071,0.143-0.015
	C5.894,14.828,6.068,15.136,6.239,15.431z"/>
<path class="st0" d="M9.371,15.138c-0.023,0.059-0.042,0.123-0.072,0.182c-0.05,0.099-0.105,0.196-0.161,0.293
	c-0.332,0.574-0.768,1.09-0.942,1.752c-0.06,0.227-0.207,0.234-0.323,0.028c-0.251-0.446-0.494-0.897-0.732-1.35
	c-0.08-0.152,0.011-0.261,0.105-0.386c0.326-0.43,0.738-0.767,1.137-1.12c0.449-0.397,0.444-0.407,0.749,0.122
	C9.219,14.811,9.338,14.95,9.371,15.138z"/>
<path class="st0" d="M27.246,16.619c-0.324,0.027-0.648,0.053-0.972,0.08c0.279-0.133,0.571-0.237,0.819-0.431
	c0.083-0.065,0.188-0.18,0.29-0.104c0.133,0.099-0.003,0.219-0.039,0.325C27.327,16.537,27.279,16.576,27.246,16.619z"/>
</svg>
