<svg xmlns="http://www.w3.org/2000/svg" viewBox="0 0 400 399.5"><ellipse cx="196.1" cy="198" rx="175" ry="172" fill="#fff"/><path d="M270.3 210.9c.4.1 1 .1 1.4 0 .4-.1.1-.2-.7-.2-.7 0-1 .1-.7.2" fill="#333"/><path d="M181.1.5c-3.2.2-5.9.5-6 .7-.1.2-2.4.5-5.1.8-2.7.3-5.2.6-5.4.8-.2.1-2 .6-4 .9-8.3 1.6-10.4 2-10.8 2.3-.2.2-1.4.5-2.5.6-1.1.2-2.1.4-2.1.6s-.8.4-1.7.6c-.9.2-2.2.5-2.9.8-.7.3-2.7 1-4.6 1.6-1.9.6-4 1.3-4.7 1.7-.7.3-1.4.6-1.6.6-.2 0-1.5.5-2.9 1-2.7 1-3.6 1.4-6.9 2.9-1 .5-2 .8-2.3.8-.3 0-.5.2-.5.4s-.2.4-.5.4-1.6.5-3 1.2-2.7 1.2-2.9 1.2c-.2 0-.4.1-.5.3-.1.2-1.2.8-2.5 1.5s-2.5 1.3-2.6 1.4c-.1.1-1.1.7-2.2 1.2-2.3 1.1-5.1 2.8-5.3 3.3-.1.2-.3.3-.6.3-.4 0-3.4 1.8-4.5 2.7-.2.2-.8.5-1.3.6-.5.2-.9.4-.9.6 0 .2-.5.5-1.2.8s-1.1.7-1.1.8c0 .1-.9.8-2 1.5s-2 1.3-2 1.5c0 .2-.3.3-.6.3s-.8.3-1.1.7c-.3.4-1 1-1.5 1.3-1 .5-1.5.9-2.8 2-.4.3-1.4 1.1-2.3 1.8-.9.7-1.8 1.4-2 1.6s-1.2 1-2.2 1.8c-.9.8-2.4 2.1-3.3 2.9-.8.8-1.7 1.5-1.8 1.5-.7 0-18.3 18.4-18.2 18.9.1.2-.1.3-.2.3-.2 0-1.7 1.7-3.3 3.7-1.6 2-3.2 3.9-3.5 4.1-.3.2-.5.7-.5.9 0 .3-.3.6-.6.7-.3.1-.6.4-.6.6 0 .2-.5 1-1 1.7-.6.7-1.1 1.4-1.3 1.7-.2.2-.7 1-1.1 1.7-.4.7-.9 1.3-1.1 1.3-.2 0-.3.3-.3.6s-.3.7-.6.8c-.3.1-.6.4-.6.6 0 .2-.4 1-.9 1.6-1 1.4-1.6 2.4-2.4 3.9-.3.6-.7 1.2-1 1.5-.3.3-.5.7-.5.9 0 .2-.2.6-.5.9-.6.6-1.2 1.8-3.2 5.5-.7 1.4-1.4 2.7-1.6 2.8-.1.1-1.1 2-2.2 4.2s-2.1 4.1-2.2 4.2c-.2.1-.4.6-.6 1.2-.2.5-1 2.5-1.9 4.3-.9 1.8-1.6 3.6-1.6 3.9 0 .3-.2.6-.4.6s-.5.6-.6 1.2c-.1.7-.5 1.8-.8 2.5-.7 1.4-1.7 4.2-2.3 6.3-.2.8-.5 1.5-.7 1.6-.2.1-.5 1.3-.8 2.6-.3 1.3-.7 2.6-.8 2.8-.2.2-.5 1.5-.8 2.8-.3 1.3-.6 2.6-.8 2.8-.2.2-.4 1.1-.6 2-.2.9-.4 1.8-.6 2-.2.2-.5 1.8-.8 3.6-.3 1.8-.7 3.4-.8 3.6-.2.2-.5 2.1-.8 4.2s-.6 4-.8 4.2c-.2.2-.5 2.9-.8 6-.3 3.1-.6 5.7-.8 5.8-.6.4-1.2 22.5-.8 32 .2 5.2.4 10 .4 10.7 0 .7.2 1.2.3 1.1.2-.1.6 2.4.8 5.7s.7 6.1.8 6.3c.2.2.5 2.1.8 4.2.3 2.1.6 3.9.8 4 .2.1.5 1.6.8 3.4.3 1.7.6 3.4.8 3.6.2.2.5 1.2.6 2.2.2 1 .4 2 .6 2.2s.5 1.5.8 2.8c.3 1.3.6 2.6.8 2.8.2.2.5 1.3.8 2.4.3 1.1.6 2.2.8 2.4.2.2.5 1 .6 1.8.2.8.6 2.2 1 3.1.4.9.8 2 .8 2.3 0 .3.2.6.4.6s.5.6.6 1.2c.1.7.5 1.8.8 2.5.3.7 1.1 2.4 1.7 3.9.6 1.4 1.3 2.7 1.4 2.7.2.1.3.4.3.8 0 .6 4.6 10.3 5.5 11.4.2.2.9 1.6 1.7 3 2.1 3.9 6.2 10.8 7.7 12.8 1.6 2.1 3.5 5.2 3.5 5.5 0 .2.2.4.3.4.2 0 1.1 1.1 2.1 2.5 1.7 2.4 7.8 10.1 8.8 11.3.3.3 1.5 1.7 2.7 3.1 1.2 1.4 3.1 3.5 4.2 4.6 1.1 1.1 2.6 2.8 3.4 3.6 1.5 1.6 7 6.7 12.3 11.4 1.4 1.3 10.6 8.4 11.6 9.1.5.3 1.2.9 1.5 1.3.3.4.8.7.9.7.2 0 1.3.7 2.4 1.5 1.2.8 2.5 1.8 3.1 2.1 4 2.7 6 4 6.2 4 .1 0 .9.4 1.7 1 2.5 1.6 4.8 2.8 11.7 6.3 3.6 1.8 6.7 3.5 6.8 3.6.1.2.4.3.6.4.5 0 2.1.6 4 1.5.9.4 1.9.8 2.3.8.4 0 .8.2.9.4.1.2 1 .6 2 .8s1.8.6 1.8.8c0 .2.6.4 1.3.6.7.2 1.5.4 1.7.6.2.2 1.3.5 2.4.8 1.1.3 2.2.6 2.4.8.2.2 1.3.5 2.4.8 1.1.3 2.2.6 2.4.8.2.2 1.1.4 2 .6.9.2 2.1.5 2.6.8.6.3 1.9.6 3 .8 1.1.2 2.2.4 2.4.6s1.7.5 3.2.8c1.5.3 3 .6 3.2.8.2.2 2 .5 4 .8 2 .3 4 .6 4.4.8.4.2 2.2.5 4 .7 1.8.2 3.6.5 4.2.6 6.9 1.7 46.4 1.6 53.2 0 .5-.1 2.6-.4 4.6-.7 2-.2 3.7-.5 3.8-.7.1-.1 1.8-.5 3.8-.8 2-.3 3.9-.6 4.2-.8.3-.2 2-.5 3.6-.8 1.6-.3 3.2-.6 3.4-.8.2-.2 1.2-.4 2.2-.6 1-.2 2.3-.5 3-.8.7-.3 1.8-.7 2.6-.8.8-.2 1.6-.4 1.8-.6.2-.2 1.4-.5 2.6-.8 1.2-.3 2.6-.8 3.2-1 .6-.3 1.3-.5 1.6-.5.3 0 1.1-.3 1.7-.6.6-.3 1.6-.7 2.3-.8.7-.1 1.2-.4 1.2-.6 0-.2.9-.5 2-.8 1.1-.3 2-.6 2-.8s.3-.4.7-.4c.4 0 1.6-.4 2.7-1 1.1-.5 2.5-1.1 3.1-1.2.6-.2 1.1-.4 1.1-.6 0-.2.5-.4 1.2-.6.7-.1 1.2-.4 1.2-.6s.7-.5 1.6-.8c.9-.3 1.6-.6 1.6-.8 0-.1.7-.5 1.6-.8s1.6-.7 1.6-.8c0-.2.5-.4 1.2-.6.7-.1 1.2-.4 1.2-.6 0-.2.7-.6 1.5-1 2-.9 6-3.1 6.6-3.7.3-.3.7-.5.9-.5.3 0 .8-.4 1.2-.8s.9-.8 1.2-.8c.2 0 1.5-.7 2.8-1.7 1.3-.9 3.5-2.4 4.8-3.3 1.3-.9 2.5-1.7 2.6-1.8.1-.1 1-.7 2-1.4s2-1.4 2.2-1.6c.2-.2 1.1-1 2-1.6s2.7-2.1 4-3.2c1.3-1.1 2.8-2.4 3.4-2.8 1.5-1.2 5.3-4.7 6.2-5.7.4-.5.9-.9 1.1-.9.6 0 10.9-10.8 15.4-16.2.9-1 2-2.4 2.6-3 .5-.6 2.1-2.6 3.4-4.3 1.3-1.8 2.5-3.2 2.7-3.2.2 0 .3-.2.3-.4s1.2-2.1 2.6-4.1c1.4-2 2.8-3.9 3-4.3 2.3-3.5 2.8-4.3 2.8-4.7 0-.3.1-.5.3-.5.8 0 14.1-25.3 14.1-26.9 0-.2.4-1.1.8-2.1s.9-2.3 1-3c.1-.7.4-1.2.5-1.2s.4-.6.6-1.4c.1-.8.4-1.4.6-1.4.2 0 .5-1 .8-2.2.3-1.2.7-2.7 1.1-3.3.3-.6.7-1.8.8-2.8.1-.9.4-1.7.6-1.7.2 0 .5-.8.6-1.8.1-1 .4-1.8.5-1.8.1 0 .3-.3.3-.7.1-1.2.9-4.7 1.3-5.3.2-.3.6-2.1.9-3.8.3-1.7.7-3.3.8-3.4.2-.1.5-1.9.8-4 .3-2.1.6-3.9.8-4 .2-.1.5-2 .7-4.2.2-2.2.6-5.2.8-6.6.8-5.4 1.3-22.9.8-33.4-.4-9.8-.5-11.3-1-14.5-.1-.8-.4-3.2-.7-5.3-.3-2.2-.6-3.8-.7-3.7-.1.1-.5-1.7-.8-4.2-.3-2.4-.6-4.4-.8-4.4-.2 0-.5-1.5-.8-3.3-.3-1.8-.7-3.5-.8-3.7-.2-.2-.5-1.3-.7-2.4-.6-2.7-1.8-7.1-2.1-7.4-.1-.1-.5-1.2-.8-2.4-.3-1.2-.7-2.4-.8-2.6-.2-.2-.4-1-.6-1.8-.2-.8-.5-1.8-.8-2.3-.3-.5-.6-1.1-.6-1.3 0-.2-.3-1.2-.8-2.1-.4-.9-.9-2.3-1-3-.2-.7-.4-1.3-.6-1.3-.2 0-.4-.3-.4-.6 0-.6-1.2-3.5-3.6-8.4-.9-1.8-1.6-3.4-1.6-3.7s-.1-.5-.3-.6c-.2-.1-1.2-1.9-2.3-4-2.9-5.7-3.3-6.4-3.7-6.9-.2-.2-.5-.8-.8-1.3-.3-.5-.7-1.3-1-1.8-.3-.5-1.1-1.7-1.8-2.8-.7-1.1-1.3-2-1.3-2.1s-1.1-1.8-2.4-3.6c-1.3-1.9-2.4-3.5-2.4-3.6 0-.1-.3-.5-.6-.9-.6-.6-3.5-4.4-4.6-6-.3-.5-.9-1.2-1.2-1.6-.3-.4-1-1.3-1.6-2-.5-.7-1.4-1.7-1.8-2.2-1.4-1.5-3.5-4-5.2-6-2.1-2.4-12.7-13.1-14-14.1-.6-.4-1.8-1.5-2.7-2.3-.9-.9-2.5-2.2-3.4-3-.9-.8-1.9-1.6-2.2-1.8-.3-.2-1.4-1.1-2.6-2-1.2-.9-2.1-1.7-2.1-1.9 0-.2-.2-.3-.4-.3s-1.6-.9-3.1-2.1c-1.5-1.2-3.1-2.3-3.5-2.6-.4-.3-1.7-1.1-2.8-1.9-1.1-.8-2.4-1.6-3-1.9-.5-.3-1.1-.6-1.2-.7-.1-.1-1.1-.8-2.2-1.5s-2.2-1.4-2.4-1.6c-.2-.2-1-.6-1.8-1s-2.5-1.3-3.8-2.1c-1.3-.8-2.9-1.7-3.6-2-.7-.3-1.5-.8-1.8-1-.6-.4-9.9-4.8-12.2-5.8-.7-.3-2-.9-3-1.4-1-.5-2.4-1-3.1-1.1-.7-.1-1.3-.4-1.3-.6s-.3-.4-.7-.4c-.4 0-1.4-.3-2.3-.8-2.1-1-7.8-2.8-8.7-2.8-.4 0-.7-.2-.8-.3-.1-.2-1.3-.6-2.7-1-4.3-1-6.2-1.5-7-1.9-.4-.2-2-.6-3.4-.8-1.4-.3-2.8-.6-3-.8-.2-.2-2.2-.5-4.3-.8-2.1-.3-3.9-.6-3.9-.8 0-.1-2.3-.5-5.1-.7-2.8-.3-5.5-.6-5.9-.8-1.9-1.1-30.4-1.5-43.2-.7M218 43.1c.3.2 2.9.6 5.8.9 2.9.3 5.3.6 5.3.8 0 .2 1.2.4 2.6.6 1.4.2 2.7.4 2.8.6.1.2 1.6.6 3.4.8 1.8.3 3.2.6 3.2.8 0 .2 1.2.5 2.6.8 1.4.3 2.6.6 2.6.8s.7.4 1.6.6c.9.1 2.1.5 2.7.8.6.3 1.7.7 2.6.8.8.2 1.5.4 1.5.6 0 .2 1 .5 2.2.8 1.2.3 2.2.6 2.2.8 0 .2.8.5 1.8.8 1 .3 1.8.6 1.8.8s.5.4 1.2.6c.7.1 1.2.4 1.2.6 0 .2.5.4 1.1.6 1.4.3 5.1 2.2 8.7 4.2 1.5.9 3.5 2 4.4 2.4.9.5 2 1.2 2.5 1.6.5.4 1 .8 1.1.8.7 0 12.2 8 14.4 10 .5.4 1 .8 1.3.8s.6.3.8.6c.2.3.9 1 1.6 1.5 1.9 1.4 8.6 7.7 12.1 11.3 1.6 1.7 3.4 3.5 3.9 4s.9 1 .9 1.1c0 .1.6.8 1.3 1.5 2.8 2.8 10.3 12.6 10.3 13.4 0 .2.3.6.7 1 1 .9 1.4 1.5 2.1 2.9.3.7.7 1.3.8 1.4.5.5 2.9 4.3 3.7 6 .3.5.6 1.1.8 1.2.4.3 3.9 7.4 3.9 7.9 0 .2.2.7.5 1 .7.7 2.1 3.8 2.5 5.2.1.6.4 1.1.6 1.1.2 0 .4.3.4.6s.4 1.4.8 2.3c.4.9.9 2.2 1 3 .1.7.4 1.3.6 1.3.2 0 .3.2.1.4-.1.2 0 .5.2.6.2.1.4.6.4.9 0 .4.3 1.2.6 1.8.3.6.8 2.1 1.1 3.3.3 1.2.6 2.2.8 2.2s.3.4.3.9.3 1.9.6 3.1c.3 1.2.8 3 1 4 .2 1 .5 2 .7 2.2.2.2.5 2.1.8 4.2.3 2.1.6 4 .8 4.2.2.2.5 2.7.8 5.6.3 2.9.7 5.9.9 6.8.6 2.1.7 28.5 0 28.9-.2.2-.6 3-.9 6.3-.3 3.3-.7 6.2-.8 6.4-.2.2-.5 2-.8 4-.3 2-.6 3.8-.8 4-.2.2-.5 1.3-.6 2.5-.2 1.1-.4 2.1-.5 2.1-.1 0-.5 1.1-.8 2.5-.3 1.4-.7 2.7-.8 2.9-.2.2-.5 1.5-.8 2.9-.3 1.4-.7 2.5-.8 2.5-.2 0-.4.7-.6 1.6-.1.9-.4 1.6-.7 1.6-.2 0-.3.2-.2.4.1.2 0 .5-.2.6s-.4.5-.4.8c0 .3-.4 1.4-.8 2.4s-.9 2.3-1 3c-.1.7-.4 1.2-.6 1.2-.2 0-.3.2-.3.4 0 .4-.5 1.5-3 6.8-.5 1-.9 1.9-1 2-.1.1-.8 1.5-1.6 3s-1.5 2.9-1.6 3c-.1.1-.5.6-.7 1.2-.6 1.3-1.5 2.8-2 3.6-2.9 4.4-4 6.2-4 6.4 0 .2-.1.4-.3.4-.2.1-.9 1-1.7 2.1-.8 1.1-1.6 2.2-1.8 2.5-.2.3-.7.9-1.1 1.4s-1.2 1.4-1.7 2.1c-.6.7-1.4 1.8-1.8 2.5-.4.7-1 1.3-1.2 1.3-.2 0-.4.2-.4.4s-.8 1.2-1.7 2.2c-.9 1-3.1 3.4-4.9 5.3-1.8 1.9-4.5 4.7-6.1 6.1-1.6 1.4-3.6 3.2-4.4 4-2.3 2.2-6.1 5.2-8.4 6.8-.8.6-1.3.9-3.1 2.5-.4.4-1.2.9-1.7 1.2-.5.3-1 .6-1.1.7-.4.5-3.6 2.4-4 2.4-.2 0-.4.2-.4.4s-1 1-2.3 1.7c-1.3.7-2.4 1.4-2.5 1.5-.7.8-18.6 9.6-19.5 9.6-.2 0-.8.2-1.3.5s-2.4 1-4.2 1.6c-1.8.6-3.6 1.3-4 1.5-.4.2-1.6.6-2.6.8-1 .3-2 .6-2.2.8-.2.2-1.6.5-3 .8-1.4.3-2.7.6-2.8.8-.3.3-5.9 1.6-9.4 2.1-1.5.2-2.9.5-3 .7-.1.2-2.5.5-5.4.8-2.9.3-5.4.7-5.7.9-.7.6-23.5.8-28.7.3-7.9-.7-15.2-1.7-16-2-.4-.2-1.8-.5-3-.6-1.2-.1-2.6-.4-3.2-.6-.5-.2-2.2-.6-3.6-.9-3.5-.7-7.3-1.7-8-2.1-.3-.2-1.6-.6-2.8-.8-1.2-.3-2.6-.8-3-1.1-.4-.3-1.1-.5-1.4-.5-.7 0-4.9-1.6-5.2-2-.1-.1-1.1-.5-2.1-.8-1-.3-1.9-.7-1.9-.8s-.6-.4-1.4-.6c-.7-.1-1.6-.5-1.8-.8-.3-.3-.7-.6-.9-.6-.5 0-4.8-2.1-5.1-2.4-.1-.1-.8-.4-1.5-.7-.7-.2-1.8-.8-2.4-1.2-.6-.4-1.8-1.2-2.7-1.6-.9-.5-2.3-1.3-3.2-1.8-.9-.5-2.1-1.2-2.7-1.4-.6-.3-1-.6-.9-.8.1-.2 0-.4-.3-.4s-1-.4-1.5-.8-1.1-.8-1.2-.8c-.2 0-.5-.2-.8-.5-.3-.3-1.4-1.1-2.6-1.9-2.4-1.6-4.2-3-6-4.5-.7-.6-1.4-1.1-1.6-1.1s-.9-.6-1.6-1.4c-.7-.8-1.4-1.4-1.6-1.4-.3 0-1-.7-6.1-5.4-3.4-3.2-4.8-4.6-7-7.1-1.2-1.4-2.7-3-3.2-3.6-2.2-2.5-4.5-5.2-5.1-6.1-.3-.5-1.1-1.4-1.7-2.1-.6-.7-1.1-1.3-1.1-1.5 0-.1-.2-.5-.5-.8-.9-1-2.6-3.3-2.8-4-.1-.4-.4-.7-.7-.7-.2 0-.4-.2-.4-.4s-.4-1-1-1.7c-.5-.7-1-1.4-1-1.6 0-.1-.6-1.2-1.4-2.3-.8-1.1-1.4-2.1-1.4-2.3 0-.2-.4-.8-.8-1.3s-.8-1.2-.8-1.5-.2-.5-.4-.5-.4-.1-.3-.3c.1-.5-1.1-2.9-1.3-2.7-.1.1-.4-.5-.7-1.4-.3-.9-.7-1.6-.8-1.6-.1 0-.5-.7-.8-1.6-.3-.9-.7-1.6-.9-1.6-.2 0-.3-.3-.3-.7 0-.6-2-4.9-2.4-5.3-.1-.1-.4-.7-.5-1.4-.2-.7-.6-1.9-1-2.8-.4-.9-.9-2.1-1-2.8-.2-.6-.5-1.6-.8-2.2-.3-.6-.5-1.3-.5-1.7 0-.4-.2-.7-.3-.8-.3-.1-.9-2.1-2.4-7.9-.4-1.4-.8-2.7-.9-2.8-.1-.1-.4-1.1-.5-2.2-.2-1.1-.5-2.7-.8-3.6-.3-.9-.7-2.8-.8-4.2-.2-1.4-.4-2.7-.6-2.8s-.5-2.7-.8-5.8c-.3-3.1-.7-6-.9-6.5-.6-1.3-.6-27.5 0-28.9.3-.5.7-3.5.9-6.6.3-3.1.6-5.8.8-6s.4-1.5.6-2.8.4-2.6.5-2.8c.1-.2.6-1.8.9-3.6.4-1.8.9-4.2 1.3-5.4.3-1.2.6-2.6.6-3.1s.2-.9.3-.9c.2 0 .6-1.1.9-2.4.3-1.3.6-2.4.8-2.4.2 0 .4-.7.6-1.5.2-.8.4-1.7.6-1.9.2-.2.5-1.1.8-2s.8-2.3 1.3-3.2c.4-.9.8-1.9.8-2.3 0-.4.2-.7.4-.7s.4-.2.4-.4.5-1.4 1-2.6c.5-1.2 1-2.4 1-2.6s.2-.4.4-.4.4-.2.4-.4c0-.6 2.5-5.6 3.1-6.3.3-.3.5-.7.5-.9s.7-1.6 1.6-3c.9-1.4 1.6-2.7 1.6-2.8s.2-.4.4-.7c.7-.9 4-5.9 4-6.1 0-.1.2-.4.4-.7.2-.3 1.3-1.8 2.5-3.4 1.1-1.6 2.2-2.9 2.4-2.9s.3-.3.3-.6.3-.7.6-.8c.3-.1.6-.4.6-.7 0-.3.5-1 1.1-1.7.6-.7 2.1-2.4 3.3-3.8 4.5-5.2 11-11.8 15-15.2 2.7-2.3 2.8-2.4 4.2-3.6 2.7-2.3 10.4-8 10.8-8 .2 0 .4-.2.4-.4s.5-.6 1.2-.8c.7-.3 1.2-.6 1.2-.7 0-.1 1.2-1 2.6-1.9 1.4-.9 3.2-2 3.9-2.5.7-.5 1.7-1 2.2-1.1.5-.1.8-.4.8-.6 0-.2.5-.5 1.2-.6.6-.1 1.4-.5 1.6-.8.3-.3.7-.6 1-.6s.9-.3 1.4-.8c.5-.4 1.4-.9 2.1-1 .6-.1 1.2-.4 1.2-.6 0-.2.2-.4.5-.4s1.4-.4 2.5-1c1.1-.5 2.2-1 2.5-1 .3 0 .5-.2.5-.3 0-.2.8-.6 1.8-.8s1.8-.6 1.8-.8c0-.1.9-.5 2.1-.8 1.2-.3 2.2-.7 2.2-.9.1-.2.4-.4.6-.4.7 0 6.6-1.9 7.4-2.4.3-.2 1.7-.6 3-.8 1.3-.3 2.6-.6 2.8-.7.6-.4 5.9-1.6 9.3-2.2 1.6-.3 2.8-.6 2.7-.7-.1-.1 2.1-.5 4.9-.7 2.8-.3 5.5-.7 5.9-.9 1.3-.8 34.3-.9 35.4-.1m73.6 134.2c-3 .6-3.4 8.1-.4 8.1.3 0 .6.2.6.4s.8.4 1.8.4 1.8-.1 1.8-.3.5-.5 1.2-.8c1.9-.8 2.3-4.1.7-6.3-1.1-1.7-2.7-2.1-5.7-1.5m-23.9 11.2c-.1.1-1 .4-1.9.6-3.2.7-6.4 3.4-8.3 7-1.5 2.7-1.7 11.8-.3 14.2 2.1 3.7 4.1 5.8 5.7 6.2.5.1.9.4.9.6 0 1 9.3 2 10.6 1.2.2-.1 1.1-.4 1.9-.5.8-.1 1.5-.4 1.5-.6 0-.2.4-.4.9-.6 3-.8 6.6-6.3 7.3-11.5.9-6.6-5.2-15.9-10.5-15.9-.5 0-1-.2-1.1-.4-.2-.6-6.3-.7-6.7-.3m47.2.6c-1.2.4-2.7 1.2-3.3 1.7-1.3 1.2-1.3 1.3-1.6-.4l-.3-1.4h-7.2v28.8h7.6l.1-8.6c.1-5.1.3-8.7.5-8.9.2-.2.7-.8 1-1.5.3-.7 1.1-1.5 1.8-1.8s1.2-.7 1.3-.9c.2-.5 4.5-.4 4.5.1 0 .2.2.4.5.4s.9.4 1.3.9c1.9 2.2 2 2.5 2.1 11.6l.1 8.7h7.6v-9.9c0-8.9-.1-10-.8-11.5-.4-.9-.8-1.8-.8-2.1 0-.5-3-3.7-3.4-3.7-.2 0-.6-.2-.9-.6-1.9-1.6-6.6-2.1-10.1-.9m-25.4 14.2l.1 14.3h8l.1-14.3.1-14.3h-8.4l.1 14.3m-15.3-6.6c5.3 2.8 4.6 11.8-1 13.8-2.8 1-7.7-.5-7.7-2.3 0-.2-.3-.8-.7-1.2-1.1-1.2-.9-5.6.2-7.6 2.2-3.7 5.6-4.7 9.2-2.7" fill="#6d6e71"/><path d="M70.4 197.6V249h20v-33.4c0-18.4.1-33.4.3-33.4.2 0 .8.7 1.4 1.6.6.9 1.3 1.6 1.5 1.6.2 0 .4.2.4.4 0 .4 1.1 1.9 2.5 3.6.3.3 1.3 1.7 2.3 3 1 1.3 2 2.7 2.3 3 .3.3 2 2.5 3.7 4.7 1.7 2.3 3.4 4.4 3.8 4.7.3.3.7.9.8 1.4.1.4.4.8.5.8.2 0 1.2 1.2 2.2 2.6 1 1.4 2.1 2.6 2.3 2.6.2 0 .4.3.4.6s.4 1 1 1.5c.5.5 1 1.2 1 1.4 0 .3.1.5.3.5s1.3 1.3 2.5 2.9c1.2 1.6 2.3 3 2.5 3 .2.1.3.4.3.7 0 .3.3.7.6.8.3.1 1.3 1.3 2.2 2.6.9 1.3 2 2.8 2.4 3.3.4.5 2 2.5 3.4 4.3 2.8 3.6 4.2 5.4 5.7 7.2.5.6.9 1.2.9 1.3 0 .1.5.8 1.2 1.5s1.8 2.2 2.5 3.2l1.3 1.9h13V146.3h-20v62.2l-1.3-1.8c-.7-1-1.5-2.1-1.8-2.4-.3-.3-.9-1.1-1.4-1.7-.5-.6-1.7-2.2-2.7-3.5-1-1.3-1.9-2.4-2.1-2.4s-.3-.3-.3-.6-.2-.7-.5-.9c-.3-.2-1.4-1.5-2.5-2.9s-2.2-2.9-2.5-3.2c-2.3-2.7-3.3-3.8-3.3-4.1 0-.2-.4-.7-.9-1.3-.5-.6-1.3-1.5-1.7-2-.4-.6-1-1.2-1.2-1.5-.2-.3-.9-1.2-1.6-2.1-.6-.9-1.4-1.7-1.7-1.9-.3-.2-.5-.6-.5-.9s-.2-.7-.5-.9c-.3-.2-1-.9-1.6-1.7-.6-.8-1.4-1.8-1.8-2.3-.4-.5-1.1-1.3-1.5-1.9-.4-.6-1.4-1.7-2.1-2.5-.7-.8-1.3-1.6-1.3-1.7 0-.1-.4-.7-.9-1.3-.9-1-1.5-1.7-5.1-6.3-1.1-1.4-2.3-3-2.7-3.5-.4-.5-1-1.3-1.5-1.9-.4-.6-1.1-1.4-1.4-1.8-.3-.4-1.1-1.3-1.6-2l-1-1.2H70.4v51.3M212.6 147c-1 1.1-2.7 4-2.7 4.5 0 .2-.1.4-.3.5-.4.2-2.5 3.4-2.5 3.9 0 .2-.2.4-.4.4s-.5.3-.7.7c-.1.4-.9 1.6-1.6 2.6-.7 1-1.3 2-1.3 2.1s-.4.8-1 1.5c-.5.7-1 1.5-1 1.8 0 .3-.1.5-.3.5s-.6.6-1 1.3c-1.1 2-4.5 7.4-5.1 7.9-.1.1-.7 1-1.3 2-1.2 2.1-5.2 8.2-6.1 9.4-.3.4-.6.9-.6 1.2s-.4-.1-.8-.6c-.4-.6-.8-1.1-.8-1.3 0-.1-.6-1.1-1.4-2.2-.8-1.1-1.4-2.1-1.4-2.3 0-.2-.4-.8-.8-1.3s-.8-1.2-.8-1.4-.2-.7-.5-.8c-.3-.2-.7-.8-1-1.3-.3-.5-.7-1.4-1-1.8-1.5-2.4-2.5-4-2.7-4.2-.1-.1-.5-.8-.8-1.5-.3-.7-.7-1.3-.9-1.3-.2 0-.3-.2-.3-.4 0-.3-1.2-2.3-2.3-3.8-.4-.6-1.4-2.2-2.1-3.6-.8-1.5-2.1-3.5-2.4-3.8-.1-.1-.9-1.3-1.6-2.7-.7-1.4-1.5-2.5-1.6-2.5-.2 0-.3-.2-.3-.4 0-.9-2.1-3.2-2.5-2.7-.2.3-.3 8.4-.3 18 0 18.5-.1 17.8 1.7 20.1.2.2.9 1.3 1.6 2.4.7 1.1 1.4 2.1 1.5 2.2.1.1.8 1.1 1.4 2.2.6 1.1 1.3 2.1 1.4 2.2.1.1.9 1.2 1.7 2.4.8 1.2 2 3 2.7 4s1.4 2.1 1.6 2.4c.2.3.8 1.3 1.4 2.1l1 1.5V249l10.1-.1 10.1-.1.1-21c.1-21.6.1-21.9 1.7-23.6.3-.4 1.2-1.6 2-2.7s1.6-2.3 1.8-2.5c.2-.3.7-1 1-1.7.3-.7.9-1.5 1.2-1.9.8-1 1.2-1.5 2.6-3.5.7-1 1.3-1.9 1.4-2 .1-.1 1.1-1.5 2.2-3.2 1.1-1.6 2.2-3.2 2.5-3.5.3-.3.5-.7.5-.9 0-.2.2-.6.5-.9.5-.5 3.1-4.3 4.1-5.9.2-.4.6-.8.9-1 .3-.2.5-.5.5-.7 0-.5 2.1-3.6 2.5-3.6.2 0 .3-.2.3-.4s.4-1 1-1.7c.5-.7 1-1.5 1-1.8s.2-.5.4-.5.6-.4.8-1c.2-.5.5-1 .7-1 .2 0 .6-.5.9-1.2.3-.7.7-1.2.8-1.2.2 0 .4-.2.4-.4s.4-1 1-1.7c.5-.7 1-1.5 1-1.7 0-.2.3-.5.6-.6.3-.1.6-.5.6-.8 0-.3.2-.7.5-.9.6-.4 4.3-6 4.3-6.5 0-.2.2-.4.4-.4s.4-.4.4-1v-1h-11.9c-11-.1-12.1-.1-12.7.6m39.7-.5c-1 .1-2.2.3-2.6.5-.4.2-2.1.5-3.7.8-3 .5-4.5 1.1-4.5 1.9 0 .3-.1.5-.3.5s-1.3 1.5-2.5 3.3c-1.2 1.8-2.7 4-3.5 5s-1.3 1.9-1.3 2.1c0 .2-.2.4-.4.4s-.5.3-.6.7c-.2.6-2.5 4-3.8 5.5-.2.2-.6.9-.9 1.4-.3.5-.6 1.1-.8 1.2-.3.3-1.9 2.5-3.9 5.6-.9 1.4-1.9 2.9-2.2 3.2-.3.3-.7.9-.8 1.3-.1.4-.4.7-.7.7-.2 0-.4.2-.4.4s-.8 1.6-1.8 3-1.8 2.7-1.8 2.8c0 .1-.2.5-.4.7-1.3 1.5-5.6 7.7-5.6 8.1 0 .3-.3.6-.6.7-.3.1-.6.5-.6.8 0 .3-.3.7-.6.8-.3.1-.6.5-.6.8 0 .3-.4.8-.8 1.2-.8.7-.8 9.1.1 9.4.2.1.3.8.3 1.6s.3 2.5.6 3.9c.3 1.3.8 3.2 1.1 4.1.2.9.6 1.7.8 1.7.2 0 .3.3.3.6 0 1 2.2 5.9 3.8 8.4.8 1.2 1.4 2.3 1.4 2.4 0 .1.3.5.6.9s1.1 1.4 1.8 2.2c1.8 2.4 3.8 4.4 5.4 5.7 2.5 1.9 2.6 1.9 3.4 2.6 1 .9 7 4.3 7.5 4.3.3 0 .5.2.5.3s1 .6 2.2.9c1.2.3 2.2.7 2.2.9s.2.3.5.3 1.6.3 2.9.8c1.3.4 3.6.9 5.1 1s3 .5 3.3.7c.7.6 17.7.6 18.9 0 .5-.2 2.5-.7 4.4-1 1.9-.3 3.5-.6 3.5-.8 0-.2.7-.4 1.6-.6.9-.1 1.6-.4 1.6-.6s.6-.4 1.3-.6c1.9-.4 9.6-4.3 11-5.6.2-.2 1-.9 1.8-1.4.7-.6 2-1.6 2.8-2.3.8-.7 1.6-1.3 1.7-1.3 1.4 0-11.7-14.8-13.2-14.8-.3 0-1.3.7-3.9 3-1.3 1.1-2.2 1.7-3.8 2.5-.8.4-1.5.8-1.6.9-.1.2-.9.5-1.8.8s-1.8.7-2 .8c-.2.2-1.1.4-1.9.6-.8.2-1.5.4-1.5.6 0 1.2-17.8 1.3-19.4 0-.2-.2-1-.5-1.7-.6-1.7-.4-5.7-2-6.3-2.6-.2-.2-.6-.4-.8-.4-1.3 0-7.2-5.5-9.2-8.5-.6-.9-1.2-1.9-1.4-2.1-.6-.8-2.5-4.9-2.5-5.4 0-.3-.3-1-.6-1.6-.3-.6-.7-2.3-.8-3.7-.2-1.4-.4-2.6-.6-2.6s-.4-2.3-.4-5.2c0-2.9.2-5.2.3-5.2.2 0 .5-1.1.6-2.5.2-1.4.4-2.7.6-2.9.2-.2.5-1.2.8-2.2.5-1.7 2-5.1 2.4-5.6.1-.1.5-.7.8-1.4 1.2-2.3 7-8.4 8.4-8.8.4-.1.8-.4.8-.6s.6-.6 1.4-.9c.8-.3 1.4-.6 1.4-.8 0-.2.5-.4 1.1-.6.6-.2 1.6-.5 2.3-.8 4-1.8 18.8-3.2 19.7-1.9.1.2 1.4.6 2.9.8 2.7.5 3.1.6 7.1 2.7 2.3 1.1 5.6 3.4 6.9 4.7 1.2 1.2 1.8.8 6-3.3 2.2-2.2 5.1-5 6.4-6.2 2.2-2 2.9-3.8 1.5-3.8-.2 0-.8-.5-1.5-1.1-1.7-1.6-6.8-5.3-7.3-5.3-.2 0-.5-.2-.5-.3 0-.4-7.2-4.1-8.1-4.1-.4 0-.7-.1-.8-.3-.2-.5-5.1-2-7.3-2.3-1.1-.1-2.1-.4-2.2-.6.2-.2-13.8-.6-17-.3" fill="#0f75bc"/></svg>