<?xml version="1.0" encoding="utf-8"?>
<!-- Generator: Adobe Illustrator 22.0.1, SVG Export Plug-In . SVG Version: 6.00 Build 0)  -->
<svg version="1.1" id="Layer_1" xmlns="http://www.w3.org/2000/svg" xmlns:xlink="http://www.w3.org/1999/xlink" x="0px" y="0px"
	 viewBox="0 0 223.68 223.68" style="enable-background:new 0 0 223.68 223.68;" xml:space="preserve">
<style type="text/css">
	.st0{fill:#FFFFFF;}
	.st1{fill:#0390B3;}
	.st2{fill:#03B687;}
	.st3{fill:#03A69A;}
	.st4{fill:#049EA3;}
	.st5{fill:#04AB94;}
	.st6{fill:#029EA3;}
	.st7{fill:#01AF91;}
	.st8{fill:#0393B2;}
	.st9{fill:#00B48B;}
	.st10{fill:#02A69B;}
	.st11{fill:#02A998;}
	.st12{fill:#02A997;}
	.st13{fill:#029BA7;}
</style>
<ellipse class="st0" cx="111.765" cy="111.5" rx="108.901" ry="107.833"/>
<title>ANT</title>
<g>
	<path class="st1" d="M215.567,149.304c-4.381,13.368-11.643,25.08-20.943,35.506c-18.039,20.224-40.509,32.943-67.396,36.059
		c-44.633,5.173-80.182-11.196-106.393-47.73c-0.12-0.168-0.133-0.412-0.196-0.621c0.279-1.231,0.39-2.583,2.042-2.819
		c0.35,0.411,0.732,0.799,1.045,1.237c23.925,33.515,56.273,49.849,97.557,46.855c29.788-2.161,54.005-15.678,73.203-38.394
		c7.952-9.409,13.568-20.169,18.176-31.508C213.63,148.36,214.599,148.832,215.567,149.304z"/>
	<path class="st2" d="M28.569,40.891c8.59-10.84,19.311-19.116,31.362-25.694C78.209,5.219,97.865,0.651,118.593,2.132
		c36.761,2.627,65.436,19.576,86.045,50.14c0.117,0.173,0.139,0.41,0.205,0.616c-0.433,1.191-0.166,2.769-1.82,3.283
		c-0.507-0.714-1.04-1.411-1.519-2.144C170.506,6.633,108.961-8.347,59.639,19.471C49.206,25.356,40.304,33.103,32.09,41.72
		C30.912,41.461,29.514,42.141,28.569,40.891z"/>
	<path class="st3" d="M203.023,56.171c1.655-0.513,1.388-2.092,1.82-3.283c8.225,11.956,13.162,25.282,15.69,39.443
		c3.359,18.818,2.073,37.389-4.28,55.513c-0.177,0.505-0.455,0.974-0.686,1.46c-0.969-0.472-1.937-0.944-2.906-1.417
		c0.276-1.057,0.503-2.129,0.835-3.168c5.548-17.347,6.633-34.938,3.255-52.861C214.346,79.098,209.458,67.352,203.023,56.171z"/>
	<path class="st4" d="M22.681,169.699c-1.652,0.236-1.763,1.589-2.042,2.819c-8.463-12.022-13.659-25.423-16.419-39.771
		c-1.93-10.032-2.922-20.16-1.356-30.374c2.15,0.449,2.632,2.192,3.076,3.965c-0.542,12.229,0.858,24.224,4.295,35.98
		C13.077,152.041,17.58,161.005,22.681,169.699z"/>
	<path class="st5" d="M5.94,106.338c-0.443-1.773-0.925-3.516-3.076-3.965C3.64,87.355,8.207,73.427,15.18,60.238
		c3.683-6.966,7.87-13.629,13.389-19.347c0.945,1.249,2.343,0.57,3.521,0.829c-4.24,5.577-8.572,11.081-12.075,17.185
		C11.575,73.613,6.973,89.441,5.94,106.338z"/>
	<path class="st6" d="M74.941,148.557c-8.503-11.184-13.754-23.741-15.886-37.615c0.918-1.852,2.097-2.712,4.14-1.362
		c0.673,0.445,1.609,0.49,2.425,0.719c0.645,2.382,1.29,4.764,1.925,7.111c1.528,0.035,1.65-1.486,2.625-1.908
		c1.737,1.782,3.508,1.823,5.539,0.369c1.449-1.038,2.868-2.534,4.999-1.626c-1.44,1.494-2.986,2.901-4.303,4.496
		c-7.454,9.025-6.542,6.696-2.077,16.168c0.438,0.928,0.685,2.443,1.917,2.433c1.284-0.01,1.285-1.598,1.734-2.51
		c10.1-20.52,35.044-27.845,54.394-15.952c6.658,4.093,11.498,9.776,14.884,16.769c0.304,0.627,0.358,1.731,1.36,1.516
		c0.488-0.105,0.923-0.87,1.211-1.424c1.163-2.241,2.198-4.549,3.401-6.768c0.967-1.783,0.572-3.163-0.5-4.822
		c-2.413-3.733-5.848-6.518-8.648-9.879c1.602,0.014,3.248,0.464,4.717,0.454c1.42-0.009,3.457,2.207,4.587-0.528
		c1.079,1.016,2.157,2.032,3.397,3.199c1.648-2.588,1.204-5.853,2.4-8.608c2.013,0.841,3.936,1.933,6.155,2.193
		c-1.248,10.518-5.059,20.151-10.213,29.299c-1.5,2.662-3.012,5.345-5.102,7.625c-2.095-1.12-4.735-0.429-6.69-2.013
		c0.152-3.736-2.004-6.642-3.671-9.651c-9.264-16.725-31.057-21.278-46.259-9.744c-6.304,4.783-9.86,11.316-11.91,18.799
		C79.216,146.197,76.758,146.733,74.941,148.557z"/>
	<path class="st7" d="M134.272,87.874c-8.613-3.136-17.344-3.594-26.182-3.342c-5.535,0.158-10.916,1.127-16.172,2.772
		c-1.586,0.497-2.913,0.402-4.407-0.25c-8.377-3.656-15.667-8.81-21.958-15.442c-1.427-1.504-1.673-2.452,0.064-3.917
		c3.126-2.635,6.47-4.897,9.992-6.951c1.485-0.866,2.253-0.503,3.248,0.747c16.721,21.029,49.245,21.601,66.685,0.162
		c1.297-1.594,2.191-1.589,3.773-0.665c3.525,2.057,6.88,4.313,9.908,7.066c1.049,0.953,1.522,1.6,0.332,2.887
		c-6.592,7.129-14.256,12.698-23.269,16.361C135.596,87.582,134.845,87.714,134.272,87.874z"/>
	<path class="st8" d="M74.941,148.557c1.817-1.823,4.275-2.36,6.551-3.26c0.024,0.413,0.049,0.827,0.073,1.24
		c-0.796,0.415-1.703,0.867-1.051,1.95c0.639,1.062,1.519,0.385,2.303,0.078c3.426,2.812,5.558,6.991,9.85,9.774
		c-0.547-2.58-1.137-4.476-0.763-6.463c1.183,0.078,2.438,1.068,3.485-0.434c0.434-0.623,0.742-1.794,1.883-1.302
		c1.01,0.436,0.482,1.507,0.675,2.289c0.121,0.492,0.393,0.947,0.597,1.418c1.081,3.567,3.555,6.705,3.892,10.418
		c0.314,3.454,1.926,5.69,4.619,7.408c1.865,1.19,3.703,4.309,5.445,3.271c1.684-1.004,1.18-4.407,1.04-6.803
		c-0.325-5.545-1.788-10.762-4.464-15.669c-1.526-2.798-0.188-5.549,2.537-5.606c1.901-0.04,2.894,1.214,3.739,2.746
		c3.203,5.812,4.763,12.097,5.201,18.565c1.089,0.253,1.47-0.371,1.958-0.774c7.841-6.468,7.841-6.469,5.236-16.169
		c2.291,1.23,4.768,0.398,7.149,0.643c0.726,2.36,1.748,2.238,3.141,0.459c1.713-2.189,3.525-4.299,5.295-6.444
		c1.955,1.584,4.595,0.893,6.69,2.013c-6.974,10.435-16.063,18.874-25.548,26.919c-3.434,2.912-7.098,5.551-10.596,8.39
		c-1.115,0.905-1.936,1.001-3.144,0.089c-12.768-9.635-24.788-20.048-34.578-32.815C75.695,149.888,75.344,149.203,74.941,148.557z"
		/>
	<path class="st9" d="M125.205,40.606c-3.056,1.955-5.349,4.394-5.785,8.049c-0.284,2.382,0.018,4.197,3.228,4.43
		c5.035,0.365,9.981,1.447,14.83,2.938c1.642,0.505,2.284,0.824,0.848,2.487c-13.067,15.133-39.252,15.137-52.184-0.022
		c-1.063-1.247-1.268-1.811,0.586-2.363c4.433-1.321,8.912-2.377,13.514-2.838c2.102-0.211,3.389-0.984,4.396-3.116
		c3.501-7.413,10.332-11.294,17.759-10.563C123.364,39.702,124.324,39.766,125.205,40.606z"/>
	<path class="st10" d="M153.386,114.198c-1.13,2.735-3.167,0.519-4.587,0.528c-1.47,0.01-3.115-0.441-4.717-0.454
		c-0.631-0.428-1.284-0.826-1.89-1.287c-11.876-9.026-25.199-11.9-39.763-9.208c-8.165,1.509-15.205,5.474-21.721,10.468
		c-2.131-0.908-3.55,0.588-4.999,1.626c-2.031,1.454-3.802,1.413-5.539-0.369c0.405-0.918,1.112-1.56,1.921-2.111
		c0.585,1.186,1.49,2.111,2.691,1.028c1.379-1.244,0.486-2.232-0.846-2.902c11.541-11.405,25.629-16.415,41.6-15.567
		c14.247,0.756,26.571,6.437,36.623,16.728C152.612,113.141,152.979,113.689,153.386,114.198z"/>
	<path class="st11" d="M165.338,110.982c-2.22-0.26-4.143-1.352-6.155-2.193c0.751-3.143-0.657-5.341-2.855-7.463
		c-3.576-3.451-7.513-6.379-12.135-9.186c6.94-3.719,13.095-8.089,18.812-13.871c0,5.247,0.185,9.997-0.066,14.723
		c-0.162,3.053-0.08,5.631,2.288,8.077C168.16,104.1,165.838,107.652,165.338,110.982z"/>
	<path class="st12" d="M65.62,110.298c-0.816-0.228-1.753-0.274-2.425-0.719c-2.043-1.35-3.222-0.49-4.14,1.362
		c-1.157-4.42-2.147-8.788,2.031-12.364c0.944-0.808,0.482-2.076,0.487-3.142c0.026-5.456,0.012-10.913,0.012-16.976
		c5.763,5.581,11.798,10.014,18.69,13.617c-4.13,2.575-7.8,5.302-11.301,8.309C65.766,103.142,64.198,106.131,65.62,110.298z"/>
	<path class="st6" d="M73.936,111.517c1.332,0.67,2.225,1.658,0.846,2.902c-1.202,1.084-2.106,0.158-2.691-1.028
		C72.492,112.556,73.126,111.949,73.936,111.517z"/>
	<path class="st13" d="M127.748,151.235c-0.846-1.784-1.648-3.591-2.546-5.349c-3.353-6.563-9.49-9.631-16.008-8.043
		c-6.736,1.642-10.586,6.86-10.597,14.358c-0.001,0.548-0.034,1.097-0.052,1.645c-0.204-0.471-0.476-0.926-0.597-1.418
		c-0.192-0.782,0.335-1.853-0.675-2.289c-1.142-0.493-1.449,0.679-1.883,1.302c-1.047,1.502-2.302,0.512-3.485,0.434
		c-0.701-8.857,5.076-17.365,13.733-20.224c9.167-3.028,19.206,0.428,24.237,8.482c2.272,3.636,4.061,7.525,5.022,11.745
		C132.517,151.632,130.04,152.465,127.748,151.235z"/>
	<path class="st6" d="M81.565,146.537c0.56,0.588,1.315,1.056,1.252,2.028c-0.785,0.307-1.664,0.984-2.303-0.078
		C79.863,147.404,80.769,146.952,81.565,146.537z"/>
</g>
</svg>
