<svg id="Layer_1" data-name="Layer 1" xmlns="http://www.w3.org/2000/svg" viewBox="0 0 31.62 31.62"><defs><style>.cls-1{fill:#fff;}.cls-2{fill:#101010;}</style></defs><ellipse class="cls-1" cx="15.699" cy="15.514" rx="14.667" ry="13.741"/><path class="cls-2" d="M16,.19h0A15.81,15.81,0,0,0,.19,16h0A15.81,15.81,0,0,0,16,31.81h0A15.81,15.81,0,0,0,31.81,16h0A15.81,15.81,0,0,0,16,.19ZM7.664,19.955A3.708,3.708,0,0,1,3.888,16a3.712,3.712,0,0,1,3.776-3.96A3.721,3.721,0,0,1,11.443,16,3.716,3.716,0,0,1,7.664,19.955Zm12.5-.194H18.841V14.455l-1.936,5.306H15.646l-1.941-5.306v5.306H12.43V12.229h1.785L16.3,17.986l2.089-5.757h1.785Zm4.664-1.119a1.769,1.769,0,0,0,1.948-1.614H24.6v-1.3h3.509v4.036h-1.3V18.9A2.422,2.422,0,0,1,24.6,19.955c-2.109,0-3.466-1.678-3.466-3.9,0-2.066,1.173-4,3.693-4a2.994,2.994,0,0,1,3.281,2.68h-1.43a1.711,1.711,0,0,0-1.895-1.367c-1.53,0-2.249,1.2-2.249,2.647,0,1.551.816,2.627,2.28,2.627Z" transform="translate(-0.19 -0.19)"/><path class="cls-2" d="M7.664,13.391a2.362,2.362,0,0,0-2.356,2.614,2.37,2.37,0,1,0,4.715,0A2.355,2.355,0,0,0,7.664,13.391Z" transform="translate(-0.19 -0.19)"/></svg>