<svg id="Layer_1" data-name="Layer 1" xmlns="http://www.w3.org/2000/svg" viewBox="0 0 32 32"><defs><style>.cls-1{fill:#f83950;}.cls-2{fill:#05e940;}</style></defs><circle cx="16" cy="16" r="16"/><path class="cls-1" d="M25.017,15.948c0,1.54-.008,3.08,0,4.62a.843.843,0,0,1-.468.822Q20.516,23.7,16.49,26.039a.879.879,0,0,1-.979,0q-4.026-2.334-8.064-4.648a.85.85,0,0,1-.47-.821q.015-4.655,0-9.31a.846.846,0,0,1,.467-.822q4.038-2.314,8.063-4.649a.881.881,0,0,1,.98,0q4.026,2.334,8.064,4.648a.845.845,0,0,1,.47.821C25.01,12.822,25.017,14.385,25.017,15.948ZM15.438,7.439c-1.816,1.042-3.637,2.076-5.446,3.13a.615.615,0,0,0,.032,1.107c.453.284.922.543,1.384.813a.888.888,0,0,0-.54,1.028.741.741,0,0,1-.024.2q-.731-.411-1.46-.822c-.55-.307-1.021-.049-1.03.575-.011.663,0,1.327,0,1.991q.007,2.044.017,4.087c-.018.418-.08.855.457,1.026,1.851,1.073,3.7,2.154,5.555,3.214a.611.611,0,0,0,.928-.565c.018-.628.011-1.256.014-1.884a1.733,1.733,0,0,1,.245.119.7.7,0,0,0,.865,0,2.142,2.142,0,0,1,.244-.123c0,.605,0,1.21.012,1.815a.634.634,0,0,0,1.025.587c.437-.243.869-.5,1.3-.747l4.16-2.42c.545-.168.472-.61.456-1.028,0-2.048.017-4.1.01-6.146a.613.613,0,0,0-.964-.538c-.511.278-1.015.569-1.522.855-.02-.487.03-1.005-.562-1.229.461-.27.93-.529,1.383-.813a.627.627,0,0,0,0-1.131c-.275-.174-.562-.329-.844-.491L16.564,7.44A.77.77,0,0,0,15.438,7.439Z"/><path class="cls-2" d="M10.844,13.718a.741.741,0,0,0,.024-.2.888.888,0,0,1,.54-1.028q1.878-1.074,3.757-2.15a.562.562,0,0,0,.286-.525c-.006-.792-.009-1.583-.013-2.375a.77.77,0,0,1,1.126,0c0,.791-.007,1.583-.014,2.374a.585.585,0,0,0,.315.545q1.863,1.068,3.728,2.13c.592.224.542.742.562,1.229-.006,1.358-.016,2.717-.018,4.075a.564.564,0,0,0,.319.5c.727.414,1.451.833,2.175,1.249.016.418.089.86-.456,1.028q-1.143-.669-2.285-1.337a.539.539,0,0,0-.566-.011Q18.5,20.28,16.676,21.34a2.142,2.142,0,0,0-.244.123.7.7,0,0,1-.865,0,1.733,1.733,0,0,0-.245-.119q-1.822-1.057-3.646-2.114a.541.541,0,0,0-.566.012q-1.145.666-2.285,1.337c-.537-.171-.475-.608-.457-1.026.725-.417,1.449-.836,2.175-1.251a.563.563,0,0,0,.32-.5C10.861,16.435,10.9,15.077,10.844,13.718Zm4.458,6.3c.629.449.768.449,1.395,0q1.547-.884,3.093-1.768a.509.509,0,0,0,.251-.472c0-1.13-.008-2.26-.013-3.391.077-.858.011-1-.583-1.261q-1.6-.932-3.194-1.86a.484.484,0,0,0-.5,0q-1.6.926-3.194,1.859a.75.75,0,0,0-.6.848c.013.138.013.277.02.415,0,1.13-.013,2.259-.013,3.389a.515.515,0,0,0,.25.473Q13.754,19.143,15.3,20.022Z"/><path class="cls-1" d="M19.445,13.132c.594.26.66.4.583,1.261q-1.5.859-2.992,1.718a.649.649,0,0,0-.349.6q0,1.656.01,3.312c-.627.447-.766.447-1.395,0q0-1.654.009-3.31a.649.649,0,0,0-.349-.6L11.972,14.4c-.007-.138-.007-.277-.02-.415a.75.75,0,0,1,.6-.848q1.525.883,3.05,1.769a.72.72,0,0,0,.789,0Q17.917,14.011,19.445,13.132Z"/></svg>