<?xml version="1.0" encoding="utf-8"?>
<!-- Generator: Adobe Illustrator 22.0.1, SVG Export Plug-In . SVG Version: 6.00 Build 0)  -->
<svg version="1.1" id="Layer_1" xmlns="http://www.w3.org/2000/svg" xmlns:xlink="http://www.w3.org/1999/xlink" x="0px" y="0px"
	 viewBox="0 0 32 32" style="enable-background:new 0 0 32 32;" xml:space="preserve">
<style type="text/css">
	.st0{fill:#FFFFFF;}
	.st1{fill:url(#SVGID_1_);}
</style>
<g>
	<ellipse class="st0" cx="16.11" cy="16.229" rx="14.36" ry="13.854"/>
	<ellipse class="st0" cx="16.333" cy="15.583" rx="13.917" ry="14.5"/>
	<g>
		<linearGradient id="SVGID_1_" gradientUnits="userSpaceOnUse" x1="16.1609" y1="0.269" x2="16.1609" y2="31.472">
			<stop  offset="1.006390e-07" style="stop-color:#DB6826"/>
			<stop  offset="1" style="stop-color:#C717B1"/>
		</linearGradient>
		<path class="st1" d="M16.158,31.472c-8.642-0.02-15.603-6.99-15.597-15.613C0.568,7.216,7.553,0.263,16.169,0.269
			c8.653,0.006,15.597,7,15.592,15.605C31.756,24.521,24.769,31.459,16.158,31.472z M26.62,17.107
			c0.001,0.003,0.002,0.006,0.003,0.01c-0.015,0.006-0.031,0.012-0.046,0.017c-0.517,0.163-1.037,0.32-1.552,0.489
			c-1.203,0.394-2.393,0.821-3.538,1.363c-0.588,0.279-1.163,0.583-1.671,0.996c-0.239,0.194-0.454,0.409-0.588,0.693
			c-0.023,0.048-0.023,0.084,0.012,0.129c0.801,1.026,1.856,1.571,3.152,1.637c0.654,0.033,1.279-0.113,1.877-0.376
			c0.935-0.411,1.783-0.963,2.584-1.592c0.661-0.52,1.274-1.09,1.8-1.749c0.344-0.431,0.645-0.889,0.824-1.417
			c0.112-0.33,0.167-0.668,0.104-1.016c-0.068-0.376-0.261-0.681-0.537-0.938c-0.392-0.364-0.864-0.587-1.363-0.759
			c-0.994-0.343-2.025-0.468-3.069-0.502c-0.852-0.028-1.702,0.014-2.544,0.164c-0.467,0.083-0.927,0.196-1.35,0.416
			c-1.387,0.719-2.145,1.865-2.293,3.417c-0.011,0.116-0.001,0.233-0.001,0.362C21.162,18.001,23.891,17.554,26.62,17.107z
			 M14.258,18.45c0.003-0.048,0.008-0.079,0.005-0.109c-0.023-0.25-0.024-0.506-0.077-0.75c-0.338-1.579-1.277-2.636-2.807-3.149
			c-0.781-0.262-1.6-0.322-2.418-0.35c-0.66-0.023-1.321,0.001-1.98,0.078c-0.548,0.064-1.09,0.156-1.621,0.309
			c-0.511,0.147-1.003,0.338-1.442,0.645c-0.783,0.548-1.023,1.286-0.713,2.19c0.162,0.472,0.422,0.889,0.723,1.283
			c0.586,0.765,1.289,1.41,2.05,1.995c0.725,0.556,1.491,1.046,2.323,1.427c0.818,0.374,1.666,0.525,2.56,0.362
			c0.998-0.183,1.822-0.664,2.473-1.442c0.174-0.208,0.173-0.21,0.022-0.435c-0.199-0.297-0.468-0.52-0.756-0.722
			c-0.576-0.405-1.204-0.713-1.846-0.996c-1.261-0.556-2.564-0.999-3.878-1.413c-0.274-0.086-0.549-0.17-0.823-0.254
			c0.001-0.003,0.002-0.007,0.002-0.01C8.786,17.554,11.516,18.001,14.258,18.45z M15.478,15.487
			c0.335-2.634,0.667-5.252,1.002-7.892c0.335,2.64,0.668,5.258,1.002,7.886c0.048-0.011,0.085-0.017,0.122-0.028
			c0.667-0.191,1.253-0.525,1.75-1.011c0.725-0.71,1.131-1.575,1.228-2.584c0.042-0.441-0.002-0.879-0.07-1.314
			C20.38,9.71,20.155,8.9,19.86,8.11c-0.352-0.943-0.782-1.846-1.396-2.652c-0.31-0.407-0.661-0.771-1.111-1.026
			c-0.384-0.218-0.793-0.304-1.229-0.204c-0.352,0.081-0.653,0.261-0.927,0.49c-0.502,0.419-0.884,0.938-1.206,1.5
			c-0.854,1.495-1.402,3.093-1.598,4.808c-0.051,0.444-0.04,0.886,0.061,1.32c0.349,1.493,1.253,2.503,2.687,3.039
			C15.246,15.425,15.357,15.451,15.478,15.487z M13.958,23.345c-0.016,1.232,0.984,2.373,2.38,2.376
			c1.328,0.002,2.39-1.052,2.388-2.378c-0.003-1.371-1.123-2.374-2.386-2.372C15.001,20.972,13.944,22.068,13.958,23.345z"/>
	</g>
</g>
</svg>
