<?xml version="1.0" encoding="utf-8"?>
<!-- Generator: Adobe Illustrator 22.0.1, SVG Export Plug-In . SVG Version: 6.00 Build 0)  -->
<svg version="1.1" id="Layer_1" xmlns="http://www.w3.org/2000/svg" xmlns:xlink="http://www.w3.org/1999/xlink" x="0px" y="0px"
	 viewBox="0 0 32 32" style="enable-background:new 0 0 32 32;" xml:space="preserve">
<style type="text/css">
	.st0{fill:#FFFFFF;}
	.st1{fill:#EA1D22;}
	.st2{fill:#A71F22;}
</style>
<g>
	<circle class="st0" cx="16.21" cy="15.447" r="12.21"/>
	<g>
		<path d="M15.951,31.697c-8.676,0-15.718-7.064-15.716-15.765C0.238,7.281,7.306,0.221,15.96,0.226
			c8.738,0.004,15.767,7.05,15.745,15.815C31.683,24.488,24.868,31.671,15.951,31.697z M10.727,9.032
			c-0.656,0.005-1.44,0.09-2.196,0.358c-1.666,0.592-2.462,1.968-2.136,3.695c0.166,0.879,0.552,1.664,1.036,2.407
			c0.153,0.235,0.151,0.234-0.01,0.456c-0.619,0.85-1.127,1.754-1.268,2.815c-0.151,1.135,0.196,2.089,1.101,2.815
			c0.606,0.487,1.319,0.736,2.07,0.885c0.098,0.02,0.15,0.05,0.177,0.156c0.147,0.565,0.693,0.902,1.262,0.78
			c0.111-0.024,0.142,0.006,0.18,0.104c0.236,0.607,0.549,1.17,0.965,1.675c0.83,1.009,2.075,1.395,3.301,1.005
			c0.838-0.267,1.525-0.775,2.144-1.382c0.596-0.585,1.096-1.248,1.535-1.957c0.04-0.065,0.069-0.128,0.176-0.107
			c0.397,0.08,0.799,0.124,1.203,0.149c0.94,0.058,1.873,0.025,2.782-0.255c0.77-0.237,1.445-0.622,1.918-1.296
			c0.564-0.804,0.627-1.696,0.423-2.624c-0.191-0.872-0.596-1.65-1.089-2.385c-0.054-0.081-0.062-0.129,0.004-0.212
			c0.239-0.305,0.459-0.625,0.643-0.967c0.041-0.076,0.09-0.091,0.169-0.099c0.449-0.045,0.767-0.28,0.924-0.701
			c0.155-0.416,0.07-0.8-0.241-1.118c-0.095-0.097-0.124-0.185-0.114-0.317c0.051-0.649-0.091-1.257-0.445-1.806
			c-0.449-0.696-1.111-1.111-1.873-1.387c-0.646-0.233-1.316-0.344-2-0.376c-0.141-0.007-0.219-0.04-0.26-0.199
			c-0.117-0.456-0.291-0.893-0.509-1.311c-0.053-0.101-0.051-0.169,0.011-0.266c0.266-0.415,0.22-0.917-0.106-1.292
			c-0.297-0.342-0.818-0.455-1.245-0.258c-0.096,0.044-0.161,0.044-0.253-0.01c-0.699-0.412-1.446-0.499-2.226-0.295
			c-0.866,0.226-1.572,0.724-2.211,1.327c-0.645,0.608-1.178,1.308-1.642,2.062C12.877,9.186,12.833,9.219,12.72,9.2
			C12.108,9.095,11.49,9.037,10.727,9.032z"/>
		<path d="M21.277,13.729c-0.098,1.891-0.456,3.732-1.063,5.525c-0.029,0.085-0.082,0.136-0.156,0.182
			c-1.321,0.819-2.715,1.482-4.184,1.99c-0.083,0.029-0.154,0.03-0.237-0.004c-1.812-0.745-3.488-1.722-5.017-2.947
			c-0.071-0.057-0.09-0.112-0.086-0.196c0.098-1.913,0.453-3.777,1.071-5.591c0.025-0.073,0.065-0.121,0.13-0.162
			c1.335-0.83,2.745-1.501,4.231-2.012c0.065-0.022,0.121-0.027,0.189,0.001c1.819,0.746,3.5,1.725,5.035,2.954
			C21.285,13.545,21.284,13.547,21.277,13.729z M15.878,18.881c1.608,0.008,2.959-1.321,2.969-2.921
			c0.01-1.648-1.318-2.998-2.958-3.005c-1.621-0.007-2.952,1.323-2.965,2.96C12.912,17.538,14.241,18.873,15.878,18.881z"/>
		<path d="M12.677,9.512c-0.4,0.706-0.742,1.417-1.034,2.152c-0.035,0.087-0.083,0.172-0.101,0.262
			c-0.07,0.352-0.302,0.552-0.59,0.744c-1.153,0.768-2.197,1.665-3.094,2.726c-0.042,0.05-0.066,0.081-0.117,0.002
			c-0.495-0.767-0.907-1.569-1.052-2.484c-0.234-1.477,0.406-2.607,1.804-3.168c0.87-0.35,1.782-0.425,2.707-0.393
			C11.686,9.37,12.17,9.419,12.677,9.512z"/>
		<path d="M19.139,22.436c0.411-0.723,0.787-1.446,1.047-2.215c0.159-0.47,0.426-0.787,0.838-1.06
			c1.099-0.729,2.083-1.599,2.933-2.612c0.041-0.049,0.068-0.078,0.116-0.004c0.487,0.759,0.896,1.55,1.048,2.453
			c0.25,1.487-0.397,2.648-1.798,3.204c-0.898,0.357-1.839,0.429-2.793,0.387C20.073,22.569,19.616,22.522,19.139,22.436z"/>
		<path d="M14.19,26.018c-0.816-0.002-1.505-0.412-2.064-1.071c-0.405-0.478-0.686-1.028-0.911-1.61
			c-0.031-0.08-0.027-0.128,0.041-0.184c0.142-0.119,0.247-0.27,0.302-0.448c0.024-0.076,0.062-0.1,0.14-0.104
			c1.335-0.067,2.629-0.348,3.898-0.754c0.106-0.034,0.195-0.026,0.299,0.014c0.848,0.324,1.713,0.591,2.603,0.775
			c0.07,0.014,0.135,0.014,0.067,0.119c-0.644,0.998-1.377,1.915-2.369,2.596C15.559,25.787,14.89,26.015,14.19,26.018z"/>
		<path d="M18.876,6.297c-0.461,0.619-0.223,1.246,0.144,1.534c0.354,0.278,0.741,0.331,1.149,0.136
			c0.095-0.045,0.135-0.045,0.181,0.057c0.19,0.417,0.362,0.839,0.481,1.298c-0.398-0.005-0.778,0.02-1.159,0.053
			c-1.179,0.103-2.325,0.366-3.451,0.723c-0.101,0.032-0.184,0.033-0.283-0.005c-0.853-0.326-1.722-0.598-2.618-0.781
			c-0.036-0.007-0.071-0.023-0.12-0.039c0.76-1.172,1.599-2.25,2.847-2.929c0.721-0.392,1.48-0.55,2.288-0.296
			C18.525,6.109,18.705,6.191,18.876,6.297z"/>
		<path d="M7.782,16.005c0.678,0.922,1.471,1.724,2.335,2.459c0.059,0.05,0.091,0.096,0.089,0.179
			c-0.019,0.849,0.024,1.695,0.148,2.535c0.011,0.073-0.002,0.108-0.08,0.129c-0.408,0.112-0.668,0.374-0.777,0.783
			c-0.014,0.053-0.025,0.09-0.097,0.075c-0.881-0.187-1.705-0.488-2.324-1.184c-0.511-0.575-0.697-1.259-0.629-2.015
			c0.096-1.048,0.58-1.935,1.176-2.773c0.039-0.054,0.079-0.106,0.12-0.159C7.751,16.026,7.761,16.021,7.782,16.005z"/>
		<path d="M21.25,9.64c1.266,0.103,2.484,0.302,3.421,1.251c0.553,0.561,0.751,1.262,0.706,2.054
			c-0.251-0.058-0.494-0.072-0.732,0.027c-0.418,0.174-0.658,0.491-0.687,0.937c-0.03,0.462,0.179,0.817,0.594,1.027
			c0.125,0.063,0.114,0.101,0.053,0.198c-0.155,0.249-0.32,0.491-0.49,0.73c-0.048,0.067-0.076,0.089-0.138,0.004
			c-0.662-0.889-1.433-1.675-2.282-2.386c-0.059-0.05-0.088-0.102-0.086-0.183C21.633,12.073,21.54,10.856,21.25,9.64z"/>
		<path d="M21.287,13.143c-1.469-1.155-3.039-2.08-4.749-2.81c0.727-0.227,1.444-0.396,2.173-0.517
			c0.673-0.112,1.35-0.176,2.033-0.18c0.132-0.001,0.188,0.027,0.22,0.169C21.212,10.891,21.309,11.99,21.287,13.143z"/>
		<path d="M15.28,21.617c-1.189,0.358-2.366,0.599-3.573,0.677c-0.086,0.006-0.082-0.037-0.093-0.093
			c-0.093-0.473-0.365-0.784-0.839-0.903c-0.073-0.018-0.097-0.059-0.106-0.125c-0.107-0.78-0.162-1.563-0.143-2.372
			C11.985,19.954,13.561,20.878,15.28,21.617z"/>
		<path d="M20.61,19.077c0.549-1.724,0.882-3.46,0.98-5.262c0.25,0.182,0.459,0.392,0.672,0.595c0.53,0.505,1.013,1.053,1.462,1.632
			c0.115,0.148,0.08,0.225-0.023,0.343c-0.836,0.964-1.793,1.791-2.838,2.519C20.787,18.956,20.711,19.008,20.61,19.077z"/>
		<path d="M10.225,18.146c-0.822-0.718-1.558-1.468-2.187-2.319C7.972,15.738,8.01,15.69,8.061,15.63
			c0.489-0.576,1.025-1.106,1.602-1.595c0.485-0.411,0.991-0.793,1.544-1.165C10.656,14.596,10.325,16.334,10.225,18.146z"/>
		<path d="M11.816,12.107c0.332-0.866,0.708-1.674,1.155-2.449c0.042-0.073,0.087-0.084,0.162-0.068
			c0.834,0.176,1.652,0.408,2.471,0.715C14.282,10.783,13.033,11.374,11.816,12.107z"/>
		<path d="M19.998,19.842c-0.29,0.77-0.618,1.481-0.996,2.168c-0.207,0.377-0.211,0.372-0.634,0.277
			c-0.719-0.161-1.421-0.375-2.158-0.642C17.538,21.16,18.78,20.575,19.998,19.842z"/>
		<path class="st1" d="M16.181,17.078c-0.154,0.058-0.314,0.017-0.471,0.025c-0.068,0.003-0.07-0.064-0.085-0.106
			c-0.093-0.254-0.189-0.507-0.271-0.765c-0.038-0.119-0.1-0.193-0.216-0.248c-0.418-0.2-0.615-0.594-0.502-0.998
			c0.161,0.466,0.489,0.717,0.957,0.788c0.074,0.011,0.1,0.051,0.123,0.111c0.066,0.175,0.136,0.348,0.205,0.522
			C16.008,16.631,16.095,16.854,16.181,17.078z"/>
		<path class="st2" d="M16.181,17.078c-0.087-0.224-0.173-0.447-0.26-0.671c0.067-0.169,0.139-0.336,0.199-0.507
			c0.03-0.085,0.075-0.116,0.163-0.132c0.449-0.08,0.765-0.325,0.917-0.767c0.084,0.195,0.031,0.491-0.125,0.689
			c-0.108,0.138-0.241,0.247-0.403,0.312c-0.092,0.037-0.137,0.097-0.168,0.187C16.401,16.487,16.29,16.782,16.181,17.078z"/>
	</g>
</g>
</svg>
