<?xml version="1.0" encoding="utf-8"?>
<!-- Generator: Adobe Illustrator 22.0.1, SVG Export Plug-In . SVG Version: 6.00 Build 0)  -->
<svg version="1.1" id="Layer_1" xmlns="http://www.w3.org/2000/svg" xmlns:xlink="http://www.w3.org/1999/xlink" x="0px" y="0px"
	 viewBox="0 0 32 32" style="enable-background:new 0 0 32 32;" xml:space="preserve">
<style type="text/css">
	.st0{fill:#5832BF;}
	.st1{fill:#FFFFFF;}
</style>
<circle class="st0" cx="16" cy="16" r="16"/>
<g>
	<path class="st1" d="M16.055,23.953c-3.846,0.168-7.759-2.448-8.859-6.048c-0.995-3.259-0.177-6.121,2.24-8.501
		c1.552-1.528,3.461-2.341,5.621-2.568c0.503-0.053,0.504-0.04,0.504,0.447c0,0.533-0.008,1.066,0.005,1.598
		c0.009,0.347,0.118,0.636,0.542,0.648c0.196,0.111,0.269,0.29,0.263,0.502c-0.04,1.542,0.094,3.088-0.081,4.627
		c-0.346,0.005-0.69,0.006-1.031,0.086c-1.735,0.405-2.983,2.139-2.544,4.069c0.325,1.43,1.597,2.584,3.257,2.615
		c0.032,0.152,0.176,0.252,0.167,0.433C16.102,22.559,16.198,23.261,16.055,23.953z M12.334,13.95
		c0.54-0.008,0.949-0.431,0.941-0.973c-0.008-0.533-0.451-0.958-0.979-0.939c-0.432,0.015-0.944,0.453-0.945,0.806
		C11.351,13.496,11.761,13.958,12.334,13.95z"/>
	<path class="st1" d="M16.29,14.66c0.175-1.54,0.041-3.085,0.081-4.627c0.006-0.213-0.067-0.392-0.263-0.502
		c0.267-0.182,0.358-0.438,0.351-0.756c-0.013-0.546,0.009-1.093-0.009-1.638c-0.008-0.263,0.068-0.349,0.337-0.322
		c1.475,0.145,2.84,0.569,4.128,1.34c1.315,0.787,2.368,1.8,3.143,3.101c2.183,3.666,1.213,8.236-2.305,10.84
		c-1.687,1.249-3.583,1.902-5.699,1.859c0.143-0.692,0.047-1.394,0.083-2.09c0.009-0.182-0.135-0.281-0.167-0.433
		c0.092-0.009,0.185-0.02,0.277-0.025c2.183-0.138,3.668-2.325,2.966-4.387C18.74,15.622,17.719,14.882,16.29,14.66z M19.682,13.949
		c0.531,0.006,0.955-0.404,0.97-0.939c0.015-0.52-0.425-0.97-0.949-0.972c-0.507-0.002-1.015,0.481-1.009,0.96
		C18.699,13.474,19.186,13.943,19.682,13.949z"/>
	<path class="st1" d="M10.771,26.575c-1.022,0.039-1.892-0.749-1.917-1.773c-0.023-0.932-0.005-1.865-0.005-2.901
		c0.608,0.559,1.201,1.025,1.842,1.423C10.718,24.408,10.744,25.491,10.771,26.575z"/>
	<path class="st1" d="M9.269,8.455c-0.591,0.567-1.173,1.143-1.628,1.846c-0.627-0.93-0.654-2.751-0.063-3.638
		c0.396-0.593,0.95-0.87,1.671-0.772C9.256,6.746,9.262,7.601,9.269,8.455z"/>
	<path class="st1" d="M22.848,5.886c0.887-0.069,1.564,0.401,1.859,1.348c0.323,1.036,0.153,2.041-0.281,3.109
		c-0.506-0.731-1.073-1.315-1.663-1.88c0.073-0.146,0.093-0.3,0.091-0.463C22.849,7.295,22.85,6.591,22.848,5.886z"/>
	<path class="st1" d="M21.393,23.296c0.579-0.423,1.189-0.804,1.701-1.322c0.135,0.125,0.071,0.265,0.072,0.385
		c0.007,0.799,0.013,1.599,0.001,2.398c-0.015,0.959-0.724,1.712-1.681,1.811c0.002-0.969,0.004-1.937,0.003-2.906
		C21.489,23.534,21.525,23.392,21.393,23.296z"/>
	<path class="st1" d="M21.393,23.296c0.132,0.096,0.096,0.238,0.096,0.366c0.001,0.969-0.002,1.937-0.003,2.906
		c-1.295,0.085-2.251-0.94-2.08-2.219c0.017-0.127,0.066-0.191,0.178-0.227C20.218,23.915,20.799,23.592,21.393,23.296z"/>
	<path class="st1" d="M10.771,26.575c-0.027-1.084-0.053-2.168-0.08-3.252c0.573,0.28,1.129,0.596,1.736,0.802
		c0.088,0.03,0.154,0.07,0.182,0.183C12.876,25.403,11.927,26.576,10.771,26.575z"/>
	<path class="st1" d="M22.848,5.886c0.001,0.705,0,1.409,0.006,2.114c0.001,0.163-0.018,0.317-0.091,0.463
		C22.127,7.967,21.471,7.5,20.71,7.126C21.303,6.441,21.963,5.972,22.848,5.886z"/>
	<path class="st1" d="M9.269,8.455C9.262,7.601,9.256,6.746,9.249,5.892c0.786,0.08,1.37,0.523,1.906,1.057
		c0.15,0.149,0.069,0.22-0.071,0.291C10.429,7.569,9.856,8.023,9.269,8.455z"/>
	<path class="st1" d="M16.127,20.636c-1.49,0.073-2.724-1.099-2.724-2.588c0-1.499,1.22-2.654,2.728-2.581
		c0.01,0.225,0.087,0.438,0.085,0.668c-0.011,1.318-0.007,2.637-0.003,3.955C16.214,20.279,16.199,20.461,16.127,20.636z
		 M15.509,18.167c-0.001,0-0.003,0-0.004,0c0-0.226,0.019-0.454-0.005-0.677c-0.027-0.25-0.203-0.372-0.445-0.361
		c-0.214,0.009-0.408,0.111-0.42,0.342c-0.023,0.451-0.028,0.905-0.002,1.355c0.015,0.255,0.204,0.409,0.467,0.392
		c0.239-0.015,0.392-0.164,0.407-0.412C15.519,18.593,15.509,18.38,15.509,18.167z"/>
	<path class="st1" d="M16.127,20.636c0.072-0.175,0.087-0.357,0.086-0.546c-0.004-1.318-0.008-2.637,0.003-3.955
		c0.002-0.231-0.075-0.444-0.085-0.668c1.221-0.008,2.325,1.004,2.47,2.263c0.152,1.324-0.73,2.586-2.004,2.855
		C16.444,20.618,16.29,20.682,16.127,20.636z M17.406,18.211c0-0.213,0.017-0.428-0.004-0.639c-0.027-0.269-0.179-0.445-0.467-0.44
		c-0.275,0.005-0.409,0.175-0.414,0.438c-0.008,0.4-0.008,0.799,0,1.199c0.005,0.265,0.154,0.436,0.416,0.445
		c0.281,0.009,0.442-0.166,0.465-0.444C17.417,18.585,17.405,18.398,17.406,18.211z"/>
</g>
</svg>
