<?xml version="1.0" encoding="utf-8"?>
<!-- Generator: Adobe Illustrator 25.2.3, SVG Export Plug-In . SVG Version: 6.00 Build 0)  -->
<svg version="1.1" id="Layer_1" xmlns="http://www.w3.org/2000/svg" xmlns:xlink="http://www.w3.org/1999/xlink" x="0px" y="0px"
	 viewBox="0 0 32 32" style="enable-background:new 0 0 32 32;" xml:space="preserve">
<style type="text/css">
	.st0{fill-rule:evenodd;clip-rule:evenodd;fill:#D4232A;}
	.st1{fill:#FFFFFF;}
</style>
<circle class="st0" cx="16" cy="16" r="16"/>
<g>
	<path class="st1" d="M9.393,26.08c0-5.3,0-10.526,0-15.752c0-0.267,0.019-0.536,0.002-0.802c-0.04-0.62,0.851-1.369,1.396-1.366
		c3.476,0.02,6.952,0.013,10.428,0.008c0.705-0.001,1.382,0.652,1.382,1.408c0,3.452-0.009,6.903,0.006,10.355
		c0.004,0.809-0.758,1.451-1.474,1.45c-2.236-0.003-4.472,0.002-6.709-0.007c-0.224-0.001-0.378,0.063-0.535,0.222
		c-1.394,1.407-2.797,2.805-4.198,4.205C9.609,25.883,9.522,25.96,9.393,26.08z M15.985,17.146c0.705,0,1.411-0.006,2.116,0.004
		c0.203,0.003,0.27-0.056,0.269-0.265c-0.008-1.398-0.008-2.797,0.001-4.195c0.001-0.221-0.062-0.291-0.288-0.289
		c-1.398,0.01-2.797,0.01-4.195,0.001c-0.211-0.001-0.265,0.063-0.264,0.267c0.008,1.398,0.01,2.797,0,4.195
		c-0.002,0.222,0.055,0.292,0.282,0.287C14.598,17.136,15.292,17.145,15.985,17.146z"/>
</g>
</svg>
