<svg id="Layer_1" data-name="Layer 1" xmlns="http://www.w3.org/2000/svg" viewBox="0 0 32 32"><defs><style>.cls-1{fill:#302c2c;}.cls-2{fill:#fff;}</style></defs><title>pay</title><circle class="cls-1" cx="16" cy="16" r="16"/><path class="cls-2" d="M26.91,15.696a1.1368,1.1368,0,0,0-.215-.3C24.793,13.242,20.922,9,20.922,9l-4.917,5.378-4.98-5.327S7.109,13.33,5.19,15.507a.7264.7264,0,0,0-.026.952c.997,1.136,5.894,6.536,5.894,6.536l4.94-5.414L20.904,23l5.917-6.546a.7968.7968,0,0,0,.152-.217.7433.7433,0,0,0-.063-.541m-18.992.599a.5369.5369,0,0,1,.043-.665c.626-.713,3.131-3.4,3.131-3.4l3.49,3.705-3.496,3.824s-2.14-2.284-3.168-3.464m15.988.126a2.2669,2.2669,0,0,1-.256.355l-2.71,2.945L17.44,16l3.444-3.775s1.984,2.055,2.893,3.16a1.01,1.01,0,0,1,.207.309.9581.9581,0,0,1-.079.726"/></svg>