<?xml version="1.0" encoding="UTF-8"?>
<svg id="Layer_1" xmlns="http://www.w3.org/2000/svg" version="1.1" viewBox="0 0 32 32">
  <!-- Generator: Adobe Illustrator 29.2.1, SVG Export Plug-In . SVG Version: 2.1.0 Build 116)  -->
  <defs>
    <style>
      .st0 {
        fill: #f6af43;
      }

      .st1 {
        fill: #e7f6f8;
      }

      .st2 {
        fill: #050508;
      }

      .st3 {
        fill: #fefefe;
      }

      .st4 {
        fill: #8db4fd;
      }
    </style>
  </defs>
  <circle class="st1" cx="16" cy="16" r="16"/>
  <g>
    <path class="st3" d="M12.122,25.121c.224-.465.409-.951.636-1.414.431-.876,1.043-1.685,1.103-2.697.179-3.007-3.12-4.712-3.517-7.602-.361-2.627,1.602-5.029,4.362-4.562,1.316.223,2.072.849,3.182,1.438.217.115.352.171.572.024.238-.159.484-.459.712-.648,1.205-.993,2.579-.45,3.253.827.015.028.008.063.056.053.086.406.143.894.12,1.31-.024.433-.17.733.011,1.169.151.366.357.658.479,1.061.359,1.181.008,2.558-.87,3.42-.168.165-.319.264-.443.487-.416.744.431,1.419.831,1.956.013.017.025.063.053.037.059.105.144.212.203.327.778,1.493,1.139,3.151,1.357,4.813h-12.1ZM14.538,11.407c-1.302.123-1.136,2.368.234,2.254,1.289-.108,1.067-2.376-.234-2.254ZM21.037,11.446c-.89.13-.825,1.989.117,2.093,1.139.125,1.052-2.263-.117-2.093ZM18.762,13.381c-.045-.013-.107-.038-.114-.04-.123-.028-.366-.002-.466.04-.146-.006-.318.057-.453.117-.159.07-.474.257-.541.419-.085.205.217.425.368.521.699.44,1.353.478,1.874-.238.101-.139.242-.326.112-.483-.136-.165-.563-.357-.78-.335Z"/>
    <path class="st2" d="M6.282,25.121c-.026-.347-.033-.721-.021-1.071.062-1.782.639-3.5,1.636-4.964.243-.356.993-1.243,1.043-1.617.06-.452-.322-1.01-.502-1.415-.894-2.018-1.2-3.477-.28-5.587,1.127-2.585,3.998-3.576,6.633-3.747.11-.007.278.021.376-.004.084-.021.445-.275.561-.339.294-.162.595-.322.918-.422.184-.057.538-.202.62.051.075.229-.22.679-.345.874.744.006,1.517.112,2.24.29.478.118.984.328,1.417.563,1.277.691,2.231,2.467,2.303,3.897.014.288-.021.596-.002.882.026.375.247.616.398.942.522,1.123.399,2.544-.369,3.525-.059.076-.452.462-.445.508.125.15.281.28.417.423.914.961,1.4,1.821,1.889,3.051.529,1.328.901,2.714.71,4.16h-.24c-.065-2.114-.699-4.249-1.904-5.986-.239-.344-.494-.657-.766-.974-.163-.19-.434-.366-.35-.66.878-.862,1.229-2.239.87-3.42-.122-.403-.328-.695-.479-1.061-.181-.437-.035-.736-.011-1.169.023-.415-.034-.904-.12-1.31-.155-.731-.748-1.708-1.331-2.179-.351-.284-.83-.504-1.25-.67-.591-.233-1.219-.356-1.839-.491,0,.26-.308.382-.52.44-.008.03.008.033.02.05.051.075.19.167.259.246.109.125.318.336.191.503-.118.156-.484.021-.629-.05-.067-.033-.242-.117-.239-.2.007-.193.347-.011.459-.02-.109-.173-.593-.538-.287-.727l.347-.163c-.058.005-.112-.018-.169-.021-.168-.01-.975.056-1.043.003-.042-.034-.031-.097-.019-.143.04-.148.579-.862.51-.939-.602.187-1.118.573-1.679.851-2.529.123-5.448.81-6.625,3.295-.905,1.911-.803,3.697.08,5.587.166.355.58.971.603,1.337.041.663-.699,1.452-1.064,1.975-.679.972-1.095,1.808-1.366,2.974-.223.961-.266,1.935-.27,2.92h-.34Z"/>
    <path class="st4" d="M22.222,17.501c-.083.294.188.47.35.66.272.317.527.63.766.974,1.205,1.738,1.839,3.873,1.904,5.986h-.64c-.034-.539-.13-1.075-.25-1.6-.346-1.524-.922-3.048-1.91-4.27-.069-.042-.15.05-.137.116.112.163.222.329.32.501.025.043.028.098.036.114-.027.026-.04-.02-.053-.037-.399-.538-1.247-1.212-.831-1.956.125-.223.275-.321.443-.487Z"/>
    <path class="st2" d="M24.602,25.121h-.38c-.218-1.663-.578-3.321-1.357-4.813-.06-.114-.144-.221-.203-.327-.009-.016-.012-.071-.036-.114-.098-.172-.208-.338-.32-.501-.014-.065.068-.158.137-.116.988,1.222,1.564,2.746,1.91,4.27.119.526.216,1.061.25,1.6Z"/>
    <path class="st2" d="M11.382,25.121h-.3c.002-.782.286-1.524.434-2.276.128-.653.125-1.391-.027-2.04-.031-.131-.107-.295-.125-.415-.014-.089.052-.046.089-.009.53.519.495,1.807.383,2.484-.069.417-.204.819-.287,1.233-.068.339-.103.684-.166,1.024Z"/>
    <path class="st2" d="M14.538,11.407c1.301-.123,1.523,2.146.234,2.254-1.369.114-1.536-2.131-.234-2.254ZM15.255,12.794c.329-.305.152-1.101-.322-1.134-.376-.026-.526.367-.489.689.044.374.473.759.811.445ZM14.197,12.825c-.259.024-.275.417-.044.455.393.064.341-.482.044-.455Z"/>
    <path class="st0" d="M18.182,13.381c.1-.042.343-.068.466-.04.007.002.069.027.114.04.186.052.631.238.717.413.064.129-.065.308-.14.414-.277.388-.653.596-1.127.454-.219-.066-.628-.29-.791-.449-.169-.164-.156-.279.012-.431.183-.165.519-.305.749-.401ZM19.402,13.901c-.208.03-.421.122-.63.139-.344.028-.757-.024-1.11-.031-.03,0-.049-.01-.06.031.6.06,1.267.239,1.8-.14Z"/>
    <path class="st2" d="M21.037,11.446c1.168-.171,1.256,2.217.117,2.093-.942-.103-1.007-1.963-.117-2.093ZM21.317,11.645c-.462.067-.339,1.06.132,1.034.514-.028.388-1.109-.132-1.034ZM20.817,12.705c-.241.024-.244.463.054.415.237-.038.176-.437-.054-.415Z"/>
    <path class="st2" d="M18.762,13.381c.217-.022.644.17.78.335.13.157-.011.344-.112.483-.522.716-1.175.678-1.874.238-.152-.095-.454-.316-.368-.521.067-.162.382-.349.541-.419.135-.059.307-.123.453-.117-.231.096-.566.235-.749.401-.168.152-.181.267-.012.431.163.158.572.383.791.449.474.142.85-.066,1.127-.454.075-.105.204-.284.14-.414-.086-.175-.531-.361-.717-.413Z"/>
    <path class="st4" d="M6.622,25.121c.004-.985.047-1.959.27-2.92.271-1.167.687-2.002,1.366-2.974.365-.523,1.105-1.312,1.064-1.975-.023-.366-.437-.982-.603-1.337-.883-1.89-.985-3.676-.08-5.587,1.176-2.485,4.096-3.173,6.625-3.295.561-.278,1.077-.664,1.679-.851.068.078-.47.792-.51.939-.013.046-.024.109.019.143.068.054.875-.013,1.043-.003.057.004.111.026.169.021l-.347.163c-.306.189.178.554.287.727-.111.008-.451-.173-.459.02-.003.082.172.167.239.2.146.07.511.206.629.05.127-.168-.082-.379-.191-.503-.069-.079-.207-.171-.259-.246-.012-.017-.028-.02-.02-.05.213-.058.52-.181.52-.44.62.134,1.248.257,1.839.491.42.166.899.386,1.25.67.582.471,1.175,1.448,1.331,2.179-.048.011-.041-.024-.056-.053-.674-1.277-2.048-1.82-3.253-.827-.229.188-.474.489-.712.648-.22.147-.355.091-.572-.024-1.109-.589-1.866-1.216-3.182-1.438-2.76-.467-4.723,1.935-4.362,4.562.397,2.89,3.696,4.596,3.517,7.602-.06,1.012-.672,1.821-1.103,2.697-.228.463-.413.949-.636,1.414h-.74c.063-.34.098-.685.166-1.024.083-.413.219-.816.287-1.233.112-.677.147-1.965-.383-2.484-.038-.037-.103-.08-.089.009.018.12.094.284.125.415.152.649.155,1.387.027,2.04-.148.753-.432,1.494-.434,2.276h-4.46Z"/>
    <path class="st3" d="M15.255,12.794c-.338.313-.767-.071-.811-.445-.038-.322.113-.714.489-.689.474.033.651.829.322,1.134Z"/>
    <path class="st1" d="M14.197,12.825c.297-.028.35.519-.044.455-.231-.038-.216-.43.044-.455Z"/>
    <path class="st2" d="M19.402,13.901c-.533.379-1.2.199-1.8.14.01-.041.029-.032.06-.031.353.007.766.06,1.11.031.209-.017.422-.11.63-.139Z"/>
    <path class="st3" d="M21.317,11.645c.52-.075.646,1.007.132,1.034-.471.025-.594-.968-.132-1.034Z"/>
    <path class="st1" d="M20.817,12.705c.23-.022.291.376.054.415-.299.048-.295-.391-.054-.415Z"/>
  </g>
</svg>