<?xml version="1.0" encoding="utf-8"?>
<!-- Generator: Adobe Illustrator 26.0.1, SVG Export Plug-In . SVG Version: 6.00 Build 0)  -->
<svg version="1.1" id="Layer_1" xmlns="http://www.w3.org/2000/svg" xmlns:xlink="http://www.w3.org/1999/xlink" x="0px" y="0px"
	 viewBox="0 0 32 32" style="enable-background:new 0 0 32 32;" xml:space="preserve">
<style type="text/css">
	.st0{fill:url(#SVGID_1_);}
	.st1{fill:#FFFFFF;}
	.st2{fill:url(#SVGID_00000121995687044300985750000013250247537710706359_);}
	.st3{fill:url(#SVGID_00000114050461933893581900000002172647136278422942_);}
	.st4{fill:url(#SVGID_00000031180467832276807690000017681083090171186596_);}
	.st5{fill:url(#SVGID_00000138572260613948761220000008888492143289201079_);}
	.st6{fill:url(#SVGID_00000150070992661790326970000008839800644747593144_);}
</style>
<linearGradient id="SVGID_1_" gradientUnits="userSpaceOnUse" x1="23.7797" y1="31.4749" x2="7.9909" y2="4.1278" gradientTransform="matrix(1 0 0 -1 0 34)">
	<stop  offset="0" style="stop-color:#FA0080"/>
	<stop  offset="0.6" style="stop-color:#B80082"/>
</linearGradient>
<circle class="st0" cx="16" cy="16" r="15.786"/>
<g>
	<path class="st1" d="M15.982,28.489c-2.144,0.025-4.277-0.152-6.39-0.515c-1.798-0.309-3.005-1.915-2.747-3.621
		c0.132-0.873,0.324-1.738,0.446-2.613c0.342-2.45,0.572-4.917,0.309-7.383c-0.117-1.101-0.521-2.171-0.803-3.253
		C6.599,10.341,6.3,9.593,6.198,8.819C5.969,7.088,6.844,4.822,8.796,3.85c1.376-0.685,2.922-0.318,3.897,0.906
		c0.618,0.776,0.872,1.683,1.015,2.64c0.242,1.625,0.494,3.248,0.742,4.872c0.041,0.271,0.191,0.426,0.473,0.427
		c0.721,0.002,1.442-0.002,2.163,0.002c0.313,0.002,0.442-0.19,0.484-0.457c0.274-1.765,0.539-3.531,0.813-5.296
		c0.13-0.837,0.426-1.611,0.996-2.252c1.308-1.472,3.124-1.595,4.632-0.326c1.607,1.353,2.216,3.583,1.581,5.593
		c-0.42,1.329-0.862,2.662-1.117,4.028c-0.193,1.029-0.146,2.111-0.133,3.168c0.029,2.38,0.34,4.733,0.779,7.07
		c0.34,1.808-0.808,3.446-2.724,3.738c-1.614,0.246-3.248,0.368-4.875,0.519C17.014,28.529,16.496,28.489,15.982,28.489z
		 M13.596,12.658c-0.022-0.196-0.03-0.338-0.054-0.477c-0.261-1.516-0.527-3.031-0.785-4.548c-0.132-0.772-0.274-1.533-0.761-2.184
		c-0.76-1.014-1.952-1.248-3.024-0.58c-1.377,0.858-2.02,2.547-1.774,4.122c0.088,0.563,0.305,1.106,0.459,1.659
		c0.24,0.857,0.478,1.716,0.722,2.594C10.093,12.872,11.789,12.502,13.596,12.658z M23.532,13.27
		c0.032-0.095,0.046-0.132,0.058-0.17c0.375-1.205,0.756-2.408,1.122-3.616c0.479-1.583-0.114-3.437-1.404-4.432
		c-1.014-0.782-2.166-0.755-3.015,0.085C19.812,5.613,19.521,6.2,19.4,6.862c-0.274,1.492-0.538,2.987-0.801,4.481
		c-0.075,0.429-0.135,0.861-0.208,1.333C20.172,12.559,21.886,12.616,23.532,13.27z M16.04,24.317
		c1.678-0.029,3.376-0.242,5.053-0.623c0.321-0.073,0.465-0.297,0.397-0.581c-0.066-0.273-0.271-0.388-0.593-0.336
		c-0.992,0.161-1.978,0.379-2.977,0.465c-1.041,0.09-2.099,0.129-3.139,0.05c-1.225-0.093-2.438-0.336-3.655-0.516
		c-0.332-0.049-0.564,0.079-0.621,0.35c-0.057,0.265,0.114,0.505,0.424,0.574C12.598,24.075,14.286,24.289,16.04,24.317z
		 M11.054,18.798c0.115,0.158,0.184,0.353,0.305,0.396c0.161,0.056,0.399,0.052,0.541-0.032c0.697-0.411,1.372-0.424,2.06,0.006
		c0.281,0.176,0.557,0.126,0.704-0.106c0.153-0.242,0.087-0.499-0.179-0.693c-0.855-0.627-2.285-0.621-3.124,0.025
		C11.242,18.484,11.172,18.639,11.054,18.798z M19.02,17.907c-0.531,0-1.051,0.154-1.483,0.455c-0.26,0.181-0.336,0.483-0.179,0.718
		c0.139,0.208,0.43,0.258,0.686,0.095c0.696-0.445,1.381-0.438,2.075,0.005c0.253,0.162,0.546,0.103,0.682-0.11
		c0.146-0.229,0.077-0.523-0.171-0.694C20.162,18.052,19.642,17.889,19.02,17.907z"/>
	
		<linearGradient id="SVGID_00000079461037039940026110000003324717287064733598_" gradientUnits="userSpaceOnUse" x1="7.1464" y1="25.132" x2="13.596" y2="25.132" gradientTransform="matrix(1 0 0 -1 0 34)">
		<stop  offset="0" style="stop-color:#FA0080"/>
		<stop  offset="0.6" style="stop-color:#B80082"/>
	</linearGradient>
	<path style="fill:url(#SVGID_00000079461037039940026110000003324717287064733598_);" d="M13.596,12.658
		c-1.807-0.156-3.503,0.214-5.217,0.586c-0.245-0.879-0.482-1.737-0.722-2.594c-0.155-0.553-0.371-1.096-0.459-1.659
		C6.952,7.416,7.595,5.728,8.971,4.869c1.072-0.668,2.265-0.434,3.024,0.58c0.488,0.65,0.63,1.412,0.761,2.184
		c0.258,1.517,0.524,3.032,0.785,4.548C13.566,12.32,13.574,12.462,13.596,12.658z"/>
	
		<linearGradient id="SVGID_00000041283531800138056730000005874256672038621056_" gradientUnits="userSpaceOnUse" x1="18.391" y1="25.1223" x2="24.8769" y2="25.1223" gradientTransform="matrix(1 0 0 -1 0 34)">
		<stop  offset="0" style="stop-color:#FA0080"/>
		<stop  offset="0.6" style="stop-color:#B80082"/>
	</linearGradient>
	<path style="fill:url(#SVGID_00000041283531800138056730000005874256672038621056_);" d="M23.532,13.27
		c-1.646-0.654-3.36-0.711-5.141-0.595c0.073-0.472,0.132-0.904,0.208-1.333c0.263-1.494,0.527-2.989,0.801-4.481
		c0.122-0.662,0.413-1.249,0.893-1.724c0.849-0.84,2.001-0.867,3.015-0.085c1.29,0.994,1.883,2.848,1.404,4.432
		c-0.366,1.208-0.747,2.411-1.122,3.616C23.579,13.138,23.564,13.176,23.532,13.27z"/>
	
		<linearGradient id="SVGID_00000089532069791387500240000013217683193738082458_" gradientUnits="userSpaceOnUse" x1="21.5064" y1="10.4589" x2="10.4939" y2="10.4589" gradientTransform="matrix(1 0 0 -1 0 34)">
		<stop  offset="0" style="stop-color:#FA0080"/>
		<stop  offset="0.9289" style="stop-color:#B80082"/>
	</linearGradient>
	<path style="fill:url(#SVGID_00000089532069791387500240000013217683193738082458_);" d="M16.04,24.317
		c-1.754-0.028-3.442-0.242-5.111-0.616c-0.31-0.069-0.481-0.309-0.424-0.574c0.058-0.271,0.289-0.4,0.621-0.35
		c1.218,0.18,2.431,0.423,3.655,0.516c1.04,0.079,2.097,0.04,3.139-0.05c0.998-0.086,1.985-0.304,2.977-0.465
		c0.322-0.053,0.527,0.062,0.593,0.336c0.069,0.284-0.075,0.508-0.397,0.581C19.416,24.075,17.719,24.287,16.04,24.317z"/>
	
		<linearGradient id="SVGID_00000114777860704490244200000010018070644586632325_" gradientUnits="userSpaceOnUse" x1="14.7455" y1="15.4124" x2="11.0541" y2="15.4124" gradientTransform="matrix(1 0 0 -1 0 34)">
		<stop  offset="0" style="stop-color:#FA0080"/>
		<stop  offset="0.9289" style="stop-color:#B80082"/>
	</linearGradient>
	<path style="fill:url(#SVGID_00000114777860704490244200000010018070644586632325_);" d="M11.054,18.798
		c0.117-0.158,0.188-0.313,0.307-0.405c0.839-0.647,2.268-0.652,3.124-0.025c0.266,0.195,0.332,0.452,0.179,0.693
		c-0.147,0.232-0.423,0.282-0.704,0.106c-0.688-0.43-1.363-0.417-2.06-0.006c-0.143,0.084-0.381,0.088-0.541,0.032
		C11.238,19.151,11.169,18.956,11.054,18.798z"/>
	
		<linearGradient id="SVGID_00000178885029361094023280000002067198547637748613_" gradientUnits="userSpaceOnUse" x1="20.8769" y1="15.411" x2="17.2768" y2="15.411" gradientTransform="matrix(1 0 0 -1 0 34)">
		<stop  offset="0" style="stop-color:#FA0080"/>
		<stop  offset="0.9289" style="stop-color:#B80082"/>
	</linearGradient>
	<path style="fill:url(#SVGID_00000178885029361094023280000002067198547637748613_);" d="M19.02,17.907
		c0.623-0.018,1.142,0.145,1.611,0.468c0.247,0.171,0.316,0.465,0.171,0.694c-0.135,0.213-0.428,0.272-0.682,0.11
		c-0.694-0.443-1.379-0.45-2.075-0.005c-0.256,0.164-0.547,0.113-0.686-0.095c-0.157-0.235-0.082-0.537,0.179-0.718
		C17.968,18.062,18.488,17.908,19.02,17.907z"/>
</g>
</svg>
