<?xml version="1.0" encoding="utf-8"?>
<!-- Generator: Adobe Illustrator 22.0.1, SVG Export Plug-In . SVG Version: 6.00 Build 0)  -->
<svg version="1.1" id="Layer_1" xmlns="http://www.w3.org/2000/svg" xmlns:xlink="http://www.w3.org/1999/xlink" x="0px" y="0px"
	 viewBox="0 0 32 32" style="enable-background:new 0 0 32 32;" xml:space="preserve">
<style type="text/css">
	.st0{fill:url(#SVGID_1_);}
	.st1{fill:#FFFFFF;}
</style>
<g>
	<linearGradient id="SVGID_1_" gradientUnits="userSpaceOnUse" x1="7.9334" y1="23.9741" x2="25.3761" y2="6.7314">
		<stop  offset="0" style="stop-color:#9D161A"/>
		<stop  offset="1" style="stop-color:#DE1A22"/>
	</linearGradient>
	<ellipse class="st0" cx="16" cy="16" rx="14.582" ry="15.71"/>
	<path class="st1" d="M29.034,16c0-0.109-0.002-0.218-0.004-0.327l1.027-0.022c0,0-0.003-0.136-0.008-0.34
		c-0.007-0.204-0.031-0.475-0.049-0.747l-0.008-0.102c-0.004-0.034-0.008-0.067-0.012-0.1c-0.008-0.067-0.015-0.132-0.023-0.195
		c-0.015-0.127-0.029-0.245-0.041-0.346c-0.01-0.102-0.026-0.186-0.035-0.244c-0.01-0.059-0.015-0.092-0.015-0.092l-1.016,0.159
		c-0.017-0.108-0.035-0.215-0.054-0.323l1.013-0.182c0,0-0.006-0.033-0.015-0.092c-0.008-0.059-0.027-0.142-0.048-0.242
		c-0.021-0.1-0.046-0.217-0.073-0.341c-0.013-0.063-0.027-0.127-0.041-0.193c-0.015-0.065-0.034-0.131-0.051-0.197
		c-0.071-0.263-0.133-0.529-0.2-0.723c-0.061-0.195-0.102-0.325-0.102-0.325L28.3,11.344c-0.034-0.104-0.069-0.207-0.105-0.31
		l0.972-0.341c0,0-0.047-0.128-0.117-0.32c-0.066-0.194-0.175-0.444-0.28-0.696c-0.027-0.063-0.053-0.126-0.079-0.188
		c-0.029-0.061-0.057-0.121-0.084-0.178c-0.055-0.116-0.106-0.223-0.15-0.316c-0.044-0.092-0.08-0.17-0.109-0.222
		C28.319,8.72,28.303,8.69,28.303,8.69l-0.916,0.474c-0.05-0.097-0.102-0.193-0.154-0.289l0.905-0.495c0,0-0.016-0.03-0.044-0.083
		c-0.014-0.026-0.031-0.058-0.051-0.095c-0.021-0.036-0.045-0.076-0.071-0.12c-0.052-0.088-0.114-0.191-0.179-0.301
		c-0.033-0.055-0.067-0.112-0.101-0.17c-0.035-0.057-0.074-0.113-0.111-0.171c-0.151-0.228-0.298-0.459-0.423-0.622
		c-0.121-0.166-0.201-0.276-0.201-0.276L26.13,7.164c-0.066-0.087-0.132-0.173-0.2-0.259l0.81-0.639c0,0-0.086-0.107-0.214-0.267
		c-0.033-0.04-0.066-0.084-0.105-0.129c-0.039-0.044-0.08-0.091-0.122-0.139c-0.085-0.096-0.176-0.199-0.267-0.301
		c-0.045-0.052-0.092-0.102-0.139-0.149c-0.047-0.048-0.093-0.096-0.138-0.142c-0.09-0.092-0.173-0.178-0.245-0.251
		c-0.072-0.073-0.137-0.13-0.18-0.171c-0.044-0.041-0.069-0.064-0.069-0.064l-0.707,0.753c-0.08-0.075-0.16-0.148-0.241-0.221
		l0.69-0.772c0,0-0.024-0.024-0.071-0.062c-0.046-0.039-0.111-0.094-0.19-0.161c-0.078-0.066-0.17-0.144-0.268-0.227
		c-0.1-0.082-0.21-0.163-0.319-0.247c-0.11-0.082-0.216-0.169-0.322-0.242c-0.106-0.073-0.205-0.142-0.29-0.2
		c-0.085-0.058-0.156-0.107-0.205-0.141c-0.05-0.034-0.08-0.051-0.08-0.051l-0.563,0.87c-0.092-0.059-0.184-0.117-0.277-0.174
		l0.54-0.883c0,0-0.029-0.018-0.08-0.05c-0.052-0.03-0.123-0.08-0.214-0.128c-0.09-0.05-0.196-0.108-0.309-0.171
		c-0.113-0.062-0.232-0.131-0.357-0.189c-0.248-0.119-0.493-0.247-0.686-0.322c-0.19-0.081-0.317-0.135-0.317-0.135l-0.391,0.96
		c-0.101-0.041-0.202-0.081-0.304-0.119l0.366-0.97c0,0-0.13-0.047-0.324-0.118c-0.049-0.017-0.101-0.037-0.157-0.056
		c-0.057-0.017-0.116-0.036-0.178-0.055c-0.124-0.038-0.256-0.078-0.388-0.118c-0.066-0.021-0.132-0.039-0.199-0.054
		c-0.066-0.016-0.131-0.033-0.194-0.048c-0.125-0.031-0.243-0.06-0.343-0.085c-0.101-0.023-0.186-0.037-0.245-0.049
		c-0.059-0.011-0.093-0.018-0.093-0.018l-0.199,1.017c-0.107-0.021-0.214-0.04-0.321-0.058l0.172-1.025c0,0-0.034-0.008-0.094-0.015
		c-0.06-0.008-0.145-0.02-0.248-0.034c-0.103-0.014-0.222-0.03-0.35-0.048c-0.128-0.017-0.266-0.024-0.404-0.037
		c-0.138-0.011-0.275-0.024-0.404-0.031c-0.129-0.004-0.25-0.007-0.353-0.01C16.138,0.921,16,0.917,16,0.917v1.04l0,0
		c-0.109,0-0.218,0.002-0.326,0.004l-0.027-1.035c0,0-0.138,0.004-0.345,0.01c-0.206,0.014-0.481,0.037-0.756,0.061
		c-0.273,0.038-0.547,0.072-0.752,0.106c-0.203,0.039-0.339,0.065-0.339,0.065l0.199,1.017c-0.107,0.021-0.214,0.043-0.32,0.067
		l-0.227-1.014c0,0-0.134,0.033-0.335,0.083c-0.1,0.026-0.218,0.052-0.343,0.088c-0.124,0.038-0.256,0.078-0.388,0.118
		c-0.266,0.075-0.522,0.178-0.717,0.247c-0.097,0.036-0.179,0.063-0.234,0.088C11.036,1.886,11.004,1.9,11.004,1.9l0.391,0.96
		c-0.101,0.041-0.201,0.083-0.301,0.127l-0.416-0.949c0,0-0.032,0.013-0.087,0.037c-0.028,0.012-0.062,0.026-0.1,0.043
		c-0.038,0.018-0.08,0.039-0.127,0.062c-0.093,0.045-0.201,0.098-0.317,0.155C9.989,2.363,9.929,2.392,9.868,2.422
		c-0.059,0.033-0.12,0.066-0.18,0.099c-0.12,0.067-0.241,0.133-0.354,0.195C9.221,2.778,9.121,2.846,9.033,2.899
		C8.858,3.007,8.741,3.08,8.741,3.08l0.563,0.87C9.213,4.009,9.122,4.07,9.032,4.131L8.448,3.277c0,0-0.113,0.078-0.283,0.195
		c-0.168,0.12-0.383,0.29-0.602,0.457C7.355,4.107,7.143,4.282,6.989,4.419c-0.15,0.14-0.251,0.234-0.251,0.234l0.707,0.753
		C7.366,5.479,7.288,5.555,7.21,5.631L6.483,4.894c0,0-0.096,0.098-0.239,0.245C6.173,5.214,6.087,5.298,6.001,5.393
		C5.916,5.489,5.825,5.591,5.734,5.694c-0.186,0.202-0.351,0.42-0.481,0.579C5.123,6.431,5.044,6.543,5.044,6.543L5.87,7.164
		C5.805,7.251,5.74,7.339,5.676,7.427l-0.839-0.6c0,0-0.02,0.028-0.055,0.076C4.746,6.951,4.696,7.02,4.641,7.106
		C4.584,7.192,4.518,7.292,4.448,7.399C4.412,7.452,4.376,7.508,4.339,7.564C4.302,7.62,4.269,7.68,4.233,7.738
		C4.095,7.973,3.95,8.205,3.858,8.389C3.761,8.569,3.697,8.69,3.697,8.69l0.916,0.474c-0.05,0.097-0.099,0.194-0.147,0.292
		L3.54,9.003c0,0-0.059,0.123-0.147,0.308C3.3,9.494,3.202,9.749,3.094,10c-0.055,0.125-0.101,0.253-0.145,0.374
		c-0.044,0.12-0.085,0.232-0.12,0.328c-0.018,0.048-0.034,0.092-0.048,0.131c-0.013,0.04-0.023,0.074-0.032,0.103
		c-0.018,0.057-0.028,0.089-0.028,0.089L3.7,11.344c-0.034,0.104-0.066,0.208-0.098,0.312l-0.986-0.297c0,0-0.01,0.033-0.028,0.089
		c-0.019,0.057-0.042,0.139-0.067,0.238c-0.026,0.099-0.057,0.214-0.089,0.338c-0.016,0.062-0.033,0.126-0.05,0.191
		c-0.017,0.065-0.029,0.132-0.044,0.198c-0.029,0.133-0.057,0.266-0.084,0.391c-0.013,0.063-0.026,0.123-0.038,0.18
		c-0.01,0.058-0.019,0.112-0.027,0.163c-0.034,0.202-0.056,0.336-0.056,0.336l1.016,0.159c-0.017,0.108-0.033,0.216-0.047,0.324
		l-1.021-0.137c0,0-0.016,0.135-0.04,0.338c-0.011,0.101-0.028,0.22-0.038,0.347c-0.009,0.127-0.019,0.263-0.028,0.399
		c-0.008,0.136-0.023,0.271-0.024,0.399c-0.003,0.128-0.006,0.246-0.008,0.349C1.938,15.864,1.934,16,1.934,16h1.031l0,0
		c0,0.109,0.001,0.219,0.004,0.327l-1.027,0.022c0,0,0.003,0.136,0.008,0.34c0.007,0.204,0.031,0.475,0.049,0.747l0.007,0.102
		c0.004,0.034,0.008,0.067,0.012,0.1c0.008,0.067,0.015,0.132,0.023,0.196c0.015,0.127,0.029,0.245,0.041,0.347
		c0.01,0.102,0.026,0.185,0.035,0.244c0.01,0.059,0.015,0.092,0.015,0.092l1.016-0.159c0.017,0.108,0.035,0.216,0.054,0.323
		L2.19,18.862c0,0,0.006,0.034,0.015,0.092c0.008,0.059,0.027,0.142,0.048,0.242c0.021,0.1,0.046,0.217,0.073,0.341
		c0.013,0.062,0.027,0.127,0.041,0.192c0.015,0.065,0.034,0.131,0.051,0.197c0.071,0.263,0.133,0.529,0.2,0.723
		c0.061,0.195,0.102,0.325,0.102,0.325L3.7,20.656c0.034,0.104,0.069,0.207,0.105,0.31l-0.972,0.341c0,0,0.047,0.128,0.117,0.32
		c0.066,0.194,0.175,0.444,0.28,0.696c0.026,0.063,0.053,0.126,0.079,0.188c0.029,0.061,0.057,0.121,0.084,0.178
		c0.055,0.116,0.106,0.223,0.15,0.316c0.044,0.092,0.08,0.17,0.109,0.222c0.028,0.053,0.044,0.083,0.044,0.083l0.916-0.474
		c0.05,0.097,0.102,0.193,0.154,0.289L3.862,23.62c0,0,0.016,0.03,0.044,0.083c0.014,0.026,0.031,0.058,0.051,0.095
		c0.021,0.036,0.045,0.076,0.071,0.12c0.052,0.088,0.114,0.191,0.179,0.301c0.033,0.055,0.067,0.112,0.101,0.17
		c0.035,0.057,0.074,0.114,0.111,0.171c0.151,0.228,0.298,0.459,0.423,0.622c0.121,0.166,0.201,0.276,0.201,0.276l0.826-0.621
		c0.066,0.087,0.132,0.174,0.2,0.259l-0.81,0.639c0,0,0.086,0.107,0.214,0.267c0.033,0.04,0.066,0.084,0.105,0.129
		c0.039,0.044,0.08,0.091,0.123,0.139c0.085,0.096,0.176,0.199,0.267,0.301c0.045,0.052,0.092,0.102,0.139,0.15
		c0.047,0.048,0.093,0.096,0.138,0.142c0.09,0.092,0.173,0.178,0.245,0.251c0.073,0.073,0.137,0.13,0.18,0.171
		c0.044,0.041,0.069,0.064,0.069,0.064l0.707-0.753c0.08,0.075,0.16,0.148,0.241,0.221l-0.69,0.772c0,0,0.024,0.024,0.071,0.062
		c0.046,0.039,0.111,0.094,0.19,0.161c0.079,0.066,0.17,0.144,0.268,0.227c0.1,0.082,0.21,0.163,0.319,0.247
		c0.11,0.082,0.216,0.17,0.322,0.242c0.106,0.073,0.205,0.142,0.29,0.2c0.085,0.058,0.156,0.107,0.205,0.141
		c0.05,0.033,0.08,0.051,0.08,0.051l0.563-0.87c0.092,0.059,0.184,0.117,0.277,0.174l-0.54,0.883c0,0,0.029,0.018,0.08,0.05
		c0.052,0.03,0.123,0.08,0.214,0.128c0.09,0.05,0.196,0.108,0.309,0.171c0.113,0.062,0.232,0.131,0.357,0.189
		c0.248,0.119,0.493,0.247,0.686,0.323c0.19,0.081,0.317,0.135,0.317,0.135l0.391-0.96c0.101,0.041,0.202,0.081,0.304,0.119
		l-0.366,0.97c0,0,0.13,0.047,0.324,0.118c0.049,0.017,0.101,0.037,0.157,0.056c0.057,0.017,0.117,0.036,0.178,0.055
		c0.124,0.038,0.256,0.078,0.388,0.118c0.066,0.021,0.132,0.039,0.199,0.054c0.066,0.017,0.131,0.033,0.194,0.048
		c0.126,0.031,0.243,0.06,0.343,0.085c0.101,0.024,0.186,0.037,0.245,0.05c0.059,0.011,0.093,0.018,0.093,0.018l0.199-1.017
		c0.107,0.021,0.214,0.04,0.321,0.058l-0.172,1.025c0,0,0.034,0.008,0.093,0.015c0.06,0.008,0.145,0.02,0.248,0.034
		c0.103,0.014,0.222,0.03,0.35,0.048c0.128,0.017,0.266,0.024,0.404,0.037c0.138,0.011,0.275,0.024,0.404,0.031
		c0.129,0.004,0.25,0.007,0.353,0.01C15.862,31.079,16,31.083,16,31.083v-1.04c0.109,0,0.218-0.002,0.327-0.004l0.027,1.035
		c0,0,0.138-0.004,0.345-0.01c0.206-0.014,0.482-0.038,0.756-0.061c0.273-0.038,0.547-0.072,0.752-0.106
		c0.203-0.039,0.339-0.065,0.339-0.065l-0.199-1.017c0.107-0.021,0.213-0.043,0.319-0.067l0.227,1.014c0,0,0.134-0.033,0.335-0.083
		c0.1-0.026,0.218-0.052,0.343-0.088c0.124-0.038,0.256-0.078,0.388-0.118c0.266-0.075,0.522-0.178,0.717-0.247
		c0.097-0.036,0.179-0.063,0.234-0.089c0.055-0.024,0.087-0.037,0.087-0.037l-0.391-0.961c0.101-0.041,0.201-0.083,0.301-0.127
		l0.416,0.949c0,0,0.032-0.014,0.087-0.037c0.028-0.012,0.062-0.026,0.1-0.043c0.038-0.018,0.08-0.039,0.127-0.062
		c0.093-0.045,0.201-0.098,0.317-0.154c0.058-0.029,0.118-0.058,0.179-0.088c0.059-0.033,0.12-0.066,0.18-0.099
		c0.121-0.066,0.241-0.133,0.354-0.195c0.113-0.062,0.213-0.129,0.302-0.182c0.175-0.109,0.292-0.181,0.292-0.181l-0.563-0.87
		c0.091-0.059,0.182-0.119,0.272-0.181l0.584,0.854c0,0,0.113-0.078,0.283-0.195c0.168-0.12,0.383-0.29,0.601-0.457
		c0.209-0.177,0.421-0.353,0.575-0.489c0.15-0.14,0.251-0.234,0.251-0.234l-0.707-0.753c0.079-0.074,0.158-0.15,0.236-0.226
		l0.727,0.737c0,0,0.096-0.098,0.239-0.245c0.071-0.074,0.157-0.158,0.243-0.253c0.085-0.096,0.176-0.199,0.267-0.301
		c0.186-0.202,0.351-0.42,0.481-0.579c0.131-0.158,0.209-0.271,0.209-0.271l-0.826-0.621c0.065-0.087,0.13-0.175,0.194-0.264
		l0.839,0.601c0,0,0.02-0.028,0.055-0.076c0.036-0.048,0.086-0.117,0.141-0.203c0.056-0.086,0.122-0.185,0.193-0.292
		c0.035-0.053,0.072-0.109,0.109-0.165c0.037-0.056,0.07-0.116,0.106-0.174c0.138-0.235,0.284-0.467,0.376-0.651
		c0.096-0.181,0.161-0.301,0.161-0.301l-0.916-0.474c0.05-0.097,0.099-0.194,0.147-0.292l0.926,0.453c0,0,0.059-0.123,0.146-0.308
		c0.093-0.183,0.191-0.438,0.299-0.689c0.055-0.125,0.101-0.253,0.145-0.374c0.044-0.12,0.085-0.232,0.12-0.328
		c0.017-0.048,0.034-0.092,0.048-0.131c0.013-0.04,0.023-0.074,0.033-0.103c0.018-0.057,0.028-0.089,0.028-0.089L28.3,20.656
		c0.034-0.104,0.066-0.208,0.098-0.312l0.986,0.297c0,0,0.01-0.033,0.028-0.089c0.019-0.057,0.041-0.139,0.067-0.238
		c0.026-0.099,0.056-0.214,0.089-0.338c0.016-0.062,0.033-0.126,0.05-0.191c0.017-0.065,0.029-0.132,0.044-0.198
		c0.028-0.133,0.057-0.267,0.084-0.392c0.013-0.062,0.026-0.123,0.038-0.18c0.01-0.058,0.019-0.112,0.027-0.163
		c0.033-0.202,0.056-0.336,0.056-0.336l-1.016-0.159c0.017-0.108,0.033-0.216,0.047-0.324l1.021,0.137c0,0,0.016-0.135,0.04-0.338
		c0.011-0.101,0.028-0.219,0.038-0.347c0.009-0.127,0.019-0.263,0.028-0.399c0.008-0.136,0.023-0.271,0.024-0.399
		c0.003-0.128,0.006-0.246,0.008-0.349c0.005-0.204,0.008-0.34,0.008-0.34H29.034z M29.515,14.45c0,0,0.002,0.019,0.006,0.049
		c0.003,0.029,0.005,0.068,0.008,0.107c0.006,0.078,0.011,0.156,0.011,0.156l-0.552,0.043c-0.008-0.1-0.016-0.201-0.026-0.301
		L29.515,14.45z M29.081,12.037l0.08,0.303l-0.542,0.13c-0.024-0.098-0.048-0.196-0.074-0.293L29.081,12.037z M28.274,9.72
		l0.121,0.289l-0.511,0.214c-0.039-0.093-0.079-0.185-0.12-0.277L28.274,9.72z M27.095,7.567l0.173,0.262l-0.474,0.298
		c-0.054-0.085-0.108-0.17-0.163-0.254L27.095,7.567z M25.577,5.635c0,0,0.055,0.056,0.106,0.115
		c0.052,0.059,0.104,0.118,0.104,0.118l-0.416,0.373c-0.067-0.075-0.135-0.149-0.204-0.222L25.577,5.635z M23.743,3.996l0.25,0.191
		l-0.345,0.441c-0.079-0.062-0.159-0.123-0.24-0.183L23.743,3.996z M21.643,2.711c0,0,0.071,0.035,0.142,0.069
		c0.035,0.017,0.071,0.034,0.097,0.047c0.027,0.012,0.044,0.023,0.044,0.023l-0.261,0.5c-0.089-0.046-0.179-0.092-0.269-0.136
		L21.643,2.711z M19.338,1.837c0,0,0.077,0.018,0.152,0.043c0.075,0.023,0.151,0.046,0.151,0.046l-0.16,0.539
		c-0.096-0.029-0.193-0.056-0.29-0.083L19.338,1.837z M16.905,1.427l0.314,0.026l-0.054,0.561c-0.1-0.01-0.2-0.018-0.3-0.025
		L16.905,1.427z M14.441,1.49c0,0,0.078-0.011,0.156-0.021c0.079-0.007,0.157-0.013,0.157-0.013l0.055,0.561
		c-0.1,0.01-0.2,0.021-0.3,0.033L14.441,1.49z M12.033,2.025l0.301-0.092l0.162,0.538C12.4,2.5,12.304,2.53,12.209,2.562
		L12.033,2.025z M9.776,3.014l0.276-0.152l0.261,0.499c-0.089,0.047-0.178,0.094-0.266,0.143L9.776,3.014z M7.741,4.4
		c0,0,0.06-0.051,0.12-0.101c0.062-0.048,0.125-0.096,0.125-0.096l0.347,0.441C8.254,4.706,8.175,4.769,8.098,4.833L7.741,4.4z
		 M5.987,6.123l0.208-0.235L6.612,6.26C6.545,6.335,6.479,6.411,6.413,6.487L5.987,6.123z M4.558,8.12l0.161-0.27l0.474,0.297
		C5.139,8.233,5.086,8.319,5.035,8.405L4.558,8.12z M3.473,10.322l0.121-0.289l0.512,0.213c-0.039,0.093-0.077,0.186-0.114,0.28
		L3.473,10.322z M2.767,12.671l0.066-0.306l0.542,0.129c-0.023,0.098-0.045,0.196-0.067,0.295L2.767,12.671z M2.437,15.1
		l0.022-0.312l0.552,0.042c-0.008,0.1-0.014,0.201-0.02,0.302L2.437,15.1z M2.486,17.55c0,0-0.002-0.019-0.006-0.049
		c-0.003-0.029-0.005-0.068-0.008-0.107c-0.006-0.078-0.011-0.156-0.011-0.156l0.552-0.043c0.008,0.101,0.016,0.201,0.026,0.301
		L2.486,17.55z M2.919,19.964l-0.08-0.303l0.542-0.13c0.023,0.098,0.048,0.196,0.074,0.293L2.919,19.964z M3.726,22.28l-0.121-0.289
		l0.511-0.214c0.039,0.093,0.079,0.185,0.12,0.277L3.726,22.28z M4.905,24.433l-0.173-0.262l0.474-0.298
		c0.054,0.085,0.108,0.17,0.163,0.254L4.905,24.433z M6.423,26.365c0,0-0.055-0.056-0.106-0.116
		c-0.052-0.059-0.104-0.118-0.104-0.118l0.416-0.373c0.067,0.075,0.135,0.149,0.204,0.223L6.423,26.365z M8.257,28.004l-0.25-0.191
		l0.345-0.441c0.079,0.062,0.159,0.123,0.24,0.183L8.257,28.004z M10.357,29.289c0,0-0.071-0.035-0.142-0.069
		c-0.035-0.017-0.071-0.035-0.097-0.048c-0.027-0.013-0.044-0.023-0.044-0.023l0.261-0.5c0.089,0.046,0.179,0.091,0.269,0.136
		L10.357,29.289z M12.662,30.163c0,0-0.077-0.018-0.152-0.043c-0.075-0.023-0.151-0.046-0.151-0.046l0.161-0.539
		c0.096,0.029,0.193,0.056,0.29,0.082L12.662,30.163z M14.78,30.547l0.054-0.561c0.1,0.01,0.2,0.018,0.3,0.025l-0.04,0.562
		L14.78,30.547z M3.784,16.002C3.784,8.689,9.253,2.761,16,2.761c6.747,0,12.217,5.928,12.217,13.241
		c0,7.313-5.469,13.241-12.217,13.241C9.253,29.243,3.784,23.315,3.784,16.002z M17.559,30.51c0,0-0.078,0.011-0.156,0.021
		c-0.078,0.007-0.157,0.013-0.157,0.013l-0.055-0.561c0.1-0.01,0.2-0.021,0.3-0.033L17.559,30.51z M19.967,29.974l-0.301,0.092
		l-0.162-0.538c0.096-0.029,0.192-0.059,0.288-0.09L19.967,29.974z M22.224,28.986l-0.276,0.152l-0.261-0.499
		c0.089-0.047,0.178-0.094,0.265-0.143L22.224,28.986z M24.259,27.6c0,0-0.06,0.051-0.12,0.101
		c-0.062,0.048-0.125,0.096-0.125,0.096l-0.347-0.441c0.079-0.062,0.158-0.125,0.235-0.189L24.259,27.6z M26.013,25.877
		l-0.208,0.235l-0.416-0.372c0.067-0.075,0.133-0.151,0.199-0.227L26.013,25.877z M27.442,23.88l-0.161,0.27l-0.474-0.297
		c0.053-0.085,0.106-0.171,0.157-0.258L27.442,23.88z M28.527,21.678l-0.121,0.289l-0.512-0.213c0.039-0.093,0.077-0.186,0.114-0.28
		L28.527,21.678z M29.233,19.329l-0.066,0.306l-0.542-0.129c0.023-0.098,0.045-0.196,0.067-0.295L29.233,19.329z M29.541,17.212
		l-0.552-0.042c0.008-0.1,0.014-0.201,0.02-0.302l0.554,0.031L29.541,17.212z"/>
	<path class="st1" d="M15.468,15.952l3.772-2.618c0,0,3.279-2.054,1.302-5.25c-1.504-2.41-5.609-1.573-7.396-0.514V15l-2.323,1.701
		v2.473l2.323-1.612v1.649l-2.323,1.657v2.361l2.323-1.657v3.905h2.321v-5.561l5.435-3.876V13.68l-5.435,3.876V15.952z
		 M15.468,9.062c0,0,2.942-1.209,3.238,1.002c0,0,0.201,0.755-1.34,1.847l-1.898,1.39V9.062z"/>
</g>
</svg>
