<?xml version="1.0" encoding="utf-8"?>
<!-- Generator: Adobe Illustrator 22.0.1, SVG Export Plug-In . SVG Version: 6.00 Build 0)  -->
<svg version="1.1" id="Layer_1" xmlns="http://www.w3.org/2000/svg" xmlns:xlink="http://www.w3.org/1999/xlink" x="0px" y="0px"
	 viewBox="0 0 378 378" style="enable-background:new 0 0 378 378;" xml:space="preserve">
<style type="text/css">
	.st0{fill:#010101;}
	.st1{fill:#FECB00;}
</style>
<g>
	<path class="st0" d="M5.57,189.296C5.522,86.423,88.213,2.413,189.42,2.513c101.211,0.1,183.556,84.219,183.348,187.297
		c-0.206,102.153-82.555,185.813-183.104,186.019C88.421,376.037,5.618,292.137,5.57,189.296z M363.572,190.536
		C363.949,92.276,286.48,12.209,190.55,11.71C94.184,11.21,15.197,90.342,14.766,187.819
		c-0.433,98.075,77.297,178.386,173.065,178.812C284.347,367.059,363.198,288.049,363.572,190.536z"/>
	<path class="st1" d="M363.572,190.536c-0.374,97.514-79.225,176.523-175.74,176.095c-95.768-0.425-173.498-80.737-173.065-178.812
		C15.197,90.342,94.184,11.21,190.55,11.71C286.48,12.209,363.949,92.276,363.572,190.536z M100.116,196.758
		c0,37.706,0.5,75.422-0.288,113.112c-0.255,12.208,2.248,17.648,15.565,16.249c11.087-1.165,22.493-1.171,33.579,0
		c13.453,1.421,17.061-2.978,16.919-16.649c-0.749-72.347-0.218-144.706-0.516-217.059c-0.038-9.268,1.413-13.843,12.31-13.345
		c19.831,0.907,39.736,0.041,59.603,0.343c15.537,0.236,30.264,4.118,43.293,12.805c27.281,18.189,25.787,59.089-2.783,75.094
		c-9.831,5.507-20.574,8.991-31.939,9.41c-17.294,0.638-34.619,1.397-51.904,0.978c-9.722-0.236-13.354,2.176-13.21,12.632
		c0.569,41.265,0.175,82.542,0.323,123.814c0.015,4.12-2.188,10.895,4.406,11.041c7.024,0.155,4.396-6.807,4.418-10.739
		c0.212-37.195,0.654-74.404-0.166-111.582c-0.277-12.579,3.012-16.693,15.966-16.221c23.304,0.849,47.018,2.343,69.348-6.899
		c20.452-8.465,32.888-22.83,33.915-46.145c1.103-25.042-8.273-43.594-31.136-54.485c-13.503-6.432-28.017-9.182-42.916-9.234
		c-40.763-0.143-81.53,0.258-122.286-0.273c-9.811-0.128-12.913,2.316-12.748,12.51
		C100.488,120.322,100.117,158.543,100.116,196.758z"/>
	<path d="M100.116,196.758c0-38.215,0.371-76.437-0.248-114.642c-0.165-10.194,2.937-12.638,12.748-12.51
		c40.756,0.531,81.524,0.129,122.286,0.273c14.899,0.052,29.414,2.802,42.916,9.234c22.863,10.891,32.239,29.443,31.136,54.485
		c-1.027,23.314-13.463,37.68-33.915,46.145c-22.33,9.242-46.044,7.748-69.348,6.899c-12.953-0.472-16.243,3.643-15.966,16.221
		c0.819,37.178,0.378,74.387,0.166,111.582c-0.022,3.932,2.606,10.895-4.418,10.739c-6.594-0.146-4.392-6.921-4.406-11.041
		c-0.148-41.272,0.246-82.55-0.323-123.814c-0.144-10.456,3.488-12.868,13.21-12.632c17.285,0.419,34.61-0.34,51.904-0.978
		c11.365-0.419,22.108-3.903,31.939-9.41c28.57-16.005,30.064-56.906,2.783-75.094c-13.029-8.687-27.756-12.569-43.293-12.805
		c-19.868-0.302-39.772,0.564-59.603-0.343c-10.897-0.498-12.348,4.077-12.31,13.345c0.298,72.353-0.233,144.712,0.516,217.059
		c0.142,13.671-3.466,18.07-16.919,16.649c-11.086-1.171-22.492-1.166-33.579,0c-13.316,1.399-15.82-4.041-15.565-16.249
		C100.617,272.181,100.116,234.464,100.116,196.758z"/>
</g>
</svg>
