<?xml version="1.0" encoding="utf-8"?>
<!-- Generator: Adobe Illustrator 22.0.1, SVG Export Plug-In . SVG Version: 6.00 Build 0)  -->
<svg version="1.1" id="Layer_1" xmlns="http://www.w3.org/2000/svg" xmlns:xlink="http://www.w3.org/1999/xlink" x="0px" y="0px"
	 viewBox="0 0 32 32" style="enable-background:new 0 0 32 32;" xml:space="preserve">
<style type="text/css">
	.st0{fill:#FFFFFF;}
	.st1{fill:#A29667;}
	.st2{fill:#A39668;}
	.st3{fill:#A39767;}
	.st4{fill:#A29767;}
	.st5{fill:#A39667;}
	.st6{fill:#939175;}
	.st7{fill:url(#SVGID_1_);}
	.st8{fill:url(#SVGID_2_);}
	.st9{fill:#6D5F30;}
	.st10{fill:url(#SVGID_3_);}
</style>
<g>
	<ellipse class="st0" cx="16.026" cy="16.046" rx="15.366" ry="15.464"/>
	<path class="st1" d="M16.02,21.351c-0.945-1.377-1.679-2.852-2.055-4.489c-0.71-3.089-0.092-5.949,1.517-8.63
		c0.141-0.235,0.219-0.535,0.513-0.655c0.242,0.385,0.502,0.761,0.724,1.158c1.691,3.018,2.112,6.169,0.977,9.48
		c-0.383,1.116-0.947,2.141-1.569,3.137C16.091,21.352,16.056,21.352,16.02,21.351z"/>
	<path class="st1" d="M14.972,21.647c-0.774,0.083-1.51,0.024-2.241-0.065c-2.793-0.34-5.139-1.549-7.029-3.639
		c-0.776-0.858-1.397-1.816-1.931-2.837c-0.132-0.252-0.081-0.328,0.208-0.349c1.671-0.12,3.306,0.04,4.903,0.556
		c0.16,0.052,0.285,0.109,0.354,0.269c1.161,2.688,3.126,4.609,5.683,5.967C14.93,21.554,14.933,21.572,14.972,21.647z"/>
	<path class="st1" d="M8.795,9.538c1.152,0.427,2.149,1.111,3.088,1.883c0.412,0.339,0.795,0.713,1.157,1.109
		c0.189,0.206,0.24,0.407,0.21,0.67c-0.271,2.369,0.257,4.583,1.32,6.689c0.106,0.209,0.218,0.415,0.335,0.619
		c0.11,0.192,0.229,0.379,0.372,0.613c-0.551-0.167-0.979-0.479-1.409-0.771c-2.902-1.976-4.606-4.691-5.02-8.197
		c-0.103-0.873-0.081-1.745-0.052-2.618C8.798,9.535,8.795,9.538,8.795,9.538z"/>
	<path class="st2" d="M8.667,14.718c-0.801-0.175-1.555-0.361-2.33-0.422c-0.132-0.01-0.159-0.118-0.193-0.216
		c-0.22-0.64-0.411-1.287-0.536-1.954c-0.034-0.179-0.023-0.233,0.18-0.201c0.76,0.121,1.497,0.324,2.221,0.581
		c0.102,0.036,0.193,0.07,0.207,0.199C8.286,13.376,8.487,14.019,8.667,14.718z"/>
	<path class="st3" d="M13.332,12.104c-0.529-0.549-1.047-1.022-1.617-1.433c-0.179-0.129-0.211-0.284-0.172-0.475
		c0.129-0.624,0.285-1.241,0.478-1.849c0.081-0.257,0.185-0.266,0.372-0.098c0.534,0.479,1.038,0.987,1.514,1.523
		c0.078,0.088,0.139,0.172,0.077,0.313C13.707,10.716,13.519,11.379,13.332,12.104z"/>
	<path class="st4" d="M19.756,8.055c0.295,0.699,0.451,1.436,0.602,2.175c0.03,0.149-0.002,0.253-0.12,0.34
		c-0.596,0.441-1.122,0.96-1.656,1.548c-0.215-0.734-0.397-1.422-0.678-2.077c-0.065-0.152,0.068-0.234,0.149-0.333
		c0.498-0.606,1.092-1.117,1.655-1.658C19.723,8.059,19.739,8.06,19.756,8.055z"/>
	<path class="st1" d="M22.811,15.327c0.029-0.03,0.057-0.059,0.086-0.089c0.946-0.291,1.896-0.55,2.886-0.653
		c0.743-0.077,1.484-0.047,2.226-0.06c0.326-0.006,0.339,0.116,0.215,0.372c-1.021,2.114-2.476,3.845-4.481,5.091
		c-1.222,0.759-2.553,1.229-3.968,1.471c-0.063,0.011-0.123,0.037-0.184,0.056c-0.175,0.048-0.349,0.11-0.536,0.078
		c-0.549,0.026-1.099,0.052-1.648,0.078c-0.088-0.082-0.302,0.112-0.31-0.142c0.096,0.013,0.176-0.026,0.257-0.071
		c1.197-0.677,2.28-1.505,3.215-2.514C21.55,17.886,22.33,16.697,22.811,15.327z"/>
	<path class="st5" d="M23.453,13.756c0.053-0.335,0.109-0.669,0.157-1.004c0.04-0.278,0.297-0.236,0.464-0.326
		c0.667-0.168,1.318-0.396,2.004-0.496c0.244-0.035,0.26,0.023,0.214,0.234c-0.126,0.572-0.284,1.135-0.452,1.697
		c-0.067,0.224-0.226,0.261-0.412,0.282c-0.727,0.08-1.431,0.265-2.13,0.47c0,0,0.001,0.006,0.001,0.006
		C23.349,14.331,23.401,14.044,23.453,13.756z"/>
	<path class="st1" d="M23.204,10.25c0,0.327,0,0.654,0.001,0.981c-0.112,0.314-0.057,0.642-0.082,0.963
		c-0.012,0.018-0.011,0.036,0.002,0.054c-0.079,0.451-0.158,0.901-0.237,1.351c0,0,0.004-0.004,0.004-0.004
		c-0.15,0.473-0.301,0.945-0.451,1.418c-0.005,0.025-0.01,0.05-0.015,0.075c-0.027,0.044-0.06,0.085-0.079,0.132
		c-1.009,2.551-2.807,4.396-5.15,5.753c-0.097,0.056-0.186,0.21-0.334,0.079c1.41-2.234,2.078-4.665,1.944-7.31
		c-0.001-0.013,0.001-0.027-0.003-0.039c-0.294-0.774,0.101-1.28,0.628-1.787c1.091-1.049,2.302-1.909,3.675-2.542
		C23.161,9.664,23.085,9.968,23.204,10.25z"/>
	<g>
		<g>
			<path class="st6" d="M11.122,25.576c-0.028,0.056-0.07,0.092-0.124,0.11c-0.054,0.017-0.109,0.012-0.165-0.016l-0.629-0.321
				l-0.54,1.059l-0.237-0.121l1.36-2.669l0.866,0.441c0.056,0.028,0.092,0.069,0.11,0.123c0.018,0.054,0.013,0.108-0.016,0.164
				L11.122,25.576z M10.896,25.435l0.606-1.189l-0.583-0.297l-0.606,1.189L10.896,25.435z"/>
		</g>
		<g>
			<path class="st6" d="M13.341,27.807l-0.955-0.238l0.725-2.907l0.943,0.235l-0.057,0.228l-0.685-0.171l-0.27,1.085l0.624,0.156
				l-0.058,0.232l-0.624-0.156l-0.282,1.133l0.696,0.174L13.341,27.807z"/>
		</g>
		<g>
			<path class="st6" d="M16.736,27.828c0,0.063-0.02,0.114-0.06,0.153c-0.04,0.04-0.092,0.059-0.154,0.059h-0.838
				c-0.063,0-0.114-0.02-0.153-0.059c-0.04-0.04-0.059-0.091-0.059-0.153v-2.571c0-0.062,0.02-0.114,0.059-0.153
				c0.04-0.04,0.091-0.059,0.153-0.059h0.838c0.063,0,0.114,0.02,0.154,0.059c0.04,0.04,0.06,0.091,0.06,0.153V27.828z
				 M16.47,27.805v-2.525h-0.733v2.525H16.47z"/>
		</g>
		<g>
			<path class="st6" d="M20.059,27.321l-0.177,0.051l-1.376-1.897l0.607,2.118l-0.241,0.069l-0.826-2.879l0.191-0.055l1.351,1.865
				l-0.597-2.081l0.241-0.069L20.059,27.321z"/>
		</g>
		<g>
			<path class="st6" d="M21.483,23.241l0.334,1.22c0.025,0.127,0.081,0.331,0.167,0.611l0.615,0.984l-0.226,0.141l-0.615-0.984
				c-0.067-0.073-0.144-0.145-0.232-0.216c-0.149-0.123-0.231-0.191-0.244-0.202l-0.95-0.835c-0.001-0.001-0.004-0.006-0.009-0.015
				l0.229-0.143l1.143,1.053l-0.448-1.487l0.227-0.142C21.478,23.234,21.481,23.239,21.483,23.241z"/>
		</g>
	</g>
	<linearGradient id="SVGID_1_" gradientUnits="userSpaceOnUse" x1="8.1587" y1="2.4185" x2="23.8413" y2="29.5815">
		<stop  offset="0.0226" style="stop-color:#E6E4DE"/>
		<stop  offset="0.3208" style="stop-color:#A8976B"/>
		<stop  offset="0.6868" style="stop-color:#EEEEEE"/>
		<stop  offset="1" style="stop-color:#9D8956"/>
	</linearGradient>
	<path class="st7" d="M16,0.32C7.34,0.32,0.32,7.34,0.32,16S7.34,31.68,16,31.68S31.68,24.66,31.68,16S24.66,0.32,16,0.32z
		 M16,31.053C7.687,31.053,0.947,24.313,0.947,16S7.687,0.947,16,0.947S31.053,7.687,31.053,16S24.313,31.053,16,31.053z"/>
	<linearGradient id="SVGID_2_" gradientUnits="userSpaceOnUse" x1="16.0131" y1="30.1512" x2="16.0131" y2="1.8488">
		<stop  offset="0" style="stop-color:#FFFFFF"/>
		<stop  offset="0.0704" style="stop-color:#EEEEEE"/>
		<stop  offset="0.6683" style="stop-color:#9D8956"/>
	</linearGradient>
	<path class="st8" d="M16.013,1.849C8.198,1.849,1.862,8.185,1.862,16s6.336,14.151,14.151,14.151S30.164,23.815,30.164,16
		S23.829,1.849,16.013,1.849z M16.013,29.585C8.51,29.585,2.428,23.503,2.428,16S8.51,2.415,16.013,2.415S29.598,8.497,29.598,16
		S23.516,29.585,16.013,29.585z"/>
	<path class="st9" d="M16,2.378C8.477,2.378,2.378,8.477,2.378,16S8.477,29.622,16,29.622S29.622,23.523,29.622,16
		S23.523,2.378,16,2.378z M16,29.338C8.634,29.338,2.662,23.366,2.662,16S8.634,2.662,16,2.662S29.338,8.634,29.338,16
		S23.366,29.338,16,29.338z"/>
	<linearGradient id="SVGID_3_" gradientUnits="userSpaceOnUse" x1="16" y1="2.5564" x2="16" y2="29.4436">
		<stop  offset="0" style="stop-color:#FFFFFF"/>
		<stop  offset="0.0704" style="stop-color:#EEEEEE"/>
		<stop  offset="0.6683" style="stop-color:#9D8956"/>
	</linearGradient>
	<path class="st10" d="M16,2.556C8.575,2.556,2.556,8.575,2.556,16S8.575,29.444,16,29.444S29.444,23.425,29.444,16
		S23.425,2.556,16,2.556z M16,28.906C8.872,28.906,3.094,23.128,3.094,16S8.872,3.094,16,3.094S28.906,8.872,28.906,16
		S23.128,28.906,16,28.906z"/>
</g>
</svg>
