<?xml version="1.0" encoding="utf-8"?>
<!-- Generator: Adobe Illustrator 22.0.1, SVG Export Plug-In . SVG Version: 6.00 Build 0)  -->
<svg version="1.1" id="Layer_1" xmlns="http://www.w3.org/2000/svg" xmlns:xlink="http://www.w3.org/1999/xlink" x="0px" y="0px"
	 viewBox="0 0 32 32" style="enable-background:new 0 0 32 32;" xml:space="preserve">
<style type="text/css">
	.st0{fill:#4C5A95;}
	.st1{fill:#FFFFFF;}
</style>
<g>
	<circle class="st0" cx="16" cy="16" r="15.84"/>
	<path class="st1" d="M26.89,11.31l-0.044-0.7l-0.216,0.587l-1.214,1.02l-1.39,0.207l-0.416-0.385l1.219-1.617l1.247-0.362
		l-1.35,0.028l-1.963,1.368l-1.84-0.127l-2.584-1.269l-1.527,0.296l-4.763,3.808l-2.295,0.71l-0.944,0.922l-1.689,0.023
		l-0.837,1.495L5.11,17.637l1.111,0.146l1.033-1.339l1.596,0.32l-0.03,1.434L8.023,20.26l-0.455,1.909l-0.49,0.761l1.243-0.263
		l-0.142-0.78l1.057-2.097l2.035-0.789l0.788-1.255l1.332-0.931l2.643,0.371l2.662-1.124l-0.45,1.777l-1.184,0.103L16.725,19.4
		l1.013-0.648l1.679-0.7l1.312-1.979l0.083-0.936l0.705,0.7l2.05,1.237l1.165-0.532l-0.068-2.613l-0.339-1.011l1.523-0.371
		L26.89,11.31z"/>
</g>
</svg>
