<?xml version="1.0" encoding="UTF-8"?><svg id="Layer_1" xmlns="http://www.w3.org/2000/svg" viewBox="0 0 32 32"><defs><style>.cls-1{fill:#fefefe;}.cls-1,.cls-2,.cls-3{stroke-width:0px;}.cls-2{fill:#3c1a18;}.cls-3{fill:#e4cfca;}</style></defs><circle class="cls-3" cx="16" cy="16" r="16"/><path class="cls-2" d="M17.547,27.194c-1.481-.047-2.938-.18-4.311-.755-2.2-.922-3.817-2.469-4.874-4.608-.637-1.289-1.149-2.624-1.467-4.025-.227-1.004-.406-2.019-.607-3.029-.179-.899-.437-1.778-.67-2.664-.293-1.115-.541-2.239-.558-3.395-.017-1.079.16-2.132.586-3.132.298-.699.856-.939,1.574-.68.614.222,1.082.658,1.551,1.089.652.599,1.252,1.252,1.948,1.806,1.042.828,2.21,1.048,3.5.829.963-.163,1.936-.183,2.91-.093.832.077,1.666.142,2.499.219.187.017.348-.056.515-.109.7-.222,1.294-.64,1.901-1.036.522-.34,1.068-.628,1.703-.695.801-.083,1.184.438,1.322,1.003.088.361.082.73.04,1.103-.153,1.332-.053,2.641.492,3.88.239.543.557,1.053.748,1.619.394,1.166.676,2.359.569,3.597-.156,1.801-.507,3.551-1.589,5.07-1.05,1.474-2.416,2.547-4.051,3.302-.953.44-1.961.601-2.993.669-.249.016-.498.024-.737.035ZM15.734,10.928c.193.146.413.194.4.42-.013.234-.228.267-.405.316-.512.141-1.027.267-1.55.358-.372.065-.747.114-1.125.107-.121-.002-.273.01-.255-.197.011-.133-.074-.085-.142-.058-.267.105-.489.279-.702.464-.273.238-.283.414-.045.69.058.067.116.141.191.183.094.052.102.096.019.152-.522.351-.877.855-1.23,1.357-.233.331-.479.655-.647,1.028-.269.595.037,1.02.539,1.15-.074.049-.12.083-.169.11-.568.318-.962.802-1.288,1.351-.224.376-.233.551-.043.781.091.11.221.132.363.17-.13.184-.196.37-.272.551-.193.459-.347.947-.823,1.217-.061.035-.053.105-.015.148.157.179.229.403.336.608.695,1.32,1.628,2.433,2.864,3.281,1.169.802,2.454,1.289,3.86,1.494,1.564.228,3.116.182,4.649-.158.657-.146,1.259-.504,1.84-.849.613-.365,1.188-.792,1.709-1.292,1.075-1.033,1.861-2.236,2.271-3.674.274-.958.39-1.944.431-2.934.025-.601-.015-1.207-.282-1.773-.321-.68-.677-1.337-1.184-1.9-.103-.114-.203-.217-.028-.355.072-.056.052-.132-.011-.187-.508-.443-.865-1.079-1.59-1.245-.028-.006-.054-.025-.097-.045.23-.141.247-.34.124-.537-.134-.214-.372-.328-.553-.499-.049-.047-.181-.018-.167.097.022.194.206.279.325.404.091.095.131-.082.222-.082.081.163.093.317-.019.476-.108.152-.251.089-.375.062-.712-.155-1.298-.561-1.876-.977-.068-.049-.174-.103-.097-.208.093-.126.249-.123.387-.165.011.075-.07.107-.028.185.163-.042.304-.186.495-.148.057.011.118-.004.143-.063.036-.086-.047-.103-.093-.143-.514-.452-1.09-.813-1.679-1.155-.327-.189-.665-.323-1.051-.347-.859-.054-1.716-.133-2.575-.197-.076-.006-.185-.055-.196.098-.017.228-.185.319-.374.379-.286.09-.579.151-.867.234-1.074.307-1.922.97-2.728,1.701-.15.136-.066.379.133.408.09.013.183.014.28-.022.115-.043.247-.092.302.119.037.141.208.199.35.183-.332-.272-.345-.519-.015-.777.577-.452,1.217-.634,1.941-.409.27.084.355.254.244.515-.018.043-.069.084-.009.119.042.024.089-.004.126-.043.113-.12.091-.266.062-.475ZM7.487,13.367c-.082-.293-.077-.542-.071-.79.004-.165.077-.221.233-.138.128.068.259.13.388.197.098.051.143.038.145-.087.003-.173-.031-.336-.101-.492-.03-.067-.075-.136-.025-.202.057-.076.134-.013.201-.004.112.015.223.034.333.053.097.017.13-.012.113-.116-.071-.443-.042-.882.06-1.317.03-.126,0-.32.146-.349.13-.025.119.183.206.264.074.069.119.206.227.189.084-.013.068-.15.104-.229.03-.065.049-.137.063-.208.083-.419.164-.852.015-1.26-.165-.452-.455-.847-.7-1.262-.362-.613-.821-1.148-1.297-1.675-.271-.3-.579-.507-.963-.622-.148-.044-.252-.012-.333.1-.122.169-.23.35-.295.549-.324.987-.523,1.996-.432,3.039.073.83.119,1.662.551,2.427.389.689.755,1.382,1.429,1.934ZM24.555,12.149c.249-.314.24-.368.18-.829-.074-.566-.141-1.132-.08-1.705.049-.456.081-.914.055-1.373-.04-.718-.475-1.04-1.169-.872-.371.09-.712.255-1.032.458-.347.22-.418.621-.585.957-.016.032-.031.096.041.131.033-.028.069-.057.104-.088.372-.336.75-.324,1.104.026.288.284.378.665.515,1.023.285.748.5,1.524.867,2.271ZM15.097,11.231c.127.032.187.022.207-.039.032-.098-.022-.178-.101-.22-.229-.122-.481-.153-.736-.137-.082.005-.15.076-.145.157.004.078.066.139.156.151.229.032.458.065.62.089ZM13.972,11.264c.1-.013.18-.055.187-.171.003-.06-.028-.121-.093-.113-.104.013-.204.063-.227.173-.015.072.061.1.133.111ZM22.369,10.949c-.055-.011-.085.014-.086.06-.003.101.063.14.151.15.063.007.128-.021.128-.08,0-.126-.145-.065-.193-.13Z"/><path class="cls-1" d="M15.734,10.928c.029.209.051.355-.062.475-.037.039-.084.068-.126.043-.059-.034-.009-.076.009-.119.111-.261.026-.431-.244-.515-.724-.226-1.364-.043-1.941.409-.33.259-.317.505.015.777-.142.016-.314-.042-.35-.183-.055-.211-.187-.162-.302-.119-.097.036-.19.035-.28.022-.199-.029-.283-.273-.133-.408.806-.731,1.654-1.394,2.728-1.701.288-.082.582-.144.867-.234.189-.06.357-.151.374-.379.011-.152.12-.104.196-.098.858.065,1.716.143,2.575.197.386.024.725.158,1.051.347.59.342,1.166.703,1.679,1.155.045.04.129.057.093.143-.025.059-.086.074-.143.063-.191-.038-.332.106-.495.148-.043-.078.039-.11.028-.185-.138.041-.294.038-.387.165-.077.105.029.159.097.208.578.416,1.164.821,1.876.977.124.027.268.09.375-.062.112-.158.1-.313.019-.476-.091,0-.131.177-.222.082-.119-.124-.303-.21-.325-.404-.013-.115.118-.144.167-.097.181.171.42.285.553.499.123.197.106.396-.124.537.044.021.069.039.097.045.725.166,1.082.802,1.59,1.245.064.056.083.131.011.187-.175.138-.074.241.028.355.507.563.863,1.22,1.184,1.9.267.566.307,1.172.282,1.773-.041.99-.157,1.976-.431,2.934-.411,1.438-1.196,2.642-2.271,3.674-.521.5-1.095.927-1.709,1.292-.581.345-1.183.704-1.84.849-1.533.34-3.085.386-4.649.158-1.407-.205-2.691-.692-3.86-1.494-1.236-.848-2.168-1.96-2.864-3.281-.108-.205-.179-.429-.336-.608-.038-.043-.047-.113.015-.148.476-.27.629-.758.823-1.217.077-.182.143-.367.272-.551-.141-.039-.272-.06-.363-.17-.189-.231-.181-.405.043-.781.327-.549.72-1.033,1.288-1.351.049-.028.095-.061.169-.11-.502-.13-.807-.555-.539-1.15.169-.373.415-.697.647-1.028.353-.502.708-1.006,1.23-1.357.083-.056.075-.099-.019-.152-.075-.041-.133-.116-.191-.183-.238-.276-.228-.453.045-.69.213-.185.435-.359.702-.464.068-.027.153-.075.142.058-.018.208.134.195.255.197.378.006.753-.043,1.125-.107.523-.091,1.038-.217,1.55-.358.177-.049.392-.082.405-.316.013-.227-.207-.274-.4-.42ZM21.58,11.857c-.051.274-.198.296-.389.245-.124-.033-.302-.118-.368-.067-.307.238-.523.006-.781-.084-.192-.067-.412-.059-.62-.072-.145-.009-.265-.049-.365-.158-.043-.047-.048-.192-.166-.095-.088.073-.083.173-.017.26.09.119.222.175.356.232.299.128.618.218.848.475.086.096.073.195.055.293-.02.111-.123.083-.199.078-.904-.062-1.795-.003-2.682.202-1.217.281-2.312.794-3.205,1.67-.944.925-1.558,2.045-1.728,3.371-.114.887.016,1.738.407,2.561.378.793.926,1.433,1.593,1.976,1.995,1.622,4.232,2.187,6.719,1.401,1.511-.478,2.69-1.423,3.488-2.809.752-1.305,1.036-2.685.61-4.161-.358-1.239-1.088-2.235-2.082-3.036-.702-.565-1.467-1.017-2.4-1.084-.058-.004-.092-.058-.087-.099.026-.213.058-.426.1-.637.016-.081.094-.126.169-.086.09.047.025.109-.017.155-.079.087-.1.192-.125.321.165-.024.239-.163.375-.191.132-.028.264-.075.386-.135.186-.092.238-.279.125-.524Z"/><path class="cls-1" d="M7.487,13.367c-.675-.552-1.04-1.245-1.429-1.934-.432-.765-.478-1.596-.551-2.427-.091-1.042.108-2.052.432-3.039.065-.199.173-.38.295-.549.08-.111.185-.144.333-.1.384.115.692.323.963.622.476.526.935,1.062,1.297,1.675.245.415.535.81.7,1.262.149.408.068.841-.015,1.26-.014.071-.034.142-.063.208-.036.079-.02.216-.104.229-.108.017-.153-.12-.227-.189-.087-.081-.076-.29-.206-.264-.146.029-.116.223-.146.349-.103.435-.131.874-.06,1.317.017.104-.016.133-.113.116-.111-.019-.222-.038-.333-.053-.067-.009-.144-.072-.201.004-.05.067-.006.135.025.202.07.156.104.319.101.492-.002.126-.047.138-.145.087-.129-.067-.26-.129-.388-.197-.156-.083-.229-.027-.233.138-.006.248-.012.497.071.79Z"/><path class="cls-1" d="M24.555,12.149c-.367-.748-.582-1.523-.867-2.271-.136-.358-.226-.739-.515-1.023-.355-.35-.732-.362-1.104-.026-.034.031-.071.06-.104.088-.072-.035-.057-.099-.041-.131.167-.336.238-.737.585-.957.32-.203.661-.368,1.032-.458.694-.168,1.13.154,1.169.872.025.459-.007.917-.055,1.373-.061.574.006,1.139.08,1.705.06.461.069.515-.18.829Z"/><path class="cls-1" d="M15.097,11.231c-.162-.023-.391-.056-.62-.089-.09-.013-.151-.074-.156-.151-.005-.081.063-.152.145-.157.255-.016.507.015.736.137.079.042.134.122.101.22-.02.062-.08.071-.207.039Z"/><path class="cls-1" d="M13.972,11.264c-.071-.011-.147-.038-.133-.111.022-.11.123-.161.227-.173.065-.008.096.053.093.113-.007.117-.087.158-.187.171Z"/><path class="cls-1" d="M22.369,10.949c.048.064.193.003.193.13,0,.059-.065.087-.128.08-.089-.01-.155-.049-.151-.15.001-.046.031-.071.086-.06Z"/><path class="cls-2" d="M21.58,11.857c.112.246.061.433-.125.524-.122.06-.253.107-.386.135-.136.028-.21.167-.375.191.025-.129.046-.234.125-.321.041-.045.107-.107.017-.155-.075-.039-.153.006-.169.086-.042.211-.074.424-.1.637-.005.041.029.095.087.099.933.067,1.699.519,2.4,1.084.994.8,1.724,1.796,2.082,3.036.426,1.477.142,2.857-.61,4.161-.798,1.386-1.977,2.331-3.488,2.809-2.487.786-4.723.222-6.719-1.401-.668-.543-1.216-1.183-1.593-1.976-.392-.823-.521-1.674-.407-2.561.17-1.326.784-2.445,1.728-3.371.893-.875,1.988-1.388,3.205-1.67.887-.205,1.778-.264,2.682-.202.077.005.179.033.199-.078.018-.098.031-.197-.055-.293-.23-.257-.55-.347-.848-.475-.134-.057-.266-.113-.356-.232-.066-.088-.071-.187.017-.26.118-.097.122.048.166.095.1.108.221.149.365.158.208.013.428.005.62.072.258.09.474.321.781.084.066-.051.245.034.368.067.19.051.337.029.389-.245Z"/></svg>