<?xml version="1.0" encoding="utf-8"?>
<!-- Generator: Adobe Illustrator 22.0.1, SVG Export Plug-In . SVG Version: 6.00 Build 0)  -->
<svg version="1.1" id="Layer_1" xmlns="http://www.w3.org/2000/svg" xmlns:xlink="http://www.w3.org/1999/xlink" x="0px" y="0px"
	 viewBox="0 0 32 32" style="enable-background:new 0 0 32 32;" xml:space="preserve">
<style type="text/css">
	.st0{fill:#FFFFFF;}
	.st1{fill:#2D8EFF;}
</style>
<g>
	<rect x="2.25" y="2.125" class="st0" width="27.5" height="27.5"/>
	<g>
		<g>
			<path class="st1" d="M11.566,19.635h2.944c0.836,0,1.672-0.182,2.435-0.545c0.727-0.363,1.345-0.836,1.89-1.454
				c0.509-0.618,0.945-1.345,1.199-2.108c0.291-0.763,0.436-1.599,0.436-2.435c0-0.8-0.145-1.599-0.473-2.363
				c-0.291-0.727-0.727-1.454-1.272-2.072c-0.545-0.618-1.199-1.127-1.926-1.49c-0.763-0.4-1.599-0.582-2.435-0.582H6.623v18.791
				h4.943V19.635z M11.566,11.13h2.508c0.363,0.036,0.691,0.182,0.909,0.436c0.291,0.291,0.472,0.8,0.472,1.599
				c0,0.8-0.182,1.272-0.436,1.527c-0.218,0.254-0.509,0.436-0.836,0.436h-2.617V11.13z"/>
			<path class="st1" d="M0.25,2.059v27.882c0,0.999,0.81,1.809,1.809,1.809h27.882c0.999,0,1.809-0.81,1.809-1.809V2.059
				c0-0.999-0.81-1.809-1.809-1.809H2.059C1.06,0.25,0.25,1.06,0.25,2.059z M26.231,28.04H5.732c-0.999,0-1.809-0.81-1.809-1.809
				V5.732c0-0.999,0.81-1.809,1.809-1.809h20.499c0.999,0,1.809,0.81,1.809,1.809v20.499C28.04,27.23,27.23,28.04,26.231,28.04z"/>
			<rect x="13.783" y="21.852" class="st1" width="11.594" height="3.562"/>
		</g>
	</g>
</g>
</svg>
