<?xml version="1.0" encoding="utf-8"?>
<!-- Generator: Adobe Illustrator 25.3.1, SVG Export Plug-In . SVG Version: 6.00 Build 0)  -->
<svg version="1.1" id="Layer_1" xmlns="http://www.w3.org/2000/svg" xmlns:xlink="http://www.w3.org/1999/xlink" x="0px" y="0px"
	 viewBox="0 0 32 32" style="enable-background:new 0 0 32 32;" xml:space="preserve">
<style type="text/css">
	.st0{fill:#5DBA48;}
	.st1{fill:#116636;}
	.st2{fill:#126736;}
	.st3{fill:#5EBB49;}
</style>
<path class="st0" d="M27.023,10.865c0.55,0.516,1.089,1.044,1.602,1.598c-0.083-0.004-0.167-0.002-0.249-0.014
	c-0.341-0.047-0.686-0.053-1.025-0.007c-0.869,0.12-1.587,0.53-2.2,1.156c-1.576,1.61-3.182,3.19-4.761,4.797
	c-1.799,1.832-3.624,3.639-5.436,5.46c-0.075,0.076-0.238,0.159-0.108,0.285c0.124,0.121,0.194-0.048,0.262-0.117
	c1.762-1.77,3.52-3.545,5.282-5.315c1.713-1.721,3.419-3.449,5.15-5.152c0.737-0.725,1.655-1.002,2.69-0.891
	c0.244,0.026,0.474,0.115,0.718,0.131c0.261,0.17,0.45,0.419,0.672,0.632c0.152,0.146,0.331,0.271,0.433,0.464
	c-0.214-0.109-0.426-0.224-0.643-0.326c-0.302-0.142-0.63-0.193-0.954-0.258c-0.239-0.071-0.479-0.073-0.718,0.001
	c-0.026,0.011-0.051,0.028-0.077,0.031c-0.77,0.096-1.415,0.445-1.959,0.987c-0.539,0.538-1.067,1.087-1.604,1.627
	c-1.409,1.417-2.822,2.832-4.231,4.249c-0.083,0.083-0.155,0.178-0.232,0.268c-0.103-0.012-0.141,0.079-0.195,0.134
	c-2.335,2.347-4.669,4.695-6.999,7.047c-0.233,0.235-0.487,0.41-0.832,0.34c-0.652-0.131-0.885-0.871-0.43-1.364
	c0.261-0.283,0.548-0.541,0.809-0.824c0.389-0.423,0.23-1.099-0.3-1.297c-0.371-0.139-0.685-0.022-0.952,0.247
	c-0.73,0.735-1.46,1.47-2.186,2.208c-0.211,0.215-0.451,0.36-0.761,0.314c-0.323-0.048-0.554-0.229-0.662-0.541
	c-0.111-0.323-0.024-0.608,0.21-0.847c0.436-0.445,0.878-0.884,1.317-1.326c1.721-1.733,3.444-3.465,5.164-5.2
	c0.454-0.458,0.32-1.165-0.259-1.366c-0.362-0.126-0.67-0.015-0.933,0.25c-0.897,0.905-1.793,1.81-2.691,2.714
	c-1.776,1.788-3.551,3.576-5.328,5.362c-0.363,0.365-0.828,0.415-1.162,0.134c-0.387-0.326-0.4-0.852-0.021-1.235
	c0.704-0.712,1.412-1.419,2.117-2.129c1.065-1.073,2.131-2.145,3.194-3.22c0.457-0.463,0.31-1.186-0.283-1.371
	c-0.351-0.11-0.657-0.002-0.915,0.261c-0.638,0.649-1.28,1.293-1.921,1.939c-0.345,0.348-0.689,0.697-1.037,1.041
	c-0.237,0.235-0.518,0.324-0.843,0.217c-0.315-0.104-0.496-0.331-0.548-0.653c-0.045-0.275,0.057-0.505,0.25-0.701
	c0.542-0.547,1.089-1.089,1.622-1.644c0.429-0.447,0.255-1.146-0.33-1.337c-0.346-0.113-0.641-0.004-0.893,0.253
	c-0.672,0.684-1.345,1.367-2.025,2.043c-0.403,0.4-1.004,0.333-1.294-0.132C0.311,19.46,0.362,19.09,0.668,18.78
	c0.857-0.866,1.717-1.728,2.576-2.591c3.01-3.028,6.019-6.057,9.029-9.086c0.962-0.968,1.926-1.934,2.883-2.907
	c0.614-0.625,1.338-1.02,2.218-1.106c0.026-0.003,0.05-0.021,0.076-0.032c0.224,0,0.448,0,0.672,0
	c0.219,0.055,0.441,0.102,0.657,0.165c0.519,0.151,0.98,0.411,1.364,0.789c1.46,1.439,2.912,2.886,4.367,4.33
	c0.015,0.014,0.025,0.033,0.038,0.049c-1.002-0.204-1.946-0.064-2.81,0.496c-0.143,0.092-0.214,0.08-0.33-0.035
	c-1.16-1.149-2.546-1.598-4.157-1.302c-2.657,0.488-4.296,3.286-3.438,5.863c0.238,0.715,0.619,1.345,1.175,1.86
	c0.121,0.112,0.137,0.194,0.003,0.3c-0.076,0.061-0.142,0.135-0.208,0.207c-0.059,0.063-0.164,0.127-0.064,0.223
	c0.089,0.085,0.15-0.01,0.208-0.066c0.096-0.092,0.191-0.185,0.282-0.282c0.061-0.066,0.109-0.084,0.193-0.022
	c0.287,0.212,0.592,0.398,0.924,0.533c0.126,0.051,0.12,0.102,0.029,0.189c-0.226,0.219-0.446,0.445-0.669,0.668
	c-0.252,0.253-0.503,0.506-0.756,0.758c-0.061,0.061-0.102,0.124-0.028,0.196c0.065,0.064,0.128,0.029,0.184-0.023
	c0.026-0.024,0.05-0.049,0.075-0.074c0.462-0.478,0.955-0.925,1.394-1.425c0.085-0.097,0.166-0.14,0.309-0.096
	c0.239,0.074,0.488,0.111,0.736,0.152c0.239,0.04,0.482-0.003,0.722,0.05c-0.023,0.097-0.093,0.138-0.146,0.191
	c-1.047,1.052-2.095,2.102-3.143,3.153c-0.049,0.049-0.101,0.099-0.136,0.158c-0.03,0.051-0.019,0.111,0.034,0.149
	c0.047,0.034,0.094,0.022,0.134-0.015c0.042-0.037,0.081-0.077,0.121-0.117c0.515-0.524,1.027-1.051,1.544-1.572
	c0.611-0.617,1.228-1.227,1.836-1.846c0.115-0.117,0.241-0.177,0.397-0.204c1.883-0.333,3.362-1.854,3.652-3.758
	c0.011-0.074,0.039-0.131,0.089-0.183c0.335-0.346,0.648-0.716,1.026-1.019c0.735-0.59,1.565-0.86,2.514-0.768
	C26.509,10.756,26.757,10.86,27.023,10.865z"/>
<path class="st1" d="M19.635,20.472c0.077-0.09,0.149-0.184,0.232-0.268c1.41-1.417,2.822-2.832,4.231-4.249
	c0.537-0.54,1.064-1.089,1.604-1.627c0.543-0.542,1.188-0.891,1.959-0.987c0.027-0.003,0.051-0.02,0.077-0.031
	c0.239,0,0.478-0.001,0.718-0.001c0.324,0.065,0.652,0.116,0.954,0.258c0.217,0.102,0.429,0.217,0.643,0.326
	c0,0-0.001-0.001-0.001-0.001c0.002,0.04,0.028,0.052,0.062,0.054c0.009,0,0.014,0.005,0.014,0.014
	c0.011,0.007,0.022,0.015,0.034,0.022c0.803,0.653,1.26,1.492,1.303,2.528c0.041,0.995-0.314,1.845-1.017,2.552
	c-1.54,1.548-3.078,3.097-4.617,4.646c-0.099,0.099-0.194,0.202-0.296,0.297c-0.292,0.273-0.694,0.276-0.961,0.011
	c-0.265-0.264-0.268-0.674,0.009-0.96c0.439-0.452,0.891-0.891,1.329-1.343c0.369-0.382,0.211-0.99-0.288-1.12
	c-0.285-0.074-0.518,0.034-0.719,0.237c-0.96,0.97-1.922,1.938-2.884,2.906c-0.256,0.258-0.512,0.518-0.77,0.774
	c-0.304,0.301-0.714,0.318-0.99,0.045c-0.281-0.278-0.272-0.681,0.034-0.989c1.602-1.615,3.205-3.228,4.81-4.839
	c0.187-0.188,0.32-0.394,0.266-0.67c-0.05-0.26-0.201-0.444-0.46-0.522c-0.266-0.08-0.499-0.006-0.692,0.185
	c-0.491,0.489-0.978,0.982-1.466,1.473c-0.671,0.675-1.341,1.351-2.014,2.024c-0.268,0.269-0.607,0.307-0.893,0.11
	C19.572,21.138,19.492,20.815,19.635,20.472z"/>
<path class="st2" d="M27.023,10.865c-0.267-0.005-0.515-0.109-0.781-0.135c-0.949-0.092-1.778,0.179-2.514,0.768
	c-0.378,0.303-0.691,0.672-1.026,1.019c-0.05,0.052-0.078,0.108-0.089,0.183c-0.29,1.904-1.769,3.425-3.652,3.758
	c-0.156,0.028-0.282,0.087-0.397,0.204c-0.608,0.62-1.225,1.23-1.836,1.846c-0.517,0.522-1.029,1.048-1.544,1.572
	c-0.039,0.04-0.079,0.079-0.121,0.117c-0.04,0.036-0.087,0.049-0.134,0.015c-0.053-0.039-0.065-0.099-0.034-0.149
	c0.035-0.059,0.087-0.109,0.136-0.158c1.047-1.051,2.096-2.101,3.143-3.153c0.053-0.053,0.123-0.094,0.146-0.191
	c-0.24-0.053-0.483-0.01-0.722-0.05c-0.248-0.041-0.497-0.078-0.736-0.152c-0.143-0.044-0.224,0-0.309,0.096
	c-0.439,0.5-0.932,0.947-1.394,1.425c-0.024,0.025-0.049,0.05-0.075,0.074c-0.056,0.052-0.119,0.086-0.184,0.023
	c-0.074-0.073-0.033-0.136,0.028-0.196c0.253-0.252,0.504-0.505,0.756-0.758c0.222-0.223,0.442-0.449,0.669-0.668
	c0.09-0.087,0.097-0.138-0.029-0.189c-0.332-0.135-0.637-0.321-0.924-0.533c-0.084-0.062-0.132-0.044-0.193,0.022
	c-0.091,0.097-0.186,0.19-0.282,0.282c-0.058,0.056-0.12,0.15-0.208,0.066c-0.101-0.096,0.005-0.16,0.064-0.223
	c0.067-0.072,0.132-0.146,0.208-0.207c0.133-0.106,0.118-0.188-0.003-0.3c-0.556-0.515-0.937-1.145-1.175-1.86
	c-0.857-2.577,0.782-5.374,3.438-5.863c1.611-0.296,2.997,0.153,4.157,1.302c0.116,0.115,0.188,0.128,0.33,0.035
	c0.864-0.559,1.808-0.7,2.81-0.496c0.102,0.067,0.186,0.153,0.258,0.25c-0.036,0.05-0.08,0.04-0.131,0.026
	c-0.215-0.059-0.433-0.096-0.657-0.119c-0.797-0.083-1.518,0.118-2.186,0.546c-0.098,0.063-0.124,0.115-0.044,0.214
	c0.196,0.24,0.343,0.511,0.463,0.794c0.069,0.163,0.126,0.194,0.275,0.076c0.733-0.586,1.569-0.856,2.51-0.783
	c0.187,0.015,0.374,0.032,0.562,0.048c0,0-0.001-0.001-0.001-0.001c0.015,0.012,0.031,0.024,0.046,0.036
	c0.101,0.069,0.189,0.151,0.255,0.256c-0.091,0.012-0.179-0.002-0.269-0.023c-1.054-0.248-2.021-0.063-2.893,0.588
	c-0.292,0.218-0.294,0.219-0.203,0.576c0.108,0.426,0.144,0.86,0.124,1.366c0.279-0.282,0.508-0.523,0.748-0.754
	c0.441-0.425,0.958-0.714,1.551-0.878c0.593-0.164,1.185-0.148,1.782-0.038C26.848,10.654,26.958,10.737,27.023,10.865z
	 M18.106,16.083c2.202,0.052,4.111-1.743,4.119-4.057c0.008-2.315-1.787-4.111-4.081-4.123c-2.365-0.012-4.096,1.921-4.109,4.077
	C14.022,14.229,15.888,16.116,18.106,16.083z"/>
<path class="st0" d="M26.736,10.572c-0.597-0.11-1.189-0.126-1.782,0.038c-0.592,0.164-1.11,0.453-1.551,0.878
	c-0.24,0.231-0.469,0.472-0.748,0.754c0.021-0.505-0.015-0.94-0.124-1.366c-0.091-0.358-0.089-0.359,0.203-0.576
	c0.872-0.651,1.839-0.836,2.893-0.588c0.09,0.021,0.178,0.035,0.269,0.023C26.177,10.014,26.456,10.293,26.736,10.572z"/>
<path class="st2" d="M28.947,12.797c-0.244-0.016-0.473-0.105-0.718-0.131c-1.035-0.111-1.953,0.166-2.69,0.891
	c-1.731,1.703-3.437,3.431-5.15,5.152c-1.762,1.77-3.519,3.546-5.282,5.315c-0.068,0.068-0.138,0.237-0.262,0.117
	c-0.13-0.126,0.033-0.209,0.108-0.285c1.812-1.82,3.637-3.627,5.436-5.46c1.578-1.608,3.185-3.187,4.761-4.797
	c0.613-0.627,1.331-1.037,2.2-1.156c0.338-0.047,0.683-0.04,1.025,0.007c0.082,0.011,0.166,0.009,0.249,0.014
	c0,0-0.002-0.001-0.002-0.001c0.005,0.028,0.024,0.039,0.051,0.039C28.784,12.582,28.912,12.647,28.947,12.797z"/>
<path class="st0" d="M25.597,9.445c-0.187-0.016-0.374-0.033-0.562-0.048c-0.941-0.073-1.777,0.197-2.51,0.783
	c-0.149,0.119-0.206,0.088-0.275-0.076c-0.119-0.283-0.267-0.555-0.463-0.794c-0.081-0.099-0.054-0.151,0.044-0.214
	c0.668-0.428,1.389-0.629,2.186-0.546c0.223,0.023,0.441,0.06,0.657,0.119c0.051,0.014,0.095,0.023,0.131-0.026
	C25.072,8.907,25.352,9.158,25.597,9.445z"/>
<path class="st0" d="M30.113,13.945c-0.034-0.003-0.061-0.014-0.062-0.054C30.085,13.894,30.114,13.903,30.113,13.945z"/>
<path class="st0" d="M25.641,9.479c-0.015-0.012-0.031-0.024-0.046-0.036C25.611,9.455,25.626,9.467,25.641,9.479z"/>
<path class="st0" d="M30.161,13.981c-0.011-0.007-0.022-0.015-0.034-0.022C30.151,13.948,30.16,13.958,30.161,13.981z"/>
<path class="st0" d="M28.674,12.501c-0.027,0.001-0.046-0.01-0.051-0.039C28.64,12.475,28.657,12.488,28.674,12.501z"/>
<path class="st3" d="M28.455,13.309c-0.239,0-0.478,0.001-0.718,0.001C27.976,13.236,28.215,13.238,28.455,13.309z"/>
<path class="st0" d="M18.106,16.083c-2.218,0.033-4.084-1.854-4.071-4.103c0.012-2.156,1.744-4.089,4.109-4.077
	c2.294,0.012,4.088,1.808,4.081,4.123C22.217,14.339,20.308,16.135,18.106,16.083z M18.107,15.665
	c1.963,0.06,3.71-1.575,3.703-3.664c-0.008-2.074-1.628-3.671-3.646-3.687c-2.072-0.017-3.723,1.587-3.724,3.694
	C14.438,14.125,16.186,15.703,18.107,15.665z"/>
<path class="st1" d="M18.107,15.665c-1.921,0.038-3.668-1.539-3.667-3.657c0.001-2.107,1.652-3.711,3.724-3.694
	C20.182,8.33,21.802,9.927,21.809,12C21.817,14.089,20.069,15.725,18.107,15.665z M20.183,12.498
	c0.076-0.618-0.624-1.458-1.378-1.337c-0.245,0.039-0.47,0.132-0.686,0.246c-0.09,0.048-0.16,0.075-0.242-0.009
	c-0.206-0.21-0.415-0.416-0.623-0.624c-0.029-0.029-0.066-0.061-0.05-0.107c0.016-0.048,0.065-0.048,0.106-0.048
	c0.056,0,0.125-0.017,0.165,0.009c0.253,0.161,0.377,0.001,0.496-0.185c0.034-0.053,0.073-0.103,0.113-0.151
	c0.097-0.114,0.103-0.191-0.054-0.269c-0.411-0.204-0.806-0.198-1.191,0.051c-0.112,0.072-0.206,0.12-0.302-0.013
	c-0.061-0.084-0.123-0.056-0.164,0.013c-0.056,0.095-0.27,0.138-0.145,0.29c0.097,0.119,0.086,0.198,0.014,0.311
	c-0.406,0.64-0.125,1.402,0.519,1.742c0.438,0.232,0.869,0.151,1.285-0.054c0.116-0.057,0.17-0.034,0.246,0.046
	c0.164,0.172,0.339,0.333,0.502,0.507c0.077,0.083,0.255,0.177,0.203,0.254c-0.076,0.112-0.254,0.054-0.39,0.025
	c-0.007-0.001-0.014-0.006-0.02-0.005c-0.132,0.011-0.239-0.169-0.362-0.083c-0.11,0.076-0.181,0.21-0.269,0.318
	c-0.035,0.043-0.066,0.091-0.106,0.13c-0.073,0.071-0.071,0.129,0.017,0.184c0.438,0.275,0.907,0.41,1.385,0.146
	c0.263-0.145,0.445-0.172,0.617,0.096c0.031,0.048,0.073,0.098,0.155,0.045c0.239-0.153,0.256-0.258,0.059-0.454
	c-0.025-0.025-0.047-0.053-0.075-0.073c-0.113-0.082-0.112-0.158-0.033-0.277C20.123,13.004,20.203,12.759,20.183,12.498z"/>
<path class="st0" d="M20.183,12.498c0.02,0.261-0.061,0.507-0.207,0.724c-0.08,0.119-0.081,0.195,0.033,0.277
	c0.028,0.02,0.05,0.049,0.075,0.073c0.197,0.196,0.18,0.301-0.059,0.454c-0.082,0.053-0.124,0.003-0.155-0.045
	c-0.173-0.268-0.355-0.241-0.617-0.096c-0.478,0.264-0.947,0.129-1.385-0.146c-0.087-0.055-0.089-0.113-0.017-0.184
	c0.04-0.039,0.071-0.086,0.106-0.13c0.088-0.108,0.159-0.242,0.269-0.318c0.123-0.085,0.23,0.094,0.362,0.083
	c0.007-0.001,0.013,0.004,0.02,0.005c0.136,0.029,0.314,0.087,0.39-0.025c0.052-0.077-0.125-0.172-0.203-0.254
	c-0.163-0.173-0.338-0.335-0.502-0.507c-0.076-0.08-0.13-0.103-0.246-0.046c-0.416,0.205-0.847,0.285-1.285,0.054
	c-0.644-0.34-0.925-1.101-0.519-1.742c0.072-0.113,0.083-0.191-0.014-0.311c-0.124-0.152,0.09-0.195,0.145-0.29
	c0.04-0.069,0.103-0.097,0.164-0.013c0.096,0.133,0.19,0.085,0.302,0.013c0.385-0.248,0.78-0.255,1.191-0.051
	c0.157,0.078,0.151,0.155,0.054,0.269c-0.041,0.048-0.079,0.098-0.113,0.151c-0.12,0.186-0.243,0.346-0.496,0.185
	c-0.041-0.026-0.11-0.009-0.165-0.009c-0.042,0-0.09-0.001-0.106,0.048c-0.016,0.046,0.021,0.078,0.05,0.107
	c0.207,0.208,0.417,0.414,0.623,0.624c0.082,0.084,0.152,0.057,0.242,0.009c0.216-0.114,0.44-0.207,0.686-0.246
	C19.559,11.04,20.26,11.88,20.183,12.498z M19.394,12.894c0.163-0.275,0.147-0.536-0.028-0.741c-0.151-0.177-0.412-0.238-0.63-0.149
	c-0.077,0.031-0.158,0.062-0.065,0.158C18.909,12.405,19.15,12.646,19.394,12.894z M16.776,11.226
	c0.003,0.332,0.314,0.59,0.621,0.52c0.11-0.025,0.171-0.065,0.057-0.173c-0.152-0.144-0.295-0.298-0.447-0.441
	c-0.051-0.048-0.09-0.153-0.178-0.111C16.752,11.059,16.782,11.158,16.776,11.226z"/>
<path class="st1" d="M19.394,12.894c-0.244-0.247-0.485-0.488-0.722-0.732c-0.093-0.096-0.012-0.126,0.065-0.158
	c0.218-0.089,0.479-0.028,0.63,0.149C19.541,12.357,19.557,12.619,19.394,12.894z"/>
<path class="st2" d="M16.776,11.226c0.006-0.067-0.025-0.166,0.053-0.204c0.089-0.043,0.127,0.062,0.178,0.111
	c0.152,0.144,0.295,0.298,0.447,0.441c0.114,0.108,0.053,0.147-0.057,0.173C17.091,11.816,16.779,11.558,16.776,11.226z"/>
</svg>
