<svg id="Layer_1" data-name="Layer 1" xmlns="http://www.w3.org/2000/svg" xmlns:xlink="http://www.w3.org/1999/xlink" viewBox="0 0 32 32"><defs><style>.cls-1{fill:#fff;}.cls-2{fill:#674e9e;}.cls-3{clip-path:url(#clip-path);}.cls-4{clip-path:url(#clip-path-2);}.cls-5{clip-path:url(#clip-path-3);}</style><clipPath id="clip-path" transform="translate(0)"><path class="cls-1" d="M20.714,7.316a.14.14,0,0,1-.057-.249h0a.141.141,0,0,1,.114-.026,4.124,4.124,0,0,1,3.273,4.319.142.142,0,0,1-.054.1h0a.143.143,0,0,1-.2-.03.137.137,0,0,1-.027-.094A3.853,3.853,0,0,0,20.714,7.316Zm3.345.5A5.169,5.169,0,0,1,25.1,11.284a.189.189,0,0,0,.177.2.187.187,0,0,0,.125-.037h0a.191.191,0,0,0,.074-.138A5.562,5.562,0,0,0,21.069,5.5a.193.193,0,0,0-.152.036h0a.19.19,0,0,0-.028.265A.187.187,0,0,0,21,5.867,5.171,5.171,0,0,1,24.059,7.811Zm-12.765-.5a.141.141,0,0,0,.111-.165.145.145,0,0,0-.053-.084h0a.141.141,0,0,0-.114-.026,4.125,4.125,0,0,0-3.282,4.324.143.143,0,0,0,.055.1h0a.14.14,0,0,0,.2-.028.138.138,0,0,0,.028-.1A3.854,3.854,0,0,1,11.294,7.316Zm-.28-1.445a.189.189,0,0,0,.143-.225.181.181,0,0,0-.066-.1h0a.192.192,0,0,0-.16-.04,5.564,5.564,0,0,0-4.409,5.818.193.193,0,0,0,.075.139h0a.19.19,0,0,0,.3-.165,5.186,5.186,0,0,1,4.107-5.417ZM13.121,22.44H23.76a.936.936,0,0,0,.936-.934V21.49a.936.936,0,0,0-.936-.936h.134a1.924,1.924,0,0,1-1.922-1.922h0V14.246A5.941,5.941,0,0,0,17.73,8.552V8.535A1.734,1.734,0,0,0,16,6.8h0a1.734,1.734,0,0,0-1.736,1.732v.02a5.94,5.94,0,0,0-4.227,5.694v4.386h-.01a1.922,1.922,0,0,1-1.921,1.922H8.24a.936.936,0,0,0-.937.934v.018a.938.938,0,0,0,.937.938h0Zm-.253.928a3.136,3.136,0,0,0,6.271,0"/></clipPath><clipPath id="clip-path-2" transform="translate(0)"><rect class="cls-1" x="5.179" y="3.475" width="21.871" height="24.402" rx="9.217"/></clipPath><clipPath id="clip-path-3" transform="translate(0)"><rect class="cls-1" x="4.354" y="2.65" width="23.521" height="26.053"/></clipPath></defs><circle class="cls-2" cx="16" cy="16" r="16"/><path class="cls-1" d="M20.714,7.316a.14.14,0,0,1-.057-.249h0a.141.141,0,0,1,.114-.026,4.124,4.124,0,0,1,3.273,4.319.142.142,0,0,1-.054.1h0a.143.143,0,0,1-.2-.03.137.137,0,0,1-.027-.094A3.853,3.853,0,0,0,20.714,7.316Zm3.345.5A5.169,5.169,0,0,1,25.1,11.284a.189.189,0,0,0,.177.2.187.187,0,0,0,.125-.037h0a.191.191,0,0,0,.074-.138A5.562,5.562,0,0,0,21.069,5.5a.193.193,0,0,0-.152.036h0a.19.19,0,0,0-.028.265A.187.187,0,0,0,21,5.867,5.171,5.171,0,0,1,24.059,7.811Zm-12.765-.5a.141.141,0,0,0,.111-.165.145.145,0,0,0-.053-.084h0a.141.141,0,0,0-.114-.026,4.125,4.125,0,0,0-3.282,4.324.143.143,0,0,0,.055.1h0a.14.14,0,0,0,.2-.028.138.138,0,0,0,.028-.1A3.854,3.854,0,0,1,11.294,7.316Zm-.28-1.445a.189.189,0,0,0,.143-.225.181.181,0,0,0-.066-.1h0a.192.192,0,0,0-.16-.04,5.564,5.564,0,0,0-4.409,5.818.193.193,0,0,0,.075.139h0a.19.19,0,0,0,.3-.165,5.186,5.186,0,0,1,4.107-5.417ZM13.121,22.44H23.76a.936.936,0,0,0,.936-.934V21.49a.936.936,0,0,0-.936-.936h.134a1.924,1.924,0,0,1-1.922-1.922h0V14.246A5.941,5.941,0,0,0,17.73,8.552V8.535A1.734,1.734,0,0,0,16,6.8h0a1.734,1.734,0,0,0-1.736,1.732v.02a5.94,5.94,0,0,0-4.227,5.694v4.386h-.01a1.922,1.922,0,0,1-1.921,1.922H8.24a.936.936,0,0,0-.937.934v.018a.938.938,0,0,0,.937.938h0Zm-.253.928a3.136,3.136,0,0,0,6.271,0" transform="translate(0)"/><g class="cls-3"><rect class="cls-1" x="5.179" y="3.475" width="21.871" height="24.402" rx="9.217"/><g class="cls-4"><rect class="cls-1" x="4.354" y="2.65" width="23.521" height="26.053"/><g class="cls-5"><rect class="cls-1" x="4.354" y="2.65" width="23.521" height="26.053"/></g></g></g></svg>