<svg id="Layer_1" data-name="Layer 1" xmlns="http://www.w3.org/2000/svg" viewBox="0 0 32 32"><defs><style>.cls-1{fill:#fff;}.cls-2{fill:#b7b8ba;}.cls-3{fill:#1c1c1c;}.cls-4{fill:#020202;}.cls-5{fill:#0c0c0c;}</style></defs><circle cx="16" cy="16" r="16"/><circle class="cls-1" cx="16" cy="16" r="14.111"/><path class="cls-2" d="M9.576,15.612l.075-.168q.154.816.308,1.633a1.1,1.1,0,0,1-.165-.3C9.71,16.4,9.647,16,9.576,15.612Z"/><path class="cls-2" d="M9.73,11.2a2.848,2.848,0,0,1,.393-1.068c.356-.591.684-1.2,1.06-1.777a3.2,3.2,0,0,1,1.3-1.057c.348-.178.684-.384,1.043-.533a9.587,9.587,0,0,1,1.022-.314c.263-.076.528-.145.793-.217a.8.8,0,0,1,.145-.031,9.885,9.885,0,0,1,1.045-.046,4.843,4.843,0,0,1,1.594.358,7.623,7.623,0,0,1,1.75,1.041,4.553,4.553,0,0,1,1.166,1.414,7.894,7.894,0,0,1,1,2.88c.033.271.089.539.135.808-.183-.24-.131-.537-.2-.805a.8.8,0,0,0-.282-.476.129.129,0,0,0-.121-.014.693.693,0,0,0-.187.667c.056.164.122.323.188.483.054.13.1.247-.061.347a.248.248,0,0,0-.109.18c.024.263.062.525.11.785.042.226.13.446.151.674.028.3,0,.6.016.895a1.244,1.244,0,0,0,.1.312c.095-.051.193-.1.284-.155a.461.461,0,0,0,.121-.124.229.229,0,0,1,.285-.084q-.211.676-.424,1.352a1.145,1.145,0,0,1-.074.154,1.366,1.366,0,0,1-.337.043.284.284,0,0,0-.347.232c-.014.042-.078.1-.112.095a.179.179,0,0,1-.118-.1,2.772,2.772,0,0,1-.081-.331.878.878,0,0,0-.31.594c-.024.322-.078.642-.121.963a.658.658,0,0,0,.069.569c.115.144.036.3-.032.446q-.412.876-.824,1.754c-.095.2-.185.41-.294.605-.034.06-.123.087-.187.13a.76.76,0,0,1,.013-.192c.161-.53.328-1.058.493-1.587.032-.1.063-.207.1-.311l-.059-.024c-.052.091-.11.178-.155.272-.1.208-.185.426-.3.628A9.344,9.344,0,0,1,18.2,22.388a1.905,1.905,0,0,1-.56.44,2.557,2.557,0,0,1-1.21.247c-.589-.024-1.178-.06-1.766-.112a2.2,2.2,0,0,1-1.983-1.632c-.137-.392-.264-.787-.394-1.182a2.814,2.814,0,0,0-.571-1.17,1.271,1.271,0,0,1-.344-.734c-.043-.329-.1-.657-.133-.987-.018-.178.044-.216.226-.162.117.034.229.079.407.142a2.184,2.184,0,0,0-.123-.228q-.32-.427-.646-.852c-.055-.071-.107-.163-.182-.2a.911.911,0,0,1-.521-.615,2.757,2.757,0,0,1-.237-1.21c.037-.276.129-.544.168-.82a8.311,8.311,0,0,0,.118-1.235,5.611,5.611,0,0,0-.179-.971.782.782,0,0,0-.118.246c-.016.043-.052.116-.069.113a.279.279,0,0,1-.142-.076,1.979,1.979,0,0,1-.149-.19Zm2.9,2.5-.227-.042c.055-.06.11-.12.164-.182a.715.715,0,0,0,.051-.107l-.341.174-.583.155c.034-.067.052-.171.105-.194.295-.126.6-.241.9-.342a.8.8,0,0,1,.41-.056,2.368,2.368,0,0,1,1.234.543,2.441,2.441,0,0,0,.227.154.837.837,0,0,0,.511.163c.129.007.257.026.423.044-.034-.179-.082-.353-.1-.529a.622.622,0,0,0-.351-.509c-.253-.14-.5-.293-.757-.422a1.483,1.483,0,0,0-1.345-.033,1.122,1.122,0,0,1-.767.154.26.26,0,0,0-.14.035q-.333.135-.665.274a.275.275,0,0,0-.181.4.422.422,0,0,0,.438.324c.027.04.05.111.083.116.157.022.224.129.309.246.066.092.172.252.331.075.022-.024.1.009.144,0a.29.29,0,0,0,.142-.068c.153-.164.164-.17.288.036a.442.442,0,0,0,.48.232c.081-.011.153-.014.113-.131-.052-.153.028-.153.14-.114.025.008.075.011.082,0,.126-.236.258-.065.391-.012.091.036.186.061.321.1A1.8,1.8,0,0,0,12.626,13.7Zm5.163.424c-.147-.028-.28-.021-.356.123l.025.058.333-.176c.218.045.459.023.58.29.028.06.2.1.28.079a.538.538,0,0,0,.258-.212c.121-.172.173-.177.284.005a.214.214,0,0,0,.119.087c.079.021.165.017.246.034.125.026.212.013.232-.141,0-.033.069-.077.11-.083.223-.031.447-.051.675-.076-.094-.181-.173-.342-.26-.5a.735.735,0,0,0-.494-.419A2.4,2.4,0,0,1,19.335,13a2.617,2.617,0,0,0-1.575-.227,7.369,7.369,0,0,0-1.028.294.336.336,0,0,0-.186.186,3.5,3.5,0,0,0-.146.6c-.033.222.024.295.242.255.417-.077.865-.08,1.166-.48a.87.87,0,0,1,.429-.233,1.127,1.127,0,0,1,1.277.424.626.626,0,0,1,.036.2.663.663,0,0,1-.208.026,6.769,6.769,0,0,0-.679-.152A.95.95,0,0,0,17.789,14.121Zm-3.972,6.327-.039.061c.413.431.737.992,1.465.967.064,0,.13.032.2.034a2.1,2.1,0,0,0,1.879-.619A.756.756,0,0,1,18.1,20.6a1.38,1.38,0,0,0,.274.013A.51.51,0,0,0,18.8,20.3a.136.136,0,0,0-.054-.117c-.413-.115-.808-.345-1.262-.084a.955.955,0,0,1-.866.072,1.324,1.324,0,0,0-.659-.032.916.916,0,0,1-.438-.028A2.134,2.134,0,0,0,14.474,20a2.554,2.554,0,0,1-.886-.07.492.492,0,0,0-.595.138c-.042.049-.117.074-.152.126-.062.093-.172.247-.143.288.087.12.2-.006.3-.039a2.328,2.328,0,0,1,.679-.184,12.279,12.279,0,0,1,1.236.111,1.342,1.342,0,0,1,.32.039,3.389,3.389,0,0,0,1.037.095c.335.014.667.077,1,.118l.006.07a1.054,1.054,0,0,1-.746.316,9.254,9.254,0,0,1-1.359-.043,2.788,2.788,0,0,1-1.122-.409A1.077,1.077,0,0,0,13.817,20.448ZM15.87,19.37a1.021,1.021,0,0,0,.262-.144,3.364,3.364,0,0,1,.995-.651.488.488,0,0,0,.307-.394c.03-.164-.016-.214-.149-.244a.851.851,0,0,0-.8.143.273.273,0,0,1-.176.078,6.355,6.355,0,0,1-.958-.124,3.416,3.416,0,0,1-.74-.324c-.141-.075-.177,0-.217.1a.551.551,0,0,0,.214.637c.3.258.605.516.917.762A1.8,1.8,0,0,0,15.87,19.37Z"/><path class="cls-2" d="M9.524,14.981a.855.855,0,0,1,.507.531,4.125,4.125,0,0,0,.374.717c.1.183.261.4.1.559-.092.087-.391.027-.6.034l-.062-.194-.315-1.12Z"/><path d="M9.789,11.2a1.979,1.979,0,0,0,.149.19.279.279,0,0,0,.142.076c.017,0,.053-.07.069-.113a.782.782,0,0,1,.118-.246,5.611,5.611,0,0,1,.179.971,8.311,8.311,0,0,1-.118,1.235c-.039.276-.131.544-.168.82a2.757,2.757,0,0,0,.237,1.21.911.911,0,0,0,.521.615c.075.033.127.125.182.2q.327.424.646.852a2.184,2.184,0,0,1,.123.228c-.178-.063-.29-.108-.407-.142-.182-.054-.244-.016-.226.162.034.33.09.658.133.987a1.271,1.271,0,0,0,.344.734,2.814,2.814,0,0,1,.571,1.17c.13.395.257.79.394,1.182a2.2,2.2,0,0,0,1.983,1.632c.588.052,1.177.088,1.766.112a2.557,2.557,0,0,0,1.21-.247,1.905,1.905,0,0,0,.56-.44,9.344,9.344,0,0,0,1.175-1.756c.114-.2.2-.42.3-.628.045-.094.1-.181.155-.272l.059.024c-.032.1-.063.208-.1.311-.165.529-.332,1.057-.493,1.587a.76.76,0,0,0-.013.192c.064-.043.153-.07.187-.13.109-.2.2-.4.294-.605q.412-.876.824-1.754c.068-.146.147-.3.032-.446a.658.658,0,0,1-.069-.569c.043-.321.1-.641.121-.963a.878.878,0,0,1,.31-.594,2.772,2.772,0,0,0,.081.331.179.179,0,0,0,.118.1c.034.005.1-.053.112-.095a.284.284,0,0,1,.347-.232,1.366,1.366,0,0,0,.337-.043,4.354,4.354,0,0,1-.156.481c-.229.511-.491,1.01-.7,1.529-.191.476-.3.986-.5,1.458a4.351,4.351,0,0,0-.35,1.961.362.362,0,0,1-.1.256q-1.86,1.707-3.73,3.4c-.167.152-.334.3-.491.462-.094.1-.161.1-.264.007-.344-.315-.7-.62-1.046-.929-.842-.745-1.681-1.492-2.529-2.231a.554.554,0,0,1-.235-.506,4.729,4.729,0,0,0,0-.724c-.024-.386-.066-.771-.1-1.156l.051-.159a1.508,1.508,0,0,0,.075.211c.019.037.067.06.1.089.019-.047.06-.1.054-.14-.023-.18-.077-.357-.089-.537a1.234,1.234,0,0,0-.278-.923c-.041-.038-.077-.082-.116-.124a.5.5,0,0,0-.037.184c.042.228.1.453.148.68l-.093.157c-.2-.424-.387-.855-.6-1.273-.331-.647-.681-1.283-1.02-1.927-.049-.093-.182-.21-.044-.308s.392.049.462-.033c.129-.15,0-.356-.073-.529a4.326,4.326,0,0,1-.289-.679.762.762,0,0,0-.393-.5,2.379,2.379,0,0,1-.095-.455c-.006-.3.019-.6.032-.894l.014-.386a.72.72,0,0,0,.083-.2c.039-.485.071-.972.1-1.458C9.78,11.5,9.782,11.354,9.789,11.2Z"/><path d="M22.476,15.344a.229.229,0,0,0-.285.084.461.461,0,0,1-.121.124c-.091.058-.189.1-.284.155a1.244,1.244,0,0,1-.1-.312c-.015-.3.012-.6-.016-.895-.021-.228-.109-.448-.151-.674-.048-.26-.086-.522-.11-.785a.248.248,0,0,1,.109-.18c.156-.1.115-.217.061-.347-.066-.16-.132-.319-.188-.483a.693.693,0,0,1,.187-.667.129.129,0,0,1,.121.014.8.8,0,0,1,.282.476c.065.268.013.565.2.805q.087.789.175,1.578C22.389,14.606,22.433,14.975,22.476,15.344Z"/><path class="cls-2" d="M9.789,11.2c-.007.15-.009.3-.019.448-.032.486-.064.973-.1,1.458a.72.72,0,0,1-.083.2q.073-1.056.146-2.11Z"/><path class="cls-2" d="M9.633,15.046v.5l-.06.11A3.687,3.687,0,0,1,9.5,14.306c.007-.2.048-.406.074-.609-.013.3-.038.6-.032.894A2.379,2.379,0,0,0,9.633,15.046Z"/><path class="cls-3" d="M11.591,20.3l.093-.157.141.56-.051.159Z"/><path d="M17.789,14.121a.95.95,0,0,1,.874-.222,6.769,6.769,0,0,1,.679.152.663.663,0,0,0,.208-.026.626.626,0,0,0-.036-.2,1.127,1.127,0,0,0-1.277-.424.87.87,0,0,0-.429.233c-.3.4-.749.4-1.166.48-.218.04-.275-.033-.242-.255a3.5,3.5,0,0,1,.146-.6.336.336,0,0,1,.186-.186,7.369,7.369,0,0,1,1.028-.294A2.617,2.617,0,0,1,19.335,13a2.4,2.4,0,0,0,.486.192.735.735,0,0,1,.494.419c.087.157.166.318.26.5-.228.025-.452.045-.675.076-.041.006-.106.05-.11.083-.02.154-.107.167-.232.141-.081-.017-.167-.013-.246-.034a.214.214,0,0,1-.119-.087c-.111-.182-.163-.177-.284-.005a.538.538,0,0,1-.258.212c-.083.024-.252-.019-.28-.079-.121-.267-.362-.245-.58-.29Z"/><path d="M13.817,20.448a1.077,1.077,0,0,1,.236.107,2.788,2.788,0,0,0,1.122.409,9.254,9.254,0,0,0,1.359.043,1.054,1.054,0,0,0,.746-.316l-.006-.07c-.334-.041-.666-.1-1-.118a3.389,3.389,0,0,1-1.037-.095,1.342,1.342,0,0,0-.32-.039,12.279,12.279,0,0,0-1.236-.111,2.328,2.328,0,0,0-.679.184c-.1.033-.216.159-.3.039-.029-.041.081-.2.143-.288.035-.052.11-.077.152-.126a.492.492,0,0,1,.595-.138,2.554,2.554,0,0,0,.886.07,2.134,2.134,0,0,1,1.05.113.916.916,0,0,0,.438.028,1.324,1.324,0,0,1,.659.032.955.955,0,0,0,.866-.072c.454-.261.849-.031,1.262.084a.136.136,0,0,1,.054.117.51.51,0,0,1-.433.308A1.38,1.38,0,0,1,18.1,20.6a.756.756,0,0,0-.778.295,2.1,2.1,0,0,1-1.879.619c-.066,0-.132-.036-.2-.034-.728.025-1.052-.536-1.465-.967Z"/><path d="M11.635,13.7a.422.422,0,0,1-.438-.324.275.275,0,0,1,.181-.4q.332-.139.665-.274a.26.26,0,0,1,.14-.035,1.122,1.122,0,0,0,.767-.154,1.483,1.483,0,0,1,1.345.033c.258.129.5.282.757.422a.622.622,0,0,1,.351.509c.017.176.065.35.1.529-.166-.018-.294-.037-.423-.044a.837.837,0,0,1-.511-.163,2.441,2.441,0,0,1-.227-.154,2.368,2.368,0,0,0-1.234-.543.8.8,0,0,0-.41.056c-.306.1-.607.216-.9.342-.053.023-.071.127-.105.194Z"/><path d="M15.87,19.37a1.8,1.8,0,0,1-.343-.164c-.312-.246-.615-.5-.917-.762a.551.551,0,0,1-.214-.637c.04-.1.076-.172.217-.1a3.416,3.416,0,0,0,.74.324,6.355,6.355,0,0,0,.958.124.273.273,0,0,0,.176-.078.851.851,0,0,1,.8-.143c.133.03.179.08.149.244a.488.488,0,0,1-.307.394,3.364,3.364,0,0,0-.995.651A1.021,1.021,0,0,1,15.87,19.37Z"/><path class="cls-4" d="M11.635,13.7l.055,0,.583-.155c.119.239.119.239.353.157a1.8,1.8,0,0,1,1.833.482c-.135-.043-.23-.068-.321-.1-.133-.053-.265-.224-.391.012-.007.012-.057.009-.082,0-.112-.039-.192-.039-.14.114.04.117-.032.12-.113.131a.442.442,0,0,1-.48-.232c-.124-.206-.135-.2-.288-.036a.29.29,0,0,1-.142.068c-.047.011-.122-.022-.144,0-.159.177-.265.017-.331-.075-.085-.117-.152-.224-.309-.246C11.685,13.809,11.662,13.738,11.635,13.7Z"/><path d="M12.626,13.7c-.234.082-.234.082-.353-.157l.341-.174a.715.715,0,0,1-.051.107c-.054.062-.109.122-.164.182Z"/><path class="cls-5" d="M17.789,14.121l0,0-.333.176-.025-.058C17.509,14.1,17.642,14.093,17.789,14.121Z"/><path class="cls-2" d="M11.825,20.7l-.141-.56c-.051-.227-.106-.452-.148-.68a.5.5,0,0,1,.037-.184c.039.042.075.086.116.124a1.234,1.234,0,0,1,.278.923c.012.18.066.357.089.537.006.043-.035.093-.054.14-.035-.029-.083-.052-.1-.089A1.508,1.508,0,0,1,11.825,20.7Z"/></svg>