<?xml version="1.0" encoding="UTF-8"?>
<svg id="Layer_1" xmlns="http://www.w3.org/2000/svg" version="1.1" viewBox="0 0 32 32">
  <!-- Generator: Adobe Illustrator 29.0.1, SVG Export Plug-In . SVG Version: 2.1.0 Build 192)  -->
  <defs>
    <style>
      .st0 {
        fill: #0a75d8;
      }

      .st1 {
        fill: #fefefe;
      }
    </style>
  </defs>
  <circle class="st0" cx="16" cy="16" r="16"/>
  <path class="st1" d="M23.06,9.705c-2.64-3.441-6.807-2.255-10.575-2.461-.661.085-1.02.435-1.163,1.072-.178.794-.213,1.662-.387,2.462-.076.064-1.699-.032-1.986.007-.69.094-.967.996-.47,1.507.115.118.308.17.374.241l.025.039,1.681.016c.038.143.041.299.008.467-.021.443-.15.895-.188,1.339-.071.069-1.699-.034-1.988.005-.621.085-.932.845-.59,1.365.111.168.421.419.624.419h1.658l-1.268,8.215c.031.654.484,1.165,1.138,1.246,1.384-.089,2.918.119,4.285.002.524-.045.973-.384,1.116-.895l.836-5.05c1.194-.064,2.35.101,3.52-.205,4.265-1.116,6.056-6.266,3.352-9.79ZM12.47,12.574l5.492-.005c.793.013,1.251.948.688,1.547-.076.081-.406.279-.503.279h-5.941c-.065-.065.239-1.603.265-1.821ZM21.033,16.798c-1.629,1.425-3.227,1.064-5.203,1.112-.718.018-1.184.346-1.342,1.059l-.793,4.887h-2.98l1.197-7.668,6.267-.01c2.85-.25,3.416-4.164.805-5.191-.1-.039-.533-.142-.558-.168l-5.662-.037.037-.224c-.001-.336.095-.826.155-1.167.012-.07.04-.349.093-.362h5.359c3.9.301,5.641,5.131,2.625,7.768Z"/>
</svg>