<?xml version="1.0" encoding="utf-8"?>
<!-- Generator: Adobe Illustrator 26.0.1, SVG Export Plug-In . SVG Version: 6.00 Build 0)  -->
<svg version="1.1" id="Layer_1" xmlns="http://www.w3.org/2000/svg" xmlns:xlink="http://www.w3.org/1999/xlink" x="0px" y="0px"
	 viewBox="0 0 32 32" style="enable-background:new 0 0 32 32;" xml:space="preserve">
<style type="text/css">
	.st0{fill:#FF7733;}
</style>
<path class="st0" d="M27.222,24.576c1.288-1.88,2.249-4.001,2.59-6.251c0.43-2.85,0.094-5.615-0.996-8.165
	c-0.745-1.771-1.824-3.383-3.177-4.748c-1.326-1.331-2.925-2.396-4.746-3.177c-1.828-0.775-3.793-1.172-5.778-1.168
	c-2.679,0-5.186,0.67-7.452,1.983c-2.244,1.3-4.109,3.165-5.409,5.409c-1.327,2.262-2.021,4.839-2.009,7.461
	c0,2.67,0.678,5.186,2.009,7.461c1.296,2.246,3.158,4.114,5.4,5.416c2.266,1.331,4.782,2.009,7.47,2.009
	c3.056,0,5.847-0.848,8.311-2.543l2.018,2.593h6.302l-4.688-6.066L27.222,24.576z M24.938,17.124
	c-0.129,1.399-0.652,2.732-1.391,3.932l-0.12,0.197l-0.91,1.177c-0.256,0.331-0.546,0.633-0.867,0.901l-0.034,0.034
	c-1.889,1.632-4.018,2.421-6.491,2.421c-2.739,0-5.014-0.942-6.971-2.893c-1.957-1.941-2.902-4.216-2.902-6.946
	c0-1.803,0.43-3.426,1.323-4.954s2.069-2.713,3.606-3.606c2-1.159,4.156-1.545,6.671-1.202c1.504,0.209,2.927,0.814,4.121,1.752
	C24.002,10.349,25.29,13.311,24.938,17.124z"/>
</svg>
