<?xml version="1.0" encoding="utf-8"?>
<!-- Generator: Adobe Illustrator 26.0.1, SVG Export Plug-In . SVG Version: 6.00 Build 0)  -->
<svg version="1.1" id="Layer_1" xmlns="http://www.w3.org/2000/svg" xmlns:xlink="http://www.w3.org/1999/xlink" x="0px" y="0px"
	 viewBox="0 0 32 32" style="enable-background:new 0 0 32 32;" xml:space="preserve">
<style type="text/css">
	.st0{fill-rule:evenodd;clip-rule:evenodd;fill:#FCC33C;}
	.st1{fill:#FFFFFF;}
</style>
<g>
	<circle class="st0" cx="16" cy="16" r="16"/>
	<g>
		<path class="st1" d="M19.371,10.996c-1.166,0.119-2.279,0.519-3.256,1.162c-0.972,0.642-1.773,1.514-2.332,2.534
			c-0.559,1.021-0.854,2.156-0.867,3.318l0,0c-0.009,0.937,0.172,1.87,0.524,2.737c0.356,0.871,0.884,1.659,1.549,2.328
			c0.466,0.11,0.942,0.172,1.421,0.18c-0.774-1.025-1.14-2.297-1.034-3.573c0.106-1.276,0.682-2.468,1.615-3.357
			c0.933-0.884,2.16-1.404,3.454-1.456c1.294-0.053,2.561,0.365,3.56,1.175c0-1.813-0.462-3.146-0.898-4.008
			c-0.106-0.207-0.216-0.396-0.321-0.563C21.707,11.04,20.533,10.878,19.371,10.996z"/>
		<path class="st1" d="M17.686,23.523L17.686,23.523c0.004,0,0.013-0.004,0.018-0.004c0.053-0.013,0.106-0.026,0.158-0.044
			c-0.013,0-0.026,0.004-0.044,0.004c3.274-0.986,5.777-3.335,6.112-6.098c0-0.031,0.004-0.062,0.009-0.097
			c-0.862-0.673-1.94-1.008-3.036-0.942c-1.096,0.066-2.125,0.528-2.9,1.298s-1.232,1.795-1.289,2.882
			c-0.057,1.074,0.282,2.13,0.955,2.974c-0.348,0.04-0.691,0.066-1.038,0.062c-1.932-0.022-3.784-0.766-5.183-2.086
			s-2.244-3.115-2.363-5.025s0.497-3.793,1.725-5.276c1.228-1.478,2.974-2.442,4.888-2.697c-0.132,0-0.273-0.009-0.418-0.009
			c-1.883-0.018-4.567,0.251-6.714,1.624l0,0c-1.593,1.012-2.812,2.512-3.476,4.272c-0.15,0.414-0.264,0.84-0.343,1.276
			c0,0.084,0,0.167-0.004,0.246c-0.026,2.306,0.634,4.572,1.892,6.512c0.818,0.484,3.12,1.536,7.669,1.588
			C15.442,23.998,16.586,23.84,17.686,23.523z"/>
		<path class="st1" d="M6.237,11.995c0.62-0.801,1.377-1.487,2.24-2.033C8.798,9.76,9.132,9.575,9.48,9.417
			c1.756-0.862,3.683-1.087,5.302-1.096c0.796-0.018,1.593,0.022,2.389,0.11c0.585,0.053,1.016,0.097,1.206,0.07
			c1.166-0.154,2.138-0.924,2.147-2.09c0.009-1.113-1.025-1.993-1.967-2.16c-0.532-0.084-1.074-0.128-1.615-0.128
			c-1.769-0.018-4.585,0.326-7.163,2.178l0,0c-4.171,2.996-4.875,7.062-4.994,8.466c0.123-0.387,0.273-0.766,0.449-1.131
			C5.498,13.047,5.837,12.497,6.237,11.995z"/>
		<path class="st1" d="M26.213,14.318c-0.638-0.972-1.483-1.791-2.486-2.389c0.603,1.241,1.087,3.067,0.792,5.522l0,0
			c-0.233,1.94-1.417,3.744-3.331,5.082c-1.914,1.338-4.343,2.055-6.864,2.033h-0.04c-3.45-0.04-5.65-0.638-6.93-1.162
			c2.394,3.102,7.22,5.249,11.726,4.206C27.458,25.662,28.488,17.816,26.213,14.318z"/>
	</g>
</g>
</svg>
