<?xml version="1.0" encoding="utf-8"?>
<!-- Generator: Adobe Illustrator 25.3.1, SVG Export Plug-In . SVG Version: 6.00 Build 0)  -->
<svg version="1.1" id="Layer_1" xmlns="http://www.w3.org/2000/svg" xmlns:xlink="http://www.w3.org/1999/xlink" x="0px" y="0px"
	 viewBox="0 0 32 32" style="enable-background:new 0 0 32 32;" xml:space="preserve">
<style type="text/css">
	.st0{fill:#FFFFFF;}
	.st1{fill:#EB4432;}
</style>
<g>
	<ellipse class="st0" cx="16" cy="16.362" rx="15.506" ry="15.638"/>
	<g>
		<path class="st1" d="M16.728,11.814c0.136-0.048,0.2,0.068,0.28,0.131c2.667,2.094,5.333,4.19,7.998,6.286
			c0.107,0.084,0.205,0.179,0.307,0.268c0.751-0.756,0.751-0.756,0.096-1.589c-3.039-3.867-6.082-7.731-9.112-11.605
			c-0.236-0.302-0.341-0.329-0.591-0.009c-1.855,2.386-3.729,4.757-5.597,7.133c-1.202,1.528-2.403,3.057-3.604,4.585
			c-0.058,0.074-0.115,0.151-0.175,0.224c-0.417,0.505-0.4,0.489,0.057,0.98c0.235,0.252,0.379,0.199,0.614,0.012
			c2.621-2.074,5.25-4.137,7.877-6.203c0.122-0.096,0.248-0.187,0.449-0.337c-0.209,1.033-0.398,1.98-0.592,2.926
			c-0.342,1.666-0.691,3.331-1.032,4.997c-0.574,2.805-1.144,5.611-1.718,8.416c-0.198,0.967-0.417,1.929-0.594,2.9
			c-0.066,0.363-0.182,0.413-0.52,0.291c-3.711-1.336-6.579-3.693-8.512-7.128C-1.2,17.764-0.034,10.022,5.269,4.974
			c2.914-2.774,6.432-4.175,10.47-4.251c2.135-0.04,4.204,0.301,6.16,1.145c5.313,2.294,8.567,6.307,9.558,12
			c1.297,7.448-3.077,14.753-10.199,17.301c-0.381,0.136-0.567,0.202-0.676-0.337c-1.255-6.221-2.544-12.434-3.821-18.651
			c-0.025-0.121-0.017-0.249-0.025-0.374L16.728,11.814z"/>
		<path class="st1" d="M16.736,11.807c-0.012-0.006-0.023-0.013-0.035-0.019c0.009,0.009,0.018,0.018,0.026,0.026
			C16.728,11.814,16.736,11.807,16.736,11.807z"/>
	</g>
</g>
</svg>
