<?xml version="1.0" encoding="utf-8"?>
<!-- Generator: Adobe Illustrator 22.0.1, SVG Export Plug-In . SVG Version: 6.00 Build 0)  -->
<svg version="1.1" id="Layer_1" xmlns="http://www.w3.org/2000/svg" xmlns:xlink="http://www.w3.org/1999/xlink" x="0px" y="0px"
	 viewBox="0 0 32 32" style="enable-background:new 0 0 32 32;" xml:space="preserve">
<style type="text/css">
	.st0{fill:#0C424E;}
	.st1{fill:#FFFFFF;}
</style>
<circle class="st0" cx="16" cy="16" r="16"/>
<g>
	<path class="st1" d="M14.696,5.108c-0.381-0.804-0.035-1.461,0.371-1.781c0.174-0.137,0.381-0.202,0.579-0.287
		c0.187,0,0.373,0,0.56,0c0.231,0.094,0.471,0.171,0.657,0.351c0.486,0.471,0.573,1.023,0.338,1.642
		c-0.066,0.105-0.132,0.211-0.197,0.316c-0.193,0.174-0.39,0.343-0.65,0.41c-0.091,0.024-0.086,0.087-0.086,0.154
		c0,1.093,0.001,2.186-0.001,3.279c0,0.081,0.023,0.13,0.095,0.177c0.38,0.247,0.534,0.597,0.444,1.044
		c-0.017,0.085,0,0.131,0.076,0.177c0.729,0.439,1.456,0.881,2.181,1.326c0.093,0.057,0.145,0.061,0.228-0.029
		c0.321-0.345,0.727-0.528,1.195-0.575c0.242,0.013,0.488-0.014,0.722,0.076c0.272,0.094,0.523,0.225,0.729,0.429
		c0.593,0.586,0.723,1.28,0.476,2.061c-0.054,0.108-0.107,0.216-0.161,0.325c-0.238,0.34-0.539,0.605-0.932,0.751
		c-0.095,0.035-0.093,0.098-0.092,0.172c0.004,0.838,0.008,1.677,0.013,2.515c0,0.058-0.007,0.114,0.056,0.158
		c0.419,0.287,0.508,0.688,0.387,1.157c-0.066,0.13-0.143,0.253-0.241,0.362c-0.295,0.237-0.625,0.323-0.987,0.2
		c-0.115-0.039-0.195-0.024-0.294,0.035c-0.972,0.589-1.942,1.18-2.923,1.754c-0.233,0.136-0.424,0.257-0.351,0.566
		c0.009,0.037-0.004,0.079-0.007,0.119c-0.048,0.144-0.111,0.281-0.198,0.406c-0.446,0.407-0.814,0.451-1.333,0.145
		c-0.086-0.051-0.132-0.016-0.193,0.021c-0.837,0.504-1.673,1.01-2.512,1.509c-0.1,0.06-0.134,0.116-0.122,0.235
		c0.024,0.24,0.006,0.481-0.108,0.701c-0.059,0.113-0.014,0.154,0.081,0.208c0.629,0.359,1.256,0.721,1.878,1.091
		c0.126,0.075,0.169,0.069,0.242-0.074c0.349-0.679,0.914-1.043,1.681-1.05c0.744-0.007,1.289,0.354,1.673,0.976
		c0.052,0.121,0.103,0.241,0.155,0.362c0.006,0.046,0.009,0.092,0.02,0.137c0.251,1.07-0.524,2.161-1.613,2.272
		c-0.151,0-0.302,0-0.453,0c-0.989-0.101-1.735-1.003-1.652-2.004c0.01-0.117-0.021-0.179-0.124-0.237
		c-0.683-0.386-1.363-0.778-2.042-1.172c-0.09-0.052-0.149-0.065-0.241,0.012c-0.457,0.377-1.081,0.425-1.586,0.135
		c-0.491-0.281-0.755-0.828-0.679-1.403c0.006-0.046,0.007-0.093,0.011-0.139c0.05-0.121,0.1-0.242,0.151-0.364
		c0.611-0.991,1.922-0.857,2.393-0.059c0.047,0.08,0.087,0.071,0.157,0.029c0.83-0.501,1.661-0.999,2.493-1.496
		c0.06-0.036,0.082-0.066,0.056-0.139c-0.077-0.213-0.06-0.431-0.007-0.647c0.064-0.131,0.133-0.259,0.233-0.366
		c0.173-0.153,0.376-0.242,0.602-0.282c0.121,0.013,0.242,0.027,0.363,0.04c0.159,0.07,0.319,0.141,0.432,0.278
		c0.064,0.078,0.113,0.037,0.17,0.002c1.027-0.617,2.054-1.234,3.083-1.85c0.074-0.044,0.095-0.074,0.048-0.167
		c-0.347-0.696,0.017-1.365,0.789-1.456c0.092-0.011,0.125-0.034,0.124-0.129c-0.003-0.767-0.003-1.533,0-2.3
		c0-0.101-0.025-0.141-0.134-0.138c-0.554,0.017-1.026-0.18-1.425-0.562c-0.094-0.121-0.188-0.243-0.282-0.364
		c-0.295-0.569-0.343-1.151-0.077-1.743c0.042-0.094,0.012-0.127-0.06-0.17c-0.736-0.437-1.472-0.876-2.208-1.314
		c-0.049-0.029-0.09-0.064-0.157-0.007c-0.385,0.328-0.796,0.31-1.219,0.079c-0.093-0.108-0.186-0.215-0.279-0.323
		c-0.287-0.751,0.009-1.277,0.813-1.436c0.08-0.016,0.095-0.048,0.095-0.117c-0.001-1.057-0.001-2.115,0.001-3.172
		c0-0.083-0.026-0.121-0.11-0.127c-0.339-0.022-0.619-0.179-0.876-0.388C14.855,5.325,14.775,5.216,14.696,5.108z"/>
	<path class="st1" d="M4.125,15.4c0.083-0.337,0.197-0.659,0.428-0.929c0.36-0.421,0.818-0.644,1.368-0.681
		c0.134,0.005,0.268,0.01,0.401,0.015c0.646,0.149,1.128,0.505,1.413,1.112c0.048,0.162,0.096,0.324,0.144,0.486
		c0.065,0.887-0.266,1.561-1.069,1.979c-0.166,0.086-0.351,0.115-0.526,0.175c-0.121,0.003-0.242,0.006-0.363,0.009
		c-0.96-0.105-1.554-0.626-1.771-1.554c-0.004-0.019-0.017-0.035-0.026-0.053C4.125,15.773,4.125,15.587,4.125,15.4z"/>
	<path class="st1" d="M27.133,21.273c0.013-0.006,0.023-0.003,0.033,0.007c0,0.16,0,0.32,0,0.48l-0.015,0.01
		c0,0-0.018-0.003-0.018-0.003C27.133,21.602,27.133,21.438,27.133,21.273z"/>
	<path class="st1" d="M27.165,10.52l-0.015,0.01c0,0-0.018-0.003-0.018-0.003c-0.001-0.164-0.002-0.328-0.003-0.493
		c0.012,0.001,0.024,0.003,0.035,0.005C27.165,10.2,27.165,10.36,27.165,10.52z"/>
	<path class="st1" d="M16.532,28.928c0.002,0.011-0.001,0.022-0.007,0.032c-0.147,0-0.293,0-0.44,0
		c-0.006-0.01-0.008-0.02-0.007-0.032C16.23,28.928,16.381,28.928,16.532,28.928z"/>
	<path class="st1" d="M6.609,22.284c-0.554,0.381-1.151,0.171-1.419-0.242c-0.394-0.606-0.021-1.368,0.731-1.491
		c0.123,0.006,0.247,0.003,0.367,0.04c0.278,0.087,0.472,0.271,0.604,0.525c0.045,0.144,0.081,0.29,0.08,0.442
		c-0.002,0.139-0.052,0.266-0.095,0.395C6.788,22.064,6.699,22.174,6.609,22.284z"/>
	<path class="st1" d="M6.609,22.284c0.089-0.11,0.179-0.22,0.268-0.33c0.036,0.038,0.066,0.087,0.109,0.113
		c0.976,0.565,1.953,1.127,2.93,1.69c-0.05,0.121-0.1,0.242-0.151,0.364c-0.652-0.379-1.304-0.758-1.956-1.138
		C7.41,22.75,7.009,22.517,6.609,22.284z"/>
	<path class="st1" d="M6.289,20.591c-0.12-0.037-0.244-0.034-0.367-0.04c0-0.995,0.001-1.989,0.001-2.984
		c0.121-0.003,0.242-0.006,0.363-0.009C6.287,18.569,6.288,19.58,6.289,20.591z"/>
	<path class="st1" d="M5.806,11.527c-0.592-0.111-0.995-0.449-1.148-1.031C4.508,9.931,4.675,9.442,5.121,9.061
		C5.683,8.58,6.71,8.609,7.216,9.436c0.09,0.167,0.139,0.347,0.183,0.529c0.012,0.784-0.285,1.239-0.994,1.519
		C6.208,11.537,6.006,11.529,5.806,11.527z"/>
	<path class="st1" d="M10.09,7.837c-0.191-0.611,0.013-1.117,0.534-1.323c0.405-0.16,0.787-0.051,1.143,0.324
		c0.053,0.108,0.105,0.215,0.158,0.323c0.074,0.528-0.103,0.928-0.597,1.164c-0.171,0.045-0.345,0.051-0.521,0.042
		c-0.146-0.028-0.279-0.087-0.404-0.167C10.276,8.099,10.185,7.966,10.09,7.837z"/>
	<path class="st1" d="M10.09,7.837c0.096,0.129,0.186,0.262,0.313,0.363c-0.094-0.012-0.167,0.042-0.24,0.084
		C9.281,8.79,8.401,9.298,7.52,9.802C7.45,9.841,7.4,9.882,7.399,9.966C7.355,9.783,7.306,9.603,7.216,9.436
		C7.569,9.298,7.879,9.08,8.205,8.894C8.78,8.567,9.351,8.232,9.925,7.902C9.975,7.873,10.035,7.858,10.09,7.837z"/>
	<path class="st1" d="M11.925,7.161c-0.053-0.108-0.105-0.215-0.158-0.323C12.489,6.417,13.214,6,13.934,5.573
		c0.256-0.152,0.538-0.262,0.762-0.465c0.08,0.108,0.159,0.217,0.239,0.325c-0.566,0.33-1.131,0.662-1.698,0.988
		C12.801,6.671,12.362,6.915,11.925,7.161z"/>
	<path class="st1" d="M5.806,11.527c0.201,0.002,0.402,0.011,0.599-0.042c-0.041,0.058-0.039,0.124-0.04,0.191
		c-0.013,0.71-0.027,1.42-0.041,2.13c-0.134-0.005-0.268-0.01-0.401-0.015c0.001-0.69-0.001-1.38,0.006-2.069
		C5.929,11.618,5.891,11.563,5.806,11.527z"/>
	<path class="st1" d="M11.884,18.962c-0.022,0.133,0.091,0.168,0.17,0.216c0.753,0.455,1.508,0.906,2.264,1.357
		c0.307,0.183,0.616,0.362,0.924,0.543c-0.101,0.108-0.169,0.236-0.233,0.366c-0.085-0.167-0.265-0.211-0.406-0.297
		c-0.972-0.593-1.949-1.178-2.925-1.765c-0.022-0.013-0.05-0.016-0.075-0.024C11.715,19.239,11.812,19.11,11.884,18.962z"/>
	<path class="st1" d="M15.291,10.996c-0.914,0.547-1.829,1.095-2.743,1.642c-0.205,0.122-0.41,0.243-0.615,0.364
		c-0.052-0.122-0.104-0.244-0.156-0.366c0.404-0.185,0.767-0.443,1.149-0.666c0.64-0.374,1.273-0.763,1.909-1.145
		c0.069-0.041,0.141-0.076,0.177-0.153C15.105,10.781,15.198,10.888,15.291,10.996z"/>
	<path class="st1" d="M19.691,24.244c-0.182-0.201-0.434-0.298-0.658-0.434c-0.781-0.475-1.567-0.942-2.351-1.412
		c0.087-0.125,0.15-0.262,0.198-0.406c0.006,0.106,0.096,0.139,0.167,0.182c0.869,0.526,1.741,1.048,2.61,1.573
		c0.067,0.04,0.128,0.092,0.191,0.138C19.796,24.005,19.743,24.124,19.691,24.244z"/>
	<path class="st1" d="M16.205,17.238c0.001,1.199,0.001,2.398,0.002,3.598c-0.121-0.013-0.242-0.027-0.363-0.04
		c0-1.108,0-2.215,0.001-3.323c0-0.086,0.014-0.175-0.081-0.226C15.911,17.244,16.058,17.241,16.205,17.238z"/>
	<path class="st1" d="M21.205,8.078c0.001,1.103,0.001,2.207,0.002,3.31c-0.234-0.09-0.48-0.062-0.722-0.076
		c0.005-0.004,0.01-0.009,0.015-0.013c0.089-0.069,0.247,0.056,0.295-0.087c0.032-0.096,0.01-0.21,0.01-0.317
		c0.001-0.624-0.002-1.249,0.004-1.873c0.003-0.284,0.056-0.567,0.032-0.853C20.963,8.14,21.084,8.109,21.205,8.078z"/>
	<path class="st1" d="M19.808,7.001c-0.923-0.535-1.846-1.07-2.769-1.606c-0.016-0.009-0.025-0.03-0.037-0.045
		c0.066-0.105,0.132-0.211,0.197-0.316c0.39,0.278,0.822,0.485,1.23,0.734c0.476,0.29,0.964,0.562,1.447,0.84
		c0.028,0.016,0.061,0.024,0.092,0.036C19.915,6.762,19.861,6.881,19.808,7.001z"/>
	<path class="st1" d="M21.683,18.956c-0.001,0.102,0.087,0.129,0.151,0.167c0.912,0.549,1.826,1.095,2.74,1.641
		c-0.054,0.12-0.107,0.241-0.161,0.361c-0.19-0.214-0.457-0.313-0.692-0.458c-0.729-0.45-1.467-0.885-2.203-1.325
		c-0.022-0.013-0.05-0.016-0.075-0.024C21.539,19.209,21.617,19.086,21.683,18.956z"/>
	<path class="st1" d="M22.412,13.878c0.419,0.168,0.789,0.43,1.193,0.627c0.444,0.218,0.857,0.496,1.313,0.692
		c-0.091,0.177-0.123,0.366-0.12,0.563c-0.013-0.182-0.141-0.254-0.287-0.331c-0.757-0.403-1.507-0.816-2.26-1.226
		C22.305,14.095,22.358,13.986,22.412,13.878z"/>
	<path class="st1" d="M17.97,26.158c0.575-0.33,1.15-0.659,1.724-0.99c0.063-0.036,0.121-0.083,0.197-0.09
		c0.093,0.078,0.186,0.155,0.278,0.233c-0.341,0.251-0.725,0.43-1.085,0.65c-0.316,0.193-0.639,0.374-0.959,0.56
		C18.073,26.399,18.022,26.279,17.97,26.158z"/>
	<path class="st1" d="M17.194,15.246c0.562-0.321,1.124-0.642,1.686-0.963c0.057-0.032,0.125-0.051,0.132-0.133
		c0.094,0.121,0.188,0.243,0.282,0.364c-0.419,0.166-0.784,0.432-1.18,0.642c-0.221,0.118-0.434,0.25-0.653,0.374
		c-0.064,0.036-0.133,0.065-0.14,0.152C17.279,15.537,17.236,15.391,17.194,15.246z"/>
	<path class="st1" d="M25.645,11.688c-0.98-0.113-1.51-1.009-1.164-1.967C24.56,9.6,24.639,9.48,24.718,9.359
		c0.415-0.421,0.913-0.571,1.475-0.39c0.512,0.165,0.832,0.528,0.937,1.066c0.001,0.164,0.002,0.328,0.003,0.493
		c-0.102,0.583-0.457,0.938-1.005,1.121C25.969,11.688,25.807,11.682,25.645,11.688z"/>
	<path class="st1" d="M19.808,7.001c0.053-0.119,0.107-0.239,0.16-0.358c0.527-0.65,1.362-0.449,1.65,0.095
		c0.157,0.297,0.139,0.597,0.03,0.902c-0.083,0.105-0.167,0.21-0.25,0.315c-0.064,0.041-0.128,0.083-0.192,0.124
		c-0.121,0.031-0.242,0.061-0.363,0.092C20.131,8.15,19.796,7.77,19.808,7.001z"/>
	<path class="st1" d="M21.397,7.954c0.083-0.105,0.167-0.21,0.25-0.315c0.834,0.481,1.667,0.966,2.505,1.441
		c0.182,0.103,0.347,0.248,0.566,0.279C24.639,9.48,24.56,9.6,24.481,9.721c-0.596-0.345-1.19-0.693-1.788-1.035
		C22.263,8.439,21.83,8.198,21.397,7.954z"/>
	<path class="st1" d="M24.412,21.125c0.054-0.12,0.107-0.241,0.161-0.361c0.292-0.408,0.686-0.63,1.189-0.653
		c0.122,0.015,0.243,0.03,0.365,0.045c0.538,0.19,0.902,0.536,1.006,1.116c0,0.165,0,0.329,0,0.494
		c-0.183,0.981-1.27,1.458-2.115,0.929c-0.056-0.035-0.112-0.07-0.168-0.105c-0.081-0.091-0.162-0.181-0.243-0.272
		C24.377,21.948,24.31,21.55,24.412,21.125z"/>
	<path class="st1" d="M20.169,25.31c-0.093-0.078-0.186-0.155-0.278-0.233c-0.176-0.252-0.236-0.531-0.2-0.834
		c0.052-0.12,0.105-0.239,0.157-0.359c0.223-0.255,0.492-0.419,0.843-0.397c0.399,0.024,0.677,0.231,0.848,0.588
		c0.057,0.143,0.074,0.292,0.076,0.444C21.569,25.133,20.94,25.651,20.169,25.31z"/>
	<path class="st1" d="M21.615,24.52c-0.002-0.152-0.019-0.301-0.076-0.444c0.334-0.133,0.628-0.339,0.939-0.516
		c0.698-0.396,1.391-0.8,2.085-1.202c0.017-0.01,0.029-0.026,0.044-0.04c0.081,0.091,0.162,0.181,0.243,0.272
		c-0.291,0.244-0.639,0.396-0.963,0.587c-0.702,0.412-1.41,0.815-2.115,1.223C21.716,24.433,21.667,24.479,21.615,24.52z"/>
	<path class="st1" d="M10.369,13.958c-0.79,0.428-1.579,0.857-2.37,1.283c-0.07,0.038-0.121,0.079-0.119,0.163
		c-0.048-0.162-0.096-0.324-0.144-0.486c0.127-0.002,0.219-0.084,0.323-0.141c0.651-0.355,1.303-0.707,1.955-1.06
		c0.034-0.018,0.074-0.026,0.111-0.039C10.206,13.772,10.287,13.865,10.369,13.958z"/>
	<path class="st1" d="M24.798,15.76c-0.002-0.197,0.029-0.386,0.12-0.563c0.176-0.288,0.433-0.449,0.768-0.487
		c0.147,0.002,0.293,0.019,0.435,0.058c0.362,0.183,0.594,0.456,0.604,0.88c0.011,0.45-0.222,0.743-0.605,0.94
		c-0.119,0.02-0.239,0.04-0.358,0.06C25.202,16.596,24.874,16.293,24.798,15.76z"/>
	<path class="st1" d="M25.762,16.648c0.119-0.02,0.239-0.04,0.358-0.06c0.002,1.189,0.004,2.379,0.006,3.568
		c-0.122-0.015-0.243-0.03-0.365-0.045C25.762,18.957,25.762,17.803,25.762,16.648z"/>
	<path class="st1" d="M26.121,14.769c-0.142-0.039-0.288-0.056-0.435-0.058c0.049-0.063,0.042-0.137,0.042-0.21
		c0-0.863,0-1.726,0-2.589c0-0.086,0.012-0.175-0.083-0.225c0.162-0.006,0.324,0,0.483-0.039
		C26.126,12.689,26.123,13.729,26.121,14.769z"/>
	<path class="st1" d="M6.893,21.116c0.802-0.477,1.605-0.954,2.406-1.433c0.29-0.173,0.577-0.35,0.866-0.524
		c0.081,0.082,0.161,0.163,0.242,0.245c-0.343,0.26-0.727,0.455-1.093,0.678c-0.695,0.424-1.396,0.837-2.094,1.255
		c-0.096,0.058-0.192,0.117-0.247,0.221C6.974,21.406,6.938,21.26,6.893,21.116z"/>
	<path class="st1" d="M10.845,12.233c0.126-0.031,0.172-0.101,0.162-0.238c-0.084-1.128-0.026-2.259-0.037-3.388
		c-0.001-0.136-0.042-0.205-0.163-0.24c0.175,0.009,0.35,0.004,0.521-0.042c0.053,1.326,0.03,2.654,0.041,3.981
		C11.201,12.232,11.023,12.236,10.845,12.233z"/>
	<path class="st1" d="M10.845,12.233c0.177,0.002,0.356-0.001,0.523,0.073c0.167,0.072,0.295,0.192,0.408,0.331
		c0.052,0.122,0.104,0.244,0.156,0.366c0.02,0.188,0.003,0.374-0.046,0.557c-0.069,0.105-0.138,0.21-0.207,0.316
		c-0.131,0.105-0.269,0.2-0.431,0.252c-0.121,0.013-0.243,0.025-0.364,0.038c-0.186-0.032-0.357-0.103-0.515-0.207
		c-0.081-0.093-0.163-0.186-0.244-0.278c-0.127-0.306-0.171-0.613-0.011-0.922C10.268,12.459,10.515,12.287,10.845,12.233z"/>
	<path class="st1" d="M10.407,19.404c-0.081-0.082-0.161-0.163-0.242-0.245c-0.241-0.532-0.185-0.947,0.166-1.271
		c0.157-0.145,0.35-0.21,0.553-0.254c0.122,0.013,0.243,0.026,0.365,0.038c0.588,0.242,0.799,0.67,0.636,1.289
		c-0.072,0.148-0.17,0.277-0.282,0.396C11.214,19.634,10.815,19.64,10.407,19.404z"/>
	<path class="st1" d="M17.194,15.246c0.043,0.145,0.085,0.291,0.128,0.436c0.021,0.82-0.308,1.277-1.117,1.556
		c-0.147,0.003-0.294,0.006-0.441,0.009c-0.848-0.14-1.33-0.807-1.203-1.666c0.003-0.02,0.001-0.04,0.002-0.06
		c0.051-0.122,0.102-0.243,0.153-0.365C15.275,14.219,16.645,14.21,17.194,15.246z"/>
	<path class="st1" d="M11.248,17.673c-0.122-0.013-0.243-0.026-0.365-0.038c0-1.157,0-2.313,0-3.47
		c0.121-0.013,0.243-0.025,0.364-0.038C11.248,15.309,11.248,16.491,11.248,17.673z"/>
	<path class="st1" d="M14.715,15.156c-0.051,0.122-0.102,0.243-0.153,0.365c-0.916-0.52-1.833-1.04-2.749-1.56
		c-0.046-0.026-0.089-0.057-0.134-0.086c0.069-0.105,0.138-0.21,0.207-0.316c0.913,0.52,1.825,1.04,2.738,1.559
		C14.652,15.135,14.684,15.144,14.715,15.156z"/>
</g>
</svg>
