<svg id="Layer_1" data-name="Layer 1" xmlns="http://www.w3.org/2000/svg" viewBox="0 0 31.68 31.68"><defs><style>.cls-1{fill:#fff;}.cls-2{fill:#0c0c0c;}</style></defs><circle class="cls-1" cx="15.865" cy="15.84" r="14.88"/><g id="black"><g id="_5" data-name="5"><g id="_5-2" data-name="5"><path class="cls-2" d="M15.975.16A15.84,15.84,0,1,0,31.815,16,15.855,15.855,0,0,0,15.975.16ZM2.536,19.366A13.643,13.643,0,0,1,2.115,16,13.869,13.869,0,0,1,15.975,2.14a13.443,13.443,0,0,1,4.01.594c.074.025-.05.4-.05.4s-3.093,2.945-6.657,6.361a.921.921,0,0,1-.446,0A3.964,3.964,0,0,0,7.09,13.03a3.711,3.711,0,0,0,.371,1.658c.025.074,0,.372-.049.4-2.7,2.549-4.752,4.529-4.752,4.529A.749.749,0,0,1,2.536,19.366ZM15.975,29.86A13.833,13.833,0,0,1,3.5,22.039a1.535,1.535,0,0,1-.074-.4s2.326-2.2,5.3-5.024a.808.808,0,0,1,.446-.1,3.9,3.9,0,0,0,1.856.47,3.972,3.972,0,0,0,3.96-3.96,4.112,4.112,0,0,0-.322-1.584.822.822,0,0,1,0-.421c3.862-3.688,7.252-6.9,7.252-6.9s.619-.322.718-.272A13.857,13.857,0,0,1,15.975,29.86Zm5.94-9.9S18.822,23.5,15.777,23.5c-2.895,0-5.742-3.539-5.742-3.539a1.067,1.067,0,0,0,0,2.129s2.847,2.821,5.742,2.821c3.045,0,6.138-2.822,6.138-2.822a1.067,1.067,0,0,0,0-2.128Zm-.99-8.935a1.98,1.98,0,1,0,1.98,1.98A1.986,1.986,0,0,0,20.925,11.025Z" transform="translate(-0.135 -0.16)"/></g></g></g></svg>