<svg id="Layer_1" data-name="Layer 1" xmlns="http://www.w3.org/2000/svg" viewBox="0 0 31.365 31.302"><defs><style>.cls-1{fill:#fff;}</style></defs><title>ROK</title><ellipse class="cls-1" cx="15.623" cy="15.587" rx="14.268" ry="14.48"/><path d="M29.658,8.563c-.031-.059-.061-.12-.092-.18l-.074-.133a16.377,16.377,0,0,0-2.086-2.985A15.056,15.056,0,0,0,16.7.013C16.6,0,16.486,0,16.377,0V.035L16.305.024A15.056,15.056,0,0,0,5.1,4.083,15.057,15.057,0,0,0,.017,14.869,15.112,15.112,0,0,0,1.7,22.7c.031.06.061.121.092.18l.074.134A16.3,16.3,0,0,0,3.947,26a15.055,15.055,0,0,0,10.7,5.252,15.387,15.387,0,0,0,6.421-.89l.216-.079c.192-.074.381-.155.571-.238a15.663,15.663,0,0,0,4.4-2.862A15.056,15.056,0,0,0,31.332,16.4,15.122,15.122,0,0,0,29.658,8.563ZM14.976,28.757a12.752,12.752,0,0,1-9.128-4.291A13.627,13.627,0,0,1,4,21.887a12.724,12.724,0,0,1-1.492-7.022A12.748,12.748,0,0,1,6.953,5.812,12.747,12.747,0,0,1,16.5,2.567a12.654,12.654,0,0,1,7.661,3.089,11.088,11.088,0,0,0-1.067.893L14.921,14l-.016.018-.017.013c-.016.017-.028.035-.043.053a1.117,1.117,0,0,0-.1.127l-.013.021a1.166,1.166,0,0,0-.1,1.109l.005.009a1.071,1.071,0,0,0,.094.177,1.034,1.034,0,0,0,.064.084c.02.026.036.054.059.079.007.007.015.012.022.018s.01.014.016.02.041.033.061.051a1.01,1.01,0,0,0,.107.089c.022.015.043.027.065.04a1.081,1.081,0,0,0,.142.077c.014.007.029.01.046.017a1.141,1.141,0,0,0,.181.054h.023a1.341,1.341,0,0,0,.167.023h.052l11.063.048c.958,0,1.5-.1,1.961-.053V16.2a12.741,12.741,0,0,1-4.291,9.127,13.112,13.112,0,0,1-4.257,2.638c-.169.061-.341.117-.514.171-.119.038-.239.074-.359.109a12.712,12.712,0,0,1-1.694.355v.026A13.934,13.934,0,0,1,14.976,28.757Z" transform="translate(0.008 0.003)"/></svg>