<?xml version="1.0" encoding="utf-8"?>
<!-- Generator: Adobe Illustrator 25.3.1, SVG Export Plug-In . SVG Version: 6.00 Build 0)  -->
<svg version="1.1" id="Layer_1" xmlns="http://www.w3.org/2000/svg" xmlns:xlink="http://www.w3.org/1999/xlink" x="0px" y="0px"
	 viewBox="0 0 32 32" style="enable-background:new 0 0 32 32;" xml:space="preserve">
<style type="text/css">
	.st0{fill:#208475;}
	.st1{fill:#FFFFFF;}
</style>
<g>
	<circle id="circle4" class="st0" cx="16.008" cy="16.133" r="15.752"/>
	<g id="g12">
		<path id="path6" class="st1" d="M26.229,11.481h-7.373c1.915-0.5,3.171-1.218,3.733-2.134c0.4-0.652,0.445-1.408,0.13-2.187
			c-0.217-0.535-0.531-0.938-0.933-1.198c-0.389-0.251-0.84-0.357-1.34-0.314c-0.965,0.082-2.058,0.739-2.997,1.802
			c-0.609,0.689-1.113,1.499-1.482,2.363c-0.368-0.865-0.873-1.674-1.482-2.363c-0.939-1.063-2.032-1.72-2.997-1.802
			c-0.5-0.043-0.951,0.063-1.34,0.314C9.746,6.223,9.432,6.626,9.216,7.161C8.9,7.94,8.945,8.696,9.345,9.348
			c0.563,0.916,1.818,1.634,3.733,2.134h-6.78c-0.507,0-0.918,0.411-0.918,0.918v1.682c0,0.507,0.411,0.918,0.918,0.918h8.411
			v-3.434h3.109v3.434h8.411c0.507,0,0.918-0.411,0.918-0.918v-1.682C27.147,11.892,26.736,11.481,26.229,11.481L26.229,11.481z
			 M13.439,10.522c-1.687-0.428-2.803-1.018-3.226-1.708c-0.233-0.38-0.25-0.784-0.053-1.27c0.241-0.594,0.607-0.884,1.118-0.884
			c0.04,0,0.081,0.002,0.123,0.005c0.696,0.059,1.563,0.606,2.32,1.462c0.691,0.782,1.231,1.741,1.557,2.754
			C14.8,10.812,14.136,10.699,13.439,10.522L13.439,10.522z M16.656,10.881c0.327-1.013,0.866-1.972,1.558-2.754
			c0.756-0.856,1.623-1.403,2.32-1.462c0.042-0.004,0.083-0.005,0.123-0.005c0.511,0,0.878,0.291,1.118,0.884
			c0.197,0.486,0.18,0.89-0.054,1.27c-0.423,0.69-1.538,1.28-3.225,1.708C17.798,10.699,17.134,10.812,16.656,10.881L16.656,10.881z
			"/>
		<path id="path8" class="st1" d="M7.551,16.018h7.158v11.469h-6.24c-0.507,0-0.918-0.411-0.918-0.918L7.551,16.018z"/>
		<path id="path10" class="st1" d="M24.977,16.018V26.57c0,0.507-0.411,0.918-0.918,0.918h-6.241V16.018H24.977z"/>
	</g>
</g>
</svg>
