<?xml version="1.0" encoding="utf-8"?>
<!-- Generator: Adobe Illustrator 25.2.3, SVG Export Plug-In . SVG Version: 6.00 Build 0)  -->
<svg version="1.1" id="Layer_1" xmlns="http://www.w3.org/2000/svg" xmlns:xlink="http://www.w3.org/1999/xlink" x="0px" y="0px"
	 viewBox="0 0 32 32" style="enable-background:new 0 0 32 32;" xml:space="preserve">
<style type="text/css">
	.st0{fill-rule:evenodd;clip-rule:evenodd;}
	.st1{fill:url(#SVGID_1_);}
	.st2{fill:#FFFFFF;}
	.st3{fill:url(#SVGID_2_);}
	.st4{fill:url(#SVGID_3_);}
</style>
<g>
	<ellipse class="st0" cx="15.799" cy="16.13" rx="15.83" ry="15.87"/>
	<g id="Layer_2_1_">
		<g id="Layer_1-2">
			
				<linearGradient id="SVGID_1_" gradientUnits="userSpaceOnUse" x1="16.0852" y1="12.7591" x2="16.0852" y2="15.1557" gradientTransform="matrix(1 0 0 -1 0 34)">
				<stop  offset="0" style="stop-color:#B5E0DA"/>
				<stop  offset="0.63" style="stop-color:#3CBAB2"/>
				<stop  offset="0.97" style="stop-color:#00A89E"/>
				<stop  offset="1" style="stop-color:#00A69C"/>
			</linearGradient>
			<polygon class="st1" points="15.123,18.844 15.33,19.852 15.712,19.348 16.086,21.241 16.459,19.348 16.84,19.852 17.047,18.844 
							"/>
			<path class="st2" d="M17.099,17.242v-2.84c0-0.554-1.005-1.955-1.005-1.955s-1.015,1.401-1.015,1.955v2.84
				c-0.659,0.212-1.234,0.627-1.64,1.184h5.294C18.327,17.87,17.756,17.455,17.099,17.242z"/>
			
				<linearGradient id="SVGID_2_" gradientUnits="userSpaceOnUse" x1="26.7852" y1="12.3805" x2="26.7852" y2="15.3569" gradientTransform="matrix(1 0 0 -1 0 34)">
				<stop  offset="0" style="stop-color:#B5E0DA"/>
				<stop  offset="0.63" style="stop-color:#3CBAB2"/>
				<stop  offset="0.97" style="stop-color:#00A89E"/>
				<stop  offset="1" style="stop-color:#00A69C"/>
			</linearGradient>
			<path class="st3" d="M28.286,20.126c0-0.822-0.672-1.488-1.501-1.488s-1.501,0.666-1.501,1.488c0,0.822,0.672,1.488,1.501,1.488
				l0,0C27.614,21.613,28.285,20.947,28.286,20.126z M25.906,20.126c-0.001-0.481,0.392-0.872,0.877-0.873
				c0.485-0.001,0.88,0.388,0.881,0.87c0.001,0.481-0.392,0.872-0.877,0.873c-0.001,0-0.001,0-0.002,0
				C26.301,20.994,25.908,20.606,25.906,20.126z"/>
			
				<linearGradient id="SVGID_3_" gradientUnits="userSpaceOnUse" x1="16" y1="2.037" x2="16" y2="34" gradientTransform="matrix(1 0 0 -1 0 34)">
				<stop  offset="0" style="stop-color:#B5E0DA"/>
				<stop  offset="0.63" style="stop-color:#3CBAB2"/>
				<stop  offset="0.97" style="stop-color:#00A89E"/>
				<stop  offset="1" style="stop-color:#00A69C"/>
			</linearGradient>
			<path class="st4" d="M16.086,0C7.19,0.01-0.02,7.159-0.031,15.981c0,6.093,3.774,10.993,8.781,11.405
				c3.046,0.249,5.992-0.827,7.932-1.776c1.158-0.473,2.236-1.12,3.195-1.918l0.209-0.172l0,0c0.156-0.135,0.302-0.264,0.441-0.395
				c1.817-1.708,3.983-4.78,3.983-9.723v-0.545l-8.355-5.683l-8.357,5.683v0.543c0,4.943,2.166,8.015,3.983,9.723
				c0.212,0.199,0.436,0.395,0.667,0.583c0.763-0.273,1.523-0.554,2.266-0.881c-1.897-1.222-4.648-3.865-4.83-8.89l6.271-4.267
				l6.269,4.267c-0.147,4.062-1.99,6.557-3.603,7.965l-0.201,0.153c-0.048,0.037-4.888,3.678-9.699,3.281
				c-3.007-0.247-5.446-2.672-6.418-6.049c0.772-0.544,0.954-1.605,0.405-2.371c-0.211-0.295-0.512-0.515-0.858-0.629
				c0-0.102,0-0.201,0-0.305c-0.001-1.957,0.416-3.891,1.225-5.676c0.492,0.199,1.018,0.302,1.549,0.303
				c2.251-0.005,4.072-1.818,4.067-4.05C8.891,5.898,8.727,5.25,8.415,4.668C8.368,4.583,8.318,4.503,8.268,4.422
				c6.427-4.283,15.139-2.588,19.458,3.786c0.054,0.079,0.107,0.159,0.159,0.239c-1.232,1.033-1.386,2.861-0.344,4.083
				c0.555,0.651,1.372,1.027,2.232,1.026c0.045,0,0.091,0,0.136,0c0.146,0.8,0.222,1.611,0.225,2.424
				c0,7.219-5.793,12.925-14.077,13.927c-6.625,0.807-10.874-1.92-10.874-1.92c2.478,2.712,5.944,3.975,10.906,3.975
				c8.901-0.095,16.039-7.328,15.942-16.154C31.936,7.116,24.852,0.093,16.086,0z M2.575,18.132
				c-0.039,0.18-0.125,0.346-0.248,0.484c-0.118-0.537-0.199-1.081-0.244-1.629C2.475,17.227,2.672,17.685,2.575,18.132z
				 M7.864,4.958C8.759,6.626,8.121,8.7,6.438,9.588c-0.897,0.473-1.958,0.531-2.902,0.157c0.996-1.96,2.442-3.66,4.221-4.965
				c0.032,0.057,0.074,0.116,0.108,0.177H7.864z M29.772,12.94c-1.27,0.001-2.3-1.019-2.302-2.278
				c-0.001-0.639,0.27-1.25,0.745-1.682c0.725,1.232,1.255,2.567,1.57,3.959L29.772,12.94z"/>
		</g>
	</g>
</g>
</svg>
