<?xml version="1.0" encoding="utf-8"?>
<!-- Generator: Adobe Illustrator 25.2.3, SVG Export Plug-In . SVG Version: 6.00 Build 0)  -->
<svg version="1.1" id="Layer_1" xmlns="http://www.w3.org/2000/svg" xmlns:xlink="http://www.w3.org/1999/xlink" x="0px" y="0px"
	 viewBox="0 0 32 32" style="enable-background:new 0 0 32 32;" xml:space="preserve">
<style type="text/css">
	.st0{fill:#020404;}
	.st1{fill:#C6D0D7;}
</style>
<g>
	<path class="st0" d="M31.738,16.049c-0.103,8.861-7.178,15.801-15.996,15.69c-8.661-0.108-15.598-7.267-15.48-15.975
		C0.379,7.137,7.53,0.144,16.112,0.261C24.837,0.381,31.838,7.454,31.738,16.049z M31.313,16.045
		c0.004-8.494-6.84-15.369-15.304-15.374C7.576,0.666,0.691,7.506,0.684,15.896c-0.007,8.571,6.763,15.398,15.289,15.419
		C24.419,31.336,31.309,24.476,31.313,16.045z"/>
	<path class="st1" d="M31.313,16.045c-0.004,8.431-6.894,15.291-15.339,15.27C7.447,31.295,0.677,24.468,0.684,15.896
		C0.691,7.506,7.576,0.666,16.009,0.671C24.473,0.676,31.317,7.551,31.313,16.045z M29.775,16.018
		C29.774,8.387,23.61,2.215,15.994,2.219C8.392,2.223,2.203,8.387,2.201,15.954c-0.002,7.605,6.165,13.834,13.702,13.841
		C23.574,29.802,29.777,23.642,29.775,16.018z"/>
	<path class="st0" d="M29.775,16.018c0.002,7.624-6.201,13.784-13.873,13.777C8.366,29.789,2.199,23.559,2.201,15.954
		C2.203,8.387,8.392,2.223,15.994,2.219C23.61,2.215,29.774,8.387,29.775,16.018z M16.099,5.627
		c0.138-0.898-0.591-1.127-1.222-1.427c0.329-0.278,0.329-0.278,0.934-0.254C15.8,3.82,15.924,3.713,15.823,3.537
		c-0.156-0.017-0.34-0.056-0.523-0.051c-0.434,0.012-0.864,0.093-0.943,0.611c-0.074,0.483,0.265,0.694,0.671,0.836
		c0.18,0.063,0.426,0.08,0.429,0.38c-0.264,0.391-0.656,0.068-0.976,0.155c-0.05,0.18-0.047,0.337,0.05,0.406
		c0.633,0.251,1.092-0.062,1.576-0.255c0.132,0.316,0.397,0.188,0.625,0.207c0.088-0.132,0.168-0.253,0.261-0.392
		c0.268,0.026,0.525,0.051,0.739,0.072c0.141,0.177,0.072,0.395,0.309,0.501c0.372-0.063,0.726,0.199,1.111,0.26
		c0.193-0.252,0.144-0.579,0.379-0.799c0.205,0.041,0.418,0.083,0.621,0.124c0.094-0.139,0.151-0.252,0.093-0.379
		c-0.172-0.139-0.419-0.093-0.563-0.279c-0.031-0.172-0.011-0.329,0.184-0.439c0.202,0.049,0.419,0.101,0.635,0.154
		c0.096-0.138,0.18-0.257,0.082-0.428c-0.4-0.12-0.804-0.241-1.224-0.366c-0.242,0.753-0.467,1.45-0.692,2.148
		c-0.048-0.003-0.096-0.005-0.144-0.008c-0.185-0.81-0.37-1.619-0.55-2.412c-0.318-0.052-0.572-0.116-0.839-0.034
		c-0.088,0.193-0.162,0.388-0.26,0.568C16.605,4.613,16.51,5.201,16.099,5.627z M10.314,4.82c-0.087,0.03-0.18,0.049-0.261,0.091
		C5.291,7.385,2.503,13.1,3.489,18.364c1.236,6.602,6.801,10.993,13.518,10.645c1.356-0.07,2.673-0.361,4.002-0.946
		c-0.24-0.079-0.395-0.133-0.552-0.182c-1.715-0.533-3.362-1.225-4.865-2.213c-5.313-3.493-7.686-8.389-6.977-14.736
		c0.236-2.117,0.935-4.099,1.783-6.037c0.01-0.04,0.02-0.081,0.045-0.181C10.37,4.774,10.342,4.797,10.314,4.82z M14.928,10.441
		c-0.678,0.291-1.34,0.502-1.936,0.868c-1.078,0.661-1.539,1.604-1.39,2.857c0.141,1.187,0.854,1.886,1.931,2.265
		c0.438,0.154,0.891,0.268,1.33,0.398c0,0.815,0,1.594,0,2.419c-0.877-0.197-1.077-0.906-1.328-1.545c-0.711,0-1.396,0-2.106,0
		c0.245,2.172,1.652,3.217,3.574,3.801c0,0.486,0,0.927,0,1.363c0.676,0,1.291,0,1.966,0c0-0.467,0-0.908,0-1.361
		c0.776-0.213,1.494-0.433,2.119-0.869c0.933-0.653,1.491-1.503,1.505-2.687c0.013-1.102-0.466-1.858-1.439-2.348
		c-0.688-0.346-1.451-0.474-2.124-0.727c0-0.768,0-1.468,0-2.205c0.805,0.099,1.027,0.69,1.265,1.266c0.678,0,1.351,0,2.068,0
		c-0.158-2.149-1.557-3.051-3.442-3.476c0-0.489,0-0.913,0-1.337c-0.683,0-1.313,0-1.995,0C14.928,9.583,14.928,10.01,14.928,10.441
		z M27.861,20.645c-0.564-0.516-1.086-0.995-1.54-1.41c0.188-0.744,0.185-1.663,1.307-1.193c0.62,0.259,0.359,0.718,0.212,1.164
		c0.138,0.043,0.196,0.191,0.364,0.154c0.173-0.179,0.246-0.411,0.283-0.653c0.088-0.578-0.144-1.001-0.664-1.23
		c-0.6-0.264-1.19-0.188-1.507,0.202c-0.427,0.523-0.147,1.268-0.558,1.798c-0.007,0.009,0.009,0.035,0.02,0.075
		c0.065,0.126,0.27,0.187,0.258,0.414c-0.098,0.192-0.14,0.441-0.342,0.635c-0.135,0-0.279,0-0.466,0
		c-0.076,0.812-1.343,1.176-0.794,2.201c0.284,0.226,0.556,0.263,0.869,0.144c0.257-0.097,0.466-0.412,0.801-0.221
		c0.088,0.395-0.326,0.475-0.432,0.725c0.06,0.134,0.106,0.258,0.28,0.312c0.125-0.116,0.279-0.228,0.393-0.372
		c0.251-0.318,0.486-0.669,0.183-1.066c-0.319-0.418-0.712-0.316-1.105-0.086c-0.17,0.099-0.341,0.26-0.61,0.06
		c-0.013-0.393,0.351-0.555,0.569-0.789c-0.011-0.115-0.197-0.161-0.058-0.32c0.723,0.067,1.465,0.136,2.209,0.204
		C27.648,21.13,27.745,20.909,27.861,20.645z M23.204,7.653c0.261-0.623,0.461-1.1,0.66-1.575c-0.188-0.207-0.367-0.39-0.624-0.518
		c-0.499,0.592-0.992,1.178-1.483,1.761c0.094,0.179,0.184,0.309,0.334,0.298c0.332-0.172,0.397-0.592,0.82-0.655
		c0.055,0.445-0.327,0.735-0.324,1.139c0.132,0.102,0.263,0.202,0.338,0.26c0.406-0.021,0.569-0.518,0.998-0.345
		c-0.005,0.359-0.373,0.479-0.458,0.806c0.126,0.073,0.178,0.261,0.41,0.243c0.484-0.576,0.976-1.161,1.483-1.764
		c-0.232-0.196-0.427-0.36-0.6-0.507C24.238,7.035,23.885,7.458,23.204,7.653z M26.178,13.801c0.04,0.214-0.022,0.378,0.158,0.484
		c0.459,0.002,0.926-0.177,1.531-0.058c-0.568,0.389-1.041,0.713-1.531,1.049c0.035,0.263,0.068,0.513,0.105,0.785
		c0.812-0.084,1.572-0.163,2.366-0.246c-0.027-0.196,0.009-0.345-0.112-0.464c-0.474-0.076-0.958,0.207-1.501-0.025
		c0.529-0.358,0.99-0.671,1.438-0.974c-0.024-0.283,0.011-0.527-0.118-0.799C27.758,13.634,26.998,13.714,26.178,13.801z
		 M26.861,9.592c-0.008-0.611-0.597-1.234-1.164-1.231c-0.665,0.004-1.38,0.65-1.376,1.244c0.004,0.615,0.592,1.244,1.157,1.237
		C26.126,10.834,26.869,10.163,26.861,9.592z M25.015,24.837c0.229-0.136,0.357-0.243,0.457-0.436
		c-0.524-0.564-1.056-1.136-1.604-1.725c-0.169,0.149-0.294,0.259-0.404,0.356c0.165,0.339,0.501,0.479,0.594,0.812
		c-0.158,0.214-0.313,0.416-0.678,0.519c-0.155-0.212-0.332-0.455-0.5-0.685c-0.237,0.146-0.401,0.233-0.439,0.462
		c0.519,0.556,1.04,1.114,1.56,1.67c0.176-0.134,0.317-0.227,0.389-0.394c-0.123-0.252-0.413-0.382-0.497-0.673
		c0.151-0.215,0.31-0.416,0.634-0.529C24.678,24.407,24.839,24.612,25.015,24.837z M25.606,11.991
		c-0.004,0.711,0.47,1.272,1.078,1.276c0.748,0.005,1.442-0.547,1.44-1.146c-0.002-0.687-0.497-1.26-1.096-1.27
		C26.255,10.838,25.609,11.356,25.606,11.991z M21.31,4.521c-0.377,0.754-0.726,1.452-1.076,2.152
		c0.474,0.234,0.838,0.415,1.193,0.59c0.127-0.119,0.203-0.22,0.17-0.385c-0.148-0.175-0.45-0.168-0.571-0.424
		c0.03-0.139,0.072-0.276,0.254-0.369c0.181,0.072,0.384,0.152,0.634,0.251c-0.001-0.163,0.158-0.23,0.094-0.395
		c-0.166-0.101-0.339-0.206-0.526-0.319c0.007-0.168,0.036-0.302,0.232-0.372C21.902,5.33,22.105,5.416,22.3,5.5
		c0.132-0.089,0.202-0.19,0.19-0.378C22.128,4.938,21.749,4.744,21.31,4.521z"/>
	<path class="st1" d="M10.399,4.894c-0.848,1.937-1.547,3.92-1.784,6.037c-0.708,6.348,1.665,11.243,6.977,14.736
		c1.503,0.989,3.15,1.68,4.865,2.213c0.157,0.049,0.312,0.103,0.552,0.182c-1.329,0.585-2.646,0.876-4.002,0.946
		C10.29,29.357,4.725,24.966,3.489,18.364C2.503,13.1,5.291,7.385,10.053,4.912c0.081-0.042,0.174-0.061,0.261-0.091
		C10.34,4.848,10.368,4.872,10.399,4.894z"/>
	<path class="st1" d="M14.928,10.441c0-0.432,0-0.858,0-1.32c0.682,0,1.312,0,1.995,0c0,0.424,0,0.848,0,1.337
		c1.884,0.425,3.283,1.327,3.442,3.476c-0.717,0-1.39,0-2.068,0c-0.238-0.576-0.46-1.166-1.265-1.266c0,0.737,0,1.438,0,2.205
		c0.673,0.254,1.436,0.381,2.124,0.727c0.973,0.49,1.452,1.245,1.439,2.348c-0.014,1.183-0.572,2.034-1.505,2.687
		c-0.624,0.437-1.342,0.657-2.119,0.869c0,0.453,0,0.895,0,1.361c-0.675,0-1.29,0-1.966,0c0-0.436,0-0.877,0-1.363
		c-1.922-0.584-3.33-1.629-3.574-3.801c0.71,0,1.395,0,2.106,0c0.251,0.638,0.451,1.348,1.328,1.545c0-0.824,0-1.603,0-2.419
		c-0.44-0.13-0.892-0.244-1.33-0.398c-1.077-0.379-1.79-1.078-1.931-2.265c-0.149-1.253,0.312-2.196,1.39-2.857
		C13.588,10.944,14.25,10.732,14.928,10.441z M17.008,17.164c0,0.73,0,1.418,0,2.105c0.864,0.016,1.527-0.471,1.524-1.097
		C18.529,17.534,17.917,17.115,17.008,17.164z M14.944,12.733c-0.772-0.009-1.226,0.411-1.165,1.049
		c0.052,0.549,0.491,0.828,1.165,0.719C14.944,13.914,14.944,13.323,14.944,12.733z"/>
	<path class="st1" d="M27.861,20.645c-0.116,0.264-0.213,0.485-0.328,0.748c-0.744-0.069-1.486-0.138-2.209-0.204
		c-0.139,0.159,0.047,0.205,0.058,0.32c-0.218,0.234-0.582,0.397-0.569,0.789c0.268,0.2,0.44,0.039,0.61-0.06
		c0.393-0.23,0.786-0.332,1.105,0.086c0.304,0.397,0.069,0.749-0.183,1.066c-0.114,0.144-0.268,0.256-0.393,0.372
		c-0.175-0.054-0.221-0.177-0.28-0.312c0.105-0.25,0.519-0.33,0.432-0.725c-0.335-0.191-0.545,0.124-0.801,0.221
		c-0.313,0.118-0.585,0.081-0.869-0.144c-0.549-1.025,0.717-1.39,0.794-2.201c0.187,0,0.332,0,0.466,0
		c0.202-0.194,0.243-0.443,0.342-0.635c0.013-0.227-0.193-0.288-0.258-0.414c-0.011-0.04-0.027-0.066-0.02-0.075
		c0.41-0.53,0.131-1.275,0.558-1.798c0.318-0.39,0.907-0.466,1.507-0.202c0.521,0.229,0.753,0.652,0.664,1.23
		c-0.037,0.242-0.11,0.474-0.283,0.653c-0.168,0.038-0.226-0.11-0.364-0.154c0.147-0.446,0.408-0.905-0.212-1.164
		c-1.123-0.47-1.12,0.449-1.307,1.193C26.774,19.65,27.297,20.129,27.861,20.645z M26.307,20.705
		c0.268,0.095,0.502,0.159,0.784,0.03c-0.127-0.285-0.352-0.389-0.566-0.5C26.345,20.337,26.304,20.483,26.307,20.705z
		 M26.211,18.966c-0.072,0.034-0.05,0.071-0.008,0.105C26.27,19.037,26.252,18.999,26.211,18.966z"/>
	<path class="st1" d="M16.1,5.626c0.411-0.425,0.505-1.013,0.777-1.51c0.099-0.181,0.173-0.375,0.26-0.568
		c0.267-0.081,0.521-0.018,0.839,0.034c0.181,0.792,0.366,1.602,0.55,2.412c0.048,0.003,0.096,0.005,0.144,0.008
		c0.225-0.698,0.449-1.395,0.692-2.148c0.42,0.126,0.824,0.247,1.224,0.366c0.098,0.17,0.014,0.289-0.082,0.428
		c-0.217-0.052-0.433-0.105-0.635-0.154c-0.195,0.11-0.215,0.267-0.184,0.439c0.143,0.186,0.391,0.14,0.563,0.279
		c0.058,0.127,0.001,0.24-0.093,0.379c-0.203-0.04-0.416-0.083-0.621-0.124c-0.235,0.22-0.186,0.547-0.379,0.799
		c-0.385-0.061-0.739-0.322-1.111-0.26c-0.237-0.106-0.169-0.324-0.309-0.501c-0.214-0.021-0.471-0.046-0.739-0.072
		c-0.093,0.139-0.173,0.259-0.261,0.392c-0.228-0.019-0.493,0.109-0.625-0.207L16.1,5.626z M17.694,4.943
		c0.021-0.327-0.024-0.613-0.213-1.041c-0.103,0.454-0.336,0.695-0.271,1.028C17.364,5,17.503,5.026,17.694,4.943z"/>
	<path class="st1" d="M23.204,7.653c0.681-0.195,1.034-0.618,1.553-0.855c0.173,0.146,0.368,0.311,0.6,0.507
		c-0.507,0.603-0.999,1.188-1.483,1.764c-0.232,0.018-0.284-0.171-0.41-0.243c0.085-0.327,0.453-0.448,0.458-0.806
		c-0.429-0.173-0.592,0.324-0.998,0.345c-0.076-0.058-0.206-0.159-0.338-0.26c-0.003-0.404,0.379-0.695,0.324-1.139
		c-0.423,0.064-0.488,0.484-0.82,0.655c-0.15,0.012-0.24-0.119-0.334-0.298c0.491-0.583,0.985-1.169,1.483-1.761
		c0.257,0.128,0.437,0.311,0.624,0.518C23.664,6.553,23.465,7.03,23.204,7.653z"/>
	<path class="st1" d="M26.178,13.801c0.819-0.087,1.58-0.167,2.337-0.247c0.129,0.271,0.094,0.516,0.118,0.799
		c-0.448,0.304-0.91,0.616-1.438,0.974c0.543,0.231,1.027-0.051,1.501,0.025c0.12,0.119,0.084,0.268,0.112,0.464
		c-0.795,0.082-1.555,0.161-2.366,0.246c-0.036-0.272-0.07-0.522-0.105-0.785c0.49-0.336,0.963-0.66,1.531-1.049
		c-0.605-0.119-1.072,0.06-1.531,0.058C26.156,14.179,26.218,14.016,26.178,13.801z"/>
	<path class="st1" d="M26.861,9.592c0.007,0.571-0.735,1.242-1.384,1.25c-0.565,0.007-1.152-0.622-1.157-1.237
		c-0.004-0.594,0.711-1.24,1.376-1.244C26.264,8.358,26.854,8.981,26.861,9.592z M25.359,10.289c0.439-0.175,0.921-0.301,0.94-0.89
		c0.008-0.249-0.176-0.433-0.425-0.44c-0.452-0.013-0.808,0.216-0.973,0.624C24.766,9.916,24.975,10.148,25.359,10.289z"/>
	<path class="st1" d="M25.015,24.837c-0.176-0.225-0.337-0.431-0.488-0.624c-0.325,0.113-0.483,0.314-0.634,0.529
		c0.084,0.292,0.374,0.422,0.497,0.673c-0.073,0.167-0.213,0.26-0.389,0.394c-0.519-0.556-1.041-1.115-1.56-1.67
		c0.038-0.229,0.203-0.316,0.439-0.462c0.168,0.23,0.345,0.473,0.5,0.685c0.365-0.103,0.52-0.305,0.678-0.519
		c-0.093-0.333-0.429-0.473-0.594-0.812c0.11-0.097,0.235-0.207,0.404-0.356c0.548,0.589,1.08,1.161,1.604,1.725
		C25.372,24.595,25.245,24.701,25.015,24.837z"/>
	<path class="st1" d="M25.606,11.991c0.004-0.635,0.649-1.152,1.422-1.14c0.599,0.01,1.094,0.583,1.096,1.27
		c0.002,0.6-0.692,1.151-1.44,1.146C26.076,13.262,25.602,12.701,25.606,11.991z M27.355,11.509
		c-0.642-0.078-1.174,0.144-1.235,0.523c-0.048,0.294,0.069,0.521,0.367,0.611c0.397,0.119,0.95-0.218,1.138-0.682
		C27.602,11.789,27.528,11.643,27.355,11.509z"/>
	<path class="st1" d="M16.109,5.619c-0.484,0.193-0.944,0.506-1.576,0.255c-0.097-0.069-0.1-0.226-0.05-0.406
		c0.319-0.086,0.712,0.237,0.976-0.155c-0.003-0.3-0.249-0.317-0.429-0.38c-0.406-0.142-0.745-0.353-0.671-0.836
		c0.079-0.518,0.509-0.599,0.943-0.611c0.183-0.005,0.366,0.035,0.523,0.051c0.101,0.176-0.023,0.283-0.011,0.408
		c-0.605-0.024-0.605-0.024-0.934,0.254c0.631,0.299,1.36,0.529,1.222,1.427C16.1,5.626,16.109,5.619,16.109,5.619z"/>
	<path class="st1" d="M21.31,4.521c0.438,0.223,0.818,0.416,1.18,0.6C22.503,5.31,22.433,5.411,22.3,5.5
		c-0.195-0.083-0.399-0.17-0.585-0.249c-0.196,0.07-0.225,0.204-0.232,0.372c0.187,0.113,0.36,0.218,0.526,0.319
		c0.063,0.164-0.095,0.232-0.094,0.395c-0.251-0.099-0.453-0.179-0.634-0.251c-0.182,0.093-0.225,0.229-0.254,0.369
		c0.121,0.255,0.423,0.249,0.571,0.424c0.032,0.165-0.043,0.266-0.17,0.385c-0.354-0.175-0.719-0.356-1.193-0.59
		C20.584,5.973,20.933,5.275,21.31,4.521z"/>
	<path class="st1" d="M10.314,4.82c0.028-0.023,0.056-0.046,0.13-0.107c-0.025,0.101-0.035,0.141-0.045,0.181
		C10.368,4.872,10.34,4.848,10.314,4.82z"/>
	<path class="st0" d="M17.008,17.164c0.908-0.05,1.521,0.37,1.524,1.008c0.003,0.627-0.66,1.113-1.524,1.097
		C17.008,18.582,17.008,17.894,17.008,17.164z"/>
	<path class="st0" d="M14.944,12.733c0,0.59,0,1.181,0,1.767c-0.674,0.109-1.113-0.169-1.165-0.719
		C13.718,13.144,14.172,12.724,14.944,12.733z"/>
	<path class="st0" d="M26.307,20.705c-0.003-0.222,0.038-0.369,0.218-0.47c0.214,0.111,0.438,0.215,0.566,0.5
		C26.809,20.864,26.575,20.8,26.307,20.705z"/>
	<path class="st0" d="M26.211,18.966c0.042,0.034,0.06,0.071-0.008,0.105C26.161,19.037,26.138,18.999,26.211,18.966z"/>
	<path class="st0" d="M17.694,4.943C17.503,5.026,17.364,5,17.21,4.93c-0.065-0.333,0.168-0.575,0.271-1.028
		C17.67,4.33,17.715,4.616,17.694,4.943z"/>
	<path class="st0" d="M25.359,10.289c-0.384-0.141-0.593-0.373-0.458-0.706c0.165-0.408,0.521-0.636,0.973-0.624
		c0.25,0.007,0.433,0.191,0.425,0.44C26.28,9.988,25.798,10.113,25.359,10.289z"/>
	<path class="st0" d="M27.355,11.509c0.173,0.134,0.247,0.28,0.269,0.451c-0.188,0.464-0.741,0.801-1.138,0.682
		c-0.298-0.089-0.414-0.317-0.367-0.611C26.181,11.653,26.714,11.431,27.355,11.509z"/>
</g>
</svg>
