<?xml version="1.0" encoding="utf-8"?>
<!-- Generator: Adobe Illustrator 25.2.3, SVG Export Plug-In . SVG Version: 6.00 Build 0)  -->
<svg version="1.1" id="Layer_1" xmlns="http://www.w3.org/2000/svg" xmlns:xlink="http://www.w3.org/1999/xlink" x="0px" y="0px"
	 viewBox="0 0 32 32" style="enable-background:new 0 0 32 32;" xml:space="preserve">
<style type="text/css">
	.st0{fill-rule:evenodd;clip-rule:evenodd;fill:#8301FE;}
	.st1{fill:#FFFFFF;}
</style>
<g>
	<circle class="st0" cx="16" cy="16" r="16"/>
	<g>
		<path class="st1" d="M20.452,10.66c0.356,0.18,0.699,0.352,1.04,0.528c0.631,0.325,1.262,0.65,1.892,0.977
			c0.228,0.118,0.448,0.255,0.682,0.359c0.163,0.072,0.319,0.157,0.483,0.225c0.1,0.041,0.134,0.102,0.138,0.206
			c0.018,0.559-0.006,1.115-0.057,1.673c-0.034,0.374-0.066,0.748-0.119,1.119c-0.167,1.19-0.462,2.349-0.882,3.475
			c-0.406,1.086-0.91,2.125-1.566,3.083c-0.329,0.481-0.665,0.959-1.052,1.399c-0.069,0.078-0.106,0.092-0.187,0.01
			c-0.571-0.58-1.15-1.152-1.722-1.731c-0.074-0.075-0.125-0.085-0.219-0.028c-0.886,0.532-1.847,0.8-2.882,0.8
			c-1.035,0-1.996-0.266-2.883-0.799c-0.096-0.058-0.144-0.042-0.217,0.032c-0.565,0.571-1.136,1.137-1.701,1.708
			c-0.088,0.089-0.131,0.103-0.224-0.005c-0.92-1.067-1.651-2.252-2.227-3.536c-0.625-1.395-1.033-2.852-1.261-4.36
			c-0.109-0.718-0.175-1.44-0.18-2.167c-0.002-0.23,0.014-0.459,0.003-0.688c-0.005-0.096,0.037-0.137,0.113-0.176
			c0.888-0.452,1.775-0.905,2.662-1.358c0.445-0.227,0.89-0.453,1.334-0.682c0.087-0.045,0.123-0.052,0.12,0.069
			c-0.007,0.29-0.004,0.58-0.001,0.869c0.001,0.07-0.018,0.116-0.074,0.163c-0.991,0.851-1.702,1.893-2.118,3.134
			c-0.321,0.959-0.423,1.945-0.318,2.948c0.122,1.163,0.516,2.23,1.174,3.199c0.193,0.285,0.413,0.547,0.64,0.806
			c0.066,0.076,0.109,0.068,0.175,0c0.273-0.28,0.55-0.556,0.829-0.829c0.062-0.061,0.069-0.097,0.007-0.166
			c-0.992-1.106-1.476-2.404-1.447-3.888c0.026-1.309,0.473-2.464,1.308-3.471c0.331-0.399,0.714-0.739,1.143-1.028
			c0.071-0.048,0.088-0.101,0.088-0.181c-0.002-1.564-0.002-3.128-0.002-4.692c0-1.48,1.092-2.748,2.551-2.994
			c1.583-0.267,3.195,0.758,3.517,2.479c0.029,0.153,0.038,0.309,0.038,0.466c-0.002,1.573-0.001,3.146-0.004,4.719
			c0,0.097,0.03,0.152,0.109,0.213c0.373,0.291,0.753,0.575,1.061,0.939c0.928,1.096,1.407,2.358,1.377,3.799
			c-0.021,1.008-0.292,1.944-0.827,2.805c-0.18,0.29-0.378,0.565-0.606,0.817c-0.07,0.077-0.074,0.125,0.005,0.201
			c0.275,0.265,0.545,0.535,0.81,0.809c0.073,0.075,0.113,0.074,0.183-0.002c0.596-0.651,1.056-1.386,1.376-2.209
			c0.329-0.845,0.488-1.722,0.471-2.627c-0.029-1.605-0.545-3.038-1.547-4.294c-0.276-0.346-0.584-0.661-0.922-0.946
			c-0.062-0.052-0.087-0.107-0.086-0.188C20.455,11.319,20.452,10.998,20.452,10.66z M15.997,21.364c2.306,0,4.192-1.873,4.21-4.148
			c0.018-2.285-1.787-4.26-4.207-4.261c-2.36-0.001-4.208,1.883-4.208,4.204C11.792,19.581,13.759,21.375,15.997,21.364z
			 M17.659,9.643c0-0.653,0.001-1.306-0.001-1.959c0-0.11-0.009-0.221-0.03-0.328c-0.169-0.846-0.945-1.418-1.805-1.336
			c-0.82,0.078-1.476,0.789-1.48,1.628c-0.007,1.343-0.002,2.686-0.004,4.029c0,0.1,0.02,0.126,0.125,0.097
			c1.022-0.288,2.046-0.288,3.068-0.001c0.106,0.03,0.132,0.008,0.131-0.102C17.657,10.996,17.66,10.319,17.659,9.643z"/>
		<path class="st1" d="M19.921,24.802c-0.005,0.045-0.041,0.064-0.067,0.086c-0.302,0.265-0.616,0.514-0.931,0.765
			c-0.837,0.666-1.754,1.195-2.707,1.672c-0.155,0.078-0.276,0.079-0.432,0.003c-0.938-0.456-1.828-0.993-2.662-1.617
			c-0.349-0.261-0.678-0.547-1.002-0.84c-0.053-0.048-0.044-0.075,0.001-0.12c0.359-0.356,0.717-0.713,1.073-1.072
			c0.049-0.049,0.088-0.058,0.156-0.031c0.559,0.225,1.137,0.381,1.736,0.458c1.122,0.144,2.219,0.041,3.275-0.358
			c0.286-0.108,0.46-0.097,0.662,0.142c0.251,0.297,0.547,0.557,0.823,0.834C19.872,24.75,19.897,24.776,19.921,24.802z"/>
		<path class="st1" d="M14.742,17.168c0-0.51-0.003-1.021,0.002-1.531c0.001-0.099-0.018-0.139-0.127-0.132
			c-0.151,0.01-0.303,0-0.455,0.004c-0.065,0.002-0.089-0.019-0.088-0.086c0.004-0.17,0.005-0.34-0.001-0.51
			c-0.002-0.077,0.03-0.092,0.097-0.09c0.156,0.004,0.313-0.002,0.469,0.003c0.076,0.002,0.106-0.018,0.102-0.099
			c-0.006-0.128,0.001-0.257-0.003-0.386c-0.002-0.066,0.009-0.101,0.088-0.098c0.17,0.006,0.34,0.006,0.51,0
			c0.079-0.003,0.09,0.032,0.088,0.098c-0.004,0.129,0.001,0.257-0.002,0.386c-0.002,0.065,0.008,0.103,0.088,0.099
			c0.128-0.006,0.257-0.005,0.386,0c0.07,0.002,0.085-0.027,0.083-0.09c-0.003-0.133,0.003-0.267-0.002-0.4
			c-0.003-0.073,0.022-0.095,0.094-0.093c0.161,0.005,0.322,0.006,0.483,0c0.083-0.003,0.101,0.031,0.098,0.105
			c-0.004,0.138,0.003,0.276-0.003,0.414c-0.003,0.077,0.023,0.117,0.096,0.14c0.872,0.272,1.225,1.461,0.535,2.181
			c-0.065,0.068-0.056,0.101,0.003,0.165c0.648,0.689,0.396,1.809-0.487,2.145c-0.122,0.046-0.163,0.102-0.151,0.225
			c0.011,0.114-0.001,0.23,0.003,0.345c0.003,0.072-0.011,0.109-0.096,0.106c-0.161-0.006-0.322-0.006-0.483,0
			c-0.076,0.003-0.093-0.027-0.091-0.096c0.004-0.129-0.003-0.258,0.003-0.386c0.004-0.08-0.026-0.104-0.103-0.1
			c-0.146,0.008-0.336-0.046-0.427,0.026c-0.096,0.077-0.031,0.275-0.028,0.42c0.002,0.109-0.028,0.144-0.138,0.137
			c-0.151-0.009-0.303-0.005-0.455-0.001c-0.065,0.002-0.09-0.02-0.088-0.087c0.004-0.133-0.002-0.267,0.002-0.4
			c0.002-0.071-0.02-0.097-0.094-0.095c-0.161,0.005-0.322-0.002-0.483,0.003c-0.07,0.002-0.097-0.017-0.095-0.092
			c0.005-0.161,0.005-0.322,0-0.483c-0.003-0.077,0.02-0.105,0.1-0.102c0.152,0.006,0.304-0.003,0.455,0.003
			c0.091,0.004,0.117-0.027,0.117-0.117c-0.004-0.51-0.002-1.021-0.002-1.531C14.743,17.168,14.742,17.168,14.742,17.168z
			 M15.423,18.148C15.423,18.148,15.422,18.148,15.423,18.148c-0.001,0.193,0.001,0.386-0.002,0.579
			c-0.001,0.062,0.015,0.092,0.084,0.091c0.285-0.003,0.57,0.01,0.854-0.005c0.368-0.019,0.627-0.324,0.614-0.696
			c-0.012-0.343-0.306-0.617-0.665-0.618c-0.262-0.001-0.524,0.002-0.786-0.002c-0.077-0.001-0.104,0.02-0.102,0.1
			C15.426,17.78,15.423,17.964,15.423,18.148z M15.424,16.157C15.424,16.157,15.424,16.157,15.424,16.157
			c-0.001,0.193,0.001,0.386-0.002,0.579c-0.001,0.059,0.01,0.096,0.081,0.093c0.303-0.009,0.606,0.018,0.908-0.017
			c0.332-0.039,0.58-0.344,0.562-0.687c-0.018-0.334-0.293-0.61-0.622-0.616c-0.276-0.005-0.551,0.001-0.827-0.003
			c-0.076-0.001-0.105,0.019-0.102,0.099C15.428,15.789,15.424,15.973,15.424,16.157z"/>
	</g>
</g>
</svg>
