<?xml version="1.0" encoding="utf-8"?>
<!-- Generator: Adobe Illustrator 26.0.1, SVG Export Plug-In . SVG Version: 6.00 Build 0)  -->
<svg version="1.1" id="Layer_1" xmlns="http://www.w3.org/2000/svg" xmlns:xlink="http://www.w3.org/1999/xlink" x="0px" y="0px"
	 viewBox="0 0 32 32" style="enable-background:new 0 0 32 32;" xml:space="preserve">
<style type="text/css">
	.st0{fill-rule:evenodd;clip-rule:evenodd;fill:#5BBB91;}
</style>
<g>
	<path class="st0" d="M15.667,29.553c-0.278,0.287-0.33,0.311-0.572,0.263c-0.147-0.029-0.491-0.081-0.764-0.115
		c-0.703-0.089-1.17-0.18-1.87-0.365c-0.568-0.15-0.787-0.228-1.125-0.4c-0.073-0.037-0.171-0.067-0.218-0.067
		c-0.177,0-2.351-1.121-2.512-1.296c-0.021-0.023-0.191-0.14-0.378-0.262c-1.54-0.999-1.381-2.31,0.436-3.605
		c0.869-0.62,1.203-1.054,1.547-2.012c0.15-0.418,0.469-1.069,0.523-1.066c0.096,0.004,0.519,0.434,1.05,1.068
		c1.265,1.511,2.189,2.06,3.466,2.06c0.402,0,0.966,0.123,1.101,0.241c0.215,0.189,0.729-0.182,0.729-0.525
		c0-0.352-0.627-0.706-1.255-0.708c-1.347-0.005-2.281-0.55-3.402-1.982c-1.193-1.525-2.184-1.632-2.856-0.309
		c-0.117,0.231-0.244,0.479-0.281,0.552c-0.037,0.073-0.068,0.2-0.068,0.282c0,0.082-0.032,0.169-0.071,0.193
		s-0.093,0.146-0.121,0.272c-0.062,0.281-0.498,0.731-1.119,1.153c-0.837,0.568-1.667,1.63-1.667,2.131
		c0,0.321-0.217,0.333-0.499,0.026c-0.363-0.396-1.333-1.742-1.333-1.85c0-0.047-0.026-0.087-0.057-0.087
		c-0.031,0-0.094-0.078-0.139-0.172s-0.202-0.394-0.347-0.667c-0.224-0.42-0.432-0.892-0.755-1.717
		c-0.27-0.691-0.416-1.268-0.628-2.481c-0.123-0.702-0.125-3.78-0.003-3.902c0.292-0.292,1.409,0.375,1.508,0.901
		c0.359,1.917,3.284,4.415,4.908,4.192c1.487-0.204,1.777-1.207,0.784-2.709c-0.716-1.082-0.841-1.265-0.952-1.397
		c-0.166-0.196-0.501-0.819-0.501-0.931c0-0.179,0.378-0.277,1.075-0.277c1.008,0,1.297-0.181,2.05-1.292
		c0.484-0.713,1.039-1.028,2.408-1.369c0.168-0.042,0.545-0.136,0.838-0.209c1.077-0.27,1.377-0.559,1.372-1.328
		c-0.012-1.709-2.25-2.963-4.159-2.33c-1.2,0.398-1.609,0.144-0.889-0.551c0.406-0.391,0.815-1.053,0.815-1.32
		c0-0.077,0.034-0.162,0.076-0.188c0.103-0.063,0.097-0.383-0.012-0.593c-0.049-0.094-0.111-0.22-0.139-0.281
		C11.48,4.13,11.186,4.078,9.606,4.161C9.464,4.169,9.333,4.135,9.316,4.085c-0.063-0.182,2.751-1.399,3.236-1.399
		c0.092,0,0.187-0.031,0.21-0.068c0.023-0.037,0.171-0.087,0.329-0.111c0.158-0.023,0.613-0.092,1.012-0.152
		c1.43-0.217,1.315-0.227,1.714,0.149c1.029,0.972,2.525-0.217,1.906-1.515c-0.212-0.445-0.945-0.694-1.52-0.517
		c-0.126,0.039-0.349,0.207-0.496,0.375l-0.267,0.304l-0.801,0.08C13.344,1.36,13.077,1.4,13,1.473
		c-0.04,0.038-0.167,0.069-0.283,0.069s-0.289,0.032-0.386,0.071c-0.096,0.039-0.381,0.129-0.633,0.198
		c-0.496,0.138-0.581,0.169-1.125,0.41c-0.199,0.088-0.389,0.16-0.423,0.16c-0.185,0-2.466,1.294-2.688,1.526
		C7.441,3.929,7.286,4.049,7.118,4.174C4.982,5.762,3.15,8.21,2.235,10.701c-0.116,0.315-0.237,0.641-0.269,0.725
		c-0.032,0.084-0.094,0.29-0.137,0.458c-0.043,0.168-0.115,0.443-0.16,0.611c-0.314,1.173-0.507,3.342-0.393,4.417
		c0.124,1.173,0.299,2.293,0.436,2.794c0.063,0.232,0.144,0.524,0.178,0.65c0.302,1.113,1.083,2.769,1.812,3.845
		c0.964,1.423,2.415,2.956,3.551,3.752c0.305,0.213,0.622,0.438,0.706,0.499c0.81,0.586,3.203,1.713,3.638,1.713
		c0.072,0,0.15,0.031,0.173,0.068c0.023,0.037,0.137,0.084,0.253,0.105c0.116,0.021,0.468,0.097,0.783,0.169
		c0.739,0.17,1.422,0.272,2.137,0.319c0.474,0.031,0.599,0.068,0.725,0.213c0.339,0.388,1.412,0.725,1.412,0.443
		c0-0.031,0.102-0.102,0.226-0.157c0.652-0.289,0.749-1.497,0.16-1.98C16.889,28.872,16.255,28.946,15.667,29.553z"/>
	<path class="st0" d="M20.764,5.428l0.284,0.184v3.117v3.117h-3.309H14.43l-0.202,0.187c-0.239,0.222-0.268,0.569-0.062,0.755
		c0.197,0.179,7.665,0.195,7.842,0.018c0.091-0.092,0.109-0.679,0.109-3.619v-3.51l0.363-0.261c0.199-0.144,0.41-0.362,0.467-0.484
		c0.057-0.123,0.135-0.283,0.172-0.356c0.55-1.081-1.088-2.391-2.215-1.77C19.914,3.351,19.836,4.826,20.764,5.428z"/>
	<path class="st0" d="M12.951,3.395C12.5,3.742,12.51,5.958,12.964,6.201c0.242,0.129,0.591,0.016,0.72-0.235
		c0.147-0.284,0.16-2.053,0.018-2.305C13.488,3.286,13.218,3.19,12.951,3.395z"/>
	<path class="st0" d="M14.515,3.458c-0.133,0.147-0.145,0.295-0.145,1.798v1.638L14.56,7.04c0.255,0.196,0.473,0.187,0.674-0.027
		c0.266-0.283,0.257-3.299-0.01-3.55C15,3.253,14.703,3.251,14.515,3.458z"/>
	<path class="st0" d="M17.032,8.452c0.213-0.326,0.182-4.678-0.035-4.954c-0.175-0.222-0.478-0.263-0.701-0.095
		c-0.217,0.165-0.204,5.041,0.014,5.158C16.578,8.705,16.899,8.656,17.032,8.452z"/>
	<path class="st0" d="M27.727,12.128c0.142,0.129,0.151,0.219,0.13,1.302l-0.023,1.164l-7.801,0.003
		c-8.255,0.003-7.937-0.011-8.132,0.355c-0.123,0.232-0.114,0.279,0.099,0.509l0.187,0.202H20.4h8.212l0.187-0.187
		c0.186-0.187,0.187-0.197,0.189-1.698l0.001-1.511l0.26-0.168c1.009-0.654,0.988-2.06-0.041-2.688
		c-0.3-0.183-1.131-0.21-1.426-0.047c-0.701,0.387-1.035,1.272-0.744,1.969C27.139,11.574,27.231,11.68,27.727,12.128z"/>
	<path class="st0" d="M30.721,17.571c-0.109-0.307-0.371-0.763-0.438-0.763c-0.025,0-0.112-0.06-0.194-0.134
		c-0.382-0.345-0.97-0.403-1.492-0.147c-0.387,0.19-0.506,0.291-0.711,0.605l-0.137,0.21h-7.956c-8.868,0-8.208-0.041-8.208,0.507
		c0,0.57-0.728,0.522,8.155,0.544l7.938,0.02l0.264,0.368c0.568,0.791,1.77,0.881,2.422,0.181c0.083-0.089,0.151-0.198,0.151-0.241
		c0-0.044,0.026-0.08,0.059-0.08C30.708,18.639,30.819,17.846,30.721,17.571z"/>
	<path class="st0" d="M24.622,23.715l-0.129,0.229h-0.787h-0.788l-0.02-1.751c-0.018-1.495-0.039-1.771-0.146-1.889
		c-0.118-0.13-0.372-0.138-4.368-0.137l-4.243,0.001l-0.134,0.167c-0.162,0.202-0.173,0.512-0.025,0.713
		c0.104,0.142,0.259,0.15,3.988,0.186l3.88,0.038l0.038,1.792l0.038,1.791l0.191,0.097c0.127,0.064,0.56,0.097,1.301,0.097
		l1.11,0.001l0.288,0.344c0.937,1.121,2.721,0.495,2.721-0.955C27.536,22.862,25.401,22.331,24.622,23.715z"/>
	<path class="st0" d="M15.885,25.627c0.271-0.251,0.271-0.587,0.001-0.8c-0.227-0.178-3.014-0.236-3.358-0.069
		c-0.395,0.191-0.383,0.786,0.019,0.969C12.97,25.921,15.656,25.84,15.885,25.627z"/>
	<path class="st0" d="M17.291,26.391c-0.287-0.201-2.829-0.173-3.036,0.034c-0.206,0.206-0.195,0.544,0.024,0.75
		c0.237,0.222,2.667,0.257,2.993,0.043C17.529,27.049,17.54,26.566,17.291,26.391z"/>
	<path class="st0" d="M12.914,28.834c0.628,0.118,2.781,0.001,2.9-0.157c0.474-0.628,0.023-0.878-1.583-0.878h-1.329L12.701,28
		C12.383,28.317,12.496,28.755,12.914,28.834z"/>
</g>
</svg>
