<?xml version="1.0" encoding="utf-8"?>
<!-- Generator: Adobe Illustrator 25.2.3, SVG Export Plug-In . SVG Version: 6.00 Build 0)  -->
<svg version="1.1" id="Layer_1" xmlns="http://www.w3.org/2000/svg" xmlns:xlink="http://www.w3.org/1999/xlink" x="0px" y="0px"
	 viewBox="0 0 32 32" style="enable-background:new 0 0 32 32;" xml:space="preserve">
<style type="text/css">
	.st0{fill-rule:evenodd;clip-rule:evenodd;fill:#48C0BE;}
	.st1{fill:#FFFFFF;}
	.st2{fill:#F1F3F0;}
	.st3{fill:#86A549;}
	.st4{fill:#2A292A;}
</style>
<g>
	<circle class="st0" cx="15.968" cy="16.099" r="16"/>
	<path class="st1" d="M10.343,13.43c-0.036,0.02-0.071,0.004-0.106-0.004c-0.098-0.022-0.197-0.009-0.296-0.011
		c-0.076-0.002-0.149-0.013-0.223-0.029c-0.058-0.013-0.122-0.006-0.183-0.006c-0.059,0-0.115-0.007-0.171-0.028
		c-0.037-0.014-0.083-0.007-0.125-0.006c-0.055,0.001-0.109-0.003-0.16-0.029c-0.02-0.01-0.041-0.005-0.062-0.006
		c-0.056-0.002-0.115,0.009-0.163-0.032c-0.002-0.002-0.008-0.003-0.011-0.002c-0.099,0.022-0.19-0.025-0.283-0.041
		c-0.076-0.013-0.16-0.012-0.232-0.053c-0.003-0.002-0.007-0.007-0.009-0.006c-0.076,0.015-0.138-0.037-0.211-0.041
		c-0.06-0.003-0.119-0.032-0.179-0.05c-0.007-0.002-0.014-0.01-0.02-0.009c-0.071,0.01-0.131-0.032-0.197-0.046
		c-0.071-0.015-0.147-0.016-0.213-0.051c-0.008-0.004-0.018-0.013-0.026-0.011c-0.071,0.018-0.13-0.031-0.196-0.042
		c-0.05-0.008-0.105-0.028-0.157-0.047c-0.051-0.019-0.103-0.038-0.157-0.053c-0.071-0.019-0.138-0.051-0.207-0.077
		c-0.072-0.027-0.147-0.049-0.216-0.083c-0.058-0.029-0.119-0.05-0.176-0.079c-0.06-0.031-0.122-0.06-0.182-0.092
		C6.14,12.474,6.1,12.446,6.056,12.422C5.994,12.388,5.939,12.341,5.88,12.3c-0.091-0.064-0.165-0.146-0.246-0.22
		c-0.08-0.073-0.153-0.153-0.221-0.237c-0.083-0.101-0.139-0.22-0.204-0.334c-0.065-0.114-0.028-0.226-0.04-0.338
		c-0.007-0.07,0.001-0.141-0.002-0.212c-0.003-0.051,0.007-0.093,0.044-0.131c0.023-0.024,0.027-0.061,0.044-0.091
		c0.095-0.163,0.225-0.287,0.384-0.389c0.067-0.043,0.134-0.089,0.204-0.122c0.064-0.03,0.125-0.073,0.2-0.082
		c0.033-0.004,0.069-0.023,0.095-0.038c0.052-0.03,0.112-0.024,0.164-0.053c0.043-0.024,0.1-0.027,0.15-0.039
		C6.507,10,6.565,9.978,6.619,9.977c0.14-0.004,0.275-0.039,0.415-0.044C7.196,9.927,7.36,9.908,7.522,9.918
		c0.164,0.01,0.329,0.016,0.492,0.034c0.145,0.016,0.288,0.042,0.432,0.068c0.094,0.017,0.189,0.035,0.281,0.061
		c0.062,0.017,0.126,0.032,0.187,0.05c0.059,0.017,0.119,0.037,0.178,0.053c0.052,0.014,0.11,0.018,0.157,0.052
		c0.008,0.005,0.018,0.013,0.025,0.011c0.071-0.015,0.136,0.024,0.196,0.043c0.061,0.02,0.129,0.017,0.19,0.053
		c0.042,0.024,0.105,0.028,0.159,0.04c0.081,0.018,0.159,0.045,0.239,0.064c0.108,0.026,0.214,0.059,0.324,0.08
		c0.055,0.01,0.113,0.031,0.169,0.046c0.071,0.019,0.14,0.05,0.215,0.053c0.058,0.002,0.109,0.031,0.167,0.039
		c0.102,0.014,0.206,0.038,0.305,0.067c0.069,0.021,0.142,0.031,0.211,0.047c0.071,0.016,0.145,0.035,0.22,0.046
		c0.084,0.011,0.17,0.024,0.252,0.048c0.031,0.009,0.061,0.019,0.093,0.017c0.037-0.002,0.072,0,0.103,0.022
		c0.008,0.005,0.018,0.012,0.026,0.011c0.11-0.018,0.21,0.05,0.319,0.036c0.021-0.003,0.041,0.001,0.06,0.011
		c0.047,0.025,0.098,0.026,0.149,0.024c0.022-0.001,0.045-0.003,0.066,0.01c0.048,0.029,0.102,0.024,0.155,0.024
		c0.036,0,0.071,0,0.105,0.019c0.02,0.011,0.045,0.014,0.071,0.016c0.189,0.015,0.378,0.024,0.564,0.066
		c0.033,0.007,0.069,0.002,0.103,0.002c0.076,0,0.15,0,0.225,0.021c0.098,0.027,0.201,0.013,0.301,0.013
		c0.084-0.001,0.164,0.025,0.246,0.031c0.026,0.002,0.053,0.004,0.08,0.004c0.132,0,0.264-0.008,0.396,0.002
		c0.318,0.023,0.636,0.034,0.953,0.018c0.266-0.014,0.533-0.006,0.798-0.024c0.168-0.011,0.34-0.008,0.502-0.037
		c0.171-0.031,0.349,0.004,0.515-0.059c0.025-0.01,0.057-0.002,0.086-0.002c0.077,0,0.156,0.008,0.228-0.031
		c0.003-0.002,0.008-0.003,0.011-0.003c0.138,0.021,0.268-0.048,0.405-0.036c0.018,0.002,0.037,0.002,0.055-0.009
		c0.053-0.03,0.113-0.027,0.172-0.025c0.036,0.001,0.071,0,0.105-0.019c0.022-0.012,0.049-0.018,0.076-0.016
		c0.055,0.005,0.11,0.002,0.161-0.024c0.003-0.002,0.007-0.006,0.01-0.005c0.096,0.01,0.184-0.04,0.278-0.039
		c0.046,0,0.091-0.001,0.131-0.027c0.003-0.002,0.007-0.006,0.01-0.006c0.08,0.004,0.155-0.021,0.233-0.034
		c0.108-0.019,0.217-0.037,0.324-0.061c0.005-0.001,0.01-0.008,0.015-0.007c0.092,0.013,0.175-0.037,0.266-0.04
		c0.066-0.002,0.133-0.023,0.197-0.041c0.048-0.013,0.096-0.01,0.144-0.023c0.106-0.028,0.215-0.043,0.321-0.066
		c0.074-0.016,0.155-0.016,0.226-0.054c0.046-0.025,0.104-0.02,0.156-0.034c0.065-0.017,0.133-0.031,0.2-0.042
		c0.044-0.007,0.091,0.007,0.129-0.031c0.009-0.009,0.033-0.005,0.05-0.005c0.033,0.001,0.065,0,0.09-0.024
		c0.013-0.013,0.028-0.011,0.043-0.01c0.052,0.003,0.101-0.024,0.148-0.026c0.081-0.003,0.154-0.03,0.229-0.047
		c0.085-0.02,0.175-0.019,0.257-0.052c0.022-0.009,0.043-0.013,0.066-0.013c0.04-0.001,0.085,0.012,0.116-0.03
		c0.005-0.006,0.022-0.004,0.033-0.004c0.032-0.001,0.066,0.007,0.088-0.027c0.003-0.004,0.01-0.007,0.015-0.007
		c0.109,0.003,0.204-0.055,0.308-0.078c0.07-0.016,0.147-0.04,0.215-0.051c0.085-0.014,0.17-0.037,0.255-0.05
		c0.108-0.017,0.219-0.022,0.327-0.045c0.088-0.019,0.181-0.026,0.272-0.017c0.068,0.007,0.135-0.004,0.2-0.015
		c0.116-0.02,0.23-0.002,0.344,0.011c0.04,0.005,0.08,0.002,0.12,0.003c0.094,0.001,0.187,0.002,0.279,0.032
		c0.049,0.016,0.109-0.01,0.157,0.016c0.068,0.036,0.144,0.021,0.216,0.047c0.054,0.02,0.12,0.035,0.181,0.048
		c0.049,0.01,0.104,0.022,0.149,0.053c0.031,0.022,0.072,0.029,0.106,0.041c0.126,0.044,0.239,0.113,0.349,0.184
		c0.098,0.063,0.184,0.144,0.261,0.235c0.051,0.061,0.087,0.131,0.13,0.196c0.061,0.091,0.079,0.184,0.075,0.289
		c-0.004,0.103-0.001,0.206-0.001,0.31c0,0.022,0,0.041-0.026,0.05c-0.008,0.003-0.019,0.005-0.019,0.018
		c-0.008,0.115-0.076,0.205-0.14,0.292c-0.052,0.07-0.085,0.162-0.174,0.201c-0.116,0.169-0.287,0.278-0.448,0.395
		c-0.097,0.07-0.202,0.131-0.308,0.189c-0.084,0.045-0.169,0.088-0.254,0.129c-0.061,0.03-0.129,0.052-0.193,0.079
		c-0.069,0.03-0.139,0.055-0.209,0.08c-0.044,0.016-0.091,0.031-0.135,0.047c-0.06,0.021-0.128,0.019-0.182,0.059
		c-0.006,0.004-0.014,0.006-0.021,0.007c-0.086,0.013-0.17,0.032-0.25,0.066c-0.012,0.005-0.026,0.003-0.04,0.003
		C24.334,13,24.299,13,24.269,13.028c-0.019,0.017-0.044,0.008-0.066,0.008c-0.033,0-0.065,0-0.091,0.024
		c-0.004,0.004-0.01,0.01-0.014,0.009c-0.076-0.017-0.144,0.026-0.212,0.042c-0.066,0.016-0.142,0.012-0.201,0.055
		c-0.003,0.002-0.007,0.006-0.009,0.006c-0.078-0.016-0.144,0.043-0.221,0.037c-0.031-0.003-0.06,0.002-0.087,0.02
		c-0.006,0.004-0.014,0.011-0.02,0.01c-0.084-0.01-0.16,0.033-0.242,0.038c-0.055,0.003-0.11,0-0.161,0.025
		c-0.008,0.004-0.018,0.01-0.026,0.009c-0.157-0.018-0.306,0.057-0.463,0.035c-0.038-0.005-0.069,0.016-0.104,0.023
		c-0.077,0.017-0.155,0.013-0.233,0.01c-0.096-0.004-0.187,0.017-0.28,0.033c-0.026,0.004-0.053,0.002-0.08,0.003
		c-0.066,0.002-0.134-0.013-0.193,0.031c-0.001,0.001-0.004,0.002-0.005,0.002c-0.1-0.018-0.19,0.047-0.289,0.036
		c-0.043-0.005-0.077,0.027-0.12,0.028c-0.017,0-0.038,0.01-0.055,0.006c-0.045-0.01-0.08,0.004-0.111,0.035
		c-0.003-0.01-0.007-0.02-0.01-0.029c-0.052-0.017-0.098,0.02-0.149,0.019c-0.099-0.003-0.197,0.019-0.292,0.039
		c-0.129,0.027-0.26,0.039-0.389,0.055c-0.117,0.015-0.237,0.028-0.355,0.043c-0.152,0.02-0.305,0.022-0.456,0.054
		c-0.033,0.007-0.067,0.001-0.096,0.025c-0.106,0.027-0.213,0.027-0.321,0.023c-0.035-0.001-0.071,0-0.1,0.015
		c-0.049,0.024-0.099,0.02-0.15,0.02c-0.078,0.001-0.159-0.011-0.234,0.006c-0.09,0.02-0.178,0.031-0.269,0.029
		c-0.069-0.001-0.138,0.001-0.206-0.001c-0.043-0.001-0.082,0.014-0.123,0.02c-0.037,0.006-0.042,0.02-0.024,0.054
		c0.062,0.112,0.097,0.234,0.1,0.36c0.006,0.26-0.085,0.481-0.287,0.651c-0.192,0.161-0.492,0.177-0.696,0.034
		c-0.171-0.119-0.272-0.28-0.316-0.484c-0.032-0.153-0.016-0.298,0.03-0.444c0.015-0.047,0.055-0.085,0.049-0.155
		c-0.025,0.04-0.054,0.034-0.081,0.034c-0.401,0-0.803,0-1.204,0c-0.021,0-0.041-0.004-0.062-0.007
		c-0.086-0.009-0.172-0.024-0.258-0.029c-0.131-0.008-0.263,0-0.395,0.001c-0.023,0-0.052-0.007-0.063,0.016
		c-0.011,0.023,0.006,0.046,0.023,0.065c-0.001,0.01,0.002,0.018,0.011,0.023c-0.001,0.017,0.005,0.032,0.015,0.046
		c-0.002,0.019,0.006,0.034,0.019,0.046c-0.002,0.015-0.003,0.03-0.005,0.046c-0.012-0.002-0.013-0.011-0.017-0.02
		c-0.027-0.069-0.049-0.14-0.087-0.204c-0.023-0.039-0.049-0.057-0.098-0.053c-0.063,0.006-0.128,0.003-0.192-0.002
		c-0.106-0.008-0.211-0.021-0.316-0.029c-0.065-0.005-0.13,0.001-0.194-0.008c-0.061-0.008-0.118-0.015-0.169,0.026
		c-0.002-0.014,0.001-0.034-0.024-0.018c-0.048-0.007-0.098,0.006-0.146-0.014c-0.046-0.019-0.094-0.023-0.144-0.024
		c-0.103-0.001-0.209,0.016-0.308-0.032c-0.014-0.007-0.034-0.003-0.051-0.001c-0.17,0.02-0.332-0.055-0.502-0.035
		c-0.005,0.001-0.012-0.001-0.017-0.003c-0.055-0.032-0.115-0.031-0.176-0.031c-0.058,0-0.117,0.007-0.172-0.023
		c-0.022-0.012-0.043-0.016-0.059,0.01c-0.054-0.043-0.118-0.048-0.183-0.058c-0.029-0.004-0.058,0.002-0.088-0.005
		c-0.136-0.032-0.276-0.042-0.414-0.064c-0.099-0.015-0.199-0.035-0.3-0.043c-0.107-0.009-0.214-0.025-0.319-0.049
		c-0.086-0.019-0.172,0.001-0.257-0.019C10.425,13.417,10.382,13.393,10.343,13.43z M16.635,14.304
		c-0.019,0.285,0.133,0.54,0.333,0.656c0.159,0.092,0.327,0.107,0.494,0.04c0.231-0.093,0.358-0.282,0.405-0.517
		c0.036-0.177,0.017-0.356-0.064-0.525c-0.045-0.092-0.077-0.113-0.181-0.097c-0.008,0.001-0.015,0.001-0.023,0.001
		c-0.14,0.008-0.279,0.008-0.419,0.019c-0.121,0.01-0.243,0.001-0.365-0.002c-0.032-0.001-0.057,0.007-0.075,0.035
		C16.661,14.037,16.625,14.17,16.635,14.304z M14.628,13.879c-0.003-0.001-0.006-0.003-0.01-0.004c-0.001,0-0.003,0.002-0.004,0.003
		c0.002,0.002,0.004,0.006,0.005,0.006C14.623,13.884,14.625,13.881,14.628,13.879z"/>
	<path class="st1" d="M19.243,18.921c0.075-0.056,0.092-0.145,0.126-0.223c0.032-0.077,0.101-0.131,0.127-0.211
		c0.026-0.077,0.059-0.149,0.11-0.214c0.027-0.034,0.043-0.044,0.07-0.007c0.092,0.124,0.219,0.218,0.303,0.349
		c0.061,0.096,0.16,0.158,0.228,0.248c0.103,0.136,0.236,0.246,0.334,0.384c0.04,0.056,0.1,0.087,0.135,0.146
		c0.035,0.059,0.086,0.109,0.134,0.158c0.03,0.031,0.077,0.051,0.063,0.112c-0.007,0.029-0.031,0.041-0.042,0.067
		c-0.047,0.105-0.105,0.205-0.158,0.307c-0.05,0.097-0.109,0.188-0.165,0.28c-0.033,0.054-0.054,0.123-0.12,0.155
		c-0.008,0.004-0.006,0.025-0.011,0.037c-0.034,0.072-0.086,0.138-0.138,0.188c-0.097,0.093-0.15,0.225-0.263,0.299
		c-0.064,0.042-0.102,0.109-0.165,0.152c-0.038,0.026-0.064,0.074-0.098,0.11c-0.069,0.074-0.151,0.131-0.227,0.196
		c-0.112,0.095-0.225,0.189-0.347,0.268c-0.146,0.094-0.286,0.197-0.441,0.278c-0.067,0.035-0.13,0.085-0.198,0.118
		c-0.075,0.037-0.14,0.089-0.219,0.119c-0.05,0.02-0.094,0.055-0.144,0.079c-0.039,0.019-0.083,0.033-0.116,0.059
		c-0.029,0.023-0.07,0.021-0.093,0.054c-0.018,0.025-0.054,0.025-0.079,0.037c-0.056,0.027-0.113,0.058-0.173,0.08
		c-0.056,0.021-0.107,0.054-0.161,0.08c-0.064,0.031-0.128,0.06-0.192,0.091c-0.059,0.028-0.116,0.06-0.177,0.081
		c-0.044,0.015-0.079,0.051-0.127,0.049c-0.002,0.017,0.007,0.019,0.016,0.021c0.082,0.019,0.16,0.053,0.238,0.082
		c0.067,0.025,0.136,0.049,0.203,0.078c0.039,0.017,0.083,0.033,0.123,0.049c0.043,0.018,0.102,0.014,0.129,0.065
		c0.002,0.003,0.005,0.008,0.007,0.008c0.082-0.021,0.134,0.062,0.209,0.061c0.012,0.059,0.074,0.037,0.109,0.058
		c0.052,0.031,0.115,0.054,0.172,0.082c0.057,0.028,0.115,0.057,0.17,0.091c0.063,0.039,0.136,0.067,0.194,0.114
		c0.039,0.032,0.099,0.035,0.119,0.095c0.005,0.015,0.046,0.013,0.069,0.03c0.136,0.101,0.265,0.208,0.385,0.328
		c0.094,0.094,0.171,0.2,0.256,0.301c0.055,0.066,0.086,0.149,0.151,0.208c0.01,0.009,0.007,0.021,0.006,0.032
		c-0.001,0.007-0.007,0.02-0.007,0.021c0.081,0.038,0.085,0.13,0.135,0.191c0.035,0.042,0.053,0.103,0.077,0.156
		c0.02,0.045,0.028,0.096,0.065,0.132c0.009,0.009,0.005,0.021-0.002,0.031c-0.007,0.011-0.008,0.029,0,0.031
		c0.054,0.015,0.028,0.079,0.065,0.103c0.013,0.008,0.004,0.018-0.004,0.022c-0.014,0.008,0.005,0.02-0.004,0.028
		c0.051,0.027,0.038,0.093,0.078,0.126c0.003,0.002,0.008,0.006,0.007,0.008c-0.021,0.058,0.042,0.094,0.037,0.15
		c-0.004,0.043,0.027,0.08,0.039,0.121c0.015,0.053,0.018,0.113,0.049,0.163c0.01,0.017,0.031,0.042,0,0.063
		c-0.012,0.008,0,0.014,0.003,0.016c0.044,0.031,0.023,0.096,0.043,0.117c0.053,0.055-0.015,0.139,0.056,0.179
		c0.002,0.001,0.003,0.007,0.003,0.011c-0.023,0.084,0.048,0.153,0.035,0.236c-0.003,0.022-0.002,0.04,0.023,0.057
		c0.025,0.018,0.007,0.054,0.011,0.081c0.005,0.033-0.016,0.073,0.029,0.094c0.003,0.001,0.005,0.007,0.004,0.01
		c-0.025,0.111,0.067,0.213,0.027,0.325c-0.006,0.016,0.005,0.033,0.015,0.039c0.029,0.019,0.026,0.046,0.028,0.074
		c0.001,0.024-0.005,0.034-0.031,0.033c-0.075-0.002-0.156,0.018-0.222-0.006c-0.057-0.02-0.119-0.032-0.174-0.06
		c-0.007-0.003-0.013-0.014-0.018-0.013c-0.062,0.018-0.112-0.026-0.164-0.043c-0.048-0.015-0.102-0.02-0.148-0.052
		c-0.033-0.023-0.079-0.026-0.119-0.043c-0.053-0.023-0.109-0.044-0.165-0.061c-0.073-0.023-0.138-0.065-0.214-0.082
		c-0.028-0.006-0.059-0.024-0.084-0.039c-0.089-0.052-0.187-0.081-0.277-0.129c-0.076-0.041-0.154-0.082-0.232-0.119
		c-0.055-0.026-0.11-0.055-0.161-0.084c-0.066-0.038-0.131-0.083-0.197-0.122c-0.084-0.049-0.17-0.099-0.25-0.152
		c-0.088-0.059-0.177-0.118-0.261-0.186c-0.076-0.062-0.161-0.113-0.238-0.174c-0.211-0.165-0.413-0.339-0.603-0.529
		c-0.136-0.135-0.254-0.286-0.385-0.426c-0.016-0.017-0.022-0.039-0.034-0.056c-0.044-0.063-0.104-0.114-0.138-0.184
		c-0.027-0.056-0.075-0.096-0.1-0.155c-0.018-0.042-0.048-0.084-0.075-0.125c-0.041-0.065-0.043-0.061-0.12-0.031
		c-0.104,0.04-0.201,0.092-0.299,0.142c-0.095,0.049-0.185,0.109-0.273,0.169c-0.115,0.078-0.229,0.157-0.337,0.244
		c-0.138,0.11-0.27,0.227-0.403,0.344c-0.106,0.093-0.206,0.192-0.314,0.282c-0.104,0.087-0.194,0.19-0.309,0.263
		c-0.057,0.036-0.096,0.09-0.152,0.128c-0.115,0.079-0.22,0.173-0.337,0.25c-0.079,0.052-0.16,0.103-0.238,0.157
		c-0.084,0.058-0.173,0.11-0.259,0.161c-0.093,0.054-0.192,0.105-0.292,0.15c-0.056,0.025-0.112,0.061-0.169,0.081
		c-0.094,0.032-0.182,0.079-0.274,0.114c-0.07,0.026-0.143,0.057-0.212,0.088c-0.04,0.018-0.092,0.035-0.139,0.049
		c-0.046,0.013-0.101,0.019-0.141,0.053c-0.006,0.005-0.01,0.009-0.018,0.01c-0.074,0.01-0.14,0.049-0.209,0.062
		c-0.058,0.011-0.121,0.026-0.167,0.048c-0.064,0.031-0.146-0.003-0.197,0.067c-0.018,0.024-0.069,0.006-0.105,0.006
		c-0.024,0-0.063,0.012-0.069-0.008c-0.009-0.034-0.017-0.076,0.006-0.11c0.017-0.025,0.024-0.05,0.024-0.079
		c-0.001-0.038-0.008-0.077,0.022-0.109c0.006-0.006,0.012-0.018,0.01-0.025c-0.017-0.086,0.04-0.161,0.035-0.245
		c-0.001-0.016,0.002-0.028,0.02-0.035c0.02-0.008,0.02-0.031,0.013-0.045c-0.022-0.04-0.003-0.072,0.014-0.106
		c0.003-0.007,0.012-0.014,0.01-0.019c-0.018-0.074,0.023-0.143,0.043-0.205c0.02-0.062,0.016-0.132,0.053-0.195
		c0.023-0.04,0.029-0.104,0.042-0.157c0.015-0.062,0.025-0.126,0.065-0.18c0.004-0.005,0.006-0.015,0.004-0.022
		c-0.017-0.06,0.024-0.112,0.043-0.157c0.031-0.075,0.055-0.155,0.089-0.23c0.029-0.064,0.07-0.13,0.076-0.205
		c0.052-0.011,0.037-0.063,0.052-0.095c0.016-0.035,0.047-0.065,0.051-0.107c0.003-0.033,0.028-0.062,0.043-0.083
		c0.051-0.073,0.083-0.156,0.132-0.228c0.084-0.124,0.165-0.251,0.262-0.365c0.122-0.144,0.255-0.278,0.402-0.399
		c0.141-0.116,0.289-0.22,0.447-0.312c0.072-0.042,0.146-0.08,0.218-0.123c0.031-0.018,0.066-0.046,0.11-0.048
		c0.026-0.002,0.057-0.024,0.078-0.038c0.062-0.042,0.133-0.066,0.198-0.089c0.077-0.027,0.154-0.062,0.235-0.083
		c0.042-0.011,0.093-0.024,0.137-0.047c0.049-0.025,0.11-0.028,0.162-0.051c0.061-0.026,0.132-0.007,0.189-0.053
		c0.018-0.014,0.056-0.004,0.084-0.004c0.015,0,0.028-0.006,0.03-0.02c0.003-0.018-0.015-0.011-0.023-0.016
		c-0.068-0.042-0.131-0.094-0.203-0.126c-0.068-0.03-0.128-0.073-0.194-0.106c-0.047-0.024-0.093-0.053-0.139-0.081
		c-0.053-0.032-0.113-0.054-0.163-0.09c-0.049-0.035-0.111-0.045-0.154-0.089c-0.021-0.021-0.052-0.026-0.077-0.04
		c-0.121-0.069-0.243-0.138-0.365-0.203c-0.123-0.066-0.24-0.141-0.36-0.211c-0.081-0.048-0.159-0.108-0.236-0.164
		c-0.075-0.055-0.152-0.109-0.226-0.167c-0.117-0.091-0.231-0.186-0.337-0.29c-0.103-0.102-0.206-0.204-0.308-0.306
		c-0.124-0.125-0.246-0.254-0.354-0.393c-0.058-0.075-0.114-0.152-0.166-0.232c-0.061-0.093-0.115-0.19-0.163-0.288
		c-0.032-0.066-0.088-0.132-0.075-0.216c-0.047-0.033-0.015-0.096-0.038-0.124c-0.054-0.067-0.021-0.137-0.03-0.204
		c-0.009-0.069-0.024-0.137-0.002-0.208c0.008-0.026,0.003-0.057,0.001-0.086c-0.005-0.084,0.035-0.154,0.061-0.23
		c0.019-0.058,0.043-0.111,0.077-0.161c0.05-0.075,0.094-0.153,0.182-0.196c0.029-0.014,0.034-0.055,0.069-0.077
		c0.075-0.046,0.149-0.093,0.228-0.134c0.048-0.024,0.111-0.008,0.145-0.06c0.001-0.001,0.004-0.002,0.005-0.002
		c0.126,0.001,0.248-0.064,0.374-0.033c0.064,0.016,0.128,0.022,0.19,0.037c0.051,0.012,0.088,0.057,0.116,0.121
		c0.031,0.074,0.034,0.155,0.076,0.227c0.025,0.043,0.021,0.105,0.039,0.157c0.02,0.063,0.04,0.126,0.061,0.188
		c0.014,0.041,0.04,0.082,0.045,0.129c0.004,0.034,0.027,0.067,0.041,0.101c0.018,0.047,0.037,0.096,0.063,0.138
		c0.024,0.039,0.043,0.08,0.066,0.118c0.08,0.135,0.163,0.267,0.26,0.391c0.145,0.185,0.309,0.352,0.492,0.5
		c0.099,0.08,0.2,0.158,0.304,0.232c0.101,0.071,0.203,0.14,0.303,0.211c0.091,0.064,0.183,0.129,0.274,0.193
		c0.086,0.061,0.177,0.117,0.264,0.178c0.124,0.087,0.25,0.172,0.368,0.266c0.082,0.065,0.166,0.127,0.241,0.202
		c0.104,0.103,0.22,0.194,0.32,0.301c0.014,0.015,0.033,0.018,0.047,0.009c0.059-0.039,0.126-0.063,0.19-0.089
		c0.062-0.025,0.119-0.062,0.184-0.083c0.062-0.02,0.118-0.059,0.177-0.088c0.036-0.017,0.074-0.031,0.111-0.047
		c0.03-0.013,0.071-0.027,0.085-0.045c0.028-0.036,0.071-0.037,0.102-0.053c0.076-0.039,0.152-0.08,0.228-0.119
		c0.058-0.029,0.119-0.054,0.172-0.087c0.067-0.04,0.134-0.08,0.203-0.117c0.07-0.038,0.132-0.087,0.205-0.121
		c0.066-0.031,0.123-0.082,0.185-0.123c0.054-0.035,0.107-0.073,0.161-0.107c0.094-0.06,0.181-0.128,0.271-0.193
		c0.178-0.129,0.34-0.277,0.501-0.426c0.081-0.075,0.145-0.168,0.22-0.249c0.065-0.069,0.119-0.147,0.174-0.223
		c0.049-0.069,0.095-0.141,0.136-0.215c0.024-0.044,0.049-0.094,0.082-0.137c0.015-0.02,0.057-0.055,0.041-0.099
		c0.045-0.017,0.022-0.07,0.055-0.101c0.023-0.021,0.033-0.071,0.049-0.108c0.018-0.042,0.032-0.086,0.061-0.121
		c0.018-0.021-0.029-0.044,0.003-0.064c0.02,0.004,0.015-0.016,0.023-0.023c0,0,0,0,0,0c0.007-0.001,0.011-0.004,0.009-0.011
		c0.001-0.004,0.002-0.007,0.003-0.011c0.007-0.006,0.025-0.008,0.009-0.023c0.001-0.005,0.002-0.009,0.002-0.014
		c0.006,0,0.009-0.002,0.007-0.009c0.005-0.005,0.01-0.011,0.015-0.016C19.246,18.94,19.24,18.927,19.243,18.921z M15.141,23.595
		c0,0.173,0,0.173,0.156,0.177c0.002,0,0.004,0,0.006,0c0.077-0.006,0.144,0.019,0.215,0.051c0.316,0.146,0.624,0.119,0.901-0.092
		c0.28-0.212,0.394-0.506,0.33-0.85c-0.066-0.354-0.284-0.59-0.633-0.683c-0.344-0.091-0.647,0.003-0.88,0.271
		c-0.235,0.271-0.276,0.584-0.141,0.915C15.126,23.46,15.151,23.531,15.141,23.595z"/>
	<path class="st1" d="M16.043,10.27c-0.042,0-0.085,0.001-0.127,0.001c-0.002-0.002-0.003-0.005-0.005-0.007
		c-0.002,0.002-0.003,0.005-0.005,0.007c-0.02,0-0.039,0.001-0.059,0.001c-0.007-0.012-0.015-0.012-0.022,0
		c-0.059,0-0.118,0-0.177,0c-0.001-0.006-0.001-0.007-0.002,0c-0.034,0-0.068,0-0.102,0c0-0.006,0-0.005-0.001,0
		c-0.013,0.002-0.026,0.003-0.039,0.005c-0.256-0.011-0.513-0.013-0.769,0c-0.028-0.002-0.057-0.003-0.085-0.005
		c0-0.006-0.001-0.006-0.001,0c-0.01,0.001-0.02,0.001-0.029,0.002c-0.007-0.012-0.014-0.012-0.021,0
		c-0.032-0.001-0.064-0.001-0.096-0.002c0-0.003-0.001-0.006-0.001-0.01c-0.001,0.003-0.003,0.006-0.004,0.01
		c-0.039,0-0.079,0-0.118,0c-0.011-0.015-0.023-0.015-0.034,0c-0.032,0.003-0.062-0.005-0.093-0.012c-0.003-0.01-0.007-0.01-0.01,0
		c-0.012,0-0.023,0-0.035,0c-0.008-0.013-0.015-0.013-0.023,0c-0.007,0-0.015,0-0.022,0c0-0.006,0.002-0.017-0.001-0.018
		c-0.009-0.004-0.018-0.003-0.023,0.008c-0.019,0-0.038-0.001-0.058-0.001c-0.009-0.014-0.022-0.01-0.035-0.007
		c-0.006-0.001-0.011-0.002-0.017-0.003c0,0,0-0.005,0-0.005l0,0.005c-0.019,0-0.037,0-0.056,0c-0.001-0.007-0.002-0.007-0.003,0
		c-0.028,0-0.056,0-0.085-0.001c-0.011-0.015-0.022-0.016-0.034-0.001c-0.011-0.004-0.022-0.006-0.033,0
		c-0.003-0.014-0.005-0.03-0.024-0.011c-0.015,0-0.03-0.001-0.045-0.001c-0.02-0.039-0.055-0.01-0.082-0.018
		c-0.012-0.001-0.023-0.001-0.035-0.002c-0.014-0.016-0.029-0.018-0.044-0.001c-0.004,0-0.008-0.001-0.013-0.001
		c-0.003-0.01-0.007-0.01-0.01,0c-0.004,0-0.008,0-0.012,0c-0.004-0.011-0.008-0.01-0.012,0c-0.033,0.004-0.062-0.011-0.092-0.023
		c-0.004-0.009-0.007-0.009-0.011,0c-0.004,0-0.008,0-0.012,0c-0.013-0.017-0.027-0.021-0.045-0.008
		c-0.016-0.001-0.031-0.002-0.047-0.003c-0.003-0.01-0.007-0.01-0.01,0c-0.011,0-0.023,0-0.034,0c-0.004-0.011-0.009-0.011-0.013,0
		c-0.013-0.001-0.027,0.005-0.036-0.011c-0.017-0.043-0.051-0.02-0.079-0.019c-0.012-0.001-0.024-0.002-0.036-0.003
		c-0.001-0.002-0.003-0.005-0.004-0.007c-0.002,0.002-0.003,0.005-0.005,0.007c-0.095-0.005-0.186-0.028-0.276-0.058
		c-0.013-0.017-0.03-0.009-0.046-0.008c-0.034,0.003-0.061-0.017-0.092-0.026c-0.013-0.017-0.03-0.009-0.046-0.008
		c-0.102-0.013-0.199-0.045-0.297-0.075c-0.121-0.037-0.238-0.085-0.361-0.115c-0.059-0.014-0.113-0.048-0.169-0.074
		c-0.072-0.033-0.143-0.067-0.215-0.1c-0.021-0.01-0.039-0.023-0.053-0.041c-0.002-0.011-0.004-0.004-0.006,0
		c-0.026,0.002-0.037-0.018-0.05-0.035c0-0.016,0.008-0.033-0.008-0.046c0.006-0.043-0.01-0.09,0.023-0.129
		c0.007,0.001,0.01-0.002,0.008-0.009c0.001-0.012,0.001-0.023,0.002-0.035c0.008-0.011,0.026-0.022,0-0.034
		c-0.007-0.022,0.019-0.044,0-0.066c0.01,0.001,0.019,0.005,0.024-0.01c0.005-0.014-0.004-0.014-0.012-0.016
		c-0.005-0.024,0.002-0.044,0.022-0.059c0.002-0.001,0.003-0.001,0.005-0.002c-0.002-0.002-0.003-0.004-0.005-0.006
		c0-0.012,0-0.024,0-0.037c0.009-0.003,0.009-0.007,0-0.01c0.001-0.014-0.005-0.03,0.012-0.038c0.002,0.003,0.004,0.005,0.005,0.008
		c0.005-0.008,0.002-0.012-0.006-0.015c0.017-0.07-0.005-0.148,0.043-0.212c0.003-0.004,0.003-0.011,0.003-0.016
		c0-0.088,0.044-0.165,0.063-0.247c0.028-0.12,0.072-0.234,0.116-0.346c0.027-0.071,0.057-0.146,0.087-0.217
		c0.028-0.066,0.065-0.129,0.087-0.198c0.018-0.057,0.049-0.111,0.078-0.163c0.05-0.09,0.102-0.18,0.148-0.271
		c0.06-0.119,0.137-0.226,0.205-0.34C12.457,7,12.526,6.93,12.57,6.852c0.044-0.076,0.098-0.142,0.15-0.209
		c0.064-0.081,0.125-0.166,0.187-0.248c0.052-0.069,0.121-0.121,0.167-0.194c0.053-0.084,0.123-0.153,0.201-0.215
		c0.004-0.003,0.009-0.008,0.011-0.013c0.011-0.035,0.038-0.058,0.058-0.085c0.025-0.033,0.053-0.059,0.08-0.089
		c0.134-0.146,0.263-0.297,0.4-0.44c0.068-0.071,0.147-0.134,0.208-0.212c0.096-0.122,0.21-0.226,0.306-0.347
		c0.038-0.048,0.086-0.093,0.11-0.153c0.005-0.012,0.017-0.014,0.023-0.009c0.046,0.037,0.103,0.011,0.154,0.026
		c-0.017,0.057,0.001,0.093,0.053,0.131c0.356,0.263,0.71,0.531,1.063,0.799c0.048,0.036,0.098,0.071,0.142,0.111
		c0.04,0.036,0.077,0.022,0.106-0.003c0.119-0.099,0.234-0.203,0.352-0.304c0.12-0.103,0.242-0.204,0.363-0.307
		c0.091-0.077,0.18-0.156,0.27-0.234c0.064-0.056,0.127-0.114,0.192-0.168c0.057-0.047,0.09-0.046,0.141,0.004
		c0.079,0.077,0.149,0.163,0.233,0.236c0.07,0.061,0.139,0.125,0.199,0.196c0.081,0.097,0.189,0.169,0.253,0.282
		c0.027,0.047,0.078,0.081,0.119,0.12c0.006,0.006,0.015,0.007,0.02,0.018c0.049,0.112,0.152,0.184,0.212,0.287
		c0.047,0.08,0.127,0.136,0.157,0.229c0.013,0.039,0.055,0.064,0.079,0.101c0.051,0.076,0.106,0.148,0.148,0.23
		c0.015,0.029,0.043,0.048,0.063,0.073c0.063,0.08,0.106,0.172,0.162,0.256c0.044,0.067,0.097,0.132,0.118,0.214
		c0.002,0.007,0.003,0.016,0.008,0.02c0.079,0.057,0.083,0.158,0.138,0.228c0.043,0.055,0.063,0.119,0.099,0.176
		c0.039,0.063,0.09,0.125,0.101,0.204c0.002,0.012,0.014,0.022,0.021,0.033c-0.009,0.004-0.011,0.008,0,0.011
		c0.011,0.03,0.026,0.058,0.048,0.081c0.003,0.004,0.006,0.008,0.008,0.013c0.05,0.019,0.049,0.073,0.066,0.11
		c0.027,0.062,0.044,0.129,0.074,0.191c0.032,0.067,0.055,0.139,0.092,0.202c0.05,0.084,0.067,0.179,0.11,0.264
		c0.035,0.07,0.058,0.147,0.087,0.22c0.016,0.042,0.027,0.086,0.047,0.127c0.023,0.049,0.028,0.107,0.054,0.154
		c0.029,0.05,0.02,0.111,0.059,0.156c0.022,0.026-0.006,0.074,0.037,0.093c-0.018,0.067,0.049,0.112,0.045,0.181
		c-0.003,0.053,0.029,0.108,0.043,0.162c0.007,0.027,0.026,0.05,0.022,0.08c-0.002,0.002-0.005,0.003-0.007,0.005
		c0.002,0.001,0.005,0.003,0.007,0.004c0.004,0.012,0.007,0.024,0.011,0.035c-0.002,0.002-0.005,0.004-0.007,0.006
		c0.003,0.001,0.005,0.002,0.008,0.003c0.007,0.011,0.021,0.022,0.019,0.032c-0.006,0.053,0.017,0.097,0.037,0.143
		c-0.013,0.008-0.012,0.016,0.001,0.023c0,0.004,0,0.008,0,0.012c-0.009,0.003-0.009,0.007,0,0.01c0,0.008,0,0.017,0,0.025
		c-0.002,0.001-0.003,0.001-0.005,0.002c0.002,0.002,0.003,0.004,0.005,0.006c0.001,0.004,0.002,0.009,0.003,0.013
		c-0.003,0.022-0.016,0.04-0.027,0.058c-0.004,0-0.008,0-0.013,0c-0.002-0.002-0.003-0.005-0.005-0.007
		c-0.002,0.002-0.003,0.005-0.005,0.007c-0.05,0-0.1,0-0.15,0.001c-0.021-0.021-0.032,0.001-0.046,0.01c-0.011,0-0.022,0-0.034,0
		c-0.004-0.011-0.008-0.011-0.013,0l-0.005,0c0,0-0.005,0-0.005,0c-0.004-0.011-0.008-0.011-0.013,0c-0.015,0-0.03,0-0.045,0
		c-0.003-0.008-0.009-0.015-0.018-0.014c-0.002,0-0.003,0.009-0.005,0.014c-0.019,0-0.038,0-0.057,0c-0.004-0.01-0.007-0.01-0.011,0
		c-0.004,0-0.008,0-0.012,0c-0.004-0.01-0.007-0.01-0.011,0c-0.054,0.004-0.107,0.007-0.161,0.011
		c-0.002-0.005-0.004-0.01-0.006-0.015c-0.002,0.005-0.004,0.01-0.006,0.015c-0.034,0-0.068,0-0.103,0
		c-0.061-0.021-0.122-0.017-0.183,0.001c-0.047-0.009-0.092,0.004-0.138,0.01c-0.002-0.003-0.004-0.005-0.006-0.008
		c-0.001,0.003-0.002,0.005-0.003,0.008c-0.058,0.034-0.124,0.013-0.185,0.019c-0.021,0.002-0.046,0.003-0.069,0.003
		c-0.004-0.01-0.008-0.01-0.012,0c-0.023,0-0.046,0-0.068,0c-0.034-0.02-0.069-0.019-0.103,0c-0.069,0.007-0.138,0.015-0.206,0.022
		c-0.004-0.01-0.008-0.011-0.012,0l-0.006,0c0,0-0.006,0-0.006,0c-0.004-0.01-0.007-0.01-0.011,0c-0.004,0-0.008,0-0.013,0
		c-0.002-0.002-0.003-0.005-0.005-0.007c-0.002,0.002-0.003,0.005-0.005,0.007c-0.022,0.009-0.046,0.012-0.07,0.011
		c-0.015-0.026-0.031-0.019-0.046,0c-0.011,0-0.023,0-0.034,0c-0.034-0.025-0.069-0.011-0.103,0.001c-0.012,0-0.024,0-0.036,0
		c-0.003-0.008-0.006-0.008-0.009,0c-0.046,0.008-0.091,0.026-0.139,0.022c-0.004-0.01-0.007-0.01-0.011,0
		c-0.038,0.001-0.076,0.003-0.115,0.004c-0.035-0.003-0.07-0.012-0.103,0.008c-0.008,0-0.016,0-0.023,0
		c-0.008-0.012-0.015-0.012-0.023,0c-0.004,0-0.008,0-0.013,0c-0.003-0.009-0.006-0.009-0.009,0
		c-0.012,0.004-0.024,0.007-0.035,0.011c-0.004-0.01-0.008-0.011-0.012,0l-0.006,0l-0.006,0c-0.004-0.01-0.008-0.01-0.011,0
		c-0.023,0.004-0.046,0.007-0.069,0.011c-0.008-0.013-0.015-0.013-0.023,0c-0.042,0-0.084,0.002-0.126,0.011
		c-0.042-0.016-0.084-0.016-0.126,0.001c-0.023,0.004-0.046,0.007-0.069,0.011c-0.019-0.015-0.038-0.015-0.057,0.001
		c-0.015,0.004-0.031,0.007-0.046,0.011c-0.008-0.013-0.016-0.013-0.023,0c-0.012,0-0.023,0.001-0.035,0.001
		c-0.011-0.015-0.023-0.015-0.034,0c-0.008,0-0.016,0.001-0.024,0.001c-0.007-0.012-0.015-0.012-0.022,0
		c-0.009,0-0.018-0.001-0.028-0.001c-0.001-0.007-0.002-0.007-0.003,0c-0.018,0-0.037,0-0.055,0c0-0.006,0-0.006,0,0
		c-0.006,0.001-0.011,0.002-0.017,0.003c-0.023,0.002-0.048-0.017-0.069,0.007c-0.016,0-0.031,0-0.047,0
		c-0.003-0.009-0.006-0.01-0.01,0c-0.015,0.004-0.031,0.007-0.046,0.011c-0.004-0.01-0.008-0.011-0.012,0
		c-0.027,0.004-0.053,0.007-0.08,0.011c-0.008-0.013-0.016-0.013-0.023,0c-0.015,0-0.031,0-0.046,0.001
		c-0.003-0.01-0.007-0.01-0.01,0c-0.004,0-0.008,0-0.013,0.001c-0.019-0.012-0.038-0.011-0.056,0.001
		c-0.005,0-0.01-0.001-0.015-0.001c-0.002-0.008-0.004-0.008-0.006,0c-0.03,0-0.059,0-0.089,0c0-0.006-0.001-0.006-0.001,0
		c-0.025,0.001-0.049,0.002-0.074,0.003c-0.013-0.003-0.026-0.008-0.035,0.007c-0.012,0-0.023,0-0.035,0
		c-0.004-0.009-0.007-0.01-0.011,0c-0.031,0.004-0.061,0.007-0.092,0.011c-0.004-0.01-0.008-0.011-0.012,0l-0.005,0
		c0,0-0.005,0-0.005,0c-0.008-0.013-0.015-0.013-0.023,0c-0.027,0.001-0.053,0.002-0.08,0.003
		C16.057,10.26,16.048,10.259,16.043,10.27z M13.76,7.391L13.759,7.39L13.76,7.391c-0.004,0.016-0.003,0.04-0.013,0.048
		c-0.062,0.043-0.065,0.121-0.111,0.175c-0.041,0.047-0.071,0.105-0.098,0.162c-0.023,0.049-0.067,0.087-0.082,0.136
		c-0.026,0.085-0.094,0.143-0.125,0.226c-0.019,0.052-0.064,0.103-0.096,0.157c-0.06,0.1-0.119,0.201-0.178,0.301
		c-0.061,0.103-0.111,0.214-0.19,0.306c-0.021,0.025-0.019,0.06-0.038,0.08c-0.038,0.038-0.063,0.08-0.072,0.133
		c0,0.001-0.003,0.002-0.004,0.003c0.002,0.001,0.003,0.002,0.008,0.004c0.077-0.042,0.159-0.076,0.236-0.122
		c0.063-0.038,0.125-0.078,0.189-0.111c0.079-0.041,0.158-0.079,0.228-0.136c0.052-0.042,0.101-0.086,0.149-0.132
		c0.055-0.052,0.106-0.106,0.144-0.171c0.005-0.008,0-0.016,0.012-0.026c0.025-0.021,0.053-0.049,0.06-0.079
		c0.015-0.07,0.055-0.128,0.081-0.192c0.024-0.059,0.043-0.121,0.054-0.181c0.015-0.085,0.044-0.166,0.052-0.254
		c0.008-0.095,0.038-0.191,0.049-0.288c0.011-0.093,0.029-0.186,0.038-0.279c0.008-0.089,0.024-0.178,0.036-0.267
		c-0.02,0.051-0.073,0.074-0.092,0.127c-0.012,0.034-0.029,0.077-0.056,0.102c-0.061,0.056-0.068,0.146-0.13,0.199
		C13.782,7.332,13.79,7.372,13.76,7.391z M17.373,6.831l-0.001-0.002L17.373,6.831c0.005,0.037,0.01,0.074,0.015,0.111
		c0.013,0.105,0.028,0.209,0.041,0.314c0.013,0.102,0.041,0.203,0.052,0.306c0.018,0.164,0.066,0.322,0.099,0.483
		c0.024,0.117,0.084,0.22,0.147,0.32c0.041,0.066,0.093,0.125,0.14,0.186l-0.001,0.003l0.001-0.003
		c0.032,0.023,0.063,0.048,0.095,0.072c0.054,0.04,0.096,0.092,0.157,0.129c0.047,0.029,0.099,0.066,0.148,0.099
		c0.13,0.086,0.28,0.137,0.413,0.22c0.009,0.005,0.015,0.011,0.025,0.004c0.01-0.007,0.009-0.018,0.002-0.024
		c-0.035-0.028-0.03-0.076-0.059-0.109c-0.025-0.028-0.045-0.063-0.059-0.098c-0.033-0.084-0.097-0.149-0.134-0.23
		c-0.021-0.047-0.053-0.092-0.083-0.135c-0.079-0.114-0.131-0.243-0.212-0.355c-0.028-0.038-0.036-0.082-0.064-0.12
		c-0.043-0.058-0.085-0.119-0.116-0.184c-0.034-0.071-0.077-0.138-0.118-0.203c-0.076-0.121-0.144-0.247-0.22-0.368
		c-0.003-0.002-0.007-0.005-0.01-0.007c0-0.02-0.005-0.043-0.019-0.05c-0.04-0.022-0.052-0.067-0.068-0.099
		c-0.038-0.076-0.096-0.14-0.125-0.221C17.412,6.853,17.401,6.827,17.373,6.831z"/>
	<path class="st1" d="M19.242,13.757c0.028-0.024,0.063-0.018,0.096-0.025c0.15-0.032,0.304-0.033,0.456-0.054
		c0.118-0.016,0.238-0.028,0.355-0.043c0.129-0.017,0.26-0.028,0.389-0.055c0.094-0.02,0.193-0.042,0.292-0.039
		c0.051,0.002,0.096-0.036,0.149-0.019c-0.039,0.066-0.071,0.136-0.072,0.214c-0.001,0.096,0,0.191-0.001,0.287
		c0,0.036,0.006,0.071,0.03,0.096c0.037,0.041,0.065,0.088,0.1,0.131c0.093,0.114,0.156,0.246,0.202,0.384
		c0.036,0.111,0.061,0.225,0.083,0.341c0.031,0.164,0.013,0.327,0.024,0.491c0.006,0.091-0.027,0.177-0.034,0.266
		c-0.01,0.122-0.04,0.241-0.077,0.354c-0.046,0.139-0.096,0.278-0.161,0.41c-0.078,0.158-0.169,0.308-0.281,0.442
		c-0.131,0.157-0.275,0.305-0.458,0.406c-0.122,0.067-0.243,0.137-0.387,0.154c-0.042,0.005-0.094,0.002-0.125,0.046
		c-0.058,0.142-0.124,0.28-0.196,0.416c-0.1,0.186-0.201,0.371-0.309,0.553c-0.097,0.164-0.215,0.312-0.33,0.463
		c-0.093,0.123-0.2,0.235-0.302,0.35c-0.041,0.047-0.084,0.092-0.127,0.138c-0.149,0.156-0.32,0.289-0.492,0.42
		c-0.093,0.07-0.191,0.133-0.287,0.197c-0.194,0.13-0.405,0.229-0.616,0.325c-0.074,0.034-0.153,0.061-0.232,0.085
		c-0.151,0.045-0.303,0.089-0.458,0.12c-0.091,0.018-0.185,0.027-0.277,0.04c-0.187,0.027-0.377,0.015-0.565,0.011
		c-0.108-0.002-0.215-0.029-0.323-0.039c-0.075-0.007-0.147-0.026-0.219-0.041c-0.072-0.015-0.141-0.043-0.213-0.061
		c-0.125-0.032-0.243-0.083-0.361-0.131c-0.138-0.057-0.275-0.12-0.404-0.196c-0.208-0.123-0.411-0.253-0.595-0.411
		c-0.112-0.097-0.219-0.198-0.325-0.301c-0.147-0.144-0.281-0.299-0.411-0.458c-0.217-0.264-0.39-0.556-0.553-0.854
		c-0.052-0.096-0.105-0.192-0.149-0.291c-0.055-0.123-0.1-0.25-0.151-0.374c-0.014-0.034-0.02-0.073-0.056-0.093
		c-0.011-0.007-0.018-0.005-0.022,0.008c-0.039,0.012-0.079,0.009-0.119,0.008c-0.044-0.015-0.088-0.015-0.132,0
		c-0.039,0.001-0.078,0.005-0.116-0.007c-0.026-0.024-0.054-0.041-0.091-0.027c-0.021,0.002-0.042-0.002-0.06-0.013
		c-0.012-0.03-0.033-0.034-0.06-0.021c-0.022-0.002-0.036-0.018-0.053-0.029c-0.006-0.015-0.016-0.015-0.027-0.005
		c-0.132-0.067-0.255-0.146-0.36-0.253c-0.02-0.02-0.042-0.038-0.063-0.057c-0.001-0.021-0.008-0.033-0.032-0.029
		c-0.004-0.002-0.009-0.005-0.013-0.007c0.002-0.013-0.004-0.019-0.018-0.018c-0.002-0.004-0.005-0.009-0.007-0.013
		c0.004-0.022-0.007-0.031-0.027-0.033c-0.034-0.038-0.068-0.076-0.101-0.114c0.005-0.013,0.003-0.022-0.013-0.023
		c-0.003-0.004-0.006-0.008-0.009-0.012c0.002-0.022-0.003-0.04-0.029-0.044c-0.014-0.009-0.021-0.023-0.027-0.037
		c0.004-0.019-0.007-0.029-0.024-0.034c-0.03-0.038-0.051-0.081-0.072-0.123c0.008-0.014,0.005-0.023-0.012-0.025
		c-0.031-0.042-0.051-0.088-0.066-0.138c0.006-0.015,0-0.022-0.016-0.022c-0.006-0.019-0.013-0.039-0.019-0.058
		c0.006-0.015,0-0.022-0.015-0.022c-0.01-0.027-0.021-0.054-0.031-0.081c0.007-0.012,0.002-0.02-0.01-0.024
		c-0.002-0.012-0.004-0.024-0.006-0.036c0.013-0.014,0.005-0.019-0.01-0.021c-0.023-0.023-0.022-0.054-0.025-0.083
		c0.013-0.014,0.006-0.019-0.009-0.021c-0.024-0.026-0.019-0.059-0.023-0.09c0.009-0.034-0.009-0.058-0.029-0.081
		c-0.001-0.019-0.003-0.039-0.004-0.058c0.012-0.029,0.001-0.052-0.02-0.071c-0.002-0.008-0.004-0.016-0.006-0.024
		c0.015-0.01,0.008-0.017-0.004-0.022c-0.002-0.035-0.004-0.07-0.005-0.105c0.011-0.041,0.004-0.078-0.02-0.112
		c-0.001-0.012-0.003-0.025-0.004-0.037c0.013-0.041,0.015-0.081-0.004-0.121c0-0.025,0-0.049,0-0.073
		c0.018-0.04,0.018-0.08,0.004-0.121c0.002-0.012,0.003-0.024,0.005-0.036c0.022-0.035,0.031-0.072,0.02-0.113
		c0.002-0.043-0.006-0.087,0.013-0.129c0.026-0.018,0.032-0.041,0.023-0.071c0.002-0.032-0.003-0.065,0.022-0.091
		c0.016-0.001,0.023-0.006,0.01-0.02c0.003-0.016,0.005-0.031,0.008-0.047c0.016-0.012,0.027-0.026,0.02-0.047
		c0.007-0.023,0.013-0.046,0.02-0.069c0.015,0,0.02-0.007,0.016-0.021c0.003-0.008,0.007-0.016,0.01-0.023
		c0.014-0.005,0.017-0.013,0.009-0.025c0.032-0.043,0.043-0.098,0.082-0.135c0.017-0.005,0.016-0.014,0.008-0.026
		c0.015-0.019,0.03-0.037,0.046-0.056c0.016,0.001,0.022-0.006,0.017-0.021c0.003-0.004,0.005-0.008,0.008-0.012
		c0.014,0,0.019-0.007,0.016-0.021c0.026-0.035,0.053-0.069,0.079-0.104c0.022-0.053,0.02-0.106,0.002-0.159
		c-0.002-0.023-0.003-0.046-0.005-0.069c0.015-0.043,0.006-0.082-0.021-0.117c-0.002-0.008-0.003-0.017-0.005-0.025
		c0.012-0.028,0.008-0.051-0.021-0.066c-0.007-0.015-0.013-0.031-0.02-0.046c0.006-0.015,0.002-0.023-0.015-0.022
		c-0.02-0.025-0.04-0.051-0.06-0.076c0.039-0.037,0.082-0.013,0.122-0.004c0.085,0.021,0.171,0,0.257,0.019
		c0.105,0.023,0.212,0.04,0.319,0.049c0.101,0.009,0.201,0.028,0.3,0.043c0.138,0.021,0.278,0.032,0.414,0.064
		c0.03,0.007,0.059,0.001,0.088,0.005c0.065,0.01,0.129,0.015,0.183,0.058c0.115,0.089,0.098,0.204,0.044,0.321
		c-0.108,0.231-0.273,0.417-0.48,0.565c-0.058,0.042-0.057,0.042-0.093-0.017c-0.012-0.02-0.025-0.039-0.04-0.055
		c-0.146-0.154-0.435-0.157-0.582,0.045c-0.113,0.154-0.17,0.336-0.178,0.528c-0.008,0.188-0.014,0.376,0.029,0.564
		c0.024,0.105,0.051,0.209,0.082,0.311c0.03,0.097,0.083,0.186,0.126,0.278c0.078,0.166,0.193,0.306,0.327,0.425
		c0.143,0.128,0.307,0.22,0.513,0.152c0.02-0.006,0.04-0.012,0.059-0.017l-0.001-0.001c0.013,0.011,0.002,0.022-0.001,0.031
		c-0.021,0.048-0.01,0.065,0.046,0.064c0.141-0.004,0.283,0.001,0.424-0.003c0.048-0.001,0.069,0.012,0.083,0.06
		c0.054,0.193,0.134,0.376,0.221,0.556c0.085,0.175,0.172,0.349,0.271,0.517c0.108,0.183,0.235,0.353,0.37,0.517
		c0.068,0.083,0.146,0.159,0.215,0.241c0.131,0.154,0.285,0.282,0.443,0.405c0.077,0.06,0.161,0.112,0.243,0.167
		c0.176,0.117,0.364,0.207,0.557,0.29c0.123,0.052,0.252,0.082,0.378,0.125c0.083,0.028,0.171,0.04,0.257,0.047
		c0.09,0.007,0.174,0.041,0.265,0.038c0.236-0.008,0.473,0.015,0.708-0.031c0.116-0.023,0.238-0.029,0.351-0.064
		c0.132-0.041,0.267-0.077,0.394-0.135c0.094-0.043,0.192-0.079,0.28-0.132c0.131-0.077,0.262-0.154,0.385-0.245
		c0.132-0.097,0.259-0.199,0.378-0.31c0.056-0.052,0.105-0.114,0.165-0.162c0.088-0.071,0.158-0.158,0.226-0.244
		c0.126-0.158,0.249-0.319,0.352-0.495c0.088-0.15,0.186-0.295,0.262-0.452c0.092-0.189,0.175-0.383,0.24-0.584
		c0.008-0.026,0.02-0.026,0.039-0.026c0.057,0,0.115,0.001,0.172,0c0.012,0,0.034,0.006,0.031-0.014
		c-0.012-0.083,0.029-0.06,0.074-0.041c0.017,0.007,0.038,0.005,0.057,0.007c0.017,0.019,0.035,0.019,0.053,0.001
		c0.1-0.004,0.187-0.042,0.27-0.094c0.062-0.039,0.113-0.089,0.164-0.139c0.144-0.142,0.244-0.311,0.328-0.493
		c0.036-0.077,0.059-0.159,0.095-0.236c0.021-0.007,0.021-0.018,0.006-0.032c0.002-0.012,0.004-0.024,0.006-0.036
		c0.029-0.024,0.046-0.051,0.028-0.09c-0.002-0.02,0-0.04,0.009-0.059c0.021-0.016,0.027-0.036,0.018-0.061
		c0.002-0.008,0.003-0.015,0.005-0.023c0.022-0.029,0.017-0.058,0.002-0.087c0.003-0.024,0.005-0.047,0.008-0.071
		c0.022-0.02,0.022-0.043,0.007-0.067c0.001-0.012,0.002-0.024,0.003-0.037c0.024-0.027,0.024-0.054,0.001-0.081
		c-0.002-0.024-0.003-0.047-0.005-0.071c0.015-0.02,0.017-0.039-0.006-0.056c-0.002-0.016-0.004-0.032-0.006-0.048
		c0.012-0.034,0.02-0.069-0.005-0.101c-0.01-0.029-0.02-0.059-0.03-0.088c0.011-0.014,0.015-0.027-0.002-0.039
		c-0.008-0.027-0.026-0.05-0.036-0.077c-0.035-0.097-0.08-0.189-0.157-0.261c-0.004-0.018-0.016-0.019-0.031-0.016
		c-0.02-0.019-0.049-0.019-0.072-0.031c-0.003-0.016-0.012-0.019-0.025-0.01c-0.023-0.005-0.046-0.01-0.069-0.015
		c-0.005-0.013-0.011-0.017-0.019-0.003c-0.016-0.002-0.032-0.004-0.047-0.006c-0.035-0.03-0.069-0.038-0.103,0.001
		c-0.022,0.008-0.044,0.017-0.066,0.025c-0.015-0.009-0.03-0.016-0.038,0.009c-0.025,0.009-0.052,0.015-0.074,0.028
		c-0.034,0.021-0.059,0.018-0.093-0.004c-0.196-0.124-0.343-0.293-0.465-0.488C19.314,13.949,19.26,13.861,19.242,13.757z"/>
	<path class="st2" d="M19.819,17.544c0.03-0.044,0.083-0.041,0.125-0.046c0.144-0.017,0.265-0.087,0.387-0.154
		c0.183-0.101,0.326-0.249,0.458-0.406c0.112-0.134,0.203-0.284,0.281-0.442c0.066-0.133,0.115-0.271,0.161-0.41
		c0.038-0.114,0.067-0.232,0.077-0.354c0.007-0.089,0.04-0.175,0.034-0.266c-0.01-0.163,0.007-0.326-0.024-0.491
		c-0.022-0.116-0.046-0.23-0.083-0.341c-0.045-0.138-0.109-0.269-0.202-0.384c-0.035-0.043-0.063-0.09-0.1-0.131
		c-0.024-0.026-0.03-0.061-0.03-0.096c0.001-0.096-0.001-0.191,0.001-0.287c0.001-0.079,0.032-0.148,0.072-0.214
		c0.003,0.01,0.007,0.02,0.01,0.029c-0.04,0.074-0.047,0.155-0.046,0.237c0.001,0.076,0,0.153,0,0.229
		c0,0.052,0.019,0.093,0.053,0.136c0.072,0.093,0.145,0.187,0.195,0.295c0.053,0.114,0.098,0.231,0.127,0.352
		c0.026,0.106,0.053,0.214,0.049,0.326c-0.006,0.142,0.017,0.285,0,0.427c-0.014,0.12-0.029,0.239-0.062,0.356
		c-0.015,0.052-0.022,0.106-0.04,0.158c-0.029,0.087-0.058,0.173-0.094,0.258c-0.027,0.061-0.044,0.126-0.076,0.186
		c-0.057,0.106-0.118,0.208-0.182,0.309c-0.059,0.092-0.13,0.176-0.204,0.255c-0.068,0.073-0.149,0.132-0.224,0.198
		c-0.076,0.066-0.167,0.111-0.255,0.155c-0.071,0.036-0.144,0.078-0.232,0.084C19.938,17.517,19.883,17.555,19.819,17.544z"/>
	<path class="st2" d="M14.735,10.277c0.256-0.013,0.513-0.011,0.769,0c-0.008,0.022-0.028,0.016-0.044,0.016
		c-0.227,0-0.454,0-0.682,0C14.762,10.294,14.743,10.3,14.735,10.277z"/>
	<path class="st2" d="M19.37,10.043c0.061-0.018,0.122-0.022,0.183-0.001C19.492,10.061,19.431,10.059,19.37,10.043z"/>
	<path class="st2" d="M17.374,10.18c0.042-0.017,0.084-0.017,0.126-0.001C17.458,10.195,17.416,10.199,17.374,10.18z"/>
	<path class="st2" d="M20.276,10.019c0.011-0.018,0.024-0.036,0.027-0.058c0.025,0.01,0.036,0.03,0.024,0.053
		C20.316,10.035,20.295,10.037,20.276,10.019z"/>
	<path class="st2" d="M18.785,10.077c0.034-0.019,0.069-0.021,0.103,0C18.854,10.095,18.819,10.094,18.785,10.077z"/>
	<path class="st2" d="M18.269,10.111c0.034-0.012,0.068-0.025,0.103-0.001C18.337,10.129,18.303,10.128,18.269,10.111z"/>
	<path class="st2" d="M17.856,10.145c0.033-0.02,0.068-0.01,0.103-0.008C17.927,10.171,17.891,10.158,17.856,10.145z"/>
	<path class="st2" d="M11.108,18.166c0.017-0.002,0.023,0.006,0.024,0.019c0,0.012-0.004,0.022-0.018,0.023
		c-0.012,0.001-0.023-0.001-0.025-0.015C11.088,18.178,11.098,18.17,11.108,18.166z"/>
	<path class="st2" d="M13.163,10.137c0.028-0.001,0.061-0.024,0.079,0.019C13.216,10.149,13.182,10.175,13.163,10.137z"/>
	<path class="st2" d="M16.892,10.214c0.021-0.025,0.046-0.006,0.069-0.007C16.941,10.238,16.917,10.228,16.892,10.214z"/>
	<path class="st2" d="M13.668,10.207c0.027,0.008,0.062-0.021,0.082,0.018C13.722,10.218,13.689,10.243,13.668,10.207z"/>
	<path class="st2" d="M13.382,10.172c0.018-0.014,0.033-0.009,0.045,0.008C13.409,10.194,13.393,10.2,13.382,10.172z"/>
	<path class="st2" d="M18.406,10.11c0.015-0.019,0.031-0.026,0.046,0C18.437,10.127,18.421,10.127,18.406,10.11z"/>
	<path class="st2" d="M20.058,10.03c0.014-0.009,0.025-0.031,0.046-0.01C20.094,10.051,20.077,10.046,20.058,10.03z"/>
	<path class="st2" d="M17.247,10.191c0.019-0.016,0.038-0.016,0.057-0.001C17.286,10.208,17.267,10.208,17.247,10.191z"/>
	<path class="st2" d="M16.548,10.239c0.019-0.011,0.037-0.013,0.056-0.001C16.586,10.254,16.567,10.253,16.548,10.239z"/>
	<path class="st2" d="M11.5,9.549c0.017,0.013,0.008,0.03,0.008,0.046C11.48,9.584,11.485,9.567,11.5,9.549z"/>
	<path class="st2" d="M13.588,10.204c0.015-0.016,0.03-0.015,0.044,0.001C13.618,10.218,13.603,10.218,13.588,10.204z"/>
	<path class="st2" d="M12.658,10.034c0.016-0.001,0.033-0.009,0.046,0.008C12.686,10.057,12.669,10.062,12.658,10.034z"/>
	<path class="st2" d="M12.796,10.068c0.016-0.001,0.033-0.008,0.046,0.008C12.824,10.092,12.807,10.096,12.796,10.068z"/>
	<path class="st3" d="M10.465,16.648c0.017,0.005,0.027,0.015,0.024,0.034C10.468,16.68,10.454,16.673,10.465,16.648z"/>
	<path class="st2" d="M11.534,9.342c0.026,0.012,0.008,0.023,0,0.034C11.52,9.365,11.52,9.353,11.534,9.342z"/>
	<path class="st2" d="M11.546,9.25c0.008,0.002,0.016,0.002,0.012,0.016c-0.005,0.015-0.015,0.011-0.024,0.01
		C11.534,9.266,11.534,9.255,11.546,9.25z"/>
	<path class="st2" d="M13.852,10.237c0.012-0.015,0.023-0.014,0.034,0.001C13.874,10.252,13.863,10.251,13.852,10.237z"/>
	<path class="st2" d="M14.046,10.241c0.013-0.003,0.026-0.008,0.035,0.007C14.066,10.265,14.054,10.264,14.046,10.241z"/>
	<path class="st2" d="M16.33,10.248c0.009-0.014,0.022-0.01,0.035-0.007C16.357,10.264,16.345,10.265,16.33,10.248z"/>
	<path class="st2" d="M14.345,10.272c0.011-0.015,0.023-0.015,0.034,0C14.368,10.286,14.356,10.286,14.345,10.272z"/>
	<path class="st2" d="M17.11,10.203c0.011-0.015,0.022-0.015,0.034,0C17.133,10.217,17.121,10.217,17.11,10.203z"/>
	<path class="st2" d="M14.139,10.249c0.005-0.011,0.014-0.012,0.023-0.008c0.002,0.001,0.001,0.012,0.001,0.018
		C14.153,10.26,14.144,10.258,14.139,10.249z"/>
	<path class="st2" d="M19.92,10.03c0.002-0.005,0.003-0.014,0.005-0.014c0.01-0.001,0.015,0.006,0.018,0.014
		C19.936,10.042,19.928,10.042,19.92,10.03z"/>
	<path class="st2" d="M14.598,10.274c0.007-0.012,0.014-0.012,0.021,0C14.612,10.284,14.605,10.284,14.598,10.274z"/>
	<path class="st2" d="M16.043,10.27c0.005-0.011,0.014-0.01,0.023-0.008C16.063,10.278,16.057,10.288,16.043,10.27z"/>
	<path class="st2" d="M17.065,10.205c0.007-0.013,0.014-0.013,0.022,0C17.079,10.215,17.072,10.215,17.065,10.205z"/>
	<path class="st3" d="M10.554,16.776c0.016,0.001,0.018,0.01,0.013,0.023C10.552,16.797,10.547,16.789,10.554,16.776z"/>
	<path class="st2" d="M20.299,9.893c-0.012-0.007-0.013-0.015-0.001-0.023C20.31,9.877,20.311,9.885,20.299,9.893z"/>
	<path class="st2" d="M15.825,10.273c0.007-0.013,0.015-0.012,0.022,0C15.84,10.284,15.833,10.284,15.825,10.273z"/>
	<path class="st3" d="M11.846,17.419c0.003-0.013,0.011-0.015,0.022-0.008C11.866,17.428,11.859,17.431,11.846,17.419z"/>
	<path class="st2" d="M19.186,19.024c-0.008,0.008-0.003,0.027-0.023,0.023C19.163,19.033,19.17,19.024,19.186,19.024z"/>
	<path class="st2" d="M17.626,10.168c0.008-0.013,0.015-0.013,0.023,0C17.641,10.18,17.634,10.18,17.626,10.168z"/>
	<path class="st2" d="M16.146,10.26c0.008-0.013,0.015-0.013,0.023,0C16.162,10.271,16.154,10.272,16.146,10.26z"/>
	<path class="st3" d="M10.408,14.116c0.003,0.014-0.001,0.021-0.016,0.021C10.387,14.122,10.392,14.114,10.408,14.116z"/>
	<path class="st3" d="M10.265,16.26c0.016,0,0.021,0.007,0.015,0.022C10.266,16.282,10.259,16.275,10.265,16.26z"/>
	<path class="st2" d="M14.184,10.259c0.008-0.013,0.016-0.013,0.023,0C14.2,10.272,14.192,10.271,14.184,10.259z"/>
	<path class="st2" d="M17.81,10.146c0.007-0.012,0.015-0.012,0.023,0C17.825,10.157,17.817,10.157,17.81,10.146z"/>
	<path class="st3" d="M10.322,14.226c0.009,0.012,0.009,0.022-0.008,0.026C10.305,14.24,10.311,14.232,10.322,14.226z"/>
	<path class="st3" d="M10.232,14.388c0.008,0.012,0.005,0.021-0.009,0.025C10.214,14.4,10.217,14.392,10.232,14.388z"/>
	<path class="st2" d="M16.674,10.236c0.008-0.013,0.015-0.013,0.023,0C16.689,10.248,16.681,10.249,16.674,10.236z"/>
	<path class="st3" d="M10.224,16.155c0.012,0.004,0.016,0.012,0.01,0.024C10.218,16.177,10.215,16.168,10.224,16.155z"/>
	<path class="st3" d="M10.299,16.341c0.016,0,0.022,0.006,0.016,0.022C10.301,16.362,10.295,16.355,10.299,16.341z"/>
	<path class="st2" d="M13.795,10.226c0.018-0.02,0.021-0.003,0.024,0.011C13.809,10.237,13.8,10.235,13.795,10.226z"/>
	<path class="st3" d="M10.149,14.621c0.013,0.015,0.006,0.02-0.01,0.02C10.133,14.63,10.136,14.623,10.149,14.621z"/>
	<path class="st2" d="M17.178,10.202c0.008-0.013,0.015-0.013,0.023,0C17.194,10.214,17.186,10.214,17.178,10.202z"/>
	<path class="st2" d="M19.206,18.978c0.016,0.015-0.002,0.017-0.009,0.023C19.197,18.992,19.198,18.984,19.206,18.978z"/>
	<polygon class="st2" points="14.497,10.272 14.501,10.263 14.503,10.272 	"/>
	<path class="st2" d="M19.656,10.042c0.002-0.005,0.004-0.01,0.006-0.015c0.002,0.005,0.004,0.01,0.006,0.015
		C19.664,10.042,19.66,10.042,19.656,10.042z"/>
	<path class="st2" d="M19.243,18.921c-0.003,0.007,0.003,0.019-0.012,0.019C19.232,18.931,19.234,18.924,19.243,18.921z"/>
	<path class="st2" d="M11.58,9.091c0.008,0.002,0.011,0.007,0.006,0.015c-0.002-0.003-0.004-0.005-0.005-0.008
		C11.58,9.096,11.58,9.093,11.58,9.091z"/>
	<path class="st2" d="M15.646,10.273c0.001-0.007,0.001-0.006,0.002,0C15.648,10.273,15.646,10.273,15.646,10.273z"/>
	<path class="st2" d="M15.544,10.273C15.544,10.267,15.544,10.266,15.544,10.273C15.544,10.273,15.544,10.273,15.544,10.273z"/>
	<path class="st2" d="M14.649,10.273C14.649,10.266,14.649,10.267,14.649,10.273C14.649,10.273,14.649,10.273,14.649,10.273z"/>
	<path class="st2" d="M16.18,10.26c0.004-0.011,0.008-0.011,0.012,0C16.188,10.259,16.184,10.259,16.18,10.26z"/>
	<path class="st2" d="M14.242,10.26c0.003-0.01,0.007-0.01,0.01,0c0,0-0.005,0-0.005,0L14.242,10.26z"/>
	<path class="st2" d="M16.284,10.248c0.004-0.01,0.007-0.009,0.011,0c0,0-0.005,0-0.005,0L16.284,10.248z"/>
	<path class="st2" d="M16.438,10.238C16.438,10.232,16.439,10.232,16.438,10.238C16.439,10.238,16.438,10.238,16.438,10.238z"/>
	<path class="st2" d="M16.617,10.237c0.003-0.01,0.007-0.01,0.01,0c0,0-0.005,0-0.005,0L16.617,10.237z"/>
	<path class="st2" d="M16.528,10.238c0.002-0.008,0.004-0.008,0.006,0C16.533,10.238,16.528,10.238,16.528,10.238z"/>
	<polygon class="st2" points="14.03,10.238 14.03,10.233 14.03,10.238 	"/>
	<path class="st2" d="M13.971,10.238c0.001-0.007,0.002-0.007,0.003,0C13.974,10.238,13.971,10.238,13.971,10.238z"/>
	<path class="st2" d="M16.777,10.225c0.004-0.011,0.008-0.01,0.012,0C16.785,10.225,16.781,10.225,16.777,10.225z"/>
	<path class="st2" d="M16.835,10.214c0.003-0.01,0.006-0.009,0.01,0c0,0-0.005,0-0.005,0L16.835,10.214z"/>
	<path class="st2" d="M17.033,10.204c0.001-0.007,0.002-0.007,0.003,0C17.037,10.204,17.033,10.204,17.033,10.204z"/>
	<path class="st2" d="M16.978,10.204C16.978,10.198,16.978,10.198,16.978,10.204C16.978,10.204,16.978,10.204,16.978,10.204z"/>
	<path class="st2" d="M13.565,10.203c0.003-0.01,0.007-0.01,0.01,0c0,0-0.005,0-0.005,0L13.565,10.203z"/>
	<path class="st2" d="M13.439,10.179c0.004-0.009,0.007-0.009,0.011,0c0,0-0.005,0-0.005,0L13.439,10.179z"/>
	<polygon class="st2" points="15.906,10.272 15.911,10.264 15.916,10.272 15.911,10.272 	"/>
	<path class="st2" d="M20.011,10.03c0.004-0.011,0.008-0.011,0.013,0C20.02,10.03,20.016,10.03,20.011,10.03z"/>
	<path class="st2" d="M19.988,10.03c0.004-0.011,0.008-0.011,0.013,0C19.997,10.03,19.993,10.03,19.988,10.03z"/>
	<path class="st2" d="M19.852,10.03c0.004-0.01,0.007-0.01,0.011,0c0,0-0.006,0-0.006,0L19.852,10.03z"/>
	<path class="st2" d="M19.829,10.03c0.004-0.01,0.007-0.01,0.011,0c0,0-0.005,0-0.005,0L19.829,10.03z"/>
	<path class="st2" d="M13.542,10.202c0.004-0.01,0.008-0.011,0.012,0C13.55,10.202,13.546,10.202,13.542,10.202z"/>
	<path class="st2" d="M17.74,10.156c0.004-0.011,0.008-0.01,0.012,0C17.748,10.156,17.744,10.156,17.74,10.156z"/>
	<path class="st2" d="M17.788,10.145c0.003-0.01,0.006-0.009,0.009,0c0,0-0.005,0-0.005,0L17.788,10.145z"/>
	<path class="st2" d="M13.277,10.168c0.004-0.01,0.009-0.011,0.013,0C13.286,10.168,13.282,10.168,13.277,10.168z"/>
	<path class="st2" d="M18.074,10.134c0.004-0.01,0.007-0.01,0.011,0c0,0-0.006,0-0.006,0L18.074,10.134z"/>
	<polygon class="st2" points="13.119,10.134 13.123,10.127 13.128,10.134 13.123,10.134 	"/>
	<path class="st2" d="M18.224,10.111c0.003-0.008,0.006-0.008,0.009,0c0,0-0.004,0-0.004,0L18.224,10.111z"/>
	<polygon class="st2" points="20.254,10.019 20.259,10.012 20.264,10.019 20.259,10.019 	"/>
	<polygon class="st2" points="20.299,9.948 20.295,9.942 20.299,9.94 	"/>
	<path class="st2" d="M20.299,9.915c-0.009-0.003-0.009-0.007,0-0.01C20.299,9.908,20.299,9.911,20.299,9.915z"/>
	<path class="st2" d="M18.566,10.099c0.004-0.011,0.008-0.01,0.012,0C18.574,10.099,18.57,10.099,18.566,10.099z"/>
	<path class="st2" d="M18.544,10.099c0.004-0.01,0.007-0.01,0.011,0c0,0-0.005,0-0.005,0L18.544,10.099z"/>
	<polygon class="st2" points="20.242,9.695 20.234,9.691 20.241,9.686 	"/>
	<polygon class="st2" points="18.522,10.099 18.526,10.092 18.531,10.099 18.526,10.1 	"/>
	<path class="st2" d="M18.956,10.076c0.004-0.01,0.008-0.01,0.012,0C18.964,10.076,18.96,10.076,18.956,10.076z"/>
	<path class="st2" d="M13.325,10.168c0.003-0.01,0.007-0.01,0.01,0c0,0-0.005,0-0.005,0L13.325,10.168z"/>
	<path class="st2" d="M11.532,9.411c0.002,0.007-0.001,0.01-0.008,0.009C11.526,9.417,11.529,9.414,11.532,9.411z"/>
	<polygon class="st2" points="19.223,10.054 19.227,10.045 19.232,10.053 	"/>
	<polygon class="st2" points="11.568,9.183 11.573,9.189 11.568,9.191 	"/>
	<path class="st2" d="M11.569,9.136c0.009,0.003,0.009,0.007,0,0.01C11.568,9.143,11.568,9.139,11.569,9.136z"/>
	<polygon class="st2" points="20.23,9.65 20.223,9.646 20.23,9.641 	"/>
	<path class="st2" d="M19.216,18.955c0.002,0.007-0.001,0.009-0.007,0.009C19.211,18.962,19.214,18.959,19.216,18.955z"/>
	<path class="st2" d="M19.439,7.609c-0.012-0.003-0.01-0.007,0-0.011C19.439,7.602,19.439,7.606,19.439,7.609z"/>
	<path class="st2" d="M19.195,19.012c0.002,0.008-0.002,0.01-0.009,0.011C19.189,19.02,19.192,19.016,19.195,19.012z"/>
	<path class="st2" d="M17.718,10.157c0.004-0.01,0.008-0.01,0.011,0l-0.006,0L17.718,10.157z"/>
	<path class="st2" d="M19.495,7.703c-0.003-0.004-0.006-0.008-0.008-0.013C19.49,7.694,19.493,7.699,19.495,7.703z"/>
	<path class="st2" d="M11.559,9.629c0.002-0.004,0.004-0.011,0.006,0c0,0-0.003,0-0.003,0L11.559,9.629z"/>
	<path class="st1" d="M13.477,14.471c-0.003-0.004-0.005-0.008-0.008-0.013c0.001-0.012,0.003-0.025,0.004-0.037
		c0.015-0.067,0.014-0.134,0-0.201c-0.002-0.009-0.003-0.017-0.005-0.026c0.003-0.004,0.005-0.008,0.008-0.013
		c0.015-0.002,0.014-0.015,0.017-0.025c0.019-0.063,0.034-0.127,0.061-0.187c0.019-0.044,0.06-0.078,0.065-0.129
		c0.001-0.002,0.002-0.003,0.004-0.004c0.052-0.041,0.109-0.034,0.169-0.026c0.064,0.008,0.13,0.003,0.194,0.008
		c0.106,0.008,0.211,0.022,0.316,0.029c0.064,0.005,0.128,0.008,0.192,0.002c0.049-0.005,0.075,0.013,0.098,0.053
		c0.038,0.064,0.061,0.135,0.087,0.204c0.003,0.009,0.005,0.019,0.017,0.02c0,0,0.004,0.002,0.004,0.002l0.003-0.003
		c-0.001,0.009-0.002,0.018-0.004,0.026c-0.003,0.006-0.009,0.013-0.009,0.019c0.015,0.1,0.016,0.201,0,0.301
		c-0.001,0.006,0.006,0.013,0.009,0.019c0.001,0.009,0.002,0.018,0.004,0.026l-0.003-0.003c0,0-0.004,0.001-0.004,0.001
		c-0.048,0.088-0.074,0.186-0.126,0.273c-0.01,0.008-0.023,0.015-0.03,0.025c-0.057,0.082-0.138,0.135-0.223,0.183
		c-0.042,0.024-0.098,0.016-0.133,0.055l-0.002,0.004c0,0,0.003,0.003,0.003,0.003c-0.017-0.001-0.033-0.002-0.05-0.004
		c-0.033-0.016-0.066-0.015-0.1-0.001c-0.008,0.002-0.016,0.004-0.024,0.006c-0.004-0.003-0.009-0.005-0.013-0.008
		c-0.045-0.046-0.114-0.038-0.166-0.073c-0.021-0.014-0.04-0.044-0.074-0.034c-0.006-0.005-0.011-0.01-0.017-0.015
		c0-0.021-0.012-0.024-0.029-0.02c-0.013-0.013-0.026-0.026-0.039-0.039c0.002-0.022-0.01-0.031-0.031-0.031
		c-0.009-0.013-0.018-0.025-0.027-0.038c0.002-0.012,0.002-0.023-0.005-0.033c-0.05-0.072-0.084-0.151-0.105-0.236
		C13.502,14.512,13.504,14.484,13.477,14.471z"/>
	<path class="st1" d="M16.635,14.304c-0.011-0.135,0.026-0.268,0.105-0.39c0.018-0.028,0.043-0.036,0.075-0.035
		c0.122,0.003,0.244,0.011,0.365,0.002c0.14-0.011,0.28-0.011,0.419-0.019c0.008,0,0.015,0,0.023-0.001
		c0.104-0.016,0.136,0.005,0.181,0.097c0.081,0.168,0.1,0.347,0.064,0.525c-0.047,0.235-0.174,0.425-0.405,0.517
		c-0.167,0.067-0.335,0.052-0.494-0.04C16.769,14.845,16.616,14.589,16.635,14.304z"/>
	<path class="st2" d="M14.682,14.033c0.02,0.01,0.036,0.021,0.019,0.046C14.688,14.067,14.68,14.053,14.682,14.033z"/>
	<path class="st2" d="M13.599,13.848c0-0.01,0-0.02,0-0.03c0.025-0.017,0.022,0.003,0.024,0.018
		c-0.002,0.001-0.003,0.003-0.004,0.004C13.613,13.843,13.606,13.845,13.599,13.848z"/>
	<path class="st2" d="M14.656,13.965c0.015,0.002,0.027,0.005,0.011,0.023C14.658,13.983,14.655,13.975,14.656,13.965z"/>
	<polygon class="st2" points="14.628,13.879 14.62,13.885 14.614,13.879 14.618,13.876 	"/>
	<polygon class="st2" points="17.373,6.83 17.372,6.828 17.373,6.831 	"/>
	<polygon class="st2" points="13.761,7.391 13.759,7.39 13.76,7.391 	"/>
	<polygon class="st2" points="17.866,8.549 17.865,8.553 17.866,8.55 	"/>
	<path class="st3" d="M19.716,16.889c0.018-0.013,0.036-0.013,0.053,0.001C19.751,16.908,19.733,16.907,19.716,16.889z"/>
	<path class="st3" d="M20.626,15.927c-0.01-0.013-0.008-0.024,0.006-0.033C20.648,15.908,20.647,15.92,20.626,15.927z"/>
	<path class="st3" d="M20.368,14.497c-0.014,0.01-0.022,0.006-0.025-0.01C20.356,14.478,20.365,14.48,20.368,14.497z"/>
	<path class="st3" d="M20.274,14.472c-0.008,0.011-0.015,0.01-0.019-0.003C20.263,14.455,20.269,14.459,20.274,14.472z"/>
	<path class="st1" d="M17.813,16.604c0.002,0.096-0.024,0.171-0.049,0.243c-0.098,0.29-0.291,0.506-0.535,0.682
		c-0.268,0.192-0.567,0.308-0.888,0.376c-0.248,0.053-0.499,0.073-0.752,0.061c-0.278-0.013-0.549-0.063-0.811-0.158
		c-0.274-0.099-0.524-0.236-0.736-0.439c-0.16-0.153-0.283-0.33-0.35-0.543c-0.022-0.071-0.039-0.144-0.046-0.218
		c-0.001-0.012-0.007-0.029,0.009-0.036c0.015-0.007,0.023,0.008,0.032,0.018c0.178,0.22,0.412,0.36,0.668,0.467
		c0.367,0.153,0.751,0.224,1.146,0.25c0.33,0.022,0.657,0,0.982-0.055c0.29-0.049,0.572-0.136,0.834-0.271
		c0.168-0.087,0.326-0.191,0.453-0.335C17.778,16.634,17.79,16.625,17.813,16.604z"/>
	<path class="st2" d="M14.036,15.054c0,0.005-0.001,0.009-0.001,0.014c-0.013,0.015-0.019,0.007-0.023-0.007
		C14.02,15.058,14.028,15.056,14.036,15.054z"/>
	<path class="st2" d="M14.695,14.585c-0.004-0.01-0.002-0.018,0.007-0.023C14.717,14.575,14.709,14.581,14.695,14.585z"/>
	<path class="st4" d="M11.833,16.764c0.002-0.002,0.003-0.005,0.005-0.007c0.001,0.002,0.002,0.003,0.002,0.005
		c-0.001,0.005-0.004,0.005-0.007,0.001C11.832,16.763,11.833,16.764,11.833,16.764z"/>
	<path class="st3" d="M17.64,7.245c-0.003,0.002-0.007,0.007-0.008,0.006c-0.006-0.003-0.006-0.009-0.002-0.014
		C17.633,7.24,17.637,7.243,17.64,7.245z"/>
</g>
</svg>
