<?xml version="1.0" encoding="utf-8"?>
<!-- Generator: Adobe Illustrator 26.2.1, SVG Export Plug-In . SVG Version: 6.00 Build 0)  -->
<svg version="1.1" id="Layer_1" xmlns="http://www.w3.org/2000/svg" xmlns:xlink="http://www.w3.org/1999/xlink" x="0px" y="0px"
	 viewBox="0 0 32 32" style="enable-background:new 0 0 32 32;" xml:space="preserve">
<style type="text/css">
	.st0{fill:url(#SVGID_1_);}
	.st1{fill:url(#SVGID_00000024002368612837629150000017352896856928143493_);}
	.st2{fill:#FFFFFF;}
	.st3{fill:url(#SVGID_00000005251347123844397970000013752135651059759493_);}
	.st4{fill:url(#SVGID_00000101803959419611909810000012393813481678762420_);}
	.st5{fill:url(#SVGID_00000159442737618281988810000002814154360555231392_);}
	.st6{fill:url(#SVGID_00000009565832768984271660000012379391324436495751_);}
	.st7{fill:url(#SVGID_00000007398598526117384770000001350177346465769141_);}
	.st8{opacity:0.6;fill:url(#SVGID_00000049190203126294976300000007532414021545792422_);}
	.st9{fill:url(#SVGID_00000014616679395302592340000002460121506414295979_);}
	.st10{fill:url(#SVGID_00000065069552249371518140000012554761147398482089_);}
	.st11{fill:url(#SVGID_00000075842337230935770330000011102635021634926479_);}
	.st12{fill:url(#SVGID_00000070084974943278879240000011265724857054854052_);}
	.st13{fill:url(#SVGID_00000041286960602094340780000004528328684382312098_);}
	.st14{fill:url(#SVGID_00000176015071387632078620000008586851383690598332_);}
	.st15{fill:url(#SVGID_00000169542644435885946700000017506189767109290943_);}
	.st16{fill:url(#SVGID_00000176765003031135634540000010794759125637748117_);}
	.st17{fill:url(#SVGID_00000054952140760655147130000010142924679509873822_);}
	.st18{fill:none;}
	.st19{fill:url(#SVGID_00000162315144530402028280000011103670043547080631_);}
	.st20{fill:url(#SVGID_00000047745394952461720750000017769599490309683854_);}
	.st21{fill:url(#SVGID_00000092438430024954983760000003811116477307611556_);}
	.st22{fill:url(#SVGID_00000155861273295270537110000011624131591758099598_);}
	.st23{fill:url(#SVGID_00000141426866065046254430000005540449936965371023_);}
	.st24{fill:url(#SVGID_00000060740246258835246760000008150981693660010906_);}
	.st25{fill:url(#SVGID_00000019673547238594537000000000507731399213530024_);}
	.st26{opacity:0.6;fill:#FFFFFF;}
	.st27{fill:url(#SVGID_00000115473060890606301330000004176913639154734238_);}
</style>
<g>
	<linearGradient id="SVGID_1_" gradientUnits="userSpaceOnUse" x1="13.5817" y1="7.3535" x2="16.9998" y2="19.5759">
		<stop  offset="0" style="stop-color:#000036"/>
		<stop  offset="0.1505" style="stop-color:#008FD5"/>
		<stop  offset="0.2175" style="stop-color:#0D4B9F"/>
		<stop  offset="0.3358" style="stop-color:#213589"/>
		<stop  offset="0.5347" style="stop-color:#111B62"/>
		<stop  offset="0.6989" style="stop-color:#008FD5"/>
		<stop  offset="0.8412" style="stop-color:#213589"/>
		<stop  offset="1" style="stop-color:#000036"/>
	</linearGradient>
	<path class="st0" d="M0.12,16.001C0.12,7.23,7.229,0.12,15.999,0.12c8.771,0,15.881,7.11,15.881,15.881
		c0,8.771-7.11,15.88-15.881,15.88C7.229,31.88,0.12,24.771,0.12,16.001z"/>
	
		<radialGradient id="SVGID_00000041255193726600328970000012235536062303048632_" cx="16.309" cy="2.2722" r="55.3441" gradientUnits="userSpaceOnUse">
		<stop  offset="0" style="stop-color:#FBB75C"/>
		<stop  offset="0.0077" style="stop-color:#FBB55A"/>
		<stop  offset="0.2043" style="stop-color:#F48120"/>
		<stop  offset="0.2697" style="stop-color:#E7691F"/>
		<stop  offset="0.358" style="stop-color:#D94E1F"/>
		<stop  offset="0.4367" style="stop-color:#D13E1E"/>
		<stop  offset="0.4974" style="stop-color:#CE381E"/>
		<stop  offset="0.5442" style="stop-color:#B7372F"/>
		<stop  offset="0.6536" style="stop-color:#863552"/>
		<stop  offset="0.7574" style="stop-color:#60336D"/>
		<stop  offset="0.8527" style="stop-color:#453281"/>
		<stop  offset="0.9366" style="stop-color:#34318D"/>
		<stop  offset="1" style="stop-color:#2E3191"/>
	</radialGradient>
	<path style="fill:url(#SVGID_00000041255193726600328970000012235536062303048632_);" d="M0.737,16.001
		c0-8.43,6.833-15.264,15.263-15.264c8.43,0,15.264,6.834,15.264,15.264c0,8.43-6.834,15.263-15.264,15.263
		C7.57,31.263,0.737,24.43,0.737,16.001z"/>
	<g>
		<path class="st2" d="M12.044,17.148c-0.058-0.092-0.17-0.141-0.279-0.111c-0.133,0.036-0.213,0.174-0.176,0.309
			c0.037,0.132,0.175,0.209,0.308,0.172c0.111-0.031,0.19-0.138,0.183-0.252l5.776-1.585l2.42,1.376
			c0.041-0.011,0.083-0.021,0.124-0.032l-2.577-1.466L12.044,17.148z M11.847,17.337c-0.033,0.009-0.069-0.007-0.078-0.04
			c-0.01-0.036,0.012-0.071,0.045-0.08c0.033-0.009,0.064,0.012,0.074,0.048C11.897,17.297,11.88,17.329,11.847,17.337z"/>
		<path class="st2" d="M22.214,11.568L8.796,15.26c-0.051-0.101-0.174-0.152-0.285-0.121c-0.134,0.037-0.213,0.171-0.176,0.303
			c0.036,0.133,0.175,0.213,0.308,0.176c0.112-0.031,0.181-0.132,0.182-0.241l13.422-3.692l2.151,1.219l0.898-0.247
			c0.02-0.049,0.039-0.098,0.059-0.147l-0.991,0.273L22.214,11.568z M8.593,15.438c-0.032,0.011-0.07-0.01-0.079-0.045
			c-0.009-0.032,0.013-0.069,0.045-0.078c0.033-0.009,0.065,0.013,0.073,0.045C8.642,15.395,8.625,15.429,8.593,15.438z"/>
		<path class="st2" d="M13.287,18.242c-0.12,0.033-0.2,0.137-0.198,0.257l-1.568,0.431l-0.162,0.286
			c0.082-0.015,0.163-0.031,0.244-0.046l0.082-0.146l1.435-0.395c0.058,0.111,0.186,0.167,0.309,0.133
			c0.145-0.04,0.229-0.188,0.19-0.333C13.58,18.287,13.432,18.203,13.287,18.242z M13.377,18.568
			c-0.036,0.01-0.071-0.011-0.082-0.049c-0.01-0.035,0.01-0.072,0.046-0.082c0.035-0.01,0.074,0.011,0.083,0.046
			C13.435,18.522,13.412,18.559,13.377,18.568z"/>
		<path class="st2" d="M5.949,15.322c0.033,0.005,0.074,0.002,0.106-0.007c0.133-0.037,0.209-0.174,0.172-0.307
			c-0.036-0.133-0.172-0.211-0.305-0.175C5.79,14.87,5.71,15.007,5.746,15.14c0.018,0.066,0.063,0.121,0.117,0.153l-0.918,1.62
			l-4.07,1.12c0.005,0.042,0.01,0.083,0.016,0.125l4.087-1.124L5.949,15.322z M5.972,15.014c0.033-0.009,0.064,0.011,0.073,0.044
			c0.009,0.034-0.008,0.065-0.041,0.074c-0.032,0.009-0.067-0.008-0.076-0.042C5.919,15.057,5.94,15.023,5.972,15.014z"/>
		<path class="st2" d="M14.754,17.978l-0.339,0.594c0.042-0.01,0.085-0.02,0.127-0.03l0.247-0.435l3.895-1.069l0.523,0.297
			c0.044-0.012,0.088-0.023,0.132-0.035l-0.691-0.394L14.754,17.978z"/>
		<path class="st2" d="M16.713,17.996c0.569-0.149,1.138-0.3,1.706-0.452l-0.021-0.012L16.713,17.996z"/>
		<path class="st2" d="M10.354,18.133c-0.034,0.01-0.069,0.029-0.094,0.054l-0.86-0.49l-1.948,0.536L6.98,19.062l-5.541,1.524
			c0.014,0.043,0.029,0.085,0.043,0.128l5.533-1.522l0.472-0.828l1.948-0.536l0.761,0.432c-0.034,0.062-0.048,0.13-0.028,0.205
			c0.04,0.144,0.186,0.226,0.327,0.187c0.145-0.04,0.231-0.186,0.191-0.33C10.648,18.178,10.499,18.093,10.354,18.133z
			 M10.444,18.461c-0.036,0.004-0.069-0.015-0.079-0.049c-0.011-0.04,0.008-0.073,0.042-0.082c0.037-0.01,0.074,0.008,0.085,0.047
			C10.502,18.411,10.479,18.445,10.444,18.461z"/>
		<path class="st2" d="M5.138,14.333l1.318-0.363l1.482-2.606l11.58-3.186C19.57,8.278,19.69,8.331,19.805,8.3
			c0.13-0.036,0.208-0.174,0.172-0.307c-0.036-0.131-0.174-0.209-0.304-0.173c-0.113,0.031-0.184,0.127-0.187,0.236l-11.58,3.186
			l-1.482,2.605L5.104,14.21l-1.219,2.146l-3.096,0.852c0.003,0.043,0.006,0.086,0.01,0.129l3.12-0.859L5.138,14.333z M19.722,7.999
			c0.032-0.008,0.067,0.012,0.075,0.043c0.01,0.035-0.01,0.068-0.042,0.077c-0.036,0.01-0.067-0.009-0.077-0.044
			C19.669,8.043,19.686,8.009,19.722,7.999z"/>
		<path class="st2" d="M22.358,12.548L7.394,16.665c-0.058-0.093-0.166-0.141-0.279-0.11c-0.133,0.036-0.21,0.17-0.174,0.303
			c0.037,0.133,0.173,0.212,0.306,0.176c0.117-0.032,0.189-0.139,0.184-0.25l14.961-4.116l1.684,0.956l0.954-0.262
			c0.017-0.047,0.034-0.093,0.051-0.139l-1.037,0.285L22.358,12.548z M7.197,16.853c-0.033,0.009-0.068-0.006-0.075-0.045
			c-0.009-0.033,0.011-0.062,0.044-0.071c0.033-0.009,0.066,0.006,0.075,0.039C7.25,16.813,7.23,16.844,7.197,16.853z"/>
		<path class="st2" d="M20.524,15.976l-2.607-1.481l-6.913,1.902c-0.06-0.091-0.169-0.139-0.282-0.108
			c-0.132,0.036-0.212,0.174-0.176,0.305c0.037,0.134,0.176,0.213,0.309,0.177c0.115-0.032,0.191-0.14,0.183-0.252l6.913-1.902
			l2.606,1.48l1.318-0.363l1.153,0.655c0.043-0.01,0.086-0.02,0.129-0.029l-1.315-0.747L20.524,15.976z M10.805,16.588
			c-0.032,0.009-0.069-0.008-0.078-0.043c-0.009-0.032,0.014-0.066,0.046-0.075c0.036-0.01,0.067,0.011,0.076,0.042
			C10.858,16.547,10.841,16.578,10.805,16.588z"/>
		<path class="st2" d="M8.289,7.71L9.26,7.443c0.061,0.093,0.173,0.14,0.279,0.111C9.672,7.517,9.755,7.38,9.718,7.245
			C9.681,7.112,9.539,7.033,9.405,7.07C9.294,7.1,9.223,7.212,9.224,7.322L8.255,7.588L5.806,6.194l-1.924,0.53
			C3.84,6.779,3.795,6.833,3.754,6.889l2.085-0.574L8.289,7.71z M9.456,7.252c0.035-0.01,0.072,0.013,0.08,0.042
			C9.545,7.33,9.524,7.364,9.489,7.374C9.46,7.382,9.422,7.364,9.413,7.329C9.404,7.299,9.426,7.26,9.456,7.252z"/>
		<path class="st2" d="M22.471,15.081c-0.036-0.132-0.175-0.21-0.302-0.175c-0.138,0.038-0.215,0.176-0.179,0.308
			c0.037,0.136,0.173,0.211,0.312,0.173c0.032-0.008,0.065-0.028,0.088-0.048l1.513,0.859c0.042-0.009,0.085-0.018,0.127-0.027
			l-1.582-0.898C22.476,15.217,22.49,15.149,22.471,15.081z M22.252,15.207c-0.036,0.011-0.07-0.008-0.08-0.043
			c-0.009-0.031,0.011-0.068,0.047-0.077c0.032-0.009,0.065,0.013,0.073,0.044C22.301,15.166,22.283,15.198,22.252,15.207z"/>
		<path class="st2" d="M3.397,18.737l1.435-0.395c0.059,0.112,0.186,0.167,0.31,0.133c0.145-0.04,0.23-0.188,0.189-0.333
			c-0.039-0.142-0.187-0.227-0.332-0.187c-0.12,0.033-0.2,0.137-0.198,0.257l-1.568,0.431l-0.28,0.497L1.175,19.63
			c0.01,0.043,0.019,0.087,0.03,0.13l1.914-0.527L3.397,18.737z M5.052,18.151c0.035-0.01,0.073,0.011,0.084,0.046
			c0.011,0.038-0.013,0.075-0.048,0.085c-0.036,0.01-0.072-0.011-0.082-0.05C4.997,18.197,5.017,18.161,5.052,18.151z"/>
		<path class="st2" d="M8.568,12.226l12.05-3.317c0.051,0.102,0.171,0.155,0.285,0.123c0.133-0.036,0.212-0.171,0.175-0.306
			c-0.036-0.132-0.174-0.211-0.307-0.174c-0.111,0.03-0.183,0.132-0.185,0.24L8.535,12.107L5.658,17.16l-4.721,1.299
			c0.007,0.042,0.015,0.083,0.022,0.125l4.733-1.301L8.568,12.226z M20.82,8.731c0.033-0.009,0.07,0.01,0.079,0.044
			c0.009,0.033-0.013,0.067-0.046,0.076c-0.036,0.01-0.067-0.01-0.076-0.043C20.768,8.775,20.784,8.741,20.82,8.731z"/>
		<path class="st2" d="M20.224,13.992c-0.058-0.094-0.171-0.14-0.276-0.111c-0.136,0.037-0.213,0.174-0.176,0.307
			c0.036,0.132,0.172,0.21,0.308,0.173c0.112-0.031,0.186-0.135,0.181-0.249l1.927-0.53l2.357,1.336
			c0.008-0.029,0.017-0.059,0.025-0.088l-2.414-1.368L20.224,13.992z M20.03,14.182c-0.038,0.011-0.07-0.011-0.079-0.044
			c-0.009-0.032,0.007-0.068,0.045-0.079c0.03-0.008,0.066,0.013,0.075,0.046C20.081,14.138,20.06,14.173,20.03,14.182z"/>
		<path class="st2" d="M4.495,14.256c0.03,0.005,0.068,0.004,0.102-0.005c0.137-0.038,0.214-0.171,0.177-0.307
			c-0.036-0.132-0.171-0.21-0.309-0.173c-0.129,0.035-0.208,0.172-0.172,0.304c0.018,0.067,0.065,0.119,0.117,0.151l-0.924,1.625
			l-2.734,0.752c0.001,0.041,0.001,0.084,0.003,0.125l2.763-0.76L4.495,14.256z M4.513,13.949c0.037-0.01,0.07,0.012,0.079,0.044
			c0.01,0.035-0.009,0.067-0.046,0.077c-0.034,0.009-0.065-0.009-0.074-0.044C4.463,13.994,4.48,13.959,4.513,13.949z"/>
		<path class="st2" d="M20.993,14.426c-0.061-0.093-0.174-0.14-0.279-0.11c-0.133,0.037-0.217,0.174-0.179,0.308
			c0.037,0.134,0.179,0.212,0.312,0.175c0.111-0.031,0.182-0.142,0.182-0.252l0.968-0.266l2.376,1.352
			c0.005-0.03,0.012-0.061,0.018-0.092l-2.427-1.381L20.993,14.426z M20.797,14.617c-0.035,0.01-0.072-0.012-0.08-0.043
			c-0.009-0.034,0.012-0.069,0.047-0.078c0.03-0.008,0.067,0.01,0.076,0.044C20.848,14.571,20.826,14.609,20.797,14.617z"/>
		<path class="st2" d="M9.449,18.382c-0.122,0.033-0.199,0.139-0.203,0.257l-1.175,0.323l-0.414,0.532L1.63,21.152
			c0.015,0.043,0.03,0.086,0.045,0.129l6.018-1.656l0.414-0.532l1.175-0.323c0.057,0.106,0.184,0.165,0.31,0.13
			c0.142-0.039,0.227-0.184,0.187-0.328C9.739,18.425,9.592,18.342,9.449,18.382z M9.538,18.703
			c-0.035,0.01-0.075-0.007-0.084-0.041c-0.011-0.039,0.015-0.075,0.05-0.084c0.033-0.009,0.071,0.009,0.082,0.048
			C9.594,18.66,9.571,18.694,9.538,18.703z"/>
		<path class="st2" d="M11.595,18.073c-0.039-0.144-0.187-0.23-0.328-0.191c-0.042,0.011-0.072,0.03-0.102,0.056l-1.354-0.772
			l-2.99,0.822l-0.469,0.829L1.327,20.2c0.012,0.042,0.024,0.085,0.036,0.126l5.026-1.383l0.469-0.829l2.99-0.822l1.255,0.718
			c-0.034,0.062-0.046,0.129-0.025,0.204c0.039,0.144,0.189,0.225,0.333,0.186C11.551,18.362,11.636,18.217,11.595,18.073z
			 M11.355,18.203c-0.039,0.011-0.072-0.007-0.081-0.042c-0.01-0.035,0.011-0.073,0.048-0.084c0.031-0.009,0.069,0.015,0.078,0.049
			C11.409,18.161,11.387,18.195,11.355,18.203z"/>
		<path class="st2" d="M18.214,2.613l-1.435,0.395c-0.058-0.111-0.186-0.167-0.309-0.133c-0.145,0.04-0.23,0.188-0.19,0.333
			c0.039,0.142,0.187,0.227,0.332,0.187c0.12-0.033,0.2-0.137,0.198-0.257l1.568-0.431l0.281-0.497l2.317-0.637
			c-0.075-0.026-0.15-0.052-0.226-0.076l-2.258,0.621L18.214,2.613z M16.559,3.199c-0.035,0.01-0.074-0.01-0.084-0.046
			c-0.01-0.038,0.013-0.075,0.048-0.085c0.036-0.01,0.071,0.011,0.082,0.049C16.614,3.154,16.595,3.19,16.559,3.199z"/>
		<path class="st2" d="M9.216,2.915C9.254,2.905,9.284,2.887,9.315,2.86l2.186,1.245l3.246-0.893l0.659-1.161l3.655-1.006
			c-0.102-0.021-0.205-0.036-0.308-0.055L15.37,1.921L14.711,3.08l-3.246,0.893L9.376,2.787c0.033-0.062,0.048-0.13,0.027-0.205
			c-0.038-0.14-0.181-0.219-0.32-0.187c-0.039,0.02-0.079,0.04-0.118,0.06C8.89,2.521,8.853,2.623,8.881,2.725
			C8.921,2.87,9.07,2.955,9.216,2.915z M9.127,2.594C9.163,2.584,9.2,2.601,9.209,2.635c0.01,0.035-0.012,0.074-0.047,0.084
			c-0.036,0.01-0.076-0.013-0.086-0.048C9.066,2.638,9.091,2.604,9.127,2.594z"/>
		<path class="st2" d="M8.038,10.301l14.155-3.894c0.051,0.101,0.175,0.151,0.285,0.121c0.133-0.037,0.212-0.171,0.176-0.303
			c-0.037-0.134-0.174-0.213-0.308-0.176c-0.111,0.031-0.181,0.132-0.183,0.24L8.006,10.183l-2.152-1.22l-3.909,1.075
			c-0.021,0.049-0.039,0.098-0.059,0.147l4.002-1.101L8.038,10.301z M22.396,6.229c0.033-0.011,0.07,0.01,0.08,0.045
			c0.009,0.032-0.013,0.069-0.046,0.078c-0.032,0.009-0.065-0.013-0.073-0.045C22.347,6.271,22.364,6.238,22.396,6.229z"/>
		<path class="st2" d="M11.941,2.166c0.122-0.034,0.199-0.139,0.204-0.257l1.175-0.323l0.414-0.532l0.926-0.254
			c-0.296,0.026-0.591,0.058-0.882,0.101l-0.08,0.022l-0.414,0.532l-1.175,0.323c-0.058-0.106-0.184-0.165-0.31-0.131
			c-0.143,0.039-0.227,0.185-0.187,0.329C11.651,2.123,11.798,2.205,11.941,2.166z M11.852,1.844
			c0.035-0.01,0.075,0.007,0.085,0.041c0.011,0.04-0.014,0.075-0.05,0.085c-0.033,0.009-0.07-0.009-0.082-0.049
			C11.796,1.887,11.819,1.853,11.852,1.844z"/>
		<path class="st2" d="M8.306,3.166c0.04-0.011,0.07-0.029,0.1-0.056l2.845,1.621l3.894-1.071l0.756-1.326l3.983-1.096
			c-0.09-0.023-0.181-0.044-0.271-0.066l-3.747,1.031l-0.755,1.327l-3.894,1.069L8.467,3.037c0.034-0.062,0.047-0.129,0.026-0.205
			c-0.01-0.035-0.026-0.066-0.047-0.093c-0.062,0.035-0.123,0.07-0.184,0.106c0.017,0.009,0.032,0.022,0.036,0.041
			C8.308,2.92,8.284,2.961,8.252,2.97c-0.036,0.01-0.073-0.013-0.083-0.048C8.166,2.913,8.171,2.905,8.172,2.896
			C8.111,2.933,8.051,2.97,7.99,3.008C8.042,3.13,8.172,3.202,8.306,3.166z"/>
		<path class="st2" d="M11.036,2.415c0.035-0.01,0.068-0.029,0.094-0.055l0.86,0.49l1.948-0.536l0.472-0.828l2.591-0.713
			c-0.143-0.009-0.288-0.017-0.432-0.022l-2.195,0.604l-0.472,0.828l-1.948,0.536l-0.761-0.432c0.034-0.062,0.048-0.13,0.028-0.205
			c-0.039-0.144-0.186-0.226-0.327-0.187c-0.145,0.04-0.231,0.186-0.191,0.33C10.742,2.369,10.891,2.454,11.036,2.415z
			 M10.946,2.087c0.036-0.003,0.069,0.015,0.078,0.049c0.011,0.04-0.007,0.073-0.042,0.083c-0.037,0.01-0.074-0.008-0.085-0.048
			C10.888,2.137,10.911,2.103,10.946,2.087z"/>
		<path class="st2" d="M2.674,11.019c0.133-0.036,0.212-0.177,0.175-0.311c-0.035-0.129-0.174-0.206-0.307-0.169
			c-0.109,0.03-0.181,0.127-0.181,0.235l-0.778,0.214c-0.016,0.046-0.032,0.092-0.047,0.139l0.852-0.234
			C2.442,10.995,2.563,11.05,2.674,11.019z M2.592,10.72c0.035-0.014,0.069,0.008,0.077,0.038c0.009,0.033-0.011,0.065-0.046,0.074
			c-0.032,0.009-0.067-0.008-0.076-0.041C2.539,10.761,2.559,10.725,2.592,10.72z"/>
		<path class="st2" d="M10.122,2.666c0.042-0.012,0.073-0.03,0.101-0.056l1.354,0.772l2.989-0.822l0.469-0.828l3.072-0.845
			c-0.113-0.015-0.226-0.03-0.339-0.043l-2.768,0.762l-0.469,0.828l-2.989,0.822l-1.255-0.718c0.034-0.062,0.046-0.129,0.025-0.205
			c-0.039-0.144-0.189-0.225-0.333-0.185C9.838,2.185,9.755,2.331,9.794,2.474C9.834,2.618,9.981,2.705,10.122,2.666z M10.035,2.344
			c0.039-0.011,0.072,0.007,0.081,0.042c0.01,0.035-0.011,0.074-0.048,0.084C10.037,2.478,10,2.455,9.99,2.421
			C9.981,2.386,10.003,2.353,10.035,2.344z"/>
		<path class="st2" d="M7.806,6.598c-0.03,0.054-0.044,0.123-0.025,0.19c0.036,0.131,0.176,0.21,0.302,0.175
			c0.139-0.038,0.216-0.176,0.18-0.308C8.226,6.52,8.09,6.444,7.952,6.483C7.92,6.491,7.886,6.51,7.863,6.531L6.147,5.556
			L4.455,6.022c-0.048,0.055-0.096,0.11-0.143,0.166L6.18,5.674L7.806,6.598z M8.001,6.662c0.037-0.01,0.07,0.008,0.08,0.044
			C8.09,6.737,8.071,6.773,8.034,6.783C8.002,6.792,7.97,6.77,7.961,6.739C7.951,6.703,7.969,6.671,8.001,6.662z"/>
		<path class="st2" d="M7.894,9.321l13.098-3.604c0.058,0.094,0.167,0.142,0.279,0.111c0.132-0.036,0.21-0.17,0.173-0.303
			c-0.037-0.134-0.173-0.213-0.305-0.176c-0.117,0.032-0.189,0.139-0.184,0.25L7.861,9.201L6.177,8.246L2.275,9.319
			C2.251,9.367,2.228,9.416,2.205,9.464l4.004-1.101L7.894,9.321z M21.188,5.53c0.033-0.009,0.069,0.007,0.076,0.045
			c0.009,0.033-0.011,0.062-0.044,0.071c-0.033,0.009-0.066-0.006-0.075-0.039C21.135,5.57,21.155,5.538,21.188,5.53z"/>
		<path class="st2" d="M8.41,6.256l1.318-0.363l2.606,1.48l10.11-2.781c0.061,0.091,0.17,0.139,0.282,0.108
			c0.134-0.037,0.213-0.174,0.177-0.305c-0.037-0.134-0.176-0.213-0.309-0.177c-0.114,0.032-0.19,0.14-0.183,0.252l-10.11,2.782
			l-2.606-1.48L8.377,6.134L6.232,4.915L5.222,5.193C5.164,5.251,5.109,5.312,5.052,5.37l1.213-0.334L8.41,6.256z M22.644,4.402
			c0.032-0.009,0.069,0.008,0.078,0.043c0.009,0.031-0.014,0.067-0.046,0.076c-0.036,0.01-0.068-0.011-0.076-0.042
			C22.591,4.443,22.609,4.411,22.644,4.402z"/>
		<path class="st2" d="M8.099,8.408l1.93-0.531c0.057,0.095,0.17,0.141,0.276,0.111c0.136-0.037,0.213-0.174,0.176-0.307
			c-0.037-0.132-0.172-0.21-0.308-0.173c-0.111,0.031-0.186,0.135-0.18,0.249l-1.927,0.53L5.609,6.895L3.303,7.53
			C3.268,7.582,3.235,7.636,3.201,7.689l2.442-0.672L8.099,8.408z M10.222,7.688c0.038-0.011,0.07,0.011,0.079,0.044
			c0.009,0.032-0.007,0.068-0.045,0.079c-0.03,0.008-0.066-0.014-0.075-0.046C10.172,7.732,10.192,7.695,10.222,7.688z"/>
		<path class="st2" d="M12.431,6.311l3.854-1.06c0.058,0.092,0.17,0.141,0.279,0.111c0.133-0.037,0.212-0.174,0.175-0.309
			c-0.036-0.133-0.174-0.209-0.307-0.172c-0.111,0.031-0.189,0.138-0.183,0.252l-3.852,1.056L7.433,3.367
			C7.391,3.395,7.351,3.426,7.309,3.455l0.068-0.019L12.431,6.311z M16.481,5.061c0.033-0.009,0.069,0.008,0.078,0.04
			c0.01,0.035-0.012,0.071-0.045,0.081C16.482,5.191,16.45,5.17,16.44,5.134C16.432,5.102,16.449,5.07,16.481,5.061z"/>
		<path class="st2" d="M3.687,8.615l1.324-0.364c0.061,0.103,0.175,0.155,0.29,0.125C5.434,8.339,5.513,8.202,5.476,8.07
			C5.439,7.936,5.301,7.857,5.169,7.894c-0.109,0.03-0.181,0.131-0.183,0.24L3.656,8.5L3.192,8.235L2.798,8.344
			c-0.03,0.052-0.06,0.104-0.09,0.157l0.518-0.142L3.687,8.615z M5.218,8.074c0.035-0.01,0.066,0.011,0.076,0.045
			C5.302,8.15,5.286,8.185,5.251,8.194c-0.037,0.01-0.068-0.011-0.076-0.042C5.166,8.118,5.182,8.084,5.218,8.074z"/>
		<path class="st2" d="M8.51,4.938C8.478,4.994,8.465,5.063,8.484,5.131c0.037,0.133,0.177,0.207,0.31,0.17
			c0.13-0.036,0.212-0.17,0.175-0.304C8.932,4.864,8.792,4.785,8.662,4.822C8.629,4.83,8.593,4.848,8.568,4.871l-1.71-0.975
			L6.625,3.96C6.54,4.026,6.455,4.091,6.372,4.159l0.519-0.143L8.51,4.938z M8.711,5.002c0.033-0.009,0.064,0.011,0.074,0.045
			C8.794,5.08,8.777,5.113,8.744,5.122C8.712,5.131,8.677,5.113,8.668,5.08C8.659,5.045,8.679,5.011,8.711,5.002z"/>
		<path class="st2" d="M3.559,11.407l1.327-0.365c0.051,0.101,0.168,0.153,0.285,0.121c0.133-0.036,0.21-0.174,0.173-0.306
			c-0.036-0.133-0.173-0.212-0.306-0.176c-0.108,0.03-0.18,0.131-0.18,0.236l-1.333,0.367l-1.742,3.063l-0.981,0.27
			c-0.004,0.044-0.007,0.089-0.01,0.134l1.025-0.282L3.559,11.407z M5.087,10.862c0.035-0.01,0.068,0.012,0.077,0.044
			c0.009,0.032-0.009,0.066-0.044,0.076c-0.032,0.007-0.067-0.011-0.076-0.043C5.035,10.906,5.055,10.871,5.087,10.862z"/>
		<path class="st2" d="M25.758,7.613c-0.03-0.005-0.068-0.004-0.102,0.005c-0.137,0.038-0.215,0.171-0.177,0.307
			c0.036,0.132,0.172,0.21,0.31,0.172c0.128-0.035,0.208-0.172,0.171-0.305c-0.018-0.067-0.066-0.118-0.118-0.15l0.925-1.625
			l0.625-0.172c-0.03-0.034-0.058-0.069-0.089-0.102L26.734,5.9L25.758,7.613z M25.739,7.919c-0.037,0.01-0.071-0.012-0.08-0.044
			c-0.01-0.036,0.009-0.067,0.046-0.077c0.034-0.009,0.064,0.009,0.073,0.044C25.789,7.875,25.773,7.91,25.739,7.919z"/>
		<path class="st2" d="M2.167,11.989c0.133-0.037,0.209-0.174,0.172-0.306c-0.036-0.133-0.172-0.213-0.305-0.176
			c-0.112,0.031-0.184,0.132-0.181,0.237L1.3,11.896c-0.014,0.048-0.028,0.095-0.041,0.144l0.623-0.171
			C1.938,11.968,2.053,12.021,2.167,11.989z M2.084,11.688c0.034-0.01,0.066,0.012,0.073,0.045c0.011,0.032-0.006,0.066-0.041,0.073
			c-0.032,0.011-0.067-0.009-0.076-0.041C2.032,11.732,2.051,11.697,2.084,11.688z"/>
		<path class="st2" d="M23.795,7.899l-1.482,2.606l-12.138,3.34c-0.051-0.1-0.172-0.153-0.286-0.122
			c-0.13,0.035-0.209,0.174-0.173,0.308c0.036,0.13,0.175,0.208,0.304,0.173c0.112-0.031,0.184-0.128,0.188-0.236l12.139-3.34
			l1.482-2.604l1.319-0.363l1.219-2.146l0.568-0.156c-0.034-0.034-0.066-0.07-0.1-0.105l-0.503,0.138l-1.219,2.144L23.795,7.899z
			 M9.972,14.024c-0.031,0.009-0.066-0.012-0.075-0.043c-0.01-0.035,0.01-0.068,0.042-0.077c0.036-0.01,0.067,0.009,0.077,0.044
			C10.025,13.98,10.008,14.014,9.972,14.024z"/>
		<path class="st2" d="M4.292,13.143l0.966-0.266C5.315,12.975,5.432,13.031,5.544,13c0.132-0.036,0.215-0.176,0.178-0.309
			c-0.037-0.133-0.178-0.21-0.311-0.174c-0.106,0.029-0.179,0.128-0.184,0.237l-0.969,0.266l-1.394,2.454L0.738,16.06
			c0,0.043,0.003,0.085,0.003,0.128l2.157-0.593L4.292,13.143z M5.461,12.698c0.036-0.01,0.069,0.01,0.079,0.044
			c0.009,0.032-0.01,0.067-0.046,0.077c-0.028,0.007-0.068-0.012-0.077-0.043C5.408,12.741,5.433,12.706,5.461,12.698z"/>
		<path class="st2" d="M25.961,8.726l-0.966,0.266c-0.057-0.098-0.174-0.153-0.286-0.122c-0.133,0.037-0.215,0.176-0.179,0.309
			c0.037,0.133,0.179,0.21,0.312,0.173c0.106-0.029,0.178-0.129,0.184-0.237l0.969-0.267l1.394-2.454l0.386-0.106
			c-0.029-0.035-0.061-0.069-0.09-0.104l-0.329,0.09L25.961,8.726z M24.791,9.171c-0.036,0.01-0.069-0.009-0.079-0.043
			c-0.009-0.032,0.01-0.068,0.046-0.077c0.028-0.007,0.068,0.012,0.077,0.044C24.844,9.128,24.819,9.163,24.791,9.171z"/>
		<path class="st2" d="M28.194,6.822c-0.028-0.037-0.058-0.073-0.086-0.11l-0.227,0.063l-1.399,2.453l-1.927,0.53
			c-0.055-0.1-0.171-0.152-0.283-0.121c-0.136,0.038-0.212,0.174-0.175,0.307c0.037,0.133,0.171,0.21,0.308,0.173
			c0.107-0.029,0.179-0.126,0.178-0.235l1.932-0.532l1.4-2.45L28.194,6.822z M24.356,9.937c-0.038,0.01-0.071-0.011-0.08-0.044
			c-0.01-0.035,0.008-0.068,0.047-0.078c0.03-0.008,0.064,0.01,0.073,0.045C24.406,9.893,24.386,9.929,24.356,9.937z"/>
		<path class="st2" d="M24.303,6.548c-0.033-0.005-0.073-0.003-0.106,0.006c-0.134,0.036-0.209,0.174-0.172,0.307
			c0.037,0.133,0.171,0.211,0.305,0.174c0.132-0.036,0.212-0.174,0.176-0.306c-0.018-0.067-0.062-0.121-0.117-0.153l0.919-1.62
			l0.947-0.261c-0.037-0.034-0.076-0.065-0.113-0.098l-0.867,0.239L24.303,6.548z M24.28,6.855
			c-0.033,0.009-0.065-0.011-0.073-0.043c-0.009-0.034,0.008-0.065,0.041-0.074c0.033-0.009,0.067,0.008,0.076,0.042
			C24.333,6.812,24.313,6.846,24.28,6.855z"/>
		<path class="st2" d="M3.77,12.641l1.926-0.53c0.055,0.1,0.171,0.152,0.282,0.121c0.136-0.037,0.213-0.174,0.176-0.307
			c-0.037-0.133-0.172-0.21-0.308-0.173c-0.107,0.029-0.179,0.126-0.178,0.236l-1.932,0.532l-1.4,2.45l-1.585,0.436
			c-0.002,0.045-0.002,0.089-0.003,0.134l1.623-0.446L3.77,12.641z M5.896,11.932c0.039-0.011,0.071,0.011,0.08,0.044
			c0.01,0.036-0.008,0.068-0.047,0.078c-0.03,0.008-0.064-0.01-0.073-0.045C5.847,11.976,5.866,11.94,5.896,11.932z"/>
		<path class="st2" d="M1.611,12.789c0.13-0.036,0.209-0.175,0.173-0.307c-0.037-0.133-0.176-0.213-0.306-0.177
			c-0.111,0.031-0.183,0.131-0.182,0.238l-0.173,0.048c-0.01,0.046-0.022,0.091-0.031,0.137l0.234-0.064
			C1.377,12.764,1.495,12.821,1.611,12.789z M1.529,12.488c0.033-0.009,0.065,0.013,0.073,0.044c0.012,0.032-0.007,0.067-0.04,0.076
			c-0.035,0.01-0.068-0.012-0.077-0.044C1.477,12.534,1.494,12.498,1.529,12.488z"/>
		<path class="st2" d="M18.672,3.186c-0.142,0.039-0.226,0.184-0.187,0.329c0.04,0.148,0.188,0.229,0.33,0.191
			c0.122-0.034,0.199-0.139,0.204-0.257l2.81-0.773l0.414-0.532l0.096-0.026c-0.053-0.024-0.106-0.048-0.159-0.072l-0.388,0.498
			l-2.811,0.773C18.925,3.21,18.798,3.151,18.672,3.186z M18.761,3.509C18.728,3.518,18.69,3.5,18.679,3.461
			c-0.009-0.034,0.014-0.068,0.047-0.077c0.036-0.01,0.075,0.006,0.084,0.041C18.822,3.464,18.797,3.499,18.761,3.509z"/>
		<path class="st2" d="M18.067,3.826c0.034-0.062,0.048-0.13,0.028-0.205c-0.04-0.144-0.186-0.226-0.327-0.187
			c-0.145,0.04-0.231,0.186-0.191,0.33c0.04,0.144,0.189,0.229,0.334,0.189c0.034-0.009,0.068-0.029,0.094-0.054l0.86,0.49
			l3.584-0.986l0.472-0.828l0.226-0.062c-0.059-0.031-0.119-0.061-0.179-0.092l-0.083,0.023l-0.472,0.828l-3.583,0.986L18.067,3.826
			z M17.857,3.758c-0.037,0.01-0.074-0.008-0.085-0.047c-0.009-0.035,0.013-0.068,0.049-0.085c0.036-0.003,0.069,0.015,0.078,0.049
			C17.91,3.715,17.891,3.748,17.857,3.758z"/>
		<path class="st2" d="M18.418,4.794l-1.256-0.718c0.035-0.062,0.046-0.129,0.025-0.205c-0.04-0.144-0.189-0.225-0.333-0.185
			c-0.14,0.038-0.225,0.184-0.185,0.328c0.039,0.144,0.187,0.23,0.328,0.191c0.041-0.011,0.072-0.03,0.101-0.056l1.355,0.772
			l4.624-1.272l0.469-0.829l0.1-0.028c-0.048-0.028-0.096-0.055-0.144-0.083l-0.46,0.812L18.418,4.794z M16.943,4.009
			c-0.031,0.008-0.069-0.015-0.078-0.049c-0.01-0.035,0.013-0.068,0.045-0.077c0.039-0.011,0.072,0.008,0.081,0.042
			C17,3.959,16.98,3.999,16.943,4.009z"/>
		<path class="st2" d="M9.076,13.113c-0.051-0.102-0.171-0.155-0.285-0.123c-0.133,0.037-0.212,0.172-0.175,0.306
			c0.036,0.132,0.175,0.211,0.308,0.175c0.111-0.03,0.183-0.132,0.185-0.24l12.61-3.469l2.877-5.053l1.272-0.35
			c-0.039-0.033-0.076-0.068-0.115-0.1L24.56,4.586l-2.876,5.057L9.076,13.113z M8.873,13.291c-0.033,0.009-0.069-0.01-0.079-0.044
			c-0.009-0.033,0.013-0.068,0.046-0.076c0.036-0.01,0.067,0.01,0.076,0.043C8.926,13.247,8.909,13.281,8.873,13.291z"/>
	</g>
	<path class="st2" d="M21.3,20.544l0.966-0.266c0.057,0.098,0.174,0.153,0.286,0.123c0.132-0.036,0.215-0.176,0.178-0.309
		c-0.037-0.133-0.178-0.21-0.311-0.174c-0.106,0.029-0.179,0.128-0.184,0.237l-0.969,0.266l-1.394,2.454l-2.126,0.585
		c0,0.043,0.003,0.085,0.003,0.128l2.157-0.593L21.3,20.544z M22.469,20.098c0.036-0.01,0.069,0.01,0.079,0.044
		c0.009,0.032-0.01,0.067-0.046,0.077c-0.028,0.007-0.068-0.012-0.077-0.044C22.415,20.142,22.441,20.106,22.469,20.098z
		 M18.619,20.189c0.13-0.036,0.209-0.175,0.173-0.307c-0.037-0.133-0.176-0.213-0.306-0.177c-0.111,0.031-0.183,0.131-0.182,0.238
		l-0.173,0.048c-0.01,0.046-0.022,0.091-0.031,0.137l0.234-0.064C18.385,20.165,18.503,20.221,18.619,20.189z M18.537,19.889
		c0.033-0.009,0.065,0.013,0.073,0.043c0.012,0.032-0.007,0.067-0.04,0.076c-0.035,0.01-0.068-0.012-0.077-0.044
		C18.485,19.934,18.502,19.899,18.537,19.889z M25.314,10.566c0.04-0.011,0.07-0.029,0.1-0.056l2.845,1.621l2.326-0.64
		c-0.013-0.043-0.028-0.086-0.042-0.129l-2.32,0.637l-2.748-1.561c0.034-0.062,0.047-0.129,0.026-0.205
		c-0.01-0.035-0.026-0.066-0.047-0.093c-0.062,0.035-0.123,0.07-0.184,0.106c0.017,0.009,0.032,0.022,0.036,0.041
		c0.01,0.035-0.014,0.075-0.046,0.084c-0.036,0.01-0.073-0.013-0.083-0.048c-0.002-0.009,0.002-0.017,0.004-0.025
		c-0.061,0.037-0.122,0.074-0.183,0.111C25.05,10.531,25.18,10.603,25.314,10.566z M27.13,10.066
		c0.042-0.012,0.073-0.03,0.101-0.056l1.354,0.772l1.59-0.437c-0.016-0.041-0.032-0.082-0.049-0.123l-1.577,0.434l-1.255-0.718
		c0.034-0.062,0.046-0.129,0.025-0.205c-0.039-0.144-0.189-0.225-0.333-0.185c-0.141,0.039-0.225,0.184-0.185,0.328
		C26.842,10.019,26.989,10.105,27.13,10.066z M27.043,9.744c0.039-0.011,0.072,0.007,0.081,0.042
		c0.01,0.035-0.011,0.074-0.048,0.084c-0.031,0.008-0.069-0.015-0.078-0.049C26.988,9.787,27.01,9.753,27.043,9.744z M21.502,21.656
		c0.03,0.005,0.068,0.004,0.102-0.005c0.137-0.038,0.214-0.171,0.177-0.307c-0.036-0.133-0.171-0.21-0.309-0.173
		c-0.129,0.035-0.208,0.172-0.172,0.304c0.018,0.067,0.065,0.119,0.117,0.151l-0.924,1.625l-2.734,0.752
		c0.001,0.041,0.001,0.084,0.003,0.125l2.763-0.76L21.502,21.656z M21.521,21.35c0.037-0.01,0.07,0.012,0.079,0.044
		c0.01,0.035-0.009,0.067-0.046,0.077c-0.034,0.009-0.065-0.008-0.074-0.044C21.471,21.395,21.488,21.359,21.521,21.35z
		 M28.044,9.815c0.035-0.01,0.068-0.029,0.094-0.055l0.86,0.49l1.024-0.282c-0.018-0.042-0.038-0.083-0.057-0.125l-1.004,0.276
		l-0.761-0.432c0.034-0.062,0.048-0.13,0.028-0.205c-0.039-0.144-0.186-0.226-0.327-0.187c-0.145,0.04-0.231,0.186-0.191,0.33
		C27.75,9.769,27.899,9.855,28.044,9.815z M27.954,9.487c0.036-0.003,0.069,0.015,0.078,0.049c0.011,0.04-0.007,0.073-0.042,0.083
		c-0.037,0.01-0.074-0.008-0.085-0.048C27.896,9.537,27.919,9.504,27.954,9.487z M19.175,19.39c0.133-0.037,0.209-0.174,0.172-0.306
		c-0.036-0.133-0.172-0.213-0.305-0.176c-0.112,0.031-0.183,0.132-0.181,0.237l-0.553,0.152c-0.014,0.048-0.028,0.095-0.041,0.144
		l0.623-0.171C18.946,19.368,19.06,19.421,19.175,19.39z M19.092,19.088c0.034-0.01,0.066,0.012,0.073,0.045
		c0.011,0.032-0.006,0.066-0.041,0.073c-0.032,0.011-0.067-0.009-0.076-0.041C19.04,19.133,19.059,19.097,19.092,19.088z
		 M26.223,10.316c0.039-0.011,0.068-0.029,0.099-0.056l2.186,1.245l1.905-0.524c-0.015-0.043-0.028-0.087-0.044-0.129l-1.897,0.522
		l-2.089-1.186c0.033-0.062,0.048-0.13,0.027-0.205c-0.038-0.14-0.181-0.219-0.32-0.187c-0.039,0.02-0.079,0.04-0.118,0.06
		c-0.075,0.066-0.113,0.168-0.084,0.27C25.929,10.27,26.078,10.356,26.223,10.316z M26.135,9.994
		c0.036-0.01,0.072,0.007,0.082,0.041c0.01,0.035-0.012,0.074-0.047,0.084c-0.036,0.01-0.076-0.013-0.086-0.048
		C26.074,10.038,26.099,10.004,26.135,9.994z M20.695,16.016l1.324-0.364c0.061,0.103,0.175,0.155,0.29,0.125
		c0.132-0.036,0.211-0.173,0.175-0.305c-0.037-0.134-0.175-0.213-0.307-0.176c-0.109,0.03-0.181,0.131-0.183,0.24l-1.33,0.366
		L20.2,15.636l-0.394,0.108c-0.03,0.052-0.06,0.104-0.09,0.157l0.518-0.142L20.695,16.016z M22.226,15.475
		c0.035-0.01,0.066,0.011,0.076,0.045c0.008,0.031-0.008,0.065-0.043,0.074c-0.037,0.01-0.068-0.011-0.076-0.042
		C22.174,15.519,22.19,15.485,22.226,15.475z M24.814,13.998c-0.03,0.054-0.044,0.123-0.025,0.19
		c0.036,0.131,0.176,0.21,0.302,0.175c0.139-0.038,0.216-0.176,0.18-0.308c-0.037-0.136-0.173-0.211-0.311-0.173
		c-0.032,0.009-0.065,0.028-0.089,0.048l-1.716-0.974l-1.692,0.466c-0.048,0.055-0.096,0.11-0.143,0.166l1.868-0.514L24.814,13.998z
		 M25.009,14.063c0.037-0.01,0.07,0.008,0.08,0.043c0.008,0.031-0.011,0.067-0.047,0.077c-0.032,0.008-0.065-0.013-0.073-0.045
		C24.959,14.103,24.977,14.071,25.009,14.063z M20.778,20.042l1.926-0.53c0.055,0.1,0.171,0.152,0.282,0.121
		c0.136-0.037,0.213-0.174,0.176-0.307c-0.037-0.133-0.172-0.21-0.308-0.173c-0.107,0.029-0.179,0.126-0.178,0.236l-1.932,0.532
		l-1.4,2.45l-1.585,0.436c-0.002,0.044-0.002,0.089-0.003,0.134l1.623-0.446L20.778,20.042z M22.904,19.332
		c0.039-0.011,0.071,0.011,0.08,0.043c0.01,0.036-0.008,0.068-0.047,0.078c-0.03,0.008-0.064-0.01-0.073-0.045
		C22.855,19.376,22.874,19.34,22.904,19.332z M25.297,15.11l0.971-0.267c0.061,0.093,0.173,0.14,0.279,0.111
		c0.133-0.036,0.216-0.174,0.179-0.308c-0.037-0.133-0.179-0.212-0.313-0.175c-0.111,0.031-0.182,0.142-0.181,0.252l-0.969,0.267
		l-2.449-1.394l-1.924,0.53c-0.042,0.055-0.087,0.109-0.128,0.165l2.085-0.574L25.297,15.11z M26.464,14.653
		c0.035-0.01,0.072,0.013,0.08,0.042c0.009,0.035-0.012,0.069-0.047,0.079c-0.029,0.008-0.067-0.01-0.076-0.044
		C26.412,14.699,26.434,14.661,26.464,14.653z M20.566,18.807l1.327-0.365c0.051,0.101,0.168,0.153,0.285,0.121
		c0.132-0.036,0.21-0.174,0.173-0.306c-0.036-0.133-0.173-0.212-0.306-0.176c-0.108,0.03-0.18,0.131-0.18,0.236l-1.333,0.367
		l-1.742,3.063l-0.981,0.27c-0.004,0.044-0.007,0.089-0.01,0.134l1.025-0.282L20.566,18.807z M22.095,18.262
		c0.035-0.01,0.068,0.012,0.077,0.044c0.009,0.032-0.008,0.066-0.043,0.076c-0.032,0.007-0.067-0.011-0.076-0.043
		C22.042,18.306,22.063,18.271,22.095,18.262z M19.682,18.42c0.132-0.036,0.212-0.177,0.175-0.311
		c-0.035-0.129-0.174-0.206-0.307-0.169c-0.109,0.03-0.181,0.127-0.181,0.235l-0.778,0.214c-0.016,0.046-0.032,0.092-0.047,0.139
		l0.852-0.234C19.45,18.395,19.571,18.451,19.682,18.42z M19.6,18.121c0.035-0.014,0.069,0.008,0.077,0.038
		c0.009,0.033-0.011,0.065-0.046,0.074c-0.032,0.009-0.067-0.008-0.076-0.041C19.547,18.162,19.567,18.126,19.6,18.121z
		 M28.948,9.566c0.122-0.034,0.199-0.139,0.204-0.257l0.498-0.137c-0.021-0.042-0.042-0.083-0.064-0.124l-0.471,0.13
		c-0.058-0.106-0.184-0.165-0.31-0.131c-0.143,0.039-0.227,0.185-0.187,0.329C28.659,9.523,28.806,9.605,28.948,9.566z M28.86,9.244
		c0.035-0.01,0.075,0.007,0.085,0.041c0.011,0.04-0.014,0.075-0.05,0.085c-0.033,0.009-0.07-0.009-0.082-0.049
		C28.803,9.287,28.827,9.254,28.86,9.244z M25.881,20.692c-0.033,0.009-0.069-0.01-0.079-0.044
		c-0.009-0.033,0.013-0.068,0.046-0.076c0.036-0.01,0.067,0.01,0.076,0.043C25.934,20.648,25.917,20.682,25.881,20.692z
		 M22.957,22.722c0.033,0.005,0.074,0.002,0.106-0.007c0.133-0.037,0.209-0.174,0.172-0.307c-0.036-0.133-0.172-0.211-0.305-0.175
		c-0.133,0.037-0.213,0.174-0.176,0.307c0.018,0.066,0.063,0.121,0.117,0.153l-0.918,1.62l-4.07,1.12
		c0.005,0.042,0.01,0.083,0.016,0.125l4.087-1.124L22.957,22.722z M22.98,22.415c0.033-0.009,0.064,0.011,0.073,0.044
		c0.009,0.034-0.008,0.065-0.041,0.074c-0.032,0.009-0.067-0.008-0.076-0.042C22.927,22.458,22.947,22.424,22.98,22.415z
		 M25.517,12.339c-0.032,0.055-0.044,0.124-0.026,0.192c0.037,0.133,0.177,0.207,0.31,0.17c0.13-0.036,0.212-0.17,0.175-0.304
		c-0.037-0.133-0.176-0.212-0.306-0.176c-0.033,0.009-0.069,0.026-0.094,0.05l-1.71-0.975l-0.233,0.064
		c-0.085,0.066-0.17,0.131-0.253,0.199l0.519-0.143L25.517,12.339z M25.719,12.403c0.033-0.009,0.064,0.011,0.074,0.045
		c0.009,0.033-0.008,0.065-0.041,0.074c-0.032,0.009-0.067-0.009-0.076-0.042C25.667,12.446,25.687,12.412,25.719,12.403z"/>
	
		<radialGradient id="SVGID_00000178195180813858098660000010475180472210694295_" cx="16.309" cy="2.2722" r="55.3441" gradientUnits="userSpaceOnUse">
		<stop  offset="0" style="stop-color:#FBB75C"/>
		<stop  offset="0.0077" style="stop-color:#FBB55A"/>
		<stop  offset="0.2043" style="stop-color:#F48120"/>
		<stop  offset="0.2697" style="stop-color:#E7691F"/>
		<stop  offset="0.358" style="stop-color:#D94E1F"/>
		<stop  offset="0.4367" style="stop-color:#D13E1E"/>
		<stop  offset="0.4974" style="stop-color:#CE381E"/>
		<stop  offset="0.5442" style="stop-color:#B7372F"/>
		<stop  offset="0.6536" style="stop-color:#863552"/>
		<stop  offset="0.7574" style="stop-color:#60336D"/>
		<stop  offset="0.8527" style="stop-color:#453281"/>
		<stop  offset="0.9366" style="stop-color:#34318D"/>
		<stop  offset="1" style="stop-color:#2E3191"/>
	</radialGradient>
	<path style="fill:url(#SVGID_00000178195180813858098660000010475180472210694295_);" d="M15.999,0.737
		c8.141,0,14.74,6.6,14.74,14.741c0,8.14-6.6,14.739-14.74,14.739c-8.141,0-14.739-6.599-14.739-14.739
		C1.26,7.336,7.859,0.737,15.999,0.737c-8.43,0-15.263,6.834-15.263,15.264c0,8.43,6.833,15.263,15.263,15.263
		c8.43,0,15.264-6.833,15.264-15.263C31.263,7.571,24.429,0.737,15.999,0.737z"/>
	
		<linearGradient id="SVGID_00000151518053200981388160000007598776714808193715_" gradientUnits="userSpaceOnUse" x1="13.5818" y1="7.3534" x2="16.9999" y2="19.5757">
		<stop  offset="0" style="stop-color:#000036"/>
		<stop  offset="0.1505" style="stop-color:#008FD5"/>
		<stop  offset="0.2175" style="stop-color:#0D4B9F"/>
		<stop  offset="0.3358" style="stop-color:#213589"/>
		<stop  offset="0.5347" style="stop-color:#111B62"/>
		<stop  offset="0.6989" style="stop-color:#008FD5"/>
		<stop  offset="0.8412" style="stop-color:#213589"/>
		<stop  offset="1" style="stop-color:#000036"/>
	</linearGradient>
	<path style="fill:url(#SVGID_00000151518053200981388160000007598776714808193715_);" d="M4.702,16C4.702,9.76,9.76,4.702,16,4.702
		c6.24,0,11.298,5.058,11.298,11.298c0,6.24-5.059,11.298-11.298,11.298C9.76,27.298,4.702,22.24,4.702,16z"/>
	<g>
		<g>
			
				<linearGradient id="SVGID_00000080886550607097553950000016048889187251030963_" gradientUnits="userSpaceOnUse" x1="5.2783" y1="16" x2="26.7217" y2="16">
				<stop  offset="0" style="stop-color:#213589"/>
				<stop  offset="0.9863" style="stop-color:#111B62"/>
			</linearGradient>
			<path style="fill:url(#SVGID_00000080886550607097553950000016048889187251030963_);" d="M5.278,16
				c0-5.922,4.8-10.722,10.721-10.722c5.921,0,10.722,4.8,10.722,10.722c0,5.921-4.801,10.721-10.722,10.721
				C10.078,26.722,5.278,21.922,5.278,16z"/>
			
				<linearGradient id="SVGID_00000088827299134329209290000001540118546620168361_" gradientUnits="userSpaceOnUse" x1="18.103" y1="24.1291" x2="14.4371" y2="7.8101">
				<stop  offset="0" style="stop-color:#FFFFFF"/>
				<stop  offset="1" style="stop-color:#FFFFFF;stop-opacity:0"/>
			</linearGradient>
			<path style="fill:url(#SVGID_00000088827299134329209290000001540118546620168361_);" d="M5.329,14.951
				c1.988,3.632,5.845,6.094,10.276,6.094c4.925,0,9.136-3.042,10.866-7.349C25.417,8.883,21.13,5.278,16,5.278
				C10.433,5.278,5.857,9.522,5.329,14.951z"/>
			
				<linearGradient id="SVGID_00000003088984263196546540000012815965911583720070_" gradientUnits="userSpaceOnUse" x1="13.7031" y1="5.0348" x2="15.5675" y2="12.6996">
				<stop  offset="0" style="stop-color:#FFFFFF"/>
				<stop  offset="1" style="stop-color:#FFFFFF;stop-opacity:0"/>
			</linearGradient>
			<path style="fill:url(#SVGID_00000003088984263196546540000012815965911583720070_);" d="M7.741,14.069
				c0-4.507,3.653-8.159,8.16-8.159c4.506,0,8.159,3.653,8.159,8.159c0,4.506-3.653,8.159-8.159,8.159
				C11.394,22.228,7.741,18.575,7.741,14.069z"/>
			
				<linearGradient id="SVGID_00000070089011187988034420000000605977516368429463_" gradientUnits="userSpaceOnUse" x1="1550.4218" y1="-304.0113" x2="1550.4218" y2="-289.5111" gradientTransform="matrix(-1 0 0 -1 1566.5 -274)">
				<stop  offset="0" style="stop-color:#FFFFFF"/>
				<stop  offset="1" style="stop-color:#FFFFFF;stop-opacity:0"/>
			</linearGradient>
			<path style="opacity:0.6;fill:url(#SVGID_00000070089011187988034420000000605977516368429463_);" d="M22.966,19.479
				c0,3.804-3.084,6.889-6.888,6.889S9.19,23.283,9.19,19.479c0-3.804,3.084-6.888,6.888-6.888S22.966,15.675,22.966,19.479z"/>
			<g>
				
					<radialGradient id="SVGID_00000052788913265974018050000013352915545407845033_" cx="-121.2778" cy="525.2465" r="3.548" gradientTransform="matrix(0.3086 0.3198 -0.7196 0.6944 438.3309 -307.9752)" gradientUnits="userSpaceOnUse">
					<stop  offset="0.1989" style="stop-color:#FFFFFF"/>
					<stop  offset="0.2283" style="stop-color:#FFFFFF;stop-opacity:0.9633"/>
					<stop  offset="1" style="stop-color:#FFFFFF;stop-opacity:0"/>
				</radialGradient>
				<path style="fill:url(#SVGID_00000052788913265974018050000013352915545407845033_);" d="M21.842,16.837
					c1.41-1.36,3.043-1.955,3.648-1.329c0.604,0.627-0.048,2.238-1.457,3.599c-1.411,1.36-3.043,1.955-3.648,1.329
					C19.779,19.808,20.432,18.197,21.842,16.837z"/>
				
					<radialGradient id="SVGID_00000039127014052958443320000014615594494759727783_" cx="-121.2784" cy="525.2468" r="2.7489" gradientTransform="matrix(0.3086 0.3198 -0.7196 0.6944 438.3309 -307.9752)" gradientUnits="userSpaceOnUse">
					<stop  offset="0.1989" style="stop-color:#FFFFFF"/>
					<stop  offset="0.2283" style="stop-color:#FFFFFF;stop-opacity:0.9633"/>
					<stop  offset="1" style="stop-color:#FFFFFF;stop-opacity:0"/>
				</radialGradient>
				<path style="fill:url(#SVGID_00000039127014052958443320000014615594494759727783_);" d="M22.088,17.092
					c1.093-1.054,2.358-1.515,2.826-1.03c0.469,0.485-0.037,1.734-1.129,2.788c-1.093,1.054-2.358,1.515-2.826,1.03
					C20.491,19.395,20.996,18.146,22.088,17.092z"/>
				
					<radialGradient id="SVGID_00000118389730411654701600000010007739221052166309_" cx="-121.2788" cy="525.2465" r="1.636" gradientTransform="matrix(0.3086 0.3198 -0.7196 0.6944 438.3309 -307.9752)" gradientUnits="userSpaceOnUse">
					<stop  offset="0.1989" style="stop-color:#FFFFFF"/>
					<stop  offset="0.2283" style="stop-color:#FFFFFF;stop-opacity:0.9633"/>
					<stop  offset="1" style="stop-color:#FFFFFF;stop-opacity:0"/>
				</radialGradient>
				<path style="fill:url(#SVGID_00000118389730411654701600000010007739221052166309_);" d="M22.432,17.447
					c0.65-0.627,1.403-0.901,1.682-0.612c0.279,0.289-0.022,1.032-0.672,1.659c-0.65,0.627-1.403,0.902-1.682,0.613
					C21.481,18.818,21.782,18.075,22.432,17.447z"/>
			</g>
			<g>
				
					<radialGradient id="SVGID_00000161603667375903729400000005132799537646437260_" cx="203.9819" cy="525.7788" r="3.5477" gradientTransform="matrix(0.5236 0.5426 -0.7196 0.6944 285.6531 -466.1664)" gradientUnits="userSpaceOnUse">
					<stop  offset="0.1989" style="stop-color:#FFFFFF"/>
					<stop  offset="0.2283" style="stop-color:#FFFFFF;stop-opacity:0.9633"/>
					<stop  offset="1" style="stop-color:#FFFFFF;stop-opacity:0"/>
				</radialGradient>
				<path style="fill:url(#SVGID_00000161603667375903729400000005132799537646437260_);" d="M12.25,7.69
					c1.41-1.36,3.385-1.602,4.411-0.539c1.026,1.063,0.715,3.028-0.695,4.389c-1.41,1.36-3.385,1.601-4.41,0.539
					C10.529,11.015,10.84,9.05,12.25,7.69z"/>
				
					<radialGradient id="SVGID_00000062915135140556805960000001977166275500029616_" cx="203.9818" cy="525.7783" r="2.7489" gradientTransform="matrix(0.5236 0.5426 -0.7196 0.6944 285.6531 -466.1664)" gradientUnits="userSpaceOnUse">
					<stop  offset="0.1989" style="stop-color:#FFFFFF"/>
					<stop  offset="0.2283" style="stop-color:#FFFFFF;stop-opacity:0.9633"/>
					<stop  offset="1" style="stop-color:#FFFFFF;stop-opacity:0"/>
				</radialGradient>
				<path style="fill:url(#SVGID_00000062915135140556805960000001977166275500029616_);" d="M12.668,8.123
					c1.092-1.054,2.622-1.241,3.417-0.418c0.795,0.824,0.554,2.347-0.539,3.401c-1.093,1.055-2.622,1.241-3.418,0.417
					C11.335,10.699,11.576,9.177,12.668,8.123z"/>
				
					<radialGradient id="SVGID_00000148659550381960472000000000304636207312834951_" cx="203.9817" cy="525.7784" r="1.6359" gradientTransform="matrix(0.5236 0.5426 -0.7196 0.6944 285.6531 -466.1664)" gradientUnits="userSpaceOnUse">
					<stop  offset="0.1989" style="stop-color:#FFFFFF"/>
					<stop  offset="0.2283" style="stop-color:#FFFFFF;stop-opacity:0.9633"/>
					<stop  offset="1" style="stop-color:#FFFFFF;stop-opacity:0"/>
				</radialGradient>
				<path style="fill:url(#SVGID_00000148659550381960472000000000304636207312834951_);" d="M13.251,8.727
					c0.65-0.628,1.561-0.739,2.034-0.248c0.472,0.49,0.329,1.396-0.321,2.023c-0.65,0.627-1.561,0.739-2.034,0.248
					C12.457,10.26,12.601,9.354,13.251,8.727z"/>
			</g>
			<g>
				
					<radialGradient id="SVGID_00000062176780879753640710000011221179083747479428_" cx="1443.3157" cy="440.9655" r="3.5478" gradientTransform="matrix(-0.3868 0.6473 -0.8584 -0.5129 948.3845 -685.6218)" gradientUnits="userSpaceOnUse">
					<stop  offset="0.1989" style="stop-color:#FFFFFF"/>
					<stop  offset="0.2283" style="stop-color:#FFFFFF;stop-opacity:0.9633"/>
					<stop  offset="1" style="stop-color:#FFFFFF;stop-opacity:0"/>
				</radialGradient>
				<path style="fill:url(#SVGID_00000062176780879753640710000011221179083747479428_);" d="M12.957,20.168
					c1.682,1.005,2.431,2.848,1.674,4.116c-0.758,1.269-2.736,1.482-4.418,0.477c-1.682-1.005-2.431-2.848-1.673-4.116
					C9.297,19.376,11.275,19.163,12.957,20.168z"/>
				
					<radialGradient id="SVGID_00000124884738773035807140000012572766171494549664_" cx="1443.3157" cy="440.9656" r="2.7487" gradientTransform="matrix(-0.3868 0.6473 -0.8584 -0.5129 948.3845 -685.6218)" gradientUnits="userSpaceOnUse">
					<stop  offset="0.1989" style="stop-color:#FFFFFF"/>
					<stop  offset="0.2283" style="stop-color:#FFFFFF;stop-opacity:0.9633"/>
					<stop  offset="1" style="stop-color:#FFFFFF;stop-opacity:0"/>
				</radialGradient>
				<path style="fill:url(#SVGID_00000124884738773035807140000012572766171494549664_);" d="M12.648,20.686
					c1.303,0.778,1.884,2.207,1.297,3.189c-0.587,0.983-2.12,1.148-3.423,0.37c-1.303-0.778-1.883-2.207-1.296-3.189
					C9.813,20.072,11.345,19.907,12.648,20.686z"/>
				
					<radialGradient id="SVGID_00000166675454005486800910000000096934419382752696_" cx="1443.3153" cy="440.9655" r="1.6359" gradientTransform="matrix(-0.3868 0.6473 -0.8584 -0.5129 948.3845 -685.6218)" gradientUnits="userSpaceOnUse">
					<stop  offset="0.1989" style="stop-color:#FFFFFF"/>
					<stop  offset="0.2283" style="stop-color:#FFFFFF;stop-opacity:0.9633"/>
					<stop  offset="1" style="stop-color:#FFFFFF;stop-opacity:0"/>
				</radialGradient>
				<path style="fill:url(#SVGID_00000166675454005486800910000000096934419382752696_);" d="M12.218,21.406
					c0.776,0.463,1.121,1.313,0.772,1.898c-0.35,0.585-1.261,0.683-2.037,0.22c-0.776-0.463-1.121-1.313-0.771-1.898
					C10.53,21.041,11.442,20.942,12.218,21.406z"/>
			</g>
		</g>
	</g>
	<path id="SVGID_x5F_00000162310624033933495290000013872188890862917822_x5F_" class="st18" d="M1.913,16.948
		c0.523,7.78,7.254,13.663,15.034,13.139c7.781-0.523,13.664-7.254,13.14-15.034c-0.523-7.78-7.255-13.664-15.036-13.14
		C7.271,2.436,1.389,9.168,1.913,16.948z"/>
	<text>	<textPath  xlink:href="#SVGID_x5F_00000162310624033933495290000013872188890862917822_x5F_" startOffset="5342.6621%">
<tspan  class="st2" style="font-family:'HandelGothic'; font-size:2.8447px;">TheRefiningCompany.com</tspan>	</textPath>
</text>
	<g>
		
			<linearGradient id="SVGID_00000124881448062328968570000002730313594309572763_" gradientUnits="userSpaceOnUse" x1="16.0701" y1="6.5891" x2="15.1033" y2="13.5979">
			<stop  offset="0" style="stop-color:#000036"/>
			<stop  offset="0.1505" style="stop-color:#008FD5"/>
			<stop  offset="0.2175" style="stop-color:#0D4B9F"/>
			<stop  offset="0.3358" style="stop-color:#213589"/>
			<stop  offset="0.5347" style="stop-color:#111B62"/>
			<stop  offset="0.6989" style="stop-color:#008FD5"/>
			<stop  offset="0.8412" style="stop-color:#213589"/>
			<stop  offset="1" style="stop-color:#000036"/>
		</linearGradient>
		<path style="fill:url(#SVGID_00000124881448062328968570000002730313594309572763_);" d="M14.992,3.482
			c0,0,2.631,2.789,2.248,5.061c-0.483,2.866-2.175,4.178-2.175,4.972s1.278,0.725,1.519,0.276
			c-0.138,0.829-1.036,1.623-1.795,1.139s-0.828-3.004,0.035-4.281C15.686,9.372,17.163,7.57,14.992,3.482z"/>
		<g>
			
				<linearGradient id="SVGID_00000139976920646490996570000007857275194008187266_" gradientUnits="userSpaceOnUse" x1="-50.7315" y1="233.8466" x2="-50.7315" y2="236.1683" gradientTransform="matrix(0.9685 0.249 -0.249 0.9685 120.3083 -194.6686)">
				<stop  offset="0" style="stop-color:#000036"/>
				<stop  offset="0.1505" style="stop-color:#008FD5"/>
				<stop  offset="0.2175" style="stop-color:#0D4B9F"/>
				<stop  offset="0.3358" style="stop-color:#213589"/>
				<stop  offset="0.5347" style="stop-color:#111B62"/>
				<stop  offset="0.6989" style="stop-color:#008FD5"/>
				<stop  offset="0.8412" style="stop-color:#213589"/>
				<stop  offset="1" style="stop-color:#000036"/>
			</linearGradient>
			<path style="fill:url(#SVGID_00000139976920646490996570000007857275194008187266_);" d="M12.06,21.976
				c0,0,0.174-1.946,1.247-2.442c1.073-0.497,0.613-2.531-0.053-2.582C12.587,16.9,11.578,20.026,12.06,21.976z"/>
			
				<linearGradient id="SVGID_00000014628889388190211570000015420499858147666565_" gradientUnits="userSpaceOnUse" x1="-47.3137" y1="225.732" x2="-45.1757" y2="229.846" gradientTransform="matrix(0.9685 0.249 -0.249 0.9685 120.3083 -194.6686)">
				<stop  offset="0" style="stop-color:#000036"/>
				<stop  offset="0.1505" style="stop-color:#008FD5"/>
				<stop  offset="0.2175" style="stop-color:#0D4B9F"/>
				<stop  offset="0.3358" style="stop-color:#213589"/>
				<stop  offset="0.5347" style="stop-color:#111B62"/>
				<stop  offset="0.6989" style="stop-color:#008FD5"/>
				<stop  offset="0.8412" style="stop-color:#213589"/>
				<stop  offset="1" style="stop-color:#000036"/>
			</linearGradient>
			<path style="fill:url(#SVGID_00000014628889388190211570000015420499858147666565_);" d="M20.059,7.314c0,0-1.181,1.331,0,3.865
				c1.01,2.165,1.462,3.842,0.166,5.77c-0.826,1.229-2.036,1.411-2.013,1.719c0.023,0.307,1.56,0.482,2.061-0.199
				c-0.552,0.87-2.734,1.777-3.16,1.137c-0.425-0.64,1.602-3.059,1.998-4.135c0.396-1.076,0.535-1.98-0.073-3.771
				C18.431,9.909,18.134,9.009,20.059,7.314z"/>
			
				<linearGradient id="SVGID_00000142164555683991357650000017553345697247500685_" gradientUnits="userSpaceOnUse" x1="20.2789" y1="19.2706" x2="15.6983" y2="23.0091">
				<stop  offset="0" style="stop-color:#000036"/>
				<stop  offset="0.1505" style="stop-color:#008FD5"/>
				<stop  offset="0.2175" style="stop-color:#0D4B9F"/>
				<stop  offset="0.3358" style="stop-color:#213589"/>
				<stop  offset="0.5347" style="stop-color:#111B62"/>
				<stop  offset="0.6989" style="stop-color:#008FD5"/>
				<stop  offset="0.8412" style="stop-color:#213589"/>
				<stop  offset="1" style="stop-color:#000036"/>
			</linearGradient>
			<path style="fill:url(#SVGID_00000142164555683991357650000017553345697247500685_);" d="M14.463,25.245
				c0,0,0.118-1.47,2.293-2.489c2.175-1.018,4.178-2.662,4.109-5.191c-0.518,1.38-2.658,3.22-3.936,3.845
				C15.651,22.033,13.689,23.626,14.463,25.245z"/>
			
				<radialGradient id="SVGID_00000070119026369428775770000012890282292270428846_" cx="-57.5028" cy="199.3004" r="29.3113" gradientTransform="matrix(0.9685 0.237 -0.249 0.9217 120.3083 -165.0213)" gradientUnits="userSpaceOnUse">
				<stop  offset="0" style="stop-color:#FBB75C"/>
				<stop  offset="0.0132" style="stop-color:#FBB55A"/>
				<stop  offset="0.3495" style="stop-color:#F48120"/>
				<stop  offset="0.4112" style="stop-color:#E7691F"/>
				<stop  offset="0.4947" style="stop-color:#D94E1F"/>
				<stop  offset="0.5691" style="stop-color:#D13E1E"/>
				<stop  offset="0.6264" style="stop-color:#CE381E"/>
				<stop  offset="0.6612" style="stop-color:#B7372F"/>
				<stop  offset="0.7426" style="stop-color:#863552"/>
				<stop  offset="0.8197" style="stop-color:#60336D"/>
				<stop  offset="0.8905" style="stop-color:#453281"/>
				<stop  offset="0.9529" style="stop-color:#34318D"/>
				<stop  offset="1" style="stop-color:#2E3191"/>
			</radialGradient>
			<path style="fill:url(#SVGID_00000070119026369428775770000012890282292270428846_);" d="M12.06,21.976
				c0,0-3.174-4.937,1.241-10.151c3.447-4.071,1.691-8.343,1.691-8.343s2.821,3.46,1.142,6.892
				c-1.303,2.664-1.933,3.275-1.104,4.004c0.458,0.404,2.113-0.093,1.069-2.136c0,0,1.399,1.772,1.17,2.967
				c-0.229,1.195,2.295-0.153,1.233-2.826c-1.062-2.672,0.095-4.176,1.558-5.069c0,0-1.664,1.291-0.229,4.323
				c1.434,3.031,0.002,5.898-1.679,6.558c-1.681,0.661,1.681,2.467,2.788-1.283c0,0,0.005,2.414-2.101,3.954
				c-2.106,1.539-4.471,2.301-4.376,4.379c-2.3-2.261-1.837-5.364-1.379-7.754C13.084,17.491,11.738,20.736,12.06,21.976z"/>
			<path class="st2" d="M15.38,4.65c0,0,1.056,3.564-1.659,7.01c-2.715,3.446-2.781,5.083-2.036,8.929c0,0,0.484-3.009,1.701-3.515
				c-0.674,1.801-0.404,5.665,0.775,7.383c-0.415-2.112-1.059-6.157,0.012-8.039c-0.847-0.341-2.167,0.899-2.36,1.612
				c0.053-2.802,0.74-3.259,2.824-6.458C16.722,8.374,16.14,6.355,15.38,4.65z"/>
			<path class="st2" d="M19.044,8.551c0,0-1.05,1.15-0.649,2.924c0.401,1.774,0.917,2.47,0.388,3.513
				c-0.528,1.044-1.38,1.07-1.791,0.634c-0.41-0.435,0.4-1.611-0.503-2.569c0,0,0.342,0.821,0.171,1.583
				c-0.171,0.762-0.014,2.007,1.235,1.944c1.249-0.063,2.048-1.845,1.465-3.596c0,0,0.698,0.673,0.62,1.224
				c0.238-0.88-0.317-1.954-0.603-2.459C19.091,11.243,18.255,10.167,19.044,8.551z"/>
		</g>
	</g>
	<g>
		
			<linearGradient id="SVGID_00000038412112274395681730000003227753482707484592_" gradientUnits="userSpaceOnUse" x1="15.8117" y1="-31.0153" x2="16.3977" y2="-24.4219" gradientTransform="matrix(1 -0.0471 0 1 0 43.0524)">
			<stop  offset="0" style="stop-color:#000036"/>
			<stop  offset="0.239" style="stop-color:#0D4B9F"/>
			<stop  offset="0.4194" style="stop-color:#000036"/>
			<stop  offset="0.5992" style="stop-color:#111B62"/>
			<stop  offset="0.7766" style="stop-color:#213589"/>
			<stop  offset="1" style="stop-color:#000036"/>
		</linearGradient>
		<path style="fill:url(#SVGID_00000038412112274395681730000003227753482707484592_);" d="M26.182,12.139
			c-0.363-0.468-0.932-0.634-1.629-0.465L5.72,16.288l1.071,0.566c-0.114,0.253-0.171,0.521-0.171,0.8
			c0,0.445,0.131,0.792,0.392,1.032c0.001,0.001,0.002,0.002,0.003,0.003l-0.664,2.729l2.739-0.664
			c0.532-0.129,0.977-0.394,1.322-0.789c0.104-0.119,0.193-0.243,0.268-0.371c0.44,0.398,1.032,0.525,1.716,0.359l5.708-1.383
			l0.153-0.037l0.918-0.223l0.265-0.836l0.958-0.234l0.277,0.707l1.295-0.313l0.653-0.158l1.617-0.392l-0.302-1.075v-0.476
			l0.869-0.211c0.468-0.114,0.862-0.357,1.175-0.725c0.349-0.414,0.526-0.895,0.526-1.43C26.508,12.768,26.399,12.423,26.182,12.139
			z"/>
		<g>
			<g>
				
					<radialGradient id="SVGID_00000135677526046142013810000015447523835681184391_" cx="16.8433" cy="-29.0843" r="16.0702" gradientTransform="matrix(1 -0.0471 0 1 0 43.0523)" gradientUnits="userSpaceOnUse">
					<stop  offset="0" style="stop-color:#FFFFFF"/>
					<stop  offset="0.6613" style="stop-color:#747678"/>
					<stop  offset="1" style="stop-color:#B4B6B8"/>
				</radialGradient>
				<path style="fill:url(#SVGID_00000135677526046142013810000015447523835681184391_);" d="M25.767,12.367
					c-0.25-0.32-0.626-0.419-1.132-0.297l-2.91,0.705l0.65,0.34v3.147l-0.173,0.702L21.85,16.39l-1.268-3.338l-1.739,0.421
					l0.504,0.269l-1.109,3.53l-0.201,0.44l-0.949-0.926l-0.561-0.062l0.108-0.026c0.336-0.082,0.619-0.244,0.848-0.489
					c0.299-0.321,0.448-0.706,0.448-1.155c0-0.287-0.074-0.529-0.221-0.728c-0.246-0.325-0.623-0.426-1.132-0.303l-2.61,0.633v0
					l-3.085,0.748l0.487,0.131c-0.158,0.14-0.303,0.303-0.431,0.489c-0.321,0.485-0.481,1.03-0.481,1.634
					c0,0.54,0.134,0.975,0.403,1.307c0.339,0.424,0.815,0.562,1.426,0.413l1.885-0.457c-0.038-0.138-0.096-0.347-0.175-0.625
					c-0.079-0.276-0.138-0.484-0.176-0.626l-0.35,0.753l-0.759,0.185c-0.306,0.07-0.56,0.015-0.764-0.166
					c-0.245-0.224-0.368-0.571-0.368-1.043c0-0.336,0.07-0.654,0.209-0.952c0.212-0.447,0.521-0.72,0.928-0.819l0.81-0.196
					l0.442,0.152v-0.828l0.521,0.272v3.147l-0.175,0.711l1.398-0.339l-0.176-0.626v-0.707l-0.191-0.475l1.381,1.331l-0.057,0.246
					l1.229-0.298l0,0l0.878-0.213l0.204-0.645l-0.351-0.09l2.071-0.508l0.277,0.708l1.229-0.297l0-0.001l1.391-0.337l-0.176-0.625
					v-0.957l1.275-0.309c0.357-0.086,0.655-0.27,0.894-0.551c0.268-0.318,0.402-0.682,0.402-1.093
					C25.993,12.808,25.918,12.564,25.767,12.367z M16.154,16.151l-0.618,0.15v-1.109l-0.645-0.092l1.257-0.305
					c0.144-0.035,0.27-0.028,0.379,0.022c0.181,0.088,0.272,0.254,0.272,0.499c0,0.109-0.022,0.222-0.068,0.334
					C16.622,15.917,16.429,16.084,16.154,16.151z M19.263,16.242l0.401-1.292l0.068-0.945l0.735,1.945L19.263,16.242z M24.793,13.69
					c-0.105,0.271-0.298,0.44-0.577,0.508l-0.794,0.192v-1.109l-0.645-0.093l1.433-0.347c0.14-0.034,0.264-0.029,0.373,0.017
					c0.182,0.084,0.272,0.252,0.272,0.505C24.855,13.472,24.835,13.582,24.793,13.69z M9.201,17.508
					c-0.4,0.007-0.612,0.009-0.634,0.007c-0.238-0.018-0.356-0.104-0.356-0.26c0-0.079,0.017-0.158,0.05-0.238
					c0.103-0.232,0.291-0.382,0.566-0.448l0.81-0.196l0.441,0.153v-0.928l-2.989,0.724l0.493,0.129
					c-0.027,0.025-0.055,0.055-0.085,0.088c-0.26,0.305-0.39,0.639-0.39,1.001c0,0.306,0.079,0.532,0.237,0.678
					c0.17,0.155,0.474,0.231,0.911,0.227c0.385-0.006,0.604-0.007,0.657,0c0.269,0.033,0.402,0.155,0.402,0.366
					c0,0.096-0.024,0.191-0.074,0.29c-0.136,0.263-0.383,0.438-0.742,0.525l-0.792,0.192l-0.351-0.583L7.01,20.654l1.97-0.478
					c0.426-0.103,0.775-0.311,1.048-0.622c0.283-0.325,0.424-0.682,0.424-1.07c0-0.321-0.085-0.562-0.255-0.725
					C10.013,17.585,9.68,17.502,9.201,17.508z"/>
			</g>
		</g>
		<path class="st26" d="M14.177,14.847l0.326,0.17v3.147l-0.156,0.63c0.007,0.025,0.013,0.049,0.02,0.071l0.171-0.041l0.16-0.651
			v-3.148l-0.521-0.273V14.847z M19.053,13.472l1.562-0.379l-0.019-0.051l-1.738,0.421l0.504,0.268l-1.11,3.53l-0.143,0.313
			l0.138,0.135l0.2-0.44l1.11-3.53L19.053,13.472z M19.911,14.432l0.571,1.508l-0.992,0.24l-0.018,0.061l1.206-0.292l-0.736-1.945
			L19.911,14.432z M16.737,14.815c-0.085-0.038-0.18-0.05-0.285-0.038c0.031,0.007,0.061,0.017,0.089,0.029
			c0.181,0.088,0.272,0.255,0.272,0.5c0,0.11-0.022,0.221-0.068,0.334c-0.11,0.268-0.302,0.435-0.578,0.502l-0.421,0.103V16.3
			l0.617-0.149c0.275-0.067,0.468-0.234,0.578-0.503c0.045-0.113,0.068-0.224,0.068-0.333
			C17.009,15.069,16.918,14.903,16.737,14.815z M24.845,12.069c0.121-0.029,0.234-0.045,0.34-0.049
			c-0.159-0.02-0.337-0.008-0.536,0.041l-2.91,0.705l0.651,0.341v3.148l-0.119,0.482l0.115,0.187l0.039-0.01l0.161-0.651v-3.147
			l-0.651-0.341L24.845,12.069z M13.635,15.453l0.346,0.12v-0.059l-0.246-0.085L13.635,15.453z M24.794,12.856
			c-0.084-0.035-0.176-0.045-0.278-0.034c0.028,0.007,0.055,0.015,0.082,0.026c0.181,0.084,0.272,0.253,0.272,0.506
			c0,0.109-0.021,0.218-0.062,0.326c-0.106,0.271-0.298,0.441-0.578,0.508l-0.597,0.145v0.056l0.792-0.192
			c0.28-0.067,0.472-0.237,0.578-0.508c0.041-0.108,0.062-0.217,0.062-0.326C25.065,13.109,24.975,12.941,24.794,12.856z
			 M13.484,18.412l-0.759,0.184c-0.063,0.015-0.123,0.022-0.182,0.026c0.116,0.019,0.242,0.014,0.378-0.018l0.759-0.184l0.229-0.492
			c-0.03-0.107-0.055-0.197-0.074-0.27L13.484,18.412z M7.596,16.442c-0.027,0.025-0.055,0.055-0.085,0.088
			c-0.261,0.305-0.391,0.638-0.391,1c0,0.306,0.08,0.532,0.238,0.679c0.16,0.146,0.44,0.22,0.837,0.225
			c-0.295-0.024-0.509-0.096-0.642-0.216c-0.158-0.147-0.238-0.373-0.238-0.679c0-0.362,0.13-0.696,0.391-1
			c0.03-0.034,0.059-0.063,0.085-0.089l-0.493-0.13l2.793-0.677v-0.056l-2.989,0.724L7.596,16.442z M15.673,17.032l1.066,1.026
			l-0.057,0.246l0.209-0.051l0.043-0.187l-1.381-1.329L15.673,17.032z M16.592,14.013l-2.74,0.664l-2.955,0.716l0.487,0.132
			c-0.159,0.14-0.302,0.303-0.43,0.489c-0.321,0.485-0.481,1.03-0.481,1.634c0,0.066,0.002,0.13,0.006,0.192
			c-0.019,0.456,0.181,0.72,0.178,0.757c0.059,0.13,0.13,0.25,0.217,0.357c0.259,0.323,0.597,0.479,1.013,0.47
			c-0.327-0.037-0.6-0.19-0.817-0.461c-0.268-0.331-0.402-0.767-0.402-1.306c0-0.604,0.161-1.149,0.481-1.634
			c0.128-0.186,0.272-0.349,0.43-0.489l-0.487-0.131l2.955-0.716l2.74-0.664c0.121-0.03,0.234-0.046,0.341-0.049
			C16.97,13.951,16.791,13.964,16.592,14.013z M20.734,16.604l0.257,0.657l0.176-0.043l-0.257-0.657L20.734,16.604z M9.745,16.396
			l0.347,0.12v-0.059l-0.246-0.085L9.745,16.396z M9.508,17.508c-0.091-0.007-0.188-0.011-0.293-0.01
			c-0.235,0.004-0.403,0.006-0.507,0.007c0.022,0.003,0.044,0.006,0.069,0.009c0.023,0.002,0.234,0,0.634-0.006
			C9.444,17.507,9.476,17.508,9.508,17.508z M9.122,18.443c-0.024-0.003-0.083-0.004-0.172-0.004
			c0.251,0.038,0.378,0.158,0.378,0.362c0,0.095-0.024,0.192-0.073,0.29c-0.136,0.263-0.383,0.438-0.741,0.525l-0.627,0.152
			l0.03,0.049l0.793-0.192c0.359-0.087,0.606-0.262,0.741-0.525c0.049-0.098,0.074-0.195,0.074-0.29
			C9.524,18.599,9.39,18.476,9.122,18.443z M7.024,20.645l0.21-0.051l0.276-1.135l-0.14-0.234L7.024,20.645z"/>
		
			<linearGradient id="SVGID_00000072964605176827132630000016081428418183395255_" gradientUnits="userSpaceOnUse" x1="16.9999" y1="-25.4786" x2="16.0927" y2="-28.5738" gradientTransform="matrix(1 -0.0471 0 1 0 43.0523)">
			<stop  offset="0" style="stop-color:#FFFFFF"/>
			<stop  offset="1" style="stop-color:#FFFFFF;stop-opacity:0"/>
		</linearGradient>
		<path style="fill:url(#SVGID_00000072964605176827132630000016081428418183395255_);" d="M25.781,12.358
			c-0.249-0.321-0.627-0.42-1.132-0.297l-2.91,0.705l0.651,0.341v1.843c1.241-0.425,2.419-0.855,3.519-1.285
			c0.065-0.18,0.098-0.372,0.098-0.575C26.008,12.799,25.932,12.555,25.781,12.358z M24.807,13.68
			c-0.106,0.271-0.298,0.441-0.578,0.508l-0.792,0.192v-1.11l-0.646-0.093l1.433-0.347c0.14-0.034,0.264-0.028,0.374,0.017
			c0.181,0.084,0.272,0.253,0.272,0.506C24.869,13.464,24.849,13.573,24.807,13.68z M16.592,14.013l-2.74,0.664l-2.955,0.716
			l0.487,0.132c-0.159,0.14-0.302,0.303-0.43,0.489c-0.321,0.485-0.481,1.03-0.481,1.634c0,0.232,0.026,0.443,0.075,0.636
			c0.379-0.086,0.76-0.174,1.144-0.265c-0.066-0.178-0.099-0.388-0.099-0.631c0-0.336,0.07-0.653,0.21-0.951
			c0.211-0.448,0.521-0.721,0.928-0.819l0.81-0.196l0.441,0.153v-0.829l0.521,0.273v2.299c0.331-0.087,0.66-0.174,0.986-0.263
			l-0.131-0.324l0.291,0.28c0.341-0.094,0.68-0.187,1.016-0.282l-0.124-0.014l0.107-0.026c0.336-0.082,0.619-0.244,0.849-0.489
			c0.298-0.321,0.447-0.706,0.447-1.156c0-0.286-0.073-0.529-0.221-0.728C17.479,13.99,17.102,13.889,16.592,14.013z M16.745,15.64
			c-0.11,0.268-0.302,0.435-0.578,0.502l-0.617,0.15v-1.109l-0.646-0.093l1.257-0.305c0.144-0.035,0.27-0.028,0.38,0.021
			c0.181,0.088,0.272,0.255,0.272,0.5C16.813,15.416,16.79,15.527,16.745,15.64z M9.215,17.498c-0.4,0.006-0.612,0.009-0.634,0.007
			c-0.238-0.018-0.357-0.104-0.357-0.259c0-0.079,0.017-0.159,0.051-0.239c0.102-0.232,0.291-0.382,0.566-0.448l0.809-0.196
			l0.442,0.154v-0.928l-2.989,0.724l0.493,0.13c-0.027,0.025-0.055,0.055-0.085,0.088c-0.261,0.305-0.391,0.638-0.391,1
			c0,0.306,0.08,0.532,0.238,0.679c0.17,0.155,0.474,0.231,0.912,0.226c0.385-0.006,0.604-0.006,0.656,0
			c0.146,0.018,0.251,0.064,0.318,0.135c0.4-0.086,0.804-0.174,1.212-0.266c-0.026-0.236-0.107-0.421-0.245-0.554
			C10.026,17.576,9.694,17.492,9.215,17.498z M18.857,13.464l0.504,0.268l-0.765,2.433c0.26-0.078,0.518-0.157,0.774-0.236
			l0.308-0.989l0.068-0.945l0.614,1.624c0.365-0.116,0.725-0.233,1.08-0.351l-0.845-2.226L18.857,13.464z"/>
	</g>
</g>
</svg>
