<?xml version="1.0" encoding="utf-8"?>
<!-- Generator: Adobe Illustrator 25.2.1, SVG Export Plug-In . SVG Version: 6.00 Build 0)  -->
<svg version="1.1" id="Layer_1" xmlns="http://www.w3.org/2000/svg" xmlns:xlink="http://www.w3.org/1999/xlink" x="0px" y="0px"
	 viewBox="0 0 32 32" style="enable-background:new 0 0 32 32;" xml:space="preserve">
<style type="text/css">
	.st0{fill:#FFFFFF;}
</style>
<g>
	<circle cx="16" cy="16.023" r="15.8"/>
	<g>
		<path class="st0" d="M16.277,21.141c-2.223-2.421-4.351-4.747-6.492-7.061c-0.256-0.277-0.375-0.549-0.365-0.93
			c0.026-0.939-0.004-1.879,0.016-2.819c0.007-0.317-0.077-0.547-0.305-0.772c-0.559-0.551-1.092-1.129-1.7-1.764
			c0.22,0,0.345,0,0.471,0c4.141,0,8.281,0.003,12.422-0.006c0.285-0.001,0.488,0.075,0.689,0.283
			c1.009,1.043,2.034,2.07,3.082,3.132c-2.733,0-5.45,0-8.281,0c0.21,0.234,0.349,0.391,0.491,0.546
			c2.016,2.195,4.029,4.392,6.053,6.58c0.214,0.231,0.309,0.458,0.303,0.777c-0.021,1.013-0.001,2.026-0.013,3.039
			c-0.003,0.223,0.06,0.382,0.216,0.54c0.575,0.584,1.137,1.181,1.708,1.779c-0.12,0.127-0.259,0.066-0.379,0.066
			c-4.155,0.004-8.31,0.001-12.466,0.009c-0.27,0.001-0.463-0.069-0.653-0.264c-1.011-1.041-2.036-2.068-3.09-3.136
			C10.723,21.141,13.44,21.141,16.277,21.141z M9.985,21.98c0.543,0.538,1.019,0.991,1.471,1.468c0.19,0.2,0.389,0.261,0.657,0.261
			c3.348-0.008,6.695-0.005,10.043-0.008c0.126,0,0.26,0.043,0.426-0.064c-4.078-4.264-8.146-8.517-12.287-12.847
			c0,0.804,0.01,1.502-0.005,2.199c-0.005,0.251,0.063,0.436,0.236,0.624c2.438,2.644,4.869,5.295,7.3,7.946
			c0.111,0.121,0.256,0.224,0.319,0.422C15.438,21.98,12.77,21.98,9.985,21.98z M21.787,21.556c0-0.798-0.013-1.481,0.006-2.164
			c0.008-0.287-0.085-0.491-0.277-0.699c-2.469-2.677-4.93-5.362-7.39-8.047c-0.069-0.075-0.215-0.125-0.134-0.315
			c2.662,0,5.336,0,8.038,0c-0.485-0.49-0.947-0.941-1.388-1.41c-0.186-0.198-0.381-0.269-0.653-0.268
			C16.627,8.662,13.263,8.658,9.9,8.661c-0.121,0-0.254-0.039-0.392,0.057C13.58,12.975,17.637,17.217,21.787,21.556z"/>
	</g>
</g>
</svg>
