<?xml version="1.0" encoding="utf-8"?>
<!-- Generator: Adobe Illustrator 25.3.1, SVG Export Plug-In . SVG Version: 6.00 Build 0)  -->
<svg version="1.1" id="Layer_1" xmlns="http://www.w3.org/2000/svg" xmlns:xlink="http://www.w3.org/1999/xlink" x="0px" y="0px"
	 viewBox="0 0 32 32" style="enable-background:new 0 0 32 32;" xml:space="preserve">
<style type="text/css">
	.st0{fill:#FFFFFF;}
	.st1{fill:#263A80;}
</style>
<g>
	<path class="st0" d="M15.628,31.24c-0.064-0.042-6.51-4.316-12.844-12.626l-0.211-0.277l0.004-0.035l-1.937-0.632l0.137-1.573
		v-0.023l0.007-0.059l0.127-1.462c0.032-0.37,0.164-0.739,0.366-1.041c-0.152-0.288-0.219-0.638-0.187-1.001l0.207-2.368
		c0.064-0.746,0.566-1.42,1.193-1.602c0.391-0.114,0.786-0.223,1.176-0.328l0.373-3.456l12.068-4.311l12.068,4.311l0.387,3.589
		l0.644,0.17L29.2,8.531c0.164,0.047,0.326,0.095,0.487,0.143l1.236,0.369l-0.251,0.483c-0.004,0.007-0.308,0.593-0.44,0.848
		l0.466,5.471c0.044,0.098,0.089,0.198,0.134,0.298l1.098,2.45l-1.782-0.61l-0.526,0.167l0.02,0.186l-0.211,0.277
		c-6.334,8.31-12.779,12.584-12.843,12.626l-0.479,0.314L15.628,31.24z"/>
	<g>
		<path class="st1" d="M15.875,30.863c-0.064-0.042-6.447-4.276-12.732-12.523L3.04,18.206l1.416-13.12l11.651-4.162l11.651,4.162
			l1.416,13.12l-0.102,0.134c-6.285,8.246-12.669,12.481-12.732,12.523l-0.232,0.152L15.875,30.863z"/>
		<path class="st0" d="M27.365,5.396L16.107,1.374L4.85,5.396c0,0,0,0-1.37,12.688c6.314,8.284,12.628,12.425,12.628,12.425
			s6.314-4.141,12.628-12.425C27.365,5.396,27.365,5.396,27.365,5.396z"/>
		<path class="st1" d="M30.152,17.509l0.943,0.323l-0.244-0.545l-0.43-0.96c-0.049-0.109-0.098-0.218-0.147-0.325
			c-0.015-0.034-0.02-0.059-0.021-0.065l-0.482-5.654c0.026-0.05,0.5-0.963,0.5-0.963l-0.714-0.214
			c-0.336-0.101-0.674-0.198-1.007-0.291l0.002-0.005L28.025,8.67l-1.004-0.274l0.009,0.017c-0.172-0.043-0.344-0.084-0.514-0.125
			l-0.777-0.184L25.597,6.79l-9.49-3.39l-9.49,3.39L6.487,8.003c-0.483,0.102-0.97,0.211-1.453,0.328l-0.42,0.101V8.43L4.531,8.452
			L4.286,8.511l0.002,0.004L4.038,8.581c-0.47,0.123-0.949,0.255-1.422,0.392c-0.448,0.13-0.822,0.65-0.87,1.209l-0.207,2.368
			c-0.027,0.313,0.038,0.608,0.183,0.83c0.037,0.057,0.078,0.107,0.122,0.15c-0.005,0.005-0.009,0.009-0.014,0.014
			c-0.259,0.26-0.435,0.651-0.469,1.048L1.232,16.06l-0.005,0.039v0.016L1.12,17.352l5.707,1.862
			c1.018,1.213,2.019,2.314,2.975,3.302v0.846c0,0.676,0.161,1.139,0.507,1.456c0.34,0.311,0.839,0.457,1.57,0.457h0.77
			c1.452,1.317,2.66,2.28,3.459,2.883c0.799-0.603,2.007-1.566,3.459-2.883l0.902,0c0.671,0,1.181-0.184,1.516-0.546
			c0.284-0.307,0.428-0.726,0.428-1.246v-0.967c1.023-1.058,2.099-2.245,3.191-3.561L30.152,17.509z"/>
		<g>
			<path class="st0" d="M4.265,11.434c-0.365,0.097-0.731,0.199-1.1,0.306C3.058,11.77,2.98,11.69,2.991,11.56
				c0.022-0.268,0.044-0.534,0.065-0.797c0.011-0.137,0.114-0.274,0.229-0.306c0.341-0.096,0.68-0.188,1.017-0.277
				c0.084-0.022,0.165-0.017,0.234,0.016c0.08,0.038,0.16,0.076,0.24,0.114c0.018-0.258,0.036-0.514,0.054-0.767
				c0.02-0.277-0.158-0.452-0.397-0.391C4.332,9.177,4.23,9.204,4.129,9.23c0,0,0,0,0,0C3.661,9.352,3.19,9.482,2.716,9.62
				c-0.246,0.071-0.466,0.358-0.49,0.64c-0.067,0.766-0.136,1.554-0.206,2.366c-0.027,0.312,0.155,0.503,0.406,0.425
				c0.369-0.114,0.735-0.223,1.1-0.327c0.117-0.033,0.201,0.06,0.19,0.209c-0.044,0.573-0.089,1.158-0.134,1.756
				c-0.012,0.149-0.111,0.297-0.222,0.33c-0.149,0.044-0.298,0.089-0.447,0.135c-0.123,0.038-0.211-0.066-0.198-0.231
				c0.044-0.533,0.086-1.056,0.128-1.569c-0.242,0.237-0.484,0.477-0.727,0.721c-0.151,0.152-0.256,0.378-0.275,0.593
				c-0.004,0.049-0.009,0.099-0.013,0.148v0l-0.004,0.049c-0.037,0.423-0.074,0.85-0.112,1.286c0,0.001,0,0.001,0,0.002l-0.06,0.688
				l1.936,0.616l-1.151-0.892l0.709-0.249c0.259-0.08,0.518-0.158,0.776-0.232c0.25-0.072,0.473-0.413,0.498-0.761
				c0.085-1.202,0.167-2.354,0.246-3.46C4.687,11.561,4.508,11.369,4.265,11.434z"/>
			<path class="st0" d="M5.843,15.202c-0.035-0.088-0.05-0.193-0.043-0.306c0.061-0.968,0.119-1.903,0.176-2.808
				c0.419-0.098,0.837-0.189,1.252-0.274c0.24-0.049,0.446-0.336,0.462-0.641c0.041-0.779,0.08-1.536,0.118-2.271
				c0.015-0.276-0.163-0.463-0.398-0.418C6.653,8.63,5.889,8.795,5.118,8.981c0.044,0.086,0.088,0.173,0.132,0.259
				c0.035,0.068,0.05,0.153,0.043,0.245c-0.119,1.751-0.247,3.626-0.384,5.638c-0.008,0.113-0.037,0.23-0.085,0.34
				c-0.062,0.139-0.123,0.28-0.185,0.42c0.448-0.122,0.894-0.238,1.338-0.345C5.932,15.426,5.887,15.314,5.843,15.202z M6.648,10.86
				c-0.201,0.043-0.402,0.088-0.604,0.134c0.027-0.425,0.053-0.843,0.079-1.255c0.2-0.045,0.4-0.088,0.599-0.129
				c0.119-0.025,0.208,0.071,0.2,0.214c-0.014,0.238-0.028,0.479-0.042,0.722C6.872,10.693,6.768,10.834,6.648,10.86z"/>
			<path class="st0" d="M10.503,8.54c0.011-0.303-0.187-0.521-0.442-0.487C9.558,8.12,9.053,8.196,8.545,8.281
				C8.287,8.324,8.065,8.607,8.05,8.913c-0.087,1.721-0.18,3.563-0.28,5.54c-0.019,0.382,0.185,0.651,0.453,0.6
				c0.53-0.101,1.058-0.191,1.584-0.27c0.265-0.04,0.491-0.38,0.505-0.758C10.38,12.068,10.444,10.244,10.503,8.54z M8.672,13.492
				c0.064-1.421,0.125-2.771,0.183-4.054C8.861,9.312,8.95,9.196,9.053,9.18c0.14-0.022,0.28-0.044,0.421-0.064
				C9.576,9.1,9.656,9.19,9.651,9.315c-0.051,1.279-0.105,2.625-0.162,4.041c-0.006,0.147-0.097,0.279-0.202,0.297
				c-0.144,0.023-0.288,0.047-0.433,0.072C8.746,13.743,8.666,13.639,8.672,13.492z"/>
			<path class="st0" d="M11.67,14.176c-0.036-0.089-0.054-0.193-0.051-0.3c0.025-0.946,0.05-1.86,0.073-2.744
				c0.211-0.021,0.423-0.041,0.634-0.059c0.088-0.008,0.156,0.08,0.154,0.196c-0.018,0.817-0.036,1.66-0.055,2.53
				c-0.003,0.107-0.025,0.215-0.065,0.311c-0.053,0.127-0.106,0.254-0.159,0.382c0.422-0.039,0.844-0.071,1.265-0.096
				c-0.048-0.12-0.096-0.239-0.144-0.358c-0.036-0.09-0.055-0.195-0.053-0.302c0.016-0.945,0.031-1.858,0.045-2.741
				c0.006-0.296-0.411-0.506-0.637-0.488c0.225-0.018,0.649-0.28,0.654-0.566c0.01-0.587,0.019-1.161,0.028-1.723
				c0.004-0.267-0.173-0.47-0.395-0.455c-0.732,0.049-1.466,0.117-2.203,0.204c0.045,0.091,0.091,0.182,0.136,0.274
				c0.035,0.07,0.052,0.153,0.049,0.24c-0.055,1.707-0.113,3.534-0.176,5.495c-0.003,0.108-0.028,0.217-0.069,0.315
				c-0.055,0.129-0.109,0.259-0.164,0.39c0.426-0.057,0.85-0.107,1.274-0.15C11.764,14.411,11.717,14.293,11.67,14.176z
				 M12.512,9.792c-0.002,0.11-0.075,0.205-0.162,0.212c-0.21,0.018-0.419,0.037-0.629,0.057c0.011-0.415,0.022-0.823,0.033-1.225
				c0.208-0.02,0.416-0.039,0.624-0.055c0.086-0.007,0.154,0.073,0.152,0.179C12.525,9.234,12.519,9.512,12.512,9.792z"/>
			<path class="st0" d="M13.808,7.713c-0.005,0.401-0.011,0.809-0.017,1.223c0.082-0.063,0.164-0.126,0.245-0.188
				c0.063-0.048,0.136-0.076,0.209-0.078c0.114-0.004,0.229-0.008,0.343-0.012c-0.013,1.567-0.028,3.234-0.043,5.012
				c-0.001,0.109-0.022,0.216-0.062,0.311c-0.051,0.123-0.102,0.246-0.152,0.371c0.42-0.016,0.839-0.026,1.259-0.029
				c-0.049-0.122-0.099-0.243-0.148-0.364c-0.039-0.093-0.058-0.2-0.058-0.309c0.006-1.777,0.011-3.444,0.017-5.01
				c0.114-0.001,0.229-0.002,0.343-0.002c0.073,0,0.145,0.024,0.208,0.07c0.081,0.059,0.162,0.118,0.243,0.178
				c-0.001-0.414-0.002-0.821-0.002-1.221C15.399,7.659,14.604,7.675,13.808,7.713z"/>
			<path class="st0" d="M16.451,14.326c0.899,0.013,1.799,0.057,2.701,0.132c-0.01-0.509-0.02-1.008-0.03-1.499
				c-0.084,0.064-0.168,0.128-0.251,0.192c-0.061,0.047-0.131,0.069-0.202,0.064c-0.393-0.027-0.786-0.049-1.178-0.065
				c-0.007-0.753-0.015-1.485-0.022-2.198c0.249,0.01,0.499,0.022,0.748,0.036c0.07,0.004,0.14,0.033,0.202,0.084
				c0.085,0.071,0.17,0.142,0.255,0.214c-0.009-0.542-0.019-1.073-0.028-1.594c-0.082,0.057-0.165,0.114-0.247,0.172
				c-0.06,0.042-0.128,0.062-0.198,0.058c-0.248-0.014-0.496-0.025-0.743-0.035c-0.004-0.413-0.008-0.82-0.012-1.22
				c0.381,0.014,0.763,0.034,1.145,0.058c0.07,0.005,0.139,0.032,0.199,0.08c0.084,0.066,0.168,0.132,0.252,0.199
				c-0.008-0.415-0.017-0.823-0.025-1.225c-0.865-0.063-1.728-0.1-2.589-0.112c0.049,0.098,0.098,0.196,0.147,0.295
				c0.035,0.072,0.054,0.154,0.055,0.237c0.008,1.698,0.016,3.515,0.025,5.465c0,0.103-0.018,0.204-0.055,0.292
				C16.551,14.079,16.501,14.203,16.451,14.326z"/>
			<path class="st0" d="M19.596,13.989c-0.066,0.163-0.132,0.326-0.198,0.491c0.423,0.038,0.846,0.082,1.271,0.133
				c-0.075-0.18-0.15-0.359-0.225-0.536c-0.028-1.004-0.056-1.972-0.082-2.907c0.291,1.121,0.585,2.292,0.88,3.517
				c0.217,0.029,0.435,0.06,0.653,0.093c0.213-1.155,0.429-2.26,0.646-3.318c0.039,0.942,0.08,1.917,0.123,2.929
				c-0.064,0.159-0.128,0.319-0.192,0.48c0.43,0.071,0.862,0.149,1.296,0.234c-0.08-0.188-0.16-0.374-0.24-0.559
				c-0.099-2.095-0.191-4.039-0.276-5.848c0.062-0.125,0.124-0.25,0.187-0.373c-0.415-0.072-0.828-0.138-1.24-0.197
				c0.048,0.095,0.096,0.19,0.145,0.285c-0.29,1.247-0.576,2.564-0.858,3.958c-0.382-1.482-0.762-2.884-1.139-4.21
				c0.042-0.084,0.083-0.167,0.125-0.25c-0.407-0.043-0.812-0.081-1.217-0.112c0.07,0.139,0.14,0.279,0.21,0.419
				C19.505,10.003,19.549,11.922,19.596,13.989z"/>
			<path class="st0" d="M23.989,14.461c0.02,0.382,0.255,0.739,0.526,0.797c0.537,0.115,1.077,0.241,1.621,0.377
				c0.276,0.07,0.48-0.189,0.455-0.576c-0.132-2.006-0.256-3.874-0.371-5.619c-0.02-0.31-0.251-0.609-0.516-0.668
				c-0.52-0.115-1.036-0.221-1.55-0.318c-0.26-0.049-0.458,0.159-0.442,0.466C23.797,10.641,23.89,12.483,23.989,14.461z
				 M25.472,14.253c-0.148-0.034-0.296-0.068-0.443-0.101c-0.108-0.024-0.203-0.164-0.211-0.312
				c-0.079-1.433-0.155-2.794-0.227-4.088c-0.007-0.127,0.072-0.212,0.177-0.19c0.143,0.029,0.286,0.059,0.43,0.09
				c0.106,0.023,0.197,0.144,0.205,0.271c0.079,1.3,0.162,2.667,0.249,4.106C25.662,14.177,25.58,14.278,25.472,14.253z"/>
			<path class="st0" d="M30.113,16.843l-0.052-0.046c0.001,0,0.001,0,0.002,0.001c-0.067-0.151-0.135-0.3-0.202-0.449
				c-0.049-0.109-0.08-0.225-0.09-0.335c-0.176-2.06-0.339-3.979-0.492-5.769c0,0,0,0,0,0c-0.007-0.089,0.006-0.17,0.039-0.234
				c0.045-0.087,0.089-0.174,0.134-0.26c-0.444-0.133-0.886-0.259-1.324-0.378c0.061,0.116,0.121,0.232,0.182,0.348
				c0.045,0.086,0.072,0.178,0.079,0.267c0.068,0.851,0.138,1.731,0.21,2.64c-0.309-1.009-0.614-1.982-0.916-2.92
				c-0.046-0.141-0.042-0.28,0.01-0.382c0.011-0.021,0.021-0.041,0.032-0.062c-0.434-0.115-0.866-0.223-1.295-0.325
				c0.058,0.112,0.117,0.225,0.175,0.339c0.043,0.084,0.069,0.174,0.075,0.262c0.121,1.758,0.251,3.64,0.39,5.662
				c0.008,0.108-0.006,0.209-0.039,0.292c-0.045,0.113-0.09,0.226-0.136,0.341c0.449,0.121,0.901,0.249,1.356,0.386
				c-0.065-0.146-0.129-0.292-0.193-0.436c-0.047-0.106-0.076-0.219-0.084-0.328c-0.075-1.001-0.146-1.968-0.216-2.902
				c0.311,1.038,0.627,2.116,0.946,3.236c0.05,0.177,0.05,0.353-0.003,0.484c-0.01,0.024-0.019,0.049-0.029,0.073
				c0.221,0.068,0.442,0.138,0.664,0.21l-1.163,0.901L30.113,16.843z"/>
			<path class="st0" d="M9.339,15.935c-0.069,0.012-0.137,0.024-0.205,0.036C9.067,15.983,9,15.996,8.934,16.008
				c-0.133,0.025-0.263,0.05-0.39,0.075c-0.508,0.104-0.973,0.204-1.382,0.305c-0.051,0.012-0.101,0.025-0.151,0.037
				c-0.049,0.013-0.098,0.025-0.146,0.037c-0.095,0.025-0.187,0.048-0.275,0.071c-0.176,0.048-0.338,0.09-0.483,0.133
				c-0.291,0.081-0.517,0.154-0.672,0.203c-0.077,0.025-0.136,0.045-0.175,0.058c-0.035,0.012-0.055,0.019-0.059,0.02
				c0.01-0.002,0.094-0.02,0.242-0.049c0.158-0.032,0.391-0.076,0.688-0.128c0.148-0.027,0.313-0.055,0.491-0.086
				c0.089-0.015,0.183-0.03,0.279-0.046C6.95,16.629,7,16.62,7.049,16.612c0.05-0.008,0.101-0.016,0.153-0.024
				c0.104-0.016,0.211-0.033,0.32-0.05c0.11-0.016,0.223-0.033,0.34-0.05c0.058-0.009,0.117-0.017,0.177-0.026
				c0.059-0.008,0.12-0.017,0.181-0.025c0.122-0.017,0.247-0.034,0.375-0.052c0.128-0.017,0.258-0.033,0.391-0.05
				c0.066-0.009,0.134-0.017,0.201-0.026c0.068-0.008,0.136-0.016,0.205-0.024c0.135-0.016,0.272-0.032,0.411-0.049
				c0.005-0.137,0.023-0.268,0.055-0.39c-0.033,0.005-0.066,0.01-0.098,0.016C9.617,15.886,9.477,15.911,9.339,15.935z"/>
			<path class="st0" d="M26.11,16.657c-0.036-0.011-0.073-0.023-0.111-0.035c-0.038-0.012-0.078-0.022-0.118-0.033
				c-0.08-0.022-0.165-0.046-0.253-0.07c-0.176-0.048-0.366-0.1-0.569-0.155c-0.101-0.029-0.207-0.052-0.316-0.078
				c-0.109-0.026-0.221-0.052-0.336-0.079c-0.231-0.053-0.472-0.113-0.727-0.162c-0.255-0.05-0.52-0.103-0.794-0.157
				c-0.184-0.03-0.371-0.062-0.563-0.094c0.04,0.124,0.067,0.256,0.08,0.397c0.145,0.017,0.288,0.033,0.428,0.049
				c0.275,0.038,0.54,0.074,0.795,0.109c0.256,0.031,0.499,0.075,0.731,0.11c0.116,0.018,0.229,0.036,0.339,0.053
				c0.11,0.018,0.217,0.033,0.32,0.052c0.206,0.038,0.399,0.072,0.577,0.105c0.089,0.016,0.175,0.031,0.257,0.046
				c0.041,0.007,0.081,0.014,0.12,0.021c0.039,0.008,0.077,0.016,0.114,0.023c0.295,0.061,0.528,0.106,0.686,0.138
				c0.149,0.029,0.233,0.045,0.243,0.047c-0.009-0.003-0.09-0.029-0.235-0.076C26.625,16.82,26.399,16.747,26.11,16.657z"/>
			<path class="st0" d="M13.532,23.094h-0.974c-0.148,0-0.192-0.067-0.192-0.188v-5.773c0-0.121,0.044-0.188,0.192-0.188h2.347
				l-0.002-1.812H11.48c-0.841,0-1.269,0.47-1.269,1.181v7.048c0,1.074,0.443,1.504,1.668,1.504l3.734,0l0-5.611h-2.081V23.094z"/>
			<path class="st0" d="M20.558,15.133l-2.657,0c-1.004,0-1.446,0.497-1.446,1.262l0,7.088c0,0.738,0.34,1.383,1.535,1.383h2.48
				c1.196,0,1.535-0.644,1.535-1.383v-7.088C22.004,15.63,21.561,15.133,20.558,15.133z M18.609,22.96v-5.934
				c0-0.121,0.044-0.188,0.192-0.188h0.841c0.148,0,0.192,0.067,0.192,0.188v5.934c0,0.148-0.03,0.201-0.207,0.201h-0.812
				C18.639,23.161,18.609,23.108,18.609,22.96z"/>
			<polygon class="st0" points="15.393,6.989 16.107,6.614 16.822,6.989 16.685,6.194 17.263,5.63 16.465,5.514 16.107,4.791 
				15.75,5.514 14.952,5.63 15.53,6.194 			"/>
			<polygon class="st0" points="17.827,7.225 18.342,6.954 18.857,7.225 18.759,6.651 19.176,6.245 18.6,6.161 18.342,5.639 
				18.084,6.161 17.508,6.245 17.925,6.651 			"/>
			<polygon class="st0" points="13.358,7.225 13.873,6.954 14.388,7.225 14.29,6.651 14.707,6.245 14.131,6.161 13.873,5.639 
				13.615,6.161 13.039,6.245 13.456,6.651 			"/>
		</g>
	</g>
	<g>
		<polygon class="st1" points="10.575,20.004 10.778,19.884 10.55,19.988 10.538,19.993 10.544,20.006 11.12,21.189 9.807,22.616 
			10.158,22.897 11.293,21.259 11.329,21.206 11.301,21.161 		"/>
		<polygon class="st1" points="22.71,17.454 20.902,18.996 20.835,19.053 20.875,19.12 21.576,20.264 21.256,20.55 21.623,20.287 
			21.638,20.276 21.629,20.257 21.084,19.107 22.983,17.811 		"/>
		<polygon class="st1" points="4.246,9.728 4.259,9.599 4.116,9.58 2.377,9.347 2.339,9.795 3.962,9.857 3.956,11.001 3.956,11.059 
			4.002,11.078 5.564,11.712 4.121,10.959 		"/>
		<polygon class="st1" points="11.2,11.224 11.214,11.19 11.184,11.174 9.979,10.504 11.113,11.222 9.865,13.835 9.802,13.967 
			9.951,14.006 13.343,14.898 13.445,14.46 10.15,13.793 		"/>
		<polygon class="st1" points="18.883,8.493 18.922,8.388 18.82,8.323 16.761,7.026 16.534,7.415 18.577,8.517 18.018,10.347 
			17.999,10.408 18.051,10.435 19.978,11.44 18.178,10.34 		"/>
		<polygon class="st1" points="26.987,11.235 29.344,9.552 29.07,9.195 26.725,11.123 26.612,11.217 26.716,11.309 27.69,12.166 
			26.161,14.318 27.863,12.202 27.907,12.147 27.853,12.094 		"/>
	</g>
</g>
</svg>
