<?xml version="1.0" encoding="utf-8"?>
<!-- Generator: Adobe Illustrator 25.2.3, SVG Export Plug-In . SVG Version: 6.00 Build 0)  -->
<svg version="1.1" id="Layer_1" xmlns="http://www.w3.org/2000/svg" xmlns:xlink="http://www.w3.org/1999/xlink" x="0px" y="0px"
	 viewBox="0 0 32 32" style="enable-background:new 0 0 32 32;" xml:space="preserve">
<style type="text/css">
	.st0{fill-rule:evenodd;clip-rule:evenodd;}
	.st1{fill:#FFFFFF;}
</style>
<g>
	<circle class="st0" cx="16" cy="16" r="16"/>
	<g>
		<path class="st1" d="M15.533,14.139c0.814,0.352,1.606,0.682,2.42,1.056c0.924-0.968,1.892-1.958,2.86-2.97
			c0.836-0.858,1.672-1.738,2.508-2.596c0.066-0.066,0.154-0.132,0.242-0.132c0.66,0,1.32,0,2.068,0
			c-2.178,2.244-4.312,4.466-6.468,6.71c0.088,0.088,0.154,0.154,0.22,0.198c1.892,1.65,1.716,4.62-0.374,6.006
			c-1.826,1.188-3.674,1.1-5.544,0.066c-0.154-0.088-0.33-0.132-0.506-0.154c-0.616-0.022-1.21,0-1.914,0
			c1.914-2.002,3.828-3.96,5.764-5.962c-0.198-0.11-0.374-0.198-0.55-0.264c-0.572-0.22-1.144-0.418-1.694-0.66
			c-0.198-0.088-0.286,0-0.418,0.132c-1.694,1.76-3.388,3.52-5.104,5.28c-0.44,0.462-0.88,0.924-1.342,1.386
			c-0.066,0.066-0.132,0.132-0.22,0.132c-0.682,0-1.364,0-2.112,0c2.53-2.64,5.016-5.192,7.502-7.788
			c-0.132-0.11-0.264-0.22-0.374-0.308c-1.87-1.65-1.65-4.554,0.418-5.962c2.046-1.408,4.906-1.034,6.688,0.858
			c0.11,0.11,0.22,0.242,0.352,0.374c-0.748,0.77-1.474,1.54-2.222,2.31C17.007,12.599,16.281,13.369,15.533,14.139z M13.971,13.457
			c1.276-1.32,2.508-2.596,3.762-3.872c-0.022-0.044-0.044-0.066-0.044-0.066c-0.022-0.022-0.044-0.044-0.088-0.044
			c-1.1-0.572-2.244-0.66-3.388-0.176c-0.88,0.374-1.364,1.078-1.43,2.046C12.717,12.291,13.157,12.973,13.971,13.457z
			 M14.279,21.245c1.21,0.594,2.376,0.682,3.542,0.132c0.836-0.396,1.276-1.1,1.32-2.024c0.044-0.858-0.33-1.518-1.078-2.024
			C16.809,18.627,15.577,19.925,14.279,21.245z"/>
	</g>
</g>
</svg>
