<svg id="Layer_1" data-name="Layer 1" xmlns="http://www.w3.org/2000/svg" viewBox="0 0 32 32"><defs><style>.cls-1{fill:#8184f3;}.cls-2{fill:#d827fc;}.cls-3{fill:#b626fb;}.cls-4{fill:#c224e1;}.cls-5{fill:#8530e3;}.cls-6{fill:#6f36ce;}.cls-7{fill:#9566f1;}.cls-8{fill:#522c71;}.cls-9{fill:#6928ca;}.cls-10{fill:#9434ec;}.cls-11{fill:#f328fc;}.cls-12{fill:#ca3efb;}.cls-13{fill:#6c2a71;}.cls-14{fill:#1ab6e9;}.cls-15{fill:#4e2063;}.cls-16{fill:#00edcd;}.cls-17{fill:#31e8fd;}.cls-18{fill:#48d1fd;}.cls-19{fill:#850f81;}.cls-20{fill:#9d2cb6;}.cls-21{fill:#745fa5;}.cls-22{fill:#571b98;}.cls-23{fill:#008dc4;}.cls-24{fill:#22c6fc;}.cls-25{fill:#3cbacf;}.cls-26{fill:#2eb3d8;}.cls-27{fill:#5d39c9;}.cls-28{fill:#82fffb;}.cls-29{fill:#5adae8;}.cls-30{fill:#0aaada;}.cls-31{fill:#a06af9;}.cls-32{fill:#6366f2;}.cls-33{fill:#6725fb;}.cls-34{fill:#1ba1fc;}.cls-35{fill:#189694;}.cls-36{fill:#00b0d2;}.cls-37{fill:#008fa2;}.cls-38{fill:#48fecb;}.cls-39{fill:#02edd0;}.cls-40{fill:#00b8b7;}.cls-41{fill:#245d80;}.cls-42{fill:#2aeef8;}.cls-43{fill:#27dffd;}.cls-44{fill:#1c6f93;}.cls-45{fill:#1d0e6c;}.cls-46{fill:#4081a5;}.cls-47{fill:#00a7b5;}.cls-48{fill:#7b25fb;}.cls-49{fill:#3efeef;}.cls-50{fill:#21a4ba;}.cls-51{fill:#4e2d6a;}.cls-52{fill:#394da5;}.cls-53{fill:#0f386d;}.cls-54{fill:#9738a5;}.cls-55{fill:#1f6dc7;}.cls-56{fill:#277fe1;}.cls-57{fill:#1f6dc5;}.cls-58{fill:#3194ef;}.cls-59{fill:#21bcdf;}.cls-60{fill:#622c65;}.cls-61{fill:#a43ac5;}.cls-62{fill:#503fba;}.cls-63{fill:#543e79;}.cls-64{fill:#bd21d7;}.cls-65{fill:#23064b;}.cls-66{fill:#3f2d6e;}.cls-67{fill:#ac00bf;}.cls-68{fill:#2072bc;}.cls-69{fill:#8925fb;}.cls-70{fill:#1663eb;}.cls-71{fill:#1f9ca6;}.cls-72{fill:#00d0c4;}.cls-73{fill:#00a89f;}.cls-74{fill:#00c5e5;}.cls-75{fill:#32edec;}.cls-76{fill:#00d6ce;}.cls-77{fill:#2ddec6;}.cls-78{fill:#cddda5;}.cls-79{fill:none;}.cls-80{fill:#ac1fbe;}</style></defs><title>shel</title><circle cx="16" cy="16" r="16"/><g id="Layer_2" data-name="Layer 2"><path class="cls-1" d="M15.4889,22.2242c.785.05,1.57.05,2.405.17-.825.45-1.6.87-2.37,1.29C15.4439,23.6942,15.3489,22.2142,15.4889,22.2242Z"/><path class="cls-2" d="M12.8989,21.2042l-.005.005a1.0382,1.0382,0,0,1,.005.175c0,.165.045.725.055.83.03.31.115.94.125.95.01.23,1.575-.225,1.575-.225C14.6339,22.9192,12.9739,21.2892,12.8989,21.2042Z"/><path class="cls-3" d="M20.2589,21.3792c-.37.17-1.795.905-1.92.945a.355.355,0,0,0,.095.15,7.1408,7.1408,0,0,1,.705.8A6.21,6.21,0,0,0,20.2589,21.3792Z"/><path class="cls-4" d="M17.9239,22.2742c-.115-.09-1.07-.785-1.44-1.14-.19-.045-.955.88-.955.975h.01C15.6589,22.1092,17.6739,22.2642,17.9239,22.2742Z"/><path class="cls-5" d="M15.6489,23.7692c.525-.365,1.125-.605,1.68-.92.205-.115.415-.22.665-.35-.055.455-.285.81-.34,1.215A12.837,12.837,0,0,1,15.6489,23.7692Z"/><path class="cls-6" d="M12.7739,21.2492c-.02,0-.04-.005-.045.005-.285.33-.565.665-.85,1-.07.085-.03.14.045.195.32.25.635.505.95.765.03.025.045.03.06.03C12.9339,23.2342,12.7789,21.4892,12.7739,21.2492Z"/><path class="cls-7" d="M12.6939,21.0742c-.205-.05-.975-.11-1.07-.16-.11.01-.08.84-.065,1.17.01.19.08.215.23.11h0C11.9189,21.9892,12.5989,21.1742,12.6939,21.0742Z"/><path class="cls-8" d="M20.4439,21.3742c-.02.025-.935,1.715-.96,1.76a11.3164,11.3164,0,0,0,1.735-1.23C21.1839,21.8692,20.5639,21.4692,20.4439,21.3742Z"/><path class="cls-9" d="M18.3839,20.1692a5.5182,5.5182,0,0,0-.4.66c.005.025,1.895.335,2.135.375C20.0839,21.1842,18.3889,20.1742,18.3839,20.1692Z"/><path class="cls-10" d="M17.7189,20.9642c.07.01.15,0,.165.105.055.36.11.72.175,1.14-.525-.38-1.015-.73-1.5-1.08A5.2541,5.2541,0,0,1,17.7189,20.9642Z"/><path class="cls-11" d="M12.7289,20.9992a.18.18,0,0,0,.025-.11c-.005-.135-.035-.68-.04-.815a2.1629,2.1629,0,0,0-.01-.22,9.349,9.349,0,0,0-1.2.96C11.6189,20.8292,12.5339,20.9642,12.7289,20.9992Z"/><path class="cls-12" d="M17.7189,23.7142c.125-.35.27-.695.375-1.05.065-.21.12-.165.24-.045.25.25.51.485.765.73A8.1273,8.1273,0,0,1,17.7189,23.7142Z"/><path class="cls-13" d="M14.0589,20.9342c-.06-.04-.115-.085-.17-.13-.045-.025-.905-.86-1.04-.975-.015.015.015.87.005.98-.015.18.065.225.235.215C13.1589,21.0242,14.0539,20.9492,14.0589,20.9342Z"/><path class="cls-14" d="M13.2939,11.9942c.75-.165,1.5-.33,2.3-.505-.19.245-.36.455-.52.67-.06.075-.13.045-.2.04-.52-.055-1.045-.11-1.565-.16A.2325.2325,0,0,0,13.2939,11.9942Z"/><path class="cls-15" d="M14.7439,23.0242h0a12.2583,12.2583,0,0,0-1.38.315,10.1777,10.1777,0,0,0,1.88.37A5.3767,5.3767,0,0,0,14.7439,23.0242Z"/><path class="cls-16" d="M18.2439,12.6492c.07.03.1.03.12.05.365.285.73.575,1.13.895-.275.08-.515.15-.755.22-.05.015-.105.03-.13-.05C18.4889,13.3992,18.3689,13.0392,18.2439,12.6492Z"/><path class="cls-17" d="M16.5789,18.2292a3.7407,3.7407,0,0,1,.735-.66,3.5418,3.5418,0,0,1,.845.43C18.1389,18.0042,17.0839,18.1592,16.5789,18.2292Z"/><path class="cls-18" d="M13.1089,16.4642c-.01.005-.99-1.25-1.465-1.885-.08-.19.13-.63.16-.675C11.8439,13.9492,12.7139,15.6592,13.1089,16.4642Z"/><path class="cls-19" d="M18.8039,19.5192c-.56-.045-1.075-.085-1.59-.12-.065.105.775.48,1.115.66C18.3839,19.9892,18.7989,19.5292,18.8039,19.5192Z"/><path class="cls-20" d="M16.1039,21.1892c-.015-.005-1.155.335-1.105.48.01,0,.285.34.325.395C15.4339,21.9142,16.0939,21.2042,16.1039,21.1892Z"/><path class="cls-21" d="M15.4389,18.9192c.04-.205-.04-.425.06-.66.345.265.675.52,1,.77.025.02.015.045-.01.065A6.2209,6.2209,0,0,1,15.4389,18.9192Z"/><path class="cls-22" d="M15.9589,21.0742h-1.57c.29.34.405.4.695.325C15.0839,21.3892,15.9339,21.0842,15.9589,21.0742Z"/><path class="cls-23" d="M16.7989,13.7392c.16-.13.29-.24.445-.37q.2475.4275.48.84l-.04.04C17.4039,14.0842,17.1189,13.9242,16.7989,13.7392Z"/><path class="cls-24" d="M14.9189,14.6592a.836.836,0,0,0-.035-.27h0c-.055-.09-.41-.685-.415-.695.005.04.195,1.31.205,1.4C14.7239,14.9892,14.9089,14.6792,14.9189,14.6592Z"/><path class="cls-25" d="M13.0939,12.0842h0a2.658,2.658,0,0,1-.16.3,15.6025,15.6025,0,0,0,1.57-.155C14.0339,12.1792,13.5639,12.1242,13.0939,12.0842Z"/><path class="cls-26" d="M17.7039,16.9492c-.005,0-.625-.495-.645-.5,0,.07.18.885.195.9h.005A4.4618,4.4618,0,0,0,17.7039,16.9492Z"/><path class="cls-27" d="M21.7139,19.0742v-.01c-.11-.03-.13.1-.18.165-.18.255-.855,1.51-1.06,1.86-.095.165-.005.215.11.29.24.155.51.265.75.42C21.3689,21.7142,21.7139,19.1842,21.7139,19.0742Z"/><path class="cls-28" d="M15.6039,16.5792a6.9383,6.9383,0,0,0-.75-.84,3.9136,3.9136,0,0,0-.025.93c.03.29.04.405.16.42.125-.015.69-.19.735-.205C15.7689,16.8342,15.7239,16.7442,15.6039,16.5792Z"/><path class="cls-29" d="M19.8189,15.1392c-.055-.085-.92-.895-.93-.885.14.22.655.975.69,1.04a.7442.7442,0,0,0,.255-.11A.0806.0806,0,0,0,19.8189,15.1392Z"/><path class="cls-30" d="M17.1439,16.3642c.02.025.585.485.66.595v.005c.51-.03,2.315.135,2.315.13C19.1389,16.8542,18.1639,16.6142,17.1439,16.3642Z"/><path class="cls-31" d="M13.4739,21.0892a6.1581,6.1581,0,0,0,1.07.29.863.863,0,0,0-.425-.325A4.5657,4.5657,0,0,1,13.4739,21.0892Z"/><path class="cls-32" d="M16.5489,18.3842a.2483.2483,0,0,0,.01.09c.03.06.335.7.34.715a12.976,12.976,0,0,0,1.225-1.065C18.1189,18.1142,16.5539,18.3892,16.5489,18.3842Z"/><path class="cls-24" d="M11.8489,16.8642a8.974,8.974,0,0,0,1.185,1.08c.045.01.24-1.11.255-1.115l-.005-.005A7.6315,7.6315,0,0,1,11.8489,16.8642Z"/><path class="cls-33" d="M18.3439,18.1142a7.4071,7.4071,0,0,0-1.325,1.17,11.945,11.945,0,0,0,1.795.125C18.8039,19.2542,18.3889,18.2492,18.3439,18.1142Z"/><path class="cls-34" d="M14.9389,15.6542c.01.01.96,1.19.965,1.2a.2057.2057,0,0,0,.155.015c0-.005.68-.625.685-.665C16.5789,16.1642,14.9389,15.6442,14.9389,15.6542Z"/><path class="cls-35" d="M17.3989,11.5442c-.21-.01-1.565-.075-1.615-.075h-.03a9.0549,9.0549,0,0,0,.4,1.195A8.8765,8.8765,0,0,0,17.3989,11.5442Z"/><path class="cls-36" d="M19.5289,13.7192c-.17.03-.82.195-.825.185v.005c.005.01,1.04,1.035,1.11,1.095C19.7739,14.7942,19.5339,13.7242,19.5289,13.7192Z"/><path class="cls-37" d="M16.0039,12.8542c-.185.045-1.53.465-1.63.465a5.6677,5.6677,0,0,0,.67,1.035h0c.105-.19.76-1.21.76-1.21C15.8039,13.1342,15.9439,12.9492,16.0039,12.8542Z"/><path class="cls-38" d="M17.5139,11.6092c-.025.015-1.195,1.07-1.195,1.075.01-.005,1.565-.255,1.61-.28a.0432.0432,0,0,0,.015-.03A4.8665,4.8665,0,0,0,17.5139,11.6092Z"/><path class="cls-39" d="M19.6189,13.5792a11.0874,11.0874,0,0,0,.38,1.545h0c0-.005,1.055-1.865,1.065-1.885A11.5245,11.5245,0,0,0,19.6189,13.5792Z"/><path class="cls-40" d="M18.5689,13.9892h0l-.03.015c-.07.04-.585.455-.59.455v.005c.195.13,1.38.745,1.44.755A12.4781,12.4781,0,0,0,18.5689,13.9892Z"/><path class="cls-41" d="M16.2239,12.8592c-.005,0-.005.005-.01.005.015.035.425.775.455.805l.005.005a2.46,2.46,0,0,0,.44-.38C17.0889,13.2792,16.2289,12.8692,16.2239,12.8592Z"/><path class="cls-42" d="M15.8489,12.7542a6.433,6.433,0,0,0-.905-.46s-.405.775-.495.925C14.4589,13.2192,15.8189,12.7592,15.8489,12.7542Z"/><path class="cls-43" d="M12.7739,12.5442c-.01.005-.88,1.09-.885,1.095,0,.01,2.14-.375,2.185-.39C14.0739,13.2392,12.7889,12.5392,12.7739,12.5442Z"/><path class="cls-44" d="M12.9539,12.4942c.025.02,1.37.73,1.385.725.005-.005.455-.815.47-.85A10.9109,10.9109,0,0,0,12.9539,12.4942Z"/><path class="cls-45" d="M17.8189,17.0242a2.1066,2.1066,0,0,0-.44.455,5.3336,5.3336,0,0,0,.835.345C18.2239,17.8142,17.8439,17.1492,17.8189,17.0242Z"/><path class="cls-46" d="M15.7089,11.5892c-.015,0-.575.655-.57.67h0c.065.04.72.355.86.415C15.9839,12.6142,15.7189,11.7142,15.7089,11.5892Z"/><path class="cls-47" d="M19.6039,12.6892v-.01a7.3843,7.3843,0,0,0-1.305-.16,10.6623,10.6623,0,0,0,1.235.945C19.5439,13.4642,19.6089,12.7942,19.6039,12.6892Z"/><path class="cls-48" d="M15.3189,18.1942a17.2925,17.2925,0,0,0-1.845-.015c.085.03,1.755.7,1.825.725a.18.18,0,0,0,.035-.05S15.3189,18.3292,15.3189,18.1942Z"/><path class="cls-49" d="M14.5039,15.2192v-.01c-.005-.02-.24-1.785-.24-1.79a10.35,10.35,0,0,0-2.315.445C12.1789,13.9892,14.4739,15.2142,14.5039,15.2192Z"/><path class="cls-50" d="M16.6089,13.7142a.05.05,0,0,1-.02-.025c-.02-.04-.48-.8-.475-.805a.11.11,0,0,0-.04-.005h0c-.04.06-.86,1.445-.86,1.445a.05.05,0,0,0,.025.02c.005-.005,1.315-.57,1.38-.605A.0382.0382,0,0,1,16.6089,13.7142Z"/><path class="cls-51" d="M15.2339,17.8992c-.525,0-1.05-.005-1.575.005-.085.035-.17.075-.255.11.025.02,1.715.04,1.915.05A1.7062,1.7062,0,0,1,15.2339,17.8992Z"/><path class="cls-51" d="M15.2339,17.8992c-.015.085-.07.115-.155.115-.425-.005-.855-.005-1.28-.005a.133.133,0,0,1-.145-.1c.34-.185.685-.355,1.015-.555.175-.105.265-.065.325.095C15.0339,17.5392,15.2339,17.8992,15.2339,17.8992Z"/><path class="cls-17" d="M13.3789,16.8292a10.6785,10.6785,0,0,0-.165,1.075h0a13.2626,13.2626,0,0,0,1.51-.71C14.7189,17.1942,13.4089,16.8292,13.3789,16.8292Z"/><path class="cls-52" d="M15.0689,17.3442c.03.115.3.65.3.65a.8234.8234,0,0,0,.26.165c.005,0,.455.045.47.045C15.7539,17.9142,15.4289,17.6442,15.0689,17.3442Z"/><path class="cls-53" d="M16.4839,18.4842a.8955.8955,0,0,0-.275-.165c-.005,0-.47-.05-.54-.045.39.32.755.62,1.115.91C16.7789,19.1692,16.5389,18.6042,16.4839,18.4842Z"/><path class="cls-54" d="M15.8439,16.9392c-.045.015-.775.25-.8.265a6.9091,6.9091,0,0,0,1.14.91A5.1815,5.1815,0,0,0,15.8439,16.9392Z"/><path class="cls-55" d="M16.1739,16.9092a9.4289,9.4289,0,0,0,.995.515.09.09,0,0,0,.025-.035c-.065-.27-.285-1.125-.305-1.125-.09.07-.635.555-.73.64A.0184.0184,0,0,0,16.1739,16.9092Z"/><path class="cls-56" d="M16.3989,18.1992c.18-.175.645-.63.685-.7-.145-.03-1.065-.51-1.08-.485A5.787,5.787,0,0,0,16.3989,18.1992Z"/><path class="cls-57" d="M14.7189,15.6442c-.035.025-1.13.985-1.235,1.11l.06.03a.4644.4644,0,0,1,.065.02c.03.01.305.04.36.05,0-.01.38.07.385.07.12.03.34.135.345.13C14.7189,16.8792,14.7189,15.6592,14.7189,15.6442Z"/><path class="cls-58" d="M13.1789,16.7192a7.8237,7.8237,0,0,1-1.53-.02c0-.13.005-1.32.015-1.79A18.35,18.35,0,0,1,13.1789,16.7192Z"/><path class="cls-59" d="M14.6839,15.5042c-.055-.02-2.64-1.475-2.65-1.47.005.075,1.17,2.27,1.32,2.695C13.4389,16.6592,14.5389,15.6442,14.6839,15.5042Z"/><path class="cls-60" d="M20.1639,21.3392c-.02.01-.035.02-.055.03-.585.285-1.17.56-1.745.85-.165.085-.205.03-.225-.11a11.035,11.035,0,0,1-.17-1.135C18.7039,21.1042,19.4439,21.1492,20.1639,21.3392Z"/><path class="cls-61" d="M14.7839,21.7792c.025-.175-.035-.24-.2-.275-.465-.095-.93-.205-1.395-.31-.26.01,1.03,1.115,1.56,1.605C14.7489,22.7942,14.7689,21.8692,14.7839,21.7792Z"/><path class="cls-62" d="M20.2689,21.0242c-.095-.395-.44-1.89-.535-2.285-.25.265-.46.49-.675.715-.04.04.945,1.345,1.145,1.62C20.2439,21.0792,20.2939,21.1192,20.2689,21.0242Z"/><path class="cls-63" d="M18.9189,19.5792c-.025.02-.49.53-.495.53a17.4651,17.4651,0,0,0,1.715.975A18.9244,18.9244,0,0,0,18.9189,19.5792Z"/><path class="cls-64" d="M15.3039,22.4092c-.015-.005-.455.545-.465.57v.005a.17.17,0,0,0,.03.03c.075.075.43.5.445.49C15.3039,23.4142,15.3139,22.4942,15.3039,22.4092Z"/><path class="cls-65" d="M15.1739,22.3542a.4565.4565,0,0,0,.015-.315c-.015-.01-.285-.315-.305-.32a2.9905,2.9905,0,0,0,.015,1.01C14.8989,22.7192,15.1439,22.3992,15.1739,22.3542Z"/><path class="cls-66" d="M18.4489,18.0792a10.2617,10.2617,0,0,0,.56,1.315,3.4078,3.4078,0,0,0,.635-.76C19.6339,18.6292,18.4939,18.0942,18.4489,18.0792Z"/><path class="cls-67" d="M21.5639,18.8242c-.005,0-1.595-.155-1.715-.195-.02.05.51,2.44.515,2.45.105-.14,1.155-2.01,1.19-2.08C21.6089,18.9142,21.6039,18.8592,21.5639,18.8242Z"/><path class="cls-68" d="M18.2339,17.0592s-.215-.005-.325-.005a3.9161,3.9161,0,0,0,.54.89c.2-.09,1.6-.725,1.6-.75C19.8939,17.2042,18.2539,17.0592,18.2339,17.0592Z"/><path class="cls-69" d="M20.3639,17.2842a.2858.2858,0,0,1-.035-.04,8.9643,8.9643,0,0,0-.45,1.21v.01a.1586.1586,0,0,0,.03.025h.005c.1.005,1.53.205,1.585.215,0-.005.005-.005.005-.01C21.4939,18.6842,20.3989,17.3242,20.3639,17.2842Z"/><path class="cls-70" d="M20.1889,17.2392v-.005c-.11-.025-1.505.77-1.555.77.005.025,1.11.575,1.125.565C19.7489,18.5642,20.1789,17.2392,20.1889,17.2392Z"/><path class="cls-71" d="M17.4689,13.0642c.175-.15.35-.3.53-.45-.015-.02-1.115.085-1.725.175.335.165.605.29.87.425a.1371.1371,0,0,0,.145,0A1.302,1.302,0,0,1,17.4689,13.0642Z"/><path class="cls-72" d="M19.7089,12.7792c-.005.155-.04.57-.06.695.02-.01,1.37-.36,1.4-.37A5.14,5.14,0,0,0,19.7089,12.7792Z"/><path class="cls-73" d="M19.6189,12.0242a.29.29,0,0,0-.21-.14c-.255-.06-1.39-.28-1.48-.29-.005.005,1.655.875,1.685.895.005,0,.005.005.01.005C19.6139,12.3392,19.6139,12.1842,19.6189,12.0242Z"/><path class="cls-74" d="M17.7489,11.6292c-.01.005.31.65.32.67a1.025,1.025,0,0,0,.385.145c.065.005.66.05.885.09A11.931,11.931,0,0,0,17.7489,11.6292Z"/><path class="cls-75" d="M17.3389,13.2792c.375.175.77.36,1.205.565-.155-.43-.295-.82-.425-1.195C18.0939,12.6592,17.5539,13.0842,17.3389,13.2792Z"/><path class="cls-76" d="M19.7589,11.9842c-.015.02-.045.535-.045.605.065.01.985.285,1.23.335C20.8389,12.6842,19.8289,12.1192,19.7589,11.9842Z"/><path class="cls-77" d="M17.9589,14.3192c.05-.03.495-.385.5-.4a10.15,10.15,0,0,0-1.09-.47C17.3839,13.4742,17.9389,14.3192,17.9589,14.3192Z"/><polygon class="cls-78" points="21.164 17.059 21.164 17.059 21.164 17.059 21.164 17.059 21.164 17.059"/><line class="cls-79" x1="16.1489" y1="8.0292" x2="16.1489" y2="5.1392"/><rect class="cls-67" x="16.0689" y="5.1392" width="0.165" height="2.89"/><line class="cls-79" x1="11.8439" y1="26.8592" x2="8.0389" y2="21.7042"/><rect class="cls-67" x="9.8595" y="21.0778" width="0.165" height="6.4097" transform="translate(-12.4804 10.6545) rotate(-36.4436)"/><line class="cls-79" x1="8.0389" y1="21.7042" x2="5.2189" y2="21.7242"/><rect class="cls-67" x="5.2189" y="21.6297" width="2.8201" height="0.165" transform="translate(-0.1483 0.0458) rotate(-0.3916)"/><line class="cls-79" x1="8.0389" y1="21.7042" x2="9.4539" y2="11.7592"/><rect class="cls-67" x="3.7195" y="16.6477" width="10.0453" height="0.165" transform="translate(-9.0509 23.0334) rotate(-81.9177)"/><line class="cls-79" x1="9.4539" y1="11.7592" x2="16.1539" y2="8.0892"/><rect class="cls-67" x="8.9846" y="9.8437" width="7.64" height="0.165" transform="translate(-3.1945 7.3736) rotate(-28.7179)"/><line class="cls-79" x1="8.0439" y1="6.9342" x2="3.7239" y2="13.8542"/><rect class="cls-67" x="1.8041" y="10.3164" width="8.1554" height="0.165" transform="translate(-6.0541 9.8812) rotate(-58.0232)"/><line class="cls-79" x1="5.2239" y1="21.7242" x2="3.7239" y2="13.8542"/><rect class="cls-67" x="4.3889" y="13.784" width="0.165" height="8.01" transform="translate(-3.2527 1.1523) rotate(-10.7953)"/><line class="cls-79" x1="8.0039" y1="6.9342" x2="16.1889" y2="4.2042"/><rect class="cls-67" x="7.7837" y="5.4835" width="8.6298" height="0.165" transform="translate(-1.14 4.1182) rotate(-18.4639)"/><line class="cls-79" x1="11.8439" y1="26.8592" x2="5.2239" y2="21.7242"/><rect class="cls-67" x="8.4468" y="20.0991" width="0.165" height="8.3801" transform="translate(-15.8897 16.139) rotate(-52.1939)"/><line class="cls-79" x1="9.4539" y1="11.7592" x2="8.0439" y2="6.9342"/><rect class="cls-67" x="8.6637" y="6.8338" width="0.165" height="5.025" transform="translate(-2.2671 2.8228) rotate(-16.2602)"/><line class="cls-79" x1="3.7239" y1="13.8542" x2="9.4539" y2="11.7592"/><rect class="cls-67" x="3.539" y="12.7237" width="6.1001" height="0.165" transform="translate(-3.9969 3.0414) rotate(-20.0839)"/><line class="cls-79" x1="8.0439" y1="6.9342" x2="7.0239" y2="10.8892"/><rect class="cls-67" x="5.4916" y="8.8298" width="4.0848" height="0.165" transform="translate(-2.9788 13.9789) rotate(-75.5218)"/><line class="cls-79" x1="9.4539" y1="11.7592" x2="7.0239" y2="10.8892"/><rect class="cls-67" x="8.1512" y="10.0344" width="0.165" height="2.5799" transform="translate(-5.2051 15.2529) rotate(-70.2749)"/><line class="cls-79" x1="3.7239" y1="13.8542" x2="7.0239" y2="10.8892"/><rect class="cls-67" x="3.1525" y="12.289" width="4.435" height="0.165" transform="translate(-6.8925 6.7572) rotate(-41.9357)"/><line class="cls-79" x1="8.0439" y1="6.9342" x2="16.1539" y2="8.0892"/><rect class="cls-67" x="12.0147" y="3.4213" width="0.165" height="8.1899" transform="translate(2.9504 18.4328) rotate(-81.8942)"/><line class="cls-79" x1="9.4539" y1="11.7592" x2="10.8589" y2="8.8042"/><rect class="cls-67" x="8.5195" y="10.1965" width="3.2751" height="0.165" transform="translate(-3.489 15.0338) rotate(-64.5522)"/><line class="cls-79" x1="8.0439" y1="6.9242" x2="10.8589" y2="8.7892"/><rect class="cls-67" x="9.371" y="6.169" width="0.165" height="3.3801" transform="translate(-2.3223 11.3896) rotate(-56.4275)"/><line class="cls-79" x1="16.1539" y1="8.0892" x2="10.8589" y2="8.8042"/><rect class="cls-67" x="10.8338" y="8.364" width="5.34" height="0.165" transform="translate(-1.0041 1.8725) rotate(-7.6488)"/><line class="cls-79" x1="8.0339" y1="6.8742" x2="16.1639" y2="5.1392"/><rect class="cls-67" x="7.944" y="5.924" width="8.3102" height="0.165" transform="translate(-0.9871 2.6573) rotate(-12.0459)"/><line class="cls-79" x1="3.7239" y1="13.8542" x2="8.0389" y2="21.7042"/><rect class="cls-67" x="5.7944" y="13.3003" width="0.165" height="8.9551" transform="translate(-7.8353 5.0277) rotate(-28.7897)"/><line class="cls-79" x1="9.4539" y1="11.7592" x2="6.5889" y2="15.2592"/><rect class="cls-67" x="5.76" y="13.43" width="4.5202" height="0.165" transform="translate(-7.5159 11.1584) rotate(-50.6933)"/><line class="cls-79" x1="3.7239" y1="13.8542" x2="6.5889" y2="15.2592"/><rect class="cls-67" x="5.0723" y="12.9608" width="0.165" height="3.19" transform="translate(-10.1835 12.7734) rotate(-63.8706)"/><line class="cls-79" x1="8.0389" y1="21.7042" x2="6.5889" y2="15.2592"/><rect class="cls-67" x="7.2289" y="15.1789" width="0.165" height="6.6049" transform="translate(-3.8784 2.0556) rotate(-12.6798)"/><line class="cls-79" x1="11.8439" y1="26.8592" x2="8.0189" y2="23.0742"/><rect class="cls-67" x="9.8489" y="22.2789" width="0.165" height="5.38" transform="translate(-14.8051 14.4721) rotate(-45.316)"/><line class="cls-79" x1="5.1639" y1="21.6942" x2="8.0189" y2="23.0742"/><rect class="cls-67" x="6.5069" y="20.7969" width="0.165" height="3.1699" transform="translate(-16.4268 18.5582) rotate(-64.1627)"/><line class="cls-79" x1="8.0389" y1="21.7042" x2="8.0189" y2="23.0742"/><rect class="cls-67" x="7.3412" y="22.3059" width="1.375" height="0.165" transform="translate(-14.4624 30.1249) rotate(-89.254)"/><line class="cls-79" x1="20.4389" y1="26.8592" x2="24.2489" y2="21.7042"/><rect class="cls-67" x="19.137" y="24.194" width="6.4101" height="0.165" transform="translate(-10.4574 27.8421) rotate(-53.5804)"/><line class="cls-79" x1="24.2439" y1="21.7042" x2="27.0639" y2="21.7242"/><rect class="cls-67" x="25.5709" y="20.3047" width="0.165" height="2.8201" transform="translate(3.7653 47.2204) rotate(-89.6116)"/><line class="cls-79" x1="24.2489" y1="21.7042" x2="22.8339" y2="11.7592"/><rect class="cls-67" x="23.4533" y="11.7093" width="0.165" height="10.0446" transform="translate(-2.1214 3.4807) rotate(-8.0944)"/><line class="cls-79" x1="22.8339" y1="11.7592" x2="16.1339" y2="8.0892"/><rect class="cls-67" x="19.3984" y="6.1027" width="0.165" height="7.6403" transform="translate(1.4197 22.242) rotate(-61.2899)"/><line class="cls-79" x1="24.2389" y1="6.9342" x2="28.5589" y2="13.8542"/><rect class="cls-67" x="26.315" y="6.3145" width="0.165" height="8.1551" transform="translate(-1.4972 15.5602) rotate(-31.9847)"/><line class="cls-79" x1="27.0589" y1="21.7242" x2="28.5589" y2="13.8542"/><rect class="cls-67" x="23.8008" y="17.7033" width="8.0103" height="0.165" transform="translate(5.1221 41.7639) rotate(-79.1935)"/><line class="cls-79" x1="24.2789" y1="6.9342" x2="16.0939" y2="4.2042"/><rect class="cls-67" x="20.1006" y="1.2569" width="0.165" height="8.6298" transform="translate(8.5059 22.9513) rotate(-71.5361)"/><line class="cls-79" x1="20.4389" y1="26.8592" x2="27.0589" y2="21.7242"/><rect class="cls-67" x="19.5582" y="24.209" width="8.3801" height="0.165" transform="translate(-9.9055 19.6565) rotate(-37.8061)"/><line class="cls-79" x1="22.8339" y1="11.7592" x2="24.2389" y2="6.9342"/><rect class="cls-67" x="21.019" y="9.2677" width="5.0249" height="0.165" transform="translate(7.9683 29.3238) rotate(-73.7453)"/><line class="cls-79" x1="28.5589" y1="13.8542" x2="22.8339" y2="11.7592"/><rect class="cls-67" x="25.6159" y="9.7565" width="0.165" height="6.1001" transform="translate(4.8459 32.5444) rotate(-69.9161)"/><line class="cls-79" x1="24.2389" y1="6.9342" x2="25.2589" y2="10.8892"/><rect class="cls-67" x="24.6697" y="6.8688" width="0.165" height="4.0851" transform="translate(-1.4416 6.4681) rotate(-14.4712)"/><line class="cls-79" x1="22.8339" y1="11.7592" x2="25.2589" y2="10.8892"/><rect class="cls-67" x="22.7583" y="11.2434" width="2.5799" height="0.165" transform="translate(-2.4107 8.7727) rotate(-19.707)"/><line class="cls-79" x1="28.5589" y1="13.8542" x2="25.2589" y2="10.8892"/><rect class="cls-67" x="26.8256" y="10.1555" width="0.165" height="4.435" transform="translate(-0.2787 24.121) rotate(-48.0643)"/><line class="cls-79" x1="24.2389" y1="6.9342" x2="16.1339" y2="8.0892"/><rect class="cls-67" x="16.0888" y="7.4289" width="8.1899" height="0.165" transform="translate(-0.8575 2.921) rotate(-8.1058)"/><line class="cls-79" x1="22.8339" y1="11.7592" x2="21.4239" y2="8.8042"/><rect class="cls-67" x="22.0441" y="8.6438" width="0.165" height="3.2751" transform="translate(-2.271 10.5051) rotate(-25.4478)"/><line class="cls-79" x1="24.2389" y1="6.9242" x2="21.4239" y2="8.7892"/><rect class="cls-67" x="21.1448" y="7.7733" width="3.3801" height="0.165" transform="translate(-0.5359 13.9347) rotate(-33.5645)"/><line class="cls-79" x1="16.1339" y1="8.0892" x2="21.4239" y2="8.8042"/><rect class="cls-67" x="18.6948" y="5.7773" width="0.165" height="5.3401" transform="translate(7.9024 25.9311) rotate(-82.3399)"/><line class="cls-79" x1="24.2489" y1="6.8742" x2="16.1239" y2="5.1392"/><rect class="cls-67" x="20.1045" y="1.8524" width="0.165" height="8.3098" transform="translate(10.1026 24.498) rotate(-77.9653)"/><line class="cls-79" x1="28.5589" y1="13.8542" x2="24.2489" y2="21.7042"/><rect class="cls-67" x="21.9247" y="17.696" width="8.9551" height="0.165" transform="translate(-1.8972 32.3489) rotate(-61.1975)"/><line class="cls-79" x1="22.8339" y1="11.7592" x2="25.6989" y2="15.2592"/><rect class="cls-67" x="24.18" y="11.2504" width="0.165" height="4.52" transform="translate(-3.0705 18.4201) rotate(-39.2942)"/><line class="cls-79" x1="28.5589" y1="13.8542" x2="25.6989" y2="15.2592"/><rect class="cls-67" x="25.5349" y="14.4737" width="3.1901" height="0.165" transform="translate(-3.6383 13.4453) rotate(-26.1474)"/><line class="cls-79" x1="24.2489" y1="21.7042" x2="25.6989" y2="15.2592"/><rect class="cls-67" x="21.6655" y="18.3995" width="6.6053" height="0.165" transform="translate(1.4607 38.7895) rotate(-77.3326)"/><line class="cls-79" x1="20.4389" y1="26.8592" x2="24.2639" y2="23.0742"/><rect class="cls-67" x="19.6612" y="24.8853" width="5.38" height="0.165" transform="translate(-11.0977 22.9331) rotate(-44.684)"/><line class="cls-79" x1="27.1189" y1="21.6942" x2="24.2639" y2="23.0742"/><rect class="cls-67" x="24.1036" y="22.3039" width="3.17" height="0.165" transform="translate(-7.1872 13.429) rotate(-25.8296)"/><line class="cls-79" x1="24.2489" y1="21.7042" x2="24.2639" y2="23.0742"/><rect class="cls-67" x="24.1736" y="21.7039" width="0.165" height="1.375" transform="translate(-0.2877 0.3157) rotate(-0.7414)"/><path class="cls-80" d="M10.7989,21.4642l.675.605-.045-1.145S10.8389,21.4192,10.7989,21.4642Z"/></g></svg>