<?xml version="1.0" encoding="UTF-8"?>
<!-- Generator: Adobe Illustrator 22.1.0, SVG Export Plug-In . SVG Version: 6.00 Build 0)  -->
<svg version="1.1" id="Layer_1" xmlns="http://www.w3.org/2000/svg" xmlns:xlink="http://www.w3.org/1999/xlink" x="0px" y="0px" viewBox="0 0 500 500" style="enable-background:new 0 0 500 500;" xml:space="preserve">
<style type="text/css">
	.st0{fill:#8184F3;}
	.st1{fill:#D827FC;}
	.st2{fill:#B626FB;}
	.st3{fill:#C224E1;}
	.st4{fill:#8530E3;}
	.st5{fill:#6F36CE;}
	.st6{fill:#9566F1;}
	.st7{fill:#522C71;}
	.st8{fill:#6928CA;}
	.st9{fill:#9434EC;}
	.st10{fill:#F328FC;}
	.st11{fill:#CA3EFB;}
	.st12{fill:#6C2A71;}
	.st13{fill:#1AB6E9;}
	.st14{fill:#4E2063;}
	.st15{fill:#00EDCD;}
	.st16{fill:#31E8FD;}
	.st17{fill:#48D1FD;}
	.st18{fill:#850F81;}
	.st19{fill:#9D2CB6;}
	.st20{fill:#745FA5;}
	.st21{fill:#571B98;}
	.st22{fill:#008DC4;}
	.st23{fill:#22C6FC;}
	.st24{fill:#3CBACF;}
	.st25{fill:#2EB3D8;}
	.st26{fill:#5D39C9;}
	.st27{fill:#82FFFB;}
	.st28{fill:#5ADAE8;}
	.st29{fill:#0AAADA;}
	.st30{fill:#A06AF9;}
	.st31{fill:#6366F2;}
	.st32{fill:#6725FB;}
	.st33{fill:#1BA1FC;}
	.st34{fill:#189694;}
	.st35{fill:#00B0D2;}
	.st36{fill:#008FA2;}
	.st37{fill:#48FECB;}
	.st38{fill:#02EDD0;}
	.st39{fill:#00B8B7;}
	.st40{fill:#245D80;}
	.st41{fill:#2AEEF8;}
	.st42{fill:#27DFFD;}
	.st43{fill:#1C6F93;}
	.st44{fill:#1D0E6C;}
	.st45{fill:#4081A5;}
	.st46{fill:#00A7B5;}
	.st47{fill:#7B25FB;}
	.st48{fill:#3EFEEF;}
	.st49{fill:#21A4BA;}
	.st50{fill:#4E2D6A;}
	.st51{fill:#394DA5;}
	.st52{fill:#0F386D;}
	.st53{fill:#9738A5;}
	.st54{fill:#1F6DC7;}
	.st55{fill:#277FE1;}
	.st56{fill:#1F6DC5;}
	.st57{fill:#3194EF;}
	.st58{fill:#21BCDF;}
	.st59{fill:#622C65;}
	.st60{fill:#A43AC5;}
	.st61{fill:#503FBA;}
	.st62{fill:#543E79;}
	.st63{fill:#BD21D7;}
	.st64{fill:#23064B;}
	.st65{fill:#3F2D6E;}
	.st66{fill:#AC00BF;}
	.st67{fill:#2072BC;}
	.st68{fill:#8925FB;}
	.st69{fill:#1663EB;}
	.st70{fill:#1F9CA6;}
	.st71{fill:#00D0C4;}
	.st72{fill:#00A89F;}
	.st73{fill:#00C5E5;}
	.st74{fill:#32EDEC;}
	.st75{fill:#00D6CE;}
	.st76{fill:#2DDEC6;}
	.st77{fill:#CDDDA5;}
	.st78{fill:none;}
	.st79{fill:#AC1FBE;}
</style>
<g id="Layer_1_1_">
</g>
<g id="Layer_2_1_">
	<g>
		<g>
			<path class="st0" d="M236.7,395c15.7,1,31.4,1,48.1,3.4c-16.5,9-32,17.4-47.4,25.8C235.8,424.4,233.9,394.8,236.7,395z"/>
		</g>
		<g>
			<path class="st1" d="M184.9,374.6l-0.1,0.1c0.2,1.2,0.1,2.4,0.1,3.5c0,3.3,0.9,14.5,1.1,16.6c0.6,6.2,2.3,18.8,2.5,19     c0.2,4.6,31.5-4.5,31.5-4.5C219.6,408.9,186.4,376.3,184.9,374.6z"/>
		</g>
		<g>
			<path class="st2" d="M332.1,378.1c-7.4,3.4-35.9,18.1-38.4,18.9c0.1,0.8,0.8,1.7,1.9,3c4.7,5.3,10.2,10,14.1,16     C313.8,416.5,333.9,377.9,332.1,378.1z"/>
		</g>
		<g>
			<path class="st3" d="M285.4,396c-2.3-1.8-21.4-15.7-28.8-22.8c-3.8-0.9-19.1,17.6-19.1,19.5c0.1,0,0.1,0,0.2,0     C240.1,392.7,280.4,395.8,285.4,396z"/>
		</g>
		<g>
			<path class="st4" d="M239.9,425.9c10.5-7.3,22.5-12.1,33.6-18.4c4.1-2.3,8.3-4.4,13.3-7c-1.1,9.1-5.7,16.2-6.8,24.3     C277.8,426.5,250.8,426,239.9,425.9z"/>
		</g>
		<g>
			<path class="st5" d="M182.4,375.5c-0.4,0-0.8-0.1-0.9,0.1c-5.7,6.6-11.3,13.3-17,20c-1.4,1.7-0.6,2.8,0.9,3.9     c6.4,5,12.7,10.1,19,15.3c0.6,0.5,0.9,0.6,1.2,0.6C185.6,415.2,182.5,380.3,182.4,375.5z"/>
		</g>
		<g>
			<path class="st6" d="M180.8,372c-4.1-1-19.5-2.2-21.4-3.2c-2.2,0.2-1.6,16.8-1.3,23.4c0.2,3.8,1.6,4.3,4.6,2.2l0,0     C165.3,390.3,178.9,374,180.8,372z"/>
		</g>
		<g>
			<path class="st7" d="M335.8,378c-0.4,0.5-18.7,34.3-19.2,35.2c9.4-6.2,33.9-21.3,34.7-24.6C350.6,387.9,338.2,379.9,335.8,378z"/>
		</g>
		<g>
			<path class="st8" d="M294.6,353.9c-3.7,3.8-4.9,9-8,13.2c0.1,0.5,37.9,6.7,42.7,7.5C328.6,374.2,294.7,354,294.6,353.9z"/>
		</g>
		<g>
			<path class="st9" d="M281.3,369.8c1.4,0.2,3,0,3.3,2.1c1.1,7.2,2.2,14.4,3.5,22.8c-10.5-7.6-20.3-14.6-30-21.6     C260.5,370.8,276.4,370.7,281.3,369.8z"/>
		</g>
		<g>
			<path class="st10" d="M181.5,370.5c0.4-0.5,0.5-1.3,0.5-2.2c-0.1-2.7-0.7-13.6-0.8-16.3c0-1.2-0.1-4.2-0.2-4.4     c-0.7-1.2-24,18.8-24,19.2C159.3,367.1,177.6,369.8,181.5,370.5z"/>
		</g>
		<g>
			<path class="st11" d="M281.3,424.8c2.5-7,5.4-13.9,7.5-21c1.3-4.2,2.4-3.3,4.8-0.9c5,5,10.2,9.7,15.3,14.6     C300,420.8,290.7,423.1,281.3,424.8z"/>
		</g>
		<g>
			<path class="st12" d="M208.1,369.2c-1.2-0.8-2.3-1.7-3.4-2.6c-0.9-0.5-18.1-17.2-20.8-19.5c-0.3,0.3,0.3,17.4,0.1,19.6     c-0.3,3.6,1.3,4.5,4.7,4.3C190.1,371,208,369.5,208.1,369.2z"/>
		</g>
		<g>
			<path class="st13" d="M192.8,190.4c15-3.3,30-6.6,46-10.1c-3.8,4.9-7.2,9.1-10.4,13.4c-1.2,1.5-2.6,0.9-4,0.8     c-10.4-1.1-20.9-2.2-31.3-3.2C193,190.9,192.9,190.6,192.8,190.4z"/>
		</g>
		<g>
			<path class="st14" d="M221.8,411C221.8,410.9,221.8,410.9,221.8,411c-4.7,0-27.3,6.2-27.6,6.3c3.4,1.9,31.4,7.4,37.6,7.4     C231.3,423.7,224.2,413.1,221.8,411z"/>
		</g>
		<g>
			<path class="st15" d="M291.8,203.5c1.4,0.6,2,0.6,2.4,1c7.3,5.7,14.6,11.5,22.6,17.9c-5.5,1.6-10.3,3-15.1,4.4     c-1,0.3-2.1,0.6-2.6-1C296.7,218.5,294.3,211.3,291.8,203.5z"/>
		</g>
		<g>
			<path class="st16" d="M258.5,315.1c-0.5-0.5,13.7-13.7,14.7-13.2c5.6,2.9,12.1,4.2,16.9,8.6C289.7,310.6,268.6,313.7,258.5,315.1     z"/>
		</g>
		<g>
			<path class="st17" d="M189.1,279.8c-0.2,0.1-19.8-25-29.3-37.7c-1.6-3.8,2.6-12.6,3.2-13.5C163.8,229.5,181.2,263.7,189.1,279.8z     "/>
		</g>
		<g>
			<path class="st18" d="M303,340.9c-11.2-0.9-21.5-1.7-31.8-2.4c-1.3,2.1,15.5,9.6,22.3,13.2C294.6,350.3,302.9,341.1,303,340.9z"/>
		</g>
		<g>
			<path class="st19" d="M249,374.3c-0.3-0.1-23.1,6.7-22.1,9.6c0.2,0,5.7,6.8,6.5,7.9C235.6,388.8,248.8,374.6,249,374.3z"/>
		</g>
		<g>
			<path class="st20" d="M235.7,328.9c0.8-4.1-0.8-8.5,1.2-13.2c6.9,5.3,13.5,10.4,20,15.4c0.5,0.4,0.3,0.9-0.2,1.3     C249.7,331.3,242.5,331.2,235.7,328.9z"/>
		</g>
		<g>
			<path class="st21" d="M246.1,372c-10.2,0-20.4,0-31.4,0c5.8,6.8,8.1,8,13.9,6.5C228.6,378.3,245.6,372.2,246.1,372z"/>
		</g>
		<g>
			<path class="st22" d="M262.9,225.3c3.2-2.6,5.8-4.8,8.9-7.4c3.3,5.7,6.5,11.3,9.6,16.8c-0.3,0.3-0.5,0.5-0.8,0.8     C275,232.2,269.3,229,262.9,225.3z"/>
		</g>
		<g>
			<path class="st23" d="M225.3,243.7c0.1-1.8-0.2-3.6-0.7-5.4l0,0c-1.1-1.8-8.2-13.7-8.3-13.9c0.1,0.8,3.9,26.2,4.1,28     C221.4,250.3,225.1,244.1,225.3,243.7z"/>
		</g>
		<g>
			<path class="st24" d="M188.8,192.2L188.8,192.2c-0.4,1.5-2.9,5.3-3.2,6c0.7,0.6,31.4-2.7,31.4-3.1     C207.6,194.1,198.2,193,188.8,192.2z"/>
		</g>
		<g>
			<path class="st25" d="M281,289.5c-0.1,0-12.5-9.9-12.9-10c0,1.4,3.6,17.7,3.9,18h0.1C274,296.1,281,289.9,281,289.5z"/>
		</g>
		<g>
			<g>
				<path class="st26" d="M361.2,332c0-0.1,0-0.1,0-0.2c-2.2-0.6-2.6,2-3.6,3.3c-3.6,5.1-17.1,30.2-21.2,37.2      c-1.9,3.3-0.1,4.3,2.2,5.8c4.8,3.1,10.2,5.3,15,8.4C354.3,384.8,361.2,334.2,361.2,332z"/>
			</g>
		</g>
		<g>
			<g>
				<path class="st27" d="M239,282.1c-0.9-1.2-12.2-15.3-15-16.8c-0.9,6.7-1.1,12.7-0.5,18.6c0.6,5.8,0.8,8.1,3.2,8.4      c2.5-0.3,13.8-3.8,14.7-4.1C242.3,287.2,241.4,285.4,239,282.1z"/>
			</g>
		</g>
		<g>
			<path class="st28" d="M323.3,253.3c-1.1-1.7-18.4-17.9-18.6-17.7c2.8,4.4,13.1,19.5,13.8,20.8c0.5,0.3,4.5-1.7,5.1-2.2     C323.6,253.9,323.5,253.6,323.3,253.3z"/>
		</g>
		<g>
			<g>
				<path class="st29" d="M269.8,277.8c0.4,0.5,11.7,9.7,13.2,11.9v0.1c10.2-0.6,46.3,2.7,46.3,2.6      C309.7,287.6,290.2,282.8,269.8,277.8z"/>
			</g>
		</g>
		<g>
			<path class="st30" d="M196.4,372.3c6.3,3.7,13.7,3.1,21.4,5.8c-2.8-3.4-5.4-5.7-8.5-6.5C207.3,372.1,198.6,372.4,196.4,372.3z"/>
		</g>
		<g>
			<g>
				<path class="st31" d="M257.9,318.2c-0.1,0.4,0.1,1.6,0.2,1.8c0.6,1.2,6.7,14,6.8,14.3c0.6,0.1,24.7-20.3,24.5-21.3      C289.3,312.8,258,318.3,257.9,318.2z"/>
			</g>
		</g>
		<g>
			<g>
				<path class="st23" d="M163.9,287.8c-0.3,0.7,15.6,15.7,23.7,21.6c0.9,0.2,4.8-22.2,5.1-22.3l-0.1-0.1      C189.7,288.6,170.1,287.9,163.9,287.8z"/>
			</g>
		</g>
		<g>
			<g>
				<path class="st32" d="M293.8,312.8c-1.6-0.7-21.6,17.5-26.5,23.4c11.9,1.6,23.8,2.7,35.9,2.5C303,335.6,294.7,315.5,293.8,312.8      z"/>
			</g>
		</g>
		<g>
			<g>
				<path class="st33" d="M225.7,263.6c0.2,0.2,19.2,23.8,19.3,24c0.9,0.5,2,0.6,3.1,0.3c0-0.1,13.6-12.5,13.7-13.3      C258.5,273.8,225.7,263.4,225.7,263.6z"/>
			</g>
		</g>
		<g>
			<g>
				<path class="st34" d="M274.9,181.4c-4.2-0.2-31.3-1.5-32.3-1.5c-0.2,0-0.4,0-0.6,0c-0.2,0.7,7.2,23.9,8,23.9      C251,203.1,275.5,183.5,274.9,181.4z"/>
			</g>
		</g>
		<g>
			<g>
				<path class="st35" d="M317.5,224.9c-3.4,0.6-16.4,3.9-16.5,3.7v0.1c0.1,0.2,20.8,20.7,22.2,21.9      C322.4,246.4,317.6,225,317.5,224.9z"/>
			</g>
		</g>
		<g>
			<g>
				<path class="st36" d="M247,207.6c-3.7,0.9-30.6,9.3-32.6,9.3c-0.7,1.3,11.2,18.2,13.4,20.7l0,0c2.1-3.8,15.2-24.2,15.2-24.2      C243,213.2,245.8,209.5,247,207.6z"/>
			</g>
		</g>
		<g>
			<g>
				<path class="st37" d="M277.2,182.7c-0.5,0.3-23.9,21.4-23.9,21.5c0.2-0.1,31.3-5.1,32.2-5.6c0.2-0.2,0.3-0.4,0.3-0.6      C285.6,197.4,278.5,183.1,277.2,182.7z"/>
			</g>
		</g>
		<g>
			<g>
				<path class="st38" d="M319.3,222.1c0,2.1,6.5,30.7,7.6,30.9l0,0c0-0.1,21.1-37.3,21.3-37.7C347.6,214.2,322,221.4,319.3,222.1z"/>
			</g>
		</g>
		<g>
			<g>
				<path class="st39" d="M298.3,230.3C298.2,230.2,298.2,230.2,298.3,230.3c-0.2,0.1-0.4,0.2-0.6,0.3c-1.4,0.8-11.7,9.1-11.8,9.1      v0.1c3.9,2.6,27.6,14.9,28.8,15.1C314.7,254.9,300.5,231.5,298.3,230.3z"/>
			</g>
		</g>
		<g>
			<g>
				<path class="st40" d="M251.4,207.7c-0.1,0-0.1,0.1-0.2,0.1c0.3,0.7,8.5,15.5,9.1,16.1l0.1,0.1c2.2-0.8,8-6.8,8.8-7.6      C268.7,216.1,251.5,207.9,251.4,207.7z"/>
			</g>
		</g>
		<g>
			<g>
				<path class="st41" d="M243.9,205.6c-3-3-18.1-8.9-18.1-9.2c0,0-8.1,15.5-9.9,18.5C216.1,214.9,243.3,205.7,243.9,205.6z"/>
			</g>
		</g>
		<g>
			<g>
				<path class="st42" d="M182.4,201.4c-0.2,0.1-17.6,21.8-17.7,21.9c0,0.2,42.8-7.5,43.7-7.8C208.4,215.3,182.7,201.3,182.4,201.4z      "/>
			</g>
		</g>
		<g>
			<g>
				<path class="st43" d="M186,200.4c0.5,0.4,27.4,14.6,27.7,14.5c0.1-0.1,9.1-16.3,9.4-17C223.1,197.8,187.2,198.3,186,200.4z"/>
			</g>
		</g>
		<g>
			<g>
				<path class="st44" d="M283.3,291c-0.8-0.1-9,8.4-8.8,9.1c2.5,1.6,16.4,7.3,16.7,6.9C291.4,306.8,283.8,293.5,283.3,291z"/>
			</g>
		</g>
		<g>
			<g>
				<path class="st45" d="M241.1,182.3c-0.3,0-11.5,13.1-11.4,13.4l0,0c1.3,0.8,14.4,7.1,17.2,8.3      C246.6,202.8,241.3,184.8,241.1,182.3z"/>
			</g>
		</g>
		<g>
			<g>
				<path class="st46" d="M319,204.3c0-0.1,0-0.1,0-0.2c-0.3-0.3-17-3.3-26.1-3.2c3.1,4,24.5,19,24.7,18.9      C317.8,219.8,319.1,206.4,319,204.3z"/>
			</g>
		</g>
		<g>
			<g>
				<path class="st47" d="M233.3,314.4c-0.3-0.1-35.1-1.5-36.9-0.3c1.7,0.6,35.1,14,36.5,14.5c0.3-0.3,0.5-0.6,0.7-1      C233.6,327.6,233.3,317.1,233.3,314.4z"/>
			</g>
		</g>
		<g>
			<g>
				<path class="st48" d="M217,254.9c0-0.1,0-0.1,0-0.2c-0.1-0.4-4.8-35.7-4.8-35.8c-18.8,2.4-43.3,6.1-46.3,8.9      C170.5,230.3,216.4,254.8,217,254.9z"/>
			</g>
		</g>
		<g>
			<g>
				<path class="st49" d="M259.1,224.8c-0.2-0.1-0.3-0.3-0.4-0.5c-0.4-0.8-9.6-16-9.5-16.1c-0.3-0.1-0.5-0.1-0.8-0.1l0,0      c-0.8,1.2-17.2,28.9-17.2,28.9c0.1,0.2,0.3,0.3,0.5,0.4c0.1-0.1,26.3-11.4,27.6-12.1C259.2,225.2,259.1,225,259.1,224.8z"/>
			</g>
		</g>
		<g>
			<g>
				<path class="st50" d="M231.6,308.5c-10.5,0-21-0.1-31.5,0.1c-1.7,0.7-3.4,1.5-5.1,2.2c0.5,0.4,34.3,0.8,38.3,1      C233.1,311.6,231.7,308.8,231.6,308.5z"/>
			</g>
			<g>
				<path class="st50" d="M231.6,308.5c-0.3,1.7-1.4,2.3-3.1,2.3c-8.5-0.1-17.1-0.1-25.6-0.1c-1.5,0-2.5-0.6-2.9-2      c6.8-3.7,13.7-7.1,20.3-11.1c3.5-2.1,5.3-1.3,6.5,1.9C227.6,301.3,231.6,308.5,231.6,308.5z"/>
			</g>
		</g>
		<g>
			<g>
				<path class="st16" d="M194.5,287.1c0.2,1.5-4,18.4-3.3,21.5l0,0c4.6-1.6,22.7-9.7,30.2-14.2      C221.3,294.4,195.1,287.1,194.5,287.1z"/>
			</g>
		</g>
		<g>
			<path class="st51" d="M228.3,297.4c0.6,2.3,6,13,6,13c1.5,1.4,3.2,2.5,5.2,3.3c0.1,0,9.1,0.9,9.4,0.9     C242,308.8,235.5,303.4,228.3,297.4z"/>
		</g>
		<g>
			<path class="st52" d="M256.6,320.2c-1.6-1.4-3.4-2.5-5.5-3.3c-0.1,0-9.4-1-10.8-0.9c7.8,6.4,15.1,12.4,22.3,18.2     C262.5,333.9,257.7,322.6,256.6,320.2z"/>
		</g>
		<g>
			<g>
				<path class="st53" d="M243.8,289.3c-0.9,0.3-15.5,5-16,5.3c5.3,5,20.4,18.1,22.8,18.2C250.9,307.3,243.9,289.4,243.8,289.3z"/>
			</g>
		</g>
		<g>
			<g>
				<path class="st54" d="M250.4,288.7c3.6,1.7,16.3,9.6,19.9,10.3c0.2-0.2,0.4-0.4,0.5-0.7c-1.3-5.4-5.7-22.5-6.1-22.5      c-1.8,1.4-12.7,11.1-14.6,12.8C250.2,288.7,250.3,288.7,250.4,288.7z"/>
			</g>
		</g>
		<g>
			<g>
				<path class="st55" d="M254.9,314.5c3.6-3.5,12.9-12.6,13.7-14c-2.9-0.6-21.3-10.2-21.6-9.7C247.1,292.4,253.2,313.8,254.9,314.5      z"/>
			</g>
		</g>
		<g>
			<g>
				<path class="st56" d="M221.3,263.4c-0.7,0.5-22.6,19.7-24.7,22.2c0.4,0.2,0.8,0.4,1.2,0.6c0.4,0.1,0.8,0.2,1.3,0.4      c0.6,0.2,6.1,0.8,7.2,1c0-0.2,7.6,1.4,7.7,1.4c2.4,0.6,6.8,2.7,6.9,2.6C221.3,288.1,221.3,263.7,221.3,263.4z"/>
			</g>
		</g>
		<g>
			<g>
				<path class="st57" d="M190.5,284.9c-10.2,0.4-20.4,1.2-30.6-0.4c0-2.6,0.1-26.4,0.3-35.8C160.3,246.6,191.2,284.8,190.5,284.9z"/>
			</g>
		</g>
		<g>
			<g>
				<path class="st58" d="M220.6,260.6c-1.1-0.4-52.8-29.5-53-29.4c0.1,1.5,23.4,45.4,26.4,53.9      C195.7,283.7,217.7,263.4,220.6,260.6z"/>
			</g>
		</g>
		<g>
			<path class="st59" d="M330.2,377.3c-0.4,0.2-0.7,0.4-1.1,0.6c-11.7,5.7-23.4,11.2-34.9,17c-3.3,1.7-4.1,0.6-4.5-2.2     c-1-7.4-3.1-14.6-3.4-22.7C301,372.6,315.8,373.5,330.2,377.3z"/>
		</g>
		<g>
			<path class="st60" d="M222.6,386.1c0.5-3.5-0.7-4.8-4-5.5c-9.3-1.9-18.6-4.1-27.9-6.2c-5.2,0.2,20.6,22.3,31.2,32.1     C221.9,406.4,222.3,387.9,222.6,386.1z"/>
		</g>
		<g>
			<path class="st61" d="M332.3,371c-1.9-7.9-8.8-37.8-10.7-45.7c-5,5.3-9.2,9.8-13.5,14.3c-0.8,0.8,18.9,26.9,22.9,32.4     C331.8,372.1,332.8,372.9,332.3,371z"/>
		</g>
		<g>
			<path class="st62" d="M305.3,342.1c-0.5,0.4-9.8,10.6-9.9,10.6c2.3,1.4,30.4,18.9,34.3,19.5C325.9,365.9,305.5,341.9,305.3,342.1     z"/>
		</g>
		<g>
			<path class="st63" d="M233,398.7c-0.3-0.1-9.1,10.9-9.3,11.4c0,0,0,0,0,0.1c0.1,0.2,0.5,0.5,0.6,0.6c1.5,1.5,8.6,10,8.9,9.8     C233,418.8,233.2,400.4,233,398.7z"/>
		</g>
		<g>
			<path class="st64" d="M230.4,397.6c0.8-2.1,1-4.2,0.3-6.3c-0.3-0.2-5.7-6.3-6.1-6.4c-0.2,1.8-1.8,17.7,0.3,20.2     C224.9,404.9,229.8,398.5,230.4,397.6z"/>
		</g>
		<g>
			<g>
				<path class="st65" d="M295.9,312.1c2.2,6,9.1,23.9,11.2,26.3c3.2-2.2,12.9-14.1,12.7-15.2C319.6,323.1,296.8,312.4,295.9,312.1z      "/>
			</g>
		</g>
		<g>
			<g>
				<path class="st66" d="M358.2,327c-0.1,0-31.9-3.1-34.3-3.9c-0.4,1,10.2,48.8,10.3,49c2.1-2.8,23.1-40.2,23.8-41.6      C359.1,328.8,359,327.7,358.2,327z"/>
			</g>
		</g>
		<g>
			<g>
				<path class="st67" d="M291.6,291.7c0,0-4.3-0.1-6.5-0.1c-0.4,1.7,9.7,17.2,10.8,17.8c4-1.8,32-14.5,32-15      C324.8,294.6,292,291.7,291.6,291.7z"/>
			</g>
		</g>
		<g>
			<g>
				<path class="st68" d="M334.2,296.2c-0.2-0.2-0.5-0.5-0.7-0.8c-0.2,0.1-9,21.1-9,24.2c0,0.1,0,0.1,0,0.2c0.2,0.2,0.3,0.3,0.6,0.5      h0.1c2,0.1,30.6,4.1,31.7,4.3c0-0.1,0.1-0.1,0.1-0.2C356.8,324.2,334.9,297,334.2,296.2z"/>
			</g>
		</g>
		<g>
			<g>
				<path class="st69" d="M330.7,295.3v-0.1c-2.2-0.5-30.1,15.4-31.1,15.4c0.1,0.5,22.2,11.5,22.5,11.3      C321.9,321.8,330.5,295.3,330.7,295.3z"/>
			</g>
		</g>
		<g>
			<g>
				<path class="st70" d="M276.3,211.8c3.5-3,7-6,10.6-9c-0.3-0.4-22.3,1.7-34.5,3.5c6.7,3.3,12.1,5.8,17.4,8.5c1.2,0.6,2,0.5,2.9,0      C273.8,213.7,275,212.7,276.3,211.8z"/>
			</g>
		</g>
		<g>
			<g>
				<path class="st71" d="M321.1,206.1c-0.1,3.1-0.8,11.4-1.2,13.9c0.4-0.2,27.4-7.2,28-7.4C343.4,209.6,321.5,205.6,321.1,206.1z"/>
			</g>
		</g>
		<g>
			<g>
				<path class="st72" d="M319.3,191c-0.6-1.2-1.8-2.2-4.2-2.8c-5.1-1.2-27.8-5.6-29.6-5.8c-0.1,0.1,33.1,17.5,33.7,17.9      c0.1,0,0.1,0.1,0.2,0.1C319.2,197.3,319.2,194.2,319.3,191z"/>
			</g>
		</g>
		<g>
			<g>
				<path class="st73" d="M281.9,183.1c-0.2,0.1,6.2,13,6.4,13.4c2.3,1.5,4.9,2.4,7.7,2.9c1.3,0.1,13.2,1,17.7,1.8      C312.3,199.2,291.2,187.5,281.9,183.1z"/>
			</g>
		</g>
		<g>
			<g>
				<path class="st74" d="M273.7,216.1c7.5,3.5,15.4,7.2,24.1,11.3c-3.1-8.6-5.9-16.4-8.5-23.9C288.8,203.7,278,212.2,273.7,216.1z"/>
			</g>
		</g>
		<g>
			<g>
				<path class="st75" d="M322.1,190.2c-0.3,0.4-0.9,10.7-0.9,12.1c1.3,0.2,19.7,5.7,24.6,6.7C343.7,204.2,323.5,192.9,322.1,190.2z      "/>
			</g>
		</g>
		<g>
			<g>
				<path class="st76" d="M286.1,236.9c1-0.6,9.9-7.7,10-8c-0.4-0.6-17.7-8.2-21.8-9.4C274.6,220,285.7,236.9,286.1,236.9z"/>
			</g>
		</g>
		<g>
			<polygon class="st77" points="350.2,291.7 350.2,291.7 350.2,291.7 350.2,291.7 350.2,291.7    "/>
		</g>
		<g>
			<line class="st78" x1="249.9" y1="111.1" x2="249.9" y2="53.3"/>
			<rect x="248.3" y="53.3" class="st66" width="3.3" height="57.8"/>
		</g>
		<g>
			<line class="st78" x1="163.8" y1="487.7" x2="87.7" y2="384.6"/>
			
				<rect x="124.1" y="372.1" transform="matrix(0.8044 -0.594 0.594 0.8044 -234.4949 159.9839)" class="st66" width="3.3" height="128.2"/>
		</g>
		<g>
			<line class="st78" x1="87.7" y1="384.6" x2="31.3" y2="385"/>
			
				<rect x="31.3" y="383.1" transform="matrix(1 -6.835618e-03 6.835618e-03 1 -2.6286 0.4156)" class="st66" width="56.4" height="3.3"/>
		</g>
		<g>
			<line class="st78" x1="87.7" y1="384.6" x2="116" y2="185.7"/>
			
				<rect x="1.3" y="283.4" transform="matrix(0.1406 -0.9901 0.9901 0.1406 -194.7675 345.7836)" class="st66" width="200.9" height="3.3"/>
		</g>
		<g>
			<line class="st78" x1="116" y1="185.7" x2="250" y2="112.3"/>
			
				<rect x="106.6" y="147.4" transform="matrix(0.877 -0.4805 0.4805 0.877 -49.0948 106.2532)" class="st66" width="152.8" height="3.3"/>
		</g>
		<g>
			<line class="st78" x1="87.8" y1="89.2" x2="1.4" y2="227.6"/>
			
				<rect x="-37" y="156.8" transform="matrix(0.5296 -0.8483 0.8483 0.5296 -113.4493 112.3697)" class="st66" width="163.1" height="3.3"/>
		</g>
		<g>
			<line class="st78" x1="31.4" y1="385" x2="1.4" y2="227.6"/>
			
				<rect x="14.7" y="226.2" transform="matrix(0.9823 -0.1873 0.1873 0.9823 -57.0807 8.4779)" class="st66" width="3.3" height="160.2"/>
		</g>
		<g>
			<line class="st78" x1="87" y1="89.2" x2="250.7" y2="34.6"/>
			
				<rect x="82.6" y="60.2" transform="matrix(0.9485 -0.3167 0.3167 0.9485 -10.8956 56.6603)" class="st66" width="172.6" height="3.3"/>
		</g>
		<g>
			<line class="st78" x1="163.8" y1="487.7" x2="31.4" y2="385"/>
			
				<rect x="95.9" y="352.5" transform="matrix(0.613 -0.7901 0.7901 0.613 -307.011 245.9209)" class="st66" width="3.3" height="167.6"/>
		</g>
		<g>
			<line class="st78" x1="116" y1="185.7" x2="87.8" y2="89.2"/>
			<rect x="100.2" y="87.2" transform="matrix(0.96 -0.28 0.28 0.96 -34.4148 34.0079)" class="st66" width="3.3" height="100.5"/>
		</g>
		<g>
			<line class="st78" x1="1.4" y1="227.6" x2="116" y2="185.7"/>
			
				<rect x="-2.3" y="205" transform="matrix(0.9392 -0.3434 0.3434 0.9392 -67.3921 32.7112)" class="st66" width="122" height="3.3"/>
		</g>
		<g>
			<line class="st78" x1="87.8" y1="89.2" x2="67.4" y2="168.3"/>
			
				<rect x="36.7" y="127.1" transform="matrix(0.25 -0.9682 0.9682 0.25 -66.4405 171.6573)" class="st66" width="81.7" height="3.3"/>
		</g>
		<g>
			<line class="st78" x1="116" y1="185.7" x2="67.4" y2="168.3"/>
			
				<rect x="90" y="151.2" transform="matrix(0.3375 -0.9413 0.9413 0.3375 -105.9454 203.5349)" class="st66" width="3.3" height="51.6"/>
		</g>
		<g>
			<line class="st78" x1="1.4" y1="227.6" x2="67.4" y2="168.3"/>
			
				<rect x="-10" y="196.3" transform="matrix(0.7439 -0.6683 0.6683 0.7439 -123.52 73.6465)" class="st66" width="88.7" height="3.3"/>
		</g>
		<g>
			<line class="st78" x1="87.8" y1="89.2" x2="250" y2="112.3"/>
			
				<rect x="167.2" y="18.9" transform="matrix(0.141 -0.99 0.99 0.141 45.2671 253.7888)" class="st66" width="3.3" height="163.8"/>
		</g>
		<g>
			<line class="st78" x1="116" y1="185.7" x2="144.1" y2="126.6"/>
			
				<rect x="97.3" y="154.5" transform="matrix(0.4297 -0.903 0.903 0.4297 -66.8223 206.4327)" class="st66" width="65.5" height="3.3"/>
		</g>
		<g>
			<line class="st78" x1="87.8" y1="89" x2="144.1" y2="126.3"/>
			
				<rect x="114.3" y="73.9" transform="matrix(0.553 -0.8332 0.8332 0.553 -37.8639 144.7476)" class="st66" width="3.3" height="67.6"/>
		</g>
		<g>
			<line class="st78" x1="250" y1="112.3" x2="144.1" y2="126.6"/>
			
				<rect x="143.6" y="117.8" transform="matrix(0.9911 -0.1331 0.1331 0.9911 -14.1468 27.2798)" class="st66" width="106.8" height="3.3"/>
		</g>
		<g>
			<line class="st78" x1="87.6" y1="88" x2="250.2" y2="53.3"/>
			
				<rect x="85.8" y="69" transform="matrix(0.978 -0.2087 0.2087 0.978 -11.0245 36.7986)" class="st66" width="166.2" height="3.3"/>
		</g>
		<g>
			<line class="st78" x1="1.4" y1="227.6" x2="87.7" y2="384.6"/>
			
				<rect x="42.8" y="216.5" transform="matrix(0.8764 -0.4816 0.4816 0.8764 -141.89 59.2563)" class="st66" width="3.3" height="179.1"/>
		</g>
		<g>
			<line class="st78" x1="116" y1="185.7" x2="58.7" y2="255.7"/>
			
				<rect x="42.1" y="219.1" transform="matrix(0.6335 -0.7738 0.7738 0.6335 -138.7961 148.472)" class="st66" width="90.4" height="3.3"/>
		</g>
		<g>
			<line class="st78" x1="1.4" y1="227.6" x2="58.7" y2="255.7"/>
			
				<rect x="28.4" y="209.7" transform="matrix(0.4404 -0.8978 0.8978 0.4404 -200.1235 162.2087)" class="st66" width="3.3" height="63.8"/>
		</g>
		<g>
			<line class="st78" x1="87.7" y1="384.6" x2="58.7" y2="255.7"/>
			
				<rect x="71.5" y="254.1" transform="matrix(0.9756 -0.2195 0.2195 0.9756 -68.4869 23.8598)" class="st66" width="3.3" height="132.1"/>
		</g>
		<g>
			<line class="st78" x1="163.8" y1="487.7" x2="87.3" y2="412"/>
			
				<rect x="123.9" y="396.1" transform="matrix(0.7032 -0.711 0.711 0.7032 -282.6152 222.7893)" class="st66" width="3.3" height="107.6"/>
		</g>
		<g>
			<line class="st78" x1="30.2" y1="384.4" x2="87.3" y2="412"/>
			
				<rect x="57.1" y="366.5" transform="matrix(0.4358 -0.9 0.9 0.4358 -325.2725 277.492)" class="st66" width="3.3" height="63.4"/>
		</g>
		<g>
			<line class="st78" x1="87.7" y1="384.6" x2="87.3" y2="412"/>
			
				<rect x="73.7" y="396.6" transform="matrix(1.301993e-02 -0.9999 0.9999 1.301993e-02 -311.8537 480.5399)" class="st66" width="27.5" height="3.3"/>
		</g>
		<g>
			<line class="st78" x1="335.7" y1="487.7" x2="411.9" y2="384.6"/>
			
				<rect x="309.7" y="434.4" transform="matrix(0.5937 -0.8047 0.8047 0.5937 -199.0522 477.9598)" class="st66" width="128.2" height="3.3"/>
		</g>
		<g>
			<line class="st78" x1="411.8" y1="384.6" x2="468.2" y2="385"/>
			
				<rect x="438.3" y="356.6" transform="matrix(6.778182e-03 -1 1 6.778182e-03 52.2085 822.1519)" class="st66" width="3.3" height="56.4"/>
		</g>
		<g>
			<line class="st78" x1="411.9" y1="384.6" x2="383.6" y2="185.7"/>
			
				<rect x="396" y="184.7" transform="matrix(0.99 -0.1408 0.1408 0.99 -36.1848 58.8381)" class="st66" width="3.3" height="200.9"/>
		</g>
		<g>
			<line class="st78" x1="383.6" y1="185.7" x2="249.6" y2="112.3"/>
			
				<rect x="314.9" y="72.6" transform="matrix(0.4804 -0.8771 0.8771 0.4804 33.7809 355.0385)" class="st66" width="3.3" height="152.8"/>
		</g>
		<g>
			<line class="st78" x1="411.7" y1="89.2" x2="498.1" y2="227.6"/>
			
				<rect x="453.2" y="76.8" transform="matrix(0.8482 -0.5297 0.5297 0.8482 -14.8091 264.9776)" class="st66" width="3.3" height="163.1"/>
		</g>
		<g>
			<line class="st78" x1="468.1" y1="385" x2="498.1" y2="227.6"/>
			
				<rect x="403" y="304.6" transform="matrix(0.1875 -0.9823 0.9823 0.1875 91.6308 723.3584)" class="st66" width="160.2" height="3.3"/>
		</g>
		<g>
			<line class="st78" x1="412.5" y1="89.2" x2="248.8" y2="34.6"/>
			
				<rect x="328.9" y="-24.4" transform="matrix(0.3167 -0.9485 0.9485 0.3167 167.1863 355.8745)" class="st66" width="3.3" height="172.6"/>
		</g>
		<g>
			<line class="st78" x1="335.7" y1="487.7" x2="468.1" y2="385"/>
			
				<rect x="318.1" y="434.7" transform="matrix(0.7901 -0.613 0.613 0.7901 -183.1364 337.95)" class="st66" width="167.6" height="3.3"/>
		</g>
		<g>
			<line class="st78" x1="383.6" y1="185.7" x2="411.7" y2="89.2"/>
			
				<rect x="347.3" y="135.8" transform="matrix(0.2799 -0.96 0.96 0.2799 154.3242 480.6957)" class="st66" width="100.5" height="3.3"/>
		</g>
		<g>
			<line class="st78" x1="498.1" y1="227.6" x2="383.6" y2="185.7"/>
			
				<rect x="439.2" y="145.7" transform="matrix(0.3434 -0.9392 0.9392 0.3434 95.3689 549.7103)" class="st66" width="3.3" height="122"/>
		</g>
		<g>
			<line class="st78" x1="411.7" y1="89.2" x2="432.1" y2="168.3"/>
			
				<rect x="420.3" y="87.9" transform="matrix(0.9683 -0.2499 0.2499 0.9683 -18.7818 109.5183)" class="st66" width="3.3" height="81.7"/>
		</g>
		<g>
			<line class="st78" x1="383.6" y1="185.7" x2="432.1" y2="168.3"/>
			
				<rect x="382.1" y="175.4" transform="matrix(0.9414 -0.3372 0.3372 0.9414 -35.811 147.9025)" class="st66" width="51.6" height="3.3"/>
		</g>
		<g>
			<line class="st78" x1="498.1" y1="227.6" x2="432.1" y2="168.3"/>
			
				<rect x="463.4" y="153.6" transform="matrix(0.6683 -0.7439 0.7439 0.6683 7.0368 411.636)" class="st66" width="3.3" height="88.7"/>
		</g>
		<g>
			<line class="st78" x1="411.7" y1="89.2" x2="249.6" y2="112.3"/>
			<rect x="248.7" y="99.1" transform="matrix(0.99 -0.141 0.141 0.99 -10.902 47.616)" class="st66" width="163.8" height="3.3"/>
		</g>
		<g>
			<line class="st78" x1="383.6" y1="185.7" x2="355.4" y2="126.6"/>
			
				<rect x="367.8" y="123.4" transform="matrix(0.903 -0.4297 0.4297 0.903 -31.2571 173.8902)" class="st66" width="3.3" height="65.5"/>
		</g>
		<g>
			<line class="st78" x1="411.7" y1="89" x2="355.4" y2="126.3"/>
			
				<rect x="349.8" y="106" transform="matrix(0.8333 -0.5529 0.5529 0.8333 4.4461 230.0185)" class="st66" width="67.6" height="3.3"/>
		</g>
		<g>
			<line class="st78" x1="249.6" y1="112.3" x2="355.4" y2="126.6"/>
			
				<rect x="300.8" y="66.1" transform="matrix(0.1333 -0.9911 0.9911 0.1333 143.7153 403.2914)" class="st66" width="3.3" height="106.8"/>
		</g>
		<g>
			<line class="st78" x1="411.9" y1="88" x2="249.4" y2="53.3"/>
			
				<rect x="329" y="-12.4" transform="matrix(0.2085 -0.978 0.978 0.2085 192.5761 379.2961)" class="st66" width="3.3" height="166.2"/>
		</g>
		<g>
			<line class="st78" x1="498.1" y1="227.6" x2="411.9" y2="384.6"/>
			
				<rect x="365.4" y="304.5" transform="matrix(0.4818 -0.8763 0.8763 0.4818 -32.5061 557.2546)" class="st66" width="179.1" height="3.3"/>
		</g>
		<g>
			<line class="st78" x1="383.6" y1="185.7" x2="440.9" y2="255.7"/>
			
				<rect x="410.5" y="175.5" transform="matrix(0.7739 -0.6333 0.6333 0.7739 -46.5607 310.9377)" class="st66" width="3.3" height="90.4"/>
		</g>
		<g>
			<line class="st78" x1="498.1" y1="227.6" x2="440.9" y2="255.7"/>
			
				<rect x="437.6" y="240" transform="matrix(0.8977 -0.4407 0.4407 0.8977 -58.4438 231.618)" class="st66" width="63.8" height="3.3"/>
		</g>
		<g>
			<line class="st78" x1="411.9" y1="384.6" x2="440.9" y2="255.7"/>
			
				<rect x="360.2" y="318.5" transform="matrix(0.2193 -0.9757 0.9757 0.2193 20.4386 665.8387)" class="st66" width="132.1" height="3.3"/>
		</g>
		<g>
			<line class="st78" x1="335.7" y1="487.7" x2="412.2" y2="412"/>
			
				<rect x="320.1" y="448.2" transform="matrix(0.711 -0.7032 0.7032 0.711 -208.2314 392.9542)" class="st66" width="107.6" height="3.3"/>
		</g>
		<g>
			<line class="st78" x1="469.3" y1="384.4" x2="412.2" y2="412"/>
			
				<rect x="409" y="396.6" transform="matrix(0.9001 -0.4357 0.4357 0.9001 -129.4969 231.791)" class="st66" width="63.4" height="3.3"/>
		</g>
		<g>
			<line class="st78" x1="411.9" y1="384.6" x2="412.2" y2="412"/>
			
				<rect x="410.4" y="384.6" transform="matrix(0.9999 -1.293915e-02 1.293915e-02 0.9999 -5.1195 5.3643)" class="st66" width="3.3" height="27.5"/>
		</g>
		<g>
			<path class="st79" d="M142.9,379.8l13.5,12.1l-0.9-22.9C155.5,369,143.7,378.9,142.9,379.8z"/>
		</g>
	</g>
</g>
</svg>