<?xml version="1.0" encoding="utf-8"?>
<!-- Generator: Adobe Illustrator 25.2.3, SVG Export Plug-In . SVG Version: 6.00 Build 0)  -->
<svg version="1.1" id="Layer_1" xmlns="http://www.w3.org/2000/svg" xmlns:xlink="http://www.w3.org/1999/xlink" x="0px" y="0px"
	 viewBox="0 0 32 32" style="enable-background:new 0 0 32 32;" xml:space="preserve">
<style type="text/css">
	.st0{fill:#FEA30A;}
	.st1{fill:#EF0A04;}
	.st2{fill:#FDFBFB;}
	.st3{fill:#FE8300;}
	.st4{fill:#070707;}
</style>
<path class="st0" d="M3.244,7.787C3.139,6.533,2.839,5.3,2.838,4.034C2.838,3.052,2.785,2.065,3.101,1.112
	C3.417,0.161,3.72,0,4.672,0.308c1.317,0.426,2.331,1.317,3.34,2.213c0.188,0.167,0.33,0.4,0.601,0.46
	c0.617,0.881,1.49,1.528,2.154,2.367c0.146,0.185,0.32,0.145,0.52,0.078c3.256-1.09,6.515-1.01,9.773-0.002
	c0.166,0.051,0.327,0.136,0.47-0.033c0.691-0.813,1.38-1.627,2.07-2.441c0.447-0.363,0.889-0.734,1.344-1.087
	c0.957-0.743,2-1.309,3.194-1.588c0.518-0.121,0.788,0.039,0.98,0.523c0.509,1.284,0.447,2.607,0.299,3.93
	c-0.107,0.955-0.304,1.9-0.461,2.849c-0.373,1.247-0.724,2.501-1.13,3.737c-0.154,0.467-0.124,0.843,0.116,1.272
	c1.228,2.197,1.757,4.575,1.773,7.079c-2.478-0.415-4.768-0.017-6.786,1.564c-0.299,0.235-0.67,0.721-0.874,0.658
	c-0.34-0.106-0.322-0.678-0.525-1.022c-0.13-0.22-0.229-0.46-0.36-0.68c-1.988-3.357-6.461-3.859-9.15-1.029
	c-0.686,0.722-1.191,1.563-1.593,2.468c-0.127,0.287-0.216,0.431-0.517,0.131c-2.067-2.06-4.578-2.618-7.385-2.144
	c-0.009-0.149-0.036-0.299-0.024-0.447c0.185-2.326,0.8-4.536,1.809-6.638c0.108-0.225,0.315-0.442,0.195-0.716
	C3.936,10.515,3.663,9.129,3.244,7.787z M3.734,4.169c0.059,0.359,0.136,0.65,0.152,0.945C3.973,6.753,4.49,8.286,5.008,9.821
	c0.125,0.371,0.236,0.346,0.436,0.053C6.443,8.415,7.672,7.18,9.13,6.183c0.312-0.214,0.288-0.353,0.054-0.589
	c-0.633-0.636-1.26-1.278-1.979-1.819C6.454,3.21,5.679,2.685,4.806,2.314c-0.412-0.175-0.661-0.072-0.76,0.352
	C3.926,3.182,3.83,3.704,3.734,4.169z M26.848,10.169c0.614-1.467,0.948-2.896,1.216-4.34c0.184-0.992,0.249-1.996-0.018-2.983
	c-0.11-0.406-0.207-0.811-0.864-0.512c-1.725,0.787-3.105,2.009-4.445,3.3c-0.29,0.279-0.064,0.384,0.129,0.526
	c0.997,0.733,1.997,1.46,2.742,2.478C25.971,9.134,26.38,9.595,26.848,10.169z M24.717,15.023c-0.003-1.142-0.221-1.309-1.219-0.931
	c-1.229,0.466-2.341,1.151-3.399,1.924c-0.203,0.148-0.37,0.356-0.525,0.559c-0.127,0.166-0.282,0.372-0.177,0.582
	c0.109,0.219,0.367,0.195,0.579,0.185c1.48-0.066,2.868-0.445,4.14-1.224C24.56,15.847,24.809,15.488,24.717,15.023z M12.34,17.368
	c0.253-0.078,0.652,0.123,0.778-0.237c0.104-0.299-0.166-0.556-0.369-0.775c-0.144-0.156-0.302-0.309-0.479-0.426
	c-0.98-0.655-1.988-1.263-3.083-1.715C8.89,14.092,8.586,13.991,8.26,13.97c-0.217-0.014-0.356,0.05-0.446,0.269
	c-0.294,0.712-0.06,1.547,0.6,1.948C9.611,16.916,10.939,17.223,12.34,17.368z M20.372,12.363c-0.01,0.369,0.227,0.611,0.63,0.697
	c0.652,0.139,1.313,0.189,1.977,0.105c0.572-0.072,0.894-0.507,0.824-1.08c-0.09-0.743-0.971-1.444-1.76-1.401
	C21.267,10.726,20.375,11.587,20.372,12.363z M9.774,13.205c0.452,0.009,0.898-0.054,1.336-0.15
	c0.521-0.115,0.684-0.473,0.593-0.964c-0.117-0.633-0.941-1.35-1.598-1.406c-0.679-0.058-1.474,0.451-1.729,1.106
	c-0.273,0.702,0.077,1.294,0.821,1.382C9.389,13.196,9.582,13.195,9.774,13.205z"/>
<path class="st1" d="M3.244,7.787c0.419,1.342,0.692,2.729,1.261,4.024c0.12,0.274-0.087,0.491-0.195,0.716
	c-1.009,2.102-1.624,4.312-1.809,6.638c-0.012,0.147,0.015,0.298,0.024,0.446c-0.078,0.32-0.039,0.636,0.027,0.953
	c0.286,1.373,1.064,2.466,1.996,3.46c1.86,1.984,4.121,3.378,6.576,4.51c3.374,1.556,6.734,1.574,10.13,0.099
	c2.996-1.302,5.678-3.001,7.479-5.829c0.607-0.954,1.001-1.984,0.982-3.138c-0.016-2.504-0.545-4.883-1.773-7.079
	c-0.24-0.429-0.269-0.805-0.116-1.272c0.406-1.236,0.757-2.49,1.13-3.737c2.046,2.747,3.007,5.857,2.902,9.257
	c-0.237,7.725-6.226,14.164-13.798,14.914c-8.183,0.81-15.407-4.136-17.186-11.867C-0.126,15.53,0.652,11.465,3.244,7.787z"/>
<path class="st1" d="M23.6,2.949c-0.69,0.814-1.379,1.628-2.07,2.441c-0.143,0.168-0.304,0.084-0.47,0.033
	c-3.258-1.007-6.516-1.088-9.773,0.002c-0.2,0.067-0.374,0.107-0.52-0.078C10.104,4.509,9.23,3.862,8.614,2.981
	c4.758-2.461,9.575-2.551,14.446-0.348C23.249,2.718,23.42,2.843,23.6,2.949z"/>
<path class="st2" d="M29.714,19.665c0.019,1.154-0.375,2.184-0.982,3.138c-1.8,2.829-4.483,4.527-7.479,5.829
	c-3.395,1.476-6.756,1.457-10.13-0.099c-2.455-1.132-4.716-2.526-6.576-4.51c-0.932-0.994-1.71-2.087-1.996-3.46
	c-0.066-0.317-0.105-0.633-0.027-0.953c2.807-0.474,5.318,0.084,7.385,2.144c0.302,0.301,0.39,0.156,0.517-0.131
	c0.402-0.905,0.907-1.746,1.593-2.468c2.689-2.831,7.162-2.328,9.15,1.029c0.131,0.22,0.229,0.459,0.36,0.68
	c0.203,0.344,0.185,0.916,0.525,1.022c0.203,0.063,0.574-0.424,0.874-0.658C24.946,19.648,27.237,19.25,29.714,19.665z
	 M13.038,24.032c0.154,0.669,0.66,1.105,0.858,1.704c0.048,0.145,0.075,0.398,0.291,0.347c0.207-0.049,0.124-0.287,0.13-0.448
	c0.008-0.214,0.01-0.43-0.009-0.642c-0.028-0.315,0.024-0.454,0.411-0.392c1.213,0.194,2.436,0.193,3.647-0.007
	c0.405-0.067,0.458,0.065,0.46,0.417c0.002,0.359-0.144,0.758,0.18,1.131c0.303-0.426,0.353-0.958,0.822-1.252
	c0.169-0.106,0.262-0.55,0.188-0.771c-0.086-0.255-0.456-0.131-0.687-0.107c-0.502,0.053-0.993,0.168-1.509,0.155
	c-0.523-0.013-0.755-0.386-0.877-0.743c-0.12-0.351-0.114-0.751,0.42-0.973c0.936-0.389,1.197-1.208,1.132-2.169
	c-0.038-0.571-0.341-0.871-0.892-0.887c-0.771-0.022-1.542-0.005-2.314-0.006c-0.526-0.001-0.778,0.282-0.825,0.786
	c-0.105,1.115,0.224,1.736,1.402,2.243c0.55,0.236,0.59,0.616,0.471,1.005c-0.122,0.399-0.384,0.729-0.936,0.754
	C14.608,24.212,13.848,23.871,13.038,24.032z M16.422,25.021c0-0.003,0-0.006,0-0.008c-0.298,0-0.596-0.005-0.894,0.002
	c-0.142,0.004-0.312-0.06-0.409,0.097c-0.048,0.078,0.005,0.165,0.083,0.212c0.143,0.086,0.304,0.22,0.458,0.064
	c0.154-0.156,0.317-0.192,0.419-0.014c0.251,0.439,0.498,0.489,0.804,0.067c0.151-0.209,0.295-0.022,0.446,0.004
	c0.166,0.029,0.313-0.06,0.344-0.214c0.047-0.231-0.147-0.209-0.293-0.21C17.061,25.019,16.741,25.021,16.422,25.021z"/>
<path class="st3" d="M3.734,4.169C3.83,3.704,3.926,3.182,4.047,2.666c0.099-0.424,0.348-0.527,0.76-0.352
	C5.679,2.685,6.454,3.21,7.205,3.775c0.719,0.54,1.346,1.183,1.979,1.819C9.418,5.829,9.442,5.969,9.13,6.183
	C7.672,7.18,6.443,8.415,5.444,9.873c-0.201,0.293-0.311,0.318-0.436-0.053C4.49,8.286,3.973,6.753,3.885,5.114
	C3.869,4.82,3.793,4.528,3.734,4.169z"/>
<path class="st3" d="M26.848,10.169c-0.468-0.575-0.877-1.036-1.24-1.531c-0.745-1.017-1.744-1.744-2.742-2.478
	c-0.193-0.142-0.419-0.246-0.129-0.526c1.34-1.291,2.72-2.514,4.445-3.3c0.657-0.3,0.754,0.106,0.864,0.512
	c0.267,0.988,0.202,1.991,0.018,2.983C27.796,7.274,27.462,8.702,26.848,10.169z"/>
<path class="st4" d="M24.717,15.023c0.092,0.465-0.158,0.825-0.601,1.096c-1.271,0.778-2.66,1.158-4.14,1.224
	c-0.211,0.009-0.47,0.034-0.579-0.185c-0.105-0.21,0.051-0.417,0.177-0.582c0.155-0.202,0.322-0.41,0.525-0.559
	c1.057-0.772,2.17-1.457,3.399-1.924C24.496,13.714,24.714,13.881,24.717,15.023z"/>
<path class="st4" d="M12.34,17.368c-1.401-0.145-2.729-0.452-3.926-1.181c-0.66-0.402-0.894-1.236-0.6-1.948
	c0.091-0.219,0.23-0.283,0.446-0.269c0.326,0.021,0.63,0.122,0.927,0.245c1.094,0.451,2.102,1.059,3.083,1.715
	c0.176,0.118,0.334,0.27,0.479,0.426c0.203,0.22,0.474,0.477,0.369,0.775C12.992,17.491,12.593,17.29,12.34,17.368z"/>
<path class="st2" d="M20.372,12.363c0.002-0.776,0.895-1.637,1.672-1.679c0.789-0.043,1.67,0.658,1.76,1.401
	c0.07,0.573-0.253,1.008-0.824,1.08c-0.664,0.084-1.325,0.035-1.977-0.105C20.6,12.974,20.363,12.732,20.372,12.363z"/>
<path class="st2" d="M9.774,13.205c-0.192-0.01-0.385-0.009-0.576-0.032c-0.744-0.088-1.094-0.681-0.821-1.382
	c0.255-0.655,1.05-1.164,1.729-1.106c0.656,0.056,1.481,0.772,1.598,1.406c0.09,0.491-0.073,0.85-0.593,0.964
	C10.672,13.151,10.227,13.213,9.774,13.205z"/>
<path class="st4" d="M13.038,24.032c0.81-0.161,1.57,0.18,2.363,0.144c0.552-0.025,0.815-0.355,0.936-0.754
	c0.119-0.39,0.079-0.769-0.471-1.005c-1.178-0.506-1.507-1.128-1.402-2.243c0.047-0.503,0.299-0.786,0.825-0.786
	c0.771,0.001,1.543-0.016,2.314,0.006c0.551,0.016,0.854,0.316,0.892,0.887c0.065,0.961-0.196,1.78-1.132,2.169
	c-0.534,0.222-0.54,0.622-0.42,0.973c0.122,0.357,0.354,0.73,0.877,0.743c0.516,0.013,1.007-0.102,1.509-0.155
	c0.23-0.024,0.601-0.148,0.687,0.107c0.075,0.221-0.019,0.665-0.188,0.771c-0.469,0.295-0.519,0.826-0.822,1.252
	c-0.324-0.373-0.178-0.772-0.18-1.131c-0.002-0.352-0.055-0.484-0.46-0.417c-1.212,0.2-2.435,0.201-3.647,0.007
	c-0.387-0.062-0.439,0.077-0.411,0.392c0.019,0.213,0.016,0.429,0.009,0.642c-0.006,0.161,0.077,0.4-0.13,0.448
	c-0.216,0.051-0.243-0.202-0.291-0.347C13.698,25.137,13.192,24.701,13.038,24.032z"/>
<path class="st4" d="M16.422,25.021c0.319,0,0.639-0.002,0.958,0.001c0.146,0.001,0.34-0.021,0.293,0.21
	c-0.031,0.153-0.178,0.243-0.344,0.214c-0.151-0.026-0.295-0.213-0.446-0.004c-0.306,0.422-0.553,0.372-0.804-0.067
	c-0.102-0.179-0.265-0.143-0.419,0.014c-0.154,0.156-0.315,0.022-0.458-0.064c-0.078-0.047-0.131-0.133-0.083-0.212
	c0.096-0.157,0.267-0.094,0.409-0.097c0.298-0.008,0.596-0.002,0.894-0.002C16.422,25.015,16.422,25.018,16.422,25.021z"/>
</svg>
