<?xml version="1.0" encoding="utf-8"?>
<!-- Generator: Adobe Illustrator 26.2.1, SVG Export Plug-In . SVG Version: 6.00 Build 0)  -->
<svg version="1.1" id="Layer_1" xmlns="http://www.w3.org/2000/svg" xmlns:xlink="http://www.w3.org/1999/xlink" x="0px" y="0px"
	 viewBox="0 0 32 32" style="enable-background:new 0 0 32 32;" xml:space="preserve">
<style type="text/css">
	.st0{fill:#FEDD50;}
	.st1{fill:#FBF2BF;}
	.st2{fill:#FBF3C6;}
	.st3{fill:#FBEA96;}
	.st4{fill:#F9EEAD;}
	.st5{fill:#F58E00;}
	.st6{fill:#FEE993;}
	.st7{fill:#F9A200;}
	.st8{fill:#F2A32B;}
	.st9{fill:#F1A32B;}
	.st10{fill:#EFCD02;}
	.st11{fill:#BFA239;}
	.st12{fill:#C2A43A;}
	.st13{fill:#C1A238;}
	.st14{fill:#BE9E36;}
	.st15{fill:#EFCC00;}
	.st16{fill:#F2A317;}
	.st17{fill:#020200;}
	.st18{fill:#FEBC00;}
	.st19{fill:#FDDA4E;}
	.st20{fill:#FEDD4F;}
	.st21{fill:#FDDC4F;}
	.st22{fill:#F2A22B;}
	.st23{fill:#BBA23A;}
	.st24{fill:#C0A138;}
	.st25{fill:#C2A339;}
	.st26{fill:#BFA037;}
	.st27{fill:#BEA239;}
	.st28{fill:#C29F36;}
	.st29{fill:#BCA038;}
	.st30{fill:#C1A43A;}
	.st31{fill:#C09F37;}
	.st32{fill:#BFA53B;}
	.st33{fill:#BEA038;}
	.st34{fill:#C1A339;}
	.st35{fill:#B4B4B4;}
	.st36{fill:#FEA51E;}
	.st37{fill:#B87716;}
	.st38{fill:#FDD08B;}
	.st39{fill:#F2C47E;}
	.st40{fill:#F8CB87;}
	.st41{fill:#FDDB4F;}
	.st42{fill:#FBD74D;}
	.st43{fill:#FAD84D;}
	.st44{fill:#BEA138;}
	.st45{fill:#FBD94E;}
	.st46{fill:#FBD64B;}
	.st47{fill:#FAFAFA;}
	.st48{fill:#0B0701;}
	.st49{fill:#906014;}
	.st50{fill:#F9F9F8;}
	.st51{fill:#FD6377;}
	.st52{fill:#E7E7E7;}
	.st53{fill:#F3F3F3;}
	.st54{fill:#F2F2F2;}
</style>
<g>
	<path class="st0" d="M31.713,15.262c0,0.344,0,0.689,0,1.033c-0.074,0.242-0.013,0.49-0.033,0.734
		c0.036,1.958-0.518,3.78-1.305,5.542c-0.753,1.687-1.804,3.184-3.097,4.494c-1.418,1.436-3.06,2.571-4.918,3.377
		c-1.27,0.551-2.586,0.944-3.961,1.125c-0.394,0.052-0.791,0.064-1.189,0.062c-0.115-0.001-0.236-0.037-0.345,0.031
		c-0.344,0-0.689,0-1.033,0c-0.052-0.05-0.125-0.031-0.185-0.057c-1.679-0.087-3.256-0.566-4.784-1.238
		c-0.039-0.017-0.074-0.043-0.106-0.071c-0.1-0.118-0.009-0.204,0.062-0.276c0.721-0.733,1.446-1.462,2.181-2.181
		c0.055-0.053,0.12-0.089,0.201-0.088c0.945,0.161,1.887,0.343,2.851,0.331c1.656,0.012,3.25-0.301,4.768-0.956
		c2.425-1.046,4.313-2.718,5.662-4.986c0.926-1.557,1.446-3.245,1.606-5.055c0.112-1.267,0.014-2.508-0.253-3.744
		c-0.016-0.074-0.032-0.147-0.03-0.223c0.008-0.093,0.067-0.156,0.128-0.217c0.804-0.809,1.609-1.616,2.42-2.418
		c0.086-0.085,0.175-0.209,0.33-0.108c0.334,0.503,0.44,1.091,0.602,1.654c0.275,0.963,0.425,1.947,0.398,2.953
		C31.679,15.075,31.65,15.175,31.713,15.262z"/>
	<path class="st1" d="M17.058,0.414c0,0.019,0.002,0.038,0.004,0.056c-0.137,0.143-0.317,0.104-0.484,0.108
		c-0.246,0.005-0.492,0.008-0.738,0c-0.239-0.048-0.503,0.072-0.722-0.107c0.003-0.019,0.004-0.038,0.003-0.057
		C15.767,0.414,16.412,0.414,17.058,0.414z"/>
	<path class="st2" d="M0.522,17.008c-0.019,0-0.037-0.001-0.056-0.002c0-0.646,0-1.291,0-1.937c0.019-0.002,0.037-0.002,0.056-0.002
		c0.022,0.023,0.055,0.04,0.059,0.073c0.086,0.599,0.086,1.198,0,1.797C0.577,16.968,0.544,16.985,0.522,17.008z"/>
	<path class="st3" d="M31.713,17.07c-0.018,0.004-0.037,0.007-0.056,0.009c0.007-0.262-0.068-0.53,0.056-0.784
		C31.713,16.554,31.713,16.812,31.713,17.07z"/>
	<path class="st4" d="M15.057,31.66c0.002-0.019,0.001-0.038-0.003-0.057c0.212-0.08,0.427-0.038,0.641-0.014
		c0.05,0.016,0.109,0.013,0.137,0.071C15.573,31.66,15.315,31.66,15.057,31.66z"/>
	<path class="st5" d="M27.854,13.058c0.319,1.31,0.432,2.63,0.323,3.981c-0.213,2.623-1.178,4.931-2.882,6.91
		c-1.776,2.062-4.012,3.402-6.688,3.961c-0.826,0.173-1.663,0.298-2.514,0.256c0.005-0.203,0.17-0.189,0.299-0.211
		c0.869-0.145,1.723-0.345,2.549-0.658c0.846-0.32,1.642-0.736,2.404-1.222c0.091-0.058,0.173-0.126,0.24-0.212
		c0.565-0.409,1.147-0.792,1.679-1.249c1.014-0.871,1.842-1.891,2.493-3.055c0.667-1.194,1.108-2.468,1.302-3.823
		c0.306-2.144,0.058-4.218-0.796-6.214c-0.262-0.613-0.555-1.209-0.967-1.739c-0.048-0.044-0.085-0.097-0.101-0.159
		c-0.11-0.446-0.385-0.768-0.755-1.021c-0.89-1.021-1.945-1.846-3.072-2.586c-1.497-0.977-3.125-1.609-4.895-1.872
		c-0.202-0.03-0.411-0.009-0.606-0.075c-0.092-0.031-0.254-0.013-0.212-0.198c0.126-0.083,0.269-0.063,0.407-0.064
		c1.769-0.017,3.455,0.358,5.065,1.085c0.098,0.044,0.199,0.082,0.296,0.126c1.015,0.538,1.984,1.147,2.834,1.928
		c0.603,0.607,1.222,1.201,1.717,1.906c0.835,1.148,1.449,2.405,1.852,3.765C27.868,12.761,27.931,12.907,27.854,13.058z"/>
	<path class="st6" d="M10.415,30.558c-0.664-0.161-1.244-0.514-1.841-0.824c-0.695-0.36-1.339-0.806-1.966-1.273
		c-0.06-0.045-0.122-0.09-0.137-0.172c0.033-0.267,0.29-0.362,0.423-0.552c0.566-0.562,1.127-1.13,1.694-1.691
		c0.104-0.103,0.193-0.233,0.363-0.238c0.145,0.019,0.256,0.109,0.37,0.188c1.053,0.727,2.197,1.261,3.426,1.617
		c0.131,0.038,0.278,0.055,0.367,0.181c-0.655,0.666-1.311,1.332-1.966,1.999c-0.143,0.145-0.279,0.297-0.418,0.445
		C10.681,30.401,10.565,30.496,10.415,30.558z"/>
	<path class="st6" d="M27.854,13.058c-0.373-1.525-1.052-2.908-1.958-4.184c-0.03-0.142,0.078-0.213,0.157-0.293
		c0.67-0.674,1.342-1.347,2.017-2.016c0.078-0.077,0.146-0.195,0.292-0.149c0.437,0.445,0.754,0.977,1.079,1.502
		c0.429,0.692,0.785,1.422,1.105,2.17c0.038,0.088,0.088,0.174,0.057,0.277c-0.814,0.805-1.627,1.61-2.442,2.414
		C28.064,12.876,27.957,12.965,27.854,13.058z"/>
	<path class="st7" d="M13.115,27.795c-1.415-0.352-2.717-0.954-3.917-1.779c-0.088-0.06-0.179-0.116-0.269-0.173
		c-0.561-0.301-1.064-0.668-1.398-1.228c0.149-0.28,0.327-0.528,0.661-0.606c0.315,0.155,0.525,0.439,0.786,0.659
		c1.754,1.482,3.777,2.339,6.052,2.564c1.928,0.191,3.79-0.115,5.561-0.918c0.254-0.115,0.517-0.211,0.755-0.362
		c0.088-0.056,0.186-0.12,0.296-0.036c-0.298,0.353-0.723,0.526-1.109,0.74c-1.319,0.732-2.732,1.196-4.23,1.389
		c-0.092,0.012-0.166,0.036-0.209,0.122C15.083,28.185,14.093,28.033,13.115,27.795z"/>
	<path class="st8" d="M27.106,24.552c-0.243-0.285-0.437-0.519-0.64-0.747c-0.08-0.09-0.123-0.157-0.033-0.275
		c0.084-0.109,0.162-0.157,0.297-0.11c0.301,0.105,0.605,0.203,0.946,0.258c-0.204-0.234-0.394-0.482-0.616-0.698
		c-0.227-0.22-0.027-0.356,0.081-0.487c0.131-0.16,0.228,0.004,0.306,0.09c0.36,0.397,0.708,0.804,1.07,1.199
		c0.113,0.123,0.099,0.215,0.003,0.335c-0.098,0.122-0.147,0.294-0.37,0.214c-0.229-0.083-0.467-0.141-0.736-0.221
		c0.125,0.224,0.271,0.385,0.42,0.546c0.114,0.123,0.174,0.247,0.05,0.427c-0.121,0.174-0.242,0.218-0.432,0.156
		c-0.366-0.121-0.734-0.235-1.102-0.35c-0.206-0.065-0.647,0.232-0.666,0.443c-0.007,0.08,0.044,0.123,0.097,0.152
		c0.123,0.068,0.176-0.043,0.226-0.116c0.118-0.171,0.231-0.33,0.46-0.146c0.131,0.105,0.179,0.209,0.022,0.335
		c-0.066,0.053-0.119,0.124-0.181,0.183c-0.076,0.073-0.083,0.141-0.003,0.219c0.074,0.072,0.143,0.091,0.219,0.008
		c0.066-0.071,0.137-0.137,0.196-0.213c0.122-0.158,0.231-0.1,0.352,0.002c0.13,0.109,0.123,0.197,0.004,0.316
		c-0.167,0.166-0.312,0.353-0.472,0.526c-0.115,0.125-0.239,0.122-0.366,0.008c-0.383-0.343-0.765-0.688-1.153-1.024
		c-0.145-0.125-0.161-0.217-0.013-0.361c0.281-0.276,0.545-0.569,0.808-0.863c0.104-0.116,0.199-0.121,0.34-0.064
		C26.481,24.4,26.743,24.518,27.106,24.552z"/>
	<path class="st9" d="M25.324,26.698c0.243,0.081,0.497,0.099,0.749,0.122c0.065,0.006,0.138,0.007,0.169,0.071
		c0.036,0.075-0.044,0.108-0.08,0.156c-0.172,0.23-0.387,0.274-0.653,0.172c-0.116-0.044-0.249-0.046-0.408-0.072
		c0.044,0.148,0.127,0.247,0.216,0.343c0.079,0.085,0.198,0.172,0.031,0.279c-0.136,0.087-0.275,0.259-0.445,0.065
		c-0.353-0.402-0.695-0.812-1.045-1.216c-0.063-0.072-0.11-0.14-0.023-0.219c0.234-0.213,0.421-0.481,0.763-0.562
		c0.25-0.059,0.438-0.008,0.594,0.188C25.353,26.227,25.308,26.468,25.324,26.698z"/>
	<path class="st9" d="M23.514,29.012c-0.141,0-0.197-0.105-0.264-0.205c-0.276-0.407-0.556-0.811-0.834-1.215l0.002,0.002
		c-0.128-0.217,0.061-0.264,0.183-0.359c0.145-0.113,0.237-0.027,0.326,0.067c0.057,0.061,0.105,0.135,0.144,0.209
		c0.086,0.166,0.158,0.233,0.362,0.104c0.223-0.14,0.162-0.25,0.051-0.399c-0.006-0.009-0.013-0.017-0.019-0.026
		c-0.274-0.41-0.274-0.41,0.182-0.619c0.349,0.48,0.658,0.988,0.999,1.473c0.08,0.114,0.067,0.19-0.035,0.267
		c-0.212,0.238-0.357,0.104-0.46-0.101c-0.134-0.265-0.298-0.365-0.56-0.168c-0.091,0.049-0.168,0.102-0.086,0.22
		c0.042,0.061,0.076,0.126,0.118,0.187C23.859,28.799,23.857,28.801,23.514,29.012z"/>
	<path class="st9" d="M22.415,27.592c0.024,0.276,0.025,0.52-0.377,0.47c-0.095-0.012-0.204,0.093-0.186,0.219
		c0.016,0.117,0.131,0.084,0.21,0.087c0.232,0.007,0.47-0.029,0.676,0.121c0.382,0.378,0.351,0.636-0.128,1.052
		c-0.165,0.141-0.373,0.15-0.572,0.178c-0.189,0.026-0.332-0.01-0.338-0.263c-0.006-0.242,0.121-0.262,0.302-0.248
		c0.064,0.005,0.131,0.006,0.193-0.007c0.114-0.023,0.206-0.091,0.207-0.212c0.002-0.125-0.117-0.143-0.209-0.158
		c-0.094-0.015-0.193-0.011-0.289-0.009c-0.317,0.008-0.542-0.123-0.632-0.435c-0.065-0.225,0.124-0.536,0.391-0.676
		c0.238-0.125,0.495-0.127,0.753-0.116C22.418,27.594,22.415,27.592,22.415,27.592z"/>
	<path class="st10" d="M10.415,30.558c0.105-0.106,0.211-0.212,0.316-0.318c0.874,0.338,1.738,0.704,2.656,0.917
		c0.725,0.168,1.449,0.338,2.196,0.381c0.038,0.002,0.074,0.034,0.111,0.052c-0.214,0.005-0.427,0.009-0.641,0.014
		C13.453,31.493,11.9,31.178,10.415,30.558z"/>
	<path class="st11" d="M24.611,28.314c0.108-0.14-0.005-0.238-0.069-0.341c-0.292-0.47-0.645-0.901-0.894-1.399
		c0.232,0.124,0.305,0.374,0.446,0.569c0.212,0.293,0.403,0.601,0.606,0.901C24.79,28.176,24.807,28.278,24.611,28.314z"/>
	<path class="st12" d="M22.61,29.541c0.059-0.074,0.117-0.148,0.177-0.221c0.21-0.254,0.199-0.45-0.048-0.831
		c0.249,0.073,0.308,0.289,0.31,0.494C23.051,29.264,22.862,29.437,22.61,29.541z"/>
	<path class="st13" d="M23.514,29.012c0.322-0.198,0.199-0.397,0.02-0.622c-0.082-0.103-0.301-0.288,0.056-0.345
		c-0.153,0.196,0.035,0.309,0.116,0.438C23.935,28.849,23.931,28.873,23.514,29.012z"/>
	<path class="st14" d="M25.324,26.698c-0.126-0.208-0.034-0.459-0.131-0.673C25.421,26.213,25.434,26.443,25.324,26.698z"/>
	<path class="st15" d="M0.522,17.008c0-0.647,0-1.294,0-1.942C0.924,7.315,7.394,0.845,15.119,0.471
		c0.233,0.006,0.467,0.013,0.7,0.019c-0.016,0.165-0.152,0.122-0.246,0.132c-1.606,0.169-3.149,0.573-4.623,1.232
		C9.255,2.612,7.739,3.635,6.417,4.941C6.338,5.014,6.26,5.088,6.185,5.166C5.854,5.459,5.579,5.807,5.283,6.133
		C5.071,6.382,4.756,6.545,4.656,6.887c-0.029,0.087-0.07,0.166-0.15,0.219C4.33,7.199,4.198,7.322,4.202,7.541
		C4.196,7.62,4.163,7.686,4.099,7.735C3.89,7.81,3.716,7.908,3.789,8.18C3.752,8.378,3.675,8.556,3.52,8.693
		C3.201,8.771,3.198,8.777,3.285,9.145c-0.008,0.094-0.03,0.183-0.094,0.256c-0.457,0.167-0.634,0.5-0.507,0.961
		c0.023,0.083,0.043,0.163,0.025,0.249c-0.388,1.053-0.66,2.137-0.812,3.247c-0.348,2.545-0.108,5.032,0.764,7.455
		c0.215,0.597,0.485,1.171,0.729,1.756c-0.038,0.293-0.474,0.755-0.784,0.833c-1.146-1.99-1.831-4.127-2.051-6.412
		C0.539,17.329,0.533,17.168,0.522,17.008z"/>
	<path class="st6" d="M2.606,23.901c0.298-0.214,0.545-0.48,0.775-0.763c0.006-0.094,0.071-0.154,0.131-0.214
		c0.468-0.472,0.937-0.942,1.409-1.409c0.075-0.075,0.149-0.158,0.271-0.152c0.105,0.029,0.147,0.12,0.189,0.205
		c0.403,0.821,0.916,1.567,1.508,2.26c0.082,0.096,0.172,0.193,0.199,0.325c0.001,0.133-0.092,0.213-0.175,0.295
		c-0.556,0.55-1.094,1.119-1.669,1.65c-0.194,0.186-0.331,0.436-0.602,0.535C3.829,25.822,3.166,24.901,2.606,23.901z"/>
	<path class="st15" d="M4.642,26.633c0.18-0.195,0.359-0.391,0.539-0.586c0.141-0.086,0.226,0.017,0.296,0.105
		c0.383,0.479,0.851,0.874,1.268,1.32c0.083,0.089,0.213,0.158,0.178,0.317c-0.151,0.167-0.302,0.335-0.454,0.502
		C5.784,27.822,5.209,27.232,4.642,26.633z"/>
	<path class="st0" d="M5.177,21.397c-0.512,0.502-1.023,1.005-1.535,1.506c-0.084,0.082-0.174,0.157-0.261,0.236
		c-0.391-0.61-0.625-1.29-0.862-1.965c-0.5-1.423-0.765-2.887-0.839-4.399c-0.1-2.029,0.196-3.989,0.847-5.903
		c0.038-0.111,0.09-0.218,0.135-0.327c0.053-0.027,0.108-0.021,0.155,0.006c0.295,0.167,0.55,0.092,0.805-0.102
		c0.115-0.088,0.268-0.272,0.412-0.11c0.135,0.152,0.013,0.327-0.119,0.451c-0.182,0.171-0.181,0.306,0.058,0.412
		c0.494-0.242,0.678-0.712,0.441-1.131C4.088,9.786,3.835,9.791,3.472,10.08c-0.125,0.1-0.235,0.287-0.434,0.113
		c-0.079-0.145,0.018-0.25,0.095-0.347c0.103-0.129,0.108-0.248,0.02-0.38C3.147,9.436,3.152,9.408,3.17,9.383
		c0.025-0.084,0.051-0.168,0.076-0.252C3.378,9.036,3.469,9.15,3.563,9.203c0.336,0.189,0.648,0.42,0.981,0.615
		C4.656,9.883,4.775,9.975,4.872,9.81C4.959,9.663,4.83,9.602,4.737,9.533c-0.034-0.026-0.07-0.051-0.108-0.069
		C4.401,9.356,4.331,9.213,4.484,8.981c0.163-0.246,0.262-0.276,0.53-0.143c0.132,0.066,0.29,0.307,0.425,0.059
		c0.124-0.23-0.156-0.258-0.277-0.349C4.88,8.335,4.563,8.172,4.273,7.97C4.182,7.907,4.052,7.863,4.075,7.709
		c0.026-0.063,0.051-0.127,0.077-0.19C4.293,7.421,4.368,7.55,4.453,7.615c0.341,0.26,0.69,0.511,1.028,0.776
		c0.106,0.083,0.214,0.17,0.331,0.026c0.131-0.16-0.019-0.229-0.116-0.303c-0.307-0.235-0.622-0.459-0.924-0.7
		C4.654,7.32,4.485,7.258,4.472,7.068c0.044-0.065,0.087-0.129,0.131-0.194c0.329,0.077,0.515,0.351,0.75,0.554
		C5.586,7.63,5.8,7.855,6.07,8.011c0.301-0.219,0.542-0.487,0.7-0.826c0.021-0.022,0.045-0.04,0.072-0.055
		c0.206-0.103,0.316-0.234,0.301-0.5C7.125,6.315,7.413,6.173,7.63,6.006c0.113-0.018,0.203,0.056,0.307,0.076
		c0.119,0.023,0.225-0.023,0.265-0.13c0.041-0.11-0.08-0.135-0.149-0.171C7.484,5.49,6.915,5.199,6.332,4.937
		C7.121,4.059,8.071,3.378,9.064,2.76c1.721-1.071,3.583-1.774,5.589-2.1c0.388-0.063,0.781-0.086,1.165-0.171
		c0.415-0.007,0.829-0.013,1.244-0.02c2.472,0.121,4.763,0.841,6.898,2.08c0.039,0.116-0.046,0.181-0.111,0.247
		c-0.733,0.739-1.469,1.475-2.207,2.209c-0.054,0.054-0.117,0.093-0.19,0.117c-0.864-0.372-1.736-0.715-2.661-0.919
		c-1.039-0.23-2.085-0.341-3.148-0.297C15.281,4.124,14.867,4.038,14.48,4.1c-4.49,0.713-7.643,3.166-9.502,7.295
		c-0.525,1.166-0.782,2.403-0.885,3.68c-0.169,2.093,0.179,4.086,1.049,5.993C5.188,21.171,5.27,21.276,5.177,21.397z"/>
	<path class="st6" d="M21.452,5.123c0.752-0.762,1.505-1.523,2.255-2.286c0.089-0.091,0.169-0.191,0.253-0.287
		c0.883,0.474,1.67,1.083,2.425,1.735c0.121,0.105,0.234,0.219,0.351,0.328c-0.743,0.773-1.512,1.52-2.269,2.278
		c-0.066,0.066-0.132,0.148-0.247,0.112C23.374,6.264,22.444,5.647,21.452,5.123z"/>
	<path class="st0" d="M24.22,7.004c0.737-0.727,1.472-1.455,2.211-2.18c0.088-0.086,0.153-0.214,0.305-0.21
		c0.508,0.474,0.98,0.983,1.426,1.515c0.075,0.089,0.134,0.192,0.201,0.288c-0.506,0.411-0.932,0.904-1.396,1.358
		c-0.365,0.357-0.714,0.732-1.07,1.099C25.406,8.189,24.801,7.607,24.22,7.004z"/>
	<path class="st16" d="M21.642,25.915c-0.487,0.219-0.957,0.475-1.457,0.669c-1.147,0.445-2.328,0.691-3.56,0.762
		c-1.422,0.082-2.789-0.134-4.128-0.58c-1.328-0.442-2.51-1.14-3.581-2.041c-0.263-0.221-0.487-0.484-0.767-0.683
		c-0.142-0.04-0.238-0.143-0.331-0.247C6.14,21.901,5.13,19.71,4.892,17.182C4.58,13.871,5.504,10.937,7.68,8.432
		c1.867-2.149,4.252-3.413,7.08-3.754c2.264-0.273,4.437,0.079,6.45,1.213c0.073,0.041,0.142,0.1,0.237,0.077
		c1.043,0.711,2.044,1.471,2.896,2.41c0.05,0.055,0.092,0.116,0.138,0.175c-0.061,0.06-0.136,0.055-0.212,0.047
		c-1.264-0.138-2.458,0.16-3.628,0.59c-0.262,0.097-0.535,0.164-0.79,0.28c-0.15,0.068-0.294,0.035-0.435-0.033
		c-0.903-0.438-1.865-0.669-2.86-0.717c-0.942-0.045-1.868,0.112-2.748,0.461c-0.924,0.365-0.916,0.369-1.857,0.021
		C10.918,8.817,9.863,8.538,8.744,8.57c-0.873,0.024-1.228,0.42-1.38,1.173c-0.189,0.936-0.125,1.883,0.059,2.82
		c0.11,0.56,0.261,1.11,0.475,1.64c0.106,0.263,0.043,0.488-0.083,0.735c-0.66,1.295-1.184,2.633-1.124,4.123
		c0.044,1.084,0.361,2.076,0.921,3.018c0.853,1.436,2.183,2.182,3.68,2.718c0.966,0.345,1.968,0.561,2.984,0.674
		c1.111,0.123,2.228,0.137,3.347,0.052c0.959-0.073,1.903-0.219,2.824-0.48c1.407-0.399,2.783-0.899,3.791-2.025
		c1.464-1.634,1.971-3.538,1.45-5.689c-0.206-0.851-0.51-1.665-0.961-2.419c-0.125-0.208-0.142-0.421-0.072-0.651
		c0.103-0.34,0.234-0.669,0.33-1.012c0.294-1.059,0.377-2.135,0.275-3.227c-0.01-0.107-0.033-0.215,0.048-0.307
		c0.349,0.249,0.48,0.652,0.663,1.003c0.582,1.116,0.968,2.3,1.165,3.55c0.133,0.842,0.168,1.689,0.111,2.53
		c-0.157,2.299-0.941,4.374-2.342,6.212C24.006,24.189,22.883,25.117,21.642,25.915z"/>
	<path class="st17" d="M25.309,9.712c0.185,1.044,0.096,2.081-0.123,3.105c-0.112,0.522-0.295,1.03-0.461,1.539
		c-0.051,0.158-0.037,0.284,0.043,0.426c0.443,0.778,0.784,1.598,0.994,2.469c0.432,1.789,0.197,3.458-0.823,5.022
		c-0.782,1.2-1.894,1.922-3.19,2.43c-2.484,0.973-5.059,1.124-7.675,0.826c-1.371-0.156-2.692-0.525-3.948-1.108
		c-1.345-0.624-2.326-1.61-2.948-2.957c-0.789-1.71-0.739-3.425-0.07-5.158c0.213-0.551,0.423-1.1,0.739-1.602
		c0.094-0.15,0.04-0.293-0.016-0.432c-0.495-1.235-0.709-2.517-0.646-3.845c0.019-0.41,0.073-0.81,0.253-1.188
		C7.662,8.77,8.028,8.52,8.544,8.483c0.97-0.069,1.904,0.125,2.82,0.415c0.48,0.152,0.951,0.332,1.421,0.512
		c0.118,0.045,0.204,0.015,0.303-0.033c1.587-0.774,3.245-0.94,4.956-0.537c0.489,0.115,0.965,0.295,1.415,0.524
		c0.155,0.079,0.275,0.062,0.423,0.006c0.964-0.362,1.931-0.718,2.963-0.845c0.548-0.068,1.092-0.078,1.636,0.027
		C24.929,8.817,25.189,9.214,25.309,9.712z"/>
	<path class="st18" d="M21.447,5.968c-0.101,0.11-0.18,0.001-0.253-0.036c-0.901-0.463-1.839-0.82-2.837-1.006
		c-1.031-0.192-2.061-0.295-3.121-0.203C13.683,4.858,12.229,5.272,10.861,6C9.587,6.678,8.509,7.594,7.572,8.691
		c-0.561,0.657-1.031,1.371-1.423,2.132c-0.548,1.062-0.9,2.196-1.099,3.376c-0.143,0.85-0.177,1.71-0.12,2.564
		c0.093,1.397,0.426,2.741,1.007,4.023c0.551,1.215,1.324,2.273,2.211,3.256c-0.22,0.171-0.417,0.364-0.584,0.587
		c-0.267-0.046-0.393-0.248-0.508-0.461c-0.735-0.85-1.356-1.778-1.879-2.771c-0.427-0.949-0.798-1.92-0.982-2.948
		C4,17.352,3.901,16.253,3.997,15.13c0.098-1.152,0.317-2.266,0.725-3.342c0.482-1.273,1.149-2.441,2.026-3.489
		c1.197-1.431,2.634-2.543,4.335-3.314c1.07-0.485,2.179-0.829,3.35-0.956c0.403-0.044,0.807-0.081,1.211-0.121
		c0.523,0.2,1.086,0.176,1.626,0.297c1.418,0.316,2.737,0.849,3.956,1.634C21.297,5.885,21.373,5.925,21.447,5.968z"/>
	<path class="st0" d="M7.057,24.168c0.169,0.154,0.338,0.307,0.508,0.461c0.387,0.48,0.904,0.815,1.364,1.213
		c-0.566,0.555-1.131,1.11-1.698,1.664c-0.099,0.097-0.204,0.188-0.306,0.281c-0.423-0.434-0.84-0.873-1.272-1.297
		c-0.153-0.151-0.207-0.411-0.471-0.444C5.824,25.438,6.455,24.818,7.057,24.168z"/>
	<path class="st19" d="M24.863,26.54c-0.027,0.087-0.074,0.189-0.16,0.17c-0.111-0.025-0.218-0.126-0.235-0.236
		c-0.018-0.113,0.119-0.151,0.203-0.148C24.788,26.328,24.848,26.425,24.863,26.54z"/>
	<path class="st8" d="M6.077,8.097C5.83,8.005,5.661,7.805,5.469,7.64C5.176,7.39,4.891,7.13,4.602,6.874
		c0.06-0.385,0.407-0.534,0.639-0.778c0.309-0.113,0.48-0.082,0.701,0.191C6.081,6.457,6.24,6.507,6.459,6.497
		c-0.049-0.331-0.205-0.615-0.3-0.918C6.111,5.428,6.035,5.276,6.148,5.12C6.21,5.059,6.271,4.998,6.332,4.937
		C6.478,4.913,6.604,4.965,6.731,5.03C7.2,5.269,7.672,5.5,8.14,5.741c0.093,0.048,0.294,0.104,0.201,0.218
		C8.252,6.067,8.133,6.293,7.898,6.164C7.813,6.118,7.726,6.077,7.64,6.033C7.464,6.123,7.36,6.297,7.204,6.41
		C7.149,6.45,7.096,6.51,7.13,6.572c0.181,0.326-0.066,0.457-0.267,0.611C6.842,7.187,6.821,7.191,6.799,7.195
		C6.635,7.557,6.335,7.81,6.077,8.097z"/>
	<path class="st9" d="M4.075,7.709c0.389,0.356,0.867,0.579,1.301,0.868c0.159,0.105,0.277,0.166,0.148,0.39
		C5.384,9.213,5.267,9.084,5.112,9.005C4.944,8.918,4.779,8.624,4.57,8.982c-0.119,0.202-0.137,0.301,0.103,0.43
		C4.809,9.486,5.181,9.52,4.943,9.874c-0.115,0.171-0.195,0.164-0.359,0.066C4.136,9.674,3.731,9.337,3.247,9.131
		C3.168,9.013,3.058,8.917,3.19,8.747C3.291,8.617,3.375,8.6,3.504,8.671C3.608,8.637,3.69,8.691,3.769,8.744
		c0.14,0.093,0.229,0.049,0.309-0.087C4.16,8.519,4.104,8.446,3.985,8.378C3.895,8.325,3.8,8.272,3.762,8.162
		C3.611,7.925,3.741,7.737,4.075,7.709z"/>
	<path class="st9" d="M3.952,11.319c-0.354-0.266-0.357-0.298-0.069-0.602c0.05-0.053,0.101-0.113,0.124-0.18
		c0.019-0.054,0.019-0.142-0.014-0.181c-0.049-0.058-0.114,0.006-0.165,0.036c-0.046,0.027-0.091,0.057-0.129,0.093
		c-0.329,0.316-0.675,0.317-1.036,0.059c-0.217-0.413-0.138-0.763,0.202-1.077c0.1-0.092,0.187-0.118,0.307-0.084
		c0.005,0.02,0.007,0.04,0.007,0.061C3.284,9.579,3.3,9.698,3.162,9.836c-0.078,0.078-0.204,0.177-0.102,0.327
		c0.192,0.13,0.26-0.061,0.36-0.147c0.379-0.329,0.741-0.33,1.05,0.008C4.642,10.557,4.509,10.89,3.952,11.319z"/>
	<path class="st9" d="M4.472,7.068c0.453,0.353,0.899,0.714,1.362,1.053C5.988,8.235,6.04,8.295,5.895,8.461
		C5.764,8.61,5.671,8.659,5.502,8.52c-0.404-0.329-0.818-0.646-1.23-0.964C4.241,7.532,4.192,7.531,4.152,7.519
		C4.11,7.263,4.246,7.134,4.472,7.068z"/>
	<path class="st20" d="M6.148,5.12C6.15,5.497,6.359,5.812,6.462,6.159c0.045,0.152,0.093,0.303,0.158,0.513
		C6.324,6.545,6.018,6.625,5.85,6.295c-0.114-0.223-0.377-0.215-0.608-0.2C5.516,5.745,5.796,5.398,6.148,5.12z"/>
	<path class="st21" d="M3.762,8.162C3.89,8.237,4.015,8.318,4.147,8.386c0.113,0.059,0.113,0.11,0.05,0.222
		C3.999,8.96,4.007,8.965,3.504,8.671C3.59,8.501,3.676,8.332,3.762,8.162z"/>
	<path class="st22" d="M17.962,3.338c-0.105,0.084-0.225,0.118-0.358,0.109c-0.381-0.025-0.76-0.08-1.145-0.072
		c-0.236,0.005-0.31-0.238-0.45-0.374c-0.082-0.079-0.12-0.201-0.231-0.258c-0.094,0.133-0.035,0.283-0.041,0.424
		c-0.006,0.133-0.048,0.185-0.186,0.187c-0.186,0.003-0.377-0.042-0.56,0.032c-0.084,0.058-0.178-0.004-0.19-0.051
		c-0.091-0.341-0.334-0.225-0.557-0.215c-0.173,0.008-0.263,0.077-0.28,0.24c-0.015,0.14-0.08,0.197-0.222,0.221
		c-0.406,0.07-0.425,0.054-0.32-0.358c0.115-0.455,0.224-0.912,0.344-1.366c0.037-0.142,0.006-0.34,0.247-0.347
		c0.208-0.007,0.378-0.009,0.495,0.237c0.198,0.412,0.451,0.798,0.713,1.188c-0.053-0.421-0.014-0.838-0.036-1.252
		c-0.013-0.247,0.077-0.325,0.313-0.303c0.333,0.032,0.693-0.086,0.978,0.19c0.224,0.42,0.188,0.633-0.163,0.945
		c-0.035,0.031-0.06,0.054-0.018,0.095c0.203,0.107,0.256,0.368,0.482,0.483c0.134-0.511,0.106-1.029,0.21-1.528
		c0.023-0.108,0.043-0.198,0.17-0.179c0.439,0.068,0.916,0.05,1.192,0.504C18.609,2.484,18.529,2.94,17.962,3.338z"/>
	<path class="st9" d="M9.249,4.477c0.222,0.059,0.444,0.119,0.706,0.189C9.777,4.166,9.56,3.729,9.331,3.3
		C9.222,3.096,9.262,2.997,9.468,2.913c0.218-0.089,0.425-0.204,0.635-0.31c0.146-0.073,0.241-0.027,0.309,0.114
		c0.068,0.143,0.087,0.262-0.098,0.332c-0.1,0.038-0.194,0.092-0.287,0.144C9.94,3.241,9.96,3.312,9.991,3.387
		c0.04,0.099,0.105,0.088,0.18,0.051c0.087-0.042,0.17-0.092,0.26-0.125c0.172-0.062,0.249,0.049,0.322,0.181
		c0.085,0.155-0.02,0.199-0.123,0.27c-0.12,0.082-0.394,0.076-0.319,0.277c0.097,0.261,0.283,0.014,0.43-0.008
		c0.082-0.013,0.162-0.065,0.245-0.005c0.135,0.211,0.107,0.342-0.147,0.453c-0.408,0.177-0.802,0.387-1.203,0.58
		c-0.24-0.076-0.48-0.152-0.728-0.231c0.005,0.158,0.121,0.25,0.191,0.362C9.179,5.319,9.224,5.42,9.06,5.507
		C8.932,5.575,8.789,5.698,8.671,5.513C8.362,5.027,8.066,4.533,7.766,4.04C7.733,3.986,7.699,3.912,7.775,3.872
		c0.282-0.146,0.522-0.381,0.854-0.422c0.228-0.028,0.423,0.041,0.553,0.245C9.311,3.9,9.354,4.109,9.228,4.332
		C9.2,4.382,9.203,4.434,9.249,4.477z"/>
	<path class="st8" d="M13.048,3.71c-0.288,0.179-0.501,0.127-0.662-0.185c-0.075-0.145-0.147-0.304-0.296-0.399
		c-0.135,0.108-0.045,0.256-0.066,0.384c-0.028,0.176,0.051,0.365-0.063,0.531c-0.287,0.205-0.474,0.106-0.641-0.178
		c-0.232-0.397-0.496-0.775-0.737-1.167c-0.053-0.087-0.257-0.194-0.05-0.297c0.152-0.075,0.354-0.232,0.513,0.004
		c0.163,0.243,0.31,0.498,0.524,0.731c0-0.274-0.003-0.547,0.001-0.821c0.002-0.12-0.042-0.257,0.157-0.293
		c0.175-0.032,0.282,0.007,0.371,0.161c0.137,0.24,0.29,0.47,0.457,0.738c0.116-0.266-0.021-0.486-0.02-0.709
		c0.002-0.467,0.03-0.507,0.519-0.559c0.032,0.553,0.027,1.107,0.061,1.661C13.125,3.445,13.156,3.592,13.048,3.71z"/>
	<path class="st9" d="M19.57,3.708c-0.389,0.166-0.711-0.008-1.011-0.222c-0.087-0.062-0.282-0.142-0.097-0.319
		c0.131-0.126,0.246-0.259,0.421-0.059c0.048,0.055,0.11,0.111,0.177,0.133c0.09,0.03,0.199,0.043,0.271-0.043
		c0.094-0.113-0.027-0.167-0.081-0.239c-0.161-0.214-0.466-0.319-0.456-0.662c0.012-0.373,0.301-0.645,0.673-0.586
		c0.191,0.03,0.369,0.11,0.535,0.21c0.128,0.078,0.18,0.171,0.085,0.317c-0.085,0.131-0.175,0.178-0.315,0.083
		c-0.053-0.036-0.115-0.058-0.171-0.09c-0.1-0.057-0.186-0.048-0.245,0.057c-0.059,0.105,0.025,0.162,0.09,0.211
		c0.178,0.135,0.374,0.25,0.454,0.478C20,3.315,19.834,3.534,19.57,3.708z"/>
	<path class="st23" d="M13.048,3.71c-0.011-0.584,0.061-1.17-0.051-1.751c-0.02-0.106-0.004-0.213,0.059-0.307
		c0.05,0.032,0.065,0.081,0.065,0.136c-0.002,0.55,0.008,1.1,0.055,1.649C13.185,3.539,13.228,3.684,13.048,3.71z"/>
	<path class="st24" d="M17.962,3.338c0.02-0.036,0.031-0.085,0.061-0.108c0.486-0.356,0.445-0.839,0.326-1.341
		C18.746,2.373,18.557,3.082,17.962,3.338z"/>
	<path class="st25" d="M9.636,5.061c0.337-0.266,0.744-0.401,1.124-0.583c0.22-0.105,0.311-0.219,0.227-0.45
		c0.203,0.2,0.224,0.35-0.087,0.47C10.469,4.664,10.093,4.953,9.636,5.061z"/>
	<path class="st26" d="M3.952,11.319c0.389-0.345,0.614-0.755,0.517-1.295c0.221,0.188,0.157,0.434,0.086,0.645
		C4.456,10.965,4.267,11.209,3.952,11.319z"/>
	<path class="st27" d="M6.863,7.183c0.135-0.2,0.383-0.323,0.228-0.677C7.037,6.383,7.385,6.123,7.639,6.033
		c-0.118,0.124-0.234,0.249-0.354,0.37C7.214,6.475,7.159,6.546,7.201,6.657C7.323,6.981,7.1,7.087,6.863,7.183z"/>
	<path class="st28" d="M11.96,4.04c-0.001-0.316-0.003-0.631-0.001-0.947c0-0.041-0.027-0.123,0.065-0.1
		c0.059,0.014,0.057,0.081,0.065,0.132c0,0.222,0,0.445-0.001,0.667C12.087,3.895,12.112,4.014,11.96,4.04z"/>
	<path class="st29" d="M6.077,8.097c0.172-0.364,0.585-0.56,0.68-0.978c0.008,0.005,0.022,0.008,0.025,0.015
		C6.79,7.153,6.793,7.175,6.799,7.195C6.708,7.615,6.394,7.857,6.077,8.097z"/>
	<path class="st30" d="M16.296,2.609c-0.044-0.02-0.08-0.072-0.044-0.096c0.381-0.245,0.315-0.59,0.224-0.944
		C16.804,1.927,16.756,2.206,16.296,2.609z"/>
	<path class="st31" d="M14.992,3.386c0.103-0.112,0.241-0.075,0.358-0.062c0.275,0.031,0.397-0.061,0.354-0.347
		c-0.012-0.078,0.012-0.162,0.021-0.243c0-0.003,0.017-0.008,0.026-0.006c0.01,0.002,0.019,0.009,0.028,0.014
		c-0.021,0.634-0.021,0.634-0.66,0.642C15.076,3.385,15.034,3.386,14.992,3.386z"/>
	<path class="st32" d="M9.249,4.477c-0.081-0.032-0.126-0.084-0.073-0.17C9.302,4.104,9.229,3.9,9.182,3.696
		C9.468,3.934,9.345,4.207,9.249,4.477z"/>
	<path class="st33" d="M3.059,10.164c-0.142-0.112-0.08-0.23,0.018-0.313c0.14-0.118,0.168-0.246,0.1-0.407
		C3.333,9.559,3.406,9.67,3.226,9.841C3.144,9.92,3.052,10.024,3.059,10.164z"/>
	<path class="st34" d="M19.57,3.708c0.19-0.207,0.358-0.425,0.33-0.731C20.044,3.362,19.956,3.557,19.57,3.708z"/>
	<path class="st35" d="M25.605,19.086c-0.171,1.996-1.062,3.575-2.776,4.631c-0.763,0.47-1.645,0.663-2.52,0.839
		c-2.062,0.414-4.146,0.387-6.228,0.25c-1.395-0.092-2.764-0.361-4.053-0.935c-0.837-0.373-1.458-1.002-1.979-1.74
		c-0.7-0.991-1.095-2.079-1.055-3.306c0.165-0.168,0.338-0.318,0.601-0.253c0.074,0.085,0.097,0.19,0.115,0.297
		c0.292,1.696,1.198,2.937,2.737,3.72c1.109,0.564,2.257,1.013,3.486,1.23c1.626,0.287,3.249,0.276,4.873-0.036
		c1.467-0.282,2.828-0.836,4.067-1.655c1.118-0.738,1.712-1.842,1.967-3.139c0.029-0.147,0.031-0.302,0.139-0.422
		C25.393,18.546,25.608,18.724,25.605,19.086z"/>
	<path class="st36" d="M8.681,8.865c0.55-0.078,1.083,0.052,1.605,0.177c0.803,0.193,1.6,0.418,2.364,0.768
		c-0.076,0.182-0.347,0.174-0.376,0.392c-0.163,0.258-0.403,0.395-0.697,0.449c-0.335-0.044-0.618-0.231-0.93-0.339
		c-0.396-0.137-0.798-0.238-1.209-0.303c-0.19-0.03-0.383-0.041-0.571,0.021c-0.236,0.078-0.373,0.22-0.377,0.489
		c-0.004,0.279,0.033,0.553,0.051,0.829c-0.193,0.38-0.51,0.676-0.721,1.044c-0.021,0.037-0.072,0.04-0.116,0.025
		c-0.055-0.155-0.079-0.314-0.073-0.478c-0.028-0.561-0.076-1.123,0.008-1.681C7.735,9.614,7.982,9.067,8.681,8.865z"/>
	<path class="st37" d="M25.605,19.086c-0.007-0.403-0.382-0.373-0.609-0.516c-0.012-0.013-0.024-0.025-0.036-0.038
		c-0.11-0.366-0.026-0.744-0.075-1.116c-0.184-1.396-0.766-2.646-1.395-3.881c-0.053-0.104-0.129-0.199-0.127-0.325
		c0.254-0.514,0.372-1.077,0.575-1.61c0.03-0.078,0.026-0.169,0.106-0.222c0.469,0.192,0.637,0.62,0.817,1.039
		c-0.07,0.6-0.297,1.157-0.468,1.729c-0.06,0.198-0.145,0.217-0.303,0.082c0.183,0.37,0.377,0.736,0.548,1.112
		c0.478,1.055,0.898,2.128,0.975,3.302C25.623,18.789,25.654,18.939,25.605,19.086z"/>
	<path class="st37" d="M7.704,12.418c0.262-0.345,0.474-0.727,0.778-1.04c0.136,0.022,0.151,0.141,0.18,0.239
		c0.158,0.534,0.32,1.066,0.501,1.593c0.016,0.184-0.091,0.327-0.164,0.48c-0.439,0.92-0.903,1.83-1.137,2.832
		c-0.12,0.513-0.216,1.029-0.208,1.559c0.002,0.148,0.023,0.302-0.051,0.443c-0.013,0.012-0.026,0.024-0.039,0.035
		c-0.19,0.089-0.381,0.178-0.571,0.267c-0.068-0.568,0.091-1.106,0.237-1.641c0.264-0.964,0.684-1.864,1.163-2.738
		c0.053-0.098,0.09-0.204,0.14-0.32c-0.174-0.005-0.138,0.169-0.27,0.211C8.027,13.713,7.812,13.082,7.704,12.418z"/>
	<path class="st36" d="M24.861,12.417c-0.255-0.349-0.466-0.731-0.776-1.039c-0.142-0.183-0.023-0.372-0.002-0.553
		c0.073-0.628-0.102-0.834-0.739-0.835c-0.074,0-0.149,0.003-0.224,0c-0.211,0.001-0.346-0.092-0.386-0.307
		c-0.046-0.248,0.085-0.576,0.285-0.711c0.073-0.049,0.16-0.058,0.239-0.092c0.21-0.023,0.418-0.112,0.63-0.014
		c0.664,0.193,1.007,0.739,1.05,1.609c0.023,0.458,0.018,0.916,0.035,1.374C24.957,12.042,24.94,12.236,24.861,12.417z"/>
	<path class="st37" d="M23.258,8.88c-0.235,0.157-0.434,0.341-0.451,0.649c-0.013,0.232,0.048,0.401,0.328,0.381
		c-0.004,0.099-0.082,0.119-0.155,0.131c-0.607,0.099-1.175,0.319-1.734,0.564c-0.088,0.039-0.182,0.065-0.281,0.056
		c-0.233-0.107-0.508-0.157-0.62-0.437c-0.075-0.206-0.32-0.224-0.47-0.425C20.989,9.376,22.076,8.961,23.258,8.88z"/>
	<path class="st38" d="M20.345,10.224c0.198,0.132,0.396,0.264,0.594,0.396c0.01,0.083-0.029,0.134-0.104,0.16
		c-0.394-0.06-0.681-0.344-1.031-0.5c-1.165-0.52-2.347-0.96-3.648-0.934c-1.025,0.021-1.985,0.322-2.918,0.724
		c-0.414,0.179-0.819,0.376-1.203,0.614c-0.124,0.077-0.246,0.183-0.414,0.125c-0.043-0.068-0.047-0.134,0.007-0.198
		c0.216-0.137,0.431-0.274,0.647-0.411c0.847-0.413,1.688-0.837,2.62-1.04c1.555-0.337,3.027-0.093,4.445,0.588
		C19.674,9.91,20.01,10.066,20.345,10.224z"/>
	<path class="st39" d="M8.681,8.865c-0.719,0.388-0.973,1.017-0.998,1.804C7.67,11.092,7.737,11.521,7.63,11.94
		c-0.178-0.82-0.181-1.637,0.114-2.429C7.898,9.098,8.216,8.859,8.681,8.865z"/>
	<path class="st40" d="M24.972,11.848c-0.096-0.442-0.043-0.894-0.093-1.342c-0.08-0.714-0.307-1.307-0.992-1.641
		c0.717,0.013,0.977,0.48,1.097,1.257C25.073,10.692,25.038,11.274,24.972,11.848z"/>
	<path class="st41" d="M6.095,7.069C6.19,7.074,6.266,7.111,6.253,7.2C6.239,7.302,6.205,7.427,6.073,7.429
		C5.994,7.43,5.873,7.385,5.874,7.299C5.874,7.172,5.99,7.11,6.095,7.069z"/>
	<path class="st42" d="M7.145,5.811C7.12,5.876,7.075,5.934,7.012,5.938C6.897,5.947,6.893,5.837,6.87,5.762
		C6.853,5.705,6.884,5.647,6.952,5.67C7.028,5.694,7.12,5.711,7.145,5.811z"/>
	<path class="st43" d="M5.399,6.617C5.494,6.625,5.524,6.694,5.531,6.77c0.004,0.05-0.025,0.129-0.077,0.116
		c-0.076-0.019-0.17-0.061-0.182-0.154C5.262,6.657,5.333,6.63,5.399,6.617z"/>
	<path class="st21" d="M17.517,1.9c0.322,0.026,0.431,0.244,0.441,0.523c0.011,0.299-0.207,0.504-0.571,0.572
		C17.348,2.62,17.381,2.254,17.517,1.9z"/>
	<path class="st44" d="M17.517,1.9c-0.043,0.365-0.087,0.729-0.13,1.094c-0.174-0.377-0.006-0.739,0.047-1.107
		C17.461,1.892,17.489,1.896,17.517,1.9z"/>
	<path class="st45" d="M15.893,1.782c0.103,0.035,0.191,0.1,0.184,0.219c-0.006,0.114-0.086,0.208-0.201,0.203
		C15.712,2.197,15.78,2.05,15.77,1.958C15.762,1.876,15.761,1.782,15.893,1.782z"/>
	<path class="st46" d="M14.224,2.37c0.077,0.094,0.191,0.146,0.138,0.27c-0.01,0.022-0.11,0.034-0.143,0.013
		C14.113,2.585,14.148,2.493,14.224,2.37z"/>
	<path class="st21" d="M8.788,4.122c-0.01,0.104-0.071,0.2-0.167,0.199C8.505,4.32,8.455,4.194,8.434,4.096
		C8.415,4.008,8.503,3.973,8.581,3.967C8.691,3.958,8.766,4.005,8.788,4.122z"/>
	<path class="st47" d="M24.996,18.57c-0.106,0.934-0.424,1.788-0.962,2.559c-0.519,0.744-1.259,1.205-2.043,1.621
		c-0.888,0.471-1.826,0.814-2.796,1.049c-0.727,0.176-1.477,0.264-2.226,0.3c-1.876,0.09-3.704-0.164-5.437-0.905
		c-1.154-0.493-2.304-1.023-3.034-2.13c-0.429-0.65-0.759-1.343-0.865-2.126c-0.017-0.127-0.046-0.252-0.069-0.379
		c0,0,0.005-0.024,0.005-0.024c0.314-0.283,0.701-0.301,1.089-0.279c0.62,0.035,1.196,0.263,1.776,0.456
		c0.76,0.253,1.475,0.201,2.169-0.2c0.763-0.441,1.544-0.848,2.32-1.265c1.068-0.574,2.119-0.405,3.123,0.205
		c0.735,0.447,1.489,0.857,2.265,1.228c0.526,0.251,1.065,0.215,1.607,0.097c0.315-0.068,0.615-0.193,0.921-0.295
		c0.474-0.158,0.958-0.25,1.459-0.204c0.255,0.023,0.52,0.035,0.692,0.273L24.996,18.57z"/>
	<path class="st17" d="M11.628,10.613c0.012,0.065,0.018,0.13-0.021,0.189c-0.037,0.1-0.131,0.136-0.214,0.182
		c-0.81,0.452-1.432,1.098-1.937,1.867c-0.088,0.134-0.134,0.322-0.336,0.351c-0.274-0.453-0.322-0.985-0.516-1.466
		c-0.047-0.117-0.082-0.24-0.122-0.36c-0.044-0.263-0.104-0.525-0.101-0.795c0.006-0.422,0.219-0.65,0.645-0.674
		c0.477-0.027,0.936,0.084,1.382,0.232C10.821,10.278,11.222,10.454,11.628,10.613z"/>
	<path class="st36" d="M9.12,13.203c0.442-0.681,0.909-1.344,1.562-1.844c0.286-0.219,0.584-0.426,0.926-0.557
		c0.542-0.252,1.042-0.585,1.597-0.816c1.066-0.444,2.155-0.782,3.324-0.727c1.006,0.047,1.949,0.357,2.872,0.744
		c0.514,0.215,0.98,0.519,1.484,0.749c0.45,0.019,0.759,0.325,1.077,0.574c0.54,0.424,0.987,0.944,1.338,1.539
		c0.057,0.096,0.162,0.182,0.096,0.317c0.499,0.912,0.964,1.843,1.273,2.836c0.254,0.818,0.405,1.664,0.322,2.532
		c-0.725-0.346-1.443-0.202-2.16,0.029c-0.398,0.128-0.787,0.286-1.201,0.36c-0.76,0.136-1.395-0.185-2.047-0.514
		c-0.812-0.409-1.541-0.971-2.403-1.283c-0.75-0.272-1.478-0.201-2.178,0.165c-0.939,0.491-1.85,1.036-2.809,1.489
		c-0.539,0.254-1.088,0.202-1.635,0.049c-0.526-0.147-1.043-0.329-1.57-0.472c-0.488-0.132-0.957,0.006-1.418,0.16
		c-0.079-1.456,0.348-2.791,0.967-4.081C8.735,14.039,8.926,13.62,9.12,13.203z"/>
	<path class="st48" d="M23.396,13.183c-0.582-1.074-1.393-1.912-2.511-2.431c-0.035-0.066,0.044-0.084,0.055-0.131
		c0.716-0.285,1.432-0.57,2.195-0.71c0.974-0.023,1.178,0.221,0.99,1.182c-0.018,0.094-0.027,0.19-0.039,0.285
		c-0.17,0.547-0.341,1.093-0.51,1.64C23.547,13.108,23.538,13.218,23.396,13.183z"/>
	<path d="M19.462,19.575c0.32,0.427,0.223,0.914-0.201,1.161c-0.205,0.12-0.433,0.223-0.67,0.193
		c-0.277-0.035-0.379,0.129-0.477,0.323c-0.233,0.462-0.53,0.873-0.918,1.222c-0.573,0.516-1.243,0.521-1.815-0.006
		c-0.407-0.375-0.714-0.827-0.962-1.315c-0.079-0.156-0.15-0.223-0.329-0.219c-0.365,0.009-0.697-0.093-0.956-0.372
		c-0.252-0.272-0.262-0.636-0.021-0.952c0.078,0.007,0.063,0.071,0.071,0.118c0.103,0.647,0.342,0.856,0.998,0.812
		c0.651-0.044,1.278-0.171,1.725-0.717c0.026-0.032,0.04-0.073,0.078-0.142c-0.383-0.103-0.732-0.246-1.042-0.469
		c-0.361-0.259-0.364-0.591,0.039-0.761c0.886-0.374,1.792-0.391,2.673,0.027c0.339,0.161,0.331,0.473,0.029,0.708
		c-0.31,0.241-0.668,0.379-1.061,0.488c0.21,0.492,0.658,0.624,1.091,0.762c0.255,0.082,0.526,0.107,0.796,0.107
		c0.574,0,0.781-0.176,0.896-0.749C19.416,19.733,19.436,19.672,19.462,19.575z"/>
	<path class="st49" d="M11.446,10.716c-0.934,0.495-1.635,1.182-2.178,2.036c-0.027,0.042-0.078,0.096-0.119,0.097
		c-0.077,0.001-0.08-0.081-0.099-0.141c-0.178-0.561-0.384-1.113-0.485-1.696c-0.013-0.074-0.026-0.148-0.032-0.222
		c-0.054-0.585,0.122-0.786,0.702-0.74C10.002,10.108,10.712,10.375,11.446,10.716z"/>
	<path d="M14.166,16.786c-0.005,0.687-0.568,1.253-1.244,1.248c-0.663-0.004-1.255-0.595-1.258-1.255
		c-0.003-0.677,0.595-1.262,1.279-1.252C13.636,15.537,14.171,16.087,14.166,16.786z"/>
	<path d="M20.881,16.785c-0.005,0.694-0.559,1.252-1.24,1.249c-0.673-0.004-1.253-0.582-1.256-1.254
		c-0.003-0.691,0.578-1.262,1.275-1.253C20.365,15.537,20.886,16.075,20.881,16.785z"/>
	<path class="st50" d="M19.771,13.388c0.226,0.037,0.528,0.05,0.773,0.258c0.195,0.167,0.319,0.359,0.2,0.616
		c-0.124,0.268-0.371,0.357-0.64,0.317c-0.243-0.036-0.481-0.092-0.73-0.09c-0.251,0.003-0.434-0.118-0.507-0.359
		c-0.073-0.24,0.062-0.42,0.236-0.553C19.274,13.446,19.478,13.374,19.771,13.388z"/>
	<path class="st50" d="M12.962,13.384c0.203,0.014,0.426,0.099,0.608,0.285c0.154,0.158,0.168,0.344,0.105,0.536
		c-0.06,0.183-0.212,0.27-0.396,0.278c-0.279,0.012-0.552,0.039-0.826,0.102c-0.253,0.058-0.562-0.133-0.622-0.344
		c-0.078-0.275,0.064-0.572,0.361-0.708C12.417,13.431,12.66,13.382,12.962,13.384z"/>
	<path class="st49" d="M23.446,12.895c-0.6-0.886-1.288-1.637-2.215-2.118c-0.036-0.129,0.06-0.145,0.118-0.169
		c0.624-0.259,1.257-0.488,1.935-0.56c0.58-0.061,0.788,0.131,0.755,0.715C23.997,11.512,23.628,12.171,23.446,12.895z"/>
	<path class="st51" d="M16.323,21.247c0.322,0.039,0.642,0.124,0.89,0.401c0.094,0.105,0.107,0.171-0.008,0.255
		c-0.025,0.018-0.04,0.05-0.06,0.075c-0.712,0.846-1.236,0.573-1.798-0.109c-0.07-0.085-0.035-0.15,0.033-0.222
		C15.629,21.38,15.942,21.269,16.323,21.247z"/>
	<path class="st52" d="M17.253,18.504c-0.347,0.234-1.466,0.232-1.786-0.001C16.068,18.397,16.646,18.397,17.253,18.504z"/>
	<path class="st53" d="M13.64,16.447c-0.011,0.238-0.136,0.368-0.364,0.364c-0.254-0.004-0.352-0.182-0.354-0.407
		c-0.002-0.214,0.123-0.347,0.338-0.341C13.499,16.069,13.625,16.214,13.64,16.447z"/>
	<path class="st54" d="M19.656,16.478c-0.017,0.187-0.131,0.339-0.379,0.333c-0.237-0.006-0.342-0.164-0.33-0.384
		c0.012-0.219,0.138-0.367,0.366-0.365C19.539,16.063,19.666,16.192,19.656,16.478z"/>
</g>
</svg>
