<?xml version="1.0" encoding="utf-8"?>
<!-- Generator: Adobe Illustrator 22.0.1, SVG Export Plug-In . SVG Version: 6.00 Build 0)  -->
<svg version="1.1" id="Layer_1" xmlns="http://www.w3.org/2000/svg" xmlns:xlink="http://www.w3.org/1999/xlink" x="0px" y="0px"
	 viewBox="0 0 32 32" style="enable-background:new 0 0 32 32;" xml:space="preserve">
<style type="text/css">
	.st0{fill:#FFFFFF;}
	.st1{fill:#0B2272;}
	.st2{fill:#F76601;}
</style>
<g>
	<circle class="st0" cx="16.005" cy="16" r="15.831"/>
	<g>
		<path class="st1" d="M21.997,1.295c-1.181,0.508-2.269,0.943-3.33,1.437c-2.538,1.184-4.923,2.606-6.843,4.689
			c-1.058,1.147-1.873,2.438-2.093,4.028c-0.167,1.203,0.035,2.366,0.561,3.437c0.629,1.282,1.351,2.52,2.054,3.765
			c0.694,1.229,1.388,2.452,1.627,3.871c0.227,1.349-0.061,2.595-0.762,3.75c-0.982,1.618-2.402,2.8-3.924,3.873
			c-0.08,0.056-0.248,0.061-0.34,0.017c-1.509-0.737-2.854-1.706-4.051-2.884c-1.291-1.27-2.336-2.716-3.128-4.345
			c-1.241-2.551-1.748-5.241-1.553-8.069c0.151-2.193,0.738-4.259,1.759-6.204c1.18-2.247,2.808-4.102,4.875-5.574
			c1.583-1.127,3.315-1.937,5.195-2.414c2.494-0.633,5.005-0.677,7.513-0.082C20.355,0.779,21.135,1.044,21.997,1.295z"/>
		<path class="st2" d="M10.109,30.644c0.993-0.421,1.997-0.819,2.978-1.266c2.084-0.95,4.061-2.081,5.808-3.577
			c1.195-1.023,2.234-2.175,2.889-3.632c0.705-1.567,0.648-3.139,0.057-4.722c-0.504-1.351-1.281-2.555-2.01-3.786
			c-0.622-1.052-1.23-2.108-1.605-3.283c-0.582-1.822-0.27-3.497,0.8-5.048c0.966-1.401,2.255-2.468,3.619-3.456
			c0.154-0.111,0.267-0.108,0.438-0.023c1.923,0.962,3.572,2.269,4.967,3.901c1.207,1.412,2.141,2.989,2.778,4.732
			c1.075,2.941,1.294,5.946,0.594,9.007c-0.869,3.797-2.885,6.86-5.978,9.202c-2.158,1.634-4.605,2.627-7.287,2.986
			c-2.038,0.273-4.072,0.19-6.07-0.349c-0.67-0.181-1.33-0.403-1.994-0.606C10.099,30.698,10.104,30.671,10.109,30.644z"/>
	</g>
</g>
</svg>
