<?xml version="1.0" encoding="utf-8"?>
<!-- Generator: Adobe Illustrator 25.2.3, SVG Export Plug-In . SVG Version: 6.00 Build 0)  -->
<svg version="1.1" id="Layer_1" xmlns="http://www.w3.org/2000/svg" xmlns:xlink="http://www.w3.org/1999/xlink" x="0px" y="0px"
	 viewBox="0 0 32 32" style="enable-background:new 0 0 32 32;" xml:space="preserve">
<style type="text/css">
	.st0{fill:#FAC184;}
	.st1{fill:#F8E8CC;}
	.st2{fill:#F2D3AF;}
	.st3{fill:#F1D2AD;}
	.st4{fill:#100C0B;}
	.st5{fill:#0B0C10;}
	.st6{fill:#7EB7E3;}
	.st7{fill:#C8BE97;}
	.st8{fill:#E7E799;}
	.st9{fill:#C8BE98;}
	.st10{fill:#080F10;}
	.st11{fill:#24303B;}
	.st12{fill:#C4BA9A;}
	.st13{fill:#FAFAF9;}
	.st14{fill:#CBCCCD;}
	.st15{fill:#FCFCFB;}
	.st16{fill:#E86365;}
	.st17{fill:#091019;}
	.st18{fill:#0A1117;}
	.st19{fill:#081019;}
	.st20{fill:#6B6566;}
	.st21{fill:#161A1F;}
	.st22{fill:#0C1D2F;}
	.st23{fill:#DADADC;}
	.st24{fill:#123352;}
	.st25{fill:#203242;}
	.st26{fill:#2D3A49;}
	.st27{fill:#583E52;}
	.st28{fill:#503A4B;}
	.st29{fill:#445768;}
	.st30{fill:#2F6189;}
	.st31{fill:#5E3E54;}
	.st32{fill:#103A41;}
	.st33{fill:#291E1B;}
	.st34{fill:#706661;}
	.st35{fill:#C9C6CC;}
	.st36{fill:#D6CFCF;}
	.st37{fill:#DADCDE;}
	.st38{fill:#D1D4D7;}
	.st39{fill:#0A0C0F;}
	.st40{fill:#C5BB98;}
	.st41{fill:#C5C9CE;}
	.st42{fill:#BEC4C8;}
</style>
<g>
	<path class="st0" d="M1.461,21.634c-0.542-1.292-0.804-2.646-0.967-4.034c-0.136-1.157-0.107-2.305,0.025-3.452
		c0.121-1.053,0.348-2.087,0.687-3.097c0.454-1.35,1.062-2.625,1.876-3.786c0.905-1.29,1.931-2.461,3.201-3.44
		c1.175-0.905,2.41-1.668,3.765-2.24c1.024-0.433,2.093-0.723,3.193-0.924c0.92-0.167,1.846-0.238,2.77-0.261
		c0.804-0.019,1.615,0.071,2.416,0.199c0.957,0.152,1.896,0.363,2.808,0.699c0.138,0.051,0.235,0.17,0.385,0.182
		c0.134,0.135,0.346,0.027,0.482,0.156c1.279,0.554,2.478,1.232,3.562,2.124c0.736,0.606,1.456,1.217,2.081,1.944
		c1.015,1.182,1.883,2.455,2.498,3.884c0.464,1.078,0.895,2.174,1.074,3.347c0.197,1.285,0.33,2.566,0.256,3.876
		c-0.067,1.174-0.25,2.316-0.517,3.454c-0.062,0.246-0.103,0.499-0.245,0.717c-0.782,2.415-2.108,4.503-3.92,6.258
		c-1.545,1.497-3.333,2.656-5.372,3.39c-1.489,0.536-3.014,0.852-4.606,0.943c-1.284,0.074-2.55-0.003-3.8-0.219
		c-2.336-0.404-4.465-1.344-6.364-2.762c-0.909-0.679-1.774-1.417-2.507-2.302c-1.061-1.28-1.975-2.645-2.609-4.187
		C1.528,21.966,1.615,21.756,1.461,21.634z"/>
	<path class="st1" d="M30.812,20.983c0.042-0.253,0.1-0.5,0.245-0.717C31.083,20.542,31.058,20.8,30.812,20.983z"/>
	<path class="st2" d="M22.103,1.636c-0.161-0.05-0.395,0.122-0.482-0.156C21.798,1.483,21.994,1.425,22.103,1.636z"/>
	<path class="st3" d="M1.461,21.634c0.312,0.063,0.112,0.315,0.173,0.47C1.475,21.985,1.473,21.808,1.461,21.634z"/>
	<path class="st4" d="M26.264,14.582c0.053,0.003,0.107-0.002,0.158,0.009c0.427,0.092,0.428,0.093,0.363-0.343
		c-0.018-0.117-0.073-0.25,0.083-0.305c0.139-0.05,0.212,0.048,0.28,0.16c0.109,0.181,0.247,0.346,0.351,0.529
		c0.148,0.258,0.314,0.46,0.622,0.564c0.343,0.116,0.471,0.443,0.542,0.782c0.187,0.888-0.034,1.747-0.199,2.606
		c-0.122,0.638-0.292,1.268-0.47,1.893c-0.335,1.173-1.191,1.862-2.259,2.319c-1.559,0.667-3.209,0.802-4.882,0.767
		c-0.013,0-0.027-0.002-0.04-0.002c-0.319,0-0.715-0.115-0.938,0.031c-0.251,0.165-0.059,0.586-0.079,0.894
		c-0.064,0.987-0.863,1.556-1.932,1.369c-0.895-0.156-1.692-0.547-2.442-1.037c-0.794-0.518-1.51-1.133-2.174-1.809
		c-0.136-0.138-0.266-0.243-0.48-0.227c-0.952,0.068-1.735-0.349-2.437-0.922c-1.079-0.881-1.586-2.075-1.736-3.429
		c-0.077-0.698,0.14-1.344,0.502-1.932c0.109-0.177,0.107-0.298,0.018-0.465c-0.648-1.21-1.629-1.939-3.01-2.088
		c-0.177-0.019-0.276-0.063-0.334-0.26c-0.335-1.151-1.049-1.98-2.159-2.457c-0.224-0.096-0.329-0.283-0.284-0.514
		c0.042-0.212,0.227-0.281,0.427-0.289c1.529-0.068,3.026,0.113,4.491,0.559c0.604,0.184,1.212,0.358,1.941,0.572
		c-0.36-0.547-0.656-0.99-1.007-1.395c-0.6-0.693-1.231-1.36-1.736-2.131C7.255,7.738,7.086,7.44,6.982,7.107
		c-0.19-0.608,0.185-1.043,0.816-0.922c0.34,0.065,0.655,0.211,0.959,0.383c1.172,0.661,2.198,1.547,3.378,2.196
		c0.454,0.25,0.904,0.509,1.343,0.784c0.18,0.113,0.344,0.074,0.485-0.012c0.169-0.103,0.003-0.246-0.032-0.35
		c-0.233-0.694-0.398-1.4-0.492-2.128c-0.046-0.355,0.101-0.578,0.355-0.734c0.26-0.16,0.557-0.1,0.783,0.093
		c0.333,0.285,0.65,0.589,0.888,0.965c0.642,1.011,1.299,2.01,2.167,2.852c0.19,0.184,0.332,0.24,0.581,0.094
		c0.329-0.195,0.679-0.366,1.076-0.391c0.016,0.014,0.032,0.028,0.048,0.042c0.028,0.061,0.028,0.122,0.003,0.183
		c-0.363,0.25-0.809,0.324-1.182,0.558c-0.192,0.12-0.417,0.204-0.536,0.404c-0.169,0.281-0.327,0.215-0.491,0.014
		c-0.219-0.269-0.461-0.514-0.721-0.745c-1.728-1.536-3.871-0.086-4.17,1.573c-0.139,0.77-0.161,0.766-0.884,0.451
		c-1.902-0.83-3.87-1.425-5.945-1.627c-0.304-0.03-0.61-0.007-0.946-0.013c0.263,0.073,0.513,0.088,0.717,0.238
		c0.091,0.167,0.432,0.061,0.398,0.364c-0.078,0.102-0.187,0.09-0.291,0.066c-0.373-0.087-0.741-0.187-1.044-0.3
		c0.38,0.172,0.73,0.487,1.035,0.851c0.308,0.368,0.552,0.782,0.724,1.23c0.098,0.255,0.266,0.36,0.524,0.415
		c1.099,0.237,1.979,0.821,2.601,1.759c0.193,0.29,0.35,0.457,0.662,0.166c0.048-0.045,0.12-0.053,0.184-0.008
		c0.049,0.075,0.049,0.154,0.022,0.236c-0.305,0.382-0.623,0.746-0.819,1.213c-0.395,0.943-0.248,1.867,0.078,2.764
		c0.422,1.162,1.194,2.029,2.388,2.47c0.317,0.117,0.64,0.182,0.977,0.16c0.316-0.021,0.553,0.104,0.779,0.322
		c0.784,0.759,1.605,1.473,2.549,2.036c0.602,0.359,1.236,0.62,1.926,0.734c1.038,0.171,1.558-0.29,1.574-1.343
		c0.005-0.287-0.148-0.575,0-0.862c0.034-0.028,0.071-0.049,0.113-0.062c0.81-0.066,1.623,0.004,2.433-0.035
		c1.35-0.065,2.672-0.266,3.907-0.865c0.888-0.431,1.48-1.101,1.775-2.047c0.354-1.135,0.593-2.293,0.699-3.476
		c0.042-0.468,0.004-0.937-0.37-1.297c-0.078-0.197-0.27-0.137-0.415-0.182c-0.229-0.239-0.242-0.61-0.514-0.816
		c-0.046,0.159,0.096,0.395-0.16,0.501c-0.15-0.21-0.395-0.133-0.594-0.195c-0.036-0.016-0.065-0.04-0.089-0.071
		C26.212,14.683,26.218,14.629,26.264,14.582z"/>
	<path class="st5" d="M26.264,14.582c-0.006,0.062-0.013,0.124-0.019,0.185c-0.144,0.114-0.304,0.071-0.459,0.042
		c-1.313-0.245-2.639-0.314-3.97-0.262c-1.001,0.039-1.977,0.235-2.921,0.583c-0.671,0.247-0.903,0.129-1.133-0.553
		c-0.343-1.021-0.009-2.199,0.82-2.888c0.597-0.496,1.548-0.433,2.151,0.14c0.151,0.144,0.268,0.316,0.409,0.516
		c0.018-0.46-0.184-0.84-0.191-1.25c0.044-0.089,0.101-0.153,0.213-0.11c0.471,0.851,0.43,1.759,0.275,2.671
		c-0.093,0.55-0.115,0.547,0.437,0.531c1.386-0.04,2.765,0.007,4.124,0.315C26.089,14.521,26.176,14.555,26.264,14.582z"/>
	<path class="st4" d="M21.164,10.984c-0.058,0.029-0.115,0.058-0.173,0.088c-0.372-0.282-0.637-0.687-1.051-0.921
		c-0.173-0.182-0.452-0.015-0.628-0.189c0,0-0.024-0.025-0.024-0.025C20.046,9.655,20.748,10.157,21.164,10.984z"/>
	<path class="st6" d="M20.017,10.133c0.427,0.207,0.731,0.541,0.975,0.938c0.172,0.508,0.337,1.016,0.264,1.655
		c-0.146-0.227-0.237-0.382-0.34-0.528c-0.658-0.934-1.794-1.005-2.557-0.161c-0.689,0.761-0.819,2.058-0.311,2.948
		c0.154,0.269,0.383,0.221,0.58,0.142c2.377-0.961,4.811-0.812,7.261-0.397c0.117,0.02,0.237,0.026,0.356,0.038
		c0,0,0.003-0.005,0.003-0.005c0.55,0.075,0.558,0.075,0.553,0.653c-0.002,0.189,0.102,0.263,0.242,0.314
		c0.215,0.077,0.388-0.01,0.526-0.173c0.121-0.144,0.2-0.386,0.452-0.165c0.555,0.404,0.491,1.003,0.45,1.564
		c-0.087,1.184-0.376,2.333-0.716,3.467c-0.329,1.098-1.132,1.739-2.139,2.167c-0.851,0.362-1.749,0.533-2.665,0.641
		c-1.129,0.133-2.259,0.079-3.389,0.064c-1.197-0.388-2.295-0.979-3.359-1.638c-0.158-0.098-0.305-0.213-0.479-0.284
		c-0.162-0.098-0.318-0.204-0.458-0.333c-0.274-0.275-0.594-0.497-0.872-0.768c-0.043-0.033-0.083-0.069-0.122-0.106
		c-0.085,0-0.147-0.265-0.249-0.018c0.112,0.302,0.361,0.525,0.468,0.827c0.225,0.533,0.646,0.953,0.865,1.49
		c0.19,0.325,0.427,0.611,0.711,0.858c0.129,0.097,0.228,0.224,0.336,0.342c0.239,0.27,0.518,0.484,0.854,0.622
		c0.136,0.056,0.275,0.104,0.414,0.153c0.216,0.07,0.438,0.037,0.657,0.038c0.21-0.025,0.405-0.075,0.502-0.294
		c0.013-0.034,0.028-0.067,0.042-0.1c0.048-0.125,0.037-0.254,0.042-0.384c0.011-0.314,0.202-0.445,0.547-0.392
		c0.079,0.446,0.137,0.897,0.072,1.345c-0.087,0.603-0.528,0.96-1.175,0.97c-0.967,0.016-1.807-0.373-2.607-0.863
		c-0.911-0.559-1.715-1.252-2.461-2.016c-0.109-0.112-0.203-0.237-0.398-0.218c-1.714,0.161-3.461-1.288-3.918-3.316
		c-0.302-1.339-0.057-2.491,0.976-3.436c0.532-0.622,1.226-0.954,1.964-1.193c-0.361-0.414-0.869-0.785-1.394-1.127
		c-1.3-0.847-2.712-1.463-4.186-1.933c-0.404-0.129-0.788-0.298-1.183-0.444c-0.335-0.101-0.67-0.203-1.048-0.317
		c1.195-0.293,4.405,0.204,7.895,1.818c0.149-0.243,0.103-0.532,0.176-0.791c0.325-1.147,1.089-1.842,2.216-2.125
		c0.704-0.177,1.336,0.073,1.901,0.505c0.423,0.324,0.771,0.72,1.168,1.244c-0.038-0.318,0.069-0.43,0.233-0.534
		c0.508-0.321,1.047-0.567,1.619-0.746C19.547,9.984,19.782,9.978,20.017,10.133z"/>
	<path class="st7" d="M13.365,9.793c-0.845,0.557-1.338,1.282-1.502,2.221c-0.027,0.158-0.083,0.186-0.242,0.122
		c-0.542-0.22-1.06-0.433-1.386-0.987c-0.589-1.001-1.462-1.786-2.154-2.71c-0.319-0.426-0.634-0.856-0.818-1.36
		C7.11,6.659,7.255,6.47,7.698,6.483c0.274,0.008,0.515,0.121,0.754,0.236c0.457,0.219,0.879,0.498,1.287,0.796
		C10.876,8.345,12.081,9.069,13.365,9.793z"/>
	<path class="st8" d="M9.943,15.532c-0.228,0.08-0.335,0.457-0.542,0.389c-0.179-0.058-0.272-0.367-0.412-0.56
		c-0.655-0.903-1.531-1.455-2.627-1.663c-0.131-0.025-0.29-0.006-0.356-0.192c-0.37-1.032-0.987-1.868-2.077-2.452
		c0.643,0.047,1.117,0.268,1.621,0.346C5.897,11.36,6.2,11.525,6.51,11.632c1.73,0.601,3.405,1.315,4.844,2.486
		c0.419,0.341,0.406,0.441-0.1,0.665C10.79,14.988,10.421,15.355,9.943,15.532z"/>
	<path class="st9" d="M14.149,6.513c0.206,0.035,0.378,0.184,0.54,0.341c0.317,0.308,0.567,0.67,0.798,1.044
		c0.562,0.909,1.197,1.76,1.96,2.512c0.062,0.062,0.26,0.116,0.087,0.266c-0.127,0.11-0.231,0.123-0.363-0.024
		c-0.57-0.634-1.213-1.159-2.093-1.294c-0.079-0.012-0.167-0.044-0.237-0.022c-0.554,0.179-0.648-0.192-0.761-0.593
		c-0.155-0.551-0.283-1.107-0.361-1.674C13.674,6.736,13.854,6.499,14.149,6.513z"/>
	<path class="st10" d="M9.943,15.532c0.469-0.467,1.066-0.729,1.684-1.033c-0.408-0.408-0.858-0.72-1.321-1.012
		c-1.426-0.899-2.981-1.505-4.58-2.009c-0.061-0.019-0.118-0.051-0.177-0.077c-0.003-0.141-0.094-0.172-0.212-0.17
		c-0.107,0.002-0.176-0.041-0.187-0.155c2.442,0.651,4.746,1.586,6.689,3.261c0.086,0.074,0.199,0.138,0.213,0.302
		c-0.789,0.209-1.446,0.672-2.104,1.134C9.947,15.693,9.945,15.613,9.943,15.532z"/>
	<path class="st11" d="M19.458,23.308c-0.291,0.081-0.556,0.171-0.438,0.578c0.025,0.086,0.018,0.24-0.118,0.304
		c-0.079-0.064-0.098-0.157-0.09-0.246c0.03-0.355-0.173-0.518-0.479-0.601c-0.149-0.086-0.227-0.268-0.453-0.263
		c-0.139,0.003-0.181-0.168-0.167-0.312c0.008-0.035,0.023-0.067,0.043-0.096c0.029-0.024,0.063-0.015,0.095-0.02
		c0.022-0.004-0.019-0.011-0.027-0.024c-0.032-0.005-0.061-0.011-0.092-0.018c-0.125-0.048-0.237-0.127-0.375-0.139
		c-0.034-0.007-0.066-0.021-0.095-0.04c-0.092-0.08-0.195-0.137-0.318-0.156c-0.176-0.049-0.341-0.118-0.476-0.245
		c-0.084-0.097-0.173-0.187-0.309-0.206c-0.052-0.016-0.094-0.048-0.13-0.088c-0.079-0.091-0.151-0.19-0.276-0.224
		c-0.034-0.013-0.06-0.034-0.078-0.065c-0.012-0.054-0.007-0.103,0.051-0.13c0.136-0.047,0.223,0.044,0.319,0.112
		c0.953,0.674,2.021,1.13,3.07,1.624c0.153,0.072,0.298,0.161,0.446,0.243C19.527,23.299,19.492,23.303,19.458,23.308z"/>
	<path class="st12" d="M26.914,15.019c0.145-0.223,0.005-0.484,0.101-0.754c0.321,0.299,0.478,0.66,0.596,1.045
		c-0.034,0.289-0.252,0.494-0.497,0.445c-0.267-0.053-0.361-0.225-0.295-0.492C26.84,15.175,26.822,15.077,26.914,15.019z"/>
	<path class="st5" d="M26.914,15.019c-0.001,0.039-0.004,0.079-0.001,0.118c0.012,0.192-0.17,0.468,0.168,0.529
		c0.257,0.046,0.431-0.12,0.53-0.356c0.149-0.035,0.326-0.216,0.41,0.08c-0.149-0.077-0.246-0.064-0.311,0.121
		c-0.088,0.251-0.31,0.359-0.554,0.356c-0.249-0.003-0.559-0.146-0.465-0.398c0.186-0.5-0.074-0.612-0.443-0.708
		C26.475,14.833,26.847,14.531,26.914,15.019z"/>
	<path class="st5" d="M20.017,10.133c-0.235-0.049-0.471-0.014-0.706-0.003c0.001-0.056,0.001-0.113,0.002-0.169
		C19.544,10.032,19.857,9.769,20.017,10.133z"/>
	<path class="st13" d="M18.016,13.376c0.012-0.092,0.013-0.187,0.039-0.274c0.25-0.846,0.87-1.4,1.545-1.386
		c0.661,0.013,1.244,0.566,1.479,1.408c0.043,0.153,0.073,0.31,0.09,0.468c0.067,0.619,0.064,0.619-0.556,0.742
		c-0.044-0.309,0.038-0.635-0.132-0.948c-0.173,0.104-0.355,0.272-0.552,0.06c-0.185-0.198-0.216-0.435-0.062-0.656
		c0.122-0.176,0.028-0.216-0.106-0.28c-0.437-0.208-0.966-0.068-1.312,0.363c-0.195,0.243-0.305,0.526-0.359,0.831
		C17.9,13.631,18.002,13.493,18.016,13.376z"/>
	<path class="st14" d="M18.016,13.376c0.046,0.105-0.026,0.235,0.073,0.328c0,0.209,0,0.417,0,0.626
		C17.921,14.019,17.898,13.701,18.016,13.376z"/>
	<path class="st15" d="M16.116,15.873c-0.107,0.25-0.406,0.235-0.567,0.41c-0.407-0.124-0.842-0.16-1.213-0.393
		c0.076-0.111,0.2-0.129,0.317-0.144c0.942-0.122,1.271-1.102,1.237-1.789c-0.009-0.171-0.044-0.343-0.081-0.512
		c-0.033-0.148-0.08-0.219-0.271-0.177c-0.504,0.11-0.784-0.147-0.763-0.661c0.016-0.4-0.1-0.507-0.502-0.455
		c-0.383,0.049-0.661,0.264-0.867,0.578c-0.589,0.899-0.353,2.407,0.707,2.907c0.098,0.046,0.29,0.051,0.217,0.257
		c-0.577,0.133-0.71,0.078-1.037-0.378c-0.631-0.879-0.79-1.835-0.486-2.869c0.169-0.573,0.526-1.017,1.017-1.336
		c0.701-0.457,1.766-0.205,2.347,0.549c0.713,0.925,0.911,1.953,0.56,3.075C16.565,15.274,16.438,15.637,16.116,15.873z"/>
	<path class="st16" d="M18.329,23.291c0.543,0.063,0.589,0.135,0.574,0.899c0,0,0.005-0.004,0.005-0.004
		c-0.121,0.223-0.335,0.299-0.561,0.358c-0.239-0.019-0.482,0.042-0.717-0.037c-0.135-0.041-0.27-0.081-0.405-0.122
		c-0.292-0.244-0.619-0.443-0.907-0.692c-0.148-0.033-0.128-0.248-0.288-0.269c-0.189-0.345-0.542-0.569-0.692-0.943
		c-0.1-0.359,0.158-0.474,0.405-0.597c0.544,0.016,0.956,0.296,1.328,0.661C17.374,22.989,17.723,23.357,18.329,23.291z"/>
	<path class="st17" d="M14.344,15.868c0.407,0.122,0.831,0.193,1.204,0.415c0.007,0.193-0.109,0.095-0.177,0.067
		c-0.524-0.216-1.074-0.311-1.634-0.31c-0.222,0-0.228-0.173-0.322-0.271c-0.54-0.558-0.813-1.243-0.873-2.007
		c-0.061-0.769,0.125-1.485,0.612-2.093c0.763-0.951,1.968-1.015,2.872-0.171c0.937,0.875,1.234,2.367,0.711,3.566
		c-0.075,0.012-0.121-0.002-0.083-0.093c0.237-0.882,0.186-1.737-0.243-2.557c-0.143-0.274-0.332-0.513-0.558-0.722
		c-0.835-0.774-1.98-0.642-2.618,0.3c-0.731,1.079-0.586,2.782,0.299,3.746c0.254,0.277,0.547,0.091,0.82,0.135L14.344,15.868z"/>
	<path class="st18" d="M22.942,16.923c-0.381,0.004-0.518-0.178-0.466-0.561c0.05-0.368,0.009-0.737-0.073-1.1
		c-0.037-0.163-0.256-0.352-0.011-0.482c0.238-0.127,0.284,0.163,0.411,0.273c0.332,0.289,0.607,0.616,0.741,1.049
		C23.685,16.559,23.429,16.918,22.942,16.923z"/>
	<path class="st19" d="M22.605,18.186c0.389,0.026,0.737,0.102,1.039,0.316c0.086,0.061,0.172,0.144,0.127,0.265
		c-0.039,0.105-0.152,0.104-0.24,0.103c-0.439-0.007-0.869-0.082-1.291-0.203c-0.112-0.032-0.263-0.072-0.256-0.21
		c0.008-0.151,0.16-0.2,0.291-0.229C22.392,18.203,22.512,18.197,22.605,18.186z"/>
	<path class="st20" d="M15.806,21.938c-0.202,0.141-0.492,0.217-0.421,0.563c-0.029,0.051-0.064,0.055-0.104,0.013
		c-0.223-0.535-0.682-0.935-0.857-1.498c-0.035-0.22,0.145-0.195,0.211-0.128c0.156,0.159,0.389,0.225,0.502,0.43
		c0.138,0.122,0.174,0.292,0.206,0.466c0.145-0.021,0.214-0.237,0.385-0.148C15.853,21.701,15.881,21.811,15.806,21.938z"/>
	<path class="st21" d="M15.07,21.369c-0.139-0.166-0.413-0.182-0.477-0.443c-0.01-0.04-0.14-0.002-0.169,0.09
		c-0.125-0.32-0.463-0.524-0.49-0.898c-0.025-0.131,0.064-0.119,0.127-0.082c0.09,0.052,0.186,0.056,0.282,0.076
		c0.027,0.03,0.053,0.061,0.08,0.091c0.024,0.028,0.036,0.06,0.036,0.097c0.002,0.126,0.006,0.251,0.18,0.257
		c0.035,0.01,0.064,0.03,0.088,0.057c0.04,0.214,0.246,0.261,0.384,0.377c0.044,0.091,0.049,0.185,0.026,0.282
		C15.122,21.311,15.1,21.343,15.07,21.369z"/>
	<path class="st22" d="M13.248,20.086c0.043-0.69,0.557-1.093,1.294-0.975C13.939,19.265,13.568,19.619,13.248,20.086z"/>
	<path class="st23" d="M15.077,21.284c-0.009-0.089-0.017-0.178-0.026-0.267c-0.02-0.039-0.019-0.078,0.002-0.116
		c0.116-0.045,0.185,0.057,0.275,0.089c0.133,0.109,0.265,0.218,0.398,0.326c-0.018,0.044-0.035,0.089-0.053,0.133
		c-0.016,0.208-0.248,0.253-0.295,0.518C15.217,21.697,15.322,21.407,15.077,21.284z"/>
	<path class="st24" d="M20.812,17.78c0.156-0.455,0.551-0.572,0.955-0.669c0.293-0.071,0.591-0.059,0.889,0
		c-0.379,0.046-0.759,0.086-1.12,0.209c-0.279,0.095-0.537,0.232-0.641,0.541C20.82,17.882,20.785,17.862,20.812,17.78z"/>
	<path class="st25" d="M15.328,20.99c-0.107,0.047-0.167-0.08-0.263-0.073c-0.163-0.074-0.31-0.168-0.399-0.332l0.004,0.004
		c-0.134-0.052-0.246-0.124-0.253-0.288c0.002-0.033,0.003-0.065,0.005-0.098C14.714,20.478,15.078,20.669,15.328,20.99z"/>
	<path class="st26" d="M16.654,14.972c0.028,0.031,0.056,0.062,0.083,0.093c-0.13,0.329-0.25,0.665-0.622,0.808
		C16.336,15.597,16.498,15.286,16.654,14.972z"/>
	<path class="st27" d="M15.281,22.514c0.035-0.004,0.069-0.008,0.104-0.013c0.185,0.328,0.545,0.534,0.644,0.923
		C15.724,23.167,15.484,22.856,15.281,22.514z"/>
	<path class="st28" d="M16.317,23.693c0.35,0.168,0.665,0.382,0.907,0.692C16.868,24.225,16.55,24.015,16.317,23.693z"/>
	<path class="st29" d="M14.343,20.112c-0.084,0.057-0.155,0.262-0.265,0.018c-0.027-0.061-0.089-0.094-0.144-0.012
		c-0.053-0.065-0.092-0.141-0.038-0.215c0.067-0.092,0.14-0.01,0.209,0.014C14.207,19.953,14.289,20.016,14.343,20.112z"/>
	<path class="st30" d="M20.812,17.78c0.028,0.027,0.055,0.055,0.083,0.082c0,0.183,0,0.366,0,0.609
		C20.744,18.216,20.654,18.014,20.812,17.78z"/>
	<path class="st31" d="M18.424,24.503c0.161-0.106,0.322-0.212,0.484-0.318c-0.017,0.309-0.272,0.318-0.483,0.383
		c-0.028-0.014-0.037-0.028-0.028-0.043C18.406,24.511,18.415,24.503,18.424,24.503z"/>
	<path class="st32" d="M18.424,24.503c-0.002,0.022-0.002,0.043,0.001,0.065c-0.267,0.012-0.541,0.095-0.795-0.061
		C17.895,24.506,18.159,24.505,18.424,24.503z"/>
	<path class="st33" d="M15.077,21.284c0.391-0.003,0.157,0.338,0.278,0.505c0.109-0.116,0.213-0.228,0.318-0.339
		c0.031,0.007,0.062,0.013,0.093,0.02c0.133,0.037,0.108,0.313,0.329,0.216c0.024,0.034,0.049,0.068,0.073,0.102
		c0.098,0.071,0.175,0.193,0.327,0.137c0.127,0.161,0.3,0.237,0.498,0.265c0.088,0.091,0.132,0.239,0.298,0.23
		c0.024,0.007,0.049,0.01,0.074,0.01c0.168,0.194,0.168,0.194,0.423,0.16l-0.008-0.007c0.029,0.014,0.04,0.029,0.034,0.048
		c-0.007,0.019-0.015,0.029-0.024,0.029c-0.003,0.033-0.006,0.066-0.009,0.099c-0.169,0.157-0.361,0.213-0.477-0.024
		c-0.08-0.163-0.245-0.034-0.311-0.153c-0.083-0.28-0.514-0.107-0.562-0.432c-0.285,0.156-0.344-0.357-0.626-0.212
		c-0.043-0.093-0.024-0.217-0.195-0.309c-0.023,0.041-0.051,0.102-0.09,0.155c-0.059,0.081-0.083,0.23-0.215,0.198
		c-0.139-0.034-0.096-0.184-0.082-0.274c0.025-0.159-0.106-0.226-0.154-0.34C15.072,21.341,15.074,21.313,15.077,21.284z"/>
	<path class="st34" d="M16.994,22.582c0.154,0.004,0.308-0.051,0.403,0.167c0.083,0.19,0.254-0.012,0.385,0.01
		c0.009,0.177-0.008,0.349,0.282,0.25c0.202-0.069,0.131,0.227,0.266,0.282c-0.444,0.212-0.781,0.061-1.025-0.327
		C17.214,22.822,17.01,22.778,16.994,22.582z"/>
	<path class="st35" d="M17.789,22.59c-0.215,0.143-0.377,0.143-0.423-0.16C17.557,22.351,17.669,22.479,17.789,22.59z"/>
	<path class="st36" d="M16.495,21.925c-0.225,0.23-0.279,0.053-0.327-0.137C16.297,21.728,16.334,21.744,16.495,21.925z"/>
	<path class="st37" d="M16.095,21.686c-0.279,0.184-0.272-0.064-0.329-0.216C15.95,21.429,16.025,21.553,16.095,21.686z"/>
	<path class="st35" d="M17.292,22.42c-0.224,0.085-0.303-0.017-0.298-0.23C17.116,22.237,17.294,22.212,17.292,22.42z"/>
	<path class="st38" d="M17.791,22.659c0.001-0.026-0.003-0.051-0.01-0.076c0.061,0.018,0.126,0.029,0.182,0.058
		c0.061,0.032,0.165,0.046,0.132,0.151c-0.013,0.042-0.067,0.088-0.111,0.1c-0.119,0.033-0.102-0.076-0.129-0.14
		C17.84,22.718,17.812,22.69,17.791,22.659z"/>
	<path class="st39" d="M14.354,15.875c-1.253-0.585-1.744-1.918-1.129-3.066c0.33-0.615,0.932-0.891,1.524-0.714
		c0.2,0.06,0.285,0.106,0.168,0.342c-0.136,0.276-0.064,0.567,0.195,0.744c0.239,0.164,0.454,0.058,0.616-0.238
		c0.342,0.788,0.384,1.509-0.023,2.215c-0.298,0.516-0.762,0.752-1.36,0.71C14.344,15.868,14.354,15.875,14.354,15.875z"/>
	<path class="st40" d="M22.589,15.091c0.379,0.351,0.673,0.65,0.81,1.081c0.074,0.233-0.056,0.336-0.199,0.461
		c-0.151,0.131-0.297,0.148-0.464,0.037c-0.064-0.043-0.145-0.062-0.119-0.171C22.725,16.056,22.573,15.617,22.589,15.091z"/>
	<path class="st41" d="M14.666,20.586c0.144,0.097,0.295,0.186,0.399,0.332c-0.005,0.033-0.009,0.066-0.014,0.1
		C14.76,21.019,14.674,20.838,14.666,20.586z"/>
	<path class="st42" d="M14.418,20.301c0.084,0.096,0.169,0.192,0.253,0.288c-0.113-0.021-0.107,0.138-0.233,0.137
		C14.476,20.582,14.234,20.465,14.418,20.301z"/>
</g>
</svg>
