<?xml version="1.0" encoding="utf-8"?>
<!-- Generator: Adobe Illustrator 22.0.1, SVG Export Plug-In . SVG Version: 6.00 Build 0)  -->
<svg version="1.1"
	 id="svg8" inkscape:version="0.92.1 r15371" sodipodi:docname="VIA.svg" xmlns:cc="http://creativecommons.org/ns#" xmlns:dc="http://purl.org/dc/elements/1.1/" xmlns:inkscape="http://www.inkscape.org/namespaces/inkscape" xmlns:rdf="http://www.w3.org/1999/02/22-rdf-syntax-ns#" xmlns:sodipodi="http://sodipodi.sourceforge.net/DTD/sodipodi-0.dtd" xmlns:svg="http://www.w3.org/2000/svg"
	 xmlns="http://www.w3.org/2000/svg" xmlns:xlink="http://www.w3.org/1999/xlink" x="0px" y="0px" viewBox="0 0 283.465 283.465"
	 style="enable-background:new 0 0 283.465 283.465;" xml:space="preserve">
<style type="text/css">
	.st0{fill:url(#SVGID_1_);}
</style>
<g>
	<linearGradient id="SVGID_1_" gradientUnits="userSpaceOnUse" x1="80.5543" y1="166.9689" x2="270.187" y2="57.4844">
		<stop  offset="0" style="stop-color:#ED1576"/>
		<stop  offset="0.2002" style="stop-color:#B83B8F"/>
		<stop  offset="0.4179" style="stop-color:#2B2126"/>
		<stop  offset="1" style="stop-color:#000000"/>
	</linearGradient>
	<path class="st0" d="M219.371,57.036l0.381,1.784l-0.507-0.292l-17.179,29.829l-1.162-2.047l17.512-30.57l0.39,1.448
		L219.371,57.036l0.565-0.152l-3.042-11.306l0.253-0.436l-0.438-0.254l-1.258-4.677l-0.565,0.152l0.293-0.507l-8.002-4.615
		l0.026-0.045l-1.013-0.585l-0.026,0.046L154.826,5.049l-0.027,0.046l-0.071-0.125h-24.716l0.358,0.618l-0.234-0.404l-20.672,11.963
		l-1.243,0.693l0.011,0.02L69.451,40.304l-0.133-0.232l19.597,66.982l-16.088,27.203l-14.917-7.02l-4.095-7.313l11.408-61.425
		l-47.97-1.17l126.945,219.083l126.068-218.79L219.371,57.036z M219.935,59.675l0.856,4.009l-16.557,28.491l-1.497-2.638
		L219.935,59.675z M218.057,54.405l-0.169-0.097l-17.655,30.82l-1.296-2.283l18.257-31.648L218.057,54.405z M216.941,50.257
		l-0.417-0.241l-18.257,31.649l-1.133-1.995l18.932-32.664L216.941,50.257z M215.638,45.412l-19.173,33.079l-1.39-2.448
		l19.613-34.16L215.638,45.412z M214.088,40.579l-19.683,34.282l-1.422-2.506l18.914-33.041L214.088,40.579z M210.882,38.73
		l-18.571,32.442l-1.103-1.943l18.13-31.39L210.882,38.73z M206.591,36.255l1.733,1L190.538,68.05l-1.147-2.02L206.591,36.255z
		 M205.577,35.67l-16.856,29.18l-1.388-2.446l16.097-27.972L205.577,35.67z M202.416,33.847l-15.754,27.375L155.887,7.012
		L202.416,33.847z M177.388,86.81l1.159,2.002l-2.99,5.176l-1.155-2.009L177.388,86.81z M173.728,90.806l-1.369-2.381l2.973-5.167
		l1.379,2.383L173.728,90.806z M179.223,89.98l1.167,2.016l-2.983,5.211l-1.176-2.046L179.223,89.98z M181.068,93.168l1.419,2.451
		l-2.994,5.215l-1.409-2.451L181.068,93.168z M183.164,96.788l1.347,2.327l-3.016,5.203l-1.328-2.31L183.164,96.788z M130.722,6.198
		l43.932,75.891l-2.971,5.162l-45.19-78.606L130.722,6.198z M155.247,145.411l12.762-22.228l1.262,2.224l-13.701,23.637
		C155.777,147.615,155.622,146.415,155.247,145.411z M162.244,113.025l1.149,2.024l-14.077,24.374
		c-0.168-0.694-0.445-1.6-0.865-2.52L162.244,113.025z M147.8,135.691c-0.426-0.679-0.946-1.317-1.589-1.828l14.027-24.374
		l1.337,2.356L147.8,135.691z M164.063,116.229l1.223,2.154l-13.347,23.315c-0.859-0.501-1.64-0.784-2.058-0.915L164.063,116.229z
		 M165.957,119.566l1.382,2.436l-12.724,22.162c-0.483-0.74-1.082-1.339-1.701-1.814L165.957,119.566z M103.541,180.471v-32.175
		l19.598-14.04L69.766,40.855l0.268,0.463l38.775-22.439l50.757,89.429l-14.352,24.94c-0.712-0.349-1.524-0.567-2.479-0.551
		c-5.85,0.097-7.117,7.995-7.117,7.995l-0.585,0.78c-6.63,2.145-5.07,6.728-5.07,6.728c0.545,3.154,1.876,4.775,3.481,5.501
		l-11.917,20.708l0.508,0.292C112.613,174.424,103.541,180.471,103.541,180.471z M122.691,174.733l11.894-20.668
		c0.842,0.171,1.721,0.161,2.579,0.037l-11.99,20.756l0.508,0.293C124.69,174.927,123.69,174.794,122.691,174.733z M126.271,175.299
		l12.437-21.53c1.209-0.344,2.283-0.83,3.017-1.205l-13.503,23.378C127.579,175.685,126.928,175.472,126.271,175.299z
		 M129.3,176.418l13.895-24.058c0.665,0.513,1.3,0.939,1.906,1.283l-13.73,23.985C130.695,177.162,130.003,176.761,129.3,176.418z
		 M132.316,178.332l13.828-24.156c0.836,0.374,1.61,0.594,2.322,0.697l-14.395,25.071
		C133.503,179.349,132.917,178.812,132.316,178.332z M134.894,180.862l14.886-25.928c1.191-0.064,2.164-0.456,2.921-0.937
		l-16.537,28.532C135.754,181.932,135.329,181.38,134.894,180.862z M136.876,183.633l33.065-57.047l1.196,2.108l-33.015,57.232
		C137.726,185.107,137.309,184.347,136.876,183.633z M138.717,187.237l33.091-57.363l1.39,2.449l-33.29,58.113
		C139.539,189.296,139.142,188.23,138.717,187.237z M140.374,191.977l33.495-58.471l1.09,1.92l-33.971,58.986
		C140.795,193.571,140.593,192.753,140.374,191.977z M142.801,214.619c0.029-3.114-0.052-5.991-0.225-8.661l1.245-2.118
		C143.168,208.161,142.904,212.036,142.801,214.619z M144.375,200.585l-1.952,3.322c-0.077-0.888-0.167-1.748-0.266-2.586
		l3.378-5.813C145.079,197.205,144.695,198.911,144.375,200.585z M147.219,190.283l-5.308,9.134
		c-0.165-1.148-0.353-2.244-0.559-3.295l34.276-59.516l1.376,2.424l-24.28,41.779C150.384,183.392,148.592,186.703,147.219,190.283z
		 M155.548,178.279l22.124-38.07l1.071,1.886l-20.303,34.552C157.411,177.085,156.448,177.634,155.548,178.279z M160.157,176.037
		l19.253-32.767l1.486,2.619l-17.152,29.583C162.473,175.525,161.278,175.718,160.157,176.037z M181.931,181.934
		c-0.383-0.251-0.754-0.479-1.129-0.715l1.129-1.932V181.934z M181.931,176.969l-2.125,3.634c-0.579-0.348-1.15-0.678-1.712-0.988
		l3.836-6.576V176.969z M181.931,170.716l-4.87,8.349c-0.808-0.421-1.6-0.808-2.371-1.15l7.242-12.359V170.716z M181.931,163.241
		l-8.329,14.215c-0.752-0.306-1.486-0.575-2.202-0.807l10.531-17.946V163.241z M181.931,156.392l-11.68,19.904
		c-0.412-0.115-0.815-0.211-1.214-0.302l12.894-22.511V156.392z M181.931,151.128l-14.106,24.627
		c-0.944-0.162-1.852-0.257-2.726-0.287l16.467-28.4l0.365,0.644V151.128z M182.169,105.49l3.018-5.207l1.172,2.025l-3.015,5.226
		L182.169,105.49z M184.018,108.707l3.017-5.231l1.35,2.332l-3.011,5.257L184.018,108.707z M186.05,112.241l3.014-5.261l1.141,1.972
		l-3.026,5.254L186.05,112.241z M187.854,115.378l3.028-5.258l1.459,2.52l-3.047,5.243L187.854,115.378z M189.967,119.053
		l3.049-5.247l1.166,2.014l-3.07,5.225L189.967,119.053z M191.783,122.213l3.072-5.229l1.399,2.417l-3.057,5.272L191.783,122.213z
		 M193.871,125.845l3.059-5.276l1.259,2.176l-3.045,5.316L193.871,125.845z M195.82,129.235l3.047-5.32l1.054,1.82l-3.088,5.262
		L195.82,129.235z M197.504,132.165l3.09-5.266l1.307,2.258l-3.093,5.278L197.504,132.165z M199.481,135.603l3.095-5.282
		l1.454,2.511l-3.093,5.303L199.481,135.603z M204.389,138.556l-1.983,2.135l-0.797-1.386l3.096-5.307l1.168,2.018L204.389,138.556z
		 M204.902,93.353l16.252-27.966l0.71,3.321L206.121,95.5L204.902,93.353z M206.788,96.675l15.438-26.273l0.656,3.073
		l-14.787,25.503L206.788,96.675z M208.765,100.157l14.482-24.977l0.594,2.781l-13.9,24.267L208.765,100.157z M210.612,103.411
		l13.595-23.735l0.732,3.425l-13.143,22.396L210.612,103.411z M212.464,106.672l12.838-21.876l0.693,3.242l-12.245,20.899
		L212.464,106.672z M214.417,110.112l11.94-20.378l0.754,3.53l-11.28,19.338L214.417,110.112z M216.499,113.78l10.975-18.815
		l0.642,3.006l-10.447,17.87L216.499,113.78z M218.336,117.017l10.142-17.348l0.669,3.131l-10.086,15.495L218.336,117.017z
		 M219.712,119.44l9.781-15.025l0.646,3.024l-9.215,14.136L219.712,119.44z M221.574,122.719l8.91-13.667l0.629,2.946l-8.096,13.263
		L221.574,122.719z M224.636,128.114l-0.958-1.688l7.791-12.763l0.65,3.045l-7.062,11.323L224.636,128.114z M226.632,127.714
		l5.838-9.361l0.648,3.032l-4.095,5.85L226.632,127.714z"/>
</g>
</svg>
