<?xml version="1.0" encoding="utf-8"?>
<!-- Generator: Adobe Illustrator 24.0.2, SVG Export Plug-In . SVG Version: 6.00 Build 0)  -->
<svg version="1.1" id="Layer_1" xmlns="http://www.w3.org/2000/svg" xmlns:xlink="http://www.w3.org/1999/xlink" x="0px" y="0px"
	 viewBox="0 0 32 32" style="enable-background:new 0 0 32 32;" xml:space="preserve">
<style type="text/css">
	.st0{fill:#00B338;}
	.st1{fill:#FFFFFF;}
</style>
<circle class="st0" cx="16" cy="16" r="16"/>
<g>
	<path class="st1" d="M11.348,16.793c0.2,1.113,0.754,1.996,1.547,2.721c0.627,0.574,1.382,0.916,2.228,1.073
		c0.477,0.089,0.957,0.129,1.422,0.045c0.93-0.167,1.795-0.511,2.51-1.158c0.915-0.828,1.473-1.838,1.568-3.085
		c0.035-0.456,0.043-0.456,0.503-0.456c1.016,0,2.033-0.006,3.049,0.005c0.202,0.002,0.27-0.052,0.25-0.253
		c-0.017-0.177-0.009-0.357-0.001-0.535c0.012-0.26,0.144-0.4,0.4-0.404c0.526-0.007,1.052-0.007,1.578,0
		c0.245,0.003,0.38,0.149,0.384,0.391c0.007,0.508,0.01,1.017,0,1.525c-0.006,0.269-0.203,0.447-0.467,0.448
		c-0.576,0.003-1.152,0.001-1.737,0.001c0.041,0.234,0.21,0.36,0.453,0.364c0.615,0.011,1.231,0.011,1.846,0
		c0.299-0.005,0.467-0.195,0.475-0.501c0.007-0.276,0.01-0.553-0.001-0.829c-0.006-0.158,0.032-0.217,0.205-0.216
		c0.451,0.001,0.457-0.009,0.438,0.451c-0.058,1.438-0.324,2.837-0.908,4.154c-1.82,4.106-4.938,6.596-9.381,7.313
		c-4.787,0.773-9.642-1.585-12.114-5.791c-1.064-1.811-1.605-3.767-1.668-5.862c-0.006-0.207,0.043-0.273,0.258-0.266
		c0.499,0.017,0.998,0.003,1.498,0.007c0.121,0.001,0.196-0.014,0.222-0.158c0.033-0.183,0.175-0.261,0.353-0.262
		c0.464-0.003,0.927-0.006,1.391,0.001c0.233,0.003,0.365,0.134,0.367,0.37c0.005,0.464,0.004,0.927,0,1.391
		c-0.002,0.25-0.142,0.377-0.388,0.377c-0.49,0-0.981,0.005-1.47-0.016c-0.143-0.006-0.142,0.045-0.14,0.143
		c0.006,0.237,0.149,0.419,0.391,0.425c0.579,0.014,1.159,0.015,1.738,0.003c0.273-0.006,0.4-0.166,0.402-0.464
		c0.005-0.544,0.007-1.088-0.004-1.632c-0.003-0.143,0.033-0.198,0.174-0.18c0.044,0.005,0.089,0.001,0.134,0.001
		c0.405,0,0.407,0,0.454-0.391c0.019-0.159,0.097-0.245,0.259-0.245c0.294-0.001,0.588-0.001,0.883,0
		c0.177,0.001,0.26,0.104,0.263,0.27c0.005,0.285,0.004,0.571,0,0.856c-0.003,0.182-0.098,0.277-0.286,0.275
		c-0.259-0.003-0.517-0.002-0.776,0.001c-0.049,0-0.115-0.023-0.141,0.04c-0.028,0.068,0.02,0.119,0.06,0.166
		c0.076,0.09,0.179,0.105,0.29,0.104c0.321-0.003,0.642-0.007,0.963,0.001C11.02,17.016,11.209,17.01,11.348,16.793z"/>
	<path class="st1" d="M15.924,7.037c0,0.516,0.003,1.033-0.001,1.549c-0.003,0.544-0.317,0.858-0.867,0.86
		c-1.033,0.004-2.066,0.004-3.098,0c-0.522-0.002-0.855-0.333-0.857-0.85c-0.004-1.042-0.003-2.083,0.001-3.125
		c0.002-0.526,0.323-0.856,0.846-0.859c1.042-0.006,2.083-0.006,3.125,0c0.536,0.003,0.844,0.316,0.847,0.85
		c0.004,0.525,0.001,1.051,0.001,1.576C15.923,7.037,15.923,7.037,15.924,7.037z"/>
	<path class="st1" d="M10.356,11.446c0.005,0.632,0.021,1.264,0.012,1.896c-0.007,0.465-0.34,0.777-0.807,0.779
		c-1.068,0.004-2.137,0.004-3.205,0c-0.465-0.002-0.82-0.343-0.821-0.802c-0.002-0.623,0.017-1.245,0.027-1.868
		C7.159,11.449,8.758,11.447,10.356,11.446z"/>
	<path class="st1" d="M19.871,8.447c-0.357,0-0.713,0.004-1.07-0.001c-0.364-0.005-0.583-0.22-0.585-0.583
		c-0.005-0.731-0.004-1.462,0.001-2.193c0.002-0.37,0.212-0.59,0.575-0.594c0.74-0.007,1.48-0.007,2.22,0
		c0.351,0.003,0.568,0.221,0.572,0.572c0.007,0.74,0.007,1.48,0.001,2.22c-0.003,0.365-0.222,0.574-0.591,0.579
		C20.62,8.451,20.246,8.447,19.871,8.447z"/>
	<path class="st1" d="M10.356,11.446c-1.598,0.002-3.197,0.003-4.795,0.005c-0.041-0.479-0.032-0.961-0.007-1.439
		c0.021-0.413,0.349-0.708,0.763-0.711c1.095-0.008,2.19-0.007,3.284,0c0.405,0.003,0.726,0.279,0.759,0.683
		C10.4,10.469,10.404,10.958,10.356,11.446z"/>
	<path class="st1" d="M22.567,11.343c-0.004-0.472-0.02-0.944-0.009-1.416c0.008-0.325,0.264-0.571,0.59-0.574
		c0.865-0.008,1.729-0.008,2.594,0c0.327,0.003,0.579,0.245,0.588,0.575c0.012,0.471-0.005,0.943-0.01,1.415
		C25.069,11.343,23.818,11.343,22.567,11.343z"/>
	<path class="st1" d="M22.567,11.343c1.251,0,2.502,0,3.753,0c0.004,0.382,0.016,0.764,0.01,1.146
		c-0.006,0.376-0.243,0.623-0.618,0.627c-0.844,0.01-1.689,0.009-2.534,0c-0.372-0.004-0.614-0.258-0.619-0.627
		C22.553,12.107,22.564,11.725,22.567,11.343z"/>
	<path class="st1" d="M19.183,11.567c-0.187,0-0.373-0.001-0.56,0c-0.206,0.001-0.321-0.101-0.323-0.305
		c-0.005-0.391-0.005-0.783,0.002-1.174c0.003-0.205,0.124-0.305,0.326-0.306c0.373-0.001,0.747-0.001,1.12,0
		c0.232,0,0.339,0.124,0.34,0.35c0,0.365,0,0.729,0.001,1.094c0,0.231-0.114,0.344-0.345,0.341
		C19.557,11.565,19.37,11.567,19.183,11.567z"/>
	<path class="st1" d="M4.022,14.813c0-0.115-0.001-0.231,0-0.346c0.002-0.339,0.05-0.391,0.38-0.393
		c0.258-0.002,0.515-0.001,0.773,0c0.205,0.001,0.31,0.098,0.307,0.312c-0.005,0.293-0.003,0.586-0.001,0.879
		c0.001,0.188-0.099,0.281-0.278,0.284c-0.302,0.006-0.604,0.005-0.906,0c-0.18-0.003-0.279-0.094-0.275-0.284
		C4.024,15.116,4.022,14.964,4.022,14.813z"/>
	<path class="st1" d="M23.285,15.19c-0.812,0.002-0.743,0.064-0.744-0.751c-0.001-0.726-0.061-0.702,0.69-0.7
		c0.825,0.003,0.756-0.066,0.76,0.766C23.995,15.252,24.009,15.193,23.285,15.19z"/>
	<path class="st1" d="M17.253,4.009c0.744-0.001,0.693-0.068,0.693,0.687c0,0.764,0.059,0.706-0.704,0.706
		c-0.749,0-0.692,0.056-0.691-0.69C16.552,3.936,16.486,4.01,17.253,4.009z"/>
	<path class="st1" d="M9.655,7.286C9.66,8.013,9.703,7.969,8.978,7.968c-0.789-0.001-0.72,0.058-0.72-0.719
		c0-0.714-0.063-0.685,0.676-0.684C9.727,6.566,9.655,6.517,9.655,7.286z"/>
	<path class="st1" d="M12.809,13.908c0.006,0.757,0.037,0.697-0.687,0.696c-0.759-0.002-0.719,0.08-0.719-0.718
		c-0.001-0.74-0.031-0.685,0.675-0.681c0.009,0,0.018,0,0.027,0C12.855,13.203,12.813,13.136,12.809,13.908z"/>
	<path class="st1" d="M19.979,12.952c-0.003-0.675-0.041-0.642,0.634-0.642c0.737,0.001,0.66-0.04,0.665,0.662
		c0.005,0.642,0.003,0.639-0.632,0.642C19.92,13.619,19.976,13.644,19.979,12.952z"/>
	<path class="st1" d="M13.392,11.602c-0.005-0.239-0.016-0.478-0.012-0.716c0.004-0.202,0.121-0.307,0.323-0.308
		c0.381-0.002,0.763-0.003,1.144,0c0.201,0.002,0.317,0.107,0.319,0.312c0.002,0.221-0.008,0.442-0.012,0.663
		C14.567,11.573,13.977,11.494,13.392,11.602z"/>
	<path class="st1" d="M13.392,11.602c0.585-0.108,1.175-0.029,1.762-0.049c0.04,0.813,0.04,0.813-0.776,0.813
		c-0.196,0-0.392,0.002-0.588-0.001c-0.328-0.004-0.405-0.083-0.408-0.416C13.382,11.833,13.389,11.717,13.392,11.602z"/>
	<path class="st1" d="M22.024,10.039c0,0.538,0,0.538-0.537,0.538c-0.536,0-0.536,0-0.536-0.541c0-0.54,0-0.54,0.538-0.54
		C22.023,9.496,22.023,9.496,22.024,10.039z"/>
	<path class="st1" d="M23.72,7.165c0,0.071-0.005,0.143,0.001,0.214c0.019,0.212-0.081,0.283-0.285,0.278
		c-0.868-0.021-0.721,0.133-0.74-0.756c-0.004-0.196,0.074-0.279,0.269-0.266c0.124,0.008,0.249,0.001,0.374,0.001
		c0.374,0.001,0.379,0.006,0.38,0.369C23.72,7.058,23.72,7.112,23.72,7.165z"/>
	<path class="st1" d="M27.808,13.988c0,0.508,0,0.508-0.5,0.508c-0.071,0-0.143-0.005-0.213,0.001
		c-0.212,0.019-0.281-0.082-0.276-0.284c0.017-0.776-0.1-0.709,0.597-0.711C27.808,13.501,27.808,13.502,27.808,13.988z"/>
	<path class="st1" d="M17.17,9.207c-0.428,0-0.428,0-0.428-0.392c0-0.465,0-0.465,0.466-0.465c0.402,0,0.402,0,0.401,0.504
		C17.609,9.207,17.609,9.207,17.17,9.207z"/>
	<path class="st1" d="M11.436,11.363c0.001-0.342,0.001-0.342,0.387-0.341c0.333,0.001,0.333,0.001,0.332,0.37
		c0,0.347,0,0.347-0.387,0.345C11.436,11.736,11.435,11.734,11.436,11.363z"/>
</g>
<rect x="5.534" y="10.879" class="st1" width="4.831" height="1.322"/>
<rect x="22.558" y="10.674" class="st1" width="3.768" height="1.065"/>
<rect x="13.383" y="11.089" class="st1" width="1.784" height="0.787"/>
</svg>
