<svg id="Layer_1" data-name="Layer 1" xmlns="http://www.w3.org/2000/svg" viewBox="0 0 32 32"><defs><style>.cls-1{fill:#971ee6;}.cls-2{fill:#fff;}</style></defs><circle class="cls-1" cx="16" cy="16" r="16"/><path class="cls-2" d="M10.984,25.859a4.365,4.365,0,0,1-4.11-2.781A4.48,4.48,0,0,1,7.9,18.216a4.129,4.129,0,0,1,4.916-.808,1.964,1.964,0,0,0,2.415-.133c.659-.43,1.357-.8,2.02-1.221,1-.638.974-1.44-.058-2.007-.819-.451-1.653-.873-2.471-1.324a.528.528,0,0,0-.642.041,2.78,2.78,0,0,1-3.761-.483,2.9,2.9,0,0,1,.169-3.862,2.766,2.766,0,0,1,3.487-.31.418.418,0,0,0,.531.028c.53-.288,1.064-.57,1.591-.862a.81.81,0,0,0,.459-.718,1.707,1.707,0,0,1,3.384.418,1.72,1.72,0,0,1-1.756,1.558,2.118,2.118,0,0,1-.272-.038c-.288-.051-.516-.386-.856-.19A4.765,4.765,0,0,0,15.49,9.4a.955.955,0,0,0-.02,1.224,2.685,2.685,0,0,0,1.221.959,11.38,11.38,0,0,1,1.789.954c.329.205.541.281.895,0a3.647,3.647,0,0,1,3.88-.481,3.42,3.42,0,0,1,2.19,3.406,3.667,3.667,0,0,1-5.433,3.133.989.989,0,0,0-1.214.036,32.564,32.564,0,0,1-2.911,1.745.764.764,0,0,0-.452.812A4.378,4.378,0,0,1,10.984,25.859Z"/></svg>