<svg id="Layer_1" data-name="Layer 1" xmlns="http://www.w3.org/2000/svg" viewBox="0 0 31.595 31.595"><defs><style>.cls-1{fill:#00d1ff;}.cls-2{fill:#fff;}</style></defs><circle class="cls-1" cx="15.798" cy="15.798" r="15.798"/><path class="cls-2" d="M10.834,12.444a.66.66,0,0,0-.516-.24H6.126a.127.127,0,0,1-.092-.036A.1.1,0,0,1,6,12.092V9.272A.1.1,0,0,1,6.034,9.2a.121.121,0,0,1,.092-.036h4.428a3.751,3.751,0,0,1,2.892,1.368l1.076,1.312-2.1,2.552Zm7.736-1.932a3.772,3.772,0,0,1,2.9-1.352h4.412A.1.1,0,0,1,26,9.272v2.82a.106.106,0,0,1-.028.076.1.1,0,0,1-.084.036H21.7a.66.66,0,0,0-.516.24L18.1,16.2l3.1,3.78a.657.657,0,0,0,.5.224H25.89a.1.1,0,0,1,.084.036.14.14,0,0,1,.028.092v2.82a.106.106,0,0,1-.028.076.1.1,0,0,1-.084.036H21.478a3.716,3.716,0,0,1-2.892-1.368l-2.568-3.128-2.572,3.124a3.763,3.763,0,0,1-2.9,1.368H6.126a.1.1,0,0,1-.084-.036.133.133,0,0,1-.028-.092v-2.82a.112.112,0,0,1,.028-.076.1.1,0,0,1,.084-.036h4.188a.683.683,0,0,0,.516-.24l3.032-3.692Z" transform="translate(-0.202 -0.202)"/></svg>