<svg id="Layer_1" data-name="Layer 1" xmlns="http://www.w3.org/2000/svg" xmlns:xlink="http://www.w3.org/1999/xlink" viewBox="0 0 32 32"><defs><style>.cls-1{fill-rule:evenodd;fill:url(#linear-gradient);}</style><linearGradient id="linear-gradient" x1="8.33" y1="10.33" x2="23.67" y2="25.67" gradientTransform="matrix(1, 0, 0, -1, 0, 34)" gradientUnits="userSpaceOnUse"><stop offset="0" stop-color="#9945ff"/><stop offset="0.2" stop-color="#7962e7"/><stop offset="1" stop-color="#00d18c"/></linearGradient></defs><circle cx="16" cy="16" r="16"/><path class="cls-1" d="M10.639,19.859a.567.567,0,0,1,.189-.136.554.554,0,0,1,.227-.048l12.83.01a.3.3,0,0,1,.154.046.283.283,0,0,1,.054.427l-2.732,3.008a.567.567,0,0,1-.189.136.559.559,0,0,1-.228.048L8.115,23.34a.3.3,0,0,1-.154-.046.283.283,0,0,1-.054-.427Zm13.454-2.5a.279.279,0,0,1,.07.144.292.292,0,0,1-.021.16.28.28,0,0,1-.257.168l-12.829.01a.564.564,0,0,1-.417-.184l-2.732-3.01a.279.279,0,0,1-.07-.144.287.287,0,0,1,.124-.282.283.283,0,0,1,.154-.046l12.83-.01a.554.554,0,0,1,.227.048.567.567,0,0,1,.189.136ZM10.639,8.834a.567.567,0,0,1,.189-.136.554.554,0,0,1,.227-.048l12.83.011a.291.291,0,0,1,.154.045.283.283,0,0,1,.054.427l-2.732,3.008a.567.567,0,0,1-.189.136.559.559,0,0,1-.228.048l-12.829-.01a.3.3,0,0,1-.154-.046.283.283,0,0,1-.054-.427Z"/></svg>