<?xml version="1.0" encoding="UTF-8"?><svg id="Layer_1" xmlns="http://www.w3.org/2000/svg" xmlns:xlink="http://www.w3.org/1999/xlink" viewBox="0 0 30.778 31.609"><defs><style>.cls-1{fill:url(#linear-gradient);}.cls-1,.cls-2{stroke-width:0px;}.cls-2{fill:#232323;}</style><linearGradient id="linear-gradient" x1="28.768" y1="187.003" x2="44.342" y2="171.841" gradientTransform="translate(-20.945 -163.638)" gradientUnits="userSpaceOnUse"><stop offset="0" stop-color="#cf41e8"/><stop offset="1" stop-color="#10f2b0"/></linearGradient></defs><path class="cls-2" d="M15.376,0h.025c8.491,0,15.376,6.886,15.376,15.376v.856c0,8.491-6.886,15.376-15.376,15.376h-.025C6.886,31.609,0,24.723,0,16.232v-.856C0,6.886,6.886,0,15.376,0Z"/><path class="cls-1" d="M21.966,11.896c-.05.057-.113.101-.183.126-.069.031-.145.044-.22.044H7.307c-.504,0-.762-.629-.409-1.007l2.341-2.486c.05-.057.113-.101.189-.132.069-.031.145-.044.22-.044h14.313c.51,0,.762.636.403,1.013l-2.398,2.486ZM21.966,23.011c-.107.107-.252.17-.403.17H7.307c-.504,0-.762-.617-.409-.982l2.341-2.429c.05-.057.12-.101.189-.126.069-.031.145-.044.22-.044h14.313c.51,0,.762.623.403.988l-2.398,2.423ZM21.966,14.168c-.107-.107-.252-.17-.403-.17H7.307c-.504,0-.762.617-.409.982l2.341,2.429c.05.057.12.101.189.126.069.031.145.044.22.044h14.313c.51,0,.762-.623.403-.988l-2.398-2.423Z"/></svg>