<?xml version="1.0" encoding="UTF-8"?><svg id="Layer_1" xmlns="http://www.w3.org/2000/svg" viewBox="0 0 31.444 31.444"><defs><style>.cls-1{fill:#fff;}.cls-1,.cls-2{stroke-width:0px;}.cls-2{fill:#2775ca;}</style></defs><circle class="cls-2" cx="15.722" cy="15.722" r="15.722"/><path class="cls-1" d="M20.188,18.118c0-2.309-1.385-3.101-4.156-3.43-1.979-.264-2.375-.792-2.375-1.715s.66-1.517,1.979-1.517c1.188,0,1.847.396,2.177,1.385.066.198.264.33.462.33h1.055c.264,0,.462-.198.462-.462v-.066c-.264-1.451-1.451-2.573-2.969-2.705v-1.583c0-.264-.198-.462-.528-.528h-.99c-.264,0-.462.198-.528.528v1.517c-1.979.264-3.233,1.583-3.233,3.233,0,2.177,1.319,3.035,4.09,3.365,1.847.33,2.441.726,2.441,1.781s-.924,1.781-2.177,1.781c-1.715,0-2.309-.726-2.507-1.715-.066-.264-.264-.396-.462-.396h-1.122c-.264,0-.462.198-.462.462v.066c.264,1.649,1.319,2.837,3.496,3.167v1.583c0,.264.198.462.528.528h.99c.264,0,.462-.198.528-.528v-1.583c1.979-.33,3.299-1.715,3.299-3.497h0Z"/><path class="cls-1" d="M12.469,25.045c-5.146-1.847-7.785-7.587-5.871-12.667.99-2.771,3.167-4.882,5.871-5.871.264-.132.396-.33.396-.66v-.924c0-.264-.132-.462-.396-.528-.066,0-.198,0-.264.066-6.267,1.979-9.698,8.642-7.719,14.91,1.188,3.694,4.024,6.531,7.719,7.719.264.132.528,0,.594-.264.066-.066.066-.132.066-.264v-.924c0-.198-.198-.462-.396-.594ZM19.462,4.462c-.264-.132-.528,0-.594.264-.066.066-.066.132-.066.264v.924c0,.264.198.528.396.66,5.146,1.847,7.785,7.587,5.871,12.667-.99,2.771-3.167,4.882-5.871,5.871-.264.132-.396.33-.396.66v.924c0,.264.132.462.396.528.066,0,.198,0,.264-.066,6.267-1.979,9.698-8.642,7.719-14.91-1.188-3.76-4.09-6.597-7.719-7.785h0Z"/></svg>