<?xml version="1.0" encoding="utf-8"?>
<!-- Generator: Adobe Illustrator 26.0.1, SVG Export Plug-In . SVG Version: 6.00 Build 0)  -->
<svg version="1.1" id="Layer_1" xmlns="http://www.w3.org/2000/svg" xmlns:xlink="http://www.w3.org/1999/xlink" x="0px" y="0px"
	 viewBox="0 0 32 32" style="enable-background:new 0 0 32 32;" xml:space="preserve">
<style type="text/css">
	.st0{fill:url(#SVGID_1_);}
	.st1{fill:url(#SVGID_00000178184090000535711590000015572292369688134069_);}
</style>
<g>
	<path d="M20.99,2.761C14.199,0.394,9.686,4.01,9.686,4.01l0,0c0.573-0.066,1.161-0.103,1.749-0.103
		c7.541,0,13.656,5.512,13.656,12.311S18.947,29.258,11.435,28.53c-1.147-0.11-2.205-0.323-3.175-0.617
		c2.47,1.61,7.512,4.087,13.583,2.624v0.044c5.52-2.499,9.32-7.703,9.32-13.73C31.17,10.522,26.973,5.091,20.99,2.761z"/>
	
		<linearGradient id="SVGID_1_" gradientUnits="userSpaceOnUse" x1="-4.0751" y1="322.2196" x2="8.4412" y2="322.2196" gradientTransform="matrix(0.9998 -0.0208 0.0208 0.9998 16.0509 -304.1342)">
		<stop  offset="0.3772" style="stop-color:#ABFCFF"/>
		<stop  offset="1" style="stop-color:#87E7FF"/>
	</linearGradient>
	<path class="st0" d="M28.759,9.023c0,0,2.47,4.087,0.713,9.158c-1.749,5.079-7.593,6.211-7.593,6.211s-1.507,1.529-3.028,2.403
		c0,0,3.962,0.551,5.873-0.603c1.911-1.154,4.822-3.969,4.822-3.969l1.257-3.263l0.353-2.528c0,0-0.514-3.8-0.853-4.63
		C29.972,10.978,28.759,9.023,28.759,9.023z"/>
	
		<linearGradient id="SVGID_00000058590171669298231530000002724037195565331085_" gradientUnits="userSpaceOnUse" x1="9.6345" y1="315.218" x2="24.4742" y2="315.218" gradientTransform="matrix(1 0 0 1 0 -312)">
		<stop  offset="0.3772" style="stop-color:#ABFCFF"/>
		<stop  offset="1" style="stop-color:#97F2FF"/>
	</linearGradient>
	<path style="fill:url(#SVGID_00000058590171669298231530000002724037195565331085_);" d="M12.589,3.959
		c0,0,4.917-2.609,11.885,0.639c0,0-3.66-2.889-8.166-2.756c-4.513,0.132-6.446,1.86-6.674,2.205
		C9.635,4.047,10.649,3.841,12.589,3.959z"/>
	<path d="M29.413,25.487c3.491-4.939,2.911-11.672-0.933-16.905c2.808,4.167,3.116,9.423,0.353,13.326
		c-3.704,5.241-11.547,6.071-17.508,1.852S3.534,11.875,7.238,6.634c3.653-5.16,11.304-6.042,17.228-2.043
		c-0.088-0.066-0.184-0.132-0.272-0.198C16.793-0.841,7.113,0.1,2.586,6.509S0.381,22.363,7.79,27.604
		c4.403,3.116,9.606,4.042,14.053,2.94C24.886,29.787,27.576,28.089,29.413,25.487z"/>
</g>
</svg>
