<?xml version="1.0" encoding="utf-8"?>
<!-- Generator: Adobe Illustrator 28.0.0, SVG Export Plug-In . SVG Version: 6.00 Build 0)  -->
<svg version="1.1" id="Layer_1" xmlns="http://www.w3.org/2000/svg" xmlns:xlink="http://www.w3.org/1999/xlink" x="0px" y="0px"
	 viewBox="0 0 32 32" style="enable-background:new 0 0 32 32;" xml:space="preserve">
<style type="text/css">
	.st0{fill:#603F89;}
	.st1{fill:#F9CF34;}
	.st2{fill:#FDFDFD;}
</style>
<g>
	<path class="st0" d="M0.283,17.656c0-1.048,0-2.096,0-3.144c0.144-0.339,0.108-0.708,0.169-1.06
		c0.183-1.055,0.49-2.076,0.854-3.081c0.42-1.159,1.017-2.23,1.693-3.25c0.535-0.808,1.177-1.542,1.861-2.238
		c0.716-0.729,1.494-1.396,2.341-1.945c0.935-0.606,1.912-1.161,2.976-1.551c1.36-0.499,2.732-0.917,4.184-1.041
		c0.205-0.018,0.428,0.016,0.615-0.116c0.661,0,1.321,0,1.982,0c0.059,0.105,0.162,0.062,0.245,0.067
		c1.21,0.076,2.386,0.326,3.539,0.69c1.558,0.493,3.011,1.205,4.346,2.148c0.781,0.552,1.473,1.202,2.149,1.883
		c0.663,0.668,1.266,1.385,1.802,2.142c0.586,0.828,1.087,1.72,1.466,2.678c0.461,1.166,0.854,2.346,1.064,3.583
		c0.043,0.251,0.02,0.516,0.149,0.75c0,1.276,0,2.551,0,3.827c-0.086,0.026-0.08,0.104-0.088,0.167
		c-0.145,1.166-0.473,2.283-0.87,3.387c-0.453,1.259-1.089,2.42-1.845,3.511c-0.432,0.624-0.94,1.2-1.453,1.764
		c-1.123,1.236-2.443,2.242-3.907,3.028c-1.533,0.824-3.158,1.432-4.896,1.694c-0.112,0.017-0.254-0.005-0.337,0.116
		c-1.549,0-3.098,0-4.647,0c-0.057-0.115-0.18-0.094-0.269-0.108c-1.028-0.153-2.005-0.473-2.979-0.826
		c-1.796-0.651-3.387-1.638-4.813-2.887c-1.12-0.982-2.072-2.114-2.884-3.377c-1.072-1.667-1.741-3.478-2.19-5.391
		C0.431,18.606,0.479,18.109,0.283,17.656z M19.928,2.45c-0.027-0.023-0.054-0.046-0.081-0.07c0.044-0.176,0.091-0.352,0.131-0.529
		c0.022-0.096,0.137-0.212-0.057-0.27c-0.178-0.053-0.204,0.054-0.245,0.188c-0.157,0.51-0.327,1.015-0.488,1.523
		c-0.035,0.11-0.124,0.225,0.078,0.296c0.196,0.069,0.202-0.058,0.246-0.174c0.072-0.187,0.1-0.398,0.299-0.517
		c0.166-0.099,0.265-0.104,0.296,0.125c0.03,0.224,0.08,0.447,0.131,0.668c0.065,0.276,0.069,0.274,0.407,0.271
		c-0.087-0.378-0.157-0.757-0.266-1.124c-0.065-0.22,0.003-0.331,0.183-0.438c0.203-0.12,0.39-0.266,0.591-0.405
		c-0.219-0.174-0.397-0.099-0.573,0.02C20.362,2.161,20.145,2.305,19.928,2.45z M10.311,15.22c0.029-0.145,0.044-0.294,0.09-0.433
		c0.188-0.572,0.446-1.108,1.012-1.395c0.705-0.359,1.47-0.53,2.255-0.591c1.114-0.086,2.231-0.031,3.347-0.043
		c0.248-0.003,0.305,0.112,0.306,0.333c0.006,1.845,0.015,3.69,0.034,5.535c0.002,0.229-0.077,0.297-0.293,0.295
		c-0.638-0.005-1.276-0.009-1.913,0.01c-0.315,0.01-0.386-0.107-0.382-0.411c0.018-1.571,0.003-3.143,0.017-4.715
		c0.003-0.312-0.113-0.4-0.402-0.379c-0.26,0.019-0.524,0.007-0.785,0.004c-0.405-0.005-0.457,0.04-0.457,0.44
		c0,0.809-0.001,1.617,0.011,2.426c0.003,0.193-0.044,0.295-0.253,0.312c-0.67,0.053-1.329,0.184-1.989,0.305
		c-0.673,0.124-1.327,0.312-1.942,0.614C8.521,17.744,8.45,18.276,8.84,18.5c0.273,0.157,0.554,0.309,0.859,0.411
		c0.945,0.314,1.925,0.449,2.906,0.582c0.589,0.08,0.593,0.069,0.595,0.678c0.003,0.982,0.001,1.965,0.001,2.947
		c0.036,0,0.073,0,0.109,0c0.138-0.612,0.057-1.244,0.154-1.859c0.028-0.178-0.106-0.507,0.19-0.494
		c0.277,0.012,0.155,0.335,0.157,0.515c0.014,1.065,0.007,2.131,0.007,3.197c0.042,0.001,0.084,0.003,0.127,0.004
		c0.025-0.244,0.051-0.488,0.075-0.732c0.064-0.657,0.127-1.314,0.191-1.971c0.008-0.081,0.019-0.177,0.118-0.179
		c0.096-0.002,0.125,0.084,0.13,0.17c0.012,0.193,0.023,0.386,0.032,0.58c0.027,0.615,0.053,1.23,0.079,1.846
		c0.044,0,0.088-0.001,0.132-0.001c0-0.59-0.005-1.179,0.001-1.769c0.009-0.82,0.032-1.64,0.039-2.459
		c0.002-0.222,0.058-0.322,0.309-0.315c0.671,0.017,1.344,0.014,2.015,0.001c0.223-0.004,0.294,0.062,0.294,0.288
		c0.001,1.105,0.018,2.209,0.027,3.314c0.003,0.324,0,0.648,0,0.972c0.031,0,0.062,0,0.094,0c0.004-0.063,0.008-0.125,0.012-0.188
		c0.026-0.523,0.053-1.046,0.078-1.569c0.006-0.12,0.022-0.25,0.168-0.25c0.123,0,0.146,0.126,0.163,0.228
		c0.01,0.056,0.009,0.113,0.012,0.17c0.032,0.66,0.062,1.319,0.094,1.979c0.025,0.526,0.052,1.051,0.082,1.647
		c0.106-0.174,0.071-0.287,0.072-0.394c0.014-0.888,0.019-1.776,0.041-2.664c0.005-0.188-0.053-0.489,0.235-0.481
		c0.265,0.007,0.185,0.299,0.187,0.472c0.009,1.174,0.005,2.347,0.005,3.521c0.105-0.545,0.14-1.091,0.151-1.637
		c0.036-1.719,0.068-3.439,0.088-5.158c0.003-0.251,0.065-0.366,0.331-0.386c0.385-0.029,0.768-0.095,1.15-0.153
		c0.958-0.145,1.904-0.326,2.769-0.798c0.46-0.251,0.51-0.619,0.1-0.936c-0.19-0.147-0.403-0.247-0.632-0.329
		c-1.08-0.384-2.205-0.544-3.334-0.686c-0.19-0.024-0.337-0.037-0.333-0.307c0.016-1.104,0.013-2.209,0.004-3.314
		c-0.002-0.224,0.093-0.29,0.295-0.32c1.406-0.206,2.278-1.028,2.691-2.364c0.114-0.367,0.108-0.39,0.048-0.636
		c-0.298,0.417-0.582,0.827-1.072,1.063c-0.8,0.384-1.648,0.528-2.515,0.548c-1.264,0.028-2.528,0.004-3.792,0.005
		c-0.83,0.001-1.659-0.017-2.487,0.077c-0.559,0.063-1.022,0.306-1.384,0.714C9.872,13.024,9.95,14.107,10.311,15.22z M22.023,5.478
		C19.061,3.37,13.842,2.591,9.229,5.58C7.6,6.637,6.31,8.045,5.355,9.755c-0.959,1.716-1.449,3.543-1.449,5.504
		c0.599-4.308,2.679-7.673,6.536-9.738C14.244,3.486,18.149,3.614,22.023,5.478z M9.958,26.629c4.401,2.539,8.776,2.484,13-0.325
		c2.572-1.71,4.154-4.184,4.786-7.235c-1.238,3.659-3.572,6.349-7.126,7.888C17.031,28.511,13.464,28.249,9.958,26.629z
		 M13.323,5.472c-0.028,0.032-0.053,0.047-0.053,0.062c-0.007,1.636-0.01,3.271-0.019,4.907c-0.001,0.18,0.098,0.2,0.239,0.198
		c0.318-0.004,0.637-0.013,0.954,0.003c0.222,0.011,0.262-0.086,0.26-0.282c-0.008-0.863,0-1.727-0.003-2.59
		c-0.001-0.288-0.046-0.581-0.214-0.812C14.116,6.451,13.714,5.968,13.323,5.472z M11.206,3.471
		c-0.017,0.002-0.034,0.005-0.051,0.007c-0.228-0.427-0.463-0.851-0.682-1.283c-0.08-0.157-0.172-0.099-0.279-0.057
		c-0.173,0.068-0.065,0.153-0.018,0.236c0.279,0.492,0.557,0.985,0.837,1.477c0.067,0.117,0.116,0.229,0.31,0.165
		c0.18-0.06,0.187-0.161,0.176-0.306c-0.03-0.414-0.055-0.828-0.086-1.319c0.27,0.372,0.489,0.681,0.664,1.022
		c0.081,0.158,0.155,0.285,0.388,0.211c0.231-0.074,0.181-0.215,0.158-0.371c-0.079-0.539-0.156-1.079-0.235-1.619
		c-0.011-0.073,0.003-0.182-0.116-0.167c-0.103,0.013-0.204,0.058-0.189,0.194c0.016,0.147,0.049,0.292,0.059,0.439
		c0.021,0.301,0.14,0.598,0.076,0.985c-0.272-0.429-0.495-0.783-0.722-1.135c-0.061-0.094-0.07-0.247-0.265-0.176
		c-0.174,0.064-0.138,0.186-0.13,0.304C11.134,2.544,11.171,3.007,11.206,3.471z M4.252,7.556c0.141,0,0.194-0.007,0.244,0.001
		c0.459,0.078,0.919,0.152,1.376,0.243c0.167,0.033,0.253-0.041,0.333-0.164c0.106-0.164-0.055-0.193-0.13-0.253
		c-0.422-0.34-0.849-0.674-1.276-1.009c-0.1-0.079-0.202-0.157-0.313-0.007c-0.12,0.163,0.018,0.219,0.116,0.289
		c0.276,0.199,0.554,0.396,0.833,0.591c0.069,0.048,0.143,0.107,0.092,0.19C5.478,7.514,5.409,7.427,5.348,7.417
		c-0.436-0.076-0.874-0.142-1.31-0.222C3.865,7.163,3.784,7.265,3.717,7.386c-0.08,0.145,0.074,0.167,0.142,0.222
		c0.425,0.34,0.858,0.67,1.281,1.011c0.13,0.105,0.232,0.13,0.339-0.018C5.598,8.437,5.425,8.404,5.353,8.35
		C5.013,8.094,4.663,7.85,4.252,7.556z M14.66,3.236c0.558-0.002,0.927-0.423,0.915-1.044c-0.013-0.656-0.402-1.127-0.936-1.132
		c-0.559-0.005-0.929,0.411-0.924,1.037C13.721,2.795,14.089,3.238,14.66,3.236z M18.157,3.288c-0.027-0.248-0.18-0.439-0.278-0.652
		c-0.063-0.138-0.092-0.221,0.098-0.309c0.263-0.122,0.344-0.39,0.307-0.667c-0.037-0.279-0.211-0.441-0.5-0.475
		c-0.226-0.027-0.451-0.062-0.675-0.103c-0.106-0.019-0.188-0.006-0.203,0.112c-0.078,0.609-0.151,1.219-0.228,1.828
		c-0.016,0.129,0.053,0.154,0.158,0.158c0.097,0.004,0.18,0.008,0.19-0.127c0.012-0.158,0.041-0.316,0.063-0.473
		c0.012-0.084-0.017-0.198,0.119-0.205c0.105-0.006,0.203,0.012,0.254,0.128c0.078,0.176,0.19,0.343,0.238,0.526
		C17.769,3.288,17.916,3.348,18.157,3.288z M24.614,25.553c0.594,0.312,1.174,0.62,1.783,0.872c0.159,0.066,0.256,0.02,0.365-0.077
		c0.104-0.092,0.055-0.186,0.008-0.276c-0.281-0.544-0.563-1.087-0.851-1.627c-0.034-0.063-0.058-0.202-0.189-0.107
		c-0.081,0.059-0.179,0.117-0.123,0.247c0.027,0.062,0.046,0.136,0.092,0.181c0.332,0.323-0.045,0.455-0.173,0.649
		c-0.154,0.233-0.316,0.089-0.46-0.011C24.866,25.265,24.734,25.322,24.614,25.553z M21.698,29.864
		c0.328-0.162,0.664-0.325,0.997-0.495c0.064-0.033,0.039-0.093,0.014-0.147c-0.248-0.532-0.495-1.065-0.74-1.599
		c-0.054-0.118-0.115-0.186-0.258-0.118c-0.286,0.137-0.575,0.267-0.865,0.395c-0.089,0.039-0.123,0.079-0.077,0.179
		c0.049,0.106,0.109,0.135,0.212,0.08c0.14-0.074,0.284-0.141,0.422-0.218c0.197-0.11,0.291-0.058,0.41,0.146
		c0.177,0.304,0.083,0.44-0.204,0.537c-0.064,0.022-0.125,0.054-0.191,0.072c-0.127,0.035-0.152,0.097-0.105,0.225
		c0.06,0.162,0.153,0.094,0.241,0.054c0.113-0.052,0.223-0.112,0.331-0.174c0.146-0.084,0.211-0.057,0.305,0.104
		c0.143,0.244,0.113,0.374-0.147,0.468c-0.138,0.05-0.27,0.116-0.406,0.174c-0.086,0.037-0.132,0.093-0.079,0.184
		C21.591,29.786,21.592,29.875,21.698,29.864z M7.125,6.261c-0.124-0.149-0.257-0.277-0.349-0.43
		C6.691,5.687,6.839,5.613,6.928,5.533c0.119-0.106,0.423-0.158,0.239-0.372C6.975,4.937,6.872,5.24,6.763,5.347
		C6.606,5.501,6.512,5.558,6.332,5.347c-0.17-0.199-0.16-0.31,0.039-0.449c0.111-0.077,0.213-0.17,0.312-0.262
		c0.076-0.071,0.148-0.151,0.05-0.261C6.628,4.259,6.541,4.349,6.47,4.41C6.246,4.602,6.034,4.809,5.81,5.001
		C5.713,5.083,5.695,5.139,5.788,5.243c0.394,0.441,0.805,0.867,1.149,1.35c0.065,0.092,0.138,0.135,0.249,0.032
		c0.241-0.225,0.492-0.439,0.744-0.653c0.089-0.075,0.09-0.139,0.027-0.232C7.874,5.62,7.811,5.68,7.737,5.744
		C7.583,5.879,7.428,6.012,7.272,6.145C7.231,6.181,7.187,6.213,7.125,6.261z M27.693,24.761c0.071,0,0.082,0.001,0.093,0
		c0.245-0.024,0.897-0.718,0.907-0.959c0.002-0.059-0.037-0.078-0.071-0.102c-0.515-0.349-1.032-0.697-1.548-1.046
		c-0.074-0.05-0.143-0.079-0.193,0.021c-0.043,0.085-0.133,0.175-0.007,0.266c0.074,0.053,0.142,0.118,0.224,0.154
		c0.31,0.14,0.351,0.3,0.112,0.568c-0.189,0.212-0.177,0.485-0.036,0.734C27.3,24.619,27.499,24.737,27.693,24.761z M27.606,21.298
		c0.002,0.321,0.136,0.533,0.386,0.664c0.254,0.132,0.461,0.012,0.646-0.158c0.134-0.123,0.261-0.252,0.392-0.378
		c0.089-0.086,0.191-0.133,0.306-0.057c0.118,0.078,0.155,0.196,0.11,0.329c-0.048,0.141-0.117,0.272-0.246,0.359
		c-0.109,0.074-0.109,0.183-0.046,0.267c0.094,0.125,0.186,0.011,0.257-0.046c0.191-0.155,0.313-0.358,0.353-0.604
		c0.044-0.269-0.078-0.466-0.293-0.603c-0.194-0.124-0.397-0.089-0.576,0.037c-0.139,0.097-0.271,0.209-0.39,0.329
		c-0.134,0.134-0.274,0.287-0.464,0.153c-0.213-0.15-0.124-0.359-0.03-0.55c0.053-0.108,0.132-0.185,0.241-0.23
		c0.139-0.057,0.16-0.147,0.085-0.268c-0.081-0.132-0.189-0.069-0.263-0.011C27.81,20.73,27.654,21,27.606,21.298z M19.399,30.575
		c0.189-0.002,0.453-0.114,0.724-0.194c0.08-0.024,0.108-0.053,0.085-0.142c-0.149-0.594-0.295-1.189-0.435-1.785
		c-0.039-0.166-0.141-0.097-0.236-0.086c-0.14,0.016-0.122,0.103-0.095,0.197c0.049,0.175,0.17,0.37,0.128,0.52
		c-0.053,0.192-0.328,0.145-0.494,0.235c-0.34,0.185-0.479,0.441-0.404,0.778C18.735,30.379,18.986,30.57,19.399,30.575z
		 M3.177,11.12c-0.004-0.331-0.186-0.563-0.487-0.646c-0.304-0.085-0.547,0.024-0.696,0.283c-0.122,0.214-0.188,0.459-0.288,0.686
		c-0.073,0.166-0.02,0.243,0.146,0.296c0.516,0.164,1.028,0.345,1.544,0.508c0.098,0.031,0.228,0.146,0.306-0.056
		c0.088-0.231-0.116-0.226-0.216-0.249c-0.358-0.084-0.584-0.211-0.336-0.62C3.187,11.261,3.172,11.168,3.177,11.12z M23.866,26.381
		c-0.488,0.003-0.864,0.232-0.955,0.543c-0.03,0.101-0.085,0.224,0.084,0.28c0.147,0.049,0.172-0.048,0.21-0.147
		c0.053-0.141,0.13-0.254,0.285-0.317c0.371-0.149,0.814,0.113,0.985,0.599c0.165,0.469,0.025,0.736-0.467,0.849
		c-0.115,0.026-0.155,0.058-0.149,0.17c0.007,0.14,0.106,0.128,0.195,0.122c0.251-0.015,0.463-0.112,0.621-0.312
		c0.261-0.328,0.299-0.707,0.117-1.059C24.587,26.712,24.32,26.337,23.866,26.381z M17.373,9.012c0,0.537-0.001,0.968,0.001,1.398
		c0,0.091-0.005,0.2,0.124,0.202c0.41,0.006,0.82,0.002,1.289,0.002C18.363,10.006,17.894,9.554,17.373,9.012z M9.136,2.931
		C9.09,2.767,8.991,2.739,8.853,2.82C8.532,3.011,8.207,3.197,7.892,3.398c-0.083,0.053-0.277,0.069-0.157,0.26
		c0.119,0.19,0.219,0.034,0.299-0.028c0.199-0.157,0.32-0.135,0.446,0.098c0.199,0.368,0.43,0.72,0.653,1.075
		c0.057,0.09,0.056,0.279,0.25,0.185C9.585,4.89,9.506,4.747,9.429,4.619c-0.216-0.36-0.436-0.717-0.661-1.071
		C8.652,3.365,8.63,3.225,8.877,3.133C8.979,3.095,9.087,3.042,9.136,2.931z M4.722,9.809C4.697,9.7,4.61,9.685,4.544,9.649
		C4.076,9.397,3.609,9.143,3.136,8.901C3.05,8.857,2.954,8.683,2.832,8.877C2.727,9.047,2.828,9.124,2.956,9.192
		c0.498,0.268,0.996,0.537,1.496,0.8C4.667,10.105,4.635,9.869,4.722,9.809z M17.022,29.213c-0.002,0-0.004,0-0.007,0.001
		c0.052,0.506,0.106,1.011,0.156,1.517c0.012,0.121,0.019,0.225,0.191,0.204c0.182-0.022,0.136-0.146,0.128-0.251
		c-0.018-0.225-0.045-0.45-0.064-0.675c-0.028-0.338-0.053-0.676-0.078-1.015c-0.008-0.109-0.024-0.205-0.175-0.183
		c-0.121,0.017-0.186,0.067-0.166,0.199C17.017,29.076,17.017,29.145,17.022,29.213z"/>
	<path class="st1" d="M10.311,15.22c-0.362-1.112-0.44-2.195,0.399-3.139c0.362-0.408,0.825-0.651,1.384-0.714
		c0.828-0.094,1.658-0.076,2.487-0.077c1.264-0.001,2.529,0.023,3.792-0.005c0.867-0.019,1.715-0.163,2.515-0.548
		c0.489-0.235,0.773-0.646,1.072-1.063c0.06,0.246,0.066,0.269-0.048,0.636c-0.413,1.337-1.286,2.159-2.691,2.364
		c-0.202,0.03-0.297,0.096-0.295,0.32c0.009,1.105,0.013,2.21-0.004,3.314c-0.004,0.271,0.142,0.284,0.333,0.307
		c1.129,0.142,2.254,0.302,3.334,0.686c0.229,0.081,0.442,0.182,0.632,0.329c0.41,0.317,0.36,0.685-0.1,0.936
		c-0.866,0.472-1.812,0.653-2.769,0.798c-0.382,0.058-0.765,0.124-1.15,0.153c-0.267,0.02-0.328,0.135-0.331,0.386
		c-0.02,1.719-0.052,3.439-0.088,5.158c-0.011,0.546-0.046,1.091-0.151,1.637c0-1.174,0.005-2.348-0.005-3.521
		c-0.001-0.174,0.078-0.465-0.187-0.472c-0.287-0.008-0.23,0.292-0.235,0.481c-0.021,0.888-0.026,1.776-0.041,2.664
		c-0.002,0.107,0.034,0.22-0.072,0.394c-0.03-0.596-0.056-1.122-0.082-1.647c-0.032-0.66-0.063-1.319-0.094-1.979
		c-0.003-0.057-0.002-0.114-0.012-0.17c-0.018-0.102-0.04-0.228-0.163-0.228c-0.146,0-0.162,0.13-0.168,0.25
		c-0.025,0.523-0.051,1.046-0.078,1.569c-0.003,0.063-0.008,0.125-0.012,0.188c-0.031,0-0.062,0-0.094,0
		c0-0.324,0.002-0.648,0-0.972c-0.01-1.105-0.027-2.209-0.027-3.314c0-0.225-0.071-0.292-0.294-0.288
		c-0.671,0.013-1.344,0.017-2.015-0.001c-0.251-0.006-0.307,0.094-0.309,0.315c-0.007,0.82-0.03,1.64-0.039,2.459
		c-0.007,0.589-0.001,1.179-0.001,1.769c-0.044,0-0.088,0.001-0.132,0.001c-0.026-0.615-0.052-1.23-0.079-1.846
		c-0.009-0.193-0.02-0.387-0.032-0.58c-0.005-0.085-0.035-0.172-0.13-0.17c-0.099,0.003-0.111,0.098-0.118,0.179
		c-0.064,0.657-0.127,1.314-0.191,1.971c-0.024,0.244-0.05,0.488-0.075,0.732c-0.042-0.001-0.084-0.003-0.127-0.004
		c0-1.066,0.007-2.131-0.007-3.197c-0.002-0.18,0.12-0.503-0.157-0.515c-0.296-0.013-0.161,0.315-0.19,0.494
		c-0.097,0.615-0.016,1.246-0.154,1.859c-0.036,0-0.073,0-0.109,0c0-0.982,0.002-1.965-0.001-2.947
		c-0.002-0.609-0.007-0.598-0.595-0.678c-0.98-0.133-1.961-0.268-2.906-0.582C9.394,18.81,9.113,18.658,8.84,18.5
		c-0.39-0.224-0.319-0.757,0.126-0.975c0.615-0.302,1.269-0.491,1.942-0.614c0.66-0.121,1.319-0.252,1.989-0.305
		c0.209-0.016,0.256-0.119,0.253-0.312c-0.011-0.808-0.01-1.617-0.011-2.426c0-0.4,0.052-0.445,0.457-0.44
		c0.262,0.003,0.525,0.016,0.785-0.004c0.288-0.021,0.405,0.067,0.402,0.379c-0.014,1.572,0.001,3.143-0.017,4.715
		c-0.003,0.304,0.067,0.421,0.382,0.411c0.637-0.02,1.275-0.016,1.913-0.01c0.215,0.002,0.295-0.066,0.293-0.295
		c-0.019-1.845-0.028-3.69-0.034-5.535c-0.001-0.221-0.058-0.336-0.306-0.333c-1.116,0.012-2.233-0.043-3.347,0.043
		c-0.785,0.061-1.549,0.233-2.255,0.591c-0.565,0.287-0.823,0.823-1.012,1.395C10.355,14.926,10.34,15.075,10.311,15.22z
		 M13.187,17.897c-0.007,0-0.013,0-0.02,0c0-0.239-0.006-0.478,0.002-0.717c0.006-0.181-0.067-0.236-0.246-0.221
		c-0.785,0.064-1.55,0.235-2.304,0.449c-0.234,0.067-0.53,0.171-0.547,0.446c-0.019,0.301,0.305,0.367,0.524,0.46
		c0.776,0.327,1.618,0.337,2.432,0.484c0.161,0.029,0.16-0.074,0.159-0.183C13.186,18.375,13.187,18.136,13.187,17.897z
		 M18.928,17.884c-0.012,0-0.023,0-0.035,0c0,0.239-0.001,0.477,0.001,0.716c0.001,0.1-0.016,0.222,0.151,0.194
		c0.804-0.135,1.632-0.158,2.399-0.47c0.228-0.093,0.572-0.157,0.552-0.47c-0.018-0.284-0.332-0.385-0.576-0.457
		c-0.665-0.195-1.345-0.334-2.033-0.418c-0.451-0.055-0.454-0.041-0.459,0.427C18.926,17.565,18.928,17.724,18.928,17.884z"/>
	<path class="st2" d="M22.023,5.478c-3.874-1.864-7.779-1.993-11.581,0.043c-3.857,2.065-5.937,5.429-6.536,9.738
		c-0.001-1.961,0.49-3.788,1.449-5.504C6.31,8.045,7.6,6.637,9.229,5.58C13.842,2.591,19.061,3.37,22.023,5.478z"/>
	<path class="st2" d="M9.958,26.629c3.505,1.62,7.073,1.882,10.66,0.328c3.554-1.539,5.887-4.229,7.126-7.888
		c-0.632,3.051-2.214,5.525-4.786,7.235C18.735,29.112,14.359,29.168,9.958,26.629z"/>
	<path class="st1" d="M13.323,5.472c0.391,0.496,0.793,0.979,1.164,1.486c0.169,0.231,0.213,0.524,0.214,0.812
		c0.003,0.863-0.005,1.727,0.003,2.59c0.002,0.196-0.039,0.293-0.26,0.282c-0.317-0.016-0.636-0.006-0.954-0.003
		c-0.141,0.002-0.24-0.018-0.239-0.198c0.009-1.636,0.012-3.271,0.019-4.907C13.27,5.519,13.295,5.504,13.323,5.472z"/>
	<path class="st2" d="M11.206,3.471c-0.035-0.464-0.072-0.928-0.104-1.392c-0.008-0.118-0.044-0.24,0.13-0.304
		c0.195-0.071,0.204,0.082,0.265,0.176c0.226,0.352,0.45,0.706,0.722,1.135c0.064-0.387-0.055-0.684-0.076-0.985
		c-0.01-0.147-0.043-0.292-0.059-0.439c-0.015-0.136,0.086-0.182,0.189-0.194c0.119-0.015,0.105,0.094,0.116,0.167
		c0.08,0.539,0.156,1.079,0.235,1.619c0.023,0.157,0.073,0.298-0.158,0.371c-0.233,0.074-0.308-0.053-0.388-0.211
		c-0.174-0.34-0.394-0.649-0.664-1.022c0.032,0.49,0.057,0.905,0.086,1.319c0.01,0.145,0.004,0.246-0.176,0.306
		c-0.194,0.065-0.244-0.048-0.31-0.165c-0.28-0.492-0.558-0.985-0.837-1.477c-0.047-0.083-0.155-0.168,0.018-0.236
		c0.107-0.042,0.199-0.1,0.279,0.057c0.22,0.431,0.454,0.856,0.682,1.283C11.172,3.476,11.189,3.474,11.206,3.471z"/>
	<path class="st2" d="M4.252,7.556C4.663,7.85,5.013,8.094,5.353,8.35c0.072,0.054,0.245,0.087,0.126,0.251
		C5.372,8.749,5.27,8.724,5.14,8.619C4.717,8.277,4.284,7.948,3.859,7.608C3.791,7.553,3.637,7.531,3.717,7.386
		c0.067-0.121,0.148-0.223,0.321-0.191c0.436,0.079,0.873,0.146,1.31,0.222c0.061,0.011,0.13,0.098,0.178,0.019
		c0.051-0.083-0.023-0.141-0.092-0.19C5.155,7.051,4.878,6.853,4.601,6.655c-0.098-0.07-0.236-0.126-0.116-0.289
		c0.111-0.15,0.213-0.072,0.313,0.007c0.427,0.335,0.853,0.669,1.276,1.009c0.075,0.06,0.236,0.09,0.13,0.253
		c-0.08,0.123-0.165,0.197-0.333,0.164c-0.457-0.09-0.917-0.164-1.376-0.243C4.445,7.548,4.392,7.556,4.252,7.556z"/>
	<path class="st2" d="M14.66,3.236c-0.571,0.002-0.939-0.441-0.945-1.14C13.709,1.47,14.08,1.054,14.639,1.06
		c0.534,0.005,0.923,0.476,0.936,1.132C15.587,2.814,15.218,3.234,14.66,3.236z M15.204,2.224c0-0.196-0.023-0.388-0.124-0.56
		c-0.156-0.267-0.463-0.376-0.7-0.237c-0.271,0.159-0.329,0.424-0.301,0.711c0.028,0.294,0.047,0.604,0.374,0.746
		C14.88,3.068,15.203,2.782,15.204,2.224z"/>
	<path class="st2" d="M18.157,3.288c-0.241,0.061-0.388,0.001-0.456-0.259c-0.048-0.184-0.16-0.35-0.238-0.526
		c-0.051-0.115-0.149-0.133-0.254-0.128c-0.136,0.007-0.106,0.121-0.119,0.205c-0.023,0.158-0.051,0.315-0.063,0.473
		c-0.01,0.135-0.093,0.131-0.19,0.127c-0.105-0.004-0.174-0.03-0.158-0.158c0.077-0.609,0.15-1.219,0.228-1.828
		c0.015-0.118,0.097-0.131,0.203-0.112c0.224,0.04,0.449,0.076,0.675,0.103c0.289,0.034,0.463,0.196,0.5,0.475
		c0.037,0.277-0.043,0.544-0.307,0.667c-0.19,0.088-0.161,0.171-0.098,0.309C17.977,2.848,18.13,3.039,18.157,3.288z M17.488,2.106
		c0.236,0.001,0.429-0.066,0.46-0.336c0.024-0.209-0.219-0.379-0.544-0.371c-0.338,0.008-0.178,0.298-0.226,0.457
		C17.091,2.141,17.347,2.064,17.488,2.106z"/>
	<path class="st2" d="M19.928,2.45c0.217-0.145,0.435-0.289,0.651-0.435c0.176-0.119,0.354-0.194,0.573-0.02
		C20.951,2.134,20.763,2.28,20.561,2.4c-0.18,0.107-0.248,0.218-0.183,0.438c0.109,0.367,0.179,0.746,0.266,1.124
		c-0.338,0.003-0.342,0.004-0.407-0.271c-0.052-0.221-0.101-0.443-0.131-0.668c-0.031-0.229-0.13-0.224-0.296-0.125
		c-0.199,0.119-0.227,0.329-0.299,0.517c-0.044,0.115-0.05,0.243-0.246,0.174c-0.202-0.072-0.113-0.186-0.078-0.296
		c0.162-0.508,0.332-1.013,0.488-1.523c0.041-0.134,0.068-0.24,0.245-0.188c0.195,0.058,0.079,0.174,0.057,0.27
		c-0.04,0.177-0.087,0.353-0.131,0.529c-0.018,0.038-0.039,0.081,0.007,0.108C19.866,2.496,19.902,2.464,19.928,2.45z"/>
	<path class="st2" d="M24.614,25.553c0.12-0.232,0.252-0.289,0.452-0.15c0.144,0.1,0.306,0.244,0.46,0.011
		c0.128-0.195,0.506-0.326,0.173-0.649c-0.046-0.045-0.064-0.119-0.092-0.181c-0.057-0.129,0.042-0.188,0.123-0.247
		c0.131-0.095,0.156,0.044,0.189,0.107c0.288,0.54,0.57,1.084,0.851,1.627c0.047,0.091,0.095,0.184-0.008,0.276
		c-0.109,0.096-0.206,0.143-0.365,0.077C25.788,26.173,25.208,25.865,24.614,25.553z M26.382,26.067
		c0.015,0.015,0.037,0.045,0.043,0.042c0.043-0.022,0.025-0.054,0.008-0.084c-0.133-0.234-0.267-0.468-0.403-0.706
		c-0.135,0.138-0.255,0.261-0.384,0.393c0.129,0.072,0.243,0.144,0.364,0.202C26.13,25.972,26.258,26.016,26.382,26.067z"/>
	<path class="st2" d="M21.698,29.864c-0.106,0.011-0.107-0.078-0.137-0.13c-0.053-0.092-0.007-0.148,0.079-0.184
		c0.135-0.058,0.268-0.124,0.406-0.174c0.26-0.094,0.29-0.224,0.147-0.468c-0.094-0.161-0.16-0.188-0.305-0.104
		c-0.108,0.062-0.218,0.122-0.331,0.174c-0.088,0.041-0.181,0.108-0.241-0.054c-0.048-0.128-0.022-0.19,0.105-0.225
		c0.065-0.018,0.126-0.05,0.191-0.072c0.287-0.097,0.381-0.233,0.204-0.537c-0.119-0.205-0.213-0.256-0.41-0.146
		c-0.138,0.077-0.282,0.144-0.422,0.218c-0.103,0.055-0.163,0.026-0.212-0.08c-0.046-0.1-0.012-0.14,0.077-0.179
		c0.29-0.128,0.579-0.258,0.865-0.395c0.143-0.068,0.203,0,0.258,0.118c0.245,0.534,0.492,1.066,0.74,1.599
		c0.025,0.054,0.05,0.114-0.014,0.147C22.361,29.539,22.026,29.702,21.698,29.864z"/>
	<path class="st2" d="M7.125,6.261c0.061-0.048,0.105-0.08,0.147-0.116c0.156-0.133,0.311-0.267,0.465-0.401
		C7.811,5.68,7.874,5.62,7.956,5.74c0.063,0.093,0.062,0.156-0.027,0.232C7.677,6.185,7.426,6.399,7.185,6.624
		c-0.11,0.103-0.184,0.06-0.249-0.032C6.592,6.11,6.181,5.684,5.788,5.243C5.695,5.139,5.713,5.083,5.81,5.001
		C6.034,4.809,6.246,4.602,6.47,4.41c0.071-0.061,0.158-0.151,0.263-0.035c0.099,0.11,0.027,0.19-0.05,0.261
		C6.584,4.729,6.482,4.821,6.371,4.898C6.172,5.038,6.163,5.148,6.332,5.347c0.179,0.211,0.273,0.154,0.431-0.001
		c0.109-0.106,0.212-0.41,0.404-0.185c0.184,0.214-0.12,0.266-0.239,0.372c-0.089,0.08-0.237,0.154-0.151,0.298
		C6.868,5.984,7.002,6.112,7.125,6.261z"/>
	<path class="st2" d="M27.693,24.761c-0.194-0.024-0.393-0.142-0.518-0.364c-0.141-0.249-0.153-0.522,0.036-0.734
		c0.238-0.268,0.197-0.428-0.112-0.568c-0.081-0.037-0.15-0.101-0.224-0.154c-0.126-0.091-0.036-0.181,0.007-0.266
		c0.05-0.1,0.12-0.071,0.193-0.021c0.515,0.349,1.032,0.697,1.548,1.046c0.034,0.023,0.073,0.043,0.071,0.102
		c-0.01,0.242-0.662,0.935-0.907,0.959C27.775,24.762,27.764,24.761,27.693,24.761z M27.395,24.013
		c0.026,0.235,0.148,0.365,0.367,0.391c0.124,0.015,0.565-0.425,0.504-0.482c-0.168-0.155-0.372-0.35-0.574-0.364
		C27.528,23.546,27.436,23.825,27.395,24.013z"/>
	<path class="st2" d="M27.606,21.298c0.048-0.298,0.204-0.568,0.466-0.77c0.075-0.057,0.182-0.12,0.263,0.011
		c0.075,0.122,0.054,0.211-0.085,0.268c-0.108,0.045-0.188,0.122-0.241,0.23c-0.094,0.191-0.183,0.4,0.03,0.55
		c0.19,0.134,0.33-0.019,0.464-0.153c0.12-0.12,0.252-0.231,0.39-0.329c0.179-0.126,0.382-0.162,0.576-0.037
		c0.215,0.138,0.337,0.334,0.293,0.603c-0.04,0.246-0.163,0.448-0.353,0.604c-0.07,0.057-0.162,0.172-0.257,0.046
		c-0.063-0.084-0.064-0.193,0.046-0.267c0.129-0.087,0.198-0.218,0.246-0.359c0.045-0.133,0.008-0.251-0.11-0.329
		c-0.114-0.076-0.217-0.029-0.306,0.057c-0.131,0.126-0.259,0.255-0.392,0.378c-0.185,0.17-0.392,0.291-0.646,0.158
		C27.742,21.832,27.608,21.619,27.606,21.298z"/>
	<path class="st2" d="M19.399,30.575c-0.413-0.005-0.664-0.195-0.727-0.476c-0.075-0.337,0.064-0.593,0.404-0.778
		c0.166-0.09,0.441-0.043,0.494-0.235c0.041-0.15-0.079-0.345-0.128-0.52c-0.027-0.094-0.045-0.181,0.095-0.197
		c0.095-0.011,0.197-0.08,0.236,0.086c0.14,0.596,0.286,1.191,0.435,1.785c0.022,0.089-0.005,0.118-0.085,0.142
		C19.852,30.461,19.588,30.573,19.399,30.575z M19.406,30.296c0.128-0.063,0.438,0.047,0.405-0.212
		c-0.025-0.195,0.082-0.552-0.268-0.594c-0.306-0.036-0.548,0.188-0.544,0.432C19.004,30.169,19.125,30.302,19.406,30.296z"/>
	<path class="st2" d="M3.177,11.12c-0.005,0.047,0.01,0.141-0.027,0.202c-0.248,0.409-0.022,0.536,0.336,0.62
		c0.1,0.023,0.304,0.018,0.216,0.249c-0.077,0.202-0.208,0.087-0.306,0.056c-0.517-0.164-1.028-0.344-1.544-0.508
		c-0.166-0.053-0.219-0.13-0.146-0.296c0.1-0.227,0.166-0.473,0.288-0.686c0.149-0.26,0.391-0.368,0.696-0.283
		C2.991,10.558,3.173,10.789,3.177,11.12z M2.882,11.234c0.028-0.297-0.103-0.441-0.353-0.473c-0.199-0.025-0.46,0.28-0.471,0.534
		c-0.004,0.097,0.463,0.377,0.625,0.343C2.922,11.588,2.821,11.349,2.882,11.234z"/>
	<path class="st2" d="M23.866,26.381c0.454-0.044,0.721,0.332,0.926,0.728c0.183,0.352,0.144,0.731-0.117,1.059
		c-0.158,0.199-0.371,0.297-0.621,0.312c-0.09,0.005-0.188,0.018-0.195-0.122c-0.006-0.112,0.034-0.144,0.149-0.17
		c0.493-0.113,0.632-0.38,0.467-0.849c-0.171-0.486-0.614-0.748-0.985-0.599c-0.155,0.063-0.232,0.176-0.285,0.317
		c-0.038,0.099-0.063,0.196-0.21,0.147c-0.169-0.056-0.114-0.18-0.084-0.28C23.002,26.613,23.378,26.383,23.866,26.381z"/>
	<path class="st1" d="M17.373,9.012c0.521,0.542,0.991,0.994,1.413,1.602c-0.468,0-0.878,0.004-1.289-0.002
		c-0.129-0.002-0.123-0.111-0.124-0.202C17.372,9.98,17.373,9.549,17.373,9.012z"/>
	<path class="st2" d="M9.136,2.931c-0.049,0.111-0.158,0.164-0.26,0.202C8.63,3.225,8.652,3.365,8.768,3.548
		c0.225,0.354,0.445,0.711,0.661,1.071C9.506,4.747,9.585,4.89,9.383,4.987C9.189,5.081,9.19,4.893,9.133,4.803
		C8.91,4.447,8.679,4.096,8.48,3.727C8.354,3.495,8.233,3.473,8.034,3.629c-0.08,0.063-0.18,0.218-0.299,0.028
		c-0.12-0.191,0.074-0.207,0.157-0.26C8.207,3.197,8.532,3.011,8.853,2.82C8.991,2.739,9.09,2.767,9.136,2.931z"/>
	<path class="st2" d="M4.722,9.809c-0.087,0.06-0.055,0.296-0.27,0.183c-0.501-0.263-0.998-0.531-1.496-0.8
		C2.828,9.124,2.727,9.047,2.832,8.877c0.121-0.195,0.217-0.02,0.303,0.024c0.473,0.242,0.94,0.496,1.408,0.748
		C4.61,9.685,4.697,9.7,4.722,9.809z"/>
	<path class="st2" d="M17.022,29.213c-0.005-0.068-0.005-0.136-0.015-0.203c-0.02-0.132,0.045-0.182,0.166-0.199
		c0.151-0.021,0.167,0.074,0.175,0.183c0.026,0.338,0.05,0.677,0.078,1.015c0.019,0.225,0.046,0.45,0.064,0.675
		c0.008,0.105,0.055,0.229-0.128,0.251c-0.172,0.021-0.179-0.083-0.191-0.204c-0.05-0.506-0.104-1.012-0.156-1.517
		C17.018,29.213,17.02,29.213,17.022,29.213z"/>
	<path class="st0" d="M13.187,17.897c0,0.239-0.001,0.478,0,0.717c0,0.109,0.002,0.212-0.159,0.183
		c-0.814-0.147-1.657-0.157-2.432-0.484c-0.219-0.092-0.543-0.158-0.524-0.46c0.017-0.275,0.313-0.379,0.547-0.446
		c0.754-0.214,1.519-0.385,2.304-0.449c0.178-0.015,0.251,0.041,0.246,0.221c-0.008,0.239-0.002,0.478-0.002,0.717
		C13.173,17.897,13.18,17.897,13.187,17.897z"/>
	<path class="st0" d="M18.928,17.884c0-0.159-0.001-0.318,0-0.478c0.005-0.468,0.007-0.481,0.459-0.427
		c0.688,0.083,1.368,0.223,2.033,0.418c0.244,0.071,0.558,0.173,0.576,0.457c0.02,0.313-0.324,0.378-0.552,0.47
		c-0.767,0.312-1.595,0.335-2.399,0.47c-0.167,0.028-0.15-0.094-0.151-0.194c-0.002-0.239-0.001-0.477-0.001-0.716
		C18.905,17.884,18.916,17.884,18.928,17.884z"/>
	<path class="st0" d="M15.204,2.224c-0.002,0.557-0.325,0.844-0.751,0.659c-0.327-0.142-0.346-0.451-0.374-0.746
		c-0.027-0.287,0.03-0.552,0.301-0.711c0.237-0.139,0.544-0.03,0.7,0.237C15.181,1.837,15.204,2.029,15.204,2.224z"/>
	<path class="st0" d="M17.488,2.106c-0.141-0.042-0.397,0.035-0.311-0.25c0.048-0.159-0.112-0.449,0.226-0.457
		c0.325-0.008,0.568,0.162,0.544,0.371C17.917,2.04,17.724,2.106,17.488,2.106z"/>
	<path class="st0" d="M19.928,2.45c-0.025,0.014-0.061,0.046-0.074,0.038c-0.046-0.027-0.025-0.07-0.007-0.108
		C19.874,2.403,19.901,2.427,19.928,2.45z"/>
	<path class="st0" d="M26.382,26.067c-0.124-0.051-0.252-0.095-0.372-0.154c-0.121-0.058-0.235-0.13-0.364-0.202
		c0.129-0.132,0.249-0.255,0.384-0.393c0.136,0.238,0.269,0.472,0.403,0.706C26.415,26.038,26.398,26.052,26.382,26.067z"/>
	<path class="st0" d="M26.433,26.025c0.017,0.03,0.035,0.063-0.008,0.084c-0.006,0.003-0.029-0.027-0.043-0.042
		C26.398,26.052,26.415,26.038,26.433,26.025z"/>
	<path class="st0" d="M27.395,24.013c0.041-0.188,0.133-0.467,0.297-0.456c0.202,0.014,0.406,0.209,0.574,0.364
		c0.061,0.057-0.38,0.497-0.504,0.482C27.543,24.378,27.421,24.249,27.395,24.013z"/>
	<path class="st0" d="M19.406,30.296c-0.281,0.006-0.402-0.127-0.406-0.373c-0.004-0.245,0.237-0.469,0.544-0.432
		c0.35,0.042,0.243,0.399,0.268,0.594C19.844,30.343,19.535,30.233,19.406,30.296z"/>
	<path class="st0" d="M2.882,11.234c-0.061,0.115,0.039,0.353-0.199,0.404c-0.162,0.034-0.63-0.245-0.625-0.343
		c0.011-0.254,0.272-0.56,0.471-0.534C2.78,10.793,2.91,10.937,2.882,11.234z"/>
</g>
</svg>
