<?xml version="1.0" encoding="utf-8"?>
<!-- Generator: Adobe Illustrator 22.0.1, SVG Export Plug-In . SVG Version: 6.00 Build 0)  -->
<svg version="1.1" id="Layer_1" xmlns="http://www.w3.org/2000/svg" xmlns:xlink="http://www.w3.org/1999/xlink" x="0px" y="0px"
	 viewBox="0 0 32 32" style="enable-background:new 0 0 32 32;" xml:space="preserve">
<style type="text/css">
	.st0{fill:#FFFFFF;}
	.st1{fill:#D0C344;}
</style>
<g>
	<circle class="st0" cx="15.923" cy="15.923" r="15.083"/>
	<g>
		<path class="st1" d="M16,0.16C7.252,0.16,0.16,7.252,0.16,16S7.252,31.84,16,31.84S31.84,24.748,31.84,16S24.748,0.16,16,0.16z
			 M16,30.768c-8.087,0-14.644-6.602-14.644-14.747S7.913,1.274,16,1.274s14.644,6.602,14.644,14.747S24.087,30.768,16,30.768z"/>
		<g>
			<path class="st1" d="M5.477,10.261c0.223,0.141,0.419,0.201,0.589,0.18c0.17-0.022,0.3-0.103,0.389-0.244
				c0.06-0.093,0.086-0.192,0.08-0.297C6.528,9.794,6.487,9.691,6.41,9.59S6.235,9.401,6.113,9.324
				C5.961,9.228,5.82,9.171,5.689,9.155c-0.13-0.017-0.24-0.004-0.327,0.038C5.274,9.235,5.203,9.299,5.148,9.386
				C5.088,9.481,5.06,9.583,5.065,9.692c0.005,0.109,0.046,0.213,0.124,0.312C5.267,10.103,5.363,10.188,5.477,10.261z"/>
			<path class="st1" d="M6.188,21.718c0.079-0.11,0.12-0.217,0.125-0.32c0.005-0.104-0.019-0.204-0.071-0.302
				c-0.058-0.107-0.137-0.188-0.239-0.243c-0.102-0.055-0.217-0.074-0.345-0.057c-0.128,0.017-0.252,0.058-0.374,0.122
				c-0.237,0.126-0.388,0.273-0.451,0.441c-0.063,0.167-0.052,0.33,0.032,0.489c0.056,0.105,0.134,0.185,0.232,0.236
				s0.213,0.07,0.342,0.055c0.129-0.015,0.258-0.057,0.387-0.126C5.989,21.927,6.109,21.828,6.188,21.718z"/>
			<path class="st1" d="M14.967,18.904c0-0.239-0.143-0.318-0.431-0.318h-0.265v0.662h0.265
				C14.827,19.248,14.967,19.142,14.967,18.904z"/>
			<path class="st1" d="M23.953,7.157c0.093-0.004,0.177-0.049,0.254-0.135c0.066-0.075,0.098-0.154,0.093-0.236
				s-0.049-0.161-0.133-0.236c-0.029-0.026-0.092-0.076-0.187-0.147l-0.447,0.492c0.053,0.059,0.096,0.103,0.127,0.131
				C23.764,7.117,23.861,7.161,23.953,7.157z"/>
			<path class="st1" d="M17.622,18.57c-0.252,0-0.42,0.25-0.42,0.67c0,0.429,0.168,0.686,0.42,0.686s0.42-0.257,0.42-0.686
				C18.042,18.82,17.874,18.57,17.622,18.57z"/>
			<path class="st1" d="M14.405,14.692c0.204-0.196,0.306-0.457,0.306-0.783c0-0.317-0.094-0.564-0.282-0.742
				c-0.188-0.178-0.476-0.267-0.863-0.267c-0.171,0-0.377,0.018-0.619,0.055c-0.018,0.688-0.028,1.337-0.031,1.948
				c0.242,0.055,0.449,0.082,0.622,0.082C13.913,14.986,14.202,14.888,14.405,14.692z"/>
			<path class="st1" d="M12.78,19.403h0.498l-0.078-0.252c-0.059-0.187-0.115-0.369-0.166-0.563h-0.01
				c-0.054,0.194-0.107,0.377-0.166,0.563L12.78,19.403z"/>
			<path class="st1" d="M18.195,15.536l-0.864-2.05l-0.864,2.05c0.316,0.009,0.543,0.014,0.68,0.014
				C17.188,15.55,17.538,15.545,18.195,15.536z"/>
			<path class="st1" d="M16,1.934c-7.655,0-13.86,6.279-13.86,14.025S8.345,29.984,16,29.984s13.86-6.279,13.86-14.025
				S23.655,1.934,16,1.934z M27.236,10.276c0.056,0.105,0.161,0.293,0.316,0.566c-0.152,0.092-0.284,0.176-0.396,0.25l-0.04-0.075
				c0.112-0.1,0.177-0.16,0.193-0.182c0.018-0.021,0.026-0.043,0.026-0.065c0-0.023-0.019-0.07-0.058-0.142l-0.118-0.222
				c-0.189,0.095-0.423,0.215-0.698,0.363c-0.257,0.137-0.428,0.231-0.516,0.285c-0.021,0.012-0.032,0.025-0.035,0.038
				c-0.004,0.017,0.011,0.08,0.043,0.189c0.004,0.01,0.008,0.026,0.013,0.047l-0.063,0.033c-0.063-0.136-0.121-0.256-0.177-0.359
				c-0.052-0.098-0.109-0.196-0.172-0.295l0.063-0.033c0.019,0.02,0.032,0.035,0.04,0.046c0.065,0.083,0.107,0.128,0.126,0.136
				c0.009,0.003,0.02,0.003,0.031,0.001s0.091-0.042,0.237-0.117c0.227-0.118,0.395-0.205,0.503-0.263
				c0.188-0.101,0.354-0.191,0.498-0.271l-0.127-0.238l-0.024-0.042c-0.021-0.038-0.038-0.061-0.053-0.068
				c-0.021-0.012-0.057-0.016-0.103-0.01c-0.036,0.004-0.111,0.022-0.227,0.054L26.48,9.824c0.129-0.053,0.272-0.115,0.43-0.186
				C27.061,9.938,27.169,10.15,27.236,10.276z M26.334,8.83c0.084,0.047,0.152,0.109,0.204,0.187
				c0.063,0.093,0.115,0.221,0.157,0.384c-0.099,0.063-0.157,0.1-0.178,0.113c-0.04,0.027-0.094,0.066-0.16,0.115L26.31,9.557
				c0.073-0.074,0.123-0.134,0.148-0.181c0.024-0.047,0.034-0.099,0.027-0.156c-0.006-0.058-0.027-0.112-0.063-0.165
				c-0.051-0.075-0.112-0.119-0.186-0.134c-0.074-0.015-0.142-0.001-0.204,0.041c-0.055,0.037-0.09,0.088-0.106,0.152
				c-0.018,0.063-0.01,0.186,0.021,0.367s0.03,0.319-0.003,0.415c-0.034,0.095-0.093,0.171-0.177,0.228
				c-0.075,0.051-0.158,0.08-0.248,0.086c-0.09,0.006-0.18-0.015-0.27-0.063c-0.089-0.048-0.163-0.116-0.222-0.203
				c-0.04-0.059-0.073-0.122-0.102-0.189S24.872,9.603,24.845,9.5c0.1-0.054,0.227-0.132,0.381-0.236l0.049,0.072
				c-0.085,0.087-0.141,0.156-0.165,0.205c-0.024,0.049-0.034,0.105-0.029,0.167c0.005,0.063,0.025,0.12,0.063,0.174
				c0.05,0.074,0.115,0.124,0.196,0.15c0.081,0.026,0.161,0.012,0.24-0.041c0.064-0.043,0.107-0.102,0.13-0.175
				c0.021-0.074,0.017-0.199-0.013-0.377c-0.03-0.177-0.032-0.308-0.006-0.392c0.024-0.083,0.076-0.152,0.154-0.205
				c0.068-0.046,0.146-0.071,0.232-0.076C26.163,8.761,26.249,8.782,26.334,8.83z M25.022,7.674
				c0.081-0.071,0.125-0.113,0.132-0.127c0.004-0.01,0.006-0.02,0.004-0.031c-0.002-0.011-0.017-0.044-0.045-0.1l-0.058-0.112
				l0.054-0.046c0.086,0.114,0.192,0.246,0.32,0.396c0.07,0.082,0.24,0.275,0.51,0.579c-0.104,0.091-0.201,0.186-0.293,0.286
				l-0.052-0.061c0.063-0.093,0.102-0.159,0.117-0.197c0.01-0.025,0.013-0.048,0.006-0.068c-0.008-0.026-0.04-0.071-0.096-0.136
				l-0.297-0.349l-0.298,0.244l-0.182,0.15l0.178,0.209c0.068,0.081,0.111,0.126,0.128,0.137c0.017,0.011,0.036,0.015,0.058,0.011
				c0.021-0.003,0.071-0.026,0.149-0.07c0.008-0.004,0.021-0.01,0.038-0.019l0.048,0.057c-0.105,0.079-0.186,0.142-0.239,0.188
				c-0.056,0.047-0.13,0.116-0.222,0.205l-0.048-0.057c0.073-0.092,0.114-0.144,0.121-0.157c0.01-0.018,0.011-0.037,0.005-0.057
				c-0.006-0.02-0.039-0.065-0.1-0.137l-0.201-0.237l-0.532,0.46l0.309,0.362l0.027,0.031c0.043,0.049,0.071,0.079,0.086,0.088
				c0.026,0.015,0.057,0.023,0.089,0.024c0.033,0.001,0.111-0.013,0.236-0.041c0.012-0.003,0.03-0.006,0.055-0.011l0.051,0.06
				c-0.025,0.01-0.17,0.071-0.434,0.185c-0.172-0.215-0.331-0.41-0.479-0.583c-0.103-0.121-0.22-0.251-0.351-0.392l0.054-0.045
				l0.151,0.112c0.025,0.017,0.044,0.025,0.055,0.024c0.02-0.001,0.047-0.017,0.083-0.048l0.017-0.014l0.218-0.178
				c0.042-0.034,0.123-0.103,0.244-0.206C24.813,7.854,24.942,7.745,25.022,7.674z M21.695,18.591V18.41h1.113v0.13l-0.933,1.363
				h0.945v0.181h-1.207v-0.13l0.93-1.363H21.695z M22.576,17.375c-0.452,0-1.189,0.013-2.214,0.037v-0.225
				c0.292-0.371,0.545-0.701,0.76-0.987c0.352-0.471,1.143-1.554,2.375-3.248h-1.736c-0.26,0-0.437,0.038-0.528,0.114
				c-0.093,0.077-0.181,0.28-0.265,0.61c-0.012,0.041-0.03,0.103-0.055,0.185h-0.246c0.043-0.294,0.079-0.727,0.109-1.299
				c0.926,0.025,1.515,0.038,1.769,0.038c0.6,0,1.214-0.013,1.844-0.038v0.208c-0.219,0.28-0.417,0.538-0.594,0.772
				s-0.487,0.66-0.932,1.277l-1.047,1.444c-0.233,0.314-0.415,0.568-0.548,0.762h2.084c0.237,0,0.397-0.04,0.482-0.12
				c0.084-0.079,0.188-0.287,0.311-0.622c0.019-0.048,0.046-0.119,0.082-0.212h0.246l-0.153,0.803l-0.093,0.536
				C23.416,17.388,22.865,17.375,22.576,17.375z M20.331,19.21v0.874h-0.204v-1.672h0.234l0.535,1.05l0.16,0.347h0.006
				c-0.008-0.165-0.028-0.354-0.028-0.53v-0.866h0.204v1.672h-0.234l-0.535-1.05l-0.161-0.347h-0.005
				C20.311,18.858,20.331,19.037,20.331,19.21z M22.915,7.262c0.017-0.016,0.154-0.168,0.414-0.455l0.37-0.423
				c0.057-0.064,0.089-0.103,0.095-0.115s0.007-0.024,0.002-0.036c-0.014-0.04-0.046-0.092-0.097-0.155
				c-0.008-0.01-0.019-0.025-0.033-0.046l0.047-0.053c0.144,0.14,0.261,0.25,0.351,0.331c0.052,0.046,0.102,0.089,0.147,0.128
				c0.062,0.051,0.104,0.087,0.128,0.107c0.109,0.098,0.168,0.2,0.175,0.304c0.006,0.104-0.032,0.204-0.116,0.298
				c-0.057,0.063-0.119,0.107-0.188,0.134c-0.068,0.026-0.141,0.035-0.218,0.025c-0.056-0.007-0.124-0.029-0.204-0.068l-0.063,0.639
				c-0.008,0.08-0.012,0.127-0.01,0.144c0.003,0.025,0.012,0.052,0.026,0.081c0.02,0.042,0.06,0.104,0.119,0.188l-0.047,0.052
				c-0.083-0.086-0.146-0.147-0.186-0.183c-0.047-0.042-0.098-0.082-0.153-0.119c0.015-0.067,0.03-0.154,0.047-0.26
				c0.018-0.106,0.026-0.17,0.028-0.191c0-0.012,0.002-0.024,0.003-0.037l0.055-0.436c-0.049-0.046-0.097-0.095-0.142-0.147
				l-0.395,0.456c-0.016,0.019-0.022,0.037-0.021,0.054c0.003,0.024,0.034,0.075,0.093,0.151c0.009,0.011,0.021,0.028,0.037,0.052
				l-0.047,0.053c-0.096-0.098-0.184-0.181-0.261-0.25c-0.084-0.075-0.18-0.154-0.289-0.24l0.047-0.052l0.044,0.024
				c0.095,0.056,0.152,0.083,0.173,0.083C22.866,7.3,22.89,7.287,22.915,7.262z M21.824,4.901c-0.005-0.01-0.03-0.037-0.074-0.08
				l-0.091-0.088l0.036-0.061c0.118,0.081,0.261,0.171,0.431,0.273c0.093,0.056,0.315,0.184,0.669,0.385
				c-0.07,0.119-0.132,0.241-0.188,0.365L22.54,5.655c0.029-0.109,0.045-0.183,0.048-0.224c0.001-0.028-0.004-0.05-0.016-0.067
				c-0.017-0.021-0.062-0.054-0.135-0.098l-0.393-0.235L21.84,5.357l-0.124,0.201l0.235,0.141c0.091,0.054,0.146,0.084,0.166,0.088
				c0.019,0.004,0.038,0.002,0.058-0.008s0.06-0.048,0.119-0.114c0.007-0.006,0.017-0.017,0.03-0.03l0.063,0.038
				c-0.074,0.109-0.13,0.194-0.166,0.254c-0.038,0.063-0.086,0.151-0.145,0.265l-0.064-0.038c0.041-0.111,0.063-0.173,0.064-0.188
				c0.004-0.02-0.001-0.039-0.013-0.056c-0.012-0.017-0.058-0.049-0.139-0.098l-0.267-0.16l-0.356,0.607l0.408,0.244l0.036,0.021
				c0.057,0.034,0.093,0.052,0.11,0.056c0.029,0.006,0.061,0.004,0.092-0.005c0.031-0.01,0.101-0.048,0.21-0.115
				c0.011-0.007,0.027-0.016,0.048-0.028l0.067,0.04c-0.021,0.018-0.138,0.122-0.352,0.314c-0.231-0.149-0.445-0.282-0.641-0.398
				c-0.136-0.082-0.289-0.168-0.458-0.259l0.036-0.061l0.18,0.058c0.029,0.008,0.05,0.01,0.06,0.005
				c0.018-0.007,0.039-0.031,0.063-0.072l0.011-0.019l0.149-0.238c0.028-0.046,0.083-0.137,0.165-0.273
				c0.118-0.198,0.204-0.343,0.258-0.436s0.082-0.147,0.084-0.162C21.831,4.921,21.829,4.911,21.824,4.901z M19.888,4.016
				l-0.16-0.106l0.026-0.065C19.893,3.91,20.01,3.962,20.104,4c0.1,0.041,0.21,0.081,0.332,0.121L20.41,4.187l-0.192-0.036
				c-0.024-0.003-0.044-0.001-0.057,0.006s-0.024,0.024-0.035,0.052l-0.219,0.524c0.107,0.046,0.222,0.093,0.342,0.142
				c0.155,0.063,0.295,0.119,0.42,0.167l0.03-0.08l0.096-0.239l0.082-0.208c0.012-0.031,0.016-0.052,0.011-0.063
				c-0.006-0.017-0.029-0.038-0.07-0.062l-0.129-0.09l0.026-0.065c0.158,0.073,0.273,0.125,0.346,0.154
				c0.079,0.032,0.189,0.072,0.333,0.121l-0.026,0.065c-0.126-0.021-0.197-0.032-0.214-0.031c-0.018,0-0.03,0.004-0.039,0.01
				c-0.013,0.01-0.033,0.049-0.062,0.117c-0.046,0.11-0.124,0.3-0.232,0.569l-0.209,0.527l-0.013,0.031
				c-0.014,0.035-0.017,0.059-0.009,0.074c0.014,0.023,0.078,0.072,0.195,0.146l-0.026,0.065c-0.189-0.086-0.311-0.14-0.362-0.161
				c-0.087-0.035-0.193-0.074-0.32-0.116l0.026-0.065l0.212,0.033c0.014,0,0.026-0.004,0.036-0.011
				c0.017-0.012,0.033-0.039,0.052-0.081l0.216-0.519c-0.183-0.079-0.323-0.138-0.422-0.178c-0.106-0.042-0.219-0.086-0.338-0.13
				l-0.214,0.537c-0.016,0.039-0.021,0.064-0.02,0.077c0.003,0.013,0.018,0.03,0.043,0.051c0.006,0.005,0.059,0.041,0.156,0.108
				l-0.026,0.065c-0.168-0.077-0.287-0.13-0.357-0.159C19.353,5.5,19.245,5.46,19.117,5.418l0.026-0.065
				c0.083,0.013,0.145,0.023,0.185,0.031c0.03,0.006,0.052,0.006,0.063,0c0.016-0.008,0.032-0.033,0.048-0.073
				c0.06-0.14,0.143-0.341,0.248-0.604l0.218-0.551l0.014-0.036c0.011-0.026,0.014-0.045,0.01-0.059S19.91,4.033,19.888,4.016z
				 M18.229,3.467c0.323,0.089,0.554,0.15,0.692,0.185c0.115,0.028,0.326,0.076,0.633,0.143c-0.033,0.175-0.06,0.329-0.079,0.461
				l-0.083-0.021c0.001-0.15-0.001-0.239-0.005-0.266c-0.005-0.027-0.015-0.048-0.032-0.063c-0.017-0.015-0.064-0.033-0.144-0.052
				l-0.244-0.06c-0.057,0.205-0.122,0.458-0.197,0.762c-0.069,0.282-0.113,0.473-0.133,0.573c-0.004,0.024-0.002,0.041,0.005,0.052
				c0.01,0.014,0.066,0.045,0.17,0.095c0.01,0.004,0.024,0.012,0.043,0.022l-0.017,0.069c-0.144-0.044-0.271-0.081-0.386-0.109
				c-0.107-0.027-0.219-0.05-0.334-0.069l0.017-0.068c0.027,0,0.048,0,0.062,0c0.105,0.007,0.167,0.006,0.186-0.002
				c0.008-0.004,0.016-0.012,0.021-0.022c0.006-0.01,0.03-0.095,0.071-0.255c0.064-0.247,0.111-0.43,0.141-0.55
				c0.052-0.208,0.096-0.392,0.132-0.551l-0.263-0.065l-0.047-0.01c-0.042-0.011-0.071-0.013-0.086-0.007
				c-0.024,0.008-0.05,0.032-0.076,0.07c-0.021,0.029-0.058,0.097-0.111,0.204l-0.085-0.021C18.127,3.779,18.177,3.631,18.229,3.467
				z M16.121,4.448l0.087,0.005c0.017,0.121,0.038,0.206,0.062,0.256c0.024,0.049,0.062,0.091,0.114,0.125
				c0.053,0.034,0.111,0.053,0.176,0.058c0.089,0.005,0.168-0.016,0.239-0.064c0.07-0.048,0.108-0.12,0.114-0.215
				c0.005-0.077-0.015-0.147-0.059-0.21c-0.045-0.062-0.147-0.136-0.306-0.221c-0.159-0.084-0.263-0.163-0.314-0.235
				C16.183,3.876,16.16,3.794,16.166,3.7c0.005-0.082,0.033-0.159,0.082-0.23c0.049-0.072,0.119-0.126,0.208-0.164
				c0.089-0.038,0.18-0.054,0.273-0.048c0.111,0.007,0.245,0.044,0.399,0.11c-0.01,0.116-0.017,0.186-0.018,0.21
				c-0.004,0.048-0.006,0.114-0.008,0.197L17.017,3.77c-0.014-0.103-0.031-0.179-0.053-0.228s-0.058-0.088-0.107-0.118
				c-0.049-0.03-0.105-0.047-0.169-0.051c-0.09-0.006-0.163,0.016-0.219,0.065c-0.057,0.049-0.087,0.111-0.092,0.186
				c-0.004,0.066,0.014,0.125,0.055,0.177c0.04,0.052,0.141,0.122,0.304,0.208c0.162,0.086,0.272,0.171,0.327,0.255
				c0.055,0.085,0.078,0.178,0.072,0.279c-0.006,0.091-0.033,0.174-0.084,0.25C17,4.869,16.928,4.927,16.835,4.968
				c-0.093,0.041-0.191,0.058-0.296,0.051c-0.071-0.004-0.142-0.016-0.212-0.035s-0.154-0.049-0.251-0.09
				C16.094,4.782,16.109,4.634,16.121,4.448z M16.428,14.661l0.94-2.181h0.215c0.308,0.791,0.687,1.688,1.136,2.69l0.796,1.74
				c0.036,0.062,0.076,0.107,0.12,0.137c0.029,0.021,0.196,0.075,0.502,0.164v0.201c-0.415-0.024-0.72-0.037-0.916-0.037
				c-0.2,0-0.542,0.013-1.025,0.037v-0.201c0.275-0.057,0.437-0.103,0.482-0.137c0.045-0.034,0.068-0.074,0.068-0.119
				c0-0.049-0.024-0.129-0.072-0.243l-0.348-0.834c-0.482-0.004-0.834-0.007-1.054-0.007l-0.936,0.007l-0.359,0.864
				c-0.059,0.14-0.089,0.227-0.089,0.26c0,0.03,0.014,0.055,0.042,0.074c0.029,0.02,0.162,0.054,0.398,0.104
				c0.025,0.008,0.061,0.018,0.106,0.031v0.201c-0.39-0.024-0.664-0.037-0.824-0.037c-0.203,0-0.462,0.013-0.779,0.037v-0.201
				c0.208-0.045,0.35-0.097,0.427-0.154c0.057-0.043,0.116-0.115,0.178-0.219C15.567,16.613,15.897,15.887,16.428,14.661z
				 M19.675,19.903v0.181H18.63v-0.181h0.415v-1.31H18.63v-0.182h1.045v0.182h-0.416v1.31H19.675z M16.243,19.926
				c0.153,0,0.27-0.066,0.375-0.184l0.122,0.13c-0.13,0.153-0.295,0.242-0.517,0.242c-0.413,0-0.729-0.32-0.729-0.866
				c0-0.537,0.313-0.866,0.75-0.866c0.201,0,0.359,0.097,0.458,0.204l-0.123,0.135c-0.086-0.092-0.196-0.15-0.336-0.15
				c-0.319,0-0.528,0.258-0.528,0.673C15.715,19.663,15.924,19.926,16.243,19.926z M12.944,16.961
				c0.009,0.039,0.031,0.068,0.065,0.09c0.064,0.036,0.278,0.08,0.643,0.133c0.032,0.004,0.078,0.014,0.137,0.027v0.201
				c-0.433-0.024-0.837-0.037-1.213-0.037c-0.355,0-0.72,0.013-1.094,0.037v-0.201c0.089-0.023,0.155-0.037,0.198-0.045
				c0.301-0.061,0.468-0.105,0.502-0.133c0.057-0.051,0.085-0.184,0.085-0.4l0.01-1.654l-0.003-1.654V13.25
				c0-0.146-0.022-0.239-0.066-0.28c-0.045-0.041-0.23-0.096-0.556-0.164c-0.037-0.009-0.093-0.023-0.171-0.041v-0.202
				c0.294,0.025,0.67,0.038,1.128,0.038l1.35-0.014c0.501,0,0.867,0.106,1.097,0.318c0.23,0.214,0.345,0.505,0.345,0.872
				c0,0.426-0.155,0.783-0.465,1.072c-0.31,0.288-0.736,0.432-1.278,0.432c-0.209,0-0.458-0.03-0.745-0.089
				c-0.002,0.355-0.003,0.609-0.003,0.762C12.91,16.532,12.921,16.868,12.944,16.961z M13.718,20.084h-0.229l-0.157-0.507h-0.607
				l-0.159,0.507h-0.219l0.563-1.672h0.245L13.718,20.084z M10.06,19.363l-0.242-0.107c-0.166-0.066-0.359-0.184-0.359-0.431
				c0-0.255,0.229-0.443,0.548-0.443c0.209,0,0.393,0.084,0.515,0.206l-0.112,0.138c-0.109-0.097-0.237-0.155-0.41-0.155
				c-0.194,0-0.324,0.092-0.324,0.242c0,0.16,0.155,0.219,0.298,0.275l0.234,0.104c0.206,0.081,0.369,0.198,0.369,0.445
				c0,0.266-0.224,0.477-0.591,0.477c-0.245,0-0.456-0.097-0.606-0.247l0.127-0.147c0.127,0.125,0.3,0.206,0.489,0.206
				c0.229,0,0.362-0.109,0.362-0.263C10.358,19.485,10.228,19.435,10.06,19.363z M10.43,17.314c-0.272,0.134-0.566,0.201-0.88,0.201
				c-0.214,0-0.429-0.021-0.644-0.063c-0.216-0.041-0.474-0.111-0.774-0.211c0.034-0.322,0.051-0.748,0.051-1.279h0.263
				c0.075,0.342,0.153,0.581,0.234,0.718c0.081,0.137,0.203,0.248,0.367,0.336c0.164,0.088,0.344,0.132,0.539,0.132
				c0.269,0,0.504-0.075,0.707-0.226s0.304-0.362,0.304-0.633c0-0.221-0.073-0.417-0.219-0.588c-0.148-0.169-0.469-0.36-0.962-0.573
				c-0.493-0.213-0.823-0.417-0.989-0.613c-0.167-0.194-0.25-0.425-0.25-0.693c0-0.234,0.067-0.458,0.202-0.671
				s0.332-0.381,0.593-0.505c0.261-0.124,0.532-0.186,0.812-0.186c0.337,0,0.745,0.081,1.224,0.243
				c-0.011,0.333-0.017,0.533-0.017,0.602c0,0.139,0.006,0.327,0.017,0.564h-0.26c-0.059-0.292-0.126-0.506-0.202-0.641
				s-0.189-0.241-0.344-0.317c-0.153-0.077-0.326-0.115-0.518-0.115c-0.271,0-0.487,0.075-0.647,0.226
				c-0.161,0.15-0.241,0.333-0.241,0.547c0,0.189,0.066,0.354,0.198,0.496c0.13,0.141,0.447,0.32,0.952,0.536
				c0.505,0.216,0.849,0.439,1.031,0.669c0.18,0.233,0.27,0.494,0.27,0.784c0,0.26-0.068,0.502-0.204,0.726
				C10.906,17.003,10.702,17.182,10.43,17.314z M11.003,18.41l0.122,1.05c0.016,0.14,0.025,0.222,0.033,0.387h0.008
				c0.03-0.165,0.048-0.247,0.082-0.385l0.163-0.621h0.204l0.158,0.621c0.036,0.138,0.051,0.22,0.082,0.385h0.01
				c0.01-0.165,0.015-0.247,0.03-0.385l0.117-1.052h0.229l-0.245,1.674h-0.265l-0.163-0.673c-0.025-0.102-0.046-0.198-0.061-0.301
				H11.5c-0.018,0.103-0.033,0.199-0.059,0.301l-0.163,0.673h-0.26l-0.255-1.674H11.003z M14.058,18.412h0.505
				c0.369,0,0.619,0.125,0.619,0.492c0,0.354-0.252,0.518-0.619,0.518h-0.291v0.662h-0.214V18.412z M14.902,3.317
				c0.108-0.007,0.364-0.027,0.769-0.061c0.01,0.138,0.027,0.273,0.052,0.407l-0.079,0.005c-0.037-0.106-0.066-0.177-0.087-0.211
				c-0.014-0.024-0.031-0.039-0.05-0.046c-0.026-0.009-0.081-0.011-0.167-0.005l-0.458,0.028l0.016,0.385l0.011,0.235l0.274-0.017
				c0.105-0.007,0.167-0.014,0.186-0.021c0.019-0.007,0.033-0.021,0.044-0.04c0.01-0.019,0.021-0.073,0.034-0.162
				c0.001-0.009,0.004-0.022,0.007-0.041L15.53,3.77c0,0.132,0.002,0.233,0.006,0.304c0.005,0.073,0.015,0.173,0.031,0.3
				l-0.075,0.004C15.464,4.264,15.446,4.2,15.44,4.187c-0.009-0.019-0.023-0.031-0.042-0.039c-0.02-0.007-0.076-0.008-0.169-0.002
				l-0.311,0.019l0.049,0.702l0.474-0.029l0.042-0.004c0.065-0.004,0.105-0.009,0.122-0.016c0.028-0.012,0.052-0.031,0.073-0.057
				c0.021-0.026,0.057-0.097,0.108-0.213c0.005-0.012,0.013-0.029,0.024-0.051l0.078-0.005c-0.007,0.026-0.045,0.179-0.112,0.458
				C15.5,4.958,15.25,4.97,15.022,4.984c-0.158,0.01-0.333,0.025-0.524,0.045l-0.004-0.07l0.181-0.053
				c0.029-0.011,0.046-0.021,0.053-0.03c0.01-0.016,0.014-0.047,0.011-0.095l-0.001-0.021l-0.012-0.281
				c-0.003-0.054-0.009-0.161-0.019-0.319c-0.014-0.23-0.025-0.399-0.034-0.506s-0.016-0.167-0.022-0.181
				c-0.005-0.009-0.013-0.017-0.022-0.022s-0.045-0.014-0.106-0.024l-0.124-0.021l-0.004-0.071
				C14.535,3.335,14.705,3.329,14.902,3.317z M12.527,3.722c0.043-0.01,0.12-0.031,0.23-0.064l0.406,0.346
				c0.037,0.03,0.321,0.266,0.854,0.706c-0.023-0.109-0.04-0.188-0.051-0.237c-0.025-0.116-0.075-0.328-0.149-0.635
				c-0.035-0.144-0.055-0.221-0.062-0.233c-0.007-0.011-0.018-0.021-0.033-0.028c-0.015-0.007-0.069-0.01-0.164-0.008
				c-0.012,0-0.031,0-0.055-0.001l-0.015-0.069c0.133-0.021,0.239-0.039,0.316-0.056c0.076-0.017,0.179-0.043,0.31-0.081
				l0.015,0.069c-0.019,0.01-0.033,0.017-0.042,0.02c-0.094,0.043-0.146,0.07-0.155,0.08c-0.007,0.006-0.012,0.015-0.016,0.025
				c-0.004,0.014-0.004,0.039,0,0.073c0.002,0.015,0.024,0.122,0.065,0.32c0.041,0.198,0.081,0.389,0.122,0.574
				c0.048,0.218,0.092,0.402,0.132,0.55L14.17,5.123l-0.595-0.504l-0.775-0.636l0.157,0.689c0.07,0.302,0.109,0.462,0.118,0.481
				c0.006,0.013,0.015,0.024,0.028,0.032c0.02,0.012,0.078,0.017,0.176,0.013c0.011-0.001,0.029-0.001,0.052,0l0.015,0.069
				c-0.115,0.016-0.211,0.033-0.289,0.05c-0.065,0.014-0.178,0.043-0.337,0.087l-0.015-0.069c0.024-0.012,0.043-0.021,0.056-0.027
				c0.085-0.036,0.133-0.063,0.144-0.08c0.006-0.009,0.01-0.022,0.01-0.04c0-0.038-0.025-0.174-0.074-0.41
				c-0.069-0.334-0.111-0.532-0.124-0.592c-0.043-0.196-0.069-0.304-0.079-0.324c-0.006-0.015-0.019-0.026-0.038-0.033
				c-0.019-0.007-0.092-0.008-0.22-0.002c-0.014,0-0.035,0-0.063,0l-0.015-0.069C12.399,3.746,12.473,3.734,12.527,3.722z
				 M11.769,3.982c0.097-0.034,0.206-0.078,0.327-0.129l0.023,0.066c-0.022,0.015-0.04,0.026-0.051,0.032
				c-0.088,0.051-0.138,0.086-0.147,0.107c-0.01,0.021-0.005,0.058,0.014,0.111l0.014,0.04l0.155,0.456l0.236,0.657
				c0.019,0.053,0.038,0.083,0.058,0.093c0.02,0.009,0.074,0.004,0.163-0.016c0.018-0.004,0.043-0.008,0.077-0.012l0.023,0.067
				c-0.118,0.032-0.229,0.067-0.336,0.104c-0.11,0.039-0.229,0.085-0.357,0.14l-0.023-0.066c0.019-0.013,0.033-0.022,0.043-0.028
				c0.095-0.053,0.147-0.09,0.157-0.109c0.009-0.02,0.004-0.06-0.017-0.119L12.104,5.32l-0.143-0.415
				c-0.15-0.425-0.235-0.661-0.253-0.705c-0.01-0.024-0.024-0.041-0.043-0.05c-0.019-0.008-0.078-0.006-0.179,0.009
				c-0.014,0.001-0.034,0.003-0.062,0.005l-0.023-0.066C11.56,4.052,11.682,4.013,11.769,3.982z M9.938,4.784
				c0.096-0.047,0.2-0.104,0.311-0.168L10.28,4.68L10.126,4.8c-0.019,0.016-0.03,0.032-0.033,0.046
				c-0.003,0.015,0.002,0.035,0.015,0.062l0.245,0.511c0.106-0.049,0.217-0.103,0.333-0.16c0.15-0.074,0.285-0.142,0.403-0.203
				L11.051,4.98l-0.115-0.23l-0.101-0.2c-0.016-0.03-0.029-0.046-0.04-0.05c-0.017-0.007-0.048-0.003-0.093,0.011L10.55,4.547
				l-0.031-0.063c0.16-0.069,0.275-0.121,0.345-0.155c0.076-0.038,0.18-0.094,0.312-0.168l0.031,0.063
				c-0.1,0.079-0.155,0.125-0.166,0.139c-0.011,0.014-0.017,0.025-0.018,0.036c-0.001,0.017,0.014,0.058,0.046,0.124
				c0.052,0.108,0.142,0.292,0.27,0.553l0.254,0.506l0.015,0.03c0.017,0.034,0.033,0.052,0.049,0.056
				c0.026,0.006,0.106-0.01,0.239-0.048l0.031,0.063c-0.19,0.084-0.311,0.138-0.361,0.163c-0.083,0.041-0.184,0.095-0.299,0.162
				l-0.031-0.063l0.166-0.136c0.009-0.011,0.014-0.022,0.016-0.035c0.002-0.02-0.006-0.051-0.026-0.092l-0.243-0.507
				c-0.181,0.084-0.318,0.15-0.413,0.197c-0.103,0.05-0.21,0.105-0.323,0.166l0.259,0.517c0.018,0.037,0.033,0.059,0.045,0.066
				s0.034,0.007,0.066,0.002c0.008-0.001,0.069-0.016,0.185-0.044l0.031,0.063c-0.169,0.074-0.288,0.127-0.356,0.161
				c-0.084,0.042-0.186,0.096-0.302,0.164l-0.031-0.063c0.064-0.053,0.113-0.092,0.146-0.117c0.025-0.018,0.039-0.034,0.042-0.047
				c0.004-0.017-0.003-0.045-0.022-0.083c-0.065-0.138-0.16-0.333-0.285-0.587L9.92,5.037L9.903,5.002
				c-0.013-0.025-0.025-0.04-0.038-0.046c-0.012-0.006-0.033-0.006-0.061,0L9.62,5.005L9.588,4.941
				C9.729,4.882,9.846,4.83,9.938,4.784z M8.688,5.588c0.047-0.084,0.11-0.153,0.187-0.205C8.967,5.32,9.095,5.268,9.258,5.226
				c0.062,0.099,0.1,0.158,0.113,0.177c0.027,0.041,0.065,0.094,0.115,0.161L9.415,5.612C9.342,5.538,9.281,5.489,9.234,5.464
				C9.187,5.438,9.135,5.429,9.078,5.436C9.02,5.442,8.965,5.463,8.913,5.499c-0.075,0.05-0.119,0.112-0.134,0.186
				C8.764,5.758,8.778,5.826,8.82,5.888c0.037,0.055,0.088,0.091,0.152,0.107c0.063,0.017,0.186,0.009,0.367-0.022
				s0.319-0.03,0.415,0.002C9.848,6.01,9.924,6.069,9.981,6.153c0.051,0.076,0.08,0.158,0.086,0.249
				c0.006,0.09-0.015,0.18-0.063,0.269C9.956,6.76,9.888,6.833,9.801,6.892C9.743,6.932,9.68,6.966,9.612,6.994
				C9.545,7.022,9.46,7.049,9.358,7.076c-0.054-0.1-0.132-0.226-0.236-0.38l0.072-0.049c0.087,0.085,0.156,0.14,0.205,0.165
				c0.049,0.024,0.104,0.034,0.167,0.029c0.063-0.005,0.12-0.026,0.174-0.062c0.074-0.05,0.124-0.116,0.15-0.197
				c0.026-0.082,0.012-0.161-0.041-0.24c-0.043-0.064-0.102-0.107-0.176-0.13C9.6,6.191,9.474,6.195,9.296,6.225
				c-0.177,0.03-0.308,0.032-0.392,0.006C8.821,6.206,8.752,6.155,8.7,6.077C8.654,6.009,8.628,5.931,8.624,5.845
				C8.619,5.758,8.64,5.672,8.688,5.588z M7.677,6.357c0.09-0.077,0.25-0.222,0.482-0.434C8.282,6.051,8.393,6.161,8.49,6.253
				L8.425,6.309c-0.123-0.087-0.196-0.137-0.22-0.148C8.181,6.148,8.157,6.145,8.135,6.15C8.113,6.155,8.071,6.184,8.01,6.237
				l-0.19,0.164c0.134,0.165,0.304,0.365,0.508,0.601c0.19,0.22,0.321,0.366,0.392,0.439c0.017,0.017,0.032,0.026,0.045,0.026
				c0.017,0,0.075-0.028,0.175-0.083c0.009-0.006,0.023-0.013,0.043-0.023l0.046,0.053C8.91,7.506,8.806,7.59,8.718,7.667
				C8.634,7.739,8.55,7.817,8.468,7.9L8.422,7.847c0.015-0.023,0.027-0.04,0.036-0.05c0.066-0.082,0.101-0.132,0.105-0.152
				c0.001-0.009-0.001-0.02-0.006-0.031C8.552,7.603,8.496,7.534,8.39,7.408C8.225,7.212,8.103,7.069,8.022,6.976
				C7.882,6.813,7.757,6.671,7.648,6.55L7.444,6.727L7.408,6.759C7.375,6.788,7.357,6.81,7.353,6.826
				C7.346,6.85,7.35,6.884,7.366,6.928c0.012,0.034,0.046,0.103,0.103,0.208L7.403,7.194c-0.08-0.114-0.172-0.24-0.276-0.378
				C7.386,6.604,7.569,6.451,7.677,6.357z M5.959,8.121c0.07-0.081,0.147-0.176,0.232-0.287L6.245,7.88
				c-0.011,0.021-0.02,0.038-0.026,0.048C6.162,8.02,6.134,8.075,6.135,8.094c0,0.019,0.016,0.042,0.045,0.07
				c0.079,0.075,0.231,0.21,0.458,0.407c0.151,0.131,0.257,0.216,0.318,0.256c0.061,0.04,0.124,0.061,0.188,0.064
				s0.13-0.012,0.196-0.046s0.125-0.082,0.177-0.141c0.078-0.09,0.122-0.179,0.131-0.269c0.009-0.089-0.011-0.172-0.061-0.247
				c-0.049-0.075-0.169-0.195-0.36-0.36C6.976,7.61,6.826,7.483,6.777,7.447c-0.021-0.015-0.04-0.022-0.056-0.02
				s-0.066,0.034-0.15,0.095C6.563,7.529,6.549,7.539,6.53,7.551L6.477,7.505c0.104-0.106,0.181-0.188,0.232-0.247
				c0.057-0.065,0.119-0.143,0.185-0.233l0.053,0.046c-0.009,0.02-0.016,0.035-0.021,0.044C6.876,7.206,6.852,7.26,6.852,7.278
				s0.01,0.038,0.031,0.06c0.042,0.048,0.179,0.173,0.411,0.377c0.18,0.157,0.292,0.26,0.335,0.308
				c0.061,0.066,0.104,0.127,0.128,0.182s0.038,0.119,0.04,0.191c0.002,0.072-0.011,0.142-0.038,0.209
				C7.721,8.693,7.67,8.774,7.605,8.85C7.533,8.933,7.458,8.998,7.379,9.044C7.3,9.091,7.227,9.116,7.159,9.12
				C7.09,9.123,7.023,9.112,6.958,9.086C6.892,9.06,6.812,9.005,6.716,8.922l-0.407-0.36C6.157,8.43,6.07,8.356,6.05,8.341
				C6.019,8.317,5.995,8.304,5.979,8.302C5.967,8.299,5.955,8.3,5.942,8.306C5.933,8.31,5.889,8.341,5.811,8.4
				c-0.01,0.007-0.025,0.019-0.047,0.032L5.71,8.387C5.81,8.286,5.893,8.197,5.959,8.121z M5.076,9.287
				c0.125-0.197,0.287-0.315,0.487-0.352c0.199-0.038,0.409,0.013,0.628,0.153C6.435,9.242,6.585,9.43,6.643,9.651
				c0.058,0.221,0.018,0.438-0.118,0.653c-0.128,0.201-0.292,0.32-0.495,0.355c-0.202,0.036-0.421-0.021-0.657-0.17
				c-0.221-0.14-0.359-0.323-0.416-0.548S4.941,9.499,5.076,9.287z M5.271,22.32c-0.23-0.068-0.409-0.224-0.538-0.466
				c-0.121-0.227-0.148-0.442-0.083-0.647s0.224-0.375,0.476-0.509c0.236-0.126,0.47-0.152,0.702-0.081
				c0.232,0.072,0.412,0.228,0.54,0.467c0.119,0.223,0.146,0.436,0.083,0.639c-0.063,0.203-0.212,0.367-0.446,0.491
				C5.745,22.353,5.5,22.388,5.271,22.32z M6.585,24.03c-0.061,0.013-0.129,0.012-0.204-0.003c-0.075-0.015-0.145-0.043-0.209-0.087
				c-0.085-0.059-0.16-0.13-0.226-0.214c-0.074-0.094-0.128-0.187-0.162-0.278c-0.035-0.092-0.048-0.173-0.041-0.244
				s0.03-0.138,0.068-0.2c0.038-0.062,0.107-0.133,0.209-0.212l0.439-0.338c0.162-0.127,0.252-0.199,0.272-0.217
				c0.029-0.027,0.047-0.049,0.052-0.064c0.005-0.012,0.005-0.025,0.002-0.039c-0.002-0.011-0.027-0.063-0.075-0.157
				c-0.006-0.012-0.015-0.03-0.025-0.056l0.057-0.045c0.086,0.125,0.164,0.231,0.232,0.317c0.071,0.091,0.156,0.192,0.256,0.306
				l-0.057,0.044c-0.02-0.017-0.035-0.028-0.045-0.037c-0.085-0.08-0.137-0.121-0.157-0.125c-0.019-0.004-0.046,0.007-0.08,0.031
				c-0.09,0.064-0.255,0.19-0.496,0.38c-0.161,0.126-0.267,0.216-0.318,0.27c-0.051,0.054-0.083,0.113-0.098,0.18
				c-0.015,0.065-0.01,0.137,0.014,0.213c0.024,0.077,0.063,0.148,0.115,0.215c0.079,0.102,0.164,0.167,0.254,0.197
				c0.091,0.029,0.179,0.027,0.264-0.007s0.229-0.131,0.432-0.289c0.268-0.21,0.424-0.336,0.469-0.378
				c0.02-0.019,0.03-0.036,0.03-0.054c0-0.017-0.024-0.075-0.073-0.177c-0.005-0.01-0.013-0.026-0.023-0.049l0.057-0.044
				C7.613,23,7.685,23.099,7.736,23.164c0.058,0.074,0.127,0.156,0.208,0.245l-0.057,0.044c-0.019-0.014-0.033-0.024-0.042-0.032
				c-0.084-0.071-0.136-0.109-0.154-0.113s-0.041,0.002-0.066,0.019c-0.056,0.032-0.208,0.146-0.458,0.338
				c-0.192,0.149-0.316,0.241-0.374,0.275C6.716,23.987,6.646,24.018,6.585,24.03z M7.726,25.427
				c0.007,0.009,0.018,0.023,0.031,0.043l-0.048,0.053c-0.114-0.115-0.217-0.216-0.311-0.301c-0.089-0.081-0.183-0.16-0.282-0.238
				l0.048-0.054c0.026,0.014,0.045,0.024,0.058,0.033c0.095,0.062,0.154,0.093,0.175,0.095c0.01,0,0.02-0.003,0.03-0.009
				c0.011-0.007,0.074-0.071,0.189-0.193c0.178-0.19,0.309-0.332,0.394-0.425C8.158,24.269,8.287,24.125,8.397,24l-0.216-0.196
				l-0.04-0.035c-0.034-0.031-0.06-0.048-0.078-0.051c-0.026-0.005-0.061,0.003-0.104,0.023c-0.033,0.017-0.101,0.059-0.202,0.127
				l-0.07-0.063c0.107-0.095,0.224-0.202,0.352-0.324c0.261,0.25,0.449,0.428,0.563,0.531c0.095,0.086,0.27,0.24,0.526,0.462
				c-0.114,0.141-0.212,0.267-0.293,0.376l-0.068-0.062c0.072-0.136,0.112-0.217,0.121-0.244c0.009-0.026,0.009-0.051,0-0.073
				c-0.008-0.023-0.045-0.064-0.11-0.123l-0.201-0.183c-0.15,0.155-0.333,0.351-0.548,0.587c-0.2,0.219-0.332,0.369-0.397,0.45
				c-0.015,0.02-0.022,0.036-0.02,0.05C7.615,25.27,7.653,25.328,7.726,25.427z M8.949,26.411c-0.107-0.017-0.208-0.058-0.3-0.122
				c-0.063-0.043-0.122-0.094-0.177-0.149c-0.055-0.056-0.116-0.13-0.185-0.221c0.076-0.087,0.167-0.208,0.276-0.364l0.078,0.054
				c-0.048,0.116-0.074,0.202-0.078,0.259c-0.004,0.057,0.009,0.114,0.039,0.174c0.03,0.059,0.074,0.108,0.132,0.148
				c0.079,0.055,0.164,0.081,0.254,0.078c0.09-0.002,0.163-0.044,0.218-0.123c0.045-0.064,0.063-0.138,0.056-0.218
				c-0.009-0.079-0.064-0.201-0.166-0.364c-0.102-0.163-0.157-0.291-0.166-0.383c-0.01-0.091,0.013-0.175,0.068-0.254
				c0.048-0.068,0.113-0.121,0.196-0.155c0.083-0.035,0.175-0.044,0.277-0.027c0.102,0.018,0.194,0.055,0.277,0.111
				c0.099,0.069,0.203,0.177,0.311,0.322c-0.071,0.095-0.114,0.152-0.128,0.173c-0.028,0.04-0.065,0.097-0.11,0.168l-0.077-0.053
				c0.042-0.098,0.066-0.174,0.072-0.229c0.005-0.055-0.007-0.109-0.037-0.163c-0.029-0.054-0.072-0.101-0.129-0.14
				c-0.08-0.056-0.159-0.077-0.236-0.066c-0.078,0.012-0.139,0.049-0.183,0.111c-0.039,0.056-0.053,0.117-0.043,0.187
				c0.009,0.067,0.066,0.185,0.171,0.352s0.16,0.303,0.167,0.407c0.006,0.104-0.021,0.2-0.08,0.285
				c-0.053,0.076-0.123,0.133-0.208,0.171S9.056,26.428,8.949,26.411z M11.145,27.57l-0.032,0.064
				c-0.197-0.108-0.322-0.176-0.376-0.203c-0.09-0.045-0.201-0.096-0.334-0.152l0.032-0.064l0.224,0.056
				c0.015,0.001,0.028-0.001,0.04-0.007c0.018-0.011,0.038-0.036,0.06-0.078l0.262-0.511c-0.19-0.1-0.336-0.175-0.439-0.227
				c-0.11-0.056-0.228-0.112-0.353-0.17l-0.261,0.529c-0.019,0.037-0.027,0.063-0.025,0.077c0.002,0.014,0.017,0.033,0.042,0.057
				c0.006,0.006,0.06,0.049,0.16,0.128l-0.032,0.064c-0.174-0.098-0.297-0.164-0.371-0.201c-0.091-0.046-0.204-0.097-0.337-0.154
				l0.032-0.063c0.088,0.021,0.153,0.039,0.195,0.051c0.032,0.01,0.054,0.012,0.067,0.006c0.017-0.007,0.036-0.029,0.055-0.069
				c0.072-0.138,0.172-0.336,0.302-0.594l0.265-0.543l0.018-0.035c0.013-0.025,0.018-0.045,0.014-0.06
				c-0.003-0.014-0.017-0.03-0.041-0.051l-0.164-0.125l0.032-0.064c0.144,0.082,0.265,0.147,0.364,0.196
				c0.104,0.053,0.219,0.105,0.347,0.159l-0.033,0.064l-0.203-0.057c-0.026-0.006-0.046-0.006-0.061,0
				c-0.014,0.007-0.028,0.023-0.042,0.05l-0.265,0.515c0.112,0.059,0.23,0.119,0.355,0.183c0.162,0.081,0.308,0.152,0.438,0.215
				l0.038-0.078l0.117-0.235l0.1-0.205c0.015-0.031,0.02-0.052,0.016-0.063c-0.005-0.018-0.029-0.042-0.071-0.071l-0.131-0.106
				l0.032-0.064c0.164,0.092,0.284,0.157,0.358,0.194c0.083,0.042,0.198,0.095,0.348,0.159l-0.032,0.064
				c-0.132-0.035-0.208-0.054-0.226-0.055s-0.032,0.001-0.042,0.007c-0.015,0.009-0.039,0.047-0.073,0.113
				c-0.056,0.108-0.15,0.295-0.283,0.561l-0.255,0.52l-0.015,0.03c-0.017,0.034-0.022,0.059-0.014,0.074
				C10.958,27.426,11.024,27.482,11.145,27.57z M12.447,26.393c-0.021,0.01-0.042,0.043-0.061,0.098l-0.014,0.04l-0.166,0.462
				l-0.228,0.675c-0.019,0.055-0.022,0.092-0.012,0.111c0.011,0.021,0.061,0.052,0.149,0.094c0.017,0.009,0.042,0.022,0.073,0.041
				l-0.023,0.068c-0.121-0.052-0.239-0.097-0.354-0.137c-0.119-0.041-0.251-0.081-0.396-0.122l0.023-0.068
				c0.025,0.002,0.043,0.004,0.055,0.007c0.116,0.02,0.184,0.024,0.205,0.016c0.021-0.01,0.042-0.045,0.063-0.105l0.018-0.059
				l0.149-0.423c0.15-0.436,0.232-0.677,0.245-0.724c0.007-0.026,0.006-0.049-0.004-0.067s-0.063-0.056-0.158-0.109
				c-0.013-0.008-0.031-0.021-0.056-0.036l0.023-0.068c0.165,0.066,0.294,0.115,0.389,0.148c0.105,0.036,0.226,0.072,0.363,0.11
				l-0.023,0.068c-0.029-0.004-0.051-0.006-0.064-0.009C12.534,26.386,12.469,26.383,12.447,26.393z M14.791,26.862
				c-0.022,0.002-0.039,0.002-0.05,0.002c-0.112,0.002-0.174,0.005-0.188,0.01c-0.01,0.003-0.018,0.009-0.026,0.018
				c-0.01,0.011-0.021,0.034-0.03,0.068c-0.004,0.016-0.026,0.124-0.068,0.326s-0.081,0.397-0.117,0.587
				c-0.042,0.224-0.075,0.414-0.096,0.569l-0.085,0.021l-0.383-0.717l-0.507-0.915l-0.129,0.71
				c-0.055,0.311-0.082,0.478-0.082,0.499c0,0.015,0.005,0.028,0.015,0.041c0.015,0.02,0.071,0.048,0.17,0.085
				c0.012,0.004,0.029,0.011,0.052,0.021l-0.013,0.071c-0.121-0.032-0.224-0.057-0.308-0.072c-0.07-0.014-0.194-0.033-0.372-0.058
				l0.013-0.07c0.029-0.001,0.052-0.002,0.066-0.003c0.1,0.002,0.158-0.003,0.176-0.015c0.01-0.006,0.019-0.017,0.026-0.033
				c0.015-0.035,0.047-0.174,0.097-0.414c0.069-0.342,0.11-0.543,0.122-0.605c0.039-0.201,0.057-0.313,0.056-0.336
				c0-0.017-0.008-0.032-0.023-0.047c-0.016-0.014-0.088-0.045-0.218-0.093c-0.014-0.005-0.035-0.014-0.062-0.025l0.013-0.071
				c0.1,0.028,0.179,0.048,0.238,0.06c0.047,0.009,0.132,0.021,0.255,0.035l0.261,0.49c0.024,0.044,0.209,0.382,0.557,1.013
				c0.022-0.111,0.038-0.192,0.048-0.243c0.022-0.119,0.061-0.338,0.114-0.655c0.025-0.148,0.037-0.229,0.035-0.243
				s-0.009-0.027-0.021-0.04c-0.012-0.014-0.065-0.038-0.16-0.075c-0.012-0.005-0.03-0.013-0.054-0.024l0.014-0.07
				c0.141,0.036,0.254,0.062,0.338,0.078c0.082,0.016,0.196,0.032,0.342,0.052L14.791,26.862z M16.247,28.542
				c-0.297-0.015-0.568-0.023-0.814-0.028c-0.171-0.003-0.361-0.002-0.568,0.003l0.001-0.072l0.199-0.039
				c0.032-0.009,0.052-0.017,0.06-0.025c0.013-0.016,0.019-0.048,0.02-0.097l0-0.021l0.012-0.287
				c0.001-0.055,0.004-0.164,0.007-0.325c0.004-0.235,0.007-0.408,0.007-0.518c0-0.109-0.002-0.171-0.009-0.187
				c-0.005-0.01-0.012-0.018-0.022-0.023c-0.01-0.007-0.047-0.018-0.113-0.033l-0.131-0.032l0.001-0.072
				c0.153,0.012,0.337,0.02,0.55,0.024c0.117,0.002,0.395,0.003,0.833,0.002c-0.001,0.141,0.006,0.28,0.021,0.418l-0.086-0.002
				c-0.03-0.111-0.056-0.186-0.075-0.223c-0.014-0.025-0.03-0.042-0.05-0.051c-0.027-0.011-0.086-0.018-0.179-0.019l-0.495-0.01
				L15.4,27.317l-0.008,0.24l0.296,0.006c0.114,0.002,0.182,0.001,0.202-0.005s0.038-0.019,0.05-0.037
				c0.013-0.018,0.03-0.072,0.05-0.161c0.003-0.009,0.007-0.022,0.012-0.041l0.081,0.001c-0.012,0.135-0.018,0.237-0.02,0.311
				c-0.001,0.074,0.001,0.177,0.008,0.308l-0.081-0.002c-0.021-0.118-0.035-0.185-0.041-0.198c-0.008-0.02-0.022-0.034-0.042-0.043
				c-0.021-0.009-0.081-0.015-0.182-0.017l-0.336-0.006l-0.007,0.718l0.513,0.01l0.045-0.001c0.07,0.002,0.114,0,0.132-0.006
				c0.031-0.01,0.059-0.027,0.083-0.052c0.024-0.024,0.069-0.094,0.135-0.208c0.006-0.011,0.017-0.027,0.03-0.049l0.084,0.001
				C16.397,28.112,16.343,28.264,16.247,28.542z M17.664,28.192c-0.04,0.084-0.106,0.155-0.199,0.213
				c-0.092,0.057-0.193,0.092-0.307,0.103c-0.076,0.008-0.152,0.009-0.231,0.002c-0.078-0.007-0.172-0.022-0.284-0.047
				c0-0.115-0.009-0.268-0.028-0.456l0.094-0.01c0.04,0.119,0.076,0.201,0.11,0.247c0.034,0.045,0.082,0.081,0.143,0.105
				c0.062,0.025,0.126,0.034,0.197,0.027c0.096-0.01,0.177-0.045,0.244-0.106c0.066-0.061,0.095-0.14,0.084-0.235
				c-0.008-0.079-0.041-0.146-0.099-0.201c-0.06-0.055-0.181-0.11-0.364-0.168s-0.309-0.118-0.375-0.182s-0.104-0.143-0.114-0.237
				c-0.008-0.084,0.007-0.166,0.047-0.246c0.04-0.081,0.104-0.147,0.193-0.201s0.183-0.086,0.282-0.096
				c0.121-0.013,0.27,0.001,0.445,0.041c0.008,0.118,0.014,0.19,0.016,0.214c0.006,0.05,0.015,0.116,0.027,0.2l-0.093,0.01
				c-0.032-0.102-0.063-0.176-0.095-0.221c-0.032-0.045-0.077-0.078-0.135-0.1c-0.058-0.022-0.121-0.029-0.188-0.022
				c-0.097,0.01-0.171,0.045-0.223,0.104c-0.052,0.059-0.074,0.127-0.066,0.203c0.007,0.067,0.037,0.123,0.089,0.169
				c0.051,0.046,0.171,0.098,0.359,0.155c0.188,0.059,0.318,0.125,0.392,0.2c0.072,0.076,0.114,0.166,0.125,0.269
				C17.72,28.02,17.704,28.107,17.664,28.192z M17.622,20.114c-0.377,0-0.643-0.326-0.643-0.874c0-0.54,0.266-0.858,0.643-0.858
				s0.642,0.318,0.642,0.858C18.264,19.788,17.999,20.114,17.622,20.114z M19.412,27.217c0.086,0.284,0.146,0.475,0.183,0.572
				c0.009,0.023,0.019,0.037,0.031,0.043c0.017,0.007,0.087,0.004,0.209-0.008c0.012-0.002,0.029-0.003,0.053-0.004l0.021,0.068
				c-0.157,0.038-0.297,0.075-0.418,0.111c-0.115,0.035-0.231,0.074-0.35,0.119L19.12,28.05c0.025-0.015,0.045-0.026,0.059-0.032
				c0.102-0.051,0.158-0.084,0.171-0.102c0.006-0.008,0.008-0.019,0.008-0.031c0.001-0.012-0.022-0.1-0.068-0.262
				c-0.072-0.25-0.126-0.436-0.162-0.556c-0.063-0.209-0.119-0.394-0.171-0.553l-0.278,0.084l-0.051,0.017
				c-0.044,0.014-0.072,0.026-0.084,0.04c-0.018,0.021-0.028,0.054-0.033,0.102c-0.003,0.037-0.002,0.116,0.005,0.238l-0.09,0.027
				c-0.026-0.14-0.059-0.296-0.097-0.468c0.349-0.096,0.597-0.165,0.744-0.21c0.123-0.036,0.345-0.107,0.667-0.214
				c0.062,0.171,0.119,0.319,0.172,0.445l-0.088,0.026c-0.08-0.131-0.129-0.208-0.146-0.229c-0.019-0.021-0.04-0.034-0.063-0.039
				c-0.024-0.004-0.078,0.007-0.162,0.031l-0.26,0.078C19.247,26.654,19.321,26.911,19.412,27.217z M21.855,27.037
				c-0.091,0.044-0.199,0.102-0.325,0.173l-0.031-0.065l0.181-0.143c0.01-0.012,0.017-0.023,0.019-0.036
				c0.003-0.021-0.006-0.052-0.025-0.095l-0.245-0.52c-0.195,0.09-0.344,0.16-0.447,0.21c-0.111,0.054-0.228,0.112-0.35,0.176
				l0.261,0.529c0.018,0.038,0.033,0.061,0.046,0.067c0.012,0.007,0.036,0.007,0.07,0.001c0.009-0.002,0.075-0.018,0.199-0.049
				l0.031,0.064c-0.183,0.079-0.312,0.136-0.386,0.172c-0.092,0.045-0.201,0.103-0.327,0.174l-0.032-0.065
				c0.071-0.056,0.124-0.097,0.16-0.123c0.026-0.02,0.042-0.035,0.045-0.049c0.005-0.018-0.002-0.047-0.021-0.086
				c-0.066-0.142-0.162-0.342-0.287-0.602l-0.27-0.541l-0.017-0.035c-0.013-0.026-0.025-0.042-0.038-0.048
				c-0.014-0.006-0.035-0.005-0.065,0.001l-0.199,0.054l-0.031-0.065c0.152-0.063,0.278-0.119,0.378-0.168
				c0.104-0.051,0.217-0.109,0.337-0.178l0.031,0.064l-0.168,0.126c-0.021,0.018-0.033,0.034-0.037,0.049
				c-0.003,0.015,0.001,0.036,0.015,0.063l0.246,0.523c0.115-0.053,0.235-0.109,0.361-0.17c0.163-0.079,0.309-0.151,0.438-0.216
				l-0.039-0.077l-0.115-0.236l-0.103-0.204c-0.016-0.03-0.029-0.048-0.04-0.051c-0.019-0.007-0.052-0.003-0.101,0.013l-0.164,0.039
				l-0.031-0.064c0.173-0.074,0.297-0.129,0.372-0.166c0.083-0.04,0.196-0.1,0.339-0.179l0.031,0.065
				c-0.109,0.083-0.169,0.132-0.182,0.146c-0.012,0.015-0.019,0.026-0.02,0.037c-0.002,0.018,0.013,0.06,0.045,0.127
				c0.052,0.111,0.142,0.3,0.271,0.566l0.256,0.519l0.016,0.03c0.017,0.035,0.033,0.054,0.051,0.058
				c0.027,0.005,0.113-0.013,0.257-0.054l0.031,0.064C22.04,26.953,21.909,27.011,21.855,27.037z M23.021,26.316
				c-0.14,0.1-0.292,0.213-0.455,0.341l-0.042-0.059l0.137-0.15c0.021-0.025,0.031-0.044,0.032-0.056
				c0.001-0.02-0.013-0.05-0.041-0.089l-0.013-0.019l-0.162-0.236c-0.031-0.046-0.094-0.135-0.188-0.267
				c-0.137-0.191-0.237-0.331-0.303-0.419c-0.064-0.089-0.104-0.137-0.118-0.145c-0.01-0.005-0.021-0.008-0.032-0.007
				s-0.049,0.015-0.11,0.041l-0.124,0.053l-0.042-0.059c0.13-0.082,0.282-0.185,0.455-0.309c0.096-0.067,0.318-0.232,0.671-0.494
				c0.083,0.113,0.172,0.221,0.266,0.322l-0.069,0.05c-0.091-0.071-0.155-0.115-0.193-0.134c-0.026-0.012-0.05-0.016-0.071-0.011
				c-0.027,0.008-0.079,0.038-0.154,0.091l-0.403,0.288l0.222,0.324l0.137,0.198l0.241-0.172c0.093-0.066,0.146-0.108,0.159-0.125
				s0.02-0.036,0.019-0.059c0-0.023-0.019-0.076-0.056-0.16c-0.003-0.009-0.008-0.021-0.015-0.04l0.065-0.047
				c0.07,0.114,0.127,0.201,0.169,0.26c0.044,0.062,0.106,0.143,0.189,0.243l-0.065,0.047c-0.088-0.082-0.139-0.128-0.151-0.136
				c-0.018-0.011-0.037-0.014-0.059-0.009s-0.074,0.036-0.156,0.095l-0.273,0.195l0.422,0.581l0.418-0.298l0.036-0.027
				c0.058-0.041,0.092-0.069,0.103-0.084c0.02-0.026,0.031-0.057,0.036-0.091s0-0.116-0.016-0.248
				c-0.001-0.013-0.003-0.032-0.005-0.058l0.068-0.049c0.008,0.026,0.055,0.181,0.144,0.462
				C23.443,26.02,23.22,26.174,23.021,26.316z M25.58,24c-0.046,0.05-0.09,0.104-0.131,0.162c-0.07-0.015-0.16-0.03-0.271-0.046
				c-0.11-0.017-0.177-0.025-0.199-0.027c-0.013,0-0.025-0.002-0.038-0.003l-0.453-0.053c-0.051,0.053-0.104,0.103-0.161,0.151
				l0.458,0.41c0.02,0.016,0.038,0.022,0.056,0.021c0.025-0.004,0.08-0.037,0.163-0.1c0.012-0.01,0.03-0.022,0.057-0.04l0.053,0.049
				c-0.106,0.103-0.198,0.195-0.274,0.278c-0.082,0.089-0.171,0.191-0.266,0.307l-0.053-0.049l0.027-0.046
				c0.063-0.101,0.095-0.162,0.096-0.183c0-0.021-0.013-0.046-0.038-0.072c-0.016-0.018-0.168-0.161-0.456-0.43l-0.426-0.386
				c-0.064-0.06-0.104-0.092-0.115-0.098c-0.013-0.006-0.024-0.007-0.038-0.003c-0.043,0.016-0.099,0.05-0.167,0.104
				c-0.011,0.008-0.027,0.02-0.05,0.035l-0.053-0.049c0.153-0.152,0.274-0.277,0.362-0.373c0.051-0.055,0.099-0.107,0.142-0.156
				c0.056-0.066,0.096-0.111,0.118-0.136c0.108-0.117,0.217-0.18,0.327-0.188c0.109-0.008,0.212,0.032,0.307,0.119
				c0.063,0.059,0.106,0.124,0.131,0.195c0.024,0.072,0.029,0.148,0.017,0.23c-0.01,0.059-0.037,0.13-0.081,0.215l0.666,0.06
				c0.083,0.008,0.133,0.011,0.15,0.009c0.026-0.004,0.055-0.014,0.086-0.029c0.044-0.021,0.112-0.063,0.203-0.128l0.053,0.049
				C25.688,23.891,25.62,23.957,25.58,24z M26.102,23.304c-0.098,0.141-0.202,0.299-0.313,0.475l-0.06-0.041l0.078-0.188
				c0.012-0.031,0.016-0.053,0.012-0.063c-0.006-0.02-0.028-0.043-0.068-0.07l-0.019-0.013L25.5,23.234
				c-0.045-0.032-0.134-0.095-0.267-0.188c-0.193-0.134-0.335-0.231-0.426-0.293c-0.091-0.061-0.145-0.093-0.16-0.096
				c-0.011-0.002-0.021,0-0.032,0.005s-0.041,0.03-0.091,0.075l-0.1,0.092l-0.059-0.041c0.095-0.121,0.203-0.269,0.325-0.444
				c0.066-0.096,0.221-0.326,0.464-0.691c0.117,0.079,0.236,0.151,0.359,0.215l-0.049,0.07c-0.109-0.036-0.185-0.057-0.227-0.061
				c-0.028-0.003-0.052,0.001-0.07,0.014c-0.024,0.016-0.063,0.062-0.115,0.138l-0.282,0.406l0.317,0.231l0.195,0.14l0.169-0.243
				c0.065-0.094,0.102-0.15,0.108-0.171s0.006-0.041-0.002-0.063c-0.009-0.021-0.044-0.064-0.106-0.131
				c-0.006-0.007-0.016-0.019-0.028-0.033l0.046-0.066c0.105,0.084,0.188,0.147,0.247,0.188c0.062,0.043,0.148,0.098,0.261,0.165
				l-0.047,0.066c-0.11-0.049-0.173-0.074-0.188-0.077c-0.021-0.005-0.04-0.001-0.059,0.011c-0.019,0.013-0.057,0.06-0.115,0.143
				l-0.191,0.275l0.593,0.405l0.293-0.421l0.025-0.038c0.04-0.058,0.063-0.096,0.068-0.113c0.009-0.032,0.01-0.064,0.003-0.098
				c-0.007-0.034-0.039-0.11-0.098-0.229c-0.006-0.012-0.014-0.029-0.024-0.053l0.048-0.069c0.017,0.023,0.113,0.152,0.29,0.387
				C26.4,22.882,26.242,23.102,26.102,23.304z M27.089,21.798c-0.035,0.067-0.077,0.133-0.125,0.194
				c-0.049,0.062-0.113,0.133-0.195,0.212c-0.096-0.063-0.229-0.14-0.396-0.227l0.043-0.084c0.121,0.032,0.21,0.047,0.267,0.044
				s0.112-0.023,0.167-0.062s0.099-0.088,0.131-0.15c0.044-0.085,0.059-0.172,0.045-0.262c-0.015-0.089-0.065-0.155-0.151-0.2
				c-0.07-0.036-0.145-0.045-0.223-0.027c-0.078,0.02-0.191,0.091-0.34,0.212c-0.149,0.122-0.269,0.193-0.357,0.215
				c-0.089,0.021-0.176,0.01-0.262-0.035c-0.074-0.038-0.134-0.096-0.18-0.174c-0.045-0.078-0.065-0.168-0.063-0.271
				c0.004-0.104,0.029-0.2,0.075-0.289c0.056-0.107,0.148-0.224,0.278-0.35c0.104,0.059,0.166,0.093,0.188,0.104
				c0.044,0.022,0.104,0.052,0.182,0.087l-0.043,0.083c-0.103-0.029-0.182-0.043-0.236-0.042c-0.056,0.002-0.108,0.021-0.157,0.058
				c-0.05,0.036-0.091,0.085-0.122,0.146c-0.045,0.087-0.057,0.168-0.035,0.244c0.021,0.075,0.066,0.131,0.134,0.166
				c0.061,0.031,0.123,0.037,0.19,0.019c0.066-0.019,0.175-0.09,0.326-0.215c0.152-0.126,0.279-0.198,0.383-0.219
				c0.104-0.019,0.201-0.004,0.293,0.043c0.082,0.043,0.147,0.104,0.196,0.185s0.071,0.174,0.069,0.282
				C27.168,21.593,27.141,21.697,27.089,21.798z M27.612,20.578l-0.067-0.024c0.003-0.029,0.005-0.051,0.008-0.065
				c0.021-0.112,0.026-0.178,0.021-0.198c-0.004-0.01-0.011-0.018-0.021-0.025c-0.01-0.007-0.094-0.04-0.252-0.1
				c-0.244-0.09-0.425-0.156-0.543-0.199c-0.206-0.073-0.389-0.137-0.547-0.189l-0.098,0.274l-0.017,0.05
				c-0.016,0.044-0.021,0.075-0.017,0.092c0.005,0.026,0.025,0.056,0.062,0.087c0.027,0.025,0.093,0.07,0.195,0.138l-0.032,0.089
				c-0.128-0.063-0.272-0.129-0.435-0.199c0.13-0.338,0.221-0.579,0.273-0.725c0.043-0.12,0.117-0.342,0.222-0.663
				c0.175,0.051,0.328,0.093,0.461,0.125l-0.03,0.087c-0.153-0.015-0.244-0.021-0.272-0.018c-0.027,0.002-0.051,0.011-0.068,0.027
				s-0.041,0.066-0.07,0.149l-0.091,0.256c0.201,0.079,0.452,0.172,0.753,0.279c0.279,0.1,0.469,0.163,0.569,0.192
				c0.023,0.007,0.041,0.007,0.053-0.001c0.016-0.009,0.055-0.066,0.117-0.172c0.006-0.011,0.015-0.025,0.028-0.045l0.067,0.024
				c-0.063,0.148-0.115,0.283-0.158,0.402C27.684,20.34,27.646,20.457,27.612,20.578z"/>
			<path class="st1" d="M24.173,23.309c-0.087,0.006-0.172,0.054-0.253,0.142c-0.029,0.032-0.084,0.099-0.163,0.198l0.494,0.466
				c0.063-0.057,0.111-0.102,0.144-0.136c0.101-0.109,0.15-0.213,0.15-0.31c0-0.098-0.043-0.186-0.129-0.266
				C24.34,23.334,24.259,23.302,24.173,23.309z"/>
		</g>
	</g>
</g>
</svg>
