<?xml version="1.0" encoding="utf-8"?>
<!-- Generator: Adobe Illustrator 22.0.1, SVG Export Plug-In . SVG Version: 6.00 Build 0)  -->
<svg version="1.1" id="Layer_1" xmlns="http://www.w3.org/2000/svg" xmlns:xlink="http://www.w3.org/1999/xlink" x="0px" y="0px"
	 viewBox="0 0 32 32" style="enable-background:new 0 0 32 32;" xml:space="preserve">
<style type="text/css">
	.st0{fill:#FEFDFE;}
	.st1{fill:#7A2D9A;}
	.st2{fill:#AD1CA6;}
	.st3{fill:#5FA9D9;}
	.st4{fill:#3C92CA;}
</style>
<g>
	<ellipse class="st0" cx="16.093" cy="15.964" rx="14.596" ry="15.035"/>
	<g>
		<path class="st1" d="M17.005,21.148c0,0,1.262,2.475,0.322,4.702c0,0-0.569,0.916-0.99,1.213
			c-0.421,0.297-1.163-0.792-1.163-0.792s-0.817-1.064-0.643-2.722s0.792-2.401,0.792-2.401s-0.396-0.644-0.421-0.644
			c-0.025,0-1.584,2.549-2.104,2.945c-0.446,0.34-1.842,1.009-3.466,0.877c-0.267-0.022-0.54-0.065-0.816-0.135
			c0,0,3.467-0.47,4.58-2.005l1.521-2.524c0,0-0.879,0.371-2.772,1.151c0,0-2.529,0.285-4.08-0.342
			c-1.551-0.627-2.504-1.44-2.504-1.44v-0.297c0,0,1.51,0.903,3.675,1.473c0,0,2.017,0.173,2.834-0.074
			c0.817-0.247,2.351-1.027,2.351-1.027l-2.982,0.334c0,0-4.529-2.289-5.272-5.074c0,0,2.063,2.376,2.821,2.838
			c0,0,1.419,0.99,2.211,1.32l0.568,0.264l3.227-0.528l-2.31-0.891c0,0-1.848-2.211-2.343-4.125c0,0-0.462-1.089-0.66-2.31
			c-0.198-1.221,0-1.353,0-1.353s0.561,2.871,1.188,3.894c0,0,0.281,1.219,1.523,2.623l0.721,0.677l2.244,0.99
			c0,0,0.264,0.396,0.198-0.198c0,0-0.66-0.33-0.759-1.452c0,0-0.066-0.825,0.528-0.957c0,0-0.396,0.495-0.099,1.089l0.198,0.495
			c0,0-0.099-0.495,0.66-0.792l-0.198,0.495l0.297,0.033l0.099,0.198l0.231,0.033v-0.231l0.462,0.033l-0.231-0.363h0.264
			L17.005,21.148z"/>
		<path class="st1" d="M15.229,21.148c0,0-1.262,2.475-0.322,4.702c0,0,0.569,0.916,0.99,1.213c0.421,0.297,1.163-0.792,1.163-0.792
			s0.817-1.064,0.643-2.722s-0.792-2.401-0.792-2.401s0.396-0.644,0.421-0.644s1.584,2.549,2.104,2.945
			c0.446,0.34,1.842,1.009,3.466,0.877c0.267-0.022,0.54-0.065,0.816-0.135c0,0-3.467-0.47-4.58-2.005l-1.521-2.524
			c0,0,0.879,0.371,2.772,1.151c0,0,2.529,0.285,4.08-0.342c1.551-0.627,2.504-1.44,2.504-1.44v-0.297c0,0-1.51,0.903-3.675,1.473
			c0,0-2.017,0.173-2.834-0.074c-0.817-0.247-2.351-1.027-2.351-1.027l2.982,0.334c0,0,4.529-2.289,5.272-5.074
			c0,0-2.063,2.376-2.822,2.838c0,0-1.419,0.99-2.211,1.32l-0.568,0.264l-3.227-0.528l2.31-0.891c0,0,1.848-2.211,2.343-4.125
			c0,0,0.462-1.089,0.66-2.31s0-1.353,0-1.353s-0.561,2.871-1.188,3.894c0,0-0.281,1.219-1.523,2.623l-0.721,0.677l-2.244,0.99
			c0,0-0.264,0.396-0.198-0.198c0,0,0.66-0.33,0.759-1.452c0,0,0.066-0.825-0.528-0.957c0,0,0.396,0.495,0.099,1.089l-0.198,0.495
			c0,0,0.099-0.495-0.66-0.792l0.198,0.495l-0.297,0.033l-0.099,0.198l-0.231,0.033v-0.231l-0.462,0.033l0.231-0.363h-0.264
			L15.229,21.148z"/>
	</g>
	<ellipse cx="0.273" cy="15.504" rx="0.175" ry="0.001"/>
	<path class="st2" d="M16.111,0.185C7.377,0.185,0.296,7.265,0.296,16s7.081,15.815,15.815,15.815S31.927,24.735,31.927,16
		S24.846,0.185,16.111,0.185z M15.988,29.662c-7.573,0-13.712-6.183-13.712-13.811s6.139-13.81,13.712-13.81
		s13.712,6.183,13.712,13.81S23.56,29.662,15.988,29.662z"/>
	<g>
		<path class="st2" d="M14.024,8.154V5.663c0,0,0.008-0.264,0.239-0.264s3.448,0,3.448,0s0.264-0.049,0.239,0.314l0.002,2.442
			c0,0-0.026,0.165-0.278,0.231h-3.403C14.272,8.385,14.074,8.369,14.024,8.154z"/>
		<polygon class="st2" points="15.79,8.212 15.79,8.88 15.196,8.88 15.196,9.153 16.796,9.153 16.796,8.889 16.161,8.889 
			16.186,8.171 15.765,8.171 		"/>
		<rect x="14.305" y="5.605" class="st3" width="3.37" height="2.45"/>
	</g>
	<g>
		<path class="st2" d="M16.586,12.547v-2.491c0,0,0.008-0.264,0.239-0.264c0.231,0,3.449,0,3.449,0s0.264-0.049,0.239,0.314
			l0.002,2.442c0,0-0.026,0.165-0.278,0.231h-3.403C16.833,12.778,16.635,12.762,16.586,12.547z"/>
		<polygon class="st2" points="18.351,12.605 18.351,13.273 17.757,13.273 17.757,13.546 19.358,13.546 19.358,13.282 
			18.722,13.282 18.747,12.564 18.326,12.564 		"/>
		<rect x="16.866" y="9.998" class="st3" width="3.37" height="2.45"/>
	</g>
	<g>
		<path class="st2" d="M11.468,12.547v-2.491c0,0,0.008-0.264,0.239-0.264s3.449,0,3.449,0s0.264-0.049,0.239,0.314l0.002,2.442
			c0,0-0.026,0.165-0.278,0.231h-3.403C11.715,12.778,11.517,12.762,11.468,12.547z"/>
		<polygon class="st2" points="13.233,12.605 13.233,13.273 12.639,13.273 12.639,13.546 14.24,13.546 14.24,13.282 13.605,13.282 
			13.629,12.564 13.209,12.564 		"/>
		<rect x="11.748" y="9.998" class="st3" width="3.37" height="2.45"/>
	</g>
	<g>
		<rect x="11.929" y="6.533" class="st4" width="0.384" height="2.619"/>
		<rect x="11.929" y="6.409" class="st4" width="1.511" height="0.359"/>
	</g>
	<g>
		
			<rect x="19.641" y="6.533" transform="matrix(-1 -4.504498e-11 4.504498e-11 -1 39.6666 15.6856)" class="st4" width="0.384" height="2.619"/>
		
			<rect x="18.514" y="6.409" transform="matrix(-1 -4.454405e-11 4.454405e-11 -1 38.5393 13.1776)" class="st4" width="1.511" height="0.359"/>
	</g>
</g>
</svg>
