<?xml version="1.0" encoding="utf-8"?>
<!-- Generator: Adobe Illustrator 26.2.1, SVG Export Plug-In . SVG Version: 6.00 Build 0)  -->
<svg version="1.1" id="Layer_1" xmlns="http://www.w3.org/2000/svg" xmlns:xlink="http://www.w3.org/1999/xlink" x="0px" y="0px"
	 viewBox="0 0 32 32" style="enable-background:new 0 0 32 32;" xml:space="preserve">
<style type="text/css">
	.st0{fill:#7106FE;}
	.st1{fill:#EECD52;}
</style>
<g>
	<circle cx="15.986" cy="16.014" r="15.764"/>
	<g>
		<path class="st0" d="M22.269,7.228c0.582,0.406,0.617,0.986,0.593,1.632c-0.041,1.1,0.026,2.205-0.023,3.305
			c-0.04,0.907-0.431,1.653-1.312,2.128c0-0.102-0.021-0.167,0.003-0.204c0.783-1.232,0.667-2.61,0.653-3.973
			c-0.006-0.551,0.003-1.102-0.003-1.653c-0.004-0.411-0.201-0.521-0.595-0.408c-0.615,0.176-1.085,0.454-1.246,1.146
			c-0.107,0.456-0.29,0.908-0.513,1.322c-0.454,0.846-0.422,1.748-0.427,2.659c-0.002,0.364,0.241,0.513,0.464,0.654
			c0.487,0.308,0.571,0.726,0.617,1.278c0.101,1.216-0.31,2.267-0.809,3.316c-0.008,0.017-0.009,0.043-0.021,0.052
			c-0.932,0.618-1.336,1.691-2.11,2.447c-0.168,0.164-0.289,0.169-0.472,0.013c-0.344-0.293-0.712-0.773-1.07-0.773
			c-0.358,0-0.726,0.48-1.07,0.773c-0.183,0.156-0.295,0.139-0.474-0.01c-0.325-0.271-0.637-0.537-0.744-0.971
			c-0.115-0.465-0.527-0.675-0.845-0.964c-0.827-0.75-1.134-1.753-1.313-2.8c-0.07-0.406,0.017-0.836-0.019-1.251
			c-0.038-0.441,0.078-0.772,0.472-0.996c0.477-0.271,0.571-0.681,0.606-1.223c0.1-1.551-0.795-2.779-1.222-4.155
			c-0.065-0.209-1.115-0.632-1.306-0.559c-0.201,0.076-0.271,0.236-0.27,0.451c0.006,1.311-0.004,2.622,0.011,3.933
			c0.005,0.408,0.28,0.739,0.402,1.116c0.078,0.243,0.246,0.457,0.255,0.776c-0.872-0.43-1.27-1.161-1.314-2.01
			c-0.073-1.383,0.009-2.774-0.035-4.159C9.117,7.621,9.595,7.563,9.729,7.228c0.076,0,0.152,0,0.228,0
			c0.489,0.332,1.07,0.445,1.607,0.664c0.274,0.112,0.488,0.251,0.649,0.505c0.812,1.282,1.634,2.557,2.457,3.832
			c0.116,0.18,0.156,0.368,0.197,0.577c0.122,0.623-0.454,0.765-0.714,1.122c-0.057,0.032-0.115,0.064-0.172,0.097
			c0.082,0.074,0.166,0.057,0.25,0.004c1.02-0.447,1.015-0.447,0.94-1.317c-0.017-0.199-0.11-0.358-0.195-0.526
			c-0.55-1.079-1.094-2.162-1.652-3.237c-0.118-0.227-0.18-0.357,0.126-0.507c0.327-0.16,0.387,0.011,0.476,0.239
			c0.425,1.093,0.861,2.182,1.281,3.277c0.321,0.839,0.475,1.663-0.346,2.337c-0.022,0.02-0.043,0.04-0.065,0.06
			c0.015,0.006,0.031,0.011,0.046,0.017c0.008-0.024,0.017-0.048,0.025-0.072c0.831-0.18,0.854-0.216,0.865-1.009
			c0.007-0.495-0.048-0.977-0.162-1.46c-0.279-1.176-0.527-2.359-0.799-3.537c-0.069-0.297-0.038-0.491,0.286-0.621
			c0.289-0.116,0.604-0.206,0.832-0.445c0.076,0,0.152,0,0.228,0c0.301,0.385,1.055,0.249,1.123,0.785
			c0.058,0.46-0.192,0.953-0.276,1.436c-0.223,1.281-0.712,2.514-0.691,3.841c0.012,0.794,0.033,0.83,0.864,1.01
			c0.008,0.024,0.017,0.048,0.025,0.072c0.015-0.005,0.031-0.011,0.046-0.016c-0.022-0.02-0.043-0.04-0.065-0.06
			c-0.735-0.564-0.71-1.322-0.445-2.071c0.423-1.193,0.917-2.361,1.379-3.541c0.087-0.222,0.141-0.409,0.474-0.243
			c0.302,0.15,0.246,0.28,0.128,0.508c-0.567,1.091-1.124,2.188-1.678,3.286c-0.412,0.814-0.238,1.337,0.558,1.707
			c0.069,0.032,0.14,0.058,0.21,0.087c0.045,0.006,0.09,0.012,0.134,0.018c-0.017-0.039-0.035-0.078-0.052-0.117
			c-0.957-0.935-0.966-0.996-0.219-2.163c0.701-1.096,1.417-2.182,2.107-3.286c0.191-0.305,0.428-0.483,0.762-0.613
			c0.518-0.203,1.078-0.312,1.544-0.64C22.117,7.228,22.193,7.228,22.269,7.228z M14.81,17.17c0.07-1.129-0.851-2.067-1.87-2
			c-0.124,0.008-0.328-0.039-0.328,0.126c0.001,0.336-0.154,0.692,0.186,0.999c0.384,0.346,0.771,0.588,1.308,0.493
			C14.43,16.731,14.7,16.797,14.81,17.17z M17.192,17.291c0.107-0.49,0.375-0.568,0.698-0.502c0.57,0.116,0.962-0.183,1.347-0.535
			c0.312-0.285,0.196-0.652,0.137-0.952c-0.052-0.261-0.393-0.135-0.596-0.125C17.882,15.223,17.086,16.22,17.192,17.291z
			 M17.087,18.749c-0.761,0-1.415,0-2.177,0c0.361,0.304,0.647,0.537,0.923,0.781c0.124,0.109,0.217,0.104,0.338-0.003
			C16.445,19.283,16.73,19.051,17.087,18.749z"/>
		<path class="st1" d="M15.543,26.38c-0.22-0.442-0.66-0.653-1.018-0.943c-0.303-0.246-0.396-0.498-0.325-0.879
			c0.128-0.686,0.212-1.38,0.31-2.071c0.024-0.168,0.001-0.365,0.139-0.478c0.319-0.259,0.625-0.759,0.973-0.69
			c0.289,0.057,0.105,0.636,0.112,0.978c0.029,1.36,0.027,2.722,0.036,4.083C15.695,26.38,15.619,26.38,15.543,26.38z"/>
		<path class="st1" d="M16.227,26.38c0.011-1.538,0.019-3.075,0.035-4.613c0.002-0.161-0.091-0.387,0.087-0.47
			c0.177-0.082,0.273,0.156,0.416,0.232c0.644,0.343,0.73,0.96,0.799,1.589c0.045,0.414,0.022,0.853,0.156,1.236
			c0.22,0.627-0.098,0.947-0.524,1.282c-0.273,0.215-0.613,0.378-0.741,0.743C16.379,26.38,16.303,26.38,16.227,26.38z"/>
		<path class="st1" d="M18.45,21.201c0.187-0.008,0.195,0.136,0.244,0.224c0.273,0.497,0.539,0.999,0.803,1.501
			c0.269,0.511,0.03,1.038-0.534,1.232c-0.215,0.074-0.22-0.073-0.259-0.189c-0.237-0.697-0.477-1.393-0.698-2.095
			C17.876,21.463,18.302,21.413,18.45,21.201z"/>
		<path class="st1" d="M13.043,24.196c-0.23-0.197-0.54-0.399-0.763-0.673c-0.148-0.182,0.098-0.378,0.185-0.554
			c0.242-0.492,0.502-0.976,0.773-1.454c0.072-0.127,0.077-0.418,0.298-0.317c0.222,0.101,0.575,0.268,0.503,0.543
			c-0.211,0.802-0.507,1.582-0.769,2.371C13.242,24.196,13.191,24.237,13.043,24.196z"/>
		<path class="st1" d="M19.319,19.973c0.511,0.619,0.957,1.153,1.396,1.692c0.122,0.149-0.142,1.077-0.321,1.154
			c-0.153,0.065-0.199-0.07-0.25-0.158c-0.332-0.572-0.655-1.15-0.986-1.722C18.952,20.582,19.245,20.351,19.319,19.973z"/>
		<path class="st1" d="M12.63,20.021c0.352,0.433,0.36,0.804,0.069,1.225c-0.295,0.427-0.538,0.89-0.786,1.346
			c-0.163,0.299-0.333,0.25-0.463,0.01c-0.229-0.421-0.407-0.827,0.06-1.263C11.919,20.958,12.243,20.484,12.63,20.021z"/>
	</g>
</g>
</svg>
