<?xml version="1.0" encoding="utf-8"?>
<!-- Generator: Adobe Illustrator 25.4.1, SVG Export Plug-In . SVG Version: 6.00 Build 0)  -->
<svg version="1.1" id="Layer_1" xmlns="http://www.w3.org/2000/svg" xmlns:xlink="http://www.w3.org/1999/xlink" x="0px" y="0px"
	 viewBox="0 0 32 32" style="enable-background:new 0 0 32 32;" xml:space="preserve">
<style type="text/css">
	.st0{fill:#FEFFFF;}
	.st1{fill:#1B96A6;}
</style>
<g>
	<path class="st0" d="M0.241,16.685c-0.012,0-0.025,0-0.037,0c0-0.456,0-0.913,0-1.369c0.013,0,0.025,0,0.038,0
		C0.227,15.772,0.226,16.228,0.241,16.685z"/>
	<path class="st0" d="M15.366,31.797c0-0.007,0-0.013,0-0.02c0.431,0,0.862,0,1.293,0c0,0.007,0,0.013,0,0.02
		C16.228,31.797,15.797,31.797,15.366,31.797z"/>
	<path class="st1" d="M16.659,31.776c-0.431,0-0.862,0-1.293,0c-0.227-0.017-0.454-0.035-0.682-0.052
		c-0.666-0.049-1.325-0.148-1.978-0.288c-2.181-0.468-4.183-1.347-5.978-2.673c-3.119-2.304-5.151-5.341-6.075-9.112
		c-0.173-0.706-0.286-1.422-0.355-2.146c-0.026-0.273-0.04-0.547-0.059-0.821c-0.015-0.456-0.014-0.913,0-1.369
		c0.011-0.168,0.023-0.337,0.034-0.505c0.067-0.963,0.227-1.911,0.475-2.843c0.669-2.513,1.88-4.733,3.645-6.642
		c2.229-2.411,4.949-3.984,8.152-4.718c0.643-0.147,1.293-0.244,1.95-0.31c0.7-0.07,1.401-0.091,2.102-0.061
		c3.511,0.151,6.646,1.317,9.372,3.538c2.496,2.034,4.208,4.604,5.149,7.685c0.248,0.813,0.423,1.642,0.531,2.486
		c0.079,0.612,0.13,1.226,0.122,1.844c-0.005,0.427,0.007,0.853-0.023,1.28c-0.049,0.692-0.139,1.377-0.275,2.057
		c-0.304,1.522-0.814,2.972-1.561,4.332c-1.968,3.584-4.878,6.073-8.73,7.452c-0.953,0.341-1.934,0.57-2.936,0.713
		c-0.506,0.072-1.015,0.115-1.525,0.145C16.701,31.769,16.68,31.774,16.659,31.776z M16.889,9.004c-0.849,0-1.699,0-2.548,0
		c-0.849,0-1.699-0.003-2.548,0.002c-0.578,0.003-1.131,0.132-1.653,0.381c-1.563,0.746-2.433,2.388-2.146,4.083
		c0.273,1.61,1.537,2.81,3.071,3.114c0.35,0.069,0.704,0.074,1.059,0.074c2.143-0.003,4.285-0.001,6.428-0.001
		c0.038,0,0.076,0,0.114,0.001c0.416,0.008,0.738,0.318,0.769,0.742c0.029,0.384-0.263,0.745-0.654,0.812
		c-0.08,0.014-0.16,0.015-0.24,0.015c-2.569,0-5.139,0-7.708,0c-0.127,0-0.252,0.003-0.378,0.027
		c-0.563,0.108-1.154,0.596-1.216,1.382c-0.05,0.634,0.315,1.25,0.939,1.512c0.223,0.093,0.456,0.117,0.695,0.117
		c2.62,0,5.24,0,7.86,0c0.194,0,0.388-0.001,0.583-0.009c0.327-0.013,0.646-0.066,0.959-0.159c1.75-0.518,2.917-2.18,2.754-3.984
		c-0.048-0.534-0.189-1.04-0.461-1.501c-0.773-1.31-1.933-1.98-3.447-1.993c-2.02-0.018-4.04-0.006-6.06-0.006
		c-0.034,0-0.068,0.001-0.101,0c-0.336-0.015-0.621-0.229-0.724-0.543c-0.102-0.312-0.003-0.645,0.257-0.854
		c0.147-0.119,0.315-0.17,0.505-0.17c1.876,0.001,3.753,0,5.629,0c1.5,0,3,0.003,4.501-0.002c0.537-0.002,0.958-0.238,1.265-0.677
		c0.061-0.086,0.116-0.177,0.176-0.263c0.474-0.674,0.95-1.346,1.423-2.021c0.109-0.155,0.214-0.314,0.284-0.493
		c0.209-0.53,0.216-1.072,0.078-1.617c-0.172-0.678-0.546-1.233-1.075-1.68c-0.988-0.836-2.055-1.554-3.227-2.109
		c-1.697-0.804-3.495-1.215-5.364-1.325c-0.799-0.047-1.596-0.008-2.39,0.102c-0.85,0.118-1.686,0.3-2.507,0.552
		C10.1,3.031,8.557,3.831,7.183,4.948c-1.18,0.958-2.182,2.08-3.021,3.346c-0.702,1.058-1.258,2.188-1.638,3.401
		C2.189,12.763,2,13.859,1.922,14.976c-0.052,0.739-0.048,1.478,0.011,2.216c0.053,0.674,0.153,1.342,0.302,2.002
		c0.173,0.763,0.387,1.513,0.697,2.233c0.565,1.313,1.315,2.513,2.226,3.612c1.531,1.848,3.403,3.238,5.623,4.148
		c1.516,0.622,3.104,0.919,4.738,0.983c0.566,0.022,1.132,0.008,1.697-0.04c0.708-0.06,1.408-0.17,2.099-0.336
		c1.444-0.346,2.805-0.9,4.072-1.673c1.413-0.861,2.63-1.952,3.672-3.236c1.194-1.472,2.053-3.121,2.58-4.942
		c0.142-0.491,0.242-0.991,0.349-1.491c0.127-0.597,0.205-1.199,0.233-1.807c0.051-1.11-0.027-2.211-0.247-3.302
		c-0.174-0.863-0.426-1.703-0.768-2.515c-0.28-0.664-1.113-0.903-1.69-0.482c-0.497,0.363-0.609,0.893-0.374,1.453
		c0.047,0.113,0.103,0.222,0.146,0.337c0.192,0.503,0.311,1.025,0.401,1.555c0.042,0.25,0.064,0.503,0.111,0.752
		c0.092,0.487,0.134,0.979,0.144,1.473c0.009,0.478-0.017,0.954-0.07,1.429c-0.079,0.703-0.223,1.391-0.43,2.067
		c-0.575,1.875-1.581,3.496-2.937,4.899c-1.111,1.15-2.42,2.024-3.891,2.653c-1.243,0.531-2.542,0.83-3.891,0.896
		c-1.111,0.055-2.211-0.047-3.296-0.292c-0.73-0.165-1.452-0.359-2.14-0.654c-1.78-0.763-3.257-1.926-4.463-3.436
		c-1.149-1.438-1.917-3.066-2.383-4.84c-0.164-0.623-0.219-1.264-0.248-1.906c-0.03-0.684-0.013-1.368,0.063-2.05
		c0.083-0.749,0.224-1.486,0.439-2.207c0.571-1.915,1.564-3.579,3.016-4.954c1.143-1.082,2.453-1.917,3.904-2.53
		c1.214-0.513,2.477-0.809,3.797-0.847c1.03-0.03,2.05,0.049,3.06,0.263c1.889,0.4,3.599,1.168,5.067,2.442
		c0.155,0.135,0.162,0.298,0.058,0.443c-0.356,0.499-0.707,1.001-1.058,1.502c-0.064,0.091-0.148,0.147-0.251,0.182
		c-0.078,0.027-0.157,0.028-0.238,0.028C20.329,9.004,18.609,9.004,16.889,9.004z M11.487,22.078c-0.906,0-1.64,0.729-1.643,1.631
		c-0.004,0.907,0.732,1.647,1.64,1.649c0.911,0.001,1.651-0.731,1.648-1.639C13.128,22.758,12.341,22.065,11.487,22.078z
		 M17.919,23.693c-0.003,0.909,0.719,1.634,1.625,1.646c0.89,0.012,1.654-0.714,1.656-1.63c0.002-0.915-0.723-1.649-1.633-1.652
		C18.651,22.055,17.921,22.779,17.919,23.693z"/>
	<path class="st0" d="M16.889,9.004c1.72,0,3.44,0,5.16,0c0.081,0,0.16-0.001,0.238-0.028c0.103-0.035,0.187-0.091,0.251-0.182
		c0.351-0.502,0.703-1.004,1.058-1.502c0.104-0.146,0.097-0.308-0.058-0.443c-1.468-1.274-3.178-2.042-5.067-2.442
		c-1.01-0.214-2.03-0.293-3.06-0.263c-1.32,0.038-2.583,0.335-3.797,0.847c-1.451,0.612-2.761,1.448-3.904,2.53
		c-1.452,1.375-2.445,3.038-3.016,4.954c-0.215,0.722-0.357,1.458-0.439,2.207c-0.075,0.682-0.093,1.366-0.063,2.05
		c0.028,0.642,0.084,1.283,0.248,1.906c0.466,1.774,1.235,3.402,2.383,4.84c1.206,1.51,2.683,2.673,4.463,3.436
		c0.688,0.295,1.411,0.49,2.14,0.654c1.086,0.245,2.185,0.346,3.296,0.292c1.35-0.066,2.648-0.365,3.891-0.896
		c1.471-0.629,2.78-1.503,3.891-2.653c1.355-1.403,2.362-3.024,2.937-4.899c0.207-0.676,0.352-1.364,0.43-2.067
		c0.053-0.475,0.08-0.951,0.07-1.429c-0.01-0.495-0.051-0.986-0.144-1.473c-0.047-0.249-0.069-0.502-0.111-0.752
		c-0.09-0.529-0.209-1.051-0.401-1.555c-0.044-0.115-0.099-0.224-0.146-0.337c-0.236-0.56-0.124-1.09,0.374-1.453
		c0.577-0.421,1.41-0.181,1.69,0.482c0.343,0.811,0.594,1.651,0.768,2.515c0.22,1.091,0.298,2.192,0.247,3.302
		c-0.028,0.608-0.106,1.21-0.233,1.807c-0.106,0.5-0.207,1-0.349,1.491c-0.527,1.821-1.385,3.469-2.58,4.942
		c-1.042,1.285-2.259,2.375-3.672,3.236c-1.267,0.772-2.628,1.326-4.072,1.673c-0.691,0.166-1.39,0.276-2.099,0.336
		c-0.565,0.048-1.131,0.062-1.697,0.04c-1.633-0.064-3.221-0.361-4.738-0.983c-2.221-0.91-4.093-2.3-5.623-4.148
		c-0.911-1.1-1.661-2.299-2.226-3.612c-0.31-0.72-0.524-1.47-0.697-2.233c-0.149-0.66-0.249-1.328-0.302-2.002
		c-0.058-0.738-0.062-1.476-0.011-2.216C2,13.859,2.189,12.763,2.523,11.695c0.38-1.213,0.937-2.343,1.638-3.401
		c0.839-1.266,1.842-2.388,3.021-3.346c1.374-1.116,2.917-1.917,4.608-2.437c0.821-0.252,1.657-0.434,2.507-0.552
		c0.793-0.11,1.591-0.149,2.39-0.102c1.869,0.11,3.666,0.521,5.364,1.325c1.171,0.555,2.239,1.273,3.227,2.109
		c0.529,0.448,0.903,1.002,1.075,1.68c0.138,0.546,0.131,1.087-0.078,1.617c-0.07,0.179-0.175,0.337-0.284,0.493
		c-0.473,0.675-0.949,1.347-1.423,2.021c-0.061,0.086-0.116,0.177-0.176,0.263c-0.308,0.438-0.729,0.675-1.265,0.677
		c-1.5,0.005-3,0.002-4.501,0.002c-1.876,0-3.753,0.001-5.629,0c-0.19,0-0.358,0.051-0.505,0.17c-0.26,0.21-0.359,0.542-0.257,0.854
		c0.103,0.314,0.388,0.528,0.724,0.543c0.034,0.002,0.068,0,0.101,0c2.02,0.001,4.04-0.012,6.06,0.006
		c1.514,0.014,2.675,0.683,3.447,1.993c0.272,0.461,0.412,0.967,0.461,1.501c0.163,1.803-1.004,3.466-2.754,3.984
		c-0.313,0.093-0.633,0.146-0.959,0.159c-0.194,0.008-0.388,0.009-0.583,0.009c-2.62,0-5.24,0-7.86,0
		c-0.238,0-0.472-0.024-0.695-0.117c-0.623-0.262-0.988-0.878-0.939-1.512c0.062-0.786,0.653-1.274,1.216-1.382
		c0.126-0.024,0.252-0.027,0.378-0.027c2.569,0,5.139,0,7.708,0c0.08,0,0.16-0.002,0.24-0.015c0.391-0.067,0.683-0.427,0.654-0.812
		c-0.032-0.424-0.354-0.735-0.769-0.742c-0.038-0.001-0.076,0-0.114-0.001c-2.143,0-4.285-0.003-6.428,0.001
		c-0.356,0.001-0.709-0.004-1.059-0.074c-1.534-0.304-2.798-1.503-3.071-3.114c-0.287-1.694,0.583-3.337,2.146-4.083
		c0.522-0.249,1.075-0.377,1.653-0.381C12.642,9,13.491,9.004,14.341,9.004C15.19,9.004,16.04,9.004,16.889,9.004z"/>
	<path class="st0" d="M11.487,22.078c0.854-0.014,1.641,0.68,1.644,1.641c0.003,0.908-0.737,1.64-1.648,1.639
		c-0.907-0.001-1.643-0.742-1.64-1.649C9.847,22.807,10.581,22.078,11.487,22.078z"/>
	<path class="st0" d="M17.919,23.693c0.003-0.913,0.733-1.637,1.648-1.635c0.909,0.002,1.635,0.737,1.633,1.652
		c-0.002,0.916-0.766,1.642-1.656,1.63C18.638,25.326,17.916,24.601,17.919,23.693z"/>
</g>
</svg>
