<?xml version="1.0" encoding="utf-8"?>
<!-- Generator: Adobe Illustrator 25.2.3, SVG Export Plug-In . SVG Version: 6.00 Build 0)  -->
<svg version="1.1" id="Layer_1" xmlns="http://www.w3.org/2000/svg" xmlns:xlink="http://www.w3.org/1999/xlink" x="0px" y="0px"
	 viewBox="0 0 32 32" style="enable-background:new 0 0 32 32;" xml:space="preserve">
<style type="text/css">
	.st0{fill:#FEFEFE;}
	.st1{fill-rule:evenodd;clip-rule:evenodd;}
	.st2{fill:#E298AD;}
	.st3{fill:#12496D;}
	.st4{fill:#2A2A57;}
	.st5{fill:#2A2A56;}
	.st6{fill:#EAD5D1;}
	.st7{fill:#FDFDFD;}
	.st8{fill:#2A2956;}
	.st9{fill:#E097AC;}
	.st10{fill:#6A6AA1;}
	.st11{fill:#6C6BA2;}
	.st12{fill:#FEFDFD;}
	.st13{fill:#12486C;}
	.st14{fill:#FBF6F7;}
	.st15{fill:#FCF7F9;}
	.st16{fill:#E39CB0;}
</style>
<g>
	<path class="st0" d="M512.31,401.059c21.868,0,42.645,0.028,63.422-0.045c2.009-0.007,2.988,1.15,4.059,2.401
		c23.175,27.057,46.466,54.016,69.468,81.219c13.323,15.756,13.37,36.881,0.068,52.635c-22.983,27.219-46.285,54.17-69.447,81.238
		c-1.205,1.408-2.364,2.498-4.531,2.489c-20.635-0.089-41.271-0.053-61.973-0.053c-0.195-2.201,1.512-3.042,2.507-4.206
		c24.117-28.225,48.278-56.412,72.433-84.603c12.816-14.957,12.839-27.286,0.076-42.18c-24.265-28.317-48.528-56.635-72.789-84.955
		C514.751,404.005,513.922,402.99,512.31,401.059z"/>
	<path class="st0" d="M643.266,445.857c12.184-14.797,23.815-28.897,35.399-43.036c1.051-1.283,2.197-1.792,3.84-1.79
		c25.946,0.036,51.892,0.026,78.305,0.026c-0.658,2.038-2.212,2.75-3.38,3.703c-17.66,14.415-35.417,28.713-52.995,43.227
		c-8.36,6.903-17.49,8.969-27.947,6.194C665.745,451.33,654.926,448.765,643.266,445.857z"/>
	<path class="st0" d="M760.48,620.946c-3.763,0-7.527,0-11.29,0c-21.638,0-43.276-0.018-64.914,0.025
		c-2.394,0.005-4.388-0.152-6.131-2.305c-11.102-13.702-22.351-27.287-33.536-40.922c-0.298-0.363-0.421-0.87-0.801-1.688
		c13.037-3.114,25.691-7.181,38.8-9.271c7.031-1.121,13.652,0.828,19.198,5.292c19.697,15.854,39.277,31.855,58.901,47.8
		C760.631,620.233,760.556,620.589,760.48,620.946z"/>
</g>
<g>
	<circle class="st1" cx="16" cy="16" r="16"/>
	<path class="st2" d="M11.008,16.016c-0.729-0.625-1.399-1.297-1.762-2.213c-0.05-0.125-0.126-0.242-0.121-0.385
		c0.179-0.165,0.4-0.13,0.603-0.099c0.595,0.089,1.193,0.05,1.789,0.05c0.383,0,0.564-0.144,0.592-0.428
		c0.027-0.273-0.168-0.55-0.492-0.612c-0.476-0.09-0.961-0.128-1.446-0.137c-0.298-0.006-0.598,0.012-0.893-0.049
		c-0.134-0.028-0.271-0.045-0.377-0.146c-0.044-0.563,0.063-1.107,0.216-1.644c0.392-0.123,0.804-0.154,1.202-0.252
		c1.107-0.271,2.061-0.847,2.983-1.487C13.51,8.5,13.731,8.51,13.955,8.545c0.404,0.063,0.81,0.11,1.215,0.163
		c0.19,0.025,0.373,0.013,0.536-0.096c0.221-0.147,0.3-0.364,0.245-0.614c-0.062-0.284-0.298-0.373-0.547-0.435
		c-0.223-0.055-0.478,0.047-0.676-0.134c-0.032-0.057-0.043-0.123-0.009-0.176c0.237-0.371,0.46-0.755,0.839-1.007
		c0.681-0.004,1.364-0.07,2.041,0.066c0.088,0.054,0.153,0.127,0.187,0.225c0.412,1.217,1.068,2.332,1.474,3.55
		c0.182,0.545,0.322,1.099,0.332,1.678c0.001,0.063-0.011,0.124-0.052,0.175c-0.18,0.082-0.311-0.039-0.446-0.117
		c-0.356-0.204-0.71-0.408-1.084-0.582c-0.929-0.432-1.887-0.503-2.878-0.301c-0.88-0.179-1.779-0.222-2.665-0.364
		c-0.175-0.028-0.34,0.003-0.385,0.202c-0.049,0.214,0.096,0.337,0.276,0.379c0.4,0.093,0.801,0.189,1.204,0.268
		c0.159,0.031,0.325,0.039,0.476,0.097c0.238,0.091,0.43,0.041,0.598-0.14c0.084,0.025,0.116,0.099,0.116,0.17
		c-0.001,0.427,0.224,0.71,0.569,0.921c0.076,0.047,0.119,0.122,0.17,0.19c0.677,0.383,1.429,0.575,2.155,0.83
		c0.623,0.219,1.24,0.448,1.822,0.763c0.089,0.143,0.126,0.3,0.099,0.465c-0.375,2.309,0.09,4.523,0.731,6.723
		c0.163,0.559,0.325,1.124,0.351,1.713c-0.003,0.147-0.071,0.268-0.185,0.349c-0.702,0.499-1.452,0.901-2.297,1.103
		c-0.073,0.017-0.148,0.007-0.22-0.015c-0.558-0.276-1.101-0.577-1.615-0.929c-0.14-0.093-0.221-0.22-0.274-0.382
		c-0.249-0.765-0.801-1.083-1.608-0.936c-0.11,0.02-0.22,0.04-0.331,0.01c-0.698-0.333-1.34-0.763-2.011-1.142
		c-0.65-0.368-1.3-0.736-1.935-1.13c-0.125-0.078-0.274-0.132-0.3-0.306c0.206-0.296,0.424-0.585,0.615-0.891
		c0.138-0.221,0.256-0.227,0.465-0.076c0.998,0.721,2.067,1.299,3.292,1.531c0.606,0.115,1.217,0.119,1.816-0.034
		c0.634-0.162,0.909-0.65,0.704-1.196c-0.471-0.545-1.095-0.842-1.753-1.091c-0.919-0.347-1.848-0.671-2.728-1.113
		C11.817,16.671,11.384,16.383,11.008,16.016z"/>
	<path class="st3" d="M9.873,19.775c1.42,0.832,2.839,1.664,4.259,2.497c0.117,0.157-0.034,0.23-0.114,0.296
		c-0.69,0.567-0.583,1.771,0.303,2.162c0.09,0.04,0.267,0.066,0.176,0.253c-0.11,0.075-0.235,0.079-0.359,0.062
		c-1.198-0.162-2.367-0.439-3.488-0.901c-0.126-0.052-0.247-0.117-0.349-0.21c-0.556-0.634-1.026-1.329-1.439-2.064
		c-0.079-0.14-0.147-0.285-0.179-0.445c-0.25-0.61-0.547-1.201-0.74-1.833c-0.1-0.329-0.217-0.656-0.242-1.066
		C8.456,18.96,9.165,19.368,9.873,19.775z"/>
	<path class="st3" d="M20.583,23.228c-0.303-1.723-0.936-3.37-1.171-5.109c-0.139-1.029-0.096-2.057-0.01-3.086
		c0.022-0.26,0.043-0.519,0.064-0.779c0.756,0.407,1.464,0.875,2.015,1.548c-0.073,0.345-0.269,0.662-0.136,1.047
		c0.166,0.484,0.441,0.828,0.956,0.945c0.096,0.022,0.197,0.038,0.266,0.121c0.284,0.985,0.155,1.956-0.141,2.907
		c-0.267,0.861-0.762,1.594-1.403,2.225C20.909,23.161,20.798,23.336,20.583,23.228z"/>
	<path class="st4" d="M20.583,23.228c0.316-0.101,0.495-0.371,0.691-0.601c0.938-1.103,1.377-2.389,1.326-3.836
		c-0.011-0.296-0.053-0.591-0.08-0.887c-0.065-0.038-0.125-0.083-0.147-0.158c-0.142-0.487-0.334-0.952-0.594-1.388
		c-0.044-0.074-0.07-0.16-0.002-0.24c0.862,0.644,1.332,1.533,1.542,2.561c0.504,2.467-0.599,4.875-2.853,6.055
		c-1.737,0.91-3.597,1.125-5.502,1.016c-1.012-0.058-2-0.332-2.959-0.698c-1.031-0.393-2-0.887-2.892-1.533
		c-0.148-0.107-0.328-0.203-0.279-0.439c0.472,0.042,0.814,0.371,1.219,0.559c0.099,0.046,0.183,0.125,0.272,0.191
		c0.8,0.472,1.687,0.704,2.584,0.885c0.529,0.107,1.057,0.262,1.609,0.228c0.193-0.169,0.428-0.101,0.649-0.115
		c0.76,0.023,1.5-0.127,2.242-0.26c0.183-0.033,0.362-0.078,0.55-0.042C18.95,24.331,19.833,23.914,20.583,23.228z"/>
	<path class="st3" d="M19.519,11.899c-0.092-1.507-0.765-2.823-1.371-4.16C17.936,7.274,17.748,6.8,17.6,6.311
		c1.394,0.171,2.645,0.728,3.837,1.436c0.309,0.183,0.599,0.397,0.896,0.6c0.1,0.068,0.224,0.126,0.191,0.286
		c-0.041,0.182-0.107,0.347-0.224,0.5c-0.685,0.903-1.362,1.812-2.043,2.718c-0.075,0.1-0.147,0.203-0.251,0.275
		C19.767,12.291,19.602,12.214,19.519,11.899z"/>
	<path class="st5" d="M19.519,11.899c0.245,0.305,0.345,0.317,0.559,0.031c0.819-1.096,1.631-2.198,2.446-3.297
		c0.139,0.291,0.459,0.363,0.683,0.553c0.158,0.134,0.224,0.202,0.067,0.406c-0.824,1.076-1.634,2.163-2.43,3.26
		c-0.17,0.235-0.281,0.108-0.42,0.009c-0.809-0.574-1.674-1.035-2.648-1.257c-0.478-0.109-0.971-0.109-1.447-0.015
		c-0.637,0.126-0.848,0.428-0.838,1.073c-0.559-0.232-0.931-0.587-0.827-1.256c-0.02-0.324,0.145-0.493,0.454-0.541
		c1.434-0.448,2.676,0.07,3.886,0.765C19.171,11.726,19.304,11.892,19.519,11.899z"/>
	<path class="st6" d="M14.739,7.352c0.164,0.137,0.359,0.066,0.54,0.076c0.548,0.03,0.858,0.326,0.811,0.794
		c-0.045,0.449-0.453,0.688-0.974,0.596c-0.439-0.077-0.882-0.13-1.324-0.185c-0.16-0.02-0.325-0.023-0.471,0.069
		c-0.763-0.097-1.521-0.234-2.283-0.342c-0.207-0.029-0.425-0.051-0.555-0.255c0.379-0.418,0.837-0.726,1.342-0.97
		c0.865-0.128,1.72,0.019,2.578,0.091C14.523,7.238,14.65,7.247,14.739,7.352z"/>
	<path class="st0" d="M10.482,8.106c0.847,0.236,1.724,0.291,2.585,0.445c0.109,0.019,0.232-0.007,0.252,0.152
		c-1.167,0.927-2.495,1.482-3.964,1.711c-0.088,0.014-0.175,0.025-0.238-0.06C9.368,9.48,9.806,8.721,10.482,8.106z"/>
	<path class="st6" d="M8.901,11.997c0.855,0.052,1.711,0.089,2.564,0.162c0.575,0.049,0.888,0.456,0.758,0.911
		c-0.082,0.287-0.249,0.429-0.564,0.432c-0.847,0.008-1.691-0.03-2.535-0.084C8.945,12.961,8.87,12.488,8.901,11.997z"/>
	<path class="st7" d="M14.739,7.352c-0.929-0.03-1.853-0.167-2.785-0.155c-0.043,0.001-0.087-0.04-0.13-0.061
		c1.166-0.631,2.405-0.952,3.736-0.891C15.286,6.614,15.012,6.983,14.739,7.352z"/>
	<path class="st8" d="M11.008,16.016c1.315,0.934,2.832,1.436,4.313,2.015c0.405,0.159,0.805,0.337,1.139,0.628
		c0.141,0.123,0.28,0.248,0.306,0.45c-1.637-0.699-3.4-1.127-4.844-2.239C11.591,16.616,11.224,16.395,11.008,16.016z"/>
	<path class="st9" d="M10.324,23.828c-0.54-0.164-1.003-0.483-1.491-0.75c-0.23-0.165-0.456-0.335-0.692-0.492
		c-0.162-0.107-0.169-0.213-0.054-0.361c0.204-0.262,0.397-0.533,0.595-0.8c0.451,0.674,0.826,1.397,1.348,2.023
		C10.132,23.571,10.226,23.701,10.324,23.828z"/>
	<path class="st10" d="M21.776,16.117c0.323,0.564,0.592,1.151,0.743,1.787c-0.569,0.038-0.934-0.271-1.172-0.738
		c-0.27-0.528-0.208-0.995,0.135-1.363C21.58,15.907,21.678,16.012,21.776,16.117z"/>
	<path class="st11" d="M15.178,24.936c-0.22,0.002-0.441,0.003-0.662,0.004c-0.664-0.275-1.089-0.714-1.058-1.489
		c0.015-0.376,0.19-0.656,0.441-0.913c0.081-0.083,0.236-0.108,0.232-0.267c0.097-0.008,0.197-0.002,0.289-0.025
		c0.829-0.209,1.561,0.214,1.741,1.035c0.034,0.156,0.133,0.223,0.222,0.318c-0.084,0.218-0.142,0.448-0.254,0.654
		C15.925,24.632,15.614,24.873,15.178,24.936z"/>
	<path class="st12" d="M16.742,14.685c-0.038,0.389-0.088,0.736-0.357,1.022c-0.272,0.288-0.512,0.607-0.762,0.915
		c-0.154,0.19-0.315,0.208-0.514,0.062c-0.22-0.162-0.448-0.314-0.682-0.454c-0.216-0.129-0.252-0.282-0.129-0.495
		c0.23-0.398,0.429-0.815,0.684-1.196c0.325-0.484,0.842-0.622,1.392-0.663c0.153-0.011,0.226,0.076,0.253,0.216
		C16.667,14.299,16.707,14.506,16.742,14.685z"/>
	<path class="st6" d="M15.118,10.865c-0.204,0.136-0.376,0.299-0.454,0.541c-0.055,0.316-0.234,0.332-0.513,0.262
		c-0.562-0.141-1.135-0.236-1.703-0.356c-0.282-0.059-0.55-0.171-0.525-0.514c0.014-0.2,0.146-0.395,0.392-0.366
		c0.857,0.101,1.713,0.217,2.568,0.333C14.965,10.776,15.04,10.831,15.118,10.865z"/>
	<path class="st13" d="M15.178,24.936c0.508-0.251,0.939-0.566,1.027-1.183c0.013-0.094,0.075-0.155,0.18-0.154
		c0.524,0.308,1.048,0.616,1.572,0.924C17.055,24.824,16.125,24.934,15.178,24.936z"/>
	<path class="st14" d="M14.141,16.839c0.005-0.029,0.003-0.107,0.031-0.173c0.041-0.098,0.03-0.278,0.15-0.271
		c0.18,0.01,0.06,0.168,0.068,0.265c0.021,0.28,0.164,0.333,0.403,0.217c0.07-0.034,0.161-0.132,0.226-0.029
		c0.068,0.109-0.043,0.177-0.121,0.235c-0.129,0.095-0.255,0.202-0.422,0.221C14.253,17.329,14.135,17.176,14.141,16.839z"/>
	<path class="st14" d="M16.174,16.671c-0.03,0.109-0.049,0.22-0.091,0.321c-0.049,0.118-0.075,0.321-0.238,0.272
		c-0.128-0.039-0.208-0.241-0.189-0.376c0.03-0.211,0.185-0.421,0.364-0.484C16.248,16.324,16.11,16.576,16.174,16.671z"/>
	<path class="st15" d="M14.394,15.186c-0.169,0.525-0.307,0.631-0.686,0.55c-0.142-0.03-0.163-0.076-0.078-0.195
		C13.779,15.328,14.046,15.198,14.394,15.186z"/>
	<path class="st16" d="M16.159,15.083c-0.064,0.214-0.187,0.375-0.441,0.349c-0.232-0.023-0.361-0.192-0.356-0.404
		c0.005-0.239,0.173-0.396,0.414-0.381C16.014,14.661,16.14,14.831,16.159,15.083z"/>
</g>
</svg>
