<?xml version="1.0" encoding="utf-8"?>
<!-- Generator: Adobe Illustrator 22.0.1, SVG Export Plug-In . SVG Version: 6.00 Build 0)  -->
<svg version="1.1" id="Layer_1" xmlns="http://www.w3.org/2000/svg" xmlns:xlink="http://www.w3.org/1999/xlink" x="0px" y="0px"
	 viewBox="0 0 32 32" style="enable-background:new 0 0 32 32;" xml:space="preserve">
<style type="text/css">
	.st0{fill:#FFFFFF;}
</style>
<g>
	<ellipse class="st0" cx="16" cy="15.676" rx="10.438" ry="11.781"/>
	<path d="M16,0.188C7.27,0.188,0.188,7.27,0.188,16S7.27,31.812,16,31.812S31.812,24.73,31.812,16S24.744,0.188,16,0.188z
		 M22.266,20.815c-0.817,2.211-2.211,3.604-4.506,4.154c0.028,0.296,0.056,0.591,0.099,0.943c-1.225,0-2.422,0-3.647,0
		c0.056-0.366,0.099-0.662,0.155-1.056c-1.873-0.324-3.295-1.366-4.337-2.858c-0.746-1.07-0.732-2.365-0.605-3.689
		c1.732,0,3.45,0,5.21,0c0.07,0.408,0.042,0.915,0.239,1.281c0.225,0.394,0.634,0.845,1.042,0.943
		c0.324,0.084,0.859-0.239,1.14-0.535c0.436-0.479,0.282-1.183-0.352-1.521c-0.887-0.493-1.816-0.859-2.732-1.309
		c-0.704-0.352-1.45-0.676-2.084-1.126c-3.084-2.182-3.041-6.308,0.07-8.448c0.605-0.422,1.295-0.718,1.999-1.098
		c0.042-0.296,0.084-0.662,0.141-1.056c1.267,0,2.478,0,3.759,0c0.014,0.338,0.042,0.648,0.056,1.014
		c1.633,0.479,3.069,1.281,3.928,2.886c0.493,0.943,0.704,2.084,0.563,3.238c-1.69,0-3.393,0-5.139,0
		c-0.07-0.282-0.141-0.591-0.225-0.887c-0.141-0.521-0.507-0.831-1-0.718c-0.366,0.084-0.817,0.352-0.986,0.676
		c-0.268,0.479,0.113,0.873,0.549,1.098c0.859,0.436,1.732,0.845,2.577,1.281c0.788,0.408,1.619,0.774,2.309,1.324
		C22.308,16.76,23.195,18.295,22.266,20.815z"/>
</g>
</svg>
