<?xml version="1.0" encoding="utf-8"?>
<!-- Generator: Adobe Illustrator 22.0.1, SVG Export Plug-In . SVG Version: 6.00 Build 0)  -->
<svg version="1.1" id="Layer_1" xmlns="http://www.w3.org/2000/svg" xmlns:xlink="http://www.w3.org/1999/xlink" x="0px" y="0px"
	 viewBox="0 0 32 32" style="enable-background:new 0 0 32 32;" xml:space="preserve">
<style type="text/css">
	.st0{fill:#EBD335;}
	.st1{fill:#FFFFFF;}
</style>
<circle class="st0" cx="16" cy="16" r="15.9"/>
<g id="svgg">
	<path id="path0" class="st1" d="M16.5,4.9C16.6,5,16.6,5,16.5,4.9C16.6,4.9,16.5,4.9,16.5,4.9C16.5,4.9,16.5,4.9,16.5,4.9 M25,6.3
		C25,6.4,25,6.4,25,6.3C25,6.3,25,6.3,25,6.3C25,6.3,25,6.3,25,6.3 M10.3,7.7c0.3,0,0.8,0,1.1,0s0.1,0-0.6,0S10,7.6,10.3,7.7
		 M9.6,9.9c0,0.1,0.1,0.1,1.3,0.1h1.2h-1.2C9.8,10,9.7,10,9.6,9.9C9.6,9.9,9.6,9.9,9.6,9.9 M13.6,17.2
		C13.6,17.3,13.6,17.3,13.6,17.2C13.7,17.3,13.7,17.3,13.6,17.2C13.6,17.2,13.6,17.2,13.6,17.2"/>
	<path id="path1" class="st1" d="M15.4,4.9C15.4,5,15.3,5,15.2,5C15.1,5,15,5,15,5.1c0,0-0.1,0-0.1,0s-0.1,0-0.1,0c0,0,0,0,0,0
		c0,0,0,0-0.1,0c-0.1,0-0.1,0-0.1,0.1c0,0,0,0-0.1,0.1c0,0-0.1,0-0.1,0.1s0,0.1-0.1,0.1c-0.1,0-0.4,0.3-0.4,0.4c0,0,0,0.1-0.1,0.1
		S13.8,6,13.8,6s0,0.1-0.1,0.1c0,0-0.1,0-0.1,0.1s0,0.1-0.1,0.1s-0.1,0-0.1,0.1s0,0.1-0.1,0.1c0,0-0.1,0-0.1,0.2s0,0.2,0,0.2
		c-0.1,0-0.1,0-0.1,0.7c0,0.6,0,0.6,0,0.7c0,0,0,0,0,0c0,0,0,0,0,0c0,0,0,0,0,0c0,0,0,0,0,0.1c0,0.1,0,0.2,0,0.2c0,0,0,0,0,0
		c0,0,0,0,0,0c0,0,0,0,0.1,0.1s0,0.1,0.1,0.1s0.1,0,0.1,0.1s0,0.1,0.1,0.1c0,0,0,0,0,0.1c0,0,0,0.1,0.1,0.1s0.1,0,0.1,0.1
		s0,0.1,0.1,0.1s0.1,0,0.1,0.1s0,0.1,0.1,0.1s0.1,0,0.1,0.1s0,0.1,0.1,0.1s0.1,0,0.1,0.1s0,0.1,0.1,0.1c0,0,0.1,0,0.1,0s0,0,0,0.1
		c0,0,0,0,0.1,0c0.1,0,0.1,0,0.1,0.1s0,0.1,0.1,0.1c0.1,0,0.2,0.1,0.2,0.4v0.3h-0.5c-0.3,0-0.5,0-0.5,0c0,0,0,0,0,0l0,0c0,0,0,0,0,0
		c0,0,0,0,0,0c0,0,0,0-0.2,0.1c-0.3,0-0.3,0-0.3,0.1c0,0,0,0.1-0.1,0.1c-0.1,0-0.1,0-0.2,0.1c0,0-0.1,0-0.1,0.1c0,0-0.1,0-0.1,0.1
		c0,0-0.1,0.1-0.1,0.1c-0.1,0-0.1,0-0.1,0.1c0,0,0,0.1-0.1,0.1c-0.1,0-0.1,0-0.1,0.1c0,0,0,0-0.1,0.1c0,0-0.1,0-0.1,0.1
		c0,0,0,0-0.1,0.1c0,0-0.1,0-0.1,0.1s0,0.1-0.1,0.1s-0.1,0-0.1,0.1c0,0,0,0.1-0.1,0.1s-0.1,0-0.1,0.1c0,0,0,0.1-0.1,0.1c0,0,0,0,0,0
		c0,0,0,0,0,0c0,0,0,0.1,0,0.1c0,0,0,0.1-0.1,0.1s-0.1,0-0.1,0.1c0,0,0,0.1-0.1,0.1c0,0-0.1,0-0.1,0.1s0,0.1-0.1,0.1s-0.1,0-0.1,0.1
		c0,0.1,0,0.1,0,0.1c-0.1,0-0.1,0-0.1,0.2c0,0.1,0,0.2-0.1,0.2l-0.1,0.1v0.8c0,0.9,0,0.9,0.1,0.9c0,0,0,0,0,0.2c0,0.2,0,0.2,0.1,0.2
		s0.1,0,0.1,0.1s0,0.1,0.1,0.1c0.1,0,0.1,0,0.1,0.1s0,0.1,0.1,0.1c0.1,0,0.1,0,0.1,0.1s0,0.2,0.1,0.2c0,0,0,0,0,0.1
		c0,0,0,0.1,0.1,0.1s0.1,0,0.1,0.1c0,0,0,0.1,0.1,0.1c0,0,0.1,0,0.1,0.1s0,0.1,0.1,0.1s0.1,0,0.1,0.1s0,0.1,0.1,0.1s0.1,0,0.1,0.1
		s0,0.1,0.1,0.1s0.1,0,0.1,0.1c0,0,0,0.1,0.1,0.1c0,0,0.1,0,0.1,0.1c0,0,0.1,0.1,0.1,0.1c0,0,0.1,0,0.1,0c0,0,0,0,0,0.1
		c0,0,0,0,0.1,0c0.1,0,0.1,0,0.1,0.1s0,0.1,0.1,0.1c0.1,0,0.2,0,0.2,0c0,0,0,0.1,0.2,0.1s0.2,0,0.2,0.1l0.1,0.1h1.2v2.2h-0.4
		c-0.2,0-0.4,0-0.4,0c0,0,0,0,0,0s0,0,0,0c0,0,0,0-0.2,0.1c-0.2,0-0.2,0-0.2,0.1s0,0.1-0.1,0.1s-0.1,0-0.1,0.1c0,0-0.1,0.1-0.1,0.1
		s-0.1,0-0.1,0c0,0.1,0,0.1-0.1,0.1c0,0-0.1,0-0.1,0.1c0,0,0,0-0.1,0.1c0,0-0.1,0-0.1,0.1s0,0.1-0.1,0.1c0,0-0.1,0-0.1,0.1
		c0,0,0,0.1-0.1,0.1c0,0-0.1,0-0.1,0.1s0,0.1-0.1,0.1s-0.1,0-0.1,0.1s0,0.1-0.1,0.1s-0.1,0-0.1,0.1c0,0,0,0.1,0,0.1s0,0-0.1,0.1
		c0,0,0,0.1-0.1,0.1c0,0-0.1,0.1-0.1,0.1s0,0.1-0.1,0.1c0,0-0.1,0-0.1,0.1c0,0.1,0,0.1-0.1,0.1s-0.1,0-0.1,0.1c0,0.1,0,0.1,0,0.1
		c0,0-0.1,0.1-0.1,0.2c0,0.1,0,0.1-0.1,0.2L11.6,22v0.8c0,0.8,0,0.9,0.1,0.8c0,0,0,0.1,0,0.2c0,0.2,0,0.2,0.1,0.2c0,0,0.1,0,0.1,0.1
		s0,0.1,0.1,0.1c0,0,0.1,0.1,0.1,0.1c0,0.1,0,0.1,0.1,0.1s0.1,0,0.1,0.1c0,0.1,0,0.1,0.1,0.1c0,0,0.1,0,0.1,0.1c0,0,0,0.1,0.1,0.1
		s0.1,0,0.1,0c0,0,0.1,0.1,0.3,0.3c0.2,0.2,0.2,0.2,0.3,0.2c0,0,0,0,0,0.1s0,0.1,0.1,0.1c0,0,0.1,0,0.1,0c0,0,0,0.1,0.1,0.1
		c0,0,0.1,0,0.1,0c0,0,0,0,0,0.1s0,0,0.1,0c0.1,0,0.1,0,0.1,0c0,0.1,0.1,0.1,0.2,0.1s0.1,0,0.2,0.1c0,0.1,0,0.1,0.3,0.1
		c0.2,0,0.3,0,0.3,0.1c0.1,0,0.2,0.1,0.2,0.1l0.2,0v0.6c0,0.3,0,0.6,0,0.6c0,0,0.1,0.1,0.1,0.1c0,0,0,0,0,0.1c0,0.1,0,0.1,0.1,0.1
		s0.1,0,0.1,0.1c0,0.1,0,0.1,0,0.1c0,0,0,0,0,0s0,0,0,0s0.1,0,0.1,0.1c0,0,0,0.1,0.1,0.1c0,0,0.1,0,0.1,0.1c0,0,0.1,0.1,0.2,0.1
		s0.1,0,0.1,0c0,0.1,0.5,0.1,0.6,0.1c0,0,0,0,0,0s0,0,0,0c0,0,0.1-0.1,0.2,0c0.1,0,0.2,0,0.2-0.1c0,0,0,0,0.1,0c0,0,0.1,0,0.1-0.1
		c0,0,0-0.1,0.1-0.1c0,0,0,0,0-0.1c0,0,0,0,0,0c0,0,0.1-0.1,0.1-0.1c0,0,0-0.1,0.1-0.1c0,0,0,0,0-0.1c0,0,0,0,0,0c0,0,0-0.3,0-0.7
		c0-0.5,0-0.6,0-0.6h0.6c0.6,0,0.6,0,0.7-0.1c0.1-0.1,0.1-0.1,0.2-0.1s0.1,0,0.2-0.1c0,0,0.1-0.1,0.1-0.1s0.1,0,0.1-0.1
		c0,0,0-0.1,0.1-0.1c0,0,0.1,0,0.1-0.1c0,0,0-0.1,0.1-0.1s0.1-0.1,0.1-0.1c0,0,0-0.1,0.1-0.1c0-0.1,0.1-0.1,0.1-0.4
		c0-0.3,0-0.3-0.1-0.3c0,0,0-0.1-0.1-0.1c0-0.1,0-0.2-0.1-0.2c0,0,0,0,0-0.1c0,0,0-0.1-0.1-0.1c0,0-0.1,0-0.1-0.1c0,0,0-0.1-0.1-0.1
		c0,0-0.1,0-0.1,0c0,0,0-0.1-0.1-0.1c0,0-0.1,0-0.1-0.1l0,0h-1.5v-2.2h1l0-0.1c0,0,0.1-0.1,0.2-0.1c0.1,0,0.1,0,0.1,0c0,0,0,0,0-0.1
		s0,0,0.1,0c0.1,0,0.1,0,0.2-0.1c0,0,0.1-0.1,0.1-0.1c0,0,0.1,0,0.1-0.1s0-0.1,0.1-0.1s0.1,0,0.1-0.1s0-0.1,0.1-0.1
		c0,0,0.1,0,0.1-0.1l0,0c0,0,0-0.1,0.1-0.1c0,0,0.1,0,0.1-0.1c0,0,0-0.1,0.1-0.1c0,0,0,0,0.1-0.1s0-0.1,0.1-0.1c0,0,0,0,0-0.1
		c0,0,0-0.1,0.1-0.1c0,0,0.1,0,0.1,0c0-0.1,0-0.1,0.1-0.1c0,0,0.1,0,0.1-0.1s0-0.1,0.1-0.1c0,0,0,0,0.1-0.1c0-0.1,0-0.1,0.1-0.1
		c0,0,0.1,0,0.1-0.1c0,0,0-0.1,0.1-0.1c0.1-0.1,0.1-0.1,0.1-0.2c0-0.1,0-0.1,0-0.1c0,0,0.1-0.1,0.1-0.2c0-0.1,0-0.1,0.1-0.1
		c0.1-0.1,0.1-1.6,0-1.7c0,0-0.1-0.1-0.1-0.2c0-0.1-0.1-0.2-0.1-0.2c0,0,0-0.1,0-0.1s0-0.1,0-0.1c0,0-0.1,0-0.1-0.1
		c0,0,0-0.1-0.1-0.1c0,0,0-0.1-0.1-0.1c0,0,0-0.1-0.1-0.1c0,0,0,0,0,0c0,0,0,0,0,0c0,0,0-0.1-0.1-0.1c0,0-0.1-0.1-0.1-0.1
		c0,0,0,0,0,0c0,0,0,0,0,0c0,0,0-0.1,0-0.1c0,0,0,0-0.1-0.1c0,0,0,0-0.1-0.1s0,0,0,0s0,0-0.1-0.1c0,0-0.1,0-0.1-0.1
		c0,0-0.1,0-0.1-0.1c0,0-0.1,0-0.1-0.1l0,0c0,0,0-0.1-0.1-0.1l0,0c0,0-0.1,0-0.1,0s0,0,0,0c0,0,0,0,0,0c0,0,0,0-0.1,0
		c-0.1,0-0.1,0-0.1-0.1c0,0,0-0.1-0.1-0.1c-0.1,0-0.1,0-0.1-0.1c0,0,0-0.1-0.2-0.1c-0.1,0-0.2,0-0.2-0.1s0-0.1-0.3-0.1
		c-0.2,0-0.2,0-0.3-0.1c0,0,0,0-0.1,0l-0.1,0c0,0-0.1,0-0.3,0h-0.2v-2.1h2.7l0-0.1c0,0,0.1-0.1,0.1-0.1c0,0,0.1,0,0.1,0
		c0,0,0.1-0.1,0.1-0.1c0,0,0.1,0,0.1-0.1c0,0,0-0.1,0.1-0.1c0,0,0.1-0.1,0.1-0.1c0,0,0,0,0-0.1c0.1,0,0.1-1,0-1.1c0,0,0,0,0,0
		c0,0,0-0.1-0.1-0.1c0,0-0.1-0.1-0.1-0.1c0,0-0.1,0-0.1-0.1c0,0-0.1,0-0.1,0c0-0.1,0-0.1-0.1-0.1c-0.1,0-0.1,0-0.1-0.1l0-0.1h-2.7
		v-0.3c0-0.3,0-0.4,0.2-0.4c0,0,0.1,0,0.1-0.1s0.1,0,0.1-0.1c0,0,0.1,0,0.1-0.1c0,0,0-0.1,0.1-0.1l0,0c0,0,0.1,0,0.1,0
		c0-0.1,0-0.1,0.1-0.1S18,9.5,18,9.5c0,0,0,0,0,0c0,0,0,0,0-0.1s0-0.1,0.1-0.1s0.1,0,0.1,0s0,0,0-0.1c0,0,0,0,0,0c0,0,0,0,0.1-0.1
		c0-0.1,0-0.1,0.1-0.1c0,0,0.1,0,0.1-0.1c0-0.1,0-0.1,0.1-0.1s0.1,0,0.1-0.1c0-0.1,0-0.1,0.1-0.2c0.1-0.1,0.1-1.5,0-1.6
		c0,0,0-0.1,0-0.1c0-0.1,0-0.1-0.1-0.2c0,0,0-0.1-0.1-0.1c0,0,0-0.1-0.1-0.1c0,0,0-0.1-0.1-0.1c0-0.1,0-0.1-0.1-0.1c0,0,0,0-0.1-0.1
		c0,0,0-0.1-0.1-0.1c0,0,0-0.1-0.1-0.1c0,0,0,0-0.1-0.1c0,0-0.1,0-0.1-0.1c0,0,0,0,0-0.1c0,0-0.1,0-0.1-0.1c0,0,0,0,0,0c0,0,0,0,0,0
		c0,0,0,0,0,0c0,0,0,0-0.1,0c0,0-0.1,0-0.1-0.1s0-0.1-0.1-0.1c0,0-0.1,0-0.1-0.1c0,0,0-0.1-0.1-0.1s-0.1,0-0.1-0.1
		c0,0,0-0.1-0.1-0.1s-0.1,0-0.1,0c0,0,0,0,0,0c0,0,0,0,0,0c0,0-0.1,0-0.2,0c-0.1,0-0.2,0-0.2-0.1l-0.1-0.1h-0.5
		C15.5,4.9,15.5,4.9,15.4,4.9 M7.8,5.3c0,0-0.1,0.1-0.2,0.1c-0.1,0-0.2,0-0.2,0.1c0,0,0,0-0.1,0c0,0-0.1,0-0.1,0.1s0,0.1-0.1,0.1
		s-0.1,0-0.1,0.1c0,0,0,0.1-0.1,0.1s-0.1,0-0.1,0.1c0,0,0,0.1-0.1,0.1L7,5.9v0.5c0,0.4,0,0.4,0.1,0.5c0.1,0,0.1,0.1,0.1,0.2
		c0,0,0,0.1,0.1,0.1c0,0,0,0,0,0.1c0,0,0,0.1,0.1,0.1c0,0,0.1,0,0,0c0,0,0,0.1,0.1,0.1c0.1,0,0.1,0,0.1,0.1c0,0.1,4.9,0.1,4.9,0
		c0,0,0,0,0-0.1c0,0,0,0,0.1,0c0.1,0,0.1,0,0.1-0.1c0,0,0-0.1,0-0.1c0.1,0,0.1-0.1,0.1-0.1c0,0,0,0,0,0C13,7.1,13,7.1,13,7
		c0-0.1,0-0.1,0.1-0.1c0,0,0,0,0-0.2s0-0.2,0.1-0.2c0.1-0.1,0.1-0.2,0-0.3c0,0,0-0.1,0-0.2c0-0.1,0-0.2,0-0.2c0,0-0.1,0-0.1-0.1
		c0,0,0,0-0.1-0.1c0,0-0.1,0-0.1-0.1l0,0c0,0,0-0.1,0-0.1c0,0-0.1,0-0.1-0.1c0,0,0-0.1-0.1,0c0,0-0.1,0-0.1-0.1c0,0,0-0.1-0.1-0.1
		c-0.1,0-0.1,0-0.2-0.1l-0.1-0.1L7.8,5.3L7.8,5.3 M19.6,5.3c0,0-0.1,0.1-0.2,0.1c-0.1,0-0.1,0-0.1,0.1c0,0,0,0-0.1,0.1
		c0,0-0.1,0-0.1,0.1c0,0,0,0.1-0.1,0.1c0,0-0.1,0-0.1,0.1c0,0,0,0.1-0.1,0.1c0,0-0.1,0-0.1,0.1s0,0.1-0.1,0.1h-0.1v0.5
		c0,0.3,0,0.4,0,0.4c0,0,0,0,0,0c0,0,0,0,0,0c0,0,0,0,0.1,0.1c0,0,0,0.1,0.1,0.1c0,0,0,0,0.1,0.1c0,0,0,0.1,0,0.1c0,0,0.1,0,0.1,0
		c0,0,0,0.1,0.1,0.1c0,0,0.1,0,0.1,0c0,0,0,0,0,0.1c0,0,0.8,0,2.4,0h2.4l0-0.1c0,0,0-0.1,0.1-0.1s0.1,0,0.1-0.1s0-0.1,0-0.1
		c0.1,0,0.1-0.1,0.1-0.1c0,0,0,0,0,0c0,0,0.1,0,0.1-0.1c0,0,0-0.1,0.1-0.2c0,0,0.1-0.1,0.1-0.2c0-0.1,0-0.1,0-0.2
		c0.1,0,0.1-0.2,0-0.3c0-0.1,0-0.1,0-0.2c0-0.2,0-0.2-0.1-0.2c0,0,0,0,0,0c0,0,0-0.1-0.1-0.1c0,0-0.1,0-0.1-0.1c0,0-0.2-0.2-0.2-0.2
		c0,0-0.1,0-0.1-0.1c0,0,0-0.1-0.1-0.1c-0.1,0-0.1,0-0.1-0.1l-0.1-0.1L19.6,5.3L19.6,5.3 M16.4,6.6c0,0,0.1,0.1,0.1,0.1
		c0,0,0.1,0,0.1,0.1c0,0,0.1,0.1,0.1,0.1s0.1,0,0.1,0.1s0,0.1,0.1,0.1s0.1,0,0.1,0.2c0,0,0,0.1,0.1,0.1c0,0,0,0.1,0,0.2
		c0,0.1,0,0.2,0.1,0.2c0.1,0.1,0.1,0.3,0,0.3c0,0,0,0,0,0s0,0,0,0c0,0,0,0.1,0,0.1c0,0.1,0,0.1,0,0.1c0,0,0,0-0.1,0.1
		c0,0,0,0.1-0.1,0.1c0,0-0.1,0.1-0.1,0.1c0,0-0.1,0.1-0.1,0.1c0,0-0.1,0-0.1,0c0,0,0,0,0,0s-0.1,0-0.1,0c-0.1,0-0.1,0-0.1,0.1
		c0,0.1-0.5,0.1-0.6,0c0,0-0.1-0.1-0.2-0.1c-0.1,0-0.1,0-0.1,0c0-0.1,0-0.1-0.1-0.1c0,0-0.1,0-0.1,0s0-0.1-0.1-0.1
		c0,0-0.1,0-0.1-0.1c0,0,0,0,0,0c0,0,0,0,0,0s0,0,0,0c0,0,0,0-0.1-0.1c-0.1-0.1-0.1-1,0-1c0,0,0.1-0.1,0.1-0.2c0,0,0,0,0,0
		c0,0,0,0,0,0c0,0,0,0,0,0c0,0,0.1-0.1,0.1-0.1c0-0.1,0.1-0.1,0.1-0.1c0,0,0.1,0,0.1-0.1c0,0,0-0.1,0.1-0.1s0.1,0,0.1-0.1
		C15.7,6.5,16.3,6.5,16.4,6.6 M9.6,7.7C9.6,7.7,9.6,7.7,9.6,7.7c0,0-0.1,0-0.1,0c-0.1,0-0.1,0.1-0.2,0.1c-0.1,0-0.1,0-0.1,0.1
		s0,0.1-0.1,0.1C9,7.9,9,7.9,9,8c0,0,0,0,0,0C8.9,8,8.9,8,8.9,8.1c0,0,0,0,0,0c0,0,0,0.1-0.1,0.1c0,0-0.1,0.1-0.1,0.1
		c0,0,0,0.1-0.1,0.1c-0.1,0.1-0.1,0.7,0,0.8c0,0,0.1,0.1,0.1,0.1c0,0.1,0,0.1,0.1,0.1s0.1,0,0.1,0.1c0,0.1,0,0.2,0.1,0.2
		c0,0,0,0,0,0c0,0,0.1,0.1,0.2,0.1c0,0,0.1,0,0.1,0.1s0,0.1,0.2,0.1c0.1,0,0.2,0,0.2,0c0,0.1,2.5,0.1,2.5,0c0.1,0,0.1,0,0.2,0
		c0.1,0,0.2,0,0.2-0.1c0,0,0.1-0.1,0.1-0.1c0,0,0.1,0,0.1-0.1s0-0.1,0.1-0.1c0,0,0.1,0,0.1,0s0,0,0-0.1c0,0,0,0,0,0
		c0,0,0.1,0,0.1-0.1c0,0,0-0.1,0.1-0.1c0,0,0-0.1,0-0.2c0-0.1,0-0.2,0-0.2c0.1,0,0.1-0.2,0-0.2c0,0,0-0.1,0-0.2c0-0.1,0-0.2-0.1-0.2
		c0,0,0,0,0,0c0,0,0-0.1,0-0.1c0,0,0,0-0.1-0.1c0,0-0.1,0-0.1-0.1c0,0,0-0.1-0.1-0.1c0,0-0.1,0-0.1-0.1c0,0,0-0.1-0.1-0.1l0,0
		c0,0-0.1,0-0.1,0c0,0,0,0,0,0c0,0,0,0,0,0s0,0,0,0c0,0-0.1,0-0.2,0c-0.1,0-0.1,0-0.2,0C12.2,7.6,9.7,7.6,9.6,7.7 M19.8,7.7
		C19.7,7.7,19.7,7.7,19.8,7.7c-0.1,0.1-0.1,0.1-0.2,0.1c-0.1,0-0.2,0-0.2,0.1c0,0,0,0-0.1,0c-0.1,0-0.1,0-0.1,0.1s0,0.1-0.1,0.1
		S19,8,19,8s0,0.1-0.1,0.1s-0.1,0-0.1,0.1c0,0.1,0,0.1-0.1,0.1s-0.1,0-0.1,0.4v0.4l0.1,0c0,0,0.1,0,0.1,0.1c0,0.1,0,0.1,0.1,0.1
		s0.1,0,0.1,0.1s0,0.1,0.1,0.1c0,0,0.1,0,0.1,0s0,0,0,0.1s0,0,0.1,0c0,0,0.1,0,0.1,0.1c0,0.1,0.1,0.1,0.2,0.1c0.1,0,0.2,0,0.2,0
		c0,0,0.2,0,1.2,0c1.1,0,1.2,0,1.2,0s0.1,0,0.2,0c0.1,0,0.2,0,0.2,0c0,0,0,0,0-0.1s0,0,0.1,0c0.1,0,0.1,0,0.1-0.1c0,0,0-0.1,0.1-0.1
		c0,0,0,0,0,0c0,0,0-0.1,0.1-0.1s0.1-0.1,0.1-0.1c0,0,0,0,0,0s0,0,0-0.1s0-0.1,0-0.1c0.1,0,0.1-0.9,0-0.9c0,0-0.1-0.1-0.1-0.2
		c0,0,0,0,0,0c0,0,0,0-0.1-0.1c0,0,0-0.1-0.1-0.1c0,0-0.1,0-0.1-0.1c0,0,0-0.1-0.1-0.1c0,0-0.1,0-0.1-0.1c0,0-0.1-0.1-0.2-0.1
		c-0.1,0-0.1,0-0.1,0c0,0,0,0-0.1-0.1C22.3,7.6,19.8,7.6,19.8,7.7 M14.8,14.1v1h-0.4c-0.4,0-0.4,0-0.4,0c0,0,0,0,0,0c0,0,0,0,0,0
		c0,0,0,0,0,0c0,0-0.1,0-0.1,0c0,0-0.1,0-0.1-0.1l0,0c0,0,0-0.1-0.1-0.1s-0.1,0-0.1-0.1s0-0.1-0.1-0.1c0,0,0,0,0,0c0,0,0,0,0,0
		c0,0,0,0-0.1-0.1c0,0-0.1-0.1-0.1-0.2c0-0.1,0-0.1,0-0.2c-0.1,0-0.1-0.3,0-0.3c0,0,0.1-0.2,0.1-0.3c0,0,0-0.1,0-0.1
		c0,0,0.1-0.1,0.1-0.1c0-0.1,0-0.1,0.1-0.1c0,0,0.1,0,0.1,0s0,0,0-0.1c0,0,0,0,0.1,0c0,0,0.1,0,0.1-0.1c0,0,0.1-0.1,0.1-0.1
		c0,0,0.1,0,0.1-0.1c0-0.1,0-0.1,0.4-0.1h0.4L14.8,14.1 M17.6,17.4c0,0,0,0.1,0.1,0.1c0.1,0,0.1,0,0.1,0.1c0,0,0,0.1,0.1,0.1
		c0.1,0,0.1,0,0.1,0.1s0,0.1,0.1,0.1s0.1,0,0.1,0.1s0,0.1,0.1,0.1c0.1,0,0.1,0,0.1,0.1c0,0.1,0,0.1,0.1,0.2c0.1,0.1,0.1,0.3,0,0.3
		c0,0,0,0,0,0c0,0,0,0,0,0c0,0,0,0.1,0,0.1c0,0.1,0,0.1-0.1,0.1c0,0-0.1,0-0.1,0.1c0,0-0.1,0.1-0.2,0.2c0,0,0,0,0,0.1c0,0,0,0-0.1,0
		c-0.1,0-0.1,0-0.1,0.1s0,0.1-0.2,0.1c-0.1,0-0.2,0-0.2,0c-0.1,0-0.1,0-0.2,0.1l-0.1,0v-2.2h0.2C17.6,17.3,17.6,17.3,17.6,17.4
		 M14.8,22.8v1.1h-0.1c-0.1,0-0.1,0-0.1-0.1c0-0.1,0-0.1-0.2-0.1c-0.1,0-0.1,0-0.1-0.1c0,0,0-0.1-0.1-0.1c0,0,0,0,0,0s0,0,0,0
		c0,0,0,0,0,0c0,0,0,0,0,0c0,0,0,0,0-0.1c0,0,0,0,0,0c0,0,0,0,0,0c0,0,0,0,0,0c0,0,0-0.1-0.1-0.1c0-0.1,0-0.1-0.1-0.1s0,0,0-0.1
		c0,0,0-0.1,0-0.1c0-0.3,0-0.7,0.1-0.7c0,0,0-0.1,0.1-0.1c0,0,0,0,0,0l0,0c0,0,0,0,0.1-0.1c0,0,0-0.1,0.1-0.1s0.1,0,0.1-0.1
		c0,0,0-0.1,0.1-0.1s0.1,0,0.1-0.1c0-0.1,0.2-0.1,0.3-0.1c0,0,0,0,0.1-0.1C14.8,21.6,14.8,21.6,14.8,22.8"/>
</g>
</svg>
