<svg id="Layer_1" data-name="Layer 1" xmlns="http://www.w3.org/2000/svg" viewBox="0 0 423 423"><defs><style>.cls-1{fill:#ebd335;}.cls-2{fill:#fff;}</style></defs><title>stake</title><circle class="cls-1" cx="211.5" cy="211.5" r="211.5"/><g id="svgg"><path id="path0" class="cls-2" d="M578.53,218.93c.86.94,1,1,.81.43a2.5,2.5,0,0,0-.87-.84c-.68-.42-.68-.4.06.41m112.94,18.83c.15.89.2.93.3.29a1.42,1.42,0,0,0-.18-1.05c-.17-.18-.22.12-.12.76M495.91,255.21c4.1,0,10.79,0,14.88,0s.75-.09-7.44-.09-11.53,0-7.44.09m-9.66,30.26c.34.86.74.88,17.58.78l16-.09-16.29-.08c-14.8-.06-16.35-.12-16.9-.61s-.58-.51-.39,0m52.8,97.59a2.5,2.5,0,0,0,.87.84c.68.41.68.39-.06-.41s-1-1-.81-.43" transform="translate(-360 -155)"/><path id="path1" class="cls-2" d="M563.86,219c-.77.65-1.26.78-3,.78-2,0-2.81.32-3.15,1.24-.06.17-.75.36-1.55.42s-1.45.29-1.48.51,0,.52-.08.69-.65.35-1.4.4c-1.05.08-1.43.26-1.67.82a1.16,1.16,0,0,1-1,.72c-.56,0-.73.18-.73.8s-.16.8-.75.8c-1,0-5.65,4.6-5.65,5.64,0,.59-.17.76-.8.76s-.8.16-.8.78-.2.8-.72.88-.73.32-.81,1.62-.18,1.52-.88,1.52-.79.12-.79,1.58-.08,1.59-.72,1.68-.72.29-.81,2.42-.17,2.32-.69,2.32c-.9,0-.93.31-1,9.29,0,7.67,0,8.42.54,8.85.32.26.37.36.12.23s-.37-.11-.2.16a.59.59,0,0,0,.69.22c.35-.13.45.24.48,1.74,0,1.05.08,2.05.12,2.23a4.52,4.52,0,0,1,.12.64c0,.17.32.32.67.32.51,0,.63.26.72,1.52s.2,1.53.81,1.62.72.31.72,1.18.67,2.08,1.31,2.08c.16,0,.29.36.29.8,0,.64.16.8.8.8s.8.16.8.8.16.8.8.8.8.16.8.8.16.8.8.8.8.16.8.8.16.8.8.8.8.16.8.8.16.8.8.8c.44,0,.82.14.84.32s.06.5.08.72.64.44,1.56.5c1.38.08,1.52.17,1.52.88s.17.78.84.78c1.94,0,2.35,1,2.36,5.68v4.24l-6.32,0c-3.47,0-6.5,0-6.72,0a.33.33,0,0,0-.4.3c0,.2-.15.26-.34.14s-.42.1-.52.47c-.15.6-.42.67-2.61.7-3.41.06-3.37.05-3.72.85-.26.58-.58.72-1.66.72a3.18,3.18,0,0,0-2.29.8,3.34,3.34,0,0,1-1.66.8,2,2,0,0,0-1.32.78A2.5,2.5,0,0,1,527,303c-.77.07-1.06.27-1.13.78s-.4.73-1.4.89-1.34.39-1.45.82a1.08,1.08,0,0,1-.85.71,1.47,1.47,0,0,0-1,.81,1.48,1.48,0,0,1-1,.8.9.9,0,0,0-.75.79.9.9,0,0,1-.8.8.91.91,0,0,0-.8.8.9.9,0,0,1-.8.8.91.91,0,0,0-.8.8,1.16,1.16,0,0,1-.72.9c-.34.11-.63.34-.66.5a5.18,5.18,0,0,1-.12.62,10.59,10.59,0,0,0-.12,1.12c0,.63-.21.8-.84.8s-.8.16-.8.72a1.14,1.14,0,0,1-.72,1c-.55.25-.74.63-.81,1.66s-.23,1.36-.8,1.44-.72.33-.8,1.79c-.06,1-.23,1.61-.42,1.49-.73-.45-1.25.59-1.25,2.5,0,1.65-.11,2-.8,2.67l-.81.75,0,10.75c0,11.39.05,11.67,1,11.67.52,0,.61.31.69,2.32s.15,2.33.81,2.42.72.29.72,1.68.06,1.58.8,1.58.8.1.8,1.6.06,1.6.8,1.6.8.14.8,1.09.66,2.11,1.31,2.11c.16,0,.29.36.29.8,0,.63.16.8.78.8s.81.2.88.72a.92.92,0,0,0,.82.82c.52.07.72.32.72.88s.17.78.8.78.8.16.8.8.16.8.8.8.8.16.8.8.16.8.78.8.81.2.88.72a.92.92,0,0,0,.83.82,3.37,3.37,0,0,1,1.51.88,2.68,2.68,0,0,0,1.59.78c.45,0,.83.14.85.32s.06.5.08.72.64.44,1.54.49c1.27.09,1.52.21,1.6.8s.35.73,1.22.79c1.61.13,2.67.4,2.44.62-.56.57.67,1.06,2.67,1.06s2.24.1,2.89.8l.75.8h15.57v29.12l-5,0c-2.72,0-5.1.07-5.28.12s-.46.1-.64.12-.32.32-.32.66c0,.56-.26.64-2.32.72s-2.33.16-2.42.82-.29.72-1.55.72-1.58.15-2.08.8a2,2,0,0,1-1.73.8c-.89,0-1.1.12-1.1.65,0,.71-.39.94-1.79,1.05a1.34,1.34,0,0,0-1.24.78,1.16,1.16,0,0,1-1,.72c-.56,0-.73.18-.73.78s-.2.8-.72.88a.91.91,0,0,0-.82.82c-.07.52-.32.72-.88.72s-.78.16-.78.8-.16.8-.8.8-.8.16-.8.8-.16.8-.8.8-.8.16-.8.76a.86.86,0,0,1-.64.93,1.37,1.37,0,0,0-.85.76,4.5,4.5,0,0,1-1,1.29,2.42,2.42,0,0,0-.75,1.61,1.16,1.16,0,0,1-.72,1.21c-.55.25-.74.63-.81,1.66s-.23,1.36-.8,1.44-.73.36-.87,1.63c-.08.84-.23,1.48-.32,1.44-.58-.31-1.18,1-1.25,2.76-.05,1.56-.21,2-.84,2.62l-.77.72v10.07c0,10.13.18,11.66,1.23,10.78.11-.09.24.88.29,2.16.08,2.15.14,2.33.88,2.51s.78.38.78,1.64.16,1.56.8,2.06a2,2,0,0,1,.8,1.73c0,.95.11,1.1.79,1.1s.79.15.88,1.52.2,1.53.81,1.62.72.32.72.88.17.78.8.78.8.17.8.59c0,.62,1.13,2,3.49,4.29,2.87,2.78,3.3,3.12,3.9,3.12.44,0,.61.22.61.8s.15.8,1,.8c.63,0,1,.16,1,.46,0,.6.51.9,1.91,1.13.62.1,1.15.36,1.17.57s.06.54.08.72.69.32,1.48.32,1.44.13,1.44.29c0,.82,1.08,1.31,2.88,1.31s1.89.07,2,.72.28.73,3.46.88c2.49.12,3.58.31,4.2.73a8,8,0,0,0,3,.76l2.12.2,0,8c0,4.42,0,8.2,0,8.4-.05.38.9,1.29,1.21,1.15.11,0,.24.64.29,1.52.09,1.47.17,1.61.88,1.61s.78.13.78,1.28c0,.7.16,1.28.34,1.28s.25.14.14.32.07.32.39.32a1.17,1.17,0,0,1,.9.72,1.46,1.46,0,0,0,1.19.82,2.55,2.55,0,0,1,1.48.88c.51.64.9.78,2.24.78s1.59.1,1.45.45c-.4,1,6.82,1.75,7.45.74.13-.21,0-.24-.25-.07s-.13-.06.26-.43a2.85,2.85,0,0,1,2.3-.69c1.51,0,2.59-.54,2.59-1.31,0-.16.35-.29.77-.29a.87.87,0,0,0,.95-.72,1.8,1.8,0,0,1,.91-1,1.07,1.07,0,0,0,.69-.88c0-.3.09-.55.26-.55.57,0,1.23-.91,1.44-2a2.69,2.69,0,0,1,.82-1.5.89.89,0,0,0,.44-.87.52.52,0,0,1,.14-.62c.18-.11.3-3.67.3-8.81,0-6.68.09-8.62.4-8.63l8.54,0c8.11,0,8.14,0,8.89-.79s1.1-.76,2.48-.76,1.83-.13,2.33-.78a2.71,2.71,0,0,1,1.55-.88c.67-.07,1-.3,1-.8a.91.91,0,0,1,.79-.8,1.12,1.12,0,0,0,.86-.75,7.37,7.37,0,0,1,1.05-1.79,4.13,4.13,0,0,0,.88-1.93,2.77,2.77,0,0,1,.72-1.56c.67-.72.72-1.07.72-4.73s0-4-.72-4.54a2,2,0,0,1-.72-1.33c0-1.36-.38-2.19-1-2.19-.36,0-.62-.28-.68-.72a.91.91,0,0,0-.81-.82.91.91,0,0,1-.8-.8.89.89,0,0,0-.82-.8c-.44-.07-.72-.33-.72-.69,0-.64-.6-1-1.78-1a1.68,1.68,0,0,1-1.29-.8L607,471H586.55V441.85h14l.63-.8c.53-.69.89-.8,2.42-.8,1,0,1.81-.15,1.83-.32s.06-.5.08-.72.67-.44,1.71-.5c1.31-.07,1.8-.26,2.27-.85a2.61,2.61,0,0,1,1.53-.87c.68-.07,1-.3,1-.8s.34-.72,1.44-.8,1.36-.23,1.45-.82.31-.72.87-.72a.88.88,0,0,0,1-.8c.14-.55.42-.8.91-.8a1.39,1.39,0,0,0,1.14-.8c.24-.44.6-.8.8-.8s.57-.36.8-.8.62-.8.86-.8.42-.35.42-.8c0-.64.16-.8.8-.8.44,0,.79-.11.77-.24-.14-.84.13-1.33.75-1.42a.91.91,0,0,0,.82-.79,1.07,1.07,0,0,1,.7-.84c.42-.11.66-.58.81-1.62s.36-1.48.91-1.55a.92.92,0,0,0,.79-.88,4.81,4.81,0,0,1,.86-1.76c.82-1.08.79-1,.79-2.58,0-.77.15-1.12.47-1.12.66,0,1.13-1,1.13-2.48a2.75,2.75,0,0,1,.72-2c1.12-1.2,1.14-21.9,0-23.09a3.3,3.3,0,0,1-.77-2.18c-.07-1.47-.73-3.2-1.21-3.2-.15,0-.37-.74-.49-1.64s-.3-1.55-.4-1.45c-.29.29-.94-.52-1.18-1.48a3.7,3.7,0,0,0-.81-1.47,3.77,3.77,0,0,1-.8-1.44c-.14-.55-.42-.84-.84-.84a.57.57,0,0,1-.64-.61,1.71,1.71,0,0,0-.8-1.12c-.44-.29-.8-.74-.8-1s-.14-.47-.32-.47-.3-.11-.28-.24c.1-.65-.09-1-.64-1.19a1.35,1.35,0,0,1-.78-.85,1.26,1.26,0,0,0-.83-.82c-.37-.1-.67-.37-.67-.61s-.32-.6-.72-.81a7,7,0,0,1-1.42-1.13,2.48,2.48,0,0,0-1.49-.75.89.89,0,0,1-1-.8.88.88,0,0,0-1-.8c-.59,0-.8-.17-.8-.66s-.14-.57-.32-.46-.32,0-.32-.14-.5-.34-1.12-.34c-.91,0-1.19-.16-1.44-.8s-.5-.8-1.73-.8-1.44-.1-1.52-.72-.31-.73-2.2-.81-2.13-.2-2.4-.8-.56-.72-3.49-.8c-2.69-.08-3.29-.2-3.78-.72a2.25,2.25,0,0,0-1.13-.69l-1-.12c-.26,0-1.81-.09-3.44-.11l-3,0V326.65H623l.63-.8a2,2,0,0,1,1.83-.8c.67,0,1.13-.09,1-.19-.29-.3.87-1.3,1.78-1.53a1.48,1.48,0,0,0,1-.76,6.1,6.1,0,0,1,1.14-1.58,3.5,3.5,0,0,0,1-1.65.84.84,0,0,1,.59-.77c1.5-.39,1.5-13.53,0-13.92a.79.79,0,0,1-.59-.68,4,4,0,0,0-1-1.64c-.52-.62-1.23-1.45-1.57-1.84a2.15,2.15,0,0,0-1.43-.72c-.6,0-.83-.17-.83-.61,0-.7-.59-1-2-1-.8,0-1.13-.19-1.41-.8l-.36-.8H586.55v-4.08c0-4.56.54-5.84,2.39-5.84a2.48,2.48,0,0,0,1.58-.8,2.41,2.41,0,0,1,1.39-.8c.42,0,.71-.28.84-.8a.89.89,0,0,1,1-.8c.44,0,.78-.11.76-.24-.15-.93.1-1.36.79-1.36s3.08-2.29,3.08-3c0-.13.22-.24.48-.24s.48-.3.48-.78.2-.81.72-.88.74-.28.76-.5.06-.55.08-.72.33-.32.67-.32c.52,0,.67-.3.84-1.6s.34-1.6.78-1.6c.66,0,.95-.62.95-2,0-.75.19-1.1.72-1.34s.76-.65.88-1.75a6.42,6.42,0,0,1,.8-2.39c1.18-1.74.91-19.87-.31-20.77a2.6,2.6,0,0,1-.54-1.76,3.68,3.68,0,0,0-.8-2.29,3.12,3.12,0,0,1-.75-1.48,2.9,2.9,0,0,0-.8-1.46,3,3,0,0,1-.8-1.33c0-.88-.39-1.48-1-1.48a.88.88,0,0,1-.75-.72,5.29,5.29,0,0,0-1-1.65,3.42,3.42,0,0,1-.81-1.35c0-.24-.43-.65-.95-.92s-.93-.67-.88-.88-.25-.53-.65-.71-.72-.5-.72-.71a.79.79,0,0,0-.37-.61c-.24-.15-.29-.08-.13.22s0,.2-.23-.11a1.52,1.52,0,0,0-1-.56,1.69,1.69,0,0,1-1-.8,1.7,1.7,0,0,0-1.13-.8,1.13,1.13,0,0,1-.92-.8c-.25-.67-.51-.8-1.55-.8s-1.29-.12-1.46-.8-.36-.8-1.79-.8-1.6-.08-1.6-.66c0-.36-.14-.57-.32-.46s-.32,0-.32-.14-.9-.34-2.34-.34c-2.1,0-2.43-.09-3.11-.81l-.76-.81-6.49,0c-6.39,0-6.52,0-7.43.81m-101.07,4.76a3.89,3.89,0,0,1-2.2.86c-1.19.07-2.07.57-2,1.15,0,.14-.35.29-.8.35-.61.08-.81.29-.81.88s-.16.78-.8.78-.8.16-.8.8-.16.8-.8.8-.8.15-.8.9a2.44,2.44,0,0,1-.8,1.66l-.81.76.09,6.1c.08,6.05.09,6.1.8,6.2s.92.8.75,2.19c0,.4.55.89,1.08.9.17,0,.39.37.49.81a1.06,1.06,0,0,0,1.06.9c.48.06.79.24.68.41-.34.56.44,1.11,1.68,1.2s1.4.11,1.52.9,65.1,1.11,65.18.43c0-.18.06-.5.08-.72s.66-.47,1.48-.56c1.19-.13,1.46-.29,1.55-.88s.32-.72.68-.72c.7,0,1.43-.81,1.14-1.27-.12-.2.12-.33.6-.33.73,0,.83-.16,1-1.6.17-1.28.34-1.6.81-1.6s.6-.27.6-2.29.1-2.37.78-3a2.44,2.44,0,0,0-.28-3.42c-.38-.22-.5-.84-.5-2.72,0-1.34-.09-2.35-.2-2.24-.27.28-1-.5-1.13-1.23a1,1,0,0,0-.83-.72.74.74,0,0,1-.72-.85.85.85,0,0,0-.66-.91,1.3,1.3,0,0,1-.84-.84.85.85,0,0,0-.94-.66,1.07,1.07,0,0,1-1.08-.8c-.25-.68-.51-.8-1.62-.8a3.22,3.22,0,0,1-2.28-.8l-1-.8H463.72l-.93.78m156.81,0a4.09,4.09,0,0,1-2.35.88c-1.11.08-1.49.25-1.73.82a1.16,1.16,0,0,1-1,.72c-.56,0-.73.18-.73.78s-.2.8-.72.88a.91.91,0,0,0-.82.8.9.9,0,0,1-.8.8c-.59.08-.71.33-.79,1.62s-.18,1.52-.88,1.52H609v5.92c0,3.95.12,5.92.34,5.92s.25.14.14.32.08.32.42.32.67.3.82,1.27a2.32,2.32,0,0,0,.81,1.59,2,2,0,0,1,.8,1.13c.11.44.31.78.44.74.46-.12,1.68.44,1.52.69-.26.43.56.92,1.75,1,.62.06,1.14.29,1.16.51s.06.54.08.72,11.11.32,32.52.32h32.47l.2-.79c.16-.65.42-.79,1.52-.88s1.35-.22,1.44-.81.32-.72.68-.72c.7,0,1.43-.81,1.14-1.27-.12-.2.12-.33.58-.33.63,0,.82-.21,1-1a5,5,0,0,1,.94-1.91c.59-.68.76-1.3.82-2.86a4,4,0,0,1,.51-2.33c.72-.56.76-2.74.05-3.45a6.88,6.88,0,0,1-.6-2.78c-.16-2.2-.59-3.13-1.27-2.71-.14.08-.26-.2-.26-.63a1.61,1.61,0,0,0-.8-1.3c-.44-.29-.8-.66-.8-.83,0-.57-1.9-2.24-2.55-2.24a1.11,1.11,0,0,1-1-.8c-.25-.68-.51-.8-1.63-.8a2.4,2.4,0,0,1-2.07-.8l-.75-.8H620.52l-.92.78m-43,17.3a2.11,2.11,0,0,0,1.38.8,2.7,2.7,0,0,1,1.51.8,2.55,2.55,0,0,0,1.52.8c.6,0,.76.17.76.8s.16.8.8.8,1,.6.84,2.12c0,.43.64,1,1.08,1,.18,0,.4.86.48,2,.13,1.6.32,2.15.88,2.61,1,.81,1.06,3.69.08,4-.35.11-.65.34-.68.5a5.18,5.18,0,0,1-.12.62c0,.17-.09,1-.12,1.88,0,1.27-.16,1.59-.68,1.73a1.37,1.37,0,0,0-.85.76,4.87,4.87,0,0,1-.88,1.27c-.37.37-1.06,1.13-1.54,1.68a3.65,3.65,0,0,1-1.6,1.11c-.4.06-.74.28-.77.48s0,.5-.08.67-.72.35-1.56.4c-1.29.08-1.53.2-1.62.82-.16,1.16-6.57,1.09-7.69-.09a2.6,2.6,0,0,0-2.32-.79c-.86,0-1.55-.11-1.53-.24.15-.95-.1-1.36-.84-1.36-.59,0-.8-.17-.8-.65a1.08,1.08,0,0,0-.75-.94,1.58,1.58,0,0,1-.93-.95.86.86,0,0,0-.69-.66c-.28,0-.52-.15-.55-.32s0-.46-.08-.64a1.82,1.82,0,0,0-.71-.78c-1.32-.92-1.42-13-.11-13,.52,0,1.41-1.67,1.07-2-.08-.08.11-.34.43-.59.52-.41.53-.4.08.18-.26.34-.3.52-.09.39a5.94,5.94,0,0,0,1.09-1.48c.49-.88,1-1.29,1.53-1.36a1.44,1.44,0,0,0,1.15-.81,1.16,1.16,0,0,1,1.18-.72,1.81,1.81,0,0,0,1.45-.79c.9-1.24,9.3-1.25,10.28,0m-89.87,14.34c0,.14-.15.16-.34,0s-.66.09-1,.45a3.78,3.78,0,0,1-2.46.75c-1.54.09-1.77.19-1.86.82s-.3.72-1.18.72c-1.1,0-2.23.77-1.9,1.3.1.17,0,.3-.16.3a1.41,1.41,0,0,0-1.54,1.41,2.5,2.5,0,0,1-.86,1.37,2.38,2.38,0,0,0-.82,1.47,2.57,2.57,0,0,1-.81,1.52c-1.22,1.15-1.19,9.34.05,10.31a2,2,0,0,1,.76,1.7c0,1,.11,1.1.8,1.1s.8.15.8,1c0,1.32.53,2.22,1.29,2.22.35,0,.63.21.63.47,0,.58,1,1.13,2,1.13.58,0,.83.19.9.72s.28.72,2.71.81c1.81.06,2.73.24,3,.56.59.7,32.84.7,33.77,0a5.8,5.8,0,0,1,3-.48c2.07,0,2.42-.1,3.08-.81a2.42,2.42,0,0,1,1.41-.8.88.88,0,0,0,.88-.78,1.11,1.11,0,0,1,.88-.88c.38-.06.71-.28.73-.5s.06-.55.08-.72.33-.32.68-.32.7-.29.85-.88a5.15,5.15,0,0,1,.8-1.65c.44-.56.59-1.31.59-2.92,0-1.85.1-2.22.69-2.61.9-.6.88-2.31,0-3.28-.52-.56-.66-1.12-.66-2.8,0-2-.49-3.18-1.07-2.61-.11.12-.22,0-.25-.32s-.05-.71-.08-.93-.36-.54-.74-.71a1.43,1.43,0,0,1-.8-1,.91.91,0,0,0-.79-.75,1.11,1.11,0,0,1-.88-.88.88.88,0,0,0-1-.78c-.48,0-.8-.19-.8-.46a.86.86,0,0,0-.37-.69c-.24-.15-.29-.08-.13.22s0,.2-.23-.11-.93-.56-2.16-.56a3.08,3.08,0,0,1-2.41-.67c-.74-.69-35-1.2-35-.51m134.8-.09a1.78,1.78,0,0,0-.92.78c-.13.34-.64.49-1.73.49-1.88,0-3.19.45-3.19,1.11,0,.33-.31.49-1,.49-.81,0-1,.12-1,.8s-.16.8-.8.8-.8.16-.8.78-.2.8-.72.88-.73.32-.81,1.6-.21,1.51-.8,1.6-.71.19-.79,6.09l-.09,6,.79.2c.68.17.8.41.89,1.69s.2,1.5.81,1.59.72.32.72.88.17.78.8.78c.44,0,.82.14.84.32s.06.5.08.72.51.44,1.08.5a2.46,2.46,0,0,1,1.64.88c.56.71.84.78,3.17.78,1.88,0,2.66.12,3,.48s2.6.48,16.69.48,16.32-.06,16.48-.48.78-.48,2.87-.48c1.55,0,2.7-.14,2.72-.32s.06-.5.08-.72.66-.47,1.48-.56c1.19-.13,1.46-.29,1.55-.88s.59-.9,1.44-.75c.14,0,.17-.1.06-.28s.25-.75.81-1.26.92-1.09.8-1.28-.06-.35.12-.35.34-.35.34-.76a.87.87,0,0,1,.59-.92c1.46-.38,1.49-11.93,0-12.31-.49-.13-.83-1-1-2.62a.83.83,0,0,0-.63-.59,1.35,1.35,0,0,1-.79-.92.86.86,0,0,0-.8-.76,1.13,1.13,0,0,1-.92-.8,1.09,1.09,0,0,0-1-.81,2.52,2.52,0,0,1-1.48-.8c-.62-.65-1.06-.79-2.46-.79-1.1,0-1.81-.16-2-.44a2.71,2.71,0,0,0-.94-.78c-.84-.45-34.15-.49-35.24,0m-65.36,85.11v13.76h-5.76c-4.8,0-5.76-.08-5.76-.46a.86.86,0,0,0-.37-.69c-.24-.15-.29-.08-.13.22s0,.2-.23-.11a1.83,1.83,0,0,0-1.27-.56.89.89,0,0,1-1-.8c-.13-.52-.42-.8-.83-.8s-.7-.29-.83-.8-.42-.8-.8-.8-.62-.15-.65-.32,0-.46-.08-.64a1.82,1.82,0,0,0-.71-.78c-.51-.36-.72-.95-.88-2.47a6,6,0,0,0-.48-2.17c-.94-.62-1.37-3.33-.57-3.64.45-.17,1.16-2.51,1.16-3.81a1.52,1.52,0,0,1,.64-1.14,2.49,2.49,0,0,0,.84-1.66c.15-1,.36-1.28.88-1.35s.7-.28.72-.5.06-.55.08-.72.38-.32.79-.32a1.37,1.37,0,0,0,1.17-.8,1.39,1.39,0,0,1,1.48-.8,1.8,1.8,0,0,0,1.63-.79c.57-.78.62-.79,5.77-.8h5.2v13.76M593,385c.09.61.33.73,1.58.81s1.54.24,1.83.88.59.79,1.65.79,1.28.08,1.28.8.16.8.8.8.8.13.81,1.2.34,2.08.75,2c.72-.1.84.13.84,1.53a2.57,2.57,0,0,0,.8,2.32c1.11,1.06,1.19,4.26.12,4.54-.45.12-.62.35-.49.68s0,.5-.12.5-.31.78-.31,1.74c0,1.55-.07,1.74-.71,1.84a1,1,0,0,0-.84.74c-.11.55-.92,1.43-2.76,3-.28.23-.42.55-.31.72s-.26.3-.8.3c-.83,0-1,.12-1,.8s-.07.8-2.09.8a7.12,7.12,0,0,0-3.29.61,10.53,10.53,0,0,1-2.7.83l-1.52.23V384.25h3.18c3,0,3.18,0,3.28.72m-36.86,71.44V471h-1.26c-.94,0-1.39-.18-1.76-.72-.55-.77-.56-.78-2.26-.84-.87,0-1.21-.22-1.5-.84a1.29,1.29,0,0,0-1-.8.54.54,0,0,1-.59-.46.86.86,0,0,0-.37-.69c-.24-.16-.28-.08-.11.22s-.05.13-.43-.26a2.53,2.53,0,0,1-.69-1,.74.74,0,0,0-.37-.54c-.24-.15-.28-.09-.11.19s.14.34-.08.2a3.14,3.14,0,0,1-.72-1.33c-.25-.76-.56-1.11-1-1.11s-.62-.24-.64-1.2c0-.66-.08-1.56-.13-2-.49-3.8,0-8.77,1-9.69a2.43,2.43,0,0,0,.76-1.27.56.56,0,0,1,.62-.56c.4,0,.66-.26.72-.72a.91.91,0,0,1,.8-.82.9.9,0,0,0,.8-.8c.07-.49.36-.73.94-.8a1.76,1.76,0,0,0,1.25-.88c.38-.71,2.14-1.09,3.9-.82.13,0,.49-.32.8-.76,1.35-1.84,1.37-1.57,1.37,13.76" transform="translate(-360 -155)"/></g></svg>