<?xml version="1.0" encoding="UTF-8"?>
<!-- Generator: Adobe Illustrator 22.0.1, SVG Export Plug-In . SVG Version: 6.00 Build 0)  -->
<svg version="1.1" id="Layer_1" xmlns="http://www.w3.org/2000/svg" xmlns:xlink="http://www.w3.org/1999/xlink" x="0px" y="0px" viewBox="0 0 32 32" style="enable-background:new 0 0 32 32;" xml:space="preserve">
<style type="text/css">
	.st0{fill:#363636;}
	.st1{fill:#F1931B;}
	.st2{fill:#FFFFFF;}
</style>
<path class="st0" d="M15.108,0.176c0.597,0,1.195,0,1.792,0c0.086,0.042,0.181,0.036,0.272,0.043  c0.724,0.057,1.441,0.165,2.152,0.316c1.263,0.267,2.476,0.682,3.635,1.248c1.164,0.568,2.241,1.272,3.232,2.107  c1.443,1.215,2.629,2.643,3.565,4.279c0.401,0.702,0.74,1.432,1.027,2.188c0.483,1.272,0.791,2.584,0.948,3.934  c0.031,0.27,0.025,0.545,0.093,0.811c0,0.597,0,1.195,0,1.792c-0.033,0.056-0.03,0.12-0.035,0.18  c-0.059,0.755-0.167,1.503-0.324,2.245c-0.26,1.223-0.657,2.398-1.195,3.525c-0.572,1.198-1.288,2.304-2.142,3.321  c-1.363,1.624-2.988,2.922-4.87,3.896c-1.179,0.61-2.419,1.053-3.714,1.35c-0.911,0.209-1.832,0.347-2.763,0.394  c-1.379,0.069-2.745-0.052-4.097-0.344c-1.268-0.273-2.486-0.686-3.65-1.255c-1.155-0.564-2.223-1.263-3.207-2.09  c-1.615-1.358-2.907-2.974-3.879-4.846c-0.511-0.984-0.903-2.014-1.196-3.085c-0.3-1.098-0.489-2.213-0.552-3.346  c-0.101-1.831,0.128-3.628,0.651-5.385c0.389-1.306,0.935-2.543,1.65-3.707c0.568-0.924,1.217-1.783,1.958-2.573  c0.823-0.878,1.735-1.651,2.736-2.322c1.059-0.71,2.186-1.284,3.384-1.718c1.259-0.456,2.556-0.745,3.887-0.885  C14.681,0.227,14.899,0.239,15.108,0.176z"/>
<polygon class="st1" points="15.469,4.75 16,10.391 10.969,17.469 14.75,21.297 15.234,27 9.109,20.906 4.016,20.922 "/>
<polygon class="st2" points="16.241,26.94 15.709,21.3 20.741,14.221 16.959,10.393 16.475,4.69 22.6,10.784 27.694,10.768 "/>
</svg>