<?xml version="1.0" encoding="utf-8"?>
<!-- Generator: Adobe Illustrator 25.2.3, SVG Export Plug-In . SVG Version: 6.00 Build 0)  -->
<svg version="1.1" id="Layer_1" xmlns="http://www.w3.org/2000/svg" xmlns:xlink="http://www.w3.org/1999/xlink" x="0px" y="0px"
	 viewBox="0 0 32 32" style="enable-background:new 0 0 32 32;" xml:space="preserve">
<style type="text/css">
	.st0{fill:#FEFEFE;}
	.st1{fill-rule:evenodd;clip-rule:evenodd;fill:#FC2E53;}
</style>
<g>
	<path class="st0" d="M512.31,401.059c21.868,0,42.645,0.028,63.422-0.045c2.009-0.007,2.988,1.15,4.059,2.401
		c23.175,27.057,46.466,54.016,69.468,81.219c13.323,15.756,13.37,36.881,0.068,52.635c-22.983,27.219-46.285,54.17-69.447,81.238
		c-1.205,1.408-2.364,2.498-4.531,2.489c-20.635-0.089-41.271-0.053-61.973-0.053c-0.195-2.201,1.512-3.042,2.507-4.206
		c24.117-28.225,48.278-56.412,72.433-84.603c12.816-14.957,12.839-27.286,0.076-42.18c-24.265-28.317-48.528-56.635-72.789-84.955
		C514.751,404.005,513.922,402.99,512.31,401.059z"/>
	<path class="st0" d="M643.266,445.857c12.184-14.797,23.815-28.897,35.399-43.036c1.051-1.283,2.197-1.792,3.84-1.79
		c25.946,0.036,51.892,0.026,78.305,0.026c-0.658,2.038-2.212,2.75-3.38,3.703c-17.66,14.415-35.417,28.713-52.995,43.227
		c-8.36,6.903-17.49,8.969-27.947,6.194C665.745,451.33,654.926,448.765,643.266,445.857z"/>
	<path class="st0" d="M760.48,620.946c-3.763,0-7.527,0-11.29,0c-21.638,0-43.276-0.018-64.914,0.025
		c-2.394,0.005-4.388-0.152-6.131-2.305c-11.102-13.702-22.351-27.287-33.536-40.922c-0.298-0.363-0.421-0.87-0.801-1.688
		c13.037-3.114,25.691-7.181,38.8-9.271c7.031-1.121,13.652,0.828,19.198,5.292c19.697,15.854,39.277,31.855,58.901,47.8
		C760.631,620.233,760.556,620.589,760.48,620.946z"/>
</g>
<g>
	<circle class="st1" cx="16" cy="16" r="16"/>
	<g>
		<path class="st0" d="M6.789,7.849c1.621,0,3.161,0.002,4.702-0.003c0.149-0.001,0.222,0.085,0.301,0.178
			c1.718,2.006,3.445,4.004,5.15,6.021c0.988,1.168,0.991,2.734,0.005,3.902c-1.704,2.018-3.431,4.016-5.148,6.023
			c-0.089,0.104-0.175,0.185-0.336,0.185c-1.53-0.007-3.06-0.004-4.594-0.004c-0.014-0.163,0.112-0.226,0.186-0.312
			c1.788-2.092,3.579-4.182,5.37-6.272c0.95-1.109,0.952-2.023,0.006-3.127c-1.799-2.099-3.598-4.199-5.396-6.298
			C6.97,8.068,6.908,7.992,6.789,7.849z"/>
		<path class="st0" d="M16.497,11.17c0.903-1.097,1.765-2.142,2.624-3.19c0.078-0.095,0.163-0.133,0.285-0.133
			c1.924,0.003,3.847,0.002,5.805,0.002C25.163,8,25.047,8.053,24.961,8.123c-1.309,1.069-2.626,2.129-3.929,3.205
			c-0.62,0.512-1.297,0.665-2.072,0.459C18.164,11.576,17.362,11.386,16.497,11.17z"/>
		<path class="st0" d="M25.187,24.15c-0.279,0-0.558,0-0.837,0c-1.604,0-3.208-0.001-4.812,0.002c-0.177,0-0.325-0.011-0.455-0.171
			c-0.823-1.016-1.657-2.023-2.486-3.034c-0.022-0.027-0.031-0.065-0.059-0.125c0.967-0.231,1.905-0.532,2.876-0.687
			c0.521-0.083,1.012,0.061,1.423,0.392c1.46,1.175,2.912,2.362,4.367,3.544C25.198,24.098,25.192,24.124,25.187,24.15z"/>
	</g>
</g>
</svg>
