<?xml version="1.0" encoding="utf-8"?>
<!-- Generator: Adobe Illustrator 25.2.1, SVG Export Plug-In . SVG Version: 6.00 Build 0)  -->
<svg version="1.1" id="Layer_1" xmlns="http://www.w3.org/2000/svg" xmlns:xlink="http://www.w3.org/1999/xlink" x="0px" y="0px"
	 viewBox="0 0 32 32" style="enable-background:new 0 0 32 32;" xml:space="preserve">
<style type="text/css">
	.st0{fill-rule:evenodd;clip-rule:evenodd;fill:#FC2E53;}
	.st1{fill:#FEFDFD;}
</style>
<g>
	<circle class="st0" cx="16" cy="16" r="16"/>
	<path class="st1" d="M6.063,7.218c0.343,0,0.617,0,0.89,0c1.332,0,2.664,0.005,3.997-0.005c0.234-0.002,0.388,0.066,0.542,0.247
		c1.796,2.11,3.604,4.209,5.402,6.317c1.195,1.401,1.2,3.066,0.012,4.459c-1.806,2.118-3.62,4.23-5.432,6.344
		c-0.092,0.107-0.164,0.232-0.345,0.232c-1.662-0.005-3.323-0.003-4.992-0.003c-0.012-0.186,0.121-0.254,0.201-0.347
		c1.973-2.309,3.952-4.612,5.923-6.923c0.707-0.828,0.82-1.793,0.317-2.619c-0.144-0.237-0.331-0.45-0.512-0.662
		c-1.922-2.247-3.847-4.492-5.771-6.738C6.229,7.444,6.171,7.36,6.063,7.218z"/>
	<path class="st1" d="M16.524,10.799c0.451-0.549,0.863-1.051,1.275-1.552c0.262-0.319,0.576-0.607,0.776-0.961
		c0.524-0.925,1.285-1.152,2.312-1.092c1.538,0.09,3.086,0.022,4.629,0.026c0.126,0,0.26-0.038,0.421,0.056
		c-0.371,0.305-0.724,0.598-1.08,0.888c-1.124,0.916-2.262,1.816-3.37,2.751c-0.71,0.599-1.478,0.787-2.373,0.542
		C18.274,11.227,17.426,11.027,16.524,10.799z"/>
	<path class="st1" d="M25.937,24.809c-0.17,0-0.297,0-0.424,0c-1.889,0-3.779-0.004-5.668,0.005c-0.26,0.001-0.44-0.064-0.609-0.275
		c-0.825-1.027-1.667-2.039-2.502-3.057c-0.057-0.07-0.14-0.127-0.144-0.275c1.063-0.237,2.104-0.603,3.197-0.74
		c0.503-0.063,0.984,0.09,1.382,0.41c1.564,1.26,3.12,2.53,4.678,3.798C25.873,24.696,25.886,24.732,25.937,24.809z"/>
</g>
</svg>
