<?xml version="1.0" encoding="utf-8"?>
<!-- Generator: Adobe Illustrator 22.0.1, SVG Export Plug-In . SVG Version: 6.00 Build 0)  -->
<svg version="1.1" id="Layer_1" xmlns="http://www.w3.org/2000/svg" xmlns:xlink="http://www.w3.org/1999/xlink" x="0px" y="0px"
	 viewBox="0 0 32 32" style="enable-background:new 0 0 32 32;" xml:space="preserve">
<style type="text/css">
	.st0{fill:#FFFFFF;}
	.st1{fill:#2FBAFD;}
</style>
<g>
	<ellipse class="st0" cx="15.92" cy="16" rx="15.491" ry="15.706"/>
	<path class="st1" d="M30.101,9.056c-1.302-2.648-3.321-4.847-5.834-6.373c-2.132-1.346-4.51-2.154-7.001-2.356v5.116
		c1.346,0,2.76,0,3.164,0c0.606,0,1.122,0.135,1.459,0.471c1.257,1.212,2.356,2.356,3.546,3.725c0.314,0.359,0.067,0.92-0.404,0.92
		h-10.12c-1.638,0-2.85,0.651-2.85,1.773c0,0.628,0.471,1.436,1.1,2.177c1.302,1.481,1.616,1.885,2.401,2.805
		c0.314,0.381,0.763,0.853,1.122,1.212c0.247,0.247,0.067,0.673-0.292,0.673h-4.802c-2.356,0-5.879-3.074-5.879-6.867
		s3.882-6.867,8.684-6.867c0,0,0.112,0,0.269,0V0.349C12.171,0.551,9.703,1.381,7.504,2.75c-2.536,1.593-4.6,3.905-5.834,6.62
		c-0.92,1.997-1.436,4.196-1.436,6.373c-0.067,2.513,0.516,5.049,1.616,7.293c2.491,4.937,7.338,8.213,12.813,8.639v-5.116
		c-1.346,0-2.715,0-3.119,0c-0.606,0-1.122-0.135-1.459-0.471c-1.257-1.212-2.356-2.356-3.546-3.725
		c-0.314-0.359-0.067-0.92,0.404-0.92h10.12c1.638,0,2.85-0.651,2.85-1.773c0-0.628-0.471-1.436-1.1-2.177
		c-1.302-1.481-1.616-1.885-2.401-2.805c-0.314-0.381-0.763-0.853-1.122-1.212c-0.247-0.247-0.067-0.673,0.292-0.673h4.78
		c2.356,0,5.879,3.074,5.879,6.867s-3.882,6.867-8.684,6.867c0,0-0.112,0-0.314,0v5.116c5.184-0.404,9.874-3.411,12.454-7.966
		C32.322,19.199,32.457,13.701,30.101,9.056z"/>
</g>
</svg>
