<?xml version="1.0" encoding="utf-8"?>
<!-- Generator: Adobe Illustrator 25.2.3, SVG Export Plug-In . SVG Version: 6.00 Build 0)  -->
<svg version="1.1" id="Layer_1" xmlns="http://www.w3.org/2000/svg" xmlns:xlink="http://www.w3.org/1999/xlink" x="0px" y="0px"
	 viewBox="0 0 32 32" style="enable-background:new 0 0 32 32;" xml:space="preserve">
<style type="text/css">
	.st0{fill-rule:evenodd;clip-rule:evenodd;fill:#FE6627;}
	.st1{fill:#FDFDFC;}
</style>
<g>
	<circle class="st0" cx="16" cy="16" r="16"/>
	<path class="st1" d="M20.805,17.715c0.478-0.358,0.63-0.88,0.692-1.434c0.059-0.522-0.091-1.001-0.361-1.447
		c-0.219-0.362-0.408-0.396-0.708-0.106c-1.071,1.034-2.141,2.068-3.207,3.106c-0.279,0.271-0.584,0.517-0.833,0.818
		c-0.56,0.465-1.049,1.005-1.566,1.514c-0.184,0.181-0.42,0.322-0.525,0.576c-0.13,0.012-0.192,0.122-0.273,0.199
		c-0.465,0.436-0.928,0.874-1.384,1.32c-0.318,0.311-0.702,0.45-1.134,0.504c-0.301,0.038-0.594-0.042-0.892-0.022
		c-0.883-0.429-1.437-1.233-2.135-1.873c-0.132-0.121-0.109-0.214,0.004-0.334c0.791-0.84,1.622-1.64,2.437-2.454
		c0.514-0.513,1.018-1.037,1.547-1.532c0.678-0.634,1.319-1.304,1.984-1.951c0.803-0.782,1.624-1.549,2.387-2.368
		c0.706-0.759,1.512-1.413,2.206-2.18c0.665-0.735,1.468-1.002,2.43-0.704c0.383,0.119,0.672,0.384,0.948,0.662
		c0.223,0.223,0.449,0.443,0.674,0.664c0.197,0.209,0.38,0.433,0.617,0.601c0,0,0.002,0.011,0.002,0.011
		c0.431,0.445,0.877,0.873,1.328,1.299c0.669,0.632,1.224,1.373,1.457,2.292c0.437,1.73-0.024,3.211-1.254,4.484
		c-1.213,1.255-2.485,2.45-3.716,3.687c-0.819,0.823-1.62,1.664-2.47,2.453c-1.114,1.036-2.464,1.268-3.925,1.017
		c-0.691-0.119-1.277-0.459-1.832-0.866c-0.167-0.122-0.162-0.237-0.028-0.392c0.549-0.631,1.169-1.188,1.773-1.763
		c0.107-0.102,0.203-0.214,0.304-0.321c0.253-0.164,0.414-0.422,0.634-0.62c0.206-0.299,0.498-0.517,0.749-0.771
		c0.328-0.333,0.646-0.678,0.988-0.998c0.344-0.322,0.638-0.692,1.007-0.992c0.203-0.165,0.369-0.384,0.572-0.557
		c0.098-0.075,0.207-0.14,0.232-0.276c0.26-0.183,0.47-0.418,0.68-0.653C20.451,18.149,20.659,17.964,20.805,17.715z"/>
	<path class="st1" d="M5.339,16.016c0.018-1.321,0.466-2.449,1.438-3.366c0.444-0.419,0.845-0.884,1.278-1.315
		c1.595-1.587,3.184-3.181,4.799-4.749c0.954-0.927,2.133-1.268,3.451-1.181c0.704,0.046,1.346,0.279,1.955,0.616
		c0.156,0.086,0.294,0.205,0.435,0.315c0.16,0.124,0.184,0.255,0.027,0.411c-0.396,0.392-0.782,0.794-1.175,1.188
		c-0.376,0.377-0.754,0.752-1.137,1.122c-1.228,1.188-2.404,2.425-3.609,3.636c-0.753,0.757-1.508,1.512-2.253,2.277
		c-1.174,1.206-2.34,2.418-3.508,3.63c-0.407,0.422-0.471,0.413-0.813-0.071c-0.427-0.604-0.738-1.256-0.851-1.992
		C5.349,16.366,5.35,16.19,5.339,16.016z"/>
</g>
</svg>
