<?xml version="1.0" encoding="utf-8"?>
<!-- Generator: Adobe Illustrator 25.2.3, SVG Export Plug-In . SVG Version: 6.00 Build 0)  -->
<svg version="1.1" id="Layer_1" xmlns="http://www.w3.org/2000/svg" xmlns:xlink="http://www.w3.org/1999/xlink" x="0px" y="0px"
	 viewBox="0 0 32 32" style="enable-background:new 0 0 32 32;" xml:space="preserve">
<style type="text/css">
	.st0{fill:#060606;}
	.st1{fill:#95011C;}
	.st2{fill:#FC677F;}
	.st3{fill:#B30A49;}
	.st4{fill:#370009;}
</style>
<g>
	<path class="st0" d="M9.153,21.094c0.478,0.425,0.956,0.849,1.501,1.333c0-0.412,0-0.741,0-1.07c0-1.11,0.006-2.221-0.005-3.331
		c-0.002-0.199,0.03-0.295,0.242-0.362c0.925-0.292,1.846-0.596,2.758-0.925c0.305-0.11,0.344-0.036,0.343,0.253
		c-0.009,2.982-0.006,5.964-0.006,8.946c0,0.398-0.008,0.796,0.004,1.194c0.006,0.18-0.057,0.266-0.229,0.32
		c-0.474,0.149-0.948,0.301-1.413,0.478c-0.195,0.074-0.31,0.036-0.459-0.1c-1.181-1.076-2.269-2.245-3.376-3.394
		c-0.06-0.062-0.124-0.119-0.191-0.182c-0.123,0.105-0.064,0.238-0.065,0.352c-0.005,1.472-0.008,2.945,0.002,4.417
		c0.002,0.223-0.063,0.32-0.279,0.39c-1.134,0.371-2.264,0.755-3.39,1.149c-0.255,0.089-0.337,0.076-0.336-0.23
		c0.004-3.381-0.004-6.762-0.019-10.143c-0.001-0.208,0.049-0.288,0.25-0.351c0.676-0.211,1.354-0.423,2.008-0.692
		c0.289-0.118,0.463-0.016,0.631,0.145C7.777,19.92,8.447,20.527,9.153,21.094C9.153,21.095,9.153,21.094,9.153,21.094z"/>
	<path class="st1" d="M9.006,16.377c-1.291-0.503-2.517-1.144-3.703-1.853c-1.419-0.849-2.916-1.455-4.57-1.636
		c-0.049-0.005-0.096-0.024-0.182-0.046c0.221-0.268,0.437-0.514,0.633-0.773c0.488-0.645,0.782-1.381,1.018-2.149
		c0.414-1.348,0.89-2.671,1.71-3.838c0.522-0.743,1.159-1.372,1.914-1.875c0.952-0.634,1.846-1.355,2.87-1.879
		C8.75,2.299,8.786,2.241,8.829,2.197c0.033-0.021,0.066-0.043,0.1-0.064c0,0,0.003-0.002,0.003-0.002
		c0.066,0.009,0.119-0.01,0.148-0.075c0,0,0.001,0,0.001,0c0.154-0.023,0.336,0.087,0.457-0.094c0.049-0.005,0.098-0.01,0.148-0.014
		c0.059,0.17,0.205,0.107,0.318,0.11c0.335,0.007,0.671,0.003,1.006,0.003c0.27,0,0.543,0.014,0.778-0.159
		c0.05-0.015,0.099-0.03,0.149-0.045c0.057,0.069,0.103,0.05,0.143-0.018c0,0,0.003-0.001,0.003-0.001
		c0.437-0.03,0.858-0.191,1.302-0.167c0.022-0.005,0.038,0.002,0.05,0.021c0.036,0.017,0.071,0.035,0.107,0.052
		c0.019-0.005,0.033,0.002,0.041,0.02c0.032,0.014,0.064,0.029,0.096,0.043l-0.017,0.028c0,0,0.02-0.026,0.019-0.026
		c0.018,0.123,0.112,0.105,0.196,0.106c0,0,0.004,0.002,0.004,0.002c0.034,0.019,0.068,0.038,0.101,0.057
		c0.022-0.004,0.039,0.003,0.05,0.021c0.04,0.096,0.114,0.14,0.216,0.144c0.761,0.356,1.189,1.015,1.568,1.719
		c0.259,0.482,0.534,0.955,0.785,1.441c0.522,1.01,1.364,1.655,2.413,2.137c-0.578,0.376-1.15,0.728-1.535,1.293
		c-0.322-0.141-0.465-0.522-0.824-0.614c-0.001-0.019-0.001-0.038-0.001-0.058c0.364-0.001,0.543-0.284,0.804-0.48
		c-0.307-0.16-0.615-0.161-0.894-0.254c-1.086-0.363-2.024-0.976-2.868-1.742c-0.297-0.27-0.646-0.447-1.054-0.369
		c-0.372,0.071-0.744,0.043-1.115,0.073c-0.714,0.058-1.408,0.24-1.994,0.651C8.473,6.68,7.431,7.444,6.283,8.061
		c-1.18,0.634-2.11,1.609-3.091,2.502c-0.261,0.238-0.531,0.506-0.802,0.883c0.469-0.068,0.805-0.234,1.142-0.401
		c0.024,0.119,0.077,0.215,0.211,0.224c0.681,0.048,1.276,0.367,1.889,0.617c1.128,0.461,2.212,1.005,3.003,1.976
		C9.253,14.621,9.433,15.458,9.006,16.377z M3.764,8.042c0.59-1.085,1.309-2.071,2.185-3.05C4.945,5.107,3.71,6.88,3.764,8.042z
		 M9.772,2.144c-0.08,0-0.229-0.003-0.378,0.001C9.197,2.149,9.189,2.248,9.285,2.383c0.254,0.355,1.084,0.408,1.393,0.095
		c0.128-0.13,0.162-0.221-0.064-0.269C10.358,2.154,10.103,2.118,9.772,2.144z M11.868,3.82c0.506-0.085,0.93-0.219,1.248-0.568
		c0.145-0.159,0.198-0.369,0.099-0.588c-0.037-0.082-0.077-0.163-0.179-0.164c-0.119-0.002-0.128,0.096-0.141,0.182
		c-0.064,0.407-0.338,0.645-0.667,0.843C12.115,3.593,11.982,3.636,11.868,3.82z M9.73,3.824C9.694,3.636,9.632,3.463,9.425,3.4
		C9.302,3.362,9.232,3.437,9.206,3.54C9.13,3.837,9.059,4.137,8.998,4.438c-0.023,0.112,0.01,0.197,0.16,0.156
		C9.39,4.53,9.739,4.067,9.73,3.824z M14.889,3.475c-0.118-0.854-0.983-1.531-1.789-1.311C13.925,2.398,14.468,2.856,14.889,3.475z"
		/>
	<path class="st2" d="M16.657,8.115c0.358,0.093,0.502,0.473,0.824,0.614c0.969,1.152,1.76,2.395,2.032,3.911
		c0.172,0.958,0.192,0.998-0.686,1.314c-0.799,0.288-1.605,0.564-2.429,0.787c-0.806,0.218-1.578,0.56-2.363,0.852
		c-0.171,0.064-0.221,0.215-0.226,0.382c-0.005,0.162-0.001,0.324-0.001,0.5c-0.044-0.011-0.091-0.007-0.106-0.027
		c-0.509-0.7-1.092-0.429-1.71-0.172c-0.395,0.164-0.799,0.335-1.233,0.398c0.022-1.052-0.063-2.086-0.585-3.029
		c-0.176-0.319-0.446-0.567-0.777-0.733c-0.891-0.447-1.809-0.833-2.755-1.148c-0.536-0.178-0.718-0.538-0.506-1.087
		c0.097-0.252,0.264-0.448,0.483-0.604c0.557-0.397,1.187-0.564,1.859-0.59c1.299-0.051,2.539,0.273,3.777,0.61
		c0.227,0.062,0.398,0.185,0.547,0.364c0.787,0.945,1.422,1.982,1.907,3.111c0.147,0.343,0.294,0.686,0.441,1.029
		c0.127-1.595-0.469-2.908-1.512-4.04c-0.597-0.648-0.611-0.688-0.081-1.415c0.119-0.163,0.259-0.3,0.419-0.422
		C14.777,8.108,15.681,7.953,16.657,8.115z M16.275,8.994c-0.004,0.66,0.492,1.208,1.267,1.404c0.134,0.034,0.277,0.088,0.387-0.024
		c0.123-0.124,0.071-0.284,0.014-0.419c-0.215-0.51-0.516-0.964-0.942-1.321c-0.146-0.123-0.311-0.282-0.532-0.166
		C16.254,8.579,16.282,8.797,16.275,8.994z M8.803,10.603c0.445,0.011,0.845-0.062,1.201-0.294c0.231-0.151,0.236-0.32-0.024-0.438
		C9.256,9.543,8.528,9.581,7.82,9.915c-0.273,0.129-0.26,0.295,0.008,0.458C8.135,10.558,8.473,10.625,8.803,10.603z M13.886,13.163
		c0.032-0.018,0.064-0.037,0.096-0.055c-0.011-0.058-0.016-0.118-0.034-0.173c-0.355-1.067-1.047-1.879-1.937-2.537
		c-0.07-0.052-0.173-0.148-0.262-0.042c-0.074,0.088-0.002,0.191,0.04,0.278C12.28,11.655,13.138,12.362,13.886,13.163z"/>
	<path class="st0" d="M24.103,16.47c-0.674,0.118-1.291,0.422-1.944,0.61c-0.129,0.037-0.248,0.117-0.416,0.089
		c0-1.021,0.018-2.043-0.013-3.063c-0.007-0.245,0.17-0.159,0.225-0.178c2.148-0.743,4.302-1.469,6.456-2.196
		c0.919-0.31,1.841-0.609,2.758-0.927c0.209-0.073,0.281-0.06,0.278,0.185c-0.011,0.898-0.01,1.796,0.001,2.694
		c0.002,0.201-0.079,0.278-0.256,0.337c-0.85,0.279-1.691,0.585-2.544,0.851c-0.319,0.099-0.445,0.225-0.442,0.591
		c0.023,2.245,0.006,4.49,0.019,6.735c0.001,0.26-0.078,0.372-0.317,0.449c-0.875,0.284-1.746,0.578-2.612,0.887
		c-0.27,0.096-0.324,0.042-0.323-0.24c0.008-2.233,0-4.465-0.004-6.698c0-0.137,0-0.273,0-0.442
		c-0.313,0.079-0.607,0.142-0.862,0.319C24.107,16.471,24.103,16.47,24.103,16.47z"/>
	<path class="st0" d="M19.729,18.657c0,1.044-0.004,2.05,0.004,3.057c0.001,0.179-0.118,0.194-0.233,0.233
		c-0.47,0.162-0.936,0.339-1.413,0.476c-0.203,0.058-0.243,0.153-0.242,0.34c0.007,0.985-0.007,1.971,0.01,2.956
		c0.004,0.251-0.06,0.373-0.309,0.449c-0.879,0.269-1.752,0.559-2.624,0.85c-0.208,0.07-0.316,0.132-0.314-0.201
		c0.013-3.38,0.005-6.761-0.003-10.141c0-0.176,0.009-0.275,0.212-0.343c2.016-0.67,4.027-1.353,6.038-2.039
		c0.224-0.076,0.298-0.047,0.293,0.212c-0.016,0.885-0.015,1.77,0,2.655c0.004,0.223-0.086,0.295-0.277,0.358
		c-0.929,0.307-1.853,0.627-2.778,0.944c-0.194,0.066-0.36,0.595-0.226,0.737c0.072,0.077,0.159,0.013,0.237-0.013
		C18.633,19.017,19.162,18.843,19.729,18.657z"/>
	<path class="st3" d="M16.657,8.115c-0.976-0.162-1.88-0.007-2.683,0.604c-0.16,0.122-0.301,0.259-0.419,0.422
		c-0.53,0.728-0.517,0.767,0.081,1.415c1.043,1.132,1.639,2.445,1.512,4.04c-0.147-0.343-0.293-0.686-0.441-1.029
		c-0.486-1.129-1.12-2.166-1.907-3.111c-0.149-0.179-0.32-0.302-0.547-0.364c-1.238-0.337-2.478-0.661-3.777-0.61
		c-0.671,0.026-1.302,0.193-1.859,0.59c-0.219,0.156-0.386,0.352-0.483,0.604c-0.212,0.549-0.03,0.909,0.506,1.087
		c0.946,0.314,1.864,0.701,2.755,1.148c0.33,0.166,0.601,0.414,0.777,0.733c0.521,0.943,0.607,1.977,0.585,3.029
		c0,0-0.032,0.016-0.031,0.015c-0.076-0.016-0.141,0-0.191,0.063c0,0-0.031,0.017-0.031,0.017c-0.078-0.02-0.149-0.014-0.199,0.059
		c-0.429,0.064-0.5,0.327-0.49,0.727c0.029,1.171,0.01,2.344,0.005,3.515c0,0.105,0.058,0.253-0.054,0.306
		c-0.107,0.05-0.194-0.08-0.286-0.139c-0.101-0.064-0.16-0.23-0.328-0.142c0,0,0,0,0,0c0.034-0.263-0.193-0.413-0.277-0.627
		c-0.472-1.202-0.289-2.393,0.009-3.588c0.042-0.167,0.081-0.335,0.122-0.503c0.427-0.919,0.247-1.756-0.371-2.514
		c-0.792-0.971-1.875-1.516-3.003-1.976c-0.613-0.25-1.208-0.569-1.889-0.617c-0.134-0.009-0.187-0.106-0.211-0.224
		c0.052-0.053,0.099-0.112,0.156-0.158c1.521-1.223,3.298-1.73,5.21-1.852c1.046-0.067,2.079,0.078,3.111,0.221
		c0.05,0.024,0.1,0.048,0.15,0.073c0.134,0.085,0.233,0.233,0.434,0.265c-0.084-0.249-0.26-0.256-0.437-0.262
		c-0.05-0.025-0.099-0.05-0.149-0.075c0.98-1.282,3.277-1.795,4.648-1.199C16.656,8.076,16.656,8.095,16.657,8.115z"/>
	<path class="st3" d="M11.788,1.902C11.553,2.075,11.28,2.06,11.01,2.06c-0.335,0-0.671,0.005-1.006-0.003
		c-0.113-0.002-0.259,0.06-0.318-0.11c0.297-0.061,0.591,0.003,0.885,0.027C10.982,2.009,11.384,1.945,11.788,1.902z"/>
	<path class="st3" d="M13.385,1.671c-0.444-0.024-0.865,0.137-1.302,0.167C12.509,1.715,12.912,1.42,13.385,1.671z"/>
	<path class="st3" d="M9.539,1.962c-0.122,0.18-0.303,0.071-0.457,0.094C9.219,1.952,9.375,1.942,9.539,1.962z"/>
	<path class="st3" d="M14.249,2.138c-0.102-0.004-0.176-0.048-0.216-0.144C14.124,2.014,14.218,2.029,14.249,2.138z"/>
	<path class="st3" d="M13.877,1.915c-0.084-0.001-0.178,0.017-0.196-0.106C13.758,1.822,13.83,1.845,13.877,1.915z"/>
	<path class="st2" d="M10.536,16.751c0.05-0.063,0.115-0.08,0.191-0.063C10.681,16.765,10.608,16.757,10.536,16.751z"/>
	<path class="st2" d="M10.306,16.827c0.05-0.074,0.121-0.079,0.199-0.059C10.457,16.85,10.379,16.83,10.306,16.827z"/>
	<path class="st3" d="M12.08,1.838c-0.04,0.068-0.086,0.087-0.143,0.018C11.985,1.85,12.032,1.844,12.08,1.838z"/>
	<path class="st3" d="M9.08,2.057C9.051,2.121,8.999,2.141,8.932,2.131C8.961,2.066,9.016,2.052,9.08,2.057z"/>
	<path class="st3" d="M13.542,1.744c-0.036-0.017-0.071-0.035-0.107-0.052C13.471,1.709,13.506,1.726,13.542,1.744z"/>
	<path class="st3" d="M13.679,1.807c-0.032-0.014-0.064-0.029-0.096-0.043C13.615,1.778,13.647,1.793,13.679,1.807z"/>
	<path class="st3" d="M13.983,1.973c-0.034-0.019-0.068-0.038-0.101-0.057C13.915,1.935,13.949,1.954,13.983,1.973z"/>
	<path class="st3" d="M8.929,2.133c-0.033,0.021-0.066,0.043-0.1,0.064C8.863,2.176,8.896,2.154,8.929,2.133z"/>
	<path class="st2" d="M14.406,26.855c-0.007-0.003-0.015-0.007-0.022-0.01c0.006,0.004,0.013,0.009,0.019,0.013L14.406,26.855z"/>
	<path class="st2" d="M14.404,26.858c0.01,0.011,0.02,0.022,0.031,0.033c-0.006-0.003-0.014-0.004-0.017-0.009
		c-0.005-0.008-0.007-0.018-0.011-0.027C14.406,26.855,14.404,26.858,14.404,26.858z"/>
	<path class="st4" d="M12.009,9.255c-1.032-0.142-2.065-0.287-3.111-0.221c-1.912,0.122-3.689,0.629-5.21,1.852
		c-0.057,0.046-0.104,0.105-0.156,0.158c-0.336,0.167-0.673,0.333-1.142,0.401c0.271-0.377,0.541-0.645,0.802-0.883
		c0.981-0.893,1.91-1.868,3.091-2.502c1.149-0.617,2.19-1.382,3.252-2.125c0.587-0.411,1.28-0.593,1.994-0.651
		c0.371-0.03,0.743-0.002,1.115-0.073c0.408-0.078,0.757,0.099,1.054,0.369c0.844,0.766,1.782,1.379,2.868,1.742
		c0.279,0.093,0.587,0.094,0.894,0.254c-0.261,0.196-0.44,0.479-0.804,0.48c-1.371-0.595-3.668-0.082-4.648,1.199L12.009,9.255z"/>
	<path class="st2" d="M3.764,8.042C3.71,6.88,4.945,5.107,5.949,4.992C5.073,5.971,4.354,6.956,3.764,8.042z"/>
	<path class="st2" d="M9.772,2.144c0.331-0.026,0.587,0.01,0.842,0.064c0.227,0.048,0.192,0.14,0.064,0.269
		C10.37,2.791,9.54,2.738,9.285,2.383C9.189,2.248,9.197,2.149,9.394,2.144C9.543,2.141,9.692,2.144,9.772,2.144z"/>
	<path class="st2" d="M11.868,3.82c0.114-0.184,0.247-0.227,0.36-0.295c0.328-0.198,0.603-0.436,0.667-0.843
		c0.013-0.085,0.022-0.183,0.141-0.182c0.102,0.002,0.142,0.082,0.179,0.164c0.099,0.219,0.046,0.429-0.099,0.588
		C12.798,3.601,12.374,3.735,11.868,3.82z"/>
	<path class="st2" d="M9.73,3.824C9.739,4.067,9.39,4.53,9.158,4.593C9.007,4.634,8.975,4.55,8.998,4.438
		c0.062-0.301,0.132-0.6,0.208-0.898C9.232,3.437,9.302,3.362,9.425,3.4C9.632,3.463,9.694,3.636,9.73,3.824z"/>
	<path class="st2" d="M14.889,3.475c-0.421-0.619-0.964-1.077-1.789-1.311C13.906,1.945,14.771,2.621,14.889,3.475z"/>
	<path class="st2" d="M12.157,9.331c0.177,0.006,0.353,0.013,0.437,0.262c-0.201-0.032-0.301-0.18-0.434-0.265
		C12.16,9.328,12.157,9.331,12.157,9.331z"/>
	<path class="st2" d="M12.008,9.257c0.05,0.025,0.099,0.05,0.149,0.075c0,0,0.003-0.003,0.003-0.003
		c-0.05-0.024-0.1-0.048-0.15-0.073C12.009,9.255,12.008,9.257,12.008,9.257z"/>
</g>
</svg>
