<svg id="Layer_1" data-name="Layer 1" xmlns="http://www.w3.org/2000/svg" viewBox="0 0 32 32"><defs><style>.cls-1{fill:#fff;}</style></defs><title>tbtc</title><path d="M16,0A16,16,0,1,0,32,16,16,16,0,0,0,16,0Z"/><path class="cls-1" d="M17.24,24.646c-.138.179-.234.387-.387.555a.4.4,0,0,0-.121.192l-.412.6a.424.424,0,0,0-.124.192,5.273,5.273,0,0,0-.364.516c-.2.281-.387.563-.582.843a.207.207,0,0,1-.065.052.421.421,0,0,1-.632-.25c-.122-.385-.272-.761-.4-1.142-.12-.344-.248-.684-.371-1.027-.147-.405-.3-.809-.445-1.214-.193-.531-.393-1.06-.576-1.594-.139-.409-.288-.814-.43-1.221-.109-.313-.232-.623-.342-.936-.081-.227-.162-.455-.244-.682q-.169-.468-.344-.935c-.076-.2-.145-.411-.218-.616-.081-.227-.164-.453-.246-.68-.09-.249-.179-.5-.265-.75-.161-.472-.341-.937-.511-1.406q-.228-.63-.453-1.262c-.15-.42-.3-.842-.448-1.262-.139-.379-.28-.757-.409-1.14-.049-.144-.1-.293-.159-.434-.036-.124-.071-.248-.11-.371-.011-.033.007-.087-.055-.09-.073-.192-.145-.385-.22-.577-.091-.232-.168-.469-.252-.7S7.89,8.843,7.8,8.613c-.122-.326-.235-.655-.355-.981-.09-.244-.175-.492-.263-.738C7,6.377,6.809,5.862,6.622,5.346a.438.438,0,0,1,.363-.536,4.27,4.27,0,0,1,.633.125c.223.041.446.1.664.158.25.068.509.108.755.194.149.052.312.062.464.106.26.075.53.11.787.2.15.053.315.063.469.108.208.06.427.079.632.158a1,1,0,0,0,.253.056,5.008,5.008,0,0,1,.583.143c.5.11,1,.223,1.491.351.367.094.739.168,1.1.268.417.114.84.2,1.257.307.368.1.741.172,1.108.27.2.054.409.1.611.159s.409.078.605.143c.267.09.546.125.817.2s.567.146.854.206.548.122.817.2c.146.044.3.057.449.1.261.076.532.115.791.208a2.412,2.412,0,0,0,.427.087,1.044,1.044,0,0,1,.438.187c.135.1.268.2.4.3.021.054.07.064.118.075l.555.388.487.341c.178.125.356.252.534.376.163.114.33.221.489.339.184.138.385.251.559.4a.316.316,0,0,1,.1.173.7.7,0,0,1-.146.644c-.185.232-.339.489-.508.734-.156.227-.315.453-.472.679-.044.05-.1.093-.1.169a5.249,5.249,0,0,0-.367.512c-.184.244-.346.5-.525.752-.163.223-.312.458-.471.685-.234.336-.463.676-.693,1.015-.212.312-.412.632-.636.935-.173.234-.33.479-.5.714-.135.188-.262.384-.388.58-.149.23-.314.45-.471.675-.133.192-.269.383-.394.58a1.373,1.373,0,0,0-.091.125c-.061.1-.165.167-.2.286l-.461.673a.441.441,0,0,0-.139.222c-.163.193-.29.41-.435.615-.193.275-.38.554-.57.831s-.356.535-.546.794c-.232.317-.427.659-.671.967a1.342,1.342,0,0,0-.1.173A.147.147,0,0,0,17.24,24.646ZM7.31,5.857l0,.022c0,.041.026.067.047.1.075.191.154.381.224.574q.246.678.483,1.361c.086.247.169.5.263.739.124.324.234.653.354.979.084.227.154.461.241.684.133.342.247.692.377,1.035.071.184.131.375.2.56.141.377.271.759.416,1.136a1.358,1.358,0,0,0,.1.253c.011.077.005.16.073.218.144.4.287.806.432,1.208.155.431.313.861.467,1.292.127.354.247.711.38,1.062.168.443.319.893.491,1.335.119.306.219.62.33.929s.212.614.327.917c.069.182.116.372.2.548a4.395,4.395,0,0,1,.193.51c.1.338.238.664.349,1,.119.359.258.713.385,1.071.149.42.3.838.458,1.257.132.361.273.718.39,1.083a2.942,2.942,0,0,1,.214.686.621.621,0,0,0,.08-.314c.006-.135.014-.272.033-.4a2.624,2.624,0,0,1,.025-.358,2.614,2.614,0,0,0,.066-.455c.018-.156.039-.315.046-.475a8.6,8.6,0,0,1,.1-.933c.021-.135.024-.269.037-.4.026-.281.064-.56.088-.841.013-.158.032-.316.052-.472.031-.252.036-.506.075-.758a4.2,4.2,0,0,0,.06-.507,1.556,1.556,0,0,1,.03-.367c.029-.1,0-.122-.092-.143a4.192,4.192,0,0,1-2.147-6.953c.082-.088.058-.137,0-.207a4.056,4.056,0,0,1-.3-.351c-.12-.17-.265-.316-.391-.48-.141-.183-.3-.351-.447-.529-.135-.161-.258-.333-.4-.488s-.26-.32-.4-.476c-.163-.184-.313-.379-.472-.567-.127-.149-.256-.3-.377-.448s-.26-.319-.387-.482c-.193-.247-.421-.468-.61-.718-.223-.3-.475-.567-.7-.86-.165-.214-.351-.412-.52-.623-.237-.3-.485-.582-.728-.872l-.047-.1c-.024-.019-.05-.057-.079-.034S7.291,5.84,7.31,5.857ZM22,10.057c-.148.157-.3.31-.445.468-.31.338-.636.662-.939,1.008-.163.186-.336.366-.508.543-.262.27-.5.566-.78.815a.108.108,0,0,0-.008.181,3.527,3.527,0,0,1,.531.729c.037.066.069.083.14.045.305-.162.612-.319.918-.479.214-.112.427-.227.642-.338.18-.093.366-.175.542-.276.26-.147.528-.277.8-.4a.784.784,0,0,0,.218-.123c.209-.135.444-.222.657-.353.145-.089.3-.153.457-.231.255-.129.495-.285.761-.39.032-.013.078-.034.083-.059.01-.044-.043-.058-.075-.081-.249-.173-.5-.346-.747-.52-.166-.115-.331-.233-.5-.349l-.516-.357c-.208-.146-.416-.291-.622-.44-.039-.028-.066-.026-.088.011a3,3,0,0,1-.447.481C22.013,9.957,22.007,10.009,22,10.057Zm3.143,1.718c.031-.018.087-.041.043-.079s-.069.022-.095.052c-.085.041-.172.081-.256.125-.364.188-.733.366-1.088.568s-.7.351-1.043.551c-.294.172-.607.312-.911.469-.366.189-.732.38-1.1.57-.162.084-.321.172-.481.257-.083.044-.1.065-.066.145a4.192,4.192,0,0,1-3.275,5.6,5.419,5.419,0,0,1-.891.045c-.033,0-.094-.029-.1.035,0,.1-.049.2-.045.306a2.344,2.344,0,0,1-.027.466c-.041.249-.072.5-.1.751-.027.272-.051.547-.068.821a1.69,1.69,0,0,1-.038.378,2.407,2.407,0,0,0-.062.489c-.013.143-.02.289-.036.43a2.587,2.587,0,0,1-.033.356,5.683,5.683,0,0,0-.075.607c-.018.119,0,.243-.028.357s0,.251-.031.369a5.181,5.181,0,0,0-.092.692c.019,0,.03,0,.033-.007.19-.279.376-.56.567-.838.212-.307.429-.611.64-.92.277-.407.548-.818.826-1.225.215-.313.44-.618.654-.931.141-.206.271-.418.425-.615.045-.015.046-.055.053-.092l.311-.438a.3.3,0,0,0,.121-.191c.084-.12.17-.238.252-.358.191-.278.379-.558.569-.836.249-.363.5-.723.748-1.087.16-.237.32-.473.482-.707.227-.327.451-.656.678-.982.118-.169.239-.334.359-.5.042-.051.1-.093.1-.169.04-.055.083-.107.121-.163.159-.236.307-.481.478-.709.238-.317.448-.654.675-.979.17-.243.336-.491.5-.735.22-.317.432-.638.655-.952S24.926,12.084,25.139,11.775ZM8.132,5.881c-.017-.03-.048-.02-.073-.024S8,5.807,7.978,5.846s.019.069.061.08a1.322,1.322,0,0,0,.2.235c.179.222.356.446.537.667.143.176.291.347.436.521l.443.532.361.428c.173.206.345.413.518.62.117.14.235.279.351.421.13.159.256.322.388.48.148.177.312.343.45.528.123.166.265.316.391.479.143.186.3.358.453.538.191.229.377.462.567.692.124.15.262.29.374.448.066.093.1.085.182.025a4.185,4.185,0,0,1,5.065.014c.134.1.136.1.254-.025.253-.278.514-.548.767-.826q.448-.489.9-.973c.365-.388.727-.78,1.093-1.167.075-.078.157-.149.234-.226.019-.018.046-.04.034-.072s-.042-.014-.064-.018c-.07-.013-.14-.025-.21-.043l-.91-.231a2.919,2.919,0,0,1-.312-.062c-.209-.08-.433-.094-.642-.166-.155-.053-.322-.06-.473-.108-.257-.082-.526-.114-.78-.2-.159-.054-.331-.053-.488-.106-.253-.086-.519-.116-.773-.2-.111-.037-.237-.031-.347-.07-.248-.088-.51-.117-.757-.2-.155-.052-.324-.045-.474-.1-.257-.095-.53-.121-.789-.205-.155-.05-.323-.056-.477-.105-.254-.082-.52-.118-.774-.2-.112-.036-.238-.027-.346-.069-.246-.093-.509-.117-.757-.2-.154-.051-.324-.054-.475-.1-.26-.084-.53-.12-.79-.2-.154-.049-.321-.058-.476-.107a6.973,6.973,0,0,0-.753-.19c-.3-.056-.589-.138-.881-.209a6.719,6.719,0,0,1-.839-.208A2.461,2.461,0,0,1,8.132,5.881ZM20.051,15.9a3.839,3.839,0,1,0-3.857,3.827A3.837,3.837,0,0,0,20.051,15.9Z"/><path class="cls-1" d="M8.523,10.587c.062,0,.044.057.055.09.039.123.074.247.11.371A1.541,1.541,0,0,1,8.523,10.587Z"/><path class="cls-1" d="M20.279,20.223c.032-.119.136-.188.2-.286A.6.6,0,0,1,20.279,20.223Z"/><path class="cls-1" d="M19.679,21.118a.441.441,0,0,1,.139-.222A.421.421,0,0,1,19.679,21.118Z"/><path class="cls-1" d="M16.732,25.393a.4.4,0,0,1,.121-.192A.29.29,0,0,1,16.732,25.393Z"/><path class="cls-1" d="M16.2,26.188A.424.424,0,0,1,16.32,26,.252.252,0,0,1,16.2,26.188Z"/><path class="cls-1" d="M17.24,24.646a.147.147,0,0,1,.117-.148Z"/><path class="cls-1" d="M25.012,13.364c0-.076.054-.119.1-.169C25.111,13.271,25.056,13.314,25.012,13.364Z"/><path class="cls-1" d="M23.514,9.118c-.048-.011-.1-.021-.118-.075C23.441,9.059,23.5,9.061,23.514,9.118Z"/><path class="cls-1" d="M8.132,5.881c-.029.021-.089-.025-.093.045-.042-.011-.079-.041-.061-.08s.053.006.081.011S8.115,5.851,8.132,5.881Z"/><path class="cls-1" d="M10.013,13.3c.078.054.044.147.073.218C10.018,13.457,10.024,13.374,10.013,13.3Z"/><path class="cls-1" d="M22.887,12.35c.043-.093.133-.1.218-.123A.784.784,0,0,1,22.887,12.35Z"/><path class="cls-1" d="M18.76,21.069a.459.459,0,0,1,.121-.191A.3.3,0,0,1,18.76,21.069Z"/><path class="cls-1" d="M25.139,11.775c-.01-.023-.033-.02-.052-.027.026-.03.054-.088.095-.052S25.17,11.757,25.139,11.775Z"/><path class="cls-1" d="M7.409,5.927c-.031,0-.041.024-.049.049-.021-.03-.05-.056-.047-.1l.039.011V5.839l.01-.01Z"/><path class="cls-1" d="M21.969,16.407c-.007-.079.057-.117.1-.169C22.069,16.314,22.011,16.356,21.969,16.407Z"/><path class="cls-1" d="M7.31,5.857c-.019-.017-.06-.035-.027-.062s.055.015.079.034l-.01.01Z"/><path class="cls-1" d="M22.072,9.939c-.015.046-.025.1-.076.118C22.007,10.009,22.013,9.957,22.072,9.939Z"/><path class="cls-1" d="M7.31,5.857l.042-.018V5.89l-.039-.011Z"/><path class="cls-1" d="M18.4,21.6c0-.039.006-.079.053-.092C18.442,21.544,18.441,21.584,18.4,21.6Z"/><path class="cls-1" d="M17.857,15.653l.3.177a1.115,1.115,0,0,1,.386,1.481,1.63,1.63,0,0,1-1.192.832,2.5,2.5,0,0,1-.431.045c-.065,0-.08.023-.08.085,0,.266,0,.531,0,.8,0,.076-.02.1-.094.093-.124-.006-.25-.006-.374,0-.071,0-.087-.022-.086-.089,0-.265,0-.531,0-.8,0-.07-.02-.09-.088-.087-.125,0-.25,0-.374,0-.07,0-.087.019-.086.087,0,.265,0,.531,0,.8,0,.065-.012.092-.084.089-.129-.006-.258-.006-.387,0-.067,0-.088-.017-.087-.086,0-.254,0-.508,0-.761,0-.1-.016-.129-.121-.127-.33.008-.66,0-.99,0h-.122c.049-.222.1-.433.142-.644a.083.083,0,0,1,.1-.076c.149,0,.3,0,.447,0,.064,0,.089-.011.089-.083q0-1.51,0-3.019c0-.072-.024-.087-.09-.086-.2,0-.4,0-.6,0-.066,0-.09-.014-.087-.085.005-.157.006-.314,0-.471,0-.078.025-.092.1-.091.342,0,.684,0,1.026,0,.1,0,.118-.031.116-.121-.006-.257,0-.515,0-.772,0-.068.016-.091.086-.089.129.006.258.006.386,0,.07,0,.087.021.086.088,0,.261,0,.523,0,.785,0,.079.012.115.1.108a2.723,2.723,0,0,1,.338,0c.081,0,.11-.017.108-.105-.006-.258,0-.515,0-.773,0-.074.01-.109.1-.1a2.733,2.733,0,0,0,.362,0c.085-.006.1.029.1.1,0,.257,0,.515,0,.773,0,.086.026.109.107.109a1.528,1.528,0,0,1,.688.153,1.227,1.227,0,0,1,.712,1.082.746.746,0,0,1-.232.539A1.468,1.468,0,0,1,17.857,15.653ZM15.743,16.8c0,.193,0,.386,0,.579,0,.076.015.1.1.1.285-.005.571,0,.856,0a1.138,1.138,0,0,0,.425-.076.649.649,0,0,0,.008-1.2,1.039,1.039,0,0,0-.388-.076c-.306,0-.612,0-.917,0-.062,0-.083.014-.081.079C15.745,16.392,15.742,16.594,15.743,16.8Zm.446-1.271v0c.132,0,.266.009.4,0a.605.605,0,0,0,.058-1.209,6.6,6.6,0,0,0-.844-.022c-.061,0-.059.034-.059.077,0,.362,0,.724,0,1.086,0,.059.015.077.074.075C15.939,15.521,16.064,15.524,16.189,15.524Z"/></svg>