<svg id="Layer_1" data-name="Layer 1" xmlns="http://www.w3.org/2000/svg" viewBox="0 0 31.495 31.63"><defs><style>.cls-1{fill:#3d6670;}.cls-2{fill:#fff;}</style></defs><path class="cls-1" d="M15.893,31.815A15.815,15.815,0,1,1,31.747,16.173,15.778,15.778,0,0,1,15.893,31.815Zm-2.118-4.421a6.925,6.925,0,0,0,.72-.057A4.211,4.211,0,0,0,18.026,23.1q.009-5.354,0-10.707v-.5h.508c.944-.009,1.89.023,2.831-.036a4.182,4.182,0,0,0,3.77-3.272c.066-.3.077-.621.115-.946-.181-.01-.284-.02-.386-.02-4.72,0-9.44-.009-14.16,0a4.173,4.173,0,0,0-3.963,2.984A11.847,11.847,0,0,0,6.509,11.9H7.1q3.047,0,6.091,0c.567,0,.568,0,.567.565q-.006,7.176-.011,14.353C13.747,27,13.764,27.173,13.775,27.394Z" transform="translate(-0.253 -0.185)"/><path class="cls-2" d="M13.775,27.394c-.011-.221-.028-.4-.028-.576q0-7.176.011-14.353c0-.563,0-.565-.567-.565q-3.045,0-6.091,0H6.509a11.847,11.847,0,0,1,.234-1.287,4.173,4.173,0,0,1,3.963-2.984c4.72-.012,9.44,0,14.16,0,.1,0,.205.01.386.02-.038.325-.049.642-.115.946a4.182,4.182,0,0,1-3.77,3.272c-.941.059-1.887.027-2.831.036h-.508v.5q0,5.353,0,10.707A4.211,4.211,0,0,1,14.5,27.337,6.925,6.925,0,0,1,13.775,27.394Z" transform="translate(-0.253 -0.185)"/><path class="cls-2" d="M10.345,18.839q4.362,0,8.723,0A2.572,2.572,0,0,0,21.51,17a7.334,7.334,0,0,0,.144-.793H14.245c-.582.006-1.165-.014-1.744.022a2.576,2.576,0,0,0-2.323,2.016c-.04.187-.047.382-.07.583C10.219,18.833,10.282,18.839,10.345,18.839Z" transform="translate(-0.253 -0.185)"/></svg>