<svg id="Layer_1" data-name="Layer 1" xmlns="http://www.w3.org/2000/svg" viewBox="0 0 31.098 31.711"><defs><style>.cls-1{fill:#fff;}.cls-2{fill:#14c8ff;}</style></defs><rect class="cls-1" x="5.882" y="5.467" width="19" height="19.722"/><path class="cls-2" d="M20.305,14.186l.471-2.425-4.405.008.622-3.2H15.572A9,9,0,0,1,11.3,12.1l-.4,2.091h1.925s-.652,3-.871,4.112c-.546,2.82.823,4.822,2.926,4.822h3.557l.622-2.679H16.083c-1.322,0-1.253-.737-.995-2.045l.818-4.222ZM30.119,8.83a4.388,4.388,0,0,1,1.387,3.731L29.391,24.49A4.409,4.409,0,0,1,26.8,27.531L15.268,31.662a4.526,4.526,0,0,1-3.969-.7L1.88,23.172A4.363,4.363,0,0,1,.5,19.441L2.61,7.511A4.413,4.413,0,0,1,5.2,4.47L16.736.339a4.519,4.519,0,0,1,3.969.694Z" transform="translate(-0.451 -0.145)"/></svg>