<?xml version="1.0" encoding="utf-8"?>
<!-- Generator: Adobe Illustrator 26.0.1, SVG Export Plug-In . SVG Version: 6.00 Build 0)  -->
<svg version="1.1" id="Layer_1" xmlns="http://www.w3.org/2000/svg" xmlns:xlink="http://www.w3.org/1999/xlink" x="0px" y="0px"
	 viewBox="0 0 32 32" style="enable-background:new 0 0 32 32;" xml:space="preserve">
<style type="text/css">
	.st0{fill:#17A84B;}
	.st1{fill:#077FA2;}
</style>
<g>
	<path class="st0" d="M15.844,10.083c-1.794,0.039-2.964,1.248-2.964,3.081c0,1.911,1.209,3.159,3.042,3.159H16v-6.24
		C16,10.083,15.844,10.083,15.844,10.083z"/>
	<path class="st1" d="M19.081,13.203c-0.039-1.716-1.404-3.12-3.081-3.12v6.24C17.716,16.284,19.081,14.919,19.081,13.203
		L19.081,13.203L19.081,13.203z"/>
	<path class="st0" d="M16,31.923V17.259h-0.624c-1.365,0-2.379,1.053-2.574,2.418c-0.078,0.702-0.078,0.897-0.117,1.131
		c-0.039,0.546-0.195,0.78-0.741,0.468c-0.78-0.468-1.56-0.975-2.262-1.521C5.509,15.816,5.899,9.381,11.047,5.832
		c1.209-0.819,1.911-1.755,1.638-3.276c-0.429-2.145-2.301-3.12-4.173-2.028C3.559,3.375,1.141,7.782,0.946,12.579
		c0,1.404,0.195,2.769,0.507,4.134c0,0.078,0.039,0.156,0.039,0.234c0.858,4.368,3.354,7.644,7.566,9.75
		c0.897,0.429,1.833,0.78,2.808,1.053c0.468,0.078,0.819,0.546,0.819,1.014c0,0.312,0.039,0.624,0.117,0.897
		c0.234,1.365,1.326,2.223,2.73,2.262"/>
	<path class="st1" d="M23.449,0.528c-1.872-1.092-3.744-0.117-4.173,2.028c-0.312,1.521,0.429,2.457,1.638,3.276
		c5.148,3.549,5.538,9.984,1.365,13.923c-0.741,0.546-1.482,1.053-2.262,1.521c-0.546,0.312-0.702,0.078-0.741-0.468
		c0-0.39-0.039-0.78-0.117-1.131c-0.195-1.365-1.209-2.418-2.574-2.418H16v14.625l0,0v0.039h0.468c1.443,0,2.496-0.858,2.73-2.262
		c0.039-0.312,0.078-0.624,0.117-0.897c0-0.507,0.312-0.936,0.819-1.014c0.975-0.273,1.911-0.624,2.808-1.053
		c4.212-2.145,6.708-5.382,7.566-9.789c0-0.078,0.039-0.156,0.039-0.234c0.351-1.326,0.507-2.73,0.507-4.134
		C30.82,7.743,28.402,3.375,23.449,0.528z"/>
</g>
</svg>
