<?xml version="1.0" encoding="utf-8"?>
<!-- Generator: Adobe Illustrator 22.0.1, SVG Export Plug-In . SVG Version: 6.00 Build 0)  -->
<svg version="1.1" id="Layer_1" xmlns="http://www.w3.org/2000/svg" xmlns:xlink="http://www.w3.org/1999/xlink" x="0px" y="0px"
	 viewBox="0 0 223.68 223.68" style="enable-background:new 0 0 223.68 223.68;" xml:space="preserve">
<style type="text/css">
	.st0{fill:#20263D;}
	.st1{fill:#FFFFFF;}
	.st2{fill:#5BFF97;}
	.st3{fill:#00B369;}
</style>
<title>ANT</title>
<path class="st0" d="M111.841,0c-0.001,0-0.001,0-0.002,0C50.071,0-0.001,50.072-0.001,111.84s50.072,111.84,111.84,111.84
	s111.84-50.072,111.84-111.84C223.68,50.073,173.608,0.001,111.841,0z"/>
<g>
	<path class="st1" d="M110.365,169.761l-71.318-41.175V60.697l71.318-34.561l71.318,34.561v67.889L110.365,169.761z M46.362,124.362
		l64.003,36.952l64.003-36.952V65.281l-64.003-31.016L46.362,65.281V124.362z"/>
	<g>
		<g>
			<g>
				<path class="st2" d="M90.479,76.368v0.935c0,15.462,19.872,23.712,20.494,23.966V44.357
					C110.351,44.951,90.479,64.002,90.479,76.368z"/>
			</g>
			<g>
				<path class="st2" d="M110.973,101.275v-0.006c-0.01,0.004-0.015,0.006-0.015,0.006H110.973z"/>
			</g>
			<g>
				<path class="st2" d="M110.988,101.275c0,0-0.005-0.002-0.015-0.006v0.006H110.988z"/>
			</g>
			<g>
				<path class="st2" d="M110.958,44.343c0,0,0.005,0.005,0.015,0.014v-0.014H110.958z"/>
			</g>
			<path class="st3" d="M110.973,44.357v56.912c0.623-0.255,20.494-8.504,20.494-23.966v-0.935
				C131.468,64.002,111.596,44.951,110.973,44.357z"/>
			<g>
				<path class="st2" d="M110.973,44.343v0.014c0.01-0.009,0.015-0.014,0.015-0.014H110.973z"/>
			</g>
		</g>
		<g>
			<g>
				<path class="st2" d="M110.595,99.966c0,0-8.354-7.773-24.13-6.715s-22.958,22.463-32.953,21.763
					c0,0,17.235,14.016,32.123,16.454C99.052,133.516,112.929,123.521,110.595,99.966z"/>
			</g>
			<path class="st3" d="M110.981,99.406c0,0,3.475-3.46,11.771-5.325c3.239-0.728,7.083-1.127,11.513-0.83
				c15.775,1.057,22.958,22.463,32.953,21.763c0,0-17.235,14.016-32.123,16.454c-10.898,1.663-22.099-4.619-24.67-19.659
				C109.829,108.333,110.542,103.828,110.981,99.406z"/>
		</g>
	</g>
	<polygon class="st2" points="110.806,193.587 38.887,152.064 38.887,156.021 110.806,197.544 181.843,156.531 181.843,152.574 	"/>
	<polygon class="st2" points="38.887,144.055 38.887,148.012 110.806,189.535 181.843,148.522 181.843,144.565 110.806,185.578 	"/>
	<polygon class="st2" points="110.806,181.526 181.843,140.514 181.843,136.557 110.806,177.569 38.887,136.047 38.887,140.004 	"/>
	<polygon class="st1" points="110.365,103.165 41.949,66.838 43.46,63.993 110.365,99.518 177.269,63.993 178.78,66.838 	"/>
	<rect x="108.754" y="99.406" class="st1" width="3.222" height="66.132"/>
	<path class="st1" d="M110.365,169.761l-71.318-41.175V60.697l71.318-34.561l71.318,34.561v67.889L110.365,169.761z M46.362,124.362
		l64.003,36.952l64.003-36.952V65.281l-64.003-31.016L46.362,65.281V124.362z"/>
	<rect x="108.754" y="99.406" class="st1" width="3.222" height="66.132"/>
	<polygon class="st2" points="110.806,193.587 38.887,152.064 38.887,156.021 110.806,197.544 181.843,156.531 181.843,152.574 	"/>
	<polygon class="st2" points="38.887,144.055 38.887,148.012 110.806,189.535 181.843,148.522 181.843,144.565 110.806,185.578 	"/>
	<polygon class="st2" points="110.806,181.526 181.843,140.514 181.843,136.557 110.806,177.569 38.887,136.047 38.887,140.004 	"/>
	<polygon class="st1" points="110.365,103.165 41.949,66.838 43.46,63.993 110.365,99.518 177.269,63.993 178.78,66.838 	"/>
</g>
</svg>
