<?xml version="1.0" encoding="utf-8"?>
<!-- Generator: Adobe Illustrator 22.0.1, SVG Export Plug-In . SVG Version: 6.00 Build 0)  -->
<svg version="1.1" id="Layer_1" xmlns="http://www.w3.org/2000/svg" xmlns:xlink="http://www.w3.org/1999/xlink" x="0px" y="0px"
	 viewBox="0 0 32 32" style="enable-background:new 0 0 32 32;" xml:space="preserve">
<style type="text/css">
	.st0{fill:#E3BB44;}
	.st1{fill:#FFFFFF;}
</style>
<g>
	<circle class="st0" cx="16" cy="16" r="16"/>
	<g>
		<path class="st1" d="M20.666,16.276c0,0-6.828-0.026-7.073,0c-0.245,0.026-0.261,0.324-0.261,0.324
			c0.026,0.336,0.339,0.376,0.339,0.376s6.572,0.087,6.896,0c0.324-0.087,0.284-0.359,0.284-0.359
			C20.881,16.409,20.666,16.276,20.666,16.276z"/>
		<path class="st1" d="M21.031,13.826c-0.006-0.388-0.318-0.371-0.318-0.371l-7.817-0.046h-0.014c0,0-0.284,0.023-0.321,0.327
			s0.336,0.353,0.336,0.353l7.892,0.038C21.083,14.041,21.031,13.826,21.031,13.826z"/>
		<path class="st1" d="M13.194,12.018h0.886l0.013-3.279c0.03-0.282,0.33-0.334,0.33-0.334l1.364-0.004l-0.221-0.465H12.29v0.76
			h0.895L13.194,12.018z"/>
		<rect x="17.68" y="11.449" class="st1" width="2.736" height="0.578"/>
		<polygon class="st1" points="19.369,11.02 20.281,11.02 20.281,8.7 21.163,8.7 21.163,7.967 18.774,7.967 18.774,8.7 19.374,8.7 
					"/>
		<polygon class="st1" points="14.514,12.027 15.27,12.027 15.248,8.97 15.33,8.974 16.212,12.018 16.772,12.018 17.702,8.7 
			17.71,11.02 18.462,11.02 18.462,9.052 18.314,8.792 18.314,7.967 17.228,7.967 16.916,9.222 16.503,10.802 15.917,8.852 
			14.514,8.852 		"/>
		<path class="st1" d="M24.429,12.114c-0.265-0.065-0.413,0.3-0.413,0.3l-0.524,2.64L22.83,18.45
			c0.004,0.195-0.178,0.182-0.178,0.182l-12.347-0.034l-1.903-7.956c0,0-0.029-0.452-0.602-0.388l-5.814,0.052
			c0,0-0.203,0.104-0.237,0.376c-0.035,0.272,0.284,0.376,0.284,0.376l5.64-0.151l2.548,10.191c0,0,0.069,0.579,0.486,0.625
			c0.417,0.046,0.417,0.046,0.417,0.046h1.112c0,0-0.903,1.807,1.204,2.293c0,0,1.39-0.185,1.482-1.274c0,0,0.093-0.695-0.162-0.996
			l3.521-0.046c0,0-0.973,1.181,0.625,2.224c0,0,1.343,0.486,1.946-0.88c0,0,0.255-0.88-0.139-1.32l2.27-0.046
			c0,0,0.278,0.081,0.301-0.417c0,0-0.035-0.336-0.336-0.255l-4.76,0.023l-5.594,0.012l-1.691,0.012l-0.418-1.746h12.488
			c0.456,0,0.469-0.391,0.469-0.391l1.246-6.501C24.689,12.461,24.694,12.179,24.429,12.114z M19.478,21.719
			c0.454,0,0.822,0.368,0.822,0.822c0,0.454-0.368,0.822-0.822,0.822c-0.454,0-0.822-0.368-0.822-0.822
			C18.656,22.087,19.024,21.719,19.478,21.719z M13.484,21.719c0.454,0,0.822,0.368,0.822,0.822c0,0.454-0.368,0.822-0.822,0.822
			c-0.454,0-0.822-0.368-0.822-0.822C12.662,22.087,13.03,21.719,13.484,21.719z"/>
	</g>
</g>
</svg>
