<svg id="Layer_1" data-name="Layer 1" xmlns="http://www.w3.org/2000/svg" viewBox="0 0 24.972 31.603"><defs><style>.cls-1{fill:#fff;}</style></defs><title>tn</title><path class="cls-1" d="M8.936,1.336c-.081.3-.15.6-.219.9-.415-.011-.9-.323-1.256-.011a14.244,14.244,0,0,0-4.437,5.37,3.457,3.457,0,0,0,.323.829c-.277.1-.553.185-.841.277a19.526,19.526,0,0,0-1.371,6.522c.2.219.414.438.622.646-.208.207-.427.426-.622.645a18.716,18.716,0,0,0,1.348,6.453,2.913,2.913,0,0,0,.853.334c-.116.277-.231.565-.346.841a14.551,14.551,0,0,0,4.621,5.474c.357.1.726-.092,1.095-.115.08.3.161.611.23.91a10.517,10.517,0,0,0,3.757,1.095,10.332,10.332,0,0,0,5.589-1.095c.08-.3.161-.61.242-.91a4.011,4.011,0,0,0,1.037.138,14.282,14.282,0,0,0,4.667-5.5c-.1-.276-.219-.564-.346-.829l.83-.277a18.814,18.814,0,0,0,1.36-6.511,5.506,5.506,0,0,0-.611-.656c.207-.219.426-.438.634-.657a19.163,19.163,0,0,0-1.383-6.523c-.277-.08-.553-.173-.818-.276.115-.277.23-.553.334-.818a14.642,14.642,0,0,0-4-5.025,3.423,3.423,0,0,0-.737-.5c-.323.034-.646.1-.968.161-.081-.3-.162-.611-.231-.91a10.233,10.233,0,0,0-9.357.011Z" transform="translate(-1.123 -0.198)"/><path class="cls-1" d="M9.512,2.477A9.121,9.121,0,0,1,15.02,1.6a9.642,9.642,0,0,1,2.7.876c.069.254.138.507.219.761.346-.023.737-.265,1.037,0A13.251,13.251,0,0,1,23.11,8.227c-.1.242-.207.5-.3.738a3.449,3.449,0,0,1,.749.276,17.17,17.17,0,0,1,1.257,6.073,3.351,3.351,0,0,1-.508.565c.173.173.346.357.519.53a18.1,18.1,0,0,1-1.279,6.142c-.254.081-.5.162-.749.231.1.242.207.484.323.726a13.023,13.023,0,0,1-4.137,5c-.3.265-.7.023-1.049,0-.069.253-.138.5-.2.749a8.984,8.984,0,0,1-6.534.668,9.975,9.975,0,0,1-1.694-.657c-.08-.253-.15-.507-.219-.772-.334.023-.737.265-1.025.012A12.938,12.938,0,0,1,4.131,23.5c.1-.242.207-.484.3-.737-.253-.081-.495-.162-.749-.242A18.247,18.247,0,0,1,2.414,16.4c.173-.185.334-.358.507-.53a3.34,3.34,0,0,1-.507-.565,17.812,17.812,0,0,1,1.256-6.1c.242-.081.5-.161.749-.242-.081-.323-.4-.668-.185-.991a13.115,13.115,0,0,1,4.218-4.9c.277.046.565.093.841.15.069-.242.139-.5.219-.749" transform="translate(-1.123 -0.198)"/><path class="cls-1" d="M9.973,2.88a3.847,3.847,0,0,0-.138.634c.334.507.7.991,1.048,1.5a.756.756,0,0,0,.657.381h4.045a.84.84,0,0,0,.726-.312c.369-.518.738-1.048,1.118-1.567-.058-.219-.1-.438-.161-.657a8.556,8.556,0,0,0-7.295.023" transform="translate(-1.123 -0.198)"/><path class="cls-1" d="M4.753,8.181c.081.208.161.415.242.611.956.012,1.913,0,2.869.012a.749.749,0,0,0,.657-.346c.565-.807,1.141-1.613,1.706-2.42a1.086,1.086,0,0,0,.115-.576C9.95,4.9,9.558,4.332,9.155,3.779a5.031,5.031,0,0,0-.6-.069,12.322,12.322,0,0,0-3.8,4.471" transform="translate(-1.123 -0.198)"/><path class="cls-1" d="M18.04,3.791c-.358.541-.738,1.06-1.13,1.59.012.219-.069.461.081.645L18.72,8.481a.735.735,0,0,0,.645.323h2.858c.08-.208.161-.415.23-.623a12.906,12.906,0,0,0-3.791-4.5c-.2.034-.4.08-.622.115" transform="translate(-1.123 -0.198)"/><path class="cls-1" d="M10.872,6.3c-.588.841-1.187,1.671-1.775,2.512V9.3c.6.876,1.222,1.729,1.833,2.593a.7.7,0,0,0,.622.311H15.6a.772.772,0,0,0,.726-.323c.553-.795,1.106-1.59,1.671-2.373a.729.729,0,0,0,0-.911c-.554-.783-1.107-1.567-1.671-2.362a.757.757,0,0,0-.623-.346H11.54a.845.845,0,0,0-.668.415" transform="translate(-1.123 -0.198)"/><path class="cls-1" d="M4.119,9.587a17.8,17.8,0,0,0-1.152,5.474c.161.173.322.357.484.53,1.532.035,3.065-.012,4.6.023.391-.138.576-.519.806-.83.438-.633.888-1.256,1.337-1.89a.675.675,0,0,0,0-.852c-.542-.761-1.083-1.533-1.613-2.3a.816.816,0,0,0-.715-.426H5.214a3.325,3.325,0,0,0-1.1.276" transform="translate(-1.123 -0.198)"/><path class="cls-1" d="M18.72,9.668l-1.66,2.351a.809.809,0,0,0-.127.7c.588.864,1.21,1.705,1.8,2.569a.722.722,0,0,0,.645.311h4.368c.173-.184.346-.357.518-.541a18.176,18.176,0,0,0-1.14-5.485,3.548,3.548,0,0,0-1.072-.265H19.376a.741.741,0,0,0-.656.357" transform="translate(-1.123 -0.198)"/><path class="cls-1" d="M10.86,13.113c-.587.842-1.175,1.671-1.763,2.513,0,.161,0,.322-.011.484.576.818,1.164,1.636,1.728,2.454a.843.843,0,0,0,.7.449h4.045A.792.792,0,0,0,16.3,18.7c.61-.864,1.221-1.728,1.832-2.6v-.472c-.611-.853-1.21-1.717-1.821-2.57a.776.776,0,0,0-.749-.323H11.529a.74.74,0,0,0-.669.38" transform="translate(-1.123 -0.198)"/><path class="cls-1" d="M3.462,16.144c-.161.173-.322.334-.5.5A17.7,17.7,0,0,0,4.1,22.148a3.305,3.305,0,0,0,1.106.265c.888-.012,1.775,0,2.662,0a.723.723,0,0,0,.657-.357c.6-.853,1.2-1.694,1.8-2.535-.012-.231.046-.5-.127-.68-.565-.784-1.118-1.579-1.671-2.363a.723.723,0,0,0-.657-.345c-1.463.011-2.927-.012-4.4.011" transform="translate(-1.123 -0.198)"/><path class="cls-1" d="M18.72,16.467c-.554.8-1.118,1.578-1.671,2.374-.173.184-.127.438-.15.668.611.853,1.2,1.717,1.809,2.57a.741.741,0,0,0,.668.345h2.651a2.937,2.937,0,0,0,1.083-.276,17.237,17.237,0,0,0,1.129-5.5c-.23-.184-.391-.553-.726-.518H19.365a.694.694,0,0,0-.645.334" transform="translate(-1.123 -0.198)"/><path class="cls-1" d="M10.918,19.855c-.6.864-1.21,1.717-1.821,2.569,0,.162-.011.323-.011.484.588.842,1.187,1.671,1.774,2.513a.737.737,0,0,0,.669.391h4.056a.783.783,0,0,0,.749-.334c.611-.864,1.21-1.717,1.821-2.57-.012-.207.034-.437-.115-.61-.565-.818-1.141-1.625-1.717-2.443a.709.709,0,0,0-.6-.323c-1.394-.011-2.788,0-4.183,0a.708.708,0,0,0-.622.323" transform="translate(-1.123 -0.198)"/><path class="cls-1" d="M5,22.943a3.111,3.111,0,0,0-.231.622,12.155,12.155,0,0,0,3.619,4.356c.207.208.507.058.772.046.346-.495.7-.991,1.049-1.486a.711.711,0,0,0-.023-.841c-.565-.784-1.118-1.579-1.671-2.363a.745.745,0,0,0-.646-.346c-.956.012-1.913.012-2.869.012" transform="translate(-1.123 -0.198)"/><path class="cls-1" d="M18.72,23.277c-.542.761-1.072,1.533-1.625,2.293a.746.746,0,0,0-.069.934c.311.438.61.864.921,1.3.15.253.484.2.726.265a12.935,12.935,0,0,0,3.815-4.494c-.081-.208-.162-.415-.254-.611-.945-.035-1.89,0-2.835-.011a.686.686,0,0,0-.679.322" transform="translate(-1.123 -0.198)"/><path class="cls-1" d="M10.93,26.654c-.381.53-.738,1.06-1.118,1.59.057.207.115.426.173.634a8.487,8.487,0,0,0,7.283-.012c.057-.207.115-.415.161-.634-.38-.518-.738-1.06-1.118-1.578a.806.806,0,0,0-.714-.312H11.552A.725.725,0,0,0,10.93,26.654Z" transform="translate(-1.123 -0.198)"/><path d="M8.936,1.59a10.21,10.21,0,0,1,9.346-.012c.08.3.161.611.23.911.323-.058.645-.127.968-.162a3.446,3.446,0,0,1,.738.5,14.761,14.761,0,0,1,4,5.024c-.115.277-.219.553-.334.818.277.092.542.185.818.277a19.194,19.194,0,0,1,1.383,6.522c-.207.219-.415.438-.634.657a4.617,4.617,0,0,1,.611.657,19.165,19.165,0,0,1-1.36,6.511l-.829.276.345.83a14.179,14.179,0,0,1-4.667,5.5,3.981,3.981,0,0,1-1.037-.139c-.081.3-.161.611-.242.911a10.32,10.32,0,0,1-5.589,1.095,10.473,10.473,0,0,1-3.757-1.095c-.069-.311-.149-.611-.23-.911-.357.024-.737.231-1.1.116A14.475,14.475,0,0,1,2.978,24.4c.116-.277.231-.565.346-.841a2.941,2.941,0,0,1-.853-.334,18.857,18.857,0,0,1-1.348-6.454c.2-.219.415-.438.622-.645-.219-.207-.426-.426-.622-.645A19.719,19.719,0,0,1,2.506,8.965c.276-.092.564-.184.841-.277a3.856,3.856,0,0,1-.323-.829,14.318,14.318,0,0,1,4.437-5.37c.357-.312.841,0,1.256.011.069-.311.15-.611.219-.91m.576,1.141c-.08.253-.15.507-.219.76-.276-.057-.564-.1-.841-.15a13.115,13.115,0,0,0-4.218,4.9c-.23.323.1.668.185.991-.254.081-.5.161-.749.242a17.812,17.812,0,0,0-1.256,6.1,3.34,3.34,0,0,0,.507.565c-.173.172-.346.357-.507.53a17.982,17.982,0,0,0,1.267,6.119c.242.092.5.173.749.242-.092.242-.2.495-.3.737a13.044,13.044,0,0,0,4.137,5.013c.3.253.691.011,1.025-.012.069.254.15.507.219.773a12.492,12.492,0,0,0,1.694.656,9.051,9.051,0,0,0,6.534-.668c.058-.254.138-.5.2-.749.334.023.749.265,1.049,0a13.1,13.1,0,0,0,4.137-5c-.1-.242-.219-.484-.323-.726.253-.081.5-.162.749-.231a18.041,18.041,0,0,0,1.279-6.142c-.173-.173-.346-.357-.519-.53a3.351,3.351,0,0,0,.508-.565,17.437,17.437,0,0,0-1.257-6.073,4.137,4.137,0,0,0-.749-.276c.1-.254.208-.5.3-.738A13.077,13.077,0,0,0,18.973,3.5c-.3-.254-.7-.023-1.037,0-.069-.254-.15-.507-.219-.761a9.88,9.88,0,0,0-2.7-.876,9.027,9.027,0,0,0-5.508.865Z" transform="translate(-1.123 -0.198)"/><path d="M9.962,3.134a8.512,8.512,0,0,1,7.294-.012c.058.219.1.438.161.657-.38.519-.737,1.049-1.117,1.567a.788.788,0,0,1-.726.312H11.529a.779.779,0,0,1-.657-.381c-.346-.507-.714-.991-1.049-1.5A5.313,5.313,0,0,1,9.962,3.134Z" transform="translate(-1.123 -0.198)"/><path d="M4.753,8.435a12.505,12.505,0,0,1,3.8-4.471,3.621,3.621,0,0,1,.6.069c.4.553.8,1.118,1.187,1.682-.023.2.023.415-.115.576-.565.807-1.141,1.614-1.706,2.42a.724.724,0,0,1-.657.346c-.956,0-1.913,0-2.869-.011C4.914,8.838,4.834,8.631,4.753,8.435Z" transform="translate(-1.123 -0.198)"/><path d="M18.04,4.056c.207-.046.426-.081.633-.115a12.576,12.576,0,0,1,3.792,4.505c-.081.208-.162.415-.231.623H19.376a.711.711,0,0,1-.645-.323L17,6.291c-.15-.184-.07-.426-.081-.645C17.3,5.116,17.682,4.586,18.04,4.056Z" transform="translate(-1.123 -0.198)"/><path d="M10.86,6.556a.771.771,0,0,1,.669-.391h4.16a.715.715,0,0,1,.622.345c.553.784,1.106,1.568,1.671,2.363a.728.728,0,0,1,0,.91c-.565.784-1.118,1.579-1.671,2.374a.772.772,0,0,1-.726.323c-1.348-.012-2.7,0-4.045,0a.711.711,0,0,1-.622-.312c-.611-.864-1.233-1.728-1.832-2.592V9.092c.6-.865,1.2-1.694,1.774-2.536Z" transform="translate(-1.123 -0.198)"/><path d="M4.119,9.841a3.037,3.037,0,0,1,1.1-.265h2.65A.816.816,0,0,1,8.579,10c.53.772,1.071,1.533,1.613,2.3a.708.708,0,0,1,0,.852c-.449.634-.9,1.257-1.337,1.89-.23.311-.415.692-.806.83-1.533-.023-3.066.012-4.6-.023-.162-.173-.323-.357-.484-.53A17.454,17.454,0,0,1,4.119,9.841Z" transform="translate(-1.123 -0.198)"/><path d="M18.708,9.921a.759.759,0,0,1,.657-.345h2.673a3.382,3.382,0,0,1,1.072.265,17.505,17.505,0,0,1,1.141,5.485c-.173.184-.346.357-.519.542-1.452-.012-2.915,0-4.367,0a.7.7,0,0,1-.645-.312c-.588-.864-1.21-1.7-1.8-2.569a.76.76,0,0,1,.127-.7c.553-.795,1.106-1.579,1.659-2.363Z" transform="translate(-1.123 -0.198)"/><path d="M10.86,13.367a.777.777,0,0,1,.68-.38h4.034a.8.8,0,0,1,.749.322c.6.865,1.21,1.717,1.82,2.57v.473c-.61.864-1.221,1.728-1.832,2.6a.793.793,0,0,1-.737.311H11.529a.805.805,0,0,1-.7-.449c-.565-.83-1.152-1.637-1.729-2.455,0-.161,0-.323.012-.484.576-.841,1.175-1.671,1.751-2.512Z" transform="translate(-1.123 -0.198)"/><path d="M3.462,16.4c1.464-.023,2.927,0,4.4-.012a.724.724,0,0,1,.657.346c.553.8,1.106,1.579,1.671,2.362.173.185.115.45.127.68-.6.841-1.2,1.694-1.8,2.535a.731.731,0,0,1-.657.357H5.2A3.351,3.351,0,0,1,4.1,22.4a17.392,17.392,0,0,1-1.129-5.508c.173-.161.334-.323.5-.5Z" transform="translate(-1.123 -0.198)"/><path d="M18.72,16.72a.71.71,0,0,1,.668-.334h4.148c.335-.034.5.334.726.519a17.976,17.976,0,0,1-1.129,5.5,2.994,2.994,0,0,1-1.083.277H19.4a.739.739,0,0,1-.668-.346c-.611-.852-1.2-1.717-1.809-2.569a.963.963,0,0,1,.15-.669c.53-.8,1.094-1.579,1.648-2.374Z" transform="translate(-1.123 -0.198)"/><path d="M10.918,20.108a.707.707,0,0,1,.622-.322h4.183a.711.711,0,0,1,.6.322c.576.807,1.152,1.625,1.717,2.443.149.173.092.4.115.611-.611.853-1.21,1.717-1.821,2.57a.785.785,0,0,1-.749.334H11.529a.748.748,0,0,1-.669-.392c-.587-.841-1.186-1.671-1.774-2.512,0-.161,0-.323.011-.484C9.708,21.825,10.307,20.972,10.918,20.108Z" transform="translate(-1.123 -0.198)"/><path d="M5,23.2H7.864a.716.716,0,0,1,.646.345c.553.795,1.106,1.579,1.671,2.363a.711.711,0,0,1,.023.841c-.346.5-.7.991-1.049,1.486-.254.012-.565.162-.772-.046A12.258,12.258,0,0,1,4.764,23.83,2.971,2.971,0,0,1,5,23.2Z" transform="translate(-1.123 -0.198)"/><path d="M18.72,23.531a.706.706,0,0,1,.668-.334c.945.011,1.89-.024,2.835.011a5.646,5.646,0,0,1,.253.611,12.712,12.712,0,0,1-3.814,4.494c-.242-.069-.576-.012-.726-.265-.311-.438-.611-.876-.922-1.3a.75.75,0,0,1,.069-.934C17.648,25.063,18.178,24.291,18.72,23.531Z" transform="translate(-1.123 -0.198)"/><path d="M10.93,26.907a.746.746,0,0,1,.61-.311h4.045a.807.807,0,0,1,.715.311c.38.519.737,1.06,1.117,1.579-.046.207-.1.415-.161.634a8.488,8.488,0,0,1-7.283.011c-.057-.207-.115-.426-.173-.634.392-.53.749-1.06,1.13-1.59Z" transform="translate(-1.123 -0.198)"/></svg>