<?xml version="1.0" encoding="utf-8"?>
<!-- Generator: Adobe Illustrator 28.0.0, SVG Export Plug-In . SVG Version: 6.00 Build 0)  -->
<svg version="1.1" id="Layer_1" xmlns="http://www.w3.org/2000/svg" xmlns:xlink="http://www.w3.org/1999/xlink" x="0px" y="0px"
	 viewBox="0 0 32 32" style="enable-background:new 0 0 32 32;" xml:space="preserve">
<style type="text/css">
	.st0{fill:#0098EA;}
	.st1{fill:#FFFFFF;}
</style>
<g>
	<path class="st0" d="M16,31.849c8.753,0,15.849-7.096,15.849-15.849S24.753,0.151,16,0.151S0.151,7.247,0.151,16
		S7.247,31.849,16,31.849z"/>
	<path class="st1" d="M21.411,8.997H10.588c-1.99,0-3.251,2.147-2.25,3.882l6.68,11.578c0.436,0.756,1.528,0.756,1.964,0
		l6.681-11.578c1-1.733-0.262-3.882-2.25-3.882H21.411z M15.012,20.985l-1.455-2.815l-3.51-6.278
		c-0.232-0.402,0.054-0.917,0.539-0.917h4.424v10.012L15.012,20.985z M21.949,11.89l-3.509,6.281l-1.455,2.814V10.973h4.424
		C21.895,10.973,22.181,11.488,21.949,11.89z"/>
</g>
</svg>
