<?xml version="1.0" encoding="utf-8"?>
<!-- Generator: Adobe Illustrator 26.2.1, SVG Export Plug-In . SVG Version: 6.00 Build 0)  -->
<svg version="1.1" id="Layer_1" xmlns="http://www.w3.org/2000/svg" xmlns:xlink="http://www.w3.org/1999/xlink" x="0px" y="0px"
	 viewBox="0 0 32 32" style="enable-background:new 0 0 32 32;" xml:space="preserve">
<style type="text/css">
	.st0{fill:#FFFFFF;}
	.st1{fill:#BE7C40;}
</style>
<g>
	<ellipse class="st0" cx="15.722" cy="16.028" rx="14.444" ry="15.306"/>
	<g transform="matrix(1.97882,0,0,1.97882,-1769.69,4.00003)">
		<g transform="matrix(1,0,0,1,1030.49,76.067)">
			<path class="st1" d="M-122.505-69.723c-0.522,0-0.946-0.424-0.946-0.946c0-0.054,0.006-0.106,0.014-0.158l-1.019-0.507
				l0.753,4.787l-4.664-3.136l-3.963,2.236l4.458,1.424l-1.598,1.199c0.054,0.119,0.084,0.25,0.084,0.388
				c0,0.522-0.424,0.946-0.946,0.946c-0.522,0-0.946-0.424-0.946-0.946c0-0.522,0.424-0.946,0.946-0.946
				c0.214,0,0.411,0.072,0.57,0.193l0.886-0.665l-4.616-1.475l4.919-2.775l0.594-4.539l-3.816,2.711v-2.072
				c-0.409-0.104-0.713-0.475-0.713-0.915c0-0.522,0.424-0.946,0.946-0.946c0.522,0,0.946,0.424,0.946,0.946
				c0,0.441-0.304,0.811-0.713,0.915v1.168l3.95-2.806l-0.73,5.572l3.776,2.539l-0.727-4.624l1.81,0.901
				c0.173-0.22,0.441-0.361,0.742-0.361c0.522,0,0.946,0.424,0.946,0.946C-121.559-70.148-121.983-69.723-122.505-69.723
				 M-128.089-77.96c-4.395,0-7.957,3.563-7.957,7.957c0,4.395,3.562,7.957,7.957,7.957c4.395,0,7.957-3.563,7.957-7.957
				C-120.131-74.397-123.694-77.96-128.089-77.96"/>
		</g>
		<g transform="matrix(0,-1,-1,0,940.776,25.3833)">
			<path class="st1" d="M24.235,41.367c0.264,0,0.479,0.215,0.479,0.479c0,0.264-0.215,0.479-0.479,0.479
				c-0.264,0-0.479-0.215-0.479-0.479C23.756,41.582,23.971,41.367,24.235,41.367"/>
		</g>
		<g transform="matrix(-1,0,0,1,1030.49,76.9806)">
			<path class="st1" d="M122.505-72.062c0.264,0,0.479,0.215,0.479,0.479c0,0.264-0.215,0.479-0.479,0.479s-0.479-0.215-0.479-0.479
				C122.026-71.847,122.241-72.062,122.505-72.062"/>
		</g>
		<g transform="matrix(-1,0,0,1,952.951,138.749)">
			<path class="st1" d="M52.792-127.596c0.264,0,0.479,0.215,0.479,0.479c0,0.264-0.215,0.479-0.479,0.479
				c-0.264,0-0.479-0.215-0.479-0.479C52.313-127.381,52.528-127.596,52.792-127.596"/>
		</g>
	</g>
</g>
</svg>
