<?xml version="1.0" encoding="UTF-8"?>
<!-- Generator: Adobe Illustrator 22.0.1, SVG Export Plug-In . SVG Version: 6.00 Build 0)  -->
<svg version="1.1" id="Layer_1" xmlns="http://www.w3.org/2000/svg" xmlns:xlink="http://www.w3.org/1999/xlink" x="0px" y="0px" viewBox="0 0 32 32" style="enable-background:new 0 0 32 32;" xml:space="preserve">
<style type="text/css">
	.st0{fill:#3058A6;}
	.st1{fill:#FFFFFF;}
</style>
<path class="st0" d="M31.563,16c0,8.595-6.968,15.563-15.563,15.563C7.405,31.563,0.437,24.595,0.437,16  C0.437,7.405,7.405,0.437,16,0.437C24.595,0.437,31.563,7.405,31.563,16"/>
<path class="st0" d="M16,30.005C8.277,30.005,1.995,23.722,1.995,16C1.995,8.277,8.277,1.995,16,1.995  c7.723,0,14.005,6.283,14.005,14.005C30.005,23.722,23.723,30.005,16,30.005"/>
<path class="st1" d="M16,1.562C8.039,1.562,1.562,8.039,1.562,16c0,7.961,6.477,14.438,14.438,14.438  c7.961,0,14.438-6.477,14.438-14.438C30.438,8.039,23.961,1.562,16,1.562 M16,29.573C8.504,29.573,2.427,23.496,2.427,16  C2.427,8.504,8.504,2.427,16,2.427c7.496,0,13.573,6.077,13.573,13.573C29.573,23.496,23.496,29.573,16,29.573"/>
<path class="st1" d="M21.084,21.164l-0.753,3.264l-0.182,0.79l-0.811,0l-4.166-0.002h-0.008l-0.008,0  c-1.671-0.028-2.982-0.471-3.842-1.255c0.743,1.31,2.32,2.069,4.521,2.105h0.008h0.008l4.166,0.002l0.811,0.001l0.182-0.79  l0.753-3.264l-0.588-1.247L21.084,21.164z"/>
<polygon class="st1" points="19.775,7.17 19.18,5.933 19.095,6.32 18.53,8.893 19.396,8.893 "/>
<path class="st1" d="M22.782,10.146l-0.75,3.175l-0.185,0.785H21.04h-3.708l-1.146,5.234c-0.024,0.15-0.04,0.302-0.04,0.386  c0,0.075,0.009,0.122,0.016,0.145c0.027,0.013,0.106,0.041,0.269,0.047h0.1h0.394l1.087-4.962h3.708h0.806l0.185-0.784l0.751-3.175  l-0.584-1.253L22.782,10.146z"/>
<polygon class="st1" points="11.581,14.105 8.839,14.105 8.435,14.105 9.518,14.955 11.396,14.955 "/>
<path class="st1" d="M16.531,20.935h-0.115c-0.877-0.023-1.29-0.478-1.29-1.21c0-0.173,0.029-0.404,0.058-0.577l1.328-6.061h4.528  l0.75-3.175h-4.528l0.837-3.81h-3.694l-0.837,3.81H9.56l-0.722,3.175h4.008l-1.559,7.129c-0.087,0.346-0.116,0.75-0.116,0.952  c0,2.034,1.604,2.989,4,3.029l4.166,0.002l0.753-3.264h-2.584H16.531z"/>
</svg>