<?xml version="1.0" encoding="utf-8"?>
<!-- Generator: Adobe Illustrator 22.0.1, SVG Export Plug-In . SVG Version: 6.00 Build 0)  -->
<svg version="1.1" id="Layer_1" xmlns="http://www.w3.org/2000/svg" xmlns:xlink="http://www.w3.org/1999/xlink" x="0px" y="0px"
	 viewBox="0 0 32 32" style="enable-background:new 0 0 32 32;" xml:space="preserve">
<style type="text/css">
	.st0{fill:url(#SVGID_1_);}
	.st1{fill:#1C05DB;}
</style>
<g>
	<linearGradient id="SVGID_1_" gradientUnits="userSpaceOnUse" x1="16" y1="31.84" x2="16" y2="0.16">
		<stop  offset="0.5092" style="stop-color:#EF1838"/>
		<stop  offset="0.5109" style="stop-color:#55F018"/>
	</linearGradient>
	<circle class="st0" cx="16" cy="16" r="15.84"/>
	<polygon class="st1" points="7.895,15.683 9.611,21.808 11.354,15.683 14.442,15.683 16.238,21.808 18.033,15.683 20.831,15.683 
		22.679,21.808 24.422,15.683 26.217,15.683 23.63,23.392 21.518,23.524 19.406,17.135 17.241,23.418 15.261,23.524 12.911,16.66 
		10.482,23.524 8.555,23.524 5.994,15.683 	"/>
	<polygon class="st1" points="3.117,11.076 3.117,7.856 9.11,7.856 9.11,11.076 7.974,11.076 7.935,8.872 6.72,8.872 6.734,13.017 
		7.578,13.017 7.552,14.007 4.727,14.007 4.727,13.017 5.506,13.017 5.493,8.872 4.292,8.872 4.265,11.063 	"/>
	<polygon class="st1" points="7.691,9.892 7.4,9.892 7.4,12.674 6.925,12.674 6.925,9.195 7.691,9.195 	"/>
	<polygon class="st1" points="5.242,9.895 5.242,9.195 4.562,9.195 4.562,11.413 3.117,11.413 3.704,12.126 5.018,12.126 
		4.985,9.902 	"/>
	<polygon class="st1" points="9.284,7.856 9.284,11.426 7.997,11.426 8.483,12.126 9.75,12.126 9.75,8.535 	"/>
	<polygon class="st1" points="8.265,13.551 7.796,13.043 7.796,14.337 4.694,14.337 5.328,15.056 8.265,15.056 	"/>
	<g>
		<path class="st1" d="M15.136,12.345c-0.001-0.007-0.001-0.011-0.001-0.013C15.135,12.334,15.135,12.338,15.136,12.345z"/>
		<path class="st1" d="M15.137,12.353c0-0.003-0.001-0.006-0.001-0.008C15.136,12.347,15.137,12.35,15.137,12.353z"/>
		<path class="st1" d="M15.142,12.405C15.142,12.405,15.142,12.405,15.142,12.405c-0.002-0.021-0.004-0.038-0.005-0.051
			C15.138,12.365,15.14,12.382,15.142,12.405z"/>
		<path class="st1" d="M15.498,13.025H15.38c0,0-0.211-0.356-0.238-0.62c0.01,0.099,0.026,0.264,0.026,0.264l-0.198-0.884
			c0,0-0.079-0.304-0.251-0.317l-0.172-0.005v-0.285c0,0,1.109-0.026,1.201-1.624c0,0,0.158-1.518-1.096-1.716h-4.607v1.003h0.832
			v4.132h-0.832v1.016h2.854v-1.03h-0.848l0.013-1.65l1.214,0.013c0,0,0.29,0.106,0.409,0.475l0.515,1.782
			c0,0,0.04,0.284,0.488,0.452H16v-1.006H15.498z M13.819,10.545h-1.752V8.902v-0.05h1.703c0.485,0.05,0.545,0.343,0.545,0.343
			C14.601,10.558,13.819,10.545,13.819,10.545z"/>
		<path class="st1" d="M15.135,12.332C15.135,12.331,15.135,12.331,15.135,12.332L15.135,12.332z"/>
	</g>
	<polygon class="st1" points="10.047,9.222 10.647,9.222 10.647,9.961 	"/>
	<path class="st1" d="M12.304,9.222v0.964h0.488V9.935l1.333-0.013V9.499c0,0-0.04-0.271-0.482-0.277H12.304z"/>
	<polygon class="st1" points="13.571,15.083 13.571,13.518 13.116,13.004 13.116,14.376 10.047,14.376 10.68,15.083 	"/>
	<polygon class="st1" points="16.759,15.083 16.759,13.578 16.277,13.043 16.277,14.376 14.416,14.376 15.142,15.083 	"/>
	<path class="st1" d="M12.634,12.7v-0.295h0.937c0,0-0.165-0.688-0.409-0.715h-0.858v1.01H12.634z"/>
	<path class="st1" d="M15.96,12.66l-0.495-0.772c0,0,0.799-0.574,0.884-1.168c0,0,0.185-0.977-0.086-1.637l-0.455-0.581
		c0,0,0.581,1.373-0.026,2.31c0,0-0.424,0.541-0.648,0.594l0.37,1.294h0.462L15.96,12.66z"/>
	<path class="st1" d="M22.62,9.52c0,0-0.436-1.475-1.733-1.584s-0.049,0-0.049,0h-3.792v0.95l0.841-0.01l-0.02,4.161h-0.822v0.937
		h3.792c0,0,1.574-0.18,1.782-1.649C22.62,12.326,22.917,10.391,22.62,9.52z M21.323,11.713c-0.218,1.247-0.851,1.33-0.851,1.33
		h-1.416V8.902h1.386c0.713,0.059,0.881,1.327,0.881,1.327V11.713z"/>
	<path class="st1" d="M19.274,12.654h0.465V9.842h1.267c0,0-0.119-0.525-0.614-0.663h-1.119V12.654z"/>
	<polygon class="st1" points="17.581,9.822 17.046,9.209 17.581,9.209 	"/>
	<path class="st1" d="M17.046,14.363l0.617,0.719h3.343c0,0,1.647-0.323,2.069-1.67c0,0,0.634-2.204,0.304-3.227
		c0,0-0.396-1.406-1.082-1.868c0,0,0.634,1.254,0.594,1.505c0,0,0.355,2.363-0.554,3.749c0,0-0.455,0.62-1.33,0.779L17.046,14.363z"
		/>
	<path class="st1" d="M23.801,14.032h1.175v-0.658c0,0,0.766,0.924,1.61,0.805c0,0,1.399,0,1.69-1.346c0,0,0.251-1.769-0.436-2.072
		c0,0-0.277-0.409-1.28-0.634l-1.214-0.422c0,0-0.502-0.502,0.119-0.99c0,0,0.832-0.198,1.307,0.37l0.462,0.615h1.088V7.837h-1.14
		l0.026,0.665h-0.106c0,0-0.211-0.594-1.254-0.832c0,0-1.043-0.172-1.795,0.647c0,0-0.528,0.792-0.251,1.967
		c0,0,0,0.581,0.884,0.924l1.637,0.554L26.798,12c0,0,0.251,0.858-0.29,1.043c0,0-0.594,0.343-1.214-0.449
		c0,0-0.33-0.449-0.33-0.818h-1.135L23.801,14.032z"/>
	<path class="st1" d="M26.93,9.882L25.53,9.413c0,0-0.238-0.264,0.106-0.396c0.343-0.132,0.752,0.198,0.752,0.198l0.449,0.436
		l0.158,0.231H26.93z"/>
	<path class="st1" d="M25.174,11.75c0,0,0.356,0.898,0.713,0.924l-0.158-0.502l0.818,0.178c0,0-0.008-0.198-0.324-0.297
		L25.174,11.75z"/>
	<path class="st1" d="M24.521,15.05h1.148v-0.568c0,0,0.911,0.693,1.386,0.719c0,0,1.445-0.277,1.762-1.313
		c0.317-1.036-0.046,0-0.046,0s0.449-1.353,0.092-2.323l-0.581-0.871h0.718V8.443l-0.468-0.607L28.5,10.001l-1.162-0.02
		c0,0,0.832,0.561,0.95,0.825c0,0,0.396,0.944,0.33,1.168c0,0,0.092,0.409-0.073,0.983c0,0-0.211,0.746-0.587,1.063
		c0,0-0.548,0.521-1.036,0.554l-0.614-0.007l-1.135-0.482v0.323l-1.327,0.007L24.521,15.05z"/>
</g>
</svg>
