<?xml version="1.0" encoding="utf-8"?>
<!-- Generator: Adobe Illustrator 28.0.0, SVG Export Plug-In . SVG Version: 6.00 Build 0)  -->
<svg version="1.1" id="Layer_1" xmlns="http://www.w3.org/2000/svg" xmlns:xlink="http://www.w3.org/1999/xlink" x="0px" y="0px"
	 viewBox="0 0 32 32" style="enable-background:new 0 0 32 32;" xml:space="preserve">
<style type="text/css">
	.st0{fill:#FF060A;}
	.st1{fill:#FFFFFF;}
</style>
<g>
	<path class="st0" d="M16,31.645c8.652,0,15.66-7.023,15.66-15.684S24.652,0.278,16,0.278S0.34,7.301,0.34,15.961
		S7.354,31.645,16,31.645z"/>
	<path class="st1" d="M24.808,13.945c-0.864-0.768-2.064-1.938-3.036-2.766l-0.06-0.036c-0.096-0.072-0.204-0.132-0.318-0.174l0,0
		c-2.352-0.42-13.296-2.382-13.506-2.358c-0.06,0.006-0.12,0.03-0.168,0.06L7.666,8.713C7.6,8.779,7.546,8.857,7.516,8.947
		L7.504,8.983v0.198v0.03c1.23,3.288,6.096,14.052,7.056,16.584c0.06,0.174,0.168,0.498,0.372,0.516h0.048
		c0.108,0,0.576-0.594,0.576-0.594s8.358-9.708,9.204-10.74c0.108-0.126,0.204-0.264,0.288-0.408
		c0.024-0.114,0.012-0.228-0.03-0.336C24.976,14.125,24.898,14.023,24.808,13.945L24.808,13.945z M17.692,15.079l3.564-2.832
		l2.094,1.848L17.692,15.079z M16.306,14.893l-6.138-4.824l9.936,1.758L16.306,14.893z M16.858,16.153l6.282-0.972l-7.182,8.298
		L16.858,16.153z M9.334,10.555l6.462,5.25l-0.936,7.68L9.334,10.555z"/>
</g>
</svg>
