<svg id="Layer_1" data-name="Layer 1" xmlns="http://www.w3.org/2000/svg" viewBox="0 0 32 32"><defs><style>.cls-1{fill:#4800ee;}.cls-2,.cls-4{fill:#fff;}.cls-2,.cls-3{stroke:#fff;stroke-miterlimit:10;}.cls-3{fill:none;}</style></defs><circle class="cls-1" cx="16" cy="16" r="16"/><line class="cls-2" x1="3.68" y1="9.839" x2="10.873" y2="9.839"/><line class="cls-3" x1="13.12" y1="21.452" x2="10.378" y2="9.617"/><line class="cls-3" x1="26.313" y1="21.086" x2="12.692" y2="21.064"/><line class="cls-3" x1="26.54" y1="18.566" x2="12.593" y2="18.566"/><line class="cls-2" x1="27.34" y1="11.885" x2="26.072" y2="18.841"/><line class="cls-2" x1="23.14" y1="11.659" x2="27.804" y2="11.659"/><line class="cls-2" x1="22.938" y1="15.284" x2="26.609" y2="15.284"/><rect class="cls-4" x="17.517" y="12.616" width="2.816" height="2.816"/><rect class="cls-4" x="17.843" y="10.096" width="1.563" height="1.563"/><rect class="cls-4" x="15.012" y="10.096" width="1.563" height="1.563"/><rect class="cls-4" x="15.012" y="12.919" width="1.563" height="1.563"/><rect class="cls-4" x="13.744" y="10.096" width="0.642" height="0.642"/><rect class="cls-4" x="15.012" y="9.139" width="0.626" height="0.626"/><rect class="cls-4" x="13.441" y="8.821" width="0.632" height="0.632"/><circle class="cls-3" cx="16" cy="22.451" r="1.248"/><circle class="cls-3" cx="22.406" cy="22.505" r="1.248"/></svg>