<?xml version="1.0" encoding="utf-8"?>
<!-- Generator: Adobe Illustrator 22.0.1, SVG Export Plug-In . SVG Version: 6.00 Build 0)  -->
<svg version="1.1" id="Layer_1" xmlns="http://www.w3.org/2000/svg" xmlns:xlink="http://www.w3.org/1999/xlink" x="0px" y="0px"
	 viewBox="0 0 32 32" style="enable-background:new 0 0 32 32;" xml:space="preserve">
<style type="text/css">
	.st0{fill:#FFFFFF;}
	.st1{fill:#68AEFC;}
</style>
<path class="st0" d="M10.118,22.941c0.024,0.022,0.047,0.045,0.071,0.067l0.002-0.002c-0.043,0.019-0.074,0-0.101-0.032
	C10.099,22.963,10.108,22.952,10.118,22.941z"/>
<path class="st0" d="M26.901,10.563c0.008,0.005,0.016,0.01,0.025,0.015c-0.005,0-0.011,0.002-0.014,0
	c-0.004-0.005-0.006-0.011-0.009-0.017C26.903,10.561,26.901,10.563,26.901,10.563z"/>
<path class="st0" d="M10.189,23.008c0.006,0.003,0.013,0.005,0.018,0.009c0.002,0.002,0,0.009,0,0.014
	c-0.005-0.008-0.01-0.017-0.015-0.025C10.191,23.006,10.189,23.008,10.189,23.008z"/>
<g>
	<path class="st0" d="M5.253,18.943c0.001-3.577,2.514-6.632,6.022-7.297c0.411-0.078,0.575-0.224,0.656-0.675
		c0.603-3.35,3.445-5.818,6.843-6.063c3.824-0.275,7.388,2.525,7.891,6.615c0.46,3.745-2.239,7.411-6.043,8.107
		c-0.457,0.084-0.561,0.312-0.637,0.699c-0.594,3.044-2.912,5.357-5.923,5.933C9.467,27.141,5.252,23.638,5.253,18.943z
		 M19.251,11.476c0-0.007,0-0.015,0-0.022c1.749,0,3.498-0.007,5.247,0.006c0.329,0.002,0.407-0.055,0.331-0.408
		c-0.541-2.529-2.866-4.416-5.525-4.454c-2.631-0.037-5.061,1.838-5.629,4.332c-0.089,0.393-0.027,0.561,0.434,0.554
		C15.823,11.462,17.538,11.476,19.251,11.476z M12.674,19.806c0,0.007,0,0.015,0,0.022c-1.573,0-3.147,0-4.72,0
		c-1.025,0-1.025,0-0.696,0.974c0.827,2.447,3.124,3.979,5.798,3.868c2.402-0.1,4.594-1.939,5.187-4.336
		c0.088-0.357,0.087-0.543-0.376-0.537C16.135,19.819,14.405,19.806,12.674,19.806z M13.529,15.591c0.007,0,0.015,0,0.022,0
		c0,0.699,0.012,1.399-0.006,2.098c-0.008,0.3,0.096,0.389,0.391,0.386c1.364-0.012,2.729-0.013,4.093,0
		c0.302,0.003,0.388-0.1,0.384-0.392c-0.017-1.364-0.023-2.728-0.013-4.092c0.002-0.302-0.097-0.386-0.39-0.383
		c-1.364,0.013-2.729,0.012-4.093,0.001c-0.294-0.003-0.401,0.09-0.393,0.389C13.541,14.261,13.529,14.926,13.529,15.591z
		 M20.09,15.186c-0.059,0.669,0.075,1.522,0.049,2.376c-0.01,0.327,0.082,0.432,0.422,0.358c2.039-0.445,3.885-2.332,4.281-4.368
		c0.057-0.292-0.001-0.367-0.287-0.366c-1.362,0.009-2.724,0.011-4.086-0.001c-0.304-0.003-0.395,0.111-0.385,0.4
		C20.103,14.056,20.09,14.528,20.09,15.186z M11.814,15.745c-0.007,0-0.015,0-0.022,0c0-0.682-0.016-1.365,0.007-2.046
		c0.012-0.358-0.12-0.42-0.433-0.333c-2.225,0.621-3.643,2.044-4.27,4.265C7,17.973,7.075,18.102,7.452,18.098
		c1.312-0.017,2.624-0.018,3.936,0.001c0.364,0.005,0.442-0.141,0.432-0.465C11.801,17.005,11.814,16.375,11.814,15.745z"/>
</g>
<g>
	<circle class="st1" cx="15.968" cy="16" r="15.84"/>
</g>
<path class="st0" d="M5.297,21.817c0.2,0.1,0.2,0.2,0.3,0.3c1,1.1,2.2,2.1,3.5,2.7c1.3,0.7,2.7,1.1,4.2,1.2c0.5,0,0.9,0.1,1.4,0.1
	c1.4-0.1,2.9-0.3,4.2-0.9c1.1-0.5,2.1-1.1,3.1-1.9c0.8-0.7,1.6-1.5,2.1-2.5c0.6-1.1,1-2.2,1.1-3.4c0-0.4,0.1-0.8,0.1-1.2
	c0-1.2-0.2-2.3-0.7-3.4c-0.5-1.3-1.3-2.3-2.3-3.3c-0.1-0.1-0.2-0.1-0.2-0.2c0.1,0.1,0.3,0.2,0.4,0.3c0.9,0.5,1.8,1.2,2.5,2
	c0.9,1,1.5,2,2,3.2c0.3,0.8,0.5,1.6,0.5,2.5c0.2,2.5-0.5,4.8-2.1,6.7c-1.3,1.7-3,2.8-5,3.6c-1,0.4-2,0.6-3,0.7
	c-0.9,0.1-1.8,0.1-2.6,0c-1.2-0.1-2.4-0.4-3.6-0.9s-2.3-1.2-3.3-2.2C6.797,24.317,5.997,23.217,5.297,21.817z"/>
<path class="st0" d="M10.297,23.417c-0.6-0.2-1.1-0.6-1.5-0.9c-1.3-1-2.3-2.2-3-3.7c-0.4-0.9-0.7-1.8-0.8-2.8
	c-0.1-0.7-0.1-1.3-0.1-2c0.1-1.2,0.4-2.4,1-3.5c0.5-1,1.2-1.9,2-2.7c1.2-1.2,2.6-2.1,4.3-2.7c1-0.3,1.9-0.6,2.9-0.7
	c0.9-0.1,1.8-0.1,2.7,0c1.4,0.1,2.8,0.6,4.1,1.2c0.9,0.4,1.7,1,2.5,1.7c1.2,1,2.1,2.2,2.8,3.5v0.1l0,0c-0.3-0.3-0.6-0.6-0.8-0.9
	c-1.3-1.3-2.8-2.3-4.6-2.8c-0.8-0.3-1.6-0.4-2.4-0.5c-1.5-0.2-3.1,0-4.6,0.4c-1.6,0.5-3,1.3-4.3,2.4c-1.2,1-2.1,2.3-2.7,3.8
	c-0.3,0.8-0.5,1.7-0.5,2.6c-0.1,1.5,0.2,2.9,0.8,4.3c0.5,1.1,1.2,2.1,2.1,3C10.197,23.217,10.297,23.217,10.297,23.417
	L10.297,23.417z"/>
<path class="st0" d="M14.697,18.517c0-1.4,0-2.9,0-4.3c0-0.2-0.1-0.3-0.3-0.3c-1.2,0-2.4,0-3.6,0c-0.2,0-0.2-0.1-0.2-0.2
	c0.3-0.8,0.9-1.4,1.7-1.8c0.7-0.3,1.4-0.5,2.2-0.5c2.2,0,4.4,0,6.6,0c0.3,0,0.3,0,0.2,0.3c-0.5,1.2-1.4,2-2.7,2.2
	c-0.2,0-0.4,0-0.6,0s-0.5-0.1-0.7,0c-0.1,0.1,0,0.4,0,0.7c0,1.8,0,3.6,0,5.4c0,0.9-0.4,1.7-1.1,2.2c-0.4,0.3-0.8,0.5-1.2,0.7
	c-0.2,0.1-0.3,0.1-0.3-0.2C14.697,21.317,14.697,19.917,14.697,18.517z"/>
<path class="st0" d="M10.297,23.417C10.297,23.417,10.397,23.417,10.297,23.417L10.297,23.417L10.297,23.417L10.297,23.417z"/>
<path class="st0" d="M27.097,11.017L27.097,11.017L27.097,11.017L27.097,11.017L27.097,11.017z"/>
<path class="st0" d="M10.397,23.417L10.397,23.417L10.397,23.417L10.397,23.417L10.397,23.417z"/>
</svg>
