<?xml version="1.0" encoding="utf-8"?>
<!-- Generator: Adobe Illustrator 22.0.1, SVG Export Plug-In . SVG Version: 6.00 Build 0)  -->
<svg version="1.1" id="Layer_1" xmlns="http://www.w3.org/2000/svg" xmlns:xlink="http://www.w3.org/1999/xlink" x="0px" y="0px"
	 viewBox="0 0 32 32" style="enable-background:new 0 0 32 32;" xml:space="preserve">
<style type="text/css">
	.st0{fill:#FFFFFF;}
	.st1{fill:#4FD5F9;}
</style>
<g>
	<circle class="st0" cx="16.376" cy="16" r="15"/>
	<g>
		<path d="M15.988,31.858c-8.758-0.004-15.855-7.12-15.845-15.887c0.01-8.741,7.12-15.833,15.87-15.829
			c8.758,0.004,15.855,7.12,15.845,15.887C31.848,24.77,24.737,31.862,15.988,31.858z M23.084,16.523c0-2.269,0-4.538,0-6.807
			c0-0.445-0.193-0.796-0.586-0.985c-0.365-0.175-0.769-0.19-1.129,0.031c-0.415,0.255-0.563,0.663-0.563,1.137
			c0.001,4.363,0.001,8.726,0,13.089c0,0.088-0.004,0.176,0.001,0.263c0.039,0.687,0.545,1.12,1.29,1.105
			c0.571-0.011,0.987-0.499,0.987-1.157C23.084,20.973,23.084,18.748,23.084,16.523z M11.187,16.492c0-2.225,0-4.449,0-6.674
			c0-0.725-0.434-1.223-1.075-1.237C9.459,8.567,8.983,9.07,8.983,9.804c-0.004,4.449-0.004,8.899,0,13.348
			c0.001,0.717,0.467,1.207,1.114,1.203c0.642-0.004,1.09-0.505,1.09-1.222C11.187,20.919,11.187,18.706,11.187,16.492z
			 M15.205,14.618c0-2.137,0.003-4.275-0.002-6.412c-0.001-0.646-0.463-1.117-1.083-1.127c-0.614-0.01-1.09,0.454-1.12,1.095
			c-0.007,0.153-0.001,0.307-0.001,0.46c0,4.078,0.001,8.155-0.002,12.233c0,0.313,0.03,0.613,0.228,0.872
			c0.294,0.384,0.783,0.534,1.234,0.381c0.461-0.157,0.743-0.561,0.744-1.089C15.206,18.893,15.205,16.755,15.205,14.618z
			 M16.966,14.625c0,2.181,0.011,4.362-0.007,6.542c-0.005,0.629,0.531,1.058,1.111,1.078c0.588,0.02,1.109-0.513,1.11-1.1
			c0.001-4.34,0.001-8.679,0-13.019c0-0.61-0.499-1.075-1.144-1.074c-0.617,0.001-1.069,0.45-1.07,1.064
			C16.966,10.286,16.966,12.456,16.966,14.625z M26.988,16.954c0-1.349-0.001-2.698,0.001-4.047c0-0.232-0.03-0.461-0.157-0.653
			c-0.295-0.446-0.846-0.619-1.38-0.455c-0.42,0.129-0.726,0.58-0.727,1.099c-0.003,2.709-0.004,5.417,0.001,8.126
			c0.001,0.691,0.485,1.174,1.144,1.168c0.64-0.006,1.119-0.515,1.119-1.192C26.988,19.652,26.988,18.303,26.988,16.954z
			 M5.088,16.989c0,1.326-0.001,2.651,0,3.977c0.001,0.706,0.467,1.216,1.103,1.213c0.643-0.003,1.098-0.502,1.099-1.219
			c0.002-2.651,0.002-5.303,0-7.954c-0.001-0.744-0.451-1.231-1.12-1.223c-0.646,0.008-1.081,0.501-1.082,1.228
			C5.087,14.338,5.088,15.664,5.088,16.989z"/>
		<path class="st1" d="M11.187,16.492c0,2.214,0,4.427,0,6.641c0,0.717-0.447,1.218-1.09,1.222
			c-0.647,0.004-1.114-0.486-1.114-1.203c-0.004-4.449-0.004-8.899,0-13.348c0.001-0.734,0.476-1.236,1.129-1.223
			c0.642,0.013,1.075,0.511,1.075,1.237C11.187,12.042,11.187,14.267,11.187,16.492z"/>
		<path class="st1" d="M15.205,14.618c0,2.137,0.001,4.275-0.001,6.412c-0.001,0.528-0.282,0.931-0.744,1.089
			c-0.452,0.154-0.94,0.003-1.234-0.381c-0.198-0.259-0.228-0.559-0.228-0.872c0.002-4.078,0.002-8.155,0.002-12.233
			c0-0.153-0.006-0.307,0.001-0.46c0.03-0.641,0.506-1.105,1.12-1.095c0.62,0.01,1.081,0.481,1.083,1.127
			C15.208,10.343,15.205,12.48,15.205,14.618z"/>
		<path class="st1" d="M5.088,16.989c0-1.326,0-2.651,0-3.977c0-0.728,0.435-1.22,1.082-1.228c0.669-0.008,1.12,0.479,1.12,1.223
			c0.002,2.651,0.002,5.303,0,7.954c-0.001,0.717-0.455,1.216-1.099,1.219c-0.636,0.003-1.102-0.508-1.103-1.213
			C5.087,19.641,5.088,18.315,5.088,16.989z"/>
	</g>
</g>
</svg>
