<?xml version="1.0" encoding="utf-8"?>
<!-- Generator: Adobe Illustrator 26.2.1, SVG Export Plug-In . SVG Version: 6.00 Build 0)  -->
<svg version="1.1" id="Layer_1" xmlns="http://www.w3.org/2000/svg" xmlns:xlink="http://www.w3.org/1999/xlink" x="0px" y="0px"
	 viewBox="0 0 32 32" style="enable-background:new 0 0 32 32;" xml:space="preserve">
<style type="text/css">
	.st0{fill:#1E98D1;}
	.st1{fill:#FFFFFF;}
</style>
<g>
	<circle class="st0" cx="16" cy="16" r="15.778"/>
	<g>
		<path class="st1" d="M14.335,9.259c-0.004-0.049-0.008-0.099-0.012-0.148c-0.004-0.606-0.005-1.212-0.012-1.817
			c-0.005-0.408-0.244-0.551-0.588-0.346c-0.39,0.232-0.77,0.481-1.158,0.718c-0.127,0.078-0.221,0.169-0.214,0.33v4.186
			c-0.003,0.002-0.006,0.005-0.009,0.008c-0.001,1.75-0.003,3.499-0.004,5.249c0.001,0.027,0.002,0.054,0.003,0.08
			c0.001,0.77,0.002,1.539,0.004,2.309c0.002,0.008,0.004,0.017,0.006,0.025v0.972c-0.01,0.026-0.02,0.052-0.032,0.078
			c-0.132,0.372-0.303,0.435-0.657,0.218c-0.981-0.603-1.942-1.242-2.945-1.807c-0.366-0.206-0.434-0.442-0.433-0.806
			c0.009-2.469,0.005-4.938,0.007-7.406c0-0.18-0.001-0.35-0.176-0.462c-0.188-0.121-0.33-0.004-0.479,0.085
			c-0.269,0.161-0.538,0.322-0.807,0.483c-0.025,0.019-0.05,0.038-0.075,0.057c-0.393,0.147-0.461,0.454-0.458,0.835
			c0.024,2.611,0.034,5.223,0.048,7.834c0,0.023,0.002,0.047,0.001,0.07c-0.016,0.208,0.072,0.341,0.252,0.456
			c0.736,0.47,1.47,0.946,2.216,1.394c1.058,0.635,2.094,1.302,3.149,1.94c0.595,0.36,1.182,0.735,1.778,1.095
			c0.32,0.194,0.542,0.07,0.56-0.304c0.009-0.186,0.009-0.373,0.01-0.56c0.009-1.983,0.017-3.965,0.025-5.948
			c-0.001-0.025-0.002-0.05-0.003-0.075c0.002-0.371,0.004-0.743,0.006-1.114c-0.001-0.025-0.003-0.051-0.004-0.076
			c-0.002-2.332-0.004-4.663-0.006-6.995c0.004-0.05,0.008-0.099,0.012-0.149C14.306,9.531,14.307,9.395,14.335,9.259z"/>
		<path class="st1" d="M15.29,8.816c0.466-0.005,0.933-0.015,1.398,0.003c0.241,0.009,0.293-0.086,0.289-0.304
			c-0.012-0.641-0.012-1.282-0.001-1.922c0.002-0.088-0.012-0.144-0.047-0.179l0.02-0.016c-0.022-0.004-0.043-0.008-0.065-0.012
			c-0.029-0.012-0.066-0.019-0.112-0.021c-0.227-0.038-0.456-0.06-0.687-0.063l0-0.001l0,0.001c-0.093-0.001-0.186,0-0.28,0.004
			c-0.028-0.002-0.056-0.004-0.085-0.006l-0.566,0.064c-0.1,0.014-0.125,0.072-0.124,0.17c0.004,0.687,0.008,1.375-0.001,2.062
			C15.026,8.803,15.132,8.818,15.29,8.816z"/>
		<path class="st1" d="M16.991,17.61c0.002-0.684,0.004-1.368,0.006-2.052c0-0.097,0-0.194,0-0.29
			c-0.007-1.798-0.014-3.595-0.018-5.393c0-0.156,0.03-0.312-0.205-0.298c-0.051,0-0.101-0.001-0.152-0.001
			c-0.136-0.001-0.272-0.003-0.407-0.004c-0.051,0.003-0.101,0.005-0.152,0.008c-0.09-0.001-0.179-0.002-0.269-0.003
			c-0.051,0-0.101,0.001-0.152,0.001c-0.113,0-0.226,0-0.339,0c-0.073,0.002-0.147,0.005-0.22,0.007
			c-0.106,0.081-0.052,0.195-0.052,0.293c0,5.005,0.004,10.009,0.007,15.014c0,0.571,0.053,0.646,0.611,0.764
			c0.426,0.09,0.859,0.055,1.206-0.207c0.138-0.104,0.155-0.253,0.143-0.41l0.003,0.001L16.991,17.61z"/>
		<path class="st1" d="M25.706,15.524l-0.01-1.475c0.003-0.205,0.007-0.409,0.01-0.614c-0.005-0.012-0.005-0.023-0.001-0.035
			c0-0.315,0.001-0.63,0.001-0.945c-0.004-0.012-0.004-0.024,0-0.036c-0.04-0.307,0.052-0.626-0.08-0.925
			c-0.019-0.018-0.037-0.036-0.056-0.053l-1.227-0.769c-0.006-0.005-0.011-0.009-0.017-0.014c-0.004-0.001-0.007-0.003-0.011-0.004
			L18.307,6.89l-0.001-0.004c-0.62-0.178-0.618-0.178-0.621,0.501c-0.007,1.95-0.017,3.901-0.025,5.851
			c0.001,0.026,0.002,0.308,0.004,0.334c-0.001,0.256-0.001,0.256-0.001,0.512l-0.017,2.481v0.342
			c0.028,1.599,0.033,2.854,0.022,4.453c0,0.024,0,0.048,0,0.073c0.007,1.071,0.012,2.143,0.025,3.214
			c0.002,0.126-0.061,0.281,0.119,0.364c0.163,0.075,0.267-0.03,0.381-0.1c0.348-0.211,0.683-0.445,1.042-0.636
			c0.304-0.162,0.406-0.374,0.405-0.723c-0.01-4.181-0.002-8.362,0-12.543c0-0.189-0.016-0.397,0.189-0.486
			c0.186-0.08,0.33,0.051,0.46,0.172c0.045,0.024,0.09,0.048,0.135,0.072c0.207,0.146,0.281,0.346,0.27,0.595
			c-0.013,0.299-0.008,0.598-0.011,0.897c0,0.141,0,0.281-0.001,0.422c0,1.517,0.001,3.033,0.001,4.55c0,0.116,0,0.232,0.001,0.347
			c0.005,1.725,0.008,3.449,0.015,5.174c0.002,0.433,0.134,0.509,0.497,0.291c0.359-0.216,0.703-0.461,1.074-0.652
			c0.306-0.157,0.379-0.373,0.379-0.699c0.003-2.959,0.021-5.919,0.036-8.878c0.002-0.43,0.087-0.494,0.461-0.357
			c0.021,0.015,0.041,0.029,0.062,0.044c0.429,0.153,0.51,0.463,0.507,0.897c-0.02,2.494-0.008,4.989-0.004,7.483
			c0.001,0.418,0.158,0.504,0.513,0.287c0.368-0.225,0.723-0.47,1.101-0.675c0.259-0.141,0.366-0.33,0.365-0.615
			c-0.003-1.454-0.002-2.909-0.002-4.363L25.706,15.524z"/>
	</g>
</g>
</svg>
