<?xml version="1.0" encoding="utf-8"?>
<!-- Generator: Adobe Illustrator 22.0.1, SVG Export Plug-In . SVG Version: 6.00 Build 0)  -->
<svg version="1.1" id="Layer_1" xmlns="http://www.w3.org/2000/svg" xmlns:xlink="http://www.w3.org/1999/xlink" x="0px" y="0px"
	 viewBox="0 0 32 32" style="enable-background:new 0 0 32 32;" xml:space="preserve">
<style type="text/css">
	.st0{fill:#FCC200;}
</style>
<g>
	<path class="st0" d="M16.355,0.878c0.404,0.711,0.266,1.531,0.449,2.294c0.452,1.882,1.75,2.432,3.35,1.293
		c1.802-1.284,1.802-1.284,3.41,0.324c1.809,1.81,1.809,1.81,0.2,3.84c-0.709,0.894-0.232,2.382,0.921,2.846
		c0.146,0.059,0.34,0.014,0.471,0.089c0.716,0.411,1.971-0.043,2.231,0.816c0.39,1.293,0.24,2.723,0.064,4.076
		c-0.09,0.693-0.81,0.687-1.383,0.635c-0.946-0.086-1.834-0.047-2.261,0.989c-0.443,1.077-0.032,1.926,0.736,2.714
		c1.115,1.143,1.092,1.165-0.038,2.297c-0.626,0.627-1.281,1.229-1.869,1.892c-0.479,0.54-0.905,0.647-1.367,0.039
		c-0.353-0.464-0.871-0.695-1.337-0.994c-1.369-0.88-2.756-0.137-2.852,1.51c-0.012,0.201,0.002,0.403-0.003,0.605
		c-0.037,1.451-0.262,1.673-1.694,1.682c-0.282,0.002-0.565,0.011-0.846,0.001c-0.803-0.029-1.733,0.176-2.377-0.161
		c-0.77-0.403-0.293-1.451-0.432-2.206c-0.299-1.621-2.172-2.154-3.636-0.9c-0.932,0.798-1.633,0.799-2.588,0.084
		c-0.62-0.463-1.198-0.967-1.658-1.547c-0.611-0.772-0.555-1.616,0.223-2.344c0.546-0.512,1.356-1.028,1.012-1.878
		c-0.41-1.013-1.223-1.588-2.459-1.533c-1.645,0.072-1.982-0.328-1.982-1.954c0-0.202,0.003-0.403,0.005-0.605
		C0.66,12.331,0.66,12.331,3.06,12c1.541-0.212,2.268-1.809,1.403-3.111c-0.198-0.298-0.435-0.577-0.688-0.83
		c-0.733-0.733-0.79-1.419,0.034-2.14C4.384,5.416,4.926,4.87,5.448,4.311c0.878-0.942,1.37-1.022,2.211-0.12
		c0.748,0.802,1.557,1.439,2.593,0.75c0.923-0.613,1.729-1.435,1.299-2.776c-0.201-0.627,0.619-0.77,0.69-1.287
		C13.613,0.878,14.984,0.878,16.355,0.878z M7.647,14.447c-0.028,3.762,3.019,6.691,6.509,6.727
		c3.696,0.038,6.865-3.137,6.801-6.736c-0.071-3.992-3.108-6.587-6.764-6.711C11.018,7.618,7.493,10.479,7.647,14.447z"/>
	<path d="M31.359,23.868c-0.47,0.212-0.902,0.473-1.439,0.576c-1.273,0.244-1.645,1.146-0.768,2.061
		c0.87,0.909,0.442,1.428-0.245,2.075c-0.673,0.634-1.202,1.287-2.188,0.328c-0.853-0.829-1.884-0.386-1.894,0.81
		c-0.011,1.392-0.81,1.401-1.828,1.404c-0.993,0.002-1.602-0.183-1.616-1.379c-0.013-1.108-0.912-1.47-1.869-0.86
		c-0.27,0.172-0.509,0.411-0.798,0.535c-0.587,0.25-0.892-0.211-1.184-0.584c-0.399-0.51,0.212-0.468,0.397-0.612
		c0.386-0.301,0.349-0.698,0.343-1.097c-0.008-0.488,0.004-0.969,0.25-1.409c0.397-0.711,0.763-1.056,1.527-0.265
		c1.838,1.902,4.264,1.895,5.94,0.084c1.577-1.704,1.303-4.152-0.648-5.824c-0.197-0.169-0.579-0.24-0.446-0.613
		c0.102-0.287,0.408-0.397,0.674-0.464c0.306-0.077,0.637-0.114,0.951-0.09c0.88,0.068,1.397-0.215,1.376-1.193
		c-0.014-0.643,0.266-0.671,0.731-0.303c1.061,0.837,1.13,1.23,0.345,2.29c-0.65,0.878-0.254,1.81,0.865,1.848
		c0.67,0.023,1.162,0.194,1.521,0.746C31.359,22.577,31.359,23.223,31.359,23.868z"/>
</g>
</svg>
