<svg id="Layer_1" data-name="Layer 1" xmlns="http://www.w3.org/2000/svg" viewBox="0 0 31.595 31.595"><defs><style>.cls-1{fill:#ff007a;}.cls-2,.cls-3{fill:#fff;}.cls-3{fill-rule:evenodd;}</style></defs><circle class="cls-1" cx="15.798" cy="15.798" r="15.798"/><path class="cls-2" d="M13.807,9.094c-.227-.033-.24-.042-.13-.054a3.535,3.535,0,0,1,1.02.088,4.362,4.362,0,0,1,2.23,1.495l.194.227.281-.042a6.085,6.085,0,0,1,3.469.433,4.649,4.649,0,0,1,.781.453,1.054,1.054,0,0,1,.076.3,1.85,1.85,0,0,1-.118,1.18.315.315,0,0,0-.033.348.322.322,0,0,0,.294.185c.26,0,.529-.411.659-.987l.055-.227.1.11a4.228,4.228,0,0,1,1.05,2.079l.021.163-.1-.142a1.9,1.9,0,0,0-.521-.555,3.286,3.286,0,0,0-1.789-.378,7.381,7.381,0,0,1-1.983-.3c-.89-.294-1.344-.672-2.394-2.071a10.273,10.273,0,0,0-1.05-1.235A3.686,3.686,0,0,0,13.807,9.094Z" transform="translate(-0.202 -0.202)"/><path class="cls-2" d="M21.879,10.468a2.373,2.373,0,0,1,.193-.933.856.856,0,0,1,.1-.184c.013,0-.013.075-.042.163a2.048,2.048,0,0,0-.042.954c.076.487.109.554.63,1.083.239.248.521.563.63.693l.185.24-.185-.172a6.634,6.634,0,0,0-.865-.685c-.076-.042-.088-.042-.143.013s-.055.109-.055.424a2.316,2.316,0,0,1-.239,1.1c-.088.164-.1.131-.021-.054a1.588,1.588,0,0,0,.063-.672c0-.941-.109-1.172-.769-1.55-.163-.1-.445-.239-.6-.315a2.521,2.521,0,0,1-.294-.143,5.214,5.214,0,0,1,.911.269c.378.151.445.164.487.151S21.867,10.741,21.879,10.468Z" transform="translate(-0.202 -0.202)"/><path class="cls-2" d="M14.252,12.085a3.859,3.859,0,0,1-.685-2.331l.021-.227.11.021a2.689,2.689,0,0,1,.693.26c.432.261.63.618.81,1.508.055.261.13.563.164.66a4,4,0,0,0,.433.781c.117.172.042.26-.227.239A2.229,2.229,0,0,1,14.252,12.085Z" transform="translate(-0.202 -0.202)"/><path class="cls-2" d="M21.325,16.8c-2.146-.865-2.9-1.613-2.9-2.881,0-.185.012-.336.012-.336a1.322,1.322,0,0,1,.185.143,4.3,4.3,0,0,0,2.276.693,9.14,9.14,0,0,1,1.659.348,3.164,3.164,0,0,1,2.319,2.525,4.45,4.45,0,0,1-.063,1.352,2.735,2.735,0,0,1-.349.781c-.012,0-.033-.054-.033-.143a1.759,1.759,0,0,0-.63-1.226A8.881,8.881,0,0,0,21.325,16.8Z" transform="translate(-0.202 -0.202)"/><path class="cls-2" d="M19.809,17.154a2.272,2.272,0,0,0-.11-.453l-.054-.164.1.117a1.936,1.936,0,0,1,.349.63,1.342,1.342,0,0,1,.076.605,1.414,1.414,0,0,1-.076.584,1.976,1.976,0,0,1-.454.727,2.611,2.611,0,0,1-1.625.714c-.13.012-.5.042-.823.063a6.41,6.41,0,0,0-1.844.3.4.4,0,0,1-.143.034,2.492,2.492,0,0,1,.584-.349,5.866,5.866,0,0,1,1.625-.433,7.39,7.39,0,0,0,.966-.193A1.866,1.866,0,0,0,19.809,17.154Z" transform="translate(-0.202 -0.202)"/><path class="cls-2" d="M20.8,18.9a2.506,2.506,0,0,1-.194-1.755c.021-.055.042-.109.063-.109a.475.475,0,0,1,.152.075c.13.088.4.24,1.1.618A5.5,5.5,0,0,1,23.635,19a2.709,2.709,0,0,1,.575,1.31,4.3,4.3,0,0,1-.054,1.29,3.2,3.2,0,0,1-1.571,2.079,1.979,1.979,0,0,1-.227.109,1.077,1.077,0,0,1,.1-.239,2.14,2.14,0,0,0,.1-1.68,6.942,6.942,0,0,0-.865-1.563A9.7,9.7,0,0,1,20.8,18.9Z" transform="translate(-0.202 -0.202)"/><path class="cls-2" d="M12.723,22.215a5.943,5.943,0,0,1,2.7-1.3,4.078,4.078,0,0,1,1.4.055,2.407,2.407,0,0,1,1.365.878,3.257,3.257,0,0,1,.5,1.474c.042.294.1.6.109.659a1.461,1.461,0,0,0,.479.857,1.648,1.648,0,0,0,1.495.042.824.824,0,0,1,.185-.055,1.618,1.618,0,0,1-.466.315,1.509,1.509,0,0,1-.781.185,1.563,1.563,0,0,1-1.323-.81,6.5,6.5,0,0,1-.357-.714A2.611,2.611,0,0,0,17,22.366a1.339,1.339,0,0,0-1.268-.117.815.815,0,0,0-.282,1.268,1.083,1.083,0,0,0,.618.324.662.662,0,0,0,.747-.66.514.514,0,0,0-.357-.529c-.348-.151-.726.021-.714.357a.3.3,0,0,0,.206.294c.088.042.088.042.021.034a.4.4,0,0,1-.143-.706.782.782,0,0,1,1.159.248,1.114,1.114,0,0,1,.021.735,1.009,1.009,0,0,1-1.234.584,1.753,1.753,0,0,1-.941-.639,2.884,2.884,0,0,0-2.134-1.1l-.206-.034Z" transform="translate(-0.202 -0.202)"/><path class="cls-3" d="M7.024,4.781c2.524,3.066,6.413,7.833,6.611,8.093.163.219.1.425-.173.576a1.628,1.628,0,0,1-.617.172.8.8,0,0,1-.521-.227c-.1-.1-.521-.714-1.474-2.2C10.123,10.056,9.506,9.115,9.5,9.1a17.888,17.888,0,0,0,1.276,2.339,18.692,18.692,0,0,1,1.105,2.079c0,.143-.042.219-.218.412a2.384,2.384,0,0,0-.521,1.461A4.519,4.519,0,0,1,9.9,17.885a4.519,4.519,0,0,0-.685.966A1.882,1.882,0,0,0,9,19.716a2.68,2.68,0,0,0,.143,1.063,3.6,3.6,0,0,0,.521,1.02,2.6,2.6,0,0,1,.4.79c0,.088.021.088.411,0A4.279,4.279,0,0,0,12.6,21.547a.974.974,0,0,0,.324-.823.9.9,0,0,0-.076-.453,1.929,1.929,0,0,0-.76-.735,1.707,1.707,0,0,1-.9-1.16,2.061,2.061,0,0,1,.336-1.3,3.9,3.9,0,0,0,.479-1.713c.034-.454.088-.639.218-.781a.808.808,0,0,1,.6-.248,2.005,2.005,0,0,0,1.193-.487,1.027,1.027,0,0,0,.369-.79l.013-.248-.143-.151c-.512-.584-7.564-8.341-7.6-8.341C6.642,4.315,6.818,4.521,7.024,4.781Zm3.326,15.41a.448.448,0,0,0-.143-.6c-.184-.117-.466-.063-.466.1a.111.111,0,0,0,.088.109c.1.055.11.109.034.227s-.076.227.021.3A.309.309,0,0,0,10.35,20.191Z" transform="translate(-0.202 -0.202)"/><path class="cls-3" d="M14.739,14.491a.96.96,0,0,0-.584.639.939.939,0,0,0,.055.584c.118.151.227.193.529.193.6,0,1.1-.261,1.159-.576a.837.837,0,0,0-.487-.781A1.124,1.124,0,0,0,14.739,14.491Zm.693.542c.088-.13.055-.269-.109-.369-.294-.185-.735-.034-.735.247,0,.143.227.294.445.294A.614.614,0,0,0,15.432,15.033Z" transform="translate(-0.202 -0.202)"/></svg>