<?xml version="1.0" encoding="utf-8"?>
<!-- Generator: Adobe Illustrator 25.3.1, SVG Export Plug-In . SVG Version: 6.00 Build 0)  -->
<svg version="1.1" id="Layer_1" xmlns="http://www.w3.org/2000/svg" xmlns:xlink="http://www.w3.org/1999/xlink" x="0px" y="0px"
	 viewBox="0 0 32 32" style="enable-background:new 0 0 32 32;" xml:space="preserve">
<style type="text/css">
	.st0{fill:url(#SVGID_1_);}
	.st1{fill:#3952F5;filter:url(#Adobe_OpacityMaskFilter);}
	.st2{mask:url(#mask0_2_);}
	.st3{fill:#FFFFFF;}
	.st4{fill:none;stroke:#FFFFFF;stroke-width:1.45;stroke-linecap:round;}
</style>
<linearGradient id="SVGID_1_" gradientUnits="userSpaceOnUse" x1="1.5" y1="17.9989" x2="30.5" y2="17.9989" gradientTransform="matrix(1 0 0 -1 0 34)">
	<stop  offset="0" style="stop-color:#FC4778"/>
	<stop  offset="1" style="stop-color:#3952F5"/>
</linearGradient>
<path class="st0" d="M1.5,22.604V9.398c0-0.846,0.461-1.625,1.202-2.033l12.18-6.699c0.696-0.383,1.54-0.383,2.236,0l12.18,6.699
	C30.039,7.773,30.5,8.552,30.5,9.398v13.206c0,0.846-0.461,1.625-1.202,2.033l-12.18,6.699c-0.696,0.383-1.54,0.383-2.236,0
	l-12.18-6.699C1.961,24.229,1.5,23.45,1.5,22.604z"/>
<defs>
	<filter id="Adobe_OpacityMaskFilter" filterUnits="userSpaceOnUse" x="1.36" y="0.011" width="29.28" height="31.979">
		<feColorMatrix  type="matrix" values="1 0 0 0 0  0 1 0 0 0  0 0 1 0 0  0 0 0 1 0"/>
	</filter>
</defs>
<mask maskUnits="userSpaceOnUse" x="1.36" y="0.011" width="29.28" height="31.979" id="mask0_2_">
	<path class="st1" d="M1.5,22.604V9.398c0-0.846,0.461-1.625,1.202-2.033l12.18-6.699c0.696-0.383,1.54-0.383,2.236,0l12.18,6.699
		C30.039,7.773,30.5,8.552,30.5,9.398v13.206c0,0.846-0.461,1.625-1.202,2.033l-12.18,6.699c-0.696,0.383-1.54,0.383-2.236,0
		l-12.18-6.699C1.961,24.229,1.5,23.45,1.5,22.604z"/>
</mask>
<g class="st2">
	<path class="st3" d="M28.475,22.685l-12.615,6.96l0.28,0.508l12.615-6.96L28.475,22.685z M30.36,7.772l-1.885,1.037l0.28,0.508
		L30.64,8.28L30.36,7.772z M28.475,23.193l1.885,1.037l0.28-0.508l-1.885-1.037L28.475,23.193z M28.325,9.063v13.877h0.58V9.063
		H28.325z M1.36,8.28l1.885,1.037l0.28-0.508L1.64,7.772L1.36,8.28z M3.245,22.685L1.36,23.722l0.28,0.508l1.885-1.037L3.245,22.685
		z M3.095,9.063v13.877h0.58V9.063H3.095z M3.245,23.193l12.615,6.96l0.28-0.508l-12.615-6.96L3.245,23.193z M15.86,2.357
		l12.615,6.96l0.28-0.508L16.14,1.849L15.86,2.357z M15.86,1.849L3.245,8.809l0.28,0.508l12.615-6.96L15.86,1.849z M15.71,29.899
		v2.09h0.58v-2.09H15.71z M15.71,0.011v2.092h0.58V0.011H15.71z"/>
</g>
<path class="st4" d="M7.01,12.971v5.759c0,0.35,0.21,0.666,0.532,0.802l2.983,1.257c0.216,0.091,0.46,0.091,0.676,0l2.983-1.257
	c0.322-0.136,0.532-0.452,0.532-0.802v-2.902l0.018-2.856 M24.99,20.931v-3.408 M24.99,17.524v-4.066
	c0-0.314-0.17-0.604-0.443-0.758l-2.983-1.678c-0.265-0.149-0.588-0.149-0.853,0l-2.983,1.678c-0.274,0.154-0.443,0.444-0.443,0.758
	v3.483c0,0.353,0.213,0.671,0.539,0.805l2.983,1.226c0.212,0.087,0.45,0.087,0.662,0L24.99,17.524z"/>
</svg>
