<?xml version="1.0" encoding="utf-8"?>
<!-- Generator: Adobe Illustrator 25.2.3, SVG Export Plug-In . SVG Version: 6.00 Build 0)  -->
<svg version="1.1" id="Layer_1" xmlns="http://www.w3.org/2000/svg" xmlns:xlink="http://www.w3.org/1999/xlink" x="0px" y="0px"
	 viewBox="0 0 32 32" style="enable-background:new 0 0 32 32;" xml:space="preserve">
<style type="text/css">
	.st0{fill-rule:evenodd;clip-rule:evenodd;fill:#7A51D0;}
	.st1{fill:#FDFCFC;}
	.st2{fill:#FBF9FC;}
</style>
<g>
	<circle class="st0" cx="16" cy="16" r="16"/>
	<g>
		<path class="st1" d="M23.997,13.769c-0.042,1.179,0.082,2.552-0.114,3.919c-0.508,3.542-3.132,6.046-6.698,6.394
			c-1.909,0.186-3.753,0.001-5.456-0.958c-1.234-0.695-2.185-1.667-2.84-2.936c-0.572-1.108-0.85-2.291-0.871-3.518
			C7.98,14.445,8.01,12.22,7.998,9.996C7.997,9.706,8.067,9.602,8.376,9.611c0.785,0.023,1.572,0.025,2.358-0.001
			c0.347-0.011,0.454,0.083,0.452,0.44c-0.016,2.091-0.015,4.183-0.005,6.274c0.011,2.307,1.191,3.943,3.214,4.445
			c1.174,0.291,2.359,0.284,3.512-0.089c1.209-0.391,2.099-1.166,2.539-2.389c0.252-0.702,0.357-1.432,0.355-2.179
			c-0.003-2.025,0.006-4.05-0.008-6.074c-0.002-0.323,0.07-0.439,0.414-0.428c0.812,0.026,1.625,0.02,2.438,0.003
			c0.286-0.006,0.361,0.095,0.359,0.368C23.99,11.179,23.997,12.378,23.997,13.769z"/>
		<path class="st2" d="M17.599,13.242c-0.032,0.906,0.065,2.026-0.044,3.141c-0.086,0.885-0.655,1.369-1.558,1.37
			c-0.908,0.001-1.461-0.473-1.573-1.358c-0.027-0.21-0.042-0.424-0.042-0.636c-0.003-1.891,0.01-3.782-0.012-5.673
			c-0.005-0.396,0.115-0.491,0.493-0.477c0.798,0.029,1.598,0.02,2.397,0.003c0.269-0.006,0.345,0.087,0.343,0.342
			C17.593,10.98,17.599,12.005,17.599,13.242z"/>
	</g>
</g>
</svg>
