<?xml version="1.0" encoding="utf-8"?>
<!-- Generator: Adobe Illustrator 22.0.1, SVG Export Plug-In . SVG Version: 6.00 Build 0)  -->
<svg version="1.1" id="Layer_1" xmlns="http://www.w3.org/2000/svg" xmlns:xlink="http://www.w3.org/1999/xlink" x="0px" y="0px"
	 viewBox="0 0 223.68 223.68" style="enable-background:new 0 0 223.68 223.68;" xml:space="preserve">
<style type="text/css">
	.st0{fill:#2775C9;}
	.st1{fill:#FEFEFE;}
	.st2{fill:#1C6EC6;}
	.st3{fill:#1B6DC6;}
	.st4{fill:#1A6CC6;}
	.st5{fill:#196CC6;}
	.st6{fill:#1A6DC6;}
	.st7{fill:#1C6EC7;}
	.st8{fill:#2171C8;}
	.st9{fill:#1C6DC6;}
	.st10{fill:#1C6DC7;}
</style>
<title>ANT</title>
<path class="st0" d="M111.841,0c-0.001,0-0.001,0-0.002,0C50.071,0-0.001,50.072-0.001,111.84s50.072,111.84,111.84,111.84
	s111.84-50.072,111.84-111.84C223.68,50.073,173.608,0.001,111.841,0z"/>
<g>
	<path class="st1" d="M101.644,150.332c-8.823-2.796-16.332-7.104-18.861-16.88c-0.661-2.557-2.469-5.656,1.434-7.233
		c4.411-1.783,10.483,0.121,11.75,3.433c3.93,10.275,17.894,14.243,26.638,7.558c3.75-2.867,4.792-6.764,4.2-11.265
		c-0.531-4.043-3.262-6.067-6.784-7.273c-2.988-1.023-5.995-2.057-9.233-1.927c-0.621-0.073-1.242-0.146-1.863-0.219
		c-3.88-1.05-7.759-2.106-11.64-3.15c-8.759-2.356-12.505-8.784-13.915-17.114c0.013-1.587,0.025-3.173,0.038-4.76
		c2.114-10.371,8.513-16.678,18.706-18.833c4.815-1.018,3.08-4.388,3.157-6.975c0.212-7.084,0.349-7.148,7.012-7.369
		c4.503-0.149,6.508,1.302,6.255,6.041c-0.132,2.483-1.076,5.232,0.765,7.585c0.331,0.111,0.662,0.222,0.993,0.332
		c7.918,2.778,14.969,6.396,17.299,15.544c0.683,2.68,0.823,4.73-1.585,6.413c-2.982-0.023-5.964-0.046-8.946-0.069
		c-0.797-1.134-1.794-2.178-2.355-3.418c-2.309-5.111-6.103-7.94-11.776-8.145c-5.958-0.216-11.722-0.027-14.69,6.5
		c-1.246,2.446-1.291,4.904-0.066,7.372c3.355,6.606,9.76,6.603,15.838,7.309c0.633,0.073,1.266,0.146,1.9,0.219
		c3.875,1.072,7.849,1.878,11.607,3.266c11.692,4.319,16.482,16.19,11.897,28.245c-3.259,8.567-10.382,12.102-18.2,14.947
		c-0.637,0.127-1.274,0.254-1.912,0.381c-1.817,2.902-0.748,6.105-0.806,9.146c-0.094,4.96-3.467,4.387-6.62,4.399
		c-3.184,0.012-6.498,0.483-6.608-4.436c-0.068-3.03,1.065-6.236-0.837-9.114C103.504,150.673,102.574,150.502,101.644,150.332z"/>
	<path class="st1" d="M32.48,103.09c2.221-13.537,6.55-26.212,14.423-37.64c9.898-14.367,23.459-23.606,39.649-29.371
		c3.506-1.248,5.131-0.09,5.496,3.823c0.528,5.667-1.425,8.555-6.85,11.193c-22.842,11.11-36.891,28.908-38.976,54.959
		c-0.603,3.523-0.609,7.046-0.01,10.57c0.857,15.15,6.564,28.071,17.13,39.064c7.369,7.668,15.497,13.955,25.447,17.884
		c3.09,1.221,4.63,10.271,2.365,12.656c-2.073,2.183-4.342,0.675-6.374-0.092c-26.765-10.108-43.413-29.214-50.337-56.888
		c-0.723-2.889-1.255-5.825-1.876-8.74c-0.098-1.284-0.195-2.567-0.293-3.851c0.002-3.546,0.003-7.092,0.005-10.638
		C32.347,105.043,32.414,104.066,32.48,103.09z"/>
	<path class="st1" d="M177.495,104.999c-1.093-14.748-6.916-27.239-17.095-38.032c-7.254-7.692-15.369-13.75-25.221-17.597
		c-3.163-1.235-4.86-10.004-2.679-12.615c0.999-1.196,2.342-1.409,3.844-0.931c11.158,3.553,21.138,9.234,29.728,17.143
		c14.389,13.249,21.88,30.131,25.143,49.127c0.078,0.956,0.157,1.912,0.235,2.868c0.003,4.252,0.006,8.504,0.009,12.756
		c-0.076,0.961-0.152,1.921-0.228,2.882c-2.396,13.715-6.913,26.529-15.219,37.925c-9.042,12.406-20.807,21.108-34.902,26.866
		c-1.62,0.662-3.365,1.13-4.814,2.059c-1.019,0.654-1.448,1.017-2.569,0.065c-3.262-2.771-2.757-12.311,1.189-13.873
		c10.314-4.081,18.677-10.659,26.169-18.681c7.979-8.543,13.343-18.304,15.316-29.867c0.094-0.596,0.188-1.192,0.281-1.788
		c1.032-1.765,0.996-3.686,0.823-5.627C178.236,113.452,178.219,109.225,177.495,104.999z"/>
	<path class="st2" d="M101.644,150.332c0.93,0.17,1.861,0.341,2.791,0.511c0,3.095,0,6.19,0,9.285
		C103.356,156.802,103.675,153.294,101.644,150.332z"/>
	<path class="st3" d="M119.305,150.848c0.637-0.127,1.274-0.254,1.912-0.381c-0.415,3.204-0.829,6.408-1.244,9.612
		c-0.223,0.002-0.445,0.004-0.668,0.005C119.305,157.006,119.305,153.927,119.305,150.848z"/>
	<path class="st4" d="M98.175,96.48c-1.225-2.469-1.18-4.926,0.066-7.372C99.472,91.577,99.512,94.035,98.175,96.48z"/>
	<path class="st4" d="M177.495,104.999c0.724,4.227,0.74,8.454,0.009,12.681C176.019,113.454,176.029,109.227,177.495,104.999z"/>
	<path class="st3" d="M120.295,72.284c-0.331-0.111-0.662-0.222-0.993-0.332c0-3.102,0-6.204,0-9.306
		c0.331-0.001,0.662-0.003,0.993-0.004C120.295,65.855,120.295,69.07,120.295,72.284z"/>
	<path class="st3" d="M127.063,94.172c2.982,0.023,5.964,0.046,8.946,0.069C133.012,96.146,130.029,96.297,127.063,94.172z"/>
	<path class="st2" d="M103.584,68.699c0-2.013,0-4.026,0-6.038c0.167-0.004,0.334-0.008,0.501-0.012c0,2.06,0,4.121,0,6.181
		C103.919,68.786,103.751,68.743,103.584,68.699z"/>
	<path class="st5" d="M83.408,91.502c-0.013,1.587-0.025,3.173-0.038,4.76c-0.362,0.381-0.671,1.738-0.825,1.183
		c-0.579-2.08-0.731-4.341,0.131-6.478c0.005-0.011,0.296,0.052,0.411,0.137C83.218,91.203,83.303,91.367,83.408,91.502z"/>
	<path class="st6" d="M46.213,116.624c-0.599-3.524-0.593-7.047,0.01-10.57C47.69,109.579,47.701,113.102,46.213,116.624z"/>
	<path class="st3" d="M93.654,39.457c0,1.684,0,3.369,0,5.053c-0.163,0.004-0.326,0.009-0.488,0.013c0-1.734,0-3.469,0-5.203
		C93.329,39.366,93.492,39.411,93.654,39.457z"/>
	<path class="st7" d="M130.734,39.374c0,1.689,0,3.378,0,5.068c-0.166,0.009-0.332,0.018-0.497,0.027c0-1.694,0-3.389,0-5.083
		C130.403,39.382,130.568,39.378,130.734,39.374z"/>
	<path class="st4" d="M142.187,129.772c-0.793-2.171-0.654-3.947-0.138-6.144C142.883,125.794,142.728,127.57,142.187,129.772z"/>
	<path class="st2" d="M92.135,124.515c-2.174,0.806-3.968,0.714-6.161,0.08C88.15,123.816,89.943,123.895,92.135,124.515z"/>
	<path class="st3" d="M93.272,177.646c0.917,2.048,0.499,3.754,0,5.481C93.272,181.442,93.272,179.757,93.272,177.646z"/>
	<path class="st7" d="M130.935,184.563c-1.537-2.908-0.81-4.707-1.075-7.741C131.359,179.84,130.666,181.638,130.935,184.563z"/>
	<path class="st8" d="M109.794,165.578c1.318,0,2.637,0,3.956,0.006c0.111,0.129,0.221,0.253,0.331,0.377
		C112.682,167.023,111.216,166.11,109.794,165.578z"/>
	<path class="st3" d="M32.276,116.658c0.098,1.284,0.195,2.567,0.293,3.851c-0.082,0.333-0.125,0.682-0.253,0.997
		c-0.211,0.519-0.673,0.989-0.853,0.106C31.114,119.9,31.28,118.189,32.276,116.658z"/>
	<path class="st3" d="M32.48,103.09c-0.066,0.977-0.133,1.954-0.199,2.93c-1.012-1.646-1.184-3.402-0.7-5.363
		C32.762,101.212,32.111,102.346,32.48,103.09z"/>
	<path class="st3" d="M191.23,120.599c0.076-0.961,0.152-1.921,0.228-2.882c0.307,1.133,0.664,2.256,0.889,3.405
		c0.066,0.334,0.118,1.17-0.632,0.855C191.414,121.851,191.384,121.078,191.23,120.599z"/>
	<path class="st4" d="M191.45,104.961c-0.078-0.956-0.157-1.912-0.235-2.868c0.156-0.48,0.184-1.248,0.492-1.384
		c0.756-0.333,0.704,0.512,0.639,0.843C192.118,102.702,191.759,103.826,191.45,104.961z"/>
	<path class="st9" d="M108.926,116.525c0.621,0.073,1.242,0.146,1.863,0.219c-0.626,0.27-1.232,0.663-1.884,0.768
		c-0.472,0.076-1.394,0.571-1.366-0.551C107.541,116.804,108.441,116.67,108.926,116.525z"/>
	<path class="st2" d="M176.681,123.306c-0.094,0.596-0.188,1.192-0.281,1.788c-0.582-1.055-1.436-2.269-0.45-3.269
		C176.321,121.449,176.4,122.786,176.681,123.306z"/>
	<path class="st10" d="M115.913,104.009c-0.633-0.073-1.266-0.146-1.9-0.219c0.625-0.263,1.23-0.647,1.88-0.75
		c0.483-0.077,1.374-0.553,1.393,0.537C117.289,103.712,116.393,103.864,115.913,104.009z"/>
</g>
</svg>
