<?xml version="1.0" encoding="utf-8"?>
<!-- Generator: Adobe Illustrator 22.0.1, SVG Export Plug-In . SVG Version: 6.00 Build 0)  -->
<svg version="1.1" id="Layer_1" xmlns="http://www.w3.org/2000/svg" xmlns:xlink="http://www.w3.org/1999/xlink" x="0px" y="0px"
	 viewBox="0 0 32 32" style="enable-background:new 0 0 32 32;" xml:space="preserve">
<style type="text/css">
	.st0{fill:#26A17B;}
	.st1{fill:#FFFFFF;}
</style>
<circle class="st0" cx="16" cy="16" r="16"/>
<path class="st1" d="M17.922,17.383v-0.002c-0.11,0.008-0.677,0.042-1.942,0.042c-1.01,0-1.721-0.03-1.971-0.042v0.003
	c-3.888-0.171-6.79-0.848-6.79-1.658c0-0.809,2.902-1.486,6.79-1.66v2.644c0.254,0.018,0.982,0.061,1.988,0.061
	c1.207,0,1.812-0.05,1.925-0.06v-2.643c3.88,0.173,6.775,0.85,6.775,1.658C24.697,16.536,21.802,17.211,17.922,17.383
	 M17.922,13.793v-2.366h5.414V7.819H8.595v3.608h5.414v2.365C9.609,13.994,6.3,14.866,6.3,15.91s3.309,1.915,7.709,2.118v7.582
	h3.913v-7.584c4.393-0.202,7.694-1.073,7.694-2.116S22.315,13.996,17.922,13.793"/>
</svg>
