<?xml version="1.0" encoding="UTF-8"?>
<svg id="Layer_1" data-name="Layer 1" xmlns="http://www.w3.org/2000/svg" version="1.1" viewBox="0 0 32 32">
  <defs>
    <style>
      .cls-1 {
        fill: #26a17b;
      }

      .cls-1, .cls-2 {
        stroke-width: 0px;
      }

      .cls-2 {
        fill: #fff;
      }
    </style>
  </defs>
  <circle class="cls-1" cx="16" cy="16" r="16"/>
  <path class="cls-2" d="M17.922,17.383v-.002c-.11.008-.677.042-1.942.042-1.01,0-1.721-.03-1.971-.042v.003c-3.888-.171-6.79-.848-6.79-1.658s2.902-1.486,6.79-1.66v2.644c.254.018.982.061,1.988.061,1.207,0,1.812-.05,1.925-.06v-2.643c3.88.173,6.775.85,6.775,1.658s-2.895,1.485-6.775,1.657M17.922,13.793v-2.366h5.414v-3.608h-14.741v3.608h5.414v2.365c-4.4.202-7.709,1.074-7.709,2.118s3.309,1.915,7.709,2.118v7.582h3.913v-7.584c4.393-.202,7.694-1.073,7.694-2.116s-3.301-1.914-7.694-2.117"/>
</svg>