<?xml version="1.0" encoding="utf-8"?>
<!-- Generator: Adobe Illustrator 25.2.1, SVG Export Plug-In . SVG Version: 6.00 Build 0)  -->
<svg version="1.1" id="Layer_1" xmlns="http://www.w3.org/2000/svg" xmlns:xlink="http://www.w3.org/1999/xlink" x="0px" y="0px"
	 viewBox="0 0 32 32" style="enable-background:new 0 0 32 32;" xml:space="preserve">
<style type="text/css">
	.st0{fill:#5492F6;}
	.st1{fill:#103EA6;}
	.st2{fill:#DB3131;}
	.st3{fill:#7D0000;}
	.st4{fill:#DEDCDC;}
	.st5{fill:#FDFDFD;}
</style>
<path class="st0" d="M0.402,12.758c0.367-0.469,0.262-1.074,0.455-1.595c0.148-0.399,0.187-0.836,0.459-1.274
	c1.191,1.459,2.452,2.815,3.51,4.338c0.543,0.781,1.049,1.587,1.584,2.374c0.08,0.118,0.08,0.411,0.366,0.249
	c0.013,2.121,0.025,4.243,0.038,6.364c0.002,0.414,0.004,0.827,0.006,1.241c-0.072,0.428-0.072,0.856,0.001,1.284
	c-0.004,0.308-0.009,0.617-0.013,0.925c-0.633-0.141-1.039-0.628-1.488-1.025c-2.497-2.211-4.079-4.95-4.688-8.243
	c-0.042-0.228,0.011-0.511-0.229-0.682C0.402,15.395,0.402,14.077,0.402,12.758z"/>
<path class="st0" d="M9.679,14.242c0.01-0.21-0.154-0.317-0.271-0.449c-1.243-1.396-1.574-2.952-0.828-4.699
	c0.661-0.804,1.315-1.608,2.184-2.215c2.347-1.637,4.957-2.637,7.726-3.268c1.649-0.376,3.303-0.611,4.975-0.137
	c0.265,0.06,0.484,0.185,0.695,0.368c2.425,2.094,3.987,4.704,4.715,7.819c-3.363,0.561-6.725,1.121-10.087,1.682
	c-1.527,0.086-3.025,0.418-4.543,0.591C12.721,14.109,11.191,14.014,9.679,14.242z"/>
<path class="st1" d="M9.679,14.242c1.512-0.228,3.042-0.133,4.566-0.307c1.518-0.173,3.016-0.505,4.543-0.592
	c0.007,0.423,0.015,0.847,0.022,1.27c-0.065,0.426-0.061,0.853,0,1.279c0,0.416,0,0.831,0,1.247
	c-0.058,0.428-0.066,0.856,0.002,1.284c-0.001,0.422-0.002,0.843-0.003,1.265c-0.061,0.424-0.061,0.848,0,1.271
	c-0.002,0.434-0.003,0.868-0.005,1.302c-2.088,0.244-4.176,0.488-6.264,0.732c-1.909,0.073-3.819,0.147-5.728,0.22
	c-0.013-2.122-0.025-4.243-0.038-6.364c-0.002-0.495-0.013-0.991-0.002-1.487c0.016-0.739,0.333-1.055,1.081-1.082
	C8.462,14.26,9.071,14.255,9.679,14.242z M15.651,22.007c0.021,0.009,0.042,0.026,0.063,0.025c0.232-0.01,0.503,0.068,0.521-0.323
	c0.01-0.228-0.165-0.31-0.273-0.283c-0.287,0.072-0.378,0.302-0.299,0.592C15.659,22.014,15.655,22.011,15.651,22.007z
	 M12.04,15.026c0.053-0.184-0.18-0.177-0.264-0.286c-0.118,0.12-0.408,0.088-0.319,0.396c0.046,0.157-0.025,0.334,0.259,0.34
	C12.057,15.485,11.944,15.217,12.04,15.026z M9.586,20.121c-0.126,0.119-0.297,0.218-0.353,0.363
	c-0.025,0.065,0.033,0.337,0.325,0.295c0.221-0.032,0.327-0.101,0.347-0.301C9.926,20.269,9.702,20.265,9.586,20.121z M8.302,19.693
	c-0.005,0.224,0.184,0.203,0.354,0.242c0.334,0.076,0.119-0.192,0.16-0.275c0.119-0.241-0.13-0.298-0.279-0.314
	C8.483,19.341,8.235,19.451,8.302,19.693z M16.276,14.601c0.079-0.188-0.189-0.255-0.262-0.252
	c-0.181,0.007-0.389,0.109-0.353,0.346c0.023,0.151,0.012,0.366,0.288,0.377C16.292,15.086,16.171,14.807,16.276,14.601z
	 M16.229,16.471c0.145-0.276-0.117-0.339-0.204-0.349c-0.202-0.023-0.382,0.123-0.365,0.333c0.012,0.143,0.004,0.369,0.278,0.388
	C16.278,16.868,16.181,16.601,16.229,16.471z M9.161,18.685c0.162,0.108,0.086,0.368,0.335,0.323
	c0.164-0.03,0.344,0.022,0.391-0.239c0.049-0.27-0.188-0.346-0.296-0.348C9.454,18.418,9.315,18.582,9.161,18.685z M8.583,21.095
	c-0.124,0.077-0.298,0.114-0.295,0.295c0.004,0.24,0.168,0.295,0.385,0.325c0.272,0.038,0.098-0.159,0.141-0.234
	C8.953,21.239,8.708,21.203,8.583,21.095z M15.958,20.379c0.276,0.038,0.217-0.167,0.261-0.336c0.061-0.232-0.048-0.372-0.221-0.391
	c-0.17-0.019-0.372,0.179-0.354,0.304C15.665,20.1,15.637,20.4,15.958,20.379z M8.22,15.997c0.064,0.288,0.226,0.393,0.469,0.412
	c0.266,0.02,0.088-0.178,0.128-0.263c0.128-0.27-0.122-0.308-0.276-0.315C8.426,15.826,8.307,15.949,8.22,15.997z M11.441,20.35
	c-0.028,0.344,0.23,0.322,0.412,0.343c0.257,0.03,0.124-0.22,0.16-0.323c0.08-0.23-0.155-0.309-0.303-0.289
	C11.605,20.095,11.42,20.187,11.441,20.35z M14.922,20.465c-0.176,0.228-0.274,0.357-0.373,0.485c0.148,0.06-0.001,0.353,0.313,0.33
	c0.296-0.022,0.31-0.233,0.347-0.387C15.232,20.802,15.064,20.665,14.922,20.465z M9.36,22.391c0.006,0.085,0.068,0.167,0.295,0.19
	c0.346,0.035,0.17-0.243,0.207-0.333c0.085-0.204-0.157-0.303-0.303-0.297C9.428,21.956,9.306,22.104,9.36,22.391z M11.43,22.074
	c0.019,0.343,0.228,0.38,0.422,0.393c0.252,0.017,0.103-0.218,0.163-0.327c0.122-0.22-0.176-0.304-0.239-0.3
	C11.617,21.849,11.459,21.955,11.43,22.074z M15.217,19.106c-0.076-0.072-0.202-0.263-0.273-0.244
	c-0.156,0.041-0.285,0.189-0.424,0.294c0.17,0.058,0.037,0.36,0.308,0.356C15.081,19.507,15.157,19.354,15.217,19.106z
	 M9.928,15.104c-0.091-0.076-0.217-0.258-0.312-0.244c-0.166,0.026-0.382,0.117-0.356,0.369c0.018,0.174,0.1,0.237,0.306,0.232
	C9.806,15.457,9.856,15.323,9.928,15.104z M15.216,15.574c-0.08-0.075-0.206-0.264-0.279-0.245
	c-0.166,0.042-0.306,0.186-0.456,0.289c0.176,0.056,0.083,0.386,0.399,0.343C15.123,15.928,15.141,15.778,15.216,15.574z
	 M7.222,15.194c0.079,0.146,0.037,0.311,0.319,0.327c0.241,0.014,0.162-0.084,0.211-0.185c0.117-0.242-0.104-0.344-0.214-0.383
	C7.437,14.917,7.275,15.049,7.222,15.194z M9.912,16.895c-0.033-0.165-0.216-0.255-0.33-0.247c-0.156,0.011-0.343,0.128-0.324,0.342
	c0.014,0.16,0.08,0.258,0.305,0.245C9.807,17.22,9.859,17.093,9.912,16.895z M13.108,21.11c-0.003-0.193-0.212-0.247-0.318-0.24
	c-0.156,0.011-0.352,0.067-0.416,0.271c0.182,0.046,0.133,0.338,0.414,0.329C13.067,21.462,13.027,21.27,13.108,21.11z
	 M16.206,18.283c0.045-0.22-0.035-0.403-0.243-0.393c-0.133,0.007-0.345,0.137-0.306,0.336c0.029,0.147,0.004,0.377,0.278,0.388
	C16.202,18.624,16.227,18.474,16.206,18.283z M8.829,17.914c0.099-0.274-0.137-0.31-0.279-0.306
	c-0.091,0.003-0.304,0.051-0.259,0.29c0.042,0.226,0.189,0.221,0.358,0.269C9.003,18.266,8.695,17.944,8.829,17.914z M13.084,15.793
	c0.02-0.136-0.155-0.237-0.286-0.235c-0.159,0.003-0.36,0.055-0.429,0.261c0.183,0.05,0.138,0.35,0.415,0.335
	C13.009,16.143,13.034,16.022,13.084,15.793z M14.161,14.825c-0.102-0.124-0.217-0.356-0.3-0.345
	c-0.189,0.024-0.326,0.216-0.317,0.42c0.01,0.222,0.207,0.347,0.392,0.338C14.15,15.228,14.005,14.944,14.161,14.825z M17,15.697
	c0.27,0.078,0.271-0.131,0.294-0.302c0.034-0.245-0.182-0.296-0.328-0.311c-0.167-0.017-0.298,0.164-0.27,0.308
	C16.719,15.511,16.698,15.794,17,15.697z M7.813,18.737c-0.074-0.123-0.175-0.282-0.313-0.243c-0.094,0.027-0.319,0.074-0.254,0.302
	c0.043,0.152,0.061,0.264,0.29,0.255C7.784,19.041,7.722,18.847,7.813,18.737z M7.539,16.7c-0.125,0.077-0.325,0.108-0.3,0.282
	c0.015,0.104-0.021,0.324,0.247,0.3c0.196-0.017,0.255-0.092,0.296-0.26C7.835,16.799,7.603,16.821,7.539,16.7z M16.997,17.475
	c0.211,0.05,0.264-0.082,0.299-0.287c0.046-0.268-0.18-0.306-0.31-0.335c-0.159-0.035-0.304,0.137-0.289,0.289
	C16.71,17.271,16.686,17.528,16.997,17.475z M16.981,20.375c-0.181,0.072-0.341,0.173-0.273,0.381
	c0.035,0.107,0.01,0.295,0.276,0.271c0.248-0.022,0.28-0.128,0.309-0.312C17.334,20.456,17.095,20.48,16.981,20.375z M12.027,18.61
	c0.08-0.233-0.161-0.3-0.252-0.303c-0.17-0.005-0.315,0.123-0.312,0.332c0.003,0.251,0.199,0.256,0.372,0.276
	C12.099,18.944,11.904,18.679,12.027,18.61z M17.013,19.251c0.175,0.038,0.245-0.068,0.283-0.284
	c0.048-0.271-0.177-0.312-0.303-0.345c-0.156-0.04-0.304,0.128-0.295,0.283C16.706,19.039,16.69,19.28,17.013,19.251z M10.666,19.21
	c-0.162,0.053-0.381,0.159-0.342,0.267c0.045,0.126,0.072,0.361,0.35,0.359c0.231-0.002,0.247-0.146,0.283-0.277
	C11.026,19.311,10.753,19.336,10.666,19.21z M13.079,17.607c0.006-0.189-0.174-0.302-0.289-0.28
	c-0.151,0.029-0.278,0.188-0.415,0.292c0.192,0.029,0.15,0.349,0.437,0.308C13.039,17.895,13.024,17.752,13.079,17.607z
	 M7.575,20.315c-0.098,0.058-0.224,0.133-0.35,0.208c0.099,0.084-0.018,0.328,0.252,0.301c0.183-0.018,0.257-0.072,0.302-0.251
	C7.835,20.346,7.594,20.371,7.575,20.315z M12.335,19.342c0.219,0.193,0.353,0.526,0.653,0.285c0.09-0.073,0.165-0.267,0.023-0.415
	C12.738,18.927,12.599,19.283,12.335,19.342z M10.68,21.59c0.239,0.079,0.248-0.14,0.276-0.265c0.051-0.232-0.176-0.309-0.316-0.315
	c-0.143-0.005-0.258,0.178-0.269,0.325C10.358,21.512,10.472,21.624,10.68,21.59z M14.143,20.168c0.046-0.218-0.197-0.19-0.275-0.3
	c-0.132,0.094-0.344,0.136-0.32,0.348c0.02,0.185,0.135,0.305,0.349,0.314C14.189,20.542,13.986,20.252,14.143,20.168z
	 M13.523,18.415c0.085,0.148,0.119,0.304,0.345,0.343c0.358,0.062,0.147-0.228,0.231-0.332c0.18-0.223-0.136-0.292-0.207-0.295
	C13.728,18.124,13.589,18.249,13.523,18.415z M14.157,21.892c-0.057-0.163-0.23-0.268-0.331-0.229
	c-0.112,0.043-0.334,0.127-0.277,0.318c0.03,0.103,0.013,0.296,0.285,0.272C14.12,22.228,14.035,22,14.157,21.892z M12.044,16.771
	c0.035-0.17-0.184-0.236-0.285-0.242c-0.143-0.008-0.297,0.142-0.297,0.301c0,0.132,0.035,0.296,0.276,0.285
	C11.959,17.104,11.975,16.964,12.044,16.771z M7.791,22.281c-0.075-0.103-0.155-0.284-0.299-0.243
	c-0.086,0.024-0.338,0.075-0.239,0.312c0.047,0.111,0.01,0.258,0.239,0.237C7.708,22.568,7.745,22.45,7.791,22.281z M14.149,16.577
	c0.019-0.177-0.221-0.143-0.303-0.26c-0.096,0.118-0.325,0.156-0.299,0.327c0.015,0.098,0.002,0.305,0.262,0.303
	C14.071,16.944,14.085,16.787,14.149,16.577z M18.075,19.324c-0.115,0.127-0.257,0.235-0.315,0.377
	c-0.019,0.047,0.012,0.301,0.263,0.298c0.248-0.003,0.288-0.158,0.339-0.321C18.436,19.447,18.186,19.467,18.075,19.324z
	 M15.224,17.337c-0.095-0.076-0.207-0.165-0.319-0.254c-0.091,0.137-0.354,0.159-0.293,0.391c0.031,0.121,0.003,0.294,0.275,0.257
	C15.145,17.696,15.132,17.527,15.224,17.337z M17.69,14.38c0.164,0.09,0.084,0.313,0.343,0.305c0.256-0.008,0.285-0.178,0.33-0.33
	c0.064-0.217-0.215-0.31-0.267-0.293C17.953,14.109,17.842,14.251,17.69,14.38z M10.982,17.735
	c-0.024-0.163-0.249-0.288-0.297-0.257c-0.132,0.084-0.334,0.15-0.319,0.382c0.012,0.191,0.127,0.179,0.27,0.201
	C10.896,18.099,10.911,17.908,10.982,17.735z M10.669,15.691c-0.081,0.138-0.297,0.134-0.264,0.354
	c0.034,0.226,0.197,0.285,0.367,0.29c0.226,0.007,0.126-0.218,0.148-0.321C10.952,15.867,10.821,15.755,10.669,15.691z
	 M18.079,15.782c-0.116,0.125-0.262,0.229-0.317,0.368c-0.02,0.052,0.029,0.292,0.264,0.3c0.252,0.009,0.281-0.156,0.335-0.315
	C18.437,15.906,18.187,15.929,18.079,15.782z M18.012,21.006c0.035,0.298-0.305,0.251-0.244,0.481
	c0.032,0.122,0.051,0.283,0.294,0.276c0.28-0.009,0.26-0.214,0.299-0.351C18.42,21.202,18.152,21.233,18.012,21.006z M18.378,17.87
	c0.031-0.194-0.205-0.275-0.282-0.266c-0.151,0.018-0.332,0.152-0.332,0.321c0,0.101,0.035,0.292,0.273,0.297
	C18.303,18.228,18.29,18.034,18.378,17.87z"/>
<path class="st1" d="M23.466,3.475c-1.673-0.473-3.326-0.239-4.975,0.137c-2.769,0.631-5.38,1.631-7.726,3.268
	C9.895,7.487,9.241,8.291,8.58,9.095C7.803,8.594,7.143,7.977,6.674,7.17c0.31-0.179,0.621-0.357,0.931-0.537
	c1.074-0.622,2.137-1.257,2.91-2.267c0.849-1.111,0.733-1.804-0.427-2.505c4.586-1.882,8.947-1.416,13.094,1.261
	C23.314,3.206,23.461,3.286,23.466,3.475z"/>
<path class="st2" d="M7.28,30.768c-0.576-0.254-0.534-0.743-0.472-1.24c1.825-0.016,3.651-0.006,5.465-0.256
	c1.636-0.036,3.264-0.222,4.876-0.463c3.969-0.593,7.926-1.271,11.887-1.915c0.369,0.021,0.737,0.042,1.106,0.064
	c0.006,0.317-0.044,0.648,0.031,0.948c0.088,0.352-0.057,0.38-0.33,0.388c-2.064,0.062-4.063,0.579-6.092,0.885
	c-2.773,0.418-5.545,0.848-8.332,1.144C12.716,30.611,10.003,30.81,7.28,30.768z"/>
<path class="st2" d="M6.818,28.293c-0.09-0.441-0.099-0.881,0.005-1.322c1.184-0.019,2.37,0.036,3.55-0.101
	c1.821-0.084,3.636-0.196,5.448-0.431c1.88-0.244,3.753-0.531,5.627-0.811c2.444-0.365,4.854-0.939,7.319-1.164
	c0.51,0.102,0.977-0.303,1.493-0.127c0.006,0.407,0.012,0.814,0.017,1.221c-0.405,0.109-0.843-0.057-1.237,0.146
	c-0.911,0.116-1.827,0.205-2.732,0.354c-2.547,0.42-5.084,0.912-7.637,1.285c-2.122,0.31-4.262,0.493-6.394,0.732
	C10.458,28.148,8.638,28.22,6.818,28.293z"/>
<path class="st0" d="M10.089,1.861c1.159,0.701,1.276,1.395,0.427,2.505c-0.773,1.01-1.836,1.645-2.91,2.267
	c-0.31,0.18-0.621,0.358-0.931,0.537C5.324,7.626,4.03,8.264,2.59,8.429c-0.199,0.023-0.446,0.16-0.583-0.007
	C1.854,8.238,2.079,8.048,2.171,7.881c1.23-2.238,2.943-4.018,5.107-5.371C8.143,1.969,9.099,1.848,10.089,1.861z"/>
<path class="st3" d="M7.28,30.768c2.723,0.041,5.436-0.157,8.139-0.445c2.787-0.297,5.559-0.726,8.332-1.144
	c2.029-0.306,4.029-0.823,6.092-0.885c0.273-0.008,0.418-0.036,0.33-0.388c-0.075-0.3-0.026-0.631-0.031-0.948
	c0.27-0.004,0.54-0.008,0.811-0.013c-0.045,0.692-0.006,1.365,0.455,1.938l-0.038-0.015c0,0,0.038,0.017,0.038,0.017
	c-0.091,0.012-0.127,0.06-0.098,0.15c0,0-0.03,0.031-0.03,0.031c-0.093-0.025-0.133,0.012-0.124,0.106c0,0-0.016,0.014-0.016,0.014
	c-0.09-0.023-0.142,0.016-0.165,0.102c0,0,0.007-0.004,0.007-0.004c-0.132-0.026-0.232,0.009-0.278,0.146
	c0,0,0.007-0.004,0.007-0.004c-0.132-0.038-0.232,0.001-0.295,0.125c-0.474,0.277-1.04,0.264-1.531,0.485
	c-1.664,0.19-3.325,0.429-4.994,0.561c-3.193,0.252-6.394,0.346-9.597,0.357c-0.269,0.001-0.539,0.04-0.808,0.061
	c-1.79-0.027-3.58-0.051-5.369-0.086C7.831,30.925,7.519,31.019,7.28,30.768z"/>
<path class="st2" d="M18.81,14.614c-0.007-0.424-0.014-0.847-0.022-1.27c3.362-0.56,6.724-1.121,10.087-1.682
	c0.379-0.001,0.758-0.002,1.136-0.003c-0.229,0.384-0.122,0.803-0.128,1.21c-0.371,0.057-0.742,0.114-1.113,0.171
	c-0.818,0.109-1.639,0.199-2.453,0.331C23.814,13.777,21.313,14.199,18.81,14.614z"/>
<path class="st4" d="M6.818,28.293c1.82-0.073,3.64-0.145,5.46-0.218c-0.002,0.399-0.004,0.798-0.006,1.197
	c-1.814,0.25-3.64,0.239-5.465,0.256C6.811,29.116,6.814,28.705,6.818,28.293z"/>
<path class="st4" d="M10.373,26.871c-1.18,0.137-2.366,0.082-3.55,0.101c-0.005-0.103-0.011-0.205-0.016-0.308
	c0.004-0.308,0.009-0.617,0.013-0.925c1.184-0.019,2.369-0.038,3.553-0.056C10.373,26.078,10.373,26.474,10.373,26.871z"/>
<path class="st4" d="M31.24,18.176c-0.007,0.386-0.013,0.773-0.02,1.159c-0.313-0.06-0.627-0.084-0.942-0.018
	c-0.175,0.004-0.351,0.007-0.526,0.011c-0.625-0.127-1.21,0.055-1.798,0.226c0.566-0.327,0.633-0.843,0.537-1.42
	c0.594-0.065,1.187-0.131,1.781-0.196c0.192,0.012,0.383,0.024,0.575,0.036C30.979,18.041,31.109,18.108,31.24,18.176z"/>
<path class="st4" d="M30.261,24.337c-0.516-0.175-0.983,0.23-1.493,0.127c-0.147-0.412-0.147-0.837-0.106-1.265
	c0.358-0.065,0.716-0.13,1.075-0.195c0.447,0.028,0.893,0.055,1.34,0.083c0.053,0.055,0.106,0.111,0.16,0.166
	c0.001,0.403,0.003,0.806,0.004,1.209c-0.136,0.01-0.273,0.019-0.409,0.029C30.663,24.357,30.483,24.27,30.261,24.337z"/>
<path class="st4" d="M28.77,13.04c0.371-0.057,0.742-0.114,1.113-0.171c0.082,0,0.164,0,0.245,0.001
	c0.363,0.121,0.78-0.024,1.118,0.223c-0.002,0.418-0.005,0.835-0.007,1.253c-0.056,0.022-0.112,0.044-0.167,0.067
	c-0.368-0.3-0.791-0.111-1.191-0.135c-0.326-0.013-0.651-0.026-0.977-0.038C28.937,13.83,28.912,13.428,28.77,13.04z"/>
<path class="st4" d="M31.379,20.798c-0.287,0.331-0.087,0.726-0.142,1.088c-0.056,0.008-0.111,0.017-0.167,0.025
	c-0.424-0.217-0.869-0.146-1.313-0.099c-0.286,0.009-0.572,0.018-0.857,0.027c-0.077-0.4-0.16-0.799,0.006-1.197
	c0.283-0.052,0.566-0.103,0.849-0.155c0.124,0,0.247,0,0.371,0C30.531,20.64,31.031,20.412,31.379,20.798z"/>
<path class="st4" d="M31.232,15.638c0.003,0.394,0.005,0.788,0.008,1.182c-0.122-0.015-0.243-0.031-0.365-0.046
	c-0.195-0.098-0.401-0.075-0.607-0.055c-0.459-0.099-0.913,0.049-1.37,0.028c0.002-0.366,0.004-0.733,0.006-1.099
	c0.315-0.084,0.629-0.168,0.944-0.252c0.366,0.022,0.732,0.044,1.097,0.067C31.041,15.521,31.137,15.579,31.232,15.638z"/>
<path class="st4" d="M30.952,26.945c-0.27,0.004-0.54,0.008-0.811,0.013c-0.369-0.021-0.737-0.042-1.106-0.064
	c0.002-0.396,0.004-0.793,0.007-1.189c0.394-0.202,0.832-0.037,1.237-0.146c0.185,0.01,0.37,0.019,0.554,0.029
	c0.138,0.063,0.275,0.126,0.413,0.189c-0.004,0.392-0.009,0.783-0.013,1.175C31.139,26.949,31.045,26.947,30.952,26.945z"/>
<path class="st2" d="M31.247,13.092c-0.338-0.247-0.755-0.102-1.118-0.223c0.001-0.405,0.002-0.81,0.003-1.215
	c1.214-0.126,1.55,0.191,1.38,1.281C31.481,13.131,31.396,13.143,31.247,13.092z"/>
<path class="st2" d="M31.379,20.798c-0.348-0.386-0.848-0.157-1.253-0.311c0.192-0.371,0.174-0.77,0.153-1.17
	c0.315-0.066,0.629-0.042,0.942,0.018C31.646,19.782,31.592,20.281,31.379,20.798z"/>
<path class="st2" d="M30.952,26.945c0.094,0.002,0.187,0.004,0.281,0.007c0.476,0.606,0.308,1.271,0.173,1.932
	C30.946,28.31,30.907,27.637,30.952,26.945z"/>
<path class="st2" d="M30.875,16.773c0.122,0.015,0.243,0.031,0.365,0.046c0.39,0.537,0.39,1.134,0,1.356
	c-0.131-0.067-0.261-0.135-0.392-0.202C30.857,17.574,30.866,17.173,30.875,16.773z"/>
<path class="st2" d="M31.246,25.777c-0.138-0.063-0.275-0.126-0.413-0.189c-0.001-0.365-0.002-0.731-0.003-1.096
	c0.136-0.01,0.273-0.019,0.409-0.029C31.628,24.964,31.631,25.586,31.246,25.777z"/>
<path class="st2" d="M31.232,15.638c-0.096-0.058-0.191-0.117-0.287-0.175c-0.026-0.359,0.041-0.706,0.127-1.051
	c0.056-0.022,0.111-0.044,0.167-0.067C31.629,14.823,31.626,15.392,31.232,15.638z"/>
<path class="st2" d="M31.07,21.91c0.056-0.008,0.111-0.017,0.167-0.025c0.396,0.543,0.395,1.131-0.001,1.369
	c-0.053-0.055-0.106-0.111-0.159-0.166C31.074,22.695,31.072,22.303,31.07,21.91z"/>
<path class="st3" d="M30.132,11.655c-0.001,0.405-0.002,0.81-0.003,1.215c-0.082,0-0.164,0-0.245-0.001
	c0.006-0.407-0.101-0.826,0.129-1.21C30.051,11.637,30.091,11.636,30.132,11.655z"/>
<path class="st2" d="M30.702,29.431c0.046-0.137,0.146-0.172,0.278-0.146C30.927,29.408,30.823,29.436,30.702,29.431z"/>
<path class="st2" d="M30.415,29.552c0.063-0.125,0.163-0.163,0.295-0.125C30.645,29.548,30.537,29.567,30.415,29.552z"/>
<path class="st2" d="M31.308,29.035c-0.029-0.09,0.007-0.138,0.098-0.15C31.422,28.967,31.384,29.013,31.308,29.035z"/>
<path class="st2" d="M31.154,29.173c-0.009-0.094,0.031-0.131,0.124-0.106C31.237,29.102,31.195,29.138,31.154,29.173z"/>
<path class="st2" d="M30.973,29.289c0.023-0.086,0.075-0.125,0.165-0.102C31.083,29.221,31.028,29.255,30.973,29.289z"/>
<path class="st2" d="M28.9,21.838c0.286-0.009,0.572-0.018,0.857-0.027c-0.007,0.398-0.014,0.795-0.02,1.193
	c-0.358,0.065-0.716,0.13-1.075,0.195c-0.382,0.042-0.767,0.068-1.147,0.127c-3.377,0.533-6.733,1.192-10.123,1.643
	c-2.333,0.31-4.676,0.505-7.019,0.712c-1.184,0.019-2.369,0.038-3.553,0.056c-0.073-0.428-0.073-0.856-0.001-1.284
	c1.862-0.035,3.724-0.068,5.585-0.107c0.144-0.003,0.33,0.065,0.406-0.146c1.269-0.175,2.555-0.157,3.823-0.389
	c0.864-0.158,1.765-0.173,2.623-0.327C22.466,22.909,25.685,22.383,28.9,21.838z"/>
<path class="st4" d="M12.81,24.202c-0.076,0.211-0.262,0.143-0.406,0.146c-1.862,0.04-3.724,0.073-5.585,0.107
	c-0.002-0.414-0.004-0.827-0.006-1.241c1.909-0.073,3.819-0.147,5.728-0.22C12.594,23.404,12.368,23.877,12.81,24.202z"/>
<path class="st5" d="M12.81,24.202c-0.442-0.324-0.216-0.797-0.269-1.208c2.088-0.244,4.176-0.488,6.264-0.732
	c0.569-0.097,1.137-0.195,1.706-0.29c2.795-0.462,5.581-0.985,8.395-1.331c-0.166,0.398-0.083,0.798-0.006,1.197
	c-3.215,0.545-6.433,1.07-9.643,1.647c-0.858,0.154-1.759,0.169-2.623,0.327C15.366,24.045,14.079,24.026,12.81,24.202z"/>
<path class="st2" d="M28.898,16.747c0.457,0.021,0.911-0.128,1.37-0.028c0.002,0.406,0.003,0.812,0.005,1.219
	c-0.594,0.065-1.187,0.131-1.781,0.197c-0.684,0.096-1.37,0.18-2.051,0.291c-2.545,0.416-5.088,0.842-7.632,1.264
	c0.001-0.422,0.002-0.843,0.003-1.265C22.174,17.865,25.536,17.306,28.898,16.747z"/>
<path class="st2" d="M29.848,15.396c-0.315,0.084-0.629,0.168-0.944,0.252c-0.713-0.112-1.403,0.068-2.095,0.179
	c-2.668,0.429-5.333,0.874-7.999,1.314c0-0.416,0-0.831,0-1.247c3.365-0.552,6.729-1.103,10.094-1.655
	c0.326,0.013,0.651,0.026,0.977,0.038C29.87,14.65,29.859,15.023,29.848,15.396z"/>
<path class="st2" d="M28.905,20.641c-2.814,0.347-5.599,0.869-8.395,1.331c-0.569,0.094-1.137,0.193-1.706,0.29
	c0.002-0.434,0.003-0.868,0.005-1.302c1.077-0.168,2.151-0.35,3.23-0.501c1.975-0.277,3.911-0.812,5.915-0.905
	c0.587-0.171,1.173-0.353,1.797-0.226c0.001,0.386,0.002,0.772,0.003,1.159C29.472,20.538,29.189,20.589,28.905,20.641z"/>
<path class="st5" d="M18.81,17.14c2.666-0.439,5.331-0.885,7.999-1.314c0.692-0.111,1.382-0.291,2.095-0.179
	c-0.002,0.366-0.004,0.733-0.006,1.099c-3.362,0.559-6.724,1.118-10.086,1.677C18.744,17.996,18.752,17.568,18.81,17.14z"/>
<path class="st5" d="M28.904,14.238c-3.365,0.552-6.729,1.103-10.094,1.655c-0.061-0.426-0.064-0.853,0-1.279
	c2.502-0.416,5.003-0.838,7.507-1.243c0.814-0.132,1.635-0.222,2.453-0.331C28.912,13.428,28.937,13.83,28.904,14.238z"/>
<path class="st5" d="M27.955,19.554c-2.003,0.093-3.939,0.628-5.915,0.905c-1.079,0.151-2.154,0.333-3.23,0.501
	c-0.061-0.424-0.061-0.848,0-1.271c2.544-0.422,5.087-0.848,7.632-1.264c0.681-0.111,1.367-0.195,2.051-0.291
	C28.588,18.711,28.521,19.227,27.955,19.554z"/>
<path class="st4" d="M12.04,15.026c-0.096,0.191,0.017,0.458-0.324,0.45c-0.284-0.006-0.213-0.183-0.259-0.34
	c-0.089-0.308,0.2-0.276,0.319-0.396C11.86,14.849,12.093,14.843,12.04,15.026z"/>
<path class="st4" d="M9.586,20.121c0.116,0.145,0.34,0.148,0.319,0.357c-0.02,0.2-0.126,0.27-0.347,0.301
	c-0.292,0.042-0.351-0.23-0.325-0.295C9.288,20.339,9.46,20.24,9.586,20.121z"/>
<path class="st4" d="M8.302,19.693c-0.068-0.243,0.18-0.352,0.235-0.347c0.149,0.015,0.397,0.073,0.279,0.314
	c-0.041,0.083,0.174,0.351-0.16,0.275C8.487,19.897,8.297,19.918,8.302,19.693z"/>
<path class="st4" d="M16.276,14.601c-0.105,0.206,0.016,0.485-0.327,0.471c-0.276-0.012-0.265-0.226-0.288-0.377
	c-0.037-0.236,0.172-0.338,0.353-0.346C16.087,14.345,16.355,14.413,16.276,14.601z"/>
<path class="st4" d="M16.229,16.471c-0.048,0.129,0.05,0.397-0.291,0.373c-0.274-0.019-0.266-0.246-0.278-0.388
	c-0.017-0.21,0.162-0.357,0.365-0.333C16.112,16.133,16.373,16.195,16.229,16.471z"/>
<path class="st4" d="M9.161,18.685c0.154-0.103,0.293-0.267,0.429-0.264c0.108,0.002,0.345,0.078,0.296,0.348
	c-0.047,0.261-0.227,0.209-0.391,0.239C9.246,19.053,9.323,18.793,9.161,18.685z"/>
<path class="st4" d="M8.583,21.095c0.125,0.108,0.37,0.144,0.231,0.387c-0.043,0.075,0.131,0.272-0.141,0.234
	c-0.217-0.03-0.381-0.085-0.385-0.325C8.285,21.209,8.46,21.172,8.583,21.095z"/>
<path class="st4" d="M15.958,20.379c-0.321,0.021-0.293-0.279-0.313-0.423c-0.018-0.125,0.184-0.323,0.354-0.304
	c0.173,0.019,0.282,0.159,0.221,0.391C16.175,20.212,16.234,20.417,15.958,20.379z"/>
<path class="st4" d="M8.22,15.997c0.087-0.049,0.206-0.171,0.321-0.166c0.154,0.006,0.405,0.045,0.276,0.315
	c-0.04,0.085,0.138,0.283-0.128,0.263C8.445,16.391,8.284,16.285,8.22,15.997z"/>
<path class="st4" d="M11.441,20.35c-0.021-0.163,0.164-0.254,0.269-0.269c0.148-0.02,0.383,0.059,0.303,0.289
	c-0.036,0.104,0.098,0.354-0.16,0.323C11.672,20.672,11.413,20.694,11.441,20.35z"/>
<path class="st4" d="M14.922,20.465c0.141,0.2,0.309,0.337,0.287,0.428c-0.037,0.154-0.051,0.365-0.347,0.387
	c-0.315,0.023-0.165-0.27-0.313-0.33C14.648,20.822,14.747,20.694,14.922,20.465z"/>
<path class="st4" d="M9.36,22.391c-0.054-0.287,0.068-0.435,0.2-0.44c0.146-0.005,0.387,0.093,0.303,0.297
	c-0.037,0.09,0.139,0.369-0.207,0.333C9.428,22.558,9.365,22.476,9.36,22.391z"/>
<path class="st4" d="M11.43,22.074c0.029-0.119,0.187-0.225,0.346-0.234c0.063-0.003,0.361,0.08,0.239,0.3
	c-0.06,0.109,0.089,0.344-0.163,0.327C11.659,22.454,11.45,22.417,11.43,22.074z"/>
<path class="st4" d="M15.217,19.106c-0.06,0.248-0.135,0.402-0.39,0.405c-0.271,0.004-0.138-0.299-0.308-0.356
	c0.14-0.104,0.268-0.252,0.424-0.294C15.014,18.843,15.141,19.034,15.217,19.106z"/>
<path class="st4" d="M9.928,15.104c-0.072,0.219-0.121,0.353-0.362,0.358c-0.205,0.004-0.287-0.059-0.306-0.232
	c-0.027-0.251,0.19-0.343,0.356-0.369C9.711,14.845,9.836,15.028,9.928,15.104z"/>
<path class="st4" d="M15.216,15.574c-0.075,0.204-0.093,0.354-0.337,0.387c-0.316,0.043-0.222-0.287-0.399-0.343
	c0.15-0.103,0.29-0.247,0.456-0.289C15.01,15.31,15.135,15.5,15.216,15.574z"/>
<path class="st4" d="M7.222,15.194c0.053-0.145,0.215-0.277,0.317-0.241c0.11,0.039,0.331,0.141,0.214,0.383
	c-0.049,0.101,0.03,0.199-0.211,0.185C7.258,15.505,7.3,15.34,7.222,15.194z"/>
<path class="st4" d="M9.912,16.895c-0.053,0.198-0.106,0.325-0.35,0.34c-0.225,0.013-0.291-0.085-0.305-0.245
	c-0.019-0.214,0.168-0.331,0.324-0.342C9.696,16.64,9.879,16.73,9.912,16.895z"/>
<path class="st4" d="M13.108,21.11c-0.081,0.16-0.04,0.351-0.32,0.36c-0.281,0.009-0.232-0.283-0.414-0.329
	c0.064-0.203,0.261-0.26,0.416-0.271C12.895,20.863,13.104,20.917,13.108,21.11z"/>
<path class="st4" d="M16.206,18.283c0.021,0.191-0.004,0.341-0.27,0.331c-0.274-0.011-0.249-0.241-0.278-0.388
	c-0.039-0.199,0.173-0.329,0.306-0.336C16.171,17.88,16.251,18.063,16.206,18.283z"/>
<path class="st4" d="M8.829,17.914c-0.133,0.03,0.174,0.352-0.18,0.253c-0.169-0.047-0.316-0.042-0.358-0.269
	c-0.045-0.239,0.168-0.287,0.259-0.29C8.692,17.604,8.928,17.64,8.829,17.914z"/>
<path class="st4" d="M13.084,15.793c-0.05,0.229-0.075,0.35-0.301,0.362c-0.277,0.015-0.232-0.285-0.415-0.335
	c0.069-0.206,0.27-0.259,0.429-0.261C12.929,15.556,13.104,15.657,13.084,15.793z"/>
<path class="st4" d="M14.161,14.825c-0.156,0.118-0.011,0.402-0.225,0.413c-0.185,0.009-0.383-0.116-0.392-0.338
	c-0.009-0.204,0.128-0.396,0.317-0.42C13.944,14.47,14.058,14.701,14.161,14.825z"/>
<path class="st4" d="M17,15.697c-0.302,0.096-0.281-0.187-0.304-0.304c-0.028-0.144,0.103-0.325,0.27-0.308
	c0.146,0.015,0.362,0.066,0.328,0.311C17.271,15.567,17.27,15.776,17,15.697z"/>
<path class="st4" d="M7.813,18.737c-0.091,0.11-0.029,0.304-0.276,0.314c-0.229,0.01-0.247-0.103-0.29-0.255
	c-0.065-0.228,0.159-0.275,0.254-0.302C7.638,18.455,7.739,18.614,7.813,18.737z"/>
<path class="st4" d="M7.539,16.7c0.064,0.121,0.296,0.099,0.243,0.322c-0.041,0.169-0.1,0.243-0.296,0.26
	c-0.269,0.023-0.232-0.196-0.247-0.3C7.214,16.808,7.414,16.777,7.539,16.7z"/>
<path class="st4" d="M16.997,17.475c-0.311,0.053-0.288-0.204-0.3-0.333c-0.015-0.152,0.13-0.324,0.289-0.289
	c0.13,0.029,0.356,0.067,0.31,0.335C17.261,17.393,17.209,17.526,16.997,17.475z"/>
<path class="st4" d="M16.981,20.375c0.114,0.105,0.353,0.082,0.312,0.34c-0.029,0.185-0.061,0.29-0.309,0.312
	c-0.266,0.024-0.241-0.164-0.276-0.271C16.641,20.547,16.8,20.447,16.981,20.375z"/>
<path class="st4" d="M12.027,18.61c-0.123,0.069,0.072,0.334-0.192,0.305c-0.173-0.019-0.369-0.025-0.372-0.276
	c-0.002-0.209,0.143-0.338,0.312-0.332C11.866,18.31,12.107,18.377,12.027,18.61z"/>
<path class="st4" d="M17.013,19.251c-0.323,0.029-0.307-0.211-0.315-0.346c-0.009-0.155,0.139-0.323,0.295-0.283
	c0.126,0.033,0.351,0.074,0.303,0.345C17.258,19.183,17.188,19.288,17.013,19.251z"/>
<path class="st4" d="M10.666,19.21c0.087,0.126,0.36,0.101,0.291,0.35c-0.036,0.131-0.052,0.275-0.283,0.277
	c-0.278,0.002-0.305-0.233-0.35-0.359C10.286,19.369,10.504,19.263,10.666,19.21z"/>
<path class="st4" d="M13.079,17.607c-0.055,0.145-0.039,0.288-0.268,0.32c-0.287,0.04-0.245-0.279-0.437-0.308
	c0.137-0.103,0.264-0.263,0.415-0.292C12.905,17.305,13.085,17.418,13.079,17.607z"/>
<path class="st4" d="M7.575,20.315c0.018,0.056,0.26,0.031,0.203,0.258c-0.044,0.179-0.119,0.233-0.302,0.251
	c-0.27,0.027-0.153-0.217-0.252-0.301C7.351,20.448,7.477,20.373,7.575,20.315z"/>
<path class="st4" d="M12.335,19.342c0.263-0.058,0.403-0.415,0.675-0.13c0.142,0.148,0.067,0.342-0.023,0.415
	C12.688,19.868,12.555,19.535,12.335,19.342z"/>
<path class="st4" d="M10.68,21.59c-0.209,0.034-0.322-0.078-0.309-0.254c0.011-0.147,0.126-0.331,0.269-0.325
	c0.14,0.005,0.367,0.083,0.316,0.315C10.929,21.45,10.92,21.669,10.68,21.59z"/>
<path class="st4" d="M14.143,20.168c-0.158,0.084,0.046,0.374-0.246,0.362c-0.215-0.009-0.329-0.129-0.349-0.314
	c-0.023-0.212,0.188-0.253,0.32-0.348C13.946,19.978,14.189,19.95,14.143,20.168z"/>
<path class="st4" d="M13.523,18.415c0.065-0.166,0.204-0.291,0.369-0.284c0.071,0.003,0.387,0.071,0.207,0.295
	c-0.083,0.104,0.127,0.394-0.231,0.332C13.642,18.718,13.608,18.563,13.523,18.415z"/>
<path class="st4" d="M14.157,21.892c-0.122,0.109-0.037,0.336-0.323,0.361c-0.272,0.024-0.254-0.169-0.285-0.272
	c-0.056-0.19,0.166-0.274,0.277-0.318C13.927,21.624,14.1,21.728,14.157,21.892z"/>
<path class="st4" d="M12.044,16.771c-0.069,0.193-0.085,0.333-0.307,0.344c-0.241,0.011-0.276-0.152-0.276-0.285
	c0-0.159,0.154-0.309,0.297-0.301C11.86,16.535,12.079,16.601,12.044,16.771z"/>
<path class="st4" d="M7.791,22.281c-0.045,0.169-0.083,0.287-0.298,0.307c-0.229,0.021-0.192-0.126-0.239-0.237
	c-0.1-0.237,0.153-0.288,0.239-0.312C7.636,21.998,7.715,22.178,7.791,22.281z"/>
<path class="st4" d="M14.149,16.577c-0.064,0.21-0.078,0.367-0.341,0.369c-0.26,0.002-0.247-0.205-0.262-0.303
	c-0.026-0.171,0.203-0.208,0.299-0.327C13.927,16.434,14.167,16.4,14.149,16.577z"/>
<path class="st4" d="M15.661,22.016c-0.078-0.288,0.013-0.519,0.301-0.591c0.108-0.027,0.283,0.056,0.273,0.283
	c-0.018,0.391-0.288,0.314-0.521,0.323c-0.021,0.001-0.042-0.016-0.063-0.025L15.661,22.016z"/>
<path class="st4" d="M18.075,19.324c0.112,0.143,0.361,0.123,0.287,0.354c-0.052,0.163-0.091,0.318-0.339,0.321
	c-0.251,0.003-0.282-0.251-0.263-0.298C17.818,19.559,17.96,19.451,18.075,19.324z"/>
<path class="st4" d="M15.224,17.337c-0.092,0.19-0.079,0.36-0.337,0.395c-0.272,0.037-0.244-0.136-0.275-0.257
	c-0.06-0.232,0.202-0.254,0.293-0.391C15.017,17.172,15.129,17.261,15.224,17.337z"/>
<path class="st4" d="M17.69,14.38c0.153-0.129,0.263-0.272,0.406-0.319c0.052-0.017,0.332,0.076,0.267,0.293
	c-0.045,0.153-0.074,0.322-0.33,0.33C17.774,14.693,17.854,14.47,17.69,14.38z"/>
<path class="st4" d="M10.982,17.735c-0.07,0.173-0.086,0.364-0.346,0.326c-0.143-0.021-0.258-0.01-0.27-0.201
	c-0.015-0.232,0.188-0.298,0.319-0.382C10.732,17.448,10.958,17.572,10.982,17.735z"/>
<path class="st4" d="M10.669,15.691c0.152,0.064,0.283,0.176,0.252,0.324c-0.022,0.103,0.078,0.327-0.148,0.321
	c-0.171-0.005-0.333-0.064-0.367-0.29C10.372,15.825,10.588,15.83,10.669,15.691z"/>
<path class="st4" d="M18.079,15.782c0.108,0.147,0.359,0.125,0.282,0.354c-0.053,0.159-0.083,0.324-0.335,0.315
	c-0.235-0.009-0.284-0.248-0.264-0.3C17.816,16.011,17.962,15.907,18.079,15.782z"/>
<path class="st4" d="M18.012,21.006c0.14,0.227,0.409,0.197,0.35,0.406c-0.039,0.137-0.02,0.342-0.299,0.351
	c-0.243,0.008-0.262-0.154-0.294-0.276C17.707,21.257,18.047,21.304,18.012,21.006z"/>
<path class="st4" d="M18.378,17.87c-0.088,0.165-0.075,0.358-0.34,0.352c-0.238-0.006-0.273-0.196-0.273-0.297
	c0-0.169,0.181-0.303,0.332-0.321C18.173,17.594,18.41,17.676,18.378,17.87z"/>
<path class="st4" d="M15.651,22.007c0.004,0.003,0.008,0.007,0.011,0.01C15.661,22.016,15.651,22.007,15.651,22.007z"/>
<path class="st5" d="M29.042,25.704c-0.002,0.396-0.004,0.793-0.007,1.189c-3.962,0.644-7.918,1.322-11.887,1.915
	c-1.612,0.241-3.239,0.427-4.876,0.463c0.002-0.399,0.004-0.798,0.006-1.197c2.132-0.239,4.273-0.422,6.394-0.732
	c2.554-0.373,5.09-0.865,7.637-1.285C27.215,25.909,28.131,25.821,29.042,25.704z"/>
<path class="st5" d="M10.373,25.682c2.343-0.207,4.686-0.401,7.019-0.712c3.39-0.451,6.746-1.11,10.123-1.643
	c0.379-0.06,0.764-0.086,1.147-0.127c-0.041,0.428-0.041,0.852,0.106,1.264c-2.466,0.225-4.876,0.799-7.319,1.164
	c-1.874,0.28-3.747,0.566-5.627,0.811c-1.812,0.236-3.627,0.347-5.448,0.431C10.373,26.474,10.373,26.078,10.373,25.682z"/>
<path class="st3" d="M30.83,24.491c0.001,0.365,0.002,0.731,0.003,1.096c-0.185-0.01-0.369-0.019-0.554-0.029
	c-0.006-0.407-0.012-0.814-0.017-1.221C30.483,24.27,30.663,24.357,30.83,24.491z"/>
<path class="st3" d="M30.273,17.937c-0.001-0.406-0.003-0.812-0.005-1.219c0.206-0.02,0.412-0.043,0.607,0.055
	c-0.009,0.4-0.018,0.8-0.027,1.2C30.656,17.962,30.465,17.949,30.273,17.937z"/>
<path class="st3" d="M29.755,20.486c-0.001-0.386-0.002-0.772-0.003-1.159c0.175-0.004,0.351-0.007,0.526-0.011
	c0.021,0.399,0.039,0.798-0.152,1.17C30.002,20.486,29.879,20.486,29.755,20.486z"/>
<path class="st3" d="M29.736,23.005c0.007-0.398,0.013-0.795,0.02-1.193c0.444-0.047,0.89-0.119,1.313,0.099
	c0.002,0.392,0.004,0.785,0.006,1.177C30.63,23.06,30.183,23.032,29.736,23.005z"/>
<path class="st3" d="M29.848,15.396c0.011-0.373,0.022-0.746,0.033-1.119c0.4,0.024,0.823-0.165,1.191,0.135
	c-0.086,0.345-0.153,0.692-0.127,1.051C30.579,15.44,30.214,15.418,29.848,15.396z"/>
</svg>
