<?xml version="1.0" encoding="utf-8"?>
<!-- Generator: Adobe Illustrator 25.2.3, SVG Export Plug-In . SVG Version: 6.00 Build 0)  -->
<svg version="1.1" id="Layer_1" xmlns="http://www.w3.org/2000/svg" xmlns:xlink="http://www.w3.org/1999/xlink" x="0px" y="0px"
	 viewBox="0 0 32 32" style="enable-background:new 0 0 32 32;" xml:space="preserve">
<style type="text/css">
	.st0{fill:#7CB1DB;}
	.st1{fill:#F8FBFB;}
	.st2{fill:#2561A7;}
	.st3{fill:#FCFDFD;}
	.st4{fill:#0E153D;}
</style>
<path class="st0" d="M14.081,0.007c1.253,0,2.506,0,3.758,0c0.121,0.164,0.312,0.13,0.473,0.152
	c1.839,0.251,3.571,0.835,5.204,1.703c1.708,0.908,3.208,2.085,4.485,3.544c1.863,2.128,3.086,4.572,3.682,7.338
	c0.102,0.472,0.055,0.978,0.309,1.417c0,1.253,0,2.506,0,3.758c-0.159,0.085-0.127,0.251-0.154,0.387
	c-0.095,0.482-0.152,0.974-0.271,1.45c-0.896,3.566-2.762,6.521-5.647,8.808c-2.004,1.588-4.264,2.64-6.784,3.137
	c-0.433,0.085-0.901,0.043-1.298,0.292c-1.253,0-2.506,0-3.758,0c-0.072-0.15-0.225-0.13-0.347-0.147
	c-3.347-0.476-6.257-1.883-8.71-4.191c-2.539-2.39-4.118-5.326-4.78-8.756c-0.063-0.327,0.016-0.696-0.236-0.98
	c0-1.279,0-2.559,0-3.838c0.095-0.029,0.104-0.114,0.118-0.191c0.102-0.549,0.173-1.106,0.308-1.647
	c0.895-3.568,2.762-6.523,5.649-8.81c2.005-1.589,4.267-2.637,6.786-3.135C13.272,0.219,13.718,0.27,14.081,0.007z M31.366,16.022
	c0.082-8.453-6.858-15.269-15.095-15.403C7.625,0.479,0.732,7.499,0.617,15.758C0.497,24.39,7.513,31.28,15.788,31.383
	C24.4,31.49,31.442,24.446,31.366,16.022z"/>
<path class="st1" d="M31.366,16.022c0.076,8.424-6.966,15.468-15.578,15.361C7.513,31.28,0.497,24.39,0.617,15.758
	C0.732,7.499,7.625,0.479,16.271,0.619C24.508,0.753,31.448,7.569,31.366,16.022z M14.874,1.988
	c-0.397,0.047-0.797,0.07-1.189,0.144c-4.99,0.943-8.539,3.744-10.623,8.361c-1.03,2.282-1.351,4.707-1.035,7.189
	c0.847,6.66,6.009,11.713,12.684,12.32c4.717,0.429,8.708-1.196,11.856-4.724c3.853-4.319,4.646-10.561,1.935-15.691
	c-2.404-4.548-6.24-7.079-11.376-7.6C16.375,1.872,15.625,1.872,14.874,1.988z"/>
<path class="st2" d="M17.126,1.988c5.137,0.521,8.973,3.052,11.376,7.6c2.711,5.129,1.918,11.372-1.935,15.691
	c-3.148,3.528-7.139,5.153-11.856,4.724c-6.675-0.607-11.837-5.661-12.684-12.32c-0.316-2.483,0.005-4.907,1.035-7.189
	c2.084-4.617,5.633-7.417,10.623-8.361c0.391-0.074,0.792-0.097,1.189-0.144C15.625,1.988,16.375,1.988,17.126,1.988z M4.128,15.967
	C4.08,22.655,9.626,27.894,15.979,27.884c6.595-0.011,11.792-5.328,11.887-11.695c0.099-6.603-5.253-12.051-11.847-12.043
	c-3.317,0.004-6.165,1.203-8.486,3.567C5.291,9.995,4.175,12.768,4.128,15.967z"/>
<path class="st0" d="M17.126,1.988c-0.75,0-1.501,0-2.251,0C15.625,1.872,16.375,1.872,17.126,1.988z"/>
<path class="st3" d="M4.128,15.967c0.046-3.199,1.163-5.972,3.404-8.255c2.321-2.364,5.169-3.563,8.486-3.567
	c6.594-0.008,11.946,5.44,11.847,12.043c-0.095,6.367-5.292,11.685-11.887,11.695C9.626,27.894,4.08,22.655,4.128,15.967z
	 M15.992,24.076c0.653,0,1.307-0.02,1.959,0.009c0.321,0.014,0.432-0.113,0.509-0.399c0.313-1.165,0.66-2.321,0.973-3.485
	c0.417-1.551,0.847-3.098,1.292-4.64c0.539-1.87,1.028-3.755,1.607-5.614c0.102-0.328,0.103-0.466-0.315-0.449
	c-0.838,0.034-1.679,0.009-2.518,0.009c-0.625,0-0.618,0.002-0.774,0.599c-0.876,3.348-1.755,6.694-2.637,10.04
	c-0.031,0.119-0.002,0.311-0.172,0.322c-0.188,0.013-0.15-0.188-0.181-0.301c-0.232-0.847-0.462-1.695-0.676-2.546
	c-0.051-0.204-0.133-0.283-0.35-0.28c-0.866,0.011-1.733,0.014-2.599-0.001c-0.28-0.005-0.304,0.087-0.237,0.328
	c0.574,2.037,1.142,4.076,1.7,6.117c0.06,0.22,0.148,0.301,0.379,0.296C14.633,24.066,15.312,24.076,15.992,24.076z M11.272,9.509
	c-0.478,0-0.957,0.008-1.435-0.004C9.629,9.5,9.546,9.539,9.614,9.768c0.266,0.904,0.523,1.81,0.774,2.718
	c0.043,0.157,0.115,0.215,0.275,0.214c0.957-0.005,1.914-0.004,2.871-0.003c0.159,0,0.238-0.008,0.178-0.221
	c-0.255-0.907-0.492-1.818-0.715-2.733c-0.05-0.207-0.149-0.24-0.328-0.237C12.202,9.514,11.737,9.509,11.272,9.509z M13.166,16.617
	c0.452,0,0.905-0.01,1.357,0.004c0.224,0.007,0.271-0.051,0.21-0.271c-0.249-0.896-0.49-1.794-0.712-2.697
	c-0.053-0.217-0.168-0.229-0.339-0.228c-0.905,0.004-1.81,0.01-2.714-0.002c-0.247-0.003-0.29,0.068-0.224,0.295
	c0.25,0.868,0.492,1.738,0.726,2.611c0.056,0.21,0.143,0.306,0.38,0.294C12.287,16.601,12.727,16.617,13.166,16.617z"/>
<path class="st2" d="M15.992,24.076c-0.68,0-1.36-0.01-2.039,0.005c-0.231,0.005-0.319-0.076-0.379-0.296
	c-0.558-2.041-1.126-4.08-1.7-6.117c-0.068-0.24-0.043-0.332,0.237-0.328c0.866,0.015,1.732,0.012,2.599,0.001
	c0.216-0.003,0.298,0.077,0.35,0.28c0.214,0.852,0.444,1.699,0.676,2.546c0.031,0.113-0.007,0.313,0.181,0.301
	c0.17-0.011,0.14-0.203,0.172-0.322c0.881-3.346,1.761-6.693,2.637-10.04c0.156-0.598,0.149-0.6,0.774-0.599
	c0.84,0,1.68,0.025,2.518-0.009c0.417-0.017,0.417,0.121,0.315,0.449c-0.58,1.858-1.069,3.744-1.607,5.614
	c-0.444,1.542-0.875,3.089-1.292,4.64c-0.313,1.165-0.659,2.321-0.973,3.485c-0.077,0.286-0.188,0.413-0.509,0.399
	C17.299,24.056,16.645,24.076,15.992,24.076z"/>
<path class="st4" d="M11.272,9.509c0.465,0,0.93,0.005,1.395-0.003c0.18-0.003,0.278,0.03,0.328,0.237
	c0.223,0.915,0.461,1.827,0.715,2.733c0.06,0.214-0.019,0.222-0.178,0.221c-0.957-0.001-1.914-0.003-2.871,0.003
	c-0.16,0.001-0.232-0.058-0.275-0.214c-0.251-0.908-0.509-1.814-0.774-2.718C9.546,9.539,9.629,9.5,9.837,9.505
	C10.315,9.517,10.793,9.509,11.272,9.509z"/>
<path class="st4" d="M13.166,16.617c-0.439,0-0.879-0.016-1.317,0.006c-0.238,0.012-0.324-0.084-0.38-0.294
	c-0.234-0.873-0.476-1.743-0.726-2.611c-0.065-0.227-0.022-0.298,0.224-0.295c0.905,0.012,1.81,0.006,2.714,0.002
	c0.172-0.001,0.286,0.011,0.339,0.228c0.221,0.903,0.463,1.801,0.712,2.697c0.061,0.22,0.015,0.278-0.21,0.271
	C14.071,16.607,13.618,16.617,13.166,16.617z"/>
</svg>
