<svg id="Layer_1" data-name="Layer 1" xmlns="http://www.w3.org/2000/svg" viewBox="0 0 32 32"><defs><style>.cls-1{fill:#31b45b;}.cls-2{fill:#116233;}.cls-3{fill:#1a8646;}</style></defs><circle cx="16" cy="16" r="16"/><path class="cls-1" d="M3.777,22.494c-.039-.052-.019-.11-.019-.164q0-2.289,0-4.577a.324.324,0,0,1,.119-.275Q6,15.6,8.123,13.715L11.628,10.6q1.149-1.022,2.3-2.045a.19.19,0,0,1,.19-.043c.077.02.049.094.049.146,0,1.481,0,2.963,0,4.444a.28.28,0,0,1-.1.229q-1.707,1.522-3.412,3.048-1.359,1.213-2.716,2.43l-4.018,3.6C3.877,22.441,3.842,22.49,3.777,22.494Z"/><path class="cls-2" d="M17.283,20.014c0-.709.014-1.419-.008-2.127a.635.635,0,0,1,.267-.544c.411-.355.817-.716,1.224-1.075l1.9-1.68c.477-.423.951-.849,1.429-1.272.637-.565,1.277-1.127,1.915-1.693.482-.427.961-.857,1.442-1.285l1.929-1.707a.219.219,0,0,0,.041-.039.164.164,0,0,1,.21-.082c.1.036.054.131.054.2,0,.81,0,1.621,0,2.431,0,.627-.006,1.254,0,1.88a.445.445,0,0,1-.169.375c-.587.519-1.169,1.042-1.754,1.563q-1.35,1.2-2.7,2.4c-.541.483-1.076.975-1.618,1.458-.772.69-1.548,1.375-2.321,2.064-.4.357-.8.718-1.2,1.078-.164.148-.325.3-.489.447-.036.033-.069.088-.127.059s-.034-.09-.034-.138Q17.283,21.173,17.283,20.014Z"/><path class="cls-3" d="M10.522,22.517c0-1.563.008-3.089-.007-4.614a.665.665,0,0,1,.267-.562c.522-.449,1.035-.909,1.551-1.365l3.236-2.865,1.744-1.549,2.979-2.641c.128-.113.261-.222.378-.345a.188.188,0,0,1,.2-.067c.088.023.057.1.057.16q0,2.212,0,4.425a.3.3,0,0,1-.112.245q-1.162,1.032-2.323,2.068-.75.669-1.5,1.34L13.818,19.59q-.96.86-1.919,1.722-.606.546-1.213,1.09A1.758,1.758,0,0,1,10.522,22.517Z"/></svg>