<?xml version="1.0" encoding="utf-8"?>
<!-- Generator: Adobe Illustrator 25.3.1, SVG Export Plug-In . SVG Version: 6.00 Build 0)  -->
<svg version="1.1" id="Layer_1" xmlns="http://www.w3.org/2000/svg" xmlns:xlink="http://www.w3.org/1999/xlink" x="0px" y="0px"
	 viewBox="0 0 32 32" style="enable-background:new 0 0 32 32;" xml:space="preserve">
<style type="text/css">
	.st0{fill:#589CE0;}
	.st1{fill:#FFFFFF;}
	.st2{opacity:0.1;fill:#FFFFFF;enable-background:new    ;}
</style>
<g>
	<path class="st0" d="M16.042,0.214C7.341,0.191,0.219,7.288,0.214,15.989c-0.006,8.687,7.079,15.786,15.764,15.797
		c8.685,0.012,15.792-7.071,15.807-15.754C31.8,7.344,24.727,0.237,16.042,0.214z"/>
	<g id="Layer_2_1_">
		<g id="Layer_1-2">
			<path class="st1" d="M14.598,25.788L6.044,8.365c-0.139-0.278,0.07-0.607,0.378-0.607h2.964c0.159,0,0.308,0.09,0.378,0.229
				l6.247,12.64c0.557,1.134,2.168,1.134,2.725,0l6.227-12.63c0.07-0.139,0.219-0.229,0.378-0.229h0.368
				c0.219,0,0.358,0.229,0.259,0.418l-8.644,17.602C16.767,26.921,15.155,26.921,14.598,25.788L14.598,25.788z"/>
			<path class="st2" d="M14.598,25.788L9.764,7.997c-0.07-0.149-0.229-0.229-0.358-0.229H6.432c-0.328,0-0.517,0.328-0.388,0.607
				L14.598,25.788z"/>
			<path class="st2" d="M16.011,20.636L6.044,8.365c-0.119-0.288,0.06-0.577,0.338-0.607h3.014c0.169,0.01,0.298,0.119,0.358,0.229
				L16.011,20.636z"/>
		</g>
	</g>
</g>
</svg>
