<?xml version="1.0" encoding="utf-8"?>
<!-- Generator: Adobe Illustrator 25.2.3, SVG Export Plug-In . SVG Version: 6.00 Build 0)  -->
<svg version="1.1" id="Layer_1" xmlns="http://www.w3.org/2000/svg" xmlns:xlink="http://www.w3.org/1999/xlink" x="0px" y="0px"
	 viewBox="0 0 32 32" style="enable-background:new 0 0 32 32;" xml:space="preserve">
<style type="text/css">
	.st0{fill-rule:evenodd;clip-rule:evenodd;fill:#03ABA3;}
	.st1{fill:#FFFFFF;}
</style>
<g>
	<circle class="st0" cx="16" cy="16" r="16"/>
	<g>
		<path class="st1" d="M26.714,8.715c-0.149,0.248-0.113,0.536-0.167,0.804c-0.098,0.485-0.238,0.957-0.354,1.436
			c-0.1,0.41-0.235,0.801-0.399,1.185c-0.488,1.14-1.046,2.245-1.61,3.349c-0.375,0.734-0.782,1.445-1.243,2.161
			c-0.161-0.354-0.315-0.681-0.458-1.012c-0.158-0.367-0.35-0.716-0.548-1.061c-0.069-0.12-0.045-0.195,0.032-0.296
			c0.519-0.686,1.03-1.377,1.516-2.087c0.868-1.268,1.587-2.615,2.14-4.049c0.108-0.28,0.231-0.555,0.334-0.837
			c0.064-0.176,0.15-0.312,0.349-0.348c0.215-0.039,0.308,0.11,0.408,0.252C26.714,8.379,26.714,8.547,26.714,8.715z"/>
		<path class="st1" d="M5.21,8.127c0.111-0.088,0.201-0.21,0.372-0.194c0.2,0.019,0.306,0.128,0.379,0.309
			c0.395,0.985,0.775,1.976,1.271,2.918c0.661,1.254,1.465,2.412,2.311,3.545c0.154,0.206,0.306,0.414,0.452,0.626
			c0.04,0.059,0.074,0.122,0.022,0.21c-0.391,0.666-0.667,1.388-1.011,2.113c-0.307-0.489-0.639-0.938-0.876-1.442
			c-0.487-1.037-1.087-2.016-1.542-3.07C6.209,12.265,5.814,11.4,5.6,10.459C5.452,9.804,5.333,9.148,5.26,8.483
			C5.255,8.443,5.263,8.396,5.21,8.379C5.21,8.295,5.21,8.211,5.21,8.127z"/>
		<path class="st1" d="M11.54,17.228c0.039,0.045,0.067,0.075,0.092,0.108c1.021,1.29,2.126,2.507,3.211,3.741
			c0.332,0.378,0.653,0.766,0.971,1.155c0.115,0.141,0.201,0.082,0.287-0.016c0.228-0.256,0.452-0.515,0.677-0.774
			c1.179-1.357,2.404-2.674,3.512-4.091c0.101-0.129,0.146-0.113,0.231,0.014c0.433,0.646,0.805,1.325,1.134,2.029
			c0.062,0.132,0.063,0.237-0.028,0.364c-0.713,0.997-1.396,2.016-2.157,2.977c-0.54,0.682-1.058,1.379-1.599,2.06
			c-0.585,0.736-1.118,1.515-1.758,2.208c-0.114,0.123-0.167,0.131-0.281,0.003c-0.782-0.878-1.459-1.84-2.189-2.759
			c-0.756-0.953-1.509-1.909-2.211-2.903c-0.379-0.536-0.754-1.075-1.132-1.611c-0.06-0.086-0.083-0.162-0.035-0.267
			c0.335-0.74,0.724-1.45,1.183-2.12C11.474,17.306,11.505,17.272,11.54,17.228z"/>
		<path class="st1" d="M8.875,20.276c0.066-0.561,0.186-1.114,0.339-1.66c0.269-0.962,0.737-1.837,1.187-2.721
			c0.995-1.951,2.22-3.751,3.562-5.476c0.622-0.799,1.227-1.612,1.878-2.388c0.101-0.12,0.155-0.133,0.265-0.003
			c0.727,0.861,1.388,1.774,2.088,2.656c1.054,1.329,1.986,2.744,2.83,4.21c0.563,0.978,1.096,1.983,1.489,3.046
			c0.275,0.744,0.454,1.519,0.563,2.306c0.021,0.152-0.016,0.291-0.175,0.34c-0.168,0.051-0.26-0.063-0.317-0.203
			c-0.103-0.252-0.205-0.505-0.303-0.759c-0.548-1.414-1.383-2.658-2.307-3.845c-0.997-1.279-2.02-2.537-3.123-3.728
			c-0.256-0.277-0.493-0.571-0.735-0.86c-0.091-0.109-0.165-0.128-0.269-0.01c-0.427,0.484-0.869,0.954-1.289,1.444
			c-0.477,0.555-0.939,1.124-1.404,1.69c-0.43,0.524-0.873,1.04-1.278,1.583c-0.682,0.915-1.343,1.845-1.837,2.882
			c-0.246,0.517-0.452,1.051-0.658,1.584c-0.056,0.144-0.121,0.259-0.296,0.232C8.904,20.569,8.888,20.422,8.875,20.276z"/>
		<path class="st1" d="M19.965,16.669c-0.043,0.054-0.08,0.104-0.12,0.151c-0.549,0.635-1.098,1.27-1.647,1.905
			c-0.716,0.828-1.433,1.653-2.144,2.485c-0.099,0.116-0.145,0.139-0.259,0.007c-1.265-1.475-2.537-2.944-3.811-4.411
			c-0.091-0.105-0.095-0.165-0.002-0.272c1.281-1.472,2.558-2.948,3.832-4.427c0.087-0.101,0.126-0.106,0.216-0.002
			c1.274,1.479,2.552,2.953,3.829,4.429C19.895,16.575,19.927,16.62,19.965,16.669z M15.962,19.863
			c0.009-0.015,0.024-0.047,0.047-0.073c0.868-1.005,1.736-2.01,2.606-3.014c0.07-0.081,0.077-0.138-0.002-0.223
			c-0.246-0.267-0.484-0.542-0.721-0.817c-0.629-0.73-1.256-1.461-1.881-2.194c-0.067-0.078-0.104-0.082-0.175-0.002
			c-0.315,0.355-0.622,0.716-0.942,1.067c-0.48,0.526-0.925,1.084-1.385,1.628c-0.117,0.139-0.313,0.269-0.329,0.419
			c-0.018,0.167,0.203,0.294,0.323,0.434c0.76,0.886,1.525,1.768,2.29,2.65C15.833,19.783,15.859,19.847,15.962,19.863z"/>
	</g>
</g>
</svg>
