<?xml version="1.0" encoding="UTF-8"?><svg id="Layer_1" xmlns="http://www.w3.org/2000/svg" viewBox="0 0 32 32"><defs><style>.cls-1,.cls-2{stroke-width:0px;}.cls-2{fill:#fff;}</style></defs><circle class="cls-1" cx="16" cy="16" r="16"/><path class="cls-2" d="M6.067,9.427h1.299l.731,9.808,3.642-8.524c.328-.776,1.105-1.284,1.956-1.284h1.672l-5.912,14.017h-3.822l-.911-12.569c-.06-.791.552-1.448,1.344-1.448Z"/><path class="cls-2" d="M13.845,23.444h-3.224l5.299-12.465c.403-.94,1.329-1.553,2.359-1.553h9.002l-1.149,2.821h-6.24c-.776,0-1.493.463-1.791,1.179l-4.254,10.017Z"/><path class="cls-2" d="M21.085,17.249l-2.627,6.18h-3.239l3.642-8.613c.373-.866,1.224-1.418,2.15-1.418l4.568.015-1.09,2.568h-1.493c-.821.015-1.567.508-1.911,1.269Z"/></svg>