<svg id="Layer_1" data-name="Layer 1" xmlns="http://www.w3.org/2000/svg" xmlns:xlink="http://www.w3.org/1999/xlink" viewBox="0 0 31.48545 31.48545"><defs><style>.cls-1{fill:url(#linear-gradient);}.cls-2{fill:url(#linear-gradient-2);}.cls-3{fill:url(#linear-gradient-3);}.cls-4{fill:url(#linear-gradient-4);}.cls-5{fill:url(#linear-gradient-5);}.cls-6{fill:url(#linear-gradient-6);}.cls-7{fill:url(#linear-gradient-7);}.cls-8{fill:url(#linear-gradient-8);}.cls-9{fill:url(#linear-gradient-9);}.cls-10{fill:url(#linear-gradient-10);}.cls-11{fill:url(#linear-gradient-11);}.cls-12{fill:url(#linear-gradient-12);}.cls-13{fill:url(#linear-gradient-13);}.cls-14{fill:url(#linear-gradient-14);}.cls-15{fill:url(#linear-gradient-15);}.cls-16{fill:url(#linear-gradient-16);}.cls-17{fill:url(#linear-gradient-17);}.cls-18{fill:url(#linear-gradient-18);}.cls-19{fill:url(#linear-gradient-19);}.cls-20{fill:none;}.cls-21{fill:url(#linear-gradient-20);}.cls-22{fill:#201e1e;}.cls-23,.cls-43{fill:#fefefe;}.cls-24{mask:url(#mask);}.cls-25{mask:url(#mask-2);}.cls-26{mask:url(#mask-3);}.cls-27{mask:url(#mask-4);}.cls-28{mask:url(#mask-5);}.cls-29{mask:url(#mask-6);}.cls-30{mask:url(#mask-7);}.cls-31{mask:url(#mask-8);}.cls-32{mask:url(#mask-9);}.cls-33{mask:url(#mask-10);}.cls-34{mask:url(#mask-11);}.cls-35{mask:url(#mask-12);}.cls-36{mask:url(#mask-13);}.cls-37{mask:url(#mask-14);}.cls-38{mask:url(#mask-15);}.cls-39{mask:url(#mask-16);}.cls-40{mask:url(#mask-17);}.cls-41{mask:url(#mask-18);}.cls-42{mask:url(#mask-19);}.cls-43{fill-rule:evenodd;}</style><linearGradient id="linear-gradient" x1="33035.26184" y1="-18770.75728" x2="32614.41394" y2="-18525.85939" gradientTransform="matrix(0.02835, 0, 0, -0.02835, -916.2692, -507.21104)" gradientUnits="userSpaceOnUse"><stop offset="0" stop-color="#fff"/><stop offset="1" stop-color="#fff" stop-opacity="0"/></linearGradient><linearGradient id="linear-gradient-2" x1="32928.34557" y1="-18736.79392" x2="32707.11325" y2="-18373.40712" xlink:href="#linear-gradient"/><linearGradient id="linear-gradient-3" x1="32526.81616" y1="-18327.65664" x2="32427.1793" y2="-18489.29149" xlink:href="#linear-gradient"/><linearGradient id="linear-gradient-4" x1="32477.88284" y1="-18811.91768" x2="32512.20297" y2="-18500.8267" xlink:href="#linear-gradient"/><linearGradient id="linear-gradient-5" x1="32615.47461" y1="-18430.10249" x2="32646.3692" y2="-18853.4099" xlink:href="#linear-gradient"/><linearGradient id="linear-gradient-6" x1="32682.31836" y1="-18698.22074" x2="32680.10455" y2="-18838.82001" xlink:href="#linear-gradient"/><linearGradient id="linear-gradient-7" x1="32999.25215" y1="-18987.47797" x2="33147.60175" y2="-18793.73836" xlink:href="#linear-gradient"/><linearGradient id="linear-gradient-8" x1="33117.22039" y1="-19236.80062" x2="33202.46548" y2="-18483.98437" xlink:href="#linear-gradient"/><linearGradient id="linear-gradient-9" x1="33317.8017" y1="-18261.20806" x2="33250.97209" y2="-18647.23568" xlink:href="#linear-gradient"/><linearGradient id="linear-gradient-10" x1="33520.58141" y1="-18612.38049" x2="33031.25159" y2="-18739.69447" xlink:href="#linear-gradient"/><linearGradient id="linear-gradient-11" x1="32778.65902" y1="-17381.91627" x2="32973.39917" y2="-18871.03636" xlink:href="#linear-gradient"/><linearGradient id="linear-gradient-12" x1="33455.4912" y1="-18145.58326" x2="32873.75985" y2="-18575.7156" xlink:href="#linear-gradient"/><linearGradient id="linear-gradient-13" x1="33119.68723" y1="-18412.45742" x2="32923.21721" y2="-18429.54847" xlink:href="#linear-gradient"/><linearGradient id="linear-gradient-14" x1="33636.15879" y1="-17953.5452" x2="32656.65208" y2="-18078.24644" xlink:href="#linear-gradient"/><linearGradient id="linear-gradient-15" x1="32509.90859" y1="-18131.42529" x2="32890.67864" y2="-18060.94493" xlink:href="#linear-gradient"/><linearGradient id="linear-gradient-16" x1="32824.83484" y1="-17953.25561" x2="33041.61821" y2="-18099.78311" xlink:href="#linear-gradient"/><linearGradient id="linear-gradient-17" x1="33100.01236" y1="-18044.20871" x2="33205.18487" y2="-18183.70064" xlink:href="#linear-gradient"/><linearGradient id="linear-gradient-18" x1="32839.62909" y1="-18038.40983" x2="32717.35476" y2="-18136.97935" xlink:href="#linear-gradient"/><linearGradient id="linear-gradient-19" x1="32947.08354" y1="-19063.87784" x2="32391.32879" y2="-18391.87896" xlink:href="#linear-gradient"/><linearGradient id="linear-gradient-20" x1="32526.81616" y1="-18325.31566" x2="32427.1793" y2="-18486.95051" gradientTransform="matrix(0.02835, 0, 0, -0.02835, -916.52647, -507.67356)" xlink:href="#linear-gradient"/><mask id="mask" x="3.93768" y="8.35034" width="11.87735" height="20.44815" maskUnits="userSpaceOnUse"><g transform="translate(-0.25728 -0.46252)"><g id="id0"><rect class="cls-1" x="4.19495" y="8.81286" width="11.87735" height="20.44815"/></g></g></mask><mask id="mask-2" x="7.74358" y="8.35034" width="8.02015" height="13.37192" maskUnits="userSpaceOnUse"><g transform="translate(-0.25728 -0.46252)"><g id="id2"><rect class="cls-2" x="8.00085" y="8.81286" width="8.02015" height="13.37192"/></g></g></mask><mask id="mask-3" x="3.93768" y="8.35034" width="23.61007" height="20.44815" maskUnits="userSpaceOnUse"><g transform="translate(-0.25728 -0.46252)"><g id="id4"><rect class="cls-12" x="4.19495" y="8.81286" width="23.61007" height="20.44815"/></g></g></mask><mask id="mask-4" x="7.74358" y="8.35034" width="11.12024" height="13.37192" maskUnits="userSpaceOnUse"><g transform="translate(-0.25728 -0.46252)"><g id="id6"><rect class="cls-13" x="8.00085" y="8.81286" width="11.12024" height="13.37192"/></g></g></mask><mask id="mask-5" x="5.5949" y="1.76897" width="20.29574" height="4.34959" maskUnits="userSpaceOnUse"><g transform="translate(-0.25728 -0.46252)"><g id="id12"><rect class="cls-14" x="5.85217" y="2.23149" width="20.29574" height="4.34959"/></g></g></mask><mask id="mask-6" x="9.14948" y="3.31421" width="9.69268" height="2.62145" maskUnits="userSpaceOnUse"><g transform="translate(-0.25728 -0.46252)"><g id="id14"><rect class="cls-15" x="9.40676" y="3.77674" width="9.69268" height="2.62145"/></g></g></mask><mask id="mask-7" x="16.33327" y="2.80263" width="4.72407" height="3.29686" maskUnits="userSpaceOnUse"><g transform="translate(-0.25728 -0.46252)"><g id="id16"><rect class="cls-16" x="16.59055" y="3.26515" width="4.72407" height="3.29686"/></g></g></mask><mask id="mask-8" x="22.34663" y="5.10679" width="1.48402" height="0.9927" maskUnits="userSpaceOnUse"><g transform="translate(-0.25728 -0.46252)"><g id="id18"><rect class="cls-17" x="22.6039" y="5.56932" width="1.48402" height="0.9927"/></g></g></mask><mask id="mask-9" x="10.81505" y="4.86605" width="2.54461" height="1.23344" maskUnits="userSpaceOnUse"><g transform="translate(-0.25728 -0.46252)"><g id="id20"><rect class="cls-18" x="11.07233" y="5.32857" width="2.54461" height="1.23344"/></g></g></mask><mask id="mask-10" x="1.65239" y="11.35393" width="11.3379" height="18.34347" maskUnits="userSpaceOnUse"><g transform="translate(-0.25728 -0.46252)"><g id="id22"><rect class="cls-19" x="1.90967" y="11.81645" width="11.3379" height="18.34347"/></g></g></mask><mask id="mask-11" x="2.84237" y="13.18206" width="1.10738" height="4.13815" maskUnits="userSpaceOnUse"><g transform="translate(-0.25728 -0.46252)"><g id="id24"><rect class="cls-3" x="3.09965" y="13.64459" width="1.10738" height="4.13815"/></g></g></mask><mask id="mask-12" x="3.54871" y="15.51687" width="2.46804" height="7.84339" maskUnits="userSpaceOnUse"><g transform="translate(-0.25728 -0.46252)"><g id="id26"><rect class="cls-4" x="3.80599" y="15.9794" width="2.46804" height="7.84339"/></g></g></mask><mask id="mask-13" x="5.55225" y="20.05683" width="6.26145" height="7.95251" maskUnits="userSpaceOnUse"><g transform="translate(-0.25728 -0.46252)"><g id="id28"><rect class="cls-5" x="5.80952" y="20.51935" width="6.26145" height="7.95251"/></g></g></mask><mask id="mask-14" x="9.11768" y="24.12706" width="1.48659" height="1.47939" maskUnits="userSpaceOnUse"><g transform="translate(-0.25728 -0.46252)"><g id="id30"><rect class="cls-6" x="9.37495" y="24.58959" width="1.48659" height="1.47939"/></g></g></mask><mask id="mask-15" x="19.77658" y="24.30304" width="5.11165" height="3.49541" maskUnits="userSpaceOnUse"><g transform="translate(-0.25728 -0.46252)"><g id="id32"><rect class="cls-7" x="20.03385" y="24.76557" width="5.11165" height="3.49541"/></g></g></mask><mask id="mask-16" x="18.49544" y="11.35404" width="11.3376" height="18.34335" maskUnits="userSpaceOnUse"><g transform="translate(-0.25728 -0.46252)"><g id="id34"><rect class="cls-8" x="18.75272" y="11.81657" width="11.3376" height="18.34335"/></g></g></mask><mask id="mask-17" x="25.02215" y="13.121" width="3.35721" height="7.7095" maskUnits="userSpaceOnUse"><g transform="translate(-0.25728 -0.46252)"><g id="id36"><rect class="cls-9" x="25.27943" y="13.58352" width="3.35721" height="7.7095"/></g></g></mask><mask id="mask-18" x="20.86481" y="18.73643" width="7.56276" height="7.06066" maskUnits="userSpaceOnUse"><g transform="translate(-0.25728 -0.46252)"><g id="id38"><rect class="cls-10" x="21.12208" y="19.19896" width="7.56276" height="7.06066"/></g></g></mask><mask id="mask-19" x="0.58664" y="0.59881" width="30.37418" height="16.94198" maskUnits="userSpaceOnUse"><g transform="translate(-0.25728 -0.46252)"><g id="id40"><rect class="cls-11" x="0.84392" y="1.06133" width="30.37418" height="16.94198"/></g></g></mask></defs><path class="cls-20" transform="translate(-0.25728 -0.46252)"/><rect class="cls-21" x="2.84237" y="13.1157" width="1.10738" height="4.13815"/><circle class="cls-22" cx="15.74272" cy="15.74272" r="15.74272"/><path class="cls-23" d="M17.333,4.3285a.321.321,0,1,1,.32131-.32129A.32148.32148,0,0,1,17.333,4.3285Zm3.788.45266A12.57918,12.57918,0,0,0,18.058,3.87282a.73726.73726,0,1,0-.0433.41732,12.1586,12.1586,0,0,1,2.74762.7904l-.5275,1.21457-.10746.26283h.85218c-.11027-.05583-.221-.11116-.33352-.16341l.66456-1.52961L21.121,4.78116Z" transform="translate(-0.25728 -0.46252)"/><path class="cls-23" d="M13.16466,6.20823a.32065.32065,0,1,1,.01166-.24574.31958.31958,0,0,1-.01166.24574Zm.02369-.80457a.73247.73247,0,0,0-.31372-.071.742.742,0,0,0-.2506.04411.72934.72934,0,0,0-.4853.71118,11.07428,11.07428,0,0,0-1.06233.47H12.089c.05916-.02371.11752-.04923.17708-.07192a.7879.7879,0,0,0,.05575.07192H13.4287a.73771.73771,0,0,0-.24035-1.15429Z" transform="translate(-0.25728 -0.46252)"/><path class="cls-23" d="M19.04293,6.07826a.54956.54956,0,1,0-.9945-.468.212.212,0,0,0-.00986.02822,10.4579,10.4579,0,0,0-2.80554-.146l-.26344-1.71164-.2014.02211a12.59691,12.59691,0,0,0-4.45127,1.30917.54363.54363,0,0,0-.12243-.08165.54963.54963,0,1,0,.26355.73116.54151.54151,0,0,0,.04007-.33937,12.261,12.261,0,0,1,4.16845-1.2473l.26073,1.69132.222-.006a10.10283,10.10283,0,0,1,2.87142.14015.54767.54767,0,0,0,1.02224.0779Z" transform="translate(-0.25728 -0.46252)"/><path class="cls-23" d="M5.32671,22.83334a.31684.31684,0,0,1,.2042-.074l.03063.00138a.32189.32189,0,1,1-.23482.07263ZM3.81006,19.59491l.05632.19967a12.58373,12.58373,0,0,0,1.153,2.75893.73672.73672,0,0,0,.98287,1.09614v-.00019a.73841.73841,0,0,0-.40113-1.30394.74679.74679,0,0,0-.21282.01418,12.13936,12.13936,0,0,1-1.06272-2.47954l1.27191-.3678.32471-.10145-.05492-.19513a10.488,10.488,0,0,1-.38739-2.50707l-.41871-.72524a10.9118,10.9118,0,0,0,.351,3.14864l-1.60212.4628Z" transform="translate(-0.25728 -0.46252)"/><path class="cls-23" d="M4.00378,17.65251a.54762.54762,0,0,0-.21673-.955,12.30847,12.30847,0,0,1,.19774-2.57838l-.27165-.47043A12.64277,12.64277,0,0,0,3.429,16.72953a.54289.54289,0,0,0-.12586.07591.54964.54964,0,1,0,.70063.84707Z" transform="translate(-0.25728 -0.46252)"/><path class="cls-23" d="M10.03763,25.01538a.32053.32053,0,0,1,.24354.03476c.009.00532.01688.01235.02531.01848l-.27429-.475a.73807.73807,0,0,0,.0854,1.47125.7219.7219,0,0,0,.48117-.18218c.08537.04865.17223.094.25871.14032l-.42151-.73017a.319.319,0,0,1-.23864.34511.3322.3322,0,0,1-.07994.00995.32131.32131,0,0,1-.07975-.63256Z" transform="translate(-0.25728 -0.46252)"/><path class="cls-23" d="M7.16188,25.31337a12.60107,12.60107,0,0,0,3.84624,2.59494.55982.55982,0,0,0,.01467.14653.54944.54944,0,0,0,1.04412.063l-.42924-.74354a.54507.54507,0,0,0-.50619.19657,12.24117,12.24117,0,0,1-3.618-2.41646L8.64983,23.876l-.145-.168A10.10158,10.10158,0,0,1,6.788,21.41983a.54916.54916,0,1,0-.3053.18861,10.39639,10.39639,0,0,0,1.685,2.26944L7.01706,25.17227l.14482.1411Z" transform="translate(-0.25728 -0.46252)"/><path class="cls-23" d="M27.62659,19.88106a.31941.31941,0,0,1,.37583-.25511h.00021a.32137.32137,0,0,1-.06005.63707.31054.31054,0,0,1-.0604-.00585.32185.32185,0,0,1-.25559-.37611Zm-1.19366,3.63866a12.57521,12.57521,0,0,0,1.46824-2.84382c.01439.0009.02866.004.043.004a.75943.75943,0,1,0-.44-.14736,12.16506,12.16506,0,0,1-1.298,2.5788l-1.094-.74585-.285-.18509-.11537.16681a10.52192,10.52192,0,0,1-2.59112,2.61733.74086.74086,0,0,0-.27769-.15416l-.223.38616.01406-.00108a.311.311,0,0,1,.06056.00592h.0006a.32135.32135,0,1,1-.32621.49615.29486.29486,0,0,1-.01848-.03426l-.22437.38848a.73511.73511,0,0,0,1.21676-.73358,10.92889,10.92889,0,0,0,2.59422-2.5674l1.37787.93937.11793-.17043Z" transform="translate(-0.25728 -0.46252)"/><path class="cls-23" d="M20.364,28.18571a12.60777,12.60777,0,0,0,3.98586-2.37517.53107.53107,0,0,0,.13869.04851.54959.54959,0,0,0,.20652-1.07961.55912.55912,0,0,0-.104-.0098.54968.54968,0,0,0-.53922.4469.54163.54163,0,0,0,.04529.33857A12.2468,12.2468,0,0,1,20.37,27.79985l-.10756-.25169-.22448.3886.137.32015.18912-.0712Z" transform="translate(-0.25728 -0.46252)"/><path class="cls-23" d="M23.58659,6.51918a.35027.35027,0,0,1-.03875.03877h.49072a.73649.73649,0,1,0-1.42117-.13037.736.736,0,0,0,.03314.13036h.49114a.31744.31744,0,0,1-.055-.43457V6.12309a.32026.32026,0,0,1,.53721.34749l-.03726.0486Z" transform="translate(-0.25728 -0.46252)"/><path class="cls-23" d="M25.38842,20.41626a.54984.54984,0,1,0,.7879-.10386,10.4387,10.4387,0,0,0,.66147-2.7096l1.73039.06134.01649-.20156a12.58719,12.58719,0,0,0-.26235-3.875l-.26857.46512a12.217,12.217,0,0,1,.18429,3.24053l-1.7098-.06094-.03625.21914a10.13024,10.13024,0,0,1-.654,2.73946.54643.54643,0,0,0-.44952.22536Z" transform="translate(-0.25728 -0.46252)"/><path class="cls-23" d="M16,2.6716A13.62321,13.62321,0,0,1,25.53634,6.558h.58845a14.06225,14.06225,0,0,0-20.24948,0h.58844A13.6229,13.6229,0,0,1,16,2.6716Z" transform="translate(-0.25728 -0.46252)"/><path class="cls-23" d="M2.33085,16.34114a13.62243,13.62243,0,0,1,.60774-4.03409l-.281-.48653A14.09064,14.09064,0,0,0,13.24349,30.15585l-.28071-.48621A13.69276,13.69276,0,0,1,2.33085,16.34114Z" transform="translate(-0.25728 -0.46252)"/><path class="cls-23" d="M29.34243,11.82064l-.28081.4863A13.67369,13.67369,0,0,1,19.03749,29.66953l-.28071.48632A14.09082,14.09082,0,0,0,29.34242,11.82064Z" transform="translate(-0.25728 -0.46252)"/><polygon class="cls-23" points="8.867 10.226 15.743 21.718 18.86 16.401 17.54 14.191 15.743 17.325 10.681 8.557 10.563 8.354 7.748 8.354 8.641 9.848 8.867 10.226"/><path class="cls-23" d="M27.801,8.81693H24.76121l-.06581.1158q-4.3144,7.5801-8.62716,15.16117-4.46709-7.63844-8.93409-15.277H4.199Q10.09874,19.03742,16,29.25694q5.90352-10.21822,11.801-20.44Z" transform="translate(-0.25728 -0.46252)"/><g class="cls-24"><path class="cls-22" d="M16.06823,24.0939c-2.945-5.03574-5.98957-10.24093-8.93409-15.277H4.199c3.92283,6.7958,7.8773,13.64468,11.80093,20.44l.06828-5.16305Z" transform="translate(-0.25728 -0.46252)"/></g><g class="cls-25"><polygon class="cls-22" points="8.867 10.226 15.743 21.718 15.76 21.689 15.76 17.296 15.743 17.325 10.681 8.557 10.563 8.354 7.748 8.354 8.641 9.848 8.867 10.226"/></g><g class="cls-26"><path class="cls-22" d="M27.801,8.81693H24.76121l-.06581.1158q-4.3144,7.5801-8.62716,15.16117-4.46709-7.63844-8.93409-15.277H4.199Q10.09874,19.03742,16,29.25694q5.90352-10.21822,11.801-20.44Z" transform="translate(-0.25728 -0.46252)"/></g><g class="cls-27"><polygon class="cls-22" points="8.867 10.226 15.743 21.718 18.86 16.401 17.54 14.191 15.743 17.325 10.681 8.557 10.563 8.354 7.748 8.354 8.641 9.848 8.867 10.226"/></g><g class="cls-28"><path class="cls-22" d="M16,2.6716A13.62321,13.62321,0,0,1,25.53634,6.558h.58845a14.06225,14.06225,0,0,0-20.24948,0h.58844A13.6229,13.6229,0,0,1,16,2.6716Z" transform="translate(-0.25728 -0.46252)"/></g><g class="cls-29"><path class="cls-22" d="M19.04293,6.07826a.54956.54956,0,1,0-.9945-.468.212.212,0,0,0-.00986.02822,10.4579,10.4579,0,0,0-2.80554-.146l-.26344-1.71164-.2014.02211a12.59691,12.59691,0,0,0-4.45127,1.30917.54363.54363,0,0,0-.12243-.08165.54963.54963,0,1,0,.26355.73116.54151.54151,0,0,0,.04007-.33937,12.261,12.261,0,0,1,4.16845-1.2473l.26073,1.69132.222-.006a10.10283,10.10283,0,0,1,2.87142.14015.54767.54767,0,0,0,1.02224.0779Z" transform="translate(-0.25728 -0.46252)"/></g><g class="cls-30"><path class="cls-22" d="M17.333,4.3285a.321.321,0,1,1,.32131-.32129A.32148.32148,0,0,1,17.333,4.3285Zm3.788.45266A12.57918,12.57918,0,0,0,18.058,3.87282a.73726.73726,0,1,0-.0433.41732,12.1586,12.1586,0,0,1,2.74762.7904l-.5275,1.21457-.10746.26283h.85218c-.11027-.05583-.221-.11116-.33352-.16341l.66456-1.52961L21.121,4.78116Z" transform="translate(-0.25728 -0.46252)"/></g><g class="cls-31"><path class="cls-22" d="M23.58659,6.51918a.35027.35027,0,0,1-.03875.03877h.49072a.73649.73649,0,1,0-1.42117-.13037.736.736,0,0,0,.03314.13036h.49114a.31744.31744,0,0,1-.055-.43457V6.12309a.32026.32026,0,0,1,.53721.34749l-.03726.0486Z" transform="translate(-0.25728 -0.46252)"/></g><g class="cls-32"><path class="cls-22" d="M13.16466,6.20823a.32065.32065,0,1,1,.01166-.24574.31958.31958,0,0,1-.01166.24574Zm.02369-.80457a.73247.73247,0,0,0-.31372-.071.742.742,0,0,0-.2506.04411.72934.72934,0,0,0-.4853.71118,11.07428,11.07428,0,0,0-1.06233.47H12.089c.05916-.02371.11752-.04923.17708-.07192a.7879.7879,0,0,0,.05575.07192H13.4287a.73771.73771,0,0,0-.24035-1.15429Z" transform="translate(-0.25728 -0.46252)"/></g><g class="cls-33"><path class="cls-22" d="M2.33085,16.34114a13.62243,13.62243,0,0,1,.60774-4.03409l-.281-.48653A14.09064,14.09064,0,0,0,13.24349,30.15585l-.28071-.48621A13.69276,13.69276,0,0,1,2.33085,16.34114Z" transform="translate(-0.25728 -0.46252)"/></g><g class="cls-34"><path class="cls-22" d="M4.00378,17.65251a.54762.54762,0,0,0-.21673-.955,12.30847,12.30847,0,0,1,.19774-2.57838l-.27165-.47043A12.64277,12.64277,0,0,0,3.429,16.72953a.54289.54289,0,0,0-.12586.07591.54964.54964,0,1,0,.70063.84707Z" transform="translate(-0.25728 -0.46252)"/></g><g class="cls-35"><path class="cls-22" d="M5.32671,22.83334a.31684.31684,0,0,1,.2042-.074l.03063.00138a.32189.32189,0,1,1-.23482.07263ZM3.81006,19.59491l.05632.19967a12.58373,12.58373,0,0,0,1.153,2.75893.73672.73672,0,0,0,.98287,1.09614v-.00019a.73841.73841,0,0,0-.40113-1.30394.74679.74679,0,0,0-.21282.01418,12.13936,12.13936,0,0,1-1.06272-2.47954l1.27191-.3678.32471-.10145-.05492-.19513a10.488,10.488,0,0,1-.38739-2.50707l-.41871-.72524a10.9118,10.9118,0,0,0,.351,3.14864l-1.60212.4628Z" transform="translate(-0.25728 -0.46252)"/></g><g class="cls-36"><path class="cls-22" d="M7.16188,25.31337a12.60107,12.60107,0,0,0,3.84624,2.59494.55982.55982,0,0,0,.01467.14653.54944.54944,0,0,0,1.04412.063l-.42924-.74354a.54507.54507,0,0,0-.50619.19657,12.24117,12.24117,0,0,1-3.618-2.41646L8.64983,23.876l-.145-.168A10.10158,10.10158,0,0,1,6.788,21.41983a.54916.54916,0,1,0-.3053.18861,10.39639,10.39639,0,0,0,1.685,2.26944L7.01706,25.17227l.14482.1411Z" transform="translate(-0.25728 -0.46252)"/></g><g class="cls-37"><path class="cls-22" d="M10.03763,25.01538a.32053.32053,0,0,1,.24354.03476c.009.00532.01688.01235.02531.01848l-.27429-.475a.73807.73807,0,0,0,.0854,1.47125.7219.7219,0,0,0,.48117-.18218c.08537.04865.17223.094.25871.14032l-.42151-.73017a.319.319,0,0,1-.23864.34511.3322.3322,0,0,1-.07994.00995.32131.32131,0,0,1-.07975-.63256Z" transform="translate(-0.25728 -0.46252)"/></g><g class="cls-38"><path class="cls-22" d="M20.364,28.18571a12.60777,12.60777,0,0,0,3.98586-2.37517.53107.53107,0,0,0,.13869.04851.54959.54959,0,0,0,.20652-1.07961.55912.55912,0,0,0-.104-.0098.54968.54968,0,0,0-.53922.4469.54163.54163,0,0,0,.04529.33857A12.2468,12.2468,0,0,1,20.37,27.79985l-.10756-.25169-.22448.3886.137.32015.18912-.0712Z" transform="translate(-0.25728 -0.46252)"/></g><g class="cls-39"><path class="cls-22" d="M29.34243,11.82064l-.28081.4863A13.67369,13.67369,0,0,1,19.03749,29.66953l-.28071.48632A14.09082,14.09082,0,0,0,29.34242,11.82064Z" transform="translate(-0.25728 -0.46252)"/></g><g class="cls-40"><path class="cls-22" d="M25.38842,20.41626a.54984.54984,0,1,0,.7879-.10386,10.4387,10.4387,0,0,0,.66147-2.7096l1.73039.06134.01649-.20156a12.58719,12.58719,0,0,0-.26235-3.875l-.26857.46512a12.217,12.217,0,0,1,.18429,3.24053l-1.7098-.06094-.03625.21914a10.13024,10.13024,0,0,1-.654,2.73946.54643.54643,0,0,0-.44952.22536Z" transform="translate(-0.25728 -0.46252)"/></g><g class="cls-41"><path class="cls-22" d="M27.62659,19.88106a.31941.31941,0,0,1,.37583-.25511h.00021a.32137.32137,0,0,1-.06005.63707.31054.31054,0,0,1-.0604-.00585.32185.32185,0,0,1-.25559-.37611Zm-1.19366,3.63866a12.57521,12.57521,0,0,0,1.46824-2.84382c.01439.0009.02866.004.043.004a.75943.75943,0,1,0-.44-.14736,12.16506,12.16506,0,0,1-1.298,2.5788l-1.094-.74585-.285-.18509-.11537.16681a10.52192,10.52192,0,0,1-2.59112,2.61733.74086.74086,0,0,0-.27769-.15416l-.223.38616.01406-.00108a.311.311,0,0,1,.06056.00592h.0006a.32135.32135,0,1,1-.32621.49615.29486.29486,0,0,1-.01848-.03426l-.22437.38848a.73511.73511,0,0,0,1.21676-.73358,10.92889,10.92889,0,0,0,2.59422-2.5674l1.37787.93937.11793-.17043Z" transform="translate(-0.25728 -0.46252)"/></g><g class="cls-42"><path class="cls-43" d="M16.03694,1.19655A15.07507,15.07507,0,0,1,31.08288,16.24249C17.07051,2.288.48306,23.698.99052,16.24249A15.07538,15.07538,0,0,1,16.03694,1.19656Z" transform="translate(-0.25728 -0.46252)"/></g></svg>