<?xml version="1.0" encoding="utf-8"?>
<!-- Generator: Adobe Illustrator 25.3.1, SVG Export Plug-In . SVG Version: 6.00 Build 0)  -->
<svg version="1.1" id="Layer_1" xmlns="http://www.w3.org/2000/svg" xmlns:xlink="http://www.w3.org/1999/xlink" x="0px" y="0px"
	 viewBox="0 0 32 32" style="enable-background:new 0 0 32 32;" xml:space="preserve">
<style type="text/css">
	.st0{fill:#035CA5;}
	.st1{fill:#FFFFFF;}
</style>
<g>
	<path class="st0" d="M16.042,0.214C7.341,0.191,0.219,7.288,0.214,15.989c-0.006,8.687,7.079,15.786,15.764,15.797
		c8.685,0.012,15.792-7.071,15.807-15.754C31.8,7.344,24.727,0.237,16.042,0.214z"/>
	<g>
		<path class="st1" d="M15.873,24.946c-0.995-1.706-1.994-3.41-2.984-5.12c-2.132-3.68-4.258-7.363-6.39-11.043
			C6.463,8.722,6.377,8.67,6.441,8.6c0.076-0.082,0.167-0.038,0.233,0.031c0.164,0.175,0.317,0.36,0.483,0.533
			c2.13,2.223,4.691,3.586,7.779,3.891c0.232,0.023,0.288,0.103,0.303,0.328c0.231,3.646,0.474,7.292,0.713,10.938
			c-0.123,0.135-0.111,0.266,0.006,0.445c0.122-0.162,0.075-0.309,0.089-0.443c0.102-1.434,0.21-2.868,0.306-4.302
			c0.148-2.212,0.293-4.424,0.429-6.637c0.014-0.225,0.083-0.305,0.312-0.328c3.106-0.308,5.674-1.689,7.813-3.927
			C25.028,9,25.152,8.703,25.333,8.83c0.205,0.144-0.058,0.343-0.143,0.49c-2.944,5.116-5.895,10.227-8.847,15.338
			c-0.059,0.102-0.133,0.196-0.2,0.293C16.053,24.949,15.963,24.948,15.873,24.946z"/>
		<path class="st1" d="M16.047,24.322c-0.014,0.134,0.033,0.282-0.089,0.443c-0.117-0.178-0.129-0.31-0.006-0.445
			C15.983,24.321,16.015,24.321,16.047,24.322z"/>
		<path class="st1" d="M25.553,8.488c0.081,0.172-0.018,0.263-0.127,0.341c-0.018,0.013-0.105-0.024-0.107-0.043
			C25.3,8.615,25.396,8.53,25.553,8.488z"/>
		<path class="st1" d="M15.873,24.946c0.09,0.002,0.179,0.003,0.269,0.005c-0.001,0.101-0.056,0.177-0.149,0.181
			C15.877,25.137,15.868,25.038,15.873,24.946z"/>
	</g>
</g>
</svg>
