<?xml version="1.0" encoding="utf-8"?>
<!-- Generator: Adobe Illustrator 26.2.1, SVG Export Plug-In . SVG Version: 6.00 Build 0)  -->
<svg version="1.1" id="Layer_1" xmlns="http://www.w3.org/2000/svg" xmlns:xlink="http://www.w3.org/1999/xlink" x="0px" y="0px"
	 viewBox="0 0 32 32" style="enable-background:new 0 0 32 32;" xml:space="preserve">
<style type="text/css">
	.st0{fill:#1E1D1D;}
	.st1{fill:#FEFEFE;}
	.st2{fill:#CDFC01;}
	.st3{fill:#4C4C4C;}
	.st4{fill:#6F6F6F;}
	.st5{fill:#333333;}
</style>
<g>
	<circle cx="16.046" cy="16.046" r="15.731"/>
	<g>
		<path class="st0" d="M17.369,7c0.375-0.38,0.751-0.759,1.124-1.142c0.304-0.311,0.603-0.627,0.904-0.94
			c0.286-0.243,0.507-0.551,0.787-0.8c0.031-0.027,0.05-0.072,0.126-0.079c-0.115,0.371-0.227,0.73-0.339,1.09
			C19.727,5.92,19.45,6.701,19.22,7.497c-0.341,1.059-0.683,2.118-1.026,3.185c0.082-0.006,0.12-0.056,0.169-0.089
			c0.089-0.061,0.175-0.128,0.268-0.181c0.271-0.151,0.548-0.291,0.801-0.473c0.178-0.128,0.377-0.23,0.545-0.37
			c0.377-0.314,0.768-0.612,1.113-0.962c0.066-0.067,0.101-0.035,0.121,0.024c0.068,0.199,0.141,0.398,0.189,0.603
			c0.084,0.352,0.156,0.707,0.224,1.062c0.084,0.437,0.052,0.869-0.091,1.29c-0.107,0.316-0.267,0.61-0.414,0.909
			c-0.083,0.169-0.188,0.327-0.283,0.49c-0.138,0.236-0.274,0.48-0.338,0.741c-0.075,0.31-0.056,0.636-0.007,0.956
			c0.017,0.109,0.059,0.155,0.171,0.175c0.702,0.126,1.402,0.26,2.103,0.392c0.17,0.032,0.338,0.069,0.525,0.108
			c-0.152,0.176-0.291,0.326-0.434,0.468c-0.511,0.506-0.99,1.044-1.499,1.552c-0.039,0.039-0.085,0.073-0.098,0.134
			c-0.085,0.402-0.337,0.716-0.557,1.046c-0.063,0.094-0.124,0.187-0.164,0.294c-0.057,0.15-0.099,0.309-0.184,0.442
			c-0.154,0.243-0.303,0.5-0.494,0.708c-0.251,0.274-0.446,0.577-0.635,0.89c-0.152,0.252-0.354,0.462-0.617,0.586
			c-0.135,0.064-0.191,0.145-0.242,0.274c-0.162,0.407-0.436,0.732-0.813,0.957c-0.428,0.256-0.882,0.445-1.393,0.45
			c-0.039,0-0.074-0.004-0.107,0.029c-0.279,0.276-0.557,0.554-0.844,0.823c-0.449,0.42-0.885,0.853-1.326,1.28
			c-0.06,0.056-0.121,0.11-0.179,0.167c-0.328,0.319-0.672,0.623-0.978,0.962c-0.278,0.308-0.604,0.56-0.896,0.85
			c-0.155,0.147-0.31,0.293-0.465,0.44c-0.007-0.004-0.014-0.009-0.021-0.013c0.056-0.17,0.112-0.34,0.167-0.51
			c0.096-0.384,0.24-0.753,0.353-1.132c0.106-0.353,0.221-0.703,0.334-1.054c0.014-0.042,0.022-0.083,0.02-0.126
			c0.142-0.324,0.23-0.666,0.333-1.003c0.166-0.55,0.365-1.09,0.525-1.642c0.077-0.264,0.173-0.522,0.257-0.784
			c0.012-0.036,0.05-0.079-0.001-0.117c-0.149-0.11-0.228-0.267-0.32-0.425c-0.118-0.203-0.232-0.412-0.363-0.609
			c-0.146-0.221-0.3-0.434-0.481-0.623c-0.09-0.094-0.148-0.196-0.203-0.309c-0.11-0.223-0.153-0.479-0.32-0.675
			c-0.167-0.196-0.289-0.422-0.423-0.639c-0.138-0.223-0.248-0.461-0.219-0.734c0.011-0.103-0.035-0.124-0.117-0.14
			c-0.406-0.079-0.817-0.124-1.222-0.203c-0.47-0.092-0.944-0.162-1.416-0.24c-0.03-0.005-0.067-0.005-0.078-0.036
			c-0.012-0.032,0.02-0.054,0.04-0.076c0.134-0.145,0.269-0.29,0.402-0.436c0.426-0.469,0.852-0.939,1.278-1.408
			c0.475-0.523,0.947-1.048,1.427-1.567c0.078-0.084,0.068-0.146,0.033-0.241c-0.123-0.338-0.348-0.62-0.507-0.939
			c-0.239-0.479-0.356-0.981-0.282-1.506c0.077-0.544,0.193-1.082,0.361-1.608c0.051-0.159,0.09-0.322,0.17-0.495
			c0.024,0.033,0.041,0.058,0.06,0.081c0.188,0.23,0.353,0.48,0.593,0.665c0.287,0.221,0.539,0.484,0.841,0.69
			c0.387,0.264,0.785,0.498,1.217,0.679c0.083,0.035,0.122,0.013,0.175-0.042c0.48-0.495,0.97-0.98,1.442-1.482
			c0.355-0.378,0.724-0.743,1.081-1.119C16.783,7.589,17.076,7.294,17.369,7z M17.003,20.917l0.003,0.002
			c0.001-0.019-0.01-0.028-0.028-0.028l0.002,0.001c-0.208-0.207-0.475-0.278-0.753-0.298c-0.36-0.025-0.709,0.02-0.996,0.273
			c-0.071,0.02-0.076,0.088-0.101,0.141c-0.026,0.013-0.056,0.023-0.049,0.062c-0.003,0.149,0.127,0.133,0.211,0.158
			c0.418,0.125,0.846,0.081,1.271,0.049c0.144-0.011,0.29-0.03,0.426-0.095c0.138-0.065,0.15-0.098,0.05-0.237
			C17.027,20.936,17.015,20.927,17.003,20.917z M19.213,19.852c-0.024-0.005-0.039,0.008-0.053,0.024
			c-0.013,0.016-0.026,0.032-0.04,0.048c-0.026-0.079-0.102-0.109-0.161-0.096c-0.068,0.014-0.016,0.092-0.024,0.141
			c-0.013,0.079-0.014,0.16-0.02,0.24c-0.03,0.004-0.059,0.01-0.089,0.011c-0.215,0.004-0.216,0.003-0.183,0.22
			c0.01,0.067,0.005,0.168,0.061,0.188c0.075,0.026,0.088-0.087,0.14-0.128c0.014,0.014,0.028,0.029,0.042,0.043
			c-0.068,0.106-0.125,0.22-0.205,0.315c-0.114,0.134-0.208,0.27-0.182,0.46c0.044,0.009,0.083-0.012,0.123-0.038
			c0.164-0.109,0.303-0.244,0.411-0.407c0.319-0.481,0.608-0.981,1.002-1.412c0.23-0.252,0.33-0.574,0.266-0.928
			c-0.005-0.027-0.02-0.067,0.026-0.096c0.033,0.074,0.065,0.145,0.1,0.224c0.026-0.021,0.045-0.032,0.058-0.048
			c0.206-0.257,0.401-0.524,0.536-0.826c0.15-0.338,0.128-0.67-0.064-0.994c-0.12-0.203-0.271-0.406-0.255-0.655
			c0.018-0.272-0.124-0.488-0.211-0.722c-0.069-0.185-0.119-0.368-0.133-0.564c-0.015-0.218,0.002-0.443-0.119-0.642
			c-0.014-0.023-0.018-0.062,0.017-0.056c0.092,0.017,0.06-0.049,0.063-0.086c0.012-0.168,0.02-0.335,0.089-0.493
			c0.222-0.507,0.512-0.979,0.761-1.472c0.158-0.313,0.318-0.626,0.349-0.981c0.027-0.31,0.002-0.619-0.031-0.93
			c-0.05-0.458-0.171-0.895-0.313-1.33c-0.023-0.071-0.052-0.071-0.098-0.03c-0.116,0.103-0.23,0.209-0.347,0.313
			c-0.535,0.474-1.09,0.92-1.724,1.259c-0.171,0.091-0.365,0.143-0.512,0.272c-0.255,0.225-0.487,0.471-0.663,0.766
			c-0.049,0.083-0.085,0.152-0.016,0.235c-0.002,0.012-0.003,0.025-0.005,0.037c-0.107-0.046-0.213-0.093-0.32-0.139
			c-0.675-0.286-1.369-0.334-2.081-0.164c-0.297,0.071-0.581,0.174-0.865,0.284c-0.014-0.013-0.027-0.027-0.041-0.04
			c-0.024-0.154-0.122-0.271-0.21-0.389c-0.211-0.286-0.436-0.571-0.767-0.719c-0.606-0.272-1.127-0.668-1.644-1.073
			c-0.256-0.201-0.471-0.441-0.683-0.685c-0.084-0.097-0.117-0.09-0.152,0.034c-0.06,0.213-0.119,0.427-0.157,0.644
			c-0.062,0.354-0.136,0.707-0.159,1.069c-0.015,0.238-0.022,0.474,0.023,0.707c0.101,0.532,0.367,0.998,0.628,1.46
			c0.195,0.345,0.308,0.701,0.292,1.097c-0.004,0.108,0.004,0.216,0.003,0.325c-0.001,0.131,0.062,0.266-0.029,0.391
			c-0.011,0.015-0.016,0.049,0.023,0.079c0.105-0.157,0.21-0.313,0.319-0.476c0.032,0.058,0.013,0.095-0.001,0.131
			c-0.068,0.163-0.138,0.324-0.245,0.468c-0.045,0.06-0.097,0.119-0.094,0.207c0.01,0.334-0.04,0.665-0.061,0.996
			c-0.022,0.358-0.154,0.656-0.325,0.955c-0.132,0.231-0.156,0.486-0.082,0.741c0.112,0.387,0.363,0.695,0.605,1.005
			c0.013,0.016,0.029,0.032,0.053,0.026c0.049-0.062,0.044-0.152,0.124-0.225c0,0.052,0.004,0.081-0.001,0.109
			c-0.065,0.45,0.109,0.816,0.4,1.142c0.1,0.113,0.205,0.221,0.289,0.348c0.197,0.298,0.337,0.629,0.547,0.919
			c0.105,0.145,0.22,0.278,0.381,0.363c0.026,0.014,0.076,0.048,0.072-0.017c-0.006-0.109-0.003-0.222-0.085-0.315
			c-0.202-0.233-0.349-0.501-0.484-0.775c0.032-0.001,0.063-0.002,0.095-0.003c0.019,0.108,0.091,0.191,0.136,0.286
			c0.018,0.039,0.046,0.09,0.087,0.086c0.057-0.005,0.049-0.072,0.06-0.114c0.08-0.307,0.079-0.307-0.23-0.311
			c-0.002-0.022-0.004-0.044-0.007-0.066c-0.028-0.048-0.033-0.091,0.04-0.061c0.037,0.016,0.072,0.026,0.109,0.029
			c0.068,0.005,0.153,0.025,0.196-0.03c0.038-0.049-0.053-0.072-0.07-0.118c-0.006-0.016,0-0.039-0.01-0.05
			c-0.051-0.058-0.066-0.179-0.151-0.165c-0.092,0.015-0.056,0.129-0.072,0.2c-0.002,0.008,0.001,0.018-0.002,0.026
			c-0.007,0.026,0.012,0.073-0.031,0.072c-0.053-0.001-0.027-0.051-0.032-0.081c-0.002-0.013-0.002-0.026,0-0.039
			c0.024-0.106-0.016-0.132-0.111-0.09c-0.022,0.01-0.053,0.006-0.064,0.036c-0.085,0.026-0.095-0.123-0.187-0.079
			c-0.108-0.197-0.191-0.403-0.214-0.629c-0.008-0.081-0.011-0.164,0.055-0.228c0.063-0.033,0.063-0.033-0.022-0.104
			c0.176-0.048,0.297,0.02,0.409,0.16c0.163,0.204,0.298,0.425,0.439,0.643c0.026,0.039,0.034,0.096,0.095,0.112
			c0.01-0.119,0.024-0.231-0.035-0.337c-0.019-0.034-0.059-0.083,0.007-0.106c0.077-0.027,0.066,0.045,0.077,0.085
			c0.117,0.405,0.102,0.82,0.098,1.234c-0.003,0.35,0.018,0.701,0.146,1.028c0.27,0.692,0.812,1.096,1.496,1.322
			c0.26,0.086,0.592-0.054,0.578-0.37c-0.003-0.066,0.03-0.134,0.041-0.202c0.006-0.043,0.022-0.087-0.039-0.121
			c-0.265-0.148-0.5-0.339-0.711-0.555c-0.128-0.13-0.294-0.235-0.338-0.43c-0.022-0.098-0.06-0.179-0.134-0.252
			c-0.128-0.126-0.13-0.44-0.005-0.61c0,0.078,0,0.14,0,0.203c-0.001,0.097,0.026,0.187,0.075,0.27
			c0.034,0.059,0.066,0.085,0.124,0.014c0.091-0.111,0.206-0.195,0.334-0.262c0.323-0.169,0.671-0.193,1.021-0.156
			c0.327,0.035,0.63,0.15,0.85,0.413c0.076,0.09,0.097,0.054,0.137-0.021c0.076-0.142,0.073-0.296,0.073-0.461
			c0.125,0.196,0.106,0.486-0.033,0.647c-0.028,0.032-0.067,0.058-0.073,0.104c-0.019,0.135-0.098,0.236-0.184,0.335
			c-0.245,0.282-0.546,0.501-0.831,0.739c-0.027,0.023-0.084,0.03-0.073,0.08c0.019,0.087-0.008,0.165-0.021,0.249
			c-0.025,0.165,0.074,0.295,0.227,0.365c0.139,0.064,0.279,0.047,0.417,0.005c0.338-0.101,0.621-0.298,0.882-0.526
			c0.306-0.267,0.519-0.591,0.606-0.998c0.084-0.393,0.07-0.791,0.085-1.187c0.008-0.203,0-0.407,0.04-0.607
			c0.03-0.149,0.049-0.303,0.13-0.475c0.014,0.175,0.014,0.175,0.091,0.144c-0.141,0.333-0.147,0.361-0.107,0.524
			c0.208-0.318,0.396-0.647,0.683-0.898c0.041-0.036-0.023-0.082,0.034-0.104c0.127-0.049,0.368,0.018,0.459,0.133
			c-0.059,0.02-0.108-0.021-0.163-0.025c-0.081-0.006-0.125,0.012-0.074,0.098c0.055,0.094,0.046,0.193,0.026,0.291
			c-0.038,0.184-0.105,0.357-0.201,0.519c-0.012,0.001-0.024,0.003-0.036,0.004c0.015-0.044,0.031-0.088,0.043-0.133
			c0.008-0.03,0.008-0.063-0.033-0.069c-0.032-0.005-0.042,0.023-0.046,0.049c-0.011,0.075-0.021,0.15-0.031,0.225L19.213,19.852z
			 M18.569,20.584c-0.016-0.114,0.034-0.237-0.048-0.343C18.547,20.354,18.507,20.476,18.569,20.584
			c-0.029,0.094-0.035,0.187,0.004,0.279C18.612,20.77,18.642,20.677,18.569,20.584z M13.588,20.588
			c0.008-0.135,0.016-0.271,0.025-0.406c-0.098,0.113-0.037,0.253-0.097,0.369c-0.007,0.083-0.036,0.167,0.02,0.252
			C13.607,20.739,13.589,20.662,13.588,20.588z M19.198,19.435c0.033-0.052,0.018-0.109,0.016-0.164
			c-0.002-0.058,0.028-0.148-0.027-0.166c-0.068-0.023-0.059,0.084-0.105,0.117c-0.07,0.114-0.14,0.228-0.209,0.343
			c-0.017,0.028-0.048,0.059-0.012,0.092c0.073,0.066,0.164,0.093,0.259,0.107c0.034,0.005,0.046-0.023,0.042-0.05
			C19.148,19.616,19.187,19.527,19.198,19.435z M11.755,26.888c-0.007,0.006-0.009,0.013-0.007,0.021
			c-0.008,0.027-0.015,0.054-0.023,0.081c-0.027,0.051-0.046,0.105-0.049,0.178c0.056-0.033,0.093-0.064,0.121-0.108
			c1.361-1.308,2.721-2.617,4.082-3.925c-0.486-0.001-0.893-0.169-1.277-0.422c-0.412-0.272-0.689-0.643-0.837-1.107
			c-0.036-0.113-0.101-0.127-0.181-0.138c-0.098-0.014-0.084,0.083-0.103,0.135c-0.127,0.368-0.252,0.737-0.372,1.108
			C12.656,24.103,12.206,25.496,11.755,26.888z M19.946,4.652c-0.075,0.014-0.099,0.06-0.131,0.092
			c-0.928,0.946-1.855,1.894-2.783,2.84c-0.981,1.001-1.961,2.003-2.944,3.001c-0.063,0.064-0.083,0.113-0.023,0.183
			c0.028,0.032,0.055,0.066,0.082,0.099c0.16,0.196,0.367,0.361,0.433,0.621c0.03,0.118,0.091,0.116,0.167,0.058
			c0.086-0.065,0.183-0.096,0.283-0.121c0.196-0.05,0.392-0.101,0.59-0.145c0.411-0.092,0.821-0.084,1.234-0.001
			c0.229,0.046,0.433,0.169,0.669,0.189c0.035,0.003,0.069,0.017,0.091-0.022c0.11-0.194,0.285-0.347,0.347-0.573
			c0.062-0.23,0.142-0.454,0.215-0.681c0.48-1.505,0.961-3.009,1.441-4.514C19.725,5.341,19.833,5.004,19.946,4.652z M8.484,16.572
			c0.031,0.02,0.037,0.027,0.044,0.029c0.815,0.163,1.639,0.279,2.457,0.423c0.058,0.01,0.077-0.005,0.09-0.058
			c0.034-0.136,0.103-0.256,0.18-0.372c0.086-0.131,0.152-0.272,0.178-0.428c0.015-0.09-0.013-0.182,0.014-0.272
			c0.111-0.365,0.083-0.745,0.11-1.118c0.026-0.367,0.01-0.736,0.004-1.105c-0.002-0.131-0.027-0.261-0.047-0.43
			C10.488,14.37,9.487,15.469,8.484,16.572z M22.967,15.458c-0.233-0.046-0.431-0.086-0.63-0.126
			c-0.577-0.115-1.154-0.229-1.731-0.344c-0.078-0.016-0.153-0.012-0.106,0.095c0.087,0.196,0.105,0.419,0.234,0.6
			c0.051,0.072,0.066,0.156,0.07,0.246c0.006,0.145-0.007,0.29,0.058,0.433c0.123,0.27,0.329,0.502,0.371,0.811
			c0.01,0.073,0.056,0.02,0.079-0.006c0.385-0.428,0.803-0.823,1.199-1.24C22.653,15.777,22.799,15.631,22.967,15.458z
			 M12.963,19.006c-0.022,0.197-0.007,0.375-0.001,0.553c0.005,0.135,0.067,0.135,0.163,0.101c0.024-0.009,0.048-0.019,0.073-0.028
			c0.091-0.032,0.123-0.078,0.06-0.171C13.162,19.319,13.085,19.163,12.963,19.006z M18.546,20.073
			c0.266,0.111,0.349,0.05,0.315-0.221c-0.002-0.013-0.001-0.026-0.003-0.039c-0.004-0.039-0.031-0.064-0.064-0.074
			c-0.039-0.012-0.048,0.029-0.064,0.052C18.668,19.884,18.608,19.979,18.546,20.073z M19.405,19.261
			c-0.001-0.088,0.003-0.147-0.041-0.19c-0.014-0.013-0.037-0.022-0.057-0.023c-0.019-0.001-0.028,0.019-0.026,0.037
			c0.011,0.129,0.007,0.258-0.004,0.387c-0.002,0.029,0.016,0.052,0.045,0.053c0.033,0.001,0.038-0.029,0.043-0.054
			C19.381,19.39,19.396,19.31,19.405,19.261z M12.868,19.186C12.867,19.186,12.867,19.186,12.868,19.186
			c-0.001-0.039,0.002-0.078-0.002-0.116c-0.004-0.038,0.041-0.098-0.023-0.108c-0.063-0.01-0.082,0.053-0.09,0.105
			c-0.019,0.113,0.011,0.222,0.033,0.332c0.005,0.023,0.015,0.041,0.042,0.037c0.031-0.005,0.04-0.029,0.04-0.057
			C12.868,19.315,12.868,19.251,12.868,19.186z M15.947,23.028c0.091-0.001,0.172,0.018,0.252-0.013
			C16.113,22.885,16.033,22.879,15.947,23.028z M12.863,19.481c-0.067,0.089-0.006,0.141,0.017,0.234
			C12.9,19.62,12.89,19.564,12.863,19.481z"/>
		<path class="st1" d="M12.681,18.866c-0.067,0.064-0.064,0.147-0.055,0.228c0.023,0.226,0.106,0.432,0.214,0.629
			c0.044,0.104,0.088,0.208,0.131,0.312c0.002,0.079,0.09,0.096,0.113,0.159c0.136,0.274,0.282,0.543,0.484,0.775
			c0.081,0.094,0.079,0.206,0.085,0.315c0.003,0.065-0.046,0.031-0.072,0.017c-0.161-0.085-0.276-0.218-0.381-0.363
			c-0.21-0.29-0.35-0.621-0.547-0.919c-0.084-0.127-0.189-0.235-0.289-0.348c-0.29-0.326-0.465-0.692-0.4-1.142
			c0.004-0.028,0.001-0.057,0.001-0.109c-0.08,0.072-0.075,0.163-0.124,0.225c-0.024,0.005-0.041-0.01-0.053-0.026
			c-0.242-0.311-0.493-0.618-0.605-1.005c-0.074-0.255-0.05-0.51,0.082-0.741c0.171-0.299,0.303-0.598,0.325-0.955
			c0.02-0.332,0.07-0.662,0.061-0.996c-0.003-0.088,0.049-0.147,0.094-0.207c0.107-0.143,0.177-0.305,0.245-0.468
			c0.015-0.035,0.033-0.072,0.001-0.131c-0.109,0.163-0.214,0.319-0.319,0.476c-0.038-0.03-0.033-0.064-0.023-0.079
			c0.09-0.126,0.027-0.261,0.029-0.391c0.001-0.108-0.008-0.217-0.003-0.325c0.016-0.397-0.097-0.752-0.292-1.097
			c-0.261-0.463-0.527-0.928-0.628-1.46c-0.044-0.233-0.038-0.469-0.023-0.707c0.024-0.361,0.097-0.714,0.159-1.069
			c0.038-0.217,0.097-0.432,0.157-0.644c0.035-0.124,0.068-0.131,0.152-0.034c0.212,0.244,0.427,0.484,0.683,0.685
			c0.517,0.405,1.038,0.801,1.644,1.073c0.331,0.148,0.556,0.433,0.767,0.719c0.087,0.118,0.186,0.235,0.21,0.389
			c-0.088,0.031-0.163,0.083-0.248,0.168c0.124-0.026,0.209-0.072,0.289-0.128c0.283-0.11,0.568-0.213,0.865-0.284
			c0.712-0.17,1.406-0.122,2.081,0.164c0.107,0.045,0.213,0.093,0.32,0.139c0.055,0.05,0.11,0.1,0.16-0.015
			c-0.055-0.008-0.105-0.015-0.155-0.022c-0.069-0.084-0.034-0.152,0.016-0.235c0.176-0.296,0.409-0.542,0.663-0.766
			c0.147-0.129,0.341-0.181,0.512-0.272c0.634-0.339,1.189-0.785,1.724-1.259c0.116-0.103,0.23-0.209,0.347-0.313
			c0.046-0.041,0.074-0.041,0.098,0.03c0.141,0.435,0.263,0.872,0.313,1.33c0.034,0.311,0.059,0.62,0.031,0.93
			c-0.031,0.355-0.191,0.668-0.349,0.981c-0.249,0.493-0.539,0.965-0.761,1.472c-0.069,0.157-0.077,0.325-0.089,0.493
			c-0.003,0.038,0.029,0.103-0.063,0.086c-0.035-0.006-0.031,0.033-0.017,0.056c0.121,0.199,0.104,0.424,0.119,0.642
			c0.013,0.197,0.063,0.379,0.133,0.564c0.087,0.233,0.23,0.45,0.211,0.722c-0.017,0.249,0.135,0.452,0.255,0.655
			c0.192,0.324,0.214,0.656,0.064,0.994c-0.134,0.302-0.329,0.568-0.536,0.826c-0.013,0.016-0.032,0.027-0.058,0.048
			c-0.035-0.079-0.067-0.15-0.1-0.224c-0.047,0.028-0.031,0.069-0.026,0.096c0.064,0.354-0.036,0.676-0.266,0.928
			c-0.394,0.431-0.683,0.931-1.002,1.412c-0.108,0.163-0.247,0.298-0.411,0.407c-0.04,0.027-0.079,0.048-0.123,0.038
			c-0.026-0.19,0.068-0.326,0.182-0.46c0.08-0.095,0.137-0.209,0.205-0.315c0.044-0.058,0.098-0.111,0.096-0.192
			c0.027-0.022,0.049-0.047,0.05-0.085c0.05-0.01,0.043-0.04,0.024-0.073c0.002-0.021,0.004-0.043,0.028-0.052
			c0.047,0.018,0.067-0.008,0.085-0.047c0.048-0.107,0.099-0.213,0.148-0.319c0.096-0.162,0.162-0.335,0.201-0.519
			c0.02-0.098,0.029-0.197-0.026-0.291c-0.051-0.086-0.006-0.104,0.074-0.098c0.055,0.004,0.104,0.045,0.163,0.025
			c-0.091-0.114-0.332-0.181-0.459-0.133c-0.058,0.022,0.007,0.069-0.034,0.104c-0.287,0.251-0.475,0.58-0.683,0.898
			c-0.04-0.163-0.034-0.191,0.107-0.524c-0.077,0.031-0.077,0.031-0.091-0.144c-0.08,0.172-0.1,0.326-0.13,0.475
			c-0.04,0.2-0.032,0.404-0.04,0.607c-0.015,0.396-0.001,0.794-0.085,1.187c-0.087,0.407-0.3,0.731-0.606,0.998
			c-0.261,0.228-0.544,0.425-0.882,0.526c-0.139,0.041-0.278,0.058-0.417-0.005c-0.153-0.07-0.252-0.2-0.227-0.365
			c0.013-0.084,0.04-0.161,0.021-0.249c-0.011-0.049,0.046-0.057,0.073-0.08c0.284-0.238,0.585-0.457,0.831-0.739
			c0.086-0.099,0.165-0.2,0.184-0.335c0.007-0.046,0.045-0.072,0.073-0.104c0.139-0.161,0.158-0.451,0.033-0.647
			c0,0.165,0.003,0.319-0.073,0.461c-0.04,0.075-0.062,0.111-0.137,0.021c-0.219-0.262-0.522-0.378-0.85-0.413
			c-0.35-0.037-0.698-0.013-1.021,0.156c-0.128,0.067-0.244,0.151-0.334,0.262c-0.058,0.071-0.089,0.045-0.124-0.014
			c-0.049-0.083-0.076-0.173-0.075-0.27c0.001-0.062,0-0.125,0-0.203c-0.125,0.17-0.123,0.484,0.005,0.61
			c0.074,0.073,0.112,0.154,0.134,0.252c0.044,0.195,0.21,0.3,0.338,0.43c0.212,0.216,0.446,0.407,0.711,0.555
			c0.06,0.034,0.045,0.078,0.039,0.121c-0.01,0.068-0.043,0.135-0.041,0.202c0.014,0.316-0.317,0.456-0.578,0.37
			c-0.684-0.225-1.226-0.629-1.496-1.322c-0.128-0.327-0.148-0.679-0.146-1.028c0.003-0.415,0.018-0.83-0.098-1.234
			c-0.012-0.04,0-0.113-0.077-0.085c-0.066,0.023-0.026,0.072-0.007,0.106c0.058,0.106,0.044,0.218,0.035,0.337
			c-0.061-0.017-0.07-0.073-0.095-0.112c-0.141-0.218-0.276-0.439-0.439-0.643c-0.112-0.14-0.233-0.209-0.409-0.16
			c-0.119,0.005-0.229,0.026-0.318,0.165c0.104-0.032,0.176-0.053,0.244-0.089C12.618,18.821,12.669,18.789,12.681,18.866z
			 M15.266,15.06c0.002-0.003,0.005-0.006,0.005-0.009c-0.001-0.006-0.004-0.012-0.007-0.019c-0.048-0.059-0.097-0.119-0.145-0.178
			c0.003,0.087,0.043,0.147,0.106,0.193c-0.001,0.007,0.001,0.014,0.007,0.019c-0.001,0.017,0.007,0.027,0.023,0.031
			c0.001,0.007,0.005,0.013,0.011,0.018c-0.002,0.076,0.053,0.125,0.093,0.178c0.096,0.128,0.13,0.282,0.183,0.428
			c-0.003,0.03-0.006,0.06-0.009,0.089c-0.071,0.263-0.021,0.492,0.139,0.556c-0.135-0.148-0.073-0.329-0.098-0.495
			c0-0.121-0.001-0.242-0.001-0.363c0.014-0.04-0.006-0.063-0.038-0.08c-0.004-0.024-0.007-0.048-0.037-0.054l0.001,0.001
			c0.001-0.019,0.004-0.04-0.027-0.029l0.003,0.003c0.017-0.032,0.007-0.05-0.029-0.054l0.002,0.002
			c0.013-0.029,0.002-0.047-0.028-0.054l0.001,0.001c0.003-0.021-0.002-0.034-0.027-0.028l0.002,0.002
			c0.005-0.023,0.003-0.039-0.027-0.029l0.003,0.003c-0.002-0.067-0.033-0.113-0.098-0.134C15.272,15.059,15.266,15.06,15.266,15.06
			z M18.593,16.861l-0.001,0.001c0.019,0,0.029-0.008,0.027-0.028l-0.002,0.002c0.02,0,0.025-0.013,0.027-0.029l-0.002,0.002
			c0.053-0.051,0.09-0.111,0.106-0.183l-0.001,0.001c0.037-0.046,0.069-0.094,0.054-0.157l-0.001,0.001
			c0.078-0.123,0.002-0.245-0.003-0.368c0.09,0.001,0.181-0.002,0.271,0.005c0.277,0.02,0.322,0.112,0.172,0.351
			c-0.027,0.043-0.065,0.082-0.053,0.14c-0.109,0.13-0.217,0.26-0.326,0.39c0.011,0.008,0.021,0.016,0.032,0.024
			c0.375-0.32,0.596-0.756,0.867-1.184c-0.172,0.079-0.323,0.167-0.506,0.16c-0.172-0.007-0.346,0.008-0.528-0.044
			c0.064-0.074,0.142-0.056,0.201-0.085c0.169-0.063,0.337-0.126,0.506-0.189c-0.004-0.012-0.008-0.023-0.012-0.035
			c-0.166,0.055-0.332,0.111-0.498,0.166c-0.102,0.029-0.204,0.062-0.307,0.086c-0.07,0.017-0.13,0.039-0.157,0.112l0,0
			c-0.032,0.003-0.05,0.019-0.052,0.052c0,0,0,0,0,0c-0.03,0.004-0.045,0.025-0.056,0.05c-0.137,0.107-0.282,0.206-0.408,0.323
			c-0.08,0.074-0.194,0.113-0.238,0.225l0,0c-0.029,0.002-0.047,0.021-0.065,0.041c-0.026,0.017-0.053,0.033-0.079,0.05
			c-0.047,0.023-0.094,0.047-0.141,0.07c-0.028-0.003-0.052,0.006-0.073,0.024l-0.005,0.002c-0.254,0.034-0.508,0.043-0.76-0.013
			c-0.23-0.051-0.279-0.148-0.205-0.364c0.004-0.012,0.004-0.026,0.005-0.038c0.072-0.152,0.176-0.291,0.177-0.472
			c0.003-0.347,0.12-0.655,0.341-0.923c0.055-0.053,0.104-0.108,0.095-0.23c-0.056,0.087-0.093,0.147-0.131,0.207
			c-0.151,0.138-0.257,0.311-0.301,0.505c-0.067,0.295-0.064,0.606-0.213,0.881c-0.151,0.265-0.107,0.377,0.215,0.488
			c0.087,0.03,0.184,0.03,0.291,0.046c-0.05,0.074-0.094,0.14-0.139,0.207c-0.065,0.056-0.153,0.062-0.226,0.102
			c-0.049,0.013-0.088,0.043-0.127,0.074c-0.053,0.029-0.107,0.057-0.138,0.146c0.077-0.038,0.122-0.072,0.16-0.116
			c0.053-0.011,0.091-0.045,0.13-0.079c0.089-0.01,0.177-0.023,0.236-0.102c0.043-0.054,0.09-0.104,0.126-0.162
			c0.033-0.052,0.069-0.081,0.134-0.076c0.084,0.006,0.168,0.001,0.261,0.001c-0.123,0.153-0.114,0.181,0.06,0.263
			c0.149,0.07,0.303,0.129,0.462,0.167c0.259,0.062,0.52,0.061,0.769-0.054c0.097-0.056,0.184-0.125,0.259-0.209
			c0.021-0.016,0.065-0.034,0.039-0.061c-0.033-0.034-0.05,0.016-0.07,0.036c-0.097,0.056-0.178,0.133-0.26,0.209
			c-0.382,0.1-0.748,0.051-1.103-0.116c-0.195-0.092-0.197-0.087-0.063-0.248c0.038,0.018,0.077,0.035,0.115,0.054
			c0.263,0.126,0.534,0.156,0.813,0.058l-0.002,0.002c0.027,0.003,0.056,0.01,0.067-0.027l-0.001,0.001
			c0.084-0.006,0.151-0.047,0.209-0.105l-0.001,0.001C18.584,16.889,18.595,16.882,18.593,16.861z M13.778,16.168
			c-0.001-0.007-0.005-0.01-0.012-0.008c-0.004-0.021-0.016-0.031-0.038-0.028l-0.003-0.003c-0.027-0.075-0.097-0.105-0.157-0.145
			c-0.262-0.175-0.577-0.219-0.857-0.348l-0.004-0.002l0.004,0.003c0.026,0.04,0.064,0.063,0.106,0.084
			c0.124,0.061,0.253,0.113,0.386,0.151c0.105,0.03,0.093,0.07,0.023,0.126c-0.057,0-0.114,0-0.171,0c-0.013,0-0.026,0-0.038-0.001
			c-0.086-0.009-0.171-0.019-0.257-0.026c-0.163-0.014-0.335,0.002-0.466-0.137c0.053,0.146,0.182,0.227,0.271,0.341
			c0.021,0.08,0.07,0.144,0.121,0.207c0.066,0.11,0.111,0.233,0.199,0.33c-0.001,0.023-0.002,0.045,0.026,0.054
			c-0.001,0.038,0.02,0.062,0.052,0.078c0.023,0.059,0.071,0.096,0.116,0.136c0.16,0.225,0.373,0.366,0.65,0.399
			c0.345,0.041,0.661-0.062,0.97-0.197c0.021-0.002,0.042-0.004,0.052-0.027c0.145-0.075,0.144-0.075,0.051-0.205
			c-0.012-0.017-0.02-0.038-0.03-0.057c0.139-0.014,0.275,0.031,0.414,0.027c0.03-0.001,0.051,0.012,0.066,0.033
			c0.106,0.15,0.262,0.241,0.421,0.314c0.124,0.057,0.235,0.158,0.389,0.162c-0.012-0.062-0.06-0.063-0.091-0.078
			c-0.193-0.088-0.377-0.189-0.552-0.31c-0.032-0.022-0.077-0.041-0.071-0.083c0.006-0.039,0.052-0.035,0.086-0.039
			c0.124-0.015,0.209-0.097,0.294-0.177c0.136-0.127,0.106-0.278-0.086-0.372c0.033,0.064,0.061,0.114,0.084,0.166
			c0.018,0.043,0.034,0.087-0.009,0.131c-0.093,0.095-0.198,0.177-0.332,0.186c-0.3,0.02-0.595-0.01-0.876-0.131
			c-0.087-0.058-0.174-0.116-0.262-0.174c-0.149-0.122-0.298-0.243-0.448-0.365C13.798,16.17,13.794,16.161,13.778,16.168z
			 M17.24,12.283c-0.028-0.019-0.045-0.005-0.06,0.018c-0.113,0.07-0.183,0.168-0.195,0.304c0.064-0.1,0.14-0.19,0.212-0.284
			c0.018-0.008,0.038-0.015,0.041-0.039c0.005-0.005,0.01-0.01,0.015-0.015c-0.004,0-0.008-0.001-0.012-0.001
			C17.24,12.27,17.24,12.277,17.24,12.283z M12.686,18.137c-0.041,0.023-0.053,0.069-0.08,0.102
			c-0.133,0.128-0.144,0.128-0.26-0.023c-0.031-0.041-0.057-0.086-0.08-0.132c-0.053-0.109-0.06-0.232-0.089-0.363
			c-0.094,0.21-0.037,0.459,0.148,0.633c0.06,0.056,0.064,0.091,0.008,0.145c-0.057,0.055-0.085,0.129-0.116,0.2
			c-0.008,0.019-0.007,0.045,0.013,0.058c0.016,0.01,0.034,0.002,0.043-0.016c0.093-0.178,0.28-0.282,0.364-0.467
			c0.038-0.039,0.06-0.083,0.046-0.139c0.016,0.007,0.022-0.002,0.022-0.016c0-0.005-0.006-0.01-0.01-0.015
			C12.693,18.114,12.689,18.125,12.686,18.137z M17.026,18.001c-0.067,0.056-0.156,0.083-0.207,0.159
			c-0.054,0.141-0.088,0.288-0.145,0.43c0.082-0.074,0.145-0.161,0.141-0.27c-0.002-0.06,0.01-0.108,0.036-0.157
			c0.071-0.038,0.14-0.08,0.194-0.141c0.023-0.015,0.071-0.033,0.054-0.054C17.074,17.939,17.046,17.977,17.026,18.001z
			 M15.19,12.326c-0.01-0.015-0.021-0.028-0.038-0.012c-0.003,0.003,0.006,0.02,0.01,0.031c0.055,0.077,0.111,0.154,0.166,0.232
			C15.326,12.464,15.269,12.388,15.19,12.326z M16.947,18.781c-0.091,0.073-0.232,0.087-0.247,0.248
			c-0.01,0.116-0.132,0.197-0.137,0.322c0.077-0.108,0.173-0.206,0.199-0.339c0.012-0.063,0.038-0.1,0.097-0.121
			c0.046-0.016,0.078-0.052,0.109-0.088c0.028-0.029,0.092-0.028,0.085-0.095C16.995,18.708,16.976,18.751,16.947,18.781z
			 M12.408,13.371c-0.052-0.091-0.115-0.179-0.119-0.295c0.281,0.091,0.499,0.089,0.628-0.01c-0.058,0-0.107,0-0.172,0
			c0.208-0.233,0.427-0.433,0.675-0.587c0.138-0.085,0.104-0.163,0.072-0.266c-0.037-0.119-0.122-0.212-0.197-0.319
			c0.144-0.033,0.272,0.011,0.411-0.008c-0.278-0.072-0.526-0.19-0.726-0.404c0.162-0.046,0.328-0.024,0.496-0.039
			c-0.028-0.054-0.073-0.06-0.107-0.057c-0.184,0.015-0.259-0.103-0.335-0.242c-0.099-0.182-0.206-0.361-0.339-0.522
			c-0.05-0.061-0.092-0.081-0.151-0.004c-0.068,0.089-0.153,0.166-0.222,0.254c-0.052,0.065-0.081,0.063-0.136-0.001
			c-0.248-0.289-0.501-0.574-0.754-0.859C11.4,9.977,11.376,9.927,11.31,9.914c0.107,0.95,0.211,1.892,0.378,2.825
			c0.02,0.011,0.04,0.022,0.059,0.033c0.149-0.164,0.298-0.328,0.462-0.508c0.023,0.232,0.043,0.438,0.064,0.645
			c-0.068-0.001-0.076-0.075-0.138-0.064c0.02,0.208,0.068,0.402,0.223,0.554c0.053,0.064,0.117,0.109,0.228,0.11
			C12.514,13.453,12.461,13.412,12.408,13.371z M19.882,13.345c-0.052,0.041-0.105,0.083-0.183,0.144
			c0.127-0.017,0.2-0.06,0.253-0.136c0.142-0.152,0.187-0.338,0.205-0.544c-0.064,0.013-0.076,0.082-0.14,0.071
			c0.022-0.209,0.044-0.416,0.065-0.623c0.012-0.005,0.024-0.011,0.036-0.016c0.131,0.137,0.262,0.275,0.395,0.411
			c0.022,0.022,0.037,0.069,0.078,0.052c0.03-0.013,0.023-0.053,0.028-0.082c0.086-0.478,0.15-0.959,0.209-1.441
			c0.053-0.428,0.102-0.857,0.154-1.286c-0.056-0.008-0.071,0.031-0.091,0.055c-0.262,0.295-0.524,0.59-0.781,0.888
			c-0.054,0.062-0.086,0.084-0.144,0.006c-0.059-0.08-0.132-0.149-0.198-0.224c-0.098-0.11-0.106-0.112-0.199,0.009
			c-0.149,0.193-0.267,0.405-0.388,0.615c-0.038,0.066-0.078,0.105-0.161,0.102c-0.07-0.002-0.143,0.007-0.229,0.071
			c0.192,0.012,0.358-0.006,0.532,0.043c-0.084,0.063-0.161,0.111-0.227,0.171c-0.085,0.077-0.171,0.135-0.294,0.14
			c-0.077,0.003-0.163,0.026-0.224,0.121c0.152-0.016,0.28-0.064,0.429-0.016c-0.141,0.127-0.2,0.281-0.254,0.436
			c-0.011,0.032-0.036,0.087,0.015,0.1c0.199,0.051,0.319,0.211,0.47,0.328c0.109,0.085,0.202,0.189,0.327,0.308
			c-0.089,0-0.137,0-0.184,0c0.206,0.094,0.413,0.078,0.625-0.002C19.99,13.169,19.935,13.257,19.882,13.345z M19.883,18.839
			c0.017-0.156-0.031-0.252-0.105-0.333c-0.056-0.061-0.052-0.1,0.008-0.156c0.098-0.093,0.157-0.209,0.158-0.361
			c-0.105,0.06-0.132,0.161-0.189,0.239c-0.096,0.129-0.129,0.135-0.246,0.032c-0.017-0.015-0.033-0.028-0.064,0
			C19.545,18.472,19.779,18.583,19.883,18.839z M14.028,11.216c0.056,0.155,0.041,0.303-0.024,0.454
			c0.066-0.011,0.104-0.04,0.145-0.063c0.045-0.025,0.094-0.065,0.096,0.04c0.001,0.063,0.048,0.013,0.057,0.004
			c0.027-0.027,0.114-0.015,0.074-0.085C14.291,11.422,14.176,11.305,14.028,11.216z M18.829,17.453
			c-0.047-0.036-0.078-0.02-0.108-0.006c-0.366,0.169-0.743,0.161-1.126,0.071c-0.056-0.013-0.113-0.025-0.2,0.01
			C17.899,17.655,18.365,17.69,18.829,17.453z M18.147,11.182c-0.139,0.121-0.242,0.258-0.268,0.452
			c0.136-0.112,0.193,0.066,0.309,0.059C18.065,11.527,18.098,11.356,18.147,11.182z M14.034,17.546
			c0.045,0.071,0.102,0.045,0.156,0.038c0.319-0.044,0.637-0.147,0.973-0.009c-0.029-0.074-0.082-0.083-0.128-0.098
			c-0.153-0.049-0.309,0.001-0.464-0.006C14.394,17.463,14.215,17.518,14.034,17.546z M15.624,19.31
			c-0.076-0.135-0.164-0.26-0.225-0.403c-0.018-0.043-0.088-0.106-0.193-0.068C15.429,18.941,15.414,19.216,15.624,19.31z
			 M15.538,18.561c-0.071-0.093-0.13-0.168-0.136-0.257c-0.012-0.195-0.168-0.238-0.299-0.324c-0.002,0.021-0.005,0.03-0.002,0.037
			c0.002,0.008,0.009,0.017,0.015,0.02c0.17,0.076,0.231,0.223,0.269,0.393C15.398,18.482,15.428,18.552,15.538,18.561z
			 M20.24,15.868c0.113,0.031,0.218,0.061,0.323,0.09c0.011-0.062-0.01-0.114-0.024-0.168c-0.007-0.025-0.008-0.056-0.046-0.036
			C20.415,15.798,20.313,15.784,20.24,15.868z M12.027,15.868c-0.089-0.083-0.195-0.085-0.29-0.115
			c-0.019,0.068-0.054,0.133-0.03,0.221C11.803,15.906,11.914,15.908,12.027,15.868z M17.313,17.496
			c-0.17-0.072-0.414,0.012-0.527,0.176C16.966,17.593,17.116,17.473,17.313,17.496z M13.287,17.408
			c0.128,0.135,0.399,0.207,0.518,0.137C13.619,17.521,13.449,17.478,13.287,17.408z M16.488,17.431
			c0.158-0.15,0.298-0.056,0.439,0.031C16.801,17.247,16.595,17.231,16.488,17.431z M15.73,17.421
			c-0.193-0.179-0.318-0.175-0.413,0.007C15.442,17.302,15.574,17.384,15.73,17.421z M15.169,18.773
			c-0.013-0.007-0.027-0.015-0.04-0.022c0,0.007-0.002,0.016,0.002,0.019c0.008,0.009,0.018,0.015,0.028,0.022
			C15.161,18.787,15.164,18.782,15.169,18.773z M15.127,12.289c-0.002-0.002-0.006-0.005-0.007-0.005
			c-0.011,0.004-0.012,0.009-0.002,0.015c0.002,0.001,0.006-0.001,0.008-0.003C15.127,12.295,15.127,12.292,15.127,12.289z"/>
		<path class="st2" d="M19.946,4.652c-0.113,0.352-0.221,0.689-0.328,1.026c-0.48,1.504-0.961,3.009-1.441,4.514
			c-0.072,0.227-0.153,0.451-0.215,0.681c-0.061,0.227-0.236,0.379-0.347,0.573c-0.022,0.039-0.056,0.025-0.091,0.022
			c-0.235-0.02-0.44-0.143-0.669-0.189c-0.413-0.083-0.823-0.091-1.234,0.001c-0.198,0.044-0.394,0.095-0.59,0.145
			c-0.1,0.025-0.198,0.057-0.283,0.121c-0.077,0.058-0.137,0.06-0.167-0.058c-0.066-0.26-0.273-0.425-0.433-0.621
			c-0.027-0.033-0.054-0.066-0.082-0.099c-0.06-0.07-0.04-0.119,0.023-0.183c0.983-0.999,1.964-2,2.944-3.001
			c0.927-0.947,1.854-1.894,2.783-2.84C19.847,4.711,19.871,4.666,19.946,4.652z"/>
		<path class="st2" d="M11.725,26.991c0.008-0.027,0.015-0.054,0.023-0.081c0.003-0.001,0.009-0.002,0.009-0.002
			c0-0.006-0.001-0.013-0.002-0.019c0.451-1.392,0.901-2.785,1.354-4.177c0.12-0.371,0.245-0.74,0.372-1.108
			c0.018-0.052,0.004-0.149,0.103-0.135c0.08,0.011,0.146,0.026,0.181,0.138c0.147,0.464,0.425,0.835,0.837,1.107
			c0.384,0.253,0.791,0.421,1.277,0.422c-1.361,1.308-2.721,2.617-4.082,3.925C11.76,27.051,11.738,27.025,11.725,26.991z"/>
		<path class="st2" d="M8.484,16.572c1.003-1.103,2.004-2.202,3.031-3.331c0.019,0.169,0.045,0.3,0.047,0.43
			c0.006,0.368,0.022,0.738-0.004,1.105c-0.026,0.373,0.002,0.753-0.11,1.118c-0.027,0.089,0.001,0.182-0.014,0.272
			c-0.026,0.157-0.092,0.297-0.178,0.428c-0.077,0.117-0.146,0.236-0.18,0.372c-0.013,0.052-0.032,0.068-0.09,0.058
			c-0.819-0.143-1.642-0.26-2.457-0.423C8.521,16.6,8.515,16.593,8.484,16.572z"/>
		<path class="st2" d="M22.967,15.458c-0.168,0.172-0.314,0.319-0.456,0.469c-0.396,0.417-0.814,0.812-1.199,1.24
			c-0.023,0.026-0.069,0.079-0.079,0.006c-0.042-0.309-0.249-0.541-0.371-0.811c-0.065-0.143-0.052-0.288-0.058-0.433
			c-0.004-0.09-0.019-0.174-0.07-0.246c-0.128-0.181-0.147-0.403-0.234-0.6c-0.047-0.106,0.028-0.11,0.106-0.095
			c0.577,0.115,1.154,0.229,1.731,0.344C22.536,15.372,22.735,15.412,22.967,15.458z"/>
		<path class="st3" d="M15.13,21.009c0.025-0.053,0.03-0.121,0.101-0.141c0.054-0.016,0.108-0.029,0.16-0.048
			c0.331-0.119,0.67-0.172,1.021-0.117c0.053,0.008,0.119,0.003,0.125,0.084c0.005,0.075,0.012,0.151-0.07,0.193
			c-0.073,0.037-0.144,0.087-0.222,0.103C15.868,21.162,15.494,21.145,15.13,21.009z"/>
		<path class="st3" d="M17.04,20.946c0.1,0.139,0.088,0.172-0.05,0.237c-0.137,0.065-0.282,0.084-0.426,0.095
			c-0.425,0.031-0.853,0.076-1.271-0.049c-0.084-0.025-0.214-0.009-0.211-0.158c0.08,0.017,0.152,0.056,0.236,0.064
			c0.328,0.032,0.656,0.014,0.984,0.019c0.15,0.002,0.301,0.028,0.373-0.177c0.045-0.128,0.193-0.093,0.307-0.085
			c0,0-0.002-0.001-0.002-0.001c-0.018,0.036,0.006,0.031,0.028,0.028c0,0-0.003-0.002-0.003-0.002
			C17,20.946,17.019,20.947,17.04,20.946z"/>
		<path class="st1" d="M16.98,20.892c-0.114-0.008-0.262-0.043-0.307,0.085c-0.072,0.205-0.222,0.179-0.373,0.177
			c-0.328-0.005-0.656,0.013-0.984-0.019c-0.084-0.008-0.156-0.048-0.236-0.064c-0.007-0.039,0.023-0.049,0.049-0.062
			c0.364,0.136,0.738,0.153,1.116,0.074c0.078-0.016,0.15-0.066,0.222-0.103c0.081-0.042,0.075-0.118,0.07-0.193
			c-0.006-0.081-0.072-0.076-0.125-0.084c-0.351-0.056-0.69-0.002-1.021,0.117c-0.052,0.019-0.107,0.032-0.16,0.048
			c0.288-0.253,0.636-0.298,0.996-0.273C16.505,20.614,16.772,20.685,16.98,20.892z"/>
		<path class="st1" d="M13.027,19.802c0.011-0.03,0.041-0.026,0.064-0.036c0.095-0.042,0.135-0.016,0.111,0.09
			c-0.003,0.012-0.003,0.026,0,0.039c0.005,0.03-0.022,0.079,0.032,0.081c0.044,0.001,0.024-0.046,0.031-0.072
			c0.002-0.008,0-0.017,0.002-0.026c0.016-0.072-0.02-0.186,0.072-0.2c0.086-0.013,0.101,0.107,0.151,0.165
			c0.01,0.011,0.004,0.034,0.01,0.05c0.017,0.045,0.108,0.068,0.07,0.118c-0.043,0.055-0.127,0.035-0.196,0.03
			c-0.038-0.003-0.073-0.013-0.109-0.029c-0.072-0.031-0.068,0.012-0.04,0.061c-0.098,0.024-0.144-0.087-0.233-0.088
			C12.979,19.919,13.027,19.865,13.027,19.802z"/>
		<path class="st1" d="M12.963,19.006c0.122,0.156,0.199,0.312,0.295,0.456c0.063,0.094,0.03,0.139-0.06,0.171
			c-0.024,0.009-0.048,0.019-0.073,0.028c-0.096,0.034-0.158,0.033-0.163-0.101C12.956,19.381,12.941,19.203,12.963,19.006z"/>
		<path class="st1" d="M19.198,19.435c-0.012,0.093-0.051,0.182-0.035,0.279c0.004,0.027-0.008,0.056-0.042,0.05
			c-0.095-0.015-0.186-0.041-0.259-0.107c-0.036-0.032-0.005-0.064,0.012-0.092c0.069-0.115,0.139-0.228,0.209-0.343
			c0.06,0.02,0.026,0.074,0.04,0.111C19.138,19.375,19.132,19.431,19.198,19.435z"/>
		<path class="st1" d="M13.231,20.138c0.309,0.004,0.31,0.004,0.23,0.311c-0.011,0.042-0.003,0.109-0.06,0.114
			c-0.041,0.004-0.069-0.047-0.087-0.086c-0.045-0.095-0.117-0.178-0.136-0.286C13.185,20.162,13.208,20.15,13.231,20.138z"/>
		<path class="st1" d="M18.546,20.073c0.062-0.095,0.122-0.189,0.184-0.283c0.015-0.023,0.025-0.063,0.064-0.052
			c0.033,0.01,0.06,0.035,0.064,0.074c0.001,0.013,0.001,0.026,0.003,0.039C18.895,20.124,18.812,20.184,18.546,20.073z"/>
		<path class="st1" d="M18.844,20.498c-0.052,0.041-0.065,0.154-0.14,0.128c-0.056-0.019-0.05-0.12-0.061-0.188
			c-0.034-0.216-0.033-0.216,0.183-0.22c0.03-0.001,0.059-0.007,0.089-0.011c0.005,0.002,0.009,0.005,0.013,0.008
			c0.002,0.027,0.005,0.054,0.007,0.081c-0.002,0.081-0.035,0.11-0.129,0.05C18.849,20.404,18.871,20.448,18.844,20.498z"/>
		<path class="st1" d="M19.405,19.261c-0.009,0.049-0.024,0.129-0.04,0.209c-0.005,0.025-0.01,0.055-0.043,0.054
			c-0.029-0.001-0.048-0.024-0.045-0.053c0.011-0.129,0.015-0.258,0.004-0.387c-0.002-0.018,0.008-0.038,0.026-0.037
			c0.02,0.001,0.043,0.01,0.057,0.023C19.408,19.114,19.404,19.172,19.405,19.261z"/>
		<path class="st1" d="M12.868,19.186c0,0.064,0,0.129,0,0.193c0,0.028-0.009,0.052-0.04,0.057
			c-0.027,0.004-0.037-0.014-0.042-0.037c-0.022-0.109-0.052-0.218-0.033-0.332c0.009-0.052,0.028-0.115,0.09-0.105
			c0.064,0.01,0.019,0.071,0.023,0.108C12.87,19.109,12.867,19.148,12.868,19.186C12.867,19.186,12.867,19.186,12.868,19.186z"/>
		<path class="st1" d="M18.915,20.208c0.006-0.08,0.008-0.161,0.02-0.24c0.008-0.049-0.044-0.127,0.024-0.141
			c0.06-0.013,0.135,0.017,0.161,0.096c-0.004,0.051,0.058,0.109-0.014,0.154c0.004-0.036,0.002-0.069-0.045-0.092
			c0.024,0.119-0.086,0.155-0.133,0.231C18.924,20.213,18.919,20.21,18.915,20.208z"/>
		<path class="st4" d="M19.198,19.435c-0.066-0.004-0.061-0.06-0.076-0.102c-0.013-0.037,0.02-0.091-0.04-0.111
			c0.045-0.033,0.037-0.141,0.105-0.117c0.054,0.019,0.025,0.108,0.027,0.166C19.216,19.325,19.231,19.383,19.198,19.435z"/>
		<path class="st5" d="M12.681,18.866c-0.012-0.077-0.063-0.045-0.096-0.028c-0.068,0.036-0.14,0.056-0.244,0.089
			c0.089-0.139,0.199-0.16,0.318-0.165C12.744,18.832,12.744,18.832,12.681,18.866z"/>
		<path class="st5" d="M13.231,20.138c-0.023,0.012-0.046,0.024-0.053,0.053c-0.032,0.001-0.063,0.002-0.095,0.003
			c-0.023-0.063-0.111-0.081-0.113-0.159c0.007-0.017,0.014-0.034,0.021-0.051c0.089,0,0.135,0.112,0.233,0.088
			C13.227,20.094,13.229,20.116,13.231,20.138z"/>
		<path class="st3" d="M12.992,19.984c-0.007,0.017-0.014,0.034-0.021,0.051c-0.044-0.104-0.088-0.208-0.131-0.312
			c0.092-0.044,0.102,0.105,0.187,0.079C13.027,19.865,12.979,19.919,12.992,19.984z"/>
		<path class="st3" d="M19.106,20.078c0.072-0.045,0.01-0.103,0.014-0.154c0.013-0.016,0.026-0.032,0.04-0.048
			c0.006,0.023-0.015,0.07,0.029,0.061c0.035-0.007,0.039-0.049,0.024-0.085l0.001-0.001c0.048,0,0.044-0.049,0.067-0.072
			c0.012-0.001,0.024-0.003,0.036-0.004c-0.05,0.106-0.1,0.212-0.148,0.319c-0.017,0.038-0.038,0.064-0.085,0.047
			C19.092,20.119,19.099,20.098,19.106,20.078z"/>
		<path class="st4" d="M13.516,20.551c0.06-0.116-0.001-0.256,0.097-0.369c-0.008,0.135-0.016,0.271-0.025,0.406
			C13.564,20.576,13.54,20.564,13.516,20.551z"/>
		<path class="st1" d="M13.516,20.551c0.024,0.012,0.048,0.025,0.072,0.037c0.001,0.073,0.019,0.151-0.052,0.215
			C13.48,20.719,13.508,20.634,13.516,20.551z"/>
		<path class="st3" d="M18.844,20.498c0.027-0.051,0.004-0.095-0.038-0.152c0.095,0.06,0.127,0.032,0.129-0.05
			c0.033,0.002,0.038,0.03,0.048,0.053c0.001,0.081-0.052,0.134-0.096,0.192C18.872,20.527,18.858,20.513,18.844,20.498z"/>
		<path class="st1" d="M15.947,23.028c0.086-0.148,0.167-0.143,0.252-0.013C16.118,23.046,16.037,23.027,15.947,23.028z"/>
		<path class="st1" d="M18.569,20.584c0.074,0.093,0.043,0.186,0.004,0.279C18.534,20.771,18.54,20.678,18.569,20.584L18.569,20.584
			z"/>
		<path class="st4" d="M19.281,19.778c-0.023,0.023-0.019,0.072-0.067,0.072c0.01-0.075,0.02-0.15,0.031-0.225
			c0.004-0.025,0.013-0.053,0.046-0.049c0.04,0.006,0.041,0.039,0.033,0.069C19.312,19.691,19.296,19.734,19.281,19.778z"/>
		<path class="st3" d="M14.544,11.693c-0.08,0.056-0.165,0.102-0.289,0.128c0.086-0.085,0.16-0.136,0.248-0.168
			C14.517,11.666,14.53,11.679,14.544,11.693z"/>
		<path class="st4" d="M11.725,26.991c0.013,0.035,0.035,0.06,0.072,0.07c-0.028,0.044-0.065,0.076-0.121,0.108
			C11.679,27.096,11.698,27.042,11.725,26.991z"/>
		<path class="st5" d="M17.814,11.674c0.05,0.007,0.1,0.014,0.155,0.022c-0.049,0.115-0.105,0.065-0.16,0.015
			C17.811,11.699,17.813,11.687,17.814,11.674z"/>
		<path class="st1" d="M12.863,19.481c0.026,0.083,0.036,0.139,0.017,0.234C12.857,19.622,12.797,19.57,12.863,19.481z"/>
		<path class="st4" d="M18.569,20.585c-0.062-0.109-0.022-0.231-0.048-0.344C18.603,20.347,18.553,20.47,18.569,20.585
			C18.569,20.584,18.569,20.585,18.569,20.585z"/>
		<path class="st4" d="M19.213,19.852c0.015,0.035,0.011,0.078-0.024,0.085c-0.044,0.009-0.023-0.038-0.029-0.061
			C19.174,19.859,19.19,19.846,19.213,19.852z"/>
		<path class="st4" d="M11.755,26.888c0.001,0.006,0.002,0.013,0.002,0.019c0,0.001-0.006,0.002-0.009,0.002
			C11.746,26.901,11.748,26.894,11.755,26.888z"/>
		<path class="st1" d="M17.006,20.919c-0.022,0.003-0.046,0.008-0.028-0.028C16.996,20.892,17.007,20.9,17.006,20.919z"/>
		<path class="st1" d="M17.04,20.946c-0.02,0-0.04,0-0.036-0.029C17.015,20.927,17.027,20.936,17.04,20.946z"/>
		<path class="st0" d="M19.882,13.345c0.053-0.088,0.108-0.176,0.123-0.298c-0.212,0.08-0.419,0.096-0.625,0.002
			c0.048,0,0.096,0,0.184,0c-0.125-0.119-0.218-0.223-0.327-0.308c-0.15-0.117-0.271-0.277-0.47-0.328
			c-0.05-0.013-0.026-0.068-0.015-0.1c0.054-0.156,0.112-0.309,0.254-0.436c-0.148-0.048-0.277,0-0.429,0.016
			c0.061-0.096,0.148-0.118,0.224-0.121c0.123-0.005,0.209-0.063,0.294-0.14c0.066-0.06,0.143-0.108,0.227-0.171
			c-0.174-0.049-0.34-0.03-0.532-0.043c0.086-0.064,0.159-0.073,0.229-0.071c0.083,0.003,0.123-0.037,0.161-0.102
			c0.121-0.21,0.239-0.423,0.388-0.615c0.093-0.121,0.101-0.119,0.199-0.009c0.066,0.074,0.139,0.144,0.198,0.224
			c0.058,0.078,0.091,0.056,0.144-0.006c0.257-0.299,0.519-0.593,0.781-0.888c0.021-0.024,0.035-0.063,0.091-0.055
			c-0.051,0.429-0.1,0.858-0.154,1.286c-0.06,0.482-0.123,0.963-0.209,1.441c-0.005,0.029,0.002,0.069-0.028,0.082
			c-0.042,0.018-0.057-0.029-0.078-0.052c-0.133-0.136-0.263-0.274-0.395-0.411c-0.012,0.005-0.024,0.011-0.036,0.016
			c-0.022,0.207-0.043,0.415-0.065,0.623c0.064,0.01,0.077-0.059,0.14-0.071c-0.018,0.207-0.063,0.392-0.205,0.544
			C19.929,13.351,19.905,13.348,19.882,13.345z M19.975,12.158c0.036-0.139,0.036-0.139,0.149-0.031
			c0.115,0.146,0.27,0.247,0.41,0.397c0.015-0.126,0.027-0.219,0.038-0.311c0.131-0.671,0.179-1.354,0.282-2.028
			c-0.042-0.008-0.053,0.014-0.066,0.029c-0.222,0.254-0.447,0.506-0.663,0.765c-0.067,0.08-0.104,0.079-0.165,0.001
			c-0.066-0.085-0.146-0.159-0.215-0.243c-0.049-0.059-0.088-0.063-0.129,0.004c-0.109,0.177-0.217,0.354-0.327,0.531
			c-0.032,0.052-0.021,0.073,0.041,0.085c0.074,0.015,0.153,0.017,0.221,0.066c-0.019,0.047-0.061,0.054-0.093,0.072
			c-0.11,0.061-0.214,0.131-0.309,0.214c-0.03,0.026-0.067,0.057-0.002,0.086c0.105,0.046,0.05,0.082-0.005,0.121
			c-0.081,0.058-0.159,0.119-0.195,0.218c-0.03,0.062-0.145,0.121-0.054,0.191c0.264,0.202,0.512,0.418,0.748,0.651
			c0.084,0.083,0.263,0.024,0.274-0.086C19.938,12.645,19.955,12.401,19.975,12.158z"/>
		<path class="st0" d="M12.357,13.399c-0.155-0.152-0.203-0.345-0.223-0.554c0.063-0.011,0.071,0.063,0.138,0.064
			c-0.02-0.207-0.041-0.413-0.064-0.645c-0.164,0.18-0.313,0.344-0.462,0.508c-0.02-0.011-0.04-0.022-0.059-0.033
			c-0.167-0.933-0.27-1.875-0.378-2.825c0.067,0.013,0.091,0.063,0.123,0.099c0.253,0.285,0.506,0.57,0.754,0.859
			c0.055,0.064,0.084,0.066,0.136,0.001c0.07-0.088,0.154-0.165,0.222-0.254c0.059-0.077,0.101-0.057,0.151,0.004
			c0.133,0.161,0.24,0.34,0.339,0.522c0.076,0.139,0.151,0.257,0.335,0.242c0.034-0.003,0.078,0.003,0.107,0.057
			c-0.168,0.015-0.334-0.007-0.496,0.039c0.2,0.214,0.447,0.332,0.726,0.404c-0.139,0.019-0.267-0.026-0.411,0.008
			c0.075,0.108,0.16,0.2,0.197,0.319c0.032,0.103,0.066,0.181-0.072,0.266c-0.248,0.154-0.466,0.354-0.675,0.587
			c0.065,0,0.114,0,0.172,0c-0.128,0.098-0.347,0.1-0.628,0.01c0.003,0.116,0.066,0.204,0.119,0.295
			C12.391,13.38,12.374,13.39,12.357,13.399z M12.036,12.269c0.051-0.044,0.108-0.082,0.15-0.133
			c0.096-0.115,0.114-0.044,0.129,0.048c-0.01,0.226,0.046,0.445,0.058,0.669c0.003,0.062-0.01,0.133,0.077,0.158
			c0.085,0.025,0.161,0.046,0.235-0.037c0.182-0.203,0.393-0.376,0.605-0.545c0.147-0.117,0.15-0.114,0.052-0.28
			c-0.067-0.083-0.122-0.178-0.222-0.231c-0.038-0.02-0.063-0.058-0.001-0.084c0.09-0.037,0.058-0.076,0.005-0.116
			c-0.075-0.058-0.147-0.12-0.237-0.157c-0.061-0.025-0.125-0.051-0.163-0.125c0.087-0.02,0.166-0.041,0.246-0.056
			c0.044-0.009,0.064-0.025,0.037-0.069c-0.113-0.184-0.226-0.369-0.34-0.552c-0.033-0.053-0.068-0.057-0.111-0.007
			c-0.076,0.089-0.159,0.171-0.233,0.262c-0.053,0.065-0.089,0.078-0.148,0.003c-0.118-0.148-0.241-0.292-0.369-0.431
			c-0.117-0.127-0.218-0.271-0.374-0.404c0.105,0.765,0.168,1.505,0.314,2.234c0.004,0.036-0.009,0.075,0.023,0.118
			C11.854,12.438,11.977,12.388,12.036,12.269z"/>
		<path class="st2" d="M18.291,17.019c0,0,0.002-0.002,0.002-0.002c-0.144-0.002-0.287-0.003-0.431-0.005
			c-0.132-0.057-0.142-0.19-0.186-0.302c0.022-0.014,0.059-0.021,0.028-0.06c0,0,0,0,0,0c0.055,0.045,0.077-0.065,0.141-0.025
			c0.216,0.133,0.373,0.031,0.507-0.142c0.008-0.009,0.017-0.017,0.025-0.026c0.009-0.009,0.017-0.017,0.026-0.026
			c0.011-0.01,0.021-0.02,0.031-0.03c0.003-0.003,0.007-0.007,0.01-0.01c0.098-0.066,0.07-0.137,0.009-0.21
			c-0.02-0.024-0.063-0.031-0.059-0.074c0.022-0.014,0.048-0.028,0.012-0.055c0,0,0,0,0,0c0.018,0.028,0.034,0.013,0.049-0.003
			c0.015-0.015,0.031-0.031,0.002-0.049c0,0,0,0,0,0c0.01,0.021,0.024,0.017,0.04,0.007c0.13-0.078,0.179-0.057,0.233,0.086
			c0.046,0.123,0.061,0.25,0.068,0.379c0,0,0.001-0.001,0.001-0.001c-0.047,0.042-0.07,0.093-0.054,0.157
			c0,0,0.001-0.001,0.001-0.001c-0.078,0.036-0.098,0.106-0.106,0.183c0,0,0.002-0.002,0.002-0.002
			c-0.034-0.014-0.031,0.007-0.027,0.029c0,0,0.002-0.002,0.002-0.002c-0.025-0.006-0.034,0.003-0.027,0.028l0.001-0.001
			c-0.025-0.007-0.042-0.006-0.028,0.027c0,0,0.001-0.001,0.001-0.001c-0.088,0-0.154,0.041-0.209,0.105
			c0,0,0.001-0.001,0.001-0.001C18.326,16.976,18.301,16.977,18.291,17.019z"/>
		<path class="st5" d="M16.382,16.423c-0.002,0.013-0.001,0.026-0.005,0.038c-0.074,0.216-0.024,0.313,0.205,0.364
			c0.251,0.056,0.506,0.047,0.76,0.013c-0.066,0.049,0.013,0.046,0.024,0.068c-0.135,0.161-0.132,0.156,0.063,0.248
			c0.355,0.167,0.721,0.216,1.103,0.116c0.011,0.008,0.021,0.017,0.032,0.025c-0.249,0.115-0.51,0.116-0.769,0.054
			c-0.158-0.038-0.313-0.097-0.462-0.167c-0.174-0.082-0.183-0.11-0.06-0.263c-0.093,0-0.177,0.004-0.261-0.001
			c-0.066-0.005-0.101,0.024-0.134,0.076c-0.036,0.058-0.084,0.108-0.126,0.162c-0.012-0.008-0.023-0.017-0.035-0.025
			c0.045-0.066,0.089-0.133,0.139-0.207c-0.107-0.016-0.204-0.016-0.291-0.046c-0.323-0.111-0.366-0.222-0.215-0.488
			C16.36,16.401,16.371,16.412,16.382,16.423z"/>
		<path class="st5" d="M18.801,16.472c-0.007-0.129-0.022-0.256-0.068-0.379c-0.054-0.143-0.103-0.164-0.233-0.086
			c-0.016,0.01-0.03,0.014-0.04-0.007c0.027-0.073,0.087-0.095,0.157-0.112c0.103-0.025,0.205-0.057,0.307-0.086
			c0.001,0.019,0.002,0.039,0.004,0.058c-0.059,0.029-0.137,0.011-0.201,0.085c0.182,0.052,0.356,0.037,0.528,0.044
			c0.183,0.007,0.335-0.08,0.506-0.16c-0.271,0.429-0.492,0.864-0.867,1.184c-0.011-0.008-0.021-0.016-0.032-0.024
			c0.109-0.13,0.217-0.26,0.326-0.39c0.161-0.148,0.251-0.345,0.358-0.53c0.024-0.041,0.015-0.082-0.047-0.069
			c-0.215,0.046-0.432,0.021-0.648,0.023c-0.063,0.001-0.098,0.011-0.053,0.08C18.803,16.227,18.879,16.349,18.801,16.472z"/>
		<path class="st5" d="M14.508,16.722c0.28,0.121,0.576,0.151,0.876,0.131c0.134-0.009,0.239-0.091,0.332-0.186
			c0.043-0.044,0.027-0.088,0.009-0.131c-0.022-0.052-0.051-0.102-0.084-0.166c0.192,0.094,0.222,0.244,0.086,0.372
			c-0.085,0.079-0.17,0.161-0.294,0.177c-0.034,0.004-0.08-0.001-0.086,0.039c-0.006,0.043,0.039,0.061,0.071,0.083
			c0.174,0.121,0.359,0.222,0.552,0.31c0.031,0.014,0.079,0.016,0.091,0.078c-0.154-0.004-0.265-0.105-0.389-0.162
			c-0.159-0.073-0.315-0.163-0.421-0.314c-0.015-0.021-0.036-0.034-0.066-0.033c-0.139,0.004-0.274-0.041-0.414-0.027
			C14.647,16.891,14.566,16.824,14.508,16.722z"/>
		<path class="st0" d="M18.352,16.484c-0.134,0.173-0.29,0.275-0.507,0.142c-0.064-0.039-0.086,0.07-0.141,0.025
			c0.043-0.112,0.158-0.151,0.238-0.225c0.127-0.118,0.271-0.217,0.408-0.323c0.015,0.002,0.03,0.003,0.044,0.005
			c-0.005,0.044,0.038,0.05,0.059,0.074c0.061,0.073,0.089,0.144-0.009,0.21c-0.006-0.011-0.013-0.022-0.019-0.033
			c0.024-0.098-0.056-0.074-0.099-0.076c-0.066-0.003-0.121,0.036-0.124,0.102c-0.004,0.076,0.063,0.077,0.12,0.077
			C18.333,16.469,18.342,16.476,18.352,16.484z M18.051,16.47c-0.02,0.005-0.058,0.012-0.056,0.056
			c0.002,0.041,0.037,0.054,0.073,0.054c0.043,0.001,0.061-0.029,0.06-0.066C18.128,16.476,18.098,16.469,18.051,16.47z"/>
		<path class="st0" d="M13.799,16.184c0.149,0.122,0.298,0.243,0.448,0.365c0.002,0.019,0.005,0.038,0.007,0.057
			c-0.146,0.113-0.246,0.114-0.382,0.001c-0.04-0.033-0.078-0.07-0.121-0.098c-0.137-0.086-0.161-0.148-0.103-0.297
			c0.01-0.026,0.015-0.049,0.004-0.074c0.024-0.003,0.049-0.006,0.073-0.009c0,0,0.003,0.003,0.003,0.003
			c0.002,0.024,0.016,0.031,0.038,0.028c0.007-0.002,0.011,0.001,0.012,0.008C13.785,16.173,13.792,16.178,13.799,16.184z
			 M13.913,16.394c-0.033-0.043-0.041-0.113-0.122-0.106c-0.055,0.004-0.064,0.059-0.057,0.078c0.017,0.051,0.054,0.099,0.118,0.098
			C13.889,16.463,13.91,16.435,13.913,16.394z M14.108,16.549c-0.012-0.024-0.014-0.061-0.048-0.066
			c-0.04-0.006-0.05,0.024-0.051,0.058c-0.001,0.034,0.008,0.06,0.05,0.057C14.089,16.597,14.108,16.584,14.108,16.549z"/>
		<path class="st0" d="M12.638,18.273c-0.084,0.184-0.271,0.289-0.364,0.467c-0.009,0.017-0.028,0.026-0.043,0.016
			c-0.021-0.013-0.021-0.04-0.013-0.058c0.031-0.071,0.059-0.145,0.116-0.2c0.056-0.054,0.051-0.089-0.008-0.145
			c-0.185-0.174-0.242-0.423-0.148-0.633c0.028,0.131,0.036,0.254,0.089,0.363c0.022,0.046,0.049,0.092,0.08,0.132
			c0.116,0.151,0.127,0.151,0.26,0.023C12.617,18.25,12.627,18.262,12.638,18.273z"/>
		<path class="st4" d="M18.798,16.104c-0.045-0.068-0.01-0.079,0.053-0.08c0.216-0.002,0.433,0.022,0.648-0.023
			c0.062-0.013,0.071,0.028,0.047,0.069c-0.107,0.185-0.196,0.382-0.358,0.53c-0.012-0.058,0.026-0.097,0.053-0.14
			c0.149-0.238,0.105-0.331-0.172-0.351C18.978,16.102,18.888,16.106,18.798,16.104z"/>
		<path class="st0" d="M19.883,18.839c-0.103-0.256-0.337-0.367-0.439-0.58c0.031-0.028,0.047-0.015,0.064,0
			c0.117,0.103,0.15,0.097,0.246-0.032c0.058-0.077,0.084-0.179,0.189-0.239c-0.001,0.153-0.06,0.268-0.158,0.361
			c-0.06,0.057-0.064,0.095-0.008,0.156C19.852,18.587,19.9,18.683,19.883,18.839z"/>
		<path class="st5" d="M14.697,17.183c-0.309,0.135-0.626,0.238-0.97,0.197c-0.277-0.033-0.49-0.174-0.65-0.399
			c0.008-0.006,0.017-0.012,0.025-0.017c0.014,0.002,0.028,0.003,0.042,0.005l0.006,0.006c0.006,0.006,0.011,0.013,0.017,0.019
			c0.292,0.327,0.654,0.392,1.062,0.281c0.15-0.041,0.299-0.083,0.449-0.124C14.685,17.161,14.691,17.172,14.697,17.183z"/>
		<path class="st3" d="M14.254,16.605c-0.003-0.019-0.005-0.038-0.008-0.057c0.087,0.058,0.174,0.116,0.262,0.174
			c0.058,0.102,0.139,0.169,0.262,0.171c0.01,0.019,0.017,0.04,0.03,0.057c0.094,0.13,0.094,0.13-0.051,0.205
			c-0.01-0.01-0.019-0.019-0.029-0.029c0.022-0.036,0.12-0.037,0.059-0.11c-0.041-0.05-0.072-0.127-0.171-0.058
			c-0.105,0.073-0.236,0.1-0.362,0.128c-0.004-0.019-0.008-0.037-0.013-0.056c0.062-0.04,0.147-0.026,0.175-0.138
			C14.448,16.731,14.335,16.684,14.254,16.605z"/>
		<path class="st0" d="M14.028,11.216c0.148,0.088,0.263,0.206,0.348,0.35c0.041,0.069-0.047,0.058-0.074,0.085
			c-0.009,0.009-0.056,0.059-0.057-0.004c-0.002-0.104-0.051-0.065-0.096-0.04c-0.041,0.023-0.078,0.053-0.145,0.063
			C14.069,11.519,14.084,11.371,14.028,11.216z"/>
		<path class="st3" d="M13.725,16.129c-0.024,0.003-0.049,0.006-0.073,0.009c-0.034-0.024-0.073-0.044-0.102-0.073
			c-0.071-0.072-0.144-0.097-0.232-0.033c-0.023-0.034-0.061-0.024-0.092-0.033c0.07-0.056,0.082-0.096-0.023-0.126
			c-0.133-0.038-0.261-0.09-0.386-0.151c-0.043-0.021-0.08-0.044-0.106-0.084l-0.001-0.002c0.28,0.13,0.596,0.174,0.858,0.349
			C13.628,16.024,13.697,16.054,13.725,16.129z"/>
		<path class="st3" d="M16.382,16.423c-0.011-0.011-0.022-0.022-0.033-0.033c0.149-0.275,0.146-0.586,0.213-0.881
			c0.044-0.194,0.15-0.366,0.301-0.505c0.012,0.008,0.025,0.016,0.037,0.023c-0.221,0.268-0.337,0.576-0.341,0.923
			C16.558,16.132,16.454,16.27,16.382,16.423z"/>
		<path class="st3" d="M18.829,17.453c-0.464,0.237-0.93,0.202-1.433,0.074c0.087-0.035,0.143-0.023,0.2-0.01
			c0.382,0.091,0.76,0.099,1.126-0.071C18.751,17.433,18.782,17.417,18.829,17.453z"/>
		<path class="st0" d="M18.147,11.182c-0.049,0.175-0.082,0.345,0.041,0.51c-0.116,0.008-0.173-0.171-0.309-0.059
			C17.905,11.44,18.008,11.302,18.147,11.182z"/>
		<path class="st5" d="M13.226,15.999c0.031,0.01,0.07,0,0.092,0.033c0,0-0.002,0.004-0.002,0.004
			c-0.023-0.006-0.043-0.005-0.059,0.015c-0.19,0.009-0.376-0.027-0.564-0.046c-0.058-0.006-0.138-0.033-0.172,0.011
			c-0.036,0.046,0.059,0.084,0.061,0.141c-0.006,0.006-0.013,0.012-0.019,0.018c-0.088-0.113-0.218-0.194-0.271-0.341
			c0.132,0.14,0.304,0.123,0.466,0.137c0.086,0.007,0.171,0.018,0.257,0.026c0.013,0,0.026,0,0.038,0.001
			C13.112,15.999,13.169,15.999,13.226,15.999z"/>
		<path class="st0" d="M17.366,16.905c-0.011-0.022-0.091-0.019-0.024-0.068c0,0,0.005-0.002,0.005-0.002
			c0.028,0.002,0.055,0.003,0.073-0.024c0.047-0.023,0.094-0.047,0.141-0.07c0.005,0.005,0.01,0.01,0.015,0.015
			c-0.019,0.057-0.088,0.066-0.116,0.116c0.123,0.084,0.246,0.161,0.403,0.14c0.144,0.002,0.287,0.003,0.431,0.005
			c-0.279,0.098-0.55,0.068-0.813-0.058C17.442,16.941,17.404,16.923,17.366,16.905z"/>
		<path class="st4" d="M14.034,17.546c0.181-0.028,0.36-0.083,0.537-0.075c0.155,0.007,0.311-0.043,0.464,0.006
			c0.046,0.015,0.098,0.024,0.128,0.098c-0.336-0.138-0.654-0.035-0.973,0.009C14.136,17.591,14.079,17.617,14.034,17.546z"/>
		<path class="st4" d="M15.624,19.31c-0.21-0.094-0.195-0.369-0.418-0.47c0.105-0.039,0.175,0.025,0.193,0.068
			C15.46,19.05,15.548,19.175,15.624,19.31z"/>
		<path class="st4" d="M15.533,15.429c0.032,0.017,0.053,0.04,0.038,0.08c-0.047,0.065,0.002,0.145-0.031,0.213
			c-0.052-0.146-0.086-0.299-0.183-0.428c-0.04-0.053-0.095-0.101-0.093-0.178c0.035,0.026,0.07,0.052,0.105,0.078
			c0,0-0.003-0.003-0.003-0.003c0.002,0.016,0.009,0.028,0.027,0.029c0,0-0.002-0.002-0.002-0.002c0,0.018,0.006,0.031,0.027,0.028
			c0,0-0.001-0.001-0.001-0.001c-0.004,0.025,0,0.045,0.028,0.054c0,0-0.002-0.002-0.002-0.002c0.001,0.023,0.002,0.045,0.029,0.054
			c0,0-0.003-0.003-0.003-0.003c0.001,0.017,0.006,0.03,0.027,0.029c0,0-0.001-0.001-0.001-0.001
			C15.494,15.403,15.505,15.422,15.533,15.429z"/>
		<path class="st4" d="M15.538,18.561c-0.11-0.009-0.14-0.079-0.152-0.131c-0.038-0.169-0.099-0.317-0.269-0.393
			c-0.007-0.003-0.013-0.012-0.015-0.02c-0.002-0.007,0.001-0.016,0.002-0.037c0.13,0.086,0.287,0.129,0.299,0.324
			C15.408,18.393,15.468,18.468,15.538,18.561z"/>
		<path class="st3" d="M16.968,18.803c-0.031,0.036-0.064,0.072-0.109,0.088c-0.059,0.021-0.084,0.058-0.097,0.121
			c-0.026,0.133-0.122,0.231-0.199,0.339c0.005-0.125,0.126-0.206,0.137-0.322c0.015-0.161,0.156-0.174,0.247-0.248
			C16.954,18.788,16.961,18.795,16.968,18.803z"/>
		<path class="st4" d="M15.572,15.871c0.025,0.166-0.037,0.347,0.098,0.495c-0.16-0.064-0.21-0.294-0.139-0.556
			C15.545,15.831,15.559,15.851,15.572,15.871z"/>
		<path class="st5" d="M20.24,15.868c0.073-0.084,0.175-0.071,0.253-0.113c0.038-0.021,0.04,0.011,0.046,0.036
			c0.015,0.054,0.036,0.106,0.024,0.168C20.458,15.929,20.353,15.9,20.24,15.868z"/>
		<path class="st5" d="M12.027,15.868c-0.113,0.041-0.225,0.038-0.32,0.106c-0.024-0.088,0.011-0.154,0.03-0.221
			C11.832,15.783,11.938,15.785,12.027,15.868z"/>
		<path class="st3" d="M18.927,15.86c-0.001-0.019-0.002-0.039-0.004-0.058c0.166-0.055,0.332-0.111,0.498-0.166
			c0.004,0.012,0.008,0.023,0.012,0.035C19.265,15.734,19.096,15.797,18.927,15.86z"/>
		<path class="st4" d="M16.851,18.163c-0.026,0.049-0.038,0.097-0.036,0.157c0.004,0.11-0.059,0.196-0.141,0.27
			c0.057-0.141,0.09-0.289,0.145-0.43C16.83,18.162,16.84,18.163,16.851,18.163z"/>
		<path class="st3" d="M17.313,17.496c-0.198-0.024-0.347,0.097-0.527,0.176C16.899,17.508,17.143,17.424,17.313,17.496z"/>
		<path class="st3" d="M13.287,17.408c0.162,0.07,0.331,0.113,0.518,0.137C13.686,17.615,13.415,17.543,13.287,17.408z"/>
		<path class="st4" d="M18.983,20.35c-0.01-0.023-0.015-0.051-0.048-0.053c-0.002-0.027-0.005-0.054-0.007-0.081
			c0.047-0.075,0.157-0.111,0.133-0.231c0.047,0.024,0.049,0.057,0.045,0.092c-0.007,0.021-0.014,0.041-0.022,0.062
			c-0.024,0.01-0.025,0.031-0.028,0.052c-0.031,0.017-0.021,0.047-0.024,0.073C19.032,20.303,19.01,20.328,18.983,20.35z"/>
		<path class="st3" d="M16.488,17.431c0.106-0.2,0.313-0.184,0.439,0.031C16.786,17.375,16.646,17.281,16.488,17.431z"/>
		<path class="st3" d="M15.73,17.421c-0.156-0.037-0.289-0.118-0.413,0.007C15.412,17.246,15.537,17.241,15.73,17.421z"/>
		<path class="st4" d="M17.196,12.32c-0.072,0.094-0.148,0.184-0.212,0.284c0.012-0.136,0.082-0.233,0.195-0.304
			C17.185,12.307,17.191,12.314,17.196,12.32z"/>
		<path class="st5" d="M12.884,16.711c-0.088-0.097-0.133-0.22-0.199-0.33c0.01-0.006,0.02-0.012,0.029-0.018
			c0.082,0.102,0.155,0.209,0.179,0.341L12.884,16.711z"/>
		<path class="st3" d="M19.882,13.345c0.023,0.003,0.047,0.005,0.07,0.008c-0.053,0.077-0.125,0.119-0.253,0.136
			C19.777,13.428,19.829,13.387,19.882,13.345z"/>
		<path class="st4" d="M15.19,12.326c0.08,0.062,0.137,0.138,0.138,0.251c-0.055-0.077-0.111-0.154-0.166-0.232
			C15.171,12.339,15.18,12.332,15.19,12.326z"/>
		<path class="st3" d="M12.357,13.399c0.017-0.009,0.034-0.018,0.052-0.028c0.053,0.041,0.106,0.082,0.176,0.137
			C12.473,13.507,12.41,13.463,12.357,13.399z"/>
		<path class="st5" d="M18.531,17.269c0.082-0.075,0.162-0.153,0.26-0.209c0.01,0.008,0.021,0.016,0.031,0.024
			c-0.074,0.084-0.161,0.153-0.259,0.209C18.553,17.286,18.542,17.277,18.531,17.269z"/>
		<path class="st3" d="M16.851,18.163c-0.011-0.001-0.021-0.002-0.032-0.003c0.051-0.077,0.14-0.103,0.207-0.159
			c0.006,0.007,0.013,0.014,0.019,0.021C16.991,18.084,16.922,18.125,16.851,18.163z"/>
		<path class="st5" d="M12.684,16.381c-0.051-0.063-0.1-0.126-0.121-0.207c0.006-0.006,0.012-0.012,0.019-0.018
			c0.071,0.051,0.101,0.13,0.132,0.207C12.704,16.37,12.694,16.376,12.684,16.381z"/>
		<path class="st3" d="M16.863,15.004c0.038-0.06,0.076-0.119,0.131-0.207c0.009,0.122-0.04,0.177-0.095,0.23
			C16.888,15.02,16.876,15.012,16.863,15.004z"/>
		<path class="st5" d="M16.752,17.155c-0.059,0.08-0.147,0.092-0.236,0.102c-0.008-0.008-0.017-0.017-0.025-0.025
			c0.073-0.04,0.161-0.046,0.226-0.102C16.728,17.138,16.74,17.146,16.752,17.155z"/>
		<path class="st5" d="M15.226,15.047c-0.063-0.045-0.104-0.105-0.106-0.193c0.048,0.059,0.097,0.119,0.145,0.178
			C15.251,15.037,15.238,15.042,15.226,15.047z"/>
		<path class="st0" d="M15.572,15.871c-0.014-0.02-0.027-0.041-0.041-0.061c0.003-0.03,0.006-0.06,0.009-0.089
			c0.033-0.068-0.017-0.147,0.031-0.213C15.572,15.63,15.572,15.75,15.572,15.871z"/>
		<path class="st5" d="M18.357,16.993c0.055-0.065,0.121-0.106,0.209-0.105C18.509,16.946,18.442,16.987,18.357,16.993z"/>
		<path class="st5" d="M18.643,16.81c0.007-0.077,0.028-0.147,0.106-0.183C18.733,16.699,18.696,16.759,18.643,16.81z"/>
		<path class="st5" d="M13.077,16.98c-0.045-0.04-0.093-0.078-0.116-0.136c0.007-0.006,0.013-0.013,0.02-0.019
			c0.055,0.033,0.101,0.074,0.121,0.138C13.094,16.969,13.085,16.975,13.077,16.98z"/>
		<path class="st5" d="M16.385,17.336c-0.038,0.044-0.083,0.078-0.16,0.116c0.031-0.089,0.085-0.117,0.138-0.146
			C16.371,17.316,16.378,17.326,16.385,17.336z"/>
		<path class="st5" d="M15.37,15.194c-0.035-0.026-0.07-0.052-0.105-0.078c-0.006-0.005-0.009-0.011-0.011-0.018
			c0.006-0.013,0.012-0.025,0.017-0.038C15.337,15.08,15.369,15.126,15.37,15.194z"/>
		<path class="st5" d="M16.364,17.306c0.039-0.031,0.078-0.061,0.127-0.074c0.008,0.008,0.017,0.017,0.025,0.025
			c-0.039,0.033-0.078,0.068-0.13,0.079C16.378,17.326,16.371,17.316,16.364,17.306z"/>
		<path class="st3" d="M12.638,18.273c-0.011-0.011-0.021-0.023-0.032-0.034c0.027-0.034,0.039-0.08,0.08-0.102l-0.002-0.003
			C12.698,18.19,12.676,18.234,12.638,18.273z"/>
		<path class="st3" d="M16.947,18.781c0.029-0.029,0.048-0.072,0.106-0.073c0.008,0.067-0.057,0.066-0.085,0.095
			C16.961,18.795,16.954,18.788,16.947,18.781z"/>
		<path class="st5" d="M18.748,16.628c-0.016-0.064,0.007-0.115,0.054-0.157C18.816,16.534,18.784,16.582,18.748,16.628z"/>
		<path class="st4" d="M15.169,18.773c-0.005,0.008-0.008,0.014-0.011,0.019c-0.009-0.007-0.02-0.013-0.028-0.022
			c-0.003-0.004-0.001-0.013-0.002-0.019C15.142,18.759,15.155,18.766,15.169,18.773z"/>
		<path class="st5" d="M12.961,16.844c-0.032-0.017-0.053-0.04-0.052-0.078c0.004-0.004,0.007-0.007,0.011-0.011
			c0.044,0.002,0.048,0.04,0.061,0.07C12.975,16.831,12.968,16.837,12.961,16.844z"/>
		<path class="st3" d="M17.026,18.001c0.02-0.024,0.048-0.062,0.073-0.032c0.018,0.021-0.031,0.039-0.054,0.054
			C17.039,18.015,17.033,18.008,17.026,18.001z"/>
		<path class="st0" d="M17.561,16.741c0.026-0.017,0.053-0.033,0.079-0.05c0.005,0.004,0.009,0.009,0.014,0.013
			c-0.016,0.032-0.042,0.05-0.078,0.052C17.571,16.752,17.566,16.747,17.561,16.741z"/>
		<path class="st0" d="M17.705,16.651c0.03,0.039-0.006,0.046-0.028,0.06c-0.007-0.004-0.015-0.006-0.022-0.006
			c-0.005-0.004-0.01-0.009-0.014-0.013C17.658,16.671,17.676,16.652,17.705,16.651z"/>
		<path class="st5" d="M18.459,16c0.028,0.018,0.013,0.034-0.002,0.049c-0.015,0.015-0.031,0.031-0.049,0.003
			C18.409,16.02,18.427,16.003,18.459,16z"/>
		<path class="st5" d="M17.42,16.812c-0.018,0.028-0.045,0.026-0.073,0.024C17.368,16.818,17.392,16.809,17.42,16.812z"/>
		<path class="st5" d="M19.033,20.265c0.003-0.026-0.007-0.056,0.024-0.073C19.076,20.225,19.083,20.255,19.033,20.265z"/>
		<path class="st5" d="M18.791,17.061c0.02-0.02,0.037-0.071,0.07-0.036c0.026,0.027-0.018,0.044-0.039,0.061
			C18.812,17.077,18.801,17.069,18.791,17.061z"/>
		<path class="st5" d="M18.395,16.108c-0.015-0.002-0.03-0.003-0.044-0.005c0.011-0.025,0.026-0.046,0.056-0.05
			C18.443,16.08,18.417,16.093,18.395,16.108z"/>
		<path class="st5" d="M12.91,16.765c-0.028-0.009-0.027-0.031-0.026-0.054c0,0,0.009-0.006,0.009-0.006
			c0.027,0.007,0.029,0.028,0.028,0.05C12.917,16.758,12.913,16.762,12.91,16.765z"/>
		<path class="st5" d="M15.533,15.429c-0.029-0.007-0.039-0.026-0.037-0.054C15.526,15.38,15.529,15.405,15.533,15.429z"/>
		<path class="st5" d="M15.473,15.35c-0.027-0.009-0.028-0.031-0.029-0.054C15.48,15.3,15.49,15.318,15.473,15.35z"/>
		<path class="st5" d="M15.446,15.299c-0.027-0.009-0.032-0.029-0.028-0.054C15.449,15.252,15.46,15.269,15.446,15.299z"/>
		<path class="st3" d="M12.686,18.137c0.003-0.011,0.007-0.023,0.01-0.034c0.003,0.005,0.01,0.01,0.01,0.015
			c0,0.014-0.006,0.023-0.022,0.016C12.684,18.134,12.686,18.137,12.686,18.137z"/>
		<path class="st4" d="M17.237,12.281c-0.003,0.024-0.023,0.031-0.041,0.039c-0.006-0.007-0.011-0.013-0.017-0.02
			c0.015-0.022,0.033-0.037,0.06-0.018L17.237,12.281z"/>
		<path class="st5" d="M18.291,17.019c0.009-0.042,0.035-0.043,0.067-0.027C18.347,17.029,18.319,17.022,18.291,17.019z"/>
		<path class="st3" d="M14.749,17.156c-0.01,0.023-0.031,0.025-0.052,0.027c-0.006-0.011-0.012-0.022-0.019-0.032
			c0.014-0.008,0.028-0.016,0.042-0.024C14.73,17.136,14.739,17.146,14.749,17.156z"/>
		<path class="st3" d="M13.766,16.16c-0.021,0.003-0.036-0.004-0.038-0.028C13.75,16.129,13.762,16.138,13.766,16.16z"/>
		<path class="st5" d="M18.591,16.863c-0.007-0.025,0.002-0.034,0.027-0.028C18.62,16.854,18.61,16.863,18.591,16.863z"/>
		<path class="st5" d="M18.565,16.888c-0.014-0.033,0.003-0.034,0.028-0.027C18.595,16.882,18.584,16.889,18.565,16.888z"/>
		<path class="st5" d="M15.497,15.376c-0.021,0.001-0.025-0.012-0.027-0.029C15.502,15.336,15.498,15.358,15.497,15.376z"/>
		<polygon class="st3" points="12.711,15.637 12.707,15.634 12.711,15.636 		"/>
		<path class="st5" d="M15.394,15.22c-0.019-0.001-0.025-0.012-0.027-0.029C15.397,15.18,15.399,15.197,15.394,15.22z"/>
		<path class="st4" d="M15.272,15.059c-0.006,0.013-0.012,0.025-0.017,0.038c-0.016-0.004-0.024-0.014-0.023-0.031
			c0.011-0.002,0.023-0.004,0.034-0.007L15.272,15.059z"/>
		<path class="st5" d="M15.266,15.06c-0.011,0.002-0.023,0.004-0.034,0.007c-0.005-0.005-0.007-0.012-0.007-0.019
			c0.013-0.005,0.026-0.01,0.038-0.015c0.002,0.006,0.006,0.012,0.007,0.019C15.271,15.054,15.268,15.057,15.266,15.06z"/>
		<path class="st5" d="M15.419,15.246c-0.021,0.003-0.027-0.01-0.027-0.028C15.418,15.211,15.422,15.225,15.419,15.246z"/>
		<path class="st3" d="M13.799,16.184c-0.007-0.005-0.014-0.011-0.021-0.016C13.794,16.161,13.798,16.17,13.799,16.184z"/>
		<path class="st4" d="M15.162,12.345c-0.004-0.011-0.014-0.028-0.01-0.031c0.017-0.017,0.028-0.003,0.038,0.012
			C15.18,12.332,15.171,12.339,15.162,12.345z"/>
		<path class="st4" d="M15.127,12.289c0,0.003,0,0.006-0.001,0.008c-0.002,0.002-0.006,0.004-0.008,0.003
			c-0.01-0.006-0.01-0.012,0.002-0.015C15.121,12.284,15.124,12.287,15.127,12.289z"/>
		<path class="st4" d="M17.24,12.283c0-0.006,0.001-0.012,0.001-0.018c0.004,0,0.008,0.001,0.012,0.001
			c-0.005,0.005-0.01,0.01-0.015,0.015C17.237,12.281,17.24,12.283,17.24,12.283z"/>
		<path class="st5" d="M18.617,16.836c-0.004-0.022-0.007-0.043,0.027-0.029C18.642,16.824,18.637,16.837,18.617,16.836z"/>
		<path class="st3" d="M13.054,15.999c-0.013,0-0.026,0-0.038-0.001C13.029,15.998,13.042,15.999,13.054,15.999z"/>
		<path class="st4" d="M20.125,12.127c-0.113-0.109-0.113-0.109-0.15,0.031c-0.075-0.03-0.147-0.052-0.235-0.036
			c-0.082,0.015-0.17-0.001-0.256-0.01c-0.179-0.018-0.361-0.036-0.538,0.021c0.036-0.099,0.114-0.16,0.195-0.218
			c0.055-0.039,0.11-0.074,0.005-0.121c-0.065-0.028-0.027-0.059,0.002-0.086c0.094-0.083,0.199-0.153,0.309-0.214
			c0.032-0.018,0.074-0.025,0.093-0.072c-0.068-0.048-0.147-0.05-0.221-0.066c-0.061-0.012-0.073-0.034-0.041-0.085
			c0.109-0.177,0.218-0.354,0.327-0.531c0.041-0.066,0.08-0.063,0.129-0.004c0.069,0.083,0.149,0.158,0.215,0.243
			c0.061,0.079,0.098,0.08,0.165-0.001c0.216-0.259,0.442-0.511,0.663-0.765c0.014-0.016,0.024-0.037,0.066-0.029
			c-0.102,0.675-0.15,1.357-0.282,2.028c-0.056-0.028-0.001-0.132-0.075-0.133C20.372,12.078,20.239,12.034,20.125,12.127z"/>
		<path class="st3" d="M18.946,12.132c0.177-0.057,0.36-0.039,0.538-0.021c0.086,0.009,0.174,0.025,0.256,0.01
			c0.088-0.016,0.159,0.007,0.235,0.036c-0.02,0.244-0.037,0.487-0.062,0.73c-0.011,0.11-0.19,0.169-0.274,0.086
			c-0.235-0.233-0.484-0.45-0.748-0.651C18.8,12.253,18.916,12.194,18.946,12.132z"/>
		<path class="st3" d="M20.125,12.127c0.114-0.093,0.248-0.049,0.373-0.047c0.074,0.001,0.02,0.104,0.075,0.133
			c-0.011,0.093-0.023,0.186-0.038,0.312C20.395,12.374,20.24,12.273,20.125,12.127z"/>
		<path class="st4" d="M11.746,12.415c-0.146-0.729-0.209-1.469-0.314-2.234c0.156,0.133,0.257,0.276,0.374,0.404
			c0.128,0.139,0.251,0.283,0.369,0.431c0.059,0.074,0.095,0.061,0.148-0.003c0.074-0.09,0.157-0.173,0.233-0.262
			c0.044-0.051,0.079-0.046,0.111,0.007c0.114,0.184,0.227,0.368,0.34,0.552c0.027,0.044,0.007,0.06-0.037,0.069
			c-0.08,0.016-0.159,0.036-0.246,0.056c0.038,0.074,0.102,0.1,0.163,0.125c0.09,0.037,0.161,0.099,0.237,0.157
			c0.053,0.04,0.085,0.079-0.005,0.116c-0.062,0.025-0.037,0.063,0.001,0.084c0.1,0.053,0.155,0.148,0.222,0.231
			c-0.038,0.042-0.089,0.035-0.134,0.027c-0.299-0.052-0.596-0.015-0.894,0.008c-0.015-0.092-0.033-0.163-0.129-0.048
			c-0.042,0.051-0.1,0.089-0.15,0.133c0.015-0.169-0.112-0.106-0.192-0.116c-0.085-0.011-0.108,0.034-0.089,0.108
			C11.769,12.314,11.796,12.366,11.746,12.415z"/>
		<path class="st3" d="M12.315,12.183c0.298-0.023,0.595-0.06,0.894-0.008c0.044,0.008,0.096,0.015,0.134-0.027
			c0.097,0.166,0.095,0.163-0.052,0.28c-0.213,0.169-0.424,0.342-0.605,0.545c-0.074,0.083-0.15,0.062-0.235,0.037
			c-0.087-0.025-0.073-0.096-0.077-0.158C12.361,12.629,12.305,12.409,12.315,12.183z"/>
		<path class="st3" d="M11.746,12.415c0.05-0.049,0.023-0.101,0.009-0.155c-0.019-0.074,0.004-0.119,0.089-0.108
			c0.08,0.011,0.207-0.053,0.192,0.116c-0.059,0.119-0.182,0.17-0.267,0.265C11.736,12.491,11.749,12.452,11.746,12.415z"/>
		<path class="st3" d="M17.654,16.705c0.008,0,0.015,0.002,0.022,0.006c0.044,0.112,0.054,0.244,0.186,0.302
			c-0.157,0.021-0.28-0.056-0.403-0.14c0.029-0.05,0.097-0.059,0.116-0.116C17.612,16.754,17.638,16.737,17.654,16.705z"/>
		<path class="st0" d="M18.377,16.458c-0.008,0.009-0.017,0.017-0.025,0.026c-0.01-0.007-0.02-0.015-0.03-0.022
			c0.01-0.007,0.019-0.015,0.029-0.022C18.36,16.445,18.369,16.452,18.377,16.458z"/>
		<path class="st0" d="M18.403,16.432c-0.009,0.009-0.017,0.017-0.026,0.026c-0.008-0.006-0.017-0.012-0.025-0.018
			c0.009-0.009,0.017-0.018,0.026-0.027C18.386,16.419,18.395,16.426,18.403,16.432z"/>
		<path class="st0" d="M18.435,16.402c-0.011,0.01-0.021,0.02-0.032,0.03c-0.009-0.006-0.017-0.013-0.026-0.019
			c0.009-0.009,0.018-0.017,0.027-0.026C18.414,16.392,18.424,16.397,18.435,16.402z"/>
		<path class="st0" d="M18.445,16.391c-0.003,0.003-0.007,0.007-0.01,0.01c-0.01-0.005-0.02-0.009-0.031-0.014
			c0.007-0.01,0.015-0.019,0.022-0.029C18.432,16.369,18.439,16.38,18.445,16.391z"/>
		<path class="st1" d="M18.426,16.358c-0.007,0.01-0.015,0.019-0.022,0.029c-0.009,0.009-0.018,0.017-0.027,0.026
			c-0.009,0.009-0.017,0.018-0.026,0.027c-0.01,0.007-0.019,0.015-0.029,0.022c-0.057,0-0.124-0.001-0.12-0.077
			c0.003-0.066,0.059-0.105,0.124-0.102C18.37,16.284,18.45,16.26,18.426,16.358z"/>
		<path class="st1" d="M18.051,16.47c0.047-0.001,0.077,0.005,0.078,0.044c0.001,0.037-0.017,0.067-0.06,0.066
			c-0.036-0.001-0.071-0.013-0.073-0.054C17.993,16.482,18.031,16.475,18.051,16.47z"/>
		<path class="st2" d="M13.318,16.032c0.088-0.064,0.161-0.039,0.232,0.033c0.029,0.029,0.068,0.049,0.102,0.073
			c0.011,0.025,0.007,0.048-0.004,0.074c-0.058,0.149-0.034,0.21,0.103,0.297c0.044,0.028,0.081,0.065,0.121,0.098
			c0.136,0.113,0.236,0.113,0.382-0.001c0.082,0.078,0.195,0.125,0.155,0.286c-0.028,0.113-0.113,0.098-0.175,0.138
			c-0.118,0.015-0.235-0.005-0.352-0.013c-0.061-0.027-0.117-0.068-0.185-0.077l0.001,0.001c0.003-0.021-0.008-0.028-0.027-0.027
			l0.001,0.001c0.002-0.02-0.007-0.029-0.027-0.027l0.001,0.001c0-0.019-0.008-0.028-0.027-0.027l0.001,0.001
			c0.003-0.021-0.006-0.03-0.027-0.027l0.001,0.001c0.001-0.019-0.008-0.029-0.027-0.027l0.001,0.001
			c-0.005-0.052-0.035-0.084-0.08-0.105l0.001,0.002c0.003-0.04-0.013-0.068-0.053-0.08l0.001,0.001
			c0.002-0.019,0.003-0.038-0.026-0.027l0,0c0.014-0.03,0.006-0.047-0.027-0.053l0.001,0.001c0.007-0.026,0.003-0.047-0.027-0.053
			l0.001,0.002c0.001-0.018,0.007-0.041-0.026-0.028c0,0,0.001,0.001,0.001,0.001c0.003-0.146,0.006-0.291-0.018-0.435
			L13.318,16.032z"/>
		<path class="st1" d="M13.913,16.394c-0.004,0.041-0.025,0.069-0.062,0.07c-0.064,0.002-0.101-0.047-0.118-0.098
			c-0.006-0.019,0.002-0.074,0.057-0.078C13.873,16.282,13.88,16.351,13.913,16.394z"/>
		<path class="st1" d="M14.108,16.549c-0.001,0.034-0.019,0.047-0.049,0.049c-0.041,0.002-0.051-0.023-0.05-0.057
			c0.001-0.033,0.011-0.064,0.051-0.058C14.094,16.489,14.096,16.526,14.108,16.549z"/>
		<path class="st1" d="M14.72,17.126c-0.014,0.008-0.028,0.016-0.042,0.024c-0.15,0.041-0.299,0.084-0.449,0.124
			c-0.408,0.11-0.77,0.046-1.062-0.281c0.006-0.016,0.002-0.025-0.017-0.019c0,0-0.006-0.006-0.006-0.006
			c-0.014-0.054-0.03-0.107-0.07-0.148c-0.14-0.141-0.197-0.331-0.298-0.495c-0.046-0.075-0.02-0.125,0.075-0.145
			c0.098-0.021,0.196-0.021,0.294-0.026c0.075-0.004,0.101,0.025,0.098,0.097c-0.003,0.073,0,0.146,0.064,0.199
			c0.002,0.017,0.011,0.025,0.028,0.023c0,0-0.001-0.001-0.001-0.001c-0.002,0.019-0.005,0.039,0.026,0.028
			c0,0-0.001-0.002-0.001-0.002c-0.02,0.033-0.013,0.052,0.027,0.053c0,0-0.001-0.001-0.001-0.001
			c-0.019,0.032-0.008,0.048,0.027,0.053c0,0,0,0,0,0c-0.004,0.021-0.004,0.039,0.026,0.027c0,0-0.001-0.001-0.001-0.001
			c-0.012,0.046-0.001,0.077,0.053,0.08c0,0-0.001-0.002-0.001-0.002c-0.012,0.065,0.023,0.094,0.08,0.105
			c0,0-0.001-0.001-0.001-0.001c-0.007,0.025,0,0.037,0.027,0.027c0,0-0.001-0.001-0.001-0.001
			c-0.009,0.027-0.002,0.038,0.027,0.027c0,0-0.001-0.001-0.001-0.001c-0.009,0.027-0.003,0.039,0.027,0.027
			c0,0-0.001-0.001-0.001-0.001c-0.011,0.029-0.001,0.038,0.027,0.027c0,0-0.001-0.001-0.001-0.001
			c-0.011,0.03-0.001,0.038,0.027,0.027c0,0-0.001-0.001-0.001-0.001c0.027,0.091,0.111,0.096,0.182,0.121
			c0.119,0.065,0.245,0.026,0.368,0.025c0.126-0.028,0.257-0.054,0.362-0.128c0.099-0.069,0.13,0.008,0.171,0.058
			C14.84,17.09,14.742,17.09,14.72,17.126z"/>
		<path class="st4" d="M13.306,16.449c-0.064-0.053-0.067-0.126-0.064-0.199c0.003-0.072-0.023-0.101-0.098-0.097
			c-0.099,0.005-0.196,0.005-0.294,0.026c-0.095,0.02-0.121,0.071-0.075,0.145c0.101,0.164,0.159,0.355,0.298,0.495
			c0.041,0.041,0.056,0.094,0.07,0.148c-0.014-0.002-0.028-0.003-0.042-0.005c-0.02-0.064-0.066-0.105-0.121-0.138
			c-0.013-0.03-0.016-0.068-0.061-0.07c0.001-0.022-0.001-0.043-0.028-0.05c-0.024-0.132-0.097-0.239-0.179-0.341
			c-0.031-0.077-0.06-0.156-0.132-0.207c-0.003-0.057-0.097-0.094-0.061-0.141c0.034-0.044,0.114-0.017,0.172-0.011
			c0.188,0.019,0.374,0.055,0.564,0.046C13.322,16.178,13.264,16.32,13.306,16.449z"/>
		<path class="st4" d="M13.15,16.974c0.019-0.006,0.022,0.003,0.017,0.019C13.162,16.987,13.156,16.98,13.15,16.974z"/>
		<path class="st4" d="M14.246,17.086c-0.123,0.001-0.249,0.041-0.368-0.025c0.001-0.014,0.002-0.029,0.003-0.043
			c0.117,0.008,0.234,0.028,0.352,0.013C14.238,17.049,14.242,17.067,14.246,17.086z"/>
		<path class="st3" d="M13.306,16.449c-0.043-0.129,0.016-0.271-0.05-0.397c0.016-0.02,0.037-0.021,0.059-0.015
			c0.024,0.144,0.021,0.29,0.018,0.435C13.317,16.474,13.308,16.465,13.306,16.449z"/>
		<path class="st3" d="M13.882,17.017c-0.001,0.014-0.002,0.029-0.003,0.043c-0.071-0.025-0.155-0.029-0.182-0.121
			C13.765,16.949,13.821,16.99,13.882,17.017z"/>
		<path class="st3" d="M13.568,16.811c-0.057-0.012-0.092-0.041-0.08-0.105C13.533,16.726,13.563,16.759,13.568,16.811z"/>
		<path class="st3" d="M13.489,16.707c-0.054-0.002-0.064-0.034-0.053-0.08C13.476,16.639,13.492,16.667,13.489,16.707z"/>
		<path class="st3" d="M13.411,16.602c-0.035-0.004-0.046-0.021-0.027-0.053C13.417,16.555,13.425,16.572,13.411,16.602z"/>
		<path class="st3" d="M13.385,16.55c-0.04-0.002-0.048-0.021-0.027-0.053C13.389,16.504,13.392,16.524,13.385,16.55z"/>
		<path class="st3" d="M13.646,16.889c-0.03,0.011-0.036,0-0.027-0.027C13.637,16.861,13.646,16.871,13.646,16.889z"/>
		<path class="st3" d="M13.437,16.629c-0.03,0.011-0.03-0.006-0.026-0.027C13.44,16.591,13.439,16.61,13.437,16.629z"/>
		<path class="st3" d="M13.672,16.915c-0.029,0.011-0.038,0.002-0.027-0.027C13.664,16.886,13.673,16.895,13.672,16.915z"/>
		<path class="st3" d="M13.698,16.941c-0.029,0.011-0.038,0.003-0.027-0.027C13.69,16.913,13.7,16.92,13.698,16.941z"/>
		<path class="st3" d="M13.359,16.499c-0.031,0.012-0.028-0.009-0.026-0.028C13.366,16.458,13.36,16.481,13.359,16.499z"/>
		<path class="st3" d="M13.594,16.837c-0.028,0.009-0.034-0.002-0.027-0.027C13.586,16.808,13.595,16.818,13.594,16.837z"/>
		<path class="st3" d="M13.619,16.863c-0.029,0.01-0.036,0-0.027-0.027C13.614,16.833,13.623,16.842,13.619,16.863z"/>
	</g>
</g>
</svg>
