<?xml version="1.0" encoding="utf-8"?>
<!-- Generator: Adobe Illustrator 25.3.1, SVG Export Plug-In . SVG Version: 6.00 Build 0)  -->
<svg version="1.1" id="Layer_1" xmlns="http://www.w3.org/2000/svg" xmlns:xlink="http://www.w3.org/1999/xlink" x="0px" y="0px"
	 viewBox="0 0 32 32" style="enable-background:new 0 0 32 32;" xml:space="preserve">
<style type="text/css">
	.st0{fill:#FFFFFF;}
	.st1{fill:url(#SVGID_1_);}
	.st2{fill:url(#SVGID_2_);}
	.st3{fill:url(#SVGID_3_);}
	.st4{fill:url(#SVGID_4_);}
</style>
<g>
	<ellipse class="st0" cx="16.356" cy="15.972" rx="15.245" ry="15.028"/>
	<g transform="matrix(5.9075 0 0 -5.9075 0 264.58)">
		
			<radialGradient id="SVGID_1_" cx="-159.5108" cy="-49.5338" r="0.0312" gradientTransform="matrix(888.0675 -888.0675 -888.0675 -888.0675 97667.9453 -185601.5312)" gradientUnits="userSpaceOnUse">
			<stop  offset="0" style="stop-color:#F76E11"/>
			<stop  offset="0.006" style="stop-color:#F76E11"/>
			<stop  offset="0.4698" style="stop-color:#E00A3D"/>
			<stop  offset="1" style="stop-color:#4E1689"/>
		</radialGradient>
		<path class="st1" d="M2.708,44.719c-1.456,0-2.641-1.185-2.641-2.641c0-1.456,1.185-2.641,2.641-2.641s2.641,1.185,2.641,2.641
			C5.349,43.535,4.165,44.719,2.708,44.719z M0.331,42.07c0,1.306,1.062,2.368,2.368,2.368c1.306,0,2.368-1.062,2.368-2.368
			c0-1.306-1.062-2.368-2.368-2.368C1.394,39.702,0.331,40.764,0.331,42.07"/>
	</g>
	<g transform="matrix(5.9075 0 0 -5.9075 0 264.58)">
		
			<radialGradient id="SVGID_2_" cx="-159.5108" cy="-49.5338" r="0.0312" gradientTransform="matrix(888.0675 -888.0675 -888.0675 -888.0675 97667.9453 -185601.5312)" gradientUnits="userSpaceOnUse">
			<stop  offset="0" style="stop-color:#F76E11"/>
			<stop  offset="0.006" style="stop-color:#F76E11"/>
			<stop  offset="0.4698" style="stop-color:#E00A3D"/>
			<stop  offset="1" style="stop-color:#4E1689"/>
		</radialGradient>
		<path class="st2" d="M3.332,43.18c-0.01,0-0.018-0.006-0.022-0.014l-0.601-1.337l-0.109,0.242
			c-0.004,0.009-0.013,0.014-0.022,0.014h-0.92c-0.018,0-0.029-0.018-0.022-0.034l0.58-1.288c0.004-0.009,0.013-0.014,0.022-0.014
			l0.958-0.001v0.001l0.682,1.517C3.881,42.275,3.89,42.28,3.9,42.28H4.12c0.01,0,0.018,0.006,0.022,0.014l0.087,0.195
			c0.007,0.016-0.004,0.034-0.022,0.034H3.993l0.048,0.107c0.004,0.009,0.012,0.014,0.022,0.014h0.22
			c0.01,0,0.018,0.006,0.022,0.014l0.087,0.195c0.007,0.016-0.005,0.034-0.022,0.034H4.176c-0.009,0-0.015,0.009-0.011,0.017
			l0.108,0.24c0.007,0.016-0.004,0.034-0.022,0.034H3.332z"/>
	</g>
	<g transform="matrix(5.9075 0 0 -5.9075 0 264.58)">
		
			<radialGradient id="SVGID_3_" cx="-159.5108" cy="-49.5338" r="0.0312" gradientTransform="matrix(888.0675 -888.0675 -888.0675 -888.0675 97667.9453 -185601.5312)" gradientUnits="userSpaceOnUse">
			<stop  offset="0" style="stop-color:#F76E11"/>
			<stop  offset="0.006" style="stop-color:#F76E11"/>
			<stop  offset="0.4698" style="stop-color:#E00A3D"/>
			<stop  offset="1" style="stop-color:#4E1689"/>
		</radialGradient>
		<path class="st3" d="M1.165,43.18c-0.018,0-0.029-0.018-0.022-0.034l0.108-0.24c0.004-0.008-0.002-0.017-0.011-0.017H1.046
			c-0.018,0-0.029-0.018-0.022-0.034l0.087-0.195c0.004-0.009,0.013-0.015,0.022-0.015h1.669c0.01,0,0.018,0.006,0.022,0.014
			l0.088,0.195c0.007,0.016-0.004,0.034-0.022,0.034H2.247c-0.01,0-0.018,0.006-0.022,0.014l-0.118,0.263
			c-0.004,0.009-0.013,0.014-0.022,0.014H1.165z"/>
	</g>
	<g transform="matrix(5.9075 0 0 -5.9075 0 264.58)">
		
			<radialGradient id="SVGID_4_" cx="-159.5108" cy="-49.5338" r="0.0312" gradientTransform="matrix(888.0675 -888.0675 -888.0675 -888.0675 97667.9453 -185601.5312)" gradientUnits="userSpaceOnUse">
			<stop  offset="0" style="stop-color:#F76E11"/>
			<stop  offset="0.006" style="stop-color:#F76E11"/>
			<stop  offset="0.4698" style="stop-color:#E00A3D"/>
			<stop  offset="1" style="stop-color:#4E1689"/>
		</radialGradient>
		<path class="st4" d="M1.21,42.523c-0.018,0-0.029-0.018-0.022-0.034l0.087-0.194c0.004-0.009,0.013-0.014,0.022-0.014h1.342
			c0.009,0,0.018,0.006,0.022,0.014l0.087,0.194c0.007,0.016-0.005,0.034-0.022,0.034H1.21z"/>
	</g>
</g>
</svg>
