<svg id="Layer_1" data-name="Layer 1" xmlns="http://www.w3.org/2000/svg" viewBox="0 0 31.727 31.711"><defs><style>.cls-1{fill:#ebc048;}</style></defs><path d="M31.858,15.611a15.461,15.461,0,0,1-4.937,11.877,15.3,15.3,0,0,1-11.164,4.366A15.36,15.36,0,0,1,4.473,26.9,15.322,15.322,0,0,1,.139,15.754,15.37,15.37,0,0,1,5.1,4.472,15.332,15.332,0,0,1,16.235.147a15.389,15.389,0,0,1,11.283,4.96A15.823,15.823,0,0,1,31.858,15.611ZM9.565,10.02l-.022.037-.061.05A5.558,5.558,0,0,0,7.31,14.335c-.047,1.212-.013,2.427-.013,3.64a2.341,2.341,0,0,0,.063.52,6.35,6.35,0,0,0,.889,1.989,20.75,20.75,0,0,0,4.787,5.182,8.881,8.881,0,0,0,2.18,1.317,2.008,2.008,0,0,0,1.559,0,7.527,7.527,0,0,0,1.42-.771,20.765,20.765,0,0,0,4.087-3.75,14.321,14.321,0,0,0,1.865-2.7,4.556,4.556,0,0,0,.551-2.27c-.03-.969-.007-1.94-.007-2.909a5.561,5.561,0,0,0-.677-2.665.452.452,0,0,0-.716-.177,16.2,16.2,0,0,1-4.93,2.282c-.158.044-.317.082-.476.124-.076.021-.14.009-.17-.07s.024-.128.091-.159l.116-.052a17.3,17.3,0,0,0,3.24-1.833A4.594,4.594,0,0,0,22.4,10.763a1.212,1.212,0,0,0,.22-.622A5.387,5.387,0,0,0,22.5,8.975a4.616,4.616,0,0,0-2.443-3.143,8.531,8.531,0,0,0-3.937-.979,7.661,7.661,0,0,0-2.282.358A20.848,20.848,0,0,0,3.593,11.74c-.215.247-.417.507-.623.762a.235.235,0,0,0,.314.346c.054-.034.1-.072.158-.108a18.8,18.8,0,0,1,4.283-2.258A9.3,9.3,0,0,1,9.565,10.02Z" transform="translate(-0.136 -0.144)"/><path class="cls-1" d="M9.565,10.02a9.3,9.3,0,0,0-1.84.462A18.8,18.8,0,0,0,3.442,12.74c-.053.036-.1.074-.158.108A.235.235,0,0,1,2.97,12.5c.206-.255.408-.515.623-.762a20.848,20.848,0,0,1,10.24-6.529,7.661,7.661,0,0,1,2.282-.358,8.531,8.531,0,0,1,3.937.979A4.616,4.616,0,0,1,22.5,8.975a5.387,5.387,0,0,1,.126,1.166,1.212,1.212,0,0,1-.22.622,4.594,4.594,0,0,1-1.232,1.269,17.3,17.3,0,0,1-3.24,1.833l-.116.052c-.067.031-.122.074-.091.159s.094.091.17.07c.159-.042.318-.08.476-.124A16.2,16.2,0,0,0,23.3,11.74a.452.452,0,0,1,.716.177,5.561,5.561,0,0,1,.677,2.665c0,.969-.023,1.94.007,2.909a4.556,4.556,0,0,1-.551,2.27,14.321,14.321,0,0,1-1.865,2.7A20.765,20.765,0,0,1,18.2,26.21a7.527,7.527,0,0,1-1.42.771,2.008,2.008,0,0,1-1.559,0,8.881,8.881,0,0,1-2.18-1.317,20.75,20.75,0,0,1-4.787-5.182A6.35,6.35,0,0,1,7.36,18.5a2.341,2.341,0,0,1-.063-.52c0-1.213-.034-2.428.013-3.64a5.558,5.558,0,0,1,2.172-4.228l.061-.05ZM14.621,21c.06,0,.122.011.151-.057s-.021-.108-.063-.148c-.316-.306-.62-.624-.908-.956A15.645,15.645,0,0,1,11.039,15.6c-.023-.056-.042-.114-.117-.109-.1.007-.1.087-.108.152a11.076,11.076,0,0,0-.1,3.133,1.176,1.176,0,0,0,.389.778A5.937,5.937,0,0,0,14.621,21Zm6.716-3.531a9.7,9.7,0,0,0-.169-1.832c-.01-.061-.014-.134-.1-.143s-.1.056-.128.115c-.075.175-.145.352-.229.523a17.42,17.42,0,0,1-3.4,4.626c-.052.052-.149.095-.1.192s.143.05.216.04a10.28,10.28,0,0,0,1.015-.184,4.871,4.871,0,0,0,2.664-1.5.438.438,0,0,0,.118-.252A12.913,12.913,0,0,0,21.337,17.464Z" transform="translate(-0.136 -0.144)"/><path d="M14.621,21A5.937,5.937,0,0,1,11.1,19.551a1.176,1.176,0,0,1-.389-.778,11.076,11.076,0,0,1,.1-3.133c.012-.065.013-.145.108-.152.075,0,.094.053.117.109A15.645,15.645,0,0,0,13.8,19.834c.288.332.592.65.908.956.042.04.093.08.063.148S14.681,21,14.621,21Z" transform="translate(-0.136 -0.144)"/><path d="M21.337,17.464a12.913,12.913,0,0,1-.106,1.584.438.438,0,0,1-.118.252,4.871,4.871,0,0,1-2.664,1.5,10.28,10.28,0,0,1-1.015.184c-.073.01-.167.052-.216-.04s.045-.14.1-.192a17.42,17.42,0,0,0,3.4-4.626c.084-.171.154-.348.229-.523.026-.059.043-.125.128-.115s.089.082.1.143A9.7,9.7,0,0,1,21.337,17.464Z" transform="translate(-0.136 -0.144)"/></svg>