<?xml version="1.0" encoding="utf-8"?>
<!-- Generator: Adobe Illustrator 28.0.0, SVG Export Plug-In . SVG Version: 6.00 Build 0)  -->
<svg version="1.1" id="Layer_1" xmlns="http://www.w3.org/2000/svg" xmlns:xlink="http://www.w3.org/1999/xlink" x="0px" y="0px"
	 viewBox="0 0 32 32" style="enable-background:new 0 0 32 32;" xml:space="preserve">
<style type="text/css">
	.st0{fill:#FFFFFF;}
	.st1{fill:#5A5564;}
	.st2{fill:#F09242;}
	.st3{fill:#282138;}
</style>
<g>
	<circle class="st0" cx="15.806" cy="16.083" r="15.306"/>
	<g id="Layer_2_00000084527758247055630030000012830639763749857182_">
		<g id="Layer_1-2">
			<g id="Page-1">
				<g id="wbtc_colour">
					<path id="Shape" class="st1" d="M25.907,6.889l-0.865,0.865c4.278,4.678,4.278,11.848,0,16.526l0.865,0.865
						c4.759-5.162,4.759-13.113,0-18.276V6.889z"/>
					<path id="Shape-2" class="st1" d="M7.718,6.964c4.678-4.278,11.848-4.278,16.526,0l0.865-0.865
						c-5.162-4.759-13.113-4.759-18.276,0L7.718,6.964z"/>
					<path id="Shape-3" class="st1" d="M6.908,24.288c-4.272-4.677-4.272-11.84,0-16.517L6.043,6.906
						c-4.759,5.162-4.759,13.113,0,18.276L6.908,24.288z"/>
					<path id="Shape-4" class="st1" d="M24.232,25.086c-4.678,4.278-11.848,4.278-16.526,0l-0.865,0.865
						c5.162,4.759,13.113,4.759,18.276,0L24.232,25.086z"/>
					<path id="Shape-5" class="st2" d="M21.433,13.142c-0.173-1.805-1.73-2.41-3.699-2.595V8.062h-1.522v2.439
						c-0.401,0-0.81,0-1.217,0V8.062h-1.511v2.502h-3.088v1.629c0,0,1.124-0.02,1.107,0c0.421-0.046,0.804,0.249,0.865,0.669v6.85
						c-0.009,0.144-0.075,0.278-0.185,0.372c-0.107,0.096-0.249,0.144-0.392,0.133c0.02,0.017-1.107,0-1.107,0l-0.288,1.819h3.059
						v2.543h1.522v-2.505h1.217v2.494h1.525v-2.514c2.572-0.156,4.365-0.79,4.59-3.197c0.182-1.937-0.729-2.802-2.185-3.151
						C21.009,15.27,21.557,14.462,21.433,13.142z M19.299,18.556c0,1.891-3.241,1.675-4.273,1.675v-3.356
						C16.059,16.878,19.299,16.581,19.299,18.556z M18.593,13.828c0,1.73-2.704,1.519-3.563,1.519v-3.05
						C15.889,12.297,18.593,12.026,18.593,13.828z"/>
					<path id="Shape-6" class="st3" d="M15.969,31.778C7.271,31.776,0.221,24.723,0.222,16.025S7.277,0.276,15.975,0.278
						c8.696,0.002,15.746,7.051,15.747,15.747c0.002,8.698-7.049,15.751-15.747,15.753C15.973,31.778,15.971,31.778,15.969,31.778z
						 M15.969,1.506C7.954,1.512,1.461,8.015,1.468,16.031c0.006,8.015,6.509,14.508,14.525,14.502
						c8.009-0.006,14.498-6.499,14.502-14.507c0.003-8.015-6.492-14.516-14.507-14.519C15.981,1.506,15.975,1.506,15.969,1.506z"/>
				</g>
			</g>
		</g>
	</g>
</g>
</svg>
