<?xml version="1.0" encoding="utf-8"?>
<!-- Generator: Adobe Illustrator 26.0.1, SVG Export Plug-In . SVG Version: 6.00 Build 0)  -->
<svg version="1.1" id="Layer_1" xmlns="http://www.w3.org/2000/svg" xmlns:xlink="http://www.w3.org/1999/xlink" x="0px" y="0px"
	 viewBox="0 0 32 32" style="enable-background:new 0 0 32 32;" xml:space="preserve">
<style type="text/css">
	.st0{fill-rule:evenodd;clip-rule:evenodd;}
	.st1{fill:#FFFFFF;}
</style>
<g>
	<circle class="st0" cx="16" cy="16" r="16"/>
	<g id="layer2">
		<ellipse id="path7748" class="st1" cx="10.524" cy="4.227" rx="0.835" ry="0.904"/>
		<ellipse id="ellipse7754" class="st1" cx="9.117" cy="5.85" rx="0.786" ry="0.851"/>
		<ellipse id="ellipse7756" class="st1" cx="12.137" cy="7.593" rx="0.786" ry="0.851"/>
		<ellipse id="ellipse7758" class="st1" cx="15.354" cy="3.741" rx="0.786" ry="0.851"/>
		<ellipse id="ellipse7760" class="st1" cx="23.641" cy="5.375" rx="0.786" ry="0.851"/>
		<ellipse id="ellipse7762" class="st1" cx="26.611" cy="13.523" rx="0.786" ry="0.851"/>
		<ellipse id="ellipse7764" class="st1" cx="28.7" cy="13.087" rx="0.786" ry="0.851"/>
		<ellipse id="ellipse7766" class="st1" cx="28.799" cy="14.928" rx="0.786" ry="0.851"/>
		<ellipse id="ellipse7768" class="st1" cx="9.041" cy="26.135" rx="0.91" ry="0.986"/>
		<ellipse id="ellipse7770" class="st1" cx="24.276" cy="19.08" rx="0.599" ry="0.648"/>
		<ellipse id="ellipse7772" class="st1" cx="25.718" cy="17.022" rx="0.599" ry="0.648"/>
		<ellipse id="ellipse7774" class="st1" cx="26.768" cy="11.841" rx="0.599" ry="0.648"/>
		<ellipse id="ellipse7776" class="st1" cx="7.363" cy="17.386" rx="0.599" ry="0.648"/>
		<ellipse id="ellipse7778" class="st1" cx="4.535" cy="16.084" rx="0.599" ry="0.648"/>
		<ellipse id="ellipse7780" class="st1" cx="3.014" cy="18.073" rx="0.599" ry="0.648"/>
		<ellipse id="ellipse7782" class="st1" cx="21.266" cy="5.345" rx="0.599" ry="0.648"/>
		<ellipse id="ellipse7784" class="st1" cx="18.704" cy="2.979" rx="0.599" ry="0.648"/>
		<ellipse id="ellipse7786" class="st1" cx="12.974" cy="4.015" rx="0.637" ry="0.69"/>
		<ellipse id="ellipse7788" class="st1" cx="10.129" cy="7.858" rx="0.758" ry="0.822"/>
		<ellipse id="ellipse7790" class="st1" cx="18.172" cy="25.086" rx="0.624" ry="0.676"/>
		<ellipse id="ellipse7792" class="st1" cx="18.904" cy="26.85" rx="0.656" ry="0.711"/>
		<ellipse id="ellipse7794" class="st1" cx="25.046" cy="25.8" rx="0.624" ry="0.676"/>
		<ellipse id="ellipse7796" class="st1" cx="22.218" cy="21.488" rx="0.624" ry="0.676"/>
		<ellipse id="ellipse7798" class="st1" cx="27.482" cy="21.432" rx="0.624" ry="0.676"/>
		<ellipse id="ellipse7800" class="st1" cx="15.988" cy="6.157" rx="0.624" ry="0.676"/>
		<ellipse id="ellipse7802" class="st1" cx="7.727" cy="11.638" rx="0.579" ry="0.627"/>
		<ellipse id="ellipse7804" class="st1" cx="9.142" cy="10.924" rx="0.579" ry="0.627"/>
		<ellipse id="ellipse7806" class="st1" cx="5.893" cy="12.03" rx="0.579" ry="0.627"/>
		<ellipse id="ellipse7808" class="st1" cx="8.386" cy="19.983" rx="0.579" ry="0.627"/>
		<ellipse id="ellipse7810" class="st1" cx="11.998" cy="27.347" rx="0.579" ry="0.627"/>
		<ellipse id="ellipse7812" class="st1" cx="6.117" cy="16.014" rx="0.443" ry="0.48"/>
		<ellipse id="ellipse7814" class="st1" cx="7.447" cy="13.003" rx="0.443" ry="0.48"/>
		<ellipse id="ellipse7816" class="st1" cx="11.032" cy="9.405" rx="0.443" ry="0.48"/>
		<ellipse id="ellipse7818" class="st1" cx="20.02" cy="7.361" rx="0.443" ry="0.48"/>
		<ellipse id="ellipse7820" class="st1" cx="19.446" cy="4.561" rx="0.443" ry="0.48"/>
		<ellipse id="ellipse7822" class="st1" cx="20.524" cy="3.721" rx="0.443" ry="0.48"/>
		<ellipse id="ellipse7824" class="st1" cx="26.047" cy="10.525" rx="0.492" ry="0.533"/>
		<ellipse id="ellipse7826" class="st1" cx="28.015" cy="10.357" rx="0.443" ry="0.48"/>
		<ellipse id="ellipse7828" class="st1" cx="25.757" cy="18.45" rx="0.482" ry="0.522"/>
		<ellipse id="ellipse7830" class="st1" cx="25.522" cy="19.878" rx="0.495" ry="0.536"/>
		<ellipse id="ellipse7832" class="st1" cx="26.649" cy="15.306" rx="0.562" ry="0.609"/>
		<ellipse id="ellipse7834" class="st1" cx="23.576" cy="12.772" rx="0.359" ry="0.389"/>
		<ellipse id="ellipse7836" class="st1" cx="8.974" cy="22.391" rx="0.359" ry="0.389"/>
		<ellipse id="ellipse7838" class="st1" cx="4.318" cy="21.049" rx="0.505" ry="0.547"/>
		<ellipse id="ellipse7840" class="st1" cx="6.391" cy="21.128" rx="0.517" ry="0.56"/>
		<ellipse id="ellipse7842" class="st1" cx="11.649" cy="24.617" rx="0.515" ry="0.557"/>
		<ellipse id="ellipse7844" class="st1" cx="13.594" cy="25.993" rx="0.511" ry="0.554"/>
		<ellipse id="ellipse7846" class="st1" cx="14.813" cy="25.17" rx="0.482" ry="0.522"/>
		<ellipse id="ellipse7848" class="st1" cx="14.001" cy="28.936" rx="0.482" ry="0.522"/>
		<ellipse id="ellipse7850" class="st1" cx="16.745" cy="29.006" rx="0.482" ry="0.522"/>
		<ellipse id="ellipse7852" class="st1" cx="19.349" cy="23.616" rx="0.482" ry="0.522"/>
		<ellipse id="ellipse7854" class="st1" cx="19.951" cy="25.772" rx="0.482" ry="0.522"/>
		<ellipse id="ellipse7856" class="st1" cx="23.478" cy="20.62" rx="0.443" ry="0.48"/>
		<ellipse id="ellipse7858" class="st1" cx="9.156" cy="27.772" rx="0.476" ry="0.515"/>
		<ellipse id="ellipse7860" class="st1" cx="12.586" cy="28.462" rx="0.37" ry="0.401"/>
		<ellipse id="ellipse7862" class="st1" cx="17.063" cy="26.124" rx="0.37" ry="0.401"/>
		<ellipse id="ellipse7864" class="st1" cx="17.598" cy="27.906" rx="0.37" ry="0.401"/>
		<ellipse id="ellipse7866" class="st1" cx="3.837" cy="11.274" rx="0.37" ry="0.401"/>
		<ellipse id="ellipse7868" class="st1" cx="25.379" cy="6.74" rx="0.37" ry="0.401"/>
		<ellipse id="ellipse7870" class="st1" cx="18.116" cy="6.456" rx="1.285" ry="1.393"/>
		<ellipse id="ellipse7872" class="st1" cx="4.514" cy="9.483" rx="1.215" ry="1.317"/>
		<ellipse id="ellipse7874" class="st1" cx="5.633" cy="23.64" rx="1.264" ry="1.37"/>
		<ellipse id="ellipse7876" class="st1" cx="20.869" cy="28.353" rx="1.215" ry="1.317"/>
		<ellipse id="ellipse7878" class="st1" cx="25.301" cy="8.87" rx="1.056" ry="1.144"/>
		<ellipse id="ellipse7880" class="st1" cx="23.759" cy="10.949" rx="1.014" ry="1.099"/>
		<ellipse id="ellipse7882" class="st1" cx="27.779" cy="19.562" rx="1.014" ry="1.099"/>
		<ellipse id="ellipse7884" class="st1" cx="3.86" cy="13.067" rx="1.014" ry="1.099"/>
		<ellipse id="ellipse7886" class="st1" cx="24.868" cy="14.414" rx="0.85" ry="0.921"/>
		<ellipse id="ellipse7888" class="st1" cx="23.72" cy="23.65" rx="1.462" ry="1.584"/>
		<ellipse id="ellipse7890" class="st1" cx="7.699" cy="9.097" rx="1.458" ry="1.58"/>
		<ellipse id="ellipse7892" class="st1" cx="5.924" cy="6.663" rx="0.271" ry="0.294"/>
		<ellipse id="ellipse7894" class="st1" cx="11.097" cy="6.439" rx="0.271" ry="0.294"/>
		<ellipse id="ellipse7896" class="st1" cx="13.59" cy="5.095" rx="0.327" ry="0.355"/>
		<ellipse id="ellipse7898" class="st1" cx="2.837" cy="15.497" rx="0.271" ry="0.294"/>
		<ellipse id="ellipse7900" class="st1" cx="6.104" cy="17.061" rx="0.271" ry="0.294"/>
		<ellipse id="ellipse7902" class="st1" cx="3.591" cy="19.382" rx="0.312" ry="0.338"/>
		<ellipse id="ellipse7906" class="st1" cx="12.333" cy="23.659" rx="0.312" ry="0.338"/>
		<ellipse id="ellipse7908" class="st1" cx="16.58" cy="24.837" rx="0.312" ry="0.338"/>
		<ellipse id="ellipse7910" class="st1" cx="21.381" cy="23.431" rx="0.367" ry="0.398"/>
		<ellipse id="ellipse7912" class="st1" cx="18.906" cy="28.233" rx="0.422" ry="0.457"/>
		<ellipse id="ellipse7914" class="st1" cx="7.095" cy="25.699" rx="0.367" ry="0.398"/>
		<ellipse id="ellipse7918" class="st1" cx="20.027" cy="5.533" rx="0.352" ry="0.381"/>
		<ellipse id="ellipse7920" class="st1" cx="21.455" cy="4.056" rx="0.249" ry="0.269"/>
		<ellipse id="ellipse7922" class="st1" cx="20.979" cy="9.635" rx="0.249" ry="0.269"/>
		<ellipse id="ellipse7924" class="st1" cx="22.393" cy="8.032" rx="0.249" ry="0.269"/>
		<ellipse id="ellipse7926" class="st1" cx="23.798" cy="7.948" rx="0.281" ry="0.304"/>
		<ellipse id="ellipse7928" class="st1" cx="13.272" cy="6.023" rx="0.249" ry="0.269"/>
		<ellipse id="ellipse7930" class="st1" cx="6.635" cy="11.217" rx="0.249" ry="0.269"/>
		<ellipse id="ellipse7932" class="st1" cx="3.444" cy="14.926" rx="0.31" ry="0.336"/>
		<ellipse id="ellipse7934" class="st1" cx="6.453" cy="13.041" rx="0.174" ry="0.189"/>
		<ellipse id="ellipse7936" class="st1" cx="5.515" cy="13.307" rx="0.174" ry="0.189"/>
		<ellipse id="ellipse7938" class="st1" cx="6.187" cy="14.49" rx="0.174" ry="0.189"/>
		<ellipse id="ellipse7940" class="st1" cx="7.034" cy="14.735" rx="0.174" ry="0.189"/>
		<ellipse id="ellipse7942" class="st1" cx="7.055" cy="15.463" rx="0.174" ry="0.189"/>
		<ellipse id="ellipse7944" class="st1" cx="7.153" cy="16.135" rx="0.174" ry="0.189"/>
		<ellipse id="ellipse7946" class="st1" cx="5.186" cy="16.961" rx="0.174" ry="0.189"/>
		<ellipse id="ellipse7948" class="st1" cx="3.723" cy="16.807" rx="0.174" ry="0.189"/>
		<ellipse id="ellipse7950" class="st1" cx="3.058" cy="16.541" rx="0.174" ry="0.189"/>
		<ellipse id="ellipse7952" class="st1" cx="4.171" cy="17.633" rx="0.174" ry="0.189"/>
		<ellipse id="ellipse7954" class="st1" cx="4.164" cy="14.539" rx="0.174" ry="0.189"/>
		<ellipse id="ellipse7956" class="st1" cx="5.543" cy="14.448" rx="0.174" ry="0.189"/>
		<ellipse id="ellipse7958" class="st1" cx="6.635" cy="13.951" rx="0.174" ry="0.189"/>
		<ellipse id="ellipse7960" class="st1" cx="4.864" cy="11.557" rx="0.174" ry="0.189"/>
		<ellipse id="ellipse7962" class="st1" cx="6.355" cy="10.479" rx="0.174" ry="0.189"/>
		<ellipse id="ellipse7964" class="st1" cx="9.744" cy="10.087" rx="0.174" ry="0.189"/>
		<ellipse id="ellipse7966" class="st1" cx="9.751" cy="9.289" rx="0.174" ry="0.189"/>
		<ellipse id="ellipse7968" class="st1" cx="5.585" cy="8.169" rx="0.174" ry="0.189"/>
		<ellipse id="ellipse7970" class="st1" cx="5.711" cy="7.462" rx="0.174" ry="0.189"/>
		<ellipse id="ellipse7972" class="st1" cx="8.064" cy="6.937" rx="0.174" ry="0.189"/>
		<ellipse id="ellipse7974" class="st1" cx="6.698" cy="6.398" rx="0.174" ry="0.189"/>
		<ellipse id="ellipse7976" class="st1" cx="7.58" cy="6.034" rx="0.174" ry="0.189"/>
		<ellipse id="ellipse7978" class="st1" cx="7.657" cy="5.207" rx="0.174" ry="0.189"/>
		<ellipse id="ellipse7980" class="st1" cx="9.121" cy="4.325" rx="0.174" ry="0.189"/>
		<ellipse id="ellipse7982" class="st1" cx="10.738" cy="5.746" rx="0.174" ry="0.189"/>
		<ellipse id="ellipse7984" class="st1" cx="10.276" cy="6.545" rx="0.174" ry="0.189"/>
		<ellipse id="ellipse7986" class="st1" cx="12.201" cy="4.892" rx="0.174" ry="0.189"/>
		<ellipse id="ellipse7988" class="st1" cx="11.844" cy="4.374" rx="0.174" ry="0.189"/>
		<ellipse id="ellipse7990" class="st1" cx="13.951" cy="3.352" rx="0.174" ry="0.189"/>
		<ellipse id="ellipse7992" class="st1" cx="17.213" cy="3.023" rx="0.174" ry="0.189"/>
		<ellipse id="ellipse7994" class="st1" cx="17.808" cy="3.52" rx="0.174" ry="0.189"/>
		<ellipse id="ellipse7996" class="st1" cx="17.584" cy="4.073" rx="0.174" ry="0.189"/>
		<ellipse id="ellipse7998" class="st1" cx="16.989" cy="3.716" rx="0.174" ry="0.189"/>
		<ellipse id="ellipse8000" class="st1" cx="16.317" cy="4.458" rx="0.174" ry="0.189"/>
		<ellipse id="ellipse8002" class="st1" cx="17.185" cy="4.556" rx="0.174" ry="0.189"/>
		<ellipse id="ellipse8004" class="st1" cx="15.022" cy="4.836" rx="0.174" ry="0.189"/>
		<ellipse id="ellipse8006" class="st1" cx="16.219" cy="5.046" rx="0.174" ry="0.189"/>
		<ellipse id="ellipse8008" class="st1" cx="14.371" cy="6.202" rx="0.174" ry="0.189"/>
		<ellipse id="ellipse8010" class="st1" cx="14.651" cy="6.958" rx="0.174" ry="0.189"/>
		<ellipse id="ellipse8012" class="st1" cx="15.54" cy="7.189" rx="0.174" ry="0.189"/>
		<ellipse id="ellipse8014" class="st1" cx="13.727" cy="6.587" rx="0.174" ry="0.189"/>
		<ellipse id="ellipse8016" class="st1" cx="13.321" cy="7.049" rx="0.174" ry="0.189"/>
		<ellipse id="ellipse8018" class="st1" cx="11.795" cy="5.992" rx="0.174" ry="0.189"/>
		<ellipse id="ellipse8020" class="st1" cx="22.267" cy="7.252" rx="0.174" ry="0.189"/>
		<ellipse id="ellipse8022" class="st1" cx="21.588" cy="7.161" rx="0.174" ry="0.189"/>
		<ellipse id="ellipse8024" class="st1" cx="21.707" cy="6.601" rx="0.174" ry="0.189"/>
		<ellipse id="ellipse8026" class="st1" cx="22.078" cy="6.083" rx="0.174" ry="0.189"/>
		<ellipse id="ellipse8028" class="st1" cx="22.477" cy="6.531" rx="0.174" ry="0.189"/>
		<ellipse id="ellipse8030" class="st1" cx="22.477" cy="4.297" rx="0.174" ry="0.189"/>
		<ellipse id="ellipse8032" class="st1" cx="20.58" cy="6.223" rx="0.174" ry="0.189"/>
		<ellipse id="ellipse8034" class="st1" cx="21.105" cy="6.692" rx="0.174" ry="0.189"/>
		<ellipse id="ellipse8036" class="st1" cx="21.406" cy="7.728" rx="0.174" ry="0.189"/>
		<ellipse id="ellipse8038" class="st1" cx="20.979" cy="8.61" rx="0.174" ry="0.189"/>
		<ellipse id="ellipse8040" class="st1" cx="20.174" cy="8.365" rx="0.174" ry="0.189"/>
		<ellipse id="ellipse8042" class="st1" cx="18.879" cy="8.54" rx="0.174" ry="0.189"/>
		<ellipse id="ellipse8044" class="st1" cx="23.023" cy="7.196" rx="0.174" ry="0.189"/>
		<ellipse id="ellipse8046" class="st1" cx="24.024" cy="6.895" rx="0.174" ry="0.189"/>
		<ellipse id="ellipse8048" class="st1" cx="24.542" cy="7.28" rx="0.174" ry="0.189"/>
		<ellipse id="ellipse8050" class="st1" cx="23.212" cy="8.526" rx="0.174" ry="0.189"/>
		<ellipse id="ellipse8052" class="st1" cx="22.12" cy="8.841" rx="0.174" ry="0.189"/>
		<ellipse id="ellipse8054" class="st1" cx="23.128" cy="9.226" rx="0.174" ry="0.189"/>
		<ellipse id="ellipse8056" class="st1" cx="23.856" cy="9.254" rx="0.174" ry="0.189"/>
		<ellipse id="ellipse8058" class="st1" cx="26.712" cy="7.854" rx="0.174" ry="0.189"/>
		<ellipse id="ellipse8060" class="st1" cx="27.027" cy="8.918" rx="0.174" ry="0.189"/>
		<ellipse id="ellipse8062" class="st1" cx="26.88" cy="9.716" rx="0.174" ry="0.189"/>
		<ellipse id="ellipse8064" class="st1" cx="27.062" cy="10.395" rx="0.174" ry="0.189"/>
		<ellipse id="ellipse8066" class="st1" cx="25.417" cy="11.333" rx="0.174" ry="0.189"/>
		<ellipse id="ellipse8068" class="st1" cx="25.06" cy="11.998" rx="0.174" ry="0.189"/>
		<ellipse id="ellipse8070" class="st1" cx="24.766" cy="12.964" rx="0.174" ry="0.189"/>
		<ellipse id="ellipse8072" class="st1" cx="25.543" cy="12.838" rx="0.174" ry="0.189"/>
		<ellipse id="ellipse8074" class="st1" cx="27.938" cy="11.585" rx="0.174" ry="0.189"/>
		<ellipse id="ellipse8076" class="st1" cx="22.309" cy="10.521" rx="0.174" ry="0.189"/>
		<ellipse id="ellipse8078" class="st1" cx="24.598" cy="15.834" rx="0.174" ry="0.189"/>
		<ellipse id="ellipse8080" class="st1" cx="27.609" cy="14.63" rx="0.174" ry="0.189"/>
		<ellipse id="ellipse8082" class="st1" cx="27.812" cy="14.063" rx="0.174" ry="0.189"/>
		<ellipse id="ellipse8084" class="st1" cx="27.672" cy="15.722" rx="0.174" ry="0.189"/>
		<ellipse id="ellipse8086" class="st1" cx="28.372" cy="16.051" rx="0.174" ry="0.189"/>
		<ellipse id="ellipse8088" class="st1" cx="27.356" cy="16.737" rx="0.174" ry="0.189"/>
		<ellipse id="ellipse8090" class="st1" cx="27.952" cy="17.164" rx="0.174" ry="0.189"/>
		<ellipse id="ellipse8092" class="st1" cx="28.638" cy="16.898" rx="0.174" ry="0.189"/>
		<ellipse id="ellipse8094" class="st1" cx="28.554" cy="17.633" rx="0.174" ry="0.189"/>
		<ellipse id="ellipse8096" class="st1" cx="28.617" cy="18.347" rx="0.174" ry="0.189"/>
		<ellipse id="ellipse8098" class="st1" cx="24.276" cy="17.899" rx="0.174" ry="0.189"/>
		<ellipse id="ellipse8100" class="st1" cx="24.339" cy="20.349" rx="0.174" ry="0.189"/>
		<ellipse id="ellipse8102" class="st1" cx="25.004" cy="21.147" rx="0.174" ry="0.189"/>
		<ellipse id="ellipse8104" class="st1" cx="25.858" cy="20.832" rx="0.174" ry="0.189"/>
		<ellipse id="ellipse8106" class="st1" cx="26.81" cy="20.615" rx="0.174" ry="0.189"/>
		<ellipse id="ellipse8108" class="st1" cx="25.641" cy="21.686" rx="0.174" ry="0.189"/>
		<ellipse id="ellipse8110" class="st1" cx="24.864" cy="22.015" rx="0.174" ry="0.189"/>
		<ellipse id="ellipse8112" class="st1" cx="26.397" cy="23.177" rx="0.174" ry="0.189"/>
		<ellipse id="ellipse8114" class="st1" cx="25.802" cy="23.485" rx="0.174" ry="0.189"/>
		<ellipse id="ellipse8116" class="st1" cx="27.076" cy="23.429" rx="0.174" ry="0.189"/>
		<ellipse id="ellipse8118" class="st1" cx="26.649" cy="24.066" rx="0.174" ry="0.189"/>
		<ellipse id="ellipse8120" class="st1" cx="21.812" cy="24.255" rx="0.174" ry="0.189"/>
		<ellipse id="ellipse8122" class="st1" cx="21.189" cy="22.239" rx="0.174" ry="0.189"/>
		<ellipse id="ellipse8124" class="st1" cx="22.064" cy="25.095" rx="0.174" ry="0.189"/>
		<ellipse id="ellipse8126" class="st1" cx="20.069" cy="24.395" rx="0.174" ry="0.189"/>
		<ellipse id="ellipse8128" class="st1" cx="20.475" cy="24.885" rx="0.174" ry="0.189"/>
		<ellipse id="ellipse8130" class="st1" cx="19.516" cy="24.78" rx="0.174" ry="0.189"/>
		<ellipse id="ellipse8132" class="st1" cx="20.979" cy="26.202" rx="0.174" ry="0.189"/>
		<ellipse id="ellipse8134" class="st1" cx="22.05" cy="26.006" rx="0.174" ry="0.189"/>
		<ellipse id="ellipse8136" class="st1" cx="23.219" cy="26.16" rx="0.174" ry="0.189"/>
		<ellipse id="ellipse8138" class="st1" cx="24.003" cy="26.706" rx="0.174" ry="0.189"/>
		<ellipse id="ellipse8140" class="st1" cx="22.645" cy="26.797" rx="0.174" ry="0.189"/>
		<ellipse id="ellipse8142" class="st1" cx="20.405" cy="26.713" rx="0.174" ry="0.189"/>
		<ellipse id="ellipse8144" class="st1" cx="15.295" cy="28.589" rx="0.174" ry="0.189"/>
		<ellipse id="ellipse8146" class="st1" cx="15.953" cy="27.644" rx="0.174" ry="0.189"/>
		<ellipse id="ellipse8148" class="st1" cx="16.59" cy="26.965" rx="0.174" ry="0.189"/>
		<ellipse id="ellipse8150" class="st1" cx="16.751" cy="28.078" rx="0.174" ry="0.189"/>
		<ellipse id="ellipse8152" class="st1" cx="14.91" cy="27.546" rx="0.174" ry="0.189"/>
		<ellipse id="ellipse8154" class="st1" cx="14.777" cy="26.58" rx="0.174" ry="0.189"/>
		<ellipse id="ellipse8156" class="st1" cx="15.197" cy="26.118" rx="0.174" ry="0.189"/>
		<ellipse id="ellipse8158" class="st1" cx="14.154" cy="27.581" rx="0.174" ry="0.189"/>
		<ellipse id="ellipse8160" class="st1" cx="13.167" cy="27.574" rx="0.174" ry="0.189"/>
		<ellipse id="ellipse8162" class="st1" cx="11.459" cy="26.433" rx="0.174" ry="0.189"/>
		<ellipse id="ellipse8164" class="st1" cx="12.173" cy="25.978" rx="0.174" ry="0.189"/>
		<ellipse id="ellipse8166" class="st1" cx="12.684" cy="25.564" rx="0.174" ry="0.189"/>
		<ellipse id="ellipse8168" class="st1" cx="13.139" cy="25.088" rx="0.174" ry="0.189"/>
		<ellipse id="ellipse8170" class="st1" cx="13.097" cy="24.409" rx="0.174" ry="0.189"/>
		<ellipse id="ellipse8172" class="st1" cx="13.776" cy="24.843" rx="0.174" ry="0.189"/>
		<ellipse id="ellipse8174" class="st1" cx="11.109" cy="27.602" rx="0.174" ry="0.189"/>
		<ellipse id="ellipse8176" class="st1" cx="10.605" cy="28.365" rx="0.174" ry="0.189"/>
		<ellipse id="ellipse8178" class="st1" cx="8.127" cy="27.21" rx="0.174" ry="0.189"/>
		<ellipse id="ellipse8180" class="st1" cx="10.22" cy="26.776" rx="0.174" ry="0.189"/>
		<ellipse id="ellipse8182" class="st1" cx="10.829" cy="26.503" rx="0.174" ry="0.189"/>
		<ellipse id="ellipse8184" class="st1" cx="10.598" cy="25.712" rx="0.174" ry="0.189"/>
		<ellipse id="ellipse8186" class="st1" cx="10.437" cy="25.137" rx="0.174" ry="0.189"/>
		<ellipse id="ellipse8188" class="st1" cx="10.073" cy="24.661" rx="0.174" ry="0.189"/>
		<ellipse id="ellipse8190" class="st1" cx="9.261" cy="24.661" rx="0.174" ry="0.189"/>
		<ellipse id="ellipse8192" class="st1" cx="9.926" cy="24.003" rx="0.174" ry="0.189"/>
		<ellipse id="ellipse8194" class="st1" cx="10.15" cy="23.296" rx="0.174" ry="0.189"/>
		<ellipse id="ellipse8196" class="st1" cx="10.731" cy="23.478" rx="0.174" ry="0.189"/>
		<ellipse id="ellipse8198" class="st1" cx="11.585" cy="23.303" rx="0.174" ry="0.189"/>
		<ellipse id="ellipse8200" class="st1" cx="10.682" cy="22.26" rx="0.174" ry="0.189"/>
		<ellipse id="ellipse8202" class="st1" cx="9.989" cy="22.575" rx="0.174" ry="0.189"/>
		<ellipse id="ellipse8204" class="st1" cx="8.106" cy="23.807" rx="0.174" ry="0.189"/>
		<ellipse id="ellipse8206" class="st1" cx="8.035" cy="23.184" rx="0.174" ry="0.189"/>
		<ellipse id="ellipse8208" class="st1" cx="7.37" cy="22.981" rx="0.174" ry="0.189"/>
		<ellipse id="ellipse8210" class="st1" cx="7.335" cy="23.653" rx="0.174" ry="0.189"/>
		<ellipse id="ellipse8212" class="st1" cx="7.692" cy="24.206" rx="0.174" ry="0.189"/>
		<ellipse id="ellipse8214" class="st1" cx="7.986" cy="24.822" rx="0.174" ry="0.189"/>
		<ellipse id="ellipse8216" class="st1" cx="7.286" cy="24.801" rx="0.174" ry="0.189"/>
		<ellipse id="ellipse8218" class="st1" cx="7.006" cy="22.015" rx="0.174" ry="0.189"/>
		<ellipse id="ellipse8220" class="st1" cx="7.482" cy="21.385" rx="0.174" ry="0.189"/>
		<ellipse id="ellipse8222" class="st1" cx="5.424" cy="20.811" rx="0.174" ry="0.189"/>
		<ellipse id="ellipse8224" class="st1" cx="4.787" cy="20.153" rx="0.174" ry="0.189"/>
		<ellipse id="ellipse8226" class="st1" cx="3.086" cy="20.608" rx="0.174" ry="0.189"/>
		<ellipse id="ellipse8228" class="st1" cx="3.226" cy="21.238" rx="0.174" ry="0.189"/>
		<ellipse id="ellipse8230" class="st1" cx="4.08" cy="22.687" rx="0.174" ry="0.189"/>
		<ellipse id="ellipse8232" class="st1" cx="5.319" cy="19.278" rx="0.174" ry="0.189"/>
		<ellipse id="ellipse8234" class="st1" cx="6.418" cy="20.034" rx="0.174" ry="0.189"/>
		<ellipse id="ellipse8236" class="st1" cx="7.237" cy="19.362" rx="0.174" ry="0.189"/>
		<ellipse id="ellipse8238" class="st1" cx="7.86" cy="19.047" rx="0.174" ry="0.189"/>
		<ellipse id="ellipse8240" class="st1" cx="7.118" cy="18.501" rx="0.174" ry="0.189"/>
		<ellipse id="ellipse8242" class="st1" cx="6.341" cy="18.697" rx="0.174" ry="0.189"/>
		<ellipse id="ellipse8244" class="st1" cx="6.488" cy="18.018" rx="0.174" ry="0.189"/>
		<ellipse id="ellipse8246" class="st1" cx="5.088" cy="18.494" rx="0.174" ry="0.189"/>
		<ellipse id="ellipse8248" class="st1" cx="4.388" cy="18.305" rx="0.174" ry="0.189"/>
		<ellipse id="ellipse8250" class="st1" cx="18.547" cy="4.458" rx="0.206" ry="0.223"/>
		<ellipse id="ellipse8252" class="st1" cx="22.131" cy="9.75" rx="0.206" ry="0.223"/>
		<ellipse id="ellipse8254" class="st1" cx="20.751" cy="24.037" rx="0.215" ry="0.233"/>
		<ellipse id="ellipse8256" class="st1" cx="21.451" cy="24.779" rx="0.215" ry="0.233"/>
		<ellipse id="ellipse8258" class="st1" cx="21.311" cy="25.472" rx="0.215" ry="0.233"/>
		<ellipse id="ellipse8260" class="st1" cx="25.952" cy="22.266" rx="0.215" ry="0.233"/>
		<ellipse id="ellipse8262" class="st1" cx="27.479" cy="18.058" rx="0.301" ry="0.326"/>
		<ellipse id="ellipse8264" class="st1" cx="25.484" cy="15.817" rx="0.301" ry="0.326"/>
		<ellipse id="ellipse8266" class="st1" cx="26.051" cy="24.89" rx="0.301" ry="0.326"/>
		<ellipse id="ellipse8268" class="st1" cx="24.301" cy="21.25" rx="0.301" ry="0.326"/>
		<ellipse id="ellipse8270" class="st1" cx="9.264" cy="23.546" rx="0.301" ry="0.326"/>
		<ellipse id="ellipse8272" class="st1" cx="24.637" cy="16.525" rx="0.301" ry="0.326"/>
		<ellipse id="ellipse8274" class="st1" cx="8.596" cy="21.159" rx="0.359" ry="0.389"/>
	</g>
	<g id="layer3">
		<path id="path8276" class="st1" d="M16.451,10.282c-0.097,0.134-0.018,0.349-0.044,0.515c-0.007,0.371,0.019,0.752-0.021,1.114
			c-0.272-0.063-0.937,0.21-0.963-0.15c-0.012-0.491,0.025-0.992-0.027-1.474c-0.332,0.014-0.689-0.03-1.003,0.03
			c-0.021,0.529,0.026,1.071-0.025,1.593c-0.742,0.034-1.488,0.009-2.231,0.015c-0.081,0.156-0.015,0.369-0.036,0.548
			c-0.093,0.413,0.048,0.666,0.496,0.539c0.384,0.048,1.14-0.224,0.935,0.437c0.003,1.626,0.007,3.252-0.002,4.878
			c-0.355,0.17-1.118-0.235-1.193,0.256c-0.049,0.22-0.08,0.453-0.168,0.655c-0.158,0.354,0.149,0.343,0.473,0.31
			c0.573,0.006,1.147-0.012,1.719,0.01c0.065,0.456,0.009,0.948,0.03,1.418c-0.007,0.429,0.757,0.132,1.021,0.179
			c0.021-0.53-0.009-1.065,0.025-1.593c0.349,0.048,1.144-0.254,0.967,0.371c0.048,0.397-0.086,0.937,0.074,1.249
			c0.387-0.047,1.156,0.229,0.961-0.432c0.015-0.389-0.022-0.799,0.015-1.179c0.204-0.056,0.431,0.017,0.625-0.079
			c0.153,0.017,0.285-0.03,0.424-0.053c0.296-0.067,0.589-0.144,0.881-0.287c0.631-0.307,1.211-0.847,1.376-1.542
			c0.068-0.256,0.105-0.568,0.007-0.82c-0.045-0.48-0.389-0.904-0.807-1.131c-0.223-0.211-0.919-0.312-0.357-0.587
			c0.332-0.294,0.667-0.683,0.613-1.15c-0.036-0.289-0.125-0.58-0.288-0.838c-0.247-0.477-0.736-0.797-1.23-0.972
			c-0.282-0.11-0.583-0.126-0.888-0.186c-0.647,0.155-0.275-0.703-0.374-1.063c0.019-0.302,0.074-0.699-0.338-0.575
			C16.882,10.287,16.666,10.29,16.451,10.282L16.451,10.282z M17.084,13.04c0.205,0.03,0.416,0.093,0.591,0.235
			c0.253,0.133,0.451,0.43,0.418,0.724c0.085,0.551-0.451,0.983-0.956,1.033c-0.237,0.097-0.512,0.023-0.766,0.047
			c-0.309-0.01-0.636,0.024-0.934-0.014c-0.038-0.403-0.005-0.836-0.016-1.25c0.007-0.386-0.153-1,0.456-0.804
			c0.39,0.011,0.791-0.018,1.176,0.013l0.025,0.013L17.084,13.04z M17.522,16.093c0.284,0.033,0.532,0.112,0.776,0.273
			c0.386,0.248,0.451,0.723,0.381,1.141c-0.088,0.345-0.39,0.581-0.702,0.712c-0.157,0.086-0.353,0.04-0.513,0.132
			c-0.672,0.003-1.346-0.001-2.019-0.001c-0.057-0.536-0.01-1.095-0.025-1.639c-0.007-0.334-0.099-0.803,0.397-0.645
			c0.557,0.011,1.124-0.019,1.677,0.013l0.025,0.012L17.522,16.093z"/>
	</g>
</g>
</svg>
