<?xml version="1.0" encoding="utf-8"?>
<!-- Generator: Adobe Illustrator 25.2.1, SVG Export Plug-In . SVG Version: 6.00 Build 0)  -->
<svg version="1.1" id="Layer_1" xmlns="http://www.w3.org/2000/svg" xmlns:xlink="http://www.w3.org/1999/xlink" x="0px" y="0px"
	 viewBox="0 0 32 32" style="enable-background:new 0 0 32 32;" xml:space="preserve">
<style type="text/css">
	.st0{fill:#FFFFFF;}
	.st1{fill:#666AFE;}
</style>
<g>
	<ellipse class="st0" cx="16.111" cy="16.056" rx="14.833" ry="15.056"/>
	<path class="st1" d="M29.382,24.335c1.581-2.561,2.351-5.351,2.344-9.428c-0.064-3.53-1.729-7.423-5.122-10.554
		c-1.611-1.487-3.467-2.566-5.542-3.26c-3.189-1.066-6.4-1.044-9.605-0.083C9.27,1.666,7.308,2.758,5.612,4.283
		C4.061,5.677,2.799,7.301,1.889,9.196c-0.936,1.95-1.481,3.998-1.594,6.15c-0.098,1.863,0.155,3.696,0.732,5.474
		c0.965,2.976,2.643,5.474,5.098,7.421c3.558,2.822,7.602,3.907,12.105,3.309c1.982-0.263,3.819-0.95,5.535-1.935
		c1.621-0.931,3.047-2.127,4.237-3.576C28.465,25.474,28.996,24.96,29.382,24.335z M27.793,14.724
		C26.52,15.981,25.246,17.237,24,18.52c-0.385,0.397-0.794,0.771-1.161,1.186c-0.074,0.084-0.19,0.295-0.28,0.178
		c-0.091-0.119-0.207-0.346-0.008-0.533c0.191-0.179,0.36-0.382,0.548-0.565c0.935-0.917,1.891-1.813,2.804-2.751
		c0.693-0.712,1.415-1.391,2.116-2.111C28.209,14.3,28.017,14.503,27.793,14.724z M26.693,12.071c0.197-0.204,0.401-0.4,0.641-0.55
		c0.178,0.203,0.139,0.358-0.054,0.552c-1.694,1.698-3.376,3.407-5.062,5.112c-0.122,0.123-0.255,0.236-0.385,0.356
		c-0.28-0.313-0.164-0.519,0.087-0.741c1.105-0.978,2.122-2.049,3.16-3.096C25.618,13.16,26.161,12.62,26.693,12.071z M25.775,9.907
		c0.082-0.061,0.168-0.198,0.274-0.102c0.109,0.099,0.067,0.233-0.025,0.352c-0.322,0.418-0.73,0.753-1.087,1.137
		c-0.296,0.319-0.609,0.623-0.918,0.93c-0.783,0.777-1.57,1.55-2.35,2.329c-0.248,0.247-0.48,0.51-0.721,0.764
		c-0.052,0.055-0.112,0.103-0.16,0.148c-0.124-0.004-0.146-0.103-0.197-0.169c-0.065-0.084-0.101-0.172-0.001-0.26
		c0.465-0.409,0.841-0.903,1.304-1.32c0.625-0.563,1.234-1.148,1.781-1.792c0.235-0.276,0.522-0.497,0.794-0.733
		C24.931,10.791,25.279,10.274,25.775,9.907z M24.292,8.337c0.072,0.012,0.088,0.114,0.102,0.19c0.001,0.12-0.064,0.21-0.141,0.288
		c-0.473,0.482-0.948,0.961-1.422,1.44c-0.72,0.727-1.441,1.454-2.162,2.181c-0.368,0.372-0.74,0.74-1.104,1.116
		c-0.117,0.121-0.197,0.172-0.342,0.022c-0.137-0.141-0.113-0.218,0.014-0.343c0.738-0.722,1.468-1.452,2.201-2.179
		c0.861-0.853,1.722-1.705,2.583-2.558C24.1,8.417,24.177,8.317,24.292,8.337z M22.774,6.681c0.157,0.265,0.037,0.437-0.14,0.614
		c-0.757,0.756-1.505,1.521-2.258,2.282c-0.799,0.808-1.599,1.614-2.4,2.42c-0.095,0.096-0.169,0.232-0.349,0.095
		c-0.165-0.126-0.206-0.201-0.034-0.37c1.64-1.613,3.27-3.234,4.903-4.853C22.573,6.792,22.649,6.713,22.774,6.681z M21.182,5.076
		c0.126-0.112,0.235-0.02,0.318,0.055c0.107,0.096-0.025,0.152-0.076,0.205c-1.774,1.799-3.551,3.595-5.329,5.391
		c-0.067,0.068-0.148,0.122-0.227,0.187c-0.114-0.071-0.245-0.113-0.309-0.203c-0.073-0.103,0.066-0.164,0.129-0.226
		c0.512-0.508,1.043-0.998,1.54-1.52c1.214-1.276,2.509-2.471,3.764-3.704C21.055,5.197,21.117,5.135,21.182,5.076z M18.577,4.451
		c0.184-0.223,0.399-0.393,0.737-0.172c-0.677,0.793-1.451,1.474-2.166,2.211c-1.039,1.069-2.101,2.117-3.142,3.183
		c-0.229,0.235-0.448,0.321-0.746,0.12c0.049-0.215,0.266-0.268,0.393-0.403c0.563-0.597,1.182-1.139,1.724-1.759
		c0.294-0.335,0.672-0.596,0.972-0.927C17.059,5.921,17.901,5.269,18.577,4.451z M16.047,3.877c0.179-0.17,0.361-0.092,0.611-0.043
		c-0.117,0.125-0.188,0.206-0.264,0.282c-0.907,0.899-1.841,1.771-2.713,2.702c-0.725,0.774-1.51,1.488-2.228,2.267
		c-0.134,0.145-0.272,0.293-0.501,0.249c-0.085-0.016-0.182-0.043-0.213-0.124c-0.032-0.084,0.067-0.127,0.118-0.178
		c0.518-0.52,1.041-1.034,1.556-1.557c0.621-0.631,1.247-1.258,1.872-1.885C14.861,5.011,15.453,4.442,16.047,3.877z M12.259,4.471
		c0.264-0.268,0.63-0.27,0.963-0.36c-0.452,0.461-0.906,0.906-1.344,1.362c-0.529,0.55-1.082,1.077-1.604,1.634
		C9.675,7.742,9.029,8.335,8.432,8.973C8.179,9.244,7.888,9.226,7.504,9.259C7.76,8.976,7.954,8.732,8.177,8.52
		C9.569,7.201,10.916,5.838,12.259,4.471z M5.718,9.469c0.979-1.003,1.982-1.983,2.977-2.97c0.066-0.066,0.128-0.192,0.233-0.147
		c0.125,0.054,0.059,0.195,0.057,0.295c-0.002,0.125-0.078,0.224-0.167,0.31c-0.84,0.811-1.644,1.659-2.483,2.471
		C5.86,9.888,5.418,10.384,4.937,10.84C5.106,10.331,5.345,9.851,5.718,9.469z M3.773,14.805c0.06-0.663,0.66-0.91,1.03-1.329
		c0.146-0.166,0.343-0.302,0.505-0.463c1.579-1.567,3.157-3.135,4.736-4.703c0.055-0.054,0.105-0.113,0.166-0.159
		c0.058-0.044,0.131-0.121,0.198-0.069c0.052,0.04,0.062,0.135,0.097,0.221c-0.062,0.156-0.167,0.291-0.29,0.414
		c-0.61,0.614-1.219,1.228-1.829,1.841c-0.911,0.917-1.823,1.833-2.735,2.749c-0.547,0.55-1.094,1.101-1.645,1.648
		c-0.063,0.063-0.124,0.203-0.23,0.127C3.702,15.028,3.764,14.902,3.773,14.805z M4.138,17.935
		c-0.058,0.059-0.102,0.146-0.191,0.145c-0.279-0.426,0.015-0.645,0.267-0.89c1.178-1.147,2.354-2.296,3.525-3.449
		c1.076-1.06,2.146-2.127,3.218-3.191c0.395-0.392,0.788-0.786,1.187-1.173c0.058-0.057,0.118-0.206,0.231-0.081
		c0.088,0.098,0.153,0.22,0.016,0.345c-0.469,0.429-0.839,0.953-1.332,1.362c-0.302,0.25-0.562,0.551-0.84,0.83
		C8.193,13.866,6.166,15.901,4.138,17.935z M4.58,20.458c-0.132-0.149-0.173-0.319,0.008-0.489c0.414-0.39,0.82-0.789,1.226-1.189
		c0.757-0.745,1.524-1.479,2.248-2.257c0.497-0.535,1.054-1.014,1.575-1.527c1.122-1.106,2.239-2.217,3.358-3.327
		c0.078-0.077,0.156-0.154,0.226-0.239c0.053-0.065,0.08-0.181,0.188-0.145c0.114,0.038,0.03,0.157,0.051,0.192
		c0.034,0.186-0.03,0.29-0.13,0.39c-1.466,1.462-2.933,2.924-4.393,4.392c-0.772,0.776-1.531,1.565-2.3,2.345
		c-0.574,0.583-1.151,1.163-1.736,1.735C4.822,20.415,4.752,20.652,4.58,20.458z M5.92,22.475c-0.066,0.064-0.13,0.263-0.271,0.079
		c-0.097-0.126-0.224-0.253-0.046-0.426c0.353-0.344,0.693-0.702,1.043-1.05c1.345-1.337,2.693-2.67,4.037-4.008
		c1.36-1.353,2.717-2.709,4.078-4.061c0.084-0.083,0.192-0.142,0.315-0.232c0.112,0.318-0.029,0.522-0.21,0.705
		c-1.22,1.231-2.442,2.46-3.663,3.689c-0.722,0.726-1.444,1.452-2.166,2.178c-0.692,0.696-1.384,1.391-2.077,2.087
		C6.614,21.784,6.272,22.135,5.92,22.475z M6.982,24.314c-0.155-0.16-0.156-0.263,0.009-0.426c1.129-1.114,2.245-2.24,3.37-3.358
		c2.159-2.146,4.321-4.29,6.484-6.432c0.092-0.091,0.204-0.163,0.334-0.265c0.118,0.34-0.05,0.543-0.241,0.728
		c-0.786,0.763-1.56,1.539-2.328,2.318c-0.944,0.958-1.895,1.91-2.834,2.874c-0.709,0.728-1.433,1.443-2.15,2.163
		c-0.769,0.772-1.538,1.546-2.31,2.315C7.23,24.317,7.161,24.499,6.982,24.314z M9.003,25.704c-0.177,0.171-0.289,0.174-0.463,0.026
		c-0.119-0.102-0.097-0.146,0.008-0.247c0.498-0.479,1.006-0.949,1.467-1.462c0.789-0.878,1.682-1.65,2.5-2.5
		c0.681-0.707,1.398-1.387,2.105-2.073c0.737-0.715,1.478-1.428,2.18-2.176c0.42-0.447,0.852-0.871,1.35-1.262
		c0.202,0.239,0.081,0.412-0.072,0.561c-0.961,0.939-1.897,1.904-2.854,2.847c-0.684,0.674-1.348,1.37-2.022,2.056
		c-0.972,0.989-1.939,1.984-2.942,2.94C9.824,24.828,9.435,25.286,9.003,25.704z M10.653,27.021
		c-0.108-0.046-0.264-0.047-0.302-0.163c-0.039-0.117,0.104-0.18,0.181-0.248c0.648-0.573,1.24-1.201,1.838-1.825
		c0.643-0.671,1.335-1.295,1.998-1.949c1.161-1.145,2.318-2.293,3.47-3.445c0.881-0.881,1.753-1.771,2.649-2.677
		c0.223,0.247,0.18,0.388-0.01,0.578c-2.386,2.387-4.76,4.786-7.138,7.181c-0.795,0.801-1.591,1.601-2.39,2.398
		C10.87,26.952,10.809,27.087,10.653,27.021z M12.558,27.758c3.24-3.214,6.459-6.407,9.695-9.618
		c0.092,0.326-0.013,0.546-0.238,0.77c-1.986,1.983-3.958,3.979-5.937,5.969c-0.926,0.931-1.866,1.848-2.778,2.792
		C13.056,27.926,12.844,27.862,12.558,27.758z M16.207,27.921c-0.244,0.251-0.486,0.393-0.764,0.305
		c2.501-2.545,5.023-5.111,7.565-7.698c0.058,0.477,0.06,0.479-0.242,0.782c-1.161,1.171-2.323,2.341-3.486,3.511
		C18.255,25.853,17.221,26.878,16.207,27.921z M19.803,27.46c-0.275,0.304-0.617,0.377-1.072,0.448
		c1.962-1.948,3.867-3.838,5.785-5.741c0.146,0.208,0.165,0.334,0.01,0.499c-1.116,1.191-2.291,2.325-3.435,3.489
		C20.662,26.591,20.213,27.008,19.803,27.46z M26.321,22.499c-0.839,0.856-1.714,1.677-2.547,2.54
		c-0.364,0.377-0.734,0.749-1.097,1.127c-0.073,0.076-0.131,0.176-0.273,0.213c0.069-0.409,0.158-0.76,0.477-1.066
		c1.08-1.034,2.131-2.097,3.185-3.157c0.28-0.282,0.533-0.591,0.799-0.888c0.039,0.033,0.077,0.066,0.116,0.1
		C26.824,21.778,26.631,22.182,26.321,22.499z M27.359,18.299c-0.391,0.422-0.801,0.827-1.214,1.228
		c-0.463,0.448-0.92,0.903-1.371,1.36c-0.544,0.55-1.097,1.094-1.626,1.659c-0.071,0.076-0.128,0.179-0.27,0.207
		c-0.066-0.302-0.046-0.542,0.205-0.787c1.644-1.61,3.272-3.237,4.902-4.862c0.053-0.052,0.08-0.13,0.12-0.196
		C28.28,17.647,27.716,17.913,27.359,18.299z"/>
</g>
</svg>
