<?xml version="1.0" encoding="utf-8"?>
<!-- Generator: Adobe Illustrator 22.0.1, SVG Export Plug-In . SVG Version: 6.00 Build 0)  -->
<svg version="1.1" id="Layer_1" xmlns="http://www.w3.org/2000/svg" xmlns:xlink="http://www.w3.org/1999/xlink" x="0px" y="0px"
	 viewBox="0 0 32 32" style="enable-background:new 0 0 32 32;" xml:space="preserve">
<style type="text/css">
	.st0{fill:#FFFFFF;}
	.st1{fill:#3609F9;}
</style>
<path class="st0" d="M10.118,22.941c0.024,0.022,0.047,0.045,0.071,0.067l0.002-0.002c-0.043,0.019-0.074,0-0.101-0.032
	C10.099,22.963,10.108,22.952,10.118,22.941z"/>
<path class="st0" d="M26.901,10.563c0.008,0.005,0.016,0.01,0.025,0.015c-0.005,0-0.011,0.002-0.014,0
	c-0.004-0.005-0.006-0.011-0.009-0.017C26.903,10.561,26.901,10.563,26.901,10.563z"/>
<path class="st0" d="M10.189,23.008c0.006,0.003,0.013,0.005,0.018,0.009c0.002,0.002,0,0.009,0,0.014
	c-0.005-0.008-0.01-0.017-0.015-0.025C10.191,23.006,10.189,23.008,10.189,23.008z"/>
<g>
	<path class="st0" d="M5.253,18.943c0.001-3.577,2.514-6.632,6.022-7.297c0.411-0.078,0.575-0.224,0.656-0.675
		c0.603-3.35,3.445-5.818,6.843-6.063c3.824-0.275,7.388,2.525,7.891,6.615c0.46,3.745-2.239,7.411-6.043,8.107
		c-0.457,0.084-0.561,0.312-0.637,0.699c-0.594,3.044-2.912,5.357-5.923,5.933C9.467,27.141,5.252,23.638,5.253,18.943z
		 M19.251,11.476c0-0.007,0-0.015,0-0.022c1.749,0,3.498-0.007,5.247,0.006c0.329,0.002,0.407-0.055,0.331-0.408
		c-0.541-2.529-2.866-4.416-5.525-4.454c-2.631-0.037-5.061,1.838-5.629,4.332c-0.089,0.393-0.027,0.561,0.434,0.554
		C15.823,11.462,17.538,11.476,19.251,11.476z M12.674,19.806c0,0.007,0,0.015,0,0.022c-1.573,0-3.147,0-4.72,0
		c-1.025,0-1.025,0-0.696,0.974c0.827,2.447,3.124,3.979,5.798,3.868c2.402-0.1,4.594-1.939,5.187-4.336
		c0.088-0.357,0.087-0.543-0.376-0.537C16.135,19.819,14.405,19.806,12.674,19.806z M13.529,15.591c0.007,0,0.015,0,0.022,0
		c0,0.699,0.012,1.399-0.006,2.098c-0.008,0.3,0.096,0.389,0.391,0.386c1.364-0.012,2.729-0.013,4.093,0
		c0.302,0.003,0.388-0.1,0.384-0.392c-0.017-1.364-0.023-2.728-0.013-4.092c0.002-0.302-0.097-0.386-0.39-0.383
		c-1.364,0.013-2.729,0.012-4.093,0.001c-0.294-0.003-0.401,0.09-0.393,0.389C13.541,14.261,13.529,14.926,13.529,15.591z
		 M20.09,15.186c-0.059,0.669,0.075,1.522,0.049,2.376c-0.01,0.327,0.082,0.432,0.422,0.358c2.039-0.445,3.885-2.332,4.281-4.368
		c0.057-0.292-0.001-0.367-0.287-0.366c-1.362,0.009-2.724,0.011-4.086-0.001c-0.304-0.003-0.395,0.111-0.385,0.4
		C20.103,14.056,20.09,14.528,20.09,15.186z M11.814,15.745c-0.007,0-0.015,0-0.022,0c0-0.682-0.016-1.365,0.007-2.046
		c0.012-0.358-0.12-0.42-0.433-0.333c-2.225,0.621-3.643,2.044-4.27,4.265C7,17.973,7.075,18.102,7.452,18.098
		c1.312-0.017,2.624-0.018,3.936,0.001c0.364,0.005,0.442-0.141,0.432-0.465C11.801,17.005,11.814,16.375,11.814,15.745z"/>
</g>
<g>
	<circle class="st1" cx="15.968" cy="16" r="15.84"/>
</g>
<path class="st0" d="M10.297,23.417C10.297,23.417,10.397,23.417,10.297,23.417L10.297,23.417L10.297,23.417L10.297,23.417z"/>
<path class="st0" d="M27.097,11.017L27.097,11.017L27.097,11.017L27.097,11.017L27.097,11.017z"/>
<path class="st0" d="M10.397,23.417L10.397,23.417L10.397,23.417L10.397,23.417L10.397,23.417z"/>
<g>
	<path class="st0" d="M2.199,17.371c0.008-0.641,0.057-1.278,0.17-1.91c0.031-0.174,0.102-0.315,0.227-0.444
		c1.334-1.379,2.968-2.248,4.781-2.809c1.296-0.401,2.627-0.616,3.981-0.678c2.242-0.103,4.23,0.573,5.976,1.968
		c1.283,1.025,2.301,2.273,3.08,3.72c0.388,0.72,1.036,1.134,1.77,1.43c0.803,0.323,1.645,0.436,2.504,0.442
		c1.408,0.01,2.797-0.114,4.131-0.61c0.274-0.102,0.535-0.227,0.788-0.374c0.179-0.104,0.255-0.061,0.242,0.142
		c-0.055,0.83-0.128,1.658-0.334,2.468c-0.051,0.201-0.159,0.334-0.343,0.431c-1.051,0.555-2.143,0.979-3.338,1.094
		c-1.75,0.168-3.247-0.385-4.516-1.581c-0.537-0.506-0.955-1.101-1.319-1.743c-1.478-2.604-3.642-4.274-6.64-4.735
		c-1.928-0.297-3.796,0.018-5.6,0.732c-1.992,0.788-3.717,1.98-5.225,3.496c-0.03,0.03-0.059,0.062-0.089,0.092
		c-0.04,0.041-0.083,0.085-0.147,0.062c-0.067-0.026-0.057-0.091-0.061-0.146C2.213,18.067,2.19,17.719,2.199,17.371z"/>
	<path class="st0" d="M12.864,16.95c1.504,0.004,2.879,0.201,4.162,0.847c1.053,0.531,1.876,1.321,2.551,2.277
		c0.501,0.71,0.911,1.474,1.323,2.237c0.263,0.488,0.546,0.964,0.909,1.389c0.568,0.664,1.271,0.993,2.159,0.939
		c1.36-0.083,2.658-0.436,3.947-0.85c0.113-0.036,0.252-0.158,0.351-0.032c0.097,0.124-0.042,0.238-0.111,0.335
		c-1.164,1.655-2.702,2.747-4.729,3.053c-1.024,0.155-1.818-0.261-2.356-1.148c-0.204-0.336-0.318-0.707-0.411-1.09
		c-0.6-2.464-2.14-4.03-4.57-4.723c-1.271-0.363-2.571-0.371-3.874-0.247c-2.277,0.216-4.375,0.953-6.283,2.221
		c-0.677,0.45-1.306,0.959-1.878,1.538c-0.194,0.197-0.286,0.181-0.404-0.072c-0.349-0.746-0.687-1.497-0.916-2.292
		c-0.062-0.212-0.027-0.38,0.116-0.55c0.667-0.791,1.5-1.368,2.398-1.855c1.87-1.016,3.873-1.615,5.982-1.868
		C11.802,16.991,12.377,16.966,12.864,16.95z"/>
	<path class="st0" d="M24.999,15.969c-1.272-0.002-2.546-0.003-3.8-0.267c-0.021-0.004-0.042-0.008-0.062-0.011
		c-0.371-0.059-0.612-0.25-0.812-0.591c-1.558-2.65-3.791-4.435-6.787-5.223c-2.007-0.528-3.974-0.326-5.911,0.338
		c-1.527,0.523-2.911,1.308-4.17,2.315c-0.017,0.013-0.032,0.03-0.05,0.04c-0.062,0.033-0.108,0.139-0.198,0.062
		c-0.073-0.063-0.01-0.133,0.017-0.194c0.348-0.796,0.78-1.548,1.271-2.262c0.333-0.483,0.818-0.806,1.318-1.096
		c1.289-0.747,2.688-1.175,4.153-1.4c1.302-0.2,2.606-0.215,3.902,0.055c1.692,0.353,3.01,1.289,4.069,2.623
		c0.455,0.573,0.872,1.177,1.42,1.671c0.409,0.368,0.843,0.696,1.357,0.908c0.154,0.063,0.31,0.096,0.476,0.095
		c2.07-0.01,4.139-0.027,6.202-0.197c0.403-0.033,0.807-0.074,1.205-0.151c0.256-0.05,0.332-0.007,0.425,0.231
		c0.286,0.73,0.473,1.487,0.619,2.256c0.046,0.24,0.004,0.3-0.239,0.356c-1.385,0.324-2.794,0.423-4.211,0.443
		C25.126,15.97,25.062,15.969,24.999,15.969z"/>
	<path class="st0" d="M27.597,10.178c-0.726,0.187-1.434,0.258-2.142,0.304c-1.263,0.082-2.527,0.143-3.794,0.055
		c-0.926-0.064-1.834-0.215-2.688-0.604c-0.235-0.106-0.435-0.256-0.618-0.443c-1.729-1.754-3.82-2.774-6.267-3.058
		c-1.589-0.184-3.072,0.216-4.515,0.83C7.507,7.289,7.442,7.318,7.378,7.348c-0.061,0.029-0.124,0.055-0.17-0.015
		c-0.054-0.082,0.007-0.13,0.066-0.175C7.285,7.149,7.296,7.14,7.306,7.131c0.618-0.493,1.272-0.93,1.959-1.321
		c0.508-0.289,1.058-0.404,1.627-0.457c0.965-0.089,1.929-0.113,2.886,0.097c0.62,0.136,1.175,0.418,1.706,0.752
		c0.842,0.529,1.691,1.043,2.604,1.448c0.909,0.404,1.857,0.621,2.85,0.625c1.2,0.005,2.403,0.062,3.597-0.127
		c0.302-0.048,0.601-0.106,0.891-0.206c0.121-0.041,0.233-0.049,0.337,0.046C26.467,8.631,27.048,9.371,27.597,10.178z"/>
	<path class="st0" d="M21.187,6.569c-1.203,0.011-2.404-0.009-3.594-0.215c-0.57-0.099-1.119-0.258-1.622-0.559
		c-0.397-0.238-0.817-0.429-1.249-0.593c-0.104-0.04-0.209-0.086-0.183-0.222c0.026-0.141,0.14-0.159,0.263-0.157
		c0.5,0.011,0.986,0.104,1.476,0.201c0.891,0.176,1.796,0.167,2.7,0.15c0.64-0.011,1.28-0.035,1.914-0.136
		c0.122-0.019,0.24-0.003,0.356,0.041c0.828,0.312,1.596,0.74,2.344,1.209c0.045,0.028,0.121,0.053,0.091,0.122
		c-0.029,0.066-0.11,0.054-0.172,0.057C22.736,6.517,21.962,6.566,21.187,6.569z"/>
</g>
</svg>
