<?xml version="1.0" encoding="utf-8"?>
<!-- Generator: Adobe Illustrator 24.0.2, SVG Export Plug-In . SVG Version: 6.00 Build 0)  -->
<svg version="1.1" id="Layer_1" xmlns="http://www.w3.org/2000/svg" xmlns:xlink="http://www.w3.org/1999/xlink" x="0px" y="0px"
	 viewBox="0 0 32 32" style="enable-background:new 0 0 32 32;" xml:space="preserve">
<style type="text/css">
	.st0{fill:#73AFC6;}
</style>
<path class="st0" d="M4.064,24.561c0,0,2.5-0.238,3.75,0.952c1.25,1.191,3.254,1.23,3.254,1.23l2.322-0.139
	c0,0-2.699,1.429-3.135,1.429c0,0-0.792,0.278-1.786,0.278c-0.51,0-1.117-0.278-1.607-0.278c-0.097,0-0.646,0.327-0.97,0.526
	c0.679,0.573,1.407,1.089,2.177,1.542l1.789-0.699c0,0,4.226-1.389,4.603-2.242c0,0,2.143,0.714,2.818,1.389
	c0,0,1.31,0.853,1.826,1.191l2.789,1.367c0.685-0.278,1.346-0.603,1.979-0.971l-1.375-0.516c-0.873,0-3.591-1.508-5.278-3.056
	c-1.687-1.548-5.159-0.933-5.159-0.933l1.865-1.111c2.083-1.071,4.107-0.933,4.107-0.933c2.341-0.238,4.524,1.071,5.199,1.687
	c0.675,0.615,2.46,1.488,2.46,1.488l1.611,0.677c0.452-0.47,0.876-0.968,1.267-1.492l-1.072-0.663c0,0-1.429-0.556-1.945-0.278
	c0,0,0.744-0.635,1.2-0.675c0,0,0.645-0.258,1.468-0.129l1.265,0.371c1.393-2.343,2.193-5.078,2.193-8.001
	c0-8.66-7.02-15.681-15.681-15.681S0.319,7.913,0.319,16.573c0,3.049,0.871,5.894,2.377,8.302L4.064,24.561z M7.437,11.339
	c0.45,0.595,4.078,1.644,5.278,1.693c1.2,0.05,3.145,1.716,3.145,1.716c1.399-1.974,4.98-2.173,4.98-2.173
	c1.826-0.02,3.363-1.31,3.363-1.31c0.595-0.198,0.496,0.367,0.496,0.367c-0.645,2.371-1.101,2.877-1.101,2.877
	c-0.724,1.945-4.56,3.813-4.56,3.813c-2.011,1.31-1.971,4.312-1.971,4.312c-1.323-0.119-2.408,0.238-2.408,0.238H14.59l-0.129-1.171
	c-0.06-2.123-2.014-3.472-2.014-3.472c-1.081-0.308-3.086-2.064-3.086-2.064C7.556,14.898,7,11.518,7,11.518
	C7.047,11.101,7.437,11.339,7.437,11.339z M6.861,23.311c0,0,2.143-0.377,2.718,0.609c0.575,0.986,2.877,0.442,2.877,0.442
	l-1.389,0.734c-1.964,0.615-3.254-0.635-3.254-0.635c-0.298-0.635-1.945-0.536-1.945-0.536L6.861,23.311z"/>
</svg>
