<?xml version="1.0" encoding="utf-8"?>
<!-- Generator: Adobe Illustrator 22.0.1, SVG Export Plug-In . SVG Version: 6.00 Build 0)  -->
<svg version="1.1" id="Layer_1" xmlns="http://www.w3.org/2000/svg" xmlns:xlink="http://www.w3.org/1999/xlink" x="0px" y="0px"
	 viewBox="0 0 32 32" style="enable-background:new 0 0 32 32;" xml:space="preserve">
<style type="text/css">
	.st0{fill:#FFFFFF;}
</style>
<g>
	<circle cx="16" cy="16" r="15.84"/>
	<g>
		<path class="st0" d="M16.367,8.986c1.934-0.058,3.502,0.746,4.89,2.025c0.695,0.641,0.878,1.237,0.074,1.916
			c-0.241,0.204-0.439,0.459-0.661,0.686c-0.506,0.52-0.93,1.264-1.545,1.496c-0.715,0.27-0.935-0.778-1.502-1.109
			c-1.129-0.66-2.668-0.499-3.482,0.46c-0.932,1.098-0.909,2.531,0.057,3.589c0.899,0.985,2.621,1.233,3.553,0.238
			c1.043-1.114,1.705-0.776,2.461,0.176c0.056,0.07,0.13,0.126,0.195,0.19c1.935,1.903,1.83,2.569-0.615,3.915
			c-2.662,1.465-6.143,1.137-8.422-0.795c-2.239-1.898-3.118-5.313-2.071-8.05C10.466,10.671,13.009,8.965,16.367,8.986z
			 M10.375,16.207c0.06,2.178,0.945,3.887,2.837,4.967c1.858,1.061,3.8,1.127,5.712,0.129c0.419-0.219,1.126-0.463,0.809-1.169
			c-0.329-0.733-0.866-0.702-1.553-0.31c-0.958,0.546-2.009,0.81-3.14,0.488c-2.43-0.693-3.723-3.24-2.828-5.609
			c0.904-2.393,3.488-3.312,5.979-2.113c0.561,0.27,1.143,0.791,1.583-0.086c0.416-0.828-0.423-1.019-0.851-1.263
			c-1.884-1.074-3.826-1.033-5.692,0.039C11.349,12.362,10.433,14.054,10.375,16.207z"/>
		<path class="st0" d="M16.382,27.578c-2.529-0.079-4.515-0.625-6.299-1.81c-0.325-0.216-0.986-0.344-0.599-0.979
			c0.333-0.546,0.817-0.662,1.395-0.298c1.954,1.233,4.09,1.616,6.379,1.453c5.402-0.385,9.748-6.234,8.52-11.472
			c-0.157-0.671-0.395-0.967-1.104-1.106c-1.429-0.281-2.245-1.684-1.853-2.957c0.434-1.411,1.895-2.155,3.23-1.646
			c1.33,0.507,1.957,1.88,1.271,3.205c-0.609,1.175-0.049,2.243,0.079,3.319c0.632,5.311-3.28,10.81-8.722,11.967
			C17.796,27.441,16.903,27.644,16.382,27.578z M25.164,11.937c0.518-0.089,0.855-0.34,0.843-0.894
			c-0.011-0.517-0.245-0.909-0.803-0.887c-0.507,0.02-0.853,0.353-0.867,0.873C24.323,11.56,24.682,11.828,25.164,11.937z"/>
		<path class="st0" d="M16.344,4.91c2.09,0.032,4.023,0.607,5.774,1.743c0.341,0.222,1.091,0.315,0.644,1.058
			c-0.379,0.63-0.778,0.637-1.431,0.252c-2.802-1.651-5.76-2.075-8.854-0.856c-4.005,1.578-6.703,6.165-6.104,10.39
			c0.115,0.814,0.28,1.466,1.349,1.731c1.353,0.335,1.939,1.971,1.396,3.211c-0.594,1.357-2.1,1.887-3.414,1.201
			c-1.216-0.635-1.741-2.207-0.884-3.372c0.725-0.986,0.193-1.856,0.086-2.724C4.099,10.996,9.184,4.852,16.344,4.91z M7.728,21.455
			c0.001-0.542-0.315-0.864-0.806-0.882c-0.562-0.021-0.915,0.311-0.903,0.914c0.01,0.518,0.267,0.851,0.804,0.873
			C7.431,22.384,7.705,22.033,7.728,21.455z"/>
	</g>
</g>
</svg>
