<?xml version="1.0" encoding="utf-8"?>
<!-- Generator: Adobe Illustrator 25.2.1, SVG Export Plug-In . SVG Version: 6.00 Build 0)  -->
<svg version="1.1" id="Layer_1" xmlns="http://www.w3.org/2000/svg" xmlns:xlink="http://www.w3.org/1999/xlink" x="0px" y="0px"
	 viewBox="0 0 32 32" style="enable-background:new 0 0 32 32;" xml:space="preserve">
<style type="text/css">
	.st0{fill-rule:evenodd;clip-rule:evenodd;fill:#FFFFFF;}
	.st1{fill-rule:evenodd;clip-rule:evenodd;}
</style>
<g>
	<circle class="st0" cx="16.111" cy="15.778" r="14.222"/>
	<path class="st1" d="M16,0.389c8.622,0,15.611,6.989,15.611,15.611S24.622,31.611,16,31.611C7.378,31.611,0.389,24.622,0.389,16
		S7.378,0.389,16,0.389z M16.058,27.967c-6.577,0-11.909-5.332-11.909-11.909C4.15,9.481,9.481,4.15,16.058,4.15
		c4.482,0,8.386,2.476,10.418,6.135c0.652,1.174-0.312,2.471-1.655,2.471c-0.798,0-1.502-0.484-1.939-1.151
		C21.428,9.38,18.915,7.91,16.058,7.91c-4.5,0-8.148,3.648-8.148,8.148c0,4.5,3.648,8.148,8.148,8.148
		c3.015,0,5.647-1.637,7.056-4.071c0.418-0.723,1.145-1.256,1.98-1.256c1.292,0,2.244,1.22,1.679,2.382
		C24.842,25.231,20.77,27.967,16.058,27.967z"/>
</g>
</svg>
