<?xml version="1.0" encoding="utf-8"?>
<!-- Generator: Adobe Illustrator 26.0.1, SVG Export Plug-In . SVG Version: 6.00 Build 0)  -->
<svg version="1.1" id="Layer_1" xmlns="http://www.w3.org/2000/svg" xmlns:xlink="http://www.w3.org/1999/xlink" x="0px" y="0px"
	 viewBox="0 0 32 32" style="enable-background:new 0 0 32 32;" xml:space="preserve">
<style type="text/css">
	.st0{fill:#04795B;}
	.st1{fill:#0DB50A;}
	.st2{fill:#0AE33A;}
</style>
<g id="g1064" transform="translate(-40.0107,-39.8628)">
	<path id="path1020" class="st0" d="M70.223,41.695c-0.42-0.419-0.919-0.751-1.467-0.978s-1.137-0.343-1.731-0.343
		s-1.182,0.117-1.731,0.343c-0.549,0.227-1.048,0.559-1.467,0.978l-11.014,10.98c-0.42,0.419-0.753,0.916-0.981,1.463
		c-0.227,0.547-0.344,1.133-0.344,1.725c0,0.592,0.117,1.178,0.344,1.726c0.227,0.547,0.561,1.044,0.981,1.463L63.826,70.03
		c0.42,0.419,0.918,0.751,1.467,0.978c0.549,0.227,1.137,0.343,1.731,0.343c0.594,0,1.182-0.116,1.731-0.343
		c0.549-0.227,1.047-0.559,1.467-0.978l0,0c0.42-0.418,0.753-0.916,0.981-1.462c0.227-0.547,0.344-1.133,0.344-1.726
		s-0.117-1.178-0.344-1.725c-0.227-0.547-0.561-1.044-0.981-1.463l-6.753-6.727c-0.141-0.14-0.252-0.305-0.328-0.488
		c-0.076-0.183-0.115-0.378-0.115-0.576c0-0.198,0.039-0.394,0.115-0.576c0.076-0.183,0.188-0.349,0.328-0.488l6.753-6.727
		c0.42-0.419,0.753-0.916,0.981-1.463c0.227-0.547,0.344-1.133,0.344-1.726c0-0.592-0.117-1.178-0.344-1.725
		C70.976,42.611,70.643,42.114,70.223,41.695L70.223,41.695z"/>
	<path id="path1022" class="st1" d="M63.825,70.029c1.766,1.76,4.629,1.76,6.395,0c1.766-1.76,1.766-4.615,0-6.375l-11.014-10.98
		c-1.766-1.761-4.629-1.761-6.395,0c-1.766,1.76-1.766,4.615,0,6.375L63.825,70.029z"/>
	<path id="path1024" class="st2" d="M59.209,52.675l-11.014-10.98c-0.42-0.419-0.919-0.751-1.467-0.978s-1.137-0.343-1.731-0.343
		c-0.594,0-1.182,0.117-1.731,0.343c-0.549,0.227-1.047,0.559-1.467,0.978c-0.42,0.419-0.753,0.916-0.981,1.463
		c-0.227,0.547-0.344,1.133-0.344,1.725c0,0.592,0.117,1.178,0.344,1.726c0.227,0.547,0.561,1.044,0.981,1.463l6.748,6.727
		c0.141,0.14,0.252,0.306,0.328,0.488s0.115,0.378,0.115,0.576c0,0.198-0.039,0.394-0.115,0.576
		c-0.076,0.183-0.187,0.349-0.328,0.488l-6.748,6.727c-0.42,0.418-0.753,0.916-0.981,1.463c-0.227,0.547-0.344,1.133-0.344,1.725
		s0.117,1.178,0.344,1.726c0.227,0.547,0.561,1.044,0.981,1.463c0.42,0.419,0.919,0.751,1.467,0.978
		c0.549,0.227,1.137,0.343,1.731,0.343c0.594,0,1.182-0.116,1.731-0.343c0.549-0.227,1.047-0.559,1.467-0.978l7.813-7.794
		l3.201-3.186c0.42-0.419,0.753-0.916,0.981-1.463c0.227-0.547,0.344-1.133,0.344-1.726c0-0.592-0.117-1.178-0.344-1.725
		C59.962,53.59,59.629,53.093,59.209,52.675L59.209,52.675z"/>
	<path id="path1026" class="st2" d="M67.022,49.394c2.497,0,4.522-2.018,4.522-4.508c0-2.49-2.025-4.508-4.522-4.508
		c-2.498,0-4.522,2.018-4.522,4.508C62.5,47.376,64.525,49.394,67.022,49.394z"/>
</g>
</svg>
