<?xml version="1.0" encoding="utf-8"?>
<!-- Generator: Adobe Illustrator 25.3.1, SVG Export Plug-In . SVG Version: 6.00 Build 0)  -->
<svg version="1.1" id="Layer_1" xmlns="http://www.w3.org/2000/svg" xmlns:xlink="http://www.w3.org/1999/xlink" x="0px" y="0px"
	 viewBox="0 0 32 32" style="enable-background:new 0 0 32 32;" xml:space="preserve">
<style type="text/css">
	.st0{fill:#FFFFFF;}
	.st1{fill:#B7B5B1;}
	.st2{fill:#244B81;}
</style>
<g>
	<ellipse class="st0" cx="16.194" cy="15.806" rx="8.028" ry="8.972"/>
	<g id="Shape_1_3_">
		<g>
			<path class="st1" d="M31.732,14.498c-3.615-20.945-30.964-16.892-31.452,0c1.579,0.819,2.57,1.317,2.57,1.317
				s-0.837,0.501-2.581,1.616c3.152,20.534,30.03,17.552,31.459-0.024c-1.709-1.047-2.641-1.601-2.641-1.601
				S29.885,15.425,31.732,14.498z M18.275,21.811l-2.565-4.41l-2.611,4.41l-1.97-0.135l3.71-6.255l-3.344-5.4l2.016-0.18
				l2.382,4.005l2.382-3.825l1.878,0.045l-3.115,5.31l3.435,6.39L18.275,21.811z"/>
		</g>
	</g>
	<g id="Shape_1_2_">
		<g>
			<path class="st2" d="M30.456,13.676C25.555-4.935,3.093,0.1,1.555,13.676c3.117,1.754,3.824,2.166,3.824,2.166
				s-1.204,0.77-3.834,2.44c3.344,17.893,27.579,14.454,28.907-0.022c-2.446-1.533-3.889-2.426-3.889-2.426
				S29.86,13.991,30.456,13.676z M18.275,21.823l-2.565-4.409l-2.611,4.409l-1.969-0.135l3.71-6.254l-3.344-5.399l2.015-0.18
				l2.382,4.004l2.382-3.824l1.878,0.045l-3.115,5.309l3.435,6.389L18.275,21.823z"/>
		</g>
	</g>
</g>
</svg>
