<svg id="Layer_1" data-name="Layer 1" xmlns="http://www.w3.org/2000/svg" viewBox="0 0 32 32"><defs><style>.cls-1{fill:#67b2e8;}.cls-2{fill:#fff;}</style></defs><title>xem</title><circle class="cls-1" cx="16" cy="16" r="16"/><path class="cls-2" d="M6.145,11.954A19.8252,19.8252,0,0,1,6,9.636,20.1777,20.1777,0,0,1,16.414,7.004c.568.011,1.39.074,2.014.141a6.0052,6.0052,0,0,0-3.065,4.19,6.2984,6.2984,0,0,0-.104.988,5.454,5.454,0,0,1-.18,1.353,4.53,4.53,0,0,1-8.469.672,1.4744,1.4744,0,0,1-.1-.3A20.1736,20.1736,0,0,1,6.145,11.954Zm16.613,8.56c-.238.37-.49.73-.752,1.085a6.0286,6.0286,0,0,0-2.876-5.153l-.09-.055q-.075-.0441-.149-.09a4.4356,4.4356,0,0,1-2.074-3.041,4.5278,4.5278,0,0,1,5.82-5.136,16.1029,16.1029,0,0,1,2.008.807c.44.207.884.437,1.356.704a20.2288,20.2288,0,0,1-3.242,10.879Zm-3.037,3.673A20.5224,20.5224,0,0,1,16.001,27q-.5205-.3-1.017-.639a20.375,20.375,0,0,1-7.288-8.722,5.8815,5.8815,0,0,0,2.42.785,6.0265,6.0265,0,0,0,3.614-.773,4.6178,4.6178,0,0,1,1.706-.569,4.52,4.52,0,0,1,4.902,3.206,4.4551,4.4551,0,0,1-.283,3.307c-.044.092-.082.166-.172.343l-.044.087A.5834.5834,0,0,1,19.721,24.187Z"/></svg>