<?xml version="1.0" encoding="utf-8"?>
<!-- Generator: Adobe Illustrator 24.0.2, SVG Export Plug-In . SVG Version: 6.00 Build 0)  -->
<svg version="1.1" id="Layer_1" xmlns="http://www.w3.org/2000/svg" xmlns:xlink="http://www.w3.org/1999/xlink" x="0px" y="0px"
	 viewBox="0 0 32 32" style="enable-background:new 0 0 32 32;" xml:space="preserve">
<style type="text/css">
	.st0{fill-rule:evenodd;clip-rule:evenodd;fill:#FFFFFF;}
	.st1{fill-rule:evenodd;clip-rule:evenodd;fill:#561263;}
</style>
<g>
	<polygon class="st0" points="2.764,12.449 3.283,5.315 4.606,3.378 12.946,1.488 24.874,2.717 28.795,5.031 29.362,11.835 
		28.512,17.757 25.819,22.89 18.29,29.362 13.481,29.22 6.419,23.646 2.764,14.963 	"/>
	<g>
		<path class="st1" d="M23.836,5.236C23.421,5.079,23,4.935,22.575,4.808c-1.071-0.317-1.67,0.183-1.668,1.3c0,2.04,0,4.08,0,6.119
			c-0.002,1.128,0.597,1.825,1.668,2.14c0.424,0.128,0.846,0.27,1.261,0.43c1.036,0.397,1.578,0.091,1.579-1.037
			c0-0.43,0-0.86,0-1.29c0-0.12-0.064-0.225-0.173-0.276c-0.359-0.172-0.725-0.331-1.094-0.479
			c-0.123-0.047-0.178,0.002-0.178,0.122c0,0.318,0,0.637,0,0.955c0,0.323-0.156,0.418-0.446,0.311
			c-0.194-0.069-0.389-0.136-0.586-0.199c-0.295-0.095-0.455-0.296-0.454-0.618c0-1.817,0-3.634,0-5.451
			c-0.001-0.31,0.148-0.436,0.454-0.337c0.197,0.063,0.391,0.13,0.586,0.199c0.29,0.104,0.446,0.335,0.446,0.645
			c0,0.319,0,0.637,0,0.957c0,0.118,0.055,0.211,0.178,0.26c0.369,0.148,0.735,0.308,1.094,0.48
			c0.108,0.051,0.173,0.012,0.173-0.109c0-0.43,0-0.86,0-1.29C25.414,6.522,24.872,5.634,23.836,5.236L23.836,5.236z"/>
		<path class="st1" d="M9.894,9.304c0.574-1.586,1.155-3.146,1.74-4.677c0.069-0.175,0.012-0.283-0.172-0.253
			c-0.382,0.065-0.762,0.142-1.14,0.23c-0.124,0.029-0.215,0.098-0.26,0.228C9.712,5.844,9.365,6.866,9.02,7.899
			C8.675,7.08,8.333,6.274,7.994,5.476C7.95,5.375,7.863,5.361,7.743,5.409C7.38,5.552,7.022,5.706,6.667,5.873
			c-0.17,0.079-0.222,0.223-0.159,0.355c0.536,1.18,1.083,2.387,1.639,3.62c-0.578,1.712-1.146,3.454-1.703,5.228
			c-0.062,0.193-0.011,0.284,0.159,0.203c0.364-0.174,0.733-0.333,1.106-0.482c0.12-0.047,0.207-0.128,0.251-0.262
			c0.35-1.077,0.703-2.146,1.06-3.202c0.357,0.834,0.715,1.681,1.076,2.537c0.044,0.105,0.135,0.13,0.26,0.101
			c0.389-0.089,0.781-0.168,1.175-0.233c0.183-0.03,0.24-0.156,0.172-0.31C11.095,12.024,10.491,10.649,9.894,9.304L9.894,9.304z"/>
		<path class="st1" d="M18.685,4.054c-1.513-0.207-3.047-0.242-4.566-0.107c-0.136,0.012-0.197,0.094-0.197,0.22
			c0,3.217,0,5.301,0,8.518c0,0.124,0.061,0.193,0.197,0.182c0.429-0.038,0.86-0.063,1.292-0.075
			c0.124-0.002,0.199-0.079,0.199-0.203c0-1.338,0-1.541,0-2.876c0.779-0.012,1.559,0.022,2.334,0.099
			c0.125,0.012,0.199-0.041,0.199-0.181c0-0.418,0-0.836,0-1.257c0-0.124-0.074-0.209-0.199-0.221
			c-0.775-0.077-1.555-0.111-2.334-0.099c0-0.842,0-1.683,0-2.525c1.028-0.016,2.057,0.046,3.076,0.186
			c0.123,0.017,0.197-0.046,0.197-0.173c0-0.419,0-0.837,0-1.257C18.883,4.158,18.808,4.072,18.685,4.054L18.685,4.054z"/>
		<path class="st1" d="M16.282,24.252c-0.467-0.084-0.862-0.22-1.085-0.306c-0.328,0.292-0.893,0.591-1.253,0.705
			c0.286,0.478,0.712,0.818,0.96,0.989c0.076,0.019,0.153,0.034,0.23,0.047c0.636,0.114,1.291,0.104,1.92-0.029
			c0.047-0.025,0.093-0.049,0.138-0.076c0.249-0.143,0.473-0.297,0.669-0.457c-0.185-0.165-0.349-0.432-0.493-0.814
			C17.034,24.341,16.669,24.32,16.282,24.252L16.282,24.252z"/>
		<path class="st1" d="M12.058,23.266c-0.089,0.07-0.175,0.142-0.256,0.213c0.555,0.854,1.355,1.516,2.287,1.904
			c-0.188-0.197-0.378-0.44-0.522-0.72C13.112,24.468,12.359,23.686,12.058,23.266L12.058,23.266z"/>
		<path class="st1" d="M12.241,20.048c0.083,0.363,0.231,0.871,0.47,1.254l0.911,0.162c0.24,0.042,0.483,0.084,0.715,0.127
			c0.345-0.702,1.075-1.366,1.429-1.66c-0.132-0.452-0.241-0.927-0.347-1.388l-0.039-0.169c-0.024-0.103-0.046-0.208-0.071-0.312
			c-0.276-0.142-0.662-0.265-1.045-0.333L14.2,17.716c-0.294-0.047-0.559-0.055-0.723-0.022c-0.46,0.47-0.943,0.99-1.367,1.61
			c0.004,0.038,0.011,0.09,0.02,0.15C12.142,19.539,12.175,19.764,12.241,20.048L12.241,20.048z"/>
		<path class="st1" d="M12.4,21.434c-0.415-0.693-0.575-1.709-0.616-2.039c-0.15-0.037-0.367-0.097-0.56-0.175
			c-0.067,0.212-0.12,0.425-0.157,0.634c-0.206,1.144-0.006,2.323,0.559,3.333c0.097-0.083,0.196-0.164,0.296-0.241
			C11.893,22.372,12.193,21.774,12.4,21.434L12.4,21.434z"/>
		<path class="st1" d="M17.982,20.445c-0.061-0.012-0.124-0.024-0.186-0.035l-0.047-0.008c-0.403-0.071-0.766-0.118-1.117-0.165
			c-0.221-0.029-0.416-0.052-0.614-0.082c-0.028,0.022-0.065,0.053-0.109,0.092c-0.148,0.125-0.294,0.259-0.448,0.414
			c-0.283,0.284-0.658,0.709-0.849,1.13c0.168,0.577,0.37,1.235,0.667,1.83c0.045,0.018,0.126,0.048,0.228,0.084
			c0.154,0.053,0.467,0.153,0.834,0.219c0.39,0.069,0.754,0.087,1.076,0.048c0.403-0.371,0.838-0.881,1.329-1.555
			c-0.037-0.697-0.519-1.567-0.729-1.912L17.982,20.445L17.982,20.445z"/>
		<path class="st1" d="M13.725,17.341c0.177,0,0.377,0.02,0.597,0.057c0.411,0.074,0.825,0.207,1.126,0.359
			c0.297-0.181,1.14-0.618,1.651-0.745c-0.03-0.369-0.118-0.801-0.184-1.034c-0.15-0.075-0.296-0.16-0.44-0.244
			c-0.158-0.014-0.308-0.02-0.458-0.02c-0.881,0-1.75,0.234-2.517,0.677c-0.035,0.336-0.017,0.708,0.021,0.96
			C13.584,17.344,13.651,17.341,13.725,17.341L13.725,17.341z"/>
		<path class="st1" d="M20.344,23.314c0.247-0.414,0.433-0.863,0.553-1.333c-0.116,0.234-0.268,0.47-0.458,0.678
			C20.433,22.875,20.402,23.093,20.344,23.314L20.344,23.314z"/>
		<path class="st1" d="M17.52,15.942c-0.093,0.031-0.174,0.055-0.249,0.07c0.067,0.277,0.142,0.67,0.164,1.014
			c0.424,0.208,1.283,0.961,1.566,1.311c0.508,0.001,0.966,0.079,1.335,0.225l0.031-0.354C19.732,17.119,18.722,16.315,17.52,15.942
			L17.52,15.942z"/>
		<path class="st1" d="M27.893,15.183c-0.346,1.791-0.92,3.485-1.681,5.057c-1.198-0.455-2.427-0.833-3.687-1.125
			c-0.804-2.848-3.417-4.936-6.523-4.936c-3.108,0-5.721,2.088-6.525,4.936c-1.26,0.292-2.49,0.671-3.686,1.125
			c-0.762-1.573-1.336-3.267-1.683-5.057C3.855,13.87,3.726,12.52,3.726,11.17c0-2.257,0.351-4.463,1.046-6.562
			c3.566-1.571,7.338-2.366,11.229-2.366c3.889,0,7.663,0.795,11.228,2.366c0.695,2.1,1.047,4.304,1.047,6.562
			C28.276,12.519,28.147,13.871,27.893,15.183L27.893,15.183z M21.431,21.725c-0.471,2.632-2.752,4.54-5.424,4.54
			c-0.326,0-0.655-0.028-0.978-0.087c-1.452-0.258-2.714-1.065-3.556-2.274c-0.843-1.209-1.162-2.672-0.904-4.12
			c0.472-2.632,2.753-4.541,5.425-4.541c0.326,0,0.654,0.029,0.978,0.087C19.967,15.865,21.968,18.735,21.431,21.725L21.431,21.725z
			 M30.243,11.17c0-2.829-0.51-5.529-1.435-8.003c-3.917-1.858-8.251-2.892-12.807-2.892c-4.558,0-8.891,1.034-12.808,2.892
			C2.269,5.641,1.757,8.341,1.757,11.17c0,1.503,0.144,2.971,0.419,4.385c0.436,2.256,1.203,4.381,2.242,6.315
			c0.027,0.05,0.053,0.099,0.081,0.149c0.312,0.57,0.646,1.124,1.005,1.659c0.032,0.047,0.063,0.094,0.095,0.141
			c0.361,0.531,0.743,1.042,1.147,1.533c0.038,0.046,0.075,0.092,0.113,0.137c0.405,0.485,0.832,0.95,1.275,1.394
			c0.045,0.045,0.089,0.087,0.133,0.132c0.445,0.436,0.908,0.852,1.389,1.243c0.051,0.044,0.104,0.085,0.155,0.124
			c0.48,0.386,0.979,0.748,1.491,1.087c0.059,0.037,0.117,0.077,0.176,0.112c0.514,0.331,1.043,0.637,1.586,0.919
			c0.063,0.033,0.129,0.065,0.193,0.099c0.544,0.272,1.101,0.521,1.671,0.742c0.068,0.027,0.138,0.053,0.207,0.079
			c0.286,0.108,0.574,0.211,0.866,0.304v0c0.002,0,0.004-0.002,0.006-0.002c0.288-0.093,0.573-0.193,0.855-0.3
			c0.072-0.026,0.144-0.053,0.216-0.083c0.282-0.109,0.562-0.223,0.838-0.345c0.006-0.002,0.011-0.006,0.016-0.008
			c0.273-0.123,0.541-0.251,0.808-0.385c0.067-0.035,0.134-0.069,0.201-0.105c0.269-0.138,0.535-0.282,0.798-0.432
			c0.006-0.004,0.012-0.008,0.018-0.012c0.257-0.148,0.51-0.306,0.76-0.467c0.062-0.04,0.125-0.081,0.186-0.12
			c0.254-0.168,0.506-0.339,0.752-0.517c0.004-0.006,0.01-0.01,0.015-0.012c0.242-0.177,0.479-0.361,0.714-0.548
			c0.055-0.046,0.111-0.089,0.166-0.134c0.239-0.193,0.474-0.393,0.703-0.598c0.004-0.004,0.007-0.008,0.011-0.01
			c0.226-0.203,0.445-0.413,0.663-0.626c0.049-0.047,0.099-0.095,0.147-0.144c0.22-0.219,0.437-0.444,0.647-0.673
			c0.003-0.004,0.006-0.008,0.008-0.012c0.207-0.225,0.409-0.458,0.606-0.695c0.043-0.051,0.085-0.102,0.128-0.154
			c0.199-0.244,0.396-0.49,0.585-0.744c0.002-0.002,0.004-0.006,0.006-0.008c0.186-0.249,0.365-0.505,0.541-0.763
			c0.036-0.054,0.073-0.109,0.109-0.162c0.178-0.265,0.351-0.534,0.518-0.807c0.002-0.005,0.004-0.008,0.006-0.013
			c0.162-0.267,0.318-0.541,0.469-0.817c0.031-0.056,0.062-0.114,0.093-0.171c0.153-0.284,0.299-0.572,0.44-0.863
			c0.001-0.001,0.001-0.003,0.002-0.005l0,0c0.813-1.694,1.423-3.518,1.794-5.437C30.099,14.141,30.243,12.673,30.243,11.17
			L30.243,11.17z"/>
		<path class="st1" d="M19.698,18.729c-0.195-0.035-0.41-0.054-0.638-0.059c-0.136,0.596-0.409,1.172-0.77,1.637
			c0.241,0.396,0.715,1.258,0.785,2.015c0.015,0.004,0.029,0.006,0.045,0.01c0.309,0.054,0.827,0.094,1.069,0.105
			c0.537-0.585,0.725-1.448,0.77-1.702l0.008-0.049c-0.061-0.568-0.354-1.314-0.605-1.746C20.174,18.845,19.95,18.775,19.698,18.729
			L19.698,18.729z"/>
	</g>
</g>
</svg>
