<?xml version="1.0" encoding="utf-8"?>
<!-- Generator: Adobe Illustrator 22.0.1, SVG Export Plug-In . SVG Version: 6.00 Build 0)  -->
<svg version="1.1" id="Layer_1" xmlns="http://www.w3.org/2000/svg" xmlns:xlink="http://www.w3.org/1999/xlink" x="0px" y="0px"
	 viewBox="0 0 32 32" style="enable-background:new 0 0 32 32;" xml:space="preserve">
<style type="text/css">
	.st0{fill:#14B6E7;}
	.st1{fill:#FFFFFF;}
</style>
<g>
	<circle class="st0" cx="16" cy="16.092" r="16"/>
	<path class="st1" d="M12.779,13.619c0.688-1.227,1.392-2.446,2.11-3.656c2.103-3.533,7.724-3.9,8.03-3.68l-0.003,0.006l0.004-0.004
		c0.306,0.22,1.86,5.75-0.688,8.962c-0.867,1.091-1.747,2.172-2.641,3.241c0.93,1.462,1.564,3.931-0.625,7.411
		c-0.104,0.164-0.3,0.298-0.315-0.042c-0.034-0.829-0.323-2.477-1.903-4.017l-0.1,0.118c-0.485,0.584-0.889,0.505-1.556,0.025
		l-0.053-0.039c-0.076,0.286-0.201,0.563-0.377,0.819c-0.02,0.028-0.042,0.054-0.063,0.082c-1.48,2.083-3.567,3.108-4.705,2.286
		c-1.138-0.82-0.9-3.178,0.518-5.306c0.019-0.03,0.035-0.06,0.055-0.09c0.175-0.253,0.385-0.465,0.62-0.634h-0.001
		c-0.667-0.481-0.875-0.843-0.501-1.507l0.053-0.096c-1.952-0.953-3.57-0.67-4.352-0.423c-0.325,0.103-0.266-0.133-0.146-0.29
		C8.612,13.562,11.09,13.263,12.779,13.619z M11.733,19.566c-0.095,0.087-0.18,0.185-0.254,0.29c-0.014,0.02-0.025,0.04-0.038,0.06
		c-1,1.465-1.175,3.081-0.382,3.64c0.792,0.557,2.254-0.152,3.296-1.586c0.015-0.02,0.031-0.037,0.045-0.057
		c0.069-0.097,0.126-0.199,0.173-0.303l-1.483-1.068l-1.356-0.976H11.733z M16.665,10.796c-0.721,1.044-0.478,2.473,0.549,3.219
		c1.007,0.723,2.41,0.493,3.133-0.514c0.01-0.015,0.021-0.029,0.031-0.044c0.722-1.044,0.478-2.475-0.55-3.22
		c-1.008-0.723-2.41-0.492-3.133,0.516C16.685,10.767,16.675,10.781,16.665,10.796z"/>
</g>
</svg>
