<?xml version="1.0" encoding="utf-8"?>
<!-- Generator: Adobe Illustrator 22.0.1, SVG Export Plug-In . SVG Version: 6.00 Build 0)  -->
<svg version="1.1" id="Layer_1" xmlns="http://www.w3.org/2000/svg" xmlns:xlink="http://www.w3.org/1999/xlink" x="0px" y="0px"
	 viewBox="0 0 32 32" style="enable-background:new 0 0 32 32;" xml:space="preserve">
<style type="text/css">
	.st0{fill:url(#SVGID_1_);}
	.st1{fill:#1E1E1E;}
</style>
<linearGradient id="SVGID_1_" gradientUnits="userSpaceOnUse" x1="23.884" y1="8.116" x2="7.3066" y2="24.6934">
	<stop  offset="0" style="stop-color:#FFCF42"/>
	<stop  offset="0.3934" style="stop-color:#FFC73C"/>
	<stop  offset="1" style="stop-color:#FFBE36"/>
</linearGradient>
<circle class="st0" cx="16" cy="16" r="14.8"/>
<g>
	<path class="st1" d="M27.2,4.8c-3-3-6.9-4.6-11.2-4.6S7.8,1.9,4.8,4.8c-3,3-4.6,6.9-4.6,11.2c0,4.2,1.6,8.2,4.6,11.1c0,0,0,0,0,0
		c0,0,0,0,0,0c3,3,6.9,4.6,11.1,4.6c4.2,0,8.2-1.6,11.2-4.6c3-3,4.6-6.9,4.6-11.2C31.8,11.8,30.1,7.8,27.2,4.8z M6.7,14.4
		c1.5-1.5,3.5-2.3,5.5-2.3c2,0,4,0.8,5.5,2.3c3,3,3,7.9,0,10.9c-2.9,2.9-7.5,3-10.6,0.3c-0.2-0.2-0.5-0.5-0.7-0.7
		C3.7,21.9,3.8,17.3,6.7,14.4z M16.6,29.2c1-0.5,2-1.2,2.9-2c3.4-3.4,3.9-8.6,1.6-12.6c0.5-1,1.4-1.6,2.6-1.7c0.8,0,1.5,0.7,1.5,1.5
		c0,0.3-0.3,0.6-0.6,0.6c0,0-0.1,0-0.1-0.1c0-0.4-0.3-0.8-0.8-0.8c-0.4,0-0.8,0.3-0.8,0.8c0,0.9,0.7,1.6,1.6,1.6h0
		c1.2,0,2.2-1,2.2-2.2c0-1.7-1.4-3-3-3h0c-0.6,0-1.2,0.1-1.7,0.4l3.3-5l-5,3.3c0.2-0.5,0.4-1.1,0.4-1.7v0c0-1.7-1.4-3-3-3
		c-1.2,0-2.2,1-2.2,2.2v0h0c0,0.9,0.7,1.6,1.6,1.6c0.4,0,0.8-0.3,0.8-0.8c0-0.4-0.3-0.8-0.8-0.8c0,0-0.1,0-0.1-0.1
		c0-0.3,0.3-0.6,0.6-0.6c0.8,0,1.5,0.7,1.5,1.5c0,1.1-0.7,2.1-1.7,2.6c-4-2.3-9.2-1.8-12.6,1.6c-0.9,0.9-1.5,1.8-2,2.9
		C3.1,8.4,8.9,2.8,16,2.8c7.3,0,13.2,5.9,13.2,13.2C29.2,23.1,23.6,28.9,16.6,29.2z"/>
	<circle class="st1" cx="12.1" cy="19.8" r="1.5"/>
</g>
</svg>
