<?xml version="1.0" encoding="utf-8"?>
<!-- Generator: Adobe Illustrator 26.2.1, SVG Export Plug-In . SVG Version: 6.00 Build 0)  -->
<svg version="1.1" id="Layer_1" xmlns="http://www.w3.org/2000/svg" xmlns:xlink="http://www.w3.org/1999/xlink" x="0px" y="0px"
	 viewBox="0 0 32 32" style="enable-background:new 0 0 32 32;" xml:space="preserve">
<style type="text/css">
	.st0{fill-rule:evenodd;clip-rule:evenodd;fill:url(#SVGID_1_);}
</style>
<linearGradient id="SVGID_1_" gradientUnits="userSpaceOnUse" x1="3.5303" y1="18.4178" x2="30.1554" y2="17.5259" gradientTransform="matrix(1 0 0 -1 0 34)">
	<stop  offset="0" style="stop-color:#7543E3"/>
	<stop  offset="1" style="stop-color:#582ACB"/>
</linearGradient>
<path class="st0" d="M22.37,17.7c0.378-0.286,0.742-0.573,1.088-0.86c0.007-0.006,0.014-0.012,0.021-0.017
	c0.036-0.029,0.072-0.058,0.107-0.088c0.294-0.246,0.575-0.491,0.845-0.735c-0.248-0.223-0.504-0.447-0.772-0.672
	c-0.405-0.342-0.837-0.682-1.287-1.022c0.022,0.555,0.033,1.12,0.033,1.694c0,0.139,0,0.277-0.002,0.416
	C22.4,16.85,22.387,17.277,22.37,17.7L22.37,17.7z M20.217,23.301c0.086-0.402,0.166-0.818,0.238-1.247
	c0.075-0.446,0.139-0.912,0.197-1.386c-0.354,0.224-0.712,0.446-1.077,0.662c-0.124,0.073-0.248,0.145-0.372,0.216
	c-0.435,0.25-0.869,0.491-1.3,0.718c-0.034,0.018-0.069,0.036-0.103,0.054c-0.029,0.015-0.058,0.03-0.088,0.046
	c0.447,0.189,0.89,0.366,1.329,0.529C19.439,23.04,19.83,23.175,20.217,23.301L20.217,23.301z M12.732,22.976
	c0.502-0.181,1.016-0.38,1.541-0.605c0.003-0.001,0.006-0.002,0.008-0.004c0.002-0.001,0.004-0.002,0.006-0.003
	c-0.497-0.26-0.994-0.534-1.489-0.819c-0.007-0.004-0.014-0.008-0.021-0.012c-0.019-0.011-0.039-0.022-0.057-0.034
	c-0.473-0.274-0.929-0.553-1.376-0.834c0.062,0.498,0.133,0.982,0.213,1.449c0.069,0.409,0.147,0.802,0.23,1.185
	c0.238-0.077,0.478-0.157,0.721-0.244C12.583,23.031,12.658,23.003,12.732,22.976z M7.57,16.001
	c0.248,0.224,0.505,0.448,0.773,0.673c0.405,0.34,0.837,0.681,1.287,1.02C9.608,17.139,9.596,16.574,9.596,16
	c0-0.139,0-0.277,0.004-0.414c0.003-0.434,0.015-0.86,0.032-1.284c-0.34,0.257-0.669,0.514-0.983,0.771
	C8.27,15.382,7.911,15.691,7.57,16.001z M11.787,8.699c-0.085,0.401-0.165,0.816-0.237,1.244c-0.076,0.446-0.141,0.911-0.2,1.385
	c0.448-0.283,0.909-0.562,1.382-0.837c0.012-0.006,0.023-0.013,0.034-0.019c0.011-0.006,0.022-0.013,0.034-0.019
	c0.496-0.286,0.994-0.559,1.491-0.819c-0.45-0.19-0.894-0.366-1.327-0.527C12.561,8.957,12.171,8.823,11.787,8.699z M19.624,8.898
	c-0.584,0.202-1.176,0.431-1.777,0.682C17.825,9.59,17.802,9.6,17.779,9.61c-0.02,0.009-0.04,0.017-0.06,0.026
	c0.492,0.259,0.987,0.532,1.484,0.819c0.007,0.004,0.014,0.008,0.02,0.012c0.019,0.011,0.039,0.022,0.057,0.034
	c0.47,0.27,0.926,0.551,1.376,0.836c-0.062-0.499-0.133-0.983-0.213-1.451c-0.07-0.408-0.148-0.802-0.23-1.186
	C20.019,8.763,19.822,8.829,19.624,8.898L19.624,8.898z M17.82,20.639c0.216-0.118,0.433-0.239,0.649-0.365
	c0.837-0.483,1.625-0.978,2.367-1.48c0.03-0.429,0.056-0.863,0.073-1.309C20.928,17,20.936,16.504,20.936,16
	c0-0.966-0.035-1.897-0.099-2.791c-0.428-0.289-0.868-0.576-1.329-0.861c-0.338-0.21-0.685-0.416-1.039-0.622
	c-0.836-0.483-1.66-0.918-2.467-1.31c-0.503,0.245-1.007,0.501-1.511,0.775c-0.319,0.172-0.638,0.351-0.958,0.535
	c-0.836,0.483-1.624,0.979-2.367,1.481c-0.03,0.428-0.056,0.862-0.073,1.308C11.075,15,11.066,15.496,11.066,16
	c0,0.967,0.035,1.897,0.099,2.792c0.429,0.29,0.87,0.578,1.331,0.86c0.338,0.21,0.682,0.418,1.037,0.622
	c0.822,0.474,1.647,0.911,2.469,1.31c0.023-0.011,0.045-0.022,0.068-0.032c0.03-0.014,0.06-0.028,0.09-0.043
	C16.707,21.24,17.259,20.95,17.82,20.639L17.82,20.639z M22.253,12.401c0.458,0.322,0.906,0.649,1.336,0.982
	c1.684,1.304,3.131,2.671,4.244,4.024c2.146,2.608,2.82,4.924,1.898,6.521c-0.691,1.199-2.186,1.821-4.301,1.821
	c-0.699,0-1.466-0.067-2.296-0.206c-0.214-0.036-0.433-0.076-0.653-0.12c0.132-0.456,0.254-0.932,0.365-1.426
	c0.178,0.036,0.355,0.067,0.529,0.097c2.606,0.433,4.507,0.097,5.082-0.901c0.699-1.212-0.393-3.569-2.961-6.175
	c-0.257,0.234-0.52,0.467-0.793,0.698c-0.007,0.006-0.015,0.012-0.022,0.019c-0.033,0.028-0.067,0.056-0.099,0.082
	c-0.727,0.609-1.508,1.207-2.332,1.787c-0.04,0.461-0.085,0.917-0.14,1.359c-0.802,6.46-3.162,10.893-6.109,10.893
	c-2.029,0-3.78-2.104-4.935-5.525c0.464-0.126,0.939-0.273,1.424-0.437c0.959,2.829,2.272,4.492,3.511,4.492
	c1.399,0,2.895-2.124,3.868-5.653c-0.382-0.121-0.767-0.251-1.155-0.395c-0.887-0.323-1.793-0.701-2.705-1.124
	c-0.02,0.009-0.039,0.018-0.059,0.027c-0.514,0.239-1.021,0.462-1.52,0.668c-0.013,0.005-0.026,0.011-0.039,0.016
	c-0.064,0.026-0.127,0.052-0.19,0.074c-2.877,1.159-5.504,1.76-7.594,1.76c-2.081,0-3.625-0.596-4.339-1.831
	c-1.021-1.768-0.055-4.358,2.362-7.088l1.027,1.084c-1.955,2.239-2.732,4.2-2.115,5.269c0.698,1.21,3.278,1.444,6.812,0.527
	c-0.083-0.39-0.162-0.787-0.232-1.199c-0.159-0.923-0.283-1.898-0.372-2.914c-0.461-0.322-0.908-0.647-1.333-0.974
	c-4.095-3.15-6.552-6.495-6.552-8.986c0-0.575,0.132-1.105,0.403-1.575C3.286,6.315,5.984,5.851,9.527,6.56
	c-0.134,0.462-0.258,0.945-0.37,1.445C6.245,7.43,4.16,7.739,3.544,8.807c-0.698,1.21,0.389,3.562,2.95,6.165
	c0.328-0.298,0.669-0.594,1.027-0.887c0.69-0.571,1.437-1.137,2.231-1.694c0.04-0.462,0.086-0.919,0.142-1.362
	c0.802-6.453,3.163-10.884,6.107-10.884c2.033,0,3.787,2.111,4.942,5.54C20.477,5.815,20,5.96,19.519,6.122
	c-0.96-2.837-2.277-4.507-3.518-4.507c-1.399,0-2.891,2.117-3.863,5.636c0.38,0.123,0.763,0.253,1.154,0.397
	c0.882,0.325,1.791,0.706,2.718,1.139c0.024-0.011,0.048-0.023,0.072-0.034c0.029-0.014,0.058-0.028,0.087-0.041
	c0.594-0.273,1.184-0.525,1.768-0.756c0.071-0.027,0.141-0.055,0.21-0.082c1.749-0.676,3.44-1.161,4.987-1.418
	c3.333-0.554,5.676,0.019,6.596,1.615c0.922,1.596,0.248,3.912-1.898,6.52c-0.124,0.149-0.25,0.3-0.382,0.449
	c-0.319-0.355-0.659-0.71-1.022-1.065c1.894-2.197,2.639-4.116,2.031-5.17c-0.576-0.997-2.474-1.333-5.082-0.901
	C22.82,7.999,22.24,8.125,21.645,8.28c0.085,0.391,0.164,0.789,0.234,1.202C22.04,10.406,22.165,11.383,22.253,12.401L22.253,12.401
	z M14.111,16c0-1.044,0.846-1.89,1.89-1.89c1.044,0,1.89,0.846,1.89,1.89c0,1.044-0.846,1.89-1.89,1.89
	C14.958,17.89,14.111,17.044,14.111,16z"/>
</svg>
