<?xml version="1.0" encoding="utf-8"?>
<!-- Generator: Adobe Illustrator 25.2.1, SVG Export Plug-In . SVG Version: 6.00 Build 0)  -->
<svg version="1.1" id="Layer_1" xmlns="http://www.w3.org/2000/svg" xmlns:xlink="http://www.w3.org/1999/xlink" x="0px" y="0px"
	 viewBox="0 0 32 32" style="enable-background:new 0 0 32 32;" xml:space="preserve">
<style type="text/css">
	.st0{fill-rule:evenodd;clip-rule:evenodd;fill:#D4A332;}
	.st1{fill:#FFFFFF;}
	.st2{fill-rule:evenodd;clip-rule:evenodd;fill:#FFFFFF;}
</style>
<circle class="st0" cx="16" cy="16" r="16"/>
<g>
	<path class="st1" d="M14.414,8.766c0-0.117-0.002-0.234,0.002-0.352c0.002-0.068-0.017-0.099-0.093-0.098
		c-1.272,0.009-2.544-0.015-3.816,0.011C10.074,8.336,9.644,8.403,9.233,8.55C8.781,8.712,8.402,8.976,8.159,9.407
		c-0.162,0.288-0.288,0.59-0.385,0.906c-0.064,0.209-0.09,0.426-0.142,0.637c-0.069,0.281-0.059,0.568-0.076,0.852
		c-0.004,0.067-0.023,0.093-0.09,0.087c-0.102-0.01-0.206,0.017-0.307-0.016c0.017-0.248-0.067-0.489-0.047-0.737
		c0.007-0.087-0.034-0.112-0.116-0.111c-0.395,0.003-0.79,0.002-1.185,0.002c0-1.152,0-2.304,0-3.456
		C6.18,7.573,6.548,7.574,6.916,7.577c0.078,0.001,0.1-0.036,0.1-0.108C7.014,7.242,6.995,7.015,7.013,6.788
		c0.205,0.04,0.412,0.061,0.62,0.08C8.012,6.901,8.39,6.953,8.771,6.97c0.458,0.02,0.916,0.042,1.375,0.041
		c1.093-0.001,2.187,0.002,3.28,0.003c0.007,0.053,0.049,0.081,0.083,0.115c0.687,0.687,1.374,1.374,2.06,2.061
		c0.042,0.042,0.083,0.082,0.138,0.106c0.001,0.069,0.003,0.138,0.003,0.207c0.002,4.266,0.003,8.531,0.005,12.797
		c0,1.428,0,2.855,0.003,4.283c0,0.096-0.026,0.122-0.12,0.119c-0.158-0.006-0.317-0.003-0.475,0.007
		c-0.54,0.034-1.079,0.072-1.619,0.11c-0.268,0.019-0.535,0.041-0.803,0.065c-0.019,0.002-0.073-0.025-0.06,0.038
		c-0.159,0-0.317,0-0.476,0c0.002-0.079,0.009-0.158,0.006-0.237c-0.003-0.072,0.026-0.104,0.094-0.122
		c0.207-0.056,0.404-0.137,0.589-0.248c0.498-0.299,0.828-0.739,1.06-1.262c0.162-0.365,0.244-0.752,0.326-1.139
		c0.009-0.041,0.045-0.109-0.055-0.106c-0.541,0.019-1.082,0.003-1.623,0.009c-0.049,0-0.096-0.007-0.142-0.024
		c0.118-0.716,0.149-1.438,0.149-2.163c-0.001-1.795-0.001-3.591-0.007-5.386c-0.001-0.351-0.001-0.703,0-1.054
		c0.358-0.001,0.717-0.001,1.075-0.002c0.214,0,0.427,0.002,0.641-0.001c0.088-0.001,0.129,0.032,0.124,0.121
		c-0.001,0.02,0.002,0.04,0.003,0.061c0.01-0.044,0.01-0.087,0.01-0.131c0.003-2.054,0.006-4.108,0.007-6.162
		C14.422,8.972,14.435,8.869,14.414,8.766z"/>
	<path class="st1" d="M12.42,23.792c0.046,0.017,0.093,0.025,0.142,0.024c0.541-0.005,1.082,0.01,1.623-0.009
		c0.099-0.003,0.063,0.064,0.055,0.106c-0.082,0.387-0.164,0.774-0.326,1.139c-0.232,0.523-0.562,0.963-1.06,1.262
		c-0.185,0.111-0.382,0.192-0.589,0.248c-0.068,0.019-0.098,0.05-0.094,0.122c0.004,0.079-0.003,0.158-0.006,0.237
		c-0.614,0-1.228,0-1.842,0c0-0.083,0.004-0.165-0.001-0.248c-0.005-0.069,0.025-0.095,0.088-0.113
		c0.807-0.23,1.329-0.768,1.654-1.523c0.158-0.366,0.251-0.748,0.328-1.135C12.4,23.865,12.411,23.829,12.42,23.792z"/>
	<path class="st1" d="M5.812,11.028c0.395,0,0.79,0.001,1.185-0.002c0.082-0.001,0.123,0.023,0.116,0.111
		c-0.02,0.248,0.064,0.489,0.047,0.737c-0.449,0.001-0.898,0.002-1.348,0.003C5.812,11.593,5.812,11.311,5.812,11.028z"/>
	<path class="st1" d="M5.812,6.785c0.188,0.021,0.376,0.007,0.564,0.009c0.212,0.002,0.425-0.004,0.637-0.006
		C6.995,7.015,7.014,7.242,7.016,7.469c0.001,0.072-0.021,0.108-0.1,0.108C6.548,7.574,6.18,7.573,5.812,7.572
		C5.812,7.31,5.812,7.047,5.812,6.785z"/>
	<path class="st1" d="M14.414,8.766c0.021,0.103,0.008,0.206,0.008,0.309c-0.002,2.054-0.005,4.108-0.007,6.162
		c0,0.044,0,0.087-0.01,0.131c-0.001-0.02-0.004-0.041-0.003-0.061c0.005-0.089-0.036-0.122-0.124-0.121
		c-0.214,0.003-0.427,0.001-0.641,0.001c-0.358,0-0.717,0.001-1.075,0.002c-0.018-0.114,0.004-0.227,0.004-0.34
		c0-1.244-0.002-2.488,0.001-3.732c0.002-0.751,0.012-1.503,0.014-2.254c0-0.102,0.028-0.138,0.134-0.137
		c0.5,0.005,0.999,0.004,1.499,0C14.286,8.726,14.347,8.755,14.414,8.766z"/>
	<path class="st1" d="M13.426,7.014c0.031-0.003,0.061-0.008,0.092-0.008c0.696,0.001,1.392,0.003,2.087,0.003
		c0.073,0,0.113,0.01,0.113,0.099c-0.002,0.703,0.001,1.405,0.002,2.108c0,0.027-0.008,0.054-0.012,0.081
		c-0.055-0.024-0.097-0.065-0.138-0.106c-0.687-0.687-1.374-1.374-2.06-2.061C13.475,7.095,13.434,7.067,13.426,7.014z"/>
	<g>
		<path class="st1" d="M21.869,8.326c-0.04-0.001-0.08-0.002-0.12-0.002c-0.069-0.019-0.139-0.016-0.209-0.005
			c-0.586-0.001-1.171-0.001-1.757-0.002c-0.092-0.042-0.191-0.022-0.286-0.021C19,8.298,18.504,8.322,18.008,8.287
			c-0.09-0.006-0.097,0.051-0.097,0.12c0.005,2.21,0.008,4.42,0.012,6.63c0,0.058,0,0.116,0,0.192
			c0.08-0.062,0.156-0.026,0.229-0.029c0.537-0.025,1.075-0.013,1.612-0.007c0.004,0.503,0.012,1.007,0.012,1.51
			c0,1.731-0.004,3.462-0.003,5.192c0,0.593,0.038,1.185,0.127,1.772c-0.179,0.002-0.358,0.003-0.538,0.005
			c-0.212,0.002-0.424-0.015-0.636-0.004c-0.184,0.01-0.37,0.004-0.555-0.009c-0.103-0.007-0.115-0.01-0.099,0.094
			c0.092,0.574,0.232,1.134,0.527,1.643c0.119,0.206,0.252,0.407,0.426,0.568c0.303,0.283,0.65,0.499,1.058,0.599
			c0.061,0.015,0.085,0.045,0.084,0.108c-0.002,0.082,0.004,0.165,0.006,0.248c-0.159,0-0.317,0-0.476,0
			c0.005-0.005,0.01-0.009,0.014-0.014c0,0-0.004-0.005-0.006-0.007c-0.03-0.023-0.065-0.018-0.099-0.021
			c-0.288-0.022-0.577-0.044-0.865-0.065c-0.673-0.048-1.345-0.121-2.021-0.114c-0.073,0.001-0.101-0.014-0.101-0.095
			c0.002-2.157,0.001-4.314,0.001-6.471c0.003-0.037,0.01-0.075,0.01-0.112c0-0.949,0-1.898-0.001-2.848
			c0-0.034-0.006-0.068-0.01-0.102c0.001-0.945,0.002-1.891,0.003-2.836c0.004-0.027,0.013-0.054,0.013-0.08
			c0.002-0.607,0.003-1.213,0.004-1.82c0-0.031,0.004-0.062-0.015-0.09c0.002-0.976,0.005-1.953,0.007-2.929
			c0.054-0.012,0.086-0.056,0.122-0.092c0.605-0.602,1.211-1.205,1.815-1.808c0.131-0.131,0.256-0.269,0.384-0.403
			c1.241-0.002,2.481-0.003,3.722-0.005c0.126,0.014,0.251,0.004,0.376-0.016c0.367-0.016,0.734-0.038,1.1-0.069
			c0.393-0.034,0.784-0.088,1.176-0.135c0.013,0.219,0.008,0.439-0.009,0.658c-0.005,0.068,0.002,0.131,0.098,0.131
			c0.364-0.003,0.727-0.003,1.091-0.005c0,1.152,0,2.304,0,3.456c-0.11,0.001-0.219,0.003-0.329,0.001
			c-0.287-0.004-0.573,0.02-0.86-0.001c-0.051-0.004-0.086,0.017-0.089,0.075c-0.012,0.257-0.05,0.512-0.048,0.77
			c-0.115,0.036-0.232,0.012-0.348,0.015c-0.067,0.002-0.047-0.057-0.048-0.093c-0.01-0.321-0.042-0.639-0.098-0.955
			c-0.078-0.432-0.214-0.845-0.401-1.243C24,8.991,23.507,8.655,22.88,8.483c-0.323-0.088-0.652-0.137-0.986-0.15
			C21.888,8.322,21.881,8.315,21.869,8.326z M18.738,7.551c0.041-0.033,0.071-0.044,0.071-0.087
			C18.77,7.474,18.75,7.492,18.738,7.551z M18.487,7.78c-0.044,0.03-0.073,0.042-0.074,0.085C18.453,7.857,18.471,7.836,18.487,7.78
			z M18.054,8.232c0.042-0.031,0.072-0.042,0.073-0.085C18.087,8.155,18.069,8.175,18.054,8.232z M18.246,8.019
			c0.004,0.004,0.009,0.01,0.012,0.01c0.005-0.001,0.012-0.006,0.013-0.011c0.003-0.013-0.005-0.016-0.015-0.012
			C18.252,8.007,18.249,8.015,18.246,8.019z"/>
		<path class="st1" d="M20.174,26.922c-0.002-0.083-0.008-0.165-0.006-0.248c0.002-0.063-0.023-0.093-0.084-0.108
			c-0.409-0.101-0.755-0.317-1.058-0.599c-0.174-0.162-0.306-0.362-0.426-0.568c-0.295-0.509-0.435-1.069-0.527-1.643
			c-0.017-0.104-0.005-0.101,0.099-0.094c0.184,0.012,0.37,0.018,0.555,0.009c0.213-0.011,0.424,0.005,0.636,0.004
			c0.179-0.001,0.358-0.003,0.538-0.005c0.042,0.209,0.068,0.422,0.121,0.627c0.059,0.228,0.13,0.456,0.222,0.675
			c0.227,0.547,0.558,1.01,1.071,1.326c0.186,0.114,0.384,0.203,0.596,0.257c0.08,0.02,0.118,0.053,0.108,0.141
			c-0.008,0.075-0.002,0.151-0.002,0.227C21.402,26.922,20.788,26.922,20.174,26.922z"/>
		<path class="st1" d="M25.181,11.874c-0.002-0.258,0.036-0.513,0.048-0.77c0.003-0.058,0.038-0.079,0.089-0.075
			c0.287,0.021,0.574-0.003,0.86,0.001c0.11,0.002,0.219-0.001,0.329-0.001c0,0.283,0,0.566,0,0.849
			C26.065,11.875,25.623,11.875,25.181,11.874z"/>
		<path class="st1" d="M25.327,6.788c0.394,0.009,0.787,0.015,1.18-0.003c0,0.262,0,0.524,0,0.786
			c-0.364,0.001-0.727,0.002-1.091,0.005c-0.096,0.001-0.103-0.063-0.098-0.131C25.335,7.227,25.339,7.008,25.327,6.788z"/>
		<path class="st1" d="M19.765,15.194c-0.537-0.006-1.075-0.019-1.612,0.007c-0.074,0.003-0.149-0.033-0.229,0.029
			c0-0.076,0-0.134,0-0.192c-0.004-2.21-0.008-4.42-0.012-6.63c0-0.07,0.007-0.127,0.097-0.12c0.496,0.035,0.992,0.01,1.489,0.008
			c0.095,0,0.193-0.021,0.286,0.021c-0.026,0.041-0.019,0.086-0.019,0.131c0.004,2.208,0.009,4.416,0.013,6.624
			C19.776,15.113,19.783,15.155,19.765,15.194z"/>
		<path class="st1" d="M21.539,8.319c0.07-0.011,0.14-0.014,0.209,0.005C21.678,8.339,21.609,8.335,21.539,8.319z"/>
		<path class="st1" d="M21.869,8.326c0.012-0.011,0.019-0.004,0.025,0.007C21.886,8.331,21.877,8.328,21.869,8.326z"/>
		<path class="st1" d="M16.632,9.317c-0.018-0.036-0.013-0.074-0.013-0.112c0-0.689,0.002-1.379-0.001-2.068
			c0-0.095,0.019-0.132,0.124-0.131c0.71,0.003,1.42,0,2.13-0.001c0.027,0,0.054,0.006,0.081,0.009
			c-0.128,0.135-0.253,0.272-0.384,0.403c-0.604,0.604-1.21,1.206-1.815,1.808C16.718,9.262,16.687,9.305,16.632,9.317z"/>
		<path class="st1" d="M16.622,20.134c-0.003-0.031-0.007-0.061-0.007-0.092c-0.001-0.959-0.001-1.918-0.001-2.877
			c0-0.031,0.005-0.061,0.007-0.092c0.003,0.034,0.01,0.068,0.01,0.102c0.001,0.949,0.001,1.898,0.001,2.848
			C16.632,20.06,16.625,20.097,16.622,20.134z"/>
		<path class="st1" d="M16.624,14.237c-0.003-0.02-0.008-0.041-0.008-0.061c0-0.623,0-1.246,0.001-1.869
			c0-0.02,0.006-0.041,0.009-0.061c0.019,0.028,0.015,0.06,0.015,0.09c-0.001,0.607-0.002,1.213-0.004,1.82
			C16.636,14.184,16.628,14.21,16.624,14.237z"/>
		<path class="st1" d="M22.676,7.009c0.124-0.031,0.25-0.02,0.376-0.016C22.927,7.014,22.802,7.023,22.676,7.009z"/>
		<path class="st1" d="M18.738,7.551c0.012-0.058,0.032-0.077,0.071-0.087C18.809,7.507,18.779,7.517,18.738,7.551z"/>
		<path class="st1" d="M18.487,7.78c-0.017,0.057-0.035,0.077-0.074,0.085C18.415,7.822,18.443,7.81,18.487,7.78z"/>
		<path class="st1" d="M18.054,8.232c0.015-0.057,0.034-0.077,0.073-0.085C18.126,8.19,18.096,8.201,18.054,8.232z"/>
		<path class="st1" d="M18.246,8.019c0.003-0.005,0.006-0.012,0.01-0.014c0.01-0.004,0.019,0,0.015,0.012
			c-0.001,0.005-0.008,0.01-0.013,0.011C18.255,8.03,18.25,8.023,18.246,8.019z"/>
	</g>
	<rect x="12.555" y="7.507" class="st1" width="2.446" height="3.271"/>
</g>
<polygon class="st2" points="10.611,26.806 15.556,26.583 15.718,7.108 5.812,6.785 8.25,7.864 12.694,8.287 13.083,22.833 
	13.111,25.806 "/>
<path class="st2" d="M21.869,26.922L16.833,26.5L16.618,7.137l7.159-0.149l2.729-0.203v4.973L24.75,8.726l-3.528-0.697
	c0,0-2.287-0.47-2.268-0.25s0,1.943,0,1.943l0.213,9.361l0.194,5.583L21.869,26.922z"/>
<polygon class="st2" points="5.812,10.639 5.812,11.876 7.466,11.89 7.466,10 5.812,10.111 "/>
<polygon class="st2" points="24.686,10.842 24.785,11.796 25.049,11.89 26.507,11.876 26.507,10 "/>
<polygon class="st2" points="19.859,23.361 20.022,24.295 17.786,24.194 17.786,22.583 "/>
<polygon class="st2" points="12.489,23.283 12.306,24.295 14.426,24.295 14.253,22.694 "/>
<polygon class="st2" points="19.782,9.556 19.782,7.778 17.139,7.822 17.139,10.5 19.782,10.5 "/>
</svg>
