<?xml version="1.0" encoding="utf-8"?>
<!-- Generator: Adobe Illustrator 25.0.1, SVG Export Plug-In . SVG Version: 6.00 Build 0)  -->
<svg version="1.1" id="Layer_1" xmlns="http://www.w3.org/2000/svg" xmlns:xlink="http://www.w3.org/1999/xlink" x="0px" y="0px"
	 viewBox="0 0 32 32" style="enable-background:new 0 0 32 32;" xml:space="preserve">
<style type="text/css">
	.st0{fill-rule:evenodd;clip-rule:evenodd;fill:#35BDE1;}
	.st1{fill:#FFFFFF;}
</style>
<g>
	<circle class="st0" cx="16" cy="16" r="16"/>
	<g>
		<path class="st1" d="M24.267,7.755c-0.654,1.48-1.315,2.956-1.962,4.439c-2.051,4.704-4.097,9.411-6.145,14.116
			c-0.037,0.085-0.082,0.166-0.134,0.271c-0.162-0.113-0.191-0.28-0.252-0.421c-2.631-6.04-5.259-12.082-7.889-18.122
			C7.843,7.94,7.784,7.849,7.733,7.755c0-0.027,0-0.055,0-0.082c0.75,0,1.501,0.016,2.25-0.008c0.298-0.01,0.427,0.102,0.539,0.362
			c1.746,4.038,3.502,8.071,5.259,12.104c0.057,0.13,0.081,0.286,0.217,0.382c0.131-0.083,0.15-0.225,0.202-0.344
			c1.769-4.057,3.538-8.115,5.296-12.177c0.111-0.256,0.25-0.334,0.521-0.327c0.75,0.019,1.5,0.007,2.25,0.007
			C24.267,7.701,24.267,7.728,24.267,7.755z"/>
		<path class="st1" d="M13.039,7.687c2.003,0,3.935,0,5.92,0c-0.978,2.305-1.942,4.579-2.958,6.973
			C14.992,12.284,14.025,10.008,13.039,7.687z"/>
	</g>
</g>
</svg>
