<?xml version="1.0" encoding="utf-8"?>
<!-- Generator: Adobe Illustrator 25.0.1, SVG Export Plug-In . SVG Version: 6.00 Build 0)  -->
<svg version="1.1" id="Layer_1" xmlns="http://www.w3.org/2000/svg" xmlns:xlink="http://www.w3.org/1999/xlink" x="0px" y="0px"
	 viewBox="0 0 32 32" style="enable-background:new 0 0 32 32;" xml:space="preserve">
<style type="text/css">
	.st0{fill-rule:evenodd;clip-rule:evenodd;fill:#F7B647;}
	.st1{fill:#FFFFFF;}
	.st2{fill:#FFFFFE;}
	.st3{fill:#F4BF56;}
</style>
<g>
	<circle class="st0" cx="16" cy="16" r="16"/>
	<g>
		<path class="st1" d="M6.82,17.598c0.073-0.158,0.154-0.311,0.287-0.43c0.175-0.158,0.375-0.251,0.612-0.258
			c0.084-0.003,0.169-0.002,0.253-0.002c2.987,0,5.974,0,8.961-0.001c0.242,0,0.484-0.01,0.726-0.016
			c0.071,0.028,0.146,0.017,0.219,0.017c2.086,0,4.173,0,6.259,0c0.148,0,0.292,0.007,0.435,0.059
			c0.379,0.14,0.705,0.568,0.635,1.055c-0.071,0.494-0.466,0.853-0.944,0.859c-0.558,0.008-1.117,0.003-1.675,0.003
			c-0.98,0-1.96,0-2.94,0c-0.178,0-0.178,0.001-0.238,0.161c-0.262,0.694-0.526,1.388-0.788,2.082
			c-0.022,0.059-0.039,0.12-0.058,0.18c-0.138,0.313-0.249,0.637-0.37,0.957c-0.502,1.319-1.006,2.637-1.498,3.96
			c-0.142,0.383-0.511,0.707-1.02,0.701c-0.413-0.006-0.818-0.236-0.986-0.68c-0.711-1.887-1.426-3.773-2.14-5.659
			c-0.194-0.512-0.387-1.024-0.582-1.536c-0.062-0.164-0.064-0.163-0.233-0.163c-1.291,0-2.583,0-3.874-0.001
			c-0.121,0-0.241-0.002-0.36-0.035c-0.456-0.126-0.806-0.633-0.698-1.127C6.812,17.682,6.814,17.64,6.82,17.598z M15.689,23.26
			c0.558-1.474,1.103-2.913,1.647-4.351c-0.07-0.039-0.129-0.024-0.185-0.024c-0.97-0.001-1.939-0.001-2.909-0.001
			c-0.222,0-0.212-0.008-0.138,0.189c0.46,1.216,0.921,2.432,1.381,3.649C15.548,22.888,15.612,23.055,15.689,23.26z"/>
		<path class="st2" d="M7.585,7.363c0.008-0.207,0.032-0.408,0.148-0.589C7.942,6.451,8.24,6.278,8.621,6.299
			C9.025,6.32,9.337,6.522,9.493,6.904c0.216,0.531,0.41,1.072,0.613,1.608c0.559,1.477,1.119,2.953,1.676,4.43
			c0.029,0.078,0.063,0.116,0.156,0.116c2.144-0.003,4.289-0.003,6.433-0.004c0.016,0,0.031-0.004,0.047-0.005
			c0.348,0.002,0.696,0.001,1.043,0.009c0.095,0.002,0.113-0.059,0.137-0.123c0.116-0.305,0.232-0.61,0.347-0.916
			c0.572-1.512,1.144-3.024,1.717-4.536c0.073-0.192,0.144-0.385,0.221-0.575c0.169-0.422,0.588-0.633,0.964-0.614
			c0.46,0.024,0.816,0.339,0.921,0.78c0.05,0.209,0.023,0.407-0.051,0.603c-0.179,0.473-0.358,0.946-0.537,1.418
			c-0.481,1.27-0.963,2.541-1.444,3.811c-0.009,0.025-0.019,0.049-0.026,0.074c-0.011,0.045,0.005,0.071,0.054,0.072
			c0.042,0.001,0.084,0.001,0.126,0.001c0.77,0,1.539,0,2.309,0c0.358,0,0.64,0.148,0.846,0.441
			c0.394,0.561,0.067,1.381-0.605,1.522c-0.115,0.024-0.23,0.027-0.345,0.027c-2.53,0-5.061,0-7.591,0
			c-0.068,0-0.137,0.004-0.205,0.006c-0.068-0.002-0.137-0.005-0.205-0.005c-2.744,0-5.487-0.001-8.231,0
			c-0.193,0-0.376-0.03-0.548-0.122c-0.52-0.276-0.681-0.928-0.365-1.425c0.197-0.31,0.477-0.44,0.826-0.443
			c0.563-0.005,1.127-0.001,1.69-0.002c0.063,0,0.126-0.004,0.189-0.006c0.052-0.018,0.023-0.043,0.005-0.067
			c-0.136-0.35-0.285-0.696-0.392-1.058c-0.042-0.143-0.118-0.275-0.177-0.413c-0.028-0.067-0.054-0.134-0.065-0.207
			c-0.019-0.129-0.095-0.239-0.132-0.364c-0.063-0.212-0.168-0.408-0.238-0.619c-0.042-0.123-0.059-0.265-0.152-0.37
			C8.452,9.681,8.27,9.456,8.229,9.18C8.215,9.083,8.161,8.994,8.121,8.908C8.063,8.781,8.046,8.64,7.968,8.519
			C7.926,8.455,7.892,8.374,7.885,8.287C7.881,8.228,7.867,8.161,7.808,8.123C7.802,8.112,7.796,8.102,7.79,8.092
			c0-0.026,0.009-0.056-0.002-0.076C7.718,7.889,7.705,7.741,7.627,7.619C7.577,7.54,7.618,7.445,7.585,7.363z"/>
		<path class="st3" d="M9.66,12.983c0.018,0.024,0.047,0.048-0.005,0.067C9.657,13.027,9.659,13.005,9.66,12.983z"/>
		<path class="st3" d="M7.79,8.092c0.006,0.01,0.012,0.021,0.018,0.031C7.802,8.112,7.796,8.102,7.79,8.092z"/>
	</g>
</g>
</svg>
