<?xml version="1.0" encoding="utf-8"?>
<!-- Generator: Adobe Illustrator 25.2.3, SVG Export Plug-In . SVG Version: 6.00 Build 0)  -->
<svg version="1.1" id="Layer_1" xmlns="http://www.w3.org/2000/svg" xmlns:xlink="http://www.w3.org/1999/xlink" x="0px" y="0px"
	 viewBox="0 0 32 32" style="enable-background:new 0 0 32 32;" xml:space="preserve">
<style type="text/css">
	.st0{fill-rule:evenodd;clip-rule:evenodd;fill:#10367F;}
	.st1{fill:#FAFBFB;}
</style>
<g>
	<circle class="st0" cx="16" cy="16" r="16"/>
	<path class="st1" d="M24.324,8.543c-1.643,0.059-2.772,1.068-3.906,2.053c-1.203,1.045-2.38,2.119-3.582,3.165
		c-0.218,0.19-0.252,0.348-0.162,0.612c0.217,0.637,0.397,1.286,0.606,1.973c0.265-0.225,0.478-0.425,0.711-0.598
		c2.189-1.633,5.581-0.732,6.658,1.779c0.932,2.171,0.221,4.277-1.396,5.477c-2.141,1.588-5.71,1.145-6.846-1.963
		c-0.005-0.013-0.009-0.025-0.014-0.038c-0.222-0.586-0.269-0.597-0.733-0.178c-0.809,0.729-1.601,1.481-2.434,2.182
		c-1.509,1.27-3.183,1.586-5.016,0.755c-0.105-0.048-0.309-0.049-0.275-0.225c0.022-0.114,0.182-0.123,0.302-0.145
		c1.04-0.193,1.9-0.748,2.68-1.418c1.454-1.248,2.878-2.531,4.324-3.788c0.182-0.158,0.213-0.294,0.141-0.513
		c-0.181-0.547-0.355-1.097-0.498-1.655c-0.087-0.338-0.172-0.385-0.435-0.128c-0.822,0.803-1.838,1.176-2.969,1.174
		c-1.718-0.004-3.054-0.77-3.902-2.253c-0.888-1.555-0.863-3.158,0.124-4.667c0.98-1.498,2.415-2.156,4.201-2.022
		c1.053,0.079,1.993,0.449,2.712,1.24c0.518,0.569,0.947,1.212,1.146,1.973c0.068,0.262,0.139,0.259,0.325,0.089
		c0.876-0.799,1.771-1.576,2.64-2.382c0.817-0.759,1.774-1.197,2.878-1.254C22.579,7.735,23.499,7.967,24.324,8.543z M9.213,12.444
		c-0.021,0.579,0.224,1.321,0.533,1.615c1.002,0.954,2.196,0.997,3.265,0.119c1.117-0.919,1.126-0.95,0.602-2.325
		c-0.431-1.133-1.36-1.669-2.498-1.515C9.988,10.49,9.173,11.609,9.213,12.444z M20.401,21.669c0.828,0.02,1.483-0.258,1.964-0.891
		c0.692-0.912,0.592-2.177-0.222-2.973c-0.812-0.794-2.083-0.847-2.984-0.113c-0.33,0.269-0.634,0.569-0.959,0.844
		c-0.148,0.125-0.205,0.234-0.136,0.442c0.178,0.537,0.281,1.105,0.58,1.592C19.051,21.232,19.613,21.675,20.401,21.669z"/>
</g>
</svg>
