<?xml version="1.0" encoding="utf-8"?>
<!-- Generator: Adobe Illustrator 25.2.3, SVG Export Plug-In . SVG Version: 6.00 Build 0)  -->
<svg version="1.1" id="Layer_1" xmlns="http://www.w3.org/2000/svg" xmlns:xlink="http://www.w3.org/1999/xlink" x="0px" y="0px"
	 viewBox="0 0 32 32" style="enable-background:new 0 0 32 32;" xml:space="preserve">
<style type="text/css">
	.st0{fill-rule:evenodd;clip-rule:evenodd;fill:#48C0BE;}
	.st1{fill:#FEFEFE;}
	.st2{fill:#7FD3D1;}
	.st3{fill:#BEE8E7;}
</style>
<g>
	<circle class="st0" cx="16" cy="16" r="16"/>
	<path class="st1" d="M20.278,25.769c-0.668-0.319-1.337-0.636-2.004-0.958c-3.127-1.51-6.253-3.023-9.381-4.531
		c-0.11-0.053-0.157-0.11-0.156-0.241c0.007-0.877,0.007-1.755,0-2.632c-0.001-0.134,0.044-0.197,0.161-0.255
		c2.556-1.262,5.111-2.528,7.665-3.793c0.048-0.024,0.095-0.049,0.147-0.076c-0.041-0.073-0.116-0.084-0.175-0.113
		c-2.544-1.237-5.089-2.474-7.636-3.706C8.781,9.406,8.735,9.344,8.736,9.21c0.007-0.888,0.003-1.776,0.005-2.665
		c0-0.056-0.025-0.12,0.03-0.168c0.09-0.025,0.17,0.003,0.249,0.042c0.776,0.385,1.559,0.755,2.337,1.135
		c1.109,0.541,2.223,1.073,3.331,1.616c0.637,0.311,1.277,0.617,1.915,0.926c1.086,0.527,2.176,1.046,3.258,1.581
		c0.102,0.05,0.209,0.088,0.31,0.141c0.08,0.042,0.145,0.094,0.17,0.185c0.025,0.216,0.012,0.432,0.013,0.648
		c0.002,0.659,0.001,1.317,0.001,1.976c0,0.115-0.005,0.227-0.078,0.324c-0.691,0.358-1.381,0.718-2.072,1.074
		c-1.865,0.961-3.73,1.92-5.595,2.88c-0.042,0.022-0.092,0.033-0.133,0.095c2.601,1.264,5.198,2.526,7.796,3.789
		c0.076,0.039,0.077,0.114,0.077,0.183c0.007,0.864,0.006,1.728,0.001,2.592C20.353,25.639,20.338,25.713,20.278,25.769z"/>
	<path class="st2" d="M20.276,11.961c-3.262-1.58-6.524-3.16-9.786-4.741C9.916,6.941,9.344,6.658,8.771,6.377
		c0.19-0.138,0.415-0.206,0.626-0.301c0.745-0.337,1.495-0.662,2.24-0.997c0.1-0.045,0.174-0.019,0.259,0.023
		c1.031,0.505,2.062,1.009,3.094,1.512c1.601,0.78,3.203,1.559,4.805,2.338c1.081,0.526,2.162,1.05,3.243,1.576
		c0.058,0.028,0.122,0.048,0.163,0.103c0.024,0.096-0.05,0.123-0.112,0.151c-0.861,0.389-1.724,0.774-2.584,1.164
		C20.433,11.977,20.356,12.018,20.276,11.961z"/>
	<path class="st3" d="M20.278,25.769c-0.001-0.994-0.002-1.988-0.003-2.981c0.045-0.069,0.027-0.147,0.027-0.222
		c0.001-1.961,0.003-3.922-0.003-5.882c0-0.159,0.048-0.238,0.195-0.303c0.866-0.385,1.726-0.781,2.588-1.173
		c0.177-0.08,0.179-0.08,0.179,0.106c0,2.99,0,5.98,0.002,8.97c0,0.104-0.026,0.167-0.128,0.213
		c-0.949,0.423-1.895,0.852-2.843,1.278C20.289,25.775,20.283,25.771,20.278,25.769z"/>
	<path class="st3" d="M20.276,11.961c0.919-0.414,1.837-0.827,2.756-1.241c0.058-0.026,0.114-0.06,0.171-0.09
		c0.078,0.017,0.06,0.08,0.06,0.131c0.001,0.903-0.002,1.805,0.003,2.708c0.001,0.128-0.075,0.164-0.166,0.205
		c-0.887,0.398-1.773,0.798-2.66,1.197c-0.054,0.024-0.107,0.052-0.16,0.078C20.278,13.953,20.277,12.957,20.276,11.961z"/>
</g>
</svg>
